<?xml version="1.0" encoding="utf-8" standalone="no"?>
<!DOCTYPE svg PUBLIC "-//W3C//DTD SVG 1.1//EN"
  "http://www.w3.org/Graphics/SVG/1.1/DTD/svg11.dtd">
<svg xmlns:xlink="http://www.w3.org/1999/xlink" width="474.1625pt" height="378.83625pt" viewBox="0 0 474.1625 378.83625" xmlns="http://www.w3.org/2000/svg" version="1.1">
 <metadata>
  <rdf:RDF xmlns:dc="http://purl.org/dc/elements/1.1/" xmlns:cc="http://creativecommons.org/ns#" xmlns:rdf="http://www.w3.org/1999/02/22-rdf-syntax-ns#">
   <cc:Work>
    <dc:type rdf:resource="http://purl.org/dc/dcmitype/StillImage"/>
    <dc:date>2023-04-24T15:33:57.681981</dc:date>
    <dc:format>image/svg+xml</dc:format>
    <dc:creator>
     <cc:Agent>
      <dc:title>Matplotlib v3.5.1, https://matplotlib.org/</dc:title>
     </cc:Agent>
    </dc:creator>
   </cc:Work>
  </rdf:RDF>
 </metadata>
 <defs>
  <style type="text/css">*{stroke-linejoin: round; stroke-linecap: butt}</style>
 </defs>
 <g id="figure_1">
  <g id="patch_1">
   <path d="M 0 378.83625 
L 474.1625 378.83625 
L 474.1625 0 
L 0 0 
z
" style="fill: #ffffff"/>
  </g>
  <g id="axes_1">
   <g id="patch_2">
    <path d="M 20.5625 354.958125 
L 466.9625 354.958125 
L 466.9625 22.318125 
L 20.5625 22.318125 
z
" style="fill: #ffffff"/>
   </g>
   <g id="matplotlib.axis_1">
    <g id="xtick_1">
     <g id="line2d_1">
      <defs>
       <path id="m39a8728079" d="M 0 0 
L 0 3.5 
" style="stroke: #000000; stroke-width: 0.8"/>
      </defs>
      <g>
       <use xlink:href="#m39a8728079" x="31.232188" y="354.958125" style="stroke: #000000; stroke-width: 0.8"/>
      </g>
     </g>
     <g id="text_1">
      <!-- 2013 -->
      <g transform="translate(18.507188 369.556562)scale(0.1 -0.1)">
       <defs>
        <path id="DejaVuSans-32" d="M 1228 531 
L 3431 531 
L 3431 0 
L 469 0 
L 469 531 
Q 828 903 1448 1529 
Q 2069 2156 2228 2338 
Q 2531 2678 2651 2914 
Q 2772 3150 2772 3378 
Q 2772 3750 2511 3984 
Q 2250 4219 1831 4219 
Q 1534 4219 1204 4116 
Q 875 4013 500 3803 
L 500 4441 
Q 881 4594 1212 4672 
Q 1544 4750 1819 4750 
Q 2544 4750 2975 4387 
Q 3406 4025 3406 3419 
Q 3406 3131 3298 2873 
Q 3191 2616 2906 2266 
Q 2828 2175 2409 1742 
Q 1991 1309 1228 531 
z
" transform="scale(0.015625)"/>
        <path id="DejaVuSans-30" d="M 2034 4250 
Q 1547 4250 1301 3770 
Q 1056 3291 1056 2328 
Q 1056 1369 1301 889 
Q 1547 409 2034 409 
Q 2525 409 2770 889 
Q 3016 1369 3016 2328 
Q 3016 3291 2770 3770 
Q 2525 4250 2034 4250 
z
M 2034 4750 
Q 2819 4750 3233 4129 
Q 3647 3509 3647 2328 
Q 3647 1150 3233 529 
Q 2819 -91 2034 -91 
Q 1250 -91 836 529 
Q 422 1150 422 2328 
Q 422 3509 836 4129 
Q 1250 4750 2034 4750 
z
" transform="scale(0.015625)"/>
        <path id="DejaVuSans-31" d="M 794 531 
L 1825 531 
L 1825 4091 
L 703 3866 
L 703 4441 
L 1819 4666 
L 2450 4666 
L 2450 531 
L 3481 531 
L 3481 0 
L 794 0 
L 794 531 
z
" transform="scale(0.015625)"/>
        <path id="DejaVuSans-33" d="M 2597 2516 
Q 3050 2419 3304 2112 
Q 3559 1806 3559 1356 
Q 3559 666 3084 287 
Q 2609 -91 1734 -91 
Q 1441 -91 1130 -33 
Q 819 25 488 141 
L 488 750 
Q 750 597 1062 519 
Q 1375 441 1716 441 
Q 2309 441 2620 675 
Q 2931 909 2931 1356 
Q 2931 1769 2642 2001 
Q 2353 2234 1838 2234 
L 1294 2234 
L 1294 2753 
L 1863 2753 
Q 2328 2753 2575 2939 
Q 2822 3125 2822 3475 
Q 2822 3834 2567 4026 
Q 2313 4219 1838 4219 
Q 1578 4219 1281 4162 
Q 984 4106 628 3988 
L 628 4550 
Q 988 4650 1302 4700 
Q 1616 4750 1894 4750 
Q 2613 4750 3031 4423 
Q 3450 4097 3450 3541 
Q 3450 3153 3228 2886 
Q 3006 2619 2597 2516 
z
" transform="scale(0.015625)"/>
       </defs>
       <use xlink:href="#DejaVuSans-32"/>
       <use xlink:href="#DejaVuSans-30" x="63.623047"/>
       <use xlink:href="#DejaVuSans-31" x="127.246094"/>
       <use xlink:href="#DejaVuSans-33" x="190.869141"/>
      </g>
     </g>
    </g>
    <g id="xtick_2">
     <g id="line2d_2">
      <g>
       <use xlink:href="#m39a8728079" x="76.25457" y="354.958125" style="stroke: #000000; stroke-width: 0.8"/>
      </g>
     </g>
     <g id="text_2">
      <!-- 2014 -->
      <g transform="translate(63.52957 369.556562)scale(0.1 -0.1)">
       <defs>
        <path id="DejaVuSans-34" d="M 2419 4116 
L 825 1625 
L 2419 1625 
L 2419 4116 
z
M 2253 4666 
L 3047 4666 
L 3047 1625 
L 3713 1625 
L 3713 1100 
L 3047 1100 
L 3047 0 
L 2419 0 
L 2419 1100 
L 313 1100 
L 313 1709 
L 2253 4666 
z
" transform="scale(0.015625)"/>
       </defs>
       <use xlink:href="#DejaVuSans-32"/>
       <use xlink:href="#DejaVuSans-30" x="63.623047"/>
       <use xlink:href="#DejaVuSans-31" x="127.246094"/>
       <use xlink:href="#DejaVuSans-34" x="190.869141"/>
      </g>
     </g>
    </g>
    <g id="xtick_3">
     <g id="line2d_3">
      <g>
       <use xlink:href="#m39a8728079" x="121.276952" y="354.958125" style="stroke: #000000; stroke-width: 0.8"/>
      </g>
     </g>
     <g id="text_3">
      <!-- 2015 -->
      <g transform="translate(108.551952 369.556562)scale(0.1 -0.1)">
       <defs>
        <path id="DejaVuSans-35" d="M 691 4666 
L 3169 4666 
L 3169 4134 
L 1269 4134 
L 1269 2991 
Q 1406 3038 1543 3061 
Q 1681 3084 1819 3084 
Q 2600 3084 3056 2656 
Q 3513 2228 3513 1497 
Q 3513 744 3044 326 
Q 2575 -91 1722 -91 
Q 1428 -91 1123 -41 
Q 819 9 494 109 
L 494 744 
Q 775 591 1075 516 
Q 1375 441 1709 441 
Q 2250 441 2565 725 
Q 2881 1009 2881 1497 
Q 2881 1984 2565 2268 
Q 2250 2553 1709 2553 
Q 1456 2553 1204 2497 
Q 953 2441 691 2322 
L 691 4666 
z
" transform="scale(0.015625)"/>
       </defs>
       <use xlink:href="#DejaVuSans-32"/>
       <use xlink:href="#DejaVuSans-30" x="63.623047"/>
       <use xlink:href="#DejaVuSans-31" x="127.246094"/>
       <use xlink:href="#DejaVuSans-35" x="190.869141"/>
      </g>
     </g>
    </g>
    <g id="xtick_4">
     <g id="line2d_4">
      <g>
       <use xlink:href="#m39a8728079" x="166.299333" y="354.958125" style="stroke: #000000; stroke-width: 0.8"/>
      </g>
     </g>
     <g id="text_4">
      <!-- 2016 -->
      <g transform="translate(153.574333 369.556562)scale(0.1 -0.1)">
       <defs>
        <path id="DejaVuSans-36" d="M 2113 2584 
Q 1688 2584 1439 2293 
Q 1191 2003 1191 1497 
Q 1191 994 1439 701 
Q 1688 409 2113 409 
Q 2538 409 2786 701 
Q 3034 994 3034 1497 
Q 3034 2003 2786 2293 
Q 2538 2584 2113 2584 
z
M 3366 4563 
L 3366 3988 
Q 3128 4100 2886 4159 
Q 2644 4219 2406 4219 
Q 1781 4219 1451 3797 
Q 1122 3375 1075 2522 
Q 1259 2794 1537 2939 
Q 1816 3084 2150 3084 
Q 2853 3084 3261 2657 
Q 3669 2231 3669 1497 
Q 3669 778 3244 343 
Q 2819 -91 2113 -91 
Q 1303 -91 875 529 
Q 447 1150 447 2328 
Q 447 3434 972 4092 
Q 1497 4750 2381 4750 
Q 2619 4750 2861 4703 
Q 3103 4656 3366 4563 
z
" transform="scale(0.015625)"/>
       </defs>
       <use xlink:href="#DejaVuSans-32"/>
       <use xlink:href="#DejaVuSans-30" x="63.623047"/>
       <use xlink:href="#DejaVuSans-31" x="127.246094"/>
       <use xlink:href="#DejaVuSans-36" x="190.869141"/>
      </g>
     </g>
    </g>
    <g id="xtick_5">
     <g id="line2d_5">
      <g>
       <use xlink:href="#m39a8728079" x="211.445064" y="354.958125" style="stroke: #000000; stroke-width: 0.8"/>
      </g>
     </g>
     <g id="text_5">
      <!-- 2017 -->
      <g transform="translate(198.720064 369.556562)scale(0.1 -0.1)">
       <defs>
        <path id="DejaVuSans-37" d="M 525 4666 
L 3525 4666 
L 3525 4397 
L 1831 0 
L 1172 0 
L 2766 4134 
L 525 4134 
L 525 4666 
z
" transform="scale(0.015625)"/>
       </defs>
       <use xlink:href="#DejaVuSans-32"/>
       <use xlink:href="#DejaVuSans-30" x="63.623047"/>
       <use xlink:href="#DejaVuSans-31" x="127.246094"/>
       <use xlink:href="#DejaVuSans-37" x="190.869141"/>
      </g>
     </g>
    </g>
    <g id="xtick_6">
     <g id="line2d_6">
      <g>
       <use xlink:href="#m39a8728079" x="256.467446" y="354.958125" style="stroke: #000000; stroke-width: 0.8"/>
      </g>
     </g>
     <g id="text_6">
      <!-- 2018 -->
      <g transform="translate(243.742446 369.556562)scale(0.1 -0.1)">
       <defs>
        <path id="DejaVuSans-38" d="M 2034 2216 
Q 1584 2216 1326 1975 
Q 1069 1734 1069 1313 
Q 1069 891 1326 650 
Q 1584 409 2034 409 
Q 2484 409 2743 651 
Q 3003 894 3003 1313 
Q 3003 1734 2745 1975 
Q 2488 2216 2034 2216 
z
M 1403 2484 
Q 997 2584 770 2862 
Q 544 3141 544 3541 
Q 544 4100 942 4425 
Q 1341 4750 2034 4750 
Q 2731 4750 3128 4425 
Q 3525 4100 3525 3541 
Q 3525 3141 3298 2862 
Q 3072 2584 2669 2484 
Q 3125 2378 3379 2068 
Q 3634 1759 3634 1313 
Q 3634 634 3220 271 
Q 2806 -91 2034 -91 
Q 1263 -91 848 271 
Q 434 634 434 1313 
Q 434 1759 690 2068 
Q 947 2378 1403 2484 
z
M 1172 3481 
Q 1172 3119 1398 2916 
Q 1625 2713 2034 2713 
Q 2441 2713 2670 2916 
Q 2900 3119 2900 3481 
Q 2900 3844 2670 4047 
Q 2441 4250 2034 4250 
Q 1625 4250 1398 4047 
Q 1172 3844 1172 3481 
z
" transform="scale(0.015625)"/>
       </defs>
       <use xlink:href="#DejaVuSans-32"/>
       <use xlink:href="#DejaVuSans-30" x="63.623047"/>
       <use xlink:href="#DejaVuSans-31" x="127.246094"/>
       <use xlink:href="#DejaVuSans-38" x="190.869141"/>
      </g>
     </g>
    </g>
    <g id="xtick_7">
     <g id="line2d_7">
      <g>
       <use xlink:href="#m39a8728079" x="301.489828" y="354.958125" style="stroke: #000000; stroke-width: 0.8"/>
      </g>
     </g>
     <g id="text_7">
      <!-- 2019 -->
      <g transform="translate(288.764828 369.556562)scale(0.1 -0.1)">
       <defs>
        <path id="DejaVuSans-39" d="M 703 97 
L 703 672 
Q 941 559 1184 500 
Q 1428 441 1663 441 
Q 2288 441 2617 861 
Q 2947 1281 2994 2138 
Q 2813 1869 2534 1725 
Q 2256 1581 1919 1581 
Q 1219 1581 811 2004 
Q 403 2428 403 3163 
Q 403 3881 828 4315 
Q 1253 4750 1959 4750 
Q 2769 4750 3195 4129 
Q 3622 3509 3622 2328 
Q 3622 1225 3098 567 
Q 2575 -91 1691 -91 
Q 1453 -91 1209 -44 
Q 966 3 703 97 
z
M 1959 2075 
Q 2384 2075 2632 2365 
Q 2881 2656 2881 3163 
Q 2881 3666 2632 3958 
Q 2384 4250 1959 4250 
Q 1534 4250 1286 3958 
Q 1038 3666 1038 3163 
Q 1038 2656 1286 2365 
Q 1534 2075 1959 2075 
z
" transform="scale(0.015625)"/>
       </defs>
       <use xlink:href="#DejaVuSans-32"/>
       <use xlink:href="#DejaVuSans-30" x="63.623047"/>
       <use xlink:href="#DejaVuSans-31" x="127.246094"/>
       <use xlink:href="#DejaVuSans-39" x="190.869141"/>
      </g>
     </g>
    </g>
    <g id="xtick_8">
     <g id="line2d_8">
      <g>
       <use xlink:href="#m39a8728079" x="346.51221" y="354.958125" style="stroke: #000000; stroke-width: 0.8"/>
      </g>
     </g>
     <g id="text_8">
      <!-- 2020 -->
      <g transform="translate(333.78721 369.556562)scale(0.1 -0.1)">
       <use xlink:href="#DejaVuSans-32"/>
       <use xlink:href="#DejaVuSans-30" x="63.623047"/>
       <use xlink:href="#DejaVuSans-32" x="127.246094"/>
       <use xlink:href="#DejaVuSans-30" x="190.869141"/>
      </g>
     </g>
    </g>
    <g id="xtick_9">
     <g id="line2d_9">
      <g>
       <use xlink:href="#m39a8728079" x="391.657941" y="354.958125" style="stroke: #000000; stroke-width: 0.8"/>
      </g>
     </g>
     <g id="text_9">
      <!-- 2021 -->
      <g transform="translate(378.932941 369.556562)scale(0.1 -0.1)">
       <use xlink:href="#DejaVuSans-32"/>
       <use xlink:href="#DejaVuSans-30" x="63.623047"/>
       <use xlink:href="#DejaVuSans-32" x="127.246094"/>
       <use xlink:href="#DejaVuSans-31" x="190.869141"/>
      </g>
     </g>
    </g>
    <g id="xtick_10">
     <g id="line2d_10">
      <g>
       <use xlink:href="#m39a8728079" x="436.680323" y="354.958125" style="stroke: #000000; stroke-width: 0.8"/>
      </g>
     </g>
     <g id="text_10">
      <!-- 2022 -->
      <g transform="translate(423.955323 369.556562)scale(0.1 -0.1)">
       <use xlink:href="#DejaVuSans-32"/>
       <use xlink:href="#DejaVuSans-30" x="63.623047"/>
       <use xlink:href="#DejaVuSans-32" x="127.246094"/>
       <use xlink:href="#DejaVuSans-32" x="190.869141"/>
      </g>
     </g>
    </g>
   </g>
   <g id="matplotlib.axis_2">
    <g id="ytick_1">
     <g id="line2d_11">
      <defs>
       <path id="mf8e38cbe1d" d="M 0 0 
L -3.5 0 
" style="stroke: #000000; stroke-width: 0.8"/>
      </defs>
      <g>
       <use xlink:href="#mf8e38cbe1d" x="20.5625" y="338.981282" style="stroke: #000000; stroke-width: 0.8"/>
      </g>
     </g>
     <g id="text_11">
      <!-- 0 -->
      <g transform="translate(7.2 342.780501)scale(0.1 -0.1)">
       <use xlink:href="#DejaVuSans-30"/>
      </g>
     </g>
    </g>
    <g id="ytick_2">
     <g id="line2d_12">
      <g>
       <use xlink:href="#mf8e38cbe1d" x="20.5625" y="268.611867" style="stroke: #000000; stroke-width: 0.8"/>
      </g>
     </g>
     <g id="text_12">
      <!-- 2 -->
      <g transform="translate(7.2 272.411086)scale(0.1 -0.1)">
       <use xlink:href="#DejaVuSans-32"/>
      </g>
     </g>
    </g>
    <g id="ytick_3">
     <g id="line2d_13">
      <g>
       <use xlink:href="#mf8e38cbe1d" x="20.5625" y="198.242452" style="stroke: #000000; stroke-width: 0.8"/>
      </g>
     </g>
     <g id="text_13">
      <!-- 4 -->
      <g transform="translate(7.2 202.041671)scale(0.1 -0.1)">
       <use xlink:href="#DejaVuSans-34"/>
      </g>
     </g>
    </g>
    <g id="ytick_4">
     <g id="line2d_14">
      <g>
       <use xlink:href="#mf8e38cbe1d" x="20.5625" y="127.873037" style="stroke: #000000; stroke-width: 0.8"/>
      </g>
     </g>
     <g id="text_14">
      <!-- 6 -->
      <g transform="translate(7.2 131.672256)scale(0.1 -0.1)">
       <use xlink:href="#DejaVuSans-36"/>
      </g>
     </g>
    </g>
    <g id="ytick_5">
     <g id="line2d_15">
      <g>
       <use xlink:href="#mf8e38cbe1d" x="20.5625" y="57.503622" style="stroke: #000000; stroke-width: 0.8"/>
      </g>
     </g>
     <g id="text_15">
      <!-- 8 -->
      <g transform="translate(7.2 61.302841)scale(0.1 -0.1)">
       <use xlink:href="#DejaVuSans-38"/>
      </g>
     </g>
    </g>
   </g>
   <g id="line2d_16">
    <path d="M 40.853409 338.825211 
L 40.976758 339.425726 
L 41.716852 339.036531 
L 41.840201 339.276953 
L 42.333597 339.650072 
L 42.456946 339.184289 
L 42.580295 339.323377 
L 42.703644 338.62426 
L 42.826993 338.843537 
L 43.19704 338.306911 
L 43.320389 338.406341 
L 43.443738 338.279842 
L 43.567087 338.433507 
L 43.690436 338.36111 
L 44.060483 339.286233 
L 44.183832 339.212063 
L 44.43053 339.838125 
L 44.553879 339.091868 
L 44.923926 339.491013 
L 45.047275 339.193544 
L 45.170624 339.472347 
L 45.293973 339.397783 
L 45.417322 339.481679 
L 45.910718 338.816052 
L 46.034067 339.036531 
L 46.280765 337.760567 
L 46.650812 336.69269 
L 46.774161 337.143894 
L 46.89751 335.389404 
L 47.020859 335.874603 
L 47.144208 335.622803 
L 47.514255 335.60608 
L 47.760953 334.665786 
L 48.007651 335.124545 
L 48.377698 335.364489 
L 48.501047 335.306421 
L 48.624396 334.878038 
L 48.871094 335.149291 
L 49.364489 334.968223 
L 49.487838 334.779916 
L 49.734536 335.589365 
L 50.104583 335.381097 
L 50.351281 337.751681 
L 50.597979 336.018093 
L 51.091375 336.623785 
L 51.214724 336.865546 
L 51.338073 336.375129 
L 51.461422 336.392221 
L 51.954818 336.136703 
L 52.078167 336.503525 
L 52.324865 337.796134 
L 52.818261 337.831737 
L 53.064959 336.400771 
L 53.188308 336.615182 
L 53.558355 336.477808 
L 53.681704 335.372792 
L 53.805053 335.414337 
L 54.545147 334.196865 
L 54.791845 334.552024 
L 54.915194 334.180806 
L 55.40859 334.212931 
L 55.655288 333.813464 
L 55.778637 333.829356 
L 56.148684 333.504997 
L 56.272033 333.1758 
L 56.64208 334.0686 
L 57.012127 334.495281 
L 57.382174 333.22264 
L 57.505523 333.261721 
L 57.87557 332.888322 
L 58.122268 333.80552 
L 58.245617 332.35841 
L 58.368966 332.726198 
L 58.739013 332.63389 
L 58.862362 332.381285 
L 59.10906 334.164755 
L 59.232409 334.076603 
L 59.602456 334.309482 
L 59.725805 333.980688 
L 59.972503 331.433137 
L 60.095852 331.738866 
L 60.465899 331.731377 
L 60.589248 332.48058 
L 60.835946 332.160786 
L 60.959295 332.618529 
L 61.452691 332.780157 
L 61.57604 332.503534 
L 61.822738 332.787872 
L 62.439483 331.447989 
L 62.686181 331.828852 
L 63.179577 331.836361 
L 63.426275 330.272013 
L 63.549624 331.10061 
L 63.91967 331.522344 
L 64.043019 330.953824 
L 64.166368 331.321945 
L 64.289717 331.063856 
L 64.413066 331.152131 
L 64.783113 331.270176 
L 65.029811 330.683872 
L 65.15316 331.034481 
L 65.276509 330.880659 
L 65.646556 331.529788 
L 65.769905 332.077508 
L 65.893254 332.024616 
L 66.139952 330.401553 
L 66.509999 330.343921 
L 66.633348 330.654812 
L 66.756697 330.640291 
L 66.880046 330.24329 
L 67.003395 331.233244 
L 67.496791 330.844134 
L 67.866838 329.134073 
L 68.236885 329.469501 
L 68.360234 329.120166 
L 68.730281 330.128635 
L 69.223677 329.420385 
L 69.347026 329.567939 
L 69.593724 330.459281 
L 69.963771 330.185916 
L 70.333818 328.200701 
L 70.457167 328.322823 
L 70.950563 329.238551 
L 71.073912 331.477712 
L 71.197261 330.836834 
L 71.32061 331.05651 
L 71.690657 331.166865 
L 71.814006 330.975803 
L 72.184053 331.366379 
L 72.677449 332.100201 
L 72.800798 331.828852 
L 72.924147 332.017066 
L 73.047496 330.997795 
L 73.417543 331.159497 
L 73.78759 331.806334 
L 73.910939 331.641639 
L 74.280986 331.626705 
L 74.404335 331.986884 
L 74.527684 330.749346 
L 74.651033 330.698412 
L 74.774382 331.005129 
L 76.131221 329.864918 
L 76.377919 329.943114 
L 76.501268 330.29357 
L 76.871315 330.793063 
L 77.241362 330.437622 
L 77.364711 329.772728 
L 77.734758 330.502638 
L 77.858107 330.329527 
L 78.228153 331.270176 
L 78.844898 331.166865 
L 78.968247 330.873351 
L 79.091596 331.107966 
L 79.461643 330.983132 
L 79.708341 332.503534 
L 79.83169 332.100201 
L 80.325086 332.787872 
L 80.448435 333.332176 
L 80.695133 332.03972 
L 80.818482 332.427078 
L 81.188529 332.388913 
L 81.311878 331.904017 
L 81.558576 331.994428 
L 81.681925 331.514901 
L 82.175321 331.776332 
L 82.29867 332.069947 
L 82.422019 331.979343 
L 82.545368 331.679002 
L 82.915415 331.55958 
L 83.038764 330.902593 
L 83.162113 329.043776 
L 83.285462 328.974474 
L 83.408811 329.525718 
L 83.778858 329.413374 
L 83.902207 329.106265 
L 84.148905 329.483547 
L 84.272254 329.252505 
L 84.642301 329.55386 
L 85.012348 330.466503 
L 85.135697 330.193083 
L 85.505744 329.914659 
L 85.629093 329.666654 
L 85.99914 330.078591 
L 86.369187 330.128635 
L 86.492536 330.720231 
L 86.862583 330.31514 
L 87.23263 330.329527 
L 87.479328 329.886227 
L 87.726026 330.662075 
L 88.219422 331.926598 
L 88.342771 331.321945 
L 88.589469 332.244261 
L 89.329563 331.873932 
L 89.822959 331.964265 
L 89.946308 331.321945 
L 90.069657 332.312706 
L 90.193006 331.604316 
L 90.316355 332.191117 
L 90.809751 332.153207 
L 90.9331 332.549487 
L 91.179798 331.738866 
L 91.549845 332.259459 
L 91.796543 333.167999 
L 91.919892 333.238267 
L 92.043241 332.703099 
L 92.413288 332.267061 
L 92.783334 333.544394 
L 92.906683 332.973543 
L 93.400079 332.849653 
L 93.523428 332.934781 
L 93.770126 331.679002 
L 94.263522 331.144766 
L 94.386871 331.94166 
L 94.633569 331.664052 
L 95.003616 331.716405 
L 95.126965 331.55958 
L 95.250314 331.596856 
L 95.497012 331.152131 
L 95.990408 331.284959 
L 96.113757 331.79133 
L 96.237106 332.826473 
L 96.360455 332.903802 
L 96.730502 332.927034 
L 96.853851 332.603175 
L 97.100549 332.557151 
L 97.223898 332.465285 
L 97.593945 332.419442 
L 98.087341 331.41087 
L 98.580737 330.887969 
L 99.320831 330.829535 
L 99.44418 331.115323 
L 99.567529 331.085904 
L 99.690878 331.574486 
L 99.814227 331.396034 
L 100.184274 331.55958 
L 100.430972 331.233244 
L 100.554321 331.500021 
L 100.67767 331.122681 
L 101.047717 331.292353 
L 101.417764 330.983132 
L 101.541113 331.203727 
L 101.91116 331.211104 
L 102.157858 330.640291 
L 102.404556 331.284959 
L 102.774603 331.049165 
L 102.897952 331.248012 
L 103.021301 330.909907 
L 103.14465 331.041822 
L 103.267999 329.74441 
L 103.884744 329.652535 
L 104.008093 329.259484 
L 104.131442 329.546822 
L 104.501489 329.231576 
L 104.748187 327.944271 
L 104.871536 327.716407 
L 104.994885 327.810055 
L 105.364932 327.696372 
L 105.61163 327.816753 
L 106.351724 327.756511 
L 106.475073 327.556446 
L 106.721771 326.767371 
L 107.091817 327.139976 
L 107.215166 327.476737 
L 107.338515 327.238689 
L 107.585213 327.516569 
L 107.95526 327.410451 
L 108.201958 326.930309 
L 108.325307 326.741371 
L 108.448656 326.780378 
L 108.942052 327.417074 
L 109.065401 327.080881 
L 109.18875 327.450208 
L 109.682146 327.26506 
L 109.928844 327.7632 
L 110.175542 327.107133 
L 110.545589 327.100568 
L 110.668938 327.377355 
L 110.792287 326.618132 
L 111.65573 328.705492 
L 111.779079 328.568346 
L 111.902428 327.823453 
L 112.272475 327.17285 
L 112.395824 326.45663 
L 112.519173 326.878086 
L 112.765871 325.982884 
L 113.135918 325.893969 
L 113.259267 325.521708 
L 113.382616 325.678965 
L 113.505965 325.390153 
L 113.629314 324.813392 
L 113.999361 324.659948 
L 114.246059 324.973687 
L 114.492757 324.513268 
L 114.986153 324.324708 
L 115.3562 323.974608 
L 115.726247 323.788905 
L 115.849596 324.004652 
L 115.972945 321.830951 
L 116.096294 321.735011 
L 116.219643 321.270316 
L 116.58969 321.059595 
L 116.836388 321.493499 
L 117.083086 320.954706 
L 117.453133 321.325979 
L 117.699831 320.69658 
L 117.946529 320.391476 
L 118.316576 319.730484 
L 118.439925 319.863831 
L 118.563274 320.245313 
L 118.686623 319.906608 
L 118.809972 320.386052 
L 119.180019 320.14282 
L 119.303368 320.740383 
L 119.550066 319.449451 
L 120.166811 318.759122 
L 120.29016 318.982518 
L 120.536858 318.98773 
L 121.030254 318.444626 
L 121.153603 318.316541 
L 121.770347 319.735808 
L 121.893696 319.656031 
L 122.140394 317.889562 
L 122.263743 318.557727 
L 122.880488 319.045115 
L 123.003837 319.592338 
L 123.127186 318.733238 
L 123.620582 319.502304 
L 123.743931 319.081681 
L 123.86728 317.935063 
L 124.360676 317.487676 
L 124.607374 318.102404 
L 124.730723 317.743347 
L 124.854072 318.852464 
L 125.224119 318.516557 
L 125.594166 316.976917 
L 125.717515 316.765863 
L 126.087562 317.233849 
L 126.210911 316.834439 
L 126.33426 316.996615 
L 126.457609 316.624235 
L 126.580958 316.692536 
L 127.197703 316.463762 
L 127.321052 316.575529 
L 127.444401 315.962767 
L 127.814448 315.881547 
L 127.937797 315.445231 
L 128.307844 315.71017 
L 128.677891 315.238455 
L 128.80124 315.27596 
L 128.924589 315.743428 
L 129.047938 315.487676 
L 129.171287 315.986691 
L 129.541334 315.629531 
L 129.664683 316.20274 
L 129.788032 316.197924 
L 129.911381 315.30881 
L 130.03473 315.676943 
L 130.404777 315.074837 
L 130.528126 315.482957 
L 130.774824 315.487676 
L 130.898173 315.172916 
L 131.391569 314.99564 
L 131.638267 316.299189 
L 131.761616 315.910192 
L 132.131663 315.374602 
L 132.378361 315.56799 
L 132.50171 315.355792 
L 132.995106 315.252514 
L 133.118455 315.700673 
L 133.241804 315.369899 
L 133.365153 315.634269 
L 133.488502 315.327595 
L 133.858549 315.843391 
L 133.981898 315.762447 
L 134.105247 316.034587 
L 134.228596 315.714919 
L 134.351945 316.44921 
L 134.721992 316.410434 
L 134.845341 316.116161 
L 134.96869 316.197924 
L 135.092039 316.053764 
L 135.215388 316.154614 
L 135.708784 316.844247 
L 135.955481 318.28587 
L 136.07883 317.358046 
L 136.448877 317.085391 
L 136.572226 317.492671 
L 136.695575 317.323226 
L 136.942273 316.106554 
L 137.31232 316.12577 
L 137.435669 315.910192 
L 137.682367 316.590134 
L 137.805716 316.188295 
L 138.175763 316.20274 
L 138.299112 316.800134 
L 138.422461 318.470298 
L 138.54581 318.357478 
L 138.669159 317.940122 
L 139.162555 317.919889 
L 139.285904 317.348094 
L 139.532602 317.718199 
L 140.025998 317.63283 
L 140.149347 317.382937 
L 140.396045 317.813858 
L 140.889441 318.454892 
L 141.01279 318.127828 
L 141.259488 318.199114 
L 141.629535 318.158362 
L 142.122931 317.713172 
L 142.616327 317.407847 
L 143.47977 319.265085 
L 143.603119 319.123518 
L 143.726468 319.407225 
L 144.219864 319.645407 
L 144.343213 319.055558 
L 144.466562 319.497015 
L 144.71326 318.805762 
L 145.206656 318.526845 
L 145.453354 318.609257 
L 145.576703 318.972096 
L 146.070099 319.571133 
L 146.316797 318.883633 
L 146.440146 319.154928 
L 146.810193 319.228328 
L 147.18024 318.28587 
L 147.303589 318.031313 
L 147.673636 318.260332 
L 147.920334 317.738316 
L 148.043683 318.056686 
L 148.167032 317.945182 
L 148.660428 318.00089 
L 148.783777 318.22971 
L 149.030475 316.663248 
L 149.400522 316.483175 
L 149.523871 316.222009 
L 149.64722 315.577451 
L 150.387313 319.254579 
L 150.634011 318.183826 
L 150.75736 318.49599 
L 151.127407 318.127828 
L 151.250756 318.857657 
L 151.374105 318.194017 
L 151.497454 318.163453 
L 151.620803 318.8317 
L 152.114199 318.056686 
L 152.360897 318.764301 
L 152.484246 318.403588 
L 152.854293 318.650535 
L 153.100991 317.672978 
L 153.22434 317.467702 
L 153.347689 318.62989 
L 153.717736 317.909777 
L 153.841085 318.383087 
L 153.964434 318.352358 
L 154.087783 318.480573 
L 154.211132 318.372841 
L 154.704528 319.370319 
L 154.951226 317.813858 
L 155.444622 316.829536 
L 155.567971 317.115032 
L 155.69132 316.819733 
L 155.938018 316.072951 
L 156.308065 315.843391 
L 156.554763 316.697419 
L 156.801461 316.337843 
L 157.171508 316.025003 
L 157.418206 316.366861 
L 157.664904 315.96755 
L 158.034951 315.676943 
L 158.1583 315.96755 
L 158.281649 315.743428 
L 158.528347 315.833859 
L 159.021743 315.776718 
L 159.145092 316.183482 
L 159.268441 315.953202 
L 159.761837 316.707189 
L 159.885186 316.068153 
L 160.008535 316.658369 
L 160.131884 316.3717 
L 160.255233 317.662937 
L 160.62528 316.893326 
L 160.871978 316.001053 
L 160.995327 316.044174 
L 161.118676 314.921263 
L 161.488723 314.5058 
L 161.735421 314.077046 
L 161.982119 314.199665 
L 162.352166 314.537938 
L 162.475515 314.295332 
L 162.722213 315.2244 
L 162.845562 314.464522 
L 163.215609 314.606905 
L 163.338958 314.277089 
L 163.462307 314.759111 
L 163.585656 314.736007 
L 163.709005 315.27596 
L 164.079052 314.977031 
L 164.202401 315.327595 
L 164.32575 314.754489 
L 164.572447 315.805277 
L 165.065843 315.20567 
L 165.312541 314.685232 
L 165.805937 314.611508 
L 165.929286 314.295332 
L 166.052635 314.418715 
L 166.175984 314.796108 
L 166.66938 315.149539 
L 166.792729 315.074837 
L 167.162776 317.26858 
L 167.656172 316.101752 
L 167.779521 317.758445 
L 167.90287 317.753412 
L 168.026219 318.219508 
L 168.519615 317.980622 
L 168.642964 318.691862 
L 168.889662 317.457719 
L 169.259709 317.758445 
L 169.383058 317.708145 
L 169.629756 318.097321 
L 169.753105 316.883504 
L 170.123152 316.395904 
L 170.246501 316.780546 
L 170.36985 319.029455 
L 170.493199 318.748766 
L 170.616548 319.863831 
L 170.986595 321.109389 
L 171.109944 320.778755 
L 171.233293 320.828152 
L 171.356642 321.192535 
L 171.479991 320.386052 
L 172.096736 318.728063 
L 172.220085 318.87324 
L 172.343434 318.460027 
L 172.713481 317.975557 
L 172.83683 318.779843 
L 173.083528 318.367719 
L 173.206877 318.163453 
L 173.576924 318.972096 
L 173.700273 318.194017 
L 173.823622 318.168545 
L 174.07032 317.51266 
L 174.687065 317.283475 
L 174.810414 317.358046 
L 174.933763 316.658369 
L 175.427159 316.183482 
L 175.797206 315.313505 
L 176.290602 315.163564 
L 176.5373 315.388717 
L 177.030696 315.285343 
L 177.277394 314.805364 
L 177.400743 314.930552 
L 177.524092 314.583901 
L 178.140837 314.77298 
L 178.387535 315.26658 
L 178.757582 315.210352 
L 179.250977 314.213316 
L 179.621024 314.190568 
L 179.867722 314.657567 
L 179.991071 314.893412 
L 180.11442 314.791481 
L 180.607816 314.666786 
L 180.731165 314.382112 
L 180.854514 315.098165 
L 180.977863 314.805364 
L 181.34791 314.749867 
L 181.471259 314.949136 
L 181.594608 314.893412 
L 181.717957 315.215034 
L 181.841306 315.028229 
L 182.211353 314.888773 
L 182.334702 314.359254 
L 182.458051 315.219717 
L 182.5814 315.093498 
L 182.704749 315.27596 
L 183.074796 314.354684 
L 183.198145 314.78223 
L 183.444843 313.071509 
L 183.568192 313.089137 
L 183.938239 313.510409 
L 184.184937 313.03628 
L 184.431635 312.856285 
L 185.04838 312.891334 
L 185.171729 312.677205 
L 185.665125 313.698276 
L 185.788474 313.212778 
L 186.035172 313.599745 
L 186.528568 314.126951 
L 186.651917 314.777605 
L 187.021964 313.711734 
L 187.392011 313.635542 
L 187.638709 313.743155 
L 187.762058 313.644498 
L 187.885407 314.327278 
L 188.255454 314.666786 
L 188.378803 313.887152 
L 188.502152 314.009109 
L 188.74885 313.186247 
L 189.242246 313.2659 
L 189.488944 312.799405 
L 189.612293 311.995493 
L 190.105689 311.740037 
L 190.229038 312.29158 
L 190.352387 312.085343 
L 190.475736 312.282962 
L 190.845783 312.175423 
L 191.21583 312.943972 
L 191.339179 312.725161 
L 191.832575 312.546746 
L 191.955924 312.677205 
L 192.079273 312.025418 
L 192.572669 312.008315 
L 192.942716 312.598872 
L 193.066065 312.261428 
L 193.55946 312.425419 
L 193.682809 312.581488 
L 193.929507 312.261428 
L 194.422903 312.364913 
L 194.669601 314.616111 
L 194.79295 313.981971 
L 195.409695 314.372967 
L 195.533044 314.140573 
L 195.656393 314.400408 
L 196.02644 314.27253 
L 196.149789 314.556316 
L 196.396487 314.611508 
L 196.519836 314.372967 
L 197.013232 314.809992 
L 197.136581 315.074837 
L 197.383279 316.829536 
L 197.753326 316.473467 
L 197.876675 317.16944 
L 198.123373 317.055774 
L 198.246722 317.233849 
L 198.740118 317.026182 
L 198.986816 316.677889 
L 199.110165 316.546339 
L 199.480212 317.303345 
L 199.72691 316.834439 
L 199.973608 316.614488 
L 200.343655 316.624235 
L 200.467004 316.37654 
L 200.837051 317.060708 
L 201.207098 317.223933 
L 201.330447 317.662937 
L 201.453796 317.05084 
L 201.577145 317.159542 
L 201.700494 317.036043 
L 202.070541 317.718199 
L 202.19389 317.587718 
L 202.317239 317.914833 
L 202.440588 317.763479 
L 202.563937 317.382937 
L 202.933984 317.218975 
L 203.180682 319.055558 
L 203.42738 319.233577 
L 203.797427 319.43361 
L 203.920776 319.976233 
L 204.044125 319.481153 
L 204.167474 319.465298 
L 204.290823 319.645407 
L 204.66087 319.128751 
L 204.784219 319.349247 
L 205.154266 317.84412 
L 205.524313 317.703119 
L 205.647662 318.188922 
L 205.771011 319.238826 
L 206.017709 318.056686 
L 206.387756 318.005959 
L 206.511105 316.917891 
L 206.881152 316.614488 
L 207.497897 317.432774 
L 207.621246 317.209063 
L 207.744595 316.565796 
L 208.114641 316.395904 
L 208.23799 316.492885 
L 208.361339 314.629925 
L 208.608037 315.426382 
L 209.101433 315.445231 
L 209.224782 315.962767 
L 209.348131 315.910192 
L 209.47148 316.250931 
L 209.841527 316.270227 
L 209.964876 315.624793 
L 210.088225 315.662713 
L 210.334923 316.570663 
L 210.828319 316.604744 
L 211.075017 317.040975 
L 211.198366 317.149646 
L 211.691762 317.233849 
L 211.815111 316.809932 
L 212.061809 317.233849 
L 212.678554 317.080453 
L 212.925252 316.643736 
L 213.418648 316.531752 
L 213.541997 317.021252 
L 214.158742 316.434664 
L 214.282091 315.752936 
L 214.40544 316.20274 
L 214.652138 316.111357 
L 215.022185 315.957984 
L 215.392232 316.741403 
L 215.515581 316.092149 
L 216.132326 316.497741 
L 216.379024 315.767203 
L 216.749071 315.800515 
L 216.995769 314.395833 
L 217.119118 314.666786 
L 217.242467 314.473691 
L 217.735863 314.240633 
L 217.859212 314.446192 
L 217.982561 314.907335 
L 218.10591 314.768356 
L 218.475957 314.620715 
L 218.599306 315.577451 
L 218.722655 312.37787 
L 218.846004 312.834397 
L 218.969353 312.278654 
L 219.462749 312.642369 
L 219.586098 312.429745 
L 219.709447 312.499032 
L 219.832796 312.321757 
L 220.202843 312.321757 
L 220.326192 312.166834 
L 220.449541 311.600323 
L 220.57289 311.621456 
L 220.696239 311.490634 
L 221.189635 312.175423 
L 221.436333 311.948521 
L 221.929729 312.330384 
L 222.053078 311.969864 
L 222.299775 312.01259 
L 223.039869 312.30451 
L 223.286567 312.081059 
L 223.779963 311.965594 
L 224.026661 312.546746 
L 224.643406 312.085343 
L 224.766755 312.145371 
L 225.013453 311.515916 
L 225.506849 311.080239 
L 225.753547 310.765236 
L 225.876896 310.92653 
L 226.246943 311.126066 
L 226.493641 310.658117 
L 226.61699 310.711636 
L 226.740339 310.465301 
L 227.357084 310.440762 
L 227.480433 311.001223 
L 228.097178 310.72812 
L 228.220527 311.398087 
L 228.467225 311.046948 
L 228.837272 311.272277 
L 229.08397 313.075915 
L 229.207319 312.429745 
L 229.947413 313.555049 
L 230.070762 312.821271 
L 230.564158 313.257041 
L 230.934205 314.063449 
L 231.057554 313.608691 
L 231.427601 313.439104 
L 231.674299 312.764447 
L 231.797648 312.838773 
L 231.920997 313.097954 
L 232.291044 312.538066 
L 232.414393 312.808149 
L 232.78444 314.78223 
L 233.154487 314.492035 
L 233.277836 314.662177 
L 233.401185 314.345546 
L 233.524534 314.537938 
L 233.647883 314.113333 
L 234.01793 313.783594 
L 234.387977 314.542532 
L 234.511326 314.286209 
L 234.881373 314.391259 
L 235.128071 314.712918 
L 235.25142 314.574704 
L 235.374769 314.786855 
L 235.744816 314.616111 
L 235.868165 314.833145 
L 235.991514 314.432451 
L 236.114863 316.444361 
L 236.238212 315.829093 
L 236.608258 315.605849 
L 236.854956 314.823882 
L 236.978305 314.354684 
L 237.101654 314.593101 
L 237.718399 313.96389 
L 237.841748 313.941303 
L 237.965097 313.734174 
L 238.335144 313.756629 
L 238.458493 314.258857 
L 238.581842 313.747646 
L 238.705191 314.350115 
L 239.198587 314.027213 
L 239.321936 315.610584 
L 239.445285 315.116838 
L 239.691983 315.924523 
L 240.06203 315.824329 
L 240.185379 314.898053 
L 240.432077 316.420124 
L 240.555426 316.063356 
L 240.925473 315.848159 
L 241.048822 316.015421 
L 241.172171 315.795754 
L 241.29552 315.805277 
L 241.418869 315.445231 
L 241.912265 314.96308 
L 242.158963 314.045326 
L 242.282312 313.648976 
L 242.652359 314.126951 
L 242.775708 313.604217 
L 242.899057 313.96389 
L 243.022406 313.693792 
L 243.145755 313.905193 
L 243.639151 314.131491 
L 243.885849 313.882643 
L 244.009198 313.797085 
L 244.379245 313.30136 
L 244.625943 313.350175 
L 244.872641 313.03628 
L 245.489386 312.37355 
L 245.612735 312.029695 
L 245.736084 312.201202 
L 246.106131 312.252818 
L 246.22948 312.529388 
L 246.476178 312.32607 
L 246.599527 311.999767 
L 247.216272 312.681562 
L 247.339621 312.455712 
L 247.46297 312.992294 
L 247.833017 312.830021 
L 247.956366 312.503367 
L 248.079715 312.577143 
L 248.203064 312.343328 
L 248.326413 312.742616 
L 248.69646 313.270331 
L 248.819809 313.031879 
L 248.943158 313.045084 
L 249.066507 314.514979 
L 249.189856 313.936787 
L 249.559903 314.167834 
L 249.92995 313.864613 
L 250.053299 314.131491 
L 250.423346 314.113333 
L 250.546695 313.350175 
L 250.670044 313.734174 
L 250.916742 312.913257 
L 251.286788 312.37355 
L 251.533486 313.203932 
L 251.780184 313.345735 
L 252.150231 313.084729 
L 252.396929 311.587649 
L 252.520278 311.558094 
L 252.643627 311.197007 
L 253.013674 309.640432 
L 253.137023 310.3387 
L 253.260372 311.969864 
L 253.50707 310.629332 
L 253.877117 310.654003 
L 254.000466 310.880962 
L 254.123815 310.629332 
L 254.247164 310.637554 
L 254.370513 310.184131 
L 254.74056 309.881039 
L 255.110607 308.581484 
L 255.233956 308.403549 
L 255.850701 308.050355 
L 256.097399 307.734727 
L 256.590795 308.238028 
L 256.837493 307.810524 
L 256.960842 307.059808 
L 257.330889 307.444426 
L 257.454238 307.130441 
L 257.577587 307.272135 
L 257.700936 306.690373 
L 257.824285 304.857347 
L 258.317681 304.818994 
L 258.44103 304.572449 
L 258.564379 304.683354 
L 258.687728 303.458732 
L 259.181124 302.741939 
L 259.427822 302.982559 
L 259.551171 302.646805 
L 259.921218 302.830744 
L 260.167916 303.532565 
L 260.291265 303.826068 
L 260.414614 304.63479 
L 260.784661 306.020583 
L 260.90801 305.08132 
L 261.031359 305.1868 
L 261.154708 306.959678 
L 261.278057 306.16873 
L 261.648104 305.948543 
L 261.771453 306.572968 
L 261.894802 306.25574 
L 262.1415 306.481517 
L 262.758245 306.837682 
L 263.004943 306.05305 
L 263.37499 306.045833 
L 263.498339 306.672002 
L 263.745037 309.672418 
L 263.868386 310.736364 
L 264.238433 310.330548 
L 264.361782 310.010039 
L 264.485131 310.420326 
L 264.60848 310.399902 
L 264.731829 309.94548 
L 265.101876 309.784599 
L 265.225225 310.40807 
L 265.348574 310.310176 
L 265.471922 310.654003 
L 265.595271 310.058537 
L 266.088667 310.575938 
L 266.212016 309.957576 
L 266.458714 311.389686 
L 266.828761 309.140449 
L 266.95211 310.481669 
L 267.075459 310.51443 
L 267.198808 309.75652 
L 267.692204 311.046948 
L 267.815553 310.691042 
L 268.062251 309.357822 
L 268.1856 309.560594 
L 268.555647 310.777617 
L 268.678996 310.001963 
L 268.802345 310.20037 
L 268.925694 310.042363 
L 269.049043 310.371328 
L 269.542439 310.399902 
L 269.665788 310.297958 
L 269.912486 311.452744 
L 270.282533 311.146916 
L 270.529231 312.364913 
L 270.775929 311.293214 
L 271.145976 311.957057 
L 271.392674 311.309973 
L 271.516023 311.786732 
L 271.639372 311.197007 
L 272.009419 311.3561 
L 272.379466 310.847859 
L 272.502815 309.877016 
L 272.872862 310.228805 
L 273.11956 310.666345 
L 273.242909 310.682808 
L 273.366258 310.326473 
L 273.736305 309.901164 
L 273.859654 310.567731 
L 274.106352 306.41582 
L 274.229701 306.342966 
L 274.723097 306.675676 
L 274.846446 306.078322 
L 274.969795 306.959678 
L 275.463191 306.016978 
L 275.58654 306.049441 
L 275.956587 305.08132 
L 276.449983 304.983156 
L 276.696681 305.455441 
L 276.82003 305.448345 
L 277.436775 305.711849 
L 277.560124 305.490942 
L 277.683473 305.79057 
L 278.05352 306.284791 
L 278.176869 306.183217 
L 278.423567 306.594951 
L 278.546916 306.752904 
L 278.916963 307.011561 
L 279.28701 306.771316 
L 279.410359 306.543678 
L 279.780405 306.244852 
L 279.903754 305.508706 
L 280.150452 305.761924 
L 280.273801 305.306728 
L 280.643848 305.289066 
L 281.013895 304.672942 
L 281.137244 304.927185 
L 281.507291 304.752848 
L 281.877338 305.683267 
L 282.000687 305.869468 
L 282.494083 305.39163 
L 282.740781 306.0711 
L 282.86413 306.002559 
L 283.234177 305.959339 
L 283.604224 305.179759 
L 283.727573 305.758345 
L 284.09762 306.197709 
L 284.220969 305.726149 
L 284.344318 306.292058 
L 284.591016 305.876649 
L 284.961063 305.522923 
L 285.084412 305.250241 
L 285.33111 302.728802 
L 285.454459 302.843919 
L 285.824506 302.787958 
L 286.071204 302.229951 
L 286.194553 302.489906 
L 286.317902 302.207296 
L 286.811298 301.827578 
L 286.934647 302.317471 
L 287.674741 300.492939 
L 287.79809 300.44367 
L 287.921439 300.936378 
L 288.044788 300.582417 
L 288.414835 300.628788 
L 288.661533 299.857753 
L 288.908231 299.682659 
L 289.278278 300.238099 
L 289.401627 300.180021 
L 289.648325 300.394469 
L 289.771674 300.296273 
L 290.141721 300.526852 
L 290.511768 301.556569 
L 290.635117 301.888443 
L 291.005164 301.837181 
L 291.128513 302.071672 
L 291.375211 303.700946 
L 291.49856 303.321547 
L 291.868607 303.552728 
L 291.991956 303.115106 
L 292.238654 305.260825 
L 292.362003 305.303195 
L 292.855399 305.826411 
L 292.978748 306.401237 
L 293.102097 305.887424 
L 293.225446 307.418153 
L 293.595493 307.765026 
L 293.96554 306.0711 
L 294.088889 306.295692 
L 294.458935 306.204958 
L 294.582284 306.045833 
L 294.705633 304.948164 
L 294.828982 305.345616 
L 294.952331 306.295692 
L 295.569076 306.99673 
L 295.815774 307.617564 
L 296.185821 308.341869 
L 296.30917 310.391735 
L 296.432519 309.508796 
L 296.679217 309.73247 
L 297.049264 309.136509 
L 297.295962 307.451936 
L 297.419311 307.636435 
L 297.54266 307.197488 
L 297.912707 307.227328 
L 298.036056 308.736946 
L 298.282754 308.496273 
L 298.406103 309.10107 
L 298.899499 309.069599 
L 299.146197 307.227328 
L 299.639593 308.690235 
L 299.762942 308.299526 
L 300.132989 309.800654 
L 300.503036 310.481669 
L 300.873083 308.145982 
L 300.996432 308.142152 
L 301.366479 307.954988 
L 301.613177 307.989291 
L 301.736526 308.411267 
L 301.859875 307.384403 
L 302.229922 306.723463 
L 302.353271 306.002559 
L 302.599969 306.602282 
L 302.723318 306.121689 
L 303.093365 306.263 
L 303.463412 308.073282 
L 303.586761 306.970789 
L 304.080157 308.261077 
L 304.326855 308.168971 
L 304.450204 307.403149 
L 304.820251 307.655316 
L 304.9436 307.549713 
L 305.190298 306.536359 
L 305.313647 306.190462 
L 305.807043 305.833583 
L 306.053741 306.273894 
L 306.17709 306.16873 
L 306.547137 306.273894 
L 306.793835 304.648659 
L 306.917184 304.631324 
L 307.040533 303.69757 
L 307.533929 303.421874 
L 307.657278 303.221505 
L 307.780627 303.268156 
L 307.903976 303.018959 
L 308.397372 303.431922 
L 308.520721 302.574806 
L 308.767418 303.792207 
L 309.384163 304.344804 
L 309.630861 305.395172 
L 310.247606 304.74937 
L 310.494304 305.109417 
L 310.864351 304.50331 
L 311.234398 302.992482 
L 311.357747 303.458732 
L 311.851143 303.121747 
L 312.22119 301.975117 
L 312.591237 302.149107 
L 312.714586 301.83398 
L 313.084633 300.247278 
L 313.45468 300.000281 
L 313.578029 300.814885 
L 313.701378 300.622601 
L 313.948076 299.857753 
L 314.441472 299.62549 
L 314.564821 299.598442 
L 314.68817 300.628788 
L 315.304915 300.690711 
L 315.428264 300.557711 
L 315.551613 300.672123 
L 315.674962 301.020735 
L 316.045009 301.10216 
L 316.168358 300.814885 
L 316.291707 301.581987 
L 316.538405 301.058292 
L 316.908452 301.375997 
L 317.031801 302.738654 
L 317.278499 303.012338 
L 317.401848 302.89667 
L 317.771895 303.55609 
L 318.265291 302.120049 
L 318.635338 302.062004 
L 318.758687 301.455081 
L 319.005385 307.037532 
L 319.128734 306.826612 
L 319.62213 308.142152 
L 319.868828 307.380655 
L 319.992177 307.606247 
L 320.362224 307.395649 
L 320.485573 306.292058 
L 320.732271 306.507099 
L 320.85562 306.317503 
L 321.472365 306.474211 
L 321.719063 305.289066 
L 322.08911 305.130505 
L 322.335808 305.608349 
L 322.459157 304.655595 
L 323.075901 305.79057 
L 323.445948 304.839909 
L 324.309391 303.704322 
L 324.802787 303.488918 
L 324.926136 304.091306 
L 325.172834 302.646805 
L 325.542881 302.460565 
L 326.036277 304.289839 
L 326.653022 304.18701 
L 326.776371 304.444649 
L 326.89972 303.93804 
L 327.393116 303.856571 
L 327.639814 305.338543 
L 327.763163 305.430612 
L 328.13321 306.215834 
L 328.503257 304.993661 
L 328.626606 305.672555 
L 328.996653 306.565643 
L 329.120002 306.383017 
L 329.243351 307.48951 
L 329.3667 307.568547 
L 329.860096 306.944868 
L 329.983445 305.916172 
L 330.106794 302.45079 
L 330.230143 302.398703 
L 330.353492 302.979251 
L 330.723539 302.975944 
L 330.846888 303.095192 
L 330.970237 302.392197 
L 331.093586 300.986343 
L 331.216935 301.108431 
L 331.710331 301.429755 
L 331.83368 301.196346 
L 332.080378 300.329997 
L 332.450425 300.305467 
L 332.573774 300.155595 
L 332.697123 300.706209 
L 332.820472 300.585506 
L 332.943821 300.746535 
L 333.437217 300.94262 
L 333.560566 300.983218 
L 333.807264 301.499446 
L 334.30066 301.798784 
L 334.424009 301.566099 
L 334.547358 301.575631 
L 334.670707 301.952625 
L 335.040754 301.817977 
L 335.164103 301.95905 
L 335.287452 302.992482 
L 335.410801 302.985866 
L 335.53415 302.640254 
L 335.904197 302.375939 
L 336.150895 303.009028 
L 336.397593 301.547042 
L 336.76764 301.591524 
L 336.890989 301.039509 
L 337.137687 300.983218 
L 337.261036 300.908304 
L 337.631082 301.186916 
L 337.754431 301.023864 
L 338.001129 301.527996 
L 338.124478 301.303395 
L 338.494525 301.284481 
L 338.617874 301.955837 
L 338.864572 301.293937 
L 338.987921 300.874022 
L 339.728015 300.983218 
L 339.851364 300.54845 
L 340.34476 300.449825 
L 340.468109 300.905186 
L 340.714807 300.082421 
L 341.084854 300.23504 
L 341.208203 300.734122 
L 341.331552 299.385791 
L 341.454901 299.628496 
L 341.57825 299.27548 
L 341.948297 299.63451 
L 342.194995 299.19817 
L 342.935089 300.379108 
L 343.181787 300.064151 
L 343.675183 299.373848 
L 343.798532 299.791235 
L 344.04523 299.27548 
L 344.168579 299.186292 
L 344.538626 298.720262 
L 344.785324 298.946607 
L 344.908673 298.682191 
L 345.032022 298.822966 
L 345.772116 298.822966 
L 345.895465 298.676338 
L 346.388861 298.814151 
L 346.635559 298.609094 
L 346.758908 298.861189 
L 347.128955 298.641238 
L 347.252304 298.852365 
L 347.499002 298.147715 
L 347.622351 298.45172 
L 347.992398 298.437184 
L 348.239096 298.884732 
L 348.362445 298.958405 
L 348.485794 298.058461 
L 348.97919 298.472081 
L 349.225888 297.957962 
L 349.349237 298.676338 
L 349.719284 298.814151 
L 349.842633 298.408129 
L 350.089331 298.825904 
L 350.21268 299.863806 
L 350.582727 299.580422 
L 350.829425 298.12466 
L 351.076123 298.31242 
L 351.44617 298.390708 
L 351.692868 297.298958 
L 351.816216 297.3722 
L 351.939565 297.189378 
L 352.432961 297.809177 
L 352.55631 297.749269 
L 352.679659 296.868233 
L 352.803008 297.220251 
L 353.173055 297.900663 
L 353.666451 302.919773 
L 354.036498 301.474088 
L 354.159847 302.268822 
L 354.283196 300.768268 
L 354.529894 303.338248 
L 354.899941 307.253458 
L 355.02329 303.771906 
L 355.146639 305.45899 
L 355.269988 308.89701 
L 355.393337 306.41582 
L 355.763384 316.429817 
L 355.886733 315.852926 
L 356.010082 320.304788 
L 356.133431 317.773549 
L 356.25678 319.587036 
L 356.626827 318.8317 
L 356.873525 311.410693 
L 356.996874 309.612468 
L 357.120223 310.066626 
L 357.49027 309.373684 
L 357.613619 310.44485 
L 357.736968 312.825645 
L 357.860317 311.773991 
L 357.983666 312.055368 
L 358.72376 306.848755 
L 359.217156 306.889386 
L 359.340505 305.48739 
L 359.587203 307.924525 
L 359.710552 306.194086 
L 360.080599 306.915266 
L 360.203948 307.85608 
L 360.327297 306.981904 
L 360.450646 307.000437 
L 360.573995 305.601222 
L 361.067391 303.941439 
L 361.19074 303.055398 
L 361.437438 303.623391 
L 361.807485 302.663189 
L 361.930834 301.757234 
L 362.054183 301.926938 
L 362.300881 300.477535 
L 362.670928 300.737225 
L 362.917626 301.667909 
L 363.040975 301.680655 
L 363.164324 300.616416 
L 363.65772 299.673626 
L 363.781069 299.637518 
L 364.027767 298.090106 
L 364.521163 297.70654 
L 364.644512 296.470193 
L 364.767861 296.439972 
L 364.89121 295.832831 
L 365.261257 296.111958 
L 365.507955 295.167057 
L 365.631304 296.286518 
L 365.754653 295.665874 
L 366.1247 295.708884 
L 366.248048 296.044005 
L 366.371397 295.900377 
L 366.494746 297.607039 
L 366.618095 297.013084 
L 366.988142 296.547238 
L 367.23484 294.430548 
L 367.481538 294.905812 
L 367.851585 294.672601 
L 367.974934 294.787703 
L 368.344981 296.087479 
L 368.961726 294.435736 
L 369.578471 294.402028 
L 369.70182 294.594337 
L 369.825169 294.404619 
L 369.948518 294.440924 
L 370.071867 293.971857 
L 370.441914 294.197878 
L 370.688612 293.014683 
L 370.93531 292.233617 
L 371.305357 292.304355 
L 371.428706 292.085286 
L 371.552055 291.236612 
L 371.675404 291.723176 
L 372.1688 291.099495 
L 372.292149 291.433766 
L 372.538847 291.080624 
L 372.662196 291.149079 
L 373.032243 290.829195 
L 373.155592 290.969962 
L 373.40229 290.61444 
L 373.525639 290.246349 
L 374.019035 289.996217 
L 374.142384 289.370695 
L 374.389082 289.888909 
L 374.759129 288.973098 
L 374.882478 289.08433 
L 375.129176 288.935359 
L 375.252525 288.245484 
L 375.745921 287.343373 
L 375.86927 286.408016 
L 376.115968 287.430424 
L 376.486015 287.605176 
L 376.732713 286.387373 
L 376.979411 289.424649 
L 377.472807 290.025956 
L 377.596156 288.725208 
L 377.719505 288.990872 
L 377.842854 288.208517 
L 378.212901 287.498517 
L 378.33625 286.689976 
L 378.706297 288.599718 
L 379.076344 288.709773 
L 379.199693 288.28249 
L 379.323042 288.928704 
L 379.446391 288.948674 
L 379.939787 288.056709 
L 380.063136 288.128194 
L 380.309834 287.079294 
L 380.433183 287.222707 
L 380.803229 286.792121 
L 380.926578 287.541142 
L 381.296625 285.826404 
L 381.666672 285.928105 
L 381.790021 285.402438 
L 381.91337 285.749307 
L 382.160068 284.930019 
L 382.530115 285.442596 
L 382.653464 285.051007 
L 382.900162 286.230877 
L 383.023511 286.048493 
L 383.393558 286.877818 
L 383.886954 289.04202 
L 384.257001 288.57116 
L 384.503699 286.858988 
L 384.627048 286.644212 
L 384.750397 286.796297 
L 385.120444 290.092388 
L 385.367142 289.064282 
L 385.490491 289.068736 
L 385.983887 288.206344 
L 386.107236 288.652501 
L 386.230585 291.665583 
L 386.477283 290.908894 
L 386.970679 289.747851 
L 387.340726 289.813759 
L 387.710773 289.553122 
L 387.957471 290.470449 
L 388.08082 290.433386 
L 388.204169 290.89247 
L 388.574216 290.428756 
L 388.697565 290.602806 
L 388.820914 288.593125 
L 388.944263 288.573355 
L 389.067612 289.104389 
L 389.437659 288.601915 
L 389.561008 287.896936 
L 389.931055 287.924952 
L 390.424451 287.622272 
L 390.5478 288.091351 
L 390.671149 288.017779 
L 391.164545 288.175932 
L 391.287894 288.503153 
L 392.151337 288.419969 
L 392.398035 287.815171 
L 392.521384 287.528349 
L 392.891431 287.258652 
L 393.138129 286.523844 
L 393.384827 286.212391 
L 393.878223 286.331696 
L 394.001572 285.997431 
L 394.24827 285.99539 
L 394.618317 285.65014 
L 394.741666 285.731071 
L 394.865015 286.965822 
L 394.988363 286.007637 
L 395.111712 287.146709 
L 395.481759 287.88832 
L 395.975155 285.462692 
L 396.345202 284.640155 
L 396.715249 285.322258 
L 396.838598 285.037102 
L 397.331994 285.658225 
L 397.455343 285.043061 
L 397.702041 284.961713 
L 398.072088 285.993349 
L 398.442135 288.948674 
L 398.565484 288.67672 
L 399.05888 287.957305 
L 399.305578 290.019091 
L 399.428927 288.935359 
L 399.798974 287.985369 
L 400.169021 286.333756 
L 400.785766 285.402438 
L 400.909115 285.581495 
L 401.032464 285.494871 
L 401.155813 284.577371 
L 401.52586 284.110026 
L 401.649209 284.399438 
L 401.772558 284.34487 
L 402.019256 282.278312 
L 402.389303 282.831685 
L 402.636001 282.541883 
L 402.75935 282.331604 
L 403.376095 281.805905 
L 403.499444 281.90206 
L 403.622793 281.804093 
L 403.746142 281.033568 
L 404.116189 280.656296 
L 404.239538 280.819754 
L 404.486236 279.975538 
L 404.609585 279.348227 
L 405.102981 280.286496 
L 405.22633 280.089237 
L 405.473028 280.607231 
L 405.966424 280.937986 
L 406.089773 281.470518 
L 406.213122 281.045977 
L 406.336471 281.436437 
L 406.829867 280.717723 
L 406.953216 280.770461 
L 407.199914 279.322893 
L 407.569961 278.834989 
L 407.816659 281.56396 
L 407.940008 280.710697 
L 408.680102 282.442121 
L 408.803451 281.949327 
L 409.296847 282.453191 
L 409.543544 281.91478 
L 409.666893 281.883898 
L 409.790242 281.691948 
L 410.653685 282.591871 
L 411.023732 282.528935 
L 411.147081 282.316895 
L 411.27043 282.464266 
L 411.393779 282.801851 
L 411.517128 282.425521 
L 411.887175 282.638219 
L 412.133873 283.286027 
L 412.750618 282.783218 
L 412.873967 282.258119 
L 412.997316 282.364723 
L 413.244014 282.086031 
L 413.614061 281.985729 
L 413.73741 281.805905 
L 413.860759 281.8476 
L 413.984108 281.513614 
L 414.600853 281.706398 
L 414.724202 281.502835 
L 414.847551 282.060472 
L 414.9709 281.601767 
L 415.340947 281.558563 
L 415.587645 282.071423 
L 415.834343 281.456164 
L 416.20439 282.042228 
L 416.574437 281.343332 
L 416.697786 280.622994 
L 417.067833 281.170311 
L 417.314531 282.135374 
L 417.43788 281.911145 
L 417.561229 282.080552 
L 417.931276 282.397872 
L 418.054625 281.851228 
L 418.177974 282.593723 
L 418.301323 282.449501 
L 418.794719 282.9494 
L 418.918068 282.625235 
L 419.041417 281.747976 
L 419.288115 282.480884 
L 419.658162 281.936595 
L 419.781511 284.038526 
L 420.028209 280.317744 
L 420.151558 279.354986 
L 420.521605 279.720196 
L 420.644954 280.179078 
L 420.768303 279.699712 
L 421.015001 279.747527 
L 421.385048 279.903375 
L 421.631746 280.172159 
L 421.755095 279.704832 
L 422.37184 279.875923 
L 422.618538 280.244876 
L 422.741887 280.016841 
L 423.111934 279.721904 
L 423.235283 280.044403 
L 423.60533 279.216689 
L 423.975376 279.855348 
L 424.098725 279.684357 
L 424.222074 279.240263 
L 424.468772 279.412489 
L 424.838819 278.948397 
L 424.962168 279.827934 
L 425.085517 279.543063 
L 425.208866 280.270883 
L 425.332215 280.125491 
L 425.825611 280.027174 
L 425.94896 280.073711 
L 426.072309 279.407411 
L 426.195658 279.703125 
L 426.689054 279.087318 
L 426.935752 277.989384 
L 427.059101 277.551599 
L 427.552497 276.954653 
L 427.922544 276.041644 
L 428.292591 275.575655 
L 428.41594 275.689672 
L 428.785987 275.273405 
L 429.156034 275.586281 
L 429.402732 275.20125 
L 429.526081 274.682503 
L 429.64943 275.015531 
L 430.142826 275.259865 
L 430.389524 275.499849 
L 430.512873 274.899208 
L 430.88292 275.108268 
L 431.006269 273.661655 
L 431.252967 273.289902 
L 431.376316 272.98684 
L 431.746363 272.590029 
L 431.869712 272.651431 
L 431.993061 272.55101 
L 432.239759 273.245838 
L 432.609806 273.119639 
L 432.733155 273.688976 
L 432.856504 273.581252 
L 432.979853 272.864375 
L 433.103202 273.104073 
L 433.473249 272.753539 
L 433.596598 271.959912 
L 433.719947 271.983202 
L 433.843296 271.790498 
L 433.966645 271.352995 
L 434.336692 271.914746 
L 434.460041 272.574695 
L 434.58339 271.873737 
L 434.830088 273.189063 
L 435.200135 273.54112 
L 435.570182 272.906556 
L 436.186927 272.357951 
L 436.310276 271.869639 
L 436.433625 272.0312 
L 436.556974 271.74555 
L 436.927021 272.152171 
L 437.05037 271.564972 
L 437.173719 272.256982 
L 437.297068 271.839599 
L 437.420417 272.766148 
L 437.790464 273.245838 
L 438.037162 272.818034 
L 438.160511 272.820841 
L 438.283859 273.860578 
L 438.777255 274.589404 
L 438.900604 275.141233 
L 439.023953 276.794021 
L 439.147302 276.623172 
L 439.517349 275.495306 
L 439.887396 276.481169 
L 440.010745 275.097785 
L 440.62749 274.486249 
L 440.874188 275.995535 
L 441.244235 276.311828 
L 441.490933 275.29749 
L 441.737631 276.484283 
L 442.107678 276.478054 
L 442.231027 276.144841 
L 442.354376 276.313378 
L 442.601074 276.989396 
L 443.09447 278.29304 
L 443.217819 278.211154 
L 443.341168 278.487049 
L 443.464517 277.548388 
L 443.957913 277.177918 
L 444.081262 276.058566 
L 444.32796 276.77203 
L 444.698007 277.057401 
L 444.821356 276.899452 
L 444.944705 276.488956 
L 445.191403 277.065317 
L 445.56145 276.390959 
L 445.684799 275.689672 
L 445.808148 275.650104 
L 446.054846 274.996117 
L 446.424893 276.222051 
L 446.548242 276.087814 
L 446.671591 277.270171 
L 446.671591 277.270171 
" clip-path="url(#p5f4f5cf38f)" style="fill: none; stroke: #ff0000; stroke-width: 0.7; stroke-linecap: square"/>
   </g>
   <g id="line2d_17">
    <path d="M 40.853409 338.981282 
L 41.100107 338.916116 
L 41.593503 338.647423 
L 42.333597 338.647423 
L 42.456946 338.181641 
L 42.580295 338.320729 
L 42.703644 337.621611 
L 42.826993 337.840888 
L 43.19704 337.304262 
L 43.443738 337.403693 
L 44.183832 337.403693 
L 44.43053 338.029755 
L 44.553879 337.283498 
L 44.923926 337.682643 
L 45.047275 337.385174 
L 45.170624 337.663977 
L 45.293973 337.589413 
L 45.417322 337.673309 
L 45.910718 337.007682 
L 46.034067 337.228161 
L 46.280765 335.952197 
L 46.650812 334.88432 
L 46.774161 335.335524 
L 46.89751 333.581034 
L 47.020859 334.066233 
L 47.144208 333.814433 
L 47.514255 333.79771 
L 47.760953 332.857416 
L 50.351281 332.898649 
L 50.597979 331.165062 
L 51.091375 331.165062 
L 51.214724 331.406823 
L 51.338073 330.916406 
L 51.461422 330.933498 
L 52.078167 330.754441 
L 52.818261 330.790044 
L 53.064959 329.359077 
L 53.188308 329.573488 
L 53.558355 329.436115 
L 53.681704 328.331098 
L 53.805053 328.372644 
L 54.668496 327.155171 
L 54.791845 327.155171 
L 54.915194 326.783953 
L 55.40859 326.816078 
L 55.655288 326.416611 
L 55.778637 326.432503 
L 56.148684 326.108144 
L 56.272033 325.778947 
L 56.64208 325.778947 
L 57.012127 326.205628 
L 57.382174 324.932987 
L 57.505523 324.972068 
L 57.87557 324.598669 
L 58.122268 325.515867 
L 58.245617 324.068757 
L 58.368966 324.436545 
L 59.232409 324.348393 
L 59.602456 324.581272 
L 59.725805 324.252478 
L 59.972503 321.704927 
L 60.095852 322.010656 
L 60.589248 322.010656 
L 60.835946 321.690862 
L 61.452691 321.690862 
L 61.57604 321.414239 
L 61.822738 321.698577 
L 62.562832 320.358694 
L 62.686181 320.456169 
L 63.179577 320.463678 
L 63.549624 318.89933 
L 63.91967 318.89933 
L 64.043019 318.33081 
L 64.166368 318.698931 
L 64.289717 318.440842 
L 64.413066 318.529117 
L 64.783113 318.647162 
L 65.029811 318.060858 
L 65.646556 318.060858 
L 65.769905 318.608579 
L 65.893254 318.555687 
L 66.139952 316.932624 
L 66.880046 316.874992 
L 67.003395 317.864945 
L 67.496791 317.475835 
L 67.866838 315.765774 
L 68.360234 316.101202 
L 69.593724 316.101202 
L 69.963771 315.827838 
L 70.333818 313.842622 
L 72.5541 313.842622 
L 72.677449 314.091438 
L 72.800798 313.820089 
L 72.924147 314.008304 
L 73.047496 312.989033 
L 73.664241 313.1879 
L 73.78759 313.501651 
L 73.910939 313.336956 
L 74.280986 313.322022 
L 74.404335 313.682201 
L 74.527684 312.444663 
L 74.651033 312.393729 
L 74.774382 312.700446 
L 75.637825 312.075247 
L 76.994664 311.987868 
L 77.364711 311.719806 
L 80.325086 311.771348 
L 80.448435 312.315653 
L 80.695133 311.023197 
L 80.818482 311.410555 
L 81.188529 311.37239 
L 81.311878 310.887494 
L 81.558576 310.977904 
L 81.681925 310.498378 
L 82.175321 310.759809 
L 82.29867 311.053424 
L 82.422019 310.96282 
L 82.545368 310.662479 
L 82.915415 310.543057 
L 83.038764 309.886069 
L 83.162113 308.027252 
L 83.408811 307.95795 
L 83.778858 307.845606 
L 83.902207 307.538497 
L 85.012348 307.538497 
L 85.135697 307.265077 
L 85.629093 306.986653 
L 86.739234 306.979404 
L 86.862583 306.70503 
L 88.219422 306.70503 
L 88.342771 306.100377 
L 88.589469 306.100377 
L 89.082865 305.850543 
L 89.822959 305.940876 
L 89.946308 305.298557 
L 91.919892 305.368824 
L 92.043241 304.833656 
L 92.536637 304.397619 
L 92.659985 304.397619 
L 92.783334 304.820781 
L 92.906683 304.24993 
L 93.400079 304.126041 
L 93.523428 304.211168 
L 93.770126 302.955389 
L 95.003616 302.955389 
L 95.126965 302.798564 
L 95.250314 302.83584 
L 95.497012 302.664697 
L 96.730502 302.765258 
L 96.853851 302.441399 
L 97.100549 302.395376 
L 97.223898 302.30351 
L 97.593945 302.257667 
L 98.087341 301.249095 
L 98.580737 300.726194 
L 99.567529 300.726194 
L 99.690878 301.214775 
L 99.814227 301.036323 
L 100.184274 301.19987 
L 100.430972 300.873534 
L 100.554321 301.14031 
L 100.67767 300.762971 
L 101.047717 300.932643 
L 101.417764 300.623422 
L 101.541113 300.844016 
L 101.91116 300.851393 
L 102.157858 300.280581 
L 102.404556 300.925249 
L 102.774603 300.689455 
L 102.897952 300.888302 
L 103.021301 300.550196 
L 103.14465 300.682112 
L 103.267999 299.3847 
L 103.884744 299.292825 
L 104.008093 298.899774 
L 104.131442 299.187112 
L 104.501489 298.871866 
L 104.748187 297.58456 
L 104.871536 297.356697 
L 104.994885 297.450344 
L 105.61163 297.376835 
L 106.351724 297.316593 
L 106.475073 297.116527 
L 106.721771 296.327452 
L 107.338515 296.327452 
L 107.585213 296.605332 
L 107.95526 296.499214 
L 108.201958 296.019071 
L 108.942052 296.019071 
L 109.065401 295.682878 
L 109.805495 295.682878 
L 109.928844 295.896281 
L 110.175542 295.240214 
L 110.545589 295.233649 
L 110.668938 295.510436 
L 110.792287 294.751212 
L 111.532381 294.751212 
L 111.65573 295.296617 
L 111.779079 295.159471 
L 111.902428 294.414579 
L 112.272475 293.763975 
L 112.395824 293.047755 
L 112.519173 293.469212 
L 112.765871 292.574009 
L 113.135918 292.485095 
L 113.259267 292.112833 
L 113.382616 292.27009 
L 113.505965 291.981278 
L 113.629314 291.404517 
L 113.999361 291.251073 
L 114.246059 291.564812 
L 114.492757 291.104394 
L 114.986153 290.915833 
L 115.3562 290.565733 
L 115.726247 290.38003 
L 115.849596 290.595778 
L 115.972945 288.422076 
L 116.096294 288.326136 
L 116.219643 287.861441 
L 116.713039 287.65072 
L 116.836388 287.70106 
L 117.083086 287.162267 
L 117.453133 287.53354 
L 117.699831 286.904141 
L 117.946529 286.599038 
L 118.316576 285.938045 
L 118.439925 286.071392 
L 118.563274 286.452874 
L 119.180019 286.452874 
L 119.303368 287.050437 
L 119.550066 285.759505 
L 120.166811 285.069176 
L 120.29016 285.292572 
L 120.536858 285.297784 
L 121.030254 284.75468 
L 121.893696 284.674902 
L 122.140394 282.908433 
L 123.003837 282.908433 
L 123.127186 282.049332 
L 123.620582 282.818399 
L 123.743931 282.397776 
L 123.86728 281.251157 
L 124.730723 280.803771 
L 124.854072 281.912888 
L 125.224119 281.57698 
L 125.594166 280.037341 
L 125.717515 279.826286 
L 126.087562 280.294273 
L 126.210911 279.894863 
L 126.33426 280.057038 
L 126.457609 279.684658 
L 126.580958 279.752959 
L 127.197703 279.524186 
L 127.321052 279.635953 
L 127.444401 279.02319 
L 128.307844 278.94672 
L 128.677891 278.475004 
L 129.171287 278.51251 
L 129.541334 278.15535 
L 129.664683 278.728559 
L 129.788032 278.723743 
L 129.911381 277.834629 
L 130.03473 278.202762 
L 130.404777 278.202762 
L 130.528126 278.610882 
L 130.774824 278.615601 
L 130.898173 278.300841 
L 131.638267 278.300841 
L 131.761616 277.911844 
L 132.131663 277.376254 
L 132.378361 277.569642 
L 132.50171 277.357444 
L 133.488502 277.254167 
L 134.721992 277.254167 
L 134.845341 276.959894 
L 135.955481 276.959894 
L 136.07883 276.032069 
L 136.448877 275.759414 
L 136.572226 276.166695 
L 136.695575 275.99725 
L 136.942273 274.780578 
L 138.422461 274.780578 
L 138.54581 274.667757 
L 138.669159 274.250401 
L 139.162555 274.230168 
L 139.285904 273.658373 
L 140.889441 273.573003 
L 141.01279 273.245939 
L 141.629535 273.205187 
L 142.122931 272.759997 
L 143.726468 272.759997 
L 144.219864 272.998179 
L 144.343213 272.408331 
L 144.466562 272.849787 
L 144.71326 272.158534 
L 145.330005 271.879617 
L 145.576703 271.879617 
L 146.070099 272.478654 
L 146.316797 271.791154 
L 146.440146 272.062449 
L 146.810193 272.135849 
L 147.18024 271.193392 
L 147.303589 270.938835 
L 147.673636 271.167853 
L 148.043683 270.645837 
L 148.660428 270.701546 
L 148.783777 270.930365 
L 149.030475 269.363903 
L 149.400522 269.18383 
L 149.523871 268.922664 
L 151.127407 268.922664 
L 151.250756 269.652493 
L 151.374105 268.988854 
L 151.620803 268.988854 
L 152.237548 268.21384 
L 152.360897 268.21384 
L 152.484246 267.853127 
L 152.854293 268.100074 
L 153.100991 267.122517 
L 153.717736 267.122517 
L 153.841085 267.595826 
L 154.211132 267.565097 
L 154.581179 267.565097 
L 154.704528 267.764772 
L 154.951226 266.208311 
L 155.444622 265.22399 
L 155.567971 265.509486 
L 155.69132 265.214187 
L 155.938018 264.467405 
L 156.554763 264.467405 
L 156.801461 264.107829 
L 157.171508 263.794988 
L 157.294857 264.078834 
L 157.418206 264.078834 
L 157.664904 263.679523 
L 158.1583 263.388916 
L 160.131884 263.388916 
L 160.255233 264.680152 
L 160.62528 263.910542 
L 160.871978 263.018268 
L 160.995327 263.06139 
L 161.118676 261.938479 
L 161.488723 261.523016 
L 161.735421 261.094262 
L 162.722213 261.094262 
L 162.845562 260.334384 
L 163.462307 260.476767 
L 163.709005 260.476767 
L 164.202401 260.177838 
L 164.572447 260.177838 
L 165.065843 259.578232 
L 165.312541 259.057793 
L 166.175984 258.984069 
L 167.90287 258.984069 
L 168.026219 259.450166 
L 168.642964 259.21128 
L 168.889662 257.977137 
L 169.383058 257.977137 
L 169.629756 258.366313 
L 169.753105 257.152496 
L 170.986595 257.152496 
L 171.109944 256.821862 
L 171.233293 256.87126 
L 171.356642 257.235643 
L 171.479991 256.42916 
L 172.096736 254.77117 
L 172.220085 254.916348 
L 172.343434 254.503134 
L 172.83683 254.018665 
L 173.083528 253.977669 
L 173.206877 253.773403 
L 173.576924 254.582045 
L 173.700273 253.803967 
L 173.823622 253.778495 
L 174.07032 253.12261 
L 174.687065 252.893425 
L 174.810414 252.967995 
L 174.933763 252.268318 
L 175.427159 251.793431 
L 175.797206 250.923455 
L 176.290602 250.773513 
L 176.5373 250.998666 
L 177.030696 250.895292 
L 177.277394 250.415313 
L 177.400743 250.540501 
L 177.524092 250.193851 
L 178.264186 250.193851 
L 178.387535 250.343593 
L 178.757582 250.287365 
L 179.250977 249.290329 
L 180.484467 249.225617 
L 181.34791 248.817337 
L 181.471259 249.016606 
L 181.594608 248.960882 
L 181.717957 249.282504 
L 181.841306 249.095699 
L 182.211353 248.956242 
L 182.334702 248.426724 
L 182.458051 248.426724 
L 182.5814 248.300505 
L 182.704749 248.482967 
L 183.074796 247.561691 
L 183.198145 247.989236 
L 183.444843 246.278516 
L 183.938239 246.296144 
L 184.184937 245.822015 
L 184.431635 245.642019 
L 186.651917 245.642019 
L 187.021964 244.576148 
L 187.762058 244.499957 
L 187.885407 245.182737 
L 188.255454 245.522246 
L 188.378803 244.742611 
L 188.502152 244.864568 
L 188.74885 244.041706 
L 189.242246 244.12136 
L 189.488944 243.654864 
L 189.612293 242.850953 
L 190.105689 242.654937 
L 191.21583 242.654937 
L 191.339179 242.436126 
L 191.832575 242.257711 
L 191.955924 242.38817 
L 192.079273 241.736383 
L 194.669601 241.732106 
L 194.79295 241.097966 
L 198.616769 241.004094 
L 198.740118 240.974502 
L 198.863467 240.640856 
L 199.480212 240.640856 
L 199.72691 240.171949 
L 203.797427 240.181696 
L 203.920776 240.724319 
L 204.044125 240.229239 
L 204.167474 240.213384 
L 204.290823 240.393493 
L 204.66087 239.876837 
L 204.784219 240.097333 
L 205.154266 238.592206 
L 205.647662 238.592206 
L 205.771011 239.64211 
L 206.017709 238.459971 
L 206.387756 238.409243 
L 206.511105 237.321175 
L 206.634454 237.232821 
L 207.497897 237.312526 
L 207.621246 237.088814 
L 207.744595 236.445548 
L 208.114641 236.275655 
L 208.23799 236.372636 
L 208.361339 234.509676 
L 208.484688 235.047991 
L 209.841527 235.047991 
L 209.964876 234.402558 
L 211.691762 234.402558 
L 211.815111 233.97864 
L 212.061809 234.402558 
L 212.678554 234.249161 
L 212.925252 233.812444 
L 213.418648 233.70046 
L 213.541997 234.18996 
L 214.158742 233.603372 
L 214.282091 232.921644 
L 214.40544 233.371448 
L 215.022185 233.36184 
L 215.392232 234.145259 
L 215.515581 233.496005 
L 216.132326 233.901597 
L 216.379024 233.171059 
L 216.749071 233.204371 
L 216.995769 231.799689 
L 217.119118 232.070642 
L 217.242467 231.877547 
L 218.475957 231.357869 
L 218.599306 232.314605 
L 218.722655 229.115024 
L 218.846004 229.115024 
L 218.969353 228.559281 
L 219.462749 228.922996 
L 219.586098 228.710372 
L 219.709447 228.779659 
L 219.832796 228.602384 
L 220.202843 228.602384 
L 220.326192 228.447461 
L 220.449541 227.88095 
L 221.189635 227.902083 
L 221.559682 227.902083 
L 221.929729 228.181379 
L 222.053078 227.820859 
L 222.423124 227.94058 
L 223.039869 227.927646 
L 223.286567 227.704195 
L 223.779963 227.58873 
L 224.026661 228.169882 
L 224.643406 227.708479 
L 224.766755 227.768507 
L 225.013453 227.139052 
L 225.506849 226.703375 
L 225.753547 226.388372 
L 225.876896 226.388372 
L 226.246943 226.587908 
L 226.493641 226.119959 
L 229.08397 226.119959 
L 229.207319 225.473789 
L 229.947413 225.473789 
L 230.070762 224.740011 
L 230.934205 224.807922 
L 231.057554 224.353164 
L 231.427601 224.183577 
L 231.674299 223.50892 
L 231.797648 223.583247 
L 233.154487 223.583247 
L 233.277836 223.753388 
L 233.401185 223.436758 
L 233.524534 223.62915 
L 233.647883 223.204545 
L 235.25142 223.204545 
L 235.374769 223.416696 
L 236.114863 223.416696 
L 236.238212 222.801429 
L 236.608258 222.578184 
L 236.854956 221.796217 
L 236.978305 221.327019 
L 237.101654 221.565436 
L 237.718399 220.936226 
L 238.458493 220.913638 
L 240.06203 220.813444 
L 240.185379 219.887168 
L 240.432077 221.409239 
L 240.555426 221.052472 
L 240.925473 220.837274 
L 241.048822 221.004536 
L 241.172171 220.78487 
L 241.29552 220.794392 
L 241.418869 220.434346 
L 241.912265 219.952196 
L 242.158963 219.034442 
L 242.282312 218.638092 
L 242.652359 219.116066 
L 242.775708 218.593333 
L 242.899057 218.953006 
L 243.022406 218.682907 
L 243.145755 218.894308 
L 243.639151 219.120606 
L 243.885849 218.871758 
L 244.009198 218.7862 
L 244.379245 218.290475 
L 244.625943 218.339291 
L 244.872641 218.025396 
L 245.489386 217.362666 
L 245.612735 217.01881 
L 246.352829 217.01881 
L 246.599527 216.863183 
L 247.833017 216.863183 
L 247.956366 216.536529 
L 248.203064 216.610305 
L 249.189856 216.610305 
L 249.683252 216.841352 
L 249.92995 216.637985 
L 250.053299 216.904863 
L 250.423346 216.886705 
L 250.546695 216.123547 
L 250.670044 216.507546 
L 250.916742 215.686629 
L 251.286788 215.146922 
L 251.533486 215.977304 
L 251.780184 216.119106 
L 252.150231 215.858101 
L 252.396929 214.361021 
L 252.520278 214.331466 
L 252.643627 213.970379 
L 253.013674 212.413804 
L 253.260372 212.413804 
L 253.50707 211.073272 
L 253.877117 211.097943 
L 254.000466 211.324901 
L 254.123815 211.073272 
L 254.247164 211.081493 
L 254.370513 210.628071 
L 254.74056 210.324979 
L 255.110607 209.025424 
L 255.233956 208.847489 
L 255.850701 208.494295 
L 256.097399 208.178667 
L 256.590795 208.681967 
L 256.837493 208.254463 
L 256.960842 207.503747 
L 257.330889 207.888365 
L 257.454238 207.574381 
L 257.577587 207.716074 
L 257.700936 207.134312 
L 257.824285 205.301286 
L 258.317681 205.262934 
L 258.44103 205.016388 
L 258.564379 205.127294 
L 258.687728 203.902672 
L 259.181124 203.185879 
L 262.758245 203.291359 
L 262.881594 202.72394 
L 263.868386 202.72394 
L 264.238433 202.318123 
L 264.361782 201.997615 
L 264.485131 202.407901 
L 264.60848 202.387477 
L 264.731829 201.933056 
L 265.471922 201.933056 
L 265.595271 201.337589 
L 266.088667 201.830375 
L 266.212016 201.212013 
L 266.335365 201.842689 
L 267.075459 201.842689 
L 267.198808 201.084779 
L 267.692204 202.375207 
L 267.815553 202.019301 
L 268.062251 200.686081 
L 268.678996 200.686081 
L 268.925694 200.884488 
L 270.529231 200.884488 
L 270.775929 199.81279 
L 271.145976 199.81279 
L 271.392674 199.165706 
L 271.516023 199.642465 
L 271.639372 199.05274 
L 272.009419 199.211834 
L 272.379466 198.703592 
L 272.502815 197.732749 
L 272.996211 198.084538 
L 273.242909 198.174987 
L 273.366258 197.818652 
L 273.736305 197.393344 
L 273.859654 198.059911 
L 274.106352 193.907999 
L 274.229701 193.835146 
L 274.723097 194.167855 
L 274.846446 193.570502 
L 274.969795 194.451857 
L 275.463191 193.509158 
L 275.58654 193.541621 
L 275.956587 192.5735 
L 276.82003 192.5735 
L 277.436775 192.837004 
L 279.040312 192.766608 
L 279.28701 192.596758 
L 279.410359 192.36912 
L 279.780405 192.070294 
L 279.903754 191.334148 
L 280.150452 191.587366 
L 280.273801 191.132171 
L 280.643848 191.114509 
L 281.013895 190.498384 
L 282.86413 190.429844 
L 283.234177 190.386624 
L 283.480875 189.985776 
L 284.09762 189.985776 
L 284.220969 189.514216 
L 284.344318 190.080125 
L 284.591016 189.664716 
L 284.961063 189.31099 
L 285.084412 189.038308 
L 285.33111 186.516869 
L 285.454459 186.631986 
L 285.824506 186.576025 
L 286.071204 186.018018 
L 286.194553 186.277973 
L 286.317902 185.995363 
L 286.811298 185.615645 
L 286.934647 186.105538 
L 287.674741 184.281006 
L 287.79809 184.231737 
L 287.921439 184.724445 
L 288.044788 184.370484 
L 288.414835 184.416855 
L 288.661533 183.64582 
L 293.595493 183.64582 
L 293.96554 181.951894 
L 294.088889 182.176485 
L 294.458935 182.085752 
L 294.582284 181.926626 
L 294.705633 180.828958 
L 296.30917 180.828958 
L 296.432519 179.946018 
L 296.679217 180.169693 
L 297.049264 179.573732 
L 297.295962 177.889158 
L 297.54266 178.073658 
L 298.282754 178.073658 
L 298.406103 178.678456 
L 298.899499 178.646984 
L 299.146197 176.804713 
L 300.00964 176.804713 
L 300.132989 177.409714 
L 300.503036 178.090729 
L 300.873083 175.755042 
L 300.996432 175.751212 
L 301.366479 175.564048 
L 301.613177 175.598351 
L 301.736526 176.020327 
L 301.859875 174.993463 
L 302.229922 174.332523 
L 302.353271 173.611619 
L 303.463412 173.611619 
L 303.586761 172.509126 
L 304.326855 172.41702 
L 304.450204 171.651198 
L 304.820251 171.903365 
L 304.9436 171.797762 
L 305.190298 170.784408 
L 305.313647 170.438511 
L 305.807043 170.081632 
L 306.053741 170.521943 
L 306.17709 170.416779 
L 306.547137 170.521943 
L 306.793835 168.896708 
L 306.917184 168.879373 
L 307.040533 167.945619 
L 307.533929 167.669923 
L 307.903976 167.220358 
L 309.630861 167.220358 
L 310.247606 166.574556 
L 310.494304 166.934603 
L 310.864351 166.328495 
L 311.234398 164.817668 
L 311.357747 165.283918 
L 311.851143 164.946932 
L 312.22119 163.800302 
L 312.591237 163.974293 
L 312.714586 163.659165 
L 313.084633 162.072464 
L 313.701378 161.633183 
L 313.948076 160.868335 
L 314.441472 160.591003 
L 316.045009 160.591003 
L 316.168358 160.303729 
L 317.278499 160.303729 
L 317.401848 160.18806 
L 317.771895 160.84748 
L 318.265291 159.55049 
L 319.62213 159.55049 
L 319.868828 158.788994 
L 319.992177 159.014586 
L 320.362224 158.803988 
L 320.485573 157.700397 
L 320.732271 157.911782 
L 320.85562 157.722186 
L 321.472365 157.71488 
L 321.719063 156.529735 
L 322.08911 156.371173 
L 322.335808 156.849017 
L 322.459157 155.896263 
L 323.075901 155.896263 
L 323.445948 154.945602 
L 324.309391 153.810015 
L 324.802787 153.594611 
L 324.926136 154.196999 
L 325.172834 152.752498 
L 326.653022 152.683979 
L 326.776371 152.941618 
L 326.89972 152.43501 
L 327.763163 152.43501 
L 328.13321 153.220231 
L 328.626606 151.998058 
L 329.3667 152.077095 
L 329.860096 151.453415 
L 329.983445 150.42472 
L 330.106794 146.959338 
L 330.723539 146.956031 
L 330.846888 147.075278 
L 330.970237 146.372284 
L 331.093586 144.966429 
L 331.216935 145.088517 
L 331.710331 145.409841 
L 331.83368 145.176432 
L 332.080378 144.310083 
L 335.410801 144.310083 
L 335.53415 143.964471 
L 335.904197 143.700156 
L 336.150895 144.333245 
L 336.397593 142.87126 
L 336.76764 142.915741 
L 336.890989 142.363726 
L 337.137687 142.307435 
L 337.754431 142.307435 
L 337.87778 142.609047 
L 338.001129 142.609047 
L 338.124478 142.384447 
L 338.494525 142.365532 
L 338.617874 143.036889 
L 338.864572 142.374988 
L 338.987921 141.955073 
L 339.728015 142.064269 
L 339.851364 141.629501 
L 340.34476 141.530876 
L 340.468109 141.986237 
L 340.714807 141.163472 
L 341.084854 141.316091 
L 341.208203 141.815173 
L 341.331552 140.466842 
L 342.935089 140.466842 
L 343.181787 140.151885 
L 343.675183 139.461583 
L 343.798532 139.87897 
L 344.04523 139.363214 
L 344.168579 139.274026 
L 344.661975 138.807996 
L 344.785324 138.807996 
L 344.908673 138.543581 
L 345.032022 138.684355 
L 345.772116 138.684355 
L 345.895465 138.537727 
L 346.388861 138.67554 
L 346.635559 138.470483 
L 346.758908 138.722579 
L 347.128955 138.502628 
L 347.252304 138.713754 
L 347.499002 138.009105 
L 348.115747 138.009105 
L 348.362445 138.244317 
L 348.485794 137.344374 
L 348.97919 137.757993 
L 349.225888 137.243874 
L 349.719284 137.243874 
L 349.842633 136.837853 
L 350.21268 136.837853 
L 350.582727 136.554469 
L 350.829425 135.098707 
L 351.076123 135.286467 
L 351.44617 135.364755 
L 351.692868 134.273005 
L 351.939565 134.346247 
L 353.543102 134.346247 
L 353.666451 134.691214 
L 354.036498 133.245529 
L 356.010082 133.245529 
L 356.133431 130.71429 
L 356.25678 132.527777 
L 356.626827 131.772441 
L 356.873525 124.351434 
L 356.996874 122.553209 
L 357.120223 123.007367 
L 357.736968 123.007367 
L 357.860317 121.955713 
L 357.983666 122.237089 
L 358.72376 117.030476 
L 359.463854 117.030476 
L 359.587203 117.746327 
L 360.080599 117.746327 
L 360.203948 118.68714 
L 360.327297 117.812964 
L 360.450646 117.831497 
L 360.573995 116.432282 
L 361.19074 114.772499 
L 361.437438 115.340492 
L 361.807485 114.38029 
L 361.930834 113.474335 
L 362.054183 113.644039 
L 362.300881 112.194636 
L 363.040975 112.207383 
L 363.164324 111.143144 
L 363.65772 110.200354 
L 363.781069 110.164246 
L 364.027767 108.616834 
L 364.521163 108.233268 
L 364.644512 106.996921 
L 364.767861 106.966699 
L 364.89121 106.359559 
L 365.261257 106.638685 
L 365.384606 105.922309 
L 366.494746 105.922309 
L 366.618095 105.328353 
L 366.988142 104.862508 
L 367.23484 102.745818 
L 367.358189 103.032297 
L 368.221632 103.088326 
L 368.344981 103.724195 
L 368.961726 102.072451 
L 369.578471 102.051704 
L 369.70182 102.244013 
L 369.825169 102.054296 
L 369.948518 102.090601 
L 370.071867 101.621533 
L 370.441914 101.847555 
L 370.688612 100.664359 
L 370.93531 99.883294 
L 371.305357 99.954031 
L 371.428706 99.734963 
L 371.552055 98.886289 
L 371.675404 99.372853 
L 372.1688 98.749172 
L 372.292149 99.083442 
L 372.538847 98.730301 
L 372.662196 98.798756 
L 373.032243 98.478871 
L 373.155592 98.619638 
L 373.40229 98.264116 
L 373.525639 97.896026 
L 374.019035 97.645894 
L 374.142384 97.020371 
L 374.389082 97.538585 
L 374.759129 96.622775 
L 374.882478 96.734006 
L 375.129176 96.585036 
L 375.252525 95.895161 
L 375.745921 94.993049 
L 376.115968 94.993049 
L 376.732713 95.167801 
L 377.472807 95.167801 
L 377.596156 93.867053 
L 377.719505 94.132716 
L 377.842854 93.350362 
L 378.212901 92.640362 
L 378.33625 91.831821 
L 379.076344 91.941877 
L 379.199693 91.514593 
L 379.446391 91.534564 
L 379.939787 90.642599 
L 380.063136 90.714084 
L 380.309834 89.665183 
L 380.433183 89.808596 
L 380.803229 89.378011 
L 380.926578 90.127031 
L 381.296625 88.412293 
L 381.666672 88.513995 
L 381.790021 87.988327 
L 381.91337 88.335196 
L 382.160068 87.515909 
L 383.763605 87.515909 
L 383.886954 88.10077 
L 384.257001 87.62991 
L 384.503699 85.917739 
L 385.243793 85.917739 
L 385.367142 85.404052 
L 386.230585 85.408506 
L 386.477283 84.651816 
L 386.970679 83.490773 
L 387.834122 83.508943 
L 388.08082 83.508943 
L 388.204169 83.968027 
L 388.574216 83.504312 
L 388.697565 83.678362 
L 388.820914 81.668682 
L 388.944263 81.648912 
L 389.067612 82.179946 
L 389.437659 81.677472 
L 389.561008 80.972493 
L 389.931055 81.000508 
L 390.5478 80.697829 
L 392.151337 80.619027 
L 392.398035 80.01423 
L 392.521384 79.727408 
L 392.891431 79.45771 
L 393.138129 78.722903 
L 393.384827 78.411449 
L 393.878223 78.530755 
L 394.001572 78.19649 
L 395.111712 78.206696 
L 395.481759 78.206696 
L 395.975155 75.781069 
L 396.345202 74.958532 
L 396.838598 74.958532 
L 397.331994 75.579655 
L 397.455343 74.96449 
L 399.182229 74.96449 
L 399.305578 75.98382 
L 399.428927 74.900088 
L 399.798974 73.950098 
L 400.169021 72.298485 
L 400.785766 71.367166 
L 400.909115 71.546224 
L 401.032464 71.459599 
L 401.155813 70.5421 
L 401.52586 70.074755 
L 401.649209 70.364167 
L 401.772558 70.309599 
L 402.019256 68.243041 
L 402.389303 68.796413 
L 402.636001 68.506612 
L 402.75935 68.296333 
L 403.376095 67.770633 
L 403.499444 67.866789 
L 403.622793 67.768822 
L 403.746142 66.998297 
L 404.116189 66.621024 
L 404.239538 66.784482 
L 404.486236 65.940266 
L 404.609585 65.312956 
L 406.213122 65.312956 
L 406.336471 65.703416 
L 406.829867 64.984702 
L 406.953216 65.037439 
L 407.199914 63.589872 
L 408.556753 63.589872 
L 408.680102 63.962395 
L 408.803451 63.469601 
L 409.296847 63.469601 
L 409.543544 62.931189 
L 411.023732 62.940435 
L 411.27043 62.728395 
L 412.133873 62.728395 
L 412.750618 62.225587 
L 412.873967 61.700488 
L 412.997316 61.807091 
L 413.244014 61.528399 
L 413.614061 61.428098 
L 413.73741 61.248273 
L 413.860759 61.289969 
L 413.984108 60.955983 
L 414.600853 60.955983 
L 414.724202 60.75242 
L 414.847551 61.310057 
L 414.9709 60.851352 
L 415.587645 60.808148 
L 415.834343 60.192888 
L 416.20439 60.778952 
L 416.697786 60.080056 
L 418.424672 60.080056 
L 418.794719 60.483873 
L 418.918068 60.159708 
L 419.041417 59.282448 
L 419.288115 59.282448 
L 419.658162 58.73816 
L 419.781511 60.840091 
L 420.028209 57.119309 
L 420.151558 56.156551 
L 420.644954 56.521761 
L 420.768303 56.042396 
L 421.015001 56.132957 
L 421.631746 56.132957 
L 421.755095 55.66563 
L 421.878444 55.694657 
L 422.495189 55.694657 
L 422.618538 55.881341 
L 422.741887 55.653306 
L 423.111934 55.358369 
L 423.235283 55.680868 
L 423.60533 54.853155 
L 423.975376 55.491813 
L 424.098725 55.320823 
L 424.222074 54.876728 
L 425.332215 54.876728 
L 425.825611 54.77841 
L 425.94896 54.824948 
L 426.072309 54.158648 
L 426.195658 54.454362 
L 426.689054 53.838555 
L 426.935752 52.74062 
L 427.059101 52.302835 
L 427.552497 51.70589 
L 427.922544 50.792881 
L 428.292591 50.326892 
L 428.539289 50.440908 
L 428.662638 50.442427 
L 428.785987 50.131069 
L 429.156034 50.443945 
L 429.402732 50.058914 
L 429.526081 49.540167 
L 430.142826 49.540167 
L 430.389524 49.780151 
L 430.512873 49.17951 
L 430.88292 49.38857 
L 431.006269 47.941957 
L 431.252967 47.570203 
L 431.376316 47.267142 
L 431.746363 46.87033 
L 431.993061 46.931732 
L 432.856504 46.824009 
L 432.979853 46.107131 
L 433.103202 46.346829 
L 433.473249 45.996295 
L 433.596598 45.202668 
L 433.719947 45.225958 
L 433.843296 45.033255 
L 433.966645 44.595751 
L 435.200135 44.595751 
L 435.570182 43.961187 
L 436.186927 43.412582 
L 436.310276 42.92427 
L 436.556974 43.085831 
L 437.790464 43.085831 
L 437.913813 42.829653 
L 439.147302 42.829653 
L 439.517349 41.701787 
L 439.887396 42.68765 
L 440.010745 41.304267 
L 440.504141 40.95267 
L 441.244235 40.95267 
L 441.367584 40.225605 
L 443.217819 40.219376 
L 443.341168 40.495271 
L 443.464517 39.55661 
L 443.957913 39.18614 
L 444.081262 38.066788 
L 444.204611 38.434926 
L 444.698007 38.434926 
L 444.944705 38.276977 
L 445.191403 38.853338 
L 445.56145 38.17898 
L 445.684799 37.477693 
L 446.054846 37.438125 
L 446.671591 37.438125 
L 446.671591 37.438125 
" clip-path="url(#p5f4f5cf38f)" style="fill: none; stroke: #008000; stroke-width: 0.7; stroke-linecap: square"/>
   </g>
   <g id="patch_3">
    <path d="M 20.5625 354.958125 
L 20.5625 22.318125 
" style="fill: none; stroke: #000000; stroke-width: 0.8; stroke-linejoin: miter; stroke-linecap: square"/>
   </g>
   <g id="patch_4">
    <path d="M 466.9625 354.958125 
L 466.9625 22.318125 
" style="fill: none; stroke: #000000; stroke-width: 0.8; stroke-linejoin: miter; stroke-linecap: square"/>
   </g>
   <g id="patch_5">
    <path d="M 20.5625 354.958125 
L 466.9625 354.958125 
" style="fill: none; stroke: #000000; stroke-width: 0.8; stroke-linejoin: miter; stroke-linecap: square"/>
   </g>
   <g id="patch_6">
    <path d="M 20.5625 22.318125 
L 466.9625 22.318125 
" style="fill: none; stroke: #000000; stroke-width: 0.8; stroke-linejoin: miter; stroke-linecap: square"/>
   </g>
   <g id="text_16">
    <!-- Buy/Sell Strategy, LOW -->
    <g transform="translate(174.225312 16.318125)scale(0.12 -0.12)">
     <defs>
      <path id="DejaVuSans-42" d="M 1259 2228 
L 1259 519 
L 2272 519 
Q 2781 519 3026 730 
Q 3272 941 3272 1375 
Q 3272 1813 3026 2020 
Q 2781 2228 2272 2228 
L 1259 2228 
z
M 1259 4147 
L 1259 2741 
L 2194 2741 
Q 2656 2741 2882 2914 
Q 3109 3088 3109 3444 
Q 3109 3797 2882 3972 
Q 2656 4147 2194 4147 
L 1259 4147 
z
M 628 4666 
L 2241 4666 
Q 2963 4666 3353 4366 
Q 3744 4066 3744 3513 
Q 3744 3084 3544 2831 
Q 3344 2578 2956 2516 
Q 3422 2416 3680 2098 
Q 3938 1781 3938 1306 
Q 3938 681 3513 340 
Q 3088 0 2303 0 
L 628 0 
L 628 4666 
z
" transform="scale(0.015625)"/>
      <path id="DejaVuSans-75" d="M 544 1381 
L 544 3500 
L 1119 3500 
L 1119 1403 
Q 1119 906 1312 657 
Q 1506 409 1894 409 
Q 2359 409 2629 706 
Q 2900 1003 2900 1516 
L 2900 3500 
L 3475 3500 
L 3475 0 
L 2900 0 
L 2900 538 
Q 2691 219 2414 64 
Q 2138 -91 1772 -91 
Q 1169 -91 856 284 
Q 544 659 544 1381 
z
M 1991 3584 
L 1991 3584 
z
" transform="scale(0.015625)"/>
      <path id="DejaVuSans-79" d="M 2059 -325 
Q 1816 -950 1584 -1140 
Q 1353 -1331 966 -1331 
L 506 -1331 
L 506 -850 
L 844 -850 
Q 1081 -850 1212 -737 
Q 1344 -625 1503 -206 
L 1606 56 
L 191 3500 
L 800 3500 
L 1894 763 
L 2988 3500 
L 3597 3500 
L 2059 -325 
z
" transform="scale(0.015625)"/>
      <path id="DejaVuSans-2f" d="M 1625 4666 
L 2156 4666 
L 531 -594 
L 0 -594 
L 1625 4666 
z
" transform="scale(0.015625)"/>
      <path id="DejaVuSans-53" d="M 3425 4513 
L 3425 3897 
Q 3066 4069 2747 4153 
Q 2428 4238 2131 4238 
Q 1616 4238 1336 4038 
Q 1056 3838 1056 3469 
Q 1056 3159 1242 3001 
Q 1428 2844 1947 2747 
L 2328 2669 
Q 3034 2534 3370 2195 
Q 3706 1856 3706 1288 
Q 3706 609 3251 259 
Q 2797 -91 1919 -91 
Q 1588 -91 1214 -16 
Q 841 59 441 206 
L 441 856 
Q 825 641 1194 531 
Q 1563 422 1919 422 
Q 2459 422 2753 634 
Q 3047 847 3047 1241 
Q 3047 1584 2836 1778 
Q 2625 1972 2144 2069 
L 1759 2144 
Q 1053 2284 737 2584 
Q 422 2884 422 3419 
Q 422 4038 858 4394 
Q 1294 4750 2059 4750 
Q 2388 4750 2728 4690 
Q 3069 4631 3425 4513 
z
" transform="scale(0.015625)"/>
      <path id="DejaVuSans-65" d="M 3597 1894 
L 3597 1613 
L 953 1613 
Q 991 1019 1311 708 
Q 1631 397 2203 397 
Q 2534 397 2845 478 
Q 3156 559 3463 722 
L 3463 178 
Q 3153 47 2828 -22 
Q 2503 -91 2169 -91 
Q 1331 -91 842 396 
Q 353 884 353 1716 
Q 353 2575 817 3079 
Q 1281 3584 2069 3584 
Q 2775 3584 3186 3129 
Q 3597 2675 3597 1894 
z
M 3022 2063 
Q 3016 2534 2758 2815 
Q 2500 3097 2075 3097 
Q 1594 3097 1305 2825 
Q 1016 2553 972 2059 
L 3022 2063 
z
" transform="scale(0.015625)"/>
      <path id="DejaVuSans-6c" d="M 603 4863 
L 1178 4863 
L 1178 0 
L 603 0 
L 603 4863 
z
" transform="scale(0.015625)"/>
      <path id="DejaVuSans-20" transform="scale(0.015625)"/>
      <path id="DejaVuSans-74" d="M 1172 4494 
L 1172 3500 
L 2356 3500 
L 2356 3053 
L 1172 3053 
L 1172 1153 
Q 1172 725 1289 603 
Q 1406 481 1766 481 
L 2356 481 
L 2356 0 
L 1766 0 
Q 1100 0 847 248 
Q 594 497 594 1153 
L 594 3053 
L 172 3053 
L 172 3500 
L 594 3500 
L 594 4494 
L 1172 4494 
z
" transform="scale(0.015625)"/>
      <path id="DejaVuSans-72" d="M 2631 2963 
Q 2534 3019 2420 3045 
Q 2306 3072 2169 3072 
Q 1681 3072 1420 2755 
Q 1159 2438 1159 1844 
L 1159 0 
L 581 0 
L 581 3500 
L 1159 3500 
L 1159 2956 
Q 1341 3275 1631 3429 
Q 1922 3584 2338 3584 
Q 2397 3584 2469 3576 
Q 2541 3569 2628 3553 
L 2631 2963 
z
" transform="scale(0.015625)"/>
      <path id="DejaVuSans-61" d="M 2194 1759 
Q 1497 1759 1228 1600 
Q 959 1441 959 1056 
Q 959 750 1161 570 
Q 1363 391 1709 391 
Q 2188 391 2477 730 
Q 2766 1069 2766 1631 
L 2766 1759 
L 2194 1759 
z
M 3341 1997 
L 3341 0 
L 2766 0 
L 2766 531 
Q 2569 213 2275 61 
Q 1981 -91 1556 -91 
Q 1019 -91 701 211 
Q 384 513 384 1019 
Q 384 1609 779 1909 
Q 1175 2209 1959 2209 
L 2766 2209 
L 2766 2266 
Q 2766 2663 2505 2880 
Q 2244 3097 1772 3097 
Q 1472 3097 1187 3025 
Q 903 2953 641 2809 
L 641 3341 
Q 956 3463 1253 3523 
Q 1550 3584 1831 3584 
Q 2591 3584 2966 3190 
Q 3341 2797 3341 1997 
z
" transform="scale(0.015625)"/>
      <path id="DejaVuSans-67" d="M 2906 1791 
Q 2906 2416 2648 2759 
Q 2391 3103 1925 3103 
Q 1463 3103 1205 2759 
Q 947 2416 947 1791 
Q 947 1169 1205 825 
Q 1463 481 1925 481 
Q 2391 481 2648 825 
Q 2906 1169 2906 1791 
z
M 3481 434 
Q 3481 -459 3084 -895 
Q 2688 -1331 1869 -1331 
Q 1566 -1331 1297 -1286 
Q 1028 -1241 775 -1147 
L 775 -588 
Q 1028 -725 1275 -790 
Q 1522 -856 1778 -856 
Q 2344 -856 2625 -561 
Q 2906 -266 2906 331 
L 2906 616 
Q 2728 306 2450 153 
Q 2172 0 1784 0 
Q 1141 0 747 490 
Q 353 981 353 1791 
Q 353 2603 747 3093 
Q 1141 3584 1784 3584 
Q 2172 3584 2450 3431 
Q 2728 3278 2906 2969 
L 2906 3500 
L 3481 3500 
L 3481 434 
z
" transform="scale(0.015625)"/>
      <path id="DejaVuSans-2c" d="M 750 794 
L 1409 794 
L 1409 256 
L 897 -744 
L 494 -744 
L 750 256 
L 750 794 
z
" transform="scale(0.015625)"/>
      <path id="DejaVuSans-4c" d="M 628 4666 
L 1259 4666 
L 1259 531 
L 3531 531 
L 3531 0 
L 628 0 
L 628 4666 
z
" transform="scale(0.015625)"/>
      <path id="DejaVuSans-4f" d="M 2522 4238 
Q 1834 4238 1429 3725 
Q 1025 3213 1025 2328 
Q 1025 1447 1429 934 
Q 1834 422 2522 422 
Q 3209 422 3611 934 
Q 4013 1447 4013 2328 
Q 4013 3213 3611 3725 
Q 3209 4238 2522 4238 
z
M 2522 4750 
Q 3503 4750 4090 4092 
Q 4678 3434 4678 2328 
Q 4678 1225 4090 567 
Q 3503 -91 2522 -91 
Q 1538 -91 948 565 
Q 359 1222 359 2328 
Q 359 3434 948 4092 
Q 1538 4750 2522 4750 
z
" transform="scale(0.015625)"/>
      <path id="DejaVuSans-57" d="M 213 4666 
L 850 4666 
L 1831 722 
L 2809 4666 
L 3519 4666 
L 4500 722 
L 5478 4666 
L 6119 4666 
L 4947 0 
L 4153 0 
L 3169 4050 
L 2175 0 
L 1381 0 
L 213 4666 
z
" transform="scale(0.015625)"/>
     </defs>
     <use xlink:href="#DejaVuSans-42"/>
     <use xlink:href="#DejaVuSans-75" x="68.603516"/>
     <use xlink:href="#DejaVuSans-79" x="131.982422"/>
     <use xlink:href="#DejaVuSans-2f" x="191.162109"/>
     <use xlink:href="#DejaVuSans-53" x="224.853516"/>
     <use xlink:href="#DejaVuSans-65" x="288.330078"/>
     <use xlink:href="#DejaVuSans-6c" x="349.853516"/>
     <use xlink:href="#DejaVuSans-6c" x="377.636719"/>
     <use xlink:href="#DejaVuSans-20" x="405.419922"/>
     <use xlink:href="#DejaVuSans-53" x="437.207031"/>
     <use xlink:href="#DejaVuSans-74" x="500.683594"/>
     <use xlink:href="#DejaVuSans-72" x="539.892578"/>
     <use xlink:href="#DejaVuSans-61" x="581.005859"/>
     <use xlink:href="#DejaVuSans-74" x="642.285156"/>
     <use xlink:href="#DejaVuSans-65" x="681.494141"/>
     <use xlink:href="#DejaVuSans-67" x="743.017578"/>
     <use xlink:href="#DejaVuSans-79" x="806.494141"/>
     <use xlink:href="#DejaVuSans-2c" x="865.673828"/>
     <use xlink:href="#DejaVuSans-20" x="897.460938"/>
     <use xlink:href="#DejaVuSans-4c" x="929.248047"/>
     <use xlink:href="#DejaVuSans-4f" x="981.335938"/>
     <use xlink:href="#DejaVuSans-57" x="1060.046875"/>
    </g>
   </g>
   <g id="legend_1">
    <g id="patch_7">
     <path d="M 27.5625 59.674375 
L 148.073438 59.674375 
Q 150.073438 59.674375 150.073438 57.674375 
L 150.073438 29.318125 
Q 150.073438 27.318125 148.073438 27.318125 
L 27.5625 27.318125 
Q 25.5625 27.318125 25.5625 29.318125 
L 25.5625 57.674375 
Q 25.5625 59.674375 27.5625 59.674375 
z
" style="fill: #ffffff; opacity: 0.8; stroke: #cccccc; stroke-linejoin: miter"/>
    </g>
    <g id="line2d_18">
     <path d="M 29.5625 35.416562 
L 39.5625 35.416562 
L 49.5625 35.416562 
" style="fill: none; stroke: #ff0000; stroke-width: 0.7; stroke-linecap: square"/>
    </g>
    <g id="text_17">
     <!-- LOW Returns -->
     <g transform="translate(57.5625 38.916562)scale(0.1 -0.1)">
      <defs>
       <path id="DejaVuSans-52" d="M 2841 2188 
Q 3044 2119 3236 1894 
Q 3428 1669 3622 1275 
L 4263 0 
L 3584 0 
L 2988 1197 
Q 2756 1666 2539 1819 
Q 2322 1972 1947 1972 
L 1259 1972 
L 1259 0 
L 628 0 
L 628 4666 
L 2053 4666 
Q 2853 4666 3247 4331 
Q 3641 3997 3641 3322 
Q 3641 2881 3436 2590 
Q 3231 2300 2841 2188 
z
M 1259 4147 
L 1259 2491 
L 2053 2491 
Q 2509 2491 2742 2702 
Q 2975 2913 2975 3322 
Q 2975 3731 2742 3939 
Q 2509 4147 2053 4147 
L 1259 4147 
z
" transform="scale(0.015625)"/>
       <path id="DejaVuSans-6e" d="M 3513 2113 
L 3513 0 
L 2938 0 
L 2938 2094 
Q 2938 2591 2744 2837 
Q 2550 3084 2163 3084 
Q 1697 3084 1428 2787 
Q 1159 2491 1159 1978 
L 1159 0 
L 581 0 
L 581 3500 
L 1159 3500 
L 1159 2956 
Q 1366 3272 1645 3428 
Q 1925 3584 2291 3584 
Q 2894 3584 3203 3211 
Q 3513 2838 3513 2113 
z
" transform="scale(0.015625)"/>
       <path id="DejaVuSans-73" d="M 2834 3397 
L 2834 2853 
Q 2591 2978 2328 3040 
Q 2066 3103 1784 3103 
Q 1356 3103 1142 2972 
Q 928 2841 928 2578 
Q 928 2378 1081 2264 
Q 1234 2150 1697 2047 
L 1894 2003 
Q 2506 1872 2764 1633 
Q 3022 1394 3022 966 
Q 3022 478 2636 193 
Q 2250 -91 1575 -91 
Q 1294 -91 989 -36 
Q 684 19 347 128 
L 347 722 
Q 666 556 975 473 
Q 1284 391 1588 391 
Q 1994 391 2212 530 
Q 2431 669 2431 922 
Q 2431 1156 2273 1281 
Q 2116 1406 1581 1522 
L 1381 1569 
Q 847 1681 609 1914 
Q 372 2147 372 2553 
Q 372 3047 722 3315 
Q 1072 3584 1716 3584 
Q 2034 3584 2315 3537 
Q 2597 3491 2834 3397 
z
" transform="scale(0.015625)"/>
      </defs>
      <use xlink:href="#DejaVuSans-4c"/>
      <use xlink:href="#DejaVuSans-4f" x="52.087891"/>
      <use xlink:href="#DejaVuSans-57" x="130.798828"/>
      <use xlink:href="#DejaVuSans-20" x="229.675781"/>
      <use xlink:href="#DejaVuSans-52" x="261.462891"/>
      <use xlink:href="#DejaVuSans-65" x="326.445312"/>
      <use xlink:href="#DejaVuSans-74" x="387.96875"/>
      <use xlink:href="#DejaVuSans-75" x="427.177734"/>
      <use xlink:href="#DejaVuSans-72" x="490.556641"/>
      <use xlink:href="#DejaVuSans-6e" x="529.919922"/>
      <use xlink:href="#DejaVuSans-73" x="593.298828"/>
     </g>
    </g>
    <g id="line2d_19">
     <path d="M 29.5625 50.094687 
L 39.5625 50.094687 
L 49.5625 50.094687 
" style="fill: none; stroke: #008000; stroke-width: 0.7; stroke-linecap: square"/>
    </g>
    <g id="text_18">
     <!-- Predicted Returns -->
     <g transform="translate(57.5625 53.594687)scale(0.1 -0.1)">
      <defs>
       <path id="DejaVuSans-50" d="M 1259 4147 
L 1259 2394 
L 2053 2394 
Q 2494 2394 2734 2622 
Q 2975 2850 2975 3272 
Q 2975 3691 2734 3919 
Q 2494 4147 2053 4147 
L 1259 4147 
z
M 628 4666 
L 2053 4666 
Q 2838 4666 3239 4311 
Q 3641 3956 3641 3272 
Q 3641 2581 3239 2228 
Q 2838 1875 2053 1875 
L 1259 1875 
L 1259 0 
L 628 0 
L 628 4666 
z
" transform="scale(0.015625)"/>
       <path id="DejaVuSans-64" d="M 2906 2969 
L 2906 4863 
L 3481 4863 
L 3481 0 
L 2906 0 
L 2906 525 
Q 2725 213 2448 61 
Q 2172 -91 1784 -91 
Q 1150 -91 751 415 
Q 353 922 353 1747 
Q 353 2572 751 3078 
Q 1150 3584 1784 3584 
Q 2172 3584 2448 3432 
Q 2725 3281 2906 2969 
z
M 947 1747 
Q 947 1113 1208 752 
Q 1469 391 1925 391 
Q 2381 391 2643 752 
Q 2906 1113 2906 1747 
Q 2906 2381 2643 2742 
Q 2381 3103 1925 3103 
Q 1469 3103 1208 2742 
Q 947 2381 947 1747 
z
" transform="scale(0.015625)"/>
       <path id="DejaVuSans-69" d="M 603 3500 
L 1178 3500 
L 1178 0 
L 603 0 
L 603 3500 
z
M 603 4863 
L 1178 4863 
L 1178 4134 
L 603 4134 
L 603 4863 
z
" transform="scale(0.015625)"/>
       <path id="DejaVuSans-63" d="M 3122 3366 
L 3122 2828 
Q 2878 2963 2633 3030 
Q 2388 3097 2138 3097 
Q 1578 3097 1268 2742 
Q 959 2388 959 1747 
Q 959 1106 1268 751 
Q 1578 397 2138 397 
Q 2388 397 2633 464 
Q 2878 531 3122 666 
L 3122 134 
Q 2881 22 2623 -34 
Q 2366 -91 2075 -91 
Q 1284 -91 818 406 
Q 353 903 353 1747 
Q 353 2603 823 3093 
Q 1294 3584 2113 3584 
Q 2378 3584 2631 3529 
Q 2884 3475 3122 3366 
z
" transform="scale(0.015625)"/>
      </defs>
      <use xlink:href="#DejaVuSans-50"/>
      <use xlink:href="#DejaVuSans-72" x="58.552734"/>
      <use xlink:href="#DejaVuSans-65" x="97.416016"/>
      <use xlink:href="#DejaVuSans-64" x="158.939453"/>
      <use xlink:href="#DejaVuSans-69" x="222.416016"/>
      <use xlink:href="#DejaVuSans-63" x="250.199219"/>
      <use xlink:href="#DejaVuSans-74" x="305.179688"/>
      <use xlink:href="#DejaVuSans-65" x="344.388672"/>
      <use xlink:href="#DejaVuSans-64" x="405.912109"/>
      <use xlink:href="#DejaVuSans-20" x="469.388672"/>
      <use xlink:href="#DejaVuSans-52" x="501.175781"/>
      <use xlink:href="#DejaVuSans-65" x="566.158203"/>
      <use xlink:href="#DejaVuSans-74" x="627.681641"/>
      <use xlink:href="#DejaVuSans-75" x="666.890625"/>
      <use xlink:href="#DejaVuSans-72" x="730.269531"/>
      <use xlink:href="#DejaVuSans-6e" x="769.632812"/>
      <use xlink:href="#DejaVuSans-73" x="833.011719"/>
     </g>
    </g>
   </g>
  </g>
 </g>
 <defs>
  <clipPath id="p5f4f5cf38f">
   <rect x="20.5625" y="22.318125" width="446.4" height="332.64"/>
  </clipPath>
 </defs>
</svg>
