<?xml version="1.0" encoding="utf-8" standalone="no"?>
<!DOCTYPE svg PUBLIC "-//W3C//DTD SVG 1.1//EN"
  "http://www.w3.org/Graphics/SVG/1.1/DTD/svg11.dtd">
<svg xmlns:xlink="http://www.w3.org/1999/xlink" width="474.1625pt" height="378.83625pt" viewBox="0 0 474.1625 378.83625" xmlns="http://www.w3.org/2000/svg" version="1.1">
 <metadata>
  <rdf:RDF xmlns:dc="http://purl.org/dc/elements/1.1/" xmlns:cc="http://creativecommons.org/ns#" xmlns:rdf="http://www.w3.org/1999/02/22-rdf-syntax-ns#">
   <cc:Work>
    <dc:type rdf:resource="http://purl.org/dc/dcmitype/StillImage"/>
    <dc:date>2023-04-24T18:00:20.531741</dc:date>
    <dc:format>image/svg+xml</dc:format>
    <dc:creator>
     <cc:Agent>
      <dc:title>Matplotlib v3.5.1, https://matplotlib.org/</dc:title>
     </cc:Agent>
    </dc:creator>
   </cc:Work>
  </rdf:RDF>
 </metadata>
 <defs>
  <style type="text/css">*{stroke-linejoin: round; stroke-linecap: butt}</style>
 </defs>
 <g id="figure_1">
  <g id="patch_1">
   <path d="M 0 378.83625 
L 474.1625 378.83625 
L 474.1625 0 
L 0 0 
z
" style="fill: #ffffff"/>
  </g>
  <g id="axes_1">
   <g id="patch_2">
    <path d="M 20.5625 354.958125 
L 466.9625 354.958125 
L 466.9625 22.318125 
L 20.5625 22.318125 
z
" style="fill: #ffffff"/>
   </g>
   <g id="matplotlib.axis_1">
    <g id="xtick_1">
     <g id="line2d_1">
      <defs>
       <path id="mc475e0226e" d="M 0 0 
L 0 3.5 
" style="stroke: #000000; stroke-width: 0.8"/>
      </defs>
      <g>
       <use xlink:href="#mc475e0226e" x="31.068612" y="354.958125" style="stroke: #000000; stroke-width: 0.8"/>
      </g>
     </g>
     <g id="text_1">
      <!-- 2013 -->
      <g transform="translate(18.343612 369.556562)scale(0.1 -0.1)">
       <defs>
        <path id="DejaVuSans-32" d="M 1228 531 
L 3431 531 
L 3431 0 
L 469 0 
L 469 531 
Q 828 903 1448 1529 
Q 2069 2156 2228 2338 
Q 2531 2678 2651 2914 
Q 2772 3150 2772 3378 
Q 2772 3750 2511 3984 
Q 2250 4219 1831 4219 
Q 1534 4219 1204 4116 
Q 875 4013 500 3803 
L 500 4441 
Q 881 4594 1212 4672 
Q 1544 4750 1819 4750 
Q 2544 4750 2975 4387 
Q 3406 4025 3406 3419 
Q 3406 3131 3298 2873 
Q 3191 2616 2906 2266 
Q 2828 2175 2409 1742 
Q 1991 1309 1228 531 
z
" transform="scale(0.015625)"/>
        <path id="DejaVuSans-30" d="M 2034 4250 
Q 1547 4250 1301 3770 
Q 1056 3291 1056 2328 
Q 1056 1369 1301 889 
Q 1547 409 2034 409 
Q 2525 409 2770 889 
Q 3016 1369 3016 2328 
Q 3016 3291 2770 3770 
Q 2525 4250 2034 4250 
z
M 2034 4750 
Q 2819 4750 3233 4129 
Q 3647 3509 3647 2328 
Q 3647 1150 3233 529 
Q 2819 -91 2034 -91 
Q 1250 -91 836 529 
Q 422 1150 422 2328 
Q 422 3509 836 4129 
Q 1250 4750 2034 4750 
z
" transform="scale(0.015625)"/>
        <path id="DejaVuSans-31" d="M 794 531 
L 1825 531 
L 1825 4091 
L 703 3866 
L 703 4441 
L 1819 4666 
L 2450 4666 
L 2450 531 
L 3481 531 
L 3481 0 
L 794 0 
L 794 531 
z
" transform="scale(0.015625)"/>
        <path id="DejaVuSans-33" d="M 2597 2516 
Q 3050 2419 3304 2112 
Q 3559 1806 3559 1356 
Q 3559 666 3084 287 
Q 2609 -91 1734 -91 
Q 1441 -91 1130 -33 
Q 819 25 488 141 
L 488 750 
Q 750 597 1062 519 
Q 1375 441 1716 441 
Q 2309 441 2620 675 
Q 2931 909 2931 1356 
Q 2931 1769 2642 2001 
Q 2353 2234 1838 2234 
L 1294 2234 
L 1294 2753 
L 1863 2753 
Q 2328 2753 2575 2939 
Q 2822 3125 2822 3475 
Q 2822 3834 2567 4026 
Q 2313 4219 1838 4219 
Q 1578 4219 1281 4162 
Q 984 4106 628 3988 
L 628 4550 
Q 988 4650 1302 4700 
Q 1616 4750 1894 4750 
Q 2613 4750 3031 4423 
Q 3450 4097 3450 3541 
Q 3450 3153 3228 2886 
Q 3006 2619 2597 2516 
z
" transform="scale(0.015625)"/>
       </defs>
       <use xlink:href="#DejaVuSans-32"/>
       <use xlink:href="#DejaVuSans-30" x="63.623047"/>
       <use xlink:href="#DejaVuSans-31" x="127.246094"/>
       <use xlink:href="#DejaVuSans-33" x="190.869141"/>
      </g>
     </g>
    </g>
    <g id="xtick_2">
     <g id="line2d_2">
      <g>
       <use xlink:href="#mc475e0226e" x="76.856444" y="354.958125" style="stroke: #000000; stroke-width: 0.8"/>
      </g>
     </g>
     <g id="text_2">
      <!-- 2014 -->
      <g transform="translate(64.131444 369.556562)scale(0.1 -0.1)">
       <defs>
        <path id="DejaVuSans-34" d="M 2419 4116 
L 825 1625 
L 2419 1625 
L 2419 4116 
z
M 2253 4666 
L 3047 4666 
L 3047 1625 
L 3713 1625 
L 3713 1100 
L 3047 1100 
L 3047 0 
L 2419 0 
L 2419 1100 
L 313 1100 
L 313 1709 
L 2253 4666 
z
" transform="scale(0.015625)"/>
       </defs>
       <use xlink:href="#DejaVuSans-32"/>
       <use xlink:href="#DejaVuSans-30" x="63.623047"/>
       <use xlink:href="#DejaVuSans-31" x="127.246094"/>
       <use xlink:href="#DejaVuSans-34" x="190.869141"/>
      </g>
     </g>
    </g>
    <g id="xtick_3">
     <g id="line2d_3">
      <g>
       <use xlink:href="#mc475e0226e" x="122.644276" y="354.958125" style="stroke: #000000; stroke-width: 0.8"/>
      </g>
     </g>
     <g id="text_3">
      <!-- 2015 -->
      <g transform="translate(109.919276 369.556562)scale(0.1 -0.1)">
       <defs>
        <path id="DejaVuSans-35" d="M 691 4666 
L 3169 4666 
L 3169 4134 
L 1269 4134 
L 1269 2991 
Q 1406 3038 1543 3061 
Q 1681 3084 1819 3084 
Q 2600 3084 3056 2656 
Q 3513 2228 3513 1497 
Q 3513 744 3044 326 
Q 2575 -91 1722 -91 
Q 1428 -91 1123 -41 
Q 819 9 494 109 
L 494 744 
Q 775 591 1075 516 
Q 1375 441 1709 441 
Q 2250 441 2565 725 
Q 2881 1009 2881 1497 
Q 2881 1984 2565 2268 
Q 2250 2553 1709 2553 
Q 1456 2553 1204 2497 
Q 953 2441 691 2322 
L 691 4666 
z
" transform="scale(0.015625)"/>
       </defs>
       <use xlink:href="#DejaVuSans-32"/>
       <use xlink:href="#DejaVuSans-30" x="63.623047"/>
       <use xlink:href="#DejaVuSans-31" x="127.246094"/>
       <use xlink:href="#DejaVuSans-35" x="190.869141"/>
      </g>
     </g>
    </g>
    <g id="xtick_4">
     <g id="line2d_4">
      <g>
       <use xlink:href="#mc475e0226e" x="168.432108" y="354.958125" style="stroke: #000000; stroke-width: 0.8"/>
      </g>
     </g>
     <g id="text_4">
      <!-- 2016 -->
      <g transform="translate(155.707108 369.556562)scale(0.1 -0.1)">
       <defs>
        <path id="DejaVuSans-36" d="M 2113 2584 
Q 1688 2584 1439 2293 
Q 1191 2003 1191 1497 
Q 1191 994 1439 701 
Q 1688 409 2113 409 
Q 2538 409 2786 701 
Q 3034 994 3034 1497 
Q 3034 2003 2786 2293 
Q 2538 2584 2113 2584 
z
M 3366 4563 
L 3366 3988 
Q 3128 4100 2886 4159 
Q 2644 4219 2406 4219 
Q 1781 4219 1451 3797 
Q 1122 3375 1075 2522 
Q 1259 2794 1537 2939 
Q 1816 3084 2150 3084 
Q 2853 3084 3261 2657 
Q 3669 2231 3669 1497 
Q 3669 778 3244 343 
Q 2819 -91 2113 -91 
Q 1303 -91 875 529 
Q 447 1150 447 2328 
Q 447 3434 972 4092 
Q 1497 4750 2381 4750 
Q 2619 4750 2861 4703 
Q 3103 4656 3366 4563 
z
" transform="scale(0.015625)"/>
       </defs>
       <use xlink:href="#DejaVuSans-32"/>
       <use xlink:href="#DejaVuSans-30" x="63.623047"/>
       <use xlink:href="#DejaVuSans-31" x="127.246094"/>
       <use xlink:href="#DejaVuSans-36" x="190.869141"/>
      </g>
     </g>
    </g>
    <g id="xtick_5">
     <g id="line2d_5">
      <g>
       <use xlink:href="#mc475e0226e" x="214.345386" y="354.958125" style="stroke: #000000; stroke-width: 0.8"/>
      </g>
     </g>
     <g id="text_5">
      <!-- 2017 -->
      <g transform="translate(201.620386 369.556562)scale(0.1 -0.1)">
       <defs>
        <path id="DejaVuSans-37" d="M 525 4666 
L 3525 4666 
L 3525 4397 
L 1831 0 
L 1172 0 
L 2766 4134 
L 525 4134 
L 525 4666 
z
" transform="scale(0.015625)"/>
       </defs>
       <use xlink:href="#DejaVuSans-32"/>
       <use xlink:href="#DejaVuSans-30" x="63.623047"/>
       <use xlink:href="#DejaVuSans-31" x="127.246094"/>
       <use xlink:href="#DejaVuSans-37" x="190.869141"/>
      </g>
     </g>
    </g>
    <g id="xtick_6">
     <g id="line2d_6">
      <g>
       <use xlink:href="#mc475e0226e" x="260.133218" y="354.958125" style="stroke: #000000; stroke-width: 0.8"/>
      </g>
     </g>
     <g id="text_6">
      <!-- 2018 -->
      <g transform="translate(247.408218 369.556562)scale(0.1 -0.1)">
       <defs>
        <path id="DejaVuSans-38" d="M 2034 2216 
Q 1584 2216 1326 1975 
Q 1069 1734 1069 1313 
Q 1069 891 1326 650 
Q 1584 409 2034 409 
Q 2484 409 2743 651 
Q 3003 894 3003 1313 
Q 3003 1734 2745 1975 
Q 2488 2216 2034 2216 
z
M 1403 2484 
Q 997 2584 770 2862 
Q 544 3141 544 3541 
Q 544 4100 942 4425 
Q 1341 4750 2034 4750 
Q 2731 4750 3128 4425 
Q 3525 4100 3525 3541 
Q 3525 3141 3298 2862 
Q 3072 2584 2669 2484 
Q 3125 2378 3379 2068 
Q 3634 1759 3634 1313 
Q 3634 634 3220 271 
Q 2806 -91 2034 -91 
Q 1263 -91 848 271 
Q 434 634 434 1313 
Q 434 1759 690 2068 
Q 947 2378 1403 2484 
z
M 1172 3481 
Q 1172 3119 1398 2916 
Q 1625 2713 2034 2713 
Q 2441 2713 2670 2916 
Q 2900 3119 2900 3481 
Q 2900 3844 2670 4047 
Q 2441 4250 2034 4250 
Q 1625 4250 1398 4047 
Q 1172 3844 1172 3481 
z
" transform="scale(0.015625)"/>
       </defs>
       <use xlink:href="#DejaVuSans-32"/>
       <use xlink:href="#DejaVuSans-30" x="63.623047"/>
       <use xlink:href="#DejaVuSans-31" x="127.246094"/>
       <use xlink:href="#DejaVuSans-38" x="190.869141"/>
      </g>
     </g>
    </g>
    <g id="xtick_7">
     <g id="line2d_7">
      <g>
       <use xlink:href="#mc475e0226e" x="305.92105" y="354.958125" style="stroke: #000000; stroke-width: 0.8"/>
      </g>
     </g>
     <g id="text_7">
      <!-- 2019 -->
      <g transform="translate(293.19605 369.556562)scale(0.1 -0.1)">
       <defs>
        <path id="DejaVuSans-39" d="M 703 97 
L 703 672 
Q 941 559 1184 500 
Q 1428 441 1663 441 
Q 2288 441 2617 861 
Q 2947 1281 2994 2138 
Q 2813 1869 2534 1725 
Q 2256 1581 1919 1581 
Q 1219 1581 811 2004 
Q 403 2428 403 3163 
Q 403 3881 828 4315 
Q 1253 4750 1959 4750 
Q 2769 4750 3195 4129 
Q 3622 3509 3622 2328 
Q 3622 1225 3098 567 
Q 2575 -91 1691 -91 
Q 1453 -91 1209 -44 
Q 966 3 703 97 
z
M 1959 2075 
Q 2384 2075 2632 2365 
Q 2881 2656 2881 3163 
Q 2881 3666 2632 3958 
Q 2384 4250 1959 4250 
Q 1534 4250 1286 3958 
Q 1038 3666 1038 3163 
Q 1038 2656 1286 2365 
Q 1534 2075 1959 2075 
z
" transform="scale(0.015625)"/>
       </defs>
       <use xlink:href="#DejaVuSans-32"/>
       <use xlink:href="#DejaVuSans-30" x="63.623047"/>
       <use xlink:href="#DejaVuSans-31" x="127.246094"/>
       <use xlink:href="#DejaVuSans-39" x="190.869141"/>
      </g>
     </g>
    </g>
    <g id="xtick_8">
     <g id="line2d_8">
      <g>
       <use xlink:href="#mc475e0226e" x="351.708882" y="354.958125" style="stroke: #000000; stroke-width: 0.8"/>
      </g>
     </g>
     <g id="text_8">
      <!-- 2020 -->
      <g transform="translate(338.983882 369.556562)scale(0.1 -0.1)">
       <use xlink:href="#DejaVuSans-32"/>
       <use xlink:href="#DejaVuSans-30" x="63.623047"/>
       <use xlink:href="#DejaVuSans-32" x="127.246094"/>
       <use xlink:href="#DejaVuSans-30" x="190.869141"/>
      </g>
     </g>
    </g>
    <g id="xtick_9">
     <g id="line2d_9">
      <g>
       <use xlink:href="#mc475e0226e" x="397.62216" y="354.958125" style="stroke: #000000; stroke-width: 0.8"/>
      </g>
     </g>
     <g id="text_9">
      <!-- 2021 -->
      <g transform="translate(384.89716 369.556562)scale(0.1 -0.1)">
       <use xlink:href="#DejaVuSans-32"/>
       <use xlink:href="#DejaVuSans-30" x="63.623047"/>
       <use xlink:href="#DejaVuSans-32" x="127.246094"/>
       <use xlink:href="#DejaVuSans-31" x="190.869141"/>
      </g>
     </g>
    </g>
    <g id="xtick_10">
     <g id="line2d_10">
      <g>
       <use xlink:href="#mc475e0226e" x="443.409992" y="354.958125" style="stroke: #000000; stroke-width: 0.8"/>
      </g>
     </g>
     <g id="text_10">
      <!-- 2022 -->
      <g transform="translate(430.684992 369.556562)scale(0.1 -0.1)">
       <use xlink:href="#DejaVuSans-32"/>
       <use xlink:href="#DejaVuSans-30" x="63.623047"/>
       <use xlink:href="#DejaVuSans-32" x="127.246094"/>
       <use xlink:href="#DejaVuSans-32" x="190.869141"/>
      </g>
     </g>
    </g>
   </g>
   <g id="matplotlib.axis_2">
    <g id="ytick_1">
     <g id="line2d_11">
      <defs>
       <path id="mf8fb3f951b" d="M 0 0 
L -3.5 0 
" style="stroke: #000000; stroke-width: 0.8"/>
      </defs>
      <g>
       <use xlink:href="#mf8fb3f951b" x="20.5625" y="338.987189" style="stroke: #000000; stroke-width: 0.8"/>
      </g>
     </g>
     <g id="text_11">
      <!-- 0 -->
      <g transform="translate(7.2 342.786408)scale(0.1 -0.1)">
       <use xlink:href="#DejaVuSans-30"/>
      </g>
     </g>
    </g>
    <g id="ytick_2">
     <g id="line2d_12">
      <g>
       <use xlink:href="#mf8fb3f951b" x="20.5625" y="269.102924" style="stroke: #000000; stroke-width: 0.8"/>
      </g>
     </g>
     <g id="text_12">
      <!-- 2 -->
      <g transform="translate(7.2 272.902143)scale(0.1 -0.1)">
       <use xlink:href="#DejaVuSans-32"/>
      </g>
     </g>
    </g>
    <g id="ytick_3">
     <g id="line2d_13">
      <g>
       <use xlink:href="#mf8fb3f951b" x="20.5625" y="199.218659" style="stroke: #000000; stroke-width: 0.8"/>
      </g>
     </g>
     <g id="text_13">
      <!-- 4 -->
      <g transform="translate(7.2 203.017877)scale(0.1 -0.1)">
       <use xlink:href="#DejaVuSans-34"/>
      </g>
     </g>
    </g>
    <g id="ytick_4">
     <g id="line2d_14">
      <g>
       <use xlink:href="#mf8fb3f951b" x="20.5625" y="129.334393" style="stroke: #000000; stroke-width: 0.8"/>
      </g>
     </g>
     <g id="text_14">
      <!-- 6 -->
      <g transform="translate(7.2 133.133612)scale(0.1 -0.1)">
       <use xlink:href="#DejaVuSans-36"/>
      </g>
     </g>
    </g>
    <g id="ytick_5">
     <g id="line2d_15">
      <g>
       <use xlink:href="#mf8fb3f951b" x="20.5625" y="59.450128" style="stroke: #000000; stroke-width: 0.8"/>
      </g>
     </g>
     <g id="text_15">
      <!-- 8 -->
      <g transform="translate(7.2 63.249347)scale(0.1 -0.1)">
       <use xlink:href="#DejaVuSans-38"/>
      </g>
     </g>
    </g>
   </g>
   <g id="line2d_16">
    <path d="M 40.853409 338.832195 
L 40.978855 339.428569 
L 41.731532 339.042058 
L 41.856978 339.280822 
L 42.358762 339.651368 
L 42.484209 339.188797 
L 42.609655 339.326926 
L 42.735101 338.632628 
L 42.860547 338.850394 
L 43.236885 338.317467 
L 43.362331 338.416212 
L 43.487778 338.290585 
L 43.613224 338.443191 
L 43.73867 338.371293 
L 44.115008 339.290038 
L 44.240454 339.216379 
L 44.491346 339.838125 
L 44.616793 339.097013 
L 44.993131 339.493406 
L 45.118577 339.197988 
L 45.244023 339.474869 
L 45.369469 339.400819 
L 45.494915 339.484136 
L 45.9967 338.823099 
L 46.122146 339.042058 
L 46.373038 337.77489 
L 46.749376 336.714376 
L 46.874823 337.162469 
L 47.000269 335.420075 
L 47.125715 335.901929 
L 47.251161 335.651865 
L 47.627499 335.635257 
L 47.878392 334.701446 
L 48.129284 335.157042 
L 48.505622 335.395331 
L 48.631068 335.337664 
L 48.756514 334.912234 
L 49.007407 335.181617 
L 49.509191 335.001798 
L 49.634637 334.814789 
L 49.885529 335.618658 
L 50.261868 335.411825 
L 50.51276 337.766066 
L 50.763652 336.04443 
L 51.265437 336.645946 
L 51.390883 336.88604 
L 51.516329 336.399004 
L 51.641775 336.415979 
L 52.143559 336.162222 
L 52.269006 336.526515 
L 52.519898 337.810212 
L 53.021682 337.84557 
L 53.272574 336.424469 
L 53.398021 336.637402 
L 53.774359 336.500975 
L 53.899805 335.403577 
L 54.025251 335.444836 
L 54.777928 334.235758 
L 54.903374 334.572359 
L 55.02882 334.588469 
L 55.154266 334.21981 
L 55.656051 334.251713 
L 55.781497 333.878676 
L 56.032389 333.870782 
L 56.408727 333.54866 
L 56.534173 333.221732 
L 56.910512 334.108377 
L 57.28685 334.532117 
L 57.663188 333.268249 
L 57.788635 333.307061 
L 58.164973 332.936236 
L 58.415865 333.847111 
L 58.541311 332.409978 
L 58.666757 332.77523 
L 59.043096 332.683559 
L 59.168542 332.432695 
L 59.419434 334.203869 
L 59.54488 334.116324 
L 59.921219 334.347598 
L 60.046665 334.021071 
L 60.297557 331.491083 
L 60.423003 331.794705 
L 60.799341 331.787268 
L 60.924787 332.531305 
L 61.17568 332.213716 
L 61.301126 332.668303 
L 61.80291 332.828817 
L 61.928356 332.554101 
L 62.179249 332.836478 
L 62.806479 331.505833 
L 63.057371 331.884071 
L 63.559156 331.891528 
L 63.810048 330.337964 
L 63.935494 331.16085 
L 64.311833 331.579675 
L 64.437279 331.015075 
L 64.562725 331.380658 
L 64.688171 331.124349 
L 64.813617 331.212015 
L 65.189955 331.329246 
L 65.440848 330.746985 
L 65.566294 331.095176 
L 65.69174 330.942415 
L 66.068078 331.587068 
L 66.193524 332.131013 
L 66.31897 332.078485 
L 66.569863 330.466612 
L 66.946201 330.409377 
L 67.071647 330.718125 
L 67.197093 330.703704 
L 67.322539 330.30944 
L 67.447985 331.292569 
L 67.94977 330.906142 
L 68.326108 329.20787 
L 68.702447 329.540986 
L 68.827893 329.194059 
L 69.204231 330.195576 
L 69.706016 329.492208 
L 69.831462 329.638745 
L 70.082354 330.523941 
L 70.458692 330.252462 
L 70.835031 328.280933 
L 70.960477 328.402213 
L 71.462261 329.311628 
L 71.587707 331.535351 
L 71.713153 330.898892 
L 71.838599 331.117053 
L 72.214938 331.226647 
L 72.340384 331.036902 
L 72.716722 331.424786 
L 73.218507 332.153549 
L 73.343953 331.884071 
L 73.469399 332.070987 
L 73.594845 331.058744 
L 73.971183 331.21933 
L 74.347522 331.861708 
L 74.472968 331.698148 
L 74.849306 331.683317 
L 74.974752 332.041013 
L 75.100198 330.812007 
L 75.225645 330.761424 
L 75.351091 331.066027 
L 76.730998 329.933677 
L 76.98189 330.011334 
L 77.107336 330.359373 
L 77.483675 330.855422 
L 77.860013 330.502432 
L 77.985459 329.842122 
L 78.361797 330.567 
L 78.487244 330.395083 
L 78.863582 331.329246 
L 79.490812 331.226647 
L 79.616259 330.935157 
L 79.741705 331.168154 
L 80.118043 331.044181 
L 80.368935 332.554101 
L 80.494381 332.153549 
L 80.996166 332.836478 
L 81.121612 333.377031 
L 81.372504 332.093485 
L 81.49795 332.478173 
L 81.874289 332.44027 
L 81.999735 331.958717 
L 82.250627 332.048505 
L 82.376073 331.572284 
L 82.877858 331.831913 
L 83.003304 332.123504 
L 83.12875 332.033524 
L 83.254196 331.735254 
L 83.630534 331.616655 
L 83.75598 330.964197 
L 83.881427 329.118195 
L 84.006873 329.049371 
L 84.132319 329.596815 
L 84.508657 329.485245 
L 84.634103 329.180254 
L 84.884995 329.554934 
L 85.010442 329.325486 
L 85.38678 329.624763 
L 85.763118 330.531114 
L 85.888564 330.259579 
L 86.264903 329.983075 
L 86.390349 329.736779 
L 86.766687 330.145877 
L 87.143026 330.195576 
L 87.268472 330.783093 
L 87.64481 330.380794 
L 88.021148 330.395083 
L 88.272041 329.954839 
L 88.522933 330.725338 
L 88.899271 331.951246 
L 89.024717 331.981143 
L 89.150163 331.380658 
L 89.401056 332.296615 
L 90.153732 331.92884 
L 90.655517 332.01855 
L 90.780963 331.380658 
L 90.906409 332.364589 
L 91.031855 331.661082 
L 91.157301 332.243838 
L 91.659086 332.206189 
L 91.784532 332.599737 
L 92.035424 331.794705 
L 92.411762 332.311709 
L 92.662655 333.213985 
L 92.788101 333.283769 
L 92.913547 332.75229 
L 93.289885 332.319259 
L 93.666223 333.587785 
L 93.79167 333.02087 
L 94.293454 332.897834 
L 94.4189 332.982375 
L 94.669792 331.735254 
L 95.171577 331.204701 
L 95.297023 331.996101 
L 95.547915 331.720407 
L 95.924254 331.772399 
L 96.0497 331.616655 
L 96.175146 331.653674 
L 96.426038 331.212015 
L 96.927822 331.343927 
L 97.053269 331.846807 
L 97.178715 332.874813 
L 97.304161 332.951609 
L 97.680499 332.974681 
L 97.805945 332.653055 
L 98.056838 332.607349 
L 98.182284 332.516116 
L 98.558622 332.470589 
L 99.060406 331.46897 
L 99.562191 330.949674 
L 100.314868 330.891643 
L 100.440314 331.175461 
L 100.56576 331.146245 
L 100.691206 331.631458 
L 100.816652 331.454236 
L 101.19299 331.616655 
L 101.443883 331.292569 
L 101.569329 331.557506 
L 101.694775 331.182768 
L 102.071113 331.35127 
L 102.447452 331.044181 
L 102.572898 331.263255 
L 102.949236 331.270581 
L 103.200128 330.703704 
L 103.45102 331.343927 
L 103.827359 331.109759 
L 103.952805 331.307235 
L 104.078251 330.971461 
L 104.203697 331.102467 
L 104.329143 329.814 
L 104.956374 329.722758 
L 105.08182 329.332417 
L 105.207266 329.617774 
L 105.583604 329.304701 
L 105.834497 328.026271 
L 105.959943 327.799978 
L 106.085389 327.89298 
L 106.461727 327.780081 
L 106.712619 327.899633 
L 107.465296 327.839806 
L 107.590742 327.64112 
L 107.841634 326.857485 
L 108.217973 327.227521 
L 108.343419 327.561961 
L 108.468865 327.325554 
L 108.719757 327.601518 
L 109.096096 327.496132 
L 109.346988 327.019299 
L 109.472434 326.831664 
L 109.59788 326.870402 
L 110.099665 327.502709 
L 110.225111 327.168833 
L 110.350557 327.535614 
L 110.852341 327.351743 
L 111.103233 327.846448 
L 111.354126 327.194905 
L 111.730464 327.188385 
L 111.85591 327.463264 
L 111.981356 326.709275 
L 112.859479 328.782244 
L 112.984925 328.646044 
L 113.110371 327.906286 
L 113.48671 327.260168 
L 113.612156 326.548886 
L 113.737602 326.967437 
L 113.988494 326.078407 
L 114.364832 325.990105 
L 114.490279 325.62041 
L 114.615725 325.776583 
L 114.741171 325.489762 
L 114.866617 324.916977 
L 115.242955 324.764591 
L 115.493847 325.076167 
L 115.74474 324.618923 
L 116.246524 324.431662 
L 116.622863 324.083977 
L 116.999201 323.899553 
L 117.124647 324.113814 
L 117.250093 321.955098 
L 117.375539 321.859819 
L 117.500985 321.398329 
L 117.877324 321.189061 
L 118.128216 321.619973 
L 118.379108 321.084895 
L 118.755446 321.453608 
L 119.006339 320.828548 
L 119.257231 320.525548 
L 119.633569 319.869113 
L 119.759015 320.00154 
L 119.884462 320.380392 
L 120.009908 320.044023 
L 120.135354 320.520161 
L 120.511692 320.278606 
L 120.637138 320.872049 
L 120.88803 319.590017 
L 121.515261 318.904448 
L 121.640707 319.126303 
L 121.891599 319.131479 
L 122.393384 318.592119 
L 122.51883 318.464918 
L 123.14606 319.8744 
L 123.271507 319.795172 
L 123.522399 318.040882 
L 123.647845 318.704441 
L 124.275076 319.188469 
L 124.400522 319.731919 
L 124.525968 318.878742 
L 125.027752 319.642506 
L 125.153198 319.224783 
L 125.278644 318.086069 
L 125.780429 317.641767 
L 126.031321 318.252257 
L 126.156767 317.895676 
L 126.282213 318.997146 
L 126.658552 318.663555 
L 127.03489 317.13453 
L 127.160336 316.92493 
L 127.536675 317.389691 
L 127.662121 316.993034 
L 127.787567 317.154092 
L 127.913013 316.784279 
L 128.038459 316.852109 
L 128.66569 316.624913 
L 128.791136 316.735909 
L 128.916582 316.127371 
L 129.29292 316.046712 
L 129.418366 315.613403 
L 129.794705 315.876516 
L 130.171043 315.408053 
L 130.296489 315.4453 
L 130.421935 315.909545 
L 130.547381 315.655556 
L 130.672827 316.15113 
L 131.049166 315.796433 
L 131.174612 316.36569 
L 131.300058 316.360908 
L 131.425504 315.477923 
L 131.55095 315.843518 
L 131.927289 315.245563 
L 132.052735 315.65087 
L 132.303627 315.655556 
L 132.429073 315.342966 
L 132.930857 315.166912 
L 133.18175 316.461474 
L 133.307196 316.075159 
L 133.683534 315.543262 
L 133.934426 315.735316 
L 134.059872 315.524581 
L 134.561657 315.422016 
L 134.687103 315.867085 
L 134.812549 315.538591 
L 134.937995 315.801138 
L 135.063441 315.496579 
L 135.43978 316.008819 
L 135.565226 315.928432 
L 135.690672 316.198696 
L 135.816118 315.881232 
L 135.941564 316.610461 
L 136.317903 316.571952 
L 136.443349 316.279708 
L 136.568795 316.360908 
L 136.694241 316.217741 
L 136.819687 316.317896 
L 137.321471 317.002774 
L 137.572364 318.434459 
L 137.69781 317.51303 
L 138.074148 317.242255 
L 138.199594 317.646728 
L 138.32504 317.478451 
L 138.575933 316.270167 
L 138.952271 316.289251 
L 139.077717 316.075159 
L 139.328609 316.750413 
L 139.454055 316.351345 
L 139.830394 316.36569 
L 139.95584 316.958966 
L 140.081286 318.617615 
L 140.206732 318.505572 
L 140.332178 318.091094 
L 140.833963 318.071001 
L 140.959409 317.503147 
L 141.210301 317.870701 
L 141.712085 317.78592 
L 141.837532 317.537751 
L 142.088424 317.9657 
L 142.590208 318.602315 
L 142.715654 318.277506 
L 142.966547 318.348301 
L 143.342885 318.307829 
L 143.844669 317.865708 
L 144.346454 317.562489 
L 145.224577 319.406923 
L 145.350023 319.266331 
L 145.475469 319.548082 
L 145.977253 319.784622 
L 146.1027 319.19884 
L 146.228146 319.637254 
L 146.479038 318.950766 
L 146.980822 318.673772 
L 147.231715 318.755615 
L 147.357161 319.115953 
L 147.858945 319.71086 
L 148.109837 319.0281 
L 148.235283 319.297525 
L 148.611622 319.370419 
L 148.98796 318.434459 
L 149.113406 318.181657 
L 149.489745 318.409096 
L 149.740637 317.89068 
L 149.866083 318.206855 
L 149.991529 318.096119 
L 150.493314 318.151443 
L 150.61876 318.378685 
L 150.869652 316.823023 
L 151.24599 316.644191 
L 151.371436 316.384826 
L 151.496882 315.744712 
L 152.249559 319.396489 
L 152.500451 318.333118 
L 152.625897 318.64313 
L 153.002236 318.277506 
L 153.127682 319.002303 
L 153.253128 318.343239 
L 153.378574 318.312885 
L 153.50402 318.976525 
L 154.005805 318.206855 
L 154.256697 318.909591 
L 154.382143 318.551364 
L 154.758481 318.796609 
L 155.009374 317.825792 
L 155.13482 317.621931 
L 155.260266 318.776106 
L 155.636604 318.060958 
L 155.76205 318.531005 
L 155.887496 318.500488 
L 156.012943 318.627819 
L 156.138389 318.52083 
L 156.640173 319.51143 
L 156.891065 317.9657 
L 157.39285 316.988165 
L 157.518296 317.271693 
L 157.643742 316.978429 
L 157.894634 316.236796 
L 158.270973 316.008819 
L 158.521865 316.856959 
L 158.772757 316.499862 
L 159.149095 316.189178 
L 159.399988 316.52868 
L 159.65088 316.132122 
L 160.027218 315.843518 
L 160.152664 316.132122 
L 160.278111 315.909545 
L 160.529003 315.999352 
L 161.030787 315.942605 
L 161.156233 316.346564 
L 161.281679 316.117872 
L 161.783464 316.866661 
L 161.90891 316.232031 
L 162.034356 316.818177 
L 162.159802 316.533485 
L 162.285248 317.81582 
L 162.661587 317.051515 
L 162.912479 316.165393 
L 163.037925 316.208217 
L 163.163371 315.093048 
L 163.539709 314.680449 
L 163.790602 314.254652 
L 164.041494 314.376425 
L 164.417832 314.712366 
L 164.543278 314.471432 
L 164.794171 315.394095 
L 164.919617 314.639456 
L 165.295955 314.780858 
L 165.421401 314.453315 
L 165.546847 314.932013 
L 165.672293 314.909069 
L 165.79774 315.4453 
L 166.174078 315.148431 
L 166.299524 315.496579 
L 166.42497 314.927423 
L 166.675862 315.970967 
L 167.177647 315.375494 
L 167.428539 314.858644 
L 167.930324 314.785429 
L 168.05577 314.471432 
L 168.181216 314.593964 
L 168.306662 314.968756 
L 168.808446 315.31975 
L 168.933892 315.245563 
L 169.310231 317.424182 
L 169.812015 316.265398 
L 169.937461 317.910669 
L 170.062907 317.905671 
L 170.188354 318.368554 
L 170.690138 318.131315 
L 170.815584 318.837651 
L 171.066476 317.612017 
L 171.442815 317.910669 
L 171.568261 317.860716 
L 171.819153 318.247209 
L 171.944599 317.041761 
L 172.320938 316.557522 
L 172.446384 316.939513 
L 172.57183 319.172917 
L 172.697276 318.894163 
L 172.822722 320.00154 
L 173.19906 321.238511 
L 173.324506 320.910156 
L 173.449953 320.959213 
L 173.575399 321.321084 
L 173.700845 320.520161 
L 174.328075 318.873603 
L 174.453521 319.017779 
L 174.578968 318.607415 
L 174.955306 318.126285 
L 175.080752 318.925026 
L 175.331644 318.515743 
L 175.45709 318.312885 
L 175.833429 319.115953 
L 175.958875 318.343239 
L 176.084321 318.317942 
L 176.335213 317.666579 
L 176.962444 317.438974 
L 177.08789 317.51303 
L 177.213336 316.818177 
L 177.71512 316.346564 
L 178.091459 315.482586 
L 178.593243 315.333678 
L 178.844136 315.557279 
L 179.34592 315.454617 
L 179.596812 314.977948 
L 179.722258 315.102272 
L 179.847704 314.758012 
L 180.474935 314.945787 
L 180.725827 315.435984 
L 181.102166 315.380144 
L 181.60395 314.389982 
L 181.980288 314.36739 
L 182.105735 314.799145 
L 182.231181 314.83117 
L 182.356627 315.065389 
L 182.482073 314.964161 
L 182.983857 314.840326 
L 183.109303 314.557614 
L 183.23475 315.26873 
L 183.360196 314.977948 
L 183.736534 314.922834 
L 183.86198 315.120729 
L 183.987426 315.065389 
L 184.112872 315.384794 
L 184.238318 315.199276 
L 184.614657 315.060782 
L 184.740103 314.534914 
L 184.865549 315.389444 
L 184.990995 315.264095 
L 185.116441 315.4453 
L 185.49278 314.530375 
L 185.618226 314.954973 
L 185.869118 313.256047 
L 185.994564 313.273553 
L 186.370902 313.691921 
L 186.621795 313.221061 
L 186.872687 313.042306 
L 187.499917 313.077114 
L 187.625364 312.864461 
L 188.127148 313.878493 
L 188.252594 313.396342 
L 188.503486 313.780641 
L 189.005271 314.304212 
L 189.130717 314.95038 
L 189.507055 313.891858 
L 189.883394 313.816192 
L 190.134286 313.923062 
L 190.259732 313.825085 
L 190.385178 314.503158 
L 190.761516 314.840326 
L 190.886963 314.066066 
L 191.012409 314.187183 
L 191.263301 313.369994 
L 191.765085 313.449098 
L 192.015978 312.985818 
L 192.141424 312.18745 
L 192.643208 311.933754 
L 192.768654 312.481495 
L 192.8941 312.27668 
L 193.019547 312.472937 
L 193.395885 312.366139 
L 193.772223 313.129389 
L 193.897669 312.912087 
L 194.399454 312.734902 
L 194.5249 312.864461 
L 194.650346 312.217168 
L 195.15213 312.200183 
L 195.528469 312.786668 
L 195.653915 312.451551 
L 196.155699 312.614412 
L 196.281145 312.769404 
L 196.532038 312.451551 
L 197.033822 312.554322 
L 197.159268 314.584873 
L 197.284714 314.79 
L 197.410161 314.160232 
L 198.037391 314.548532 
L 198.162837 314.31774 
L 198.288283 314.575784 
L 198.664622 314.448788 
L 198.790068 314.730617 
L 199.04096 314.785429 
L 199.166406 314.548532 
L 199.668191 314.982544 
L 199.793637 315.245563 
L 200.044529 316.988165 
L 200.420867 316.634551 
L 200.546313 317.325726 
L 200.797206 317.212843 
L 200.922652 317.389691 
L 201.424436 317.183455 
L 201.549882 316.852109 
L 201.675328 316.837563 
L 201.800775 316.70692 
L 202.177113 317.458707 
L 202.428005 316.993034 
L 202.678897 316.7746 
L 203.055236 316.784279 
L 203.180682 316.538291 
L 203.55702 317.217743 
L 203.933359 317.379842 
L 204.058805 317.81582 
L 204.184251 317.207943 
L 204.309697 317.315895 
L 204.435143 317.193248 
L 204.811481 317.870701 
L 204.936927 317.74112 
L 205.062374 318.065979 
L 205.18782 317.915669 
L 205.313266 317.537751 
L 205.689604 317.374919 
L 205.940496 319.19884 
L 206.191389 319.375631 
L 206.567727 319.574285 
L 206.693173 320.113168 
L 206.818619 319.621501 
L 206.944065 319.605755 
L 207.069511 319.784622 
L 207.44585 319.271528 
L 207.571296 319.490504 
L 207.947634 317.995754 
L 208.323973 317.855725 
L 208.449419 318.338178 
L 208.574865 319.380844 
L 208.825757 318.206855 
L 209.202095 318.156477 
L 209.327541 317.07591 
L 209.70388 316.7746 
L 210.33111 317.587244 
L 210.456556 317.365075 
L 210.582003 316.726243 
L 210.958341 316.557522 
L 211.083787 316.653834 
L 211.209233 314.803718 
L 211.460125 315.594685 
L 211.96191 315.613403 
L 212.087356 316.127371 
L 212.212802 316.075159 
L 212.338248 316.413549 
L 212.714587 316.432711 
L 212.840033 315.791728 
L 212.965479 315.829386 
L 213.216371 316.731076 
L 213.718155 316.764923 
L 213.969048 317.198146 
L 214.094494 317.306068 
L 214.596278 317.389691 
L 214.721724 316.968696 
L 214.972617 317.389691 
L 215.599847 317.237351 
L 215.850739 316.803645 
L 216.352524 316.692434 
L 216.47797 317.178559 
L 217.105201 316.596015 
L 217.230647 315.918987 
L 217.356093 316.36569 
L 217.606985 316.274937 
L 217.983323 316.122622 
L 218.359662 316.90064 
L 218.485108 316.255861 
L 219.112338 316.658657 
L 219.363231 315.933156 
L 219.739569 315.966238 
L 219.990461 314.571241 
L 220.115907 314.840326 
L 220.241353 314.648561 
L 220.743138 314.417111 
L 220.868584 314.621252 
L 220.99403 315.079216 
L 221.119476 314.941195 
L 221.495815 314.794572 
L 221.621261 315.744712 
L 221.746707 312.56719 
L 221.872153 313.020569 
L 221.997599 312.468658 
L 222.499384 312.829865 
L 222.62483 312.618708 
L 222.750276 312.687517 
L 222.875722 312.511464 
L 223.25206 312.511464 
L 223.377506 312.357609 
L 223.502952 311.795003 
L 223.628399 311.815991 
L 223.753845 311.686071 
L 224.255629 312.366139 
L 224.506521 312.140801 
L 225.008306 312.520031 
L 225.133752 312.161997 
L 225.384644 312.204428 
L 226.137321 312.494335 
L 226.388213 312.272426 
L 226.889998 312.157757 
L 227.14089 312.734902 
L 227.76812 312.27668 
L 227.893566 312.336294 
L 228.144459 311.711179 
L 228.646243 311.278505 
L 228.897135 310.965674 
L 229.022581 311.125856 
L 229.39892 311.324016 
L 229.649812 310.859293 
L 229.775258 310.912443 
L 229.900704 310.667806 
L 230.527935 310.643437 
L 230.653381 311.200034 
L 231.280612 310.928813 
L 231.406058 311.594162 
L 231.65695 311.245443 
L 232.033288 311.46922 
L 232.28418 313.260423 
L 232.409627 312.618708 
L 233.162303 313.736253 
L 233.287749 313.007534 
L 233.789534 313.4403 
L 234.165872 314.241148 
L 234.291318 313.789525 
L 234.667657 313.621107 
L 234.918549 312.951102 
L 235.043995 313.024916 
L 235.169441 313.282309 
L 235.545779 312.726282 
L 235.671226 312.994503 
L 236.047564 314.954973 
L 236.423902 314.666779 
L 236.549348 314.835748 
L 236.674795 314.521301 
L 236.800241 314.712366 
L 236.925687 314.290688 
L 237.302025 313.963223 
L 237.678363 314.716928 
L 237.80381 314.462372 
L 238.180148 314.566698 
L 238.43104 314.88614 
L 238.556486 314.748878 
L 238.681932 314.959567 
L 239.058271 314.79 
L 239.183717 315.005537 
L 239.309163 314.607606 
L 239.434609 316.605645 
L 239.560055 315.99462 
L 239.936393 315.772914 
L 240.187286 314.996338 
L 240.312732 314.530375 
L 240.438178 314.767149 
L 241.065409 314.142276 
L 241.190855 314.119844 
L 241.316301 313.914144 
L 241.692639 313.936444 
L 241.818085 314.435208 
L 241.943531 313.927522 
L 242.068977 314.525838 
L 242.570762 314.205162 
L 242.696208 315.777616 
L 242.821654 315.287274 
L 243.072546 316.089391 
L 243.448885 315.989888 
L 243.574331 315.069998 
L 243.825223 316.581575 
L 243.950669 316.227267 
L 244.327008 316.013553 
L 244.452454 316.179662 
L 244.5779 315.96151 
L 244.703346 315.970967 
L 244.828792 315.613403 
L 245.330576 315.134577 
L 245.581469 314.22315 
L 245.706915 313.829533 
L 246.083253 314.304212 
L 246.208699 313.785083 
L 246.334145 314.142276 
L 246.459591 313.874039 
L 246.585038 314.083983 
L 247.086822 314.308721 
L 247.337714 314.061588 
L 247.46316 313.97662 
L 247.839499 313.484313 
L 248.090391 313.532792 
L 248.341283 313.221061 
L 248.968514 312.5629 
L 249.09396 312.221415 
L 249.219406 312.39174 
L 249.595744 312.443 
L 249.72119 312.717663 
L 249.972083 312.515747 
L 250.097529 312.191694 
L 250.724759 312.868788 
L 250.850205 312.644495 
L 250.975652 313.177378 
L 251.35199 313.016224 
L 251.477436 312.691822 
L 251.602882 312.765089 
L 251.728328 312.532886 
L 251.853774 312.929422 
L 252.230113 313.453498 
L 252.355559 313.21669 
L 252.481005 313.229804 
L 252.606451 314.689565 
L 252.731897 314.115359 
L 253.108236 314.344813 
L 253.484574 314.043683 
L 253.61002 314.308721 
L 253.986358 314.290688 
L 254.111804 313.532792 
L 254.237251 313.914144 
L 254.488143 313.098886 
L 254.864481 312.5629 
L 255.115373 313.387557 
L 255.366266 313.528382 
L 255.742604 313.269176 
L 255.993496 311.782417 
L 256.118942 311.753066 
L 256.244388 311.394468 
L 256.620727 309.848625 
L 256.746173 310.542079 
L 256.871619 312.161997 
L 257.122511 310.830707 
L 257.49885 310.855208 
L 257.624296 311.080602 
L 257.749742 310.830707 
L 257.875188 310.838872 
L 258.000634 310.388575 
L 258.376972 310.087573 
L 258.753311 308.796978 
L 258.878757 308.620269 
L 259.505987 308.269511 
L 259.75688 307.956058 
L 260.258664 308.455889 
L 260.509556 308.031332 
L 260.635002 307.285792 
L 261.011341 307.667758 
L 261.136787 307.355939 
L 261.262233 307.496655 
L 261.387679 306.918904 
L 261.513125 305.098516 
L 262.01491 305.060428 
L 262.140356 304.815582 
L 262.265802 304.925723 
L 262.391248 303.709544 
L 262.893033 302.997692 
L 263.143925 303.236653 
L 263.269371 302.903214 
L 263.645709 303.085885 
L 263.896601 303.782868 
L 264.022048 304.074347 
L 264.147494 304.877493 
L 264.523832 306.253733 
L 264.649278 305.320945 
L 264.774724 305.425698 
L 264.90017 307.186352 
L 265.025616 306.400858 
L 265.401955 306.182188 
L 265.527401 306.802309 
L 265.652847 306.487268 
L 265.903739 306.711488 
L 266.53097 307.065197 
L 266.781862 306.285975 
L 267.1582 306.278808 
L 267.283647 306.90066 
L 267.534539 309.88039 
L 267.659985 310.937001 
L 268.036323 310.533983 
L 268.161769 310.215684 
L 268.287215 310.623142 
L 268.412662 310.602858 
L 268.538108 310.15157 
L 268.914446 309.991798 
L 269.039892 310.61097 
L 269.165338 310.513751 
L 269.290784 310.855208 
L 269.416231 310.263847 
L 269.918015 310.777681 
L 270.043461 310.163582 
L 270.294353 311.585818 
L 270.670692 309.352089 
L 270.796138 310.684062 
L 270.921584 310.716597 
L 271.04703 309.963912 
L 271.548814 311.245443 
L 271.674261 310.891991 
L 271.925153 309.567963 
L 272.050599 309.769337 
L 272.426937 310.97797 
L 272.552383 310.207663 
L 272.677829 310.404702 
L 272.803276 310.247785 
L 272.928722 310.574481 
L 273.430506 310.602858 
L 273.555952 310.501618 
L 273.806845 311.648442 
L 274.183183 311.344723 
L 274.434075 312.554322 
L 274.684967 311.490012 
L 275.061306 312.149278 
L 275.312198 311.506655 
L 275.437644 311.980128 
L 275.56309 311.394468 
L 275.939428 311.552465 
L 276.315767 311.047727 
L 276.441213 310.083577 
L 276.817551 310.432941 
L 277.068444 310.867465 
L 277.19389 310.883814 
L 277.319336 310.529936 
L 277.695674 310.10756 
L 277.82112 310.76953 
L 278.072012 306.646244 
L 278.197459 306.573892 
L 278.699243 306.904308 
L 278.824689 306.311074 
L 278.950135 307.186352 
L 279.45192 306.250152 
L 279.577366 306.282391 
L 279.953704 305.320945 
L 280.455489 305.223458 
L 280.706381 305.692487 
L 280.831827 305.68544 
L 281.459058 305.947127 
L 281.584504 305.727743 
L 281.70995 306.025305 
L 282.086288 306.516119 
L 282.211734 306.415244 
L 282.462626 306.824141 
L 282.588073 306.981004 
L 282.964411 307.237878 
L 283.340749 306.99929 
L 283.466195 306.77322 
L 283.842534 306.476455 
L 283.96798 305.745384 
L 284.218872 305.996856 
L 284.344318 305.544799 
L 284.720657 305.527259 
L 285.096995 304.915382 
L 285.222441 305.167873 
L 285.598779 304.994737 
L 285.975118 305.918742 
L 286.100564 306.103659 
L 286.602348 305.629116 
L 286.85324 306.303901 
L 286.978687 306.235833 
L 287.355025 306.192911 
L 287.731363 305.418705 
L 287.856809 305.993302 
L 288.233148 306.429637 
L 288.358594 305.961328 
L 288.48404 306.523335 
L 288.734932 306.110791 
L 289.111271 305.759503 
L 289.236717 305.488701 
L 289.487609 302.984646 
L 289.613055 303.098969 
L 289.989393 303.043394 
L 290.240286 302.489234 
L 290.365732 302.747396 
L 290.491178 302.466735 
L 290.992962 302.089635 
L 291.118408 302.576151 
L 291.871085 300.764198 
L 291.996531 300.715268 
L 292.121977 301.20458 
L 292.247423 300.853059 
L 292.623762 300.89911 
L 292.874654 300.133391 
L 293.125546 299.959504 
L 293.501885 300.511114 
L 293.627331 300.453437 
L 293.878223 300.666406 
L 294.003669 300.568888 
L 294.380007 300.797877 
L 294.756346 301.820495 
L 294.881792 302.15008 
L 295.25813 302.099172 
L 295.383576 302.332046 
L 295.634469 303.950087 
L 295.759915 303.573304 
L 296.136253 303.802892 
L 296.261699 303.368287 
L 296.512591 305.499212 
L 296.638037 305.54129 
L 297.139822 306.060899 
L 297.265268 306.631761 
L 297.390714 306.121491 
L 297.51616 307.641667 
L 297.892499 307.986149 
L 298.268837 306.303901 
L 298.394283 306.526944 
L 298.770621 306.436836 
L 298.896068 306.278808 
L 299.021514 305.188707 
L 299.14696 305.583419 
L 299.272406 306.526944 
L 299.899636 307.223149 
L 300.150529 307.839703 
L 300.526867 308.559014 
L 300.652313 310.594748 
L 300.777759 309.717896 
L 301.028651 309.940028 
L 301.40499 309.348176 
L 301.655882 307.675217 
L 301.781328 307.858444 
L 301.906774 307.422523 
L 302.283113 307.452157 
L 302.408559 308.951367 
L 302.659451 308.712354 
L 302.784897 309.312982 
L 303.286682 309.281728 
L 303.537574 307.452157 
L 304.039358 308.904979 
L 304.164804 308.516964 
L 304.541143 310.007742 
L 304.917481 310.684062 
L 305.293819 308.364478 
L 305.419265 308.360674 
L 305.795604 308.174801 
L 306.046496 308.208867 
L 306.171942 308.627934 
L 306.297388 307.608149 
L 306.673727 306.951767 
L 306.799173 306.235833 
L 307.050065 306.831421 
L 307.175511 306.354141 
L 307.551849 306.494478 
L 307.928188 308.292279 
L 308.053634 307.197387 
L 308.555418 308.47878 
L 308.806311 308.387308 
L 308.931757 307.626766 
L 309.308095 307.877195 
L 309.433541 307.77232 
L 309.684433 306.765952 
L 309.80988 306.42244 
L 310.311664 306.068022 
L 310.562556 306.505297 
L 310.688002 306.400858 
L 311.064341 306.505297 
L 311.315233 304.891266 
L 311.440679 304.874051 
L 311.566125 303.946735 
L 312.06791 303.672939 
L 312.193356 303.473952 
L 312.318802 303.520281 
L 312.444248 303.272803 
L 312.946032 303.682919 
L 313.071479 302.831712 
L 313.322371 304.04072 
L 313.949601 304.589507 
L 314.200494 305.632633 
L 314.827724 304.991283 
L 315.078616 305.348848 
L 315.454955 304.74692 
L 315.580401 304.212558 
L 315.705847 304.165303 
L 315.831293 303.246508 
L 315.956739 303.709544 
L 316.458524 303.374881 
L 316.834862 302.236157 
L 317.2112 302.408948 
L 317.336646 302.095993 
L 317.712985 300.52023 
L 318.089323 300.274936 
L 318.214769 301.083924 
L 318.340215 300.892966 
L 318.591108 300.133391 
L 319.092892 299.902729 
L 319.218338 299.875868 
L 319.343784 300.89911 
L 319.971015 300.960606 
L 320.096461 300.828523 
L 320.221907 300.942146 
L 320.347353 301.288355 
L 320.723692 301.369218 
L 320.849138 301.083924 
L 320.974584 301.845738 
L 321.225476 301.325653 
L 321.601814 301.641167 
L 321.72726 302.99443 
L 321.978153 303.266227 
L 322.103599 303.151356 
L 322.479937 303.80623 
L 322.981722 302.38009 
L 323.35806 302.322445 
L 323.483506 301.719706 
L 323.734398 307.26367 
L 323.859844 307.054204 
L 324.361629 308.360674 
L 324.612521 307.604427 
L 324.737967 307.828464 
L 325.114306 307.619318 
L 325.239752 306.523335 
L 325.490644 306.736894 
L 325.61609 306.548605 
L 326.243321 306.704233 
L 326.494213 305.527259 
L 326.870551 305.369791 
L 327.121443 305.84434 
L 327.246889 304.898155 
L 327.87412 306.025305 
L 328.250458 305.081198 
L 329.128581 303.95344 
L 329.630366 303.739521 
L 329.755812 304.337756 
L 330.006704 302.903214 
L 330.383042 302.718258 
L 330.884827 304.534921 
L 331.512057 304.4328 
L 331.637504 304.688663 
L 331.76295 304.185547 
L 332.264734 304.104639 
L 332.515626 305.576394 
L 332.641072 305.667829 
L 333.017411 306.447637 
L 333.393749 305.23389 
L 333.519195 305.908103 
L 333.895534 306.795034 
L 334.02098 306.613667 
L 334.146426 307.712532 
L 334.271872 307.791024 
L 334.773656 307.171644 
L 334.899103 306.150041 
L 335.024549 302.70855 
L 335.149995 302.656822 
L 335.275441 303.233368 
L 335.651779 303.230084 
L 335.777225 303.34851 
L 335.902671 302.650362 
L 336.028118 301.2542 
L 336.153564 301.375446 
L 336.655348 301.694555 
L 336.780794 301.462755 
L 337.031686 300.602379 
L 337.408025 300.578018 
L 337.533471 300.42918 
L 337.658917 300.975997 
L 337.784363 300.856127 
L 337.909809 301.016045 
L 338.411594 301.210778 
L 338.53704 301.251097 
L 338.787932 301.763766 
L 339.289717 302.06104 
L 339.415163 301.829959 
L 339.540609 301.839425 
L 339.666055 302.21382 
L 340.042393 302.080101 
L 340.167839 302.220201 
L 340.293285 303.246508 
L 340.418732 303.239938 
L 340.544178 302.896708 
L 340.920516 302.634215 
L 341.171408 303.26294 
L 341.4223 301.811034 
L 341.798639 301.855208 
L 341.924085 301.306999 
L 342.174977 301.251097 
L 342.300423 301.176699 
L 342.676762 301.45339 
L 342.802208 301.291462 
L 343.0531 301.792119 
L 343.178546 301.569066 
L 343.554884 301.550282 
L 343.680331 302.21701 
L 343.931223 301.559673 
L 344.056669 301.142653 
L 344.809346 301.251097 
L 344.934792 300.819326 
L 345.436576 300.72138 
L 345.562022 301.173603 
L 345.812915 300.35651 
L 346.189253 300.508076 
L 346.314699 301.003718 
L 346.440145 299.664682 
L 346.565591 299.905715 
L 346.691037 299.555132 
L 347.067376 299.911687 
L 347.318268 299.478355 
L 348.070945 300.651151 
L 348.321837 300.338366 
L 348.823621 299.652822 
L 348.949067 300.067332 
L 349.19996 299.555132 
L 349.325406 299.466559 
L 349.701744 299.003742 
L 349.952636 299.228526 
L 350.078082 298.965934 
L 350.203529 299.105737 
L 350.956205 299.105737 
L 351.081651 298.960121 
L 351.583436 299.096983 
L 351.834328 298.89334 
L 351.959774 299.143697 
L 352.336112 298.925263 
L 352.461559 299.134934 
L 352.712451 298.435142 
L 352.837897 298.737051 
L 353.214235 298.722615 
L 353.465128 299.167078 
L 353.590574 299.240243 
L 353.71602 298.346504 
L 354.217804 298.757271 
L 354.468696 298.246698 
L 354.594143 298.960121 
L 354.970481 299.096983 
L 355.095927 298.693761 
L 355.346819 299.108656 
L 355.472265 300.139402 
L 355.848604 299.857971 
L 356.099496 298.412246 
L 356.350388 298.598712 
L 356.726726 298.67646 
L 356.977619 297.592236 
L 357.103065 297.664974 
L 357.228511 297.483413 
L 357.730295 298.098939 
L 357.855742 298.039443 
L 357.981188 297.164482 
L 358.106634 297.514072 
L 358.482972 298.189793 
L 358.984757 303.1743 
L 359.361095 301.738582 
L 359.486541 302.527837 
L 359.611987 301.037629 
L 359.862879 303.58989 
L 360.239218 307.478108 
L 360.364664 304.020559 
L 360.49011 305.696011 
L 360.615556 309.110328 
L 360.741002 306.646244 
L 361.117341 316.591201 
L 361.242787 316.018288 
L 361.368233 320.439457 
L 361.493679 317.925669 
L 361.619125 319.726653 
L 361.995463 318.976525 
L 362.246356 311.606681 
L 362.371802 309.820853 
L 362.497248 310.27188 
L 362.873586 309.583715 
L 362.999032 310.647497 
L 363.124478 313.011878 
L 363.249924 311.967474 
L 363.375371 312.246911 
L 364.128047 307.076194 
L 364.629832 307.116545 
L 364.755278 305.724215 
L 365.00617 308.144548 
L 365.131616 306.426038 
L 365.507955 307.142247 
L 365.633401 308.076575 
L 365.758847 307.208426 
L 365.884293 307.226831 
L 366.009739 305.837263 
L 366.511523 304.188922 
L 366.63697 303.30899 
L 366.887862 303.873067 
L 367.2642 302.919485 
L 367.389646 302.019776 
L 367.515092 302.18831 
L 367.765985 300.7489 
L 368.142323 301.006799 
L 368.393215 301.931066 
L 368.518661 301.943725 
L 368.644107 300.886823 
L 369.145892 299.950533 
L 369.271338 299.914674 
L 369.52223 298.377931 
L 370.024015 297.997009 
L 370.149461 296.769186 
L 370.274907 296.739173 
L 370.400353 296.136218 
L 370.776691 296.41342 
L 371.027584 295.475034 
L 371.15303 296.586777 
L 371.278476 295.970412 
L 371.654814 296.013125 
L 371.78026 296.345936 
L 371.905706 296.203298 
L 372.031153 297.898194 
L 372.156599 297.308333 
L 372.532937 296.845699 
L 372.783829 294.743602 
L 373.034721 295.21559 
L 373.41106 294.983986 
L 373.536506 295.098295 
L 373.661952 295.701983 
L 373.787398 295.757625 
L 373.912844 296.389111 
L 374.540075 294.748755 
L 375.167305 294.715279 
L 375.292752 294.906262 
L 375.418198 294.717853 
L 375.543644 294.753908 
L 375.66909 294.288074 
L 376.045428 294.512537 
L 376.29632 293.337499 
L 376.547213 292.561818 
L 376.923551 292.632068 
L 377.048997 292.41451 
L 377.174443 291.571687 
L 377.299889 292.054897 
L 377.801674 291.435515 
L 377.92712 291.767481 
L 378.178012 291.416774 
L 378.303458 291.484757 
L 378.679797 291.167078 
L 378.805243 291.306875 
L 379.056135 290.953804 
L 379.181581 290.588251 
L 379.683366 290.339844 
L 379.808812 289.718634 
L 380.059704 290.233275 
L 380.436042 289.323778 
L 380.561488 289.434243 
L 380.812381 289.2863 
L 380.937827 288.601181 
L 381.439611 287.705289 
L 381.565057 286.776381 
L 381.815949 287.79174 
L 382.192288 287.965287 
L 382.44318 286.75588 
L 382.694072 289.772216 
L 383.195857 290.369378 
L 383.321303 289.077597 
L 383.446749 289.341429 
L 383.572195 288.564469 
L 383.948533 287.859363 
L 384.07398 287.056397 
L 384.324872 288.158896 
L 384.450318 288.952972 
L 384.826656 289.062269 
L 384.952102 288.637931 
L 385.077548 289.27969 
L 385.202995 289.299523 
L 385.704779 288.413707 
L 385.830225 288.4847 
L 386.081117 287.44303 
L 386.206564 287.585455 
L 386.582902 287.157838 
L 386.708348 287.901694 
L 387.084686 286.198778 
L 387.461025 286.299779 
L 387.586471 285.777735 
L 387.711917 286.122212 
L 387.962809 285.308573 
L 388.339147 285.817617 
L 388.464594 285.428727 
L 388.715486 286.600463 
L 388.840932 286.419336 
L 389.21727 287.242943 
L 389.719055 289.392225 
L 390.095393 288.924611 
L 390.346285 287.224244 
L 390.471731 287.010948 
L 390.597178 287.161984 
L 390.973516 290.435351 
L 391.224408 289.414333 
L 391.349854 289.418757 
L 391.851639 288.56231 
L 391.977085 289.005392 
L 392.102531 291.9977 
L 392.353423 291.246228 
L 392.855208 290.09319 
L 393.231546 290.158643 
L 393.607884 289.899803 
L 393.858777 290.810806 
L 393.984223 290.773998 
L 394.109669 291.229917 
L 394.486007 290.7694 
L 394.611453 290.94225 
L 394.736899 288.946425 
L 394.862345 288.926791 
L 394.987792 289.454164 
L 395.36413 288.955154 
L 395.489576 288.255035 
L 395.865914 288.282858 
L 396.367699 287.982265 
L 396.493145 288.44811 
L 396.618591 288.375045 
L 397.120376 288.532108 
L 397.245822 288.857073 
L 398.123944 288.774462 
L 398.374837 288.173834 
L 398.500283 287.88899 
L 398.876621 287.621152 
L 399.127513 286.89141 
L 399.378406 286.582104 
L 399.88019 286.700587 
L 400.005636 286.368626 
L 400.256528 286.366599 
L 400.632867 286.02373 
L 400.758313 286.104103 
L 400.883759 287.33034 
L 401.009205 286.378762 
L 401.134651 287.509981 
L 401.51099 288.246479 
L 402.012774 285.837574 
L 402.389112 285.020708 
L 402.765451 285.698109 
L 402.890897 285.414918 
L 403.392681 286.031759 
L 403.518127 285.420836 
L 403.76902 285.340049 
L 404.145358 286.364573 
L 404.521696 289.299523 
L 404.647142 289.029444 
L 405.148927 288.314989 
L 405.399819 290.36256 
L 405.525265 289.2863 
L 405.901604 288.342859 
L 406.277942 286.702633 
L 406.905172 285.777735 
L 407.030619 285.955558 
L 407.156065 285.869531 
L 407.281511 284.958357 
L 407.657849 284.494234 
L 407.783295 284.78165 
L 407.908741 284.727459 
L 408.159634 282.675148 
L 408.535972 283.224706 
L 408.786864 282.936902 
L 408.91231 282.728073 
L 409.539541 282.205998 
L 409.664987 282.30149 
L 409.790433 282.204199 
L 409.915879 281.438986 
L 410.292218 281.064315 
L 410.417664 281.226646 
L 410.668556 280.38825 
L 410.794002 279.765264 
L 411.295786 280.697065 
L 411.421233 280.501165 
L 411.672125 281.015588 
L 412.173909 281.344063 
L 412.299355 281.872923 
L 412.424802 281.451309 
L 412.550248 281.839077 
L 413.052032 281.125318 
L 413.177478 281.177692 
L 413.42837 279.740105 
L 413.804709 279.255565 
L 414.055601 281.965721 
L 414.181047 281.118341 
L 414.933724 282.837827 
L 415.05917 282.348431 
L 415.560954 282.848822 
L 415.811847 282.314122 
L 415.937293 282.283453 
L 416.062739 282.092826 
L 416.940862 282.986545 
L 417.3172 282.924043 
L 417.442646 282.713465 
L 417.568092 282.85982 
L 417.693538 283.195078 
L 417.818984 282.821342 
L 418.195323 283.032573 
L 418.446215 283.675915 
L 419.073446 283.176574 
L 419.198892 282.655094 
L 419.324338 282.760963 
L 419.57523 282.484192 
L 419.951568 282.384583 
L 420.077015 282.205998 
L 420.202461 282.247406 
L 420.327907 281.915722 
L 420.955137 282.107177 
L 421.080583 281.905018 
L 421.20603 282.45881 
L 421.331476 282.003268 
L 421.707814 281.960361 
L 421.958706 282.469686 
L 422.209598 281.858668 
L 422.585937 282.440691 
L 422.962275 281.746614 
L 423.087721 281.031243 
L 423.46406 281.574786 
L 423.714952 282.533196 
L 423.840398 282.310512 
L 423.965844 282.478752 
L 424.342182 282.793884 
L 424.467629 282.251009 
L 424.593075 282.988385 
L 424.718521 282.845157 
L 425.220305 283.34161 
L 425.345751 283.019679 
L 425.471197 282.148468 
L 425.72209 282.876323 
L 426.098428 282.335787 
L 426.223874 284.423227 
L 426.474766 280.728097 
L 426.600213 279.771977 
L 426.976551 280.134669 
L 427.101997 280.590387 
L 427.227443 280.114326 
L 427.478335 280.161811 
L 427.854674 280.316584 
L 428.105566 280.583515 
L 428.231012 280.119411 
L 428.858243 280.289322 
L 429.109135 280.655731 
L 429.234581 280.429268 
L 429.610919 280.136365 
L 429.736365 280.45664 
L 430.112704 279.634633 
L 430.489042 280.268889 
L 430.614488 280.099077 
L 430.739934 279.658044 
L 430.990827 279.829083 
L 431.367165 279.36819 
L 431.492611 280.241663 
L 431.618057 279.958757 
L 431.743503 280.681559 
L 431.868949 280.53717 
L 432.370734 280.43953 
L 432.49618 280.485746 
L 432.621626 279.82404 
L 432.747072 280.117716 
L 433.248857 279.506154 
L 433.499749 278.415789 
L 433.625195 277.981022 
L 434.126979 277.388192 
L 434.503318 276.481478 
L 434.879656 276.018702 
L 435.005102 276.131932 
L 435.381441 275.718535 
L 435.757779 276.029254 
L 436.008671 275.646878 
L 436.134117 275.131707 
L 436.259563 275.462439 
L 436.761348 275.705088 
L 437.01224 275.943418 
L 437.137686 275.346918 
L 437.514025 275.554537 
L 437.639471 274.117897 
L 437.890363 273.748707 
L 438.015809 273.447734 
L 438.392147 273.053659 
L 438.517593 273.114637 
L 438.64304 273.01491 
L 438.893932 273.704947 
L 439.27027 273.579618 
L 439.395716 274.14503 
L 439.521162 274.038049 
L 439.646608 273.326114 
L 439.772055 273.564159 
L 440.148393 273.216042 
L 440.273839 272.427887 
L 440.399285 272.451016 
L 440.524731 272.259641 
L 440.650177 271.825154 
L 441.026516 272.383032 
L 441.151962 273.038431 
L 441.277408 272.342306 
L 441.5283 273.648564 
L 441.904639 273.998193 
L 442.280977 273.368004 
L 442.908207 272.823181 
L 443.033654 272.338236 
L 443.1591 272.498683 
L 443.284546 272.215002 
L 443.660884 272.61882 
L 443.78633 272.035669 
L 443.911776 272.722909 
L 444.037222 272.308403 
L 444.162669 273.228564 
L 444.539007 273.704947 
L 444.789899 273.280092 
L 444.915345 273.28288 
L 445.040791 274.315448 
L 445.542576 275.03925 
L 445.668022 275.587275 
L 445.793468 277.228668 
L 445.918914 277.058996 
L 446.295253 275.938906 
L 446.671591 276.917972 
L 446.671591 276.917972 
" clip-path="url(#p8a1efc5a3f)" style="fill: none; stroke: #ff0000; stroke-width: 0.7; stroke-linecap: square"/>
   </g>
   <g id="line2d_17">
    <path d="M 40.853409 338.987189 
L 41.104301 338.922473 
L 41.606086 338.655633 
L 42.358762 338.655633 
L 42.484209 338.193061 
L 42.609655 338.331191 
L 42.735101 337.636893 
L 42.860547 337.854658 
L 43.236885 337.321732 
L 43.487778 337.420476 
L 44.240454 337.420476 
L 44.491346 338.042222 
L 44.616793 337.30111 
L 44.993131 337.697503 
L 45.118577 337.402086 
L 45.244023 337.678966 
L 45.369469 337.604917 
L 45.494915 337.688233 
L 45.9967 337.027196 
L 46.122146 337.246155 
L 46.373038 335.978988 
L 46.749376 334.918474 
L 46.874823 335.366566 
L 47.000269 333.624173 
L 47.125715 334.106026 
L 47.251161 333.855962 
L 47.627499 333.839354 
L 47.878392 332.905543 
L 49.007407 332.888825 
L 49.760083 332.709006 
L 50.638206 332.709006 
L 50.763652 331.944749 
L 51.390883 332.539417 
L 51.516329 332.052381 
L 51.641775 332.069355 
L 52.269006 331.891533 
L 52.394452 331.891533 
L 52.519898 332.129265 
L 53.021682 332.164623 
L 53.272574 330.743522 
L 53.398021 330.956454 
L 53.774359 330.820028 
L 53.899805 329.72263 
L 54.025251 329.763889 
L 54.903374 328.55481 
L 55.02882 328.57092 
L 55.154266 328.202261 
L 55.656051 328.234165 
L 55.781497 327.861127 
L 56.032389 327.853234 
L 56.408727 327.531112 
L 56.534173 327.204183 
L 56.910512 327.204183 
L 57.28685 327.627924 
L 57.663188 326.364056 
L 57.788635 326.402867 
L 58.164973 326.032043 
L 58.415865 326.942918 
L 58.541311 325.505785 
L 58.666757 325.871037 
L 59.54488 325.783493 
L 59.921219 326.014766 
L 60.046665 325.688239 
L 60.297557 323.158251 
L 60.423003 323.461873 
L 60.924787 323.461873 
L 61.17568 323.144283 
L 61.301126 323.598871 
L 61.80291 323.598871 
L 61.928356 323.324155 
L 62.179249 323.606533 
L 62.931925 322.275887 
L 63.057371 322.37269 
L 63.559156 322.380148 
L 63.935494 320.826584 
L 64.311833 320.826584 
L 64.437279 320.261984 
L 64.562725 320.627567 
L 64.688171 320.371258 
L 64.813617 320.458924 
L 65.189955 320.576155 
L 65.440848 319.993894 
L 66.068078 319.993894 
L 66.193524 320.537838 
L 66.31897 320.48531 
L 66.569863 318.873438 
L 66.946201 318.816203 
L 67.071647 319.12495 
L 67.322539 319.12495 
L 67.447985 320.108079 
L 67.94977 319.721652 
L 68.326108 318.023381 
L 68.827893 318.356496 
L 70.082354 318.356496 
L 70.458692 318.085016 
L 70.835031 316.113487 
L 71.713153 316.113487 
L 71.838599 316.331649 
L 73.218507 316.331649 
L 73.343953 316.062171 
L 73.469399 316.249088 
L 73.594845 315.236844 
L 74.222076 315.43434 
L 74.347522 315.745928 
L 74.472968 315.582369 
L 74.849306 315.567538 
L 74.974752 315.925234 
L 75.100198 314.696227 
L 75.225645 314.645644 
L 75.351091 314.950247 
L 76.229214 314.329358 
L 77.609121 314.329358 
L 77.985459 314.063145 
L 81.121612 314.114331 
L 81.372504 312.830786 
L 81.49795 313.215474 
L 81.874289 313.177571 
L 81.999735 312.696018 
L 82.250627 312.785805 
L 82.376073 312.309585 
L 83.003304 312.569214 
L 83.12875 312.479234 
L 83.254196 312.180964 
L 83.630534 312.062365 
L 83.75598 311.409907 
L 83.881427 309.563905 
L 84.132319 309.495081 
L 84.508657 309.495081 
L 84.634103 309.190089 
L 85.763118 309.190089 
L 85.888564 308.918554 
L 86.264903 308.64205 
L 86.390349 308.395754 
L 87.519364 308.388555 
L 87.64481 308.116072 
L 89.024717 308.116072 
L 89.150163 307.515588 
L 89.401056 307.515588 
L 90.028286 307.215073 
L 90.655517 307.304784 
L 90.780963 306.666892 
L 92.788101 306.736676 
L 92.913547 306.205197 
L 93.415331 305.772166 
L 93.540777 305.772166 
L 93.666223 306.19241 
L 93.79167 305.625496 
L 94.293454 305.50246 
L 94.4189 305.587001 
L 94.669792 304.33988 
L 95.297023 303.809327 
L 96.175146 303.846346 
L 96.426038 303.676382 
L 97.680499 303.77625 
L 97.805945 303.454624 
L 98.056838 303.408918 
L 98.182284 303.317685 
L 98.558622 303.272158 
L 99.060406 302.27054 
L 99.562191 301.751244 
L 100.691206 301.751244 
L 100.816652 301.574022 
L 101.318436 301.736441 
L 101.569329 301.626294 
L 101.694775 301.251556 
L 102.071113 301.420058 
L 102.447452 301.112969 
L 102.572898 301.332043 
L 102.949236 301.339369 
L 103.200128 300.772492 
L 103.45102 301.412715 
L 103.827359 301.178547 
L 103.952805 301.376023 
L 104.078251 301.040249 
L 104.203697 301.171255 
L 104.329143 299.882788 
L 104.956374 299.791546 
L 105.08182 299.401205 
L 105.207266 299.686562 
L 105.583604 299.373489 
L 105.834497 298.095059 
L 105.959943 297.868766 
L 106.085389 297.961768 
L 106.712619 297.888765 
L 107.465296 297.828938 
L 107.590742 297.630252 
L 107.841634 296.846617 
L 108.468865 296.846617 
L 108.719757 297.122581 
L 109.096096 297.017195 
L 109.346988 296.540363 
L 110.852341 296.540363 
L 110.977787 296.823137 
L 111.103233 296.823137 
L 111.354126 296.171593 
L 111.730464 296.165073 
L 111.85591 296.439952 
L 111.981356 295.685963 
L 112.106802 295.963565 
L 112.734033 295.963565 
L 112.859479 296.505209 
L 112.984925 296.369009 
L 113.110371 295.629252 
L 113.48671 294.983134 
L 113.612156 294.271852 
L 113.737602 294.690402 
L 113.988494 293.801372 
L 114.364832 293.71307 
L 114.490279 293.343375 
L 114.615725 293.499548 
L 114.741171 293.212727 
L 114.866617 292.639943 
L 115.242955 292.487556 
L 115.493847 292.799133 
L 115.74474 292.341888 
L 116.246524 292.154628 
L 116.622863 291.806942 
L 116.999201 291.622519 
L 117.124647 291.836779 
L 117.250093 289.678064 
L 117.375539 289.582785 
L 117.500985 289.121294 
L 117.877324 288.912026 
L 118.00277 289.292946 
L 118.128216 289.292946 
L 118.379108 288.757867 
L 118.755446 289.126581 
L 119.006339 288.50152 
L 119.257231 288.198521 
L 119.633569 287.542086 
L 119.759015 287.674512 
L 119.884462 288.053365 
L 120.009908 287.716995 
L 120.511692 287.716995 
L 120.637138 288.310438 
L 120.88803 287.028406 
L 121.515261 286.342837 
L 121.891599 286.348013 
L 122.393384 285.808653 
L 123.271507 285.729425 
L 123.522399 283.975135 
L 124.275076 283.975135 
L 124.400522 284.518586 
L 124.525968 283.665408 
L 125.027752 284.429172 
L 125.153198 284.011449 
L 125.278644 282.872736 
L 125.780429 282.428434 
L 125.905875 282.722339 
L 126.156767 282.722339 
L 126.282213 283.823809 
L 126.658552 283.490218 
L 127.03489 281.961193 
L 127.160336 281.751593 
L 127.536675 282.216354 
L 127.662121 281.819697 
L 127.787567 281.980755 
L 127.913013 281.610942 
L 128.038459 281.678772 
L 128.66569 281.451576 
L 128.791136 281.562572 
L 128.916582 280.954034 
L 129.29292 280.873375 
L 129.418366 280.440066 
L 129.794705 280.444782 
L 130.171043 279.976319 
L 130.672827 280.013566 
L 131.049166 280.013566 
L 131.174612 280.582823 
L 131.300058 280.578041 
L 131.425504 279.695056 
L 131.55095 280.060651 
L 131.927289 280.060651 
L 132.052735 280.465958 
L 132.303627 280.447207 
L 132.429073 280.134617 
L 133.18175 280.069652 
L 133.307196 279.683336 
L 133.683534 279.151439 
L 133.934426 279.343494 
L 134.059872 279.132759 
L 134.561657 279.030193 
L 134.687103 279.475262 
L 136.317903 279.475262 
L 136.443349 279.183018 
L 136.694241 279.264218 
L 137.572364 279.264218 
L 137.69781 278.34279 
L 138.074148 278.072015 
L 138.199594 278.476488 
L 138.32504 278.308211 
L 138.575933 277.099927 
L 140.081286 277.099927 
L 140.206732 276.987884 
L 140.332178 276.573405 
L 140.833963 276.553312 
L 140.959409 275.985459 
L 141.210301 276.119119 
L 141.712085 276.034338 
L 141.837532 275.786168 
L 142.590208 275.786168 
L 142.715654 275.461359 
L 143.342885 275.420887 
L 143.844669 274.898979 
L 145.977253 274.898979 
L 146.1027 274.313197 
L 146.228146 274.75161 
L 146.479038 274.065123 
L 146.980822 273.788128 
L 147.357161 273.849493 
L 147.733499 273.849493 
L 147.858945 274.012271 
L 148.109837 273.329511 
L 148.235283 273.598936 
L 148.611622 273.67183 
L 148.98796 272.73587 
L 149.113406 272.483068 
L 149.489745 272.710507 
L 149.866083 272.192091 
L 150.493314 272.247415 
L 150.61876 272.474657 
L 150.869652 270.918994 
L 151.24599 270.740163 
L 151.371436 270.480798 
L 152.124113 270.480798 
L 152.249559 271.162617 
L 152.375005 271.162617 
L 152.625897 271.005414 
L 153.002236 271.005414 
L 153.127682 271.730211 
L 153.253128 271.071147 
L 153.50402 271.040793 
L 154.131251 270.271123 
L 154.256697 270.271123 
L 154.382143 269.912896 
L 154.758481 270.158141 
L 155.009374 269.187323 
L 155.260266 268.983463 
L 155.636604 268.983463 
L 155.76205 269.453509 
L 155.887496 269.422992 
L 156.012943 269.550323 
L 156.138389 269.443334 
L 156.514727 269.443334 
L 156.640173 269.641632 
L 156.891065 268.095902 
L 157.39285 267.118367 
L 157.518296 267.401894 
L 157.643742 267.108631 
L 157.894634 266.366998 
L 158.396419 266.139021 
L 158.521865 266.139021 
L 158.772757 265.781923 
L 159.149095 265.47124 
L 159.274542 265.753129 
L 159.399988 265.753129 
L 159.65088 265.356571 
L 160.152664 265.067967 
L 161.90891 265.138848 
L 162.034356 265.724994 
L 162.159802 265.724994 
L 162.285248 267.007329 
L 162.661587 266.243024 
L 162.912479 265.356902 
L 163.037925 265.399727 
L 163.163371 264.284557 
L 163.539709 263.871958 
L 163.790602 263.446161 
L 164.794171 263.446161 
L 164.919617 262.691521 
L 165.546847 262.832923 
L 165.79774 262.832923 
L 166.299524 262.536055 
L 166.675862 262.536055 
L 167.177647 261.940582 
L 167.303093 261.478745 
L 170.188354 261.405529 
L 170.815584 261.16829 
L 171.066476 259.942655 
L 171.693707 259.942655 
L 171.819153 260.103795 
L 171.944599 258.898347 
L 172.446384 258.414108 
L 173.449953 258.463165 
L 173.575399 258.825036 
L 173.700845 258.024113 
L 174.328075 256.377554 
L 174.453521 256.521731 
L 174.578968 256.111366 
L 174.955306 255.630236 
L 175.080752 256.428978 
L 175.331644 256.388264 
L 175.45709 256.185407 
L 175.833429 256.988474 
L 175.958875 256.21576 
L 176.084321 256.190464 
L 176.335213 255.5391 
L 176.962444 255.311496 
L 177.08789 255.385552 
L 177.213336 254.690699 
L 177.71512 254.219086 
L 178.091459 253.355107 
L 178.593243 253.206199 
L 178.844136 253.4298 
L 179.34592 253.327139 
L 179.596812 252.850469 
L 179.722258 252.974794 
L 179.847704 252.630534 
L 180.349489 252.777003 
L 180.600381 252.675828 
L 180.725827 252.824538 
L 181.102166 252.768698 
L 181.60395 251.778536 
L 182.858411 251.71427 
L 182.983857 251.6547 
L 183.109303 251.371988 
L 183.736534 251.316874 
L 183.86198 251.514769 
L 183.987426 251.45943 
L 184.112872 251.778834 
L 184.238318 251.593317 
L 184.614657 251.454822 
L 184.740103 250.928954 
L 184.865549 251.783485 
L 184.990995 251.783485 
L 185.116441 251.964689 
L 185.49278 251.049765 
L 185.618226 251.474363 
L 185.869118 249.775436 
L 186.496349 249.792943 
L 186.872687 249.465255 
L 189.130717 249.465255 
L 189.507055 248.406733 
L 190.385178 248.331067 
L 190.761516 248.668234 
L 190.886963 247.893975 
L 191.012409 248.015091 
L 191.263301 247.197902 
L 191.765085 247.277007 
L 192.015978 246.813727 
L 192.141424 246.015358 
L 192.643208 245.820694 
L 193.772223 245.820694 
L 193.897669 245.603392 
L 194.399454 245.426206 
L 194.5249 245.555766 
L 194.650346 244.908472 
L 197.284714 244.904225 
L 197.410161 244.274457 
L 197.911945 244.513248 
L 200.420867 244.513248 
L 200.546313 245.204422 
L 201.29899 245.111198 
L 201.424436 245.08181 
L 201.549882 244.750464 
L 202.428005 244.609086 
L 202.678897 244.487565 
L 203.431574 244.487565 
L 203.55702 244.872592 
L 206.693173 244.872592 
L 206.818619 244.380926 
L 206.944065 244.36518 
L 207.069511 244.544047 
L 207.44585 244.030953 
L 207.571296 244.249928 
L 207.947634 242.755178 
L 208.574865 242.755178 
L 208.825757 241.581189 
L 209.202095 241.530811 
L 209.327541 240.450244 
L 209.452988 240.362499 
L 210.33111 240.441655 
L 210.456556 240.219485 
L 210.582003 239.580654 
L 210.958341 239.411933 
L 211.083787 239.508245 
L 211.209233 237.658129 
L 211.334679 238.192733 
L 212.714587 238.192733 
L 212.840033 237.551749 
L 214.596278 237.551749 
L 214.721724 237.130754 
L 214.972617 237.551749 
L 215.599847 237.39941 
L 215.850739 236.965703 
L 216.352524 236.854492 
L 216.47797 237.340617 
L 217.105201 236.758073 
L 217.230647 236.081045 
L 217.356093 236.527748 
L 217.606985 236.518206 
L 217.983323 236.36589 
L 218.359662 237.143908 
L 218.485108 236.49913 
L 219.112338 236.901926 
L 219.363231 236.176425 
L 219.739569 236.209507 
L 219.990461 234.81451 
L 220.115907 235.083595 
L 220.241353 234.89183 
L 221.495815 234.375736 
L 221.621261 235.325875 
L 221.746707 232.148353 
L 221.872153 232.148353 
L 221.997599 231.596442 
L 222.499384 231.957649 
L 222.62483 231.746491 
L 222.750276 231.815301 
L 222.875722 231.639248 
L 223.25206 231.639248 
L 223.377506 231.485393 
L 223.502952 230.922787 
L 224.255629 230.943775 
L 225.008306 230.901369 
L 225.133752 230.543335 
L 225.51009 230.662231 
L 226.137321 230.721716 
L 226.388213 230.499806 
L 226.889998 230.385137 
L 227.14089 230.962282 
L 227.76812 230.50406 
L 227.893566 230.563674 
L 228.144459 229.938559 
L 228.646243 229.505885 
L 228.897135 229.193055 
L 229.39892 229.193055 
L 229.649812 228.728332 
L 232.28418 228.728332 
L 232.409627 228.086617 
L 232.535073 228.26753 
L 233.162303 228.26753 
L 233.287749 227.538811 
L 233.413196 227.630163 
L 234.165872 227.630163 
L 234.291318 227.178541 
L 234.667657 227.010123 
L 234.918549 226.340118 
L 235.043995 226.413931 
L 236.423902 226.413931 
L 236.549348 226.5829 
L 236.674795 226.268453 
L 236.925687 226.459518 
L 237.302025 226.132052 
L 238.556486 226.132052 
L 238.681932 226.342741 
L 239.560055 226.342741 
L 239.936393 226.121035 
L 240.187286 225.34446 
L 240.312732 224.878497 
L 240.438178 225.11527 
L 241.065409 224.490397 
L 241.818085 224.467965 
L 242.821654 224.467965 
L 242.9471 225.043061 
L 243.448885 224.943558 
L 243.574331 224.023668 
L 243.699777 224.023668 
L 243.825223 224.215632 
L 243.950669 223.861324 
L 244.327008 223.64761 
L 244.452454 223.813719 
L 244.5779 223.595567 
L 244.703346 223.605023 
L 244.828792 223.24746 
L 245.330576 222.768634 
L 245.581469 221.857207 
L 245.706915 221.463589 
L 246.083253 221.938269 
L 246.208699 221.419139 
L 246.334145 221.776332 
L 246.459591 221.508096 
L 246.585038 221.71804 
L 247.086822 221.942777 
L 247.337714 221.695645 
L 247.46316 221.610677 
L 247.839499 221.11837 
L 248.090391 221.166848 
L 248.341283 220.855118 
L 248.968514 220.196956 
L 249.09396 219.855472 
L 249.219406 220.025797 
L 249.846637 220.025797 
L 250.097529 219.547189 
L 251.35199 219.547189 
L 251.477436 219.222787 
L 251.728328 219.296055 
L 252.731897 219.296055 
L 253.233682 219.525509 
L 253.484574 219.323543 
L 253.61002 219.588581 
L 253.986358 219.570549 
L 254.111804 218.812652 
L 254.237251 219.194004 
L 254.488143 218.378746 
L 254.989927 217.84276 
L 255.115373 218.292225 
L 255.366266 218.43305 
L 255.742604 218.173844 
L 255.993496 216.687085 
L 256.118942 216.657734 
L 256.244388 216.299136 
L 256.620727 214.753293 
L 256.746173 215.446747 
L 256.871619 215.446747 
L 257.122511 214.115457 
L 257.49885 214.139958 
L 257.624296 214.365352 
L 257.749742 214.115457 
L 257.875188 214.123622 
L 258.000634 213.673325 
L 258.376972 213.372323 
L 258.753311 212.081728 
L 258.878757 211.905019 
L 259.505987 211.55426 
L 259.75688 211.240808 
L 260.258664 211.740639 
L 260.509556 211.316082 
L 260.635002 210.570542 
L 261.011341 210.952508 
L 261.136787 210.640689 
L 261.262233 210.781405 
L 261.387679 210.203654 
L 261.513125 208.383265 
L 262.01491 208.345178 
L 262.140356 208.100332 
L 262.265802 208.210472 
L 262.391248 206.994294 
L 262.893033 206.282442 
L 265.025616 206.387195 
L 265.527401 206.168526 
L 265.652847 206.168526 
L 265.903739 206.32026 
L 266.53097 206.32026 
L 266.656416 205.756753 
L 268.036323 205.756753 
L 268.161769 205.438454 
L 268.287215 205.845912 
L 268.412662 205.825629 
L 268.538108 205.37434 
L 269.165338 205.214568 
L 269.290784 205.214568 
L 269.416231 204.623207 
L 269.918015 205.112595 
L 270.043461 204.498496 
L 270.168907 205.124824 
L 270.294353 205.124824 
L 270.670692 202.891095 
L 270.921584 202.891095 
L 271.04703 202.13841 
L 271.548814 203.419941 
L 271.674261 203.419941 
L 271.925153 202.095913 
L 272.552383 202.095913 
L 272.803276 202.292952 
L 274.434075 202.292952 
L 274.684967 201.228642 
L 275.186752 201.887908 
L 275.312198 201.469233 
L 275.437644 201.942706 
L 275.56309 201.357046 
L 275.939428 201.515043 
L 276.315767 201.010305 
L 276.441213 200.046155 
L 276.942997 200.395519 
L 277.19389 200.485345 
L 277.319336 200.131467 
L 277.695674 199.709091 
L 277.82112 200.371062 
L 278.072012 196.247775 
L 278.197459 196.175423 
L 278.699243 196.175423 
L 278.824689 195.582189 
L 278.950135 196.457467 
L 279.075581 196.457467 
L 279.45192 195.821547 
L 279.577366 195.853787 
L 279.953704 194.89234 
L 280.706381 194.794853 
L 281.459058 194.695323 
L 281.70995 194.475939 
L 282.462626 194.475939 
L 282.588073 194.632802 
L 283.089857 194.562892 
L 283.340749 194.394213 
L 283.466195 194.168144 
L 283.842534 193.871378 
L 283.96798 193.140307 
L 284.218872 193.39178 
L 284.344318 192.939723 
L 284.720657 192.922182 
L 285.096995 192.310306 
L 286.978687 192.221127 
L 287.355025 192.178205 
L 287.731363 191.403999 
L 288.233148 191.403999 
L 288.358594 190.935689 
L 288.48404 191.497697 
L 288.734932 191.085152 
L 289.111271 190.733865 
L 289.236717 190.463062 
L 289.487609 187.959007 
L 289.613055 188.07333 
L 289.989393 188.017755 
L 290.240286 187.463595 
L 290.365732 187.721758 
L 290.491178 187.441096 
L 290.992962 187.063996 
L 291.118408 187.550512 
L 291.871085 185.738559 
L 292.121977 185.689629 
L 292.247423 185.338108 
L 292.623762 185.384159 
L 292.874654 184.61844 
L 297.892499 184.61844 
L 298.268837 182.936192 
L 298.394283 183.159236 
L 298.770621 183.159236 
L 298.896068 183.001207 
L 299.021514 181.911107 
L 300.652313 181.911107 
L 300.777759 181.034254 
L 301.028651 181.256387 
L 301.40499 180.664534 
L 301.655882 178.991575 
L 301.906774 179.174803 
L 302.659451 179.174803 
L 302.784897 179.775431 
L 303.286682 179.744176 
L 303.537574 177.914606 
L 304.541143 177.914606 
L 304.917481 178.590927 
L 305.293819 176.271342 
L 305.419265 176.267538 
L 305.795604 176.081665 
L 306.046496 176.115731 
L 306.171942 176.534798 
L 306.297388 175.515014 
L 306.673727 174.858631 
L 306.799173 174.142697 
L 307.050065 174.358102 
L 307.928188 174.358102 
L 308.053634 173.26321 
L 308.555418 174.544602 
L 308.806311 174.55602 
L 308.931757 173.795478 
L 309.308095 174.045906 
L 309.433541 173.941031 
L 309.684433 172.934664 
L 309.80988 172.591152 
L 310.311664 172.236733 
L 310.562556 172.674008 
L 310.688002 172.569569 
L 311.064341 172.674008 
L 311.315233 171.059978 
L 311.440679 171.042762 
L 311.566125 170.115446 
L 312.06791 169.841651 
L 312.444248 169.395185 
L 312.946032 169.395185 
L 313.071479 168.543978 
L 314.200494 168.543978 
L 314.827724 167.902628 
L 315.078616 168.260193 
L 315.454955 167.658264 
L 315.580401 167.123903 
L 315.705847 167.076647 
L 315.831293 166.157853 
L 315.956739 166.620888 
L 316.458524 166.286226 
L 316.834862 165.147501 
L 317.2112 165.320292 
L 317.336646 165.007338 
L 317.712985 163.431575 
L 318.214769 163.186281 
L 318.340215 163.186281 
L 318.591108 162.426705 
L 319.092892 162.151286 
L 320.723692 162.151286 
L 320.849138 161.865992 
L 321.978153 161.865992 
L 322.103599 161.751121 
L 322.479937 162.405995 
L 322.981722 161.117947 
L 324.487075 161.117947 
L 324.612521 160.875176 
L 324.737967 161.099212 
L 325.114306 160.890067 
L 325.239752 159.794084 
L 325.490644 160.004012 
L 325.61609 159.815723 
L 326.243321 159.971351 
L 326.494213 158.794377 
L 326.870551 158.636908 
L 326.995997 158.906787 
L 327.121443 158.906787 
L 327.246889 157.960602 
L 327.372336 158.167892 
L 327.87412 158.167892 
L 328.250458 157.223785 
L 329.128581 156.096027 
L 329.630366 155.882108 
L 329.755812 156.480344 
L 330.006704 155.045801 
L 330.633935 154.860845 
L 331.512057 154.792798 
L 331.637504 155.04866 
L 331.76295 154.545545 
L 333.017411 154.545545 
L 333.519195 153.331798 
L 334.271872 153.41029 
L 334.773656 152.79091 
L 334.899103 151.769307 
L 335.024549 148.327816 
L 335.651779 148.324532 
L 335.777225 148.442957 
L 335.902671 147.744809 
L 336.028118 146.348648 
L 336.153564 146.469894 
L 336.655348 146.469894 
L 336.780794 146.238094 
L 337.031686 145.377718 
L 339.16427 145.377718 
L 339.415163 145.510855 
L 340.418732 145.520322 
L 340.544178 145.177092 
L 340.920516 144.914599 
L 341.171408 145.543324 
L 341.4223 144.091418 
L 341.798639 144.135592 
L 341.924085 143.587383 
L 342.174977 143.531481 
L 342.802208 143.531481 
L 342.927654 143.831013 
L 343.680331 143.812229 
L 343.931223 143.154892 
L 344.056669 142.737872 
L 344.809346 142.846315 
L 344.934792 142.414545 
L 345.436576 142.316599 
L 345.562022 142.316599 
L 345.812915 141.499506 
L 346.189253 141.651073 
L 346.314699 142.146714 
L 346.440145 140.807679 
L 346.691037 140.807679 
L 347.192822 141.164234 
L 348.070945 141.164234 
L 348.321837 140.851449 
L 348.823621 140.165906 
L 348.949067 140.580415 
L 349.19996 140.068215 
L 349.325406 139.979642 
L 349.701744 139.516825 
L 349.952636 139.738681 
L 350.078082 139.476088 
L 350.203529 139.615892 
L 350.956205 139.668445 
L 351.081651 139.522829 
L 351.583436 139.575181 
L 351.834328 139.371538 
L 351.959774 139.621895 
L 352.336112 139.40346 
L 352.461559 139.613131 
L 352.712451 138.91334 
L 353.590574 138.986505 
L 353.71602 138.092766 
L 354.217804 138.503534 
L 354.468696 137.99296 
L 354.970481 137.99296 
L 355.095927 137.589738 
L 355.472265 137.589738 
L 355.848604 137.308307 
L 356.099496 135.862582 
L 356.350388 136.04042 
L 356.726726 136.118168 
L 356.977619 135.033944 
L 357.103065 135.106682 
L 357.228511 134.92512 
L 358.984757 134.92512 
L 359.361095 133.489402 
L 359.486541 134.278657 
L 361.368233 134.278657 
L 361.493679 131.764869 
L 361.619125 133.565853 
L 361.995463 132.815725 
L 362.246356 125.44588 
L 362.371802 123.660053 
L 362.497248 124.11108 
L 362.999032 123.422915 
L 363.124478 123.422915 
L 363.249924 122.378511 
L 363.375371 122.657948 
L 364.128047 117.487231 
L 364.629832 117.487231 
L 364.755278 116.094901 
L 365.00617 116.094901 
L 365.131616 114.376392 
L 365.507955 114.376392 
L 365.633401 115.310719 
L 365.758847 114.44257 
L 365.884293 114.460975 
L 366.009739 113.071407 
L 366.511523 111.423067 
L 366.63697 110.543134 
L 366.887862 111.107211 
L 367.2642 110.15363 
L 367.389646 109.253921 
L 367.515092 109.422455 
L 367.765985 107.983044 
L 368.518661 107.995703 
L 368.644107 106.938801 
L 369.145892 106.002511 
L 369.271338 105.966652 
L 369.52223 104.429908 
L 370.024015 104.048986 
L 370.149461 102.821164 
L 370.274907 102.79115 
L 370.400353 102.188195 
L 370.776691 102.465398 
L 371.027584 101.527011 
L 372.031153 101.527011 
L 372.156599 100.937151 
L 372.532937 100.474517 
L 372.783829 98.37242 
L 372.909275 98.656924 
L 373.41106 98.656924 
L 373.661952 98.771233 
L 373.787398 98.771233 
L 373.912844 99.402718 
L 374.540075 97.762362 
L 375.543644 97.589403 
L 375.66909 97.12357 
L 376.045428 97.348033 
L 376.29632 96.172995 
L 376.547213 95.397314 
L 376.923551 95.467564 
L 377.048997 95.250006 
L 377.174443 94.407183 
L 377.299889 94.890392 
L 377.425335 94.890392 
L 377.801674 94.397195 
L 377.92712 94.729161 
L 378.178012 94.378454 
L 378.303458 94.446437 
L 378.679797 94.128758 
L 378.805243 94.268554 
L 379.056135 93.915483 
L 379.181581 93.549931 
L 379.683366 93.301523 
L 379.808812 92.680313 
L 380.059704 93.194954 
L 380.436042 92.285458 
L 380.561488 92.395922 
L 380.812381 92.247979 
L 380.937827 91.56286 
L 381.439611 90.666968 
L 381.565057 89.73806 
L 383.195857 89.73806 
L 383.321303 88.44628 
L 383.446749 88.710112 
L 383.572195 87.933151 
L 383.948533 87.228046 
L 384.07398 86.42508 
L 384.826656 86.42508 
L 384.952102 86.000742 
L 385.077548 86.642501 
L 385.202995 86.642501 
L 385.704779 85.756686 
L 385.830225 85.827678 
L 386.081117 84.786008 
L 386.206564 84.928433 
L 386.582902 84.500816 
L 386.708348 85.244673 
L 387.084686 83.541756 
L 387.586471 83.642757 
L 387.711917 83.987234 
L 387.962809 83.173595 
L 389.719055 83.173595 
L 390.095393 82.705981 
L 390.346285 81.005614 
L 391.098962 81.005614 
L 391.224408 80.495468 
L 392.102531 80.499892 
L 392.353423 79.748419 
L 392.855208 78.595381 
L 393.73333 78.613425 
L 393.984223 78.613425 
L 394.109669 79.069344 
L 394.486007 78.608827 
L 394.611453 78.781677 
L 394.736899 76.785852 
L 394.862345 76.766218 
L 394.987792 77.29359 
L 395.36413 76.794581 
L 395.489576 76.094462 
L 395.865914 76.122285 
L 396.493145 75.821691 
L 398.123944 75.743434 
L 398.374837 75.142805 
L 398.500283 74.857961 
L 398.876621 74.590123 
L 399.127513 73.860381 
L 399.378406 73.551075 
L 400.256528 73.679694 
L 400.758313 73.336825 
L 401.51099 73.336825 
L 402.012774 70.927921 
L 402.389112 70.111054 
L 402.514558 70.383192 
L 402.890897 70.383192 
L 403.518127 71.000033 
L 404.647142 70.994115 
L 405.148927 70.51835 
L 405.399819 70.51835 
L 405.525265 69.44209 
L 405.901604 68.498649 
L 406.277942 66.858423 
L 406.905172 65.933525 
L 407.030619 66.111348 
L 407.156065 66.025321 
L 407.281511 65.114147 
L 407.657849 64.650024 
L 407.783295 64.937441 
L 407.908741 64.883249 
L 408.159634 62.830939 
L 408.661418 63.380496 
L 408.786864 63.351087 
L 408.91231 63.142258 
L 409.539541 62.620182 
L 409.664987 62.715675 
L 409.790433 62.618383 
L 409.915879 61.85317 
L 410.292218 61.478499 
L 410.417664 61.64083 
L 410.668556 60.802435 
L 410.794002 60.179449 
L 412.424802 60.179449 
L 412.550248 60.567217 
L 413.052032 59.853458 
L 413.177478 59.905832 
L 413.42837 58.468245 
L 414.933724 58.468245 
L 415.05917 57.978849 
L 415.184616 58.149086 
L 415.811847 58.044247 
L 416.062739 58.013578 
L 417.3172 58.02276 
L 417.568092 57.812182 
L 418.446215 57.812182 
L 419.073446 57.31284 
L 419.198892 56.791361 
L 419.324338 56.89723 
L 419.57523 56.620459 
L 419.951568 56.520849 
L 420.077015 56.342264 
L 420.202461 56.383673 
L 420.327907 56.051989 
L 421.080583 56.071623 
L 421.20603 56.625416 
L 421.331476 56.169873 
L 422.585937 56.057419 
L 422.962275 55.363342 
L 423.087721 54.647971 
L 425.220305 54.743391 
L 425.345751 54.421461 
L 425.471197 53.550249 
L 425.72209 53.550249 
L 426.098428 53.009713 
L 426.223874 55.097153 
L 426.474766 51.402023 
L 426.600213 50.445903 
L 427.101997 50.808595 
L 428.105566 50.898532 
L 428.231012 50.434427 
L 428.356458 50.463254 
L 428.983689 50.463254 
L 429.109135 50.648651 
L 429.234581 50.422188 
L 429.610919 50.129284 
L 429.736365 50.44956 
L 430.112704 49.627553 
L 430.489042 49.627553 
L 430.614488 49.457741 
L 430.739934 49.016708 
L 430.990827 49.169261 
L 431.868949 49.169261 
L 432.370734 49.071622 
L 432.49618 49.117838 
L 432.621626 48.456132 
L 432.747072 48.749807 
L 433.248857 48.138246 
L 433.499749 47.047881 
L 433.625195 46.613114 
L 434.126979 46.020284 
L 434.503318 45.113569 
L 434.879656 44.650793 
L 435.130548 44.764024 
L 435.255994 44.765531 
L 435.381441 44.45632 
L 435.757779 44.767039 
L 436.008671 44.384662 
L 436.134117 43.869492 
L 436.259563 44.200224 
L 437.01224 44.2348 
L 437.137686 43.6383 
L 437.514025 43.845918 
L 437.639471 42.409279 
L 438.392147 41.578882 
L 438.64304 41.63986 
L 439.521162 41.532879 
L 439.646608 40.820944 
L 439.772055 41.058989 
L 440.148393 40.710872 
L 440.273839 39.922717 
L 440.399285 39.945846 
L 440.524731 39.754471 
L 440.650177 39.319984 
L 441.277408 39.319984 
L 441.402854 39.908319 
L 441.904639 39.908319 
L 442.280977 39.278129 
L 442.908207 38.733306 
L 443.033654 38.248361 
L 443.284546 38.408809 
L 443.78633 38.812627 
L 444.539007 38.812627 
L 444.664453 38.558215 
L 445.918914 38.558215 
L 446.295253 37.438125 
L 446.546145 38.083182 
L 446.671591 38.083182 
L 446.671591 38.083182 
" clip-path="url(#p8a1efc5a3f)" style="fill: none; stroke: #008000; stroke-width: 0.7; stroke-linecap: square"/>
   </g>
   <g id="patch_3">
    <path d="M 20.5625 354.958125 
L 20.5625 22.318125 
" style="fill: none; stroke: #000000; stroke-width: 0.8; stroke-linejoin: miter; stroke-linecap: square"/>
   </g>
   <g id="patch_4">
    <path d="M 466.9625 354.958125 
L 466.9625 22.318125 
" style="fill: none; stroke: #000000; stroke-width: 0.8; stroke-linejoin: miter; stroke-linecap: square"/>
   </g>
   <g id="patch_5">
    <path d="M 20.5625 354.958125 
L 466.9625 354.958125 
" style="fill: none; stroke: #000000; stroke-width: 0.8; stroke-linejoin: miter; stroke-linecap: square"/>
   </g>
   <g id="patch_6">
    <path d="M 20.5625 22.318125 
L 466.9625 22.318125 
" style="fill: none; stroke: #000000; stroke-width: 0.8; stroke-linejoin: miter; stroke-linecap: square"/>
   </g>
   <g id="text_16">
    <!-- Buy/Sell Strategy, LOW -->
    <g transform="translate(174.225312 16.318125)scale(0.12 -0.12)">
     <defs>
      <path id="DejaVuSans-42" d="M 1259 2228 
L 1259 519 
L 2272 519 
Q 2781 519 3026 730 
Q 3272 941 3272 1375 
Q 3272 1813 3026 2020 
Q 2781 2228 2272 2228 
L 1259 2228 
z
M 1259 4147 
L 1259 2741 
L 2194 2741 
Q 2656 2741 2882 2914 
Q 3109 3088 3109 3444 
Q 3109 3797 2882 3972 
Q 2656 4147 2194 4147 
L 1259 4147 
z
M 628 4666 
L 2241 4666 
Q 2963 4666 3353 4366 
Q 3744 4066 3744 3513 
Q 3744 3084 3544 2831 
Q 3344 2578 2956 2516 
Q 3422 2416 3680 2098 
Q 3938 1781 3938 1306 
Q 3938 681 3513 340 
Q 3088 0 2303 0 
L 628 0 
L 628 4666 
z
" transform="scale(0.015625)"/>
      <path id="DejaVuSans-75" d="M 544 1381 
L 544 3500 
L 1119 3500 
L 1119 1403 
Q 1119 906 1312 657 
Q 1506 409 1894 409 
Q 2359 409 2629 706 
Q 2900 1003 2900 1516 
L 2900 3500 
L 3475 3500 
L 3475 0 
L 2900 0 
L 2900 538 
Q 2691 219 2414 64 
Q 2138 -91 1772 -91 
Q 1169 -91 856 284 
Q 544 659 544 1381 
z
M 1991 3584 
L 1991 3584 
z
" transform="scale(0.015625)"/>
      <path id="DejaVuSans-79" d="M 2059 -325 
Q 1816 -950 1584 -1140 
Q 1353 -1331 966 -1331 
L 506 -1331 
L 506 -850 
L 844 -850 
Q 1081 -850 1212 -737 
Q 1344 -625 1503 -206 
L 1606 56 
L 191 3500 
L 800 3500 
L 1894 763 
L 2988 3500 
L 3597 3500 
L 2059 -325 
z
" transform="scale(0.015625)"/>
      <path id="DejaVuSans-2f" d="M 1625 4666 
L 2156 4666 
L 531 -594 
L 0 -594 
L 1625 4666 
z
" transform="scale(0.015625)"/>
      <path id="DejaVuSans-53" d="M 3425 4513 
L 3425 3897 
Q 3066 4069 2747 4153 
Q 2428 4238 2131 4238 
Q 1616 4238 1336 4038 
Q 1056 3838 1056 3469 
Q 1056 3159 1242 3001 
Q 1428 2844 1947 2747 
L 2328 2669 
Q 3034 2534 3370 2195 
Q 3706 1856 3706 1288 
Q 3706 609 3251 259 
Q 2797 -91 1919 -91 
Q 1588 -91 1214 -16 
Q 841 59 441 206 
L 441 856 
Q 825 641 1194 531 
Q 1563 422 1919 422 
Q 2459 422 2753 634 
Q 3047 847 3047 1241 
Q 3047 1584 2836 1778 
Q 2625 1972 2144 2069 
L 1759 2144 
Q 1053 2284 737 2584 
Q 422 2884 422 3419 
Q 422 4038 858 4394 
Q 1294 4750 2059 4750 
Q 2388 4750 2728 4690 
Q 3069 4631 3425 4513 
z
" transform="scale(0.015625)"/>
      <path id="DejaVuSans-65" d="M 3597 1894 
L 3597 1613 
L 953 1613 
Q 991 1019 1311 708 
Q 1631 397 2203 397 
Q 2534 397 2845 478 
Q 3156 559 3463 722 
L 3463 178 
Q 3153 47 2828 -22 
Q 2503 -91 2169 -91 
Q 1331 -91 842 396 
Q 353 884 353 1716 
Q 353 2575 817 3079 
Q 1281 3584 2069 3584 
Q 2775 3584 3186 3129 
Q 3597 2675 3597 1894 
z
M 3022 2063 
Q 3016 2534 2758 2815 
Q 2500 3097 2075 3097 
Q 1594 3097 1305 2825 
Q 1016 2553 972 2059 
L 3022 2063 
z
" transform="scale(0.015625)"/>
      <path id="DejaVuSans-6c" d="M 603 4863 
L 1178 4863 
L 1178 0 
L 603 0 
L 603 4863 
z
" transform="scale(0.015625)"/>
      <path id="DejaVuSans-20" transform="scale(0.015625)"/>
      <path id="DejaVuSans-74" d="M 1172 4494 
L 1172 3500 
L 2356 3500 
L 2356 3053 
L 1172 3053 
L 1172 1153 
Q 1172 725 1289 603 
Q 1406 481 1766 481 
L 2356 481 
L 2356 0 
L 1766 0 
Q 1100 0 847 248 
Q 594 497 594 1153 
L 594 3053 
L 172 3053 
L 172 3500 
L 594 3500 
L 594 4494 
L 1172 4494 
z
" transform="scale(0.015625)"/>
      <path id="DejaVuSans-72" d="M 2631 2963 
Q 2534 3019 2420 3045 
Q 2306 3072 2169 3072 
Q 1681 3072 1420 2755 
Q 1159 2438 1159 1844 
L 1159 0 
L 581 0 
L 581 3500 
L 1159 3500 
L 1159 2956 
Q 1341 3275 1631 3429 
Q 1922 3584 2338 3584 
Q 2397 3584 2469 3576 
Q 2541 3569 2628 3553 
L 2631 2963 
z
" transform="scale(0.015625)"/>
      <path id="DejaVuSans-61" d="M 2194 1759 
Q 1497 1759 1228 1600 
Q 959 1441 959 1056 
Q 959 750 1161 570 
Q 1363 391 1709 391 
Q 2188 391 2477 730 
Q 2766 1069 2766 1631 
L 2766 1759 
L 2194 1759 
z
M 3341 1997 
L 3341 0 
L 2766 0 
L 2766 531 
Q 2569 213 2275 61 
Q 1981 -91 1556 -91 
Q 1019 -91 701 211 
Q 384 513 384 1019 
Q 384 1609 779 1909 
Q 1175 2209 1959 2209 
L 2766 2209 
L 2766 2266 
Q 2766 2663 2505 2880 
Q 2244 3097 1772 3097 
Q 1472 3097 1187 3025 
Q 903 2953 641 2809 
L 641 3341 
Q 956 3463 1253 3523 
Q 1550 3584 1831 3584 
Q 2591 3584 2966 3190 
Q 3341 2797 3341 1997 
z
" transform="scale(0.015625)"/>
      <path id="DejaVuSans-67" d="M 2906 1791 
Q 2906 2416 2648 2759 
Q 2391 3103 1925 3103 
Q 1463 3103 1205 2759 
Q 947 2416 947 1791 
Q 947 1169 1205 825 
Q 1463 481 1925 481 
Q 2391 481 2648 825 
Q 2906 1169 2906 1791 
z
M 3481 434 
Q 3481 -459 3084 -895 
Q 2688 -1331 1869 -1331 
Q 1566 -1331 1297 -1286 
Q 1028 -1241 775 -1147 
L 775 -588 
Q 1028 -725 1275 -790 
Q 1522 -856 1778 -856 
Q 2344 -856 2625 -561 
Q 2906 -266 2906 331 
L 2906 616 
Q 2728 306 2450 153 
Q 2172 0 1784 0 
Q 1141 0 747 490 
Q 353 981 353 1791 
Q 353 2603 747 3093 
Q 1141 3584 1784 3584 
Q 2172 3584 2450 3431 
Q 2728 3278 2906 2969 
L 2906 3500 
L 3481 3500 
L 3481 434 
z
" transform="scale(0.015625)"/>
      <path id="DejaVuSans-2c" d="M 750 794 
L 1409 794 
L 1409 256 
L 897 -744 
L 494 -744 
L 750 256 
L 750 794 
z
" transform="scale(0.015625)"/>
      <path id="DejaVuSans-4c" d="M 628 4666 
L 1259 4666 
L 1259 531 
L 3531 531 
L 3531 0 
L 628 0 
L 628 4666 
z
" transform="scale(0.015625)"/>
      <path id="DejaVuSans-4f" d="M 2522 4238 
Q 1834 4238 1429 3725 
Q 1025 3213 1025 2328 
Q 1025 1447 1429 934 
Q 1834 422 2522 422 
Q 3209 422 3611 934 
Q 4013 1447 4013 2328 
Q 4013 3213 3611 3725 
Q 3209 4238 2522 4238 
z
M 2522 4750 
Q 3503 4750 4090 4092 
Q 4678 3434 4678 2328 
Q 4678 1225 4090 567 
Q 3503 -91 2522 -91 
Q 1538 -91 948 565 
Q 359 1222 359 2328 
Q 359 3434 948 4092 
Q 1538 4750 2522 4750 
z
" transform="scale(0.015625)"/>
      <path id="DejaVuSans-57" d="M 213 4666 
L 850 4666 
L 1831 722 
L 2809 4666 
L 3519 4666 
L 4500 722 
L 5478 4666 
L 6119 4666 
L 4947 0 
L 4153 0 
L 3169 4050 
L 2175 0 
L 1381 0 
L 213 4666 
z
" transform="scale(0.015625)"/>
     </defs>
     <use xlink:href="#DejaVuSans-42"/>
     <use xlink:href="#DejaVuSans-75" x="68.603516"/>
     <use xlink:href="#DejaVuSans-79" x="131.982422"/>
     <use xlink:href="#DejaVuSans-2f" x="191.162109"/>
     <use xlink:href="#DejaVuSans-53" x="224.853516"/>
     <use xlink:href="#DejaVuSans-65" x="288.330078"/>
     <use xlink:href="#DejaVuSans-6c" x="349.853516"/>
     <use xlink:href="#DejaVuSans-6c" x="377.636719"/>
     <use xlink:href="#DejaVuSans-20" x="405.419922"/>
     <use xlink:href="#DejaVuSans-53" x="437.207031"/>
     <use xlink:href="#DejaVuSans-74" x="500.683594"/>
     <use xlink:href="#DejaVuSans-72" x="539.892578"/>
     <use xlink:href="#DejaVuSans-61" x="581.005859"/>
     <use xlink:href="#DejaVuSans-74" x="642.285156"/>
     <use xlink:href="#DejaVuSans-65" x="681.494141"/>
     <use xlink:href="#DejaVuSans-67" x="743.017578"/>
     <use xlink:href="#DejaVuSans-79" x="806.494141"/>
     <use xlink:href="#DejaVuSans-2c" x="865.673828"/>
     <use xlink:href="#DejaVuSans-20" x="897.460938"/>
     <use xlink:href="#DejaVuSans-4c" x="929.248047"/>
     <use xlink:href="#DejaVuSans-4f" x="981.335938"/>
     <use xlink:href="#DejaVuSans-57" x="1060.046875"/>
    </g>
   </g>
   <g id="legend_1">
    <g id="patch_7">
     <path d="M 27.5625 59.674375 
L 148.073438 59.674375 
Q 150.073438 59.674375 150.073438 57.674375 
L 150.073438 29.318125 
Q 150.073438 27.318125 148.073438 27.318125 
L 27.5625 27.318125 
Q 25.5625 27.318125 25.5625 29.318125 
L 25.5625 57.674375 
Q 25.5625 59.674375 27.5625 59.674375 
z
" style="fill: #ffffff; opacity: 0.8; stroke: #cccccc; stroke-linejoin: miter"/>
    </g>
    <g id="line2d_18">
     <path d="M 29.5625 35.416562 
L 39.5625 35.416562 
L 49.5625 35.416562 
" style="fill: none; stroke: #ff0000; stroke-width: 0.7; stroke-linecap: square"/>
    </g>
    <g id="text_17">
     <!-- LOW Returns -->
     <g transform="translate(57.5625 38.916562)scale(0.1 -0.1)">
      <defs>
       <path id="DejaVuSans-52" d="M 2841 2188 
Q 3044 2119 3236 1894 
Q 3428 1669 3622 1275 
L 4263 0 
L 3584 0 
L 2988 1197 
Q 2756 1666 2539 1819 
Q 2322 1972 1947 1972 
L 1259 1972 
L 1259 0 
L 628 0 
L 628 4666 
L 2053 4666 
Q 2853 4666 3247 4331 
Q 3641 3997 3641 3322 
Q 3641 2881 3436 2590 
Q 3231 2300 2841 2188 
z
M 1259 4147 
L 1259 2491 
L 2053 2491 
Q 2509 2491 2742 2702 
Q 2975 2913 2975 3322 
Q 2975 3731 2742 3939 
Q 2509 4147 2053 4147 
L 1259 4147 
z
" transform="scale(0.015625)"/>
       <path id="DejaVuSans-6e" d="M 3513 2113 
L 3513 0 
L 2938 0 
L 2938 2094 
Q 2938 2591 2744 2837 
Q 2550 3084 2163 3084 
Q 1697 3084 1428 2787 
Q 1159 2491 1159 1978 
L 1159 0 
L 581 0 
L 581 3500 
L 1159 3500 
L 1159 2956 
Q 1366 3272 1645 3428 
Q 1925 3584 2291 3584 
Q 2894 3584 3203 3211 
Q 3513 2838 3513 2113 
z
" transform="scale(0.015625)"/>
       <path id="DejaVuSans-73" d="M 2834 3397 
L 2834 2853 
Q 2591 2978 2328 3040 
Q 2066 3103 1784 3103 
Q 1356 3103 1142 2972 
Q 928 2841 928 2578 
Q 928 2378 1081 2264 
Q 1234 2150 1697 2047 
L 1894 2003 
Q 2506 1872 2764 1633 
Q 3022 1394 3022 966 
Q 3022 478 2636 193 
Q 2250 -91 1575 -91 
Q 1294 -91 989 -36 
Q 684 19 347 128 
L 347 722 
Q 666 556 975 473 
Q 1284 391 1588 391 
Q 1994 391 2212 530 
Q 2431 669 2431 922 
Q 2431 1156 2273 1281 
Q 2116 1406 1581 1522 
L 1381 1569 
Q 847 1681 609 1914 
Q 372 2147 372 2553 
Q 372 3047 722 3315 
Q 1072 3584 1716 3584 
Q 2034 3584 2315 3537 
Q 2597 3491 2834 3397 
z
" transform="scale(0.015625)"/>
      </defs>
      <use xlink:href="#DejaVuSans-4c"/>
      <use xlink:href="#DejaVuSans-4f" x="52.087891"/>
      <use xlink:href="#DejaVuSans-57" x="130.798828"/>
      <use xlink:href="#DejaVuSans-20" x="229.675781"/>
      <use xlink:href="#DejaVuSans-52" x="261.462891"/>
      <use xlink:href="#DejaVuSans-65" x="326.445312"/>
      <use xlink:href="#DejaVuSans-74" x="387.96875"/>
      <use xlink:href="#DejaVuSans-75" x="427.177734"/>
      <use xlink:href="#DejaVuSans-72" x="490.556641"/>
      <use xlink:href="#DejaVuSans-6e" x="529.919922"/>
      <use xlink:href="#DejaVuSans-73" x="593.298828"/>
     </g>
    </g>
    <g id="line2d_19">
     <path d="M 29.5625 50.094687 
L 39.5625 50.094687 
L 49.5625 50.094687 
" style="fill: none; stroke: #008000; stroke-width: 0.7; stroke-linecap: square"/>
    </g>
    <g id="text_18">
     <!-- Predicted Returns -->
     <g transform="translate(57.5625 53.594687)scale(0.1 -0.1)">
      <defs>
       <path id="DejaVuSans-50" d="M 1259 4147 
L 1259 2394 
L 2053 2394 
Q 2494 2394 2734 2622 
Q 2975 2850 2975 3272 
Q 2975 3691 2734 3919 
Q 2494 4147 2053 4147 
L 1259 4147 
z
M 628 4666 
L 2053 4666 
Q 2838 4666 3239 4311 
Q 3641 3956 3641 3272 
Q 3641 2581 3239 2228 
Q 2838 1875 2053 1875 
L 1259 1875 
L 1259 0 
L 628 0 
L 628 4666 
z
" transform="scale(0.015625)"/>
       <path id="DejaVuSans-64" d="M 2906 2969 
L 2906 4863 
L 3481 4863 
L 3481 0 
L 2906 0 
L 2906 525 
Q 2725 213 2448 61 
Q 2172 -91 1784 -91 
Q 1150 -91 751 415 
Q 353 922 353 1747 
Q 353 2572 751 3078 
Q 1150 3584 1784 3584 
Q 2172 3584 2448 3432 
Q 2725 3281 2906 2969 
z
M 947 1747 
Q 947 1113 1208 752 
Q 1469 391 1925 391 
Q 2381 391 2643 752 
Q 2906 1113 2906 1747 
Q 2906 2381 2643 2742 
Q 2381 3103 1925 3103 
Q 1469 3103 1208 2742 
Q 947 2381 947 1747 
z
" transform="scale(0.015625)"/>
       <path id="DejaVuSans-69" d="M 603 3500 
L 1178 3500 
L 1178 0 
L 603 0 
L 603 3500 
z
M 603 4863 
L 1178 4863 
L 1178 4134 
L 603 4134 
L 603 4863 
z
" transform="scale(0.015625)"/>
       <path id="DejaVuSans-63" d="M 3122 3366 
L 3122 2828 
Q 2878 2963 2633 3030 
Q 2388 3097 2138 3097 
Q 1578 3097 1268 2742 
Q 959 2388 959 1747 
Q 959 1106 1268 751 
Q 1578 397 2138 397 
Q 2388 397 2633 464 
Q 2878 531 3122 666 
L 3122 134 
Q 2881 22 2623 -34 
Q 2366 -91 2075 -91 
Q 1284 -91 818 406 
Q 353 903 353 1747 
Q 353 2603 823 3093 
Q 1294 3584 2113 3584 
Q 2378 3584 2631 3529 
Q 2884 3475 3122 3366 
z
" transform="scale(0.015625)"/>
      </defs>
      <use xlink:href="#DejaVuSans-50"/>
      <use xlink:href="#DejaVuSans-72" x="58.552734"/>
      <use xlink:href="#DejaVuSans-65" x="97.416016"/>
      <use xlink:href="#DejaVuSans-64" x="158.939453"/>
      <use xlink:href="#DejaVuSans-69" x="222.416016"/>
      <use xlink:href="#DejaVuSans-63" x="250.199219"/>
      <use xlink:href="#DejaVuSans-74" x="305.179688"/>
      <use xlink:href="#DejaVuSans-65" x="344.388672"/>
      <use xlink:href="#DejaVuSans-64" x="405.912109"/>
      <use xlink:href="#DejaVuSans-20" x="469.388672"/>
      <use xlink:href="#DejaVuSans-52" x="501.175781"/>
      <use xlink:href="#DejaVuSans-65" x="566.158203"/>
      <use xlink:href="#DejaVuSans-74" x="627.681641"/>
      <use xlink:href="#DejaVuSans-75" x="666.890625"/>
      <use xlink:href="#DejaVuSans-72" x="730.269531"/>
      <use xlink:href="#DejaVuSans-6e" x="769.632812"/>
      <use xlink:href="#DejaVuSans-73" x="833.011719"/>
     </g>
    </g>
   </g>
  </g>
 </g>
 <defs>
  <clipPath id="p8a1efc5a3f">
   <rect x="20.5625" y="22.318125" width="446.4" height="332.64"/>
  </clipPath>
 </defs>
</svg>
