<?xml version="1.0" encoding="utf-8" standalone="no"?>
<!DOCTYPE svg PUBLIC "-//W3C//DTD SVG 1.1//EN"
  "http://www.w3.org/Graphics/SVG/1.1/DTD/svg11.dtd">
<svg xmlns:xlink="http://www.w3.org/1999/xlink" width="474.1625pt" height="378.83625pt" viewBox="0 0 474.1625 378.83625" xmlns="http://www.w3.org/2000/svg" version="1.1">
 <metadata>
  <rdf:RDF xmlns:dc="http://purl.org/dc/elements/1.1/" xmlns:cc="http://creativecommons.org/ns#" xmlns:rdf="http://www.w3.org/1999/02/22-rdf-syntax-ns#">
   <cc:Work>
    <dc:type rdf:resource="http://purl.org/dc/dcmitype/StillImage"/>
    <dc:date>2023-04-24T20:48:25.667215</dc:date>
    <dc:format>image/svg+xml</dc:format>
    <dc:creator>
     <cc:Agent>
      <dc:title>Matplotlib v3.5.1, https://matplotlib.org/</dc:title>
     </cc:Agent>
    </dc:creator>
   </cc:Work>
  </rdf:RDF>
 </metadata>
 <defs>
  <style type="text/css">*{stroke-linejoin: round; stroke-linecap: butt}</style>
 </defs>
 <g id="figure_1">
  <g id="patch_1">
   <path d="M 0 378.83625 
L 474.1625 378.83625 
L 474.1625 0 
L 0 0 
z
" style="fill: #ffffff"/>
  </g>
  <g id="axes_1">
   <g id="patch_2">
    <path d="M 20.5625 354.958125 
L 466.9625 354.958125 
L 466.9625 22.318125 
L 20.5625 22.318125 
z
" style="fill: #ffffff"/>
   </g>
   <g id="matplotlib.axis_1">
    <g id="xtick_1">
     <g id="line2d_1">
      <defs>
       <path id="m1b696f4bbd" d="M 0 0 
L 0 3.5 
" style="stroke: #000000; stroke-width: 0.8"/>
      </defs>
      <g>
       <use xlink:href="#m1b696f4bbd" x="31.068612" y="354.958125" style="stroke: #000000; stroke-width: 0.8"/>
      </g>
     </g>
     <g id="text_1">
      <!-- 2013 -->
      <g transform="translate(18.343612 369.556562)scale(0.1 -0.1)">
       <defs>
        <path id="DejaVuSans-32" d="M 1228 531 
L 3431 531 
L 3431 0 
L 469 0 
L 469 531 
Q 828 903 1448 1529 
Q 2069 2156 2228 2338 
Q 2531 2678 2651 2914 
Q 2772 3150 2772 3378 
Q 2772 3750 2511 3984 
Q 2250 4219 1831 4219 
Q 1534 4219 1204 4116 
Q 875 4013 500 3803 
L 500 4441 
Q 881 4594 1212 4672 
Q 1544 4750 1819 4750 
Q 2544 4750 2975 4387 
Q 3406 4025 3406 3419 
Q 3406 3131 3298 2873 
Q 3191 2616 2906 2266 
Q 2828 2175 2409 1742 
Q 1991 1309 1228 531 
z
" transform="scale(0.015625)"/>
        <path id="DejaVuSans-30" d="M 2034 4250 
Q 1547 4250 1301 3770 
Q 1056 3291 1056 2328 
Q 1056 1369 1301 889 
Q 1547 409 2034 409 
Q 2525 409 2770 889 
Q 3016 1369 3016 2328 
Q 3016 3291 2770 3770 
Q 2525 4250 2034 4250 
z
M 2034 4750 
Q 2819 4750 3233 4129 
Q 3647 3509 3647 2328 
Q 3647 1150 3233 529 
Q 2819 -91 2034 -91 
Q 1250 -91 836 529 
Q 422 1150 422 2328 
Q 422 3509 836 4129 
Q 1250 4750 2034 4750 
z
" transform="scale(0.015625)"/>
        <path id="DejaVuSans-31" d="M 794 531 
L 1825 531 
L 1825 4091 
L 703 3866 
L 703 4441 
L 1819 4666 
L 2450 4666 
L 2450 531 
L 3481 531 
L 3481 0 
L 794 0 
L 794 531 
z
" transform="scale(0.015625)"/>
        <path id="DejaVuSans-33" d="M 2597 2516 
Q 3050 2419 3304 2112 
Q 3559 1806 3559 1356 
Q 3559 666 3084 287 
Q 2609 -91 1734 -91 
Q 1441 -91 1130 -33 
Q 819 25 488 141 
L 488 750 
Q 750 597 1062 519 
Q 1375 441 1716 441 
Q 2309 441 2620 675 
Q 2931 909 2931 1356 
Q 2931 1769 2642 2001 
Q 2353 2234 1838 2234 
L 1294 2234 
L 1294 2753 
L 1863 2753 
Q 2328 2753 2575 2939 
Q 2822 3125 2822 3475 
Q 2822 3834 2567 4026 
Q 2313 4219 1838 4219 
Q 1578 4219 1281 4162 
Q 984 4106 628 3988 
L 628 4550 
Q 988 4650 1302 4700 
Q 1616 4750 1894 4750 
Q 2613 4750 3031 4423 
Q 3450 4097 3450 3541 
Q 3450 3153 3228 2886 
Q 3006 2619 2597 2516 
z
" transform="scale(0.015625)"/>
       </defs>
       <use xlink:href="#DejaVuSans-32"/>
       <use xlink:href="#DejaVuSans-30" x="63.623047"/>
       <use xlink:href="#DejaVuSans-31" x="127.246094"/>
       <use xlink:href="#DejaVuSans-33" x="190.869141"/>
      </g>
     </g>
    </g>
    <g id="xtick_2">
     <g id="line2d_2">
      <g>
       <use xlink:href="#m1b696f4bbd" x="76.856444" y="354.958125" style="stroke: #000000; stroke-width: 0.8"/>
      </g>
     </g>
     <g id="text_2">
      <!-- 2014 -->
      <g transform="translate(64.131444 369.556562)scale(0.1 -0.1)">
       <defs>
        <path id="DejaVuSans-34" d="M 2419 4116 
L 825 1625 
L 2419 1625 
L 2419 4116 
z
M 2253 4666 
L 3047 4666 
L 3047 1625 
L 3713 1625 
L 3713 1100 
L 3047 1100 
L 3047 0 
L 2419 0 
L 2419 1100 
L 313 1100 
L 313 1709 
L 2253 4666 
z
" transform="scale(0.015625)"/>
       </defs>
       <use xlink:href="#DejaVuSans-32"/>
       <use xlink:href="#DejaVuSans-30" x="63.623047"/>
       <use xlink:href="#DejaVuSans-31" x="127.246094"/>
       <use xlink:href="#DejaVuSans-34" x="190.869141"/>
      </g>
     </g>
    </g>
    <g id="xtick_3">
     <g id="line2d_3">
      <g>
       <use xlink:href="#m1b696f4bbd" x="122.644276" y="354.958125" style="stroke: #000000; stroke-width: 0.8"/>
      </g>
     </g>
     <g id="text_3">
      <!-- 2015 -->
      <g transform="translate(109.919276 369.556562)scale(0.1 -0.1)">
       <defs>
        <path id="DejaVuSans-35" d="M 691 4666 
L 3169 4666 
L 3169 4134 
L 1269 4134 
L 1269 2991 
Q 1406 3038 1543 3061 
Q 1681 3084 1819 3084 
Q 2600 3084 3056 2656 
Q 3513 2228 3513 1497 
Q 3513 744 3044 326 
Q 2575 -91 1722 -91 
Q 1428 -91 1123 -41 
Q 819 9 494 109 
L 494 744 
Q 775 591 1075 516 
Q 1375 441 1709 441 
Q 2250 441 2565 725 
Q 2881 1009 2881 1497 
Q 2881 1984 2565 2268 
Q 2250 2553 1709 2553 
Q 1456 2553 1204 2497 
Q 953 2441 691 2322 
L 691 4666 
z
" transform="scale(0.015625)"/>
       </defs>
       <use xlink:href="#DejaVuSans-32"/>
       <use xlink:href="#DejaVuSans-30" x="63.623047"/>
       <use xlink:href="#DejaVuSans-31" x="127.246094"/>
       <use xlink:href="#DejaVuSans-35" x="190.869141"/>
      </g>
     </g>
    </g>
    <g id="xtick_4">
     <g id="line2d_4">
      <g>
       <use xlink:href="#m1b696f4bbd" x="168.432108" y="354.958125" style="stroke: #000000; stroke-width: 0.8"/>
      </g>
     </g>
     <g id="text_4">
      <!-- 2016 -->
      <g transform="translate(155.707108 369.556562)scale(0.1 -0.1)">
       <defs>
        <path id="DejaVuSans-36" d="M 2113 2584 
Q 1688 2584 1439 2293 
Q 1191 2003 1191 1497 
Q 1191 994 1439 701 
Q 1688 409 2113 409 
Q 2538 409 2786 701 
Q 3034 994 3034 1497 
Q 3034 2003 2786 2293 
Q 2538 2584 2113 2584 
z
M 3366 4563 
L 3366 3988 
Q 3128 4100 2886 4159 
Q 2644 4219 2406 4219 
Q 1781 4219 1451 3797 
Q 1122 3375 1075 2522 
Q 1259 2794 1537 2939 
Q 1816 3084 2150 3084 
Q 2853 3084 3261 2657 
Q 3669 2231 3669 1497 
Q 3669 778 3244 343 
Q 2819 -91 2113 -91 
Q 1303 -91 875 529 
Q 447 1150 447 2328 
Q 447 3434 972 4092 
Q 1497 4750 2381 4750 
Q 2619 4750 2861 4703 
Q 3103 4656 3366 4563 
z
" transform="scale(0.015625)"/>
       </defs>
       <use xlink:href="#DejaVuSans-32"/>
       <use xlink:href="#DejaVuSans-30" x="63.623047"/>
       <use xlink:href="#DejaVuSans-31" x="127.246094"/>
       <use xlink:href="#DejaVuSans-36" x="190.869141"/>
      </g>
     </g>
    </g>
    <g id="xtick_5">
     <g id="line2d_5">
      <g>
       <use xlink:href="#m1b696f4bbd" x="214.345386" y="354.958125" style="stroke: #000000; stroke-width: 0.8"/>
      </g>
     </g>
     <g id="text_5">
      <!-- 2017 -->
      <g transform="translate(201.620386 369.556562)scale(0.1 -0.1)">
       <defs>
        <path id="DejaVuSans-37" d="M 525 4666 
L 3525 4666 
L 3525 4397 
L 1831 0 
L 1172 0 
L 2766 4134 
L 525 4134 
L 525 4666 
z
" transform="scale(0.015625)"/>
       </defs>
       <use xlink:href="#DejaVuSans-32"/>
       <use xlink:href="#DejaVuSans-30" x="63.623047"/>
       <use xlink:href="#DejaVuSans-31" x="127.246094"/>
       <use xlink:href="#DejaVuSans-37" x="190.869141"/>
      </g>
     </g>
    </g>
    <g id="xtick_6">
     <g id="line2d_6">
      <g>
       <use xlink:href="#m1b696f4bbd" x="260.133218" y="354.958125" style="stroke: #000000; stroke-width: 0.8"/>
      </g>
     </g>
     <g id="text_6">
      <!-- 2018 -->
      <g transform="translate(247.408218 369.556562)scale(0.1 -0.1)">
       <defs>
        <path id="DejaVuSans-38" d="M 2034 2216 
Q 1584 2216 1326 1975 
Q 1069 1734 1069 1313 
Q 1069 891 1326 650 
Q 1584 409 2034 409 
Q 2484 409 2743 651 
Q 3003 894 3003 1313 
Q 3003 1734 2745 1975 
Q 2488 2216 2034 2216 
z
M 1403 2484 
Q 997 2584 770 2862 
Q 544 3141 544 3541 
Q 544 4100 942 4425 
Q 1341 4750 2034 4750 
Q 2731 4750 3128 4425 
Q 3525 4100 3525 3541 
Q 3525 3141 3298 2862 
Q 3072 2584 2669 2484 
Q 3125 2378 3379 2068 
Q 3634 1759 3634 1313 
Q 3634 634 3220 271 
Q 2806 -91 2034 -91 
Q 1263 -91 848 271 
Q 434 634 434 1313 
Q 434 1759 690 2068 
Q 947 2378 1403 2484 
z
M 1172 3481 
Q 1172 3119 1398 2916 
Q 1625 2713 2034 2713 
Q 2441 2713 2670 2916 
Q 2900 3119 2900 3481 
Q 2900 3844 2670 4047 
Q 2441 4250 2034 4250 
Q 1625 4250 1398 4047 
Q 1172 3844 1172 3481 
z
" transform="scale(0.015625)"/>
       </defs>
       <use xlink:href="#DejaVuSans-32"/>
       <use xlink:href="#DejaVuSans-30" x="63.623047"/>
       <use xlink:href="#DejaVuSans-31" x="127.246094"/>
       <use xlink:href="#DejaVuSans-38" x="190.869141"/>
      </g>
     </g>
    </g>
    <g id="xtick_7">
     <g id="line2d_7">
      <g>
       <use xlink:href="#m1b696f4bbd" x="305.92105" y="354.958125" style="stroke: #000000; stroke-width: 0.8"/>
      </g>
     </g>
     <g id="text_7">
      <!-- 2019 -->
      <g transform="translate(293.19605 369.556562)scale(0.1 -0.1)">
       <defs>
        <path id="DejaVuSans-39" d="M 703 97 
L 703 672 
Q 941 559 1184 500 
Q 1428 441 1663 441 
Q 2288 441 2617 861 
Q 2947 1281 2994 2138 
Q 2813 1869 2534 1725 
Q 2256 1581 1919 1581 
Q 1219 1581 811 2004 
Q 403 2428 403 3163 
Q 403 3881 828 4315 
Q 1253 4750 1959 4750 
Q 2769 4750 3195 4129 
Q 3622 3509 3622 2328 
Q 3622 1225 3098 567 
Q 2575 -91 1691 -91 
Q 1453 -91 1209 -44 
Q 966 3 703 97 
z
M 1959 2075 
Q 2384 2075 2632 2365 
Q 2881 2656 2881 3163 
Q 2881 3666 2632 3958 
Q 2384 4250 1959 4250 
Q 1534 4250 1286 3958 
Q 1038 3666 1038 3163 
Q 1038 2656 1286 2365 
Q 1534 2075 1959 2075 
z
" transform="scale(0.015625)"/>
       </defs>
       <use xlink:href="#DejaVuSans-32"/>
       <use xlink:href="#DejaVuSans-30" x="63.623047"/>
       <use xlink:href="#DejaVuSans-31" x="127.246094"/>
       <use xlink:href="#DejaVuSans-39" x="190.869141"/>
      </g>
     </g>
    </g>
    <g id="xtick_8">
     <g id="line2d_8">
      <g>
       <use xlink:href="#m1b696f4bbd" x="351.708882" y="354.958125" style="stroke: #000000; stroke-width: 0.8"/>
      </g>
     </g>
     <g id="text_8">
      <!-- 2020 -->
      <g transform="translate(338.983882 369.556562)scale(0.1 -0.1)">
       <use xlink:href="#DejaVuSans-32"/>
       <use xlink:href="#DejaVuSans-30" x="63.623047"/>
       <use xlink:href="#DejaVuSans-32" x="127.246094"/>
       <use xlink:href="#DejaVuSans-30" x="190.869141"/>
      </g>
     </g>
    </g>
    <g id="xtick_9">
     <g id="line2d_9">
      <g>
       <use xlink:href="#m1b696f4bbd" x="397.62216" y="354.958125" style="stroke: #000000; stroke-width: 0.8"/>
      </g>
     </g>
     <g id="text_9">
      <!-- 2021 -->
      <g transform="translate(384.89716 369.556562)scale(0.1 -0.1)">
       <use xlink:href="#DejaVuSans-32"/>
       <use xlink:href="#DejaVuSans-30" x="63.623047"/>
       <use xlink:href="#DejaVuSans-32" x="127.246094"/>
       <use xlink:href="#DejaVuSans-31" x="190.869141"/>
      </g>
     </g>
    </g>
    <g id="xtick_10">
     <g id="line2d_10">
      <g>
       <use xlink:href="#m1b696f4bbd" x="443.409992" y="354.958125" style="stroke: #000000; stroke-width: 0.8"/>
      </g>
     </g>
     <g id="text_10">
      <!-- 2022 -->
      <g transform="translate(430.684992 369.556562)scale(0.1 -0.1)">
       <use xlink:href="#DejaVuSans-32"/>
       <use xlink:href="#DejaVuSans-30" x="63.623047"/>
       <use xlink:href="#DejaVuSans-32" x="127.246094"/>
       <use xlink:href="#DejaVuSans-32" x="190.869141"/>
      </g>
     </g>
    </g>
   </g>
   <g id="matplotlib.axis_2">
    <g id="ytick_1">
     <g id="line2d_11">
      <defs>
       <path id="mdfb62472b9" d="M 0 0 
L -3.5 0 
" style="stroke: #000000; stroke-width: 0.8"/>
      </defs>
      <g>
       <use xlink:href="#mdfb62472b9" x="20.5625" y="338.99915" style="stroke: #000000; stroke-width: 0.8"/>
      </g>
     </g>
     <g id="text_11">
      <!-- 0 -->
      <g transform="translate(7.2 342.798369)scale(0.1 -0.1)">
       <use xlink:href="#DejaVuSans-30"/>
      </g>
     </g>
    </g>
    <g id="ytick_2">
     <g id="line2d_12">
      <g>
       <use xlink:href="#mdfb62472b9" x="20.5625" y="270.097188" style="stroke: #000000; stroke-width: 0.8"/>
      </g>
     </g>
     <g id="text_12">
      <!-- 2 -->
      <g transform="translate(7.2 273.896407)scale(0.1 -0.1)">
       <use xlink:href="#DejaVuSans-32"/>
      </g>
     </g>
    </g>
    <g id="ytick_3">
     <g id="line2d_13">
      <g>
       <use xlink:href="#mdfb62472b9" x="20.5625" y="201.195227" style="stroke: #000000; stroke-width: 0.8"/>
      </g>
     </g>
     <g id="text_13">
      <!-- 4 -->
      <g transform="translate(7.2 204.994445)scale(0.1 -0.1)">
       <use xlink:href="#DejaVuSans-34"/>
      </g>
     </g>
    </g>
    <g id="ytick_4">
     <g id="line2d_14">
      <g>
       <use xlink:href="#mdfb62472b9" x="20.5625" y="132.293265" style="stroke: #000000; stroke-width: 0.8"/>
      </g>
     </g>
     <g id="text_14">
      <!-- 6 -->
      <g transform="translate(7.2 136.092484)scale(0.1 -0.1)">
       <use xlink:href="#DejaVuSans-36"/>
      </g>
     </g>
    </g>
    <g id="ytick_5">
     <g id="line2d_15">
      <g>
       <use xlink:href="#mdfb62472b9" x="20.5625" y="63.391303" style="stroke: #000000; stroke-width: 0.8"/>
      </g>
     </g>
     <g id="text_15">
      <!-- 8 -->
      <g transform="translate(7.2 67.190522)scale(0.1 -0.1)">
       <use xlink:href="#DejaVuSans-38"/>
      </g>
     </g>
    </g>
   </g>
   <g id="line2d_16">
    <path d="M 40.853409 338.846334 
L 40.978855 339.434326 
L 41.731532 339.053248 
L 41.856978 339.288656 
L 42.358762 339.653993 
L 42.484209 339.197924 
L 42.609655 339.334112 
L 42.735101 338.649573 
L 42.860547 338.864277 
L 43.236885 338.338842 
L 43.362331 338.436199 
L 43.487778 338.312338 
L 43.613224 338.462798 
L 43.73867 338.391911 
L 44.115008 339.297742 
L 44.240454 339.225118 
L 44.491346 339.838125 
L 44.616793 339.10743 
L 44.993131 339.498251 
L 45.118577 339.206986 
L 45.244023 339.479975 
L 45.369469 339.406966 
L 45.494915 339.489112 
L 45.9967 338.837366 
L 46.122146 339.053248 
L 46.373038 337.803892 
L 46.749376 336.758284 
L 46.874823 337.200078 
L 47.000269 335.482176 
L 47.125715 335.957256 
L 47.251161 335.710707 
L 47.627499 335.694333 
L 47.878392 334.773647 
L 48.129284 335.22284 
L 48.505622 335.45778 
L 48.631068 335.400924 
L 48.756514 334.981473 
L 49.007407 335.24707 
L 49.509191 335.069778 
L 49.634637 334.885398 
L 49.885529 335.677967 
L 50.261868 335.474042 
L 50.51276 337.795191 
L 50.763652 336.097755 
L 51.265437 336.690816 
L 51.390883 336.927535 
L 51.516329 336.447345 
L 51.641775 336.464081 
L 52.143559 336.213891 
L 52.269006 336.573063 
L 52.519898 337.838717 
L 53.021682 337.873578 
L 53.272574 336.472452 
L 53.398021 336.682391 
L 53.774359 336.547883 
L 53.899805 335.46591 
L 54.025251 335.506589 
L 54.777928 334.314505 
L 54.903374 334.646375 
L 55.02882 334.662258 
L 55.154266 334.298781 
L 55.656051 334.330236 
L 55.781497 333.962443 
L 56.032389 333.95466 
L 56.408727 333.637066 
L 56.534173 333.314733 
L 56.910512 334.188915 
L 57.28685 334.606699 
L 57.663188 333.360596 
L 57.788635 333.398862 
L 58.164973 333.03325 
L 58.415865 333.931322 
L 58.541311 332.514389 
L 58.666757 332.874507 
L 59.043096 332.784124 
L 59.168542 332.536787 
L 59.419434 334.283065 
L 59.54488 334.196751 
L 59.921219 334.424774 
L 60.046665 334.102836 
L 60.297557 331.608411 
L 60.423003 331.907764 
L 60.799341 331.900432 
L 60.924787 332.634011 
L 61.17568 332.320886 
L 61.301126 332.769083 
L 61.80291 332.92734 
L 61.928356 332.656486 
L 62.179249 332.934895 
L 62.806479 331.622953 
L 63.057371 331.995874 
L 63.559156 332.003227 
L 63.810048 330.4715 
L 63.935494 331.282819 
L 64.311833 331.695757 
L 64.437279 331.139093 
L 64.562725 331.499538 
L 64.688171 331.246831 
L 64.813617 331.333265 
L 65.189955 331.448848 
L 65.440848 330.874771 
L 65.566294 331.218068 
L 65.69174 331.067455 
L 66.068078 331.703046 
L 66.193524 332.239345 
L 66.31897 332.187556 
L 66.569863 330.59834 
L 66.946201 330.541909 
L 67.071647 330.846317 
L 67.197093 330.832099 
L 67.322539 330.443377 
L 67.447985 331.412686 
L 67.94977 331.031691 
L 68.326108 329.357291 
L 68.702447 329.685724 
L 68.827893 329.343674 
L 69.204231 330.331113 
L 69.706016 329.637632 
L 69.831462 329.782109 
L 70.082354 330.654863 
L 70.458692 330.387199 
L 70.835031 328.443382 
L 70.960477 328.562958 
L 71.462261 329.45959 
L 71.587707 331.652056 
L 71.713153 331.024543 
L 71.838599 331.239638 
L 72.214938 331.347691 
L 72.340384 331.160614 
L 72.716722 331.543046 
L 73.218507 332.261564 
L 73.343953 331.995874 
L 73.469399 332.180163 
L 73.594845 331.182148 
L 73.971183 331.340477 
L 74.347522 331.973825 
L 74.472968 331.812565 
L 74.849306 331.797943 
L 74.974752 332.150611 
L 75.100198 330.938879 
L 75.225645 330.889007 
L 75.351091 331.189329 
L 76.730998 330.072895 
L 76.98189 330.149461 
L 77.107336 330.492608 
L 77.483675 330.981684 
L 77.860013 330.633656 
L 77.985459 329.982627 
L 78.361797 330.697316 
L 78.487244 330.527816 
L 78.863582 331.448848 
L 79.490812 331.347691 
L 79.616259 331.060299 
L 79.741705 331.290021 
L 80.118043 331.16779 
L 80.368935 332.656486 
L 80.494381 332.261564 
L 80.996166 332.934895 
L 81.121612 333.467849 
L 81.372504 332.202345 
L 81.49795 332.581625 
L 81.874289 332.544256 
L 81.999735 332.069472 
L 82.250627 332.157997 
L 82.376073 331.68847 
L 82.877858 331.944449 
L 83.003304 332.231942 
L 83.12875 332.143227 
L 83.254196 331.849149 
L 83.630534 331.732217 
L 83.75598 331.08893 
L 83.881427 329.268876 
L 84.006873 329.201019 
L 84.132319 329.740768 
L 84.508657 329.630767 
L 84.634103 329.330062 
L 84.884995 329.699477 
L 85.010442 329.473253 
L 85.38678 329.768323 
L 85.763118 330.661935 
L 85.888564 330.394216 
L 86.264903 330.121599 
L 86.390349 329.878765 
L 86.766687 330.282112 
L 87.143026 330.331113 
L 87.268472 330.910372 
L 87.64481 330.513728 
L 88.021148 330.527816 
L 88.272041 330.09376 
L 88.522933 330.853428 
L 89.024717 332.091581 
L 89.150163 331.499538 
L 89.401056 332.40262 
L 90.153732 332.040014 
L 90.655517 332.128463 
L 90.780963 331.499538 
L 90.906409 332.469638 
L 91.031855 331.77602 
L 91.157301 332.350585 
L 91.659086 332.313465 
L 91.784532 332.701481 
L 92.035424 331.907764 
L 92.411762 332.417502 
L 92.662655 333.307095 
L 92.788101 333.375898 
L 92.913547 332.851889 
L 93.289885 332.424945 
L 93.666223 333.67564 
L 93.79167 333.116694 
L 94.293454 332.995388 
L 94.4189 333.07874 
L 94.669792 331.849149 
L 95.171577 331.326054 
L 95.297023 332.106329 
L 95.547915 331.834511 
L 95.924254 331.885772 
L 96.0497 331.732217 
L 96.175146 331.768716 
L 96.426038 331.333265 
L 96.927822 331.463323 
L 97.053269 331.959134 
L 97.178715 332.972691 
L 97.304161 333.048407 
L 97.680499 333.071154 
L 97.805945 332.754049 
L 98.056838 332.708986 
L 98.182284 332.619035 
L 98.558622 332.574148 
L 99.060406 331.586608 
L 99.562191 331.074612 
L 100.314868 331.017396 
L 100.440314 331.297224 
L 100.56576 331.268419 
L 100.691206 331.746812 
L 100.816652 331.572081 
L 101.19299 331.732217 
L 101.443883 331.412686 
L 101.569329 331.6739 
L 101.694775 331.304429 
L 102.071113 331.470563 
L 102.447452 331.16779 
L 102.572898 331.383785 
L 102.949236 331.391008 
L 103.200128 330.832099 
L 103.45102 331.463323 
L 103.827359 331.232447 
L 103.952805 331.427146 
L 104.078251 331.096092 
L 104.203697 331.225257 
L 104.329143 329.9549 
L 104.956374 329.864941 
L 105.08182 329.480086 
L 105.207266 329.761433 
L 105.583604 329.452761 
L 105.834497 328.1923 
L 105.959943 327.969188 
L 106.085389 328.060883 
L 106.587173 328.028107 
L 106.963512 328.074002 
L 107.465296 328.008456 
L 107.590742 327.812563 
L 107.841634 327.039943 
L 108.217973 327.404778 
L 108.343419 327.734516 
L 108.468865 327.501432 
L 108.719757 327.773518 
L 109.096096 327.669613 
L 109.346988 327.199483 
L 109.472434 327.014485 
L 109.59788 327.052679 
L 110.099665 327.676097 
L 110.225111 327.346915 
L 110.350557 327.70854 
L 110.852341 327.527253 
L 111.103233 328.015005 
L 111.354126 327.37262 
L 111.730464 327.366192 
L 111.85591 327.637206 
L 111.981356 326.893816 
L 112.859479 328.937647 
L 112.984925 328.803361 
L 113.110371 328.074002 
L 113.48671 327.436966 
L 113.612156 326.735682 
L 113.737602 327.148349 
L 113.988494 326.271815 
L 114.364832 326.184755 
L 114.490279 325.820256 
L 114.615725 325.974234 
L 114.741171 325.691444 
L 114.866617 325.126711 
L 115.242955 324.976467 
L 115.493847 325.283664 
L 115.74474 324.832846 
L 116.246524 324.648218 
L 116.622863 324.305419 
L 116.999201 324.123588 
L 117.124647 324.334837 
L 117.250093 322.206465 
L 117.375539 322.112525 
L 117.500985 321.657521 
L 117.877324 321.451195 
L 118.128216 321.87605 
L 118.379108 321.348493 
L 118.755446 321.712023 
L 119.006339 321.095749 
L 119.257231 320.797008 
L 119.633569 320.1498 
L 119.759015 320.280366 
L 119.884462 320.653893 
L 120.009908 320.322252 
L 120.135354 320.791697 
L 120.511692 320.553538 
L 120.637138 321.138639 
L 120.88803 319.874627 
L 121.515261 319.198694 
L 121.640707 319.417432 
L 121.891599 319.422535 
L 122.393384 318.890756 
L 122.51883 318.765343 
L 123.14606 320.155013 
L 123.271507 320.076899 
L 123.522399 318.347268 
L 123.647845 319.001499 
L 124.275076 319.478723 
L 124.400522 320.014535 
L 124.525968 319.17335 
L 125.027752 319.926379 
L 125.153198 319.514527 
L 125.278644 318.391819 
L 125.780429 317.953763 
L 126.031321 318.555671 
L 126.156767 318.204102 
L 126.282213 319.29009 
L 126.658552 318.961188 
L 127.03489 317.453655 
L 127.160336 317.247001 
L 127.536675 317.705229 
L 127.662121 317.314148 
L 127.787567 317.472942 
L 127.913013 317.108327 
L 128.038459 317.175204 
L 128.66569 316.951201 
L 128.791136 317.060637 
L 128.916582 316.460653 
L 129.29292 316.381127 
L 129.418366 315.953909 
L 129.794705 316.213324 
L 130.171043 315.751445 
L 130.296489 315.788169 
L 130.421935 316.245888 
L 130.547381 315.995469 
L 130.672827 316.484078 
L 131.049166 316.134366 
L 131.174612 316.695622 
L 131.300058 316.690907 
L 131.425504 315.820334 
L 131.55095 316.18079 
L 131.927289 315.59124 
L 132.052735 315.990849 
L 132.303627 315.995469 
L 132.429073 315.687274 
L 132.930857 315.513694 
L 133.18175 316.79006 
L 133.307196 316.409174 
L 133.683534 315.884754 
L 133.934426 316.074109 
L 134.059872 315.866336 
L 134.561657 315.765212 
L 134.687103 316.204025 
L 134.812549 315.880148 
L 134.937995 316.139006 
L 135.063441 315.838727 
L 135.43978 316.343767 
L 135.565226 316.26451 
L 135.690672 316.530976 
L 135.816118 316.217974 
L 135.941564 316.936952 
L 136.317903 316.898985 
L 136.443349 316.610848 
L 136.568795 316.690907 
L 136.694241 316.549753 
L 136.819687 316.6485 
L 137.321471 317.323751 
L 137.572364 318.735312 
L 137.69781 317.826835 
L 138.074148 317.559866 
L 138.199594 317.958654 
L 138.32504 317.792742 
L 138.575933 316.601442 
L 138.952271 316.620257 
L 139.077717 316.409174 
L 139.328609 317.074937 
L 139.454055 316.681478 
L 139.830394 316.695622 
L 139.95584 317.280558 
L 140.081286 318.915894 
L 140.206732 318.805426 
L 140.332178 318.396773 
L 140.833963 318.376962 
L 140.959409 317.817091 
L 141.210301 318.179479 
L 141.712085 318.095889 
L 141.837532 317.851208 
L 142.088424 318.273142 
L 142.590208 318.900809 
L 142.715654 318.580565 
L 142.966547 318.650365 
L 143.342885 318.610462 
L 143.844669 318.174556 
L 144.346454 317.875598 
L 145.224577 319.694107 
L 145.350023 319.555491 
L 145.475469 319.833282 
L 145.977253 320.066497 
L 146.1027 319.488949 
L 146.228146 319.9212 
L 146.479038 319.244362 
L 146.980822 318.971261 
L 147.231715 319.051954 
L 147.357161 319.407227 
L 147.858945 319.993772 
L 148.109837 319.320609 
L 148.235283 319.586247 
L 148.611622 319.658116 
L 148.98796 318.735312 
L 149.113406 318.486063 
L 149.489745 318.710305 
L 149.740637 318.199176 
L 149.866083 318.510907 
L 149.991529 318.401728 
L 150.493314 318.456274 
L 150.61876 318.680322 
L 150.869652 317.146526 
L 151.24599 316.970209 
L 151.371436 316.714489 
L 151.496882 316.083372 
L 152.249559 319.68382 
L 152.500451 318.635396 
L 152.625897 318.94105 
L 153.002236 318.580565 
L 153.127682 319.295174 
L 153.253128 318.645374 
L 153.378574 318.615447 
L 153.50402 319.269759 
L 154.005805 318.510907 
L 154.256697 319.203766 
L 154.382143 318.850574 
L 154.758481 319.092372 
L 155.009374 318.1352 
L 155.13482 317.934205 
L 155.260266 319.072157 
L 155.636604 318.367061 
L 155.76205 318.830501 
L 155.887496 318.800413 
L 156.012943 318.925954 
L 156.138389 318.820469 
L 156.640173 319.797145 
L 156.891065 318.273142 
L 157.39285 317.309348 
L 157.518296 317.58889 
L 157.643742 317.299748 
L 157.894634 316.56854 
L 158.270973 316.343767 
L 158.521865 317.179986 
L 158.772757 316.827908 
L 159.149095 316.521591 
L 159.399988 316.856321 
L 159.65088 316.465337 
L 160.027218 316.18079 
L 160.152664 316.465337 
L 160.278111 316.245888 
L 160.529003 316.334433 
L 161.030787 316.278484 
L 161.156233 316.676765 
L 161.281679 316.451288 
L 161.783464 317.189551 
L 161.90891 316.563842 
L 162.034356 317.141749 
L 162.159802 316.861059 
L 162.285248 318.125368 
L 162.661587 317.371807 
L 162.912479 316.498141 
L 163.037925 316.540363 
L 163.163371 315.440868 
L 163.539709 315.034069 
L 163.790602 314.614257 
L 164.041494 314.734318 
L 164.417832 315.065537 
L 164.543278 314.82799 
L 164.794171 315.737684 
L 164.919617 314.993652 
L 165.295955 315.133066 
L 165.421401 314.810128 
L 165.546847 315.282097 
L 165.672293 315.259475 
L 165.79774 315.788169 
L 166.174078 315.495473 
L 166.299524 315.838727 
L 166.42497 315.277572 
L 166.675862 316.306447 
L 167.177647 315.719345 
L 167.428539 315.209759 
L 167.930324 315.137573 
L 168.05577 314.82799 
L 168.181216 314.9488 
L 168.306662 315.318323 
L 168.808446 315.664384 
L 168.933892 315.59124 
L 169.310231 317.739236 
L 169.812015 316.59674 
L 169.937461 318.218885 
L 170.062907 318.213957 
L 170.188354 318.670333 
L 170.690138 318.436429 
L 170.815584 319.132837 
L 171.066476 317.92443 
L 171.442815 318.218885 
L 171.568261 318.169634 
L 171.819153 318.550694 
L 171.944599 317.36219 
L 172.320938 316.884758 
L 172.446384 317.261379 
L 172.57183 319.46339 
L 172.697276 319.188554 
L 172.822722 320.280366 
L 173.19906 321.49995 
L 173.324506 321.176211 
L 173.449953 321.224578 
L 173.575399 321.581362 
L 173.700845 320.791697 
L 174.328075 319.168283 
L 174.453521 319.310433 
L 174.578968 318.905837 
L 174.955306 318.43147 
L 175.080752 319.218984 
L 175.331644 318.815454 
L 175.45709 318.615447 
L 175.833429 319.407227 
L 175.958875 318.645374 
L 176.084321 318.620433 
L 176.335213 317.978226 
L 176.962444 317.75382 
L 177.08789 317.826835 
L 177.213336 317.141749 
L 177.71512 316.676765 
L 178.091459 315.824931 
L 178.593243 315.678116 
L 178.844136 315.898574 
L 179.34592 315.797356 
L 179.596812 315.327386 
L 179.722258 315.449963 
L 179.847704 315.110542 
L 180.474935 315.295678 
L 180.725827 315.778984 
L 181.102166 315.723929 
L 181.60395 314.747684 
L 181.980288 314.725411 
L 182.105735 315.151096 
L 182.231181 315.182672 
L 182.356627 315.413599 
L 182.482073 315.313793 
L 182.983857 315.191699 
L 183.109303 314.91296 
L 183.23475 315.614081 
L 183.360196 315.327386 
L 183.736534 315.273047 
L 183.86198 315.46816 
L 183.987426 315.413599 
L 184.112872 315.728513 
L 184.238318 315.545604 
L 184.614657 315.409056 
L 184.740103 314.890579 
L 184.865549 315.733099 
L 184.990995 315.609512 
L 185.116441 315.788169 
L 185.49278 314.886105 
L 185.618226 315.304734 
L 185.869118 313.629689 
L 185.994564 313.646949 
L 186.370902 314.059436 
L 186.621795 313.595194 
L 186.872687 313.418952 
L 187.499917 313.45327 
L 187.625364 313.243607 
L 188.127148 314.243385 
L 188.252594 313.768011 
L 188.503486 314.146908 
L 189.005271 314.66312 
L 189.130717 315.300206 
L 189.507055 314.256562 
L 189.883394 314.18196 
L 190.134286 314.287328 
L 190.259732 314.190728 
L 190.385178 314.85927 
L 190.761516 315.191699 
L 190.886963 314.428322 
L 191.012409 314.547736 
L 191.263301 313.742033 
L 191.765085 313.820026 
L 192.015978 313.363258 
L 192.141424 312.576112 
L 192.643208 312.325982 
L 192.768654 312.866023 
L 192.8941 312.664088 
L 193.019547 312.857586 
L 193.395885 312.752289 
L 193.772223 313.504811 
L 193.897669 313.290563 
L 194.399454 313.115869 
L 194.5249 313.243607 
L 194.650346 312.605412 
L 195.15213 312.588666 
L 195.528469 313.166907 
L 195.653915 312.836501 
L 196.155699 312.997072 
L 196.281145 313.149886 
L 196.532038 312.836501 
L 197.033822 312.937827 
L 197.159268 314.939837 
L 197.284714 315.14208 
L 197.410161 314.521164 
L 198.037391 314.904006 
L 198.162837 314.676459 
L 198.288283 314.930875 
L 198.664622 314.805664 
L 198.790068 315.083532 
L 199.04096 315.137573 
L 199.166406 314.904006 
L 199.668191 315.331918 
L 199.793637 315.59124 
L 200.044529 317.309348 
L 200.420867 316.960704 
L 200.546313 317.642163 
L 200.797206 317.530867 
L 200.922652 317.705229 
L 201.424436 317.501892 
L 201.549882 317.175204 
L 201.675328 317.160862 
L 201.800775 317.032055 
L 202.177113 317.773276 
L 202.428005 317.314148 
L 202.678897 317.098784 
L 203.055236 317.108327 
L 203.180682 316.865797 
L 203.55702 317.535699 
L 203.933359 317.695519 
L 204.058805 318.125368 
L 204.184251 317.526036 
L 204.309697 317.632471 
L 204.435143 317.511548 
L 204.811481 318.179479 
L 204.936927 318.051718 
L 205.062374 318.372012 
L 205.18782 318.223814 
L 205.313266 317.851208 
L 205.689604 317.690665 
L 205.940496 319.488949 
L 206.191389 319.663255 
L 206.567727 319.859117 
L 206.693173 320.390425 
L 206.818619 319.905669 
L 206.944065 319.890144 
L 207.069511 320.066497 
L 207.44585 319.560615 
L 207.571296 319.776513 
L 207.947634 318.302773 
L 208.323973 318.164713 
L 208.449419 318.640385 
L 208.574865 319.668395 
L 208.825757 318.510907 
L 209.202095 318.461237 
L 209.327541 317.39586 
L 209.70388 317.098784 
L 210.33111 317.900006 
L 210.456556 317.680959 
L 210.582003 317.051107 
L 210.958341 316.884758 
L 211.083787 316.979716 
L 211.209233 315.155605 
L 211.460125 315.935454 
L 211.96191 315.953909 
L 212.087356 316.460653 
L 212.212802 316.409174 
L 212.338248 316.742809 
L 212.714587 316.761701 
L 212.840033 316.129727 
L 212.965479 316.166856 
L 213.216371 317.055872 
L 213.718155 317.089243 
L 213.969048 317.516377 
L 214.094494 317.622782 
L 214.596278 317.705229 
L 214.721724 317.290152 
L 214.972617 317.705229 
L 215.599847 317.555031 
L 215.850739 317.127421 
L 216.352524 317.017773 
L 216.47797 317.497066 
L 217.105201 316.92271 
L 217.230647 316.255198 
L 217.356093 316.695622 
L 217.606985 316.606145 
L 217.983323 316.45597 
L 218.359662 317.223052 
L 218.485108 316.587337 
L 219.112338 316.984471 
L 219.363231 316.269168 
L 219.739569 316.301785 
L 219.990461 314.926396 
L 220.115907 315.191699 
L 220.241353 315.00263 
L 220.743138 314.774432 
L 220.868584 314.975704 
L 220.99403 315.427231 
L 221.119476 315.29115 
L 221.495815 315.146588 
L 221.621261 316.083372 
L 221.746707 312.950514 
L 221.872153 313.397521 
L 221.997599 312.853368 
L 222.499384 313.209497 
L 222.62483 313.001308 
L 222.750276 313.06915 
L 222.875722 312.895571 
L 223.25206 312.895571 
L 223.377506 312.743879 
L 223.502952 312.189181 
L 223.628399 312.209874 
L 223.753845 312.08178 
L 224.255629 312.752289 
L 224.506521 312.530118 
L 225.008306 312.904018 
L 225.133752 312.551017 
L 225.384644 312.592852 
L 226.137321 312.878684 
L 226.388213 312.659893 
L 226.889998 312.546836 
L 227.14089 313.115869 
L 227.76812 312.664088 
L 227.893566 312.722863 
L 228.144459 312.106535 
L 228.646243 311.679943 
L 228.897135 311.37151 
L 229.022581 311.52944 
L 229.39892 311.724815 
L 229.649812 311.266624 
L 229.775258 311.319027 
L 229.900704 311.077829 
L 230.527935 311.053802 
L 230.653381 311.602576 
L 231.280612 311.335167 
L 231.406058 311.991163 
L 231.65695 311.647346 
L 232.033288 311.867977 
L 232.28418 313.634003 
L 232.409627 313.001308 
L 233.162303 314.103145 
L 233.287749 313.384668 
L 233.789534 313.811351 
L 234.165872 314.600942 
L 234.291318 314.155668 
L 234.667657 313.989618 
L 234.918549 313.32903 
L 235.043995 313.401806 
L 235.169441 313.655582 
L 235.545779 313.10737 
L 235.671226 313.371821 
L 236.047564 315.304734 
L 236.423902 315.020592 
L 236.549348 315.187185 
L 236.674795 314.877158 
L 236.800241 315.065537 
L 236.925687 314.649787 
L 237.302025 314.326924 
L 237.678363 315.070035 
L 237.80381 314.819058 
L 238.180148 314.921917 
L 238.43104 315.236868 
L 238.556486 315.101536 
L 238.681932 315.309263 
L 239.058271 315.14208 
L 239.183717 315.354588 
L 239.309163 314.962249 
L 239.434609 316.932204 
L 239.560055 316.329767 
L 239.936393 316.111178 
L 240.187286 315.345518 
L 240.312732 314.886105 
L 240.438178 315.11955 
L 241.065409 314.50346 
L 241.190855 314.481344 
L 241.316301 314.278535 
L 241.692639 314.300522 
L 241.818085 314.792275 
L 241.943531 314.291725 
L 242.068977 314.881631 
L 242.570762 314.565463 
L 242.696208 316.115814 
L 242.821654 315.632365 
L 243.072546 316.423206 
L 243.448885 316.325102 
L 243.574331 315.418142 
L 243.825223 316.908473 
L 243.950669 316.559145 
L 244.327008 316.348435 
L 244.452454 316.512209 
L 244.5779 316.297123 
L 244.703346 316.306447 
L 244.828792 315.953909 
L 245.330576 315.481814 
L 245.581469 314.583198 
L 245.706915 314.195113 
L 246.083253 314.66312 
L 246.208699 314.151288 
L 246.334145 314.50346 
L 246.459591 314.238994 
L 246.585038 314.445987 
L 247.086822 314.667566 
L 247.337714 314.423907 
L 247.46316 314.340133 
L 247.839499 313.854746 
L 248.090391 313.902543 
L 248.341283 313.595194 
L 248.968514 312.946284 
L 249.09396 312.6096 
L 249.219406 312.777531 
L 249.595744 312.82807 
L 249.72119 313.098873 
L 249.972083 312.899795 
L 250.097529 312.580296 
L 250.724759 313.247873 
L 250.850205 313.026733 
L 250.975652 313.552125 
L 251.35199 313.393236 
L 251.477436 313.073394 
L 251.602882 313.145632 
L 251.728328 312.916693 
L 251.853774 313.307654 
L 252.230113 313.824364 
L 252.355559 313.590885 
L 252.481005 313.603815 
L 252.606451 315.043057 
L 252.731897 314.476922 
L 253.108236 314.703151 
L 253.484574 314.406254 
L 253.61002 314.667566 
L 253.986358 314.649787 
L 254.111804 313.902543 
L 254.237251 314.278535 
L 254.488143 313.474736 
L 254.864481 312.946284 
L 255.115373 313.75935 
L 255.366266 313.898195 
L 255.742604 313.642633 
L 255.993496 312.176772 
L 256.118942 312.147834 
L 256.244388 311.794276 
L 256.620727 310.270161 
L 256.746173 310.953868 
L 256.871619 312.551017 
L 257.122511 311.23844 
L 257.49885 311.262596 
L 257.624296 311.484822 
L 257.749742 311.23844 
L 257.875188 311.24649 
L 258.000634 310.802523 
L 258.376972 310.505751 
L 258.753311 309.233297 
L 258.878757 309.059072 
L 259.505987 308.713244 
L 259.75688 308.404197 
L 260.258664 308.897003 
L 260.509556 308.478413 
L 260.635002 307.743353 
L 261.011341 308.11995 
L 261.136787 307.812513 
L 261.262233 307.951252 
L 261.387679 307.381621 
L 261.513125 305.586821 
L 262.01491 305.549268 
L 262.140356 305.307864 
L 262.265802 305.416456 
L 262.391248 304.217372 
L 262.893033 303.515527 
L 263.143925 303.751129 
L 263.269371 303.422377 
L 263.645709 303.60248 
L 263.896601 304.289666 
L 264.022048 304.577048 
L 264.147494 305.368905 
L 264.523832 306.7258 
L 264.649278 305.806123 
L 264.774724 305.909404 
L 264.90017 307.64531 
L 265.025616 306.870857 
L 265.401955 306.655261 
L 265.527401 307.266665 
L 265.652847 306.956052 
L 265.903739 307.177121 
L 266.53097 307.525858 
L 266.781862 306.757589 
L 267.1582 306.750522 
L 267.283647 307.363634 
L 267.534539 310.30148 
L 267.659985 311.34324 
L 268.036323 310.945886 
L 268.161769 310.632061 
L 268.287215 311.033792 
L 268.412662 311.013793 
L 268.538108 310.568848 
L 268.914446 310.411322 
L 269.039892 311.021791 
L 269.165338 310.925939 
L 269.290784 311.262596 
L 269.416231 310.679547 
L 269.918015 311.186159 
L 270.043461 310.580692 
L 270.294353 311.982937 
L 270.670692 309.780605 
L 270.796138 311.093856 
L 270.921584 311.125933 
L 271.04703 310.383829 
L 271.548814 311.647346 
L 271.674261 311.298862 
L 271.925153 309.993445 
L 272.050599 310.191988 
L 272.426937 311.383633 
L 272.552383 310.624153 
L 272.677829 310.818423 
L 272.803276 310.663711 
L 272.928722 310.985815 
L 273.430506 311.013793 
L 273.555952 310.913976 
L 273.806845 312.044681 
L 274.183183 311.74523 
L 274.434075 312.937827 
L 274.684967 311.888477 
L 275.061306 312.538476 
L 275.312198 311.904887 
L 275.437644 312.371704 
L 275.56309 311.794276 
L 275.939428 311.950052 
L 276.315767 311.452409 
L 276.441213 310.501812 
L 276.817551 310.846265 
L 277.068444 311.274681 
L 277.19389 311.2908 
L 277.319336 310.941896 
L 277.695674 310.525457 
L 277.82112 311.178123 
L 278.072012 307.112794 
L 278.197459 307.041459 
L 278.699243 307.367231 
L 278.824689 306.782335 
L 278.950135 307.64531 
L 279.45192 306.722269 
L 279.577366 306.754056 
L 279.953704 305.806123 
L 280.455489 305.710007 
L 280.706381 306.172443 
L 280.831827 306.165495 
L 281.459058 306.423504 
L 281.584504 306.207203 
L 281.70995 306.500583 
L 282.086288 306.984498 
L 282.211734 306.885041 
L 282.462626 307.28819 
L 282.588073 307.442848 
L 282.964411 307.696112 
L 283.340749 307.460877 
L 283.466195 307.237986 
L 283.842534 306.945391 
L 283.96798 306.224596 
L 284.218872 306.472534 
L 284.344318 306.026831 
L 284.720657 306.009537 
L 285.096995 305.406261 
L 285.222441 305.655203 
L 285.598779 305.484501 
L 285.975118 306.395518 
L 286.100564 306.577835 
L 286.602348 306.109962 
L 286.85324 306.775263 
L 286.978687 306.708152 
L 287.355025 306.665833 
L 287.731363 305.902509 
L 287.856809 306.46903 
L 288.233148 306.899232 
L 288.358594 306.437505 
L 288.48404 306.991613 
L 288.734932 306.584867 
L 289.111271 306.238517 
L 289.236717 305.971521 
L 289.487609 303.502664 
L 289.613055 303.61538 
L 289.989393 303.560586 
L 290.240286 303.014215 
L 290.365732 303.268749 
L 290.491178 302.992033 
L 290.992962 302.620233 
L 291.118408 303.09991 
L 291.871085 301.313427 
L 291.996531 301.265185 
L 292.121977 301.747618 
L 292.247423 301.401038 
L 292.623762 301.446442 
L 292.874654 300.691486 
L 293.125546 300.520044 
L 293.501885 301.063901 
L 293.627331 301.007034 
L 293.878223 301.21701 
L 294.003669 301.120862 
L 294.380007 301.346633 
L 294.756346 302.354876 
L 294.881792 302.679829 
L 295.25813 302.629636 
L 295.383576 302.859237 
L 295.634469 304.454535 
L 295.759915 304.083048 
L 296.136253 304.309408 
L 296.261699 303.880912 
L 296.512591 305.981885 
L 296.638037 306.023372 
L 297.139822 306.535676 
L 297.265268 307.098515 
L 297.390714 306.595417 
L 297.51616 308.094225 
L 297.892499 308.433865 
L 298.268837 306.775263 
L 298.394283 306.995171 
L 298.770621 306.906329 
L 298.896068 306.750522 
L 299.021514 305.675744 
L 299.14696 306.064908 
L 299.272406 306.995171 
L 299.899636 307.68159 
L 300.150529 308.289478 
L 300.526867 308.998678 
L 300.652313 311.005797 
L 300.777759 310.14127 
L 301.028651 310.360281 
L 301.40499 309.776747 
L 301.655882 308.127303 
L 301.781328 308.307955 
L 301.906774 307.878162 
L 302.283113 307.907379 
L 302.408559 309.385516 
L 302.659451 309.149862 
L 302.784897 309.742048 
L 303.286682 309.711233 
L 303.537574 307.907379 
L 304.039358 309.33978 
L 304.164804 308.957219 
L 304.541143 310.427042 
L 304.917481 311.093856 
L 305.293819 308.806876 
L 305.419265 308.803126 
L 305.795604 308.619865 
L 306.046496 308.653452 
L 306.171942 309.066629 
L 306.297388 308.061179 
L 306.673727 307.414022 
L 306.799173 306.708152 
L 307.050065 307.295368 
L 307.175511 306.824797 
L 307.551849 306.963162 
L 307.928188 308.735692 
L 308.053634 307.65619 
L 308.555418 308.919571 
L 308.806311 308.829385 
L 308.931757 308.079534 
L 309.308095 308.326443 
L 309.433541 308.223041 
L 309.684433 307.23082 
L 309.80988 306.892136 
L 310.311664 306.542699 
L 310.562556 306.973828 
L 310.688002 306.870857 
L 311.064341 306.973828 
L 311.315233 305.382484 
L 311.440679 305.365511 
L 311.566125 304.45123 
L 312.06791 304.181283 
L 312.193356 303.985092 
L 312.318802 304.03077 
L 312.444248 303.78677 
L 312.946032 304.191122 
L 313.071479 303.351879 
L 313.322371 304.543893 
L 313.949601 305.084967 
L 314.200494 306.113431 
L 314.827724 305.481096 
L 315.078616 305.833635 
L 315.454955 305.240167 
L 315.580401 304.713316 
L 315.705847 304.666725 
L 315.831293 303.760845 
L 315.956739 304.217372 
L 316.458524 303.887414 
L 316.834862 302.764695 
L 317.2112 302.935058 
L 317.336646 302.626502 
L 317.712985 301.072888 
L 318.089323 300.831042 
L 318.214769 301.628659 
L 318.340215 301.440385 
L 318.591108 300.691486 
L 319.092892 300.464067 
L 319.218338 300.437583 
L 319.343784 301.446442 
L 319.971015 301.507074 
L 320.096461 301.376847 
L 320.221907 301.488873 
L 320.347353 301.830216 
L 320.723692 301.909943 
L 320.849138 301.628659 
L 320.974584 302.379764 
L 321.225476 301.86699 
L 321.601814 302.178069 
L 321.72726 303.512311 
L 321.978153 303.780287 
L 322.103599 303.667031 
L 322.479937 304.3127 
L 322.981722 302.906605 
L 323.35806 302.849771 
L 323.483506 302.255504 
L 323.734398 307.721541 
L 323.859844 307.51502 
L 324.361629 308.803126 
L 324.612521 308.057509 
L 324.737967 308.278396 
L 325.114306 308.072191 
L 325.239752 306.991613 
L 325.490644 307.20217 
L 325.61609 307.016527 
L 326.243321 307.169968 
L 326.494213 306.009537 
L 326.870551 305.854283 
L 327.121443 306.322162 
L 327.246889 305.389276 
L 327.87412 306.500583 
L 328.250458 305.569746 
L 329.128581 304.45784 
L 329.630366 304.246929 
L 329.755812 304.836755 
L 330.006704 303.422377 
L 330.383042 303.24002 
L 330.884827 305.031148 
L 331.512057 304.930463 
L 331.637504 305.182729 
L 331.76295 304.686685 
L 332.264734 304.606914 
L 332.515626 306.057982 
L 332.641072 306.148131 
L 333.017411 306.916978 
L 333.393749 305.720292 
L 333.519195 306.385029 
L 333.895534 307.259493 
L 334.02098 307.080675 
L 334.146426 308.164094 
L 334.271872 308.241483 
L 334.773656 307.630809 
L 334.899103 306.623566 
L 335.024549 303.230449 
L 335.149995 303.179448 
L 335.275441 303.74789 
L 335.651779 303.744652 
L 335.777225 303.861413 
L 335.902671 303.173078 
L 336.028118 301.796541 
L 336.153564 301.916083 
L 336.655348 302.230706 
L 336.780794 302.002165 
L 337.031686 301.153882 
L 337.408025 301.129864 
L 337.533471 300.983118 
L 337.658917 301.522249 
L 337.784363 301.404063 
L 337.909809 301.561734 
L 338.411594 301.75373 
L 338.53704 301.793482 
L 338.787932 302.298944 
L 339.289717 302.59204 
L 339.415163 302.364207 
L 339.540609 302.373541 
L 339.666055 302.742673 
L 340.042393 302.610833 
L 340.167839 302.748964 
L 340.293285 303.760845 
L 340.418732 303.754367 
L 340.544178 303.415962 
L 340.920516 303.157159 
L 341.171408 303.777046 
L 341.4223 302.345548 
L 341.798639 302.389102 
L 341.924085 301.848598 
L 342.174977 301.793482 
L 342.300423 301.72013 
L 342.676762 301.992931 
L 342.802208 301.833279 
L 343.0531 302.326899 
L 343.178546 302.106982 
L 343.554884 302.088462 
L 343.680331 302.745818 
L 343.931223 302.097721 
L 344.056669 301.686562 
L 344.809346 301.793482 
L 344.934792 301.36778 
L 345.436576 301.271211 
L 345.562022 301.717077 
L 345.812915 300.911469 
L 346.189253 301.060905 
L 346.314699 301.54958 
L 346.440145 300.229366 
L 346.565591 300.467011 
L 346.691037 300.121355 
L 347.067376 300.472899 
L 347.318268 300.045658 
L 348.070945 301.201969 
L 348.321837 300.89358 
L 348.823621 300.217673 
L 348.949067 300.626356 
L 349.19996 300.121355 
L 349.325406 300.034027 
L 349.701744 299.577716 
L 349.952636 299.799341 
L 350.078082 299.540439 
L 350.203529 299.678278 
L 350.956205 299.678278 
L 351.081651 299.534708 
L 351.583436 299.669647 
L 351.834328 299.468866 
L 351.959774 299.715704 
L 352.336112 299.50034 
L 352.461559 299.707064 
L 352.712451 299.017109 
L 352.837897 299.314774 
L 353.214235 299.300541 
L 353.465128 299.738756 
L 353.590574 299.810893 
L 353.71602 298.929716 
L 354.217804 299.33471 
L 354.468696 298.831313 
L 354.594143 299.534708 
L 354.970481 299.669647 
L 355.095927 299.272093 
L 355.346819 299.681155 
L 355.472265 300.697413 
L 355.848604 300.419938 
L 356.099496 298.994535 
L 356.350388 299.178379 
L 356.726726 299.255035 
L 356.977619 298.186051 
L 357.103065 298.257766 
L 357.228511 298.078757 
L 357.730295 298.685631 
L 357.855742 298.626972 
L 357.981188 297.764309 
L 358.106634 298.108985 
L 358.482972 298.775208 
L 358.984757 303.689652 
L 359.361095 302.274115 
L 359.486541 303.052276 
L 359.611987 301.583014 
L 359.862879 304.099401 
L 360.239218 307.932965 
L 360.364664 304.524016 
L 360.49011 306.175917 
L 360.615556 309.542242 
L 360.741002 307.112794 
L 361.117341 316.917963 
L 361.242787 316.353103 
L 361.368233 320.712128 
L 361.493679 318.233674 
L 361.619125 320.009343 
L 361.995463 319.269759 
L 362.246356 312.003506 
L 362.371802 310.24278 
L 362.497248 310.687468 
L 362.873586 310.008976 
L 362.999032 311.057805 
L 363.124478 313.388952 
L 363.249924 312.359228 
L 363.375371 312.634737 
L 364.128047 307.536701 
L 364.629832 307.576484 
L 364.755278 306.203726 
L 365.00617 308.590038 
L 365.131616 306.895684 
L 365.507955 307.601825 
L 365.633401 308.52302 
L 365.758847 307.667073 
L 365.884293 307.68522 
L 366.009739 306.315184 
L 366.511523 304.690013 
L 366.63697 303.822449 
L 366.887862 304.378597 
L 367.2642 303.438419 
L 367.389646 302.551356 
L 367.515092 302.717522 
L 367.765985 301.298344 
L 368.142323 301.552618 
L 368.393215 302.463894 
L 368.518661 302.476375 
L 368.644107 301.434329 
L 369.145892 300.511199 
L 369.271338 300.475844 
L 369.52223 298.960701 
L 370.024015 298.585133 
L 370.149461 297.374569 
L 370.274907 297.344978 
L 370.400353 296.750498 
L 370.776691 297.023804 
L 371.027584 296.098608 
L 371.15303 297.194724 
L 371.278476 296.587023 
L 371.654814 296.629136 
L 371.78026 296.957268 
L 371.905706 296.816635 
L 372.031153 298.487708 
L 372.156599 297.906138 
L 372.532937 297.450007 
L 372.783829 295.377458 
L 373.034721 295.842811 
L 373.41106 295.614463 
L 373.536506 295.727165 
L 373.661952 296.322367 
L 373.787398 296.377227 
L 373.912844 296.999836 
L 374.540075 295.382537 
L 375.167305 295.349532 
L 375.292752 295.537831 
L 375.418198 295.35207 
L 375.543644 295.387618 
L 375.66909 294.928332 
L 376.045428 295.14964 
L 376.29632 293.991119 
L 376.547213 293.226341 
L 376.923551 293.295603 
L 377.048997 293.081103 
L 377.174443 292.250127 
L 377.299889 292.726545 
L 377.801674 292.115869 
L 377.92712 292.443169 
L 378.178012 292.097392 
L 378.303458 292.164419 
L 378.679797 291.851206 
L 378.805243 291.989037 
L 379.056135 291.640929 
L 379.181581 291.280515 
L 379.683366 291.035599 
L 379.808812 290.423121 
L 380.059704 290.930528 
L 380.436042 290.033815 
L 380.561488 290.142727 
L 380.812381 289.996864 
L 380.937827 289.321375 
L 381.439611 288.438076 
L 381.565057 287.522224 
L 381.815949 288.523312 
L 382.192288 288.694419 
L 382.44318 287.502011 
L 382.694072 290.47595 
L 383.195857 291.064718 
L 383.321303 289.791095 
L 383.446749 290.051218 
L 383.572195 289.285179 
L 383.948533 288.589984 
L 384.07398 287.798305 
L 384.324872 288.885307 
L 384.450318 289.668221 
L 384.826656 289.775982 
L 384.952102 289.357609 
L 385.077548 289.990347 
L 385.202995 290.009901 
L 385.704779 289.136537 
L 385.830225 289.206531 
L 386.081117 288.179503 
L 386.206564 288.319926 
L 386.582902 287.89832 
L 386.708348 288.63172 
L 387.084686 286.952741 
L 387.461025 287.052322 
L 387.586471 286.537616 
L 387.711917 286.877251 
L 387.962809 286.075049 
L 388.339147 286.576937 
L 388.464594 286.193514 
L 388.715486 287.348779 
L 388.840932 287.170198 
L 389.21727 287.982229 
L 389.719055 290.1013 
L 390.095393 289.640259 
L 390.346285 287.963792 
L 390.471731 287.753494 
L 390.597178 287.902408 
L 390.973516 291.129764 
L 391.224408 290.123098 
L 391.349854 290.127459 
L 391.851639 289.283051 
L 391.977085 289.719904 
L 392.102531 292.670152 
L 392.353423 291.929242 
L 392.855208 290.792412 
L 393.231546 290.856945 
L 393.607884 290.601744 
L 393.858777 291.499941 
L 393.984223 291.463651 
L 394.109669 291.913162 
L 394.486007 291.459117 
L 394.611453 291.629538 
L 394.736899 289.661766 
L 394.862345 289.642409 
L 394.987792 290.162368 
L 395.36413 289.670373 
L 395.489576 288.980095 
L 395.865914 289.007526 
L 396.367699 288.711158 
L 396.493145 289.170455 
L 396.618591 289.098418 
L 397.120376 289.253273 
L 397.245822 289.57367 
L 398.123944 289.49222 
L 398.374837 288.900035 
L 398.500283 288.619194 
L 398.876621 288.355121 
L 399.127513 287.635637 
L 399.378406 287.330678 
L 399.88019 287.447496 
L 400.005636 287.120201 
L 400.256528 287.118203 
L 400.632867 286.780153 
L 400.758313 286.859396 
L 400.883759 288.068398 
L 401.009205 287.130195 
L 401.134651 288.245513 
L 401.51099 288.971659 
L 402.012774 286.596614 
L 402.389112 285.79123 
L 402.765451 286.459109 
L 402.890897 286.179899 
L 403.392681 286.788069 
L 403.518127 286.185733 
L 403.76902 286.106082 
L 404.145358 287.116205 
L 404.521696 290.009901 
L 404.647142 289.743618 
L 405.148927 289.039205 
L 405.399819 291.057996 
L 405.525265 289.996864 
L 405.901604 289.066684 
L 406.277942 287.449513 
L 406.905172 286.537616 
L 407.030619 286.712939 
L 407.156065 286.628121 
L 407.281511 285.729755 
L 407.657849 285.272156 
L 407.783295 285.555532 
L 407.908741 285.502102 
L 408.159634 283.478639 
L 408.535972 284.020472 
L 408.786864 283.736714 
L 408.91231 283.53082 
L 409.539541 283.016083 
L 409.664987 283.110234 
L 409.790433 283.014309 
L 409.915879 282.259853 
L 410.292218 281.890448 
L 410.417664 282.050497 
L 410.668556 281.223886 
L 410.794002 280.609657 
L 411.295786 281.52836 
L 411.421233 281.335214 
L 411.672125 281.842406 
L 412.173909 282.166264 
L 412.299355 282.68769 
L 412.424802 282.272003 
L 412.550248 282.654321 
L 413.052032 281.950594 
L 413.177478 282.002232 
L 413.42837 280.584852 
L 413.804709 280.107122 
L 414.055601 282.779184 
L 414.181047 281.943715 
L 414.933724 283.639032 
L 415.05917 283.156515 
L 415.560954 283.649872 
L 415.811847 283.122688 
L 415.937293 283.09245 
L 416.062739 282.904503 
L 416.940862 283.785659 
L 417.3172 283.724036 
L 417.442646 283.516418 
L 417.568092 283.660715 
L 417.693538 283.991261 
L 417.818984 283.622779 
L 418.195323 283.831041 
L 418.446215 284.465339 
L 419.073446 283.973017 
L 419.198892 283.458867 
L 419.324338 283.563248 
L 419.57523 283.290368 
L 419.951568 283.192158 
L 420.077015 283.016083 
L 420.202461 283.056909 
L 420.327907 282.729888 
L 420.955137 282.918652 
L 421.080583 282.719334 
L 421.20603 283.265342 
L 421.331476 282.816203 
L 421.707814 282.773899 
L 421.958706 283.276065 
L 422.209598 282.673636 
L 422.585937 283.247478 
L 422.962275 282.563157 
L 423.087721 281.857841 
L 423.46406 282.393744 
L 423.714952 283.338682 
L 423.840398 283.119129 
L 423.965844 283.285003 
L 424.342182 283.595706 
L 424.467629 283.060462 
L 424.593075 283.787473 
L 424.718521 283.646258 
L 425.220305 284.135733 
L 425.345751 283.818328 
L 425.471197 282.959362 
L 425.72209 283.676987 
L 426.098428 283.144048 
L 426.223874 285.202147 
L 426.474766 281.558956 
L 426.600213 280.616275 
L 426.976551 280.973869 
L 427.101997 281.423182 
L 427.227443 280.953813 
L 427.478335 281.00063 
L 427.854674 281.153228 
L 428.105566 281.416407 
L 428.231012 280.958826 
L 428.858243 281.126348 
L 429.109135 281.487608 
L 429.234581 281.264328 
L 429.610919 280.975541 
L 429.736365 281.291315 
L 430.112704 280.480862 
L 430.489042 281.106203 
L 430.614488 280.938778 
L 430.739934 280.503944 
L 430.990827 280.672579 
L 431.367165 280.218165 
L 431.492611 281.07936 
L 431.618057 280.80043 
L 431.743503 281.513072 
L 431.868949 281.370713 
L 432.370734 281.274445 
L 432.49618 281.320012 
L 432.621626 280.667607 
L 432.747072 280.957155 
L 433.248857 280.354189 
L 433.499749 279.27915 
L 433.625195 278.850495 
L 434.126979 278.265998 
L 434.503318 277.372028 
L 434.879656 276.915757 
L 435.005102 277.027396 
L 435.381441 276.61981 
L 435.757779 276.926161 
L 436.008671 276.549159 
L 436.134117 276.04123 
L 436.259563 276.367313 
L 436.761348 276.606552 
L 437.01224 276.841531 
L 437.137686 276.253416 
L 437.514025 276.458116 
L 437.639471 275.04167 
L 437.890363 274.677669 
L 438.015809 274.380927 
L 438.392147 273.992391 
L 438.517593 274.052513 
L 438.64304 273.954187 
L 438.893932 274.634525 
L 439.27027 274.510957 
L 439.395716 275.068422 
L 439.521162 274.962944 
L 439.646608 274.261016 
L 439.772055 274.495716 
L 440.148393 274.152492 
L 440.273839 273.375415 
L 440.399285 273.398219 
L 440.524731 273.209534 
L 440.650177 272.781154 
L 441.026516 273.331191 
L 441.151962 273.977377 
L 441.277408 273.291037 
L 441.5283 274.578934 
L 441.904639 274.923649 
L 442.280977 274.302318 
L 442.908207 273.765153 
L 443.033654 273.287024 
L 443.1591 273.445216 
L 443.284546 273.165523 
L 443.660884 273.563665 
L 443.78633 272.988711 
L 443.911776 273.66629 
L 444.037222 273.257611 
L 444.162669 274.164838 
L 444.539007 274.634525 
L 444.789899 274.215642 
L 444.915345 274.21839 
L 445.040791 275.236445 
L 445.542576 275.950073 
L 445.668022 276.490394 
L 445.793468 278.108715 
L 445.918914 277.941429 
L 446.295253 276.837083 
L 446.671591 277.802387 
L 446.671591 277.802387 
" clip-path="url(#p159e4dce64)" style="fill: none; stroke: #ff0000; stroke-width: 0.7; stroke-linecap: square"/>
   </g>
   <g id="line2d_17">
    <path d="M 40.853409 338.99915 
L 41.104301 338.99915 
L 41.606086 338.73606 
L 42.358762 338.73606 
L 42.484209 338.279991 
L 42.609655 338.416179 
L 42.735101 337.73164 
L 42.860547 337.946345 
L 43.236885 337.420909 
L 43.487778 337.518266 
L 44.3659 337.518266 
L 44.491346 337.766612 
L 44.616793 337.035917 
L 44.993131 337.426738 
L 45.118577 337.135473 
L 45.244023 337.408462 
L 45.369469 337.335453 
L 45.494915 337.417599 
L 45.9967 336.765853 
L 46.122146 336.981734 
L 46.373038 335.732378 
L 46.749376 334.686771 
L 46.874823 335.128565 
L 47.000269 333.410663 
L 47.125715 333.885743 
L 47.251161 333.639194 
L 47.627499 333.62282 
L 47.878392 332.702134 
L 49.007407 332.685652 
L 49.760083 332.50836 
L 50.638206 332.50836 
L 50.763652 331.754845 
L 51.390883 332.341155 
L 51.516329 331.860965 
L 51.641775 331.877701 
L 52.269006 331.702377 
L 53.021682 331.737238 
L 53.272574 330.336112 
L 53.398021 330.546052 
L 53.774359 330.411543 
L 53.899805 329.32957 
L 54.025251 329.370249 
L 54.903374 328.178165 
L 55.656051 328.20962 
L 55.781497 327.841827 
L 56.032389 327.834044 
L 56.408727 327.51645 
L 56.534173 327.194117 
L 56.910512 327.194117 
L 57.28685 327.611901 
L 57.663188 326.365798 
L 57.788635 326.404064 
L 58.164973 326.038452 
L 58.290419 326.496077 
L 58.415865 326.496077 
L 58.541311 325.079144 
L 58.666757 325.439262 
L 59.54488 325.439262 
L 59.921219 325.667285 
L 60.046665 325.345348 
L 60.297557 322.850922 
L 60.423003 323.150275 
L 62.053803 323.203112 
L 62.179249 323.398985 
L 62.931925 322.087043 
L 63.559156 322.094396 
L 63.935494 320.562669 
L 64.311833 320.562669 
L 64.437279 320.006005 
L 64.562725 320.36645 
L 64.813617 320.452883 
L 65.189955 320.568467 
L 65.440848 319.99439 
L 66.068078 319.99439 
L 66.193524 320.530688 
L 66.31897 320.478899 
L 66.569863 318.889683 
L 66.946201 318.833252 
L 67.071647 319.137661 
L 67.322539 319.137661 
L 67.447985 320.10697 
L 67.94977 319.725975 
L 68.326108 318.051574 
L 68.827893 318.380007 
L 70.082354 318.380007 
L 70.458692 318.112343 
L 70.835031 316.168527 
L 71.713153 316.168527 
L 71.838599 316.383622 
L 73.218507 316.383622 
L 73.343953 316.117932 
L 73.469399 316.302221 
L 73.594845 315.304206 
L 74.222076 315.462535 
L 74.347522 315.462535 
L 74.472968 315.301275 
L 74.849306 315.286652 
L 74.974752 315.639321 
L 75.100198 314.427589 
L 75.225645 314.377717 
L 75.351091 314.678039 
L 76.229214 314.065877 
L 77.609121 314.065877 
L 77.985459 313.803406 
L 81.121612 313.853873 
L 81.372504 312.588369 
L 81.49795 312.967649 
L 81.874289 312.93028 
L 81.999735 312.455496 
L 82.250627 312.544021 
L 82.376073 312.074494 
L 83.003304 312.330473 
L 83.12875 312.241758 
L 83.254196 311.947681 
L 83.630534 311.830749 
L 83.75598 311.187462 
L 83.881427 309.367408 
L 84.132319 309.299551 
L 84.508657 309.299551 
L 84.634103 308.998846 
L 85.888564 308.998846 
L 86.264903 308.726229 
L 86.390349 308.483395 
L 87.519364 308.476297 
L 87.64481 308.207645 
L 89.024717 308.221732 
L 89.150163 307.629688 
L 89.401056 307.629688 
L 90.028286 307.333398 
L 90.655517 307.421847 
L 90.780963 306.792922 
L 92.788101 306.861724 
L 92.913547 306.337716 
L 93.415331 305.910772 
L 93.666223 305.910772 
L 93.79167 305.351826 
L 94.293454 305.23052 
L 94.4189 305.313872 
L 94.669792 304.08428 
L 95.297023 303.561185 
L 95.924254 303.561185 
L 96.0497 303.407631 
L 96.175146 303.444129 
L 96.426038 303.008678 
L 97.680499 303.031426 
L 97.805945 302.71432 
L 98.056838 302.669257 
L 98.182284 302.579306 
L 98.558622 302.534419 
L 99.060406 301.54688 
L 99.562191 301.034883 
L 100.691206 301.034883 
L 100.816652 300.860152 
L 101.318436 301.020288 
L 101.569329 300.91169 
L 101.694775 300.542219 
L 102.071113 300.708353 
L 102.447452 300.40558 
L 102.572898 300.621574 
L 102.949236 300.628798 
L 103.200128 300.069888 
L 103.45102 300.701113 
L 103.827359 300.470236 
L 103.952805 300.664936 
L 104.078251 300.333882 
L 104.203697 300.463046 
L 104.329143 299.19269 
L 104.956374 299.102731 
L 105.08182 298.717876 
L 105.207266 298.999222 
L 105.583604 298.69055 
L 105.834497 297.43009 
L 105.959943 297.206978 
L 106.085389 297.298673 
L 106.712619 297.226696 
L 107.465296 297.16771 
L 107.590742 296.971817 
L 107.841634 296.199197 
L 108.468865 296.199197 
L 108.719757 296.471282 
L 109.096096 296.367377 
L 109.346988 295.897247 
L 110.852341 295.897247 
L 110.977787 296.176046 
L 111.103233 296.176046 
L 111.354126 295.533661 
L 111.730464 295.527233 
L 111.85591 295.798248 
L 111.981356 295.054857 
L 112.106802 295.328557 
L 112.734033 295.328557 
L 112.859479 295.862587 
L 112.984925 295.728302 
L 113.110371 294.998943 
L 113.48671 294.361906 
L 113.612156 293.660622 
L 113.737602 294.07329 
L 113.988494 293.196756 
L 114.364832 293.109695 
L 114.490279 292.745197 
L 114.615725 292.899175 
L 114.741171 292.616385 
L 114.866617 292.051652 
L 115.242955 291.901408 
L 115.493847 292.208604 
L 115.74474 291.757787 
L 116.246524 291.573158 
L 116.622863 291.23036 
L 116.999201 291.048529 
L 117.124647 291.259777 
L 117.250093 289.131405 
L 117.375539 289.037466 
L 117.500985 288.582462 
L 118.00277 288.376135 
L 118.128216 288.376135 
L 118.379108 287.848578 
L 118.755446 288.212109 
L 119.006339 287.595834 
L 119.257231 287.297094 
L 119.633569 286.649885 
L 119.759015 286.780451 
L 119.884462 287.153978 
L 120.637138 287.153978 
L 120.88803 285.889967 
L 121.515261 285.214034 
L 121.891599 285.219138 
L 122.393384 284.687359 
L 123.271507 284.609245 
L 123.522399 282.879613 
L 124.275076 282.879613 
L 124.400522 283.415425 
L 124.525968 282.57424 
L 125.027752 283.327269 
L 125.153198 282.915417 
L 125.278644 281.792709 
L 126.156767 281.354653 
L 126.282213 281.354653 
L 126.658552 281.02575 
L 127.03489 279.518218 
L 127.160336 279.311564 
L 127.536675 279.769792 
L 127.662121 279.378711 
L 127.787567 279.537505 
L 127.913013 279.17289 
L 128.038459 279.239766 
L 128.66569 279.015764 
L 128.791136 279.1252 
L 128.916582 278.525216 
L 129.29292 278.44569 
L 129.418366 278.018472 
L 129.794705 278.018472 
L 130.171043 277.556594 
L 130.672827 277.593317 
L 131.049166 277.593317 
L 131.174612 278.154573 
L 131.300058 278.149858 
L 131.425504 277.279285 
L 131.55095 277.639741 
L 131.927289 277.639741 
L 132.052735 278.03935 
L 132.303627 278.020863 
L 132.429073 277.712667 
L 133.18175 277.648615 
L 133.307196 277.267729 
L 133.683534 276.743309 
L 133.934426 276.932664 
L 134.059872 276.724891 
L 134.561657 276.623767 
L 134.687103 277.06258 
L 136.317903 277.06258 
L 136.443349 276.774444 
L 136.694241 276.854502 
L 137.572364 276.854502 
L 137.69781 275.946026 
L 138.074148 275.679057 
L 138.199594 276.077844 
L 138.32504 275.911933 
L 138.575933 274.720633 
L 140.206732 274.610164 
L 140.332178 274.201512 
L 140.833963 274.181701 
L 140.959409 273.62183 
L 141.210301 273.753611 
L 141.712085 273.670022 
L 141.837532 273.425341 
L 142.590208 273.425341 
L 142.715654 273.105097 
L 142.966547 273.169906 
L 143.342885 273.130003 
L 143.844669 272.694097 
L 144.4719 272.546744 
L 145.977253 272.546744 
L 146.1027 271.969196 
L 146.228146 272.401447 
L 146.479038 271.724609 
L 146.980822 271.496875 
L 147.733499 271.496875 
L 147.858945 271.657365 
L 148.109837 270.984202 
L 148.235283 271.24984 
L 148.611622 271.321709 
L 148.98796 270.398905 
L 149.113406 270.149656 
L 149.489745 270.373899 
L 149.866083 269.862769 
L 150.493314 269.917316 
L 150.61876 270.141363 
L 150.869652 268.607568 
L 151.24599 268.43125 
L 151.371436 268.17553 
L 152.124113 268.17553 
L 152.249559 268.847766 
L 152.375005 268.847766 
L 152.625897 268.692772 
L 153.002236 268.692772 
L 153.127682 269.407382 
L 153.253128 268.757581 
L 153.50402 268.727654 
L 154.131251 267.968803 
L 154.256697 267.968803 
L 154.382143 267.615611 
L 154.758481 267.857409 
L 155.009374 266.900237 
L 155.260266 266.699242 
L 155.636604 266.699242 
L 155.76205 267.162682 
L 156.640173 267.252707 
L 156.891065 265.728704 
L 157.39285 264.764909 
L 157.518296 265.044452 
L 157.643742 264.75531 
L 157.894634 264.024102 
L 158.396419 263.799329 
L 158.521865 263.799329 
L 158.772757 263.447251 
L 159.149095 263.140934 
L 159.274542 263.418861 
L 159.399988 263.418861 
L 159.65088 263.027877 
L 160.152664 262.74333 
L 161.90891 262.813215 
L 162.034356 263.391122 
L 162.159802 263.391122 
L 162.285248 264.655432 
L 162.661587 263.90187 
L 162.912479 263.028204 
L 163.037925 263.070427 
L 163.163371 261.970932 
L 163.539709 261.564133 
L 163.790602 261.14432 
L 164.794171 261.14432 
L 164.919617 260.400288 
L 165.546847 260.539702 
L 165.79774 260.539702 
L 166.299524 260.247007 
L 166.675862 260.247007 
L 167.177647 259.659904 
L 167.428539 259.150319 
L 167.930324 259.078133 
L 168.05577 258.76855 
L 170.188354 258.76855 
L 170.815584 258.534645 
L 171.066476 257.326238 
L 171.693707 257.326238 
L 171.819153 257.485113 
L 171.944599 256.296609 
L 172.446384 255.819177 
L 173.449953 255.867544 
L 173.575399 256.224328 
L 173.700845 255.434663 
L 174.328075 253.811249 
L 174.453521 253.953399 
L 174.578968 253.548802 
L 175.080752 253.074435 
L 175.331644 253.034294 
L 175.45709 252.834288 
L 175.833429 252.834288 
L 175.958875 252.072436 
L 176.084321 252.047495 
L 176.335213 251.405287 
L 176.962444 251.180881 
L 177.08789 251.253897 
L 177.213336 250.56881 
L 177.71512 250.103827 
L 178.091459 249.251992 
L 178.593243 249.105178 
L 178.844136 249.325635 
L 179.34592 249.224417 
L 179.596812 248.754447 
L 179.722258 248.877025 
L 179.847704 248.537603 
L 180.349489 248.682014 
L 180.600381 248.582261 
L 181.102166 248.527206 
L 181.60395 247.550962 
L 182.858411 247.487599 
L 182.983857 247.428867 
L 183.109303 247.150129 
L 183.736534 247.09579 
L 184.112872 247.605817 
L 184.238318 247.422908 
L 184.614657 247.28636 
L 184.740103 246.767883 
L 184.990995 246.767883 
L 185.116441 246.94654 
L 185.49278 246.044477 
L 185.618226 246.463106 
L 185.869118 244.78806 
L 186.370902 244.80532 
L 186.621795 244.341079 
L 186.872687 244.164836 
L 187.75081 244.259293 
L 189.130717 244.259293 
L 189.507055 243.21565 
L 190.385178 243.141047 
L 190.761516 243.473476 
L 190.886963 242.710099 
L 191.012409 242.829513 
L 191.263301 242.023811 
L 191.765085 242.101803 
L 192.015978 241.645035 
L 192.141424 240.857889 
L 192.643208 240.665961 
L 193.772223 240.665961 
L 193.897669 240.451713 
L 194.399454 240.277018 
L 194.5249 240.404756 
L 194.650346 239.766561 
L 197.284714 239.762374 
L 197.410161 239.141458 
L 197.911945 239.376892 
L 200.420867 239.376892 
L 200.546313 240.058351 
L 201.29899 239.966437 
L 201.424436 239.937462 
L 201.549882 239.610774 
L 202.428005 239.471383 
L 202.678897 239.35157 
L 203.055236 239.361113 
L 203.180682 239.118583 
L 203.431574 239.118583 
L 203.55702 239.498199 
L 206.693173 239.604634 
L 206.818619 239.119878 
L 206.944065 239.104354 
L 207.069511 239.280707 
L 207.44585 238.774825 
L 207.571296 238.990722 
L 207.947634 237.516983 
L 208.574865 237.516983 
L 208.825757 236.359495 
L 209.202095 236.309825 
L 209.327541 235.244447 
L 209.452988 235.157935 
L 210.33111 235.235978 
L 210.456556 235.016932 
L 210.582003 234.38708 
L 210.958341 234.22073 
L 211.083787 234.315689 
L 211.209233 232.491578 
L 211.334679 233.018667 
L 212.714587 233.018667 
L 212.840033 232.386693 
L 214.721724 232.386693 
L 214.847171 232.743551 
L 215.348955 232.685332 
L 215.725293 232.438994 
L 215.850739 232.165744 
L 216.352524 232.056095 
L 216.47797 232.535388 
L 217.105201 231.961032 
L 217.230647 231.29352 
L 217.356093 231.733944 
L 217.983323 231.724536 
L 218.359662 232.300622 
L 218.485108 231.664907 
L 219.112338 232.06204 
L 219.363231 231.346737 
L 219.739569 231.379354 
L 219.990461 230.003965 
L 220.115907 230.269268 
L 220.241353 230.269268 
L 220.99403 230.04107 
L 221.119476 230.04107 
L 221.495815 229.896508 
L 221.621261 230.833292 
L 221.746707 227.700434 
L 221.872153 227.700434 
L 221.997599 227.156281 
L 222.499384 227.51241 
L 222.62483 227.304221 
L 222.750276 227.372063 
L 222.875722 227.198485 
L 223.25206 227.198485 
L 223.377506 227.046792 
L 223.502952 226.492095 
L 224.255629 226.512787 
L 225.008306 226.470978 
L 225.133752 226.117976 
L 225.51009 226.2352 
L 226.137321 226.293849 
L 226.388213 226.075059 
L 227.015444 225.962002 
L 227.14089 226.304548 
L 227.76812 225.852767 
L 227.893566 225.911543 
L 228.144459 225.295215 
L 228.646243 224.868623 
L 228.897135 224.560189 
L 229.39892 224.560189 
L 229.649812 224.101998 
L 229.900704 224.154401 
L 232.28418 224.154401 
L 232.409627 223.521706 
L 232.535073 223.700077 
L 233.162303 223.700077 
L 233.287749 222.981601 
L 233.413196 223.071669 
L 234.165872 223.071669 
L 234.291318 222.626395 
L 234.667657 222.460344 
L 234.918549 221.799756 
L 235.043995 221.872533 
L 236.423902 221.872533 
L 236.549348 222.039126 
L 236.674795 221.729099 
L 236.925687 221.917478 
L 237.302025 221.594616 
L 239.560055 221.594616 
L 239.936393 221.376026 
L 240.187286 220.610366 
L 240.312732 220.150953 
L 240.438178 220.384398 
L 241.065409 219.768309 
L 241.818085 219.746192 
L 242.821654 219.746192 
L 242.9471 220.313205 
L 243.448885 220.2151 
L 243.574331 219.30814 
L 243.699777 219.30814 
L 243.825223 219.497406 
L 243.950669 219.148078 
L 244.703346 218.731606 
L 244.828792 218.379068 
L 245.330576 217.906973 
L 245.581469 217.008357 
L 245.706915 217.008357 
L 246.083253 217.476364 
L 246.208699 216.964532 
L 246.334145 217.316704 
L 246.459591 217.316704 
L 246.585038 217.523697 
L 247.212268 217.417408 
L 247.46316 217.276197 
L 247.839499 216.79081 
L 248.090391 216.838607 
L 248.341283 216.531258 
L 248.968514 215.882348 
L 249.09396 215.545664 
L 249.219406 215.713595 
L 249.846637 215.713595 
L 250.097529 215.241714 
L 251.35199 215.241714 
L 251.477436 214.921872 
L 251.728328 214.994109 
L 252.731897 214.994109 
L 253.233682 215.220338 
L 253.484574 215.021212 
L 253.61002 215.282524 
L 253.986358 215.264745 
L 254.111804 214.517502 
L 254.237251 214.893493 
L 254.488143 214.089695 
L 254.989927 213.561243 
L 255.115373 214.00439 
L 255.366266 214.00439 
L 255.742604 213.748827 
L 255.993496 212.282966 
L 256.118942 212.254028 
L 256.244388 211.900471 
L 256.620727 210.376356 
L 256.746173 211.060063 
L 256.871619 211.060063 
L 257.122511 209.747486 
L 257.49885 209.771642 
L 257.624296 209.993868 
L 257.749742 209.747486 
L 257.875188 209.755536 
L 258.000634 209.311569 
L 258.376972 209.014797 
L 258.753311 207.742343 
L 258.878757 207.568118 
L 259.505987 207.22229 
L 259.75688 206.913243 
L 260.258664 206.913243 
L 260.509556 206.494654 
L 260.635002 205.759593 
L 261.011341 206.136191 
L 261.136787 205.828754 
L 261.262233 205.967493 
L 261.387679 205.397862 
L 261.513125 203.603061 
L 262.01491 203.565509 
L 262.140356 203.324104 
L 262.265802 203.432697 
L 262.391248 202.233613 
L 262.893033 201.531767 
L 265.025616 201.635048 
L 265.527401 201.419453 
L 265.652847 201.419453 
L 265.903739 201.569054 
L 266.53097 201.569054 
L 266.656416 201.013468 
L 268.036323 201.013468 
L 268.161769 200.699643 
L 268.287215 201.101373 
L 268.412662 201.081375 
L 268.538108 200.63643 
L 269.165338 200.478904 
L 269.416231 200.478904 
L 269.918015 200.961413 
L 270.043461 200.355946 
L 270.168907 200.97347 
L 270.294353 200.97347 
L 270.670692 198.771138 
L 270.921584 198.771138 
L 271.04703 198.029034 
L 271.548814 199.292551 
L 271.674261 199.292551 
L 271.925153 197.987134 
L 272.552383 197.987134 
L 272.677829 198.181403 
L 272.928722 198.026692 
L 274.434075 198.026692 
L 274.684967 196.977342 
L 275.186752 197.627341 
L 275.312198 197.214552 
L 275.437644 197.681369 
L 275.56309 197.103941 
L 275.939428 197.259717 
L 276.315767 196.762074 
L 276.441213 195.811477 
L 276.942997 196.15593 
L 277.19389 196.244493 
L 277.319336 195.895589 
L 277.695674 195.47915 
L 277.82112 196.131816 
L 278.072012 192.066487 
L 278.197459 191.995152 
L 278.699243 191.995152 
L 278.824689 191.410256 
L 278.950135 192.273232 
L 279.075581 192.273232 
L 279.45192 191.64625 
L 279.577366 191.678036 
L 279.953704 190.730104 
L 280.706381 190.633987 
L 280.831827 190.633987 
L 281.333611 190.839541 
L 281.70995 190.525109 
L 283.089857 190.456182 
L 283.340749 190.289874 
L 283.466195 190.066982 
L 283.842534 189.774388 
L 283.96798 189.053593 
L 284.218872 189.301531 
L 284.344318 188.855828 
L 284.720657 188.838534 
L 285.096995 188.235258 
L 286.978687 188.147333 
L 287.355025 188.105014 
L 287.731363 187.34169 
L 288.358594 187.34169 
L 288.48404 187.895798 
L 288.734932 187.489052 
L 289.111271 187.142702 
L 289.236717 186.875706 
L 289.487609 184.406848 
L 289.613055 184.519565 
L 289.989393 184.464771 
L 290.240286 183.9184 
L 290.365732 184.172934 
L 290.491178 183.896218 
L 290.992962 183.524418 
L 291.118408 184.004095 
L 291.871085 182.217612 
L 292.121977 182.169369 
L 292.247423 181.822789 
L 292.623762 181.868193 
L 292.874654 181.113237 
L 293.125546 180.983099 
L 297.892499 180.983099 
L 298.268837 179.324498 
L 298.394283 179.544406 
L 298.770621 179.544406 
L 298.896068 179.388599 
L 299.021514 178.31382 
L 300.652313 178.31382 
L 300.777759 177.449293 
L 301.028651 177.668304 
L 301.40499 177.08477 
L 301.655882 175.435326 
L 301.906774 175.615978 
L 302.659451 175.615978 
L 302.784897 176.208164 
L 303.286682 176.177349 
L 303.537574 174.373496 
L 304.541143 174.373496 
L 304.917481 175.04031 
L 305.293819 172.753329 
L 305.419265 172.749579 
L 305.795604 172.566319 
L 306.046496 172.599906 
L 306.171942 173.013082 
L 306.297388 172.007632 
L 306.673727 171.360475 
L 306.799173 170.654605 
L 307.050065 170.866982 
L 307.928188 170.866982 
L 308.053634 169.78748 
L 308.555418 171.050861 
L 308.806311 171.062118 
L 308.931757 170.312266 
L 309.308095 170.559175 
L 309.433541 170.455774 
L 309.684433 169.463552 
L 309.80988 169.124868 
L 310.311664 168.775431 
L 310.562556 169.20656 
L 310.688002 169.103589 
L 311.064341 169.20656 
L 311.315233 167.615217 
L 311.440679 167.598243 
L 311.566125 166.683962 
L 312.06791 166.414015 
L 312.444248 165.973825 
L 312.946032 165.973825 
L 313.071479 165.134582 
L 314.200494 165.134582 
L 314.827724 164.502247 
L 315.078616 164.854786 
L 315.454955 164.261318 
L 315.580401 163.734468 
L 315.705847 163.687877 
L 315.831293 162.781997 
L 315.956739 163.238524 
L 316.458524 162.908566 
L 316.834862 161.785847 
L 317.2112 161.956209 
L 317.336646 161.647653 
L 317.712985 160.09404 
L 318.214769 159.852194 
L 318.340215 159.852194 
L 318.591108 159.103295 
L 319.092892 158.831747 
L 320.723692 158.831747 
L 320.849138 158.550463 
L 320.974584 159.301569 
L 321.978153 159.301569 
L 322.103599 159.188312 
L 322.479937 159.833981 
L 322.981722 158.564038 
L 324.487075 158.564038 
L 324.612521 158.324679 
L 324.737967 158.545567 
L 325.114306 158.339361 
L 325.239752 157.258783 
L 325.490644 157.465761 
L 325.61609 157.280118 
L 326.243321 157.433559 
L 326.494213 156.273128 
L 326.870551 156.117873 
L 326.995997 156.383959 
L 327.121443 156.383959 
L 327.246889 155.451073 
L 327.372336 155.65545 
L 327.87412 155.65545 
L 328.250458 154.724613 
L 329.128581 153.612707 
L 329.630366 153.401795 
L 329.755812 153.991622 
L 330.006704 152.577244 
L 330.633935 152.394887 
L 331.512057 152.327796 
L 331.637504 152.580062 
L 331.76295 152.084018 
L 332.39018 151.941227 
L 333.017411 151.941227 
L 333.519195 150.74454 
L 334.271872 150.821929 
L 334.773656 150.211255 
L 334.899103 149.204012 
L 335.024549 145.810895 
L 335.651779 145.807657 
L 335.777225 145.924418 
L 335.902671 145.236083 
L 336.028118 143.859546 
L 336.153564 143.979088 
L 336.655348 143.979088 
L 336.780794 143.750546 
L 337.031686 142.902264 
L 339.16427 142.902264 
L 339.415163 143.03353 
L 340.418732 143.042863 
L 340.544178 142.704458 
L 340.920516 142.445655 
L 341.171408 143.065542 
L 341.4223 141.634044 
L 341.798639 141.677598 
L 341.924085 141.137094 
L 342.174977 141.081978 
L 342.802208 141.081978 
L 342.927654 141.3773 
L 343.680331 141.35878 
L 343.931223 140.710682 
L 344.056669 140.299524 
L 344.809346 140.406443 
L 344.934792 139.980742 
L 345.436576 139.884173 
L 345.562022 140.330038 
L 345.812915 139.524431 
L 346.189253 139.673867 
L 346.314699 140.162542 
L 346.440145 138.842328 
L 346.691037 138.842328 
L 347.192822 139.193871 
L 348.070945 139.193871 
L 348.321837 138.885483 
L 348.823621 138.209575 
L 348.949067 138.618258 
L 349.19996 138.113258 
L 349.325406 138.02593 
L 349.701744 137.569619 
L 349.952636 137.788356 
L 350.078082 137.529454 
L 350.203529 137.667293 
L 350.956205 137.667293 
L 351.081651 137.523723 
L 351.583436 137.575339 
L 351.834328 137.374559 
L 351.959774 137.621397 
L 352.336112 137.406033 
L 352.461559 137.612756 
L 352.712451 136.922801 
L 353.590574 136.994938 
L 353.71602 136.113761 
L 354.217804 136.518755 
L 354.468696 136.015358 
L 354.970481 136.015358 
L 355.095927 135.617804 
L 355.472265 135.617804 
L 355.848604 135.340329 
L 356.099496 133.914925 
L 356.350388 134.090263 
L 356.726726 134.166919 
L 356.977619 133.097935 
L 357.103065 133.16965 
L 357.228511 132.990641 
L 357.855742 132.990641 
L 357.981188 132.127978 
L 358.984757 132.127978 
L 359.361095 130.71244 
L 359.486541 131.490601 
L 361.368233 131.490601 
L 361.493679 129.012147 
L 361.619125 130.787816 
L 361.995463 130.048232 
L 362.246356 122.781979 
L 362.371802 121.021254 
L 362.497248 121.465941 
L 362.999032 120.787449 
L 363.124478 120.787449 
L 363.249924 119.757725 
L 363.375371 120.033235 
L 364.128047 114.935198 
L 364.629832 114.935198 
L 364.755278 113.562439 
L 365.00617 113.562439 
L 365.131616 111.868085 
L 365.507955 111.868085 
L 365.633401 112.789279 
L 365.758847 111.933333 
L 365.884293 111.951479 
L 366.009739 110.581443 
L 366.511523 108.956272 
L 366.63697 108.088709 
L 366.887862 108.644856 
L 367.2642 107.704679 
L 367.389646 106.817616 
L 367.515092 106.983781 
L 367.765985 105.564603 
L 368.518661 105.577084 
L 368.644107 104.535038 
L 369.145892 103.611909 
L 369.396784 103.576553 
L 369.52223 103.119829 
L 370.024015 102.744262 
L 370.149461 101.533697 
L 370.274907 101.504106 
L 370.400353 100.909626 
L 370.776691 101.182932 
L 371.027584 100.257736 
L 372.031153 100.257736 
L 372.156599 99.676166 
L 372.532937 99.220035 
L 372.783829 97.147485 
L 372.909275 97.427991 
L 373.787398 97.427991 
L 373.912844 98.0506 
L 374.540075 96.433301 
L 375.543644 96.262773 
L 375.66909 95.803487 
L 376.045428 96.024795 
L 376.29632 94.866274 
L 376.547213 94.101496 
L 376.923551 94.170759 
L 377.048997 93.956258 
L 377.174443 93.125282 
L 377.299889 93.6017 
L 377.425335 93.6017 
L 377.801674 93.115434 
L 377.92712 93.442735 
L 378.178012 93.096957 
L 378.303458 93.163985 
L 378.679797 92.850771 
L 378.805243 92.988602 
L 379.056135 92.640494 
L 379.181581 92.28008 
L 379.683366 92.035164 
L 379.808812 91.422686 
L 380.059704 91.930093 
L 380.436042 91.03338 
L 380.561488 91.142292 
L 380.812381 90.996429 
L 380.937827 90.32094 
L 381.439611 89.437641 
L 381.565057 88.52179 
L 383.195857 88.52179 
L 383.321303 87.248167 
L 383.446749 87.50829 
L 383.572195 86.742251 
L 383.948533 86.047056 
L 384.07398 85.255377 
L 384.826656 85.255377 
L 384.952102 84.837004 
L 385.077548 85.469742 
L 385.202995 85.469742 
L 385.704779 84.596378 
L 385.830225 84.666372 
L 386.081117 83.639344 
L 386.206564 83.779767 
L 386.582902 83.358161 
L 386.708348 84.091562 
L 387.084686 82.412582 
L 387.461025 82.512163 
L 387.586471 81.997457 
L 387.711917 82.337092 
L 387.962809 81.53489 
L 389.719055 81.53489 
L 390.095393 81.073848 
L 390.346285 79.397382 
L 391.098962 79.397382 
L 391.224408 78.894407 
L 392.102531 78.898768 
L 392.353423 78.157858 
L 392.855208 77.021028 
L 393.73333 77.038818 
L 393.984223 77.038818 
L 394.109669 77.488329 
L 394.486007 77.034284 
L 394.611453 77.204705 
L 394.736899 75.236933 
L 394.862345 75.217576 
L 394.987792 75.737535 
L 395.36413 75.24554 
L 395.489576 74.555262 
L 395.865914 74.582694 
L 396.493145 74.286326 
L 398.123944 74.209168 
L 398.374837 73.616982 
L 398.500283 73.336142 
L 398.876621 73.072069 
L 399.127513 72.352584 
L 399.378406 72.047626 
L 400.256528 72.174437 
L 400.758313 71.836387 
L 401.51099 71.836387 
L 402.012774 69.461342 
L 402.389112 68.655958 
L 402.514558 68.924271 
L 402.890897 68.924271 
L 403.518127 69.532441 
L 405.399819 69.526607 
L 405.525265 68.465475 
L 405.901604 67.535295 
L 406.277942 65.918124 
L 406.905172 65.006227 
L 407.030619 65.18155 
L 407.156065 65.096732 
L 407.281511 64.198366 
L 407.657849 63.740767 
L 407.783295 64.024143 
L 407.908741 63.970713 
L 408.159634 61.947251 
L 408.661418 62.489083 
L 408.786864 62.460087 
L 408.91231 62.254194 
L 409.539541 61.739457 
L 409.664987 61.833607 
L 409.790433 61.737683 
L 409.915879 60.983226 
L 410.292218 60.613821 
L 410.417664 60.773871 
L 410.668556 59.94726 
L 410.794002 59.333031 
L 412.424802 59.333031 
L 412.550248 59.715348 
L 413.052032 59.011622 
L 413.177478 59.06326 
L 413.42837 57.645879 
L 414.933724 57.645879 
L 415.05917 57.163362 
L 415.184616 57.331207 
L 415.560954 57.331207 
L 415.811847 56.804023 
L 416.062739 56.773785 
L 417.3172 56.782838 
L 417.568092 56.57522 
L 418.446215 56.57522 
L 419.073446 56.082897 
L 419.198892 55.568748 
L 419.324338 55.673128 
L 419.57523 55.400248 
L 419.951568 55.302038 
L 420.077015 55.125964 
L 420.202461 55.16679 
L 420.327907 54.839769 
L 421.080583 54.859126 
L 421.20603 55.405135 
L 421.331476 54.955995 
L 421.707814 54.913692 
L 421.958706 55.141687 
L 422.585937 55.073117 
L 422.962275 54.388796 
L 423.087721 53.68348 
L 425.220305 53.777559 
L 425.345751 53.460154 
L 425.471197 52.601188 
L 425.72209 52.601188 
L 426.098428 52.06825 
L 426.223874 54.126349 
L 426.474766 50.483158 
L 426.600213 49.540477 
L 427.101997 49.898071 
L 428.105566 49.944889 
L 428.231012 49.487308 
L 428.983689 49.65483 
L 429.109135 49.837622 
L 429.234581 49.614341 
L 429.610919 49.325555 
L 429.736365 49.641329 
L 430.112704 48.830876 
L 430.489042 49.456217 
L 430.614488 49.288792 
L 430.739934 48.853958 
L 430.990827 49.004367 
L 431.868949 49.004367 
L 432.370734 48.908099 
L 432.49618 48.953666 
L 432.621626 48.301261 
L 432.747072 48.590809 
L 433.248857 47.987843 
L 433.499749 46.912804 
L 433.625195 46.484149 
L 434.126979 45.899652 
L 434.503318 45.005682 
L 434.879656 44.549411 
L 435.130548 44.66105 
L 435.255994 44.662536 
L 435.381441 44.357671 
L 435.757779 44.664023 
L 436.008671 44.287021 
L 436.134117 43.779092 
L 436.259563 44.105175 
L 437.01224 44.139265 
L 437.137686 43.551149 
L 437.514025 43.755849 
L 437.639471 42.339404 
L 438.392147 41.520679 
L 438.64304 41.5808 
L 439.521162 41.475323 
L 439.646608 40.773395 
L 439.772055 41.008094 
L 440.148393 40.66487 
L 440.273839 39.887793 
L 440.399285 39.910597 
L 440.524731 39.721912 
L 440.650177 39.293533 
L 441.277408 39.293533 
L 441.402854 39.873597 
L 441.904639 39.873597 
L 442.280977 39.252266 
L 442.908207 38.715101 
L 443.033654 38.236972 
L 443.284546 38.395164 
L 443.78633 38.793307 
L 444.539007 38.793307 
L 444.664453 38.542471 
L 445.918914 38.542471 
L 446.295253 37.438125 
L 446.546145 38.074115 
L 446.671591 38.074115 
L 446.671591 38.074115 
" clip-path="url(#p159e4dce64)" style="fill: none; stroke: #008000; stroke-width: 0.7; stroke-linecap: square"/>
   </g>
   <g id="patch_3">
    <path d="M 20.5625 354.958125 
L 20.5625 22.318125 
" style="fill: none; stroke: #000000; stroke-width: 0.8; stroke-linejoin: miter; stroke-linecap: square"/>
   </g>
   <g id="patch_4">
    <path d="M 466.9625 354.958125 
L 466.9625 22.318125 
" style="fill: none; stroke: #000000; stroke-width: 0.8; stroke-linejoin: miter; stroke-linecap: square"/>
   </g>
   <g id="patch_5">
    <path d="M 20.5625 354.958125 
L 466.9625 354.958125 
" style="fill: none; stroke: #000000; stroke-width: 0.8; stroke-linejoin: miter; stroke-linecap: square"/>
   </g>
   <g id="patch_6">
    <path d="M 20.5625 22.318125 
L 466.9625 22.318125 
" style="fill: none; stroke: #000000; stroke-width: 0.8; stroke-linejoin: miter; stroke-linecap: square"/>
   </g>
   <g id="text_16">
    <!-- Buy/Sell Strategy, LOW -->
    <g transform="translate(174.225312 16.318125)scale(0.12 -0.12)">
     <defs>
      <path id="DejaVuSans-42" d="M 1259 2228 
L 1259 519 
L 2272 519 
Q 2781 519 3026 730 
Q 3272 941 3272 1375 
Q 3272 1813 3026 2020 
Q 2781 2228 2272 2228 
L 1259 2228 
z
M 1259 4147 
L 1259 2741 
L 2194 2741 
Q 2656 2741 2882 2914 
Q 3109 3088 3109 3444 
Q 3109 3797 2882 3972 
Q 2656 4147 2194 4147 
L 1259 4147 
z
M 628 4666 
L 2241 4666 
Q 2963 4666 3353 4366 
Q 3744 4066 3744 3513 
Q 3744 3084 3544 2831 
Q 3344 2578 2956 2516 
Q 3422 2416 3680 2098 
Q 3938 1781 3938 1306 
Q 3938 681 3513 340 
Q 3088 0 2303 0 
L 628 0 
L 628 4666 
z
" transform="scale(0.015625)"/>
      <path id="DejaVuSans-75" d="M 544 1381 
L 544 3500 
L 1119 3500 
L 1119 1403 
Q 1119 906 1312 657 
Q 1506 409 1894 409 
Q 2359 409 2629 706 
Q 2900 1003 2900 1516 
L 2900 3500 
L 3475 3500 
L 3475 0 
L 2900 0 
L 2900 538 
Q 2691 219 2414 64 
Q 2138 -91 1772 -91 
Q 1169 -91 856 284 
Q 544 659 544 1381 
z
M 1991 3584 
L 1991 3584 
z
" transform="scale(0.015625)"/>
      <path id="DejaVuSans-79" d="M 2059 -325 
Q 1816 -950 1584 -1140 
Q 1353 -1331 966 -1331 
L 506 -1331 
L 506 -850 
L 844 -850 
Q 1081 -850 1212 -737 
Q 1344 -625 1503 -206 
L 1606 56 
L 191 3500 
L 800 3500 
L 1894 763 
L 2988 3500 
L 3597 3500 
L 2059 -325 
z
" transform="scale(0.015625)"/>
      <path id="DejaVuSans-2f" d="M 1625 4666 
L 2156 4666 
L 531 -594 
L 0 -594 
L 1625 4666 
z
" transform="scale(0.015625)"/>
      <path id="DejaVuSans-53" d="M 3425 4513 
L 3425 3897 
Q 3066 4069 2747 4153 
Q 2428 4238 2131 4238 
Q 1616 4238 1336 4038 
Q 1056 3838 1056 3469 
Q 1056 3159 1242 3001 
Q 1428 2844 1947 2747 
L 2328 2669 
Q 3034 2534 3370 2195 
Q 3706 1856 3706 1288 
Q 3706 609 3251 259 
Q 2797 -91 1919 -91 
Q 1588 -91 1214 -16 
Q 841 59 441 206 
L 441 856 
Q 825 641 1194 531 
Q 1563 422 1919 422 
Q 2459 422 2753 634 
Q 3047 847 3047 1241 
Q 3047 1584 2836 1778 
Q 2625 1972 2144 2069 
L 1759 2144 
Q 1053 2284 737 2584 
Q 422 2884 422 3419 
Q 422 4038 858 4394 
Q 1294 4750 2059 4750 
Q 2388 4750 2728 4690 
Q 3069 4631 3425 4513 
z
" transform="scale(0.015625)"/>
      <path id="DejaVuSans-65" d="M 3597 1894 
L 3597 1613 
L 953 1613 
Q 991 1019 1311 708 
Q 1631 397 2203 397 
Q 2534 397 2845 478 
Q 3156 559 3463 722 
L 3463 178 
Q 3153 47 2828 -22 
Q 2503 -91 2169 -91 
Q 1331 -91 842 396 
Q 353 884 353 1716 
Q 353 2575 817 3079 
Q 1281 3584 2069 3584 
Q 2775 3584 3186 3129 
Q 3597 2675 3597 1894 
z
M 3022 2063 
Q 3016 2534 2758 2815 
Q 2500 3097 2075 3097 
Q 1594 3097 1305 2825 
Q 1016 2553 972 2059 
L 3022 2063 
z
" transform="scale(0.015625)"/>
      <path id="DejaVuSans-6c" d="M 603 4863 
L 1178 4863 
L 1178 0 
L 603 0 
L 603 4863 
z
" transform="scale(0.015625)"/>
      <path id="DejaVuSans-20" transform="scale(0.015625)"/>
      <path id="DejaVuSans-74" d="M 1172 4494 
L 1172 3500 
L 2356 3500 
L 2356 3053 
L 1172 3053 
L 1172 1153 
Q 1172 725 1289 603 
Q 1406 481 1766 481 
L 2356 481 
L 2356 0 
L 1766 0 
Q 1100 0 847 248 
Q 594 497 594 1153 
L 594 3053 
L 172 3053 
L 172 3500 
L 594 3500 
L 594 4494 
L 1172 4494 
z
" transform="scale(0.015625)"/>
      <path id="DejaVuSans-72" d="M 2631 2963 
Q 2534 3019 2420 3045 
Q 2306 3072 2169 3072 
Q 1681 3072 1420 2755 
Q 1159 2438 1159 1844 
L 1159 0 
L 581 0 
L 581 3500 
L 1159 3500 
L 1159 2956 
Q 1341 3275 1631 3429 
Q 1922 3584 2338 3584 
Q 2397 3584 2469 3576 
Q 2541 3569 2628 3553 
L 2631 2963 
z
" transform="scale(0.015625)"/>
      <path id="DejaVuSans-61" d="M 2194 1759 
Q 1497 1759 1228 1600 
Q 959 1441 959 1056 
Q 959 750 1161 570 
Q 1363 391 1709 391 
Q 2188 391 2477 730 
Q 2766 1069 2766 1631 
L 2766 1759 
L 2194 1759 
z
M 3341 1997 
L 3341 0 
L 2766 0 
L 2766 531 
Q 2569 213 2275 61 
Q 1981 -91 1556 -91 
Q 1019 -91 701 211 
Q 384 513 384 1019 
Q 384 1609 779 1909 
Q 1175 2209 1959 2209 
L 2766 2209 
L 2766 2266 
Q 2766 2663 2505 2880 
Q 2244 3097 1772 3097 
Q 1472 3097 1187 3025 
Q 903 2953 641 2809 
L 641 3341 
Q 956 3463 1253 3523 
Q 1550 3584 1831 3584 
Q 2591 3584 2966 3190 
Q 3341 2797 3341 1997 
z
" transform="scale(0.015625)"/>
      <path id="DejaVuSans-67" d="M 2906 1791 
Q 2906 2416 2648 2759 
Q 2391 3103 1925 3103 
Q 1463 3103 1205 2759 
Q 947 2416 947 1791 
Q 947 1169 1205 825 
Q 1463 481 1925 481 
Q 2391 481 2648 825 
Q 2906 1169 2906 1791 
z
M 3481 434 
Q 3481 -459 3084 -895 
Q 2688 -1331 1869 -1331 
Q 1566 -1331 1297 -1286 
Q 1028 -1241 775 -1147 
L 775 -588 
Q 1028 -725 1275 -790 
Q 1522 -856 1778 -856 
Q 2344 -856 2625 -561 
Q 2906 -266 2906 331 
L 2906 616 
Q 2728 306 2450 153 
Q 2172 0 1784 0 
Q 1141 0 747 490 
Q 353 981 353 1791 
Q 353 2603 747 3093 
Q 1141 3584 1784 3584 
Q 2172 3584 2450 3431 
Q 2728 3278 2906 2969 
L 2906 3500 
L 3481 3500 
L 3481 434 
z
" transform="scale(0.015625)"/>
      <path id="DejaVuSans-2c" d="M 750 794 
L 1409 794 
L 1409 256 
L 897 -744 
L 494 -744 
L 750 256 
L 750 794 
z
" transform="scale(0.015625)"/>
      <path id="DejaVuSans-4c" d="M 628 4666 
L 1259 4666 
L 1259 531 
L 3531 531 
L 3531 0 
L 628 0 
L 628 4666 
z
" transform="scale(0.015625)"/>
      <path id="DejaVuSans-4f" d="M 2522 4238 
Q 1834 4238 1429 3725 
Q 1025 3213 1025 2328 
Q 1025 1447 1429 934 
Q 1834 422 2522 422 
Q 3209 422 3611 934 
Q 4013 1447 4013 2328 
Q 4013 3213 3611 3725 
Q 3209 4238 2522 4238 
z
M 2522 4750 
Q 3503 4750 4090 4092 
Q 4678 3434 4678 2328 
Q 4678 1225 4090 567 
Q 3503 -91 2522 -91 
Q 1538 -91 948 565 
Q 359 1222 359 2328 
Q 359 3434 948 4092 
Q 1538 4750 2522 4750 
z
" transform="scale(0.015625)"/>
      <path id="DejaVuSans-57" d="M 213 4666 
L 850 4666 
L 1831 722 
L 2809 4666 
L 3519 4666 
L 4500 722 
L 5478 4666 
L 6119 4666 
L 4947 0 
L 4153 0 
L 3169 4050 
L 2175 0 
L 1381 0 
L 213 4666 
z
" transform="scale(0.015625)"/>
     </defs>
     <use xlink:href="#DejaVuSans-42"/>
     <use xlink:href="#DejaVuSans-75" x="68.603516"/>
     <use xlink:href="#DejaVuSans-79" x="131.982422"/>
     <use xlink:href="#DejaVuSans-2f" x="191.162109"/>
     <use xlink:href="#DejaVuSans-53" x="224.853516"/>
     <use xlink:href="#DejaVuSans-65" x="288.330078"/>
     <use xlink:href="#DejaVuSans-6c" x="349.853516"/>
     <use xlink:href="#DejaVuSans-6c" x="377.636719"/>
     <use xlink:href="#DejaVuSans-20" x="405.419922"/>
     <use xlink:href="#DejaVuSans-53" x="437.207031"/>
     <use xlink:href="#DejaVuSans-74" x="500.683594"/>
     <use xlink:href="#DejaVuSans-72" x="539.892578"/>
     <use xlink:href="#DejaVuSans-61" x="581.005859"/>
     <use xlink:href="#DejaVuSans-74" x="642.285156"/>
     <use xlink:href="#DejaVuSans-65" x="681.494141"/>
     <use xlink:href="#DejaVuSans-67" x="743.017578"/>
     <use xlink:href="#DejaVuSans-79" x="806.494141"/>
     <use xlink:href="#DejaVuSans-2c" x="865.673828"/>
     <use xlink:href="#DejaVuSans-20" x="897.460938"/>
     <use xlink:href="#DejaVuSans-4c" x="929.248047"/>
     <use xlink:href="#DejaVuSans-4f" x="981.335938"/>
     <use xlink:href="#DejaVuSans-57" x="1060.046875"/>
    </g>
   </g>
   <g id="legend_1">
    <g id="patch_7">
     <path d="M 27.5625 59.674375 
L 148.073438 59.674375 
Q 150.073438 59.674375 150.073438 57.674375 
L 150.073438 29.318125 
Q 150.073438 27.318125 148.073438 27.318125 
L 27.5625 27.318125 
Q 25.5625 27.318125 25.5625 29.318125 
L 25.5625 57.674375 
Q 25.5625 59.674375 27.5625 59.674375 
z
" style="fill: #ffffff; opacity: 0.8; stroke: #cccccc; stroke-linejoin: miter"/>
    </g>
    <g id="line2d_18">
     <path d="M 29.5625 35.416562 
L 39.5625 35.416562 
L 49.5625 35.416562 
" style="fill: none; stroke: #ff0000; stroke-width: 0.7; stroke-linecap: square"/>
    </g>
    <g id="text_17">
     <!-- LOW Returns -->
     <g transform="translate(57.5625 38.916562)scale(0.1 -0.1)">
      <defs>
       <path id="DejaVuSans-52" d="M 2841 2188 
Q 3044 2119 3236 1894 
Q 3428 1669 3622 1275 
L 4263 0 
L 3584 0 
L 2988 1197 
Q 2756 1666 2539 1819 
Q 2322 1972 1947 1972 
L 1259 1972 
L 1259 0 
L 628 0 
L 628 4666 
L 2053 4666 
Q 2853 4666 3247 4331 
Q 3641 3997 3641 3322 
Q 3641 2881 3436 2590 
Q 3231 2300 2841 2188 
z
M 1259 4147 
L 1259 2491 
L 2053 2491 
Q 2509 2491 2742 2702 
Q 2975 2913 2975 3322 
Q 2975 3731 2742 3939 
Q 2509 4147 2053 4147 
L 1259 4147 
z
" transform="scale(0.015625)"/>
       <path id="DejaVuSans-6e" d="M 3513 2113 
L 3513 0 
L 2938 0 
L 2938 2094 
Q 2938 2591 2744 2837 
Q 2550 3084 2163 3084 
Q 1697 3084 1428 2787 
Q 1159 2491 1159 1978 
L 1159 0 
L 581 0 
L 581 3500 
L 1159 3500 
L 1159 2956 
Q 1366 3272 1645 3428 
Q 1925 3584 2291 3584 
Q 2894 3584 3203 3211 
Q 3513 2838 3513 2113 
z
" transform="scale(0.015625)"/>
       <path id="DejaVuSans-73" d="M 2834 3397 
L 2834 2853 
Q 2591 2978 2328 3040 
Q 2066 3103 1784 3103 
Q 1356 3103 1142 2972 
Q 928 2841 928 2578 
Q 928 2378 1081 2264 
Q 1234 2150 1697 2047 
L 1894 2003 
Q 2506 1872 2764 1633 
Q 3022 1394 3022 966 
Q 3022 478 2636 193 
Q 2250 -91 1575 -91 
Q 1294 -91 989 -36 
Q 684 19 347 128 
L 347 722 
Q 666 556 975 473 
Q 1284 391 1588 391 
Q 1994 391 2212 530 
Q 2431 669 2431 922 
Q 2431 1156 2273 1281 
Q 2116 1406 1581 1522 
L 1381 1569 
Q 847 1681 609 1914 
Q 372 2147 372 2553 
Q 372 3047 722 3315 
Q 1072 3584 1716 3584 
Q 2034 3584 2315 3537 
Q 2597 3491 2834 3397 
z
" transform="scale(0.015625)"/>
      </defs>
      <use xlink:href="#DejaVuSans-4c"/>
      <use xlink:href="#DejaVuSans-4f" x="52.087891"/>
      <use xlink:href="#DejaVuSans-57" x="130.798828"/>
      <use xlink:href="#DejaVuSans-20" x="229.675781"/>
      <use xlink:href="#DejaVuSans-52" x="261.462891"/>
      <use xlink:href="#DejaVuSans-65" x="326.445312"/>
      <use xlink:href="#DejaVuSans-74" x="387.96875"/>
      <use xlink:href="#DejaVuSans-75" x="427.177734"/>
      <use xlink:href="#DejaVuSans-72" x="490.556641"/>
      <use xlink:href="#DejaVuSans-6e" x="529.919922"/>
      <use xlink:href="#DejaVuSans-73" x="593.298828"/>
     </g>
    </g>
    <g id="line2d_19">
     <path d="M 29.5625 50.094687 
L 39.5625 50.094687 
L 49.5625 50.094687 
" style="fill: none; stroke: #008000; stroke-width: 0.7; stroke-linecap: square"/>
    </g>
    <g id="text_18">
     <!-- Predicted Returns -->
     <g transform="translate(57.5625 53.594687)scale(0.1 -0.1)">
      <defs>
       <path id="DejaVuSans-50" d="M 1259 4147 
L 1259 2394 
L 2053 2394 
Q 2494 2394 2734 2622 
Q 2975 2850 2975 3272 
Q 2975 3691 2734 3919 
Q 2494 4147 2053 4147 
L 1259 4147 
z
M 628 4666 
L 2053 4666 
Q 2838 4666 3239 4311 
Q 3641 3956 3641 3272 
Q 3641 2581 3239 2228 
Q 2838 1875 2053 1875 
L 1259 1875 
L 1259 0 
L 628 0 
L 628 4666 
z
" transform="scale(0.015625)"/>
       <path id="DejaVuSans-64" d="M 2906 2969 
L 2906 4863 
L 3481 4863 
L 3481 0 
L 2906 0 
L 2906 525 
Q 2725 213 2448 61 
Q 2172 -91 1784 -91 
Q 1150 -91 751 415 
Q 353 922 353 1747 
Q 353 2572 751 3078 
Q 1150 3584 1784 3584 
Q 2172 3584 2448 3432 
Q 2725 3281 2906 2969 
z
M 947 1747 
Q 947 1113 1208 752 
Q 1469 391 1925 391 
Q 2381 391 2643 752 
Q 2906 1113 2906 1747 
Q 2906 2381 2643 2742 
Q 2381 3103 1925 3103 
Q 1469 3103 1208 2742 
Q 947 2381 947 1747 
z
" transform="scale(0.015625)"/>
       <path id="DejaVuSans-69" d="M 603 3500 
L 1178 3500 
L 1178 0 
L 603 0 
L 603 3500 
z
M 603 4863 
L 1178 4863 
L 1178 4134 
L 603 4134 
L 603 4863 
z
" transform="scale(0.015625)"/>
       <path id="DejaVuSans-63" d="M 3122 3366 
L 3122 2828 
Q 2878 2963 2633 3030 
Q 2388 3097 2138 3097 
Q 1578 3097 1268 2742 
Q 959 2388 959 1747 
Q 959 1106 1268 751 
Q 1578 397 2138 397 
Q 2388 397 2633 464 
Q 2878 531 3122 666 
L 3122 134 
Q 2881 22 2623 -34 
Q 2366 -91 2075 -91 
Q 1284 -91 818 406 
Q 353 903 353 1747 
Q 353 2603 823 3093 
Q 1294 3584 2113 3584 
Q 2378 3584 2631 3529 
Q 2884 3475 3122 3366 
z
" transform="scale(0.015625)"/>
      </defs>
      <use xlink:href="#DejaVuSans-50"/>
      <use xlink:href="#DejaVuSans-72" x="58.552734"/>
      <use xlink:href="#DejaVuSans-65" x="97.416016"/>
      <use xlink:href="#DejaVuSans-64" x="158.939453"/>
      <use xlink:href="#DejaVuSans-69" x="222.416016"/>
      <use xlink:href="#DejaVuSans-63" x="250.199219"/>
      <use xlink:href="#DejaVuSans-74" x="305.179688"/>
      <use xlink:href="#DejaVuSans-65" x="344.388672"/>
      <use xlink:href="#DejaVuSans-64" x="405.912109"/>
      <use xlink:href="#DejaVuSans-20" x="469.388672"/>
      <use xlink:href="#DejaVuSans-52" x="501.175781"/>
      <use xlink:href="#DejaVuSans-65" x="566.158203"/>
      <use xlink:href="#DejaVuSans-74" x="627.681641"/>
      <use xlink:href="#DejaVuSans-75" x="666.890625"/>
      <use xlink:href="#DejaVuSans-72" x="730.269531"/>
      <use xlink:href="#DejaVuSans-6e" x="769.632812"/>
      <use xlink:href="#DejaVuSans-73" x="833.011719"/>
     </g>
    </g>
   </g>
  </g>
 </g>
 <defs>
  <clipPath id="p159e4dce64">
   <rect x="20.5625" y="22.318125" width="446.4" height="332.64"/>
  </clipPath>
 </defs>
</svg>
