<?xml version="1.0" encoding="utf-8" standalone="no"?>
<!DOCTYPE svg PUBLIC "-//W3C//DTD SVG 1.1//EN"
  "http://www.w3.org/Graphics/SVG/1.1/DTD/svg11.dtd">
<svg xmlns:xlink="http://www.w3.org/1999/xlink" width="474.1625pt" height="378.83625pt" viewBox="0 0 474.1625 378.83625" xmlns="http://www.w3.org/2000/svg" version="1.1">
 <metadata>
  <rdf:RDF xmlns:dc="http://purl.org/dc/elements/1.1/" xmlns:cc="http://creativecommons.org/ns#" xmlns:rdf="http://www.w3.org/1999/02/22-rdf-syntax-ns#">
   <cc:Work>
    <dc:type rdf:resource="http://purl.org/dc/dcmitype/StillImage"/>
    <dc:date>2023-04-24T21:05:18.566574</dc:date>
    <dc:format>image/svg+xml</dc:format>
    <dc:creator>
     <cc:Agent>
      <dc:title>Matplotlib v3.5.1, https://matplotlib.org/</dc:title>
     </cc:Agent>
    </dc:creator>
   </cc:Work>
  </rdf:RDF>
 </metadata>
 <defs>
  <style type="text/css">*{stroke-linejoin: round; stroke-linecap: butt}</style>
 </defs>
 <g id="figure_1">
  <g id="patch_1">
   <path d="M 0 378.83625 
L 474.1625 378.83625 
L 474.1625 0 
L 0 0 
z
" style="fill: #ffffff"/>
  </g>
  <g id="axes_1">
   <g id="patch_2">
    <path d="M 20.5625 354.958125 
L 466.9625 354.958125 
L 466.9625 22.318125 
L 20.5625 22.318125 
z
" style="fill: #ffffff"/>
   </g>
   <g id="matplotlib.axis_1">
    <g id="xtick_1">
     <g id="line2d_1">
      <defs>
       <path id="m8240f8fecf" d="M 0 0 
L 0 3.5 
" style="stroke: #000000; stroke-width: 0.8"/>
      </defs>
      <g>
       <use xlink:href="#m8240f8fecf" x="31.068612" y="354.958125" style="stroke: #000000; stroke-width: 0.8"/>
      </g>
     </g>
     <g id="text_1">
      <!-- 2013 -->
      <g transform="translate(18.343612 369.556562)scale(0.1 -0.1)">
       <defs>
        <path id="DejaVuSans-32" d="M 1228 531 
L 3431 531 
L 3431 0 
L 469 0 
L 469 531 
Q 828 903 1448 1529 
Q 2069 2156 2228 2338 
Q 2531 2678 2651 2914 
Q 2772 3150 2772 3378 
Q 2772 3750 2511 3984 
Q 2250 4219 1831 4219 
Q 1534 4219 1204 4116 
Q 875 4013 500 3803 
L 500 4441 
Q 881 4594 1212 4672 
Q 1544 4750 1819 4750 
Q 2544 4750 2975 4387 
Q 3406 4025 3406 3419 
Q 3406 3131 3298 2873 
Q 3191 2616 2906 2266 
Q 2828 2175 2409 1742 
Q 1991 1309 1228 531 
z
" transform="scale(0.015625)"/>
        <path id="DejaVuSans-30" d="M 2034 4250 
Q 1547 4250 1301 3770 
Q 1056 3291 1056 2328 
Q 1056 1369 1301 889 
Q 1547 409 2034 409 
Q 2525 409 2770 889 
Q 3016 1369 3016 2328 
Q 3016 3291 2770 3770 
Q 2525 4250 2034 4250 
z
M 2034 4750 
Q 2819 4750 3233 4129 
Q 3647 3509 3647 2328 
Q 3647 1150 3233 529 
Q 2819 -91 2034 -91 
Q 1250 -91 836 529 
Q 422 1150 422 2328 
Q 422 3509 836 4129 
Q 1250 4750 2034 4750 
z
" transform="scale(0.015625)"/>
        <path id="DejaVuSans-31" d="M 794 531 
L 1825 531 
L 1825 4091 
L 703 3866 
L 703 4441 
L 1819 4666 
L 2450 4666 
L 2450 531 
L 3481 531 
L 3481 0 
L 794 0 
L 794 531 
z
" transform="scale(0.015625)"/>
        <path id="DejaVuSans-33" d="M 2597 2516 
Q 3050 2419 3304 2112 
Q 3559 1806 3559 1356 
Q 3559 666 3084 287 
Q 2609 -91 1734 -91 
Q 1441 -91 1130 -33 
Q 819 25 488 141 
L 488 750 
Q 750 597 1062 519 
Q 1375 441 1716 441 
Q 2309 441 2620 675 
Q 2931 909 2931 1356 
Q 2931 1769 2642 2001 
Q 2353 2234 1838 2234 
L 1294 2234 
L 1294 2753 
L 1863 2753 
Q 2328 2753 2575 2939 
Q 2822 3125 2822 3475 
Q 2822 3834 2567 4026 
Q 2313 4219 1838 4219 
Q 1578 4219 1281 4162 
Q 984 4106 628 3988 
L 628 4550 
Q 988 4650 1302 4700 
Q 1616 4750 1894 4750 
Q 2613 4750 3031 4423 
Q 3450 4097 3450 3541 
Q 3450 3153 3228 2886 
Q 3006 2619 2597 2516 
z
" transform="scale(0.015625)"/>
       </defs>
       <use xlink:href="#DejaVuSans-32"/>
       <use xlink:href="#DejaVuSans-30" x="63.623047"/>
       <use xlink:href="#DejaVuSans-31" x="127.246094"/>
       <use xlink:href="#DejaVuSans-33" x="190.869141"/>
      </g>
     </g>
    </g>
    <g id="xtick_2">
     <g id="line2d_2">
      <g>
       <use xlink:href="#m8240f8fecf" x="76.856444" y="354.958125" style="stroke: #000000; stroke-width: 0.8"/>
      </g>
     </g>
     <g id="text_2">
      <!-- 2014 -->
      <g transform="translate(64.131444 369.556562)scale(0.1 -0.1)">
       <defs>
        <path id="DejaVuSans-34" d="M 2419 4116 
L 825 1625 
L 2419 1625 
L 2419 4116 
z
M 2253 4666 
L 3047 4666 
L 3047 1625 
L 3713 1625 
L 3713 1100 
L 3047 1100 
L 3047 0 
L 2419 0 
L 2419 1100 
L 313 1100 
L 313 1709 
L 2253 4666 
z
" transform="scale(0.015625)"/>
       </defs>
       <use xlink:href="#DejaVuSans-32"/>
       <use xlink:href="#DejaVuSans-30" x="63.623047"/>
       <use xlink:href="#DejaVuSans-31" x="127.246094"/>
       <use xlink:href="#DejaVuSans-34" x="190.869141"/>
      </g>
     </g>
    </g>
    <g id="xtick_3">
     <g id="line2d_3">
      <g>
       <use xlink:href="#m8240f8fecf" x="122.644276" y="354.958125" style="stroke: #000000; stroke-width: 0.8"/>
      </g>
     </g>
     <g id="text_3">
      <!-- 2015 -->
      <g transform="translate(109.919276 369.556562)scale(0.1 -0.1)">
       <defs>
        <path id="DejaVuSans-35" d="M 691 4666 
L 3169 4666 
L 3169 4134 
L 1269 4134 
L 1269 2991 
Q 1406 3038 1543 3061 
Q 1681 3084 1819 3084 
Q 2600 3084 3056 2656 
Q 3513 2228 3513 1497 
Q 3513 744 3044 326 
Q 2575 -91 1722 -91 
Q 1428 -91 1123 -41 
Q 819 9 494 109 
L 494 744 
Q 775 591 1075 516 
Q 1375 441 1709 441 
Q 2250 441 2565 725 
Q 2881 1009 2881 1497 
Q 2881 1984 2565 2268 
Q 2250 2553 1709 2553 
Q 1456 2553 1204 2497 
Q 953 2441 691 2322 
L 691 4666 
z
" transform="scale(0.015625)"/>
       </defs>
       <use xlink:href="#DejaVuSans-32"/>
       <use xlink:href="#DejaVuSans-30" x="63.623047"/>
       <use xlink:href="#DejaVuSans-31" x="127.246094"/>
       <use xlink:href="#DejaVuSans-35" x="190.869141"/>
      </g>
     </g>
    </g>
    <g id="xtick_4">
     <g id="line2d_4">
      <g>
       <use xlink:href="#m8240f8fecf" x="168.432108" y="354.958125" style="stroke: #000000; stroke-width: 0.8"/>
      </g>
     </g>
     <g id="text_4">
      <!-- 2016 -->
      <g transform="translate(155.707108 369.556562)scale(0.1 -0.1)">
       <defs>
        <path id="DejaVuSans-36" d="M 2113 2584 
Q 1688 2584 1439 2293 
Q 1191 2003 1191 1497 
Q 1191 994 1439 701 
Q 1688 409 2113 409 
Q 2538 409 2786 701 
Q 3034 994 3034 1497 
Q 3034 2003 2786 2293 
Q 2538 2584 2113 2584 
z
M 3366 4563 
L 3366 3988 
Q 3128 4100 2886 4159 
Q 2644 4219 2406 4219 
Q 1781 4219 1451 3797 
Q 1122 3375 1075 2522 
Q 1259 2794 1537 2939 
Q 1816 3084 2150 3084 
Q 2853 3084 3261 2657 
Q 3669 2231 3669 1497 
Q 3669 778 3244 343 
Q 2819 -91 2113 -91 
Q 1303 -91 875 529 
Q 447 1150 447 2328 
Q 447 3434 972 4092 
Q 1497 4750 2381 4750 
Q 2619 4750 2861 4703 
Q 3103 4656 3366 4563 
z
" transform="scale(0.015625)"/>
       </defs>
       <use xlink:href="#DejaVuSans-32"/>
       <use xlink:href="#DejaVuSans-30" x="63.623047"/>
       <use xlink:href="#DejaVuSans-31" x="127.246094"/>
       <use xlink:href="#DejaVuSans-36" x="190.869141"/>
      </g>
     </g>
    </g>
    <g id="xtick_5">
     <g id="line2d_5">
      <g>
       <use xlink:href="#m8240f8fecf" x="214.345386" y="354.958125" style="stroke: #000000; stroke-width: 0.8"/>
      </g>
     </g>
     <g id="text_5">
      <!-- 2017 -->
      <g transform="translate(201.620386 369.556562)scale(0.1 -0.1)">
       <defs>
        <path id="DejaVuSans-37" d="M 525 4666 
L 3525 4666 
L 3525 4397 
L 1831 0 
L 1172 0 
L 2766 4134 
L 525 4134 
L 525 4666 
z
" transform="scale(0.015625)"/>
       </defs>
       <use xlink:href="#DejaVuSans-32"/>
       <use xlink:href="#DejaVuSans-30" x="63.623047"/>
       <use xlink:href="#DejaVuSans-31" x="127.246094"/>
       <use xlink:href="#DejaVuSans-37" x="190.869141"/>
      </g>
     </g>
    </g>
    <g id="xtick_6">
     <g id="line2d_6">
      <g>
       <use xlink:href="#m8240f8fecf" x="260.133218" y="354.958125" style="stroke: #000000; stroke-width: 0.8"/>
      </g>
     </g>
     <g id="text_6">
      <!-- 2018 -->
      <g transform="translate(247.408218 369.556562)scale(0.1 -0.1)">
       <defs>
        <path id="DejaVuSans-38" d="M 2034 2216 
Q 1584 2216 1326 1975 
Q 1069 1734 1069 1313 
Q 1069 891 1326 650 
Q 1584 409 2034 409 
Q 2484 409 2743 651 
Q 3003 894 3003 1313 
Q 3003 1734 2745 1975 
Q 2488 2216 2034 2216 
z
M 1403 2484 
Q 997 2584 770 2862 
Q 544 3141 544 3541 
Q 544 4100 942 4425 
Q 1341 4750 2034 4750 
Q 2731 4750 3128 4425 
Q 3525 4100 3525 3541 
Q 3525 3141 3298 2862 
Q 3072 2584 2669 2484 
Q 3125 2378 3379 2068 
Q 3634 1759 3634 1313 
Q 3634 634 3220 271 
Q 2806 -91 2034 -91 
Q 1263 -91 848 271 
Q 434 634 434 1313 
Q 434 1759 690 2068 
Q 947 2378 1403 2484 
z
M 1172 3481 
Q 1172 3119 1398 2916 
Q 1625 2713 2034 2713 
Q 2441 2713 2670 2916 
Q 2900 3119 2900 3481 
Q 2900 3844 2670 4047 
Q 2441 4250 2034 4250 
Q 1625 4250 1398 4047 
Q 1172 3844 1172 3481 
z
" transform="scale(0.015625)"/>
       </defs>
       <use xlink:href="#DejaVuSans-32"/>
       <use xlink:href="#DejaVuSans-30" x="63.623047"/>
       <use xlink:href="#DejaVuSans-31" x="127.246094"/>
       <use xlink:href="#DejaVuSans-38" x="190.869141"/>
      </g>
     </g>
    </g>
    <g id="xtick_7">
     <g id="line2d_7">
      <g>
       <use xlink:href="#m8240f8fecf" x="305.92105" y="354.958125" style="stroke: #000000; stroke-width: 0.8"/>
      </g>
     </g>
     <g id="text_7">
      <!-- 2019 -->
      <g transform="translate(293.19605 369.556562)scale(0.1 -0.1)">
       <defs>
        <path id="DejaVuSans-39" d="M 703 97 
L 703 672 
Q 941 559 1184 500 
Q 1428 441 1663 441 
Q 2288 441 2617 861 
Q 2947 1281 2994 2138 
Q 2813 1869 2534 1725 
Q 2256 1581 1919 1581 
Q 1219 1581 811 2004 
Q 403 2428 403 3163 
Q 403 3881 828 4315 
Q 1253 4750 1959 4750 
Q 2769 4750 3195 4129 
Q 3622 3509 3622 2328 
Q 3622 1225 3098 567 
Q 2575 -91 1691 -91 
Q 1453 -91 1209 -44 
Q 966 3 703 97 
z
M 1959 2075 
Q 2384 2075 2632 2365 
Q 2881 2656 2881 3163 
Q 2881 3666 2632 3958 
Q 2384 4250 1959 4250 
Q 1534 4250 1286 3958 
Q 1038 3666 1038 3163 
Q 1038 2656 1286 2365 
Q 1534 2075 1959 2075 
z
" transform="scale(0.015625)"/>
       </defs>
       <use xlink:href="#DejaVuSans-32"/>
       <use xlink:href="#DejaVuSans-30" x="63.623047"/>
       <use xlink:href="#DejaVuSans-31" x="127.246094"/>
       <use xlink:href="#DejaVuSans-39" x="190.869141"/>
      </g>
     </g>
    </g>
    <g id="xtick_8">
     <g id="line2d_8">
      <g>
       <use xlink:href="#m8240f8fecf" x="351.708882" y="354.958125" style="stroke: #000000; stroke-width: 0.8"/>
      </g>
     </g>
     <g id="text_8">
      <!-- 2020 -->
      <g transform="translate(338.983882 369.556562)scale(0.1 -0.1)">
       <use xlink:href="#DejaVuSans-32"/>
       <use xlink:href="#DejaVuSans-30" x="63.623047"/>
       <use xlink:href="#DejaVuSans-32" x="127.246094"/>
       <use xlink:href="#DejaVuSans-30" x="190.869141"/>
      </g>
     </g>
    </g>
    <g id="xtick_9">
     <g id="line2d_9">
      <g>
       <use xlink:href="#m8240f8fecf" x="397.62216" y="354.958125" style="stroke: #000000; stroke-width: 0.8"/>
      </g>
     </g>
     <g id="text_9">
      <!-- 2021 -->
      <g transform="translate(384.89716 369.556562)scale(0.1 -0.1)">
       <use xlink:href="#DejaVuSans-32"/>
       <use xlink:href="#DejaVuSans-30" x="63.623047"/>
       <use xlink:href="#DejaVuSans-32" x="127.246094"/>
       <use xlink:href="#DejaVuSans-31" x="190.869141"/>
      </g>
     </g>
    </g>
    <g id="xtick_10">
     <g id="line2d_10">
      <g>
       <use xlink:href="#m8240f8fecf" x="443.409992" y="354.958125" style="stroke: #000000; stroke-width: 0.8"/>
      </g>
     </g>
     <g id="text_10">
      <!-- 2022 -->
      <g transform="translate(430.684992 369.556562)scale(0.1 -0.1)">
       <use xlink:href="#DejaVuSans-32"/>
       <use xlink:href="#DejaVuSans-30" x="63.623047"/>
       <use xlink:href="#DejaVuSans-32" x="127.246094"/>
       <use xlink:href="#DejaVuSans-32" x="190.869141"/>
      </g>
     </g>
    </g>
   </g>
   <g id="matplotlib.axis_2">
    <g id="ytick_1">
     <g id="line2d_11">
      <defs>
       <path id="mc5ef15e986" d="M 0 0 
L -3.5 0 
" style="stroke: #000000; stroke-width: 0.8"/>
      </defs>
      <g>
       <use xlink:href="#mc5ef15e986" x="20.5625" y="339.001527" style="stroke: #000000; stroke-width: 0.8"/>
      </g>
     </g>
     <g id="text_11">
      <!-- 0 -->
      <g transform="translate(7.2 342.800746)scale(0.1 -0.1)">
       <use xlink:href="#DejaVuSans-30"/>
      </g>
     </g>
    </g>
    <g id="ytick_2">
     <g id="line2d_12">
      <g>
       <use xlink:href="#mc5ef15e986" x="20.5625" y="270.294796" style="stroke: #000000; stroke-width: 0.8"/>
      </g>
     </g>
     <g id="text_12">
      <!-- 2 -->
      <g transform="translate(7.2 274.094015)scale(0.1 -0.1)">
       <use xlink:href="#DejaVuSans-32"/>
      </g>
     </g>
    </g>
    <g id="ytick_3">
     <g id="line2d_13">
      <g>
       <use xlink:href="#mc5ef15e986" x="20.5625" y="201.588064" style="stroke: #000000; stroke-width: 0.8"/>
      </g>
     </g>
     <g id="text_13">
      <!-- 4 -->
      <g transform="translate(7.2 205.387283)scale(0.1 -0.1)">
       <use xlink:href="#DejaVuSans-34"/>
      </g>
     </g>
    </g>
    <g id="ytick_4">
     <g id="line2d_14">
      <g>
       <use xlink:href="#mc5ef15e986" x="20.5625" y="132.881333" style="stroke: #000000; stroke-width: 0.8"/>
      </g>
     </g>
     <g id="text_14">
      <!-- 6 -->
      <g transform="translate(7.2 136.680552)scale(0.1 -0.1)">
       <use xlink:href="#DejaVuSans-36"/>
      </g>
     </g>
    </g>
    <g id="ytick_5">
     <g id="line2d_15">
      <g>
       <use xlink:href="#mc5ef15e986" x="20.5625" y="64.174601" style="stroke: #000000; stroke-width: 0.8"/>
      </g>
     </g>
     <g id="text_15">
      <!-- 8 -->
      <g transform="translate(7.2 67.97382)scale(0.1 -0.1)">
       <use xlink:href="#DejaVuSans-38"/>
      </g>
     </g>
    </g>
   </g>
   <g id="line2d_16">
    <path d="M 40.853409 338.849144 
L 40.978855 339.43547 
L 41.731532 339.055471 
L 41.856978 339.290213 
L 42.358762 339.654515 
L 42.484209 339.199738 
L 42.609655 339.33554 
L 42.735101 338.652941 
L 42.860547 338.867037 
L 43.236885 338.34309 
L 43.362331 338.440171 
L 43.487778 338.316661 
L 43.613224 338.466695 
L 43.73867 338.396009 
L 44.115008 339.299273 
L 44.240454 339.226855 
L 44.491346 339.838125 
L 44.616793 339.1095 
L 44.993131 339.499214 
L 45.118577 339.208775 
L 45.244023 339.48099 
L 45.369469 339.408188 
L 45.494915 339.490101 
L 45.9967 338.840202 
L 46.122146 339.055471 
L 46.373038 337.809655 
L 46.749376 336.767011 
L 46.874823 337.207553 
L 47.000269 335.494518 
L 47.125715 335.968253 
L 47.251161 335.722402 
L 47.627499 335.706074 
L 47.878392 334.787997 
L 48.129284 335.235917 
L 48.505622 335.470192 
L 48.631068 335.413496 
L 48.756514 334.995234 
L 49.007407 335.260079 
L 49.509191 335.083289 
L 49.634637 334.899431 
L 49.885529 335.689755 
L 50.261868 335.486407 
L 50.51276 337.800979 
L 50.763652 336.108353 
L 51.265437 336.699733 
L 51.390883 336.935782 
L 51.516329 336.456952 
L 51.641775 336.473641 
L 52.143559 336.22416 
L 52.269006 336.582315 
L 52.519898 337.844382 
L 53.021682 337.879144 
L 53.272574 336.481988 
L 53.398021 336.691333 
L 53.774359 336.557206 
L 53.899805 335.478299 
L 54.025251 335.518862 
L 54.777928 334.330156 
L 54.903374 334.661086 
L 55.02882 334.676924 
L 55.154266 334.314477 
L 55.656051 334.345843 
L 55.781497 333.979091 
L 56.032389 333.97133 
L 56.408727 333.654636 
L 56.534173 333.333217 
L 56.910512 334.204922 
L 57.28685 334.621522 
L 57.663188 333.37895 
L 57.788635 333.417108 
L 58.164973 333.052532 
L 58.415865 333.948058 
L 58.541311 332.535141 
L 58.666757 332.894238 
L 59.043096 332.804111 
L 59.168542 332.557475 
L 59.419434 334.298805 
L 59.54488 334.212735 
L 59.921219 334.440112 
L 60.046665 334.119087 
L 60.297557 331.631729 
L 60.423003 331.930234 
L 60.799341 331.922923 
L 60.924787 332.654423 
L 61.17568 332.342185 
L 61.301126 332.789113 
L 61.80291 332.946922 
L 61.928356 332.676835 
L 62.179249 332.954455 
L 62.806479 331.64623 
L 63.057371 332.018095 
L 63.559156 332.025426 
L 63.810048 330.49804 
L 63.935494 331.30706 
L 64.311833 331.718828 
L 64.437279 331.163741 
L 64.562725 331.523165 
L 64.688171 331.271174 
L 64.813617 331.357363 
L 65.189955 331.472618 
L 65.440848 330.900168 
L 65.566294 331.242492 
L 65.69174 331.092306 
L 66.068078 331.726097 
L 66.193524 332.260876 
L 66.31897 332.209233 
L 66.569863 330.62452 
L 66.946201 330.568249 
L 67.071647 330.871795 
L 67.197093 330.857617 
L 67.322539 330.469996 
L 67.447985 331.43656 
L 67.94977 331.056644 
L 68.326108 329.386988 
L 68.702447 329.71449 
L 68.827893 329.373409 
L 69.204231 330.358051 
L 69.706016 329.666534 
L 69.831462 329.810603 
L 70.082354 330.680883 
L 70.458692 330.413978 
L 70.835031 328.475669 
L 70.960477 328.594905 
L 71.462261 329.488997 
L 71.587707 331.675251 
L 71.713153 331.049516 
L 71.838599 331.264001 
L 72.214938 331.371749 
L 72.340384 331.185201 
L 72.716722 331.566549 
L 73.218507 332.283032 
L 73.343953 332.018095 
L 73.469399 332.201862 
L 73.594845 331.206674 
L 73.971183 331.364555 
L 74.347522 331.996108 
L 74.472968 331.835305 
L 74.849306 331.820724 
L 74.974752 332.172393 
L 75.100198 330.964095 
L 75.225645 330.914364 
L 75.351091 331.213835 
L 76.730998 330.100564 
L 76.98189 330.176913 
L 77.107336 330.519088 
L 77.483675 331.006779 
L 77.860013 330.659736 
L 77.985459 330.010552 
L 78.361797 330.723216 
L 78.487244 330.554196 
L 78.863582 331.472618 
L 79.490812 331.371749 
L 79.616259 331.08517 
L 79.741705 331.314241 
L 80.118043 331.192357 
L 80.368935 332.676835 
L 80.494381 332.283032 
L 80.996166 332.954455 
L 81.121612 333.485898 
L 81.372504 332.22398 
L 81.49795 332.602186 
L 81.874289 332.564922 
L 81.999735 332.091484 
L 82.250627 332.179758 
L 82.376073 331.711562 
L 82.877858 331.966815 
L 83.003304 332.253493 
L 83.12875 332.16503 
L 83.254196 331.871785 
L 83.630534 331.755185 
L 83.75598 331.113721 
L 83.881427 329.298824 
L 84.006873 329.231159 
L 84.132319 329.769379 
L 84.508657 329.659689 
L 84.634103 329.359836 
L 84.884995 329.728204 
L 85.010442 329.502621 
L 85.38678 329.796856 
L 85.763118 330.687935 
L 85.888564 330.420975 
L 86.264903 330.14913 
L 86.390349 329.906985 
L 86.766687 330.309189 
L 87.143026 330.358051 
L 87.268472 330.935668 
L 87.64481 330.540148 
L 88.021148 330.554196 
L 88.272041 330.12137 
L 88.522933 330.878886 
L 89.024717 332.113531 
L 89.150163 331.523165 
L 89.401056 332.423688 
L 90.153732 332.062109 
L 90.655517 332.150308 
L 90.780963 331.523165 
L 90.906409 332.490516 
L 91.031855 331.798864 
L 91.157301 332.3718 
L 91.659086 332.334786 
L 91.784532 332.721702 
L 92.035424 331.930234 
L 92.411762 332.438528 
L 92.662655 333.3256 
L 92.788101 333.394208 
L 92.913547 332.871684 
L 93.289885 332.44595 
L 93.666223 333.693101 
L 93.79167 333.135739 
L 94.293454 333.014777 
L 94.4189 333.097893 
L 94.669792 331.871785 
L 95.171577 331.350172 
L 95.297023 332.128237 
L 95.547915 331.857189 
L 95.924254 331.908304 
L 96.0497 331.755185 
L 96.175146 331.79158 
L 96.426038 331.357363 
L 96.927822 331.487053 
L 97.053269 331.981459 
L 97.178715 332.992143 
L 97.304161 333.067645 
L 97.680499 333.090328 
L 97.805945 332.774122 
L 98.056838 332.729186 
L 98.182284 332.63949 
L 98.558622 332.59473 
L 99.060406 331.609989 
L 99.562191 331.099443 
L 100.314868 331.042389 
L 100.440314 331.321425 
L 100.56576 331.292701 
L 100.691206 331.769738 
L 100.816652 331.595503 
L 101.19299 331.755185 
L 101.443883 331.43656 
L 101.569329 331.697033 
L 101.694775 331.328609 
L 102.071113 331.494272 
L 102.447452 331.192357 
L 102.572898 331.40774 
L 102.949236 331.414942 
L 103.200128 330.857617 
L 103.45102 331.487053 
L 103.827359 331.25683 
L 103.952805 331.450979 
L 104.078251 331.120862 
L 104.203697 331.249661 
L 104.329143 329.982904 
L 104.956374 329.893199 
L 105.08182 329.509435 
L 105.207266 329.789984 
L 105.583604 329.482187 
L 105.834497 328.225298 
L 105.959943 328.002818 
L 106.085389 328.094253 
L 106.587173 328.06157 
L 106.963512 328.107335 
L 107.465296 328.041975 
L 107.590742 327.846637 
L 107.841634 327.076206 
L 108.217973 327.440007 
L 108.343419 327.768811 
L 108.468865 327.536388 
L 108.719757 327.807702 
L 109.096096 327.704091 
L 109.346988 327.235294 
L 109.472434 327.05082 
L 109.59788 327.088906 
L 110.099665 327.710558 
L 110.225111 327.382308 
L 110.350557 327.742909 
L 110.852341 327.562135 
L 111.103233 328.048505 
L 111.354126 327.40794 
L 111.730464 327.40153 
L 111.85591 327.671777 
L 111.981356 326.930493 
L 112.859479 328.968533 
L 112.984925 328.834628 
L 113.110371 328.107335 
L 113.48671 327.472104 
L 113.612156 326.772807 
L 113.737602 327.184305 
L 113.988494 326.310255 
L 114.364832 326.223441 
L 114.490279 325.859975 
L 114.615725 326.013517 
L 114.741171 325.731528 
L 114.866617 325.168395 
L 115.242955 325.018577 
L 115.493847 325.324903 
L 115.74474 324.875363 
L 116.246524 324.691258 
L 116.622863 324.34943 
L 116.999201 324.168115 
L 117.124647 324.378765 
L 117.250093 322.256423 
L 117.375539 322.16275 
L 117.500985 321.709035 
L 117.877324 321.503293 
L 118.128216 321.926945 
L 118.379108 321.400882 
L 118.755446 321.763383 
L 119.006339 321.148855 
L 119.257231 320.85096 
L 119.633569 320.205586 
L 119.759015 320.335782 
L 119.884462 320.708251 
L 120.009908 320.377549 
L 120.135354 320.845664 
L 120.511692 320.60818 
L 120.637138 321.191623 
L 120.88803 319.931193 
L 121.515261 319.257175 
L 121.640707 319.475293 
L 121.891599 319.480382 
L 122.393384 318.95011 
L 122.51883 318.825052 
L 123.14606 320.210785 
L 123.271507 320.132892 
L 123.522399 318.408161 
L 123.647845 319.060538 
L 124.275076 319.53641 
L 124.400522 320.070704 
L 124.525968 319.231902 
L 125.027752 319.982798 
L 125.153198 319.572113 
L 125.278644 318.452587 
L 125.780429 318.015771 
L 126.031321 318.615974 
L 126.156767 318.265401 
L 126.282213 319.348312 
L 126.658552 319.020341 
L 127.03489 317.51708 
L 127.160336 317.311012 
L 127.536675 317.767942 
L 127.662121 317.377969 
L 127.787567 317.536312 
L 127.913013 317.172731 
L 128.038459 317.239418 
L 128.66569 317.01605 
L 128.791136 317.125176 
L 128.916582 316.526892 
L 129.29292 316.447592 
L 129.418366 316.021584 
L 129.794705 316.280263 
L 130.171043 315.819694 
L 130.296489 315.856313 
L 130.421935 316.312736 
L 130.547381 316.063026 
L 130.672827 316.550251 
L 131.049166 316.20153 
L 131.174612 316.761195 
L 131.300058 316.756493 
L 131.425504 315.888387 
L 131.55095 316.247822 
L 131.927289 315.659942 
L 132.052735 316.058419 
L 132.303627 316.063026 
L 132.429073 315.755704 
L 132.930857 315.582616 
L 133.18175 316.855365 
L 133.307196 316.475559 
L 133.683534 315.952625 
L 133.934426 316.141443 
L 134.059872 315.934259 
L 134.561657 315.833421 
L 134.687103 316.270991 
L 134.812549 315.948032 
L 134.937995 316.206156 
L 135.063441 315.906728 
L 135.43978 316.410337 
L 135.565226 316.331305 
L 135.690672 316.597015 
L 135.816118 316.2849 
L 135.941564 317.001842 
L 136.317903 316.963982 
L 136.443349 316.676662 
L 136.568795 316.756493 
L 136.694241 316.615739 
L 136.819687 316.714206 
L 137.321471 317.387544 
L 137.572364 318.795105 
L 137.69781 317.889203 
L 138.074148 317.622991 
L 138.199594 318.020648 
L 138.32504 317.855207 
L 138.575933 316.667282 
L 138.952271 316.686044 
L 139.077717 316.475559 
L 139.328609 317.139436 
L 139.454055 316.747092 
L 139.830394 316.761195 
L 139.95584 317.344474 
L 140.081286 318.975176 
L 140.206732 318.865021 
L 140.332178 318.457526 
L 140.833963 318.437772 
L 140.959409 317.879487 
L 141.210301 318.240847 
L 141.712085 318.157495 
L 141.837532 317.913507 
L 142.088424 318.334246 
L 142.590208 318.960134 
L 142.715654 318.640797 
L 142.966547 318.710399 
L 143.342885 318.670609 
L 143.844669 318.235939 
L 144.346454 317.937828 
L 145.224577 319.751184 
L 145.350023 319.612961 
L 145.475469 319.889965 
L 145.977253 320.122519 
L 146.1027 319.546607 
L 146.228146 319.977634 
L 146.479038 319.302713 
L 146.980822 319.030386 
L 147.231715 319.110851 
L 147.357161 319.465117 
L 147.858945 320.05 
L 148.109837 319.378744 
L 148.235283 319.643629 
L 148.611622 319.715295 
L 148.98796 318.795105 
L 149.113406 318.546563 
L 149.489745 318.77017 
L 149.740637 318.260489 
L 149.866083 318.571337 
L 149.991529 318.462467 
L 150.493314 318.516859 
L 150.61876 318.740272 
L 150.869652 317.210822 
L 151.24599 317.035004 
L 151.371436 316.780008 
L 151.496882 316.15068 
L 152.249559 319.740926 
L 152.500451 318.695473 
L 152.625897 319.00026 
L 153.002236 318.640797 
L 153.127682 319.353382 
L 153.253128 318.705423 
L 153.378574 318.675581 
L 153.50402 319.328038 
L 154.005805 318.571337 
L 154.256697 319.262232 
L 154.382143 318.910041 
L 154.758481 319.151154 
L 155.009374 318.196694 
L 155.13482 317.996269 
L 155.260266 319.130997 
L 155.636604 318.427899 
L 155.76205 318.890025 
L 155.887496 318.860022 
L 156.012943 318.985208 
L 156.138389 318.880021 
L 156.640173 319.85393 
L 156.891065 318.334246 
L 157.39285 317.373182 
L 157.518296 317.651932 
L 157.643742 317.36361 
L 157.894634 316.634473 
L 158.270973 316.410337 
L 158.521865 317.244186 
L 158.772757 316.893106 
L 159.149095 316.587657 
L 159.399988 316.921439 
L 159.65088 316.531563 
L 160.027218 316.247822 
L 160.152664 316.531563 
L 160.278111 316.312736 
L 160.529003 316.40103 
L 161.030787 316.345239 
L 161.156233 316.742392 
L 161.281679 316.517553 
L 161.783464 317.253725 
L 161.90891 316.629789 
L 162.034356 317.206058 
L 162.159802 316.926163 
L 162.285248 318.18689 
L 162.661587 317.435464 
L 162.912479 316.564273 
L 163.037925 316.606376 
L 163.163371 315.509997 
L 163.539709 315.10435 
L 163.790602 314.685727 
L 164.041494 314.805449 
L 164.417832 315.135729 
L 164.543278 314.898855 
L 164.794171 315.805972 
L 164.919617 315.064048 
L 165.295955 315.203067 
L 165.421401 314.881044 
L 165.546847 315.351676 
L 165.672293 315.329118 
L 165.79774 315.856313 
L 166.174078 315.564447 
L 166.299524 315.906728 
L 166.42497 315.347163 
L 166.675862 316.373123 
L 167.177647 315.787684 
L 167.428539 315.279543 
L 167.930324 315.207561 
L 168.05577 314.898855 
L 168.181216 315.019323 
L 168.306662 315.387799 
L 168.808446 315.732879 
L 168.933892 315.659942 
L 169.310231 317.801852 
L 169.812015 316.662593 
L 169.937461 318.280142 
L 170.062907 318.275228 
L 170.188354 318.730311 
L 170.690138 318.49707 
L 170.815584 319.191504 
L 171.066476 317.986522 
L 171.442815 318.280142 
L 171.568261 318.231031 
L 171.819153 318.611011 
L 171.944599 317.425875 
L 172.320938 316.949795 
L 172.446384 317.325349 
L 172.57183 319.521121 
L 172.697276 319.247064 
L 172.822722 320.335782 
L 173.19906 321.55191 
L 173.324506 321.229088 
L 173.449953 321.277319 
L 173.575399 321.633092 
L 173.700845 320.845664 
L 174.328075 319.22685 
L 174.453521 319.368597 
L 174.578968 318.965147 
L 174.955306 318.492124 
L 175.080752 319.277407 
L 175.331644 318.87502 
L 175.45709 318.675581 
L 175.833429 319.465117 
L 175.958875 318.705423 
L 176.084321 318.680553 
L 176.335213 318.040164 
L 176.962444 317.816395 
L 177.08789 317.889203 
L 177.213336 317.206058 
L 177.71512 316.742392 
L 178.091459 315.892971 
L 178.593243 315.746572 
L 178.844136 315.966405 
L 179.34592 315.865474 
L 179.596812 315.396836 
L 179.722258 315.519066 
L 179.847704 315.180606 
L 180.474935 315.365218 
L 180.725827 315.847155 
L 181.102166 315.792255 
L 181.60395 314.818777 
L 181.980288 314.796566 
L 182.105735 315.221046 
L 182.231181 315.252532 
L 182.356627 315.482804 
L 182.482073 315.383282 
L 182.983857 315.261533 
L 183.109303 314.983584 
L 183.23475 315.682719 
L 183.360196 315.396836 
L 183.736534 315.342651 
L 183.86198 315.537211 
L 183.987426 315.482804 
L 184.112872 315.796827 
L 184.238318 315.614435 
L 184.614657 315.478274 
L 184.740103 314.961267 
L 184.865549 315.801399 
L 184.990995 315.678162 
L 185.116441 315.856313 
L 185.49278 314.956805 
L 185.618226 315.374248 
L 185.869118 313.703949 
L 185.994564 313.72116 
L 186.370902 314.132479 
L 186.621795 313.669552 
L 186.872687 313.49381 
L 187.499917 313.52803 
L 187.625364 313.318961 
L 188.127148 314.315907 
L 188.252594 313.84188 
L 188.503486 314.219703 
L 189.005271 314.734452 
L 189.130717 315.369733 
L 189.507055 314.329046 
L 189.883394 314.254655 
L 190.134286 314.359725 
L 190.259732 314.263399 
L 190.385178 314.930047 
L 190.761516 315.261533 
L 190.886963 314.500319 
L 191.012409 314.619395 
L 191.263301 313.815975 
L 191.765085 313.893747 
L 192.015978 313.438273 
L 192.141424 312.653357 
L 192.643208 312.403937 
L 192.768654 312.942447 
L 192.8941 312.741084 
L 193.019547 312.934034 
L 193.395885 312.829035 
L 193.772223 313.579426 
L 193.897669 313.365785 
L 194.399454 313.191585 
L 194.5249 313.318961 
L 194.650346 312.682575 
L 195.15213 312.665876 
L 195.528469 313.242479 
L 195.653915 312.913008 
L 196.155699 313.073125 
L 196.281145 313.225506 
L 196.532038 312.913008 
L 197.033822 313.014048 
L 197.159268 315.010385 
L 197.284714 315.212055 
L 197.410161 314.592898 
L 198.037391 314.974656 
L 198.162837 314.747753 
L 198.288283 315.001449 
L 198.664622 314.876592 
L 198.790068 315.153673 
L 199.04096 315.207561 
L 199.166406 314.974656 
L 199.668191 315.401355 
L 199.793637 315.659942 
L 200.044529 317.373182 
L 200.420867 317.025526 
L 200.546313 317.705054 
L 200.797206 317.594074 
L 200.922652 317.767942 
L 201.424436 317.565181 
L 201.549882 317.239418 
L 201.675328 317.225117 
L 201.800775 317.096675 
L 202.177113 317.835795 
L 202.428005 317.377969 
L 202.678897 317.163215 
L 203.055236 317.172731 
L 203.180682 316.930888 
L 203.55702 317.598891 
L 203.933359 317.758259 
L 204.058805 318.18689 
L 204.184251 317.589256 
L 204.309697 317.69539 
L 204.435143 317.574809 
L 204.811481 318.240847 
L 204.936927 318.113449 
L 205.062374 318.432835 
L 205.18782 318.285057 
L 205.313266 317.913507 
L 205.689604 317.753419 
L 205.940496 319.546607 
L 206.191389 319.720419 
L 206.567727 319.915726 
L 206.693173 320.445529 
L 206.818619 319.962146 
L 206.944065 319.946666 
L 207.069511 320.122519 
L 207.44585 319.618071 
L 207.571296 319.833356 
L 207.947634 318.363793 
L 208.323973 318.226123 
L 208.449419 318.700447 
L 208.574865 319.725545 
L 208.825757 318.571337 
L 209.202095 318.521807 
L 209.327541 317.459449 
L 209.70388 317.163215 
L 210.33111 317.962166 
L 210.456556 317.743741 
L 210.582003 317.115673 
L 210.958341 316.949795 
L 211.083787 317.044484 
L 211.209233 315.225542 
L 211.460125 316.003181 
L 211.96191 316.021584 
L 212.087356 316.526892 
L 212.212802 316.475559 
L 212.338248 316.808248 
L 212.714587 316.827087 
L 212.840033 316.196904 
L 212.965479 316.233928 
L 213.216371 317.120424 
L 213.718155 317.153701 
L 213.969048 317.579624 
L 214.094494 317.685728 
L 214.596278 317.767942 
L 214.721724 317.354041 
L 214.972617 317.767942 
L 215.599847 317.618169 
L 215.850739 317.191771 
L 216.352524 317.082433 
L 216.47797 317.560368 
L 217.105201 316.987639 
L 217.230647 316.322019 
L 217.356093 316.761195 
L 217.606985 316.671972 
L 217.983323 316.522222 
L 218.359662 317.287131 
L 218.485108 316.653217 
L 219.112338 317.049226 
L 219.363231 316.335949 
L 219.739569 316.368474 
L 219.990461 314.996982 
L 220.115907 315.261533 
L 220.241353 315.073 
L 220.743138 314.845449 
L 220.868584 315.046151 
L 220.99403 315.496398 
L 221.119476 315.360703 
L 221.495815 315.21655 
L 221.621261 316.15068 
L 221.746707 313.026699 
L 221.872153 313.472439 
L 221.997599 312.929828 
L 222.499384 313.284948 
L 222.62483 313.077349 
L 222.750276 313.144998 
L 222.875722 312.971912 
L 223.25206 312.971912 
L 223.377506 312.820649 
L 223.502952 312.267523 
L 223.628399 312.288157 
L 223.753845 312.160426 
L 224.255629 312.829035 
L 224.506521 312.607494 
L 225.008306 312.980335 
L 225.133752 312.628333 
L 225.384644 312.67005 
L 226.137321 312.955072 
L 226.388213 312.736901 
L 226.889998 312.624165 
L 227.14089 313.191585 
L 227.76812 312.741084 
L 227.893566 312.799693 
L 228.144459 312.185111 
L 228.646243 311.759728 
L 228.897135 311.452168 
L 229.022581 311.609651 
L 229.39892 311.804472 
L 229.649812 311.34758 
L 229.775258 311.399834 
L 229.900704 311.15932 
L 230.527935 311.135361 
L 230.653381 311.68258 
L 231.280612 311.415929 
L 231.406058 312.070066 
L 231.65695 311.727223 
L 232.033288 311.947229 
L 232.28418 313.708251 
L 232.409627 313.077349 
L 233.162303 314.176063 
L 233.287749 313.459623 
L 233.789534 313.885097 
L 234.165872 314.672451 
L 234.291318 314.228438 
L 234.667657 314.062858 
L 234.918549 313.404142 
L 235.043995 313.476712 
L 235.169441 313.729769 
L 235.545779 313.18311 
L 235.671226 313.446812 
L 236.047564 315.374248 
L 236.423902 315.090911 
L 236.549348 315.257032 
L 236.674795 314.947883 
L 236.800241 315.135729 
L 236.925687 314.721157 
L 237.302025 314.399209 
L 237.678363 315.140214 
L 237.80381 314.889948 
L 238.180148 314.992515 
L 238.43104 315.306575 
L 238.556486 315.171626 
L 238.681932 315.378765 
L 239.058271 315.212055 
L 239.183717 315.423961 
L 239.309163 315.032734 
L 239.434609 316.997107 
L 239.560055 316.396377 
L 239.936393 316.178407 
L 240.187286 315.414917 
L 240.312732 314.956805 
L 240.438178 315.189589 
L 241.065409 314.575245 
L 241.190855 314.553191 
L 241.316301 314.350957 
L 241.692639 314.372881 
L 241.818085 314.863242 
L 241.943531 314.36411 
L 242.068977 314.952344 
L 242.570762 314.637071 
L 242.696208 316.18303 
L 242.821654 315.70095 
L 243.072546 316.489551 
L 243.448885 316.391725 
L 243.574331 315.487335 
L 243.825223 316.973443 
L 243.950669 316.625105 
L 244.327008 316.414992 
L 244.452454 316.578302 
L 244.5779 316.363826 
L 244.703346 316.373123 
L 244.828792 316.021584 
L 245.330576 315.550826 
L 245.581469 314.654756 
L 245.706915 314.267771 
L 246.083253 314.734452 
L 246.208699 314.22407 
L 246.334145 314.575245 
L 246.459591 314.311528 
L 246.585038 314.517934 
L 247.086822 314.738885 
L 247.337714 314.495917 
L 247.46316 314.41238 
L 247.839499 313.928369 
L 248.215837 313.880773 
L 248.341283 313.669552 
L 248.968514 313.022481 
L 249.09396 312.68675 
L 249.219406 312.854206 
L 249.595744 312.904602 
L 249.72119 313.174637 
L 249.972083 312.976123 
L 250.097529 312.65753 
L 250.724759 313.323215 
L 250.850205 313.102702 
L 250.975652 313.626605 
L 251.35199 313.468166 
L 251.477436 313.149231 
L 251.602882 313.221264 
L 251.728328 312.992973 
L 251.853774 313.382827 
L 252.230113 313.898073 
L 252.355559 313.665255 
L 252.481005 313.678148 
L 252.606451 315.113313 
L 252.731897 314.548782 
L 253.108236 314.77437 
L 253.484574 314.478314 
L 253.61002 314.738885 
L 253.986358 314.721157 
L 254.111804 313.97603 
L 254.237251 314.350957 
L 254.488143 313.549436 
L 254.864481 313.022481 
L 255.115373 313.833243 
L 255.366266 313.971695 
L 255.742604 313.716856 
L 255.993496 312.255149 
L 256.118942 312.226293 
L 256.244388 311.873737 
L 256.620727 310.353941 
L 256.746173 311.03571 
L 256.871619 312.628333 
L 257.122511 311.319475 
L 257.49885 311.343563 
L 257.624296 311.56516 
L 257.749742 311.319475 
L 257.875188 311.327503 
L 258.000634 310.884794 
L 258.376972 310.588863 
L 258.753311 309.320014 
L 258.878757 309.146283 
L 259.505987 308.801435 
L 259.75688 308.493264 
L 260.258664 308.984673 
L 260.509556 308.567269 
L 260.635002 307.834292 
L 261.011341 308.209822 
L 261.136787 307.903256 
L 261.262233 308.041602 
L 261.387679 307.473585 
L 261.513125 305.68387 
L 262.01491 305.646424 
L 262.140356 305.405704 
L 262.265802 305.513988 
L 262.391248 304.318302 
L 262.893033 303.618445 
L 263.143925 303.853379 
L 263.269371 303.525559 
L 263.645709 303.705151 
L 263.896601 304.39039 
L 264.022048 304.676958 
L 264.147494 305.466572 
L 264.523832 306.819622 
L 264.649278 305.902551 
L 264.774724 306.005539 
L 264.90017 307.736527 
L 265.025616 306.964268 
L 265.401955 306.749283 
L 265.527401 307.358955 
L 265.652847 307.049222 
L 265.903739 307.269665 
L 266.53097 307.617414 
L 266.781862 306.851321 
L 267.1582 306.844274 
L 267.283647 307.455649 
L 267.534539 310.385171 
L 267.659985 311.423979 
L 268.036323 311.027751 
L 268.161769 310.714815 
L 268.287215 311.115407 
L 268.412662 311.095466 
L 268.538108 310.651781 
L 268.914446 310.494701 
L 269.039892 311.103441 
L 269.165338 311.00786 
L 269.290784 311.343563 
L 269.416231 310.762166 
L 269.918015 311.267343 
L 270.043461 310.663591 
L 270.294353 312.061863 
L 270.670692 309.865771 
L 270.796138 311.175302 
L 270.921584 311.207288 
L 271.04703 310.467286 
L 271.548814 311.727223 
L 271.674261 311.379727 
L 271.925153 310.078009 
L 272.050599 310.275989 
L 272.426937 311.464257 
L 272.552383 310.70693 
L 272.677829 310.900648 
L 272.803276 310.746375 
L 272.928722 311.067567 
L 273.430506 311.095466 
L 273.555952 310.995931 
L 273.806845 312.123432 
L 274.183183 311.82483 
L 274.434075 313.014048 
L 274.684967 311.967671 
L 275.061306 312.615828 
L 275.312198 311.984034 
L 275.437644 312.449528 
L 275.56309 311.873737 
L 275.939428 312.029072 
L 276.315767 311.532839 
L 276.441213 310.584935 
L 276.817551 310.928412 
L 277.068444 311.355614 
L 277.19389 311.371687 
L 277.319336 311.023772 
L 277.695674 310.608513 
L 277.82112 311.25933 
L 278.072012 307.205519 
L 278.197459 307.134387 
L 278.699243 307.459235 
L 278.824689 306.875997 
L 278.950135 307.736527 
L 279.45192 306.816101 
L 279.577366 306.847798 
L 279.953704 305.902551 
L 280.455489 305.806707 
L 280.706381 306.267833 
L 280.831827 306.260905 
L 281.459058 306.518182 
L 281.584504 306.302495 
L 281.70995 306.595043 
L 282.086288 307.077587 
L 282.211734 306.978412 
L 282.462626 307.380419 
L 282.588073 307.534639 
L 282.964411 307.787185 
L 283.340749 307.552616 
L 283.466195 307.330356 
L 283.842534 307.038591 
L 283.96798 306.319839 
L 284.218872 306.567074 
L 284.344318 306.122634 
L 284.720657 306.105389 
L 285.096995 305.503822 
L 285.222441 305.752058 
L 285.598779 305.58184 
L 285.975118 306.490275 
L 286.100564 306.672077 
L 286.602348 306.205529 
L 286.85324 306.868945 
L 286.978687 306.802024 
L 287.355025 306.759825 
L 287.731363 305.998664 
L 287.856809 306.563579 
L 288.233148 306.992563 
L 288.358594 306.532144 
L 288.48404 307.084682 
L 288.734932 306.679088 
L 289.111271 306.33372 
L 289.236717 306.067481 
L 289.487609 303.605618 
L 289.613055 303.718015 
L 289.989393 303.663377 
L 290.240286 303.118554 
L 290.365732 303.372367 
L 290.491178 303.096434 
L 290.992962 302.725688 
L 291.118408 303.204006 
L 291.871085 301.422585 
L 291.996531 301.374479 
L 292.121977 301.855546 
L 292.247423 301.509948 
L 292.623762 301.555223 
L 292.874654 300.802406 
L 293.125546 300.63145 
L 293.501885 301.173765 
L 293.627331 301.11706 
L 293.878223 301.326441 
L 294.003669 301.230565 
L 294.380007 301.455696 
L 294.756346 302.461083 
L 294.881792 302.785115 
L 295.25813 302.735065 
L 295.383576 302.964015 
L 295.634469 304.554792 
L 295.759915 304.184358 
L 296.136253 304.410077 
L 296.261699 303.982795 
L 296.512591 306.077815 
L 296.638037 306.119184 
L 297.139822 306.630037 
L 297.265268 307.191281 
L 297.390714 306.689608 
L 297.51616 308.18417 
L 297.892499 308.522847 
L 298.268837 306.868945 
L 298.394283 307.08823 
L 298.770621 306.99964 
L 298.896068 306.844274 
L 299.021514 305.772541 
L 299.14696 306.160603 
L 299.272406 307.08823 
L 299.899636 307.772704 
L 300.150529 308.378869 
L 300.526867 309.08606 
L 300.652313 311.087492 
L 300.777759 310.225415 
L 301.028651 310.443805 
L 301.40499 309.861925 
L 301.655882 308.217154 
L 301.781328 308.397294 
L 301.906774 307.968719 
L 302.283113 307.997853 
L 302.408559 309.471802 
L 302.659451 309.236816 
L 302.784897 309.827323 
L 303.286682 309.796596 
L 303.537574 307.997853 
L 304.039358 309.426195 
L 304.164804 309.044718 
L 304.541143 310.510377 
L 304.917481 311.175302 
L 305.293819 308.894801 
L 305.419265 308.891062 
L 305.795604 308.708321 
L 306.046496 308.741813 
L 306.171942 309.153818 
L 306.297388 308.151217 
L 306.673727 307.505894 
L 306.799173 306.802024 
L 307.050065 307.387576 
L 307.175511 306.918338 
L 307.551849 307.056311 
L 307.928188 308.823819 
L 308.053634 307.747376 
L 308.555418 309.007178 
L 308.806311 308.917247 
L 308.931757 308.16952 
L 309.308095 308.415729 
L 309.433541 308.312621 
L 309.684433 307.323211 
L 309.80988 306.985487 
L 310.311664 306.63704 
L 310.562556 307.066947 
L 310.688002 306.964268 
L 311.064341 307.066947 
L 311.315233 305.480113 
L 311.440679 305.463187 
L 311.566125 304.551497 
L 312.06791 304.282314 
L 312.193356 304.08668 
L 312.318802 304.132228 
L 312.444248 303.88892 
L 312.946032 304.292126 
L 313.071479 303.455261 
L 313.322371 304.643898 
L 313.949601 305.183438 
L 314.200494 306.208988 
L 314.827724 305.578444 
L 315.078616 305.929985 
L 315.454955 305.338198 
L 315.580401 304.812841 
L 315.705847 304.766381 
L 315.831293 303.863069 
L 315.956739 304.318302 
L 316.458524 303.989279 
L 316.834862 302.869741 
L 317.2112 303.039621 
L 317.336646 302.731939 
L 317.712985 301.182728 
L 318.089323 300.941567 
L 318.214769 301.736923 
L 318.340215 301.549183 
L 318.591108 300.802406 
L 319.092892 300.575631 
L 319.218338 300.549222 
L 319.343784 301.555223 
L 319.971015 301.615683 
L 320.096461 301.485825 
L 320.221907 301.597534 
L 320.347353 301.93791 
L 320.723692 302.01741 
L 320.849138 301.736923 
L 320.974584 302.485901 
L 321.225476 301.97458 
L 321.601814 302.284777 
L 321.72726 303.615238 
L 321.978153 303.882455 
L 322.103599 303.76952 
L 322.479937 304.413359 
L 322.981722 303.011249 
L 323.35806 302.954576 
L 323.483506 302.361993 
L 323.734398 307.812542 
L 323.859844 307.606606 
L 324.361629 308.891062 
L 324.612521 308.147557 
L 324.737967 308.367819 
L 325.114306 308.162198 
L 325.239752 307.084682 
L 325.490644 307.294642 
L 325.61609 307.109525 
L 326.243321 307.262531 
L 326.494213 306.105389 
L 326.870551 305.950574 
L 327.121443 306.417128 
L 327.246889 305.486885 
L 327.87412 306.595043 
L 328.250458 305.666844 
L 329.128581 304.558088 
L 329.630366 304.347774 
L 329.755812 304.93593 
L 330.006704 303.525559 
L 330.383042 303.343719 
L 330.884827 305.129771 
L 331.512057 305.029372 
L 331.637504 305.280923 
L 331.76295 304.786285 
L 332.264734 304.70674 
L 332.515626 306.153696 
L 332.641072 306.24359 
L 333.017411 307.010259 
L 333.393749 305.816963 
L 333.519195 306.479816 
L 333.895534 307.351803 
L 334.02098 307.173492 
L 334.146426 308.253841 
L 334.271872 308.331011 
L 334.773656 307.722067 
L 334.899103 306.717678 
L 335.024549 303.334175 
L 335.149995 303.283319 
L 335.275441 303.85015 
L 335.651779 303.846921 
L 335.777225 303.963352 
L 335.902671 303.276967 
L 336.028118 301.90433 
L 336.153564 302.023533 
L 336.655348 302.337265 
L 336.780794 302.109371 
L 337.031686 301.263492 
L 337.408025 301.239542 
L 337.533471 301.093211 
L 337.658917 301.630815 
L 337.784363 301.512964 
L 337.909809 301.670188 
L 338.411594 301.86164 
L 338.53704 301.901279 
L 338.787932 302.40531 
L 339.289717 302.697575 
L 339.415163 302.470388 
L 339.540609 302.479695 
L 339.666055 302.847781 
L 340.042393 302.716315 
L 340.167839 302.854054 
L 340.293285 303.863069 
L 340.418732 303.856609 
L 340.544178 303.519162 
L 340.920516 303.261093 
L 341.171408 303.879223 
L 341.4223 302.451781 
L 341.798639 302.495212 
L 341.924085 301.95624 
L 342.174977 301.901279 
L 342.300423 301.828135 
L 342.676762 302.100164 
L 342.802208 301.940964 
L 343.0531 302.433185 
L 343.178546 302.213891 
L 343.554884 302.195423 
L 343.680331 302.850917 
L 343.931223 302.204656 
L 344.056669 301.794663 
L 344.809346 301.901279 
L 344.934792 301.476784 
L 345.436576 301.380489 
L 345.562022 301.825091 
L 345.812915 301.021766 
L 346.189253 301.170779 
L 346.314699 301.658069 
L 346.440145 300.341596 
L 346.565591 300.578567 
L 346.691037 300.233891 
L 347.067376 300.584439 
L 347.318268 300.158408 
L 348.070945 301.311443 
L 348.321837 301.003928 
L 348.823621 300.329935 
L 348.949067 300.73746 
L 349.19996 300.233891 
L 349.325406 300.14681 
L 349.701744 299.691792 
L 349.952636 299.912789 
L 350.078082 299.654621 
L 350.203529 299.792069 
L 350.956205 299.792069 
L 351.081651 299.648906 
L 351.583436 299.783462 
L 351.834328 299.58325 
L 351.959774 299.829389 
L 352.336112 299.614635 
L 352.461559 299.820773 
L 352.712451 299.132773 
L 352.837897 299.429595 
L 353.214235 299.415402 
L 353.465128 299.852376 
L 353.590574 299.924308 
L 353.71602 299.045628 
L 354.217804 299.449474 
L 354.468696 298.947504 
L 354.594143 299.648906 
L 354.970481 299.783462 
L 355.095927 299.387034 
L 355.346819 299.794938 
L 355.472265 300.808317 
L 355.848604 300.531628 
L 356.099496 299.110263 
L 356.350388 299.293587 
L 356.726726 299.370025 
L 356.977619 298.30407 
L 357.103065 298.375582 
L 357.228511 298.19708 
L 357.730295 298.802234 
L 357.855742 298.743741 
L 357.981188 297.883523 
L 358.106634 298.227223 
L 358.482972 298.891558 
L 358.984757 303.792077 
L 359.361095 302.380551 
L 359.486541 303.156507 
L 359.611987 301.691408 
L 359.862879 304.200665 
L 360.239218 308.023367 
L 360.364664 304.624076 
L 360.49011 306.271297 
L 360.615556 309.628084 
L 360.741002 307.205519 
L 361.117341 316.982906 
L 361.242787 316.419647 
L 361.368233 320.76632 
L 361.493679 318.294889 
L 361.619125 320.065527 
L 361.995463 319.328038 
L 362.246356 312.082374 
L 362.371802 310.326637 
L 362.497248 310.770065 
L 362.873586 310.093495 
L 362.999032 311.139353 
L 363.124478 313.463894 
L 363.249924 312.437088 
L 363.375371 312.711817 
L 364.128047 307.628225 
L 364.629832 307.667896 
L 364.755278 306.299027 
L 365.00617 308.678578 
L 365.131616 306.989024 
L 365.507955 307.693165 
L 365.633401 308.611749 
L 365.758847 307.758229 
L 365.884293 307.776324 
L 366.009739 306.410169 
L 366.511523 304.789603 
L 366.63697 303.924498 
L 366.887862 304.47907 
L 367.2642 303.541556 
L 367.389646 302.657007 
L 367.515092 302.822701 
L 367.765985 301.407544 
L 368.142323 301.661098 
L 368.393215 302.569792 
L 368.518661 302.582237 
L 368.644107 301.543144 
L 369.145892 300.62263 
L 369.271338 300.587375 
L 369.52223 299.076525 
L 370.024015 298.702022 
L 370.149461 297.494887 
L 370.274907 297.46538 
L 370.400353 296.872585 
L 370.776691 297.145116 
L 371.027584 296.222541 
L 371.15303 297.315552 
L 371.278476 296.709573 
L 371.654814 296.751566 
L 371.78026 297.078769 
L 371.905706 296.938535 
L 372.031153 298.604872 
L 372.156599 298.024951 
L 372.532937 297.570112 
L 372.783829 295.503435 
L 373.034721 295.96747 
L 373.41106 295.739768 
L 373.536506 295.852151 
L 373.661952 296.445667 
L 373.787398 296.500371 
L 373.912844 297.121217 
L 374.540075 295.5085 
L 375.167305 295.475589 
L 375.292752 295.663354 
L 375.418198 295.478119 
L 375.543644 295.513566 
L 375.66909 295.055582 
L 376.045428 295.276262 
L 376.29632 294.121024 
L 376.547213 293.358413 
L 376.923551 293.427479 
L 377.048997 293.213587 
L 377.174443 292.384965 
L 377.299889 292.860033 
L 377.801674 292.251088 
L 377.92712 292.577461 
L 378.178012 292.232663 
L 378.303458 292.2995 
L 378.679797 291.987174 
L 378.805243 292.124615 
L 379.056135 291.777493 
L 379.181581 291.4181 
L 379.683366 291.173878 
L 379.808812 290.563136 
L 380.059704 291.069105 
L 380.436042 290.174933 
L 380.561488 290.283537 
L 380.812381 290.138086 
L 380.937827 289.464511 
L 381.439611 288.583715 
L 381.565057 287.670459 
L 381.815949 288.66871 
L 382.192288 288.839333 
L 382.44318 287.650303 
L 382.694072 290.615815 
L 383.195857 291.202915 
L 383.321303 289.932901 
L 383.446749 290.192287 
L 383.572195 289.428418 
L 383.948533 288.735193 
L 384.07398 287.945757 
L 384.324872 289.02968 
L 384.450318 289.810375 
L 384.826656 289.91783 
L 384.952102 289.500643 
L 385.077548 290.131588 
L 385.202995 290.151087 
L 385.704779 289.280197 
L 385.830225 289.349993 
L 386.081117 288.325875 
L 386.206564 288.4659 
L 386.582902 288.045488 
L 386.708348 288.776811 
L 387.084686 287.102589 
L 387.461025 287.201887 
L 387.586471 286.68864 
L 387.711917 287.027313 
L 387.962809 286.227384 
L 388.339147 286.72785 
L 388.464594 286.345513 
L 388.715486 287.497505 
L 388.840932 287.31943 
L 389.21727 288.12916 
L 389.719055 290.242227 
L 390.095393 289.782492 
L 390.346285 288.110776 
L 390.471731 287.901074 
L 390.597178 288.049565 
L 390.973516 291.267777 
L 391.224408 290.263963 
L 391.349854 290.268311 
L 391.851639 289.426296 
L 391.977085 289.861912 
L 392.102531 292.8038 
L 392.353423 292.06499 
L 392.855208 290.93138 
L 393.231546 290.995731 
L 393.607884 290.741252 
L 393.858777 291.636905 
L 393.984223 291.600717 
L 394.109669 292.048955 
L 394.486007 291.596197 
L 394.611453 291.766134 
L 394.736899 289.803938 
L 394.862345 289.784636 
L 394.987792 290.303122 
L 395.36413 289.812521 
L 395.489576 289.124198 
L 395.865914 289.151552 
L 396.367699 288.856024 
L 396.493145 289.31402 
L 396.618591 289.242186 
L 397.120376 289.396603 
L 397.245822 289.716092 
L 398.123944 289.634873 
L 398.374837 289.044365 
L 398.500283 288.764321 
L 398.876621 288.500996 
L 399.127513 287.78355 
L 399.378406 287.479456 
L 399.88019 287.595942 
L 400.005636 287.269575 
L 400.256528 287.267582 
L 400.632867 286.93049 
L 400.758313 287.009509 
L 400.883759 288.215084 
L 401.009205 287.27954 
L 401.134651 288.391698 
L 401.51099 289.115786 
L 402.012774 286.747471 
L 402.389112 285.944369 
L 402.765451 286.610355 
L 402.890897 286.331937 
L 403.392681 286.938384 
L 403.518127 286.337755 
L 403.76902 286.258329 
L 404.145358 287.26559 
L 404.521696 290.151087 
L 404.647142 289.885558 
L 405.148927 289.183142 
L 405.399819 291.196212 
L 405.525265 290.138086 
L 405.901604 289.210542 
L 406.277942 287.597954 
L 406.905172 286.68864 
L 407.030619 286.863467 
L 407.156065 286.778889 
L 407.281511 285.883068 
L 407.657849 285.426766 
L 407.783295 285.709339 
L 407.908741 285.656061 
L 408.159634 283.638331 
L 408.535972 284.178629 
L 408.786864 283.895675 
L 408.91231 283.690364 
L 409.539541 283.177086 
L 409.664987 283.270969 
L 409.790433 283.175317 
L 409.915879 282.422998 
L 410.292218 282.05464 
L 410.417664 282.214236 
L 410.668556 281.389967 
L 410.794002 280.777478 
L 411.295786 281.693578 
L 411.421233 281.500979 
L 411.672125 282.006734 
L 412.173909 282.329674 
L 412.299355 282.849623 
L 412.424802 282.435114 
L 412.550248 282.816348 
L 413.052032 282.114616 
L 413.177478 282.166107 
L 413.42837 280.752743 
L 413.804709 280.276367 
L 414.055601 282.940858 
L 414.181047 282.107756 
L 414.933724 283.798269 
L 415.05917 283.317119 
L 415.560954 283.809078 
L 415.811847 283.283388 
L 415.937293 283.253236 
L 416.062739 283.065821 
L 416.940862 283.944481 
L 417.3172 283.883032 
L 417.442646 283.676002 
L 417.568092 283.819891 
L 417.693538 284.1495 
L 417.818984 283.782062 
L 418.195323 283.989734 
L 418.446215 284.622235 
L 419.073446 284.131308 
L 419.198892 283.618615 
L 419.324338 283.7227 
L 419.57523 283.450593 
L 419.951568 283.352662 
L 420.077015 283.177086 
L 420.202461 283.217796 
L 420.327907 282.891702 
L 420.955137 283.07993 
L 421.080583 282.881177 
L 421.20603 283.425638 
L 421.331476 282.977772 
L 421.707814 282.935588 
L 421.958706 283.436331 
L 422.209598 282.835609 
L 422.585937 283.407825 
L 422.962275 282.725443 
L 423.087721 282.022125 
L 423.46406 282.55651 
L 423.714952 283.498771 
L 423.840398 283.279839 
L 423.965844 283.445244 
L 424.342182 283.755067 
L 424.467629 283.221339 
L 424.593075 283.94629 
L 424.718521 283.805475 
L 425.220305 284.293563 
L 425.345751 283.977057 
L 425.471197 283.120525 
L 425.72209 283.836116 
L 426.098428 283.304688 
L 426.223874 285.356955 
L 426.474766 281.724087 
L 426.600213 280.784077 
L 426.976551 281.140658 
L 427.101997 281.588697 
L 427.227443 281.120658 
L 427.478335 281.167343 
L 427.854674 281.319509 
L 428.105566 281.581942 
L 428.231012 281.125657 
L 428.858243 281.292705 
L 429.109135 281.652941 
L 429.234581 281.430293 
L 429.610919 281.142326 
L 429.736365 281.457204 
L 430.112704 280.649048 
L 430.489042 281.272617 
L 430.614488 281.105666 
L 430.739934 280.672064 
L 430.990827 280.840221 
L 431.367165 280.387095 
L 431.492611 281.24585 
L 431.618057 280.967711 
L 431.743503 281.678333 
L 431.868949 281.536377 
L 432.370734 281.440383 
L 432.49618 281.48582 
L 432.621626 280.835264 
L 432.747072 281.123991 
L 433.248857 280.522734 
L 433.499749 279.450741 
L 433.625195 279.0233 
L 434.126979 278.440459 
L 434.503318 277.549023 
L 434.879656 277.094044 
L 435.005102 277.205367 
L 435.381441 276.798936 
L 435.757779 277.104419 
L 436.008671 276.728485 
L 436.134117 276.221995 
L 436.259563 276.547154 
L 436.761348 276.785715 
L 437.01224 277.020029 
L 437.137686 276.43358 
L 437.514025 276.6377 
L 437.639471 275.225268 
L 437.890363 274.862298 
L 438.015809 274.566397 
L 438.392147 274.178962 
L 438.517593 274.238913 
L 438.64304 274.140865 
L 438.893932 274.819276 
L 439.27027 274.696058 
L 439.395716 275.251944 
L 439.521162 275.146765 
L 439.646608 274.446826 
L 439.772055 274.68086 
L 440.148393 274.338609 
L 440.273839 273.563734 
L 440.399285 273.586473 
L 440.524731 273.398323 
L 440.650177 272.971157 
L 441.026516 273.519635 
L 441.151962 274.16399 
L 441.277408 273.479595 
L 441.5283 274.763843 
L 441.904639 275.107581 
L 442.280977 274.48801 
L 442.908207 273.952367 
L 443.033654 273.475593 
L 443.1591 273.633337 
L 443.284546 273.354436 
L 443.660884 273.75145 
L 443.78633 273.178125 
L 443.911776 273.853784 
L 444.037222 273.446263 
L 444.162669 274.35092 
L 444.539007 274.819276 
L 444.789899 274.40158 
L 444.915345 274.40432 
L 445.040791 275.41949 
L 445.542576 276.131096 
L 445.668022 276.669887 
L 445.793468 278.283622 
L 445.918914 278.11681 
L 446.295253 277.015593 
L 446.671591 277.978162 
L 446.671591 277.978162 
" clip-path="url(#p98d7c306e1)" style="fill: none; stroke: #ff0000; stroke-width: 0.7; stroke-linecap: square"/>
   </g>
   <g id="line2d_17">
    <path d="M 40.853409 339.001527 
L 41.104301 339.001527 
L 41.606086 338.739183 
L 42.358762 338.739183 
L 42.484209 338.284406 
L 42.609655 338.420208 
L 42.735101 337.737609 
L 42.860547 337.951705 
L 43.236885 337.427758 
L 43.487778 337.524839 
L 44.3659 337.524839 
L 44.491346 337.772481 
L 44.616793 337.043857 
L 44.993131 337.433571 
L 45.118577 337.143131 
L 45.244023 337.415346 
L 45.369469 337.342544 
L 45.494915 337.424457 
L 45.9967 336.774558 
L 46.122146 336.989828 
L 46.373038 335.744012 
L 46.749376 334.701367 
L 46.874823 335.141909 
L 47.000269 333.428875 
L 47.125715 333.902609 
L 47.251161 333.656759 
L 47.627499 333.640431 
L 47.878392 332.722354 
L 49.007407 332.705918 
L 49.760083 332.529128 
L 50.638206 332.529128 
L 50.763652 331.777749 
L 51.390883 332.362397 
L 51.516329 331.883567 
L 51.641775 331.900256 
L 52.269006 331.725429 
L 53.021682 331.760191 
L 53.272574 330.363036 
L 53.398021 330.57238 
L 53.774359 330.438253 
L 53.899805 329.359346 
L 54.025251 329.399909 
L 54.903374 328.211203 
L 55.656051 328.242569 
L 55.781497 327.875818 
L 56.032389 327.868057 
L 56.408727 327.551363 
L 56.534173 327.229943 
L 56.910512 327.229943 
L 57.28685 327.646543 
L 57.663188 326.403971 
L 57.788635 326.442129 
L 58.164973 326.077553 
L 58.290419 326.533881 
L 58.415865 326.533881 
L 58.541311 325.120963 
L 58.666757 325.480061 
L 59.54488 325.480061 
L 59.921219 325.707438 
L 60.046665 325.386412 
L 60.297557 322.899054 
L 60.423003 323.19756 
L 62.053803 323.250246 
L 62.179249 323.445564 
L 62.931925 322.13734 
L 63.559156 322.144672 
L 63.935494 320.617285 
L 64.311833 320.617285 
L 64.437279 320.062198 
L 64.562725 320.421622 
L 64.813617 320.50781 
L 65.189955 320.623066 
L 65.440848 320.050616 
L 66.068078 320.050616 
L 66.193524 320.585395 
L 66.31897 320.533753 
L 66.569863 318.94904 
L 66.946201 318.892769 
L 67.071647 319.196314 
L 67.322539 319.196314 
L 67.447985 320.162877 
L 67.94977 319.782961 
L 68.326108 318.113306 
L 68.827893 318.440808 
L 70.082354 318.440808 
L 70.458692 318.173902 
L 70.835031 316.235593 
L 71.713153 316.235593 
L 71.838599 316.450079 
L 73.218507 316.450079 
L 73.343953 316.185142 
L 73.469399 316.368909 
L 73.594845 315.373721 
L 74.222076 315.531602 
L 74.347522 315.531602 
L 74.472968 315.370799 
L 74.849306 315.356218 
L 74.974752 315.707887 
L 75.100198 314.499589 
L 75.225645 314.449858 
L 75.351091 314.749329 
L 76.229214 314.138901 
L 77.609121 314.138901 
L 77.985459 313.877174 
L 81.121612 313.927498 
L 81.372504 312.665579 
L 81.49795 313.043785 
L 81.874289 313.006522 
L 81.999735 312.533083 
L 82.250627 312.621357 
L 82.376073 312.153161 
L 83.003304 312.408415 
L 83.12875 312.319951 
L 83.254196 312.026707 
L 83.630534 311.910106 
L 83.75598 311.268642 
L 83.881427 309.453745 
L 84.132319 309.386081 
L 84.508657 309.386081 
L 84.634103 309.086228 
L 85.888564 309.086228 
L 86.264903 308.814383 
L 86.390349 308.572237 
L 87.519364 308.565159 
L 87.64481 308.297268 
L 89.024717 308.311316 
L 89.150163 307.720949 
L 89.401056 307.720949 
L 90.028286 307.425498 
L 90.655517 307.513697 
L 90.780963 306.886554 
L 92.788101 306.955161 
L 92.913547 306.432638 
L 93.415331 306.006903 
L 93.666223 306.006903 
L 93.79167 305.449541 
L 94.293454 305.328578 
L 94.4189 305.411694 
L 94.669792 304.185587 
L 95.297023 303.663974 
L 95.924254 303.663974 
L 96.0497 303.510855 
L 96.175146 303.54725 
L 96.426038 303.113032 
L 97.680499 303.135715 
L 97.805945 302.819509 
L 98.056838 302.774573 
L 98.182284 302.684877 
L 98.558622 302.640117 
L 99.060406 301.655376 
L 99.562191 301.14483 
L 100.691206 301.14483 
L 100.816652 300.970594 
L 101.318436 301.130276 
L 101.569329 301.021986 
L 101.694775 300.653562 
L 102.071113 300.819225 
L 102.447452 300.51731 
L 102.572898 300.732693 
L 102.949236 300.739895 
L 103.325574 300.18257 
L 103.45102 300.369743 
L 103.827359 300.13952 
L 103.952805 300.333669 
L 104.078251 300.003552 
L 104.203697 300.132351 
L 104.329143 298.865594 
L 104.956374 298.775889 
L 105.08182 298.392126 
L 105.207266 298.672674 
L 105.583604 298.364877 
L 105.834497 297.107988 
L 105.959943 296.885508 
L 106.085389 296.976943 
L 106.712619 296.90517 
L 107.465296 296.846352 
L 107.590742 296.651014 
L 107.841634 295.880583 
L 108.468865 295.880583 
L 108.719757 296.151897 
L 109.096096 296.048286 
L 109.346988 295.579488 
L 110.852341 295.579488 
L 110.977787 295.857498 
L 111.103233 295.857498 
L 111.354126 295.216932 
L 111.730464 295.210522 
L 111.85591 295.480769 
L 111.981356 294.739485 
L 112.106802 295.012409 
L 112.734033 295.012409 
L 112.859479 295.544927 
L 112.984925 295.411022 
L 113.110371 294.683729 
L 113.48671 294.048498 
L 113.612156 293.349201 
L 113.737602 293.760699 
L 113.988494 292.886649 
L 114.364832 292.799835 
L 114.490279 292.436369 
L 114.615725 292.589911 
L 114.741171 292.307922 
L 114.866617 291.74479 
L 115.242955 291.594971 
L 115.493847 291.901297 
L 115.74474 291.451757 
L 116.246524 291.267652 
L 116.622863 290.925824 
L 116.999201 290.744509 
L 117.124647 290.955159 
L 117.250093 288.832817 
L 117.375539 288.739144 
L 117.500985 288.285429 
L 118.00277 288.079687 
L 118.128216 288.079687 
L 118.379108 287.553625 
L 118.755446 287.916125 
L 119.006339 287.301597 
L 119.257231 287.003703 
L 119.633569 286.358329 
L 119.759015 286.488524 
L 119.884462 286.860993 
L 120.637138 286.860993 
L 120.88803 285.600563 
L 121.515261 284.926546 
L 121.891599 284.931635 
L 122.393384 284.401363 
L 123.271507 284.32347 
L 123.522399 282.598739 
L 124.275076 282.598739 
L 124.400522 283.133033 
L 124.525968 282.294231 
L 125.027752 283.045126 
L 125.153198 282.634442 
L 125.278644 281.514915 
L 126.156767 281.0781 
L 126.282213 281.0781 
L 126.658552 280.750129 
L 127.03489 279.246868 
L 127.160336 279.0408 
L 127.536675 279.49773 
L 127.662121 279.107757 
L 127.787567 279.266101 
L 127.913013 278.902519 
L 128.038459 278.969206 
L 128.66569 278.745838 
L 128.791136 278.854964 
L 128.916582 278.25668 
L 129.29292 278.17738 
L 129.418366 277.751372 
L 129.794705 277.751372 
L 130.171043 277.290803 
L 130.672827 277.327422 
L 131.049166 277.327422 
L 131.174612 277.887087 
L 131.300058 277.882385 
L 131.425504 277.014279 
L 131.55095 277.373714 
L 131.927289 277.373714 
L 132.052735 277.772191 
L 132.303627 277.753756 
L 132.429073 277.446434 
L 133.18175 277.382563 
L 133.307196 277.002757 
L 133.683534 276.479822 
L 133.934426 276.66864 
L 134.059872 276.461456 
L 134.561657 276.360619 
L 134.687103 276.798189 
L 136.317903 276.798189 
L 136.443349 276.510869 
L 136.694241 276.5907 
L 137.572364 276.5907 
L 137.69781 275.684798 
L 138.074148 275.418585 
L 138.199594 275.816243 
L 138.32504 275.650802 
L 138.575933 274.462877 
L 140.206732 274.352722 
L 140.332178 273.945227 
L 140.833963 273.925473 
L 140.959409 273.367187 
L 141.210301 273.498595 
L 141.712085 273.415243 
L 141.837532 273.171255 
L 142.590208 273.171255 
L 142.715654 272.851919 
L 142.966547 272.916544 
L 143.342885 272.876754 
L 143.844669 272.442083 
L 144.4719 272.295148 
L 145.977253 272.295148 
L 146.1027 271.719236 
L 146.228146 272.150263 
L 146.479038 271.475342 
L 146.980822 271.248254 
L 147.733499 271.248254 
L 147.858945 271.408289 
L 148.109837 270.737033 
L 148.235283 271.001918 
L 148.611622 271.073584 
L 148.98796 270.153394 
L 149.113406 269.904852 
L 149.489745 270.128459 
L 149.866083 269.618778 
L 150.493314 269.67317 
L 150.61876 269.896583 
L 150.869652 268.367133 
L 151.24599 268.191315 
L 151.371436 267.93632 
L 152.124113 267.93632 
L 152.249559 268.606651 
L 152.375005 268.606651 
L 152.625897 268.452096 
L 153.002236 268.452096 
L 153.127682 269.164681 
L 153.253128 268.516722 
L 153.50402 268.486879 
L 154.131251 267.730178 
L 154.256697 267.730178 
L 154.382143 267.377987 
L 154.758481 267.6191 
L 155.009374 266.66464 
L 155.260266 266.464214 
L 155.636604 266.464214 
L 155.76205 266.926341 
L 156.640173 267.016111 
L 156.891065 265.496426 
L 157.39285 264.535363 
L 157.518296 264.814113 
L 157.643742 264.525791 
L 157.894634 263.796654 
L 158.396419 263.572518 
L 158.521865 263.572518 
L 158.772757 263.221438 
L 159.149095 262.915989 
L 159.274542 263.193129 
L 159.399988 263.193129 
L 159.65088 262.803252 
L 160.152664 262.519512 
L 161.90891 262.589199 
L 162.034356 263.165468 
L 162.159802 263.165468 
L 162.285248 264.426195 
L 162.661587 263.674769 
L 162.912479 262.803578 
L 163.037925 262.845681 
L 163.163371 261.749302 
L 163.539709 261.343655 
L 163.790602 260.925033 
L 164.794171 260.925033 
L 164.919617 260.183109 
L 165.546847 260.322128 
L 165.79774 260.322128 
L 166.299524 260.030261 
L 166.675862 260.030261 
L 167.177647 259.444822 
L 167.428539 258.936681 
L 167.930324 258.864699 
L 168.05577 258.555993 
L 170.188354 258.555993 
L 170.815584 258.322752 
L 171.066476 257.117769 
L 171.693707 257.117769 
L 171.819153 257.276194 
L 171.944599 256.091057 
L 172.446384 255.614977 
L 173.449953 255.663207 
L 173.575399 256.018981 
L 173.700845 255.231553 
L 174.328075 253.612739 
L 174.453521 253.754486 
L 174.578968 253.351036 
L 175.080752 252.878013 
L 175.331644 252.837986 
L 175.45709 252.638546 
L 175.833429 252.638546 
L 175.958875 251.878852 
L 176.084321 251.853982 
L 176.335213 251.213594 
L 176.962444 250.989824 
L 177.08789 251.062633 
L 177.213336 250.379488 
L 177.71512 249.915821 
L 178.091459 249.066401 
L 178.593243 248.920002 
L 178.844136 249.139835 
L 179.34592 249.038903 
L 179.596812 248.570265 
L 179.722258 248.692495 
L 179.847704 248.354036 
L 180.349489 248.498038 
L 180.600381 248.398567 
L 181.102166 248.343668 
L 181.60395 247.37019 
L 182.858411 247.307007 
L 182.983857 247.248441 
L 183.109303 246.970493 
L 183.736534 246.916307 
L 184.112872 247.42489 
L 184.238318 247.242499 
L 184.614657 247.106338 
L 184.740103 246.58933 
L 184.990995 246.58933 
L 185.116441 246.767481 
L 185.49278 245.867973 
L 185.618226 246.285417 
L 185.869118 244.615117 
L 186.370902 244.632328 
L 186.621795 244.169402 
L 186.872687 243.993659 
L 187.75081 244.087848 
L 189.130717 244.087848 
L 189.507055 243.047162 
L 190.385178 242.972771 
L 190.761516 243.304257 
L 190.886963 242.543044 
L 191.012409 242.662119 
L 191.263301 241.8587 
L 191.765085 241.936471 
L 192.015978 241.480998 
L 192.141424 240.696081 
L 192.643208 240.504697 
L 193.772223 240.504697 
L 193.897669 240.291056 
L 194.399454 240.116856 
L 194.5249 240.244233 
L 194.650346 239.607846 
L 197.284714 239.603671 
L 197.410161 238.984514 
L 197.911945 239.219281 
L 200.420867 239.219281 
L 200.546313 239.89881 
L 201.29899 239.807156 
L 201.424436 239.778263 
L 201.549882 239.4525 
L 202.428005 239.313504 
L 202.678897 239.194031 
L 203.055236 239.203547 
L 203.180682 238.961704 
L 203.431574 238.961704 
L 203.55702 239.340244 
L 206.693173 239.446378 
L 206.818619 238.962995 
L 206.944065 238.947515 
L 207.069511 239.123368 
L 207.44585 238.618919 
L 207.571296 238.834205 
L 207.947634 237.364641 
L 208.574865 237.364641 
L 208.825757 236.210433 
L 209.202095 236.160904 
L 209.327541 235.098545 
L 209.452988 235.012278 
L 210.33111 235.0901 
L 210.456556 234.871674 
L 210.582003 234.243607 
L 210.958341 234.077729 
L 211.083787 234.172418 
L 211.209233 232.353476 
L 211.334679 232.879072 
L 212.714587 232.879072 
L 212.840033 232.248888 
L 214.721724 232.248888 
L 214.847171 232.604736 
L 215.348955 232.546682 
L 215.725293 232.301041 
L 215.850739 232.028565 
L 216.352524 231.919227 
L 216.47797 232.397162 
L 217.105201 231.824433 
L 217.230647 231.158813 
L 217.356093 231.597989 
L 217.983323 231.588608 
L 218.359662 232.163061 
L 218.485108 231.529147 
L 219.112338 231.925156 
L 219.363231 231.211879 
L 219.739569 231.244404 
L 219.990461 229.872912 
L 220.115907 230.137463 
L 220.241353 230.137463 
L 220.99403 229.909912 
L 221.119476 229.909912 
L 221.495815 229.765759 
L 221.621261 230.699889 
L 221.746707 227.575908 
L 221.872153 227.575908 
L 221.997599 227.033296 
L 222.499384 227.388417 
L 222.62483 227.180817 
L 222.750276 227.248467 
L 222.875722 227.07538 
L 223.25206 227.07538 
L 223.377506 226.924118 
L 223.502952 226.370992 
L 224.255629 226.391626 
L 225.008306 226.349935 
L 225.133752 225.997933 
L 225.51009 226.114826 
L 226.137321 226.173309 
L 226.388213 225.955138 
L 227.015444 225.842401 
L 227.14089 226.183977 
L 227.76812 225.733476 
L 227.893566 225.792085 
L 228.144459 225.177503 
L 228.646243 224.75212 
L 228.897135 224.44456 
L 229.39892 224.44456 
L 229.649812 223.987668 
L 229.900704 224.039922 
L 232.28418 224.039922 
L 232.409627 223.40902 
L 232.535073 223.586886 
L 233.162303 223.586886 
L 233.287749 222.870445 
L 233.413196 222.960258 
L 234.165872 222.960258 
L 234.291318 222.516245 
L 234.667657 222.350666 
L 234.918549 221.691949 
L 235.043995 221.764519 
L 236.423902 221.764519 
L 236.549348 221.930641 
L 236.674795 221.621492 
L 236.800241 221.809338 
L 236.925687 221.394765 
L 237.302025 221.072817 
L 239.560055 221.072817 
L 239.936393 220.854847 
L 240.187286 220.091357 
L 240.312732 219.633245 
L 240.438178 219.866029 
L 241.065409 219.251685 
L 241.818085 219.229631 
L 242.821654 219.229631 
L 242.9471 219.795037 
L 243.448885 219.697211 
L 243.574331 218.792821 
L 243.699777 218.792821 
L 243.825223 218.98155 
L 243.950669 218.633212 
L 244.703346 218.21792 
L 244.828792 217.866381 
L 245.330576 217.395623 
L 245.581469 216.499554 
L 245.706915 216.499554 
L 246.083253 216.966235 
L 246.208699 216.455853 
L 246.334145 216.807027 
L 246.459591 216.807027 
L 246.585038 217.013433 
L 247.212268 216.907445 
L 247.46316 216.766635 
L 247.839499 216.282623 
L 248.215837 216.235027 
L 248.341283 216.023807 
L 248.968514 215.376735 
L 249.09396 215.041005 
L 249.219406 215.20846 
L 249.846637 215.20846 
L 250.097529 214.737916 
L 251.35199 214.737916 
L 251.477436 214.418981 
L 251.728328 214.491013 
L 252.731897 214.491013 
L 253.233682 214.716601 
L 253.484574 214.518039 
L 253.61002 214.778611 
L 253.986358 214.760883 
L 254.111804 214.015756 
L 254.237251 214.390682 
L 254.488143 213.589161 
L 254.989927 213.062207 
L 255.115373 213.504098 
L 255.366266 213.504098 
L 255.742604 213.24926 
L 255.993496 211.787552 
L 256.118942 211.758696 
L 256.244388 211.40614 
L 256.620727 209.886344 
L 256.746173 210.568114 
L 256.871619 210.568114 
L 257.122511 209.259256 
L 257.49885 209.283344 
L 257.624296 209.50494 
L 257.749742 209.259256 
L 257.875188 209.267283 
L 258.000634 208.824574 
L 258.376972 208.528643 
L 258.753311 207.259794 
L 258.878757 207.086063 
L 259.505987 206.741215 
L 259.75688 206.433044 
L 260.258664 206.433044 
L 260.509556 206.015641 
L 260.635002 205.282663 
L 261.011341 205.658193 
L 261.136787 205.351627 
L 261.262233 205.489973 
L 261.387679 204.921957 
L 261.513125 203.132241 
L 262.01491 203.094795 
L 262.140356 202.854075 
L 262.265802 202.96236 
L 262.391248 201.766673 
L 262.893033 201.066816 
L 265.025616 201.169804 
L 265.527401 200.95482 
L 265.652847 200.95482 
L 265.903739 201.103997 
L 266.53097 201.103997 
L 266.656416 200.549985 
L 268.036323 200.549985 
L 268.161769 200.23705 
L 268.287215 200.637642 
L 268.412662 200.6177 
L 268.538108 200.174016 
L 269.165338 200.016936 
L 269.416231 200.016936 
L 269.918015 200.498078 
L 270.043461 199.894326 
L 270.168907 200.510101 
L 270.294353 200.510101 
L 270.670692 198.314009 
L 270.921584 198.314009 
L 271.04703 197.574007 
L 271.548814 198.833945 
L 271.674261 198.833945 
L 271.925153 197.532226 
L 272.552383 197.532226 
L 272.677829 197.725945 
L 272.928722 197.571672 
L 274.434075 197.571672 
L 274.684967 196.525296 
L 275.186752 197.173453 
L 275.312198 196.761833 
L 275.437644 197.227327 
L 275.56309 196.651536 
L 275.939428 196.806871 
L 276.315767 196.310638 
L 276.441213 195.362734 
L 276.942997 195.706211 
L 277.19389 195.794523 
L 277.319336 195.446607 
L 277.695674 195.031348 
L 277.82112 195.682165 
L 278.072012 191.628355 
L 278.197459 191.557223 
L 278.699243 191.557223 
L 278.824689 190.973984 
L 278.950135 191.834514 
L 279.075581 191.834514 
L 279.45192 191.209309 
L 279.577366 191.241005 
L 279.953704 190.295759 
L 280.706381 190.199915 
L 280.831827 190.199915 
L 281.333611 190.404885 
L 281.70995 190.091345 
L 283.089857 190.022613 
L 283.340749 189.856776 
L 283.466195 189.634516 
L 283.842534 189.342751 
L 283.96798 188.623998 
L 284.218872 188.871234 
L 284.344318 188.426793 
L 284.720657 188.409549 
L 285.096995 187.807982 
L 286.978687 187.720306 
L 287.355025 187.678107 
L 287.731363 186.916946 
L 288.358594 186.916946 
L 288.48404 187.469483 
L 288.734932 187.06389 
L 289.111271 186.718522 
L 289.236717 186.452282 
L 289.487609 183.99042 
L 289.613055 184.102817 
L 289.989393 184.048178 
L 290.240286 183.503356 
L 290.365732 183.757168 
L 290.491178 183.481236 
L 290.992962 183.11049 
L 291.118408 183.588808 
L 291.871085 181.807386 
L 292.121977 181.759281 
L 292.247423 181.413683 
L 292.623762 181.458958 
L 292.874654 180.706141 
L 293.125546 180.576372 
L 297.892499 180.576372 
L 298.268837 178.92247 
L 298.394283 179.141755 
L 298.770621 179.141755 
L 298.896068 178.986389 
L 299.021514 177.914656 
L 300.652313 177.914656 
L 300.777759 177.052579 
L 301.028651 177.270968 
L 301.40499 176.689088 
L 301.655882 175.044318 
L 301.906774 175.224458 
L 302.659451 175.224458 
L 302.784897 175.814966 
L 303.286682 175.784238 
L 303.537574 173.985496 
L 304.541143 173.985496 
L 304.917481 174.650421 
L 305.293819 172.36992 
L 305.419265 172.366181 
L 305.795604 172.18344 
L 306.046496 172.216932 
L 306.171942 172.628937 
L 306.297388 171.626336 
L 306.673727 170.981013 
L 306.799173 170.277143 
L 307.050065 170.488918 
L 307.928188 170.488918 
L 308.053634 169.412475 
L 308.555418 170.672276 
L 308.806311 170.683501 
L 308.931757 169.935774 
L 309.308095 170.181983 
L 309.433541 170.078875 
L 309.684433 169.089464 
L 309.80988 168.75174 
L 310.311664 168.403294 
L 310.562556 168.833201 
L 310.688002 168.730521 
L 311.064341 168.833201 
L 311.315233 167.246366 
L 311.440679 167.229441 
L 311.566125 166.31775 
L 312.06791 166.048568 
L 312.444248 165.609625 
L 312.946032 165.609625 
L 313.071479 164.772761 
L 314.200494 164.772761 
L 314.827724 164.142217 
L 315.078616 164.493757 
L 315.454955 163.901971 
L 315.580401 163.376614 
L 315.705847 163.330154 
L 315.831293 162.426841 
L 315.956739 162.882075 
L 316.458524 162.553051 
L 316.834862 161.433514 
L 317.2112 161.603393 
L 317.336646 161.295712 
L 317.712985 159.7465 
L 318.214769 159.50534 
L 318.340215 159.50534 
L 318.591108 158.758563 
L 319.092892 158.487784 
L 320.723692 158.487784 
L 320.849138 158.207297 
L 320.974584 158.956275 
L 321.978153 158.956275 
L 322.103599 158.843339 
L 322.479937 159.487179 
L 322.981722 158.220834 
L 324.487075 158.220834 
L 324.612521 157.982153 
L 324.737967 158.202415 
L 325.114306 157.996793 
L 325.239752 156.919277 
L 325.490644 157.125669 
L 325.61609 156.940552 
L 326.243321 157.093558 
L 326.494213 155.936415 
L 326.870551 155.7816 
L 326.995997 156.046932 
L 327.121443 156.046932 
L 327.246889 155.116689 
L 327.372336 155.320487 
L 327.87412 155.320487 
L 328.250458 154.392287 
L 329.128581 153.283532 
L 329.630366 153.073218 
L 329.755812 153.661373 
L 330.006704 152.251003 
L 330.633935 152.069162 
L 331.512057 152.002262 
L 331.637504 152.253813 
L 331.76295 151.759175 
L 332.39018 151.616788 
L 333.017411 151.616788 
L 333.519195 150.423492 
L 334.271872 150.500662 
L 334.773656 149.891718 
L 334.899103 148.887329 
L 335.024549 145.503826 
L 335.651779 145.500597 
L 335.777225 145.617028 
L 335.902671 144.930643 
L 336.028118 143.558006 
L 336.153564 143.677209 
L 336.655348 143.677209 
L 336.780794 143.449315 
L 337.031686 142.603437 
L 339.16427 142.603437 
L 339.415163 142.734331 
L 340.418732 142.743638 
L 340.544178 142.406191 
L 340.920516 142.148122 
L 341.171408 142.766252 
L 341.4223 141.33881 
L 341.798639 141.382241 
L 341.924085 140.843269 
L 342.174977 140.788308 
L 342.802208 140.788308 
L 342.927654 141.082794 
L 343.680331 141.064326 
L 343.931223 140.418064 
L 344.056669 140.008071 
L 344.809346 140.114688 
L 344.934792 139.690192 
L 345.436576 139.593897 
L 345.562022 140.038499 
L 345.812915 139.235174 
L 346.189253 139.384187 
L 346.314699 139.871477 
L 346.440145 138.555004 
L 346.691037 138.555004 
L 347.192822 138.905552 
L 348.070945 138.905552 
L 348.321837 138.598037 
L 348.823621 137.924045 
L 348.949067 138.331569 
L 349.19996 137.828 
L 349.325406 137.740919 
L 349.701744 137.285901 
L 349.952636 137.504018 
L 350.078082 137.245851 
L 350.203529 137.383299 
L 350.956205 137.383299 
L 351.081651 137.240135 
L 351.583436 137.291606 
L 351.834328 137.091394 
L 351.959774 137.337532 
L 352.336112 137.122778 
L 352.461559 137.328916 
L 352.712451 136.640916 
L 353.590574 136.712849 
L 353.71602 135.834169 
L 354.217804 136.238015 
L 354.468696 135.736044 
L 354.970481 135.736044 
L 355.095927 135.339617 
L 355.472265 135.339617 
L 355.848604 135.062928 
L 356.099496 133.641563 
L 356.350388 133.816404 
L 356.726726 133.892842 
L 356.977619 132.826887 
L 357.103065 132.8984 
L 357.228511 132.719897 
L 357.855742 132.719897 
L 357.981188 131.859679 
L 358.984757 131.859679 
L 359.361095 130.448152 
L 359.486541 131.224108 
L 361.368233 131.224108 
L 361.493679 128.752677 
L 361.619125 130.523315 
L 361.995463 129.785826 
L 362.246356 122.540162 
L 362.371802 120.784425 
L 362.497248 121.227853 
L 362.999032 120.551283 
L 363.124478 120.551283 
L 363.249924 119.524477 
L 363.375371 119.799205 
L 364.128047 114.715614 
L 364.629832 114.715614 
L 364.755278 113.346745 
L 365.00617 113.346745 
L 365.131616 111.657191 
L 365.507955 111.657191 
L 365.633401 112.575775 
L 365.758847 111.722255 
L 365.884293 111.74035 
L 366.009739 110.374195 
L 366.511523 108.753629 
L 366.63697 107.888524 
L 366.887862 108.443096 
L 367.2642 107.505582 
L 367.389646 106.621033 
L 367.515092 106.786727 
L 367.765985 105.37157 
L 368.518661 105.384016 
L 368.644107 104.344923 
L 369.145892 103.424409 
L 369.396784 103.389154 
L 369.52223 102.933723 
L 370.024015 102.55922 
L 370.149461 101.352085 
L 370.274907 101.322578 
L 370.400353 100.729783 
L 370.776691 101.002314 
L 371.027584 100.07974 
L 372.031153 100.07974 
L 372.156599 99.499818 
L 372.532937 99.044979 
L 372.783829 96.978302 
L 372.909275 97.258012 
L 373.787398 97.258012 
L 373.912844 97.878857 
L 374.540075 96.266141 
L 375.543644 96.096096 
L 375.66909 95.638112 
L 376.045428 95.858793 
L 376.29632 94.703554 
L 376.547213 93.940943 
L 376.923551 94.010009 
L 377.048997 93.796117 
L 377.174443 92.967495 
L 377.299889 93.442563 
L 377.425335 93.442563 
L 377.801674 92.957676 
L 377.92712 93.284048 
L 378.178012 92.939251 
L 378.303458 93.006088 
L 378.679797 92.693762 
L 378.805243 92.831203 
L 379.056135 92.484081 
L 379.181581 92.124688 
L 379.683366 91.880466 
L 379.808812 91.269723 
L 380.059704 91.775693 
L 380.436042 90.881521 
L 380.561488 90.990124 
L 380.812381 90.844674 
L 380.937827 90.171099 
L 381.439611 89.290303 
L 381.565057 88.377047 
L 383.195857 88.377047 
L 383.321303 87.107033 
L 383.446749 87.366419 
L 383.572195 86.60255 
L 383.948533 85.909325 
L 384.07398 85.119889 
L 384.826656 85.119889 
L 384.952102 84.702701 
L 385.077548 85.333647 
L 385.202995 85.333647 
L 385.704779 84.462757 
L 385.830225 84.532553 
L 386.081117 83.508436 
L 386.206564 83.64846 
L 386.582902 83.228049 
L 386.708348 83.959371 
L 387.084686 82.285149 
L 387.461025 82.384448 
L 387.586471 81.8712 
L 387.711917 82.209873 
L 387.962809 81.409944 
L 389.719055 81.409944 
L 390.095393 80.950209 
L 390.346285 79.278493 
L 391.098962 79.278493 
L 391.224408 78.776943 
L 392.102531 78.781292 
L 392.353423 78.042481 
L 392.855208 76.908872 
L 393.73333 76.926611 
L 393.984223 76.926611 
L 394.109669 77.374849 
L 394.486007 76.922091 
L 394.611453 77.092028 
L 394.736899 75.129832 
L 394.862345 75.11053 
L 394.987792 75.629016 
L 395.36413 75.138415 
L 395.489576 74.450092 
L 395.865914 74.477446 
L 396.493145 74.181918 
L 398.123944 74.104979 
L 398.374837 73.514471 
L 398.500283 73.234426 
L 398.876621 72.971102 
L 399.127513 72.253656 
L 399.378406 71.949561 
L 400.256528 72.076013 
L 400.758313 71.738921 
L 401.51099 71.738921 
L 402.012774 69.370606 
L 402.389112 68.567504 
L 402.514558 68.835056 
L 402.890897 68.835056 
L 403.518127 69.441504 
L 405.399819 69.435686 
L 405.525265 68.37756 
L 405.901604 67.450016 
L 406.277942 65.837428 
L 406.905172 64.928114 
L 407.030619 65.102941 
L 407.156065 65.018363 
L 407.281511 64.122542 
L 407.657849 63.66624 
L 407.783295 63.948813 
L 407.908741 63.895535 
L 408.159634 61.877805 
L 408.661418 62.418103 
L 408.786864 62.389189 
L 408.91231 62.183878 
L 409.539541 61.6706 
L 409.664987 61.764484 
L 409.790433 61.668831 
L 409.915879 60.916512 
L 410.292218 60.548154 
L 410.417664 60.70775 
L 410.668556 59.883481 
L 410.794002 59.270993 
L 412.424802 59.270993 
L 412.550248 59.652227 
L 413.052032 58.950494 
L 413.177478 59.001986 
L 413.42837 57.588622 
L 414.933724 57.588622 
L 415.05917 57.107472 
L 415.184616 57.274841 
L 415.560954 57.274841 
L 415.811847 56.749151 
L 416.062739 56.718998 
L 417.3172 56.728026 
L 417.568092 56.520996 
L 418.446215 56.520996 
L 419.073446 56.030068 
L 419.198892 55.517375 
L 419.324338 55.62146 
L 419.57523 55.349353 
L 419.951568 55.251422 
L 420.077015 55.075846 
L 420.202461 55.116556 
L 420.327907 54.790462 
L 421.080583 54.809765 
L 421.20603 55.354226 
L 421.331476 54.906359 
L 421.707814 54.864176 
L 421.958706 55.091525 
L 422.585937 55.023149 
L 422.962275 54.340767 
L 423.087721 53.63745 
L 425.220305 53.731262 
L 425.345751 53.414756 
L 425.471197 52.558225 
L 425.72209 52.558225 
L 426.098428 52.026797 
L 426.223874 54.079063 
L 426.474766 50.446195 
L 426.600213 49.506186 
L 427.101997 49.862767 
L 428.105566 49.909452 
L 428.231012 49.453167 
L 428.983689 49.620215 
L 429.109135 49.802488 
L 429.234581 49.579841 
L 429.610919 49.291873 
L 429.736365 49.606752 
L 430.112704 48.798595 
L 430.489042 49.422164 
L 430.614488 49.255213 
L 430.739934 48.821612 
L 430.990827 48.971594 
L 431.868949 48.971594 
L 432.370734 48.8756 
L 432.49618 48.921037 
L 432.621626 48.270481 
L 432.747072 48.559208 
L 433.248857 47.957951 
L 433.499749 46.885958 
L 433.625195 46.458517 
L 434.126979 45.875677 
L 434.503318 44.98424 
L 434.879656 44.529261 
L 435.130548 44.640584 
L 435.255994 44.642066 
L 435.381441 44.338065 
L 435.757779 44.643549 
L 436.008671 44.267615 
L 436.134117 43.761125 
L 436.259563 44.086284 
L 437.01224 44.120277 
L 437.137686 43.533828 
L 437.514025 43.737948 
L 437.639471 42.325516 
L 438.392147 41.509111 
L 438.64304 41.569062 
L 439.521162 41.463884 
L 439.646608 40.763944 
L 439.772055 40.997979 
L 440.148393 40.655727 
L 440.273839 39.880852 
L 440.399285 39.903592 
L 440.524731 39.715441 
L 440.650177 39.288275 
L 441.277408 39.288275 
L 441.402854 39.866696 
L 441.904639 39.866696 
L 442.280977 39.247126 
L 442.908207 38.711483 
L 443.033654 38.234709 
L 443.284546 38.392453 
L 443.78633 38.789467 
L 444.539007 38.789467 
L 444.664453 38.539342 
L 445.918914 38.539342 
L 446.295253 37.438125 
L 446.546145 38.072313 
L 446.671591 38.072313 
L 446.671591 38.072313 
" clip-path="url(#p98d7c306e1)" style="fill: none; stroke: #008000; stroke-width: 0.7; stroke-linecap: square"/>
   </g>
   <g id="patch_3">
    <path d="M 20.5625 354.958125 
L 20.5625 22.318125 
" style="fill: none; stroke: #000000; stroke-width: 0.8; stroke-linejoin: miter; stroke-linecap: square"/>
   </g>
   <g id="patch_4">
    <path d="M 466.9625 354.958125 
L 466.9625 22.318125 
" style="fill: none; stroke: #000000; stroke-width: 0.8; stroke-linejoin: miter; stroke-linecap: square"/>
   </g>
   <g id="patch_5">
    <path d="M 20.5625 354.958125 
L 466.9625 354.958125 
" style="fill: none; stroke: #000000; stroke-width: 0.8; stroke-linejoin: miter; stroke-linecap: square"/>
   </g>
   <g id="patch_6">
    <path d="M 20.5625 22.318125 
L 466.9625 22.318125 
" style="fill: none; stroke: #000000; stroke-width: 0.8; stroke-linejoin: miter; stroke-linecap: square"/>
   </g>
   <g id="text_16">
    <!-- Buy/Sell Strategy, LOW -->
    <g transform="translate(174.225312 16.318125)scale(0.12 -0.12)">
     <defs>
      <path id="DejaVuSans-42" d="M 1259 2228 
L 1259 519 
L 2272 519 
Q 2781 519 3026 730 
Q 3272 941 3272 1375 
Q 3272 1813 3026 2020 
Q 2781 2228 2272 2228 
L 1259 2228 
z
M 1259 4147 
L 1259 2741 
L 2194 2741 
Q 2656 2741 2882 2914 
Q 3109 3088 3109 3444 
Q 3109 3797 2882 3972 
Q 2656 4147 2194 4147 
L 1259 4147 
z
M 628 4666 
L 2241 4666 
Q 2963 4666 3353 4366 
Q 3744 4066 3744 3513 
Q 3744 3084 3544 2831 
Q 3344 2578 2956 2516 
Q 3422 2416 3680 2098 
Q 3938 1781 3938 1306 
Q 3938 681 3513 340 
Q 3088 0 2303 0 
L 628 0 
L 628 4666 
z
" transform="scale(0.015625)"/>
      <path id="DejaVuSans-75" d="M 544 1381 
L 544 3500 
L 1119 3500 
L 1119 1403 
Q 1119 906 1312 657 
Q 1506 409 1894 409 
Q 2359 409 2629 706 
Q 2900 1003 2900 1516 
L 2900 3500 
L 3475 3500 
L 3475 0 
L 2900 0 
L 2900 538 
Q 2691 219 2414 64 
Q 2138 -91 1772 -91 
Q 1169 -91 856 284 
Q 544 659 544 1381 
z
M 1991 3584 
L 1991 3584 
z
" transform="scale(0.015625)"/>
      <path id="DejaVuSans-79" d="M 2059 -325 
Q 1816 -950 1584 -1140 
Q 1353 -1331 966 -1331 
L 506 -1331 
L 506 -850 
L 844 -850 
Q 1081 -850 1212 -737 
Q 1344 -625 1503 -206 
L 1606 56 
L 191 3500 
L 800 3500 
L 1894 763 
L 2988 3500 
L 3597 3500 
L 2059 -325 
z
" transform="scale(0.015625)"/>
      <path id="DejaVuSans-2f" d="M 1625 4666 
L 2156 4666 
L 531 -594 
L 0 -594 
L 1625 4666 
z
" transform="scale(0.015625)"/>
      <path id="DejaVuSans-53" d="M 3425 4513 
L 3425 3897 
Q 3066 4069 2747 4153 
Q 2428 4238 2131 4238 
Q 1616 4238 1336 4038 
Q 1056 3838 1056 3469 
Q 1056 3159 1242 3001 
Q 1428 2844 1947 2747 
L 2328 2669 
Q 3034 2534 3370 2195 
Q 3706 1856 3706 1288 
Q 3706 609 3251 259 
Q 2797 -91 1919 -91 
Q 1588 -91 1214 -16 
Q 841 59 441 206 
L 441 856 
Q 825 641 1194 531 
Q 1563 422 1919 422 
Q 2459 422 2753 634 
Q 3047 847 3047 1241 
Q 3047 1584 2836 1778 
Q 2625 1972 2144 2069 
L 1759 2144 
Q 1053 2284 737 2584 
Q 422 2884 422 3419 
Q 422 4038 858 4394 
Q 1294 4750 2059 4750 
Q 2388 4750 2728 4690 
Q 3069 4631 3425 4513 
z
" transform="scale(0.015625)"/>
      <path id="DejaVuSans-65" d="M 3597 1894 
L 3597 1613 
L 953 1613 
Q 991 1019 1311 708 
Q 1631 397 2203 397 
Q 2534 397 2845 478 
Q 3156 559 3463 722 
L 3463 178 
Q 3153 47 2828 -22 
Q 2503 -91 2169 -91 
Q 1331 -91 842 396 
Q 353 884 353 1716 
Q 353 2575 817 3079 
Q 1281 3584 2069 3584 
Q 2775 3584 3186 3129 
Q 3597 2675 3597 1894 
z
M 3022 2063 
Q 3016 2534 2758 2815 
Q 2500 3097 2075 3097 
Q 1594 3097 1305 2825 
Q 1016 2553 972 2059 
L 3022 2063 
z
" transform="scale(0.015625)"/>
      <path id="DejaVuSans-6c" d="M 603 4863 
L 1178 4863 
L 1178 0 
L 603 0 
L 603 4863 
z
" transform="scale(0.015625)"/>
      <path id="DejaVuSans-20" transform="scale(0.015625)"/>
      <path id="DejaVuSans-74" d="M 1172 4494 
L 1172 3500 
L 2356 3500 
L 2356 3053 
L 1172 3053 
L 1172 1153 
Q 1172 725 1289 603 
Q 1406 481 1766 481 
L 2356 481 
L 2356 0 
L 1766 0 
Q 1100 0 847 248 
Q 594 497 594 1153 
L 594 3053 
L 172 3053 
L 172 3500 
L 594 3500 
L 594 4494 
L 1172 4494 
z
" transform="scale(0.015625)"/>
      <path id="DejaVuSans-72" d="M 2631 2963 
Q 2534 3019 2420 3045 
Q 2306 3072 2169 3072 
Q 1681 3072 1420 2755 
Q 1159 2438 1159 1844 
L 1159 0 
L 581 0 
L 581 3500 
L 1159 3500 
L 1159 2956 
Q 1341 3275 1631 3429 
Q 1922 3584 2338 3584 
Q 2397 3584 2469 3576 
Q 2541 3569 2628 3553 
L 2631 2963 
z
" transform="scale(0.015625)"/>
      <path id="DejaVuSans-61" d="M 2194 1759 
Q 1497 1759 1228 1600 
Q 959 1441 959 1056 
Q 959 750 1161 570 
Q 1363 391 1709 391 
Q 2188 391 2477 730 
Q 2766 1069 2766 1631 
L 2766 1759 
L 2194 1759 
z
M 3341 1997 
L 3341 0 
L 2766 0 
L 2766 531 
Q 2569 213 2275 61 
Q 1981 -91 1556 -91 
Q 1019 -91 701 211 
Q 384 513 384 1019 
Q 384 1609 779 1909 
Q 1175 2209 1959 2209 
L 2766 2209 
L 2766 2266 
Q 2766 2663 2505 2880 
Q 2244 3097 1772 3097 
Q 1472 3097 1187 3025 
Q 903 2953 641 2809 
L 641 3341 
Q 956 3463 1253 3523 
Q 1550 3584 1831 3584 
Q 2591 3584 2966 3190 
Q 3341 2797 3341 1997 
z
" transform="scale(0.015625)"/>
      <path id="DejaVuSans-67" d="M 2906 1791 
Q 2906 2416 2648 2759 
Q 2391 3103 1925 3103 
Q 1463 3103 1205 2759 
Q 947 2416 947 1791 
Q 947 1169 1205 825 
Q 1463 481 1925 481 
Q 2391 481 2648 825 
Q 2906 1169 2906 1791 
z
M 3481 434 
Q 3481 -459 3084 -895 
Q 2688 -1331 1869 -1331 
Q 1566 -1331 1297 -1286 
Q 1028 -1241 775 -1147 
L 775 -588 
Q 1028 -725 1275 -790 
Q 1522 -856 1778 -856 
Q 2344 -856 2625 -561 
Q 2906 -266 2906 331 
L 2906 616 
Q 2728 306 2450 153 
Q 2172 0 1784 0 
Q 1141 0 747 490 
Q 353 981 353 1791 
Q 353 2603 747 3093 
Q 1141 3584 1784 3584 
Q 2172 3584 2450 3431 
Q 2728 3278 2906 2969 
L 2906 3500 
L 3481 3500 
L 3481 434 
z
" transform="scale(0.015625)"/>
      <path id="DejaVuSans-2c" d="M 750 794 
L 1409 794 
L 1409 256 
L 897 -744 
L 494 -744 
L 750 256 
L 750 794 
z
" transform="scale(0.015625)"/>
      <path id="DejaVuSans-4c" d="M 628 4666 
L 1259 4666 
L 1259 531 
L 3531 531 
L 3531 0 
L 628 0 
L 628 4666 
z
" transform="scale(0.015625)"/>
      <path id="DejaVuSans-4f" d="M 2522 4238 
Q 1834 4238 1429 3725 
Q 1025 3213 1025 2328 
Q 1025 1447 1429 934 
Q 1834 422 2522 422 
Q 3209 422 3611 934 
Q 4013 1447 4013 2328 
Q 4013 3213 3611 3725 
Q 3209 4238 2522 4238 
z
M 2522 4750 
Q 3503 4750 4090 4092 
Q 4678 3434 4678 2328 
Q 4678 1225 4090 567 
Q 3503 -91 2522 -91 
Q 1538 -91 948 565 
Q 359 1222 359 2328 
Q 359 3434 948 4092 
Q 1538 4750 2522 4750 
z
" transform="scale(0.015625)"/>
      <path id="DejaVuSans-57" d="M 213 4666 
L 850 4666 
L 1831 722 
L 2809 4666 
L 3519 4666 
L 4500 722 
L 5478 4666 
L 6119 4666 
L 4947 0 
L 4153 0 
L 3169 4050 
L 2175 0 
L 1381 0 
L 213 4666 
z
" transform="scale(0.015625)"/>
     </defs>
     <use xlink:href="#DejaVuSans-42"/>
     <use xlink:href="#DejaVuSans-75" x="68.603516"/>
     <use xlink:href="#DejaVuSans-79" x="131.982422"/>
     <use xlink:href="#DejaVuSans-2f" x="191.162109"/>
     <use xlink:href="#DejaVuSans-53" x="224.853516"/>
     <use xlink:href="#DejaVuSans-65" x="288.330078"/>
     <use xlink:href="#DejaVuSans-6c" x="349.853516"/>
     <use xlink:href="#DejaVuSans-6c" x="377.636719"/>
     <use xlink:href="#DejaVuSans-20" x="405.419922"/>
     <use xlink:href="#DejaVuSans-53" x="437.207031"/>
     <use xlink:href="#DejaVuSans-74" x="500.683594"/>
     <use xlink:href="#DejaVuSans-72" x="539.892578"/>
     <use xlink:href="#DejaVuSans-61" x="581.005859"/>
     <use xlink:href="#DejaVuSans-74" x="642.285156"/>
     <use xlink:href="#DejaVuSans-65" x="681.494141"/>
     <use xlink:href="#DejaVuSans-67" x="743.017578"/>
     <use xlink:href="#DejaVuSans-79" x="806.494141"/>
     <use xlink:href="#DejaVuSans-2c" x="865.673828"/>
     <use xlink:href="#DejaVuSans-20" x="897.460938"/>
     <use xlink:href="#DejaVuSans-4c" x="929.248047"/>
     <use xlink:href="#DejaVuSans-4f" x="981.335938"/>
     <use xlink:href="#DejaVuSans-57" x="1060.046875"/>
    </g>
   </g>
   <g id="legend_1">
    <g id="patch_7">
     <path d="M 27.5625 59.674375 
L 148.073438 59.674375 
Q 150.073438 59.674375 150.073438 57.674375 
L 150.073438 29.318125 
Q 150.073438 27.318125 148.073438 27.318125 
L 27.5625 27.318125 
Q 25.5625 27.318125 25.5625 29.318125 
L 25.5625 57.674375 
Q 25.5625 59.674375 27.5625 59.674375 
z
" style="fill: #ffffff; opacity: 0.8; stroke: #cccccc; stroke-linejoin: miter"/>
    </g>
    <g id="line2d_18">
     <path d="M 29.5625 35.416562 
L 39.5625 35.416562 
L 49.5625 35.416562 
" style="fill: none; stroke: #ff0000; stroke-width: 0.7; stroke-linecap: square"/>
    </g>
    <g id="text_17">
     <!-- LOW Returns -->
     <g transform="translate(57.5625 38.916562)scale(0.1 -0.1)">
      <defs>
       <path id="DejaVuSans-52" d="M 2841 2188 
Q 3044 2119 3236 1894 
Q 3428 1669 3622 1275 
L 4263 0 
L 3584 0 
L 2988 1197 
Q 2756 1666 2539 1819 
Q 2322 1972 1947 1972 
L 1259 1972 
L 1259 0 
L 628 0 
L 628 4666 
L 2053 4666 
Q 2853 4666 3247 4331 
Q 3641 3997 3641 3322 
Q 3641 2881 3436 2590 
Q 3231 2300 2841 2188 
z
M 1259 4147 
L 1259 2491 
L 2053 2491 
Q 2509 2491 2742 2702 
Q 2975 2913 2975 3322 
Q 2975 3731 2742 3939 
Q 2509 4147 2053 4147 
L 1259 4147 
z
" transform="scale(0.015625)"/>
       <path id="DejaVuSans-6e" d="M 3513 2113 
L 3513 0 
L 2938 0 
L 2938 2094 
Q 2938 2591 2744 2837 
Q 2550 3084 2163 3084 
Q 1697 3084 1428 2787 
Q 1159 2491 1159 1978 
L 1159 0 
L 581 0 
L 581 3500 
L 1159 3500 
L 1159 2956 
Q 1366 3272 1645 3428 
Q 1925 3584 2291 3584 
Q 2894 3584 3203 3211 
Q 3513 2838 3513 2113 
z
" transform="scale(0.015625)"/>
       <path id="DejaVuSans-73" d="M 2834 3397 
L 2834 2853 
Q 2591 2978 2328 3040 
Q 2066 3103 1784 3103 
Q 1356 3103 1142 2972 
Q 928 2841 928 2578 
Q 928 2378 1081 2264 
Q 1234 2150 1697 2047 
L 1894 2003 
Q 2506 1872 2764 1633 
Q 3022 1394 3022 966 
Q 3022 478 2636 193 
Q 2250 -91 1575 -91 
Q 1294 -91 989 -36 
Q 684 19 347 128 
L 347 722 
Q 666 556 975 473 
Q 1284 391 1588 391 
Q 1994 391 2212 530 
Q 2431 669 2431 922 
Q 2431 1156 2273 1281 
Q 2116 1406 1581 1522 
L 1381 1569 
Q 847 1681 609 1914 
Q 372 2147 372 2553 
Q 372 3047 722 3315 
Q 1072 3584 1716 3584 
Q 2034 3584 2315 3537 
Q 2597 3491 2834 3397 
z
" transform="scale(0.015625)"/>
      </defs>
      <use xlink:href="#DejaVuSans-4c"/>
      <use xlink:href="#DejaVuSans-4f" x="52.087891"/>
      <use xlink:href="#DejaVuSans-57" x="130.798828"/>
      <use xlink:href="#DejaVuSans-20" x="229.675781"/>
      <use xlink:href="#DejaVuSans-52" x="261.462891"/>
      <use xlink:href="#DejaVuSans-65" x="326.445312"/>
      <use xlink:href="#DejaVuSans-74" x="387.96875"/>
      <use xlink:href="#DejaVuSans-75" x="427.177734"/>
      <use xlink:href="#DejaVuSans-72" x="490.556641"/>
      <use xlink:href="#DejaVuSans-6e" x="529.919922"/>
      <use xlink:href="#DejaVuSans-73" x="593.298828"/>
     </g>
    </g>
    <g id="line2d_19">
     <path d="M 29.5625 50.094687 
L 39.5625 50.094687 
L 49.5625 50.094687 
" style="fill: none; stroke: #008000; stroke-width: 0.7; stroke-linecap: square"/>
    </g>
    <g id="text_18">
     <!-- Predicted Returns -->
     <g transform="translate(57.5625 53.594687)scale(0.1 -0.1)">
      <defs>
       <path id="DejaVuSans-50" d="M 1259 4147 
L 1259 2394 
L 2053 2394 
Q 2494 2394 2734 2622 
Q 2975 2850 2975 3272 
Q 2975 3691 2734 3919 
Q 2494 4147 2053 4147 
L 1259 4147 
z
M 628 4666 
L 2053 4666 
Q 2838 4666 3239 4311 
Q 3641 3956 3641 3272 
Q 3641 2581 3239 2228 
Q 2838 1875 2053 1875 
L 1259 1875 
L 1259 0 
L 628 0 
L 628 4666 
z
" transform="scale(0.015625)"/>
       <path id="DejaVuSans-64" d="M 2906 2969 
L 2906 4863 
L 3481 4863 
L 3481 0 
L 2906 0 
L 2906 525 
Q 2725 213 2448 61 
Q 2172 -91 1784 -91 
Q 1150 -91 751 415 
Q 353 922 353 1747 
Q 353 2572 751 3078 
Q 1150 3584 1784 3584 
Q 2172 3584 2448 3432 
Q 2725 3281 2906 2969 
z
M 947 1747 
Q 947 1113 1208 752 
Q 1469 391 1925 391 
Q 2381 391 2643 752 
Q 2906 1113 2906 1747 
Q 2906 2381 2643 2742 
Q 2381 3103 1925 3103 
Q 1469 3103 1208 2742 
Q 947 2381 947 1747 
z
" transform="scale(0.015625)"/>
       <path id="DejaVuSans-69" d="M 603 3500 
L 1178 3500 
L 1178 0 
L 603 0 
L 603 3500 
z
M 603 4863 
L 1178 4863 
L 1178 4134 
L 603 4134 
L 603 4863 
z
" transform="scale(0.015625)"/>
       <path id="DejaVuSans-63" d="M 3122 3366 
L 3122 2828 
Q 2878 2963 2633 3030 
Q 2388 3097 2138 3097 
Q 1578 3097 1268 2742 
Q 959 2388 959 1747 
Q 959 1106 1268 751 
Q 1578 397 2138 397 
Q 2388 397 2633 464 
Q 2878 531 3122 666 
L 3122 134 
Q 2881 22 2623 -34 
Q 2366 -91 2075 -91 
Q 1284 -91 818 406 
Q 353 903 353 1747 
Q 353 2603 823 3093 
Q 1294 3584 2113 3584 
Q 2378 3584 2631 3529 
Q 2884 3475 3122 3366 
z
" transform="scale(0.015625)"/>
      </defs>
      <use xlink:href="#DejaVuSans-50"/>
      <use xlink:href="#DejaVuSans-72" x="58.552734"/>
      <use xlink:href="#DejaVuSans-65" x="97.416016"/>
      <use xlink:href="#DejaVuSans-64" x="158.939453"/>
      <use xlink:href="#DejaVuSans-69" x="222.416016"/>
      <use xlink:href="#DejaVuSans-63" x="250.199219"/>
      <use xlink:href="#DejaVuSans-74" x="305.179688"/>
      <use xlink:href="#DejaVuSans-65" x="344.388672"/>
      <use xlink:href="#DejaVuSans-64" x="405.912109"/>
      <use xlink:href="#DejaVuSans-20" x="469.388672"/>
      <use xlink:href="#DejaVuSans-52" x="501.175781"/>
      <use xlink:href="#DejaVuSans-65" x="566.158203"/>
      <use xlink:href="#DejaVuSans-74" x="627.681641"/>
      <use xlink:href="#DejaVuSans-75" x="666.890625"/>
      <use xlink:href="#DejaVuSans-72" x="730.269531"/>
      <use xlink:href="#DejaVuSans-6e" x="769.632812"/>
      <use xlink:href="#DejaVuSans-73" x="833.011719"/>
     </g>
    </g>
   </g>
  </g>
 </g>
 <defs>
  <clipPath id="p98d7c306e1">
   <rect x="20.5625" y="22.318125" width="446.4" height="332.64"/>
  </clipPath>
 </defs>
</svg>
