<?xml version="1.0" encoding="utf-8" standalone="no"?>
<!DOCTYPE svg PUBLIC "-//W3C//DTD SVG 1.1//EN"
  "http://www.w3.org/Graphics/SVG/1.1/DTD/svg11.dtd">
<svg xmlns:xlink="http://www.w3.org/1999/xlink" width="691.28175pt" height="422.947075pt" viewBox="0 0 691.28175 422.947075" xmlns="http://www.w3.org/2000/svg" version="1.1">
 <metadata>
  <rdf:RDF xmlns:dc="http://purl.org/dc/elements/1.1/" xmlns:cc="http://creativecommons.org/ns#" xmlns:rdf="http://www.w3.org/1999/02/22-rdf-syntax-ns#">
   <cc:Work>
    <dc:type rdf:resource="http://purl.org/dc/dcmitype/StillImage"/>
    <dc:date>2023-04-23T14:47:35.879635</dc:date>
    <dc:format>image/svg+xml</dc:format>
    <dc:creator>
     <cc:Agent>
      <dc:title>Matplotlib v3.5.1, https://matplotlib.org/</dc:title>
     </cc:Agent>
    </dc:creator>
   </cc:Work>
  </rdf:RDF>
 </metadata>
 <defs>
  <style type="text/css">*{stroke-linejoin: round; stroke-linecap: butt}</style>
 </defs>
 <g id="figure_1">
  <g id="patch_1">
   <path d="M 0 422.947075 
L 691.28175 422.947075 
L 691.28175 0 
L 0 0 
z
" style="fill: #f0f0f0"/>
  </g>
  <g id="axes_1">
   <g id="patch_2">
    <path d="M 57.68175 378.43845 
L 684.08175 378.43845 
L 684.08175 28.51845 
L 57.68175 28.51845 
z
" style="fill: #f0f0f0"/>
   </g>
   <g id="matplotlib.axis_1">
    <g id="xtick_1">
     <g id="line2d_1">
      <path d="M 86.154477 378.43845 
L 86.154477 28.51845 
" clip-path="url(#pfb2d275cf6)" style="fill: none; stroke: #cbcbcb"/>
     </g>
     <g id="line2d_2"/>
     <g id="text_1">
      <!-- 0 -->
      <g transform="translate(81.700727 392.576263)scale(0.14 -0.14)">
       <defs>
        <path id="DejaVuSans-30" d="M 2034 4250 
Q 1547 4250 1301 3770 
Q 1056 3291 1056 2328 
Q 1056 1369 1301 889 
Q 1547 409 2034 409 
Q 2525 409 2770 889 
Q 3016 1369 3016 2328 
Q 3016 3291 2770 3770 
Q 2525 4250 2034 4250 
z
M 2034 4750 
Q 2819 4750 3233 4129 
Q 3647 3509 3647 2328 
Q 3647 1150 3233 529 
Q 2819 -91 2034 -91 
Q 1250 -91 836 529 
Q 422 1150 422 2328 
Q 422 3509 836 4129 
Q 1250 4750 2034 4750 
z
" transform="scale(0.015625)"/>
       </defs>
       <use xlink:href="#DejaVuSans-30"/>
      </g>
     </g>
    </g>
    <g id="xtick_2">
     <g id="line2d_3">
      <path d="M 207.573357 378.43845 
L 207.573357 28.51845 
" clip-path="url(#pfb2d275cf6)" style="fill: none; stroke: #cbcbcb"/>
     </g>
     <g id="line2d_4"/>
     <g id="text_2">
      <!-- 500 -->
      <g transform="translate(194.212107 392.576263)scale(0.14 -0.14)">
       <defs>
        <path id="DejaVuSans-35" d="M 691 4666 
L 3169 4666 
L 3169 4134 
L 1269 4134 
L 1269 2991 
Q 1406 3038 1543 3061 
Q 1681 3084 1819 3084 
Q 2600 3084 3056 2656 
Q 3513 2228 3513 1497 
Q 3513 744 3044 326 
Q 2575 -91 1722 -91 
Q 1428 -91 1123 -41 
Q 819 9 494 109 
L 494 744 
Q 775 591 1075 516 
Q 1375 441 1709 441 
Q 2250 441 2565 725 
Q 2881 1009 2881 1497 
Q 2881 1984 2565 2268 
Q 2250 2553 1709 2553 
Q 1456 2553 1204 2497 
Q 953 2441 691 2322 
L 691 4666 
z
" transform="scale(0.015625)"/>
       </defs>
       <use xlink:href="#DejaVuSans-35"/>
       <use xlink:href="#DejaVuSans-30" x="63.623047"/>
       <use xlink:href="#DejaVuSans-30" x="127.246094"/>
      </g>
     </g>
    </g>
    <g id="xtick_3">
     <g id="line2d_5">
      <path d="M 328.992237 378.43845 
L 328.992237 28.51845 
" clip-path="url(#pfb2d275cf6)" style="fill: none; stroke: #cbcbcb"/>
     </g>
     <g id="line2d_6"/>
     <g id="text_3">
      <!-- 1000 -->
      <g transform="translate(311.177237 392.576263)scale(0.14 -0.14)">
       <defs>
        <path id="DejaVuSans-31" d="M 794 531 
L 1825 531 
L 1825 4091 
L 703 3866 
L 703 4441 
L 1819 4666 
L 2450 4666 
L 2450 531 
L 3481 531 
L 3481 0 
L 794 0 
L 794 531 
z
" transform="scale(0.015625)"/>
       </defs>
       <use xlink:href="#DejaVuSans-31"/>
       <use xlink:href="#DejaVuSans-30" x="63.623047"/>
       <use xlink:href="#DejaVuSans-30" x="127.246094"/>
       <use xlink:href="#DejaVuSans-30" x="190.869141"/>
      </g>
     </g>
    </g>
    <g id="xtick_4">
     <g id="line2d_7">
      <path d="M 450.411116 378.43845 
L 450.411116 28.51845 
" clip-path="url(#pfb2d275cf6)" style="fill: none; stroke: #cbcbcb"/>
     </g>
     <g id="line2d_8"/>
     <g id="text_4">
      <!-- 1500 -->
      <g transform="translate(432.596116 392.576263)scale(0.14 -0.14)">
       <use xlink:href="#DejaVuSans-31"/>
       <use xlink:href="#DejaVuSans-35" x="63.623047"/>
       <use xlink:href="#DejaVuSans-30" x="127.246094"/>
       <use xlink:href="#DejaVuSans-30" x="190.869141"/>
      </g>
     </g>
    </g>
    <g id="xtick_5">
     <g id="line2d_9">
      <path d="M 571.829996 378.43845 
L 571.829996 28.51845 
" clip-path="url(#pfb2d275cf6)" style="fill: none; stroke: #cbcbcb"/>
     </g>
     <g id="line2d_10"/>
     <g id="text_5">
      <!-- 2000 -->
      <g transform="translate(554.014996 392.576263)scale(0.14 -0.14)">
       <defs>
        <path id="DejaVuSans-32" d="M 1228 531 
L 3431 531 
L 3431 0 
L 469 0 
L 469 531 
Q 828 903 1448 1529 
Q 2069 2156 2228 2338 
Q 2531 2678 2651 2914 
Q 2772 3150 2772 3378 
Q 2772 3750 2511 3984 
Q 2250 4219 1831 4219 
Q 1534 4219 1204 4116 
Q 875 4013 500 3803 
L 500 4441 
Q 881 4594 1212 4672 
Q 1544 4750 1819 4750 
Q 2544 4750 2975 4387 
Q 3406 4025 3406 3419 
Q 3406 3131 3298 2873 
Q 3191 2616 2906 2266 
Q 2828 2175 2409 1742 
Q 1991 1309 1228 531 
z
" transform="scale(0.015625)"/>
       </defs>
       <use xlink:href="#DejaVuSans-32"/>
       <use xlink:href="#DejaVuSans-30" x="63.623047"/>
       <use xlink:href="#DejaVuSans-30" x="127.246094"/>
       <use xlink:href="#DejaVuSans-30" x="190.869141"/>
      </g>
     </g>
    </g>
    <g id="text_6">
     <!-- Date -->
     <g transform="translate(350.804438 412.2532)scale(0.168 -0.168)">
      <defs>
       <path id="DejaVuSans-44" d="M 1259 4147 
L 1259 519 
L 2022 519 
Q 2988 519 3436 956 
Q 3884 1394 3884 2338 
Q 3884 3275 3436 3711 
Q 2988 4147 2022 4147 
L 1259 4147 
z
M 628 4666 
L 1925 4666 
Q 3281 4666 3915 4102 
Q 4550 3538 4550 2338 
Q 4550 1131 3912 565 
Q 3275 0 1925 0 
L 628 0 
L 628 4666 
z
" transform="scale(0.015625)"/>
       <path id="DejaVuSans-61" d="M 2194 1759 
Q 1497 1759 1228 1600 
Q 959 1441 959 1056 
Q 959 750 1161 570 
Q 1363 391 1709 391 
Q 2188 391 2477 730 
Q 2766 1069 2766 1631 
L 2766 1759 
L 2194 1759 
z
M 3341 1997 
L 3341 0 
L 2766 0 
L 2766 531 
Q 2569 213 2275 61 
Q 1981 -91 1556 -91 
Q 1019 -91 701 211 
Q 384 513 384 1019 
Q 384 1609 779 1909 
Q 1175 2209 1959 2209 
L 2766 2209 
L 2766 2266 
Q 2766 2663 2505 2880 
Q 2244 3097 1772 3097 
Q 1472 3097 1187 3025 
Q 903 2953 641 2809 
L 641 3341 
Q 956 3463 1253 3523 
Q 1550 3584 1831 3584 
Q 2591 3584 2966 3190 
Q 3341 2797 3341 1997 
z
" transform="scale(0.015625)"/>
       <path id="DejaVuSans-74" d="M 1172 4494 
L 1172 3500 
L 2356 3500 
L 2356 3053 
L 1172 3053 
L 1172 1153 
Q 1172 725 1289 603 
Q 1406 481 1766 481 
L 2356 481 
L 2356 0 
L 1766 0 
Q 1100 0 847 248 
Q 594 497 594 1153 
L 594 3053 
L 172 3053 
L 172 3500 
L 594 3500 
L 594 4494 
L 1172 4494 
z
" transform="scale(0.015625)"/>
       <path id="DejaVuSans-65" d="M 3597 1894 
L 3597 1613 
L 953 1613 
Q 991 1019 1311 708 
Q 1631 397 2203 397 
Q 2534 397 2845 478 
Q 3156 559 3463 722 
L 3463 178 
Q 3153 47 2828 -22 
Q 2503 -91 2169 -91 
Q 1331 -91 842 396 
Q 353 884 353 1716 
Q 353 2575 817 3079 
Q 1281 3584 2069 3584 
Q 2775 3584 3186 3129 
Q 3597 2675 3597 1894 
z
M 3022 2063 
Q 3016 2534 2758 2815 
Q 2500 3097 2075 3097 
Q 1594 3097 1305 2825 
Q 1016 2553 972 2059 
L 3022 2063 
z
" transform="scale(0.015625)"/>
      </defs>
      <use xlink:href="#DejaVuSans-44"/>
      <use xlink:href="#DejaVuSans-61" x="77.001953"/>
      <use xlink:href="#DejaVuSans-74" x="138.28125"/>
      <use xlink:href="#DejaVuSans-65" x="177.490234"/>
     </g>
    </g>
   </g>
   <g id="matplotlib.axis_2">
    <g id="ytick_1">
     <g id="line2d_11">
      <path d="M 57.68175 341.612798 
L 684.08175 341.612798 
" clip-path="url(#pfb2d275cf6)" style="fill: none; stroke: #dcdcdc; stroke-width: 0.5"/>
     </g>
     <g id="line2d_12"/>
     <g id="text_7">
      <!-- 25 -->
      <g transform="translate(36.36675 346.931704)scale(0.14 -0.14)">
       <use xlink:href="#DejaVuSans-32"/>
       <use xlink:href="#DejaVuSans-35" x="63.623047"/>
      </g>
     </g>
    </g>
    <g id="ytick_2">
     <g id="line2d_13">
      <path d="M 57.68175 294.29274 
L 684.08175 294.29274 
" clip-path="url(#pfb2d275cf6)" style="fill: none; stroke: #dcdcdc; stroke-width: 0.5"/>
     </g>
     <g id="line2d_14"/>
     <g id="text_8">
      <!-- 50 -->
      <g transform="translate(36.36675 299.611646)scale(0.14 -0.14)">
       <use xlink:href="#DejaVuSans-35"/>
       <use xlink:href="#DejaVuSans-30" x="63.623047"/>
      </g>
     </g>
    </g>
    <g id="ytick_3">
     <g id="line2d_15">
      <path d="M 57.68175 246.972681 
L 684.08175 246.972681 
" clip-path="url(#pfb2d275cf6)" style="fill: none; stroke: #dcdcdc; stroke-width: 0.5"/>
     </g>
     <g id="line2d_16"/>
     <g id="text_9">
      <!-- 75 -->
      <g transform="translate(36.36675 252.291588)scale(0.14 -0.14)">
       <defs>
        <path id="DejaVuSans-37" d="M 525 4666 
L 3525 4666 
L 3525 4397 
L 1831 0 
L 1172 0 
L 2766 4134 
L 525 4134 
L 525 4666 
z
" transform="scale(0.015625)"/>
       </defs>
       <use xlink:href="#DejaVuSans-37"/>
       <use xlink:href="#DejaVuSans-35" x="63.623047"/>
      </g>
     </g>
    </g>
    <g id="ytick_4">
     <g id="line2d_17">
      <path d="M 57.68175 199.652623 
L 684.08175 199.652623 
" clip-path="url(#pfb2d275cf6)" style="fill: none; stroke: #dcdcdc; stroke-width: 0.5"/>
     </g>
     <g id="line2d_18"/>
     <g id="text_10">
      <!-- 100 -->
      <g transform="translate(27.45925 204.97153)scale(0.14 -0.14)">
       <use xlink:href="#DejaVuSans-31"/>
       <use xlink:href="#DejaVuSans-30" x="63.623047"/>
       <use xlink:href="#DejaVuSans-30" x="127.246094"/>
      </g>
     </g>
    </g>
    <g id="ytick_5">
     <g id="line2d_19">
      <path d="M 57.68175 152.332565 
L 684.08175 152.332565 
" clip-path="url(#pfb2d275cf6)" style="fill: none; stroke: #dcdcdc; stroke-width: 0.5"/>
     </g>
     <g id="line2d_20"/>
     <g id="text_11">
      <!-- 125 -->
      <g transform="translate(27.45925 157.651471)scale(0.14 -0.14)">
       <use xlink:href="#DejaVuSans-31"/>
       <use xlink:href="#DejaVuSans-32" x="63.623047"/>
       <use xlink:href="#DejaVuSans-35" x="127.246094"/>
      </g>
     </g>
    </g>
    <g id="ytick_6">
     <g id="line2d_21">
      <path d="M 57.68175 105.012507 
L 684.08175 105.012507 
" clip-path="url(#pfb2d275cf6)" style="fill: none; stroke: #dcdcdc; stroke-width: 0.5"/>
     </g>
     <g id="line2d_22"/>
     <g id="text_12">
      <!-- 150 -->
      <g transform="translate(27.45925 110.331413)scale(0.14 -0.14)">
       <use xlink:href="#DejaVuSans-31"/>
       <use xlink:href="#DejaVuSans-35" x="63.623047"/>
       <use xlink:href="#DejaVuSans-30" x="127.246094"/>
      </g>
     </g>
    </g>
    <g id="ytick_7">
     <g id="line2d_23">
      <path d="M 57.68175 57.692449 
L 684.08175 57.692449 
" clip-path="url(#pfb2d275cf6)" style="fill: none; stroke: #dcdcdc; stroke-width: 0.5"/>
     </g>
     <g id="line2d_24"/>
     <g id="text_13">
      <!-- 175 -->
      <g transform="translate(27.45925 63.011355)scale(0.14 -0.14)">
       <use xlink:href="#DejaVuSans-31"/>
       <use xlink:href="#DejaVuSans-37" x="63.623047"/>
       <use xlink:href="#DejaVuSans-35" x="127.246094"/>
      </g>
     </g>
    </g>
    <g id="text_14">
     <!-- Price (USD) -->
     <g transform="translate(19.965375 251.1432)rotate(-90)scale(0.168 -0.168)">
      <defs>
       <path id="DejaVuSans-50" d="M 1259 4147 
L 1259 2394 
L 2053 2394 
Q 2494 2394 2734 2622 
Q 2975 2850 2975 3272 
Q 2975 3691 2734 3919 
Q 2494 4147 2053 4147 
L 1259 4147 
z
M 628 4666 
L 2053 4666 
Q 2838 4666 3239 4311 
Q 3641 3956 3641 3272 
Q 3641 2581 3239 2228 
Q 2838 1875 2053 1875 
L 1259 1875 
L 1259 0 
L 628 0 
L 628 4666 
z
" transform="scale(0.015625)"/>
       <path id="DejaVuSans-72" d="M 2631 2963 
Q 2534 3019 2420 3045 
Q 2306 3072 2169 3072 
Q 1681 3072 1420 2755 
Q 1159 2438 1159 1844 
L 1159 0 
L 581 0 
L 581 3500 
L 1159 3500 
L 1159 2956 
Q 1341 3275 1631 3429 
Q 1922 3584 2338 3584 
Q 2397 3584 2469 3576 
Q 2541 3569 2628 3553 
L 2631 2963 
z
" transform="scale(0.015625)"/>
       <path id="DejaVuSans-69" d="M 603 3500 
L 1178 3500 
L 1178 0 
L 603 0 
L 603 3500 
z
M 603 4863 
L 1178 4863 
L 1178 4134 
L 603 4134 
L 603 4863 
z
" transform="scale(0.015625)"/>
       <path id="DejaVuSans-63" d="M 3122 3366 
L 3122 2828 
Q 2878 2963 2633 3030 
Q 2388 3097 2138 3097 
Q 1578 3097 1268 2742 
Q 959 2388 959 1747 
Q 959 1106 1268 751 
Q 1578 397 2138 397 
Q 2388 397 2633 464 
Q 2878 531 3122 666 
L 3122 134 
Q 2881 22 2623 -34 
Q 2366 -91 2075 -91 
Q 1284 -91 818 406 
Q 353 903 353 1747 
Q 353 2603 823 3093 
Q 1294 3584 2113 3584 
Q 2378 3584 2631 3529 
Q 2884 3475 3122 3366 
z
" transform="scale(0.015625)"/>
       <path id="DejaVuSans-20" transform="scale(0.015625)"/>
       <path id="DejaVuSans-28" d="M 1984 4856 
Q 1566 4138 1362 3434 
Q 1159 2731 1159 2009 
Q 1159 1288 1364 580 
Q 1569 -128 1984 -844 
L 1484 -844 
Q 1016 -109 783 600 
Q 550 1309 550 2009 
Q 550 2706 781 3412 
Q 1013 4119 1484 4856 
L 1984 4856 
z
" transform="scale(0.015625)"/>
       <path id="DejaVuSans-55" d="M 556 4666 
L 1191 4666 
L 1191 1831 
Q 1191 1081 1462 751 
Q 1734 422 2344 422 
Q 2950 422 3222 751 
Q 3494 1081 3494 1831 
L 3494 4666 
L 4128 4666 
L 4128 1753 
Q 4128 841 3676 375 
Q 3225 -91 2344 -91 
Q 1459 -91 1007 375 
Q 556 841 556 1753 
L 556 4666 
z
" transform="scale(0.015625)"/>
       <path id="DejaVuSans-53" d="M 3425 4513 
L 3425 3897 
Q 3066 4069 2747 4153 
Q 2428 4238 2131 4238 
Q 1616 4238 1336 4038 
Q 1056 3838 1056 3469 
Q 1056 3159 1242 3001 
Q 1428 2844 1947 2747 
L 2328 2669 
Q 3034 2534 3370 2195 
Q 3706 1856 3706 1288 
Q 3706 609 3251 259 
Q 2797 -91 1919 -91 
Q 1588 -91 1214 -16 
Q 841 59 441 206 
L 441 856 
Q 825 641 1194 531 
Q 1563 422 1919 422 
Q 2459 422 2753 634 
Q 3047 847 3047 1241 
Q 3047 1584 2836 1778 
Q 2625 1972 2144 2069 
L 1759 2144 
Q 1053 2284 737 2584 
Q 422 2884 422 3419 
Q 422 4038 858 4394 
Q 1294 4750 2059 4750 
Q 2388 4750 2728 4690 
Q 3069 4631 3425 4513 
z
" transform="scale(0.015625)"/>
       <path id="DejaVuSans-29" d="M 513 4856 
L 1013 4856 
Q 1481 4119 1714 3412 
Q 1947 2706 1947 2009 
Q 1947 1309 1714 600 
Q 1481 -109 1013 -844 
L 513 -844 
Q 928 -128 1133 580 
Q 1338 1288 1338 2009 
Q 1338 2731 1133 3434 
Q 928 4138 513 4856 
z
" transform="scale(0.015625)"/>
      </defs>
      <use xlink:href="#DejaVuSans-50"/>
      <use xlink:href="#DejaVuSans-72" x="58.552734"/>
      <use xlink:href="#DejaVuSans-69" x="99.666016"/>
      <use xlink:href="#DejaVuSans-63" x="127.449219"/>
      <use xlink:href="#DejaVuSans-65" x="182.429688"/>
      <use xlink:href="#DejaVuSans-20" x="243.953125"/>
      <use xlink:href="#DejaVuSans-28" x="275.740234"/>
      <use xlink:href="#DejaVuSans-55" x="314.753906"/>
      <use xlink:href="#DejaVuSans-53" x="387.947266"/>
      <use xlink:href="#DejaVuSans-44" x="451.423828"/>
      <use xlink:href="#DejaVuSans-29" x="528.425781"/>
     </g>
    </g>
   </g>
   <g id="line2d_25">
    <path d="M 86.154477 112.848709 
L 86.397315 114.722583 
M 87.368666 120.987759 
L 87.854342 130.148922 
L 88.097179 125.397988 
L 88.340017 128.786104 
M 89.797044 139.915782 
L 90.039881 142.754985 
M 105.581498 86.860533 
L 106.067174 103.83897 
L 106.552849 88.885831 
M 124.765681 85.043442 
L 125.008519 90.116153 
L 125.494194 103.119705 
L 125.737032 105.012507 
L 125.97987 105.031435 
L 126.222708 109.044176 
L 126.465545 108.949536 
L 126.708383 103.479337 
M 127.436896 103.195417 
L 127.679734 102.192232 
L 128.16541 106.981021 
L 128.408247 105.391067 
M 131.079463 116.823594 
L 131.3223 122.21808 
L 131.565138 121.082399 
M 132.050814 118.451404 
L 132.293652 117.713211 
L 133.022165 125.56834 
M 149.77797 136.981938 
L 150.506483 135.3352 
L 150.992159 141.997864 
L 151.234997 139.480437 
L 151.477835 142.584633 
L 151.720672 143.549962 
L 151.96351 141.960008 
L 152.206348 147.88448 
L 152.449186 150.231555 
L 152.692023 148.300896 
L 152.934861 149.039089 
L 153.177699 150.629043 
L 153.420537 150.647971 
L 153.663374 155.096057 
L 153.906212 152.218997 
L 154.14905 153.695383 
M 164.348236 157.727052 
L 164.591074 161.985857 
L 164.833911 159.165582 
L 165.076749 159.506286 
L 165.562425 161.626225 
L 165.805262 156.988859 
M 166.290938 161.815505 
L 166.533776 160.793392 
M 183.289581 154.698568 
L 183.532419 157.537772 
M 184.746608 168.251033 
L 184.989445 169.311002 
L 185.232283 170.938812 
L 185.475121 173.437311 
M 202.716602 171.24166 
L 202.959439 175.027265 
L 203.202277 181.907601 
L 203.445115 175.561982 
L 203.687953 178.618857 
L 203.930791 173.337939 
L 204.173628 180.6063 
L 204.416466 181.358689 
L 204.659304 182.735703 
L 204.902142 187.803681 
L 205.144979 206.8642 
L 205.387817 209.040923 
L 205.630655 212.424307 
L 205.873493 209.476267 
L 206.11633 213.630968 
L 206.359168 213.195624 
M 207.330519 206.60394 
L 207.573357 206.234843 
M 210.001734 216.635792 
L 210.244572 216.309284 
L 210.48741 217.73835 
L 210.730248 221.594934 
M 211.944437 223.445149 
L 212.187274 222.494015 
L 212.430112 222.560263 
M 214.615652 236.410844 
L 214.85849 235.085883 
L 215.101327 235.92818 
M 215.587003 238.483463 
L 215.829841 238.336771 
L 216.072678 238.403019 
M 217.04403 237.873034 
L 217.286867 240.754826 
L 217.529705 239.893601 
L 217.772543 243.324305 
M 219.958083 250.209373 
L 220.20092 252.144764 
L 220.443758 249.906525 
L 220.686596 252.778853 
L 220.929434 257.108638 
M 221.415109 255.031287 
L 221.657947 258.7885 
L 221.900785 258.282175 
L 222.143622 261.940016 
L 222.38646 257.889419 
M 240.113617 248.188807 
L 240.356454 246.807061 
L 240.599292 249.977505 
L 241.084968 251.799327 
L 241.327805 251.747275 
L 241.570643 254.416127 
L 241.813481 254.543891 
L 242.056319 256.701685 
L 242.299156 256.427229 
L 242.541994 256.559725 
L 242.784832 256.242681 
L 243.02767 256.502941 
L 243.513345 260.477826 
L 243.756183 260.804334 
L 244.241859 262.626157 
L 244.484696 260.832726 
L 244.970372 265.077336 
L 245.21321 266.160965 
L 245.456047 263.93219 
M 250.55564 271.219479 
L 250.798478 273.822082 
L 251.041316 273.807886 
L 251.284154 271.082251 
L 251.769829 273.670658 
L 252.012667 273.859938 
L 252.255505 275.383644 
L 252.498342 275.123384 
L 252.74118 277.063506 
L 253.226856 278.028836 
L 253.712531 277.319035 
L 253.955369 277.158147 
L 254.198207 280.054134 
L 254.683882 282.746645 
L 254.92672 281.487932 
L 255.169558 281.511592 
L 255.412395 284.440703 
L 255.655233 285.320857 
L 255.898071 282.656737 
M 257.11226 285.926553 
L 257.355098 285.434425 
M 261.483339 291.67594 
L 261.726177 292.324225 
M 275.325092 298.953765 
L 275.810767 302.554822 
L 276.053605 303.927103 
L 276.296443 306.927195 
L 276.539281 306.08963 
L 276.782118 304.561192 
L 277.024956 304.996537 
L 277.753469 303.917639 
M 286.009953 296.332234 
L 286.252791 296.493122 
L 286.495629 297.122479 
L 286.738466 298.437977 
L 287.224142 299.630442 
L 287.46698 299.748742 
L 287.709817 300.543719 
L 287.952655 299.620978 
M 290.623871 307.111743 
L 290.866708 307.305756 
M 291.595222 305.720534 
L 291.838059 306.13695 
L 292.080897 306.998175 
L 292.323735 306.18427 
L 292.566573 306.439799 
L 292.80941 306.487119 
L 293.052248 307.083351 
L 293.295086 307.987164 
L 293.537924 307.52816 
M 297.18049 315.73819 
L 297.666166 314.280732 
L 297.909003 316.675127 
L 298.151841 316.097822 
L 298.394679 316.391207 
M 298.880354 315.179813 
L 299.123192 315.615158 
L 299.36603 316.500043 
L 299.608868 317.952769 
L 299.851705 316.869139 
M 324.621157 289.447166 
L 324.863995 289.679034 
L 325.34967 290.729539 
L 325.592508 290.090718 
L 325.835346 290.862035 
L 326.078183 290.928283 
M 327.049534 293.582939 
L 327.292372 298.887517 
L 327.53521 299.067333 
L 327.778048 298.561009 
L 328.020885 297.032571 
L 328.263723 296.743919 
L 328.749399 298.262892 
L 328.992237 298.343337 
L 329.235074 298.135128 
L 329.477912 298.835465 
L 329.72075 298.338605 
L 329.963588 298.594133 
L 330.206425 298.395389 
L 330.449263 298.537349 
M 331.663452 301.201468 
L 331.90629 301.901805 
M 339.677098 300.449079 
L 339.919936 299.88597 
L 340.162773 300.709339 
M 342.105476 305.228405 
L 342.348313 305.379829 
L 342.591151 308.914638 
L 343.076827 312.122938 
L 343.319664 311.223856 
L 343.80534 311.829553 
L 344.048178 310.741192 
L 344.291015 310.514056 
M 355.461552 311.167072 
L 355.70439 311.938389 
L 355.947228 314.919553 
L 356.190066 315.515786 
L 356.675741 311.786965 
L 356.918579 314.881697 
M 362.746685 308.853121 
L 362.989523 307.9777 
L 363.232361 308.204837 
L 363.475198 308.219033 
M 373.674384 314.919553 
L 373.917222 314.593045 
L 374.16006 315.033121 
L 374.402898 314.995265 
L 374.645735 315.123029 
L 374.888573 313.334331 
L 375.131411 312.998359 
L 375.374249 313.277547 
L 375.617086 314.645097 
L 375.859924 315.113565 
L 376.102762 314.853305 
L 376.3456 315.160885 
M 378.288302 316.400671 
L 378.531139 315.95113 
L 378.773977 316.466919 
L 379.016815 317.692508 
M 392.372892 320.706796 
L 392.615729 321.392937 
L 392.858567 320.749384 
L 393.101405 321.028572 
L 393.344243 320.782508 
L 393.58708 320.943396 
M 404.51478 320.943396 
L 404.757617 320.541176 
L 405.000455 320.962324 
L 405.243293 321.610609 
L 405.486131 321.530165 
L 405.728968 322.362998 
L 406.214644 321.818817 
L 406.457482 322.187914 
L 406.700319 321.833013 
L 406.943157 321.913458 
M 412.285588 323.091727 
L 412.528426 323.309399 
M 414.713966 324.265264 
L 414.956803 324.326781 
M 416.170992 324.809445 
L 416.41383 325.041313 
L 416.899505 326.413595 
L 417.142343 326.271635 
L 417.628019 326.692783 
L 418.113694 327.852125 
L 418.356532 328.112385 
L 418.59937 328.008281 
L 418.842207 331.509965 
L 419.570721 331.230777 
L 419.813558 331.259169 
L 420.056396 332.162982 
L 420.542072 332.148786 
L 420.78491 332.25289 
L 421.270585 332.148786 
L 421.513423 332.603059 
L 421.756261 332.503687 
L 421.999098 332.267086 
L 422.241936 332.569935 
L 422.484774 332.626719 
L 423.213287 334.032124 
L 423.456125 333.970608 
L 423.698963 334.126765 
L 423.9418 333.696152 
L 424.184638 333.681956 
M 427.341529 335.877607 
L 428.070042 337.30194 
L 428.31288 336.928112 
L 428.555718 337.122124 
L 429.041393 336.189919 
M 438.269228 335.43753 
L 438.512066 335.46119 
L 438.754904 335.688326 
L 438.997741 335.43753 
L 439.240579 335.849215 
M 439.726255 335.418602 
L 440.21193 335.598418 
M 442.39747 339.038587 
L 442.640308 340.13168 
L 442.883146 339.000731 
M 448.95409 338.872966 
L 449.196927 339.492859 
M 449.682603 339.620623 
L 449.925441 339.559107 
L 450.168278 340.216856 
L 450.411116 343.188556 
L 450.653954 342.871511 
L 451.139629 341.882522 
L 451.382467 341.631726 
L 451.868143 341.693242 
L 452.11098 342.190102 
L 452.353818 342.18537 
L 452.596656 343.093916 
L 452.839494 342.833655 
L 453.568007 343.533992 
M 454.539358 343.69488 
L 455.267871 345.379474 
L 455.510709 344.735922 
M 461.581653 344.357361 
L 461.824491 344.187009 
L 462.067329 344.693334 
L 462.310166 344.508785 
L 462.553004 346.098739 
L 462.795842 346.183915 
M 463.281517 344.726458 
L 463.524355 345.024574 
L 463.767193 345.057698 
L 464.010031 344.811634 
M 472.509352 338.78779 
L 473.237866 340.543364 
L 473.480703 341.059153 
L 473.966379 341.125401 
M 474.694892 340.902997 
L 474.93773 341.257897 
L 475.180568 341.362001 
L 475.423405 343.179092 
L 475.666243 343.074988 
L 475.909081 343.145968 
L 476.151919 343.45828 
L 476.394756 344.125493 
M 477.851783 344.456733 
L 478.094621 344.593961 
M 497.521641 336.388663 
L 497.764479 336.000639 
L 498.007317 336.78142 
M 539.775412 332.281282 
L 540.018249 332.655111 
L 540.261087 332.177178 
L 540.503925 332.356994 
L 540.746763 332.787607 
L 540.9896 332.797071 
L 541.232438 333.492676 
L 541.475276 332.669307 
L 541.718114 334.368097 
L 541.960951 337.287744 
L 542.203789 335.41387 
L 542.446627 335.470654 
L 542.689465 335.745111 
L 542.932302 337.093732 
L 543.17514 337.486489 
L 543.417978 338.778326 
L 543.660816 338.38557 
M 554.831353 337.349261 
L 555.07419 337.495953 
L 555.317028 337.420241 
L 555.559866 337.543273 
L 555.802704 337.164712 
L 556.288379 338.309858 
L 556.531217 338.139505 
L 556.774055 338.423426 
L 557.016892 339.194743 
L 557.25973 339.142691 
L 557.502568 339.327239 
L 557.745406 340.197928 
L 557.988244 340.443992 
L 558.473919 342.715355 
L 558.716757 343.382568 
L 559.44527 341.702706 
M 569.887294 343.519796 
L 570.130131 343.510332 
L 570.372969 344.101833 
L 570.615807 344.224865 
L 571.101483 343.922017 
L 571.587158 343.444084 
L 571.829996 343.69488 
M 577.90094 346.174451 
L 578.143778 346.212307 
L 578.386615 345.952047 
L 578.629453 345.914191 
M 579.600804 345.303762 
L 579.843642 345.739107 
M 583.486208 347.88138 
L 584.214722 348.062522 
L 584.700397 349.128548 
L 584.943235 348.787086 
L 585.42891 348.857499 
L 585.671748 349.350195 
L 586.400261 348.750745 
M 588.342963 350.551557 
L 588.585801 353.459658 
L 588.828639 352.989865 
L 589.071477 353.025639 
L 589.557152 353.847683 
L 589.79999 353.918663 
L 590.042828 353.667299 
L 590.285665 353.807177 
L 590.528503 353.545591 
L 590.771341 353.08318 
L 591.014179 353.548241 
L 591.257017 353.546159 
L 591.499854 352.981726 
M 602.427553 355.14747 
L 602.670391 355.082168 
L 602.913229 354.693387 
M 613.59809 353.704019 
L 613.840928 354.118732 
L 614.083766 353.811152 
L 614.326604 353.873425 
M 614.812279 353.229115 
L 615.055117 353.7379 
L 615.540792 353.845222 
L 615.78363 353.743011 
L 616.026468 354.288327 
M 620.883223 355.833232 
L 621.126061 356.039548 
L 621.368899 356.421326 
L 621.611736 355.960996 
L 621.854574 356.279934 
L 622.097412 356.254381 
L 622.34025 355.838532 
L 622.583087 355.9468 
L 622.825925 356.704489 
M 632.539436 357.665086 
L 633.025111 358.341763 
L 633.267949 358.288386 
L 633.996462 359.290247 
L 634.2393 359.154343 
L 634.482138 360.609151 
M 634.967813 360.206174 
L 635.210651 359.746033 
L 636.182002 360.100744 
L 636.42484 360.048125 
L 636.667678 360.491419 
L 636.910515 360.382015 
L 637.153353 360.875468 
M 638.367542 362.127368 
L 638.61038 362.313241 
L 639.096055 361.715116 
L 639.338893 361.721173 
M 649.538079 361.523564 
L 649.780917 361.478515 
L 650.266592 362.532995 
L 650.50943 362.430216 
L 650.752268 361.703569 
L 650.752268 361.703569 
" clip-path="url(#pfb2d275cf6)" style="fill: none; stroke: #00ff7f"/>
   </g>
   <g id="line2d_26">
    <path d="M 101.938932 63.692632 
L 102.424607 51.181209 
M 116.994873 63.370856 
L 117.23771 57.843873 
L 117.480548 48.796278 
L 117.723386 44.423905 
L 117.966224 52.827947 
L 118.209061 51.635481 
L 118.451899 49.401975 
M 137.150407 97.308802 
L 137.393244 95.340287 
L 137.636082 92.349659 
M 160.462832 134.691647 
L 160.705669 139.196517 
M 171.876206 136.830514 
L 172.119044 132.704205 
L 172.361882 133.158478 
L 172.60472 132.666349 
L 172.847557 131.492812 
M 173.333233 130.07321 
L 173.576071 128.880744 
L 173.818908 135.410912 
L 174.061746 133.42347 
L 174.304584 135.032352 
M 175.033097 120.041357 
L 175.275935 117.959275 
M 192.517416 159.714494 
L 192.760254 153.468247 
M 199.316873 140.21863 
L 199.559711 134.95664 
M 234.28551 237.494474 
L 234.528348 235.043295 
M 279.939009 295.627165 
L 280.424685 292.920458 
L 280.667522 292.939386 
L 281.153198 288.732633 
L 281.396036 289.962954 
L 281.638873 289.314669 
M 306.165487 301.475924 
L 306.408325 304.428696 
L 306.894 303.311943 
M 309.808054 292.177533 
L 310.050891 290.275267 
L 310.293729 289.584394 
L 310.536567 292.508773 
L 310.779405 293.540351 
L 311.022242 290.753199 
L 311.26508 283.778223 
L 311.507918 285.368177 
M 336.277369 297.387471 
L 336.520207 297.141407 
L 336.763045 297.458451 
L 337.005883 298.158788 
M 359.346956 305.176353 
L 359.832632 304.10692 
L 360.07547 304.182632 
L 360.318307 305.559645 
L 360.561145 305.133765 
M 382.416544 312.236506 
L 382.659381 311.304301 
L 382.902219 311.327961 
L 383.145057 311.635541 
M 399.172349 316.244515 
L 399.415187 316.121482 
L 399.658024 316.372279 
M 434.626662 334.235601 
L 434.8695 332.976887 
L 435.112337 333.260807 
L 435.355175 333.757668 
L 435.598013 333.539996 
L 435.840851 333.511604 
L 436.326526 333.308128 
L 436.569364 333.270271 
L 436.812202 333.577852 
L 437.055039 333.4075 
M 458.6676 342.071802 
L 458.910438 342.261083 
M 459.881789 341.679046 
L 460.124627 341.447178 
M 465.709895 339.554375 
L 466.195571 338.925018 
L 466.438408 338.78779 
L 466.681246 338.238878 
L 466.924084 338.342982 
L 467.166922 338.073257 
L 467.652597 335.887071 
L 467.895435 335.915463 
L 468.38111 337.344529 
L 468.866786 337.571665 
L 469.109624 336.426519 
M 485.136916 338.148969 
L 485.379753 337.477025 
M 487.079618 337.363457 
L 487.322456 336.246703 
L 487.565293 336.648924 
L 487.808131 335.707254 
L 488.050969 335.376014 
L 488.293807 333.961144 
L 488.536644 334.221405 
L 488.779482 332.986351 
L 489.02232 332.962691 
L 489.265158 332.607791 
M 489.750833 333.909092 
L 490.236509 332.953227 
L 490.479346 333.185095 
M 512.334745 329.678679 
L 512.577583 327.06188 
L 512.82042 326.437255 
L 513.063258 327.596597 
L 513.306096 328.121849 
L 513.548934 328.921558 
M 521.56258 326.574483 
L 521.805417 326.44918 
M 551.674462 332.621987 
L 551.9173 333.284468 
L 552.160137 332.799342 
M 593.199719 352.443602 
L 593.442556 352.091541 
M 641.524433 359.351005 
L 642.010108 359.066328 
L 642.252946 359.292896 
L 642.738621 358.559436 
L 642.981459 358.464228 
L 643.224297 358.530665 
L 643.467135 358.405929 
M 653.666321 359.938531 
L 654.151996 358.372237 
L 654.394834 357.760105 
L 654.637672 357.594863 
L 654.880509 357.707674 
M 655.609023 358.209267 
" clip-path="url(#pfb2d275cf6)" style="fill: none; stroke: #ff4500"/>
   </g>
   <g id="line2d_27">
    <path d="M 86.640153 110.615202 
L 86.882991 111.921235 
L 87.125828 118.413547 
M 88.582855 120.798478 
L 88.825693 120.798478 
L 89.311368 132.742061 
L 89.554206 131.757804 
M 90.282719 132.590637 
L 90.525557 137.644419 
L 90.768395 139.310085 
L 91.496908 108.873824 
L 91.739746 107.454222 
L 91.982583 112.318724 
L 92.225421 113.757254 
L 92.468259 102.722216 
L 92.711097 107.454222 
L 92.953935 107.208158 
M 93.43961 116.785737 
L 93.682448 122.956273 
L 93.925286 123.259121 
L 94.168123 118.053915 
L 94.410961 128.502184 
L 94.653799 128.956456 
L 94.896637 122.388432 
L 95.139474 106.451037 
L 95.382312 113.454405 
L 95.62515 110.482706 
L 95.867988 119.094956 
L 96.110825 111.637315 
L 96.353663 96.475969 
L 96.596501 101.113334 
L 96.839339 91.232906 
L 97.082176 92.198235 
M 97.567852 87.068741 
L 97.81069 89.9458 
L 98.053527 90.532569 
L 98.296365 79.194683 
L 98.539203 92.576796 
L 98.782041 92.141451 
L 99.024879 80.633213 
L 99.267716 82.696368 
L 99.510554 73.932693 
L 99.753392 72.399523 
L 99.99623 72.077747 
L 100.239067 76.487976 
L 100.481905 76.071559 
L 100.724743 66.39934 
L 101.210418 75.20087 
L 101.453256 66.986108 
L 101.696094 63.105864 
M 102.667445 58.998482 
L 102.910283 58.430642 
L 103.15312 52.449386 
L 103.395958 50.196952 
L 103.638796 56.556767 
L 104.124471 59.452755 
L 104.367309 66.758972 
L 104.610147 69.389967 
L 104.852985 75.901207 
L 105.095822 78.55113 
L 105.33866 84.910946 
M 107.281362 87.409445 
L 107.767038 74.292325 
L 108.009876 73.6677 
L 108.252713 80.027516 
L 108.495551 76.393336 
L 108.738389 76.904392 
L 109.224064 85.951988 
L 109.70974 72.267027 
L 109.952578 69.276399 
L 110.195415 62.329815 
M 110.681091 69.276399 
L 110.923929 69.730672 
L 111.409604 55.269662 
L 111.652442 58.014225 
L 111.89528 64.014409 
L 112.380955 61.667334 
M 112.866631 58.430642 
L 113.109469 58.108865 
L 113.352306 66.531836 
L 113.595144 87.56087 
L 113.837982 86.671252 
L 114.08082 86.5009 
L 114.323657 83.018144 
L 114.566495 81.52283 
L 115.052171 74.292325 
L 115.537846 61.345557 
L 115.780684 63.011223 
L 116.023522 56.689264 
L 116.266359 57.541025 
L 116.509197 63.011223 
L 116.752035 63.049079 
M 118.694737 49.572327 
L 118.937575 47.603812 
L 119.180413 55.269662 
L 119.42325 56.481055 
L 119.908926 67.629661 
L 120.394601 62.878727 
L 120.637439 49.553399 
L 120.880277 58.960626 
L 121.123115 56.291775 
L 121.365952 49.269478 
L 121.60879 58.525282 
L 121.851628 57.541025 
L 122.094466 64.922954 
L 122.580141 82.601727 
L 122.822979 78.967547 
L 123.065817 77.055817 
L 123.308654 76.052631 
L 123.79433 92.122523 
L 124.037168 82.412447 
L 124.522843 84.153825 
M 126.951221 104.179674 
L 127.194059 102.58972 
M 128.651085 100.148005 
L 128.893923 107.18923 
L 129.136761 106.299613 
L 129.379598 107.586718 
L 129.622436 107.492078 
L 129.865274 105.996764 
L 130.108112 106.413181 
L 130.350949 107.359582 
L 130.836625 114.779367 
M 133.265003 118.924604 
L 133.50784 121.101327 
L 133.750678 118.5839 
L 133.993516 120.325278 
L 134.236354 113.776182 
L 134.479191 110.842338 
L 134.722029 111.01269 
L 134.964867 112.867637 
L 135.207705 117.448218 
L 135.450542 118.375691 
L 135.936218 107.302798 
L 136.179056 106.848525 
L 136.421893 108.570975 
L 136.664731 105.864268 
L 136.907569 106.962093 
M 137.87892 96.873457 
L 138.121758 98.103779 
L 138.607433 101.548679 
M 139.093109 107.66243 
L 139.335947 109.668801 
L 139.578784 108.116703 
L 139.821622 105.731772 
L 140.06446 105.56142 
L 140.550135 111.258755 
M 141.035811 104.652875 
L 141.278649 102.892568 
L 141.521486 106.716029 
L 141.764324 107.113518 
L 142.007162 112.848709 
L 142.25 113.340837 
L 142.492837 112.413364 
L 142.735675 112.318724 
L 142.978513 110.577346 
L 143.221351 110.785554 
L 143.464188 110.009505 
L 143.707026 113.492261 
L 143.949864 112.848709 
L 144.192702 113.265125 
M 144.678377 111.126259 
L 144.921215 106.924237 
L 145.164053 107.738142 
L 145.649728 113.719398 
L 145.892566 112.299796 
L 146.135404 119.303165 
L 146.378242 111.845523 
L 146.621079 107.889567 
L 146.863917 106.621389 
L 147.106755 113.265125 
L 147.349593 115.42292 
L 147.59243 114.26831 
L 147.835268 117.807851 
L 148.078106 115.290424 
L 148.806619 129.107881 
L 149.049457 129.694649 
L 149.292295 130.887115 
L 149.535132 133.820958 
M 154.877563 148.830881 
L 155.120401 148.736241 
L 155.363239 148.35768 
L 155.606076 151.51866 
L 155.848914 147.960192 
L 156.091752 152.919334 
L 156.33459 152.616485 
L 156.820265 147.695199 
L 157.305941 156.553514 
L 157.548778 150.610115 
L 157.791616 148.830881 
L 158.034454 142.471065 
L 158.277292 143.360682 
L 158.52013 146.464878 
L 158.762967 146.938079 
L 159.005805 138.060836 
L 159.248643 140.105062 
L 159.491481 136.281601 
L 159.734318 136.092321 
L 159.977156 134.559151 
L 160.219994 133.934527 
M 160.948507 136.243745 
L 161.191345 136.981938 
L 161.434183 133.70739 
L 161.67702 134.994496 
L 161.919858 134.350943 
L 162.162696 139.026165 
L 162.405534 134.483439 
L 162.648371 140.521479 
L 162.891209 137.199611 
L 163.619722 150.042274 
L 163.86256 150.629043 
L 164.105398 156.11817 
M 166.776613 152.786838 
L 167.019451 151.253668 
L 167.262289 154.244295 
L 167.505127 159.84699 
L 167.747964 158.086684 
L 167.990802 161.834433 
L 168.23364 159.742886 
L 168.476478 168.686377 
L 168.719315 159.108797 
L 168.962153 161.550512 
L 169.204991 157.897404 
L 169.690666 147.051647 
L 169.933504 159.411646 
L 170.176342 159.922702 
L 170.41918 151.670084 
L 170.662017 150.704755 
L 170.904855 150.439763 
L 171.147693 143.114618 
L 171.390531 143.417466 
L 171.633369 141.2786 
M 174.547422 139.158661 
L 174.790259 129.448585 
M 175.518773 118.413547 
L 176.490124 146.975935 
L 176.732961 148.281968 
L 177.218637 141.183959 
L 177.461475 145.139916 
L 177.704313 144.799212 
L 177.94715 138.988309 
L 178.189988 141.127175 
M 178.675664 140.956823 
L 178.918501 143.985307 
L 179.161339 137.776915 
L 179.647015 133.650606 
L 179.889852 130.205706 
L 180.13269 139.139733 
L 180.375528 141.051463 
L 180.618366 139.310085 
L 180.861203 146.218814 
L 181.104041 149.199977 
L 181.346879 145.329197 
L 181.589717 147.013791 
L 181.832554 146.881294 
L 182.075392 158.427389 
L 182.561068 155.663897 
M 183.775256 156.231738 
L 184.018094 155.966746 
L 184.260932 156.648154 
L 184.50377 163.594739 
M 185.717959 166.831431 
L 185.960796 164.370788 
L 186.203634 165.525397 
L 186.68931 161.228736 
L 186.932147 163.197251 
L 187.174985 163.291891 
L 187.417823 162.761906 
L 187.660661 169.42457 
L 187.903498 168.762089 
L 188.146336 164.276148 
L 188.389174 163.632595 
L 188.874849 179.891767 
L 189.117687 183.052747 
M 189.603363 170.654892 
L 189.8462 178.453237 
L 190.089038 168.232105 
L 190.331876 171.165948 
L 190.574714 171.184876 
L 190.817552 169.840987 
L 191.303227 166.509655 
L 191.546065 169.405642 
L 192.03174 160.452687 
L 192.274578 159.544142 
M 193.003091 167.531768 
L 193.245929 171.317372 
L 193.488767 171.109164 
L 193.731605 174.743345 
L 193.974442 168.421385 
L 194.21728 175.008337 
L 194.460118 167.872472 
L 194.702956 169.727419 
L 194.945793 172.983039 
L 195.188631 171.336301 
L 195.431469 176.409011 
L 195.674307 184.093788 
L 195.917144 186.175871 
L 196.159982 177.298628 
L 196.40282 180.573176 
L 196.645658 186.705855 
L 196.888495 180.081047 
L 197.131333 176.692931 
L 197.374171 170.238475 
L 197.617009 170.588644 
L 197.859847 176.938995 
L 198.102684 174.11872 
L 198.345522 166.869287 
L 198.58836 175.386897 
L 198.831198 159.979487 
L 199.074035 160.130911 
M 199.802549 144.685644 
L 200.045386 152.69693 
L 200.288224 152.313637 
L 200.531062 149.450774 
L 200.7739 152.663806 
L 201.016737 150.709487 
L 201.259575 153.525031 
L 201.502413 165.061661 
L 201.745251 169.921431 
L 201.988088 170.195887 
L 202.230926 172.003513 
L 202.473764 171.435673 
M 207.816195 203.958749 
L 208.059032 205.222194 
L 208.30187 208.212822 
L 208.544708 207.375257 
L 209.030383 208.46835 
L 209.273221 212.575731 
L 209.516059 212.026819 
L 209.758897 216.635792 
M 211.458761 215.490647 
L 211.701599 219.115363 
M 213.644301 221.968763 
L 214.129976 231.13939 
L 214.372814 232.066863 
M 216.315516 239.056036 
L 216.558354 238.033922 
L 216.801192 238.999252 
M 218.501056 241.573463 
L 218.743894 239.869941 
L 219.715245 248.127291 
M 222.629298 255.111731 
L 222.872136 253.270981 
L 223.114973 254.340415 
L 223.357811 253.100629 
L 223.600649 259.630797 
L 223.843487 262.119832 
L 224.086325 263.028377 
L 224.329162 266.170429 
L 224.572 264.731899 
M 225.057676 273.031837 
L 225.300513 274.934104 
L 225.543351 268.60268 
L 225.786189 268.356616 
L 226.029027 271.702144 
L 226.271864 266.638898 
L 226.514702 272.752649 
L 226.75754 272.109096 
M 227.243215 280.456355 
L 227.486053 273.102818 
L 227.728891 272.208468 
L 227.971729 269.279357 
L 228.214566 274.318943 
L 228.457404 257.39729 
L 228.700242 271.470276 
L 228.94308 258.59922 
L 229.185917 253.909802 
L 229.428755 262.981057 
L 229.671593 252.163692 
L 229.914431 250.322942 
L 230.157269 245.676112 
L 230.400106 252.026464 
L 230.642944 247.53579 
L 230.885782 259.578745 
L 231.12862 259.503033 
L 231.371457 250.450706 
L 231.614295 252.613232 
L 231.857133 247.833907 
L 232.099971 240.797414 
L 232.342808 237.36671 
L 232.585646 235.795684 
L 232.828484 237.98187 
L 233.071322 235.166327 
L 233.314159 235.204183 
L 233.556997 234.101626 
L 233.799835 237.693218 
L 234.042673 236.775209 
M 235.256861 242.874764 
L 235.499699 242.472544 
L 235.742537 235.677384 
L 235.985375 235.454979 
L 236.47105 242.737536 
L 236.713888 238.308379 
L 236.956726 237.873034 
L 237.442401 239.131748 
L 237.685239 238.109635 
L 238.170915 241.606587 
L 238.413752 240.972498 
L 238.65659 238.9472 
L 238.899428 242.084519 
L 239.142266 242.41576 
L 239.627941 247.734534 
L 239.870779 247.067322 
M 245.698885 262.47 
L 245.941723 262.190812 
L 246.184561 263.870674 
L 246.427398 262.886417 
L 246.670236 265.058408 
L 246.913074 264.949572 
L 247.155912 264.391195 
L 247.398749 262.924273 
L 247.641587 262.540981 
L 247.884425 263.175069 
L 248.127263 264.651455 
L 248.3701 263.785498 
L 248.612938 264.973232 
L 248.855776 264.859663 
L 249.098614 265.834457 
L 249.341451 266.170429 
L 249.584289 267.206738 
L 249.827127 267.25879 
L 250.069965 267.083706 
L 250.312803 267.878683 
M 256.626584 284.88078 
L 256.869422 284.341331 
M 257.597935 285.902893 
L 258.083611 283.517962 
L 258.326449 284.497488 
L 258.812124 285.420229 
L 259.054962 283.36881 
L 259.2978 283.129938 
L 259.540637 286.39029 
L 259.783475 287.587487 
L 260.026313 288.0181 
L 260.269151 288.008636 
L 260.754826 291.595496 
L 260.997664 290.156967 
L 261.240502 290.029202 
M 262.45469 288.39666 
L 262.697528 288.311484 
L 262.940366 289.390382 
L 263.183204 289.395114 
L 263.668879 293.469371 
L 263.911717 292.991438 
L 264.154555 290.04813 
L 264.397393 294.065603 
L 264.64023 293.824271 
L 264.883068 292.669662 
L 265.125906 294.747012 
L 265.368744 295.712341 
L 265.611581 297.444255 
L 265.854419 292.390473 
L 266.340095 288.122204 
L 266.582932 290.138038 
L 266.82577 289.712158 
L 267.068608 290.630167 
L 267.311446 290.970872 
L 267.554283 290.190091 
L 267.797121 290.109646 
L 268.039959 290.876231 
L 268.282797 293.06715 
L 268.525634 291.614424 
L 268.768472 292.707518 
L 269.254148 291.827365 
L 269.496986 292.731178 
M 269.982661 292.764302 
L 270.468337 294.283276 
L 270.711174 292.291101 
L 270.954012 292.205925 
L 271.439688 293.559279 
L 271.682525 295.276997 
L 271.925363 294.415772 
L 272.168201 294.38738 
L 272.411039 296.389018 
L 272.653876 294.964684 
L 272.896714 294.870044 
L 273.139552 294.548268 
L 273.38239 295.300657 
L 273.625227 295.0262 
L 273.868065 297.183995 
M 274.353741 297.060963 
L 274.596578 297.042035 
L 274.839416 296.748651 
L 275.082254 297.803888 
M 277.996307 302.441254 
L 278.239145 300.633627 
L 278.481983 302.294561 
L 278.72482 299.497946 
L 279.210496 298.589401 
L 279.696171 301.050044 
M 281.881711 293.975695 
L 282.124549 292.111285 
L 282.367387 292.257977 
L 282.610225 291.794241 
L 282.853062 290.904623 
M 283.338738 292.149141 
L 283.824413 292.811622 
L 284.067251 294.64764 
L 284.310089 294.657104 
M 284.795764 294.7896 
L 285.038602 293.999355 
L 285.28144 294.52934 
L 285.524278 294.24542 
L 285.767115 295.712341 
M 288.195493 298.527885 
L 288.438331 296.616154 
L 288.681168 299.895434 
M 289.166844 299.961683 
L 290.381033 304.277272 
M 291.109546 306.34989 
L 291.352384 305.871958 
M 293.780761 308.048681 
L 294.023599 308.290013 
L 294.266437 308.110197 
L 294.509275 308.403581 
L 294.752112 308.067609 
M 295.237788 308.294745 
L 295.480626 308.043948 
L 295.723464 306.482387 
L 295.966301 306.510779 
L 296.209139 307.897256 
L 296.451977 310.135495 
L 296.694815 310.173351 
L 296.937652 310.73646 
M 300.094543 316.154606 
L 300.337381 316.386475 
L 300.823056 318.932294 
L 301.065894 318.776138 
L 301.308732 321.648465 
L 301.55157 314.20502 
L 301.794407 314.290196 
L 302.037245 315.004729 
L 302.280083 315.042585 
L 302.522921 314.559921 
L 302.765759 319.452815 
L 303.008596 317.607332 
L 303.494272 312.799614 
L 303.73711 310.348435 
L 303.979947 311.356353 
L 304.222785 310.627624 
L 304.465623 308.039216 
M 304.951298 309.137042 
L 305.194136 308.678037 
L 305.436974 309.20329 
L 305.679812 306.25525 
L 305.922649 305.323045 
M 307.136838 306.482387 
L 307.379676 306.30257 
L 307.622514 307.405128 
L 307.865351 305.280457 
L 308.108189 305.185817 
L 308.351027 300.983796 
M 308.836703 298.357533 
L 309.07954 300.538987 
L 309.322378 297.969508 
L 309.565216 297.051499 
M 311.750756 287.999172 
L 311.993593 288.500764 
L 312.236431 286.57957 
M 312.722107 287.152143 
L 312.964944 283.53689 
L 313.693458 286.712066 
L 313.936295 284.265619 
L 314.179133 283.811347 
L 314.421971 286.077978 
L 314.664809 283.830275 
L 314.907646 287.454991 
L 315.150484 286.551178 
L 315.393322 281.57784 
L 315.63616 283.044762 
L 315.878998 282.798697 
L 316.364673 279.117197 
L 316.850349 281.393292 
L 317.336024 282.486385 
L 317.578862 284.629984 
L 317.8217 283.792419 
L 318.064537 284.4549 
L 318.307375 285.936017 
L 318.550213 284.814532 
L 318.793051 285.600045 
L 319.278726 285.831913 
L 319.521564 283.011638 
L 319.764402 281.795512 
L 320.007239 284.322403 
L 320.250077 283.006906 
L 320.492915 285.618973 
L 321.221428 281.57784 
L 321.464266 280.872771 
L 321.707104 281.218208 
L 322.678455 285.803521 
L 322.921293 286.645818 
L 323.406968 287.171071 
L 323.649806 287.175803 
L 323.892644 286.977059 
L 324.135481 285.973873 
L 324.378319 287.989708 
M 326.321021 290.00081 
L 326.806697 290.795787 
M 330.692101 300.027931 
L 330.934939 298.859125 
L 331.177776 298.750289 
L 331.420614 299.985343 
M 332.149127 300.359171 
L 332.391965 301.338696 
L 332.634803 301.154148 
L 332.877641 301.788237 
L 333.120478 301.660473 
L 333.363316 302.729906 
L 333.606154 301.428604 
L 333.848992 301.173076 
L 334.091829 300.680947 
L 334.334667 301.06424 
L 334.577505 299.620978 
L 334.820343 299.573658 
L 335.063181 298.646185 
L 335.306018 298.693505 
L 335.548856 297.945848 
L 335.791694 298.442709 
L 336.034532 298.220304 
M 337.24872 298.911177 
L 337.491558 300.505863 
L 338.220071 299.69669 
L 338.462909 299.900166 
L 338.705747 299.800794 
L 338.948585 300.368635 
L 339.191422 300.146231 
L 339.43426 300.770856 
M 340.405611 299.900166 
L 340.648449 299.691958 
L 340.891287 299.005817 
L 341.134124 300.273995 
L 341.862638 301.944393 
M 344.533853 307.163795 
L 344.776691 304.778864 
L 345.019529 304.589584 
L 345.262366 305.73473 
L 345.99088 307.334148 
L 346.233717 306.950855 
L 346.476555 308.465097 
L 346.719393 309.255342 
L 346.962231 307.163795 
L 347.205068 307.726904 
L 347.447906 309.25061 
L 347.690744 310.059783 
L 347.933582 309.539262 
M 348.419257 309.27427 
L 348.662095 307.177991 
L 348.904933 310.883152 
L 349.633446 306.009186 
L 349.876284 305.980794 
L 350.119122 304.693688 
L 350.361959 304.395572 
L 350.604797 304.494944 
L 350.847635 303.770947 
M 351.33331 303.766215 
L 351.818986 306.108558 
L 352.061824 305.332509 
M 352.547499 305.550181 
L 352.790337 306.122754 
L 353.033175 304.646368 
L 353.276012 304.518604 
L 353.51885 304.244148 
L 354.004526 307.305756 
L 354.247363 307.982432 
M 354.733039 307.33888 
L 354.975877 307.073887 
L 355.218715 309.733275 
M 357.161417 312.984163 
L 357.404254 309.539262 
L 357.88993 309.922555 
L 358.132768 309.454086 
L 358.375605 307.774224 
L 358.618443 307.963504 
L 359.104119 305.157425 
M 360.803983 305.990258 
L 361.046821 306.458727 
L 361.532496 306.430335 
L 361.775334 306.122754 
L 362.018172 307.054959 
L 362.26101 307.43352 
L 362.503847 307.419324 
M 363.718036 306.118022 
L 363.960874 306.118022 
L 364.203712 306.430335 
L 364.446549 306.340426 
L 364.689387 305.450809 
L 365.175063 307.438252 
L 365.4179 307.414592 
L 365.660738 307.684316 
L 365.903576 307.225311 
L 366.146414 308.786873 
L 366.389251 308.810533 
L 366.632089 308.957226 
L 366.874927 308.659109 
M 367.360602 307.991896 
L 367.60344 307.613336 
L 367.846278 308.734821 
L 368.089116 307.036031 
L 368.574791 306.13695 
L 368.817629 306.141682 
L 369.060467 307.002907 
L 369.303305 308.498221 
L 369.546142 308.417777 
L 369.78898 307.968236 
L 370.031818 308.924102 
L 370.517493 306.610151 
L 370.760331 306.27891 
L 371.003169 305.706338 
L 371.246007 305.535985 
L 371.488844 306.212662 
L 371.731682 306.477655 
L 371.97452 307.305756 
L 372.217358 309.383106 
L 372.460195 309.960411 
L 372.703033 308.94303 
L 372.945871 310.040855 
L 373.188709 311.777501 
L 373.431546 314.446352 
M 376.588437 315.189277 
L 376.831275 315.444806 
L 377.074113 315.402218 
L 377.316951 316.306031 
L 377.559788 315.83283 
L 377.802626 316.149874 
L 378.045464 316.003182 
M 379.259653 317.05842 
L 379.50249 316.348619 
L 379.988166 313.821728 
L 380.231004 313.85012 
L 380.473841 313.277547 
L 380.716679 314.034668 
L 381.202355 312.81381 
L 381.445193 312.510962 
L 381.68803 313.869048 
L 381.930868 312.62453 
L 382.173706 312.31695 
M 383.387895 311.843749 
L 384.116408 313.566199 
L 384.359246 313.230227 
L 384.602083 313.324867 
L 384.844921 314.540992 
L 385.330597 314.233412 
L 385.573434 312.771222 
L 385.816272 312.463642 
L 386.301948 314.413228 
M 386.787623 312.71917 
L 387.273299 313.783872 
L 387.516137 314.929017 
L 387.758974 315.317041 
L 388.001812 314.574117 
L 388.24465 317.929109 
L 388.487488 318.553733 
L 388.973163 317.687776 
L 389.216001 316.315495 
L 389.701676 316.963779 
L 389.944514 317.825005 
M 390.43019 317.470104 
L 390.915865 318.160977 
L 391.158703 318.407041 
M 391.644378 319.968603 
L 391.887216 320.067975 
L 392.130054 320.29038 
M 394.315594 319.930747 
L 394.558432 319.713075 
L 394.801269 320.020655 
L 395.044107 319.907087 
L 395.286945 320.31404 
L 395.529783 319.684683 
L 395.77262 321.610609 
L 396.015458 320.654744 
L 396.258296 320.243059 
L 396.501134 319.566383 
L 396.743971 320.120027 
L 396.986809 318.435433 
L 397.229647 315.591498 
M 397.715322 315.847026 
L 397.95816 316.09309 
L 398.200998 315.373826 
L 398.443836 316.447991 
L 398.686673 316.646735 
L 398.929511 316.216123 
M 400.386538 316.504775 
L 400.629376 316.750839 
M 401.115051 315.364361 
L 401.600727 315.066245 
L 401.843564 316.083626 
L 402.086402 316.410135 
L 402.32924 316.064698 
L 402.572078 316.528435 
L 403.057753 319.594775 
L 403.543429 319.131038 
L 403.786266 319.571115 
L 404.029104 320.957592 
L 404.271942 320.891344 
M 407.185995 321.184729 
L 407.671671 320.95286 
L 407.914508 320.782508 
L 408.157346 320.427608 
L 408.400184 320.933932 
L 408.643022 320.95286 
L 408.885859 320.825096 
M 409.371535 320.886612 
L 409.614373 322.268358 
L 409.85721 322.381926 
L 410.342886 322.01283 
L 410.585724 322.760487 
L 410.828561 321.993902 
L 411.071399 322.689506 
L 411.314237 322.358266 
L 411.557075 322.467102 
L 411.799912 323.162707 
L 412.04275 323.063335 
M 412.771263 323.157975 
L 413.014101 322.911911 
L 413.256939 322.997087 
L 413.499777 322.788879 
L 413.742615 323.176903 
L 413.985452 322.784147 
M 415.199641 324.052324 
L 415.442479 324.246336 
L 415.685317 324.710073 
L 415.928154 324.887429 
M 424.913151 333.90436 
L 425.155989 333.539996 
L 425.641665 333.73874 
L 425.884502 334.055784 
L 426.12734 334.126765 
L 426.370178 334.424881 
L 426.613016 334.424881 
L 426.855854 335.31923 
L 427.098691 335.01165 
M 429.284231 336.137867 
L 429.527069 336.033763 
L 429.769907 336.298755 
L 430.012744 336.029031 
L 430.255582 336.062155 
L 430.49842 336.8524 
L 430.984095 336.885524 
L 431.226933 338.248342 
L 431.469771 338.910822 
L 431.712609 337.623717 
L 431.955446 337.926565 
L 432.198284 336.464375 
L 432.441122 336.379199 
L 432.68396 336.68678 
L 432.926797 337.429705 
L 433.169635 336.961236 
L 433.412473 336.128403 
L 433.655311 336.175723 
L 433.898149 335.205662 
L 434.140986 335.120486 
L 434.383824 334.760853 
M 437.297877 333.899628 
L 437.540715 334.017928 
L 437.783553 334.959598 
L 438.02639 335.040042 
M 440.454768 334.694605 
L 440.697606 335.20093 
L 441.183281 335.186734 
L 441.426119 334.552645 
L 441.668957 334.245065 
L 442.154632 337.850853 
M 443.125983 337.656841 
L 443.368821 337.969153 
L 443.611659 337.954957 
L 444.097334 338.726274 
L 444.340172 338.773594 
L 444.58301 338.38557 
L 444.825848 338.328786 
L 445.554361 337.424973 
L 445.797199 337.585861 
M 446.282874 337.316136 
L 447.011388 337.126856 
L 447.254225 337.742017 
L 447.497063 337.860317 
L 447.739901 337.827193 
L 447.982739 337.443901 
L 448.225576 337.652109 
L 448.468414 338.073257 
L 448.711252 338.83511 
M 453.810845 343.728004 
L 454.053683 343.983533 
L 454.29652 343.557652 
M 455.753547 343.45828 
L 455.996385 343.71854 
L 456.239222 343.548188 
L 456.48206 343.931481 
L 456.724898 343.822644 
L 456.967736 342.772139 
L 457.210573 342.966151 
L 457.453411 342.814727 
L 457.696249 342.871511 
L 458.181924 341.778418 
L 458.424762 342.11439 
M 459.153275 342.597055 
L 459.396113 342.691695 
L 459.638951 342.341527 
M 460.367464 341.418786 
L 460.610302 341.792614 
L 461.338815 343.874697 
M 464.252868 344.362093 
L 464.495706 343.893625 
L 464.738544 344.622353 
L 464.981382 344.575033 
L 465.224219 344.059245 
L 465.467057 342.644375 
M 469.352461 336.9707 
L 469.595299 336.350807 
L 470.080975 337.358725 
L 470.323812 337.089 
L 470.809488 339.156887 
M 471.295163 338.712078 
L 471.538001 338.43289 
L 471.780839 338.816182 
L 472.266514 338.868234 
M 474.209217 340.727913 
L 474.452054 340.188464 
M 476.637594 343.089184 
L 476.880432 343.486672 
L 477.12327 343.382568 
L 477.366107 342.502415 
L 477.608945 343.202752 
M 478.337458 344.324237 
L 478.580296 343.983533 
L 478.823134 343.974069 
L 479.065972 344.442537 
L 479.30881 343.22168 
L 479.551647 343.33998 
L 479.794485 344.224865 
L 480.037323 343.302124 
L 480.280161 342.871511 
L 480.522998 344.409413 
L 480.765836 344.726458 
L 481.008674 341.61753 
L 481.251512 341.87779 
L 481.494349 340.940853 
L 481.737187 343.36364 
L 481.980025 343.131772 
L 482.222863 343.193288 
L 482.4657 342.970883 
L 482.708538 341.839934 
L 482.951376 342.847851 
L 483.194214 341.631726 
L 483.679889 343.051328 
L 483.922727 343.29266 
L 484.165565 341.281557 
L 484.65124 339.081175 
L 484.894078 339.123763 
M 486.593942 338.144237 
L 486.83678 338.759398 
M 491.20786 333.213487 
L 491.450697 332.480027 
L 491.693535 332.726091 
L 491.936373 333.43116 
L 492.179211 335.134682 
L 492.422049 334.905274 
L 492.664886 335.773503 
L 492.907724 334.174085 
L 493.3934 333.677224 
L 493.636237 331.879062 
L 493.879075 331.647194 
L 494.121913 331.713442 
L 494.607588 330.932661 
L 495.093264 332.385386 
L 495.336102 331.89799 
L 495.578939 332.494223 
L 495.821777 334.727729 
L 496.064615 334.382293 
L 496.307453 332.584131 
L 496.55029 334.278189 
L 496.793128 335.101558 
L 497.035966 335.096826 
L 497.278804 336.062155 
M 498.250155 336.033763 
L 498.492992 336.123671 
L 498.73583 335.877607 
L 498.978668 337.117392 
L 499.221506 336.511695 
L 499.464344 336.260899 
M 499.950019 336.700976 
L 500.192857 337.079536 
L 500.435695 336.738832 
L 500.678532 337.3256 
L 501.164208 334.652017 
L 501.407046 334.514789 
L 501.892721 335.27191 
L 502.135559 334.415417 
L 502.378397 335.24825 
L 502.621234 335.025846 
L 502.864072 333.847576 
L 503.10691 333.909092 
L 503.592585 334.888617 
L 504.078261 336.809812 
L 504.321099 335.787699 
L 504.563936 337.226228 
L 504.806774 336.705708 
L 505.049612 335.773503 
L 505.29245 337.959689 
L 505.535288 335.574758 
L 505.778125 335.323962 
L 506.020963 335.499046 
L 506.263801 337.027484 
L 506.506639 339.843028 
L 506.749476 340.136412 
L 506.992314 338.887162 
L 507.235152 335.62681 
L 507.720827 333.804988 
L 507.963665 333.492676 
L 508.449341 334.443809 
L 508.692178 334.401221 
L 508.935016 335.229322 
L 509.177854 332.281282 
L 509.420692 334.268725 
L 509.663529 334.453273 
L 509.906367 334.325509 
L 510.149205 334.685141 
M 510.63488 331.533625 
L 511.120556 330.733916 
L 511.363394 330.549368 
L 511.606231 330.838021 
L 511.849069 330.019384 
L 512.091907 329.707071 
M 513.791771 329.494131 
L 514.034609 329.470471 
L 514.520285 332.115662 
L 515.00596 329.456275 
L 515.734473 329.025662 
L 516.220149 330.005187 
L 516.462987 328.954682 
L 516.948662 328.311129 
L 517.1915 328.822186 
L 517.434338 328.54773 
L 517.677175 329.025662 
M 518.162851 328.694422 
L 518.405689 328.552462 
L 518.648527 328.874238 
L 518.891364 328.755938 
L 519.134202 328.083993 
L 519.37704 327.946765 
L 519.619878 328.637638 
L 519.862715 328.457822 
L 520.591229 327.359996 
L 520.834066 327.435708 
M 522.048255 327.596597 
L 522.291093 326.214851 
L 522.776768 327.388388 
L 523.262444 327.326872 
L 523.505282 327.998817 
L 523.748119 327.913641 
L 523.990957 329.304851 
L 524.233795 329.373559 
L 524.476633 329.158158 
L 524.71947 328.542998 
L 524.962308 329.659751 
M 525.447984 329.404223 
L 525.690822 328.031941 
L 525.933659 327.913641 
L 526.176497 329.711803 
L 526.662173 327.151788 
L 526.90501 326.162799 
L 527.147848 327.284284 
L 527.390686 327.572936 
L 527.633524 328.069797 
L 527.876361 328.87897 
L 528.119199 328.552462 
L 528.362037 329.901083 
L 528.604875 329.229139 
L 528.847712 328.940486 
L 529.09055 329.167622 
L 529.576226 328.789062 
L 529.819063 329.04459 
L 530.061901 329.498863 
M 530.547577 328.670762 
L 530.790414 329.631359 
L 531.033252 330.137684 
L 531.27609 330.052508 
L 531.518928 329.134498 
L 531.761766 330.610884 
L 532.004603 330.142416 
L 532.247441 330.549368 
L 532.490279 328.983074 
L 532.733117 328.73701 
L 532.975954 329.356903 
L 533.46163 328.140777 
L 534.190143 330.449996 
L 534.432981 330.043044 
L 534.675819 331.088817 
L 535.161494 328.770134 
L 535.404332 329.025662 
L 535.64717 329.11557 
L 535.890007 328.107653 
L 536.132845 327.719629 
L 536.375683 327.847393 
L 536.618521 328.145509 
L 536.861358 327.220497 
L 537.104196 327.989353 
L 537.347034 326.389935 
M 537.832709 327.655652 
L 538.075547 328.150241 
L 538.318385 328.024748 
L 539.289736 329.839567 
L 539.532574 331.192921 
M 543.903653 336.975432 
L 544.146491 336.776688 
L 544.389329 337.235692 
L 544.632167 335.929659 
L 544.875005 335.986443 
L 545.117842 337.945493 
L 545.36068 338.650562 
L 545.603518 338.655294 
L 545.846356 337.197836 
L 546.089193 336.700976 
L 546.574869 335.030578 
L 546.817707 334.992722 
L 547.060544 335.929659 
L 547.54622 335.489582 
L 547.789058 336.038495 
L 548.031895 335.62681 
L 548.517571 338.420965 
L 549.73176 334.931206 
L 549.974597 335.745111 
L 550.217435 334.514789 
L 550.703111 334.074712 
L 550.945948 334.689873 
L 551.188786 334.481665 
L 551.431624 332.655111 
M 552.402975 333.819184 
L 552.645813 333.894896 
L 552.888651 334.670945 
L 553.131488 334.292385 
L 553.374326 334.992722 
L 553.617164 334.902814 
L 554.588515 337.434437 
M 559.688108 341.267361 
L 559.930946 341.130133 
L 560.173783 341.234237 
L 560.416621 342.204298 
L 560.659459 341.792614 
L 560.902297 341.792614 
L 561.145134 341.660118 
L 561.387972 342.000822 
L 561.63081 341.257897 
L 561.873648 341.560746 
L 562.116485 341.257897 
L 562.359323 342.620715 
L 562.602161 340.784697 
L 562.844999 340.363548 
L 563.087836 341.111205 
L 563.330674 341.158525 
L 563.573512 340.765769 
L 563.81635 340.865141 
L 564.059187 341.205845 
L 564.302025 340.841481 
L 564.544863 340.827285 
L 565.030539 341.139597 
L 565.273376 342.563931 
L 565.759052 342.100194 
L 566.00189 342.502415 
L 566.244727 342.11439 
L 566.487565 340.051236 
L 566.730403 340.429796 
L 567.216078 340.604881 
L 567.458916 341.192217 
L 567.701754 340.884069 
L 567.944592 340.988173 
L 568.187429 341.338341 
L 568.673105 341.362001 
L 569.15878 342.568663 
L 569.644456 342.918831 
M 572.072834 342.488219 
L 572.315671 342.379383 
L 572.558509 342.076534 
L 572.801347 342.714787 
L 573.044185 343.018203 
L 573.287022 342.942491 
L 573.52986 344.111297 
L 573.772698 344.480961 
L 574.015536 344.248525 
L 574.258373 344.882614 
L 574.501211 344.082905 
L 574.744049 343.827376 
L 574.986887 343.29266 
L 575.229724 343.874697 
L 575.472562 343.962333 
L 575.7154 343.794252 
L 575.958238 343.81318 
L 576.201075 343.520742 
L 576.443913 344.437805 
L 576.686751 344.698066 
L 576.929589 344.679138 
L 577.172426 344.958326 
L 577.658102 345.918923 
M 578.872291 345.46465 
L 579.115129 345.313226 
L 579.357966 345.360546 
M 580.08648 345.261174 
L 580.329317 344.518249 
L 580.572155 344.333701 
L 580.814993 344.593961 
L 581.057831 345.292216 
L 581.300668 345.171834 
L 581.543506 345.342943 
L 582.029182 346.436037 
L 582.514857 345.981007 
L 582.757695 346.749674 
L 583.000533 346.64027 
L 583.24337 347.417644 
M 586.643099 348.307829 
L 586.885937 348.874345 
L 587.371612 349.042615 
L 587.857288 348.772323 
L 588.100126 350.269718 
M 591.742692 352.510607 
L 591.98553 352.256404 
L 592.228368 352.317163 
L 592.471205 352.64916 
L 592.956881 352.600515 
M 593.685394 352.48354 
L 594.17107 353.192584 
L 594.413907 353.019582 
L 594.656745 353.010118 
L 595.142421 353.463822 
L 595.628096 352.657867 
L 595.870934 352.693073 
L 596.113772 353.042674 
L 596.599447 353.054031 
L 596.842285 352.945195 
L 597.085123 353.020907 
L 597.570798 353.358961 
L 597.813636 353.262239 
L 598.056474 353.959926 
L 598.542149 353.270378 
L 598.784987 353.425966 
L 599.5135 352.023778 
L 599.756338 352.159114 
L 599.999176 352.129397 
L 600.242014 352.704619 
L 600.484851 352.701969 
L 601.213365 354.287191 
L 601.456202 354.281702 
L 601.69904 354.538556 
L 601.941878 355.029359 
L 602.184716 355.0922 
M 603.156067 351.719037 
L 603.398904 352.018479 
L 603.641742 351.334988 
L 604.370256 352.383411 
L 604.613093 351.465402 
M 605.098769 351.996901 
L 605.341607 352.71749 
L 605.584444 352.906014 
L 605.827282 352.664113 
L 606.07012 352.194888 
L 606.312958 352.426188 
L 606.555795 352.163089 
L 606.798633 352.36259 
L 607.284309 351.007911 
L 607.527146 351.447231 
L 608.012822 350.813142 
L 608.498497 350.394643 
L 608.741335 351.818977 
L 608.984173 352.127315 
L 609.469848 351.415432 
L 609.712686 351.245837 
L 609.955524 351.453288 
L 610.198362 351.040278 
L 610.4412 350.984819 
L 610.684037 350.701656 
L 610.926875 350.642033 
L 611.169713 351.075484 
L 611.412551 350.542661 
L 611.655388 350.738755 
L 611.898226 350.649415 
L 612.141064 351.669635 
L 612.383902 351.34237 
L 613.355253 353.794306 
M 616.269306 353.718594 
L 616.512143 353.412527 
L 616.754981 353.324512 
L 616.997819 353.778785 
L 617.483495 353.449816 
L 617.726332 354.005353 
L 617.96917 353.113086 
L 618.212008 353.378078 
L 618.454846 352.975669 
L 618.940521 353.789763 
L 619.183359 353.688687 
L 619.426197 354.531741 
L 619.911872 355.057562 
L 620.640385 355.618778 
M 623.068763 356.298862 
L 623.311601 356.064344 
L 623.554439 356.381388 
L 623.797276 355.869574 
L 624.040114 355.76547 
L 624.282952 357.335928 
L 624.52579 357.005256 
L 625.254303 358.504734 
L 625.497141 357.505523 
L 625.739978 356.978946 
L 625.982816 357.315675 
L 626.225654 355.495178 
L 626.468492 354.715722 
L 626.711329 355.253088 
L 626.954167 355.45259 
L 627.197005 355.221289 
L 627.439843 355.90478 
L 627.68268 355.99696 
L 627.925518 355.693922 
L 628.411194 355.904212 
M 628.896869 355.063808 
L 629.139707 354.932637 
L 629.625382 355.060401 
L 629.86822 354.609536 
L 630.353896 355.274099 
L 630.596734 355.23416 
L 630.839571 355.837964 
L 631.082409 357.339335 
M 631.568085 357.768623 
L 631.810922 357.500223 
M 637.396191 360.715148 
L 637.639029 360.486687 
L 637.881866 360.642843 
L 638.124704 361.26955 
M 639.581731 360.98014 
L 639.824568 360.754518 
L 640.310244 359.745087 
L 640.553082 359.729566 
L 640.795919 359.861494 
L 641.038757 359.461545 
L 641.281595 359.716695 
M 643.709973 358.854145 
L 643.95281 359.091502 
L 644.195648 358.840706 
L 644.438486 359.044182 
L 644.924161 359.211884 
L 645.166999 358.990805 
L 645.409837 359.64439 
L 645.652675 359.555428 
L 645.895512 359.942506 
L 646.381188 358.192421 
L 646.624026 358.312046 
L 646.866863 358.055193 
L 647.109701 357.57726 
L 647.352539 357.927618 
L 647.595377 357.788876 
L 647.838214 358.514198 
L 648.32389 359.236869 
L 648.566728 359.000837 
L 649.295241 361.326334 
M 650.995105 360.118915 
L 651.237943 360.551042 
L 651.480781 359.87834 
L 651.723619 359.572085 
L 651.966456 359.480095 
L 652.209294 360.068945 
L 652.452132 360.120997 
L 652.69497 360.324474 
L 653.180645 359.730323 
L 653.423483 359.878908 
M 655.123347 358.328324 
L 655.366185 358.372237 
L 655.366185 358.372237 
" clip-path="url(#pfb2d275cf6)" style="fill: none; stroke: #1e90ff"/>
   </g>
   <g id="patch_3">
    <path d="M 57.68175 378.43845 
L 57.68175 28.51845 
" style="fill: none; stroke: #f0f0f0; stroke-width: 3; stroke-linejoin: miter; stroke-linecap: square"/>
   </g>
   <g id="patch_4">
    <path d="M 684.08175 378.43845 
L 684.08175 28.51845 
" style="fill: none; stroke: #f0f0f0; stroke-width: 3; stroke-linejoin: miter; stroke-linecap: square"/>
   </g>
   <g id="patch_5">
    <path d="M 57.68175 378.43845 
L 684.08175 378.43845 
" style="fill: none; stroke: #f0f0f0; stroke-width: 3; stroke-linejoin: miter; stroke-linecap: square"/>
   </g>
   <g id="patch_6">
    <path d="M 57.68175 28.51845 
L 684.08175 28.51845 
" style="fill: none; stroke: #f0f0f0; stroke-width: 3; stroke-linejoin: miter; stroke-linecap: square"/>
   </g>
   <g id="text_15">
    <!-- AAPL, Relative Strength Index (RSI), AAPL -->
    <g transform="translate(160.68855 22.51845)scale(0.2016 -0.2016)">
     <defs>
      <path id="DejaVuSans-41" d="M 2188 4044 
L 1331 1722 
L 3047 1722 
L 2188 4044 
z
M 1831 4666 
L 2547 4666 
L 4325 0 
L 3669 0 
L 3244 1197 
L 1141 1197 
L 716 0 
L 50 0 
L 1831 4666 
z
" transform="scale(0.015625)"/>
      <path id="DejaVuSans-4c" d="M 628 4666 
L 1259 4666 
L 1259 531 
L 3531 531 
L 3531 0 
L 628 0 
L 628 4666 
z
" transform="scale(0.015625)"/>
      <path id="DejaVuSans-2c" d="M 750 794 
L 1409 794 
L 1409 256 
L 897 -744 
L 494 -744 
L 750 256 
L 750 794 
z
" transform="scale(0.015625)"/>
      <path id="DejaVuSans-52" d="M 2841 2188 
Q 3044 2119 3236 1894 
Q 3428 1669 3622 1275 
L 4263 0 
L 3584 0 
L 2988 1197 
Q 2756 1666 2539 1819 
Q 2322 1972 1947 1972 
L 1259 1972 
L 1259 0 
L 628 0 
L 628 4666 
L 2053 4666 
Q 2853 4666 3247 4331 
Q 3641 3997 3641 3322 
Q 3641 2881 3436 2590 
Q 3231 2300 2841 2188 
z
M 1259 4147 
L 1259 2491 
L 2053 2491 
Q 2509 2491 2742 2702 
Q 2975 2913 2975 3322 
Q 2975 3731 2742 3939 
Q 2509 4147 2053 4147 
L 1259 4147 
z
" transform="scale(0.015625)"/>
      <path id="DejaVuSans-6c" d="M 603 4863 
L 1178 4863 
L 1178 0 
L 603 0 
L 603 4863 
z
" transform="scale(0.015625)"/>
      <path id="DejaVuSans-76" d="M 191 3500 
L 800 3500 
L 1894 563 
L 2988 3500 
L 3597 3500 
L 2284 0 
L 1503 0 
L 191 3500 
z
" transform="scale(0.015625)"/>
      <path id="DejaVuSans-6e" d="M 3513 2113 
L 3513 0 
L 2938 0 
L 2938 2094 
Q 2938 2591 2744 2837 
Q 2550 3084 2163 3084 
Q 1697 3084 1428 2787 
Q 1159 2491 1159 1978 
L 1159 0 
L 581 0 
L 581 3500 
L 1159 3500 
L 1159 2956 
Q 1366 3272 1645 3428 
Q 1925 3584 2291 3584 
Q 2894 3584 3203 3211 
Q 3513 2838 3513 2113 
z
" transform="scale(0.015625)"/>
      <path id="DejaVuSans-67" d="M 2906 1791 
Q 2906 2416 2648 2759 
Q 2391 3103 1925 3103 
Q 1463 3103 1205 2759 
Q 947 2416 947 1791 
Q 947 1169 1205 825 
Q 1463 481 1925 481 
Q 2391 481 2648 825 
Q 2906 1169 2906 1791 
z
M 3481 434 
Q 3481 -459 3084 -895 
Q 2688 -1331 1869 -1331 
Q 1566 -1331 1297 -1286 
Q 1028 -1241 775 -1147 
L 775 -588 
Q 1028 -725 1275 -790 
Q 1522 -856 1778 -856 
Q 2344 -856 2625 -561 
Q 2906 -266 2906 331 
L 2906 616 
Q 2728 306 2450 153 
Q 2172 0 1784 0 
Q 1141 0 747 490 
Q 353 981 353 1791 
Q 353 2603 747 3093 
Q 1141 3584 1784 3584 
Q 2172 3584 2450 3431 
Q 2728 3278 2906 2969 
L 2906 3500 
L 3481 3500 
L 3481 434 
z
" transform="scale(0.015625)"/>
      <path id="DejaVuSans-68" d="M 3513 2113 
L 3513 0 
L 2938 0 
L 2938 2094 
Q 2938 2591 2744 2837 
Q 2550 3084 2163 3084 
Q 1697 3084 1428 2787 
Q 1159 2491 1159 1978 
L 1159 0 
L 581 0 
L 581 4863 
L 1159 4863 
L 1159 2956 
Q 1366 3272 1645 3428 
Q 1925 3584 2291 3584 
Q 2894 3584 3203 3211 
Q 3513 2838 3513 2113 
z
" transform="scale(0.015625)"/>
      <path id="DejaVuSans-49" d="M 628 4666 
L 1259 4666 
L 1259 0 
L 628 0 
L 628 4666 
z
" transform="scale(0.015625)"/>
      <path id="DejaVuSans-64" d="M 2906 2969 
L 2906 4863 
L 3481 4863 
L 3481 0 
L 2906 0 
L 2906 525 
Q 2725 213 2448 61 
Q 2172 -91 1784 -91 
Q 1150 -91 751 415 
Q 353 922 353 1747 
Q 353 2572 751 3078 
Q 1150 3584 1784 3584 
Q 2172 3584 2448 3432 
Q 2725 3281 2906 2969 
z
M 947 1747 
Q 947 1113 1208 752 
Q 1469 391 1925 391 
Q 2381 391 2643 752 
Q 2906 1113 2906 1747 
Q 2906 2381 2643 2742 
Q 2381 3103 1925 3103 
Q 1469 3103 1208 2742 
Q 947 2381 947 1747 
z
" transform="scale(0.015625)"/>
      <path id="DejaVuSans-78" d="M 3513 3500 
L 2247 1797 
L 3578 0 
L 2900 0 
L 1881 1375 
L 863 0 
L 184 0 
L 1544 1831 
L 300 3500 
L 978 3500 
L 1906 2253 
L 2834 3500 
L 3513 3500 
z
" transform="scale(0.015625)"/>
     </defs>
     <use xlink:href="#DejaVuSans-41"/>
     <use xlink:href="#DejaVuSans-41" x="71.158203"/>
     <use xlink:href="#DejaVuSans-50" x="139.566406"/>
     <use xlink:href="#DejaVuSans-4c" x="199.869141"/>
     <use xlink:href="#DejaVuSans-2c" x="255.582031"/>
     <use xlink:href="#DejaVuSans-20" x="287.369141"/>
     <use xlink:href="#DejaVuSans-52" x="319.15625"/>
     <use xlink:href="#DejaVuSans-65" x="384.138672"/>
     <use xlink:href="#DejaVuSans-6c" x="445.662109"/>
     <use xlink:href="#DejaVuSans-61" x="473.445312"/>
     <use xlink:href="#DejaVuSans-74" x="534.724609"/>
     <use xlink:href="#DejaVuSans-69" x="573.933594"/>
     <use xlink:href="#DejaVuSans-76" x="601.716797"/>
     <use xlink:href="#DejaVuSans-65" x="660.896484"/>
     <use xlink:href="#DejaVuSans-20" x="722.419922"/>
     <use xlink:href="#DejaVuSans-53" x="754.207031"/>
     <use xlink:href="#DejaVuSans-74" x="817.683594"/>
     <use xlink:href="#DejaVuSans-72" x="856.892578"/>
     <use xlink:href="#DejaVuSans-65" x="895.755859"/>
     <use xlink:href="#DejaVuSans-6e" x="957.279297"/>
     <use xlink:href="#DejaVuSans-67" x="1020.658203"/>
     <use xlink:href="#DejaVuSans-74" x="1084.134766"/>
     <use xlink:href="#DejaVuSans-68" x="1123.34375"/>
     <use xlink:href="#DejaVuSans-20" x="1186.722656"/>
     <use xlink:href="#DejaVuSans-49" x="1218.509766"/>
     <use xlink:href="#DejaVuSans-6e" x="1248.001953"/>
     <use xlink:href="#DejaVuSans-64" x="1311.380859"/>
     <use xlink:href="#DejaVuSans-65" x="1374.857422"/>
     <use xlink:href="#DejaVuSans-78" x="1434.630859"/>
     <use xlink:href="#DejaVuSans-20" x="1493.810547"/>
     <use xlink:href="#DejaVuSans-28" x="1525.597656"/>
     <use xlink:href="#DejaVuSans-52" x="1564.611328"/>
     <use xlink:href="#DejaVuSans-53" x="1634.09375"/>
     <use xlink:href="#DejaVuSans-49" x="1697.570312"/>
     <use xlink:href="#DejaVuSans-29" x="1727.0625"/>
     <use xlink:href="#DejaVuSans-2c" x="1766.076172"/>
     <use xlink:href="#DejaVuSans-20" x="1797.863281"/>
     <use xlink:href="#DejaVuSans-41" x="1829.650391"/>
     <use xlink:href="#DejaVuSans-41" x="1900.808594"/>
     <use xlink:href="#DejaVuSans-50" x="1969.216797"/>
     <use xlink:href="#DejaVuSans-4c" x="2029.519531"/>
    </g>
   </g>
   <g id="legend_1">
    <g id="patch_7">
     <path d="M 464.408625 101.366575 
L 674.28175 101.366575 
Q 677.08175 101.366575 677.08175 98.566575 
L 677.08175 38.31845 
Q 677.08175 35.51845 674.28175 35.51845 
L 464.408625 35.51845 
Q 461.608625 35.51845 461.608625 38.31845 
L 461.608625 98.566575 
Q 461.608625 101.366575 464.408625 101.366575 
z
" style="fill: #f0f0f0; opacity: 0.8; stroke: #cccccc; stroke-width: 0.5; stroke-linejoin: miter"/>
    </g>
    <g id="line2d_28">
     <path d="M 467.208625 46.856262 
L 481.208625 46.856262 
L 495.208625 46.856262 
" style="fill: none; stroke: #00ff7f"/>
    </g>
    <g id="text_16">
     <!-- Oversold, RSI &lt;= 30 -->
     <g transform="translate(506.408625 51.756262)scale(0.14 -0.14)">
      <defs>
       <path id="DejaVuSans-4f" d="M 2522 4238 
Q 1834 4238 1429 3725 
Q 1025 3213 1025 2328 
Q 1025 1447 1429 934 
Q 1834 422 2522 422 
Q 3209 422 3611 934 
Q 4013 1447 4013 2328 
Q 4013 3213 3611 3725 
Q 3209 4238 2522 4238 
z
M 2522 4750 
Q 3503 4750 4090 4092 
Q 4678 3434 4678 2328 
Q 4678 1225 4090 567 
Q 3503 -91 2522 -91 
Q 1538 -91 948 565 
Q 359 1222 359 2328 
Q 359 3434 948 4092 
Q 1538 4750 2522 4750 
z
" transform="scale(0.015625)"/>
       <path id="DejaVuSans-73" d="M 2834 3397 
L 2834 2853 
Q 2591 2978 2328 3040 
Q 2066 3103 1784 3103 
Q 1356 3103 1142 2972 
Q 928 2841 928 2578 
Q 928 2378 1081 2264 
Q 1234 2150 1697 2047 
L 1894 2003 
Q 2506 1872 2764 1633 
Q 3022 1394 3022 966 
Q 3022 478 2636 193 
Q 2250 -91 1575 -91 
Q 1294 -91 989 -36 
Q 684 19 347 128 
L 347 722 
Q 666 556 975 473 
Q 1284 391 1588 391 
Q 1994 391 2212 530 
Q 2431 669 2431 922 
Q 2431 1156 2273 1281 
Q 2116 1406 1581 1522 
L 1381 1569 
Q 847 1681 609 1914 
Q 372 2147 372 2553 
Q 372 3047 722 3315 
Q 1072 3584 1716 3584 
Q 2034 3584 2315 3537 
Q 2597 3491 2834 3397 
z
" transform="scale(0.015625)"/>
       <path id="DejaVuSans-6f" d="M 1959 3097 
Q 1497 3097 1228 2736 
Q 959 2375 959 1747 
Q 959 1119 1226 758 
Q 1494 397 1959 397 
Q 2419 397 2687 759 
Q 2956 1122 2956 1747 
Q 2956 2369 2687 2733 
Q 2419 3097 1959 3097 
z
M 1959 3584 
Q 2709 3584 3137 3096 
Q 3566 2609 3566 1747 
Q 3566 888 3137 398 
Q 2709 -91 1959 -91 
Q 1206 -91 779 398 
Q 353 888 353 1747 
Q 353 2609 779 3096 
Q 1206 3584 1959 3584 
z
" transform="scale(0.015625)"/>
       <path id="DejaVuSans-3c" d="M 4684 3150 
L 1459 2003 
L 4684 863 
L 4684 294 
L 678 1747 
L 678 2266 
L 4684 3719 
L 4684 3150 
z
" transform="scale(0.015625)"/>
       <path id="DejaVuSans-3d" d="M 678 2906 
L 4684 2906 
L 4684 2381 
L 678 2381 
L 678 2906 
z
M 678 1631 
L 4684 1631 
L 4684 1100 
L 678 1100 
L 678 1631 
z
" transform="scale(0.015625)"/>
       <path id="DejaVuSans-33" d="M 2597 2516 
Q 3050 2419 3304 2112 
Q 3559 1806 3559 1356 
Q 3559 666 3084 287 
Q 2609 -91 1734 -91 
Q 1441 -91 1130 -33 
Q 819 25 488 141 
L 488 750 
Q 750 597 1062 519 
Q 1375 441 1716 441 
Q 2309 441 2620 675 
Q 2931 909 2931 1356 
Q 2931 1769 2642 2001 
Q 2353 2234 1838 2234 
L 1294 2234 
L 1294 2753 
L 1863 2753 
Q 2328 2753 2575 2939 
Q 2822 3125 2822 3475 
Q 2822 3834 2567 4026 
Q 2313 4219 1838 4219 
Q 1578 4219 1281 4162 
Q 984 4106 628 3988 
L 628 4550 
Q 988 4650 1302 4700 
Q 1616 4750 1894 4750 
Q 2613 4750 3031 4423 
Q 3450 4097 3450 3541 
Q 3450 3153 3228 2886 
Q 3006 2619 2597 2516 
z
" transform="scale(0.015625)"/>
      </defs>
      <use xlink:href="#DejaVuSans-4f"/>
      <use xlink:href="#DejaVuSans-76" x="78.710938"/>
      <use xlink:href="#DejaVuSans-65" x="137.890625"/>
      <use xlink:href="#DejaVuSans-72" x="199.414062"/>
      <use xlink:href="#DejaVuSans-73" x="240.527344"/>
      <use xlink:href="#DejaVuSans-6f" x="292.626953"/>
      <use xlink:href="#DejaVuSans-6c" x="353.808594"/>
      <use xlink:href="#DejaVuSans-64" x="381.591797"/>
      <use xlink:href="#DejaVuSans-2c" x="445.068359"/>
      <use xlink:href="#DejaVuSans-20" x="476.855469"/>
      <use xlink:href="#DejaVuSans-52" x="508.642578"/>
      <use xlink:href="#DejaVuSans-53" x="578.125"/>
      <use xlink:href="#DejaVuSans-49" x="641.601562"/>
      <use xlink:href="#DejaVuSans-20" x="671.09375"/>
      <use xlink:href="#DejaVuSans-3c" x="702.880859"/>
      <use xlink:href="#DejaVuSans-3d" x="786.669922"/>
      <use xlink:href="#DejaVuSans-20" x="870.458984"/>
      <use xlink:href="#DejaVuSans-33" x="902.246094"/>
      <use xlink:href="#DejaVuSans-30" x="965.869141"/>
     </g>
    </g>
    <g id="line2d_29">
     <path d="M 467.208625 67.405637 
L 481.208625 67.405637 
L 495.208625 67.405637 
" style="fill: none; stroke: #ff4500"/>
    </g>
    <g id="text_17">
     <!-- Overbought, RSI &gt;= 70 -->
     <g transform="translate(506.408625 72.305637)scale(0.14 -0.14)">
      <defs>
       <path id="DejaVuSans-62" d="M 3116 1747 
Q 3116 2381 2855 2742 
Q 2594 3103 2138 3103 
Q 1681 3103 1420 2742 
Q 1159 2381 1159 1747 
Q 1159 1113 1420 752 
Q 1681 391 2138 391 
Q 2594 391 2855 752 
Q 3116 1113 3116 1747 
z
M 1159 2969 
Q 1341 3281 1617 3432 
Q 1894 3584 2278 3584 
Q 2916 3584 3314 3078 
Q 3713 2572 3713 1747 
Q 3713 922 3314 415 
Q 2916 -91 2278 -91 
Q 1894 -91 1617 61 
Q 1341 213 1159 525 
L 1159 0 
L 581 0 
L 581 4863 
L 1159 4863 
L 1159 2969 
z
" transform="scale(0.015625)"/>
       <path id="DejaVuSans-75" d="M 544 1381 
L 544 3500 
L 1119 3500 
L 1119 1403 
Q 1119 906 1312 657 
Q 1506 409 1894 409 
Q 2359 409 2629 706 
Q 2900 1003 2900 1516 
L 2900 3500 
L 3475 3500 
L 3475 0 
L 2900 0 
L 2900 538 
Q 2691 219 2414 64 
Q 2138 -91 1772 -91 
Q 1169 -91 856 284 
Q 544 659 544 1381 
z
M 1991 3584 
L 1991 3584 
z
" transform="scale(0.015625)"/>
       <path id="DejaVuSans-3e" d="M 678 3150 
L 678 3719 
L 4684 2266 
L 4684 1747 
L 678 294 
L 678 863 
L 3897 2003 
L 678 3150 
z
" transform="scale(0.015625)"/>
      </defs>
      <use xlink:href="#DejaVuSans-4f"/>
      <use xlink:href="#DejaVuSans-76" x="78.710938"/>
      <use xlink:href="#DejaVuSans-65" x="137.890625"/>
      <use xlink:href="#DejaVuSans-72" x="199.414062"/>
      <use xlink:href="#DejaVuSans-62" x="240.527344"/>
      <use xlink:href="#DejaVuSans-6f" x="304.003906"/>
      <use xlink:href="#DejaVuSans-75" x="365.185547"/>
      <use xlink:href="#DejaVuSans-67" x="428.564453"/>
      <use xlink:href="#DejaVuSans-68" x="492.041016"/>
      <use xlink:href="#DejaVuSans-74" x="555.419922"/>
      <use xlink:href="#DejaVuSans-2c" x="594.628906"/>
      <use xlink:href="#DejaVuSans-20" x="626.416016"/>
      <use xlink:href="#DejaVuSans-52" x="658.203125"/>
      <use xlink:href="#DejaVuSans-53" x="727.685547"/>
      <use xlink:href="#DejaVuSans-49" x="791.162109"/>
      <use xlink:href="#DejaVuSans-20" x="820.654297"/>
      <use xlink:href="#DejaVuSans-3e" x="852.441406"/>
      <use xlink:href="#DejaVuSans-3d" x="936.230469"/>
      <use xlink:href="#DejaVuSans-20" x="1020.019531"/>
      <use xlink:href="#DejaVuSans-37" x="1051.806641"/>
      <use xlink:href="#DejaVuSans-30" x="1115.429688"/>
     </g>
    </g>
    <g id="line2d_30">
     <path d="M 467.208625 87.955012 
L 481.208625 87.955012 
L 495.208625 87.955012 
" style="fill: none; stroke: #1e90ff"/>
    </g>
    <g id="text_18">
     <!-- Neutral -->
     <g transform="translate(506.408625 92.855012)scale(0.14 -0.14)">
      <defs>
       <path id="DejaVuSans-4e" d="M 628 4666 
L 1478 4666 
L 3547 763 
L 3547 4666 
L 4159 4666 
L 4159 0 
L 3309 0 
L 1241 3903 
L 1241 0 
L 628 0 
L 628 4666 
z
" transform="scale(0.015625)"/>
      </defs>
      <use xlink:href="#DejaVuSans-4e"/>
      <use xlink:href="#DejaVuSans-65" x="74.804688"/>
      <use xlink:href="#DejaVuSans-75" x="136.328125"/>
      <use xlink:href="#DejaVuSans-74" x="199.707031"/>
      <use xlink:href="#DejaVuSans-72" x="238.916016"/>
      <use xlink:href="#DejaVuSans-61" x="280.029297"/>
      <use xlink:href="#DejaVuSans-6c" x="341.308594"/>
     </g>
    </g>
   </g>
  </g>
 </g>
 <defs>
  <clipPath id="pfb2d275cf6">
   <rect x="57.68175" y="28.51845" width="626.4" height="349.92"/>
  </clipPath>
 </defs>
</svg>
