<?xml version="1.0" encoding="utf-8" standalone="no"?>
<!DOCTYPE svg PUBLIC "-//W3C//DTD SVG 1.1//EN"
  "http://www.w3.org/Graphics/SVG/1.1/DTD/svg11.dtd">
<svg xmlns:xlink="http://www.w3.org/1999/xlink" width="612.165625pt" height="392.514375pt" viewBox="0 0 612.165625 392.514375" xmlns="http://www.w3.org/2000/svg" version="1.1">
 <metadata>
  <rdf:RDF xmlns:dc="http://purl.org/dc/elements/1.1/" xmlns:cc="http://creativecommons.org/ns#" xmlns:rdf="http://www.w3.org/1999/02/22-rdf-syntax-ns#">
   <cc:Work>
    <dc:type rdf:resource="http://purl.org/dc/dcmitype/StillImage"/>
    <dc:date>2023-04-24T21:55:13.931710</dc:date>
    <dc:format>image/svg+xml</dc:format>
    <dc:creator>
     <cc:Agent>
      <dc:title>Matplotlib v3.5.1, https://matplotlib.org/</dc:title>
     </cc:Agent>
    </dc:creator>
   </cc:Work>
  </rdf:RDF>
 </metadata>
 <defs>
  <style type="text/css">*{stroke-linejoin: round; stroke-linecap: butt}</style>
 </defs>
 <g id="figure_1">
  <g id="patch_1">
   <path d="M 0 392.514375 
L 612.165625 392.514375 
L 612.165625 0 
L 0 0 
z
" style="fill: #ffffff"/>
  </g>
  <g id="axes_1">
   <g id="patch_2">
    <path d="M 46.965625 354.958125 
L 604.965625 354.958125 
L 604.965625 22.318125 
L 46.965625 22.318125 
z
" style="fill: #ffffff"/>
   </g>
   <g id="matplotlib.axis_1">
    <g id="xtick_1">
     <g id="line2d_1">
      <defs>
       <path id="m8e30077957" d="M 0 0 
L 0 3.5 
" style="stroke: #000000; stroke-width: 0.8"/>
      </defs>
      <g>
       <use xlink:href="#m8e30077957" x="72.329261" y="354.958125" style="stroke: #000000; stroke-width: 0.8"/>
      </g>
     </g>
     <g id="text_1">
      <!-- 0 -->
      <g transform="translate(69.148011 369.556562)scale(0.1 -0.1)">
       <defs>
        <path id="DejaVuSans-30" d="M 2034 4250 
Q 1547 4250 1301 3770 
Q 1056 3291 1056 2328 
Q 1056 1369 1301 889 
Q 1547 409 2034 409 
Q 2525 409 2770 889 
Q 3016 1369 3016 2328 
Q 3016 3291 2770 3770 
Q 2525 4250 2034 4250 
z
M 2034 4750 
Q 2819 4750 3233 4129 
Q 3647 3509 3647 2328 
Q 3647 1150 3233 529 
Q 2819 -91 2034 -91 
Q 1250 -91 836 529 
Q 422 1150 422 2328 
Q 422 3509 836 4129 
Q 1250 4750 2034 4750 
z
" transform="scale(0.015625)"/>
       </defs>
       <use xlink:href="#DejaVuSans-30"/>
      </g>
     </g>
    </g>
    <g id="xtick_2">
     <g id="line2d_2">
      <g>
       <use xlink:href="#m8e30077957" x="189.15854" y="354.958125" style="stroke: #000000; stroke-width: 0.8"/>
      </g>
     </g>
     <g id="text_2">
      <!-- 500 -->
      <g transform="translate(179.61479 369.556562)scale(0.1 -0.1)">
       <defs>
        <path id="DejaVuSans-35" d="M 691 4666 
L 3169 4666 
L 3169 4134 
L 1269 4134 
L 1269 2991 
Q 1406 3038 1543 3061 
Q 1681 3084 1819 3084 
Q 2600 3084 3056 2656 
Q 3513 2228 3513 1497 
Q 3513 744 3044 326 
Q 2575 -91 1722 -91 
Q 1428 -91 1123 -41 
Q 819 9 494 109 
L 494 744 
Q 775 591 1075 516 
Q 1375 441 1709 441 
Q 2250 441 2565 725 
Q 2881 1009 2881 1497 
Q 2881 1984 2565 2268 
Q 2250 2553 1709 2553 
Q 1456 2553 1204 2497 
Q 953 2441 691 2322 
L 691 4666 
z
" transform="scale(0.015625)"/>
       </defs>
       <use xlink:href="#DejaVuSans-35"/>
       <use xlink:href="#DejaVuSans-30" x="63.623047"/>
       <use xlink:href="#DejaVuSans-30" x="127.246094"/>
      </g>
     </g>
    </g>
    <g id="xtick_3">
     <g id="line2d_3">
      <g>
       <use xlink:href="#m8e30077957" x="305.987818" y="354.958125" style="stroke: #000000; stroke-width: 0.8"/>
      </g>
     </g>
     <g id="text_3">
      <!-- 1000 -->
      <g transform="translate(293.262818 369.556562)scale(0.1 -0.1)">
       <defs>
        <path id="DejaVuSans-31" d="M 794 531 
L 1825 531 
L 1825 4091 
L 703 3866 
L 703 4441 
L 1819 4666 
L 2450 4666 
L 2450 531 
L 3481 531 
L 3481 0 
L 794 0 
L 794 531 
z
" transform="scale(0.015625)"/>
       </defs>
       <use xlink:href="#DejaVuSans-31"/>
       <use xlink:href="#DejaVuSans-30" x="63.623047"/>
       <use xlink:href="#DejaVuSans-30" x="127.246094"/>
       <use xlink:href="#DejaVuSans-30" x="190.869141"/>
      </g>
     </g>
    </g>
    <g id="xtick_4">
     <g id="line2d_4">
      <g>
       <use xlink:href="#m8e30077957" x="422.817097" y="354.958125" style="stroke: #000000; stroke-width: 0.8"/>
      </g>
     </g>
     <g id="text_4">
      <!-- 1500 -->
      <g transform="translate(410.092097 369.556562)scale(0.1 -0.1)">
       <use xlink:href="#DejaVuSans-31"/>
       <use xlink:href="#DejaVuSans-35" x="63.623047"/>
       <use xlink:href="#DejaVuSans-30" x="127.246094"/>
       <use xlink:href="#DejaVuSans-30" x="190.869141"/>
      </g>
     </g>
    </g>
    <g id="xtick_5">
     <g id="line2d_5">
      <g>
       <use xlink:href="#m8e30077957" x="539.646375" y="354.958125" style="stroke: #000000; stroke-width: 0.8"/>
      </g>
     </g>
     <g id="text_5">
      <!-- 2000 -->
      <g transform="translate(526.921375 369.556562)scale(0.1 -0.1)">
       <defs>
        <path id="DejaVuSans-32" d="M 1228 531 
L 3431 531 
L 3431 0 
L 469 0 
L 469 531 
Q 828 903 1448 1529 
Q 2069 2156 2228 2338 
Q 2531 2678 2651 2914 
Q 2772 3150 2772 3378 
Q 2772 3750 2511 3984 
Q 2250 4219 1831 4219 
Q 1534 4219 1204 4116 
Q 875 4013 500 3803 
L 500 4441 
Q 881 4594 1212 4672 
Q 1544 4750 1819 4750 
Q 2544 4750 2975 4387 
Q 3406 4025 3406 3419 
Q 3406 3131 3298 2873 
Q 3191 2616 2906 2266 
Q 2828 2175 2409 1742 
Q 1991 1309 1228 531 
z
" transform="scale(0.015625)"/>
       </defs>
       <use xlink:href="#DejaVuSans-32"/>
       <use xlink:href="#DejaVuSans-30" x="63.623047"/>
       <use xlink:href="#DejaVuSans-30" x="127.246094"/>
       <use xlink:href="#DejaVuSans-30" x="190.869141"/>
      </g>
     </g>
    </g>
    <g id="text_6">
     <!-- Date -->
     <g transform="translate(314.014844 383.234687)scale(0.1 -0.1)">
      <defs>
       <path id="DejaVuSans-44" d="M 1259 4147 
L 1259 519 
L 2022 519 
Q 2988 519 3436 956 
Q 3884 1394 3884 2338 
Q 3884 3275 3436 3711 
Q 2988 4147 2022 4147 
L 1259 4147 
z
M 628 4666 
L 1925 4666 
Q 3281 4666 3915 4102 
Q 4550 3538 4550 2338 
Q 4550 1131 3912 565 
Q 3275 0 1925 0 
L 628 0 
L 628 4666 
z
" transform="scale(0.015625)"/>
       <path id="DejaVuSans-61" d="M 2194 1759 
Q 1497 1759 1228 1600 
Q 959 1441 959 1056 
Q 959 750 1161 570 
Q 1363 391 1709 391 
Q 2188 391 2477 730 
Q 2766 1069 2766 1631 
L 2766 1759 
L 2194 1759 
z
M 3341 1997 
L 3341 0 
L 2766 0 
L 2766 531 
Q 2569 213 2275 61 
Q 1981 -91 1556 -91 
Q 1019 -91 701 211 
Q 384 513 384 1019 
Q 384 1609 779 1909 
Q 1175 2209 1959 2209 
L 2766 2209 
L 2766 2266 
Q 2766 2663 2505 2880 
Q 2244 3097 1772 3097 
Q 1472 3097 1187 3025 
Q 903 2953 641 2809 
L 641 3341 
Q 956 3463 1253 3523 
Q 1550 3584 1831 3584 
Q 2591 3584 2966 3190 
Q 3341 2797 3341 1997 
z
" transform="scale(0.015625)"/>
       <path id="DejaVuSans-74" d="M 1172 4494 
L 1172 3500 
L 2356 3500 
L 2356 3053 
L 1172 3053 
L 1172 1153 
Q 1172 725 1289 603 
Q 1406 481 1766 481 
L 2356 481 
L 2356 0 
L 1766 0 
Q 1100 0 847 248 
Q 594 497 594 1153 
L 594 3053 
L 172 3053 
L 172 3500 
L 594 3500 
L 594 4494 
L 1172 4494 
z
" transform="scale(0.015625)"/>
       <path id="DejaVuSans-65" d="M 3597 1894 
L 3597 1613 
L 953 1613 
Q 991 1019 1311 708 
Q 1631 397 2203 397 
Q 2534 397 2845 478 
Q 3156 559 3463 722 
L 3463 178 
Q 3153 47 2828 -22 
Q 2503 -91 2169 -91 
Q 1331 -91 842 396 
Q 353 884 353 1716 
Q 353 2575 817 3079 
Q 1281 3584 2069 3584 
Q 2775 3584 3186 3129 
Q 3597 2675 3597 1894 
z
M 3022 2063 
Q 3016 2534 2758 2815 
Q 2500 3097 2075 3097 
Q 1594 3097 1305 2825 
Q 1016 2553 972 2059 
L 3022 2063 
z
" transform="scale(0.015625)"/>
      </defs>
      <use xlink:href="#DejaVuSans-44"/>
      <use xlink:href="#DejaVuSans-61" x="77.001953"/>
      <use xlink:href="#DejaVuSans-74" x="138.28125"/>
      <use xlink:href="#DejaVuSans-65" x="177.490234"/>
     </g>
    </g>
   </g>
   <g id="matplotlib.axis_2">
    <g id="ytick_1">
     <g id="line2d_6">
      <path d="M 46.965625 327.015903 
L 604.965625 327.015903 
" clip-path="url(#pfa18d62242)" style="fill: none; stroke: #dcdcdc; stroke-width: 0.5; stroke-linecap: square"/>
     </g>
     <g id="line2d_7">
      <defs>
       <path id="m4ff765a2d0" d="M 0 0 
L -3.5 0 
" style="stroke: #000000; stroke-width: 0.8"/>
      </defs>
      <g>
       <use xlink:href="#m4ff765a2d0" x="46.965625" y="327.015903" style="stroke: #000000; stroke-width: 0.8"/>
      </g>
     </g>
     <g id="text_7">
      <!-- 20 -->
      <g transform="translate(27.240625 330.815122)scale(0.1 -0.1)">
       <use xlink:href="#DejaVuSans-32"/>
       <use xlink:href="#DejaVuSans-30" x="63.623047"/>
      </g>
     </g>
    </g>
    <g id="ytick_2">
     <g id="line2d_8">
      <path d="M 46.965625 284.645901 
L 604.965625 284.645901 
" clip-path="url(#pfa18d62242)" style="fill: none; stroke: #dcdcdc; stroke-width: 0.5; stroke-linecap: square"/>
     </g>
     <g id="line2d_9">
      <g>
       <use xlink:href="#m4ff765a2d0" x="46.965625" y="284.645901" style="stroke: #000000; stroke-width: 0.8"/>
      </g>
     </g>
     <g id="text_8">
      <!-- 40 -->
      <g transform="translate(27.240625 288.44512)scale(0.1 -0.1)">
       <defs>
        <path id="DejaVuSans-34" d="M 2419 4116 
L 825 1625 
L 2419 1625 
L 2419 4116 
z
M 2253 4666 
L 3047 4666 
L 3047 1625 
L 3713 1625 
L 3713 1100 
L 3047 1100 
L 3047 0 
L 2419 0 
L 2419 1100 
L 313 1100 
L 313 1709 
L 2253 4666 
z
" transform="scale(0.015625)"/>
       </defs>
       <use xlink:href="#DejaVuSans-34"/>
       <use xlink:href="#DejaVuSans-30" x="63.623047"/>
      </g>
     </g>
    </g>
    <g id="ytick_3">
     <g id="line2d_10">
      <path d="M 46.965625 242.275899 
L 604.965625 242.275899 
" clip-path="url(#pfa18d62242)" style="fill: none; stroke: #dcdcdc; stroke-width: 0.5; stroke-linecap: square"/>
     </g>
     <g id="line2d_11">
      <g>
       <use xlink:href="#m4ff765a2d0" x="46.965625" y="242.275899" style="stroke: #000000; stroke-width: 0.8"/>
      </g>
     </g>
     <g id="text_9">
      <!-- 60 -->
      <g transform="translate(27.240625 246.075118)scale(0.1 -0.1)">
       <defs>
        <path id="DejaVuSans-36" d="M 2113 2584 
Q 1688 2584 1439 2293 
Q 1191 2003 1191 1497 
Q 1191 994 1439 701 
Q 1688 409 2113 409 
Q 2538 409 2786 701 
Q 3034 994 3034 1497 
Q 3034 2003 2786 2293 
Q 2538 2584 2113 2584 
z
M 3366 4563 
L 3366 3988 
Q 3128 4100 2886 4159 
Q 2644 4219 2406 4219 
Q 1781 4219 1451 3797 
Q 1122 3375 1075 2522 
Q 1259 2794 1537 2939 
Q 1816 3084 2150 3084 
Q 2853 3084 3261 2657 
Q 3669 2231 3669 1497 
Q 3669 778 3244 343 
Q 2819 -91 2113 -91 
Q 1303 -91 875 529 
Q 447 1150 447 2328 
Q 447 3434 972 4092 
Q 1497 4750 2381 4750 
Q 2619 4750 2861 4703 
Q 3103 4656 3366 4563 
z
" transform="scale(0.015625)"/>
       </defs>
       <use xlink:href="#DejaVuSans-36"/>
       <use xlink:href="#DejaVuSans-30" x="63.623047"/>
      </g>
     </g>
    </g>
    <g id="ytick_4">
     <g id="line2d_12">
      <path d="M 46.965625 199.905897 
L 604.965625 199.905897 
" clip-path="url(#pfa18d62242)" style="fill: none; stroke: #dcdcdc; stroke-width: 0.5; stroke-linecap: square"/>
     </g>
     <g id="line2d_13">
      <g>
       <use xlink:href="#m4ff765a2d0" x="46.965625" y="199.905897" style="stroke: #000000; stroke-width: 0.8"/>
      </g>
     </g>
     <g id="text_10">
      <!-- 80 -->
      <g transform="translate(27.240625 203.705116)scale(0.1 -0.1)">
       <defs>
        <path id="DejaVuSans-38" d="M 2034 2216 
Q 1584 2216 1326 1975 
Q 1069 1734 1069 1313 
Q 1069 891 1326 650 
Q 1584 409 2034 409 
Q 2484 409 2743 651 
Q 3003 894 3003 1313 
Q 3003 1734 2745 1975 
Q 2488 2216 2034 2216 
z
M 1403 2484 
Q 997 2584 770 2862 
Q 544 3141 544 3541 
Q 544 4100 942 4425 
Q 1341 4750 2034 4750 
Q 2731 4750 3128 4425 
Q 3525 4100 3525 3541 
Q 3525 3141 3298 2862 
Q 3072 2584 2669 2484 
Q 3125 2378 3379 2068 
Q 3634 1759 3634 1313 
Q 3634 634 3220 271 
Q 2806 -91 2034 -91 
Q 1263 -91 848 271 
Q 434 634 434 1313 
Q 434 1759 690 2068 
Q 947 2378 1403 2484 
z
M 1172 3481 
Q 1172 3119 1398 2916 
Q 1625 2713 2034 2713 
Q 2441 2713 2670 2916 
Q 2900 3119 2900 3481 
Q 2900 3844 2670 4047 
Q 2441 4250 2034 4250 
Q 1625 4250 1398 4047 
Q 1172 3844 1172 3481 
z
" transform="scale(0.015625)"/>
       </defs>
       <use xlink:href="#DejaVuSans-38"/>
       <use xlink:href="#DejaVuSans-30" x="63.623047"/>
      </g>
     </g>
    </g>
    <g id="ytick_5">
     <g id="line2d_14">
      <path d="M 46.965625 157.535895 
L 604.965625 157.535895 
" clip-path="url(#pfa18d62242)" style="fill: none; stroke: #dcdcdc; stroke-width: 0.5; stroke-linecap: square"/>
     </g>
     <g id="line2d_15">
      <g>
       <use xlink:href="#m4ff765a2d0" x="46.965625" y="157.535895" style="stroke: #000000; stroke-width: 0.8"/>
      </g>
     </g>
     <g id="text_11">
      <!-- 100 -->
      <g transform="translate(20.878125 161.335114)scale(0.1 -0.1)">
       <use xlink:href="#DejaVuSans-31"/>
       <use xlink:href="#DejaVuSans-30" x="63.623047"/>
       <use xlink:href="#DejaVuSans-30" x="127.246094"/>
      </g>
     </g>
    </g>
    <g id="ytick_6">
     <g id="line2d_16">
      <path d="M 46.965625 115.165894 
L 604.965625 115.165894 
" clip-path="url(#pfa18d62242)" style="fill: none; stroke: #dcdcdc; stroke-width: 0.5; stroke-linecap: square"/>
     </g>
     <g id="line2d_17">
      <g>
       <use xlink:href="#m4ff765a2d0" x="46.965625" y="115.165894" style="stroke: #000000; stroke-width: 0.8"/>
      </g>
     </g>
     <g id="text_12">
      <!-- 120 -->
      <g transform="translate(20.878125 118.965112)scale(0.1 -0.1)">
       <use xlink:href="#DejaVuSans-31"/>
       <use xlink:href="#DejaVuSans-32" x="63.623047"/>
       <use xlink:href="#DejaVuSans-30" x="127.246094"/>
      </g>
     </g>
    </g>
    <g id="ytick_7">
     <g id="line2d_18">
      <path d="M 46.965625 72.795892 
L 604.965625 72.795892 
" clip-path="url(#pfa18d62242)" style="fill: none; stroke: #dcdcdc; stroke-width: 0.5; stroke-linecap: square"/>
     </g>
     <g id="line2d_19">
      <g>
       <use xlink:href="#m4ff765a2d0" x="46.965625" y="72.795892" style="stroke: #000000; stroke-width: 0.8"/>
      </g>
     </g>
     <g id="text_13">
      <!-- 140 -->
      <g transform="translate(20.878125 76.59511)scale(0.1 -0.1)">
       <use xlink:href="#DejaVuSans-31"/>
       <use xlink:href="#DejaVuSans-34" x="63.623047"/>
       <use xlink:href="#DejaVuSans-30" x="127.246094"/>
      </g>
     </g>
    </g>
    <g id="ytick_8">
     <g id="line2d_20">
      <path d="M 46.965625 30.42589 
L 604.965625 30.42589 
" clip-path="url(#pfa18d62242)" style="fill: none; stroke: #dcdcdc; stroke-width: 0.5; stroke-linecap: square"/>
     </g>
     <g id="line2d_21">
      <g>
       <use xlink:href="#m4ff765a2d0" x="46.965625" y="30.42589" style="stroke: #000000; stroke-width: 0.8"/>
      </g>
     </g>
     <g id="text_14">
      <!-- 160 -->
      <g transform="translate(20.878125 34.225108)scale(0.1 -0.1)">
       <use xlink:href="#DejaVuSans-31"/>
       <use xlink:href="#DejaVuSans-36" x="63.623047"/>
       <use xlink:href="#DejaVuSans-30" x="127.246094"/>
      </g>
     </g>
    </g>
    <g id="text_15">
     <!-- Price (USD) -->
     <g transform="translate(14.798437 217.01)rotate(-90)scale(0.1 -0.1)">
      <defs>
       <path id="DejaVuSans-50" d="M 1259 4147 
L 1259 2394 
L 2053 2394 
Q 2494 2394 2734 2622 
Q 2975 2850 2975 3272 
Q 2975 3691 2734 3919 
Q 2494 4147 2053 4147 
L 1259 4147 
z
M 628 4666 
L 2053 4666 
Q 2838 4666 3239 4311 
Q 3641 3956 3641 3272 
Q 3641 2581 3239 2228 
Q 2838 1875 2053 1875 
L 1259 1875 
L 1259 0 
L 628 0 
L 628 4666 
z
" transform="scale(0.015625)"/>
       <path id="DejaVuSans-72" d="M 2631 2963 
Q 2534 3019 2420 3045 
Q 2306 3072 2169 3072 
Q 1681 3072 1420 2755 
Q 1159 2438 1159 1844 
L 1159 0 
L 581 0 
L 581 3500 
L 1159 3500 
L 1159 2956 
Q 1341 3275 1631 3429 
Q 1922 3584 2338 3584 
Q 2397 3584 2469 3576 
Q 2541 3569 2628 3553 
L 2631 2963 
z
" transform="scale(0.015625)"/>
       <path id="DejaVuSans-69" d="M 603 3500 
L 1178 3500 
L 1178 0 
L 603 0 
L 603 3500 
z
M 603 4863 
L 1178 4863 
L 1178 4134 
L 603 4134 
L 603 4863 
z
" transform="scale(0.015625)"/>
       <path id="DejaVuSans-63" d="M 3122 3366 
L 3122 2828 
Q 2878 2963 2633 3030 
Q 2388 3097 2138 3097 
Q 1578 3097 1268 2742 
Q 959 2388 959 1747 
Q 959 1106 1268 751 
Q 1578 397 2138 397 
Q 2388 397 2633 464 
Q 2878 531 3122 666 
L 3122 134 
Q 2881 22 2623 -34 
Q 2366 -91 2075 -91 
Q 1284 -91 818 406 
Q 353 903 353 1747 
Q 353 2603 823 3093 
Q 1294 3584 2113 3584 
Q 2378 3584 2631 3529 
Q 2884 3475 3122 3366 
z
" transform="scale(0.015625)"/>
       <path id="DejaVuSans-20" transform="scale(0.015625)"/>
       <path id="DejaVuSans-28" d="M 1984 4856 
Q 1566 4138 1362 3434 
Q 1159 2731 1159 2009 
Q 1159 1288 1364 580 
Q 1569 -128 1984 -844 
L 1484 -844 
Q 1016 -109 783 600 
Q 550 1309 550 2009 
Q 550 2706 781 3412 
Q 1013 4119 1484 4856 
L 1984 4856 
z
" transform="scale(0.015625)"/>
       <path id="DejaVuSans-55" d="M 556 4666 
L 1191 4666 
L 1191 1831 
Q 1191 1081 1462 751 
Q 1734 422 2344 422 
Q 2950 422 3222 751 
Q 3494 1081 3494 1831 
L 3494 4666 
L 4128 4666 
L 4128 1753 
Q 4128 841 3676 375 
Q 3225 -91 2344 -91 
Q 1459 -91 1007 375 
Q 556 841 556 1753 
L 556 4666 
z
" transform="scale(0.015625)"/>
       <path id="DejaVuSans-53" d="M 3425 4513 
L 3425 3897 
Q 3066 4069 2747 4153 
Q 2428 4238 2131 4238 
Q 1616 4238 1336 4038 
Q 1056 3838 1056 3469 
Q 1056 3159 1242 3001 
Q 1428 2844 1947 2747 
L 2328 2669 
Q 3034 2534 3370 2195 
Q 3706 1856 3706 1288 
Q 3706 609 3251 259 
Q 2797 -91 1919 -91 
Q 1588 -91 1214 -16 
Q 841 59 441 206 
L 441 856 
Q 825 641 1194 531 
Q 1563 422 1919 422 
Q 2459 422 2753 634 
Q 3047 847 3047 1241 
Q 3047 1584 2836 1778 
Q 2625 1972 2144 2069 
L 1759 2144 
Q 1053 2284 737 2584 
Q 422 2884 422 3419 
Q 422 4038 858 4394 
Q 1294 4750 2059 4750 
Q 2388 4750 2728 4690 
Q 3069 4631 3425 4513 
z
" transform="scale(0.015625)"/>
       <path id="DejaVuSans-29" d="M 513 4856 
L 1013 4856 
Q 1481 4119 1714 3412 
Q 1947 2706 1947 2009 
Q 1947 1309 1714 600 
Q 1481 -109 1013 -844 
L 513 -844 
Q 928 -128 1133 580 
Q 1338 1288 1338 2009 
Q 1338 2731 1133 3434 
Q 928 4138 513 4856 
z
" transform="scale(0.015625)"/>
      </defs>
      <use xlink:href="#DejaVuSans-50"/>
      <use xlink:href="#DejaVuSans-72" x="58.552734"/>
      <use xlink:href="#DejaVuSans-69" x="99.666016"/>
      <use xlink:href="#DejaVuSans-63" x="127.449219"/>
      <use xlink:href="#DejaVuSans-65" x="182.429688"/>
      <use xlink:href="#DejaVuSans-20" x="243.953125"/>
      <use xlink:href="#DejaVuSans-28" x="275.740234"/>
      <use xlink:href="#DejaVuSans-55" x="314.753906"/>
      <use xlink:href="#DejaVuSans-53" x="387.947266"/>
      <use xlink:href="#DejaVuSans-44" x="451.423828"/>
      <use xlink:href="#DejaVuSans-29" x="528.425781"/>
     </g>
    </g>
   </g>
   <g id="line2d_22">
    <path d="M 76.301457 338.909798 
L 76.535115 339.72309 
L 76.768774 339.838125 
L 77.236091 338.657909 
L 77.46975 338.708329 
M 87.283409 338.9295 
L 87.517068 338.922721 
L 87.984385 339.592167 
L 88.218043 339.38413 
M 89.386336 337.982954 
L 89.619995 337.430661 
L 89.853653 337.553111 
L 90.087312 337.056958 
L 90.32097 337.115852 
L 90.554629 337.045518 
L 90.788287 336.837058 
L 91.255604 336.718845 
L 91.489263 337.233853 
M 91.95658 337.684882 
L 92.190239 336.056602 
L 92.423897 336.208711 
L 92.657556 336.020376 
L 93.124873 335.087389 
L 93.358531 335.14713 
L 93.825849 334.389766 
M 103.172191 333.314628 
L 103.405849 332.466592 
L 103.639508 332.345414 
L 103.873167 332.810848 
L 104.106825 332.839448 
L 104.340484 332.482481 
L 104.574142 332.9977 
L 105.041459 332.339482 
M 109.71463 330.610362 
L 109.948289 330.000022 
L 110.181948 330.114421 
L 110.649265 329.994302 
L 110.882923 329.42485 
M 111.35024 330.145987 
L 111.583899 330.076288 
L 111.817557 330.420545 
L 112.051216 329.956381 
M 122.332193 331.063721 
L 122.565851 331.498861 
L 122.79951 331.571949 
M 133.314145 329.147962 
L 133.547803 329.779698 
L 133.781462 329.782029 
L 134.01512 329.261513 
L 134.482438 330.07184 
L 134.716096 329.915282 
L 134.949755 330.196619 
L 135.183413 330.117175 
L 135.65073 329.197111 
L 135.884389 329.157071 
L 136.118047 329.682883 
L 136.351706 326.428019 
M 138.220974 324.412478 
L 138.454633 324.569671 
L 138.92195 325.083407 
L 139.155609 324.531962 
L 139.622926 324.453154 
L 139.856584 324.835331 
L 140.323901 323.642192 
L 140.55756 323.633082 
L 141.024877 323.439451 
M 144.529755 321.041733 
L 144.763414 320.554478 
M 145.698048 321.237694 
L 145.931707 321.280064 
L 146.165365 321.571358 
L 146.399024 321.528988 
M 152.240488 318.753753 
L 152.474146 318.473052 
L 152.941464 319.007973 
L 153.175122 319.092713 
L 153.408781 319.346933 
L 153.642439 319.20923 
L 153.876098 318.547199 
L 154.109756 318.557792 
M 164.157074 316.524031 
L 164.85805 318.4042 
L 165.325367 316.550513 
L 165.559026 315.115229 
L 165.792684 314.839824 
L 166.026343 313.865314 
L 166.260001 313.65876 
L 166.49366 313.717019 
L 166.727318 312.85373 
L 166.960977 312.535955 
L 167.194636 312.72662 
L 167.661953 311.444927 
L 167.895611 311.868627 
L 168.12927 311.730925 
L 168.362928 311.815665 
L 168.596587 311.651481 
M 179.34488 312.81136 
L 179.578539 313.250949 
L 179.812198 311.805072 
L 180.045856 311.365484 
L 180.279515 309.856052 
L 180.513173 309.54887 
L 180.746832 309.485315 
L 180.98049 311.58263 
L 181.447807 306.41349 
L 181.681466 307.335037 
L 181.915125 306.556488 
L 182.148783 306.545896 
L 182.382442 306.063937 
L 182.6161 305.86268 
L 182.849759 306.397601 
L 183.083417 305.979197 
M 223.272689 311.015931 
L 223.506348 310.14205 
L 223.740006 310.576342 
M 242.432691 319.76004 
L 242.666349 319.606449 
M 244.068301 319.235712 
L 244.301959 318.48894 
L 244.535618 318.139388 
L 244.769276 318.059944 
L 245.002935 318.176462 
L 245.236594 316.142701 
L 245.470252 316.026184 
L 245.703911 315.628965 
M 246.404886 315.877889 
L 246.872203 315.803741 
L 247.105862 315.22645 
L 247.339521 315.088748 
L 247.806838 313.261541 
M 255.984887 320.003668 
L 256.218546 320.279073 
L 256.452204 320.241999 
L 256.685863 319.908335 
M 257.15318 321.53958 
L 257.386839 321.444248 
L 257.620497 319.664708 
L 257.854156 319.871262 
L 258.087814 319.304563 
L 258.321473 319.495228 
M 264.162937 319.918928 
L 264.396595 320.639218 
L 264.863912 319.389303 
L 265.097571 318.753753 
M 266.032205 318.57368 
L 266.265864 318.181758 
L 266.733181 317.789835 
L 266.966839 318.081129 
L 267.200498 317.064249 
L 267.434156 317.069545 
L 267.667815 316.513439 
L 268.135132 316.444588 
L 268.602449 317.1331 
L 269.069766 318.187054 
L 269.303425 314.861009 
L 269.537083 314.12483 
L 269.770742 314.193681 
M 270.238059 314.050683 
L 270.471718 313.356874 
M 276.313182 313.499873 
L 276.54684 314.765676 
L 276.780499 313.542243 
M 278.883426 309.691869 
L 279.350743 309.490611 
M 279.81806 309.97257 
L 280.051719 309.511796 
L 280.285377 309.792497 
L 280.519036 309.538277 
L 280.752694 309.511796 
M 289.631719 310.3539 
L 290.099036 311.397261 
L 290.332695 311.180115 
L 290.566354 311.598519 
L 291.033671 310.581639 
L 291.267329 310.004347 
M 294.304891 307.546887 
L 294.538549 307.562776 
L 294.772208 308.044735 
L 295.005866 307.869959 
L 295.239525 307.93881 
L 295.473183 307.626331 
L 295.9405 306.365823 
L 296.174159 306.302268 
L 296.407818 305.963308 
L 296.875135 306.339342 
L 297.108793 305.830902 
L 298.277086 305.846791 
L 298.510745 304.835207 
L 298.978062 304.798133 
L 299.445379 305.115908 
L 299.679037 301.196683 
L 299.912696 301.313201 
L 300.146354 301.021907 
L 300.613672 299.724326 
L 301.080989 299.252959 
L 301.314647 299.411847 
L 302.015623 297.616418 
M 303.183916 297.076201 
L 303.417574 297.007349 
M 305.520501 295.937507 
L 305.75416 295.693879 
M 310.894648 294.375113 
L 311.128307 294.285077 
L 311.361965 294.682295 
L 311.595624 294.269188 
L 312.062941 294.878257 
L 312.296599 293.946117 
L 312.530258 294.036153 
L 312.997575 292.8392 
L 313.231234 293.289382 
M 323.745869 293.289382 
L 323.979527 293.109309 
L 324.213186 293.384714 
L 324.446844 293.072235 
L 324.680503 293.792525 
L 324.914161 293.024569 
M 337.765382 289.650858 
L 337.999041 288.279129 
L 338.232699 287.701838 
L 338.466358 288.204981 
M 340.335626 286.817364 
L 340.569285 286.473108 
L 340.802943 286.764401 
L 341.036602 286.240073 
L 341.27026 284.709456 
L 341.503919 284.396977 
L 341.737578 284.773011 
L 341.971236 286.774994 
L 342.204895 286.631995 
L 342.438553 286.674365 
L 342.672212 286.181814 
L 342.90587 286.547255 
M 352.71953 279.047765 
L 352.953188 279.031876 
L 353.186847 278.777656 
L 353.420505 279.757462 
M 359.028311 286.504885 
L 359.261969 283.041137 
L 359.729286 287.214583 
L 359.962945 286.547255 
L 360.196604 283.210617 
L 360.430262 282.347329 
M 371.178556 281.616446 
L 371.412214 281.870666 
L 371.645873 283.088804 
L 372.11319 282.410884 
L 372.346849 283.417171 
L 372.814166 279.826314 
L 373.047824 275.870015 
L 373.281483 275.700535 
M 375.150751 270.642616 
L 375.38441 269.721068 
L 375.618068 270.351322 
M 383.095142 271.977271 
L 383.328801 271.193426 
M 384.497094 268.211637 
L 384.730752 268.052749 
L 384.964411 268.275192 
L 385.198069 267.989194 
L 385.431728 268.545301 
L 385.665386 267.761455 
L 385.899045 267.99449 
L 386.132703 267.904454 
L 386.600021 266.204358 
L 386.833679 266.527429 
L 387.067338 268.238118 
L 387.300996 268.804817 
L 387.534655 268.603559 
L 387.768313 262.666463 
M 388.702948 259.695266 
L 388.936606 259.621119 
L 389.170265 258.75783 
L 389.403923 259.472824 
L 389.87124 258.297056 
L 390.104899 258.03754 
M 413.938072 288.72931 
L 414.17173 289.942151 
L 414.639047 287.325804 
L 414.872706 286.838549 
M 415.340023 288.194389 
L 415.573682 287.866021 
L 415.80734 288.512164 
L 416.040999 285.832261 
L 416.508316 287.463506 
M 420.013194 278.274512 
L 420.246853 278.788248 
L 420.71417 277.109337 
L 420.947828 277.056375 
L 421.181487 276.770377 
L 421.415146 277.681332 
L 421.648804 276.717415 
L 421.882463 276.251345 
M 422.583438 278.025588 
L 422.817097 277.808442 
M 425.387341 269.424478 
L 425.621 270.457247 
L 425.854658 269.567477 
L 426.088317 269.435071 
L 426.555634 268.100415 
L 426.789292 266.628058 
L 427.022951 265.923657 
L 427.256609 265.743584 
M 435.201 274.233473 
L 435.901976 275.441018 
L 436.135635 274.953763 
L 436.602952 277.601888 
L 436.83661 274.244066 
L 437.303927 271.288758 
L 437.537586 268.677707 
M 450.622465 261.25766 
L 450.856124 260.532074 
M 454.828319 253.54632 
L 455.061978 254.09713 
M 456.230271 250.437421 
L 456.463929 253.41921 
L 456.697588 252.434107 
L 456.931246 249.155728 
L 457.164905 249.129247 
L 457.398563 250.53805 
L 457.86588 247.524483 
L 458.099539 244.283178 
L 458.566856 244.754544 
L 458.800515 245.257688 
L 459.267832 244.177253 
L 459.50149 242.005791 
L 459.735149 242.297084 
L 459.968807 240.591692 
L 460.202466 240.379842 
L 460.669783 237.482793 
L 460.903442 240.533433 
L 461.1371 240.549322 
L 461.370759 237.636384 
M 466.277588 229.480159 
L 466.511247 231.974693 
L 466.744906 230.761851 
L 467.212223 226.011115 
L 467.445881 228.018394 
L 468.146857 225.613896 
L 468.614174 221.165046 
L 468.847833 220.873752 
L 469.081491 221.228601 
L 469.31515 221.080306 
L 469.548808 221.387488 
L 469.782467 218.972398 
L 470.016125 218.829399 
L 470.249784 215.842314 
L 470.483443 215.900573 
L 470.95076 213.861517 
L 471.184418 210.313029 
L 471.418077 211.859534 
M 488.475151 222.716847 
L 488.70881 227.250437 
L 488.942469 223.156436 
L 489.176127 223.723135 
L 489.409786 219.517912 
M 489.877103 221.842966 
L 490.34442 213.782073 
L 490.578078 216.287199 
L 490.811737 214.121033 
M 492.914664 206.414989 
L 493.148323 202.575208 
L 493.381981 203.539125 
L 493.61564 200.313709 
M 494.550274 200.906889 
L 494.783932 200.832741 
L 495.017591 200.996925 
M 495.484908 198.13695 
L 495.718567 197.194217 
L 495.952225 198.677167 
M 498.055152 183.175043 
L 498.288811 183.100895 
L 498.522469 184.165442 
M 499.690762 182.094608 
L 499.924421 177.778164 
L 500.158079 176.178696 
L 500.391738 176.544138 
M 502.728323 164.90298 
L 502.961982 165.316087 
M 503.896616 172.693764 
L 504.130275 173.181019 
L 504.363933 168.530911 
L 504.597592 171.830475 
L 505.064909 165.607381 
L 505.298568 144.274085 
L 505.532226 138.601801 
L 505.999543 136.218488 
L 506.233202 128.083448 
L 506.46686 133.994063 
L 506.700519 130.572685 
L 506.934177 137.674957 
L 507.401495 125.737209 
M 523.991252 128.194669 
L 524.458569 123.576339 
L 524.692228 122.389979 
M 525.860521 110.399268 
L 526.094179 107.221518 
M 542.21662 114.043088 
L 542.450278 115.187079 
M 542.917595 109.784903 
L 543.151254 114.975229 
L 543.852229 112.221178 
L 544.085888 115.377744 
L 544.319547 110.611118 
M 554.133206 106.098713 
L 554.366864 104.446283 
L 554.600523 107.666403 
L 554.834182 102.687928 
L 555.06784 102.666743 
L 555.301499 100.887203 
L 555.535157 100.060988 
L 555.768816 102.221858 
L 556.002474 99.594918 
L 556.236133 92.964013 
L 556.469791 94.743553 
L 556.70345 93.663118 
L 556.937109 90.188777 
L 557.170767 93.006383 
L 557.638084 85.549262 
L 558.33906 87.392357 
M 574.4615 74.617802 
L 574.695159 70.444357 
L 575.162476 65.826026 
L 575.396135 66.652241 
M 575.863452 69.596956 
L 576.09711 70.868057 
L 576.330769 64.830331 
M 578.901013 52.034591 
L 579.134672 53.814131 
L 579.601989 48.454326 
L 579.601989 48.454326 
" clip-path="url(#pfa18d62242)" style="fill: none; stroke: #00ff7f; stroke-linecap: square"/>
   </g>
   <g id="line2d_23">
    <path d="M 72.329261 334.437433 
L 72.56292 334.31117 
L 72.796578 334.496115 
L 73.263896 335.893902 
L 73.497554 336.934297 
M 83.311214 335.218947 
L 83.544872 335.358557 
L 83.778531 335.284197 
L 84.012189 335.390758 
L 84.479506 336.211677 
L 84.713165 335.958092 
L 85.180482 336.276714 
M 131.444876 328.151631 
L 131.678535 328.545672 
M 171.166831 306.559031 
L 171.40049 307.102002 
L 171.634148 306.360527 
M 200.374151 299.451675 
L 200.607809 299.591919 
M 208.318542 302.21886 
L 209.019517 299.438328 
L 209.253176 300.137433 
L 209.486834 303.06626 
M 230.516104 306.990781 
L 230.749763 306.731265 
L 231.21708 307.801107 
M 231.684397 306.344638 
L 231.918056 306.741857 
L 232.151714 306.768338 
L 232.385373 308.15066 
L 232.619031 307.859366 
L 232.85269 309.442945 
L 233.086349 309.813682 
L 233.320007 310.867636 
L 233.553666 310.417455 
L 233.787324 311.66737 
M 235.422934 311.79448 
L 235.656593 312.546548 
M 251.078057 310.618712 
L 251.311716 311.900405 
L 251.545375 311.83685 
L 251.779033 311.646185 
L 252.24635 310.046717 
L 252.480009 310.01494 
L 252.947326 312.461808 
L 253.180984 312.763694 
L 253.414643 312.647176 
L 253.648302 313.261541 
L 253.88196 313.415133 
L 254.349277 314.119534 
M 259.723424 316.238034 
L 259.957083 316.49755 
M 260.891717 317.148989 
L 261.125375 316.937139 
M 281.920987 307.239705 
L 282.154646 307.43037 
L 282.388304 307.086114 
L 282.855621 307.170854 
L 283.08928 307.356222 
L 283.322938 307.388 
L 283.556597 307.631627 
L 284.023914 306.757746 
L 284.257573 308.166549 
M 317.904405 288.173204 
L 318.138063 287.892503 
L 318.371722 288.030205 
M 333.793187 282.871657 
L 334.026845 282.527401 
L 334.260504 282.50092 
L 334.494162 283.544281 
M 355.523432 275.59461 
L 355.757091 276.071272 
L 355.99075 274.530063 
L 356.224408 274.445323 
L 356.458067 274.869023 
L 356.691725 275.642276 
M 378.188312 267.787937 
L 378.421971 267.004092 
L 378.65563 266.649243 
L 378.889288 266.924648 
M 402.722461 253.472172 
L 402.95612 251.692632 
L 403.189778 259.499305 
L 403.423437 262.618796 
L 403.657095 261.464214 
L 403.890754 258.191131 
L 404.124412 258.964384 
L 404.358071 261.093476 
M 407.161974 273.555553 
L 407.629291 274.805468 
L 407.862949 271.500608 
M 431.462463 257.889245 
L 431.696122 258.614831 
L 431.929781 257.237806 
L 432.163439 258.96968 
L 432.397098 261.946173 
L 432.630756 261.924988 
L 432.864415 263.07957 
L 433.098073 264.954443 
M 476.792224 197.146551 
L 477.025882 199.890009 
M 510.439056 85.125562 
L 510.672714 91.014992 
M 516.981495 105.844493 
L 517.215154 112.835543 
M 533.804911 66.101431 
L 534.03857 68.431781 
M 534.739546 85.210302 
L 534.973204 83.409577 
L 535.206863 85.634002 
L 535.440521 78.325177 
L 535.67418 79.659832 
M 536.141497 81.248707 
L 536.375156 82.562177 
L 536.608814 83.112987 
L 536.842473 82.604547 
L 537.076131 87.222877 
M 547.824425 89.871002 
L 548.058083 84.828972 
M 570.021988 37.438125 
L 570.489305 42.988595 
L 570.489305 42.988595 
" clip-path="url(#pfa18d62242)" style="fill: none; stroke: #ff4500; stroke-linecap: square"/>
   </g>
   <g id="line2d_24">
    <path d="M 73.731213 336.867564 
L 73.964871 336.701262 
L 74.432188 337.366259 
L 74.665847 337.13852 
L 74.899505 337.080262 
L 75.133164 336.421196 
L 75.366823 336.524155 
L 75.600481 336.866929 
L 75.83414 337.619844 
L 76.067798 337.13619 
M 77.703408 338.487581 
L 78.170725 336.842778 
L 78.404384 335.884792 
L 78.638042 336.148969 
L 79.339018 334.528316 
L 79.572677 334.683602 
L 79.806335 334.291468 
L 80.273652 335.11387 
L 80.507311 334.979981 
L 80.974628 336.938746 
L 81.208287 336.505512 
L 81.441945 336.605082 
L 81.675604 335.873564 
L 81.909262 336.121005 
L 82.610238 335.705567 
L 82.843896 335.986268 
L 83.077555 335.720608 
M 85.414141 336.686009 
L 85.647799 336.400435 
L 85.881458 336.848074 
L 86.115116 336.700415 
L 86.348775 336.717786 
L 86.816092 337.847582 
L 87.04975 338.100108 
M 88.451702 338.424026 
L 88.68536 337.722591 
L 88.919019 337.547815 
L 89.152677 337.803518 
M 94.526824 334.205245 
L 94.760483 334.505648 
M 95.2278 334.025173 
L 95.461459 332.344778 
L 95.695117 331.668977 
L 95.928776 331.713677 
L 96.396093 330.969872 
L 96.629751 331.474498 
L 97.097068 331.3315 
L 97.330727 331.478312 
M 97.798044 332.418926 
L 98.265361 332.18356 
L 98.49902 332.522732 
L 98.732678 332.419561 
L 98.966337 331.654571 
L 99.199995 331.913452 
L 99.433654 331.690162 
L 99.667313 331.08872 
L 99.900971 331.961118 
L 100.13463 333.998691 
L 100.368288 333.62181 
L 100.601947 334.211177 
L 100.835605 335.329533 
L 101.069264 334.936128 
L 101.536581 333.651257 
L 101.77024 334.021359 
L 102.003898 332.26364 
L 102.237557 332.380157 
L 102.471215 332.953 
L 102.704874 332.598151 
L 102.938532 332.860633 
M 105.275118 332.099456 
L 106.443411 330.882801 
L 106.677069 329.939221 
L 106.910728 330.052349 
L 107.378045 329.141182 
L 107.611703 329.591576 
L 107.845362 329.294986 
L 108.079021 330.293647 
L 108.312679 329.671867 
L 108.779996 330.040062 
L 109.013655 329.531622 
L 109.247313 329.630132 
L 109.480972 329.972694 
M 112.284875 330.057434 
L 112.518533 329.759361 
L 113.219509 327.313129 
L 113.453167 327.679417 
L 113.686826 326.537546 
L 113.920485 326.637539 
L 114.154143 326.418062 
L 114.387802 327.01442 
L 114.62146 326.529284 
L 114.855119 326.596016 
L 115.088777 326.912944 
L 115.322436 326.975016 
L 115.556094 327.437273 
L 115.789753 327.205085 
L 116.25707 327.714161 
L 116.490729 328.191671 
L 116.724387 327.846567 
L 116.958046 326.252396 
L 117.425363 326.720796 
L 117.89268 327.430494 
L 118.126339 326.93879 
L 118.359997 327.535571 
L 118.593656 328.455 
L 118.827314 328.23171 
L 119.060973 328.526182 
L 119.294631 328.267301 
L 119.761948 329.063222 
L 119.995607 328.852219 
L 120.229266 328.045706 
M 120.696583 327.450831 
L 120.930241 328.478304 
L 121.1639 327.842754 
L 121.397558 327.658232 
L 121.631217 327.304867 
L 121.864875 328.069857 
L 122.098534 327.73471 
M 123.033168 331.510089 
L 123.266827 331.439755 
L 123.734144 330.602948 
L 123.967802 330.609091 
L 124.668778 328.834847 
L 124.902437 328.837813 
L 125.136095 328.194001 
L 125.369754 328.227262 
L 125.603412 328.075789 
L 126.070729 329.198594 
L 126.304388 329.645174 
L 126.538047 329.471033 
L 127.005364 330.242803 
L 127.239022 329.461923 
L 127.472681 329.570179 
L 127.706339 329.455144 
L 127.939998 329.191815 
L 128.173656 329.107075 
L 128.640974 329.252404 
L 128.874632 329.216177 
L 129.108291 328.82489 
L 129.341949 328.785486 
L 129.809266 329.687544 
L 130.042925 329.532258 
L 130.276584 329.179739 
L 130.510242 329.190332 
L 130.743901 329.383963 
L 131.211218 328.590372 
M 131.912193 328.721296 
L 132.379511 328.775741 
L 132.613169 328.404156 
L 132.846828 328.336152 
L 133.080486 328.620667 
M 136.585365 326.112575 
L 136.819023 324.436629 
L 137.28634 324.739151 
L 137.753657 324.550816 
L 137.987316 323.916749 
M 141.258536 322.920419 
L 141.492194 322.050351 
L 141.725853 322.1728 
L 141.959511 321.312477 
L 142.19317 321.49255 
L 142.426828 321.821765 
L 142.894146 320.598331 
L 143.127804 320.406818 
L 143.361463 320.541555 
L 143.595121 319.76004 
L 143.82878 319.468747 
L 144.062438 319.6753 
L 144.296097 320.506812 
M 144.997073 320.618033 
L 145.230731 320.56507 
L 145.46439 320.73455 
M 146.632682 321.24299 
L 147.1 320.167852 
L 147.333658 319.855373 
L 147.567317 319.876558 
L 147.800975 319.585264 
L 148.034634 318.558851 
L 148.268292 318.886159 
L 148.501951 318.864974 
L 148.73561 319.053097 
L 148.969268 318.95501 
L 149.202927 318.303572 
L 149.436585 318.902048 
L 149.670244 319.188045 
L 149.903902 320.083112 
L 150.137561 319.373414 
L 150.371219 319.633566 
L 150.604878 319.219823 
L 150.838537 317.911649 
L 151.072195 317.996389 
L 151.305854 317.656793 
L 151.539512 316.942435 
L 151.773171 317.281395 
L 152.006829 317.403209 
M 154.343415 317.885168 
L 154.810732 317.493245 
L 155.278049 316.142701 
L 155.745366 316.11622 
L 155.979025 315.724298 
L 156.212683 315.60778 
L 156.446342 315.952672 
L 156.68 315.295301 
L 157.147318 315.09934 
L 157.380976 314.67564 
L 157.614635 316.984805 
L 157.848293 317.419098 
L 158.081952 316.968916 
L 158.549269 317.487949 
L 158.782927 315.893778 
L 159.250245 315.544225 
L 159.483903 315.560114 
L 159.717562 315.967925 
L 159.95122 315.586595 
L 160.184879 315.475374 
L 160.418537 315.914963 
L 160.652196 315.862 
L 160.885854 315.025193 
L 161.119513 315.496559 
L 161.353172 317.551504 
L 161.58683 316.026184 
L 161.820489 316.365144 
L 162.054147 316.026184 
L 162.287806 316.857695 
L 162.521464 316.476365 
L 162.755123 316.62466 
L 162.988781 316.62466 
L 163.22244 317.085434 
L 163.456099 315.999703 
L 163.689757 315.883185 
L 163.923416 316.036776 
M 168.830245 311.746814 
L 169.063904 311.28604 
L 169.76488 308.91332 
L 169.998538 309.013949 
L 170.232197 308.230104 
L 170.465855 308.653804 
L 170.699514 307.785219 
L 170.933172 307.700479 
M 171.867807 306.397601 
L 172.101465 308.441954 
L 172.335124 308.674989 
L 172.568782 307.986476 
L 173.036099 308.479027 
L 173.269758 309.856052 
L 173.503417 308.945097 
L 173.737075 310.094384 
L 173.970734 310.26916 
L 174.671709 312.850976 
L 175.139026 309.723646 
L 175.372685 310.18442 
L 175.606344 309.570055 
L 176.073661 310.062606 
L 176.307319 309.013949 
L 176.540978 309.056319 
L 176.774636 309.792497 
L 177.008295 310.925895 
L 177.241953 311.482001 
L 177.475612 313.113246 
L 177.709271 313.10795 
L 177.942929 312.318809 
L 178.176588 310.126161 
L 178.410246 310.062606 
L 178.643905 311.524371 
L 178.877563 311.010635 
L 179.111222 311.233077 
M 183.317076 304.76106 
L 183.784393 302.409525 
L 184.25171 301.683938 
L 184.485369 301.215114 
L 184.719027 301.355571 
L 184.952686 300.802007 
M 185.420003 299.385366 
L 185.653662 301.175498 
L 185.88732 300.314964 
L 186.120979 301.350274 
L 186.588296 300.873612 
L 186.821954 301.307904 
L 187.055613 302.436006 
L 187.289271 302.335377 
L 187.52293 302.04938 
L 187.990247 304.644542 
L 188.223906 303.474071 
L 188.457564 303.929548 
L 188.691223 303.209258 
L 189.15854 301.344978 
L 189.392198 301.861257 
L 189.625857 302.706115 
L 189.859516 302.012306 
L 190.093174 302.287711 
L 190.326833 304.04077 
L 190.560491 303.585292 
L 190.79415 304.109621 
L 191.027808 302.457191 
L 191.261467 303.484663 
L 191.495125 303.579996 
L 191.728784 303.013297 
L 191.962443 301.938158 
M 192.42976 302.865002 
L 192.897077 302.070565 
L 193.130735 302.202971 
L 193.364394 302.494265 
L 193.598052 302.240045 
L 193.831711 302.563116 
L 194.06537 303.315183 
L 194.299028 301.805752 
L 194.532687 302.171193 
L 195.000004 300.709428 
L 195.233662 300.386357 
L 195.467321 299.131146 
L 195.934638 301.254942 
L 196.168297 303.103333 
L 196.401955 301.090758 
L 196.635614 301.223164 
L 196.869272 302.759077 
M 197.336589 303.045075 
L 197.570248 301.79516 
L 197.803906 302.483672 
L 198.037565 302.724757 
L 198.271224 302.647856 
L 198.504882 301.090758 
L 198.738541 301.186091 
L 198.972199 300.434023 
L 199.439516 300.502874 
L 199.906833 299.189404 
L 200.140492 300.735909 
M 201.308785 300.555837 
L 201.542443 300.471097 
L 202.477078 301.901085 
L 202.710736 301.127832 
L 202.944395 301.281423 
L 203.178053 302.033491 
L 203.411712 302.165897 
L 203.64537 301.805752 
L 203.879029 301.96464 
M 204.346346 302.335377 
L 204.580005 301.800456 
L 204.813663 302.107638 
L 205.047322 301.535643 
L 205.514639 302.255933 
L 205.748297 303.431701 
L 206.215615 302.335377 
L 206.449273 302.420117 
L 206.91659 302.817336 
L 207.383907 305.793828 
L 207.851224 302.833225 
L 208.084883 302.859706 
M 209.720493 303.098037 
L 209.954151 303.44759 
L 210.18781 304.363841 
L 210.421469 304.04077 
L 210.888786 304.575691 
L 211.122444 305.14239 
M 211.589761 308.669692 
L 211.82342 308.267177 
L 212.057078 308.410176 
L 212.290737 308.203622 
L 212.524396 305.979197 
L 212.758054 309.278761 
L 212.991713 308.351917 
L 213.225371 308.399584 
L 213.692688 307.335037 
L 213.926347 307.68459 
L 214.160005 308.473731 
L 214.393664 309.723646 
L 214.627323 313.372763 
L 214.860981 314.770973 
L 215.09464 314.442605 
L 215.561957 309.580647 
L 215.795615 309.384686 
L 216.029274 309.665387 
L 216.262932 312.334697 
L 216.496591 309.88783 
L 216.963908 311.513779 
L 217.197567 309.903719 
L 217.431225 311.047709 
L 217.898542 308.897431 
L 218.365859 307.801107 
L 218.599518 307.732256 
L 218.833177 309.051022 
L 219.066835 309.299946 
L 219.300494 308.367806 
L 219.534152 309.326427 
L 220.001469 308.479027 
L 220.235128 308.632619 
L 220.468787 309.834867 
L 220.702445 311.625 
L 220.936104 310.968265 
L 221.169762 311.349595 
L 221.403421 310.925895 
M 221.870738 310.433344 
L 222.104396 310.714045 
L 222.338055 311.391965 
L 222.571714 310.004347 
L 222.805372 310.279752 
L 223.039031 310.179124 
M 223.973665 310.210901 
L 224.207323 309.130466 
L 224.440982 309.135762 
L 224.674641 308.214215 
L 224.908299 306.318157 
L 225.141958 308.330732 
L 225.375616 308.717359 
L 225.609275 306.217528 
L 225.842933 305.550201 
L 226.076592 306.095715 
L 226.543909 304.469766 
L 226.777568 304.771652 
L 227.011226 305.343647 
L 227.244885 305.2695 
L 227.478543 305.529016 
L 227.712202 307.541591 
L 228.179519 308.097697 
L 228.413177 309.88783 
L 228.646836 308.916074 
L 228.880495 309.172836 
L 229.114153 307.266186 
L 229.347812 306.477045 
L 229.58147 306.20164 
L 229.815129 307.022559 
M 234.020983 313.229764 
L 234.254641 312.541251 
M 235.890251 313.637575 
L 236.12391 313.589909 
L 236.824885 318.303572 
L 237.058544 318.033463 
L 237.525861 316.444588 
L 237.75952 317.805724 
L 237.993178 316.677623 
L 238.226837 317.943427 
L 238.460495 318.19235 
L 238.694154 318.123499 
L 238.927813 318.383015 
L 239.161471 315.671335 
L 239.39513 316.719993 
L 239.628788 316.428699 
L 239.862447 319.908335 
L 240.096105 319.553487 
L 240.329764 317.832205 
L 240.563422 318.314164 
L 240.797081 319.346933 
L 241.03074 318.356534 
L 241.264398 318.224128 
L 241.498057 319.59056 
L 241.731715 319.066232 
L 241.965374 319.076824 
L 242.199032 319.458154 
M 242.900008 318.202943 
L 243.133667 317.419098 
L 243.367325 318.4042 
L 243.600984 318.520718 
L 243.834642 318.075833 
M 245.937569 314.829231 
L 246.171228 315.433004 
M 248.040496 313.351578 
L 248.507813 313.293319 
L 248.741472 312.864323 
L 248.97513 313.176801 
M 249.442448 313.674649 
L 249.909765 311.360187 
L 250.143423 311.662074 
L 250.61074 310.533972 
L 250.844399 311.227781 
M 254.582936 317.577985 
L 254.816594 319.161564 
L 255.050253 319.738855 
L 255.283912 319.791818 
L 255.51757 318.976195 
L 255.751229 319.500524 
M 258.555131 318.95501 
L 259.022448 317.535615 
L 259.256107 316.62466 
L 259.489766 316.206256 
M 260.190741 317.239025 
L 260.4244 317.630948 
L 260.658058 317.525023 
M 261.359034 316.984805 
L 261.592693 316.608771 
L 261.826351 317.043064 
L 262.06001 317.832205 
L 262.293668 317.76865 
L 262.527327 317.93813 
L 262.760985 317.720984 
L 262.994644 318.896752 
L 263.228302 319.018565 
L 263.461961 318.589569 
L 263.69562 318.780234 
L 263.929278 318.48894 
M 265.331229 318.600162 
L 265.564888 319.076824 
L 265.798547 318.790827 
M 270.705376 313.314504 
L 271.172693 311.990441 
L 271.406352 311.757406 
L 271.64001 312.186402 
L 271.873669 312.223476 
L 272.107328 312.09107 
L 272.340986 311.402557 
L 273.041962 311.614407 
M 273.509279 311.916294 
L 273.742938 311.736221 
L 274.210255 312.414141 
L 274.443913 312.747805 
L 274.677572 312.81136 
L 274.91123 313.245653 
L 275.144889 313.19269 
L 275.378547 312.859026 
L 275.612206 312.329401 
L 275.845865 312.34529 
L 276.079523 311.995737 
M 277.014157 312.212884 
L 277.481474 308.177141 
L 277.715133 308.521397 
L 277.948792 309.231095 
L 278.416109 309.246984 
L 278.649767 308.680285 
M 280.986353 309.066911 
L 281.220011 308.976875 
L 281.45367 307.922921 
L 281.687328 307.790515 
M 284.491231 308.754432 
L 284.72489 309.156947 
L 284.958548 309.25228 
L 285.192207 310.338011 
L 285.425865 310.285049 
L 285.893182 311.741517 
L 286.126841 310.910006 
L 286.3605 310.56575 
L 286.594158 310.661082 
L 286.827817 312.297624 
L 287.061475 311.958664 
L 287.295134 313.399244 
L 287.528792 312.657769 
L 287.762451 311.132449 
L 288.229768 311.095375 
L 288.463427 310.210901 
L 288.697085 310.173827 
L 288.930744 310.475714 
L 289.164402 310.179124 
L 289.398061 310.295641 
M 291.500988 309.035134 
L 291.734646 309.37939 
L 291.968305 308.378399 
L 292.201964 308.378399 
L 292.435622 308.044735 
L 292.669281 307.965291 
L 293.136598 307.446259 
L 293.370256 307.388 
L 293.603915 307.795811 
M 302.249281 297.7037 
L 302.48294 297.505197 
L 302.716599 296.986164 
L 302.950257 296.769018 
M 304.11855 295.349623 
L 304.352208 295.789212 
L 304.585867 295.354919 
L 304.819526 295.587954 
L 305.053184 295.492622 
L 305.286843 295.768027 
M 305.987818 295.662102 
L 306.221477 295.773323 
L 306.455135 294.994774 
L 306.688794 294.87296 
L 306.922453 295.243698 
L 307.156111 294.465149 
L 307.38977 295.323142 
L 307.623428 294.486334 
L 308.090745 294.899442 
L 308.324404 294.772332 
L 308.558063 293.225827 
M 309.02538 293.156975 
L 309.259038 293.299974 
L 309.492697 293.278789 
L 309.726355 292.71209 
L 310.193672 293.299974 
L 310.66099 293.55949 
M 313.464892 293.231123 
L 313.698551 293.30527 
L 313.932209 291.753469 
L 314.165868 291.260918 
L 314.633185 291.77995 
L 314.866844 290.492962 
L 315.100502 288.34798 
L 315.334161 287.828948 
L 315.567819 288.215574 
L 315.801478 287.850133 
L 316.035136 286.711439 
L 316.502453 287.045103 
M 316.969771 288.596904 
L 317.203429 288.321499 
M 318.60538 287.998428 
L 318.839039 288.480386 
L 319.072698 288.257944 
L 319.306356 287.055695 
L 319.540015 287.860725 
L 319.773673 287.58532 
M 320.24099 287.299323 
L 320.708307 292.367834 
L 320.941966 291.748173 
L 321.642942 294.036153 
L 321.8766 291.880579 
L 322.110259 292.58498 
L 322.343917 292.129503 
L 322.577576 292.256613 
L 322.811234 291.912357 
L 323.044893 292.155984 
M 325.14782 292.558499 
L 325.615137 292.198354 
M 326.082454 290.450592 
L 326.549771 289.899781 
L 326.78343 289.401934 
M 327.250747 289.799153 
L 327.484406 288.835235 
L 327.951723 288.109649 
L 328.185381 289.645561 
L 328.652698 290.614775 
L 328.886357 289.91567 
L 329.120016 286.160629 
L 329.353674 286.99214 
L 329.587333 286.557848 
L 330.05465 284.603531 
L 330.288308 284.084499 
M 330.755625 285.980556 
L 331.222943 283.798501 
L 331.456601 284.142757 
L 331.69026 285.779299 
L 332.157577 286.123555 
L 332.391235 284.762419 
L 332.624894 284.656494 
L 332.858552 285.032528 
L 333.092211 284.720049 
L 333.559528 283.104692 
M 334.727821 283.634317 
L 334.961479 283.978574 
L 335.195138 285.371488 
L 335.428797 283.851464 
L 335.662455 284.190424 
L 336.129772 285.556856 
L 336.363431 284.709456 
L 336.597089 285.350303 
L 336.830748 285.318525 
L 337.531724 288.94116 
M 338.700016 287.760096 
L 338.933675 287.92428 
L 339.167333 287.569431 
L 339.400992 288.099056 
L 339.634651 287.087473 
L 339.868309 287.135139 
L 340.101968 286.849141 
M 343.139529 286.01763 
L 343.606846 281.086821 
L 343.840505 279.858091 
L 344.074163 280.996785 
L 344.307822 280.350642 
L 344.54148 278.025588 
L 344.775139 277.098745 
L 345.008797 276.802155 
L 345.242456 276.044791 
L 345.476115 276.235456 
L 345.943432 277.24704 
L 346.410749 279.836906 
L 346.644407 278.767063 
L 346.878066 279.270207 
L 347.111724 279.360244 
L 347.579042 276.722711 
L 347.8127 276.717415 
L 348.280017 277.723702 
L 348.513676 279.625056 
L 348.747334 278.369845 
L 348.980993 278.793545 
M 349.44831 279.540316 
L 349.681969 279.87398 
L 349.915627 279.709796 
L 350.149286 279.683315 
L 350.382944 277.935552 
L 350.616603 278.449288 
L 350.850261 278.147402 
L 351.08392 278.173883 
L 351.551237 275.949458 
L 351.784896 276.945153 
L 352.018554 277.045782 
L 352.252213 276.69623 
L 352.485871 276.69623 
M 353.654164 278.152698 
L 353.887823 278.168587 
L 354.121481 277.744887 
L 354.35514 276.701526 
L 354.588798 277.045782 
L 355.056115 277.07756 
L 355.289774 276.553231 
M 356.925384 275.621091 
L 357.392701 278.761767 
L 357.626359 278.549917 
L 357.860018 280.430086 
L 358.093677 280.954415 
L 358.560994 280.525419 
L 358.794652 284.381089 
M 360.663921 280.742565 
L 360.897579 277.766072 
L 361.131238 278.062662 
M 361.598555 278.782952 
L 361.832214 278.025588 
L 362.299531 274.598915 
L 362.766848 275.049096 
L 363.000506 276.701526 
L 363.234165 276.06068 
M 363.701482 275.817052 
L 363.935141 276.685637 
L 364.168799 275.674053 
L 364.402458 274.063993 
M 364.869775 274.06929 
L 365.103433 274.879616 
L 365.337092 274.768395 
L 365.57075 275.102058 
L 365.804409 276.542638 
L 366.038068 276.574416 
L 366.739043 282.029554 
L 366.972702 277.88259 
L 367.20636 280.228829 
M 367.673677 280.525419 
L 367.907336 281.108006 
L 368.140995 280.202347 
L 368.374653 278.496955 
L 368.608312 277.866701 
L 368.84197 280.207644 
L 369.075629 279.32317 
L 369.309287 277.62837 
L 369.542946 278.057366 
L 369.776604 277.157003 
L 370.010263 276.844525 
L 370.243922 276.267233 
L 370.47758 274.985541 
L 370.711239 275.197391 
L 370.944897 277.866701 
M 373.515141 272.024937 
L 374.216117 270.155361 
L 374.449776 268.735966 
L 374.683434 269.503922 
L 374.917093 269.736957 
M 375.851727 270.711467 
L 376.085385 270.012362 
L 376.319044 270.261286 
L 376.552703 269.625736 
L 376.786361 269.736957 
L 377.02002 269.509218 
L 377.720995 270.414877 
L 377.954654 268.630041 
M 379.122947 267.856788 
L 379.356605 268.105712 
L 379.590264 267.549605 
L 379.823922 268.386413 
L 380.057581 268.33345 
L 380.29124 269.371516 
L 380.524898 269.424478 
L 380.758557 271.039834 
L 380.992215 270.610838 
L 381.459532 271.447646 
L 381.693191 272.904114 
L 381.926849 271.707162 
L 382.160508 271.850161 
L 382.394167 271.140463 
L 382.627825 271.347017 
L 382.861484 270.250693 
M 383.562459 269.832289 
L 383.796118 268.449968 
L 384.029776 268.571782 
L 384.263435 269.879956 
M 388.001972 259.546971 
L 388.23563 259.229196 
L 388.469289 258.657201 
M 390.338557 256.406295 
L 390.572216 254.150092 
L 390.805875 255.272897 
L 391.039533 255.49534 
L 391.273192 255.490044 
L 391.740509 254.90216 
L 392.207826 253.027287 
L 392.675143 250.204386 
L 392.908802 248.827361 
L 393.14246 248.440735 
L 393.376119 249.229876 
L 393.609777 251.226562 
L 393.843436 252.179887 
L 394.077094 253.752874 
L 394.310753 250.829343 
L 394.544411 252.301701 
L 394.77807 249.473503 
L 395.011729 250.83464 
L 395.245387 253.991205 
L 395.712704 253.731689 
L 395.946363 252.852511 
L 396.180021 254.107722 
L 396.41368 252.449996 
L 396.647338 251.708521 
L 396.880997 252.645957 
L 397.114656 250.246756 
L 397.348314 249.828352 
L 397.815631 247.95348 
L 398.04929 246.475826 
L 398.516607 250.596308 
L 398.750266 250.871713 
L 398.983924 249.229876 
L 399.217583 254.796235 
L 399.451241 255.807819 
L 399.6849 251.750891 
L 399.918558 254.26661 
L 400.152217 251.729706 
L 400.385875 252.238146 
L 400.619534 254.976307 
L 400.853193 253.233841 
L 401.086851 252.524144 
L 401.32051 251.422523 
L 401.554168 255.468859 
M 402.021485 254.828012 
L 402.255144 256.97829 
L 402.488802 256.416887 
M 404.591729 266.548614 
L 404.825388 267.576087 
L 405.059047 270.451951 
L 405.292705 268.010379 
M 405.760022 270.949798 
L 405.993681 275.652868 
L 406.227339 275.758793 
L 406.460998 278.13681 
L 406.694656 276.902783 
L 406.928315 277.104041 
M 408.096608 275.80646 
L 408.330266 276.849821 
L 408.563925 280.149385 
L 408.797583 279.561501 
L 409.031242 280.075237 
M 409.498559 278.846507 
L 409.732218 281.743556 
L 409.965876 282.559179 
L 410.199535 281.431077 
L 411.134169 291.621063 
L 411.367828 286.14474 
L 411.601486 286.684958 
L 411.835145 286.642588 
L 412.068803 285.842854 
L 412.302462 285.747521 
L 412.53612 294.078523 
L 412.769779 290.863699 
L 413.003437 291.038475 
L 413.470755 288.189093 
L 413.704413 287.929576 
M 416.741974 281.86537 
L 416.975633 281.235116 
L 417.209292 281.192746 
L 417.676609 277.135818 
L 417.910267 277.104041 
L 418.143926 278.851803 
L 418.377584 279.132505 
M 418.844901 278.878285 
L 419.07856 279.254318 
L 419.312219 278.925951 
L 419.545877 279.127208 
L 419.779536 278.8571 
M 422.116121 276.420825 
L 422.34978 276.955746 
M 423.050755 274.635988 
L 423.284414 273.571442 
L 423.518073 273.147742 
L 424.219048 269.805808 
M 424.686365 269.731661 
L 424.920024 266.061359 
L 425.153682 268.201044 
M 427.490268 265.049775 
L 427.723927 263.407938 
L 427.957585 263.725713 
L 428.191244 263.132533 
L 428.424902 264.017007 
M 428.892219 263.868712 
L 429.125878 263.858119 
L 429.359536 261.803174 
L 429.826854 261.061699 
M 430.294171 259.668785 
L 430.761488 261.183513 
L 430.995146 261.019329 
L 431.228805 263.106052 
M 433.331732 271.023946 
L 433.799049 268.269895 
L 434.266366 269.286776 
L 434.500025 272.416859 
L 434.733683 270.557876 
L 434.967342 272.581043 
M 437.771245 267.390718 
L 438.004903 266.209654 
L 438.238562 266.538022 
L 438.47222 266.559207 
M 438.939537 266.696909 
L 439.173196 264.281819 
L 439.406854 264.589002 
L 439.640513 263.746898 
L 439.874172 264.107043 
L 440.10783 264.212968 
L 440.341489 265.807139 
L 440.575147 263.566825 
L 440.808806 263.598603 
L 441.042464 264.56252 
L 441.276123 262.639981 
L 441.74344 261.125254 
L 441.977099 261.220586 
L 442.210757 263.450308 
L 442.444416 262.804165 
L 442.678074 261.750211 
M 443.145391 261.713138 
L 443.37905 260.701554 
L 443.612708 261.077588 
L 443.846367 261.686656 
L 444.080026 260.463223 
L 444.313684 262.089171 
L 444.547343 259.637008 
L 444.781001 258.779015 
L 445.01466 258.869051 
L 445.248318 259.742933 
L 445.481977 259.361603 
L 445.715635 258.33413 
L 445.949294 258.810793 
L 446.182953 256.55459 
L 446.65027 261.331808 
L 446.883928 266.988203 
L 447.584904 261.644286 
L 447.818562 262.936572 
L 448.052221 263.20668 
L 448.28588 258.710164 
L 448.519538 262.004431 
L 448.753197 262.539353 
L 449.220514 257.979281 
L 449.454172 257.973985 
L 449.687831 256.76644 
L 449.921489 256.861772 
M 451.089782 258.688979 
L 451.323441 258.831978 
L 451.557099 260.442038 
L 452.024417 256.42748 
L 452.258075 256.438072 
L 452.491734 255.956114 
L 452.725392 254.616162 
L 452.959051 250.967046 
L 453.192709 251.234401 
L 453.426368 253.530431 
L 454.127344 251.401338 
L 454.361002 252.35996 
L 454.594661 254.070649 
M 455.295636 252.322886 
L 455.529295 252.926659 
M 461.604417 233.897231 
L 461.838076 233.007461 
L 462.071734 233.203423 
L 462.305393 233.145164 
L 462.539052 231.985285 
L 462.77271 231.609251 
L 463.006369 230.518224 
L 463.240027 230.645334 
L 463.473686 229.315975 
L 463.707344 230.285189 
L 463.941003 228.632759 
L 464.174661 227.923061 
L 464.40832 228.352057 
L 464.641979 229.993895 
L 464.875637 230.618853 
L 465.109296 230.740666 
L 465.342954 228.309687 
L 465.576613 229.411307 
L 465.810271 227.531139 
L 466.04393 227.843617 
M 471.651735 210.604323 
L 471.885394 211.351094 
L 472.352711 205.398109 
L 472.58637 205.027371 
L 472.820028 201.515957 
L 473.053687 203.782753 
L 473.287345 204.49245 
L 473.754662 200.578521 
L 473.988321 201.722511 
L 474.455638 200.313709 
L 474.689297 200.800964 
L 474.922955 205.758254 
L 475.390272 197.607325 
L 475.623931 197.856249 
L 475.857589 205.461664 
L 476.091248 205.911845 
M 477.259541 199.084979 
L 477.493199 200.112451 
L 477.726858 196.092597 
L 477.960516 197.326624 
L 478.194175 197.284254 
L 478.427833 200.435522 
L 478.661492 197.988655 
L 478.895151 199.74701 
L 479.128809 203.586791 
L 479.596126 216.811528 
L 479.829785 214.391142 
L 480.063443 224.522869 
L 480.297102 224.607609 
L 480.53076 211.128652 
L 480.764419 216.154793 
L 480.998078 209.047225 
L 481.231736 214.248143 
L 481.465395 216.308384 
L 481.699053 228.415612 
L 481.932712 218.262701 
L 482.16637 223.511285 
L 482.400029 237.917085 
L 482.633687 222.166037 
L 482.867346 241.105428 
L 483.101005 235.464922 
L 483.334663 238.7433 
L 483.568322 239.744292 
L 483.80198 247.974665 
M 484.269297 238.632079 
L 484.502956 239.352369 
L 484.736614 232.509614 
L 484.970273 238.176602 
L 485.203932 234.432153 
L 485.43759 234.707558 
L 485.671249 241.793941 
L 485.904907 239.664848 
M 486.372224 230.375225 
L 486.605883 231.985285 
L 486.839542 228.468575 
L 487.0732 227.451695 
L 487.306859 224.665867 
L 487.540517 217.357042 
L 487.774176 218.744659 
L 488.007834 217.547707 
L 488.241493 219.607948 
M 491.045396 211.790683 
L 491.512713 208.5176 
L 491.98003 202.548726 
L 492.213688 204.455376 
M 493.849298 201.574216 
L 494.082957 200.493781 
L 494.316615 201.637771 
M 496.185884 193.81521 
L 496.419542 192.777145 
L 496.886859 182.513012 
M 498.756128 179.319373 
L 498.989786 175.262445 
M 500.625396 176.544138 
L 500.859055 171.38559 
L 501.092713 171.999955 
L 501.326372 167.40281 
L 501.793689 166.179376 
L 502.027348 167.116812 
L 502.261006 163.769582 
L 502.494665 162.355483 
M 507.635153 125.954355 
L 507.868812 126.589905 
L 508.10247 124.566738 
L 508.336129 124.259555 
L 508.569787 118.820306 
L 508.803446 105.908048 
L 509.037104 102.756779 
L 509.270763 104.944131 
L 509.504422 101.347977 
L 509.73808 104.552208 
L 509.971739 104.981204 
L 510.205397 96.014653 
M 510.906373 113.301613 
L 511.140031 113.132133 
L 511.37369 130.376724 
L 511.607349 120.843474 
L 511.841007 128.957329 
L 512.074666 132.113894 
L 512.308324 125.006326 
L 512.541983 124.614404 
L 513.242958 143.045355 
L 513.710276 132.516409 
L 513.943934 142.452175 
L 514.177593 140.121825 
L 514.64491 125.843134 
L 514.878568 127.686229 
L 515.345885 121.966279 
L 515.579544 129.953024 
L 515.813203 122.580644 
L 516.046861 129.656434 
L 516.28052 125.588914 
L 516.514178 125.821949 
L 516.747837 121.584949 
M 517.448812 112.644878 
L 517.682471 113.661758 
L 517.91613 117.242024 
L 518.149788 123.682264 
L 518.383447 120.440959 
L 518.617105 121.796799 
L 519.084422 125.673654 
L 519.318081 125.652469 
L 519.551739 122.368794 
L 519.785398 133.808694 
L 520.019057 125.080474 
M 520.486374 138.95665 
L 520.720032 135.418754 
L 521.187349 117.220839 
L 521.421008 117.941129 
L 521.654666 122.961974 
L 521.888325 123.703449 
L 522.121984 116.246329 
L 522.355642 116.839509 
L 522.589301 116.733584 
L 522.822959 114.530344 
L 523.056618 116.458179 
L 523.290276 119.339339 
L 523.523935 118.047054 
L 523.757594 120.801104 
M 524.925886 117.178469 
L 525.159545 109.403573 
L 525.393203 108.640913 
L 525.626862 108.937503 
M 526.795155 108.301953 
L 527.262472 111.394963 
L 527.49613 98.472113 
L 527.729789 98.620408 
L 527.963448 96.734943 
L 528.197106 101.067275 
L 528.430765 97.730638 
L 528.664423 89.998112 
L 528.898082 91.947132 
L 529.13174 89.807447 
L 529.365399 79.808127 
L 529.832716 86.100072 
L 530.066375 88.282127 
L 530.300033 95.230808 
L 530.533692 91.841207 
M 531.001009 92.031872 
L 531.234667 89.637967 
L 531.468326 96.141763 
L 531.701984 96.523093 
L 531.935643 92.095427 
L 532.40296 100.039803 
L 532.636619 98.578038 
L 533.571253 66.609871 
M 534.272229 78.960727 
L 534.505887 89.828632 
M 537.30979 92.201352 
L 537.543448 94.595258 
L 537.777107 94.256298 
L 538.010765 102.454893 
L 538.244424 102.751483 
L 538.478083 103.831918 
L 538.711741 113.068578 
L 538.9454 112.496583 
L 539.179058 98.662778 
L 539.880034 114.890489 
L 540.113693 112.157623 
L 540.347351 122.877234 
L 540.58101 112.867321 
L 540.814668 115.208264 
L 541.048327 111.013633 
L 541.281985 112.983838 
L 541.749302 103.365848 
L 541.982961 105.081833 
M 544.553205 108.810393 
L 544.786864 102.666743 
L 545.020522 102.010008 
L 545.487839 93.218233 
L 545.721498 87.635985 
L 545.955156 91.353952 
L 546.188815 84.595937 
L 546.422474 89.680337 
L 546.656132 84.447642 
L 546.889791 85.167932 
L 547.123449 83.727352 
L 547.357108 87.392357 
L 547.590766 86.566142 
M 548.291742 83.981572 
L 548.525401 84.680677 
L 548.759059 86.396662 
L 548.992718 86.608512 
L 549.226376 90.887882 
L 549.460035 88.599902 
L 549.693693 98.535668 
L 549.927352 98.006043 
L 550.16101 94.531703 
L 550.394669 93.536008 
L 550.628328 100.654168 
L 550.861986 102.645558 
L 551.095645 109.297648 
L 551.562962 99.383068 
L 552.030279 104.891168 
L 552.263937 105.230128 
L 552.497596 99.679658 
L 552.731255 103.662438 
L 552.964913 100.124543 
L 553.198572 100.548243 
L 553.43223 100.654168 
M 558.572719 83.854462 
L 558.806377 80.570787 
L 559.040036 79.236132 
L 559.273694 78.579397 
L 559.97467 63.114346 
L 560.208328 65.931951 
L 560.441987 61.970356 
L 560.675646 63.262641 
L 560.909304 60.847551 
L 561.142963 53.411616 
L 561.376621 54.831011 
L 561.61028 59.258676 
L 561.843938 67.605566 
L 562.077597 59.767116 
L 562.311255 61.355991 
L 563.012231 53.750576 
L 563.24589 58.453646 
M 563.713207 60.847551 
L 563.946865 60.381481 
L 564.180524 61.101771 
L 564.414182 57.203731 
L 564.647841 58.072316 
L 564.8815 57.839281 
L 565.115158 59.788301 
L 565.348817 59.894226 
L 565.582475 60.932291 
L 565.816134 60.381481 
L 566.049792 53.962426 
L 566.283451 53.517541 
L 566.517109 49.238171 
L 566.750768 51.208376 
M 567.218085 58.601941 
L 567.685402 52.225256 
L 567.919061 52.415921 
L 568.386378 56.822401 
L 568.620036 54.576791 
M 569.087354 47.734035 
L 569.321012 46.293455 
L 569.788329 42.50134 
M 570.722963 53.792946 
L 570.956622 52.564216 
L 571.190281 55.593671 
L 571.423939 53.665836 
L 571.657598 54.174276 
L 572.124915 66.567501 
L 572.358573 65.529436 
L 572.592232 60.402666 
L 572.82589 58.326536 
L 573.059549 58.135871 
L 573.293208 61.419546 
L 573.526866 68.749556 
L 573.760525 66.800536 
L 573.994183 69.618141 
L 574.227842 67.181866 
M 576.564427 62.542351 
L 577.265403 53.178581 
L 577.499062 52.712511 
L 577.73272 54.386126 
L 577.966379 54.492051 
L 578.200037 53.051471 
L 578.433696 54.047166 
L 578.667354 46.166345 
L 578.667354 46.166345 
" clip-path="url(#pfa18d62242)" style="fill: none; stroke: #1e90ff; stroke-linecap: square"/>
   </g>
   <g id="patch_3">
    <path d="M 46.965625 354.958125 
L 46.965625 22.318125 
" style="fill: none; stroke: #000000; stroke-width: 0.8; stroke-linejoin: miter; stroke-linecap: square"/>
   </g>
   <g id="patch_4">
    <path d="M 604.965625 354.958125 
L 604.965625 22.318125 
" style="fill: none; stroke: #000000; stroke-width: 0.8; stroke-linejoin: miter; stroke-linecap: square"/>
   </g>
   <g id="patch_5">
    <path d="M 46.965625 354.958125 
L 604.965625 354.958125 
" style="fill: none; stroke: #000000; stroke-width: 0.8; stroke-linejoin: miter; stroke-linecap: square"/>
   </g>
   <g id="patch_6">
    <path d="M 46.965625 22.318125 
L 604.965625 22.318125 
" style="fill: none; stroke: #000000; stroke-width: 0.8; stroke-linejoin: miter; stroke-linecap: square"/>
   </g>
   <g id="text_16">
    <!-- AAPL, Relative Strength Index (RSI), AAPL -->
    <g transform="translate(200.850625 16.318125)scale(0.12 -0.12)">
     <defs>
      <path id="DejaVuSans-41" d="M 2188 4044 
L 1331 1722 
L 3047 1722 
L 2188 4044 
z
M 1831 4666 
L 2547 4666 
L 4325 0 
L 3669 0 
L 3244 1197 
L 1141 1197 
L 716 0 
L 50 0 
L 1831 4666 
z
" transform="scale(0.015625)"/>
      <path id="DejaVuSans-4c" d="M 628 4666 
L 1259 4666 
L 1259 531 
L 3531 531 
L 3531 0 
L 628 0 
L 628 4666 
z
" transform="scale(0.015625)"/>
      <path id="DejaVuSans-2c" d="M 750 794 
L 1409 794 
L 1409 256 
L 897 -744 
L 494 -744 
L 750 256 
L 750 794 
z
" transform="scale(0.015625)"/>
      <path id="DejaVuSans-52" d="M 2841 2188 
Q 3044 2119 3236 1894 
Q 3428 1669 3622 1275 
L 4263 0 
L 3584 0 
L 2988 1197 
Q 2756 1666 2539 1819 
Q 2322 1972 1947 1972 
L 1259 1972 
L 1259 0 
L 628 0 
L 628 4666 
L 2053 4666 
Q 2853 4666 3247 4331 
Q 3641 3997 3641 3322 
Q 3641 2881 3436 2590 
Q 3231 2300 2841 2188 
z
M 1259 4147 
L 1259 2491 
L 2053 2491 
Q 2509 2491 2742 2702 
Q 2975 2913 2975 3322 
Q 2975 3731 2742 3939 
Q 2509 4147 2053 4147 
L 1259 4147 
z
" transform="scale(0.015625)"/>
      <path id="DejaVuSans-6c" d="M 603 4863 
L 1178 4863 
L 1178 0 
L 603 0 
L 603 4863 
z
" transform="scale(0.015625)"/>
      <path id="DejaVuSans-76" d="M 191 3500 
L 800 3500 
L 1894 563 
L 2988 3500 
L 3597 3500 
L 2284 0 
L 1503 0 
L 191 3500 
z
" transform="scale(0.015625)"/>
      <path id="DejaVuSans-6e" d="M 3513 2113 
L 3513 0 
L 2938 0 
L 2938 2094 
Q 2938 2591 2744 2837 
Q 2550 3084 2163 3084 
Q 1697 3084 1428 2787 
Q 1159 2491 1159 1978 
L 1159 0 
L 581 0 
L 581 3500 
L 1159 3500 
L 1159 2956 
Q 1366 3272 1645 3428 
Q 1925 3584 2291 3584 
Q 2894 3584 3203 3211 
Q 3513 2838 3513 2113 
z
" transform="scale(0.015625)"/>
      <path id="DejaVuSans-67" d="M 2906 1791 
Q 2906 2416 2648 2759 
Q 2391 3103 1925 3103 
Q 1463 3103 1205 2759 
Q 947 2416 947 1791 
Q 947 1169 1205 825 
Q 1463 481 1925 481 
Q 2391 481 2648 825 
Q 2906 1169 2906 1791 
z
M 3481 434 
Q 3481 -459 3084 -895 
Q 2688 -1331 1869 -1331 
Q 1566 -1331 1297 -1286 
Q 1028 -1241 775 -1147 
L 775 -588 
Q 1028 -725 1275 -790 
Q 1522 -856 1778 -856 
Q 2344 -856 2625 -561 
Q 2906 -266 2906 331 
L 2906 616 
Q 2728 306 2450 153 
Q 2172 0 1784 0 
Q 1141 0 747 490 
Q 353 981 353 1791 
Q 353 2603 747 3093 
Q 1141 3584 1784 3584 
Q 2172 3584 2450 3431 
Q 2728 3278 2906 2969 
L 2906 3500 
L 3481 3500 
L 3481 434 
z
" transform="scale(0.015625)"/>
      <path id="DejaVuSans-68" d="M 3513 2113 
L 3513 0 
L 2938 0 
L 2938 2094 
Q 2938 2591 2744 2837 
Q 2550 3084 2163 3084 
Q 1697 3084 1428 2787 
Q 1159 2491 1159 1978 
L 1159 0 
L 581 0 
L 581 4863 
L 1159 4863 
L 1159 2956 
Q 1366 3272 1645 3428 
Q 1925 3584 2291 3584 
Q 2894 3584 3203 3211 
Q 3513 2838 3513 2113 
z
" transform="scale(0.015625)"/>
      <path id="DejaVuSans-49" d="M 628 4666 
L 1259 4666 
L 1259 0 
L 628 0 
L 628 4666 
z
" transform="scale(0.015625)"/>
      <path id="DejaVuSans-64" d="M 2906 2969 
L 2906 4863 
L 3481 4863 
L 3481 0 
L 2906 0 
L 2906 525 
Q 2725 213 2448 61 
Q 2172 -91 1784 -91 
Q 1150 -91 751 415 
Q 353 922 353 1747 
Q 353 2572 751 3078 
Q 1150 3584 1784 3584 
Q 2172 3584 2448 3432 
Q 2725 3281 2906 2969 
z
M 947 1747 
Q 947 1113 1208 752 
Q 1469 391 1925 391 
Q 2381 391 2643 752 
Q 2906 1113 2906 1747 
Q 2906 2381 2643 2742 
Q 2381 3103 1925 3103 
Q 1469 3103 1208 2742 
Q 947 2381 947 1747 
z
" transform="scale(0.015625)"/>
      <path id="DejaVuSans-78" d="M 3513 3500 
L 2247 1797 
L 3578 0 
L 2900 0 
L 1881 1375 
L 863 0 
L 184 0 
L 1544 1831 
L 300 3500 
L 978 3500 
L 1906 2253 
L 2834 3500 
L 3513 3500 
z
" transform="scale(0.015625)"/>
     </defs>
     <use xlink:href="#DejaVuSans-41"/>
     <use xlink:href="#DejaVuSans-41" x="71.158203"/>
     <use xlink:href="#DejaVuSans-50" x="139.566406"/>
     <use xlink:href="#DejaVuSans-4c" x="199.869141"/>
     <use xlink:href="#DejaVuSans-2c" x="255.582031"/>
     <use xlink:href="#DejaVuSans-20" x="287.369141"/>
     <use xlink:href="#DejaVuSans-52" x="319.15625"/>
     <use xlink:href="#DejaVuSans-65" x="384.138672"/>
     <use xlink:href="#DejaVuSans-6c" x="445.662109"/>
     <use xlink:href="#DejaVuSans-61" x="473.445312"/>
     <use xlink:href="#DejaVuSans-74" x="534.724609"/>
     <use xlink:href="#DejaVuSans-69" x="573.933594"/>
     <use xlink:href="#DejaVuSans-76" x="601.716797"/>
     <use xlink:href="#DejaVuSans-65" x="660.896484"/>
     <use xlink:href="#DejaVuSans-20" x="722.419922"/>
     <use xlink:href="#DejaVuSans-53" x="754.207031"/>
     <use xlink:href="#DejaVuSans-74" x="817.683594"/>
     <use xlink:href="#DejaVuSans-72" x="856.892578"/>
     <use xlink:href="#DejaVuSans-65" x="895.755859"/>
     <use xlink:href="#DejaVuSans-6e" x="957.279297"/>
     <use xlink:href="#DejaVuSans-67" x="1020.658203"/>
     <use xlink:href="#DejaVuSans-74" x="1084.134766"/>
     <use xlink:href="#DejaVuSans-68" x="1123.34375"/>
     <use xlink:href="#DejaVuSans-20" x="1186.722656"/>
     <use xlink:href="#DejaVuSans-49" x="1218.509766"/>
     <use xlink:href="#DejaVuSans-6e" x="1248.001953"/>
     <use xlink:href="#DejaVuSans-64" x="1311.380859"/>
     <use xlink:href="#DejaVuSans-65" x="1374.857422"/>
     <use xlink:href="#DejaVuSans-78" x="1434.630859"/>
     <use xlink:href="#DejaVuSans-20" x="1493.810547"/>
     <use xlink:href="#DejaVuSans-28" x="1525.597656"/>
     <use xlink:href="#DejaVuSans-52" x="1564.611328"/>
     <use xlink:href="#DejaVuSans-53" x="1634.09375"/>
     <use xlink:href="#DejaVuSans-49" x="1697.570312"/>
     <use xlink:href="#DejaVuSans-29" x="1727.0625"/>
     <use xlink:href="#DejaVuSans-2c" x="1766.076172"/>
     <use xlink:href="#DejaVuSans-20" x="1797.863281"/>
     <use xlink:href="#DejaVuSans-41" x="1829.650391"/>
     <use xlink:href="#DejaVuSans-41" x="1900.808594"/>
     <use xlink:href="#DejaVuSans-50" x="1969.216797"/>
     <use xlink:href="#DejaVuSans-4c" x="2029.519531"/>
    </g>
   </g>
   <g id="legend_1">
    <g id="patch_7">
     <path d="M 53.965625 74.3525 
L 203.875 74.3525 
Q 205.875 74.3525 205.875 72.3525 
L 205.875 29.318125 
Q 205.875 27.318125 203.875 27.318125 
L 53.965625 27.318125 
Q 51.965625 27.318125 51.965625 29.318125 
L 51.965625 72.3525 
Q 51.965625 74.3525 53.965625 74.3525 
z
" style="fill: #ffffff; opacity: 0.8; stroke: #cccccc; stroke-linejoin: miter"/>
    </g>
    <g id="line2d_25">
     <path d="M 55.965625 35.416562 
L 65.965625 35.416562 
L 75.965625 35.416562 
" style="fill: none; stroke: #00ff7f; stroke-linecap: square"/>
    </g>
    <g id="text_17">
     <!-- Oversold, RSI &lt;= 30 -->
     <g transform="translate(83.965625 38.916562)scale(0.1 -0.1)">
      <defs>
       <path id="DejaVuSans-4f" d="M 2522 4238 
Q 1834 4238 1429 3725 
Q 1025 3213 1025 2328 
Q 1025 1447 1429 934 
Q 1834 422 2522 422 
Q 3209 422 3611 934 
Q 4013 1447 4013 2328 
Q 4013 3213 3611 3725 
Q 3209 4238 2522 4238 
z
M 2522 4750 
Q 3503 4750 4090 4092 
Q 4678 3434 4678 2328 
Q 4678 1225 4090 567 
Q 3503 -91 2522 -91 
Q 1538 -91 948 565 
Q 359 1222 359 2328 
Q 359 3434 948 4092 
Q 1538 4750 2522 4750 
z
" transform="scale(0.015625)"/>
       <path id="DejaVuSans-73" d="M 2834 3397 
L 2834 2853 
Q 2591 2978 2328 3040 
Q 2066 3103 1784 3103 
Q 1356 3103 1142 2972 
Q 928 2841 928 2578 
Q 928 2378 1081 2264 
Q 1234 2150 1697 2047 
L 1894 2003 
Q 2506 1872 2764 1633 
Q 3022 1394 3022 966 
Q 3022 478 2636 193 
Q 2250 -91 1575 -91 
Q 1294 -91 989 -36 
Q 684 19 347 128 
L 347 722 
Q 666 556 975 473 
Q 1284 391 1588 391 
Q 1994 391 2212 530 
Q 2431 669 2431 922 
Q 2431 1156 2273 1281 
Q 2116 1406 1581 1522 
L 1381 1569 
Q 847 1681 609 1914 
Q 372 2147 372 2553 
Q 372 3047 722 3315 
Q 1072 3584 1716 3584 
Q 2034 3584 2315 3537 
Q 2597 3491 2834 3397 
z
" transform="scale(0.015625)"/>
       <path id="DejaVuSans-6f" d="M 1959 3097 
Q 1497 3097 1228 2736 
Q 959 2375 959 1747 
Q 959 1119 1226 758 
Q 1494 397 1959 397 
Q 2419 397 2687 759 
Q 2956 1122 2956 1747 
Q 2956 2369 2687 2733 
Q 2419 3097 1959 3097 
z
M 1959 3584 
Q 2709 3584 3137 3096 
Q 3566 2609 3566 1747 
Q 3566 888 3137 398 
Q 2709 -91 1959 -91 
Q 1206 -91 779 398 
Q 353 888 353 1747 
Q 353 2609 779 3096 
Q 1206 3584 1959 3584 
z
" transform="scale(0.015625)"/>
       <path id="DejaVuSans-3c" d="M 4684 3150 
L 1459 2003 
L 4684 863 
L 4684 294 
L 678 1747 
L 678 2266 
L 4684 3719 
L 4684 3150 
z
" transform="scale(0.015625)"/>
       <path id="DejaVuSans-3d" d="M 678 2906 
L 4684 2906 
L 4684 2381 
L 678 2381 
L 678 2906 
z
M 678 1631 
L 4684 1631 
L 4684 1100 
L 678 1100 
L 678 1631 
z
" transform="scale(0.015625)"/>
       <path id="DejaVuSans-33" d="M 2597 2516 
Q 3050 2419 3304 2112 
Q 3559 1806 3559 1356 
Q 3559 666 3084 287 
Q 2609 -91 1734 -91 
Q 1441 -91 1130 -33 
Q 819 25 488 141 
L 488 750 
Q 750 597 1062 519 
Q 1375 441 1716 441 
Q 2309 441 2620 675 
Q 2931 909 2931 1356 
Q 2931 1769 2642 2001 
Q 2353 2234 1838 2234 
L 1294 2234 
L 1294 2753 
L 1863 2753 
Q 2328 2753 2575 2939 
Q 2822 3125 2822 3475 
Q 2822 3834 2567 4026 
Q 2313 4219 1838 4219 
Q 1578 4219 1281 4162 
Q 984 4106 628 3988 
L 628 4550 
Q 988 4650 1302 4700 
Q 1616 4750 1894 4750 
Q 2613 4750 3031 4423 
Q 3450 4097 3450 3541 
Q 3450 3153 3228 2886 
Q 3006 2619 2597 2516 
z
" transform="scale(0.015625)"/>
      </defs>
      <use xlink:href="#DejaVuSans-4f"/>
      <use xlink:href="#DejaVuSans-76" x="78.710938"/>
      <use xlink:href="#DejaVuSans-65" x="137.890625"/>
      <use xlink:href="#DejaVuSans-72" x="199.414062"/>
      <use xlink:href="#DejaVuSans-73" x="240.527344"/>
      <use xlink:href="#DejaVuSans-6f" x="292.626953"/>
      <use xlink:href="#DejaVuSans-6c" x="353.808594"/>
      <use xlink:href="#DejaVuSans-64" x="381.591797"/>
      <use xlink:href="#DejaVuSans-2c" x="445.068359"/>
      <use xlink:href="#DejaVuSans-20" x="476.855469"/>
      <use xlink:href="#DejaVuSans-52" x="508.642578"/>
      <use xlink:href="#DejaVuSans-53" x="578.125"/>
      <use xlink:href="#DejaVuSans-49" x="641.601562"/>
      <use xlink:href="#DejaVuSans-20" x="671.09375"/>
      <use xlink:href="#DejaVuSans-3c" x="702.880859"/>
      <use xlink:href="#DejaVuSans-3d" x="786.669922"/>
      <use xlink:href="#DejaVuSans-20" x="870.458984"/>
      <use xlink:href="#DejaVuSans-33" x="902.246094"/>
      <use xlink:href="#DejaVuSans-30" x="965.869141"/>
     </g>
    </g>
    <g id="line2d_26">
     <path d="M 55.965625 50.094687 
L 65.965625 50.094687 
L 75.965625 50.094687 
" style="fill: none; stroke: #ff4500; stroke-linecap: square"/>
    </g>
    <g id="text_18">
     <!-- Overbought, RSI &gt;= 70 -->
     <g transform="translate(83.965625 53.594687)scale(0.1 -0.1)">
      <defs>
       <path id="DejaVuSans-62" d="M 3116 1747 
Q 3116 2381 2855 2742 
Q 2594 3103 2138 3103 
Q 1681 3103 1420 2742 
Q 1159 2381 1159 1747 
Q 1159 1113 1420 752 
Q 1681 391 2138 391 
Q 2594 391 2855 752 
Q 3116 1113 3116 1747 
z
M 1159 2969 
Q 1341 3281 1617 3432 
Q 1894 3584 2278 3584 
Q 2916 3584 3314 3078 
Q 3713 2572 3713 1747 
Q 3713 922 3314 415 
Q 2916 -91 2278 -91 
Q 1894 -91 1617 61 
Q 1341 213 1159 525 
L 1159 0 
L 581 0 
L 581 4863 
L 1159 4863 
L 1159 2969 
z
" transform="scale(0.015625)"/>
       <path id="DejaVuSans-75" d="M 544 1381 
L 544 3500 
L 1119 3500 
L 1119 1403 
Q 1119 906 1312 657 
Q 1506 409 1894 409 
Q 2359 409 2629 706 
Q 2900 1003 2900 1516 
L 2900 3500 
L 3475 3500 
L 3475 0 
L 2900 0 
L 2900 538 
Q 2691 219 2414 64 
Q 2138 -91 1772 -91 
Q 1169 -91 856 284 
Q 544 659 544 1381 
z
M 1991 3584 
L 1991 3584 
z
" transform="scale(0.015625)"/>
       <path id="DejaVuSans-3e" d="M 678 3150 
L 678 3719 
L 4684 2266 
L 4684 1747 
L 678 294 
L 678 863 
L 3897 2003 
L 678 3150 
z
" transform="scale(0.015625)"/>
       <path id="DejaVuSans-37" d="M 525 4666 
L 3525 4666 
L 3525 4397 
L 1831 0 
L 1172 0 
L 2766 4134 
L 525 4134 
L 525 4666 
z
" transform="scale(0.015625)"/>
      </defs>
      <use xlink:href="#DejaVuSans-4f"/>
      <use xlink:href="#DejaVuSans-76" x="78.710938"/>
      <use xlink:href="#DejaVuSans-65" x="137.890625"/>
      <use xlink:href="#DejaVuSans-72" x="199.414062"/>
      <use xlink:href="#DejaVuSans-62" x="240.527344"/>
      <use xlink:href="#DejaVuSans-6f" x="304.003906"/>
      <use xlink:href="#DejaVuSans-75" x="365.185547"/>
      <use xlink:href="#DejaVuSans-67" x="428.564453"/>
      <use xlink:href="#DejaVuSans-68" x="492.041016"/>
      <use xlink:href="#DejaVuSans-74" x="555.419922"/>
      <use xlink:href="#DejaVuSans-2c" x="594.628906"/>
      <use xlink:href="#DejaVuSans-20" x="626.416016"/>
      <use xlink:href="#DejaVuSans-52" x="658.203125"/>
      <use xlink:href="#DejaVuSans-53" x="727.685547"/>
      <use xlink:href="#DejaVuSans-49" x="791.162109"/>
      <use xlink:href="#DejaVuSans-20" x="820.654297"/>
      <use xlink:href="#DejaVuSans-3e" x="852.441406"/>
      <use xlink:href="#DejaVuSans-3d" x="936.230469"/>
      <use xlink:href="#DejaVuSans-20" x="1020.019531"/>
      <use xlink:href="#DejaVuSans-37" x="1051.806641"/>
      <use xlink:href="#DejaVuSans-30" x="1115.429688"/>
     </g>
    </g>
    <g id="line2d_27">
     <path d="M 55.965625 64.772812 
L 65.965625 64.772812 
L 75.965625 64.772812 
" style="fill: none; stroke: #1e90ff; stroke-linecap: square"/>
    </g>
    <g id="text_19">
     <!-- Neutral -->
     <g transform="translate(83.965625 68.272812)scale(0.1 -0.1)">
      <defs>
       <path id="DejaVuSans-4e" d="M 628 4666 
L 1478 4666 
L 3547 763 
L 3547 4666 
L 4159 4666 
L 4159 0 
L 3309 0 
L 1241 3903 
L 1241 0 
L 628 0 
L 628 4666 
z
" transform="scale(0.015625)"/>
      </defs>
      <use xlink:href="#DejaVuSans-4e"/>
      <use xlink:href="#DejaVuSans-65" x="74.804688"/>
      <use xlink:href="#DejaVuSans-75" x="136.328125"/>
      <use xlink:href="#DejaVuSans-74" x="199.707031"/>
      <use xlink:href="#DejaVuSans-72" x="238.916016"/>
      <use xlink:href="#DejaVuSans-61" x="280.029297"/>
      <use xlink:href="#DejaVuSans-6c" x="341.308594"/>
     </g>
    </g>
   </g>
  </g>
 </g>
 <defs>
  <clipPath id="pfa18d62242">
   <rect x="46.965625" y="22.318125" width="558" height="332.64"/>
  </clipPath>
 </defs>
</svg>
