<?xml version="1.0" encoding="utf-8" standalone="no"?>
<!DOCTYPE svg PUBLIC "-//W3C//DTD SVG 1.1//EN"
  "http://www.w3.org/Graphics/SVG/1.1/DTD/svg11.dtd">
<svg xmlns:xlink="http://www.w3.org/1999/xlink" width="612.165625pt" height="392.514375pt" viewBox="0 0 612.165625 392.514375" xmlns="http://www.w3.org/2000/svg" version="1.1">
 <metadata>
  <rdf:RDF xmlns:dc="http://purl.org/dc/elements/1.1/" xmlns:cc="http://creativecommons.org/ns#" xmlns:rdf="http://www.w3.org/1999/02/22-rdf-syntax-ns#">
   <cc:Work>
    <dc:type rdf:resource="http://purl.org/dc/dcmitype/StillImage"/>
    <dc:date>2023-04-23T16:54:51.870601</dc:date>
    <dc:format>image/svg+xml</dc:format>
    <dc:creator>
     <cc:Agent>
      <dc:title>Matplotlib v3.5.1, https://matplotlib.org/</dc:title>
     </cc:Agent>
    </dc:creator>
   </cc:Work>
  </rdf:RDF>
 </metadata>
 <defs>
  <style type="text/css">*{stroke-linejoin: round; stroke-linecap: butt}</style>
 </defs>
 <g id="figure_1">
  <g id="patch_1">
   <path d="M 0 392.514375 
L 612.165625 392.514375 
L 612.165625 0 
L 0 0 
z
" style="fill: #ffffff"/>
  </g>
  <g id="axes_1">
   <g id="patch_2">
    <path d="M 46.965625 354.958125 
L 604.965625 354.958125 
L 604.965625 22.318125 
L 46.965625 22.318125 
z
" style="fill: #ffffff"/>
   </g>
   <g id="matplotlib.axis_1">
    <g id="xtick_1">
     <g id="line2d_1">
      <defs>
       <path id="m2b464175c3" d="M 0 0 
L 0 3.5 
" style="stroke: #000000; stroke-width: 0.8"/>
      </defs>
      <g>
       <use xlink:href="#m2b464175c3" x="72.329261" y="354.958125" style="stroke: #000000; stroke-width: 0.8"/>
      </g>
     </g>
     <g id="text_1">
      <!-- 0 -->
      <g transform="translate(69.148011 369.556562)scale(0.1 -0.1)">
       <defs>
        <path id="DejaVuSans-30" d="M 2034 4250 
Q 1547 4250 1301 3770 
Q 1056 3291 1056 2328 
Q 1056 1369 1301 889 
Q 1547 409 2034 409 
Q 2525 409 2770 889 
Q 3016 1369 3016 2328 
Q 3016 3291 2770 3770 
Q 2525 4250 2034 4250 
z
M 2034 4750 
Q 2819 4750 3233 4129 
Q 3647 3509 3647 2328 
Q 3647 1150 3233 529 
Q 2819 -91 2034 -91 
Q 1250 -91 836 529 
Q 422 1150 422 2328 
Q 422 3509 836 4129 
Q 1250 4750 2034 4750 
z
" transform="scale(0.015625)"/>
       </defs>
       <use xlink:href="#DejaVuSans-30"/>
      </g>
     </g>
    </g>
    <g id="xtick_2">
     <g id="line2d_2">
      <g>
       <use xlink:href="#m2b464175c3" x="184.112586" y="354.958125" style="stroke: #000000; stroke-width: 0.8"/>
      </g>
     </g>
     <g id="text_2">
      <!-- 500 -->
      <g transform="translate(174.568836 369.556562)scale(0.1 -0.1)">
       <defs>
        <path id="DejaVuSans-35" d="M 691 4666 
L 3169 4666 
L 3169 4134 
L 1269 4134 
L 1269 2991 
Q 1406 3038 1543 3061 
Q 1681 3084 1819 3084 
Q 2600 3084 3056 2656 
Q 3513 2228 3513 1497 
Q 3513 744 3044 326 
Q 2575 -91 1722 -91 
Q 1428 -91 1123 -41 
Q 819 9 494 109 
L 494 744 
Q 775 591 1075 516 
Q 1375 441 1709 441 
Q 2250 441 2565 725 
Q 2881 1009 2881 1497 
Q 2881 1984 2565 2268 
Q 2250 2553 1709 2553 
Q 1456 2553 1204 2497 
Q 953 2441 691 2322 
L 691 4666 
z
" transform="scale(0.015625)"/>
       </defs>
       <use xlink:href="#DejaVuSans-35"/>
       <use xlink:href="#DejaVuSans-30" x="63.623047"/>
       <use xlink:href="#DejaVuSans-30" x="127.246094"/>
      </g>
     </g>
    </g>
    <g id="xtick_3">
     <g id="line2d_3">
      <g>
       <use xlink:href="#m2b464175c3" x="295.895911" y="354.958125" style="stroke: #000000; stroke-width: 0.8"/>
      </g>
     </g>
     <g id="text_3">
      <!-- 1000 -->
      <g transform="translate(283.170911 369.556562)scale(0.1 -0.1)">
       <defs>
        <path id="DejaVuSans-31" d="M 794 531 
L 1825 531 
L 1825 4091 
L 703 3866 
L 703 4441 
L 1819 4666 
L 2450 4666 
L 2450 531 
L 3481 531 
L 3481 0 
L 794 0 
L 794 531 
z
" transform="scale(0.015625)"/>
       </defs>
       <use xlink:href="#DejaVuSans-31"/>
       <use xlink:href="#DejaVuSans-30" x="63.623047"/>
       <use xlink:href="#DejaVuSans-30" x="127.246094"/>
       <use xlink:href="#DejaVuSans-30" x="190.869141"/>
      </g>
     </g>
    </g>
    <g id="xtick_4">
     <g id="line2d_4">
      <g>
       <use xlink:href="#m2b464175c3" x="407.679235" y="354.958125" style="stroke: #000000; stroke-width: 0.8"/>
      </g>
     </g>
     <g id="text_4">
      <!-- 1500 -->
      <g transform="translate(394.954235 369.556562)scale(0.1 -0.1)">
       <use xlink:href="#DejaVuSans-31"/>
       <use xlink:href="#DejaVuSans-35" x="63.623047"/>
       <use xlink:href="#DejaVuSans-30" x="127.246094"/>
       <use xlink:href="#DejaVuSans-30" x="190.869141"/>
      </g>
     </g>
    </g>
    <g id="xtick_5">
     <g id="line2d_5">
      <g>
       <use xlink:href="#m2b464175c3" x="519.46256" y="354.958125" style="stroke: #000000; stroke-width: 0.8"/>
      </g>
     </g>
     <g id="text_5">
      <!-- 2000 -->
      <g transform="translate(506.73756 369.556562)scale(0.1 -0.1)">
       <defs>
        <path id="DejaVuSans-32" d="M 1228 531 
L 3431 531 
L 3431 0 
L 469 0 
L 469 531 
Q 828 903 1448 1529 
Q 2069 2156 2228 2338 
Q 2531 2678 2651 2914 
Q 2772 3150 2772 3378 
Q 2772 3750 2511 3984 
Q 2250 4219 1831 4219 
Q 1534 4219 1204 4116 
Q 875 4013 500 3803 
L 500 4441 
Q 881 4594 1212 4672 
Q 1544 4750 1819 4750 
Q 2544 4750 2975 4387 
Q 3406 4025 3406 3419 
Q 3406 3131 3298 2873 
Q 3191 2616 2906 2266 
Q 2828 2175 2409 1742 
Q 1991 1309 1228 531 
z
" transform="scale(0.015625)"/>
       </defs>
       <use xlink:href="#DejaVuSans-32"/>
       <use xlink:href="#DejaVuSans-30" x="63.623047"/>
       <use xlink:href="#DejaVuSans-30" x="127.246094"/>
       <use xlink:href="#DejaVuSans-30" x="190.869141"/>
      </g>
     </g>
    </g>
    <g id="text_6">
     <!-- Date -->
     <g transform="translate(314.014844 383.234687)scale(0.1 -0.1)">
      <defs>
       <path id="DejaVuSans-44" d="M 1259 4147 
L 1259 519 
L 2022 519 
Q 2988 519 3436 956 
Q 3884 1394 3884 2338 
Q 3884 3275 3436 3711 
Q 2988 4147 2022 4147 
L 1259 4147 
z
M 628 4666 
L 1925 4666 
Q 3281 4666 3915 4102 
Q 4550 3538 4550 2338 
Q 4550 1131 3912 565 
Q 3275 0 1925 0 
L 628 0 
L 628 4666 
z
" transform="scale(0.015625)"/>
       <path id="DejaVuSans-61" d="M 2194 1759 
Q 1497 1759 1228 1600 
Q 959 1441 959 1056 
Q 959 750 1161 570 
Q 1363 391 1709 391 
Q 2188 391 2477 730 
Q 2766 1069 2766 1631 
L 2766 1759 
L 2194 1759 
z
M 3341 1997 
L 3341 0 
L 2766 0 
L 2766 531 
Q 2569 213 2275 61 
Q 1981 -91 1556 -91 
Q 1019 -91 701 211 
Q 384 513 384 1019 
Q 384 1609 779 1909 
Q 1175 2209 1959 2209 
L 2766 2209 
L 2766 2266 
Q 2766 2663 2505 2880 
Q 2244 3097 1772 3097 
Q 1472 3097 1187 3025 
Q 903 2953 641 2809 
L 641 3341 
Q 956 3463 1253 3523 
Q 1550 3584 1831 3584 
Q 2591 3584 2966 3190 
Q 3341 2797 3341 1997 
z
" transform="scale(0.015625)"/>
       <path id="DejaVuSans-74" d="M 1172 4494 
L 1172 3500 
L 2356 3500 
L 2356 3053 
L 1172 3053 
L 1172 1153 
Q 1172 725 1289 603 
Q 1406 481 1766 481 
L 2356 481 
L 2356 0 
L 1766 0 
Q 1100 0 847 248 
Q 594 497 594 1153 
L 594 3053 
L 172 3053 
L 172 3500 
L 594 3500 
L 594 4494 
L 1172 4494 
z
" transform="scale(0.015625)"/>
       <path id="DejaVuSans-65" d="M 3597 1894 
L 3597 1613 
L 953 1613 
Q 991 1019 1311 708 
Q 1631 397 2203 397 
Q 2534 397 2845 478 
Q 3156 559 3463 722 
L 3463 178 
Q 3153 47 2828 -22 
Q 2503 -91 2169 -91 
Q 1331 -91 842 396 
Q 353 884 353 1716 
Q 353 2575 817 3079 
Q 1281 3584 2069 3584 
Q 2775 3584 3186 3129 
Q 3597 2675 3597 1894 
z
M 3022 2063 
Q 3016 2534 2758 2815 
Q 2500 3097 2075 3097 
Q 1594 3097 1305 2825 
Q 1016 2553 972 2059 
L 3022 2063 
z
" transform="scale(0.015625)"/>
      </defs>
      <use xlink:href="#DejaVuSans-44"/>
      <use xlink:href="#DejaVuSans-61" x="77.001953"/>
      <use xlink:href="#DejaVuSans-74" x="138.28125"/>
      <use xlink:href="#DejaVuSans-65" x="177.490234"/>
     </g>
    </g>
   </g>
   <g id="matplotlib.axis_2">
    <g id="ytick_1">
     <g id="line2d_6">
      <path d="M 46.965625 319.951023 
L 604.965625 319.951023 
" clip-path="url(#p2a4e8500b0)" style="fill: none; stroke: #dcdcdc; stroke-width: 0.5; stroke-linecap: square"/>
     </g>
     <g id="line2d_7">
      <defs>
       <path id="m321fbdc7e0" d="M 0 0 
L -3.5 0 
" style="stroke: #000000; stroke-width: 0.8"/>
      </defs>
      <g>
       <use xlink:href="#m321fbdc7e0" x="46.965625" y="319.951023" style="stroke: #000000; stroke-width: 0.8"/>
      </g>
     </g>
     <g id="text_7">
      <!-- 25 -->
      <g transform="translate(27.240625 323.750242)scale(0.1 -0.1)">
       <use xlink:href="#DejaVuSans-32"/>
       <use xlink:href="#DejaVuSans-35" x="63.623047"/>
      </g>
     </g>
    </g>
    <g id="ytick_2">
     <g id="line2d_8">
      <path d="M 46.965625 274.967758 
L 604.965625 274.967758 
" clip-path="url(#p2a4e8500b0)" style="fill: none; stroke: #dcdcdc; stroke-width: 0.5; stroke-linecap: square"/>
     </g>
     <g id="line2d_9">
      <g>
       <use xlink:href="#m321fbdc7e0" x="46.965625" y="274.967758" style="stroke: #000000; stroke-width: 0.8"/>
      </g>
     </g>
     <g id="text_8">
      <!-- 50 -->
      <g transform="translate(27.240625 278.766977)scale(0.1 -0.1)">
       <use xlink:href="#DejaVuSans-35"/>
       <use xlink:href="#DejaVuSans-30" x="63.623047"/>
      </g>
     </g>
    </g>
    <g id="ytick_3">
     <g id="line2d_10">
      <path d="M 46.965625 229.984493 
L 604.965625 229.984493 
" clip-path="url(#p2a4e8500b0)" style="fill: none; stroke: #dcdcdc; stroke-width: 0.5; stroke-linecap: square"/>
     </g>
     <g id="line2d_11">
      <g>
       <use xlink:href="#m321fbdc7e0" x="46.965625" y="229.984493" style="stroke: #000000; stroke-width: 0.8"/>
      </g>
     </g>
     <g id="text_9">
      <!-- 75 -->
      <g transform="translate(27.240625 233.783712)scale(0.1 -0.1)">
       <defs>
        <path id="DejaVuSans-37" d="M 525 4666 
L 3525 4666 
L 3525 4397 
L 1831 0 
L 1172 0 
L 2766 4134 
L 525 4134 
L 525 4666 
z
" transform="scale(0.015625)"/>
       </defs>
       <use xlink:href="#DejaVuSans-37"/>
       <use xlink:href="#DejaVuSans-35" x="63.623047"/>
      </g>
     </g>
    </g>
    <g id="ytick_4">
     <g id="line2d_12">
      <path d="M 46.965625 185.001228 
L 604.965625 185.001228 
" clip-path="url(#p2a4e8500b0)" style="fill: none; stroke: #dcdcdc; stroke-width: 0.5; stroke-linecap: square"/>
     </g>
     <g id="line2d_13">
      <g>
       <use xlink:href="#m321fbdc7e0" x="46.965625" y="185.001228" style="stroke: #000000; stroke-width: 0.8"/>
      </g>
     </g>
     <g id="text_10">
      <!-- 100 -->
      <g transform="translate(20.878125 188.800447)scale(0.1 -0.1)">
       <use xlink:href="#DejaVuSans-31"/>
       <use xlink:href="#DejaVuSans-30" x="63.623047"/>
       <use xlink:href="#DejaVuSans-30" x="127.246094"/>
      </g>
     </g>
    </g>
    <g id="ytick_5">
     <g id="line2d_14">
      <path d="M 46.965625 140.017963 
L 604.965625 140.017963 
" clip-path="url(#p2a4e8500b0)" style="fill: none; stroke: #dcdcdc; stroke-width: 0.5; stroke-linecap: square"/>
     </g>
     <g id="line2d_15">
      <g>
       <use xlink:href="#m321fbdc7e0" x="46.965625" y="140.017963" style="stroke: #000000; stroke-width: 0.8"/>
      </g>
     </g>
     <g id="text_11">
      <!-- 125 -->
      <g transform="translate(20.878125 143.817182)scale(0.1 -0.1)">
       <use xlink:href="#DejaVuSans-31"/>
       <use xlink:href="#DejaVuSans-32" x="63.623047"/>
       <use xlink:href="#DejaVuSans-35" x="127.246094"/>
      </g>
     </g>
    </g>
    <g id="ytick_6">
     <g id="line2d_16">
      <path d="M 46.965625 95.034698 
L 604.965625 95.034698 
" clip-path="url(#p2a4e8500b0)" style="fill: none; stroke: #dcdcdc; stroke-width: 0.5; stroke-linecap: square"/>
     </g>
     <g id="line2d_17">
      <g>
       <use xlink:href="#m321fbdc7e0" x="46.965625" y="95.034698" style="stroke: #000000; stroke-width: 0.8"/>
      </g>
     </g>
     <g id="text_12">
      <!-- 150 -->
      <g transform="translate(20.878125 98.833916)scale(0.1 -0.1)">
       <use xlink:href="#DejaVuSans-31"/>
       <use xlink:href="#DejaVuSans-35" x="63.623047"/>
       <use xlink:href="#DejaVuSans-30" x="127.246094"/>
      </g>
     </g>
    </g>
    <g id="ytick_7">
     <g id="line2d_18">
      <path d="M 46.965625 50.051433 
L 604.965625 50.051433 
" clip-path="url(#p2a4e8500b0)" style="fill: none; stroke: #dcdcdc; stroke-width: 0.5; stroke-linecap: square"/>
     </g>
     <g id="line2d_19">
      <g>
       <use xlink:href="#m321fbdc7e0" x="46.965625" y="50.051433" style="stroke: #000000; stroke-width: 0.8"/>
      </g>
     </g>
     <g id="text_13">
      <!-- 175 -->
      <g transform="translate(20.878125 53.850651)scale(0.1 -0.1)">
       <use xlink:href="#DejaVuSans-31"/>
       <use xlink:href="#DejaVuSans-37" x="63.623047"/>
       <use xlink:href="#DejaVuSans-35" x="127.246094"/>
      </g>
     </g>
    </g>
    <g id="text_14">
     <!-- Price (USD) -->
     <g transform="translate(14.798437 217.01)rotate(-90)scale(0.1 -0.1)">
      <defs>
       <path id="DejaVuSans-50" d="M 1259 4147 
L 1259 2394 
L 2053 2394 
Q 2494 2394 2734 2622 
Q 2975 2850 2975 3272 
Q 2975 3691 2734 3919 
Q 2494 4147 2053 4147 
L 1259 4147 
z
M 628 4666 
L 2053 4666 
Q 2838 4666 3239 4311 
Q 3641 3956 3641 3272 
Q 3641 2581 3239 2228 
Q 2838 1875 2053 1875 
L 1259 1875 
L 1259 0 
L 628 0 
L 628 4666 
z
" transform="scale(0.015625)"/>
       <path id="DejaVuSans-72" d="M 2631 2963 
Q 2534 3019 2420 3045 
Q 2306 3072 2169 3072 
Q 1681 3072 1420 2755 
Q 1159 2438 1159 1844 
L 1159 0 
L 581 0 
L 581 3500 
L 1159 3500 
L 1159 2956 
Q 1341 3275 1631 3429 
Q 1922 3584 2338 3584 
Q 2397 3584 2469 3576 
Q 2541 3569 2628 3553 
L 2631 2963 
z
" transform="scale(0.015625)"/>
       <path id="DejaVuSans-69" d="M 603 3500 
L 1178 3500 
L 1178 0 
L 603 0 
L 603 3500 
z
M 603 4863 
L 1178 4863 
L 1178 4134 
L 603 4134 
L 603 4863 
z
" transform="scale(0.015625)"/>
       <path id="DejaVuSans-63" d="M 3122 3366 
L 3122 2828 
Q 2878 2963 2633 3030 
Q 2388 3097 2138 3097 
Q 1578 3097 1268 2742 
Q 959 2388 959 1747 
Q 959 1106 1268 751 
Q 1578 397 2138 397 
Q 2388 397 2633 464 
Q 2878 531 3122 666 
L 3122 134 
Q 2881 22 2623 -34 
Q 2366 -91 2075 -91 
Q 1284 -91 818 406 
Q 353 903 353 1747 
Q 353 2603 823 3093 
Q 1294 3584 2113 3584 
Q 2378 3584 2631 3529 
Q 2884 3475 3122 3366 
z
" transform="scale(0.015625)"/>
       <path id="DejaVuSans-20" transform="scale(0.015625)"/>
       <path id="DejaVuSans-28" d="M 1984 4856 
Q 1566 4138 1362 3434 
Q 1159 2731 1159 2009 
Q 1159 1288 1364 580 
Q 1569 -128 1984 -844 
L 1484 -844 
Q 1016 -109 783 600 
Q 550 1309 550 2009 
Q 550 2706 781 3412 
Q 1013 4119 1484 4856 
L 1984 4856 
z
" transform="scale(0.015625)"/>
       <path id="DejaVuSans-55" d="M 556 4666 
L 1191 4666 
L 1191 1831 
Q 1191 1081 1462 751 
Q 1734 422 2344 422 
Q 2950 422 3222 751 
Q 3494 1081 3494 1831 
L 3494 4666 
L 4128 4666 
L 4128 1753 
Q 4128 841 3676 375 
Q 3225 -91 2344 -91 
Q 1459 -91 1007 375 
Q 556 841 556 1753 
L 556 4666 
z
" transform="scale(0.015625)"/>
       <path id="DejaVuSans-53" d="M 3425 4513 
L 3425 3897 
Q 3066 4069 2747 4153 
Q 2428 4238 2131 4238 
Q 1616 4238 1336 4038 
Q 1056 3838 1056 3469 
Q 1056 3159 1242 3001 
Q 1428 2844 1947 2747 
L 2328 2669 
Q 3034 2534 3370 2195 
Q 3706 1856 3706 1288 
Q 3706 609 3251 259 
Q 2797 -91 1919 -91 
Q 1588 -91 1214 -16 
Q 841 59 441 206 
L 441 856 
Q 825 641 1194 531 
Q 1563 422 1919 422 
Q 2459 422 2753 634 
Q 3047 847 3047 1241 
Q 3047 1584 2836 1778 
Q 2625 1972 2144 2069 
L 1759 2144 
Q 1053 2284 737 2584 
Q 422 2884 422 3419 
Q 422 4038 858 4394 
Q 1294 4750 2059 4750 
Q 2388 4750 2728 4690 
Q 3069 4631 3425 4513 
z
" transform="scale(0.015625)"/>
       <path id="DejaVuSans-29" d="M 513 4856 
L 1013 4856 
Q 1481 4119 1714 3412 
Q 1947 2706 1947 2009 
Q 1947 1309 1714 600 
Q 1481 -109 1013 -844 
L 513 -844 
Q 928 -128 1133 580 
Q 1338 1288 1338 2009 
Q 1338 2731 1133 3434 
Q 928 4138 513 4856 
z
" transform="scale(0.015625)"/>
      </defs>
      <use xlink:href="#DejaVuSans-50"/>
      <use xlink:href="#DejaVuSans-72" x="58.552734"/>
      <use xlink:href="#DejaVuSans-69" x="99.666016"/>
      <use xlink:href="#DejaVuSans-63" x="127.449219"/>
      <use xlink:href="#DejaVuSans-65" x="182.429688"/>
      <use xlink:href="#DejaVuSans-20" x="243.953125"/>
      <use xlink:href="#DejaVuSans-28" x="275.740234"/>
      <use xlink:href="#DejaVuSans-55" x="314.753906"/>
      <use xlink:href="#DejaVuSans-53" x="387.947266"/>
      <use xlink:href="#DejaVuSans-44" x="451.423828"/>
      <use xlink:href="#DejaVuSans-29" x="528.425781"/>
     </g>
    </g>
   </g>
   <g id="line2d_20">
    <path d="M 73.223528 77.779117 
L 73.670661 93.919113 
L 74.117795 79.704401 
M 90.885293 76.05176 
L 91.10886 80.873966 
L 91.555993 93.235367 
L 91.77956 95.034698 
L 92.003127 95.052691 
L 92.226693 98.867272 
L 92.45026 98.777305 
L 92.673826 93.57724 
M 93.344526 93.30734 
L 93.568093 92.353695 
L 94.015226 96.906002 
L 94.238793 95.394564 
M 96.698026 106.262521 
L 96.921593 111.390613 
L 97.145159 110.311015 
M 97.592293 107.809945 
L 97.815859 107.108206 
L 98.486559 114.575428 
M 113.912658 125.425392 
L 114.583358 123.859974 
L 115.030491 130.193618 
L 115.254058 127.800508 
L 115.477625 130.75141 
L 115.701191 131.669069 
L 115.924758 130.157631 
L 116.148325 135.789536 
L 116.371891 138.020706 
L 116.595458 136.185389 
L 116.819025 136.887128 
L 117.042591 138.398565 
L 117.266158 138.416559 
L 117.489725 142.644986 
L 117.713291 139.910003 
L 117.936858 141.313481 
M 127.326657 145.146055 
L 127.550224 149.194549 
L 127.77379 146.513546 
L 127.997357 146.837426 
L 128.44449 148.852676 
L 128.668057 144.444316 
M 129.11519 149.032609 
L 129.338757 148.060971 
M 144.764856 142.267126 
L 144.988422 144.966122 
M 146.106256 155.150333 
L 146.329822 156.157958 
L 146.553389 157.705383 
L 146.776956 160.080499 
M 162.650188 157.993276 
L 162.873754 161.591937 
L 163.097321 168.132504 
L 163.320888 162.100248 
L 163.544454 165.006167 
L 163.768021 159.986034 
L 163.991588 166.895464 
L 164.215154 167.610698 
L 164.438721 168.919711 
L 164.662288 173.737418 
L 164.885854 191.856678 
L 165.109421 193.925908 
L 165.332987 197.142211 
L 165.556554 194.339754 
L 165.780121 198.289285 
L 166.003687 197.875438 
M 166.897954 191.60927 
L 167.121521 191.2584 
M 169.357187 201.145722 
L 169.580754 200.835337 
L 169.80432 202.193832 
L 170.027887 205.859968 
M 171.14572 207.618814 
L 171.369287 206.71465 
L 171.592854 206.777627 
M 173.604953 219.944228 
L 173.82852 218.684697 
L 174.052087 219.485399 
M 174.49922 221.914495 
L 174.722787 221.775047 
L 174.946353 221.838024 
M 175.84062 221.334211 
L 176.064187 224.073692 
L 176.287753 223.254997 
L 176.51132 226.516283 
M 178.52342 233.061349 
L 178.746986 234.901164 
L 178.970553 232.773456 
L 179.19412 235.50394 
L 179.417686 239.619909 
M 179.86482 237.645143 
L 180.088386 241.216814 
L 180.311953 240.735494 
L 180.53552 244.2127 
L 180.759086 240.362132 
M 197.079452 231.140563 
L 197.303018 229.827052 
L 197.526585 232.840931 
L 197.973718 234.572786 
L 198.197285 234.523305 
L 198.420852 237.060361 
L 198.644418 237.181816 
L 198.867985 239.233052 
L 199.091552 238.97215 
L 199.315118 239.098103 
L 199.538685 238.796715 
L 199.762251 239.044123 
L 200.209385 242.822717 
L 200.432951 243.133102 
L 200.880085 244.864957 
L 201.103651 243.160092 
L 201.550785 247.19509 
L 201.774351 248.225207 
L 201.997918 246.106495 
M 206.692818 253.033918 
L 206.916384 255.507998 
L 207.139951 255.494503 
L 207.363518 252.903467 
L 207.810651 255.364051 
L 208.034217 255.543984 
L 208.257784 256.992446 
L 208.481351 256.745038 
L 208.704917 258.589351 
L 209.152051 259.50701 
L 209.599184 258.832261 
L 209.822751 258.679318 
L 210.046317 261.432294 
L 210.493451 263.991842 
L 210.717017 262.795287 
L 210.940584 262.817778 
L 211.164151 265.602243 
L 211.387717 266.438931 
L 211.611284 263.906373 
M 212.729117 267.014717 
L 212.952684 266.546891 
M 216.753317 272.480184 
L 216.976883 273.096454 
M 229.496616 279.39861 
L 229.943749 282.821836 
L 230.167316 284.126351 
L 230.390882 286.97829 
L 230.614449 286.182086 
L 230.838016 284.729127 
L 231.061582 285.142973 
L 231.732282 284.117354 
M 239.333548 276.906537 
L 239.557115 277.05948 
L 239.780682 277.657758 
L 240.004248 278.908292 
L 240.451382 280.041871 
L 240.674948 280.154329 
L 240.898515 280.910048 
L 241.122082 280.032874 
M 243.581315 287.153725 
L 243.804881 287.338156 
M 244.475581 285.831217 
L 244.699148 286.22707 
L 244.922715 287.045765 
L 245.146281 286.272053 
L 245.369848 286.514962 
L 245.593415 286.559946 
L 246.040548 287.985915 
L 246.264115 287.549578 
M 249.617614 295.354174 
L 250.064748 293.96869 
L 250.288314 296.244843 
L 250.511881 295.696047 
L 250.735448 295.974943 
M 251.182581 294.823372 
L 251.406147 295.237218 
L 251.629714 296.078405 
L 251.853281 297.459391 
L 252.076847 296.429274 
M 274.880646 270.361472 
L 275.104212 270.58189 
L 275.551346 271.580518 
L 275.774912 270.973244 
L 275.998479 271.706472 
L 276.222046 271.769448 
M 277.116312 274.293009 
L 277.339879 279.335633 
L 277.563445 279.50657 
L 277.787012 279.025249 
L 278.010579 277.572289 
L 278.234145 277.297891 
L 278.681279 278.741854 
L 278.904845 278.818326 
L 279.128412 278.620399 
L 279.351979 279.286152 
L 279.575545 278.813827 
L 279.799112 279.056737 
L 280.022679 278.867807 
L 280.246245 279.002757 
M 281.364078 281.535315 
L 281.587645 282.201067 
M 288.741778 280.820081 
L 288.965345 280.28478 
L 289.188911 281.067489 
M 290.977444 285.363391 
L 291.201011 285.507337 
L 291.648144 290.594945 
L 291.871711 291.917453 
L 292.095278 291.062771 
L 292.542411 291.638556 
L 292.765978 290.603941 
L 292.989544 290.388022 
M 303.27361 291.008791 
L 303.497177 291.742018 
L 303.720743 294.575964 
L 303.94431 295.142753 
L 304.391443 291.598071 
L 304.61501 294.539977 
M 309.98061 288.809109 
L 310.204176 287.976919 
L 310.427743 288.192838 
L 310.65131 288.206333 
M 320.041109 294.575964 
L 320.264675 294.265579 
L 320.488242 294.683923 
L 320.711809 294.647937 
L 320.935375 294.769392 
L 321.158942 293.069024 
L 321.382509 292.749643 
L 321.606075 293.015044 
L 321.829642 294.315061 
L 322.053209 294.760395 
L 322.276775 294.512987 
L 322.500342 294.805378 
M 324.288875 295.98394 
L 324.512442 295.556599 
L 324.736008 296.046916 
L 324.959575 297.211983 
M 337.255741 300.077417 
L 337.479307 300.729674 
L 337.702874 300.117902 
L 337.926441 300.383303 
L 338.150007 300.14939 
L 338.373574 300.302333 
M 348.434073 300.302333 
L 348.65764 299.919976 
L 349.104773 300.936597 
L 349.32834 300.860126 
L 349.551907 301.651831 
L 349.99904 301.134524 
L 350.222606 301.485393 
L 350.446173 301.148019 
L 350.66974 301.22449 
M 355.588206 302.344573 
L 355.811773 302.551497 
M 357.823873 303.460158 
L 358.047439 303.518637 
M 359.165272 303.977466 
L 359.388839 304.197884 
L 359.835972 305.502399 
L 360.059539 305.367449 
L 360.506672 305.7678 
L 360.953806 306.86989 
L 361.177372 307.117298 
L 361.400939 307.018335 
L 361.624506 310.347096 
L 362.295206 310.081695 
L 362.518772 310.108685 
L 362.742339 310.967865 
L 363.189472 310.95437 
L 363.413039 311.053334 
L 363.860172 310.95437 
L 364.083739 311.38621 
L 364.307305 311.291745 
L 364.530872 311.066829 
L 364.754439 311.354722 
L 364.978005 311.408701 
L 365.648705 312.744704 
L 365.872272 312.686226 
L 366.095839 312.834671 
L 366.319405 312.425323 
L 366.542972 312.411828 
M 369.449338 314.499052 
L 370.120038 315.853048 
L 370.343605 315.49768 
L 370.567172 315.682112 
L 371.014305 314.795941 
M 379.509838 314.080707 
L 379.733404 314.103199 
L 379.956971 314.319119 
L 380.180537 314.080707 
L 380.404104 314.472062 
M 380.851237 314.062714 
L 381.298371 314.23365 
M 383.310471 317.503934 
L 383.534037 318.543047 
L 383.757604 317.467947 
M 389.34677 317.346492 
L 389.570337 317.935773 
M 390.01747 318.057228 
L 390.241037 317.99875 
L 390.464603 318.624017 
L 390.68817 321.448966 
L 390.911737 321.147578 
L 391.35887 320.207428 
L 391.582437 319.969017 
L 392.02957 320.027495 
L 392.253137 320.499819 
L 392.476703 320.495321 
L 392.70027 321.359 
L 392.923836 321.111592 
L 393.594536 321.777344 
M 394.488803 321.930287 
L 395.159503 323.531691 
L 395.38307 322.919919 
M 400.972236 322.560053 
L 401.195802 322.398113 
L 401.419369 322.879434 
L 401.642936 322.703999 
L 401.866502 324.215437 
L 402.090069 324.296407 
M 402.537202 322.910922 
L 402.760769 323.194317 
L 402.984336 323.225805 
L 403.207902 322.991892 
M 411.032735 317.265523 
L 411.703435 318.934402 
L 411.927002 319.424719 
L 412.374135 319.487696 
M 413.044835 319.276274 
L 413.268402 319.613649 
L 413.491968 319.712612 
L 413.715535 321.43997 
L 413.939102 321.341006 
L 414.162668 321.408481 
L 414.386235 321.705371 
L 414.609801 322.339635 
M 415.951201 322.654518 
L 416.174768 322.784969 
M 434.0601 314.984871 
L 434.283667 314.616008 
L 434.507233 315.358232 
M 472.960697 311.080324 
L 473.184264 311.435691 
L 473.40783 310.98136 
L 473.631397 311.152297 
L 473.854964 311.561645 
L 474.07853 311.570641 
L 474.302097 312.231895 
L 474.525663 311.449186 
L 474.74923 313.064086 
L 474.972797 315.839553 
L 475.196363 314.058216 
L 475.41993 314.112196 
L 475.643497 314.373099 
L 475.867063 315.655122 
L 476.09063 316.028483 
L 476.314197 317.256526 
L 476.537763 316.883165 
M 486.821829 315.898031 
L 487.045396 316.037479 
L 487.268962 315.965506 
L 487.492529 316.082463 
L 487.716096 315.722597 
L 488.163229 316.811192 
L 488.386796 316.649252 
L 488.610362 316.919151 
L 488.833929 317.652379 
L 489.057496 317.602897 
L 489.281062 317.778332 
L 489.504629 318.606024 
L 489.728196 318.839937 
L 490.175329 320.999134 
L 490.398896 321.633398 
L 491.069596 320.036492 
M 500.682961 321.763849 
L 500.906528 321.754852 
L 501.130095 322.317143 
L 501.353661 322.4341 
L 502.247928 321.691876 
L 502.471495 321.930287 
M 508.060661 324.28741 
L 508.284228 324.323397 
L 508.507794 324.075989 
L 508.731361 324.040002 
M 509.625627 323.459718 
L 509.849194 323.873564 
M 513.202694 325.910047 
L 513.873394 326.082243 
L 514.320527 327.095626 
L 514.544094 326.771026 
L 514.991227 326.837961 
L 515.214794 327.306327 
L 515.885494 326.736479 
M 517.674027 328.448362 
L 517.897593 331.212854 
L 518.12116 330.76626 
L 518.344727 330.800267 
L 518.79186 331.581717 
L 519.015427 331.649191 
L 519.238993 331.41024 
L 519.46256 331.543211 
L 519.686127 331.294543 
L 519.909693 330.854967 
L 520.13326 331.297062 
L 520.356827 331.295083 
L 520.580393 330.758523 
M 530.640892 332.817317 
L 530.864459 332.75524 
L 531.088026 332.385657 
M 540.924958 331.445147 
L 541.148525 331.839381 
L 541.372092 331.546989 
L 541.595658 331.606187 
M 542.042792 330.993695 
L 542.266358 331.477355 
L 542.713492 331.579377 
L 542.937058 331.482214 
L 543.160625 332.000601 
M 547.631958 333.469214 
L 547.855524 333.665341 
L 548.079091 334.028266 
L 548.302658 333.590669 
L 548.526224 333.893856 
L 548.749791 333.869565 
L 548.973358 333.474253 
L 549.196924 333.577174 
L 549.420491 334.297446 
M 558.363157 335.210607 
L 558.81029 335.853867 
L 559.033857 335.803126 
L 559.704557 336.755512 
L 559.928123 336.62632 
L 560.15169 338.009285 
M 560.598823 337.626208 
L 560.82239 337.188791 
L 561.716657 337.525985 
L 561.940223 337.475964 
L 562.16379 337.897367 
L 562.387357 337.793366 
L 562.610923 338.262451 
M 563.728757 339.452528 
L 563.952323 339.629223 
L 564.399456 339.060634 
L 564.623023 339.066392 
M 574.012822 338.878542 
L 574.236389 338.835718 
L 574.683522 339.838125 
L 574.907089 339.740421 
L 575.130656 339.049658 
L 575.130656 339.049658 
" clip-path="url(#p2a4e8500b0)" style="fill: none; stroke: #00ff7f; stroke-linecap: square"/>
   </g>
   <g id="line2d_21">
    <path d="M 83.73116 55.449424 
L 83.954727 50.195379 
L 84.178294 41.594579 
L 84.40186 37.438125 
L 84.625427 45.427153 
L 84.848994 44.293575 
L 85.07256 42.170364 
M 102.287192 87.711422 
L 102.510759 85.840118 
L 102.734326 82.997176 
M 123.749591 123.248202 
L 123.973157 127.530608 
M 134.257223 125.281445 
L 134.48079 121.358904 
L 134.704357 121.790744 
L 134.927923 121.322918 
L 135.15149 120.207333 
M 135.598623 118.857835 
L 135.82219 117.724257 
L 136.045756 123.931947 
L 136.269323 122.04265 
L 136.49289 123.572081 
M 137.16359 109.321383 
L 137.387156 107.342119 
M 153.260388 147.035352 
L 153.483955 141.097561 
M 159.520255 128.502247 
L 159.743821 123.500108 
M 191.713852 220.974345 
L 191.937419 218.644212 
M 233.744382 276.236286 
L 234.191515 273.663244 
L 234.415082 273.681237 
L 234.862215 269.682225 
L 235.085782 270.85179 
L 235.309349 270.235519 
M 257.88958 281.796218 
L 258.113147 284.603174 
L 258.56028 283.541569 
M 261.24308 272.957006 
L 261.466647 271.148679 
L 261.690213 270.491923 
L 261.91378 273.271889 
L 262.137347 274.252524 
L 262.360913 271.60301 
L 262.58448 264.972477 
L 262.808047 266.483915 
M 285.611845 277.909664 
L 285.835411 277.675751 
L 286.058978 277.977139 
L 286.282545 278.642891 
M 306.850676 285.313909 
L 307.29781 284.297288 
L 307.521376 284.369261 
L 307.744943 285.678274 
L 307.96851 285.273424 
M 328.089508 292.025412 
L 328.313075 291.139242 
L 328.536641 291.161734 
L 328.760208 291.454125 
M 343.515607 295.835495 
L 343.739174 295.718539 
L 343.96274 295.95695 
M 376.156338 312.938132 
L 376.379904 311.741578 
L 376.603471 312.011477 
L 376.827038 312.483801 
L 377.050604 312.276878 
L 377.274171 312.249888 
L 377.721304 312.05646 
L 377.944871 312.020474 
L 378.168438 312.312865 
L 378.392004 312.150925 
M 398.289436 320.387361 
L 398.513003 320.567294 
M 399.407269 320.014 
L 399.630836 319.793582 
M 404.772869 317.994251 
L 405.220002 317.395974 
L 405.443569 317.265523 
L 405.667135 316.743717 
L 405.890702 316.84268 
L 406.114269 316.586275 
L 406.561402 314.508048 
L 406.784969 314.535038 
L 407.232102 315.893533 
L 407.679235 316.109453 
L 407.902802 315.020858 
M 422.658201 316.658248 
L 422.881767 316.019486 
M 424.446734 315.911526 
L 424.670301 314.849921 
L 424.893867 315.232279 
L 425.117434 314.337112 
L 425.341001 314.022229 
L 425.564567 312.677229 
L 425.788134 312.924637 
L 426.011701 311.750574 
L 426.235267 311.728083 
L 426.458834 311.390708 
M 426.905967 312.627748 
L 427.3531 311.719086 
L 427.576667 311.939504 
M 447.697666 308.606244 
L 447.921232 306.118669 
L 448.144799 305.52489 
L 448.368365 306.62698 
L 448.815499 307.886512 
M 456.193198 305.655342 
L 456.416765 305.536226 
M 483.915463 311.404203 
L 484.139029 312.033969 
L 484.362596 311.5728 
M 522.14536 330.246973 
L 522.368926 329.912298 
M 566.635123 336.81327 
L 567.082256 336.542651 
L 567.305823 336.758031 
L 567.752956 336.06079 
L 567.976523 335.970284 
L 568.20009 336.03344 
L 568.423656 335.914865 
M 577.813455 337.371783 
L 578.260589 335.882836 
L 578.484155 335.300933 
L 578.707722 335.143851 
L 578.931289 335.251091 
M 579.601989 335.727914 
" clip-path="url(#p2a4e8500b0)" style="fill: none; stroke: #ff4500; stroke-linecap: square"/>
   </g>
   <g id="line2d_22">
    <path d="M 72.329261 61.171296 
L 72.552828 67.360993 
L 72.776395 69.880056 
L 72.999961 75.925807 
M 74.788495 78.300923 
L 75.235628 65.831562 
L 75.459194 65.237783 
L 75.682761 71.283534 
L 75.906328 67.828819 
L 76.129894 68.314638 
L 76.577028 76.915438 
L 77.024161 63.906278 
L 77.247728 61.063336 
L 77.471294 54.459793 
M 77.918428 61.063336 
L 78.141994 61.495175 
L 78.589128 47.748289 
L 78.812694 50.357319 
L 79.036261 56.061197 
L 79.483394 53.830027 
M 79.930527 50.753171 
L 80.154094 50.447285 
L 80.377661 58.454306 
L 80.601227 78.44487 
L 80.824794 77.599184 
L 81.048361 77.437244 
L 81.271927 74.126476 
L 81.495494 72.705005 
L 81.942627 65.831562 
L 82.389761 53.524141 
L 82.613327 55.107552 
L 82.836894 49.097787 
L 83.060461 49.907486 
L 83.284027 55.107552 
L 83.507594 55.143538 
M 85.296127 42.332304 
L 85.519694 40.461 
L 85.74326 47.748289 
L 85.966827 48.899861 
L 86.41396 59.497918 
L 86.861094 54.981598 
L 87.08466 42.314311 
L 87.308227 51.256984 
L 87.531794 48.719928 
L 87.75536 42.044411 
L 87.978927 50.843138 
L 88.202493 49.907486 
L 88.42606 56.924875 
L 88.873193 73.730623 
L 89.320327 68.458585 
L 89.543893 67.504939 
L 89.991027 82.781256 
L 90.214593 73.55069 
L 90.661727 75.206074 
M 92.897393 94.242992 
L 93.12096 92.731555 
M 94.46236 90.410418 
L 94.685926 97.103928 
L 94.909493 96.258243 
L 95.13306 97.481787 
L 95.356626 97.391821 
L 95.580193 95.97035 
L 95.80376 96.366202 
L 96.027326 97.265868 
L 96.474459 104.319244 
M 98.710126 108.259778 
L 98.933693 110.329008 
L 99.157259 107.935898 
L 99.380826 109.591282 
L 99.604393 103.365598 
L 99.827959 100.576636 
L 100.051526 100.738576 
L 100.275093 102.50192 
L 100.498659 106.8563 
L 100.722226 107.737972 
L 101.169359 97.211888 
L 101.392926 96.780048 
L 101.616492 98.417439 
L 101.840059 95.844396 
L 102.063626 96.888008 
M 102.957892 87.297576 
L 103.181459 88.467141 
L 103.628592 91.741923 
M 104.075726 97.553761 
L 104.299292 99.461051 
L 104.522859 97.9856 
L 104.746426 95.718443 
L 104.969992 95.556504 
L 105.417125 100.972489 
M 105.864259 94.692825 
L 106.087825 93.019447 
L 106.311392 96.654095 
L 106.534959 97.031955 
L 106.758525 102.483926 
L 106.982092 102.951752 
L 107.205659 102.07008 
L 107.429225 101.980114 
L 107.652792 100.32473 
L 107.876359 100.522656 
L 108.099925 99.784931 
L 108.323492 103.095699 
L 108.547059 102.483926 
L 108.770625 102.879779 
M 109.217758 100.846536 
L 109.441325 96.852022 
L 109.664892 97.625734 
L 110.112025 103.311618 
L 110.335592 101.962121 
L 110.559158 108.619644 
L 111.006292 97.76968 
L 111.229858 96.564129 
L 111.453425 102.879779 
L 111.676992 104.931016 
L 111.900558 103.833424 
L 112.124125 107.198173 
L 112.347692 104.805063 
L 113.018392 117.940176 
L 113.241958 118.497969 
L 113.465525 119.631547 
L 113.689091 122.42051 
M 118.607558 136.689201 
L 118.831124 136.599235 
L 119.054691 136.239369 
L 119.278258 139.244251 
L 119.501824 135.861509 
L 119.725391 140.575755 
L 119.948958 140.287862 
L 120.396091 135.609603 
L 120.843224 144.03047 
L 121.066791 138.380572 
L 121.290358 136.689201 
L 121.513924 130.64345 
L 121.737491 131.489136 
L 121.961058 134.440038 
L 122.184624 134.889871 
L 122.408191 126.45101 
L 122.631757 128.394287 
L 122.855324 124.759639 
L 123.078891 124.579706 
L 123.302457 123.122248 
L 123.526024 122.528469 
M 124.196724 124.723653 
L 124.420291 125.425392 
L 124.643857 122.31255 
L 124.867424 123.536095 
L 125.090991 122.924322 
L 125.314557 127.368669 
L 125.538124 123.050275 
L 125.761691 128.79014 
L 125.985257 125.632315 
L 126.655957 137.840773 
L 126.879524 138.398565 
L 127.10309 143.616624 
M 129.562324 140.449802 
L 129.78589 138.992344 
L 130.009457 141.835287 
L 130.233024 147.161305 
L 130.45659 145.487928 
L 130.680157 149.050603 
L 130.903723 147.062342 
L 131.12729 155.564179 
L 131.350857 146.459566 
L 131.574423 148.780703 
L 131.79799 145.307995 
L 132.245123 134.99783 
L 132.46869 146.747459 
L 132.692257 147.233279 
L 132.915823 139.388197 
L 133.13939 138.470539 
L 133.362957 138.218632 
L 133.586523 131.255223 
L 133.81009 131.543116 
L 134.033657 129.509872 
M 136.716456 127.494622 
L 136.940023 118.264056 
M 137.610723 107.773958 
L 138.50499 134.925857 
L 138.728556 136.167395 
L 139.17569 129.419906 
L 139.399256 133.180507 
L 139.622823 132.856627 
L 139.846389 127.332682 
L 140.069956 129.365926 
M 140.517089 129.203986 
L 140.740656 132.082915 
L 140.964223 126.18111 
L 141.411356 122.25857 
L 141.634923 118.983788 
L 141.858489 127.476629 
L 142.082056 129.293952 
L 142.305623 127.638568 
L 142.529189 134.206125 
L 142.752756 137.040071 
L 142.976323 133.36044 
L 143.199889 134.961844 
L 143.423456 134.835891 
L 143.647022 145.811807 
L 144.094156 143.184785 
M 145.211989 143.724584 
L 145.435556 143.472678 
L 145.659122 144.120437 
L 145.882689 150.72398 
M 147.000522 153.800835 
L 147.224089 151.461706 
L 147.447656 152.559297 
L 147.894789 148.474817 
L 148.118355 150.346121 
L 148.341922 150.436087 
L 148.565489 149.932274 
L 148.789055 156.265918 
L 149.012622 155.636153 
L 149.236189 151.371739 
L 149.459755 150.759967 
L 150.130455 169.221099 
M 150.577589 157.435483 
L 150.801155 164.848725 
L 151.024722 155.13234 
L 151.248289 157.921302 
L 151.471855 157.939296 
L 151.695422 156.661771 
L 152.142555 153.494949 
L 152.366122 156.247925 
L 152.813255 147.737091 
L 153.036822 146.873412 
M 153.707522 154.466588 
L 153.931088 158.065249 
L 154.154655 157.867322 
L 154.378222 161.322037 
L 154.601788 155.312273 
L 154.825355 161.573944 
L 155.048922 154.790467 
L 155.272488 156.553811 
L 155.496055 159.64866 
L 155.719622 158.083242 
L 155.943188 162.905448 
L 156.166755 170.21073 
L 156.390322 172.189994 
L 156.613888 163.751134 
L 156.837455 166.863976 
L 157.061021 172.693807 
L 157.508155 163.175348 
L 157.731721 157.03963 
L 157.955288 157.372507 
L 158.178855 163.409261 
L 158.402421 160.728258 
L 158.625988 153.836822 
L 158.849555 161.93381 
L 159.073121 147.287259 
L 159.296688 147.431205 
M 159.967388 132.748667 
L 160.190955 140.364334 
L 160.414521 139.99997 
L 160.638088 137.278482 
L 160.861654 140.332846 
L 161.085221 138.475037 
L 161.308788 141.151541 
L 161.532354 152.118461 
L 161.755921 156.738243 
L 161.979488 156.999145 
L 162.203054 158.717506 
L 162.426621 158.177707 
M 167.345087 189.094705 
L 167.568654 190.295758 
L 167.792221 193.138701 
L 168.015787 192.342497 
L 168.462921 193.38161 
L 168.686487 197.286158 
L 168.910054 196.764352 
L 169.133621 201.145722 
M 170.698587 200.057127 
L 170.922154 203.502845 
M 172.710687 206.215336 
L 173.15782 214.933093 
L 173.381387 215.814765 
M 175.16992 222.458793 
L 175.393487 221.487154 
L 175.617053 222.404813 
M 177.18202 224.851903 
L 177.405587 223.232505 
L 178.299853 231.082085 
M 180.982653 237.721615 
L 181.20622 235.971766 
L 181.429786 236.988388 
L 181.653353 235.809826 
L 181.87692 242.017517 
L 182.100486 244.383636 
L 182.324053 245.247315 
L 182.547619 248.234204 
L 182.771186 246.866713 
M 183.218319 254.756777 
L 183.441886 256.565105 
L 183.665453 250.546344 
L 183.889019 250.312431 
L 184.112586 253.492748 
L 184.336153 248.679538 
L 184.559719 254.491376 
L 184.783286 253.879604 
M 185.230419 261.814652 
L 185.453986 254.824252 
L 185.677553 253.974068 
L 185.901119 251.189604 
L 186.124686 255.980322 
L 186.348253 239.894306 
L 186.571819 253.27233 
L 186.795386 241.036881 
L 187.018952 236.57904 
L 187.242519 245.202332 
L 187.466086 234.919157 
L 187.689652 233.169308 
L 187.913219 228.751952 
L 188.136786 234.788706 
L 188.360352 230.519794 
L 188.583919 241.968035 
L 188.807486 241.896062 
L 189.031052 233.290763 
L 189.254619 235.346498 
L 190.148886 219.359446 
L 190.372452 221.437673 
L 190.596019 218.761169 
L 190.819585 218.797155 
L 191.043152 217.749045 
L 191.266719 221.163275 
L 191.490285 220.2906 
M 192.608119 226.088942 
L 192.831685 225.706585 
L 193.055252 219.246988 
L 193.278819 219.035566 
L 193.725952 225.958491 
L 193.949519 221.748057 
L 194.173085 221.334211 
L 194.620219 222.530766 
L 194.843785 221.559128 
L 195.290918 224.883391 
L 195.514485 224.280615 
L 195.738052 222.355331 
L 195.961618 225.337722 
L 196.185185 225.652605 
L 196.632318 230.708724 
L 196.855885 230.07446 
M 202.221485 244.716513 
L 202.445051 244.451111 
L 202.668618 246.048017 
L 202.892185 245.112365 
L 203.115751 247.177097 
L 203.339318 247.073636 
L 203.562885 246.542833 
L 203.786451 245.148352 
L 204.010018 244.783987 
L 204.233584 245.386763 
L 204.457151 246.790241 
L 204.680718 245.967047 
L 204.904284 247.096127 
L 205.127851 246.988167 
L 205.351418 247.914823 
L 205.574984 248.234204 
L 205.798551 249.219337 
L 206.022118 249.268819 
L 206.245684 249.102381 
L 206.469251 249.8581 
M 212.281984 266.020587 
L 212.50555 265.507778 
M 213.17625 266.992225 
L 213.623384 264.725069 
L 213.84695 265.656222 
L 214.294084 266.533396 
L 214.51765 264.583282 
L 214.741217 264.356206 
L 214.964784 267.455553 
L 215.18835 268.59363 
L 215.411917 269.002977 
L 215.635484 268.993981 
L 216.082617 272.403712 
L 216.306184 271.036221 
L 216.52975 270.914766 
M 217.647583 269.362843 
L 217.87115 269.281874 
L 218.094717 270.307492 
L 218.318283 270.31199 
L 218.765417 274.18505 
L 218.988983 273.730719 
L 219.21255 270.932759 
L 219.436117 274.751839 
L 219.659683 274.522424 
L 219.88325 273.424832 
L 220.106817 275.399598 
L 220.330383 276.317256 
L 220.55395 277.963644 
L 220.777517 273.159431 
L 221.22465 269.101941 
L 221.448216 271.018228 
L 221.671783 270.613378 
L 221.89535 271.486054 
L 222.118916 271.809933 
L 222.342483 271.067709 
L 222.56605 270.991238 
L 222.789616 271.719967 
L 223.013183 273.802692 
L 223.23675 272.421706 
L 223.460316 273.460819 
L 223.90745 272.62413 
L 224.131016 273.483311 
M 224.57815 273.514799 
L 225.025283 274.958762 
L 225.248849 273.064966 
L 225.472416 272.983996 
L 225.919549 274.270518 
L 226.143116 275.90341 
L 226.366683 275.084715 
L 226.590249 275.057725 
L 226.813816 276.960517 
L 227.037383 275.606521 
L 227.260949 275.516554 
L 227.484516 275.210668 
L 227.708083 275.925902 
L 227.931649 275.664999 
L 228.155216 277.716236 
M 228.602349 277.599279 
L 228.825916 277.581286 
L 229.049483 277.30239 
L 229.273049 278.305517 
M 231.955849 282.713877 
L 232.179416 280.995516 
L 232.402982 282.574428 
L 232.626549 279.915917 
L 233.073682 279.052239 
L 233.520816 281.391369 
M 235.532915 274.66637 
L 235.756482 272.89403 
L 235.980049 273.033478 
L 236.203615 272.592642 
L 236.427182 271.746957 
M 236.874315 272.930016 
L 237.321449 273.559782 
L 237.545015 275.305133 
L 237.768582 275.314129 
M 238.215715 275.440083 
L 238.439282 274.688862 
L 238.662848 275.192675 
L 238.886415 274.922775 
L 239.109982 276.317256 
M 241.345648 278.993761 
L 241.569215 277.176437 
L 241.792782 280.293777 
M 242.239915 280.356753 
L 243.357748 284.459227 
M 244.028448 286.429494 
L 244.252015 285.975163 
M 246.487681 288.044394 
L 246.711248 288.273808 
L 246.934814 288.102872 
L 247.158381 288.381768 
L 247.381948 288.062387 
M 247.829081 288.278306 
L 248.052648 288.039895 
L 248.276214 286.555447 
L 248.499781 286.582437 
L 248.723348 287.900447 
L 248.946914 290.028155 
L 249.170481 290.064142 
L 249.394048 290.599443 
M 252.300414 295.750027 
L 252.523981 295.970445 
L 252.971114 298.390544 
L 253.194681 298.2421 
L 253.418247 300.972584 
L 253.641814 293.896716 
L 253.865381 293.977686 
L 254.088947 294.656933 
L 254.312514 294.69292 
L 254.536081 294.234091 
L 254.759647 298.88536 
L 254.983214 297.131013 
L 255.653914 290.23058 
L 255.87748 291.188724 
L 256.101047 290.495981 
L 256.324614 288.035397 
M 256.771747 289.079009 
L 256.995314 288.642671 
L 257.21888 289.141985 
L 257.442447 286.339528 
L 257.666014 285.453357 
M 258.783847 286.555447 
L 259.007414 286.384511 
L 259.23098 287.432621 
L 259.454547 285.412872 
L 259.678113 285.322906 
L 259.90168 281.328392 
M 260.348813 278.831821 
L 260.57238 280.905549 
L 260.795947 278.462958 
L 261.019513 277.590283 
M 263.031613 268.984984 
L 263.25518 269.461807 
L 263.478747 267.635486 
M 263.92588 268.179784 
L 264.149446 264.743062 
L 264.820146 267.761439 
L 265.043713 265.435804 
L 265.26728 265.003965 
L 265.490846 267.158663 
L 265.714413 265.021958 
L 265.93798 268.467677 
L 266.161546 267.608496 
L 266.385113 262.880755 
L 266.60868 264.275236 
L 266.832246 264.041323 
L 267.27938 260.541625 
L 267.726513 262.70532 
L 268.173646 263.744434 
L 268.397213 265.782176 
L 268.620779 264.985972 
L 268.844346 265.615737 
L 269.067913 267.023714 
L 269.291479 265.95761 
L 269.515046 266.704333 
L 269.962179 266.924751 
L 270.185746 264.243748 
L 270.409313 263.087678 
L 270.632879 265.489784 
L 270.856446 264.23925 
L 271.080013 266.722326 
L 271.750713 262.880755 
L 271.974279 262.210504 
L 272.197846 262.538882 
L 273.092112 266.897761 
L 273.315679 267.698463 
L 273.762812 268.197777 
L 273.986379 268.202275 
L 274.209946 268.013346 
L 274.433512 267.0597 
L 274.657079 268.975987 
M 276.445612 270.887776 
L 276.892745 271.643495 
M 280.469812 280.41973 
L 280.693379 279.308643 
L 280.916945 279.205182 
L 281.140512 280.379245 
M 281.811212 280.734613 
L 282.034778 281.665767 
L 282.258345 281.490332 
L 282.481912 282.093108 
L 282.705478 281.971653 
L 282.929045 282.988274 
L 283.152612 281.751235 
L 283.376178 281.508325 
L 283.599745 281.040499 
L 283.823312 281.404864 
L 284.046878 280.032874 
L 284.270445 279.987891 
L 284.494012 279.106219 
L 284.717578 279.151202 
L 284.941145 278.440466 
L 285.164712 278.912791 
L 285.388278 278.701369 
M 286.506111 279.358125 
L 286.729678 280.874061 
L 287.400378 280.104847 
L 287.623945 280.298275 
L 287.847511 280.20381 
L 288.071078 280.74361 
L 288.294645 280.532188 
L 288.518211 281.125967 
M 289.412478 280.298275 
L 289.636044 280.100349 
L 289.859611 279.448092 
L 290.083178 280.653643 
L 290.753878 282.241552 
M 293.213111 287.203206 
L 293.436678 284.93605 
L 293.660244 284.756117 
L 293.883811 285.844712 
L 294.554511 287.365146 
L 294.778077 287.000782 
L 295.225211 289.191467 
L 295.448777 287.203206 
L 295.672344 287.738507 
L 296.119477 289.956182 
L 296.343044 289.461366 
M 296.790177 289.20946 
L 297.013744 287.216701 
L 297.237311 290.738891 
L 297.908011 286.105615 
L 298.131577 286.078625 
L 298.355144 284.85508 
L 298.57871 284.571685 
L 298.802277 284.66615 
L 299.025844 283.977906 
M 299.472977 283.973408 
L 299.92011 286.20008 
L 300.143677 285.462354 
M 300.59081 285.669277 
L 300.814377 286.213575 
L 301.037944 284.810097 
L 301.26151 284.688642 
L 301.485077 284.427739 
L 301.93221 287.338156 
L 302.155777 287.981417 
M 302.60291 287.369645 
L 302.826477 287.117738 
L 303.050043 289.645798 
M 304.838577 292.736148 
L 305.062143 289.461366 
L 305.509277 289.825731 
L 305.732843 289.380396 
L 305.95641 287.783491 
L 306.179977 287.963424 
L 306.62711 285.295916 
M 308.192076 286.087621 
L 308.415643 286.532956 
L 308.862776 286.505966 
L 309.086343 286.213575 
L 309.30991 287.099745 
L 309.533476 287.459611 
L 309.757043 287.446116 
M 310.874876 286.209076 
L 311.098443 286.209076 
L 311.322009 286.505966 
L 311.545576 286.420498 
L 311.769143 285.574812 
L 312.216276 287.464109 
L 312.439843 287.441618 
L 312.663409 287.698022 
L 312.886976 287.261685 
L 313.110543 288.746132 
L 313.334109 288.768624 
L 313.557676 288.908072 
L 313.781243 288.624678 
M 314.228376 287.990414 
L 314.451943 287.630547 
L 314.675509 288.696651 
L 314.899076 287.081752 
L 315.346209 286.22707 
L 315.569776 286.231568 
L 315.793342 287.050263 
L 316.016909 288.471735 
L 316.240476 288.395263 
L 316.464042 287.967922 
L 316.687609 288.876584 
L 317.134742 286.676902 
L 317.358309 286.362019 
L 317.581876 285.817722 
L 317.805442 285.655782 
L 318.029009 286.299043 
L 318.252576 286.550949 
L 318.476142 287.338156 
L 318.699709 289.312922 
L 318.923276 289.861717 
L 319.146842 288.894577 
L 319.370409 289.938189 
L 319.593975 291.589075 
L 319.817542 294.126131 
M 322.723909 294.832368 
L 322.947475 295.075278 
L 323.171042 295.034793 
L 323.394609 295.893973 
L 323.618175 295.444141 
L 323.841742 295.745528 
L 324.065308 295.60608 
M 325.183142 296.609207 
L 325.406708 295.934458 
L 325.853842 293.532352 
L 326.077408 293.559342 
L 326.300975 293.015044 
L 326.524542 293.734777 
L 326.971675 292.574208 
L 327.195242 292.286315 
L 327.418808 293.577335 
L 327.642375 292.394275 
L 327.865942 292.101884 
M 328.983775 291.652051 
L 329.654475 293.289442 
L 329.878041 292.970061 
L 330.101608 293.060028 
L 330.325175 294.216097 
L 330.772308 293.923706 
L 330.995875 292.533723 
L 331.219441 292.241332 
L 331.666575 294.094643 
M 332.113708 292.484242 
L 332.560841 293.496365 
L 332.784408 294.58496 
L 333.007974 294.953823 
L 333.231541 294.247586 
L 333.455108 297.436899 
L 333.678674 298.030678 
L 334.125808 297.207485 
L 334.349374 295.90297 
L 334.796508 296.519241 
L 335.020074 297.337936 
M 335.467208 297.000562 
L 335.914341 297.657317 
L 336.137908 297.89123 
M 336.585041 299.375678 
L 337.032174 299.681564 
M 339.044274 299.339691 
L 339.267841 299.132768 
L 339.491407 299.42516 
L 339.714974 299.3172 
L 339.938541 299.704056 
L 340.162107 299.105778 
L 340.385674 300.936597 
L 340.609241 300.027935 
L 340.832807 299.636581 
L 341.056374 298.99332 
L 341.27994 299.519624 
L 341.503507 297.91822 
L 341.727074 295.214726 
M 342.174207 295.457636 
L 342.397774 295.691549 
L 342.62134 295.007803 
L 342.844907 296.028923 
L 343.068474 296.217853 
L 343.29204 295.808505 
M 344.63344 296.082903 
L 344.857007 296.316816 
M 345.30414 294.998806 
L 345.751273 294.715412 
L 345.97484 295.682552 
L 346.198407 295.992936 
L 346.421973 295.664559 
L 346.64554 296.105395 
L 347.092673 299.02031 
L 347.539807 298.579474 
L 347.763373 298.997819 
L 347.98694 300.315828 
L 348.210507 300.252852 
M 350.893306 300.531748 
L 351.34044 300.31133 
L 351.564006 300.14939 
L 351.787573 299.812016 
L 352.01114 300.293337 
L 352.234706 300.31133 
L 352.458273 300.189875 
M 352.905406 300.248353 
L 353.128973 301.561865 
L 353.35254 301.669825 
L 353.799673 301.318955 
L 354.023239 302.029691 
L 354.246806 301.300962 
L 354.470373 301.962216 
L 354.693939 301.647333 
L 354.917506 301.750794 
L 355.141073 302.412048 
L 355.364639 302.317584 
M 356.035339 302.40755 
L 356.258906 302.173637 
L 356.482473 302.254607 
L 356.706039 302.056681 
L 356.929606 302.425543 
L 357.153173 302.052182 
M 358.271006 303.257734 
L 358.494572 303.442165 
L 358.718139 303.883001 
L 358.941706 304.051598 
M 367.213672 312.62325 
L 367.437238 312.276878 
L 367.884372 312.465808 
L 368.107938 312.767196 
L 368.331505 312.834671 
L 368.555072 313.118065 
L 368.778638 313.118065 
L 369.002205 313.968249 
L 369.225772 313.675858 
M 371.237871 314.74646 
L 371.461438 314.647497 
L 371.685005 314.899403 
L 371.908571 314.642998 
L 372.132138 314.674486 
L 372.355705 315.425707 
L 372.802838 315.457195 
L 373.026405 316.752713 
L 373.249971 317.382479 
L 373.473538 316.158934 
L 373.697105 316.446827 
L 373.920671 315.056844 
L 374.144238 314.975874 
L 374.367805 315.268266 
L 374.591371 315.974503 
L 374.814938 315.529169 
L 375.038505 314.737463 
L 375.262071 314.782446 
L 375.485638 313.860289 
L 375.709204 313.779319 
L 375.932771 313.437447 
M 378.615571 312.618751 
L 378.839138 312.731209 
L 379.062704 313.626376 
L 379.286271 313.702848 
M 381.521937 313.37447 
L 381.745504 313.855791 
L 382.192637 313.842296 
L 382.639771 312.947129 
L 383.086904 316.374854 
M 383.98117 316.190423 
L 384.204737 316.487312 
L 384.428304 316.473817 
L 384.875437 317.207044 
L 385.099004 317.252028 
L 385.32257 316.883165 
L 385.546137 316.829185 
L 386.216837 315.970005 
L 386.440404 316.122948 
M 386.887537 315.866543 
L 387.558237 315.68661 
L 387.781804 316.271392 
L 388.00537 316.383851 
L 388.228937 316.352362 
L 388.452503 315.987998 
L 388.67607 316.185924 
L 388.899637 316.586275 
L 389.123203 317.310506 
M 393.818103 321.961775 
L 394.04167 322.204685 
L 394.265236 321.799836 
M 395.606636 321.705371 
L 395.830203 321.952779 
L 396.05377 321.790839 
L 396.277336 322.155203 
L 396.500903 322.051742 
L 396.72447 321.053113 
L 396.948036 321.237545 
L 397.171603 321.093598 
L 397.395169 321.147578 
L 397.842303 320.108465 
L 398.065869 320.427846 
M 398.736569 320.886675 
L 398.960136 320.976642 
L 399.183703 320.643766 
M 399.854403 319.766592 
L 400.077969 320.12196 
L 400.748669 322.101224 
M 403.431469 322.564551 
L 403.655036 322.119217 
L 403.878602 322.811959 
L 404.102169 322.766976 
L 404.325736 322.276658 
L 404.549302 320.931659 
M 408.126369 315.538165 
L 408.349935 314.948884 
L 408.797069 315.907028 
L 409.020635 315.650623 
L 409.467769 317.616392 
M 409.914902 317.193549 
L 410.138468 316.928148 
L 410.362035 317.292513 
L 410.809168 317.341994 
M 412.597702 319.109836 
L 412.821268 318.597027 
M 414.833368 321.354501 
L 415.056935 321.732361 
L 415.280501 321.633398 
L 415.504068 320.796709 
L 415.727635 321.462461 
M 416.398335 322.528565 
L 416.621901 322.204685 
L 416.845468 322.195688 
L 417.069035 322.641023 
L 417.292601 321.480454 
L 417.516168 321.592913 
L 417.739735 322.4341 
L 417.963301 321.556926 
L 418.186868 321.147578 
L 418.410434 322.609534 
L 418.634001 322.910922 
L 418.857568 319.955522 
L 419.081134 320.20293 
L 419.304701 319.312261 
L 419.528268 321.615404 
L 419.751834 321.394986 
L 419.975401 321.453465 
L 420.198968 321.242043 
L 420.422534 320.166943 
L 420.646101 321.125087 
L 420.869668 319.969017 
L 421.316801 321.318515 
L 421.540368 321.547929 
L 421.763934 319.636141 
L 422.211068 317.544419 
L 422.434634 317.584904 
M 423.999601 316.65375 
L 424.223167 317.238533 
M 428.247367 311.966494 
L 428.470934 311.269253 
L 428.6945 311.503166 
L 428.918067 312.173417 
L 429.141634 313.792814 
L 429.3652 313.574736 
L 429.588767 314.400089 
L 429.812334 312.879654 
L 430.259467 312.40733 
L 430.483034 310.697966 
L 430.7066 310.477548 
L 430.930167 310.540524 
L 431.3773 309.798301 
L 431.824433 311.179287 
L 432.048 310.715959 
L 432.271567 311.282748 
L 432.495133 313.405958 
L 432.7187 313.077581 
L 432.942267 311.368216 
L 433.165833 312.978617 
L 433.3894 313.761326 
L 433.612967 313.756828 
L 433.836533 314.674486 
M 434.7308 314.647497 
L 434.954367 314.732965 
L 435.177933 314.499052 
L 435.4015 315.677613 
L 435.625066 315.101827 
L 435.848633 314.863416 
M 436.295766 315.281761 
L 436.519333 315.641627 
L 436.7429 315.317747 
L 436.966466 315.87554 
L 437.4136 313.333985 
L 437.637166 313.203534 
L 438.0843 313.923266 
L 438.307866 313.109069 
L 438.531433 313.900774 
L 438.755 313.689353 
L 438.978566 312.56927 
L 439.202133 312.627748 
L 439.649266 313.558901 
L 440.096399 315.385222 
L 440.319966 314.413584 
L 440.543533 315.781075 
L 440.767099 315.286259 
L 440.990666 314.400089 
L 441.214233 316.478315 
L 441.437799 314.211159 
L 441.661366 313.972748 
L 441.884933 314.139186 
L 442.108499 315.592145 
L 442.332066 318.268649 
L 442.555633 318.547546 
L 442.779199 317.359987 
L 443.002766 314.26064 
L 443.449899 312.528785 
L 443.673466 312.231895 
L 444.120599 313.136059 
L 444.344166 313.095574 
L 444.567732 313.882781 
L 444.791299 311.080324 
L 445.014866 312.969621 
L 445.238432 313.145055 
L 445.461999 313.023601 
L 445.685566 313.365473 
M 446.132699 310.369588 
L 446.579832 309.609371 
L 446.803399 309.433936 
L 447.026966 309.708334 
L 447.250532 308.930124 
L 447.474099 308.633234 
M 449.039065 308.430809 
L 449.262632 308.408318 
L 449.709765 310.922882 
L 450.156899 308.394823 
L 450.827599 307.985475 
L 451.274732 308.916629 
L 451.498299 307.918 
L 451.945432 307.306228 
L 452.168999 307.792047 
L 452.392565 307.531144 
L 452.616132 307.985475 
M 453.063265 307.670592 
L 453.286832 307.535642 
L 453.510398 307.841528 
L 453.733965 307.72907 
L 453.957532 307.090308 
L 454.181098 306.959856 
L 454.404665 307.616612 
L 454.628232 307.445676 
L 455.298932 306.402064 
L 455.522498 306.474037 
M 456.640332 306.62698 
L 456.863898 305.313469 
L 457.311031 306.429054 
L 457.758165 306.370576 
L 457.981731 307.009338 
L 458.205298 306.928368 
L 458.428865 308.250876 
L 458.652431 308.316192 
L 458.875998 308.111428 
L 459.099565 307.526646 
L 459.323131 308.588251 
M 459.770265 308.345341 
L 459.993831 307.040826 
L 460.217398 306.928368 
L 460.440965 308.637732 
L 460.888098 306.204138 
L 461.111665 305.263987 
L 461.335231 306.330091 
L 461.558798 306.604489 
L 461.782364 307.076813 
L 462.005931 307.846027 
L 462.229498 307.535642 
L 462.453064 308.817665 
L 462.676631 308.178903 
L 462.900198 307.904505 
L 463.123764 308.120425 
L 463.570898 307.760559 
L 463.794464 308.003468 
L 464.018031 308.435308 
M 464.465164 307.6481 
L 464.912298 309.042582 
L 465.135864 308.961612 
L 465.359431 308.088936 
L 465.582997 309.492414 
L 465.806564 309.04708 
L 466.030131 309.433936 
L 466.253697 307.94499 
L 466.477264 307.711077 
L 466.700831 308.300358 
L 467.147964 307.144288 
L 467.818664 309.339471 
L 468.042231 308.952615 
L 468.265797 309.946745 
L 468.712931 307.742565 
L 469.160064 308.070943 
L 469.383631 307.1128 
L 469.607197 306.743937 
L 469.830764 306.865392 
L 470.05433 307.148786 
L 470.277897 306.269453 
L 470.501464 307.000341 
L 470.72503 305.479907 
M 471.172164 306.683119 
L 471.39573 307.153285 
L 471.619297 307.033989 
L 472.513564 308.759187 
L 472.73713 310.045708 
M 476.76133 315.542663 
L 476.984897 315.353734 
L 477.208463 315.790071 
L 477.43203 314.548533 
L 477.655597 314.602513 
L 477.879163 316.46482 
L 478.10273 317.135071 
L 478.326297 317.139569 
L 478.549863 315.754085 
L 478.77343 315.281761 
L 479.220563 313.693851 
L 479.44413 313.657865 
L 479.667696 314.548533 
L 480.11483 314.130189 
L 480.338396 314.651995 
L 480.561963 314.26064 
L 481.009096 316.916812 
L 482.12693 313.599386 
L 482.350496 314.373099 
L 482.574063 313.203534 
L 483.021196 312.785189 
L 483.244763 313.369972 
L 483.468329 313.172045 
L 483.691896 311.435691 
M 484.586163 312.54228 
L 484.809729 312.614253 
L 485.033296 313.351978 
L 485.256863 312.992112 
L 485.480429 313.657865 
L 485.703996 313.572396 
L 486.598263 315.979001 
M 491.293162 319.622646 
L 491.516729 319.492194 
L 491.740295 319.591157 
L 491.963862 320.513314 
L 492.187429 320.12196 
L 492.410995 320.12196 
L 492.634562 319.996007 
L 492.858129 320.319886 
L 493.081695 319.613649 
L 493.305262 319.901542 
L 493.528829 319.613649 
L 493.752395 320.909167 
L 493.975962 319.163816 
L 494.199529 318.763465 
L 494.423095 319.474201 
L 494.646662 319.519184 
L 494.870229 319.145823 
L 495.093795 319.240288 
L 495.317362 319.564167 
L 495.540928 319.217796 
L 495.764495 319.204301 
L 496.211628 319.501191 
L 496.435195 320.855187 
L 496.882328 320.414351 
L 497.105895 320.796709 
L 497.329462 320.427846 
L 497.553028 318.466576 
L 497.776595 318.826442 
L 498.223728 318.99288 
L 498.447295 319.551212 
L 498.670862 319.258281 
L 498.894428 319.357244 
L 499.117995 319.690121 
L 499.565128 319.712612 
L 500.012261 320.859685 
L 500.459395 321.192562 
M 502.695061 320.783214 
L 502.918628 320.679752 
L 503.142195 320.391859 
L 503.589328 321.287026 
L 503.812895 321.215053 
L 504.036461 322.32614 
L 504.260028 322.677549 
L 504.483594 322.456591 
L 504.707161 323.059367 
L 504.930728 322.29915 
L 505.154294 322.05624 
L 505.377861 321.547929 
L 505.601428 322.101224 
L 505.824994 322.184533 
L 506.048561 322.024752 
L 506.272128 322.042745 
L 506.495694 321.764749 
L 506.719261 322.636524 
L 506.942828 322.883932 
L 507.166394 322.865939 
L 507.613528 323.558681 
L 507.837094 324.044501 
M 508.954927 323.612661 
L 509.178494 323.468715 
L 509.402061 323.513698 
M 510.072761 323.419233 
L 510.296327 322.712996 
L 510.519894 322.537561 
L 510.743461 322.784969 
L 510.967027 323.448742 
L 511.190594 323.334305 
L 511.414161 323.496964 
L 511.861294 324.536078 
L 512.308427 324.103519 
L 512.531994 324.834227 
L 512.75556 324.730225 
L 512.979127 325.469211 
M 516.10906 326.315436 
L 516.332627 326.853975 
L 516.77976 327.013936 
L 517.226893 326.756991 
L 517.45046 328.180442 
M 520.80396 330.310669 
L 521.027527 330.069019 
L 521.251093 330.126778 
L 521.47466 330.44238 
L 521.921793 330.396138 
M 522.592493 330.284939 
L 523.039626 330.958968 
L 523.263193 330.794509 
L 523.48676 330.785513 
L 523.933893 331.216812 
L 524.381026 330.450657 
L 524.604593 330.484125 
L 524.82816 330.816461 
L 525.275293 330.827257 
L 525.49886 330.723796 
L 525.722426 330.795769 
L 526.169559 331.117129 
L 526.393126 331.025184 
L 526.616693 331.688417 
L 527.063826 331.032921 
L 527.287393 331.180826 
L 527.958093 329.847882 
L 528.181659 329.976534 
L 528.405226 329.948284 
L 528.628793 330.495101 
L 528.852359 330.492582 
L 529.523059 331.999521 
L 529.746626 331.994303 
L 529.970192 332.238472 
L 530.193759 332.705039 
L 530.417326 332.764776 
M 531.311592 329.558189 
L 531.535159 329.842843 
L 531.758726 329.193105 
L 532.429426 330.189754 
L 532.652992 329.317079 
M 533.100126 329.822331 
L 533.323692 330.507336 
L 533.547259 330.68655 
L 533.770826 330.456595 
L 533.994392 330.010541 
L 534.217959 330.230419 
L 534.441525 329.980312 
L 534.665092 330.169962 
L 535.112225 328.882181 
L 535.335792 329.299806 
L 535.782925 328.69703 
L 536.230059 328.299198 
L 536.453625 329.653194 
L 536.677192 329.946305 
L 537.124325 329.269577 
L 537.347892 329.108357 
L 537.571459 329.305563 
L 537.795025 328.912949 
L 538.018592 328.860229 
L 538.242159 328.591049 
L 538.465725 328.53437 
L 538.689292 328.946417 
L 538.912858 328.439905 
L 539.136425 328.626316 
L 539.359992 328.541388 
L 539.583558 329.511227 
L 539.807125 329.200123 
L 540.701392 331.530975 
M 543.384191 331.459002 
L 543.607758 331.16805 
L 543.831325 331.084382 
L 544.054891 331.516221 
L 544.502025 331.203497 
L 544.725591 331.731601 
L 544.949158 330.883396 
L 545.172725 331.135303 
L 545.396291 330.752765 
L 545.843425 331.526657 
L 546.066991 331.430573 
L 546.290558 332.231995 
L 546.737691 332.731849 
L 547.408391 333.26535 
M 549.644058 333.91185 
L 549.867624 333.688913 
L 550.091191 333.990301 
L 550.314758 333.503762 
L 550.538324 333.404798 
L 550.761891 334.897703 
L 550.985458 334.58336 
L 551.656157 336.00879 
L 552.103291 334.558349 
L 552.326857 334.87845 
L 552.550424 333.147854 
L 552.773991 332.40689 
L 552.997557 332.91772 
L 553.221124 333.107369 
L 553.444691 332.887491 
L 553.668257 333.537229 
L 553.891824 333.624856 
L 554.115391 333.336784 
L 554.562524 333.536689 
M 555.009657 332.737786 
L 555.233224 332.613093 
L 555.680357 332.734548 
L 555.903924 332.305947 
L 556.351057 332.937692 
L 556.574624 332.899726 
L 556.79819 333.473713 
L 557.021757 334.900942 
M 557.46889 335.30903 
L 557.692457 335.053885 
M 562.83449 338.110048 
L 563.058057 337.892869 
L 563.281623 338.041313 
L 563.50519 338.637072 
M 564.84659 338.361954 
L 565.070156 338.147474 
L 565.740856 337.173136 
L 565.964423 337.29855 
L 566.18799 336.918351 
L 566.411556 337.160901 
M 568.647223 336.340946 
L 568.870789 336.566582 
L 569.094356 336.328171 
L 569.541489 336.57216 
L 569.765056 336.68102 
L 569.988623 336.470858 
L 570.212189 337.092167 
L 570.435756 337.007598 
L 570.659323 337.375561 
L 571.106456 335.7119 
L 571.330023 335.825618 
L 571.553589 335.581449 
L 571.777156 335.127118 
L 572.000723 335.460174 
L 572.224289 335.328283 
L 572.447856 336.017786 
L 572.894989 336.704771 
L 573.118556 336.480394 
L 573.789256 338.691052 
M 575.354222 337.543259 
L 575.577789 337.954046 
L 575.801356 337.314564 
L 576.024922 337.023432 
L 576.248489 336.935985 
L 576.472056 337.495756 
L 576.695622 337.545238 
L 576.919189 337.738666 
L 577.366322 337.173856 
L 577.589889 337.315104 
M 579.154855 335.841092 
L 579.378422 335.882836 
L 579.378422 335.882836 
" clip-path="url(#p2a4e8500b0)" style="fill: none; stroke: #1e90ff; stroke-linecap: square"/>
   </g>
   <g id="patch_3">
    <path d="M 46.965625 354.958125 
L 46.965625 22.318125 
" style="fill: none; stroke: #000000; stroke-width: 0.8; stroke-linejoin: miter; stroke-linecap: square"/>
   </g>
   <g id="patch_4">
    <path d="M 604.965625 354.958125 
L 604.965625 22.318125 
" style="fill: none; stroke: #000000; stroke-width: 0.8; stroke-linejoin: miter; stroke-linecap: square"/>
   </g>
   <g id="patch_5">
    <path d="M 46.965625 354.958125 
L 604.965625 354.958125 
" style="fill: none; stroke: #000000; stroke-width: 0.8; stroke-linejoin: miter; stroke-linecap: square"/>
   </g>
   <g id="patch_6">
    <path d="M 46.965625 22.318125 
L 604.965625 22.318125 
" style="fill: none; stroke: #000000; stroke-width: 0.8; stroke-linejoin: miter; stroke-linecap: square"/>
   </g>
   <g id="text_15">
    <!-- AAPL, Relative Strength Index (RSI), AAPL -->
    <g transform="translate(200.850625 16.318125)scale(0.12 -0.12)">
     <defs>
      <path id="DejaVuSans-41" d="M 2188 4044 
L 1331 1722 
L 3047 1722 
L 2188 4044 
z
M 1831 4666 
L 2547 4666 
L 4325 0 
L 3669 0 
L 3244 1197 
L 1141 1197 
L 716 0 
L 50 0 
L 1831 4666 
z
" transform="scale(0.015625)"/>
      <path id="DejaVuSans-4c" d="M 628 4666 
L 1259 4666 
L 1259 531 
L 3531 531 
L 3531 0 
L 628 0 
L 628 4666 
z
" transform="scale(0.015625)"/>
      <path id="DejaVuSans-2c" d="M 750 794 
L 1409 794 
L 1409 256 
L 897 -744 
L 494 -744 
L 750 256 
L 750 794 
z
" transform="scale(0.015625)"/>
      <path id="DejaVuSans-52" d="M 2841 2188 
Q 3044 2119 3236 1894 
Q 3428 1669 3622 1275 
L 4263 0 
L 3584 0 
L 2988 1197 
Q 2756 1666 2539 1819 
Q 2322 1972 1947 1972 
L 1259 1972 
L 1259 0 
L 628 0 
L 628 4666 
L 2053 4666 
Q 2853 4666 3247 4331 
Q 3641 3997 3641 3322 
Q 3641 2881 3436 2590 
Q 3231 2300 2841 2188 
z
M 1259 4147 
L 1259 2491 
L 2053 2491 
Q 2509 2491 2742 2702 
Q 2975 2913 2975 3322 
Q 2975 3731 2742 3939 
Q 2509 4147 2053 4147 
L 1259 4147 
z
" transform="scale(0.015625)"/>
      <path id="DejaVuSans-6c" d="M 603 4863 
L 1178 4863 
L 1178 0 
L 603 0 
L 603 4863 
z
" transform="scale(0.015625)"/>
      <path id="DejaVuSans-76" d="M 191 3500 
L 800 3500 
L 1894 563 
L 2988 3500 
L 3597 3500 
L 2284 0 
L 1503 0 
L 191 3500 
z
" transform="scale(0.015625)"/>
      <path id="DejaVuSans-6e" d="M 3513 2113 
L 3513 0 
L 2938 0 
L 2938 2094 
Q 2938 2591 2744 2837 
Q 2550 3084 2163 3084 
Q 1697 3084 1428 2787 
Q 1159 2491 1159 1978 
L 1159 0 
L 581 0 
L 581 3500 
L 1159 3500 
L 1159 2956 
Q 1366 3272 1645 3428 
Q 1925 3584 2291 3584 
Q 2894 3584 3203 3211 
Q 3513 2838 3513 2113 
z
" transform="scale(0.015625)"/>
      <path id="DejaVuSans-67" d="M 2906 1791 
Q 2906 2416 2648 2759 
Q 2391 3103 1925 3103 
Q 1463 3103 1205 2759 
Q 947 2416 947 1791 
Q 947 1169 1205 825 
Q 1463 481 1925 481 
Q 2391 481 2648 825 
Q 2906 1169 2906 1791 
z
M 3481 434 
Q 3481 -459 3084 -895 
Q 2688 -1331 1869 -1331 
Q 1566 -1331 1297 -1286 
Q 1028 -1241 775 -1147 
L 775 -588 
Q 1028 -725 1275 -790 
Q 1522 -856 1778 -856 
Q 2344 -856 2625 -561 
Q 2906 -266 2906 331 
L 2906 616 
Q 2728 306 2450 153 
Q 2172 0 1784 0 
Q 1141 0 747 490 
Q 353 981 353 1791 
Q 353 2603 747 3093 
Q 1141 3584 1784 3584 
Q 2172 3584 2450 3431 
Q 2728 3278 2906 2969 
L 2906 3500 
L 3481 3500 
L 3481 434 
z
" transform="scale(0.015625)"/>
      <path id="DejaVuSans-68" d="M 3513 2113 
L 3513 0 
L 2938 0 
L 2938 2094 
Q 2938 2591 2744 2837 
Q 2550 3084 2163 3084 
Q 1697 3084 1428 2787 
Q 1159 2491 1159 1978 
L 1159 0 
L 581 0 
L 581 4863 
L 1159 4863 
L 1159 2956 
Q 1366 3272 1645 3428 
Q 1925 3584 2291 3584 
Q 2894 3584 3203 3211 
Q 3513 2838 3513 2113 
z
" transform="scale(0.015625)"/>
      <path id="DejaVuSans-49" d="M 628 4666 
L 1259 4666 
L 1259 0 
L 628 0 
L 628 4666 
z
" transform="scale(0.015625)"/>
      <path id="DejaVuSans-64" d="M 2906 2969 
L 2906 4863 
L 3481 4863 
L 3481 0 
L 2906 0 
L 2906 525 
Q 2725 213 2448 61 
Q 2172 -91 1784 -91 
Q 1150 -91 751 415 
Q 353 922 353 1747 
Q 353 2572 751 3078 
Q 1150 3584 1784 3584 
Q 2172 3584 2448 3432 
Q 2725 3281 2906 2969 
z
M 947 1747 
Q 947 1113 1208 752 
Q 1469 391 1925 391 
Q 2381 391 2643 752 
Q 2906 1113 2906 1747 
Q 2906 2381 2643 2742 
Q 2381 3103 1925 3103 
Q 1469 3103 1208 2742 
Q 947 2381 947 1747 
z
" transform="scale(0.015625)"/>
      <path id="DejaVuSans-78" d="M 3513 3500 
L 2247 1797 
L 3578 0 
L 2900 0 
L 1881 1375 
L 863 0 
L 184 0 
L 1544 1831 
L 300 3500 
L 978 3500 
L 1906 2253 
L 2834 3500 
L 3513 3500 
z
" transform="scale(0.015625)"/>
     </defs>
     <use xlink:href="#DejaVuSans-41"/>
     <use xlink:href="#DejaVuSans-41" x="71.158203"/>
     <use xlink:href="#DejaVuSans-50" x="139.566406"/>
     <use xlink:href="#DejaVuSans-4c" x="199.869141"/>
     <use xlink:href="#DejaVuSans-2c" x="255.582031"/>
     <use xlink:href="#DejaVuSans-20" x="287.369141"/>
     <use xlink:href="#DejaVuSans-52" x="319.15625"/>
     <use xlink:href="#DejaVuSans-65" x="384.138672"/>
     <use xlink:href="#DejaVuSans-6c" x="445.662109"/>
     <use xlink:href="#DejaVuSans-61" x="473.445312"/>
     <use xlink:href="#DejaVuSans-74" x="534.724609"/>
     <use xlink:href="#DejaVuSans-69" x="573.933594"/>
     <use xlink:href="#DejaVuSans-76" x="601.716797"/>
     <use xlink:href="#DejaVuSans-65" x="660.896484"/>
     <use xlink:href="#DejaVuSans-20" x="722.419922"/>
     <use xlink:href="#DejaVuSans-53" x="754.207031"/>
     <use xlink:href="#DejaVuSans-74" x="817.683594"/>
     <use xlink:href="#DejaVuSans-72" x="856.892578"/>
     <use xlink:href="#DejaVuSans-65" x="895.755859"/>
     <use xlink:href="#DejaVuSans-6e" x="957.279297"/>
     <use xlink:href="#DejaVuSans-67" x="1020.658203"/>
     <use xlink:href="#DejaVuSans-74" x="1084.134766"/>
     <use xlink:href="#DejaVuSans-68" x="1123.34375"/>
     <use xlink:href="#DejaVuSans-20" x="1186.722656"/>
     <use xlink:href="#DejaVuSans-49" x="1218.509766"/>
     <use xlink:href="#DejaVuSans-6e" x="1248.001953"/>
     <use xlink:href="#DejaVuSans-64" x="1311.380859"/>
     <use xlink:href="#DejaVuSans-65" x="1374.857422"/>
     <use xlink:href="#DejaVuSans-78" x="1434.630859"/>
     <use xlink:href="#DejaVuSans-20" x="1493.810547"/>
     <use xlink:href="#DejaVuSans-28" x="1525.597656"/>
     <use xlink:href="#DejaVuSans-52" x="1564.611328"/>
     <use xlink:href="#DejaVuSans-53" x="1634.09375"/>
     <use xlink:href="#DejaVuSans-49" x="1697.570312"/>
     <use xlink:href="#DejaVuSans-29" x="1727.0625"/>
     <use xlink:href="#DejaVuSans-2c" x="1766.076172"/>
     <use xlink:href="#DejaVuSans-20" x="1797.863281"/>
     <use xlink:href="#DejaVuSans-41" x="1829.650391"/>
     <use xlink:href="#DejaVuSans-41" x="1900.808594"/>
     <use xlink:href="#DejaVuSans-50" x="1969.216797"/>
     <use xlink:href="#DejaVuSans-4c" x="2029.519531"/>
    </g>
   </g>
   <g id="legend_1">
    <g id="patch_7">
     <path d="M 448.05625 74.3525 
L 597.965625 74.3525 
Q 599.965625 74.3525 599.965625 72.3525 
L 599.965625 29.318125 
Q 599.965625 27.318125 597.965625 27.318125 
L 448.05625 27.318125 
Q 446.05625 27.318125 446.05625 29.318125 
L 446.05625 72.3525 
Q 446.05625 74.3525 448.05625 74.3525 
z
" style="fill: #ffffff; opacity: 0.8; stroke: #cccccc; stroke-linejoin: miter"/>
    </g>
    <g id="line2d_23">
     <path d="M 450.05625 35.416562 
L 460.05625 35.416562 
L 470.05625 35.416562 
" style="fill: none; stroke: #00ff7f; stroke-linecap: square"/>
    </g>
    <g id="text_16">
     <!-- Oversold, RSI &lt;= 30 -->
     <g transform="translate(478.05625 38.916562)scale(0.1 -0.1)">
      <defs>
       <path id="DejaVuSans-4f" d="M 2522 4238 
Q 1834 4238 1429 3725 
Q 1025 3213 1025 2328 
Q 1025 1447 1429 934 
Q 1834 422 2522 422 
Q 3209 422 3611 934 
Q 4013 1447 4013 2328 
Q 4013 3213 3611 3725 
Q 3209 4238 2522 4238 
z
M 2522 4750 
Q 3503 4750 4090 4092 
Q 4678 3434 4678 2328 
Q 4678 1225 4090 567 
Q 3503 -91 2522 -91 
Q 1538 -91 948 565 
Q 359 1222 359 2328 
Q 359 3434 948 4092 
Q 1538 4750 2522 4750 
z
" transform="scale(0.015625)"/>
       <path id="DejaVuSans-73" d="M 2834 3397 
L 2834 2853 
Q 2591 2978 2328 3040 
Q 2066 3103 1784 3103 
Q 1356 3103 1142 2972 
Q 928 2841 928 2578 
Q 928 2378 1081 2264 
Q 1234 2150 1697 2047 
L 1894 2003 
Q 2506 1872 2764 1633 
Q 3022 1394 3022 966 
Q 3022 478 2636 193 
Q 2250 -91 1575 -91 
Q 1294 -91 989 -36 
Q 684 19 347 128 
L 347 722 
Q 666 556 975 473 
Q 1284 391 1588 391 
Q 1994 391 2212 530 
Q 2431 669 2431 922 
Q 2431 1156 2273 1281 
Q 2116 1406 1581 1522 
L 1381 1569 
Q 847 1681 609 1914 
Q 372 2147 372 2553 
Q 372 3047 722 3315 
Q 1072 3584 1716 3584 
Q 2034 3584 2315 3537 
Q 2597 3491 2834 3397 
z
" transform="scale(0.015625)"/>
       <path id="DejaVuSans-6f" d="M 1959 3097 
Q 1497 3097 1228 2736 
Q 959 2375 959 1747 
Q 959 1119 1226 758 
Q 1494 397 1959 397 
Q 2419 397 2687 759 
Q 2956 1122 2956 1747 
Q 2956 2369 2687 2733 
Q 2419 3097 1959 3097 
z
M 1959 3584 
Q 2709 3584 3137 3096 
Q 3566 2609 3566 1747 
Q 3566 888 3137 398 
Q 2709 -91 1959 -91 
Q 1206 -91 779 398 
Q 353 888 353 1747 
Q 353 2609 779 3096 
Q 1206 3584 1959 3584 
z
" transform="scale(0.015625)"/>
       <path id="DejaVuSans-3c" d="M 4684 3150 
L 1459 2003 
L 4684 863 
L 4684 294 
L 678 1747 
L 678 2266 
L 4684 3719 
L 4684 3150 
z
" transform="scale(0.015625)"/>
       <path id="DejaVuSans-3d" d="M 678 2906 
L 4684 2906 
L 4684 2381 
L 678 2381 
L 678 2906 
z
M 678 1631 
L 4684 1631 
L 4684 1100 
L 678 1100 
L 678 1631 
z
" transform="scale(0.015625)"/>
       <path id="DejaVuSans-33" d="M 2597 2516 
Q 3050 2419 3304 2112 
Q 3559 1806 3559 1356 
Q 3559 666 3084 287 
Q 2609 -91 1734 -91 
Q 1441 -91 1130 -33 
Q 819 25 488 141 
L 488 750 
Q 750 597 1062 519 
Q 1375 441 1716 441 
Q 2309 441 2620 675 
Q 2931 909 2931 1356 
Q 2931 1769 2642 2001 
Q 2353 2234 1838 2234 
L 1294 2234 
L 1294 2753 
L 1863 2753 
Q 2328 2753 2575 2939 
Q 2822 3125 2822 3475 
Q 2822 3834 2567 4026 
Q 2313 4219 1838 4219 
Q 1578 4219 1281 4162 
Q 984 4106 628 3988 
L 628 4550 
Q 988 4650 1302 4700 
Q 1616 4750 1894 4750 
Q 2613 4750 3031 4423 
Q 3450 4097 3450 3541 
Q 3450 3153 3228 2886 
Q 3006 2619 2597 2516 
z
" transform="scale(0.015625)"/>
      </defs>
      <use xlink:href="#DejaVuSans-4f"/>
      <use xlink:href="#DejaVuSans-76" x="78.710938"/>
      <use xlink:href="#DejaVuSans-65" x="137.890625"/>
      <use xlink:href="#DejaVuSans-72" x="199.414062"/>
      <use xlink:href="#DejaVuSans-73" x="240.527344"/>
      <use xlink:href="#DejaVuSans-6f" x="292.626953"/>
      <use xlink:href="#DejaVuSans-6c" x="353.808594"/>
      <use xlink:href="#DejaVuSans-64" x="381.591797"/>
      <use xlink:href="#DejaVuSans-2c" x="445.068359"/>
      <use xlink:href="#DejaVuSans-20" x="476.855469"/>
      <use xlink:href="#DejaVuSans-52" x="508.642578"/>
      <use xlink:href="#DejaVuSans-53" x="578.125"/>
      <use xlink:href="#DejaVuSans-49" x="641.601562"/>
      <use xlink:href="#DejaVuSans-20" x="671.09375"/>
      <use xlink:href="#DejaVuSans-3c" x="702.880859"/>
      <use xlink:href="#DejaVuSans-3d" x="786.669922"/>
      <use xlink:href="#DejaVuSans-20" x="870.458984"/>
      <use xlink:href="#DejaVuSans-33" x="902.246094"/>
      <use xlink:href="#DejaVuSans-30" x="965.869141"/>
     </g>
    </g>
    <g id="line2d_24">
     <path d="M 450.05625 50.094687 
L 460.05625 50.094687 
L 470.05625 50.094687 
" style="fill: none; stroke: #ff4500; stroke-linecap: square"/>
    </g>
    <g id="text_17">
     <!-- Overbought, RSI &gt;= 70 -->
     <g transform="translate(478.05625 53.594687)scale(0.1 -0.1)">
      <defs>
       <path id="DejaVuSans-62" d="M 3116 1747 
Q 3116 2381 2855 2742 
Q 2594 3103 2138 3103 
Q 1681 3103 1420 2742 
Q 1159 2381 1159 1747 
Q 1159 1113 1420 752 
Q 1681 391 2138 391 
Q 2594 391 2855 752 
Q 3116 1113 3116 1747 
z
M 1159 2969 
Q 1341 3281 1617 3432 
Q 1894 3584 2278 3584 
Q 2916 3584 3314 3078 
Q 3713 2572 3713 1747 
Q 3713 922 3314 415 
Q 2916 -91 2278 -91 
Q 1894 -91 1617 61 
Q 1341 213 1159 525 
L 1159 0 
L 581 0 
L 581 4863 
L 1159 4863 
L 1159 2969 
z
" transform="scale(0.015625)"/>
       <path id="DejaVuSans-75" d="M 544 1381 
L 544 3500 
L 1119 3500 
L 1119 1403 
Q 1119 906 1312 657 
Q 1506 409 1894 409 
Q 2359 409 2629 706 
Q 2900 1003 2900 1516 
L 2900 3500 
L 3475 3500 
L 3475 0 
L 2900 0 
L 2900 538 
Q 2691 219 2414 64 
Q 2138 -91 1772 -91 
Q 1169 -91 856 284 
Q 544 659 544 1381 
z
M 1991 3584 
L 1991 3584 
z
" transform="scale(0.015625)"/>
       <path id="DejaVuSans-3e" d="M 678 3150 
L 678 3719 
L 4684 2266 
L 4684 1747 
L 678 294 
L 678 863 
L 3897 2003 
L 678 3150 
z
" transform="scale(0.015625)"/>
      </defs>
      <use xlink:href="#DejaVuSans-4f"/>
      <use xlink:href="#DejaVuSans-76" x="78.710938"/>
      <use xlink:href="#DejaVuSans-65" x="137.890625"/>
      <use xlink:href="#DejaVuSans-72" x="199.414062"/>
      <use xlink:href="#DejaVuSans-62" x="240.527344"/>
      <use xlink:href="#DejaVuSans-6f" x="304.003906"/>
      <use xlink:href="#DejaVuSans-75" x="365.185547"/>
      <use xlink:href="#DejaVuSans-67" x="428.564453"/>
      <use xlink:href="#DejaVuSans-68" x="492.041016"/>
      <use xlink:href="#DejaVuSans-74" x="555.419922"/>
      <use xlink:href="#DejaVuSans-2c" x="594.628906"/>
      <use xlink:href="#DejaVuSans-20" x="626.416016"/>
      <use xlink:href="#DejaVuSans-52" x="658.203125"/>
      <use xlink:href="#DejaVuSans-53" x="727.685547"/>
      <use xlink:href="#DejaVuSans-49" x="791.162109"/>
      <use xlink:href="#DejaVuSans-20" x="820.654297"/>
      <use xlink:href="#DejaVuSans-3e" x="852.441406"/>
      <use xlink:href="#DejaVuSans-3d" x="936.230469"/>
      <use xlink:href="#DejaVuSans-20" x="1020.019531"/>
      <use xlink:href="#DejaVuSans-37" x="1051.806641"/>
      <use xlink:href="#DejaVuSans-30" x="1115.429688"/>
     </g>
    </g>
    <g id="line2d_25">
     <path d="M 450.05625 64.772812 
L 460.05625 64.772812 
L 470.05625 64.772812 
" style="fill: none; stroke: #1e90ff; stroke-linecap: square"/>
    </g>
    <g id="text_18">
     <!-- Neutral -->
     <g transform="translate(478.05625 68.272812)scale(0.1 -0.1)">
      <defs>
       <path id="DejaVuSans-4e" d="M 628 4666 
L 1478 4666 
L 3547 763 
L 3547 4666 
L 4159 4666 
L 4159 0 
L 3309 0 
L 1241 3903 
L 1241 0 
L 628 0 
L 628 4666 
z
" transform="scale(0.015625)"/>
      </defs>
      <use xlink:href="#DejaVuSans-4e"/>
      <use xlink:href="#DejaVuSans-65" x="74.804688"/>
      <use xlink:href="#DejaVuSans-75" x="136.328125"/>
      <use xlink:href="#DejaVuSans-74" x="199.707031"/>
      <use xlink:href="#DejaVuSans-72" x="238.916016"/>
      <use xlink:href="#DejaVuSans-61" x="280.029297"/>
      <use xlink:href="#DejaVuSans-6c" x="341.308594"/>
     </g>
    </g>
   </g>
  </g>
 </g>
 <defs>
  <clipPath id="p2a4e8500b0">
   <rect x="46.965625" y="22.318125" width="558" height="332.64"/>
  </clipPath>
 </defs>
</svg>
