<?xml version="1.0" encoding="utf-8" standalone="no"?>
<!DOCTYPE svg PUBLIC "-//W3C//DTD SVG 1.1//EN"
  "http://www.w3.org/Graphics/SVG/1.1/DTD/svg11.dtd">
<svg xmlns:xlink="http://www.w3.org/1999/xlink" width="612.165625pt" height="392.514375pt" viewBox="0 0 612.165625 392.514375" xmlns="http://www.w3.org/2000/svg" version="1.1">
 <metadata>
  <rdf:RDF xmlns:dc="http://purl.org/dc/elements/1.1/" xmlns:cc="http://creativecommons.org/ns#" xmlns:rdf="http://www.w3.org/1999/02/22-rdf-syntax-ns#">
   <cc:Work>
    <dc:type rdf:resource="http://purl.org/dc/dcmitype/StillImage"/>
    <dc:date>2023-04-24T17:59:46.655204</dc:date>
    <dc:format>image/svg+xml</dc:format>
    <dc:creator>
     <cc:Agent>
      <dc:title>Matplotlib v3.5.1, https://matplotlib.org/</dc:title>
     </cc:Agent>
    </dc:creator>
   </cc:Work>
  </rdf:RDF>
 </metadata>
 <defs>
  <style type="text/css">*{stroke-linejoin: round; stroke-linecap: butt}</style>
 </defs>
 <g id="figure_1">
  <g id="patch_1">
   <path d="M 0 392.514375 
L 612.165625 392.514375 
L 612.165625 0 
L 0 0 
z
" style="fill: #ffffff"/>
  </g>
  <g id="axes_1">
   <g id="patch_2">
    <path d="M 46.965625 354.958125 
L 604.965625 354.958125 
L 604.965625 22.318125 
L 46.965625 22.318125 
z
" style="fill: #ffffff"/>
   </g>
   <g id="matplotlib.axis_1">
    <g id="xtick_1">
     <g id="line2d_1">
      <defs>
       <path id="m544ec11ece" d="M 0 0 
L 0 3.5 
" style="stroke: #000000; stroke-width: 0.8"/>
      </defs>
      <g>
       <use xlink:href="#m544ec11ece" x="72.329261" y="354.958125" style="stroke: #000000; stroke-width: 0.8"/>
      </g>
     </g>
     <g id="text_1">
      <!-- 0 -->
      <g transform="translate(69.148011 369.556562)scale(0.1 -0.1)">
       <defs>
        <path id="DejaVuSans-30" d="M 2034 4250 
Q 1547 4250 1301 3770 
Q 1056 3291 1056 2328 
Q 1056 1369 1301 889 
Q 1547 409 2034 409 
Q 2525 409 2770 889 
Q 3016 1369 3016 2328 
Q 3016 3291 2770 3770 
Q 2525 4250 2034 4250 
z
M 2034 4750 
Q 2819 4750 3233 4129 
Q 3647 3509 3647 2328 
Q 3647 1150 3233 529 
Q 2819 -91 2034 -91 
Q 1250 -91 836 529 
Q 422 1150 422 2328 
Q 422 3509 836 4129 
Q 1250 4750 2034 4750 
z
" transform="scale(0.015625)"/>
       </defs>
       <use xlink:href="#DejaVuSans-30"/>
      </g>
     </g>
    </g>
    <g id="xtick_2">
     <g id="line2d_2">
      <g>
       <use xlink:href="#m544ec11ece" x="188.092093" y="354.958125" style="stroke: #000000; stroke-width: 0.8"/>
      </g>
     </g>
     <g id="text_2">
      <!-- 500 -->
      <g transform="translate(178.548343 369.556562)scale(0.1 -0.1)">
       <defs>
        <path id="DejaVuSans-35" d="M 691 4666 
L 3169 4666 
L 3169 4134 
L 1269 4134 
L 1269 2991 
Q 1406 3038 1543 3061 
Q 1681 3084 1819 3084 
Q 2600 3084 3056 2656 
Q 3513 2228 3513 1497 
Q 3513 744 3044 326 
Q 2575 -91 1722 -91 
Q 1428 -91 1123 -41 
Q 819 9 494 109 
L 494 744 
Q 775 591 1075 516 
Q 1375 441 1709 441 
Q 2250 441 2565 725 
Q 2881 1009 2881 1497 
Q 2881 1984 2565 2268 
Q 2250 2553 1709 2553 
Q 1456 2553 1204 2497 
Q 953 2441 691 2322 
L 691 4666 
z
" transform="scale(0.015625)"/>
       </defs>
       <use xlink:href="#DejaVuSans-35"/>
       <use xlink:href="#DejaVuSans-30" x="63.623047"/>
       <use xlink:href="#DejaVuSans-30" x="127.246094"/>
      </g>
     </g>
    </g>
    <g id="xtick_3">
     <g id="line2d_3">
      <g>
       <use xlink:href="#m544ec11ece" x="303.854924" y="354.958125" style="stroke: #000000; stroke-width: 0.8"/>
      </g>
     </g>
     <g id="text_3">
      <!-- 1000 -->
      <g transform="translate(291.129924 369.556562)scale(0.1 -0.1)">
       <defs>
        <path id="DejaVuSans-31" d="M 794 531 
L 1825 531 
L 1825 4091 
L 703 3866 
L 703 4441 
L 1819 4666 
L 2450 4666 
L 2450 531 
L 3481 531 
L 3481 0 
L 794 0 
L 794 531 
z
" transform="scale(0.015625)"/>
       </defs>
       <use xlink:href="#DejaVuSans-31"/>
       <use xlink:href="#DejaVuSans-30" x="63.623047"/>
       <use xlink:href="#DejaVuSans-30" x="127.246094"/>
       <use xlink:href="#DejaVuSans-30" x="190.869141"/>
      </g>
     </g>
    </g>
    <g id="xtick_4">
     <g id="line2d_4">
      <g>
       <use xlink:href="#m544ec11ece" x="419.617756" y="354.958125" style="stroke: #000000; stroke-width: 0.8"/>
      </g>
     </g>
     <g id="text_4">
      <!-- 1500 -->
      <g transform="translate(406.892756 369.556562)scale(0.1 -0.1)">
       <use xlink:href="#DejaVuSans-31"/>
       <use xlink:href="#DejaVuSans-35" x="63.623047"/>
       <use xlink:href="#DejaVuSans-30" x="127.246094"/>
       <use xlink:href="#DejaVuSans-30" x="190.869141"/>
      </g>
     </g>
    </g>
    <g id="xtick_5">
     <g id="line2d_5">
      <g>
       <use xlink:href="#m544ec11ece" x="535.380587" y="354.958125" style="stroke: #000000; stroke-width: 0.8"/>
      </g>
     </g>
     <g id="text_5">
      <!-- 2000 -->
      <g transform="translate(522.655587 369.556562)scale(0.1 -0.1)">
       <defs>
        <path id="DejaVuSans-32" d="M 1228 531 
L 3431 531 
L 3431 0 
L 469 0 
L 469 531 
Q 828 903 1448 1529 
Q 2069 2156 2228 2338 
Q 2531 2678 2651 2914 
Q 2772 3150 2772 3378 
Q 2772 3750 2511 3984 
Q 2250 4219 1831 4219 
Q 1534 4219 1204 4116 
Q 875 4013 500 3803 
L 500 4441 
Q 881 4594 1212 4672 
Q 1544 4750 1819 4750 
Q 2544 4750 2975 4387 
Q 3406 4025 3406 3419 
Q 3406 3131 3298 2873 
Q 3191 2616 2906 2266 
Q 2828 2175 2409 1742 
Q 1991 1309 1228 531 
z
" transform="scale(0.015625)"/>
       </defs>
       <use xlink:href="#DejaVuSans-32"/>
       <use xlink:href="#DejaVuSans-30" x="63.623047"/>
       <use xlink:href="#DejaVuSans-30" x="127.246094"/>
       <use xlink:href="#DejaVuSans-30" x="190.869141"/>
      </g>
     </g>
    </g>
    <g id="text_6">
     <!-- Date -->
     <g transform="translate(314.014844 383.234687)scale(0.1 -0.1)">
      <defs>
       <path id="DejaVuSans-44" d="M 1259 4147 
L 1259 519 
L 2022 519 
Q 2988 519 3436 956 
Q 3884 1394 3884 2338 
Q 3884 3275 3436 3711 
Q 2988 4147 2022 4147 
L 1259 4147 
z
M 628 4666 
L 1925 4666 
Q 3281 4666 3915 4102 
Q 4550 3538 4550 2338 
Q 4550 1131 3912 565 
Q 3275 0 1925 0 
L 628 0 
L 628 4666 
z
" transform="scale(0.015625)"/>
       <path id="DejaVuSans-61" d="M 2194 1759 
Q 1497 1759 1228 1600 
Q 959 1441 959 1056 
Q 959 750 1161 570 
Q 1363 391 1709 391 
Q 2188 391 2477 730 
Q 2766 1069 2766 1631 
L 2766 1759 
L 2194 1759 
z
M 3341 1997 
L 3341 0 
L 2766 0 
L 2766 531 
Q 2569 213 2275 61 
Q 1981 -91 1556 -91 
Q 1019 -91 701 211 
Q 384 513 384 1019 
Q 384 1609 779 1909 
Q 1175 2209 1959 2209 
L 2766 2209 
L 2766 2266 
Q 2766 2663 2505 2880 
Q 2244 3097 1772 3097 
Q 1472 3097 1187 3025 
Q 903 2953 641 2809 
L 641 3341 
Q 956 3463 1253 3523 
Q 1550 3584 1831 3584 
Q 2591 3584 2966 3190 
Q 3341 2797 3341 1997 
z
" transform="scale(0.015625)"/>
       <path id="DejaVuSans-74" d="M 1172 4494 
L 1172 3500 
L 2356 3500 
L 2356 3053 
L 1172 3053 
L 1172 1153 
Q 1172 725 1289 603 
Q 1406 481 1766 481 
L 2356 481 
L 2356 0 
L 1766 0 
Q 1100 0 847 248 
Q 594 497 594 1153 
L 594 3053 
L 172 3053 
L 172 3500 
L 594 3500 
L 594 4494 
L 1172 4494 
z
" transform="scale(0.015625)"/>
       <path id="DejaVuSans-65" d="M 3597 1894 
L 3597 1613 
L 953 1613 
Q 991 1019 1311 708 
Q 1631 397 2203 397 
Q 2534 397 2845 478 
Q 3156 559 3463 722 
L 3463 178 
Q 3153 47 2828 -22 
Q 2503 -91 2169 -91 
Q 1331 -91 842 396 
Q 353 884 353 1716 
Q 353 2575 817 3079 
Q 1281 3584 2069 3584 
Q 2775 3584 3186 3129 
Q 3597 2675 3597 1894 
z
M 3022 2063 
Q 3016 2534 2758 2815 
Q 2500 3097 2075 3097 
Q 1594 3097 1305 2825 
Q 1016 2553 972 2059 
L 3022 2063 
z
" transform="scale(0.015625)"/>
      </defs>
      <use xlink:href="#DejaVuSans-44"/>
      <use xlink:href="#DejaVuSans-61" x="77.001953"/>
      <use xlink:href="#DejaVuSans-74" x="138.28125"/>
      <use xlink:href="#DejaVuSans-65" x="177.490234"/>
     </g>
    </g>
   </g>
   <g id="matplotlib.axis_2">
    <g id="ytick_1">
     <g id="line2d_6">
      <path d="M 46.965625 327.745322 
L 604.965625 327.745322 
" clip-path="url(#p8bb5cae53d)" style="fill: none; stroke: #dcdcdc; stroke-width: 0.5; stroke-linecap: square"/>
     </g>
     <g id="line2d_7">
      <defs>
       <path id="m5fdcfb5221" d="M 0 0 
L -3.5 0 
" style="stroke: #000000; stroke-width: 0.8"/>
      </defs>
      <g>
       <use xlink:href="#m5fdcfb5221" x="46.965625" y="327.745322" style="stroke: #000000; stroke-width: 0.8"/>
      </g>
     </g>
     <g id="text_7">
      <!-- 20 -->
      <g transform="translate(27.240625 331.544541)scale(0.1 -0.1)">
       <use xlink:href="#DejaVuSans-32"/>
       <use xlink:href="#DejaVuSans-30" x="63.623047"/>
      </g>
     </g>
    </g>
    <g id="ytick_2">
     <g id="line2d_8">
      <path d="M 46.965625 287.785625 
L 604.965625 287.785625 
" clip-path="url(#p8bb5cae53d)" style="fill: none; stroke: #dcdcdc; stroke-width: 0.5; stroke-linecap: square"/>
     </g>
     <g id="line2d_9">
      <g>
       <use xlink:href="#m5fdcfb5221" x="46.965625" y="287.785625" style="stroke: #000000; stroke-width: 0.8"/>
      </g>
     </g>
     <g id="text_8">
      <!-- 40 -->
      <g transform="translate(27.240625 291.584844)scale(0.1 -0.1)">
       <defs>
        <path id="DejaVuSans-34" d="M 2419 4116 
L 825 1625 
L 2419 1625 
L 2419 4116 
z
M 2253 4666 
L 3047 4666 
L 3047 1625 
L 3713 1625 
L 3713 1100 
L 3047 1100 
L 3047 0 
L 2419 0 
L 2419 1100 
L 313 1100 
L 313 1709 
L 2253 4666 
z
" transform="scale(0.015625)"/>
       </defs>
       <use xlink:href="#DejaVuSans-34"/>
       <use xlink:href="#DejaVuSans-30" x="63.623047"/>
      </g>
     </g>
    </g>
    <g id="ytick_3">
     <g id="line2d_10">
      <path d="M 46.965625 247.825928 
L 604.965625 247.825928 
" clip-path="url(#p8bb5cae53d)" style="fill: none; stroke: #dcdcdc; stroke-width: 0.5; stroke-linecap: square"/>
     </g>
     <g id="line2d_11">
      <g>
       <use xlink:href="#m5fdcfb5221" x="46.965625" y="247.825928" style="stroke: #000000; stroke-width: 0.8"/>
      </g>
     </g>
     <g id="text_9">
      <!-- 60 -->
      <g transform="translate(27.240625 251.625147)scale(0.1 -0.1)">
       <defs>
        <path id="DejaVuSans-36" d="M 2113 2584 
Q 1688 2584 1439 2293 
Q 1191 2003 1191 1497 
Q 1191 994 1439 701 
Q 1688 409 2113 409 
Q 2538 409 2786 701 
Q 3034 994 3034 1497 
Q 3034 2003 2786 2293 
Q 2538 2584 2113 2584 
z
M 3366 4563 
L 3366 3988 
Q 3128 4100 2886 4159 
Q 2644 4219 2406 4219 
Q 1781 4219 1451 3797 
Q 1122 3375 1075 2522 
Q 1259 2794 1537 2939 
Q 1816 3084 2150 3084 
Q 2853 3084 3261 2657 
Q 3669 2231 3669 1497 
Q 3669 778 3244 343 
Q 2819 -91 2113 -91 
Q 1303 -91 875 529 
Q 447 1150 447 2328 
Q 447 3434 972 4092 
Q 1497 4750 2381 4750 
Q 2619 4750 2861 4703 
Q 3103 4656 3366 4563 
z
" transform="scale(0.015625)"/>
       </defs>
       <use xlink:href="#DejaVuSans-36"/>
       <use xlink:href="#DejaVuSans-30" x="63.623047"/>
      </g>
     </g>
    </g>
    <g id="ytick_4">
     <g id="line2d_12">
      <path d="M 46.965625 207.866232 
L 604.965625 207.866232 
" clip-path="url(#p8bb5cae53d)" style="fill: none; stroke: #dcdcdc; stroke-width: 0.5; stroke-linecap: square"/>
     </g>
     <g id="line2d_13">
      <g>
       <use xlink:href="#m5fdcfb5221" x="46.965625" y="207.866232" style="stroke: #000000; stroke-width: 0.8"/>
      </g>
     </g>
     <g id="text_10">
      <!-- 80 -->
      <g transform="translate(27.240625 211.66545)scale(0.1 -0.1)">
       <defs>
        <path id="DejaVuSans-38" d="M 2034 2216 
Q 1584 2216 1326 1975 
Q 1069 1734 1069 1313 
Q 1069 891 1326 650 
Q 1584 409 2034 409 
Q 2484 409 2743 651 
Q 3003 894 3003 1313 
Q 3003 1734 2745 1975 
Q 2488 2216 2034 2216 
z
M 1403 2484 
Q 997 2584 770 2862 
Q 544 3141 544 3541 
Q 544 4100 942 4425 
Q 1341 4750 2034 4750 
Q 2731 4750 3128 4425 
Q 3525 4100 3525 3541 
Q 3525 3141 3298 2862 
Q 3072 2584 2669 2484 
Q 3125 2378 3379 2068 
Q 3634 1759 3634 1313 
Q 3634 634 3220 271 
Q 2806 -91 2034 -91 
Q 1263 -91 848 271 
Q 434 634 434 1313 
Q 434 1759 690 2068 
Q 947 2378 1403 2484 
z
M 1172 3481 
Q 1172 3119 1398 2916 
Q 1625 2713 2034 2713 
Q 2441 2713 2670 2916 
Q 2900 3119 2900 3481 
Q 2900 3844 2670 4047 
Q 2441 4250 2034 4250 
Q 1625 4250 1398 4047 
Q 1172 3844 1172 3481 
z
" transform="scale(0.015625)"/>
       </defs>
       <use xlink:href="#DejaVuSans-38"/>
       <use xlink:href="#DejaVuSans-30" x="63.623047"/>
      </g>
     </g>
    </g>
    <g id="ytick_5">
     <g id="line2d_14">
      <path d="M 46.965625 167.906535 
L 604.965625 167.906535 
" clip-path="url(#p8bb5cae53d)" style="fill: none; stroke: #dcdcdc; stroke-width: 0.5; stroke-linecap: square"/>
     </g>
     <g id="line2d_15">
      <g>
       <use xlink:href="#m5fdcfb5221" x="46.965625" y="167.906535" style="stroke: #000000; stroke-width: 0.8"/>
      </g>
     </g>
     <g id="text_11">
      <!-- 100 -->
      <g transform="translate(20.878125 171.705754)scale(0.1 -0.1)">
       <use xlink:href="#DejaVuSans-31"/>
       <use xlink:href="#DejaVuSans-30" x="63.623047"/>
       <use xlink:href="#DejaVuSans-30" x="127.246094"/>
      </g>
     </g>
    </g>
    <g id="ytick_6">
     <g id="line2d_16">
      <path d="M 46.965625 127.946838 
L 604.965625 127.946838 
" clip-path="url(#p8bb5cae53d)" style="fill: none; stroke: #dcdcdc; stroke-width: 0.5; stroke-linecap: square"/>
     </g>
     <g id="line2d_17">
      <g>
       <use xlink:href="#m5fdcfb5221" x="46.965625" y="127.946838" style="stroke: #000000; stroke-width: 0.8"/>
      </g>
     </g>
     <g id="text_12">
      <!-- 120 -->
      <g transform="translate(20.878125 131.746057)scale(0.1 -0.1)">
       <use xlink:href="#DejaVuSans-31"/>
       <use xlink:href="#DejaVuSans-32" x="63.623047"/>
       <use xlink:href="#DejaVuSans-30" x="127.246094"/>
      </g>
     </g>
    </g>
    <g id="ytick_7">
     <g id="line2d_18">
      <path d="M 46.965625 87.987141 
L 604.965625 87.987141 
" clip-path="url(#p8bb5cae53d)" style="fill: none; stroke: #dcdcdc; stroke-width: 0.5; stroke-linecap: square"/>
     </g>
     <g id="line2d_19">
      <g>
       <use xlink:href="#m5fdcfb5221" x="46.965625" y="87.987141" style="stroke: #000000; stroke-width: 0.8"/>
      </g>
     </g>
     <g id="text_13">
      <!-- 140 -->
      <g transform="translate(20.878125 91.78636)scale(0.1 -0.1)">
       <use xlink:href="#DejaVuSans-31"/>
       <use xlink:href="#DejaVuSans-34" x="63.623047"/>
       <use xlink:href="#DejaVuSans-30" x="127.246094"/>
      </g>
     </g>
    </g>
    <g id="ytick_8">
     <g id="line2d_20">
      <path d="M 46.965625 48.027445 
L 604.965625 48.027445 
" clip-path="url(#p8bb5cae53d)" style="fill: none; stroke: #dcdcdc; stroke-width: 0.5; stroke-linecap: square"/>
     </g>
     <g id="line2d_21">
      <g>
       <use xlink:href="#m5fdcfb5221" x="46.965625" y="48.027445" style="stroke: #000000; stroke-width: 0.8"/>
      </g>
     </g>
     <g id="text_14">
      <!-- 160 -->
      <g transform="translate(20.878125 51.826663)scale(0.1 -0.1)">
       <use xlink:href="#DejaVuSans-31"/>
       <use xlink:href="#DejaVuSans-36" x="63.623047"/>
       <use xlink:href="#DejaVuSans-30" x="127.246094"/>
      </g>
     </g>
    </g>
    <g id="text_15">
     <!-- Price (USD) -->
     <g transform="translate(14.798437 217.01)rotate(-90)scale(0.1 -0.1)">
      <defs>
       <path id="DejaVuSans-50" d="M 1259 4147 
L 1259 2394 
L 2053 2394 
Q 2494 2394 2734 2622 
Q 2975 2850 2975 3272 
Q 2975 3691 2734 3919 
Q 2494 4147 2053 4147 
L 1259 4147 
z
M 628 4666 
L 2053 4666 
Q 2838 4666 3239 4311 
Q 3641 3956 3641 3272 
Q 3641 2581 3239 2228 
Q 2838 1875 2053 1875 
L 1259 1875 
L 1259 0 
L 628 0 
L 628 4666 
z
" transform="scale(0.015625)"/>
       <path id="DejaVuSans-72" d="M 2631 2963 
Q 2534 3019 2420 3045 
Q 2306 3072 2169 3072 
Q 1681 3072 1420 2755 
Q 1159 2438 1159 1844 
L 1159 0 
L 581 0 
L 581 3500 
L 1159 3500 
L 1159 2956 
Q 1341 3275 1631 3429 
Q 1922 3584 2338 3584 
Q 2397 3584 2469 3576 
Q 2541 3569 2628 3553 
L 2631 2963 
z
" transform="scale(0.015625)"/>
       <path id="DejaVuSans-69" d="M 603 3500 
L 1178 3500 
L 1178 0 
L 603 0 
L 603 3500 
z
M 603 4863 
L 1178 4863 
L 1178 4134 
L 603 4134 
L 603 4863 
z
" transform="scale(0.015625)"/>
       <path id="DejaVuSans-63" d="M 3122 3366 
L 3122 2828 
Q 2878 2963 2633 3030 
Q 2388 3097 2138 3097 
Q 1578 3097 1268 2742 
Q 959 2388 959 1747 
Q 959 1106 1268 751 
Q 1578 397 2138 397 
Q 2388 397 2633 464 
Q 2878 531 3122 666 
L 3122 134 
Q 2881 22 2623 -34 
Q 2366 -91 2075 -91 
Q 1284 -91 818 406 
Q 353 903 353 1747 
Q 353 2603 823 3093 
Q 1294 3584 2113 3584 
Q 2378 3584 2631 3529 
Q 2884 3475 3122 3366 
z
" transform="scale(0.015625)"/>
       <path id="DejaVuSans-20" transform="scale(0.015625)"/>
       <path id="DejaVuSans-28" d="M 1984 4856 
Q 1566 4138 1362 3434 
Q 1159 2731 1159 2009 
Q 1159 1288 1364 580 
Q 1569 -128 1984 -844 
L 1484 -844 
Q 1016 -109 783 600 
Q 550 1309 550 2009 
Q 550 2706 781 3412 
Q 1013 4119 1484 4856 
L 1984 4856 
z
" transform="scale(0.015625)"/>
       <path id="DejaVuSans-55" d="M 556 4666 
L 1191 4666 
L 1191 1831 
Q 1191 1081 1462 751 
Q 1734 422 2344 422 
Q 2950 422 3222 751 
Q 3494 1081 3494 1831 
L 3494 4666 
L 4128 4666 
L 4128 1753 
Q 4128 841 3676 375 
Q 3225 -91 2344 -91 
Q 1459 -91 1007 375 
Q 556 841 556 1753 
L 556 4666 
z
" transform="scale(0.015625)"/>
       <path id="DejaVuSans-53" d="M 3425 4513 
L 3425 3897 
Q 3066 4069 2747 4153 
Q 2428 4238 2131 4238 
Q 1616 4238 1336 4038 
Q 1056 3838 1056 3469 
Q 1056 3159 1242 3001 
Q 1428 2844 1947 2747 
L 2328 2669 
Q 3034 2534 3370 2195 
Q 3706 1856 3706 1288 
Q 3706 609 3251 259 
Q 2797 -91 1919 -91 
Q 1588 -91 1214 -16 
Q 841 59 441 206 
L 441 856 
Q 825 641 1194 531 
Q 1563 422 1919 422 
Q 2459 422 2753 634 
Q 3047 847 3047 1241 
Q 3047 1584 2836 1778 
Q 2625 1972 2144 2069 
L 1759 2144 
Q 1053 2284 737 2584 
Q 422 2884 422 3419 
Q 422 4038 858 4394 
Q 1294 4750 2059 4750 
Q 2388 4750 2728 4690 
Q 3069 4631 3425 4513 
z
" transform="scale(0.015625)"/>
       <path id="DejaVuSans-29" d="M 513 4856 
L 1013 4856 
Q 1481 4119 1714 3412 
Q 1947 2706 1947 2009 
Q 1947 1309 1714 600 
Q 1481 -109 1013 -844 
L 513 -844 
Q 928 -128 1133 580 
Q 1338 1288 1338 2009 
Q 1338 2731 1133 3434 
Q 928 4138 513 4856 
z
" transform="scale(0.015625)"/>
      </defs>
      <use xlink:href="#DejaVuSans-50"/>
      <use xlink:href="#DejaVuSans-72" x="58.552734"/>
      <use xlink:href="#DejaVuSans-69" x="99.666016"/>
      <use xlink:href="#DejaVuSans-63" x="127.449219"/>
      <use xlink:href="#DejaVuSans-65" x="182.429688"/>
      <use xlink:href="#DejaVuSans-20" x="243.953125"/>
      <use xlink:href="#DejaVuSans-28" x="275.740234"/>
      <use xlink:href="#DejaVuSans-55" x="314.753906"/>
      <use xlink:href="#DejaVuSans-53" x="387.947266"/>
      <use xlink:href="#DejaVuSans-44" x="451.423828"/>
      <use xlink:href="#DejaVuSans-29" x="528.425781"/>
     </g>
    </g>
   </g>
   <g id="line2d_22">
    <path d="M 76.496723 338.962608 
L 76.728249 339.729634 
L 76.959775 339.838125 
L 77.422826 338.725048 
L 77.654352 338.7726 
M 87.378429 338.981189 
L 87.609955 338.974796 
L 88.073006 339.606159 
L 88.304532 339.409957 
M 89.46216 338.08849 
L 89.693686 337.567615 
L 89.925212 337.683099 
L 90.156737 337.215171 
L 90.388263 337.270714 
L 90.619789 337.204381 
L 90.851314 337.00778 
L 91.314366 336.896292 
L 91.545891 337.382002 
M 92.008943 337.807373 
L 92.240468 336.271722 
L 92.471994 336.415177 
L 92.70352 336.237557 
L 93.166571 335.357644 
L 93.398097 335.413987 
L 93.861148 334.699708 
M 103.122175 333.68573 
L 103.3537 332.885937 
L 103.585226 332.771652 
L 103.816752 333.210609 
L 104.048277 333.237582 
L 104.279803 332.900922 
L 104.511328 333.386832 
L 104.97438 332.766058 
M 109.604893 331.135303 
L 109.836419 330.559683 
L 110.067944 330.667574 
L 110.530996 330.554289 
L 110.762521 330.01723 
M 111.225573 330.697344 
L 111.457098 330.631611 
L 111.688624 330.956283 
L 111.92015 330.518525 
M 122.107279 331.562871 
L 122.338805 331.973257 
L 122.57033 332.042188 
M 132.988985 329.756094 
L 133.220511 330.351893 
L 133.452036 330.354091 
L 133.683562 329.863186 
L 134.146613 330.627415 
L 134.378139 330.479764 
L 134.609665 330.745096 
L 134.84119 330.670172 
L 135.304242 329.802447 
L 135.535767 329.764685 
L 135.767293 330.260585 
L 135.998819 327.190881 
M 137.851024 325.289998 
L 138.08255 325.438249 
L 138.545601 325.92276 
L 138.777127 325.402685 
L 139.240178 325.32836 
L 139.471704 325.688796 
L 139.934755 324.563531 
L 140.397806 324.440855 
L 140.629332 324.372324 
M 144.102217 322.111005 
L 144.333743 321.651468 
M 145.259845 322.295818 
L 145.491371 322.335778 
L 145.722896 322.610501 
L 145.954422 322.570541 
M 151.742564 319.953181 
L 151.974089 319.688448 
L 152.437141 320.192939 
L 152.668666 320.272858 
L 152.900192 320.512617 
L 153.131718 320.382748 
L 153.363243 319.758377 
L 153.594769 319.768367 
M 163.550373 317.850302 
L 164.24495 319.623513 
L 164.708001 317.875277 
L 164.939526 316.521642 
L 165.171052 316.261904 
L 165.402578 315.342831 
L 165.634103 315.148027 
L 165.865629 315.202972 
L 166.097155 314.388793 
L 166.32868 314.089095 
L 166.560206 314.268914 
L 167.023257 313.060133 
L 167.254783 313.45973 
L 167.486309 313.329861 
L 167.717834 313.409781 
L 167.94936 313.254937 
M 178.599541 314.348833 
L 178.831066 314.763415 
L 179.062592 313.399791 
L 179.294118 312.985209 
L 179.525643 311.561645 
L 179.757169 311.271937 
L 179.988695 311.211997 
L 180.22022 313.190002 
L 180.683272 308.314919 
L 180.914797 309.184043 
L 181.146323 308.449783 
L 181.377849 308.439793 
L 181.609374 307.985252 
L 181.8409 307.795443 
L 182.072426 308.299934 
L 182.303951 307.905332 
M 222.126365 312.655541 
L 222.357891 311.831373 
L 222.589417 312.240959 
M 241.11147 320.902224 
L 241.342995 320.75737 
M 242.732149 320.407722 
L 242.963675 319.703433 
L 243.195201 319.373765 
L 243.426726 319.298841 
L 243.658252 319.40873 
L 243.889778 317.490665 
L 244.121303 317.380775 
L 244.352829 317.006153 
M 245.047406 317.240916 
L 245.510457 317.170987 
L 245.741983 316.626536 
L 245.973508 316.496667 
L 246.43656 314.773405 
M 254.539958 321.131992 
L 254.771484 321.39173 
L 255.003009 321.356765 
L 255.234535 321.042083 
M 255.697586 322.580531 
L 255.929112 322.490622 
L 256.160638 320.812314 
L 256.392163 321.007118 
L 256.623689 320.472657 
L 256.855215 320.652476 
M 262.643356 321.052073 
L 262.874882 321.731387 
L 263.337933 320.552576 
L 263.569459 319.953181 
M 264.495562 319.783352 
L 264.727087 319.413725 
L 265.190139 319.044098 
L 265.421664 319.318821 
L 265.65319 318.359788 
L 265.884715 318.364783 
L 266.116241 317.840312 
L 266.579292 317.775377 
L 267.042344 318.424723 
L 267.505395 319.41872 
L 267.736921 316.281884 
L 267.968446 315.587584 
L 268.199972 315.652519 
M 268.663023 315.517655 
L 268.894549 314.863315 
M 274.682691 314.998179 
L 274.914216 316.191974 
L 275.145742 315.038138 
M 277.229473 311.406801 
L 277.692524 311.216992 
M 278.155576 311.671534 
L 278.387101 311.236972 
L 278.618627 311.501705 
L 278.850153 311.261947 
L 279.081678 311.236972 
M 287.879653 312.031171 
L 288.342705 313.015179 
L 288.57423 312.810385 
L 288.805756 313.204987 
L 289.268807 312.245954 
L 289.500333 311.701504 
M 292.510167 309.383841 
L 292.741692 309.398826 
L 292.973218 309.853368 
L 293.204744 309.688534 
L 293.436269 309.753468 
L 293.667795 309.458766 
L 294.130846 308.269965 
L 294.362372 308.210025 
L 294.593898 307.890347 
L 295.056949 308.24499 
L 295.288475 307.765473 
L 296.446103 307.780458 
L 296.677629 306.826421 
L 297.14068 306.791456 
L 297.603731 307.091154 
L 297.835257 303.394882 
L 298.066783 303.504771 
L 298.298308 303.230048 
L 298.76136 302.006282 
L 299.224411 301.56173 
L 299.455937 301.711579 
L 300.150514 300.018287 
M 301.308142 299.508801 
L 301.539668 299.443867 
M 303.623399 298.434884 
L 303.854924 298.205116 
M 308.948489 296.96137 
L 309.180014 296.876456 
L 309.41154 297.251078 
L 309.643066 296.861471 
L 310.106117 297.435892 
L 310.337643 296.556778 
L 310.569168 296.641693 
L 311.03222 295.512831 
L 311.263745 295.937403 
M 321.6824 295.937403 
L 321.913926 295.767574 
L 322.145452 296.027312 
L 322.376977 295.73261 
L 322.608503 296.411925 
L 322.840029 295.687655 
M 335.57394 292.505864 
L 335.805466 291.212169 
L 336.036991 290.667718 
L 336.268517 291.14224 
M 338.120722 289.833559 
L 338.352248 289.508887 
L 338.583774 289.78361 
L 338.815299 289.289109 
L 339.046825 287.845565 
L 339.278351 287.550862 
L 339.509876 287.905504 
L 339.741402 289.7936 
L 339.972928 289.658736 
L 340.204453 289.698696 
L 340.435979 289.234164 
L 340.667505 289.578816 
M 350.391582 282.50595 
L 350.623108 282.490965 
L 350.854634 282.251207 
L 351.086159 283.175275 
M 356.642775 289.538857 
L 356.874301 286.272152 
L 357.337352 290.208182 
L 357.568878 289.578816 
L 357.800404 286.43199 
L 358.031929 285.617811 
M 368.68211 284.928507 
L 368.913635 285.168265 
L 369.145161 286.317106 
L 369.608212 285.677751 
L 369.839738 286.626794 
L 370.302789 283.24021 
L 370.534315 279.508973 
L 370.765841 279.349134 
M 372.618046 274.578945 
L 372.849572 273.709822 
L 373.081097 274.304222 
M 380.489919 275.837676 
L 380.721444 275.098421 
M 381.879073 272.286258 
L 382.110598 272.136409 
L 382.342124 272.346197 
L 382.57365 272.076469 
L 382.805175 272.60094 
L 383.036701 271.861686 
L 383.268227 272.081464 
L 383.499752 271.99655 
L 383.962804 270.393167 
L 384.194329 270.69786 
L 384.425855 272.311232 
L 384.657381 272.845693 
L 384.888906 272.655885 
L 385.120432 267.056532 
M 386.046535 264.254359 
L 386.27806 264.184429 
L 386.509586 263.37025 
L 386.741111 264.04457 
L 387.204163 262.935689 
L 387.435688 262.690935 
M 411.051306 291.636741 
L 411.282832 292.780587 
L 411.745883 290.313076 
L 411.977409 289.853539 
M 412.44046 291.13225 
L 412.671986 290.822562 
L 412.903511 291.431947 
L 413.135037 288.904497 
L 413.598088 290.442945 
M 417.070973 281.776686 
L 417.302499 282.261197 
L 417.76555 280.677794 
L 417.997076 280.627844 
L 418.228602 280.358116 
L 418.460127 281.21725 
L 418.691653 280.308167 
L 418.923179 279.86861 
M 419.617756 281.541922 
L 419.849281 281.337129 
M 422.396064 273.430104 
L 422.627589 274.404122 
L 422.859115 273.564968 
L 423.090641 273.440094 
L 423.553692 272.181363 
L 423.785218 270.792764 
L 424.016743 270.128434 
L 424.248269 269.958605 
M 432.120141 277.96553 
L 432.814718 279.104381 
L 433.046244 278.644844 
L 433.509295 281.142325 
L 433.740821 277.975519 
L 434.203872 275.188331 
L 434.435398 272.725814 
M 447.400835 265.727872 
L 447.632361 265.043563 
M 451.568297 258.455208 
L 451.799823 258.974684 
M 452.957451 255.523165 
L 453.188977 258.335329 
L 453.420502 257.406266 
L 453.652028 254.314384 
L 453.883554 254.289409 
L 454.115079 255.618069 
L 454.578131 252.775936 
L 454.809656 249.719019 
L 455.272708 250.163571 
L 455.504233 250.638092 
L 455.967285 249.61912 
L 456.19881 247.571185 
L 456.430336 247.845908 
L 456.661862 246.23753 
L 456.893387 246.037732 
L 457.356439 243.305488 
L 457.587964 246.182586 
L 457.81949 246.197571 
L 458.051016 243.450342 
M 462.913055 235.7581 
L 463.14458 238.110727 
L 463.376106 236.966881 
L 463.839157 232.4864 
L 464.070683 234.37949 
L 464.76526 232.111778 
L 465.228311 227.916009 
L 465.459837 227.641286 
L 465.691363 227.975949 
L 465.922888 227.83609 
L 466.154414 228.125798 
L 466.38594 225.848095 
L 466.617465 225.713231 
L 466.848991 222.896073 
L 467.080516 222.951017 
L 467.543568 221.027957 
L 467.775093 217.681332 
L 468.006619 219.139861 
M 484.907993 229.379533 
L 485.139518 233.655221 
L 485.371044 229.794115 
L 485.60257 230.328576 
L 485.834095 226.362576 
M 486.297147 228.555365 
L 486.760198 220.953032 
L 486.991724 223.315649 
L 487.223249 221.27271 
M 489.30698 214.00504 
L 489.538506 210.383692 
L 489.770031 211.292776 
L 490.001557 208.250844 
M 490.92766 208.810279 
L 491.159185 208.74035 
L 491.390711 208.895194 
M 491.853762 206.197914 
L 492.085288 205.308811 
L 492.316814 206.7074 
M 494.400545 192.087146 
L 494.63207 192.017217 
L 494.863596 193.021204 
M 496.021224 191.068174 
L 496.25275 186.99728 
L 496.484276 185.488801 
L 496.715801 185.833454 
M 499.031058 174.854527 
L 499.262584 175.244134 
M 500.188686 182.202116 
L 500.420212 182.661653 
L 500.651738 178.276076 
L 500.883263 181.387938 
L 501.346315 175.518857 
L 501.57784 155.39915 
L 501.809366 150.049545 
L 502.272417 147.801812 
L 502.503943 140.129551 
L 502.735469 145.703928 
L 502.966994 142.477183 
L 503.19852 149.175427 
L 503.661571 137.916782 
M 520.099893 140.234445 
L 520.562945 135.878838 
L 520.79447 134.759966 
M 521.952099 123.451372 
L 522.183624 120.454395 
M 538.158895 126.887906 
L 538.390421 127.966818 
M 538.853472 122.871957 
L 539.084998 127.767019 
L 539.779575 125.169639 
L 540.0111 128.146637 
L 540.242626 123.651171 
M 549.966704 119.395463 
L 550.198229 117.837035 
L 550.429755 120.873972 
L 550.661281 116.178707 
L 550.892806 116.158728 
L 551.124332 114.48042 
L 551.355858 113.701206 
L 551.587383 115.739151 
L 551.818909 113.26165 
L 552.050435 107.007957 
L 552.28196 108.686264 
L 552.513486 107.667292 
L 552.745012 104.390597 
L 552.976537 107.047917 
L 553.439589 100.01501 
L 554.134166 101.753257 
M 570.109436 89.705408 
L 570.340962 85.769378 
L 570.804013 81.413771 
L 571.035539 82.192985 
M 571.49859 84.970184 
L 571.730116 86.168975 
L 571.961642 80.474718 
M 574.508424 68.40689 
L 574.73995 70.085197 
L 575.203001 65.030296 
L 575.434527 66.089228 
M 576.129104 66.388925 
L 576.360629 72.163101 
L 576.592155 72.263001 
L 576.823681 68.027273 
L 577.055206 68.007293 
L 577.286732 66.009308 
L 577.518258 61.034326 
L 577.981309 46.928553 
L 577.981309 46.928553 
" clip-path="url(#p8bb5cae53d)" style="fill: none; stroke: #00ff7f; stroke-linecap: square"/>
   </g>
   <g id="line2d_23">
    <path d="M 72.560787 334.744662 
L 72.792313 334.625582 
L 73.023838 334.800006 
L 73.48689 336.118277 
L 73.718415 337.099487 
M 83.442493 335.481719 
L 83.674019 335.613386 
L 83.905545 335.543257 
L 84.13707 335.643755 
L 84.600121 336.417975 
L 84.831647 336.178816 
L 85.294698 336.479313 
M 131.13678 328.816441 
L 131.368305 329.188067 
M 170.496142 308.452181 
L 170.727668 308.964264 
L 170.959194 308.26497 
M 199.43685 301.749141 
L 199.668376 301.881408 
M 207.308723 304.358909 
L 208.0033 301.736554 
L 208.234825 302.395889 
L 208.466351 305.158103 
M 229.303661 308.85937 
L 229.535186 308.614617 
L 229.998238 309.623599 
M 230.461289 308.249985 
L 230.692815 308.624607 
L 230.92434 308.649582 
L 231.155866 309.953267 
L 231.387392 309.678544 
L 231.618917 311.172038 
L 231.850443 311.521685 
L 232.081969 312.515682 
L 232.313494 312.091111 
L 232.54502 313.269922 
M 234.1657 313.389801 
L 234.397225 314.099085 
M 249.677919 312.280919 
L 249.909445 313.4897 
L 250.14097 313.42976 
L 250.372496 313.249942 
L 250.835547 311.741463 
L 251.067073 311.711493 
L 251.530124 314.019166 
L 251.76165 314.303879 
L 251.993176 314.19399 
L 252.224701 314.773405 
L 252.456227 314.918259 
L 252.919278 315.582589 
M 258.244369 317.580574 
L 258.475894 317.825327 
M 259.401997 318.439707 
L 259.633523 318.239909 
M 280.239307 309.094133 
L 280.470832 309.273952 
L 280.702358 308.949279 
L 281.165409 309.029199 
L 281.396935 309.204022 
L 281.628461 309.233992 
L 281.859986 309.463761 
L 282.323038 308.639592 
L 282.554563 309.968252 
M 315.894259 291.11227 
L 316.125784 290.847537 
L 316.35731 290.977406 
M 331.638004 286.112313 
L 331.869529 285.78764 
L 332.101055 285.762665 
L 332.332581 286.746673 
M 353.16989 279.249235 
L 353.401416 279.698781 
L 353.632942 278.245247 
L 353.864467 278.165328 
L 354.095993 278.564925 
L 354.327519 279.294189 
M 375.62788 271.886661 
L 375.859405 271.147406 
L 376.090931 270.812744 
L 376.322457 271.072482 
M 399.938074 258.385278 
L 400.1696 256.706971 
L 400.401126 264.069545 
L 400.632651 267.011578 
L 400.864177 265.922676 
L 401.095703 262.835789 
L 401.327228 263.565054 
L 401.558754 265.573029 
M 404.337062 277.326174 
L 404.800113 278.504985 
L 405.031639 275.388129 
M 428.415731 262.551077 
L 428.647256 263.235386 
L 428.878782 261.936696 
L 429.110308 263.570049 
L 429.341833 266.377218 
L 429.573359 266.357238 
L 429.804885 267.446139 
L 430.03641 269.214356 
M 473.331709 205.263856 
L 473.563235 207.851247 
M 506.671405 99.615413 
L 506.902931 105.169811 
M 513.154123 119.155705 
L 513.385649 125.749055 
M 529.823971 81.673509 
L 530.055497 83.871293 
M 530.750074 99.695333 
L 530.981599 97.997045 
L 531.213125 100.094929 
L 531.444651 93.201882 
L 531.676176 94.460612 
M 532.139228 95.959101 
L 532.370753 97.197851 
L 532.602279 97.717328 
L 532.833805 97.237811 
L 533.06533 101.593418 
M 543.715511 104.090899 
L 543.947037 99.335695 
M 565.710449 54.640774 
L 566.1735 59.875495 
L 566.1735 59.875495 
" clip-path="url(#p8bb5cae53d)" style="fill: none; stroke: #ff4500; stroke-linecap: square"/>
   </g>
   <g id="line2d_24">
    <path d="M 73.949941 337.036551 
L 74.181467 336.879709 
L 74.644518 337.506876 
L 74.876044 337.292093 
L 75.107569 337.237148 
L 75.339095 336.615575 
L 75.570621 336.712677 
L 75.802146 337.035951 
L 76.033672 337.746035 
L 76.265198 337.289895 
M 77.885877 338.56441 
L 78.348929 337.013174 
L 78.580454 336.109685 
L 78.81198 336.358834 
L 79.506557 334.830376 
L 79.738083 334.976828 
L 79.969608 334.607001 
L 80.43266 335.382619 
L 80.664185 335.256346 
L 81.127237 337.103683 
L 81.358762 336.695095 
L 81.590288 336.789 
L 81.821814 336.099096 
L 82.053339 336.332461 
L 82.747916 335.940656 
L 82.979442 336.205389 
L 83.210968 335.954842 
M 85.526224 336.865323 
L 85.75775 336.595995 
L 85.989275 337.018169 
L 86.220801 336.87891 
L 86.452327 336.895293 
L 86.915378 337.960818 
L 87.146904 338.198978 
M 88.536058 338.50447 
L 88.767583 337.842937 
L 88.999109 337.678104 
L 89.230635 337.91926 
M 94.555725 334.525683 
L 94.787251 334.808997 
M 95.250302 334.355854 
L 95.481828 332.771053 
L 95.713353 332.133696 
L 95.944879 332.175853 
L 96.40793 331.474361 
L 96.639456 331.950281 
L 97.102507 331.815417 
L 97.334033 331.953877 
M 97.797084 332.840982 
L 98.260136 332.619006 
L 98.491661 332.938884 
L 98.723187 332.841582 
L 98.954713 332.120109 
L 99.186238 332.364263 
L 99.417764 332.153676 
L 99.64929 331.586448 
L 99.880815 332.409218 
L 100.112341 334.33088 
L 100.343867 333.975438 
L 100.575392 334.531277 
L 100.806918 335.586014 
L 101.038444 335.214988 
L 101.501495 334.00321 
L 101.733021 334.352258 
L 101.964546 332.69453 
L 102.196072 332.804419 
L 102.427598 333.344674 
L 102.659123 333.010012 
L 102.890649 333.257562 
M 105.205905 332.539686 
L 106.363534 331.392243 
L 106.595059 330.502341 
L 106.826585 330.609033 
L 107.289636 329.7497 
L 107.521162 330.174472 
L 107.752688 329.894754 
L 107.984213 330.836604 
L 108.215739 330.250195 
L 108.67879 330.597445 
L 108.910316 330.117929 
L 109.141842 330.210835 
L 109.373367 330.533909 
M 112.151675 330.613829 
L 112.383201 330.332712 
L 113.077778 328.025639 
L 113.309304 328.371091 
L 113.540829 327.294177 
L 113.772355 327.388482 
L 114.003881 327.18149 
L 114.235406 327.743923 
L 114.466932 327.286385 
L 114.698458 327.349321 
L 114.929983 327.64822 
L 115.161509 327.706761 
L 115.393035 328.142721 
L 115.62456 327.923742 
L 116.087612 328.403858 
L 116.319137 328.854203 
L 116.550663 328.528732 
L 116.782189 327.025248 
L 117.24524 327.467002 
L 117.708291 328.136327 
L 117.939817 327.672595 
L 118.171343 328.235427 
L 118.402868 329.102553 
L 118.634394 328.891965 
L 118.86592 329.169685 
L 119.097445 328.925531 
L 119.560497 329.676174 
L 119.792022 329.477175 
L 120.023548 328.716542 
M 120.486599 328.155508 
L 120.718125 329.124531 
L 120.949651 328.525135 
L 121.181176 328.351111 
L 121.412702 328.017847 
L 121.644228 328.739319 
L 121.875753 328.423238 
M 122.801856 331.983847 
L 123.033382 331.917514 
L 123.496433 331.12831 
L 123.727959 331.134104 
L 124.422536 329.460792 
L 124.654061 329.463589 
L 124.885587 328.856401 
L 125.117112 328.88777 
L 125.348638 328.744914 
L 125.811689 329.803846 
L 126.043215 330.225021 
L 126.274741 330.060786 
L 126.737792 330.788652 
L 126.969318 330.052195 
L 127.200843 330.154292 
L 127.432369 330.045802 
L 127.663895 329.797452 
L 127.89542 329.717533 
L 128.358472 329.854594 
L 128.589997 329.820429 
L 128.821523 329.451401 
L 129.053049 329.414239 
L 129.5161 330.26498 
L 129.747626 330.118528 
L 129.979151 329.786063 
L 130.210677 329.796053 
L 130.442203 329.978669 
L 130.905254 329.230224 
M 131.599831 329.3537 
L 132.062882 329.405048 
L 132.294408 329.054601 
L 132.525934 328.990466 
L 132.757459 329.258795 
M 136.230344 326.893381 
L 136.46187 325.312775 
L 136.924921 325.598087 
L 137.387973 325.420467 
L 137.619498 324.82247 
M 140.860858 323.882817 
L 141.092383 323.062245 
L 141.323909 323.177729 
L 141.555435 322.366347 
L 141.78696 322.536176 
L 142.018486 322.846663 
L 142.481537 321.692826 
L 142.713063 321.512208 
L 142.944589 321.63928 
L 143.176114 320.902224 
L 143.40764 320.627501 
L 143.639166 320.822304 
L 143.870691 321.606513 
M 144.565268 321.711408 
L 144.796794 321.661458 
L 145.028319 321.821297 
M 146.185948 322.300813 
L 146.648999 321.286836 
L 146.880525 320.992133 
L 147.11205 321.012113 
L 147.343576 320.73739 
L 147.575102 319.769366 
L 147.806627 320.078055 
L 148.038153 320.058075 
L 148.269679 320.235496 
L 148.501204 320.142989 
L 148.73273 319.528609 
L 148.964256 320.09304 
L 149.195781 320.362768 
L 149.427307 321.206916 
L 149.658833 320.537591 
L 149.890358 320.782944 
L 150.121884 320.392738 
L 150.35341 319.158982 
L 150.584935 319.238901 
L 150.816461 318.918624 
L 151.047987 318.244904 
L 151.279512 318.564581 
L 151.511038 318.679466 
M 153.826295 319.134007 
L 154.289346 318.76438 
L 154.752397 317.490665 
L 155.215449 317.46569 
L 155.446974 317.096063 
L 155.6785 316.986173 
L 155.910026 317.311445 
L 156.141551 316.691471 
L 156.604603 316.506657 
L 156.836128 316.10706 
L 157.067654 318.284864 
L 157.29918 318.69445 
L 157.530705 318.269879 
L 157.993757 318.759385 
L 158.225282 317.255901 
L 158.688334 316.926234 
L 158.919859 316.941219 
L 159.151385 317.325831 
L 159.382911 316.966194 
L 159.614436 316.861299 
L 159.845962 317.275881 
L 160.077488 317.225932 
L 160.309013 316.436728 
L 160.540539 316.881279 
L 160.772065 318.819325 
L 161.00359 317.380775 
L 161.235116 317.700453 
L 161.466642 317.380775 
L 161.698167 318.164984 
L 161.929693 317.805347 
L 162.161219 317.945206 
L 162.392744 317.945206 
L 162.62427 318.379768 
L 162.855796 317.355801 
L 163.087321 317.245911 
L 163.318847 317.390765 
M 168.180886 313.344846 
L 168.412411 312.910284 
L 169.106988 310.672541 
L 169.338514 310.767446 
L 169.57004 310.028191 
L 169.801565 310.427788 
L 170.033091 309.608614 
L 170.264617 309.528695 
M 171.190719 308.299934 
L 171.422245 310.22799 
L 171.653771 310.447768 
L 171.885296 309.798423 
L 172.348348 310.262954 
L 172.579873 311.561645 
L 172.811399 310.702511 
L 173.042925 311.786418 
L 173.27445 311.951252 
L 173.969027 314.386196 
L 174.432079 311.436771 
L 174.663604 311.871332 
L 174.89513 311.291917 
L 175.358181 311.756448 
L 175.589707 310.767446 
L 175.821233 310.807405 
L 176.052758 311.501705 
L 176.284284 312.570627 
L 176.51581 313.095098 
L 176.747335 314.633546 
L 176.978861 314.628551 
L 177.210387 313.884302 
L 177.441912 311.816388 
L 177.673438 311.756448 
L 177.904964 313.135058 
L 178.136489 312.650546 
L 178.368015 312.860335 
M 182.535477 306.756491 
L 182.998528 304.538728 
L 183.46158 303.854418 
L 183.693105 303.412264 
L 183.924631 303.54473 
L 184.156157 303.022657 
M 184.619208 301.686605 
L 184.850734 303.374902 
L 185.082259 302.56332 
L 185.313785 303.539735 
L 185.776836 303.090189 
L 186.008362 303.499776 
L 186.239887 304.563703 
L 186.471413 304.468798 
L 186.702939 304.19907 
L 187.16599 306.646602 
L 187.397516 305.542715 
L 187.629041 305.972282 
L 187.860567 305.292967 
L 188.323618 303.534741 
L 188.555144 304.021649 
L 188.78667 304.818446 
L 189.018195 304.164106 
L 189.249721 304.423844 
L 189.481247 306.077176 
L 189.712772 305.647609 
L 189.944298 306.142111 
L 190.175824 304.583683 
L 190.407349 305.552705 
L 190.638875 305.642615 
L 190.870401 305.108154 
L 191.101926 304.094176 
M 191.564978 304.968295 
L 192.028029 304.21905 
L 192.259555 304.343924 
L 192.49108 304.618647 
L 192.722606 304.378889 
L 192.954132 304.683582 
L 193.185657 305.392866 
L 193.417183 303.969302 
L 193.648709 304.313955 
L 194.11176 302.935345 
L 194.343286 302.630652 
L 194.574811 301.446846 
L 195.037863 303.449826 
L 195.269388 305.193068 
L 195.500914 303.294982 
L 195.73244 303.419856 
L 195.963965 304.868395 
M 196.427017 305.138123 
L 196.658542 303.959312 
L 196.890068 304.608657 
L 197.121594 304.836028 
L 197.353119 304.763501 
L 197.584645 303.294982 
L 197.816171 303.384892 
L 198.047696 302.675607 
L 198.510748 302.740542 
L 198.973799 301.501791 
L 199.205325 302.96032 
M 200.362953 302.790491 
L 200.594479 302.710572 
L 201.520581 304.059212 
L 201.752107 303.329947 
L 201.983633 303.474801 
L 202.215158 304.184086 
L 202.446684 304.30896 
L 202.67821 303.969302 
L 202.909735 304.119151 
M 203.372787 304.468798 
L 203.604312 303.964307 
L 203.835838 304.254015 
L 204.067364 303.714559 
L 204.530415 304.393874 
L 204.761941 305.502756 
L 205.224992 304.468798 
L 205.456517 304.548718 
L 205.919569 304.92334 
L 206.38262 307.730509 
L 206.845671 304.938325 
L 207.077197 304.9633 
M 208.697877 305.188073 
L 208.929402 305.51774 
L 209.160928 306.381869 
L 209.392454 306.077176 
L 209.855505 306.581667 
L 210.087031 307.116128 
M 210.550082 310.442773 
L 210.781608 310.063156 
L 211.013133 310.19802 
L 211.244659 310.003216 
L 211.476185 307.905332 
L 211.70771 311.017194 
L 211.939236 310.143075 
L 212.170762 310.18803 
L 212.633813 309.184043 
L 212.865339 309.51371 
L 213.096864 310.257959 
L 213.32839 311.436771 
L 213.559916 314.878299 
L 213.791441 316.196969 
L 214.022967 315.887282 
L 214.486018 311.301907 
L 214.717544 311.117093 
L 214.94907 311.381826 
L 215.180595 313.899287 
L 215.412121 311.591614 
L 215.875172 313.125068 
L 216.106698 311.606599 
L 216.338224 312.685511 
L 216.801275 310.657556 
L 217.264326 309.623599 
L 217.495852 309.558665 
L 217.727378 310.80241 
L 217.958903 311.037174 
L 218.190429 310.15806 
L 218.421955 311.062148 
L 218.885006 310.262954 
L 219.116532 310.407808 
L 219.579583 313.229962 
L 219.811109 312.610587 
L 220.042634 312.970224 
L 220.27416 312.570627 
M 220.737211 312.106095 
L 220.968737 312.370828 
L 221.200263 313.010184 
L 221.431788 311.701504 
L 221.663314 311.961242 
L 221.89484 311.866337 
M 222.820942 311.896307 
L 223.052468 310.877335 
L 223.283994 310.88233 
L 223.515519 310.013206 
L 223.747045 308.22501 
L 223.978571 310.123096 
L 224.210096 310.487728 
L 224.441622 308.130106 
L 224.673148 307.50074 
L 224.904673 308.015222 
L 225.367724 306.481768 
L 225.59925 306.766481 
L 225.830776 307.305937 
L 226.062301 307.236007 
L 226.293827 307.480761 
L 226.525353 309.378846 
L 226.988404 309.903317 
L 227.21993 311.591614 
L 227.451455 310.675139 
L 227.682981 310.917294 
L 227.914507 309.119108 
L 228.146032 308.374859 
L 228.377558 308.115121 
L 228.609084 308.88934 
M 232.776546 314.743435 
L 233.008071 314.09409 
M 234.628751 315.128048 
L 234.860277 315.083093 
L 235.554854 319.528609 
L 235.786379 319.273866 
L 236.249431 317.775377 
L 236.480956 319.059083 
L 236.712482 317.995156 
L 236.944008 319.188952 
L 237.175533 319.423715 
L 237.407059 319.35878 
L 237.638585 319.603534 
L 237.87011 317.046113 
L 238.101636 318.035115 
L 238.333162 317.760393 
L 238.564687 321.042083 
L 238.796213 320.70742 
L 239.027739 319.084058 
L 239.259264 319.538599 
L 239.49079 320.512617 
L 239.722316 319.578559 
L 239.953841 319.453685 
L 240.185367 320.742385 
L 240.416893 320.247884 
L 240.648418 320.257874 
L 240.879944 320.617511 
M 241.574521 319.433705 
L 241.806047 318.69445 
L 242.037572 319.623513 
L 242.269098 319.733403 
L 242.500624 319.313826 
M 244.584355 316.251914 
L 244.81588 316.82134 
M 246.668085 314.85832 
L 247.131137 314.803375 
L 247.362662 314.398783 
L 247.594188 314.693486 
M 248.057239 315.163012 
L 248.520291 312.980214 
L 248.751816 313.264927 
L 249.214868 312.201 
L 249.446393 312.85534 
M 253.150804 318.844299 
L 253.38233 320.337793 
L 253.613855 320.882244 
L 253.845381 320.932193 
L 254.076907 320.162969 
L 254.308432 320.657471 
M 257.08674 320.142989 
L 257.549792 318.80434 
L 257.781317 317.945206 
L 258.012843 317.550604 
M 258.70742 318.524622 
L 258.938946 318.894249 
L 259.170471 318.79435 
M 259.865048 318.284864 
L 260.096574 317.930221 
L 260.3281 318.339808 
L 260.559625 319.084058 
L 260.791151 319.024118 
L 261.022677 319.183957 
L 261.254202 318.979163 
L 261.485728 320.088045 
L 261.717254 320.202929 
L 261.948779 319.798337 
L 262.180305 319.978156 
L 262.411831 319.703433 
M 263.800985 319.808327 
L 264.03251 320.257874 
L 264.264036 319.988146 
M 269.126075 314.823355 
L 269.589126 313.574614 
L 269.820652 313.354836 
L 270.052177 313.759428 
L 270.283703 313.794393 
L 270.515229 313.669519 
L 270.746754 313.020174 
L 271.441331 313.219972 
M 271.904383 313.504685 
L 272.135908 313.334856 
L 272.59896 313.974211 
L 272.830485 314.288894 
L 273.062011 314.348833 
L 273.293537 314.75842 
L 273.525062 314.708471 
L 274.451165 313.579609 
M 275.377268 313.784403 
L 275.840319 309.978242 
L 276.071845 310.302914 
L 276.30337 310.972239 
L 276.766422 310.987224 
L 276.997947 310.452763 
M 279.313204 310.817395 
L 279.54473 310.732481 
L 279.776255 309.738483 
L 280.007781 309.613609 
M 282.786089 310.522692 
L 283.017615 310.90231 
L 283.24914 310.992219 
L 283.480666 312.016186 
L 283.712192 311.966237 
L 284.175243 313.339851 
L 284.406769 312.555642 
L 284.638294 312.23097 
L 284.86982 312.320879 
L 285.101346 313.864322 
L 285.332871 313.544645 
L 285.564397 314.903274 
L 285.795922 314.20398 
L 286.027448 312.76543 
L 286.490499 312.730466 
L 286.722025 311.896307 
L 286.953551 311.861342 
L 287.185076 312.146055 
L 287.416602 311.866337 
L 287.648128 311.976226 
M 289.731859 310.787425 
L 289.963384 311.112098 
L 290.19491 310.16805 
L 290.426436 310.16805 
L 290.657961 309.853368 
L 290.889487 309.778443 
L 291.352538 309.288937 
L 291.584064 309.233992 
L 291.81559 309.618604 
M 300.382039 300.100604 
L 300.613565 299.913393 
L 300.845091 299.423887 
L 301.076616 299.219093 
M 302.234245 297.880443 
L 302.46577 298.295025 
L 302.697296 297.885438 
L 302.928822 298.105217 
L 303.160347 298.015307 
L 303.391873 298.275045 
M 304.08645 298.175146 
L 304.317976 298.28004 
L 304.549501 297.545781 
L 304.781027 297.430897 
L 305.012553 297.780544 
L 305.244078 297.046285 
L 305.475604 297.855469 
L 305.70713 297.066265 
L 306.170181 297.455872 
L 306.401706 297.335993 
L 306.633232 295.877464 
M 307.096283 295.812529 
L 307.327809 295.947393 
L 307.559335 295.927413 
L 307.79086 295.392952 
L 308.253912 295.947393 
L 308.716963 296.192146 
M 311.495271 295.882459 
L 311.726797 295.952388 
L 311.958322 294.488864 
L 312.189848 294.024333 
L 312.652899 294.513839 
L 312.884425 293.300063 
L 313.115951 291.277104 
L 313.347476 290.787597 
L 313.579002 291.152229 
L 313.810528 290.807577 
L 314.042053 289.73366 
L 314.505105 290.048343 
M 314.968156 291.511867 
L 315.199682 291.252129 
M 316.588836 290.947436 
L 316.820361 291.401978 
L 317.051887 291.192189 
L 317.283413 290.058333 
L 317.514938 290.817567 
L 317.746464 290.557829 
M 318.209515 290.288101 
L 318.672567 295.06828 
L 318.904092 294.483869 
L 319.598669 296.641693 
L 319.830195 294.608743 
L 320.061721 295.273073 
L 320.293246 294.843506 
L 320.524772 294.963386 
L 320.756298 294.638713 
L 320.987823 294.868481 
M 323.071554 295.248098 
L 323.534606 294.908441 
M 323.997657 293.260103 
L 324.460708 292.740627 
L 324.692234 292.271101 
M 325.155285 292.645723 
L 325.386811 291.73664 
L 325.849862 291.05233 
L 326.081388 292.500869 
L 326.544439 293.414947 
L 326.775965 292.755612 
L 327.00749 289.214184 
L 327.239016 289.998393 
L 327.470542 289.588806 
L 327.933593 287.745665 
L 328.165119 287.256159 
M 328.62817 289.044355 
L 329.091221 286.986431 
L 329.322747 287.311104 
L 329.554273 288.854547 
L 330.017324 289.179219 
L 330.24885 287.895514 
L 330.480375 287.795615 
L 330.711901 288.150257 
L 330.943427 287.855555 
L 331.406478 286.332091 
M 332.564106 286.831587 
L 332.795632 287.15626 
L 333.027158 288.469935 
L 333.258683 287.036381 
L 333.490209 287.356058 
L 333.95326 288.644759 
L 334.184786 287.845565 
L 334.416312 288.449955 
L 334.647837 288.419985 
L 335.342414 291.836539 
M 336.500043 290.722663 
L 336.731568 290.877507 
L 336.963094 290.542844 
L 337.19462 291.04234 
L 337.426145 290.088303 
L 337.657671 290.133257 
L 337.889197 289.863529 
M 340.89903 289.07932 
L 341.362082 284.429011 
L 341.593607 283.270179 
L 341.825133 284.344096 
L 342.056659 283.734711 
L 342.288184 281.541922 
L 342.51971 280.667804 
L 342.751236 280.388086 
L 342.982761 279.673807 
L 343.214287 279.853625 
L 343.677338 280.807663 
L 344.14039 283.250199 
L 344.371915 282.241217 
L 344.603441 282.715739 
L 344.834967 282.800653 
L 345.298018 280.313162 
L 345.529544 280.308167 
L 345.992595 281.25721 
L 346.22412 283.050401 
L 346.455646 281.866595 
L 346.687172 282.266192 
M 347.150223 282.970482 
L 347.381749 283.285164 
L 347.8448 283.105346 
L 348.076326 281.457008 
L 348.307851 281.941519 
L 348.539377 281.656807 
L 348.770903 281.681781 
L 349.233954 279.583897 
L 349.46548 280.52295 
L 349.697005 280.617854 
L 349.928531 280.288187 
L 350.160057 280.288187 
M 351.317685 281.661802 
L 351.549211 281.676786 
L 351.780736 281.277189 
L 352.012262 280.293182 
L 352.243788 280.617854 
L 352.706839 280.647824 
L 352.938365 280.153323 
M 354.559044 279.27421 
L 355.022096 282.236222 
L 355.253621 282.036424 
L 355.485147 283.809635 
L 355.716673 284.304136 
L 356.179724 283.899545 
L 356.41125 287.535877 
M 358.263455 284.104338 
L 358.494981 281.297169 
L 358.726506 281.576887 
M 359.189558 282.256202 
L 359.421083 281.541922 
L 359.884135 278.310182 
L 360.347186 278.734754 
L 360.578712 280.293182 
L 360.810237 279.688791 
M 361.273289 279.459023 
L 361.504814 280.278197 
L 361.73634 279.324159 
L 361.967866 277.805691 
M 362.430917 277.810686 
L 362.662443 278.574915 
L 362.893968 278.470021 
L 363.125494 278.784703 
L 363.35702 280.143333 
L 363.588545 280.173303 
L 364.283122 285.318114 
L 364.514648 281.407058 
L 364.746174 283.619827 
M 365.209225 283.899545 
L 365.440751 284.44899 
L 365.672276 283.594852 
L 365.903802 281.986474 
L 366.135328 281.392074 
L 366.366853 283.599847 
L 366.598379 282.765688 
L 366.829904 281.1673 
L 367.06143 281.571892 
L 367.292956 280.722749 
L 367.524481 280.428046 
L 367.756007 279.883595 
L 367.987533 278.674814 
L 368.219058 278.874613 
L 368.450584 281.392074 
M 370.997366 275.88263 
L 371.691943 274.119409 
L 371.923469 272.780759 
L 372.154995 273.505028 
L 372.38652 273.724807 
M 373.312623 274.64388 
L 373.544149 273.984545 
L 373.775674 274.219308 
L 374.0072 273.619913 
L 374.238726 273.724807 
L 374.470251 273.510023 
L 375.164828 274.364162 
L 375.396354 272.68086 
M 376.553982 271.951595 
L 376.785508 272.186358 
L 377.017034 271.661887 
L 377.248559 272.451091 
L 377.480085 272.401142 
L 377.711611 273.380154 
L 377.943136 273.430104 
L 378.174662 274.953567 
L 378.406188 274.548975 
L 378.869239 275.33818 
L 379.100765 276.711794 
L 379.33229 275.582933 
L 379.563816 275.717797 
L 379.795342 275.048472 
L 380.026867 275.243275 
L 380.258393 274.209318 
M 380.95297 273.814716 
L 381.184496 272.511031 
L 381.416021 272.625915 
L 381.647547 273.859671 
M 385.351958 264.1145 
L 385.583483 263.814802 
L 385.815009 263.275346 
M 387.667214 261.152487 
L 387.89874 259.024633 
L 388.130265 260.083565 
L 388.361791 260.293354 
L 388.593317 260.288359 
L 389.056368 259.733918 
L 389.519419 257.965701 
L 389.982471 255.303387 
L 390.213996 254.004696 
L 390.445522 253.640064 
L 390.677048 254.384314 
L 390.908573 256.267414 
L 391.140099 257.166507 
L 391.371625 258.650011 
L 391.60315 255.892792 
L 391.834676 257.281392 
L 392.066202 254.614082 
L 392.297727 255.897787 
L 392.529253 258.874784 
L 392.992304 258.630031 
L 393.22383 257.800868 
L 393.455356 258.984674 
L 393.686881 257.42125 
L 393.918407 256.721956 
L 394.149933 257.606064 
L 394.381458 255.343346 
L 394.612984 254.948744 
L 395.076035 253.180528 
L 395.307561 251.786933 
L 395.770612 255.673014 
L 396.002138 255.932752 
L 396.233664 254.384314 
L 396.465189 259.634019 
L 396.696715 260.588056 
L 396.928241 256.761915 
L 397.159766 259.134522 
L 397.391292 256.741936 
L 397.622818 257.221452 
L 397.854343 259.803847 
L 398.085869 258.160505 
L 398.317395 257.49118 
L 398.54892 256.452228 
L 398.780446 260.268379 
M 399.243497 259.663988 
L 399.475023 261.691943 
L 399.706549 261.162477 
M 401.79028 270.71784 
L 402.021805 271.686862 
L 402.253331 274.399127 
L 402.484857 272.096449 
M 402.947908 274.868653 
L 403.179434 279.304179 
L 403.410959 279.404079 
L 403.642485 281.646817 
L 403.874011 280.48299 
L 404.105536 280.672799 
M 405.263165 279.449033 
L 405.49469 280.433041 
L 405.726216 283.544902 
L 405.957742 282.990461 
L 406.189267 283.474973 
M 406.652318 282.316142 
L 406.883844 285.048386 
L 407.11537 285.81761 
L 407.346895 284.753683 
L 408.272998 294.36399 
L 408.504524 289.199199 
L 408.736049 289.708685 
L 408.967575 289.668726 
L 409.199101 288.914486 
L 409.430626 288.824577 
L 409.662152 296.681653 
L 409.893678 293.649711 
L 410.125203 293.814544 
L 410.588255 291.127255 
L 410.81978 290.882502 
M 413.829614 285.16327 
L 414.06114 284.568869 
L 414.292665 284.52891 
L 414.755717 280.702769 
L 414.987242 280.672799 
L 415.218768 282.321137 
L 415.450294 282.58587 
M 415.913345 282.346111 
L 416.144871 282.700754 
L 416.376396 282.391066 
L 416.607922 282.580875 
L 416.839448 282.326131 
M 419.154704 280.028449 
L 419.38623 280.53294 
M 420.080807 278.345147 
L 420.312333 277.341159 
L 420.543858 276.941562 
L 421.238435 273.789741 
M 421.701487 273.719812 
L 421.933012 270.258303 
L 422.164538 272.276268 
M 424.479795 269.304265 
L 424.71132 267.755827 
L 424.942846 268.055525 
L 425.174372 267.496089 
L 425.405897 268.330248 
M 425.868949 268.190389 
L 426.100474 268.180399 
L 426.332 266.242354 
L 426.795051 265.543059 
M 427.258102 264.229384 
L 427.721154 265.657943 
L 427.952679 265.503099 
L 428.184205 267.471114 
M 430.267936 274.938583 
L 430.730987 272.341202 
L 431.194039 273.300235 
L 431.425564 276.252258 
L 431.65709 274.499026 
L 431.888616 276.407101 
M 434.666924 271.512039 
L 434.898449 270.398162 
L 435.129975 270.70785 
L 435.361501 270.727829 
M 435.824552 270.857699 
L 436.056078 268.579996 
L 436.287603 268.869704 
L 436.519129 268.075505 
L 436.750655 268.415162 
L 436.98218 268.515061 
L 437.213706 270.018545 
L 437.445232 267.905676 
L 437.676757 267.935646 
L 437.908283 268.844729 
L 438.139809 267.031558 
L 438.60286 265.602998 
L 438.834386 265.692908 
L 439.065911 267.795787 
L 439.297437 267.186401 
L 439.528963 266.192404 
M 439.992014 266.157439 
L 440.22354 265.203401 
L 440.455065 265.558044 
L 440.686591 266.132464 
L 440.918117 264.978628 
L 441.149642 266.512081 
L 441.381168 264.199414 
L 441.612694 263.39023 
L 441.844219 263.475145 
L 442.075745 264.299313 
L 442.307271 263.939676 
L 442.538796 262.970653 
L 442.770322 263.4202 
L 443.001848 261.292346 
L 443.464899 265.797802 
L 443.696425 271.132421 
L 444.391002 266.092505 
L 444.622527 267.311275 
L 444.854053 267.566018 
L 445.085579 263.325296 
L 445.317104 266.432162 
L 445.54863 266.936653 
L 446.011681 262.635991 
L 446.243207 262.630996 
L 446.474733 261.492145 
L 446.706258 261.582054 
M 447.863886 263.305316 
L 448.095412 263.44018 
L 448.326938 264.958648 
L 448.789989 261.172467 
L 449.021515 261.182457 
L 449.25304 260.727915 
L 449.484566 259.46419 
L 449.716092 256.022661 
L 449.947617 256.274807 
L 450.179143 258.440223 
L 450.87372 256.432248 
L 451.105246 257.336336 
L 451.336771 258.949709 
M 452.031348 257.301371 
L 452.262874 257.870797 
M 458.282541 239.923898 
L 458.514067 239.084745 
L 458.745593 239.269558 
L 458.977118 239.214614 
L 459.208644 238.120717 
L 459.44017 237.766075 
L 459.671695 236.737112 
L 459.903221 236.856992 
L 460.134747 235.603256 
L 460.366272 236.517334 
L 460.597798 234.958906 
L 460.829324 234.289581 
L 461.060849 234.694173 
L 461.292375 236.242611 
L 461.523901 236.832017 
L 461.755426 236.946901 
L 461.986952 234.654213 
L 462.218478 235.693165 
L 462.450003 233.919954 
L 462.681529 234.214657 
M 468.238145 217.956055 
L 468.46967 218.660345 
L 468.932722 213.046007 
L 469.164247 212.69636 
L 469.395773 209.3847 
L 469.627299 211.522544 
L 469.858824 212.191869 
L 470.321876 208.500592 
L 470.553401 209.579504 
L 471.016453 208.250844 
L 471.247978 208.71038 
L 471.479504 213.385665 
L 471.942555 205.698418 
L 472.174081 205.933181 
L 472.405607 213.105947 
L 472.637132 213.530519 
M 473.794761 207.092012 
L 474.026286 208.061035 
L 474.257812 204.269859 
L 474.489338 205.433685 
L 474.720863 205.393725 
L 474.952389 208.365728 
L 475.183915 206.058055 
L 475.41544 207.716383 
L 475.646966 211.33773 
L 476.110017 223.810151 
L 476.341543 221.527453 
L 476.573069 231.082815 
L 476.804594 231.162735 
L 477.03612 218.450556 
L 477.267646 223.190775 
L 477.499171 216.487536 
L 477.730697 221.392589 
L 477.962223 223.335629 
L 478.193748 234.754113 
L 478.425274 225.17877 
L 478.6568 230.128778 
L 478.888325 243.715075 
L 479.119851 228.860057 
L 479.351377 246.722042 
L 479.582902 241.402407 
L 479.814428 244.494289 
L 480.045954 245.438336 
L 480.277479 253.200508 
M 480.740531 244.389394 
L 480.972056 245.068709 
L 481.203582 238.615218 
L 481.435108 243.959828 
L 481.666633 240.428389 
L 481.898159 240.688127 
L 482.129685 247.371387 
L 482.36121 245.363412 
M 482.824262 236.602248 
L 483.055787 238.120717 
L 483.287313 234.804062 
L 483.518839 233.845029 
L 483.750364 231.217679 
L 483.98189 224.324632 
L 484.213416 225.633312 
L 484.444941 224.50445 
L 484.676467 226.447491 
M 487.454775 219.074927 
L 487.917826 215.98804 
L 488.380877 210.358718 
L 488.612403 212.156904 
M 490.233083 209.439645 
L 490.464608 208.420672 
L 490.696134 209.499584 
M 492.548339 202.122025 
L 492.779865 201.143013 
L 493.242916 191.462776 
M 495.095122 188.450814 
L 495.326647 184.624673 
M 496.947327 185.833454 
L 497.178853 180.968361 
L 497.410378 181.547776 
L 497.641904 177.212149 
L 498.104955 176.058313 
L 498.336481 176.942421 
L 498.568007 173.785605 
L 498.799532 172.45195 
M 503.893097 138.121576 
L 504.124623 138.720971 
L 504.356148 136.812896 
L 504.587674 136.523188 
L 504.8192 131.393362 
L 505.050725 119.215644 
L 505.282251 116.243642 
L 505.513777 118.306561 
L 505.745302 114.914982 
L 505.976828 117.936934 
L 506.208354 118.341526 
L 506.439879 109.885055 
M 507.134456 126.188611 
L 507.365982 126.028773 
L 507.597507 142.292369 
L 507.829033 133.301437 
L 508.060559 140.953719 
L 508.292084 143.930717 
L 508.52361 137.227478 
L 508.755136 136.85785 
L 509.449713 154.240319 
L 509.912764 144.310334 
L 510.14429 153.680883 
L 510.375815 151.483099 
L 510.838867 138.016682 
L 511.070392 139.754928 
L 511.533444 134.360369 
L 511.764969 141.892772 
L 511.996495 134.939785 
L 512.228021 141.613054 
L 512.459546 137.776924 
L 512.691072 137.996702 
L 512.922598 134.000732 
M 513.617175 125.569236 
L 513.8487 126.528269 
L 514.080226 129.904863 
L 514.311752 135.978737 
L 514.543277 132.92182 
L 514.774803 134.200531 
L 515.237854 137.856843 
L 515.46938 137.836863 
L 515.700906 134.739987 
L 515.932431 145.529105 
L 516.163957 137.297407 
M 516.627008 150.384208 
L 516.858534 147.047573 
L 517.321585 129.884883 
L 517.553111 130.564198 
L 517.784637 135.299422 
L 518.016162 135.998717 
L 518.247688 128.96581 
L 518.479214 129.525246 
L 518.710739 129.425347 
L 518.942265 127.347443 
L 519.173791 129.165609 
L 519.405316 131.882868 
L 519.636842 130.664097 
L 519.868368 133.261478 
M 521.025996 129.844924 
L 521.257522 122.512319 
L 521.489047 121.793045 
L 521.720573 122.072763 
M 522.878201 121.473367 
L 523.341253 124.390425 
L 523.572778 112.202718 
L 523.804304 112.342577 
L 524.03583 110.56437 
L 524.267355 114.650249 
L 524.498881 111.503423 
L 524.730407 104.210778 
L 524.961932 106.048924 
L 525.193458 104.03096 
L 525.424984 94.600471 
L 525.888035 100.534486 
L 526.119561 102.592411 
L 526.351086 109.145801 
L 526.582612 105.949025 
M 527.045663 106.128844 
L 527.277189 103.871121 
L 527.508714 110.004934 
L 527.74024 110.364572 
L 527.971766 106.188783 
L 528.434817 113.681226 
L 528.666343 112.302617 
L 529.592445 82.153026 
M 530.287022 93.801277 
L 530.518548 104.050939 
M 533.296856 106.288682 
L 533.528382 108.546405 
L 533.759907 108.226728 
L 533.991433 115.958929 
L 534.222959 116.238647 
L 534.454484 117.257619 
L 534.68601 125.968833 
L 534.917536 125.429377 
L 535.149061 112.382536 
L 535.843638 127.6871 
L 536.075164 125.1097 
L 536.30669 135.219503 
L 536.538215 125.779025 
L 536.769741 127.986798 
L 537.001267 124.030788 
L 537.232792 125.888914 
L 537.695844 116.818063 
L 537.927369 118.43643 
M 540.474152 121.952884 
L 540.705677 116.158728 
L 540.937203 115.539352 
L 541.400254 107.247715 
L 541.63178 101.983025 
L 541.863306 105.489489 
L 542.094831 99.115917 
L 542.326357 103.911081 
L 542.557883 98.976058 
L 542.789408 99.655373 
L 543.020934 98.296743 
L 543.25246 101.753257 
L 543.483985 100.974043 
M 544.178562 98.536501 
L 544.410088 99.195836 
L 544.641614 100.814204 
L 544.873139 101.014003 
L 545.104665 105.049932 
L 545.336191 102.892108 
L 545.567716 112.262657 
L 545.799242 111.763161 
L 546.030768 108.486466 
L 546.262293 107.547413 
L 546.493819 114.260642 
L 546.725345 116.138748 
L 546.95687 122.41242 
L 547.419922 113.061851 
L 547.882973 118.256612 
L 548.114498 118.576289 
L 548.346024 113.341569 
L 548.57755 117.09778 
L 548.809075 113.761146 
L 549.040601 114.160743 
L 549.272127 114.260642 
M 554.365691 98.416622 
L 554.597217 95.319746 
L 554.828743 94.061015 
L 555.060268 93.44164 
L 555.754845 78.856351 
L 555.986371 81.51367 
L 556.217897 77.777439 
L 556.449422 78.99621 
L 556.680948 76.718507 
L 556.912474 69.70558 
L 557.143999 71.04423 
L 557.375525 75.220018 
L 557.607051 83.092079 
L 557.838576 75.699535 
L 558.070102 77.198023 
L 558.764679 70.025258 
L 558.996205 74.460784 
M 559.459256 76.718507 
L 559.690782 76.27895 
L 559.922307 76.958265 
L 560.153833 73.281973 
L 560.385359 74.101147 
L 560.616884 73.881368 
L 560.84841 75.719514 
L 561.079936 75.819414 
L 561.311461 76.798426 
L 561.542987 76.27895 
L 561.774513 70.225056 
L 562.006038 69.805479 
L 562.237564 65.76955 
L 562.46909 67.627676 
M 562.932141 74.600643 
L 563.395192 68.586709 
L 563.626718 68.766527 
L 564.089769 72.922336 
L 564.321295 70.804472 
M 564.784346 64.350981 
L 565.015872 62.992351 
L 565.478923 59.415958 
M 566.405026 70.065217 
L 566.636552 68.906386 
L 566.868077 71.763504 
L 567.099603 69.945338 
L 567.331129 70.424855 
L 567.79418 82.113066 
L 568.025705 81.134053 
L 568.257231 76.29893 
L 568.488757 74.340905 
L 568.720282 74.161086 
L 568.951808 77.257963 
L 569.183334 84.17099 
L 569.414859 82.332844 
L 569.646385 84.990164 
L 569.877911 82.692482 
M 572.193167 78.316895 
L 572.887744 69.485802 
L 573.11927 69.046245 
L 573.350796 70.624653 
L 573.582321 70.724552 
L 573.813847 69.365923 
L 574.045373 70.304976 
L 574.276898 62.872472 
M 575.666052 65.449872 
L 575.897578 67.12818 
M 578.212835 45.9895 
L 578.675886 44.151354 
L 578.907412 54.401016 
L 579.370463 37.438125 
L 579.601989 38.497057 
L 579.601989 38.497057 
" clip-path="url(#p8bb5cae53d)" style="fill: none; stroke: #1e90ff; stroke-linecap: square"/>
   </g>
   <g id="patch_3">
    <path d="M 46.965625 354.958125 
L 46.965625 22.318125 
" style="fill: none; stroke: #000000; stroke-width: 0.8; stroke-linejoin: miter; stroke-linecap: square"/>
   </g>
   <g id="patch_4">
    <path d="M 604.965625 354.958125 
L 604.965625 22.318125 
" style="fill: none; stroke: #000000; stroke-width: 0.8; stroke-linejoin: miter; stroke-linecap: square"/>
   </g>
   <g id="patch_5">
    <path d="M 46.965625 354.958125 
L 604.965625 354.958125 
" style="fill: none; stroke: #000000; stroke-width: 0.8; stroke-linejoin: miter; stroke-linecap: square"/>
   </g>
   <g id="patch_6">
    <path d="M 46.965625 22.318125 
L 604.965625 22.318125 
" style="fill: none; stroke: #000000; stroke-width: 0.8; stroke-linejoin: miter; stroke-linecap: square"/>
   </g>
   <g id="text_16">
    <!-- AAPL, Relative Strength Index (RSI), AAPL -->
    <g transform="translate(200.850625 16.318125)scale(0.12 -0.12)">
     <defs>
      <path id="DejaVuSans-41" d="M 2188 4044 
L 1331 1722 
L 3047 1722 
L 2188 4044 
z
M 1831 4666 
L 2547 4666 
L 4325 0 
L 3669 0 
L 3244 1197 
L 1141 1197 
L 716 0 
L 50 0 
L 1831 4666 
z
" transform="scale(0.015625)"/>
      <path id="DejaVuSans-4c" d="M 628 4666 
L 1259 4666 
L 1259 531 
L 3531 531 
L 3531 0 
L 628 0 
L 628 4666 
z
" transform="scale(0.015625)"/>
      <path id="DejaVuSans-2c" d="M 750 794 
L 1409 794 
L 1409 256 
L 897 -744 
L 494 -744 
L 750 256 
L 750 794 
z
" transform="scale(0.015625)"/>
      <path id="DejaVuSans-52" d="M 2841 2188 
Q 3044 2119 3236 1894 
Q 3428 1669 3622 1275 
L 4263 0 
L 3584 0 
L 2988 1197 
Q 2756 1666 2539 1819 
Q 2322 1972 1947 1972 
L 1259 1972 
L 1259 0 
L 628 0 
L 628 4666 
L 2053 4666 
Q 2853 4666 3247 4331 
Q 3641 3997 3641 3322 
Q 3641 2881 3436 2590 
Q 3231 2300 2841 2188 
z
M 1259 4147 
L 1259 2491 
L 2053 2491 
Q 2509 2491 2742 2702 
Q 2975 2913 2975 3322 
Q 2975 3731 2742 3939 
Q 2509 4147 2053 4147 
L 1259 4147 
z
" transform="scale(0.015625)"/>
      <path id="DejaVuSans-6c" d="M 603 4863 
L 1178 4863 
L 1178 0 
L 603 0 
L 603 4863 
z
" transform="scale(0.015625)"/>
      <path id="DejaVuSans-76" d="M 191 3500 
L 800 3500 
L 1894 563 
L 2988 3500 
L 3597 3500 
L 2284 0 
L 1503 0 
L 191 3500 
z
" transform="scale(0.015625)"/>
      <path id="DejaVuSans-6e" d="M 3513 2113 
L 3513 0 
L 2938 0 
L 2938 2094 
Q 2938 2591 2744 2837 
Q 2550 3084 2163 3084 
Q 1697 3084 1428 2787 
Q 1159 2491 1159 1978 
L 1159 0 
L 581 0 
L 581 3500 
L 1159 3500 
L 1159 2956 
Q 1366 3272 1645 3428 
Q 1925 3584 2291 3584 
Q 2894 3584 3203 3211 
Q 3513 2838 3513 2113 
z
" transform="scale(0.015625)"/>
      <path id="DejaVuSans-67" d="M 2906 1791 
Q 2906 2416 2648 2759 
Q 2391 3103 1925 3103 
Q 1463 3103 1205 2759 
Q 947 2416 947 1791 
Q 947 1169 1205 825 
Q 1463 481 1925 481 
Q 2391 481 2648 825 
Q 2906 1169 2906 1791 
z
M 3481 434 
Q 3481 -459 3084 -895 
Q 2688 -1331 1869 -1331 
Q 1566 -1331 1297 -1286 
Q 1028 -1241 775 -1147 
L 775 -588 
Q 1028 -725 1275 -790 
Q 1522 -856 1778 -856 
Q 2344 -856 2625 -561 
Q 2906 -266 2906 331 
L 2906 616 
Q 2728 306 2450 153 
Q 2172 0 1784 0 
Q 1141 0 747 490 
Q 353 981 353 1791 
Q 353 2603 747 3093 
Q 1141 3584 1784 3584 
Q 2172 3584 2450 3431 
Q 2728 3278 2906 2969 
L 2906 3500 
L 3481 3500 
L 3481 434 
z
" transform="scale(0.015625)"/>
      <path id="DejaVuSans-68" d="M 3513 2113 
L 3513 0 
L 2938 0 
L 2938 2094 
Q 2938 2591 2744 2837 
Q 2550 3084 2163 3084 
Q 1697 3084 1428 2787 
Q 1159 2491 1159 1978 
L 1159 0 
L 581 0 
L 581 4863 
L 1159 4863 
L 1159 2956 
Q 1366 3272 1645 3428 
Q 1925 3584 2291 3584 
Q 2894 3584 3203 3211 
Q 3513 2838 3513 2113 
z
" transform="scale(0.015625)"/>
      <path id="DejaVuSans-49" d="M 628 4666 
L 1259 4666 
L 1259 0 
L 628 0 
L 628 4666 
z
" transform="scale(0.015625)"/>
      <path id="DejaVuSans-64" d="M 2906 2969 
L 2906 4863 
L 3481 4863 
L 3481 0 
L 2906 0 
L 2906 525 
Q 2725 213 2448 61 
Q 2172 -91 1784 -91 
Q 1150 -91 751 415 
Q 353 922 353 1747 
Q 353 2572 751 3078 
Q 1150 3584 1784 3584 
Q 2172 3584 2448 3432 
Q 2725 3281 2906 2969 
z
M 947 1747 
Q 947 1113 1208 752 
Q 1469 391 1925 391 
Q 2381 391 2643 752 
Q 2906 1113 2906 1747 
Q 2906 2381 2643 2742 
Q 2381 3103 1925 3103 
Q 1469 3103 1208 2742 
Q 947 2381 947 1747 
z
" transform="scale(0.015625)"/>
      <path id="DejaVuSans-78" d="M 3513 3500 
L 2247 1797 
L 3578 0 
L 2900 0 
L 1881 1375 
L 863 0 
L 184 0 
L 1544 1831 
L 300 3500 
L 978 3500 
L 1906 2253 
L 2834 3500 
L 3513 3500 
z
" transform="scale(0.015625)"/>
     </defs>
     <use xlink:href="#DejaVuSans-41"/>
     <use xlink:href="#DejaVuSans-41" x="71.158203"/>
     <use xlink:href="#DejaVuSans-50" x="139.566406"/>
     <use xlink:href="#DejaVuSans-4c" x="199.869141"/>
     <use xlink:href="#DejaVuSans-2c" x="255.582031"/>
     <use xlink:href="#DejaVuSans-20" x="287.369141"/>
     <use xlink:href="#DejaVuSans-52" x="319.15625"/>
     <use xlink:href="#DejaVuSans-65" x="384.138672"/>
     <use xlink:href="#DejaVuSans-6c" x="445.662109"/>
     <use xlink:href="#DejaVuSans-61" x="473.445312"/>
     <use xlink:href="#DejaVuSans-74" x="534.724609"/>
     <use xlink:href="#DejaVuSans-69" x="573.933594"/>
     <use xlink:href="#DejaVuSans-76" x="601.716797"/>
     <use xlink:href="#DejaVuSans-65" x="660.896484"/>
     <use xlink:href="#DejaVuSans-20" x="722.419922"/>
     <use xlink:href="#DejaVuSans-53" x="754.207031"/>
     <use xlink:href="#DejaVuSans-74" x="817.683594"/>
     <use xlink:href="#DejaVuSans-72" x="856.892578"/>
     <use xlink:href="#DejaVuSans-65" x="895.755859"/>
     <use xlink:href="#DejaVuSans-6e" x="957.279297"/>
     <use xlink:href="#DejaVuSans-67" x="1020.658203"/>
     <use xlink:href="#DejaVuSans-74" x="1084.134766"/>
     <use xlink:href="#DejaVuSans-68" x="1123.34375"/>
     <use xlink:href="#DejaVuSans-20" x="1186.722656"/>
     <use xlink:href="#DejaVuSans-49" x="1218.509766"/>
     <use xlink:href="#DejaVuSans-6e" x="1248.001953"/>
     <use xlink:href="#DejaVuSans-64" x="1311.380859"/>
     <use xlink:href="#DejaVuSans-65" x="1374.857422"/>
     <use xlink:href="#DejaVuSans-78" x="1434.630859"/>
     <use xlink:href="#DejaVuSans-20" x="1493.810547"/>
     <use xlink:href="#DejaVuSans-28" x="1525.597656"/>
     <use xlink:href="#DejaVuSans-52" x="1564.611328"/>
     <use xlink:href="#DejaVuSans-53" x="1634.09375"/>
     <use xlink:href="#DejaVuSans-49" x="1697.570312"/>
     <use xlink:href="#DejaVuSans-29" x="1727.0625"/>
     <use xlink:href="#DejaVuSans-2c" x="1766.076172"/>
     <use xlink:href="#DejaVuSans-20" x="1797.863281"/>
     <use xlink:href="#DejaVuSans-41" x="1829.650391"/>
     <use xlink:href="#DejaVuSans-41" x="1900.808594"/>
     <use xlink:href="#DejaVuSans-50" x="1969.216797"/>
     <use xlink:href="#DejaVuSans-4c" x="2029.519531"/>
    </g>
   </g>
   <g id="legend_1">
    <g id="patch_7">
     <path d="M 53.965625 74.3525 
L 203.875 74.3525 
Q 205.875 74.3525 205.875 72.3525 
L 205.875 29.318125 
Q 205.875 27.318125 203.875 27.318125 
L 53.965625 27.318125 
Q 51.965625 27.318125 51.965625 29.318125 
L 51.965625 72.3525 
Q 51.965625 74.3525 53.965625 74.3525 
z
" style="fill: #ffffff; opacity: 0.8; stroke: #cccccc; stroke-linejoin: miter"/>
    </g>
    <g id="line2d_25">
     <path d="M 55.965625 35.416562 
L 65.965625 35.416562 
L 75.965625 35.416562 
" style="fill: none; stroke: #00ff7f; stroke-linecap: square"/>
    </g>
    <g id="text_17">
     <!-- Oversold, RSI &lt;= 30 -->
     <g transform="translate(83.965625 38.916562)scale(0.1 -0.1)">
      <defs>
       <path id="DejaVuSans-4f" d="M 2522 4238 
Q 1834 4238 1429 3725 
Q 1025 3213 1025 2328 
Q 1025 1447 1429 934 
Q 1834 422 2522 422 
Q 3209 422 3611 934 
Q 4013 1447 4013 2328 
Q 4013 3213 3611 3725 
Q 3209 4238 2522 4238 
z
M 2522 4750 
Q 3503 4750 4090 4092 
Q 4678 3434 4678 2328 
Q 4678 1225 4090 567 
Q 3503 -91 2522 -91 
Q 1538 -91 948 565 
Q 359 1222 359 2328 
Q 359 3434 948 4092 
Q 1538 4750 2522 4750 
z
" transform="scale(0.015625)"/>
       <path id="DejaVuSans-73" d="M 2834 3397 
L 2834 2853 
Q 2591 2978 2328 3040 
Q 2066 3103 1784 3103 
Q 1356 3103 1142 2972 
Q 928 2841 928 2578 
Q 928 2378 1081 2264 
Q 1234 2150 1697 2047 
L 1894 2003 
Q 2506 1872 2764 1633 
Q 3022 1394 3022 966 
Q 3022 478 2636 193 
Q 2250 -91 1575 -91 
Q 1294 -91 989 -36 
Q 684 19 347 128 
L 347 722 
Q 666 556 975 473 
Q 1284 391 1588 391 
Q 1994 391 2212 530 
Q 2431 669 2431 922 
Q 2431 1156 2273 1281 
Q 2116 1406 1581 1522 
L 1381 1569 
Q 847 1681 609 1914 
Q 372 2147 372 2553 
Q 372 3047 722 3315 
Q 1072 3584 1716 3584 
Q 2034 3584 2315 3537 
Q 2597 3491 2834 3397 
z
" transform="scale(0.015625)"/>
       <path id="DejaVuSans-6f" d="M 1959 3097 
Q 1497 3097 1228 2736 
Q 959 2375 959 1747 
Q 959 1119 1226 758 
Q 1494 397 1959 397 
Q 2419 397 2687 759 
Q 2956 1122 2956 1747 
Q 2956 2369 2687 2733 
Q 2419 3097 1959 3097 
z
M 1959 3584 
Q 2709 3584 3137 3096 
Q 3566 2609 3566 1747 
Q 3566 888 3137 398 
Q 2709 -91 1959 -91 
Q 1206 -91 779 398 
Q 353 888 353 1747 
Q 353 2609 779 3096 
Q 1206 3584 1959 3584 
z
" transform="scale(0.015625)"/>
       <path id="DejaVuSans-3c" d="M 4684 3150 
L 1459 2003 
L 4684 863 
L 4684 294 
L 678 1747 
L 678 2266 
L 4684 3719 
L 4684 3150 
z
" transform="scale(0.015625)"/>
       <path id="DejaVuSans-3d" d="M 678 2906 
L 4684 2906 
L 4684 2381 
L 678 2381 
L 678 2906 
z
M 678 1631 
L 4684 1631 
L 4684 1100 
L 678 1100 
L 678 1631 
z
" transform="scale(0.015625)"/>
       <path id="DejaVuSans-33" d="M 2597 2516 
Q 3050 2419 3304 2112 
Q 3559 1806 3559 1356 
Q 3559 666 3084 287 
Q 2609 -91 1734 -91 
Q 1441 -91 1130 -33 
Q 819 25 488 141 
L 488 750 
Q 750 597 1062 519 
Q 1375 441 1716 441 
Q 2309 441 2620 675 
Q 2931 909 2931 1356 
Q 2931 1769 2642 2001 
Q 2353 2234 1838 2234 
L 1294 2234 
L 1294 2753 
L 1863 2753 
Q 2328 2753 2575 2939 
Q 2822 3125 2822 3475 
Q 2822 3834 2567 4026 
Q 2313 4219 1838 4219 
Q 1578 4219 1281 4162 
Q 984 4106 628 3988 
L 628 4550 
Q 988 4650 1302 4700 
Q 1616 4750 1894 4750 
Q 2613 4750 3031 4423 
Q 3450 4097 3450 3541 
Q 3450 3153 3228 2886 
Q 3006 2619 2597 2516 
z
" transform="scale(0.015625)"/>
      </defs>
      <use xlink:href="#DejaVuSans-4f"/>
      <use xlink:href="#DejaVuSans-76" x="78.710938"/>
      <use xlink:href="#DejaVuSans-65" x="137.890625"/>
      <use xlink:href="#DejaVuSans-72" x="199.414062"/>
      <use xlink:href="#DejaVuSans-73" x="240.527344"/>
      <use xlink:href="#DejaVuSans-6f" x="292.626953"/>
      <use xlink:href="#DejaVuSans-6c" x="353.808594"/>
      <use xlink:href="#DejaVuSans-64" x="381.591797"/>
      <use xlink:href="#DejaVuSans-2c" x="445.068359"/>
      <use xlink:href="#DejaVuSans-20" x="476.855469"/>
      <use xlink:href="#DejaVuSans-52" x="508.642578"/>
      <use xlink:href="#DejaVuSans-53" x="578.125"/>
      <use xlink:href="#DejaVuSans-49" x="641.601562"/>
      <use xlink:href="#DejaVuSans-20" x="671.09375"/>
      <use xlink:href="#DejaVuSans-3c" x="702.880859"/>
      <use xlink:href="#DejaVuSans-3d" x="786.669922"/>
      <use xlink:href="#DejaVuSans-20" x="870.458984"/>
      <use xlink:href="#DejaVuSans-33" x="902.246094"/>
      <use xlink:href="#DejaVuSans-30" x="965.869141"/>
     </g>
    </g>
    <g id="line2d_26">
     <path d="M 55.965625 50.094687 
L 65.965625 50.094687 
L 75.965625 50.094687 
" style="fill: none; stroke: #ff4500; stroke-linecap: square"/>
    </g>
    <g id="text_18">
     <!-- Overbought, RSI &gt;= 70 -->
     <g transform="translate(83.965625 53.594687)scale(0.1 -0.1)">
      <defs>
       <path id="DejaVuSans-62" d="M 3116 1747 
Q 3116 2381 2855 2742 
Q 2594 3103 2138 3103 
Q 1681 3103 1420 2742 
Q 1159 2381 1159 1747 
Q 1159 1113 1420 752 
Q 1681 391 2138 391 
Q 2594 391 2855 752 
Q 3116 1113 3116 1747 
z
M 1159 2969 
Q 1341 3281 1617 3432 
Q 1894 3584 2278 3584 
Q 2916 3584 3314 3078 
Q 3713 2572 3713 1747 
Q 3713 922 3314 415 
Q 2916 -91 2278 -91 
Q 1894 -91 1617 61 
Q 1341 213 1159 525 
L 1159 0 
L 581 0 
L 581 4863 
L 1159 4863 
L 1159 2969 
z
" transform="scale(0.015625)"/>
       <path id="DejaVuSans-75" d="M 544 1381 
L 544 3500 
L 1119 3500 
L 1119 1403 
Q 1119 906 1312 657 
Q 1506 409 1894 409 
Q 2359 409 2629 706 
Q 2900 1003 2900 1516 
L 2900 3500 
L 3475 3500 
L 3475 0 
L 2900 0 
L 2900 538 
Q 2691 219 2414 64 
Q 2138 -91 1772 -91 
Q 1169 -91 856 284 
Q 544 659 544 1381 
z
M 1991 3584 
L 1991 3584 
z
" transform="scale(0.015625)"/>
       <path id="DejaVuSans-3e" d="M 678 3150 
L 678 3719 
L 4684 2266 
L 4684 1747 
L 678 294 
L 678 863 
L 3897 2003 
L 678 3150 
z
" transform="scale(0.015625)"/>
       <path id="DejaVuSans-37" d="M 525 4666 
L 3525 4666 
L 3525 4397 
L 1831 0 
L 1172 0 
L 2766 4134 
L 525 4134 
L 525 4666 
z
" transform="scale(0.015625)"/>
      </defs>
      <use xlink:href="#DejaVuSans-4f"/>
      <use xlink:href="#DejaVuSans-76" x="78.710938"/>
      <use xlink:href="#DejaVuSans-65" x="137.890625"/>
      <use xlink:href="#DejaVuSans-72" x="199.414062"/>
      <use xlink:href="#DejaVuSans-62" x="240.527344"/>
      <use xlink:href="#DejaVuSans-6f" x="304.003906"/>
      <use xlink:href="#DejaVuSans-75" x="365.185547"/>
      <use xlink:href="#DejaVuSans-67" x="428.564453"/>
      <use xlink:href="#DejaVuSans-68" x="492.041016"/>
      <use xlink:href="#DejaVuSans-74" x="555.419922"/>
      <use xlink:href="#DejaVuSans-2c" x="594.628906"/>
      <use xlink:href="#DejaVuSans-20" x="626.416016"/>
      <use xlink:href="#DejaVuSans-52" x="658.203125"/>
      <use xlink:href="#DejaVuSans-53" x="727.685547"/>
      <use xlink:href="#DejaVuSans-49" x="791.162109"/>
      <use xlink:href="#DejaVuSans-20" x="820.654297"/>
      <use xlink:href="#DejaVuSans-3e" x="852.441406"/>
      <use xlink:href="#DejaVuSans-3d" x="936.230469"/>
      <use xlink:href="#DejaVuSans-20" x="1020.019531"/>
      <use xlink:href="#DejaVuSans-37" x="1051.806641"/>
      <use xlink:href="#DejaVuSans-30" x="1115.429688"/>
     </g>
    </g>
    <g id="line2d_27">
     <path d="M 55.965625 64.772812 
L 65.965625 64.772812 
L 75.965625 64.772812 
" style="fill: none; stroke: #1e90ff; stroke-linecap: square"/>
    </g>
    <g id="text_19">
     <!-- Neutral -->
     <g transform="translate(83.965625 68.272812)scale(0.1 -0.1)">
      <defs>
       <path id="DejaVuSans-4e" d="M 628 4666 
L 1478 4666 
L 3547 763 
L 3547 4666 
L 4159 4666 
L 4159 0 
L 3309 0 
L 1241 3903 
L 1241 0 
L 628 0 
L 628 4666 
z
" transform="scale(0.015625)"/>
      </defs>
      <use xlink:href="#DejaVuSans-4e"/>
      <use xlink:href="#DejaVuSans-65" x="74.804688"/>
      <use xlink:href="#DejaVuSans-75" x="136.328125"/>
      <use xlink:href="#DejaVuSans-74" x="199.707031"/>
      <use xlink:href="#DejaVuSans-72" x="238.916016"/>
      <use xlink:href="#DejaVuSans-61" x="280.029297"/>
      <use xlink:href="#DejaVuSans-6c" x="341.308594"/>
     </g>
    </g>
   </g>
  </g>
 </g>
 <defs>
  <clipPath id="p8bb5cae53d">
   <rect x="46.965625" y="22.318125" width="558" height="332.64"/>
  </clipPath>
 </defs>
</svg>
