<?xml version="1.0" encoding="utf-8" standalone="no"?>
<!DOCTYPE svg PUBLIC "-//W3C//DTD SVG 1.1//EN"
  "http://www.w3.org/Graphics/SVG/1.1/DTD/svg11.dtd">
<svg xmlns:xlink="http://www.w3.org/1999/xlink" width="612.165625pt" height="392.514375pt" viewBox="0 0 612.165625 392.514375" xmlns="http://www.w3.org/2000/svg" version="1.1">
 <metadata>
  <rdf:RDF xmlns:dc="http://purl.org/dc/elements/1.1/" xmlns:cc="http://creativecommons.org/ns#" xmlns:rdf="http://www.w3.org/1999/02/22-rdf-syntax-ns#">
   <cc:Work>
    <dc:type rdf:resource="http://purl.org/dc/dcmitype/StillImage"/>
    <dc:date>2023-04-24T17:59:47.025349</dc:date>
    <dc:format>image/svg+xml</dc:format>
    <dc:creator>
     <cc:Agent>
      <dc:title>Matplotlib v3.5.1, https://matplotlib.org/</dc:title>
     </cc:Agent>
    </dc:creator>
   </cc:Work>
  </rdf:RDF>
 </metadata>
 <defs>
  <style type="text/css">*{stroke-linejoin: round; stroke-linecap: butt}</style>
 </defs>
 <g id="figure_1">
  <g id="patch_1">
   <path d="M 0 392.514375 
L 612.165625 392.514375 
L 612.165625 0 
L 0 0 
z
" style="fill: #ffffff"/>
  </g>
  <g id="axes_1">
   <g id="patch_2">
    <path d="M 46.965625 354.958125 
L 604.965625 354.958125 
L 604.965625 22.318125 
L 46.965625 22.318125 
z
" style="fill: #ffffff"/>
   </g>
   <g id="matplotlib.axis_1">
    <g id="xtick_1">
     <g id="line2d_1">
      <defs>
       <path id="mce6460c6c5" d="M 0 0 
L 0 3.5 
" style="stroke: #000000; stroke-width: 0.8"/>
      </defs>
      <g>
       <use xlink:href="#mce6460c6c5" x="72.329261" y="354.958125" style="stroke: #000000; stroke-width: 0.8"/>
      </g>
     </g>
     <g id="text_1">
      <!-- 0 -->
      <g transform="translate(69.148011 369.556562)scale(0.1 -0.1)">
       <defs>
        <path id="DejaVuSans-30" d="M 2034 4250 
Q 1547 4250 1301 3770 
Q 1056 3291 1056 2328 
Q 1056 1369 1301 889 
Q 1547 409 2034 409 
Q 2525 409 2770 889 
Q 3016 1369 3016 2328 
Q 3016 3291 2770 3770 
Q 2525 4250 2034 4250 
z
M 2034 4750 
Q 2819 4750 3233 4129 
Q 3647 3509 3647 2328 
Q 3647 1150 3233 529 
Q 2819 -91 2034 -91 
Q 1250 -91 836 529 
Q 422 1150 422 2328 
Q 422 3509 836 4129 
Q 1250 4750 2034 4750 
z
" transform="scale(0.015625)"/>
       </defs>
       <use xlink:href="#DejaVuSans-30"/>
      </g>
     </g>
    </g>
    <g id="xtick_2">
     <g id="line2d_2">
      <g>
       <use xlink:href="#mce6460c6c5" x="188.092093" y="354.958125" style="stroke: #000000; stroke-width: 0.8"/>
      </g>
     </g>
     <g id="text_2">
      <!-- 500 -->
      <g transform="translate(178.548343 369.556562)scale(0.1 -0.1)">
       <defs>
        <path id="DejaVuSans-35" d="M 691 4666 
L 3169 4666 
L 3169 4134 
L 1269 4134 
L 1269 2991 
Q 1406 3038 1543 3061 
Q 1681 3084 1819 3084 
Q 2600 3084 3056 2656 
Q 3513 2228 3513 1497 
Q 3513 744 3044 326 
Q 2575 -91 1722 -91 
Q 1428 -91 1123 -41 
Q 819 9 494 109 
L 494 744 
Q 775 591 1075 516 
Q 1375 441 1709 441 
Q 2250 441 2565 725 
Q 2881 1009 2881 1497 
Q 2881 1984 2565 2268 
Q 2250 2553 1709 2553 
Q 1456 2553 1204 2497 
Q 953 2441 691 2322 
L 691 4666 
z
" transform="scale(0.015625)"/>
       </defs>
       <use xlink:href="#DejaVuSans-35"/>
       <use xlink:href="#DejaVuSans-30" x="63.623047"/>
       <use xlink:href="#DejaVuSans-30" x="127.246094"/>
      </g>
     </g>
    </g>
    <g id="xtick_3">
     <g id="line2d_3">
      <g>
       <use xlink:href="#mce6460c6c5" x="303.854924" y="354.958125" style="stroke: #000000; stroke-width: 0.8"/>
      </g>
     </g>
     <g id="text_3">
      <!-- 1000 -->
      <g transform="translate(291.129924 369.556562)scale(0.1 -0.1)">
       <defs>
        <path id="DejaVuSans-31" d="M 794 531 
L 1825 531 
L 1825 4091 
L 703 3866 
L 703 4441 
L 1819 4666 
L 2450 4666 
L 2450 531 
L 3481 531 
L 3481 0 
L 794 0 
L 794 531 
z
" transform="scale(0.015625)"/>
       </defs>
       <use xlink:href="#DejaVuSans-31"/>
       <use xlink:href="#DejaVuSans-30" x="63.623047"/>
       <use xlink:href="#DejaVuSans-30" x="127.246094"/>
       <use xlink:href="#DejaVuSans-30" x="190.869141"/>
      </g>
     </g>
    </g>
    <g id="xtick_4">
     <g id="line2d_4">
      <g>
       <use xlink:href="#mce6460c6c5" x="419.617756" y="354.958125" style="stroke: #000000; stroke-width: 0.8"/>
      </g>
     </g>
     <g id="text_4">
      <!-- 1500 -->
      <g transform="translate(406.892756 369.556562)scale(0.1 -0.1)">
       <use xlink:href="#DejaVuSans-31"/>
       <use xlink:href="#DejaVuSans-35" x="63.623047"/>
       <use xlink:href="#DejaVuSans-30" x="127.246094"/>
       <use xlink:href="#DejaVuSans-30" x="190.869141"/>
      </g>
     </g>
    </g>
    <g id="xtick_5">
     <g id="line2d_5">
      <g>
       <use xlink:href="#mce6460c6c5" x="535.380587" y="354.958125" style="stroke: #000000; stroke-width: 0.8"/>
      </g>
     </g>
     <g id="text_5">
      <!-- 2000 -->
      <g transform="translate(522.655587 369.556562)scale(0.1 -0.1)">
       <defs>
        <path id="DejaVuSans-32" d="M 1228 531 
L 3431 531 
L 3431 0 
L 469 0 
L 469 531 
Q 828 903 1448 1529 
Q 2069 2156 2228 2338 
Q 2531 2678 2651 2914 
Q 2772 3150 2772 3378 
Q 2772 3750 2511 3984 
Q 2250 4219 1831 4219 
Q 1534 4219 1204 4116 
Q 875 4013 500 3803 
L 500 4441 
Q 881 4594 1212 4672 
Q 1544 4750 1819 4750 
Q 2544 4750 2975 4387 
Q 3406 4025 3406 3419 
Q 3406 3131 3298 2873 
Q 3191 2616 2906 2266 
Q 2828 2175 2409 1742 
Q 1991 1309 1228 531 
z
" transform="scale(0.015625)"/>
       </defs>
       <use xlink:href="#DejaVuSans-32"/>
       <use xlink:href="#DejaVuSans-30" x="63.623047"/>
       <use xlink:href="#DejaVuSans-30" x="127.246094"/>
       <use xlink:href="#DejaVuSans-30" x="190.869141"/>
      </g>
     </g>
    </g>
    <g id="text_6">
     <!-- Date -->
     <g transform="translate(314.014844 383.234687)scale(0.1 -0.1)">
      <defs>
       <path id="DejaVuSans-44" d="M 1259 4147 
L 1259 519 
L 2022 519 
Q 2988 519 3436 956 
Q 3884 1394 3884 2338 
Q 3884 3275 3436 3711 
Q 2988 4147 2022 4147 
L 1259 4147 
z
M 628 4666 
L 1925 4666 
Q 3281 4666 3915 4102 
Q 4550 3538 4550 2338 
Q 4550 1131 3912 565 
Q 3275 0 1925 0 
L 628 0 
L 628 4666 
z
" transform="scale(0.015625)"/>
       <path id="DejaVuSans-61" d="M 2194 1759 
Q 1497 1759 1228 1600 
Q 959 1441 959 1056 
Q 959 750 1161 570 
Q 1363 391 1709 391 
Q 2188 391 2477 730 
Q 2766 1069 2766 1631 
L 2766 1759 
L 2194 1759 
z
M 3341 1997 
L 3341 0 
L 2766 0 
L 2766 531 
Q 2569 213 2275 61 
Q 1981 -91 1556 -91 
Q 1019 -91 701 211 
Q 384 513 384 1019 
Q 384 1609 779 1909 
Q 1175 2209 1959 2209 
L 2766 2209 
L 2766 2266 
Q 2766 2663 2505 2880 
Q 2244 3097 1772 3097 
Q 1472 3097 1187 3025 
Q 903 2953 641 2809 
L 641 3341 
Q 956 3463 1253 3523 
Q 1550 3584 1831 3584 
Q 2591 3584 2966 3190 
Q 3341 2797 3341 1997 
z
" transform="scale(0.015625)"/>
       <path id="DejaVuSans-74" d="M 1172 4494 
L 1172 3500 
L 2356 3500 
L 2356 3053 
L 1172 3053 
L 1172 1153 
Q 1172 725 1289 603 
Q 1406 481 1766 481 
L 2356 481 
L 2356 0 
L 1766 0 
Q 1100 0 847 248 
Q 594 497 594 1153 
L 594 3053 
L 172 3053 
L 172 3500 
L 594 3500 
L 594 4494 
L 1172 4494 
z
" transform="scale(0.015625)"/>
       <path id="DejaVuSans-65" d="M 3597 1894 
L 3597 1613 
L 953 1613 
Q 991 1019 1311 708 
Q 1631 397 2203 397 
Q 2534 397 2845 478 
Q 3156 559 3463 722 
L 3463 178 
Q 3153 47 2828 -22 
Q 2503 -91 2169 -91 
Q 1331 -91 842 396 
Q 353 884 353 1716 
Q 353 2575 817 3079 
Q 1281 3584 2069 3584 
Q 2775 3584 3186 3129 
Q 3597 2675 3597 1894 
z
M 3022 2063 
Q 3016 2534 2758 2815 
Q 2500 3097 2075 3097 
Q 1594 3097 1305 2825 
Q 1016 2553 972 2059 
L 3022 2063 
z
" transform="scale(0.015625)"/>
      </defs>
      <use xlink:href="#DejaVuSans-44"/>
      <use xlink:href="#DejaVuSans-61" x="77.001953"/>
      <use xlink:href="#DejaVuSans-74" x="138.28125"/>
      <use xlink:href="#DejaVuSans-65" x="177.490234"/>
     </g>
    </g>
   </g>
   <g id="matplotlib.axis_2">
    <g id="ytick_1">
     <g id="line2d_6">
      <path d="M 46.965625 342.948452 
L 604.965625 342.948452 
" clip-path="url(#p1581e90ee7)" style="fill: none; stroke: #dcdcdc; stroke-width: 0.5; stroke-linecap: square"/>
     </g>
     <g id="line2d_7">
      <defs>
       <path id="m411e31066d" d="M 0 0 
L -3.5 0 
" style="stroke: #000000; stroke-width: 0.8"/>
      </defs>
      <g>
       <use xlink:href="#m411e31066d" x="46.965625" y="342.948452" style="stroke: #000000; stroke-width: 0.8"/>
      </g>
     </g>
     <g id="text_7">
      <!-- 100 -->
      <g transform="translate(20.878125 346.747671)scale(0.1 -0.1)">
       <use xlink:href="#DejaVuSans-31"/>
       <use xlink:href="#DejaVuSans-30" x="63.623047"/>
       <use xlink:href="#DejaVuSans-30" x="127.246094"/>
      </g>
     </g>
    </g>
    <g id="ytick_2">
     <g id="line2d_8">
      <path d="M 46.965625 303.275908 
L 604.965625 303.275908 
" clip-path="url(#p1581e90ee7)" style="fill: none; stroke: #dcdcdc; stroke-width: 0.5; stroke-linecap: square"/>
     </g>
     <g id="line2d_9">
      <g>
       <use xlink:href="#m411e31066d" x="46.965625" y="303.275908" style="stroke: #000000; stroke-width: 0.8"/>
      </g>
     </g>
     <g id="text_8">
      <!-- 125 -->
      <g transform="translate(20.878125 307.075127)scale(0.1 -0.1)">
       <use xlink:href="#DejaVuSans-31"/>
       <use xlink:href="#DejaVuSans-32" x="63.623047"/>
       <use xlink:href="#DejaVuSans-35" x="127.246094"/>
      </g>
     </g>
    </g>
    <g id="ytick_3">
     <g id="line2d_10">
      <path d="M 46.965625 263.603364 
L 604.965625 263.603364 
" clip-path="url(#p1581e90ee7)" style="fill: none; stroke: #dcdcdc; stroke-width: 0.5; stroke-linecap: square"/>
     </g>
     <g id="line2d_11">
      <g>
       <use xlink:href="#m411e31066d" x="46.965625" y="263.603364" style="stroke: #000000; stroke-width: 0.8"/>
      </g>
     </g>
     <g id="text_9">
      <!-- 150 -->
      <g transform="translate(20.878125 267.402583)scale(0.1 -0.1)">
       <use xlink:href="#DejaVuSans-31"/>
       <use xlink:href="#DejaVuSans-35" x="63.623047"/>
       <use xlink:href="#DejaVuSans-30" x="127.246094"/>
      </g>
     </g>
    </g>
    <g id="ytick_4">
     <g id="line2d_12">
      <path d="M 46.965625 223.93082 
L 604.965625 223.93082 
" clip-path="url(#p1581e90ee7)" style="fill: none; stroke: #dcdcdc; stroke-width: 0.5; stroke-linecap: square"/>
     </g>
     <g id="line2d_13">
      <g>
       <use xlink:href="#m411e31066d" x="46.965625" y="223.93082" style="stroke: #000000; stroke-width: 0.8"/>
      </g>
     </g>
     <g id="text_10">
      <!-- 175 -->
      <g transform="translate(20.878125 227.730039)scale(0.1 -0.1)">
       <defs>
        <path id="DejaVuSans-37" d="M 525 4666 
L 3525 4666 
L 3525 4397 
L 1831 0 
L 1172 0 
L 2766 4134 
L 525 4134 
L 525 4666 
z
" transform="scale(0.015625)"/>
       </defs>
       <use xlink:href="#DejaVuSans-31"/>
       <use xlink:href="#DejaVuSans-37" x="63.623047"/>
       <use xlink:href="#DejaVuSans-35" x="127.246094"/>
      </g>
     </g>
    </g>
    <g id="ytick_5">
     <g id="line2d_14">
      <path d="M 46.965625 184.258276 
L 604.965625 184.258276 
" clip-path="url(#p1581e90ee7)" style="fill: none; stroke: #dcdcdc; stroke-width: 0.5; stroke-linecap: square"/>
     </g>
     <g id="line2d_15">
      <g>
       <use xlink:href="#m411e31066d" x="46.965625" y="184.258276" style="stroke: #000000; stroke-width: 0.8"/>
      </g>
     </g>
     <g id="text_11">
      <!-- 200 -->
      <g transform="translate(20.878125 188.057495)scale(0.1 -0.1)">
       <use xlink:href="#DejaVuSans-32"/>
       <use xlink:href="#DejaVuSans-30" x="63.623047"/>
       <use xlink:href="#DejaVuSans-30" x="127.246094"/>
      </g>
     </g>
    </g>
    <g id="ytick_6">
     <g id="line2d_16">
      <path d="M 46.965625 144.585732 
L 604.965625 144.585732 
" clip-path="url(#p1581e90ee7)" style="fill: none; stroke: #dcdcdc; stroke-width: 0.5; stroke-linecap: square"/>
     </g>
     <g id="line2d_17">
      <g>
       <use xlink:href="#m411e31066d" x="46.965625" y="144.585732" style="stroke: #000000; stroke-width: 0.8"/>
      </g>
     </g>
     <g id="text_12">
      <!-- 225 -->
      <g transform="translate(20.878125 148.384951)scale(0.1 -0.1)">
       <use xlink:href="#DejaVuSans-32"/>
       <use xlink:href="#DejaVuSans-32" x="63.623047"/>
       <use xlink:href="#DejaVuSans-35" x="127.246094"/>
      </g>
     </g>
    </g>
    <g id="ytick_7">
     <g id="line2d_18">
      <path d="M 46.965625 104.913188 
L 604.965625 104.913188 
" clip-path="url(#p1581e90ee7)" style="fill: none; stroke: #dcdcdc; stroke-width: 0.5; stroke-linecap: square"/>
     </g>
     <g id="line2d_19">
      <g>
       <use xlink:href="#m411e31066d" x="46.965625" y="104.913188" style="stroke: #000000; stroke-width: 0.8"/>
      </g>
     </g>
     <g id="text_13">
      <!-- 250 -->
      <g transform="translate(20.878125 108.712407)scale(0.1 -0.1)">
       <use xlink:href="#DejaVuSans-32"/>
       <use xlink:href="#DejaVuSans-35" x="63.623047"/>
       <use xlink:href="#DejaVuSans-30" x="127.246094"/>
      </g>
     </g>
    </g>
    <g id="ytick_8">
     <g id="line2d_20">
      <path d="M 46.965625 65.240644 
L 604.965625 65.240644 
" clip-path="url(#p1581e90ee7)" style="fill: none; stroke: #dcdcdc; stroke-width: 0.5; stroke-linecap: square"/>
     </g>
     <g id="line2d_21">
      <g>
       <use xlink:href="#m411e31066d" x="46.965625" y="65.240644" style="stroke: #000000; stroke-width: 0.8"/>
      </g>
     </g>
     <g id="text_14">
      <!-- 275 -->
      <g transform="translate(20.878125 69.039863)scale(0.1 -0.1)">
       <use xlink:href="#DejaVuSans-32"/>
       <use xlink:href="#DejaVuSans-37" x="63.623047"/>
       <use xlink:href="#DejaVuSans-35" x="127.246094"/>
      </g>
     </g>
    </g>
    <g id="ytick_9">
     <g id="line2d_22">
      <path d="M 46.965625 25.5681 
L 604.965625 25.5681 
" clip-path="url(#p1581e90ee7)" style="fill: none; stroke: #dcdcdc; stroke-width: 0.5; stroke-linecap: square"/>
     </g>
     <g id="line2d_23">
      <g>
       <use xlink:href="#m411e31066d" x="46.965625" y="25.5681" style="stroke: #000000; stroke-width: 0.8"/>
      </g>
     </g>
     <g id="text_15">
      <!-- 300 -->
      <g transform="translate(20.878125 29.367319)scale(0.1 -0.1)">
       <defs>
        <path id="DejaVuSans-33" d="M 2597 2516 
Q 3050 2419 3304 2112 
Q 3559 1806 3559 1356 
Q 3559 666 3084 287 
Q 2609 -91 1734 -91 
Q 1441 -91 1130 -33 
Q 819 25 488 141 
L 488 750 
Q 750 597 1062 519 
Q 1375 441 1716 441 
Q 2309 441 2620 675 
Q 2931 909 2931 1356 
Q 2931 1769 2642 2001 
Q 2353 2234 1838 2234 
L 1294 2234 
L 1294 2753 
L 1863 2753 
Q 2328 2753 2575 2939 
Q 2822 3125 2822 3475 
Q 2822 3834 2567 4026 
Q 2313 4219 1838 4219 
Q 1578 4219 1281 4162 
Q 984 4106 628 3988 
L 628 4550 
Q 988 4650 1302 4700 
Q 1616 4750 1894 4750 
Q 2613 4750 3031 4423 
Q 3450 4097 3450 3541 
Q 3450 3153 3228 2886 
Q 3006 2619 2597 2516 
z
" transform="scale(0.015625)"/>
       </defs>
       <use xlink:href="#DejaVuSans-33"/>
       <use xlink:href="#DejaVuSans-30" x="63.623047"/>
       <use xlink:href="#DejaVuSans-30" x="127.246094"/>
      </g>
     </g>
    </g>
    <g id="text_16">
     <!-- Price (USD) -->
     <g transform="translate(14.798437 217.01)rotate(-90)scale(0.1 -0.1)">
      <defs>
       <path id="DejaVuSans-50" d="M 1259 4147 
L 1259 2394 
L 2053 2394 
Q 2494 2394 2734 2622 
Q 2975 2850 2975 3272 
Q 2975 3691 2734 3919 
Q 2494 4147 2053 4147 
L 1259 4147 
z
M 628 4666 
L 2053 4666 
Q 2838 4666 3239 4311 
Q 3641 3956 3641 3272 
Q 3641 2581 3239 2228 
Q 2838 1875 2053 1875 
L 1259 1875 
L 1259 0 
L 628 0 
L 628 4666 
z
" transform="scale(0.015625)"/>
       <path id="DejaVuSans-72" d="M 2631 2963 
Q 2534 3019 2420 3045 
Q 2306 3072 2169 3072 
Q 1681 3072 1420 2755 
Q 1159 2438 1159 1844 
L 1159 0 
L 581 0 
L 581 3500 
L 1159 3500 
L 1159 2956 
Q 1341 3275 1631 3429 
Q 1922 3584 2338 3584 
Q 2397 3584 2469 3576 
Q 2541 3569 2628 3553 
L 2631 2963 
z
" transform="scale(0.015625)"/>
       <path id="DejaVuSans-69" d="M 603 3500 
L 1178 3500 
L 1178 0 
L 603 0 
L 603 3500 
z
M 603 4863 
L 1178 4863 
L 1178 4134 
L 603 4134 
L 603 4863 
z
" transform="scale(0.015625)"/>
       <path id="DejaVuSans-63" d="M 3122 3366 
L 3122 2828 
Q 2878 2963 2633 3030 
Q 2388 3097 2138 3097 
Q 1578 3097 1268 2742 
Q 959 2388 959 1747 
Q 959 1106 1268 751 
Q 1578 397 2138 397 
Q 2388 397 2633 464 
Q 2878 531 3122 666 
L 3122 134 
Q 2881 22 2623 -34 
Q 2366 -91 2075 -91 
Q 1284 -91 818 406 
Q 353 903 353 1747 
Q 353 2603 823 3093 
Q 1294 3584 2113 3584 
Q 2378 3584 2631 3529 
Q 2884 3475 3122 3366 
z
" transform="scale(0.015625)"/>
       <path id="DejaVuSans-20" transform="scale(0.015625)"/>
       <path id="DejaVuSans-28" d="M 1984 4856 
Q 1566 4138 1362 3434 
Q 1159 2731 1159 2009 
Q 1159 1288 1364 580 
Q 1569 -128 1984 -844 
L 1484 -844 
Q 1016 -109 783 600 
Q 550 1309 550 2009 
Q 550 2706 781 3412 
Q 1013 4119 1484 4856 
L 1984 4856 
z
" transform="scale(0.015625)"/>
       <path id="DejaVuSans-55" d="M 556 4666 
L 1191 4666 
L 1191 1831 
Q 1191 1081 1462 751 
Q 1734 422 2344 422 
Q 2950 422 3222 751 
Q 3494 1081 3494 1831 
L 3494 4666 
L 4128 4666 
L 4128 1753 
Q 4128 841 3676 375 
Q 3225 -91 2344 -91 
Q 1459 -91 1007 375 
Q 556 841 556 1753 
L 556 4666 
z
" transform="scale(0.015625)"/>
       <path id="DejaVuSans-53" d="M 3425 4513 
L 3425 3897 
Q 3066 4069 2747 4153 
Q 2428 4238 2131 4238 
Q 1616 4238 1336 4038 
Q 1056 3838 1056 3469 
Q 1056 3159 1242 3001 
Q 1428 2844 1947 2747 
L 2328 2669 
Q 3034 2534 3370 2195 
Q 3706 1856 3706 1288 
Q 3706 609 3251 259 
Q 2797 -91 1919 -91 
Q 1588 -91 1214 -16 
Q 841 59 441 206 
L 441 856 
Q 825 641 1194 531 
Q 1563 422 1919 422 
Q 2459 422 2753 634 
Q 3047 847 3047 1241 
Q 3047 1584 2836 1778 
Q 2625 1972 2144 2069 
L 1759 2144 
Q 1053 2284 737 2584 
Q 422 2884 422 3419 
Q 422 4038 858 4394 
Q 1294 4750 2059 4750 
Q 2388 4750 2728 4690 
Q 3069 4631 3425 4513 
z
" transform="scale(0.015625)"/>
       <path id="DejaVuSans-29" d="M 513 4856 
L 1013 4856 
Q 1481 4119 1714 3412 
Q 1947 2706 1947 2009 
Q 1947 1309 1714 600 
Q 1481 -109 1013 -844 
L 513 -844 
Q 928 -128 1133 580 
Q 1338 1288 1338 2009 
Q 1338 2731 1133 3434 
Q 928 4138 513 4856 
z
" transform="scale(0.015625)"/>
      </defs>
      <use xlink:href="#DejaVuSans-50"/>
      <use xlink:href="#DejaVuSans-72" x="58.552734"/>
      <use xlink:href="#DejaVuSans-69" x="99.666016"/>
      <use xlink:href="#DejaVuSans-63" x="127.449219"/>
      <use xlink:href="#DejaVuSans-65" x="182.429688"/>
      <use xlink:href="#DejaVuSans-20" x="243.953125"/>
      <use xlink:href="#DejaVuSans-28" x="275.740234"/>
      <use xlink:href="#DejaVuSans-55" x="314.753906"/>
      <use xlink:href="#DejaVuSans-53" x="387.947266"/>
      <use xlink:href="#DejaVuSans-44" x="451.423828"/>
      <use xlink:href="#DejaVuSans-29" x="528.425781"/>
     </g>
    </g>
   </g>
   <g id="line2d_24">
    <path d="M 76.728249 338.187747 
L 76.959775 334.569611 
L 77.1913 334.982206 
L 77.422826 332.347949 
L 77.654352 332.236866 
L 77.885877 331.094296 
L 78.81198 333.236614 
L 79.043506 331.36407 
M 87.378429 325.952735 
L 87.841481 322.461551 
L 88.073006 322.31873 
L 88.304532 324.032583 
L 88.536058 322.255253 
L 88.767583 323.080442 
M 97.797084 324.635606 
L 98.02861 323.588251 
L 98.260136 323.9215 
L 98.491661 325.143415 
M 104.511328 324.905379 
L 104.742854 324.270619 
M 123.033382 328.682206 
L 123.264907 328.460039 
L 123.496433 329.015455 
L 123.727959 326.825531 
M 124.19101 322.937621 
L 124.422536 321.350719 
L 124.654061 321.842659 
L 124.885587 319.620997 
L 125.117112 319.224271 
L 125.348638 319.573389 
L 125.580164 321.747445 
L 125.811689 322.160039 
L 126.274741 322.001349 
L 126.506266 320.827042 
L 126.737792 321.207898 
L 127.432369 317.46281 
L 127.663895 313.479687 
M 133.220511 306.259284 
L 133.452036 306.243415 
L 133.683562 304.846941 
L 133.915088 307.60815 
L 134.146613 308.512684 
M 151.279512 299.53082 
L 151.511038 298.927798 
L 151.742564 302.593541 
L 151.974089 301.95878 
L 152.205615 295.785732 
L 152.437141 298.531072 
L 152.668666 296.753742 
L 152.900192 297.007646 
L 153.363243 292.246941 
L 153.594769 290.48548 
L 153.826295 290.453742 
M 154.289346 288.454246 
L 154.520872 287.359284 
M 164.013424 286.391274 
L 164.24495 287.882961 
L 164.476475 284.090266 
L 164.708001 283.8681 
L 164.939526 281.106891 
L 165.171052 283.201601 
L 165.634103 280.424523 
L 165.865629 280.218226 
L 166.097155 278.742407 
L 166.560206 280.202357 
L 167.023257 278.186991 
L 167.486309 274.838629 
L 167.94936 273.743667 
L 168.180886 271.458528 
L 168.412411 271.617218 
L 168.875463 269.49077 
L 169.106988 270.712684 
L 169.338514 270.950719 
L 169.57004 270.252483 
M 204.761941 285.010669 
L 204.993466 285.64543 
L 205.224992 283.407898 
M 240.416893 300.451223 
L 240.648418 298.959536 
L 241.11147 303.133087 
L 241.342995 298.40412 
L 241.574521 297.626538 
L 241.806047 294.928805 
L 242.037572 293.976664 
L 242.269098 293.675153 
L 242.500624 292.183465 
L 242.732149 294.167092 
L 242.963675 293.706891 
L 243.195201 291.675656 
L 243.426726 292.294548 
L 243.889778 284.328301 
L 244.121303 284.661551 
M 249.446393 277.5681 
L 249.677919 276.774649 
L 249.909445 278.186991 
L 250.14097 277.790266 
M 262.643356 279.932583 
L 262.874882 281.852735 
L 263.106408 279.028049 
M 267.273869 272.902609 
L 267.505395 272.585228 
M 267.968446 272.458276 
L 268.199972 272.696311 
L 268.431498 273.235858 
L 268.663023 274.219737 
L 268.894549 273.711929 
L 269.126075 274.521248 
L 269.3576 270.506387 
M 281.628461 272.347193 
L 281.859986 273.759536 
L 282.091512 273.394548 
L 282.323038 274.045178 
L 282.786089 272.410669 
L 283.017615 273.124775 
L 283.24914 272.648704 
L 283.712192 274.410165 
L 283.943717 273.69606 
L 284.175243 274.791022 
L 284.406769 268.506891 
L 284.638294 267.110417 
L 284.86982 261.57213 
M 286.027448 252.3681 
L 286.258974 250.289259 
L 286.490499 251.304876 
L 286.722025 249.78145 
L 286.953551 249.860795 
L 287.185076 250.733591 
L 287.416602 250.622508 
L 287.648128 252.542659 
L 287.879653 251.415959 
L 288.111179 251.796815 
L 288.342705 247.543918 
L 288.57423 248.702357 
M 296.214577 249.62276 
L 296.446103 246.591777 
M 297.603731 241.164573 
L 298.066783 242.973641 
L 298.298308 241.481954 
L 298.76136 243.084724 
L 298.992885 243.179939 
L 299.224411 241.323264 
L 299.455937 241.370871 
L 299.918988 236.705379 
L 300.382039 235.451727 
L 300.613565 234.134599 
L 300.845091 233.579183 
L 301.076616 232.484221 
M 314.73663 245.73485 
L 314.968156 245.163566 
L 315.431207 239.593541 
L 315.662733 239.038125 
L 315.894259 239.910921 
L 316.35731 238.704876 
L 316.588836 239.625279 
L 316.820361 239.355505 
M 323.071554 231.468604 
L 323.30308 233.071374 
L 323.534606 231.992281 
L 323.997657 232.706387 
L 324.229183 231.611425 
L 324.460708 231.373389 
L 324.692234 229.961047 
L 324.92376 229.75475 
M 332.795632 225.533591 
L 333.027158 223.137369 
L 333.258683 219.376412 
L 333.490209 218.170367 
L 333.721735 217.710165 
L 333.95326 218.265581 
L 334.879363 209.934347 
L 335.110889 210.981702 
L 335.342414 213.044674 
L 335.57394 211.997319 
L 335.805466 213.044674 
L 336.036991 210.807143 
L 336.268517 210.902357 
L 336.500043 210.727798 
M 343.214287 208.871122 
L 343.445813 210.156513 
L 343.677338 209.013944 
L 344.14039 213.124019 
L 344.371915 212.743163 
L 344.603441 214.314196 
L 344.834967 213.409662 
L 345.066492 210.949964 
L 345.298018 211.933843 
L 345.529544 212.251223 
L 345.761069 210.458024 
L 346.22412 200.365329 
M 349.46548 187.574901 
L 349.697005 187.765329 
L 349.928531 186.019737 
L 350.160057 187.559032 
L 350.391582 188.114447 
L 350.854634 184.956513 
L 351.317685 188.669863 
L 351.549211 184.591526 
L 352.475313 179.465833 
L 352.706839 175.355757 
L 352.938365 173.641903 
M 379.563816 208.204624 
L 379.795342 204.745178 
L 380.026867 205.443415 
L 380.258393 203.570871 
L 380.489919 206.443163 
L 380.721444 204.094548 
L 380.95297 203.999334 
M 382.57365 199.476664 
L 382.805175 183.560039 
L 383.036701 188.2414 
L 383.268227 189.3681 
L 383.499752 187.670115 
M 384.425855 187.511425 
L 384.657381 185.702357 
L 384.888906 187.638377 
L 385.120432 187.670115 
L 385.351958 187.336866 
M 387.435688 177.117218 
L 387.667214 172.261299 
L 388.130265 170.833087 
L 388.361791 170.78548 
L 388.593317 172.626286 
L 388.824842 172.769107 
L 389.056368 171.5948 
L 389.287894 167.579939 
L 389.519419 167.167344 
L 389.750945 166.373893 
L 390.213996 170.420493 
L 390.445522 168.309913 
L 390.677048 164.802861 
M 399.243497 186.654498 
L 399.475023 184.1948 
L 399.706549 178.942155 
M 409.662152 197.493037 
L 409.893678 191.875405 
M 411.051306 190.145682 
L 411.282832 190.955002 
L 411.514357 189.114196 
M 422.396064 185.146941 
L 422.627589 183.274397 
L 422.859115 185.511929 
L 423.090641 183.210921 
L 423.322166 182.845934 
M 423.785218 178.101097 
L 424.016743 178.434347 
L 424.248269 177.751979 
L 424.479795 175.80009 
L 424.71132 175.927042 
L 425.174372 177.08548 
L 425.405897 173.673641 
L 425.637423 167.500594 
M 434.898449 173.737117 
L 435.129975 177.006135 
L 435.361501 176.339636 
L 435.593026 176.069863 
L 435.824552 178.735858 
L 436.056078 174.720997 
L 436.287603 173.546689 
M 436.750655 174.403616 
L 436.98218 173.387999 
L 437.213706 171.451979 
M 447.400835 186.876664 
L 447.632361 183.54417 
M 454.115079 177.767848 
L 454.346605 173.641903 
L 454.578131 173.37213 
L 454.809656 171.43611 
L 455.041182 171.705883 
L 455.272708 169.373138 
L 455.504233 169.515959 
L 455.735759 170.579183 
L 455.967285 170.357017 
L 456.19881 166.024775 
L 456.430336 167.405379 
L 456.661862 166.865833 
L 456.893387 167.976664 
L 457.356439 163.850719 
L 457.587964 163.612684 
M 461.523901 157.8681 
L 461.986952 154.011929 
L 462.218478 154.265833 
M 463.14458 155.567092 
L 463.376106 155.059284 
L 463.607632 153.155002 
M 488.843929 230.960795 
L 489.075454 230.38951 
L 489.30698 233.055505 
L 489.538506 223.200845 
L 489.770031 227.913944 
M 495.558173 219.915959 
L 495.789699 217.821248 
L 496.021224 223.343667 
L 496.484276 218.360795 
L 496.715801 219.185984 
L 496.947327 217.852986 
L 497.178853 211.679939 
L 497.410378 214.171374 
L 497.641904 214.092029 
L 497.87343 217.900594 
L 498.104955 211.394296 
L 498.336481 209.442407 
L 498.568007 200.587495 
L 499.031058 198.524523 
L 499.494109 199.365581 
L 499.725635 196.525027 
L 499.957161 196.7948 
L 500.420212 192.954498 
L 500.651738 196.731324 
L 501.114789 189.955253 
L 501.346315 193.303616 
M 504.124623 173.499082 
L 504.356148 171.039384 
L 504.8192 174.546437 
L 505.050725 172.467596 
M 515.46938 170.78548 
L 515.700906 173.340392 
L 515.932431 183.147445 
L 516.163957 181.862054 
L 516.395483 181.243163 
L 516.858534 173.737117 
L 517.09006 174.467092 
L 517.553111 170.214196 
M 524.267355 147.077168 
L 524.498881 146.981954 
L 524.730407 149.536866 
L 524.961932 145.791777 
M 529.823971 134.159787 
L 530.055497 140.840644 
L 530.287022 135.143667 
L 530.518548 140.031324 
L 530.750074 137.730316 
L 530.981599 133.096563 
L 531.213125 132.398327 
M 537.695844 102.532835 
L 538.158895 101.00941 
L 538.390421 103.342155 
L 538.621946 104.341903 
L 538.853472 107.595052 
L 539.316523 103.723012 
L 539.548049 94.169863 
L 539.779575 90.916714 
M 540.242626 96.232835 
L 540.474152 91.900594 
M 542.789408 69.82679 
L 543.25246 76.523515 
M 558.301628 60.956009 
L 558.533153 59.702357 
M 570.109436 67.39883 
L 570.340962 60.400594 
M 578.907412 52.402609 
" clip-path="url(#p1581e90ee7)" style="fill: none; stroke: #00ff7f; stroke-linecap: square"/>
   </g>
   <g id="line2d_25">
    <path d="M 94.555725 316.288503 
L 94.787251 314.955505 
L 95.018776 316.431324 
L 95.250302 315.764825 
L 95.481828 315.52679 
M 101.269969 316.447193 
L 101.501495 315.701349 
M 117.939817 313.495556 
L 118.171343 315.177672 
L 118.402868 315.066588 
L 118.634394 317.113692 
L 118.86592 317.256513 
L 119.097445 318.605379 
M 120.023548 319.208402 
L 120.255074 317.79606 
M 190.175824 269.982709 
L 190.407349 272.616966 
M 197.584645 270.30009 
L 197.816171 271.125279 
L 198.279222 269.094044 
L 198.510748 270.046185 
M 199.43685 271.934599 
L 199.668376 271.950468 
M 210.087031 275.124271 
L 210.318556 275.774901 
L 210.550082 275.219485 
L 210.781608 273.918226 
L 211.013133 274.156261 
M 233.239597 290.358528 
L 233.471123 288.755757 
L 233.702648 289.168352 
M 234.1657 288.771626 
L 234.397225 290.1681 
M 291.121013 239.244422 
L 291.352538 237.641651 
L 291.584064 238.292281 
L 291.81559 238.165329 
L 292.278641 239.879183 
M 302.234245 220.312684 
L 302.46577 222.518478 
L 303.391873 223.978427 
L 303.623399 223.343667 
L 303.854924 223.962558 
L 304.08645 223.311929 
L 304.317976 224.359284 
L 304.549501 224.454498 
L 304.781027 225.39077 
L 305.244078 228.580442 
M 305.938655 232.039888 
L 306.170181 233.991777 
M 311.03222 235.784976 
L 311.263745 235.626286 
L 311.495271 237.34014 
M 339.972928 201.650719 
L 340.435979 200.476412 
L 340.667505 202.174397 
L 341.130556 202.364825 
L 341.593607 204.983213 
M 342.056659 202.333087 
L 342.288184 204.459536 
M 354.095993 163.231828 
L 354.327519 158.915455 
M 376.090931 193.795556 
L 376.322457 191.288251 
L 376.553982 190.590014 
L 376.785508 191.669107 
L 377.017034 191.764321 
L 377.248559 192.906891 
M 396.002138 149.251223 
L 396.233664 146.55349 
M 404.105536 164.374397 
L 404.337062 156.487495 
L 404.568588 156.170115 
L 404.800113 155.313188 
L 405.031639 151.23485 
M 427.952679 157.947445 
L 428.184205 157.741148 
L 428.415731 157.741148 
L 428.647256 158.978931 
L 428.878782 154.741903 
L 429.341833 169.293793 
L 429.573359 169.515959 
L 429.804885 170.674397 
L 430.03641 169.944422 
M 437.908283 163.35878 
L 438.139809 161.057772 
L 438.371334 161.184724 
L 438.60286 160.200845 
L 438.834386 160.058024 
M 439.992014 161.882961 
L 440.455065 163.818981 
M 449.947617 166.215203 
L 450.179143 162.660543 
M 473.100184 138.793541 
L 473.331709 137.270115 
L 473.563235 140.808906 
M 484.444941 203.364573 
L 484.676467 198.223012 
M 485.371044 205.554498 
L 485.60257 207.062054 
L 486.065621 204.158024 
M 492.548339 183.210921 
L 492.779865 181.782709 
L 493.011391 190.4948 
M 506.902931 149.854246 
L 507.134456 155.456009 
M 512.691072 160.216714 
L 513.154123 158.217218 
M 520.331419 130.430568 
L 520.562945 131.684221 
M 549.503652 42.547949 
L 549.735178 42.325782 
L 549.966704 41.691022 
L 550.198229 41.405379 
L 550.429755 38.310921 
L 550.661281 37.438125 
M 551.124332 42.722508 
L 551.355858 43.690518 
M 562.237564 42.309913 
L 562.46909 42.865329 
L 562.700615 47.21344 
L 562.932141 49.165329 
L 563.163667 48.943163 
M 563.626718 47.752986 
L 563.858244 45.721752 
L 564.089769 48.943163 
L 564.321295 46.832583 
L 564.552821 48.324271 
L 564.784346 48.149712 
L 565.015872 48.959032 
M 574.276898 41.88145 
" clip-path="url(#p1581e90ee7)" style="fill: none; stroke: #ff4500; stroke-linecap: square"/>
   </g>
   <g id="line2d_26">
    <path d="M 72.329261 339.838125 
L 72.560787 338.870115 
L 72.792313 339.139888 
L 73.023838 336.886488 
L 73.255364 337.933843 
L 73.48689 336.283465 
L 73.718415 337.441903 
L 73.949941 334.791777 
L 74.181467 336.219989 
L 74.412992 334.807646 
L 74.644518 336.36281 
L 74.876044 334.601349 
L 75.107569 334.823515 
L 75.339095 332.903364 
L 75.802146 331.776664 
L 76.033672 335.775656 
L 76.265198 331.586236 
L 76.496723 334.74417 
M 79.275031 329.237621 
L 79.506557 327.079435 
L 79.738083 327.238125 
L 79.969608 325.587747 
L 80.201134 326.03208 
L 80.43266 324.191274 
L 80.664185 324.318226 
L 80.895711 322.842407 
L 81.127237 322.683717 
L 81.358762 324.635606 
L 81.590288 322.286991 
L 81.821814 322.31873 
L 82.053339 322.7948 
L 82.516391 325.032332 
L 82.747916 325.762306 
L 82.979442 323.461299 
L 83.210968 322.271122 
L 83.442493 319.39883 
L 83.674019 320.620745 
L 83.905545 320.620745 
L 84.13707 321.652231 
L 84.368596 324.683213 
L 84.831647 318.652986 
L 85.063173 318.906891 
L 85.294698 321.50941 
L 85.526224 322.398075 
L 85.75775 319.160795 
L 85.989275 320.477923 
L 86.220801 319.271878 
L 86.452327 318.875153 
L 86.683852 320.985732 
L 86.915378 324.841903 
L 87.146904 323.302609 
M 88.999109 322.905883 
L 89.230635 319.208402 
L 89.46216 319.129057 
L 89.693686 317.875405 
L 89.925212 319.335354 
L 90.156737 316.002861 
L 90.619789 315.637873 
L 90.851314 315.653742 
L 91.08284 314.971374 
L 91.314366 313.495556 
L 91.545891 312.956009 
L 91.777417 312.892533 
L 92.008943 314.050971 
L 92.240468 316.828049 
L 92.471994 315.860039 
L 92.70352 315.431576 
L 93.166571 317.891274 
L 93.398097 317.764321 
L 93.629622 315.52679 
L 94.092674 314.019233 
L 94.324199 314.527042 
M 95.713353 316.65349 
L 95.944879 319.462306 
L 96.176405 318.76407 
L 96.40793 320.255757 
L 96.639456 319.129057 
L 96.870982 320.763566 
L 97.102507 319.541651 
L 97.565559 320.969863 
M 98.723187 323.778679 
L 98.954713 323.778679 
L 99.186238 323.477168 
L 99.417764 324.127798 
L 100.112341 320.287495 
L 100.343867 321.715707 
L 100.575392 321.461803 
L 100.806918 319.39883 
L 101.038444 318.526034 
M 101.733021 314.542911 
L 101.964546 318.129309 
L 102.196072 319.065581 
L 102.659123 317.891274 
L 103.122175 321.50941 
L 103.3537 320.509662 
L 103.585226 320.081198 
L 103.816752 321.731576 
L 104.048277 321.128553 
L 104.279803 322.540896 
M 104.97438 319.39883 
L 105.205905 317.859536 
L 105.437431 317.558024 
L 105.668957 319.73208 
L 105.900482 316.463062 
L 106.132008 316.098075 
L 106.363534 316.01873 
L 106.595059 316.145682 
L 106.826585 315.193541 
L 107.058111 316.907395 
L 107.289636 316.225027 
L 107.521162 315.923515 
L 107.752688 316.066337 
L 107.984213 315.320493 
L 108.447265 319.002105 
L 108.67879 318.716463 
L 109.141842 320.160543 
L 109.373367 319.287747 
L 109.604893 321.001601 
L 109.836419 317.748452 
L 110.067944 318.11344 
L 110.29947 320.398578 
L 110.994047 317.081954 
L 111.225573 317.716714 
L 111.457098 317.811929 
L 111.688624 319.303616 
L 111.92015 316.891526 
L 112.151675 316.034599 
L 112.383201 318.145178 
L 112.614727 316.637621 
L 113.077778 316.716966 
L 113.309304 318.621248 
L 113.540829 319.478175 
L 113.772355 318.668855 
L 114.003881 319.208402 
L 114.235406 316.510669 
L 114.466932 315.748956 
L 114.929983 319.922508 
L 115.161509 320.128805 
L 115.393035 320.636614 
L 115.62456 320.795304 
L 115.856086 321.318981 
L 116.087612 317.335858 
L 116.319137 316.98674 
L 116.550663 318.192785 
L 116.782189 315.907646 
L 117.24524 314.40009 
L 117.708291 314.320745 
M 119.328971 318.637117 
L 119.560497 319.192533 
L 119.792022 320.715959 
M 120.486599 318.76407 
L 120.718125 319.033843 
L 121.181176 318.732332 
L 121.644228 324.207143 
L 121.875753 324.699082 
L 122.107279 323.889762 
L 122.338805 325.048201 
L 122.57033 322.31873 
L 122.801856 324.540392 
M 127.89542 312.829057 
L 128.358472 306.973389 
L 128.589997 304.70412 
L 129.053049 303.006135 
L 129.5161 307.227294 
L 129.747626 305.878427 
L 129.979151 306.005379 
L 130.210677 307.052735 
L 130.442203 304.164573 
L 130.673728 302.958528 
L 130.905254 304.355002 
L 131.13678 304.116966 
L 131.368305 306.433843 
L 131.599831 305.703868 
L 131.831357 305.608654 
L 132.062882 303.323515 
L 132.294408 303.466337 
L 132.525934 304.116966 
L 132.757459 304.370871 
L 132.988985 305.0215 
M 134.378139 307.576412 
L 134.609665 305.227798 
L 135.072716 299.816463 
L 135.304242 300.895556 
L 135.535767 299.86407 
L 135.767293 299.784724 
L 135.998819 300.18145 
L 136.46187 298.991274 
L 136.693396 297.737621 
L 137.156447 296.833087 
L 137.387973 298.372382 
L 137.851024 303.799586 
L 138.08255 299.387999 
L 138.314075 300.625782 
L 138.545601 299.562558 
L 138.777127 299.641903 
L 139.008652 298.689762 
L 139.240178 299.261047 
L 139.471704 301.117722 
L 139.934755 299.895808 
L 140.166281 301.593793 
L 140.629332 300.133843 
L 140.860858 300.419485 
L 141.092383 299.276916 
L 141.323909 299.37213 
L 141.555435 298.340644 
L 141.78696 297.975656 
L 142.018486 298.705631 
L 142.250012 300.213188 
L 142.481537 299.737117 
L 142.713063 298.197823 
L 142.944589 297.483717 
L 143.176114 298.531072 
L 143.40764 298.118478 
L 143.639166 298.166085 
L 143.870691 299.657772 
M 144.333743 301.450971 
L 144.565268 301.6414 
L 144.796794 299.832332 
L 145.028319 299.705379 
L 145.259845 300.514699 
L 145.491371 300.625782 
L 145.722896 300.451223 
L 145.954422 299.895808 
L 146.185948 299.943415 
L 146.417473 299.594296 
L 146.648999 300.800342 
L 147.11205 298.943667 
L 147.343576 296.452231 
L 147.806627 298.166085 
L 148.038153 297.325027 
L 148.269679 297.801097 
L 148.501204 297.515455 
L 148.73273 296.960039 
L 149.195781 298.340644 
L 149.427307 300.863818 
L 149.658833 298.070871 
L 149.890358 297.5948 
L 150.121884 297.848704 
L 150.35341 298.308906 
L 150.584935 297.959787 
M 154.752397 287.565581 
L 154.983923 287.549712 
L 155.215449 284.534599 
L 155.446974 286.216714 
L 155.6785 285.455002 
L 155.910026 285.423264 
L 156.141551 284.9948 
M 156.604603 283.836362 
L 156.836128 282.709662 
L 157.067654 283.074649 
L 157.762231 282.201853 
L 157.993757 284.407646 
L 158.225282 283.090518 
L 158.456808 282.773138 
L 158.688334 284.090266 
L 159.614436 277.441148 
L 159.845962 278.583717 
L 160.077488 280.646689 
L 160.309013 281.408402 
L 160.540539 279.551727 
L 160.772065 284.090266 
L 161.00359 281.567092 
L 161.466642 282.424019 
L 161.698167 284.83611 
L 161.929693 283.21747 
L 162.161219 280.265833 
L 162.392744 280.805379 
L 162.62427 284.67742 
L 162.855796 279.567596 
L 163.087321 284.090266 
L 163.550373 285.216966 
L 163.781898 283.614196 
M 170.264617 268.84014 
L 170.959194 266.475656 
L 171.190719 265.682206 
L 171.422245 265.951979 
L 171.653771 263.809662 
L 171.885296 264.031828 
L 172.116822 263.524019 
L 172.348348 262.524271 
L 172.579873 260.524775 
L 173.042925 265.063314 
L 173.27445 263.397067 
L 173.505976 269.220997 
L 173.737502 269.760543 
L 173.969027 271.093541 
L 174.432079 259.366337 
L 174.663604 261.127798 
L 174.89513 260.588251 
L 175.589707 261.461047 
L 175.821233 260.350216 
L 176.052758 260.28674 
L 176.284284 263.365329 
L 176.51581 264.920493 
L 176.747335 268.36407 
L 176.978861 268.617974 
L 177.441912 261.429309 
L 177.904964 266.332835 
L 178.136489 265.77742 
L 178.368015 267.06281 
L 178.599541 267.443667 
L 178.831066 264.857017 
L 179.062592 265.77742 
L 179.294118 268.078427 
L 179.525643 263.365329 
L 179.757169 264.999838 
L 179.988695 264.079435 
L 180.451746 271.886991 
L 180.683272 269.49077 
L 180.914797 273.267596 
L 181.377849 266.316966 
L 181.609374 267.523012 
L 181.8409 264.127042 
L 182.072426 263.317722 
L 182.303951 264.983969 
L 182.535477 263.730316 
L 182.767003 264.111173 
L 182.998528 263.936614 
L 183.230054 266.237621 
L 183.46158 264.920493 
L 183.693105 265.713944 
L 183.924631 267.602357 
L 184.156157 265.634599 
L 184.387682 267.776916 
L 184.619208 265.269611 
L 184.850734 265.539384 
L 185.082259 266.237621 
L 185.313785 267.71344 
L 185.54531 268.237117 
L 186.008362 271.664825 
L 186.239887 269.855757 
L 186.471413 271.093541 
L 186.702939 269.744674 
L 186.934464 274.410165 
L 187.16599 274.01344 
L 187.397516 270.474649 
L 187.629041 273.172382 
L 187.860567 269.982709 
L 188.092093 271.934599 
L 188.323618 269.950971 
L 188.555144 271.728301 
L 188.78667 270.696815 
L 189.018195 270.649208 
L 189.481247 273.823012 
L 189.712772 274.66407 
L 189.944298 273.299334 
M 190.638875 273.997571 
L 190.870401 273.823012 
L 191.101926 273.505631 
L 191.333452 274.616463 
L 191.564978 274.267344 
L 191.796503 273.68019 
L 192.028029 273.918226 
L 192.259555 273.981702 
L 192.49108 275.108402 
L 192.722606 275.171878 
L 192.954132 276.139888 
L 193.185657 278.361551 
L 193.417183 276.155757 
L 193.648709 277.663314 
L 194.11176 275.616211 
L 194.343286 276.155757 
L 194.574811 277.742659 
L 194.806337 275.473389 
L 195.037863 275.647949 
L 195.269388 277.552231 
L 195.73244 269.712936 
L 195.963965 272.23611 
L 196.195491 273.473893 
L 196.427017 271.045934 
M 196.890068 269.681198 
L 197.121594 271.871122 
L 197.353119 272.71218 
M 198.742273 271.10941 
L 199.205325 273.711929 
M 199.899902 274.711677 
L 200.131427 274.156261 
L 200.362953 274.66407 
L 200.594479 274.410165 
L 200.826004 277.298327 
L 201.05753 278.266337 
L 201.289056 280.234095 
L 201.520581 280.059536 
L 201.752107 278.107646 
L 201.983633 277.314196 
L 202.446684 280.424523 
L 202.909735 279.519989 
L 203.141261 275.235354 
L 203.372787 277.948956 
L 203.604312 277.044422 
L 203.835838 277.361803 
L 204.067364 279.329561 
L 204.298889 280.345178 
L 204.530415 279.8215 
M 205.456517 283.614196 
L 205.688043 284.407646 
L 205.919569 281.947949 
M 206.38262 282.24946 
L 206.845671 277.266588 
L 207.077197 277.695052 
L 207.540248 273.251727 
L 207.771774 273.315203 
L 208.0033 272.315455 
L 208.234825 273.759536 
L 208.466351 273.886488 
L 208.929402 277.488755 
L 209.160928 278.329813 
L 209.392454 274.362558 
L 209.623979 274.838629 
L 209.855505 274.949712 
M 211.244659 273.838881 
L 211.476185 274.045178 
L 211.70771 275.029057 
L 211.939236 276.933339 
L 212.170762 276.377923 
L 212.402287 275.394044 
L 212.633813 275.79077 
L 213.096864 278.726538 
L 213.32839 282.027294 
L 214.022967 298.927798 
L 214.486018 285.455002 
L 214.717544 286.232583 
L 214.94907 288.930316 
L 215.180595 294.69077 
L 215.412121 291.818478 
L 215.643647 291.929561 
L 215.875172 295.912684 
L 216.106698 290.739384 
L 216.338224 294.405128 
L 216.569749 294.294044 
L 216.801275 293.167344 
L 217.032801 293.913188 
L 217.264326 291.755002 
L 217.495852 291.247193 
L 217.727378 293.008654 
L 217.958903 296.769611 
L 218.190429 293.786236 
L 218.421955 296.452231 
L 218.65348 296.674397 
L 218.885006 297.198075 
L 219.116532 295.912684 
L 219.348057 297.531324 
L 219.579583 297.229813 
L 219.811109 294.706639 
L 220.042634 295.531828 
M 220.505686 291.564573 
L 220.737211 293.452986 
L 221.200263 289.390518 
L 221.431788 290.533087 
L 221.663314 289.945934 
L 222.126365 293.468855 
L 222.357891 289.311173 
L 222.589417 289.295304 
L 222.820942 289.596815 
L 223.052468 288.739888 
L 223.283994 290.231576 
L 223.515519 283.772886 
L 223.747045 282.995304 
L 223.978571 284.233087 
L 224.210096 286.407143 
L 224.441622 282.392281 
L 224.673148 282.820745 
L 224.904673 285.788251 
L 225.136199 282.011425 
L 225.59925 283.550719 
L 225.830776 284.915455 
L 226.062301 285.296311 
L 226.293827 288.993793 
L 226.525353 287.835354 
L 226.756878 287.470367 
L 226.988404 290.929813 
L 227.21993 292.231072 
L 227.451455 290.104624 
L 227.682981 290.437873 
L 227.914507 285.470871 
L 228.146032 284.820241 
L 228.377558 284.820241 
L 228.840609 286.549964 
L 229.303661 287.994044 
L 229.535186 288.850971 
L 229.766712 285.137621 
L 229.998238 286.978427 
L 230.229763 291.120241 
L 230.461289 285.058276 
L 230.692815 286.45475 
L 231.155866 292.627798 
L 231.387392 292.627798 
L 231.618917 294.84946 
L 231.850443 292.135858 
L 232.081969 287.597319 
L 232.313494 286.010417 
L 232.54502 289.0414 
L 232.776546 296.087243 
L 233.008071 293.452986 
M 234.628751 292.10412 
L 234.860277 294.151223 
L 235.091802 293.357772 
L 235.323328 293.23082 
L 235.786379 297.991526 
L 236.017905 297.943918 
L 236.249431 297.245682 
L 236.480956 301.292281 
L 236.712482 298.40412 
L 236.944008 301.46684 
L 237.175533 298.89606 
L 237.407059 303.545682 
L 237.638585 302.292029 
L 237.87011 300.038629 
L 238.101636 304.656513 
L 238.333162 301.863566 
L 238.564687 302.974397 
L 238.796213 301.673138 
L 239.027739 295.706387 
L 239.259264 297.467848 
L 239.49079 302.165077 
L 239.722316 301.30815 
L 239.953841 299.403868 
L 240.185367 300.800342 
M 244.352829 284.486991 
L 244.81588 281.503616 
L 245.047406 282.963566 
L 245.278932 280.852986 
L 245.510457 281.662306 
L 245.741983 278.440896 
L 245.973508 279.916714 
L 246.205034 278.837621 
L 246.43656 279.742155 
L 246.668085 275.663818 
L 246.899611 276.044674 
L 247.131137 276.092281 
L 247.362662 276.012936 
L 247.825714 279.297823 
L 248.288765 276.457269 
L 248.520291 275.568604 
L 248.751816 276.489007 
L 248.983342 273.458024 
L 249.214868 274.362558 
M 250.372496 277.901349 
L 250.835547 273.061299 
L 251.298599 273.997571 
L 251.530124 272.521752 
L 251.76165 270.030316 
L 251.993176 269.80815 
L 252.224701 271.760039 
L 252.456227 269.776412 
L 252.687753 269.665329 
L 252.919278 268.332332 
M 253.38233 269.839888 
L 253.613855 270.77616 
L 253.845381 268.538629 
L 254.076907 271.807646 
L 254.539958 273.315203 
L 254.771484 272.140896 
L 255.003009 274.854498 
L 255.234535 271.886991 
L 255.466061 274.917974 
L 255.697586 274.219737 
L 255.929112 277.250719 
L 256.160638 276.536614 
L 256.392163 278.932835 
L 256.623689 277.139636 
L 256.855215 278.21873 
L 257.08674 276.568352 
L 257.318266 277.123767 
L 257.549792 273.584976 
L 257.781317 272.997823 
L 258.012843 274.632332 
L 258.244369 274.156261 
L 258.475894 278.615455 
L 258.70742 276.314447 
L 258.938946 276.124019 
L 259.170471 277.663314 
L 259.401997 276.584221 
L 259.633523 277.23485 
L 259.865048 275.45752 
L 260.096574 275.933591 
L 260.3281 276.679435 
L 260.559625 277.980694 
L 260.791151 277.40941 
L 261.022677 278.758276 
L 261.254202 276.314447 
L 261.485728 278.313944 
L 261.717254 276.822256 
L 261.948779 273.870619 
L 262.180305 273.219989 
L 262.411831 269.982709 
M 263.337933 276.10815 
L 263.569459 271.871122 
L 263.800985 273.188251 
L 264.03251 275.933591 
L 264.264036 275.489259 
L 264.495562 276.4414 
L 264.727087 273.68019 
L 264.958613 273.235858 
L 265.190139 272.061551 
M 266.116241 269.046437 
L 266.347767 268.491022 
L 266.579292 269.681198 
L 266.810818 272.569359 
L 267.042344 272.172634 
M 269.589126 270.649208 
L 269.820652 268.014951 
M 270.283703 267.189762 
L 270.515229 267.2215 
L 270.746754 267.126286 
M 271.209806 265.063314 
L 271.441331 265.491777 
L 271.672857 265.586991 
L 271.904383 266.063062 
L 272.135908 265.555253 
L 272.367434 266.126538 
L 272.59896 265.761551 
L 272.830485 266.919989 
L 273.293537 263.238377 
L 273.525062 262.825782 
L 273.756588 263.047949 
L 273.988114 262.460795 
L 274.219639 262.920997 
L 274.451165 264.269863 
L 274.682691 263.952483 
L 274.914216 268.967092 
L 275.145742 265.237873 
L 275.377268 269.585984 
L 275.608793 270.30009 
L 275.840319 268.903616 
L 276.071845 271.522004 
L 276.30337 271.157017 
L 276.534896 271.664825 
L 276.766422 269.220997 
L 276.997947 269.109913 
L 277.460999 272.839133 
L 277.692524 270.998327 
L 277.92405 271.093541 
L 278.155576 273.775405 
L 278.387101 272.378931 
L 278.850153 274.441903 
L 279.081678 272.88674 
L 279.313204 273.331072 
L 279.776255 271.220493 
L 280.007781 273.20412 
L 280.239307 271.680694 
L 280.470832 274.362558 
L 280.702358 272.839133 
L 280.933884 273.442155 
L 281.396935 271.760039 
M 285.101346 253.98674 
L 285.564397 251.019233 
L 285.795922 251.765077 
M 288.805756 247.401097 
L 289.037282 245.607898 
L 289.268807 240.291777 
L 289.500333 241.21218 
L 289.731859 240.022004 
L 289.963384 238.022508 
L 290.19491 237.229057 
L 290.426436 239.704624 
L 290.657961 238.6414 
L 290.889487 240.180694 
M 292.510167 241.783465 
L 292.741692 242.894296 
L 292.973218 243.005379 
L 293.204744 241.656513 
L 293.436269 241.259787 
L 293.667795 242.497571 
L 293.899321 242.323012 
L 294.130846 244.528805 
L 294.362372 245.401601 
L 294.593898 244.195556 
L 294.825423 245.496815 
L 295.056949 244.719233 
L 295.288475 248.305631 
L 295.52 246.956765 
L 295.751526 248.670619 
L 295.983052 247.401097 
M 296.677629 240.990014 
L 296.909154 239.92679 
L 297.14068 240.751979 
L 297.372206 240.117218 
M 301.308142 231.627294 
L 301.539668 231.516211 
L 301.771193 230.865581 
L 302.002719 229.611929 
M 305.475604 232.706387 
L 305.70713 232.97616 
M 306.864758 237.276664 
L 307.096283 236.05475 
L 307.327809 237.133843 
L 307.559335 236.832332 
L 307.79086 236.848201 
L 308.022386 238.482709 
L 308.253912 237.467092 
L 308.485437 237.943163 
L 308.716963 237.65752 
L 309.180014 239.625279 
L 309.41154 243.132332 
L 309.643066 240.831324 
L 310.106117 243.354498 
L 310.337643 239.831576 
L 310.569168 242.323012 
L 310.800694 238.562054 
M 311.726797 239.466588 
L 311.958322 239.101601 
L 312.421374 237.054498 
L 312.652899 237.673389 
L 312.884425 237.34014 
L 313.347476 242.243667 
L 313.579002 241.831072 
L 313.810528 242.545178 
L 314.042053 242.465833 
L 314.273579 241.70412 
L 314.505105 242.005631 
M 317.051887 237.165581 
L 317.283413 237.752735 
L 317.514938 237.387747 
L 317.746464 238.006639 
L 318.209515 236.721248 
L 318.441041 231.865329 
L 318.672567 231.071878 
L 318.904092 229.532583 
L 319.135618 229.564321 
L 319.367144 230.992533 
L 319.598669 231.103616 
L 319.830195 229.405631 
L 320.756298 236.276916 
L 320.987823 235.848452 
L 321.219349 236.070619 
L 321.450875 232.039888 
L 321.6824 232.97616 
L 321.913926 232.865077 
L 322.145452 229.008906 
L 322.376977 228.929561 
L 322.608503 231.547949 
L 322.840029 230.056261 
M 325.155285 229.738881 
L 325.386811 229.691274 
L 325.618337 227.199838 
L 326.081388 227.025279 
L 326.775965 221.883717 
L 327.239016 217.599082 
L 327.470542 216.123264 
L 327.933593 221.661551 
L 328.165119 219.074901 
L 328.62817 223.391274 
L 328.859696 220.296815 
L 329.091221 220.011173 
L 329.322747 218.313188 
L 329.554273 220.503112 
L 329.785798 219.868352 
L 330.017324 218.630568 
L 330.24885 215.282206 
L 330.480375 216.028049 
L 330.711901 218.487747 
L 330.943427 216.631072 
L 331.174952 218.059284 
L 331.406478 218.186236 
L 331.638004 215.440896 
L 331.869529 214.155505 
L 332.101055 214.837873 
L 332.332581 220.788755 
L 332.564106 221.090266 
M 336.731568 207.411173 
L 336.963094 206.998578 
M 337.426145 204.697571 
L 337.657671 204.205631 
L 337.889197 204.094548 
L 338.120722 203.301097 
L 338.352248 204.158024 
L 338.583774 205.99883 
L 339.046825 203.364573 
L 339.278351 204.269107 
L 339.509876 203.539133 
L 339.741402 204.55475 
M 342.51971 205.395808 
L 342.751236 205.99883 
L 342.982761 208.696563 
M 346.455646 195.350719 
L 346.687172 192.891022 
L 346.918697 189.082457 
L 347.150223 190.4948 
L 347.381749 190.590014 
L 347.613274 190.066337 
L 347.8448 189.907646 
L 348.076326 189.495052 
L 348.307851 185.734095 
L 348.539377 188.384221 
L 348.770903 189.558528 
L 349.233954 185.305631 
M 353.16989 168.135354 
L 353.401416 167.929057 
L 353.632942 161.787747 
L 353.864467 163.327042 
M 354.559044 159.566085 
L 354.79057 159.48674 
L 355.022096 160.29606 
L 355.253621 156.979435 
L 355.716673 161.391022 
L 355.948198 161.438629 
L 356.179724 156.884221 
L 356.41125 169.785732 
L 356.642775 189.336362 
L 356.874301 182.290518 
L 357.105827 183.671122 
L 357.337352 197.873893 
L 357.800404 186.019737 
L 358.031929 187.447949 
L 358.494981 178.069359 
L 358.726506 178.243918 
L 358.958032 179.418226 
L 359.189558 182.639636 
L 359.421083 183.099838 
L 359.652609 179.878427 
L 359.884135 167.405379 
L 360.11566 168.928805 
L 360.347186 172.832583 
L 360.578712 181.830316 
L 360.810237 182.131828 
L 361.273289 177.037873 
L 361.504814 177.434599 
L 361.73634 175.863566 
L 361.967866 163.723767 
M 362.430917 169.769863 
L 362.662443 173.165833 
L 362.893968 171.848704 
L 363.125494 173.21344 
L 363.35702 177.926538 
L 363.588545 176.720493 
L 363.820071 176.593541 
L 364.283122 196.223515 
L 364.514648 185.305631 
L 364.746174 190.367848 
L 364.977699 189.542659 
L 365.209225 185.083465 
L 365.440751 192.192785 
L 365.903802 184.083717 
L 366.135328 182.90941 
L 366.366853 191.415203 
L 366.598379 191.669107 
L 366.829904 187.74946 
L 367.06143 191.843667 
L 367.292956 187.225782 
L 367.524481 189.018981 
L 367.987533 185.416714 
L 368.219058 185.035858 
L 368.450584 183.655253 
L 368.68211 184.051979 
L 368.913635 185.178679 
L 369.145161 189.336362 
L 369.376687 189.336362 
L 369.839738 188.653994 
L 370.071264 194.20815 
L 370.302789 192.018226 
L 370.765841 197.572382 
L 370.997366 191.177168 
L 371.228892 188.923767 
L 371.460418 190.225027 
L 371.691943 184.464573 
M 372.154995 185.369107 
L 372.38652 185.559536 
L 372.618046 188.447697 
L 372.849572 187.701853 
L 373.081097 188.2414 
L 373.312623 190.510669 
L 373.544149 187.574901 
L 373.775674 187.225782 
L 374.0072 190.685228 
L 374.470251 193.541651 
L 374.701777 200.333591 
L 374.933303 193.620997 
L 375.164828 197.699334 
L 375.396354 196.588503 
L 375.859405 198.905379 
M 377.480085 196.160039 
L 378.637713 201.936362 
L 378.869239 201.857017 
L 379.100765 205.316463 
L 379.33229 205.776664 
M 381.647547 200.270115 
L 381.879073 200.19077 
L 382.342124 196.95349 
M 385.583483 183.87742 
L 385.815009 174.641651 
L 386.046535 170.420493 
L 386.509586 169.81747 
L 386.972637 176.053994 
L 387.204163 175.006639 
M 390.908573 163.818981 
L 391.371625 160.28019 
L 391.60315 160.29606 
L 391.834676 161.105379 
L 392.066202 160.629309 
L 392.297727 158.280694 
L 392.529253 158.407646 
L 393.22383 149.854246 
M 393.686881 155.487747 
L 393.918407 155.614699 
L 394.149933 158.693289 
L 394.381458 157.757017 
L 394.612984 161.867092 
L 395.307561 158.233087 
M 396.465189 163.469863 
L 396.696715 176.022256 
L 396.928241 173.467344 
L 397.159766 176.27616 
L 397.391292 168.659032 
L 397.622818 167.56407 
L 397.854343 170.452231 
L 398.085869 168.659032 
L 398.54892 177.910669 
M 399.938074 175.879435 
L 400.401126 173.832332 
L 400.632651 158.486991 
L 401.327228 148.679939 
L 401.558754 153.107395 
L 401.79028 159.788251 
L 402.021805 155.820997 
L 402.253331 158.820241 
L 402.716382 155.043415 
L 402.947908 155.789259 
L 403.179434 167.262558 
L 403.410959 167.024523 
L 403.642485 173.038881 
L 403.874011 167.38951 
M 405.263165 168.19883 
L 406.189267 180.64014 
L 406.420793 180.32276 
L 406.652318 180.417974 
L 407.11537 187.559032 
L 408.041472 196.7948 
L 408.272998 203.681954 
L 408.504524 188.114447 
L 409.199101 177.625027 
L 409.430626 179.814951 
M 410.125203 189.161803 
L 410.356729 190.113944 
M 411.745883 186.78145 
L 411.977409 186.194296 
L 412.208934 177.148956 
L 412.44046 183.115707 
L 412.671986 182.433339 
L 412.903511 182.639636 
L 413.135037 179.894296 
L 413.366563 182.750719 
L 413.598088 181.005128 
L 413.829614 174.800342 
L 414.06114 175.46684 
L 414.292665 169.674649 
L 414.755717 171.848704 
L 414.987242 174.720997 
L 415.218768 181.512936 
L 415.450294 182.798327 
L 415.913345 174.49883 
L 416.144871 175.054246 
L 416.376396 179.846689 
M 416.839448 175.228805 
L 417.070973 174.482961 
L 417.302499 175.80009 
L 417.534025 181.227294 
L 417.76555 180.592533 
L 417.997076 181.243163 
L 418.228602 180.624271 
L 418.460127 182.195304 
L 418.691653 179.291274 
L 418.923179 181.385984 
L 419.154704 181.925531 
L 419.38623 183.195052 
L 419.617756 185.369107 
L 419.849281 186.321248 
L 420.080807 180.941651 
L 420.312333 180.291022 
L 420.543858 177.815455 
L 420.775384 178.894548 
L 421.00691 177.41873 
L 421.238435 173.657772 
L 421.701487 179.069107 
L 421.933012 177.228301 
L 422.164538 183.38548 
M 425.868949 168.801853 
L 426.100474 165.532835 
L 426.332 167.802105 
L 426.795051 169.198578 
L 427.026577 165.834347 
L 427.258102 167.484724 
L 427.489628 165.2948 
L 427.721154 161.692533 
M 430.267936 176.307898 
L 430.730987 179.529309 
L 430.962513 176.910921 
L 431.194039 179.069107 
L 431.425564 179.926034 
L 431.65709 178.926286 
L 431.888616 180.132332 
L 432.120141 182.195304 
L 432.351667 181.576412 
L 432.814718 186.606891 
L 433.046244 184.670871 
M 433.509295 186.543415 
L 433.972347 179.0215 
L 434.666924 172.89606 
M 437.445232 170.753742 
L 437.676757 165.183717 
M 439.065911 160.248452 
L 439.297437 160.851475 
L 439.760488 163.35878 
M 440.686591 172.435858 
L 440.918117 171.5948 
L 441.381168 176.577672 
L 441.844219 171.610669 
L 442.075745 171.721752 
L 442.307271 168.547949 
L 443.001848 175.6414 
L 443.233373 181.544674 
L 443.464899 180.021248 
L 443.696425 187.860543 
L 443.92795 183.38548 
L 444.159476 187.09883 
L 444.391002 183.433087 
L 444.854053 188.701601 
L 445.085579 186.194296 
L 445.317104 190.907395 
L 445.780156 184.702609 
L 446.011681 182.766588 
L 446.243207 187.194044 
M 447.863886 179.18019 
L 448.095412 178.846941 
L 448.326938 182.830065 
L 448.558463 180.782961 
L 448.789989 177.529813 
L 449.021515 176.752231 
L 449.716092 166.945178 
M 450.410669 167.865581 
L 450.642194 168.151223 
L 450.87372 166.961047 
L 451.336771 171.372634 
L 451.568297 171.626538 
L 451.799823 174.102105 
L 452.031348 171.388503 
L 452.262874 173.308654 
L 452.725925 171.531324 
L 452.957451 173.610165 
L 453.188977 179.338881 
L 453.420502 176.355505 
L 453.652028 171.43611 
L 453.883554 172.769107 
M 457.81949 163.231828 
L 458.051016 164.295052 
L 458.745593 151.123767 
L 459.208644 148.17213 
L 459.44017 150.4414 
L 459.671695 151.171374 
L 459.903221 151.107898 
L 460.134747 152.885228 
L 460.366272 153.535858 
L 460.597798 152.932835 
L 461.060849 154.059536 
L 461.292375 156.519233 
M 462.450003 151.72679 
L 462.681529 152.04417 
L 462.913055 151.996563 
M 463.839157 148.378427 
L 464.070683 150.330316 
L 464.302209 150.520745 
M 464.76526 143.125782 
L 464.996786 143.998578 
L 465.228311 141.649964 
L 465.459837 141.332583 
L 465.691363 144.569863 
L 465.922888 144.252483 
L 466.154414 142.506891 
L 466.38594 143.824019 
L 466.617465 143.839888 
L 466.848991 142.284724 
L 467.312042 143.379687 
L 467.543568 142.205379 
L 467.775093 139.206135 
L 468.006619 142.713188 
L 468.238145 141.427798 
L 468.46967 143.125782 
L 468.701196 143.014699 
L 468.932722 138.793541 
L 469.164247 142.014951 
L 469.395773 139.110921 
L 469.627299 141.142155 
L 470.321876 136.333843 
L 470.553401 138.825279 
L 470.784927 137.381198 
L 471.016453 137.635102 
L 471.247978 141.634095 
L 471.479504 148.632332 
L 471.71103 146.125027 
L 471.942555 145.379183 
L 472.174081 140.015455 
L 472.405607 145.490266 
L 472.637132 147.013692 
L 472.868658 144.45878 
M 473.794761 141.237369 
L 474.257812 140.713692 
L 474.489338 142.252986 
L 474.720863 141.729309 
M 475.183915 137.857269 
L 475.41544 139.555253 
M 475.878492 149.838377 
L 476.341543 158.772634 
L 476.573069 172.08674 
L 476.804594 174.197319 
L 477.03612 156.281198 
L 477.267646 170.277672 
L 477.499171 155.916211 
L 477.730697 170.039636 
L 477.962223 174.768604 
L 478.193748 195.160291 
L 478.425274 179.926034 
L 478.6568 192.76407 
L 478.888325 222.391526 
L 479.119851 189.971122 
L 479.351377 219.535102 
L 479.582902 203.935858 
L 479.814428 227.993289 
L 480.045954 224.438629 
L 480.277479 231.770115 
M 480.740531 218.852735 
L 480.972056 215.250468 
L 481.203582 209.807395 
L 481.435108 216.535858 
L 481.666633 210.949964 
L 481.898159 211.505379 
L 482.129685 222.423264 
L 482.36121 216.424775 
L 482.592736 218.630568 
L 482.824262 207.680946 
L 483.055787 207.665077 
L 483.287313 198.524523 
L 483.518839 194.033591 
L 483.750364 202.079183 
M 484.907993 202.110921 
L 485.139518 210.473893 
M 486.760198 204.316714 
L 487.223249 219.24946 
L 487.454775 222.296311 
L 487.6863 228.088503 
L 487.917826 226.342911 
L 488.149352 221.02679 
L 488.612403 227.406135 
M 490.001557 222.31218 
L 490.233083 224.026034 
L 490.464608 224.041903 
L 490.92766 206.839888 
L 491.159185 207.903112 
L 491.390711 207.1414 
L 491.622237 209.902609 
L 491.853762 206.570115 
L 492.085288 198.826034 
L 492.316814 196.874145 
M 493.242916 197.731072 
L 493.474442 219.138377 
L 493.705968 214.07616 
L 493.937493 213.536614 
L 494.169019 212.346437 
L 494.400545 214.631576 
L 494.63207 214.837873 
L 494.863596 216.440644 
L 495.095122 215.726538 
L 495.326647 214.393541 
M 501.57784 190.955002 
L 501.809366 185.432583 
M 502.272417 178.513692 
L 502.503943 176.292029 
L 502.966994 164.295052 
L 503.19852 164.1681 
L 503.430046 163.247697 
L 503.893097 166.865833 
M 505.282251 164.247445 
L 505.513777 163.073138 
L 505.745302 160.994296 
L 506.208354 154.821248 
L 506.439879 155.630568 
L 506.671405 154.821248 
M 507.365982 155.186236 
L 507.597507 156.011425 
L 507.829033 153.107395 
L 508.060559 156.011425 
L 508.292084 155.805128 
L 508.52361 152.615455 
L 508.755136 154.202357 
L 508.986661 153.170871 
L 509.218187 155.614699 
L 509.449713 155.360795 
L 509.681238 163.596815 
L 509.912764 161.787747 
L 510.14429 169.00815 
L 510.375815 170.420493 
L 510.607341 167.675153 
L 510.838867 162.771626 
L 511.070392 167.691022 
L 511.301918 163.723767 
L 511.764969 166.516714 
L 511.996495 164.64417 
L 512.228021 167.976664 
L 512.459546 163.168352 
M 513.385649 164.723515 
L 513.617175 166.945178 
L 513.8487 165.770871 
L 514.080226 165.358276 
L 514.311752 169.992029 
L 514.543277 168.294044 
M 515.006329 165.834347 
L 515.237854 164.088755 
M 517.784637 150.139888 
L 518.016162 139.063314 
L 518.247688 140.824775 
L 518.479214 145.030065 
L 518.710739 140.74543 
L 518.942265 131.731828 
L 519.173791 131.636614 
L 519.405316 136.54014 
L 519.636842 137.397067 
L 519.868368 141.39606 
L 520.099893 137.381198 
M 520.79447 134.191526 
L 521.025996 138.380946 
L 521.257522 137.159032 
M 521.720573 135.032583 
L 521.952099 134.508906 
L 522.183624 137.857269 
L 522.646676 140.602609 
L 522.878201 140.856513 
L 523.109727 142.379939 
L 523.341253 147.997571 
L 523.572778 145.569611 
M 525.193458 142.157772 
L 525.656509 137.333591 
L 525.888035 137.206639 
L 526.119561 133.683717 
L 526.351086 139.110921 
L 526.582612 140.666085 
L 527.045663 132.080946 
L 527.277189 130.256009 
L 527.74024 131.842911 
L 527.971766 129.494296 
L 528.203291 128.684976 
L 528.434817 131.112936 
L 528.666343 129.43082 
L 528.897868 129.097571 
L 529.129394 130.049712 
L 529.36092 132.01747 
L 529.592445 131.874649 
M 531.444651 127.4948 
L 531.676176 128.46281 
L 532.139228 120.925027 
L 532.370753 120.909158 
L 532.602279 121.163062 
L 533.06533 112.403364 
L 533.296856 112.450971 
L 533.759907 117.846437 
L 533.991433 112.895304 
L 534.222959 112.006639 
L 534.454484 107.372886 
L 534.917536 119.972886 
L 535.149061 106.16684 
L 535.380587 106.150971 
L 535.612113 102.45349 
L 535.843638 112.085984 
L 536.30669 92.836866 
L 536.538215 90.599334 
L 536.769741 82.712432 
L 537.001267 87.60009 
L 537.232792 89.012432 
L 537.464318 97.597571 
M 540.705677 84.823012 
L 541.168729 83.299586 
L 541.400254 83.474145 
L 541.863306 76.460039 
L 542.094831 77.777168 
L 542.326357 77.0948 
L 542.557883 74.539888 
M 543.483985 69.6681 
L 543.715511 73.952735 
L 543.947037 70.033087 
M 544.410088 67.382961 
L 544.641614 68.493793 
L 544.873139 61.114699 
L 545.104665 65.319989 
L 545.336191 58.607395 
L 545.567716 56.893541 
L 545.799242 52.926286 
L 546.030768 41.897319 
L 546.493819 37.739636 
L 546.725345 48.371878 
L 546.95687 52.688251 
L 547.419922 40.358024 
L 548.114498 47.435606 
L 548.346024 46.626286 
L 548.57755 45.023515 
L 548.809075 41.865581 
L 549.040601 45.880442 
L 549.272127 45.674145 
M 551.587383 49.514447 
L 551.818909 46.483465 
L 552.050435 51.704372 
L 552.28196 51.053742 
L 552.513486 52.370871 
L 552.976537 66.76407 
L 553.208063 61.90815 
L 553.439589 62.193793 
L 553.671114 65.78019 
L 553.90264 64.463062 
L 554.134166 59.876916 
L 554.365691 62.685732 
L 554.597217 63.320493 
L 555.060268 57.036362 
L 555.291794 58.702609 
L 555.52332 61.559032 
L 555.754845 58.51218 
L 555.986371 66.668855 
L 556.217897 56.528553 
L 556.449422 57.131576 
L 556.912474 59.987999 
L 557.143999 57.750468 
L 557.375525 60.638629 
M 557.838576 62.2414 
L 558.070102 57.496563 
M 558.764679 59.210417 
L 558.996205 56.068352 
L 559.22773 60.321248 
L 559.459256 57.686991 
L 559.690782 60.019737 
L 559.922307 60.257772 
L 560.153833 54.449712 
L 560.385359 59.242155 
L 560.616884 56.972886 
L 560.84841 48.371878 
L 561.311461 43.119233 
L 561.542987 39.405883 
L 561.774513 41.056261 
L 562.006038 44.78548 
M 565.247398 49.292281 
L 565.710449 59.051727 
L 565.941975 58.35349 
L 566.405026 61.114699 
L 566.636552 57.433087 
L 566.868077 61.74946 
L 567.099603 60.194296 
L 567.562654 62.447697 
L 567.79418 66.510165 
L 568.025705 68.128805 
L 568.257231 66.716463 
L 568.488757 60.28951 
L 568.720282 60.686236 
L 568.951808 57.750468 
L 569.183334 62.40009 
L 569.414859 61.606639 
M 570.572488 56.957017 
L 570.804013 52.624775 
L 571.035539 50.736362 
L 571.49859 59.49606 
L 571.730116 60.638629 
L 572.193167 50.625279 
L 572.424693 53.19606 
L 572.887744 45.420241 
L 573.11927 46.483465 
L 573.350796 42.643163 
L 573.813847 40.088251 
L 574.045373 44.960039 
M 574.508424 46.181954 
L 574.73995 47.403868 
L 574.971475 44.722004 
L 575.203001 43.468352 
L 575.434527 45.102861 
L 575.666052 44.801349 
L 575.897578 43.3414 
L 576.129104 47.229309 
L 576.592155 49.927042 
L 576.823681 47.800594 
L 577.981309 57.322004 
L 578.44436 43.722256 
L 578.675886 45.75349 
M 579.138937 53.941903 
L 579.370463 62.55878 
L 579.601989 65.240644 
L 579.601989 65.240644 
" clip-path="url(#p1581e90ee7)" style="fill: none; stroke: #1e90ff; stroke-linecap: square"/>
   </g>
   <g id="patch_3">
    <path d="M 46.965625 354.958125 
L 46.965625 22.318125 
" style="fill: none; stroke: #000000; stroke-width: 0.8; stroke-linejoin: miter; stroke-linecap: square"/>
   </g>
   <g id="patch_4">
    <path d="M 604.965625 354.958125 
L 604.965625 22.318125 
" style="fill: none; stroke: #000000; stroke-width: 0.8; stroke-linejoin: miter; stroke-linecap: square"/>
   </g>
   <g id="patch_5">
    <path d="M 46.965625 354.958125 
L 604.965625 354.958125 
" style="fill: none; stroke: #000000; stroke-width: 0.8; stroke-linejoin: miter; stroke-linecap: square"/>
   </g>
   <g id="patch_6">
    <path d="M 46.965625 22.318125 
L 604.965625 22.318125 
" style="fill: none; stroke: #000000; stroke-width: 0.8; stroke-linejoin: miter; stroke-linecap: square"/>
   </g>
   <g id="text_17">
    <!-- BRK_B, Relative Strength Index (RSI), BRK_B -->
    <g transform="translate(192.84625 16.318125)scale(0.12 -0.12)">
     <defs>
      <path id="DejaVuSans-42" d="M 1259 2228 
L 1259 519 
L 2272 519 
Q 2781 519 3026 730 
Q 3272 941 3272 1375 
Q 3272 1813 3026 2020 
Q 2781 2228 2272 2228 
L 1259 2228 
z
M 1259 4147 
L 1259 2741 
L 2194 2741 
Q 2656 2741 2882 2914 
Q 3109 3088 3109 3444 
Q 3109 3797 2882 3972 
Q 2656 4147 2194 4147 
L 1259 4147 
z
M 628 4666 
L 2241 4666 
Q 2963 4666 3353 4366 
Q 3744 4066 3744 3513 
Q 3744 3084 3544 2831 
Q 3344 2578 2956 2516 
Q 3422 2416 3680 2098 
Q 3938 1781 3938 1306 
Q 3938 681 3513 340 
Q 3088 0 2303 0 
L 628 0 
L 628 4666 
z
" transform="scale(0.015625)"/>
      <path id="DejaVuSans-52" d="M 2841 2188 
Q 3044 2119 3236 1894 
Q 3428 1669 3622 1275 
L 4263 0 
L 3584 0 
L 2988 1197 
Q 2756 1666 2539 1819 
Q 2322 1972 1947 1972 
L 1259 1972 
L 1259 0 
L 628 0 
L 628 4666 
L 2053 4666 
Q 2853 4666 3247 4331 
Q 3641 3997 3641 3322 
Q 3641 2881 3436 2590 
Q 3231 2300 2841 2188 
z
M 1259 4147 
L 1259 2491 
L 2053 2491 
Q 2509 2491 2742 2702 
Q 2975 2913 2975 3322 
Q 2975 3731 2742 3939 
Q 2509 4147 2053 4147 
L 1259 4147 
z
" transform="scale(0.015625)"/>
      <path id="DejaVuSans-4b" d="M 628 4666 
L 1259 4666 
L 1259 2694 
L 3353 4666 
L 4166 4666 
L 1850 2491 
L 4331 0 
L 3500 0 
L 1259 2247 
L 1259 0 
L 628 0 
L 628 4666 
z
" transform="scale(0.015625)"/>
      <path id="DejaVuSans-5f" d="M 3263 -1063 
L 3263 -1509 
L -63 -1509 
L -63 -1063 
L 3263 -1063 
z
" transform="scale(0.015625)"/>
      <path id="DejaVuSans-2c" d="M 750 794 
L 1409 794 
L 1409 256 
L 897 -744 
L 494 -744 
L 750 256 
L 750 794 
z
" transform="scale(0.015625)"/>
      <path id="DejaVuSans-6c" d="M 603 4863 
L 1178 4863 
L 1178 0 
L 603 0 
L 603 4863 
z
" transform="scale(0.015625)"/>
      <path id="DejaVuSans-76" d="M 191 3500 
L 800 3500 
L 1894 563 
L 2988 3500 
L 3597 3500 
L 2284 0 
L 1503 0 
L 191 3500 
z
" transform="scale(0.015625)"/>
      <path id="DejaVuSans-6e" d="M 3513 2113 
L 3513 0 
L 2938 0 
L 2938 2094 
Q 2938 2591 2744 2837 
Q 2550 3084 2163 3084 
Q 1697 3084 1428 2787 
Q 1159 2491 1159 1978 
L 1159 0 
L 581 0 
L 581 3500 
L 1159 3500 
L 1159 2956 
Q 1366 3272 1645 3428 
Q 1925 3584 2291 3584 
Q 2894 3584 3203 3211 
Q 3513 2838 3513 2113 
z
" transform="scale(0.015625)"/>
      <path id="DejaVuSans-67" d="M 2906 1791 
Q 2906 2416 2648 2759 
Q 2391 3103 1925 3103 
Q 1463 3103 1205 2759 
Q 947 2416 947 1791 
Q 947 1169 1205 825 
Q 1463 481 1925 481 
Q 2391 481 2648 825 
Q 2906 1169 2906 1791 
z
M 3481 434 
Q 3481 -459 3084 -895 
Q 2688 -1331 1869 -1331 
Q 1566 -1331 1297 -1286 
Q 1028 -1241 775 -1147 
L 775 -588 
Q 1028 -725 1275 -790 
Q 1522 -856 1778 -856 
Q 2344 -856 2625 -561 
Q 2906 -266 2906 331 
L 2906 616 
Q 2728 306 2450 153 
Q 2172 0 1784 0 
Q 1141 0 747 490 
Q 353 981 353 1791 
Q 353 2603 747 3093 
Q 1141 3584 1784 3584 
Q 2172 3584 2450 3431 
Q 2728 3278 2906 2969 
L 2906 3500 
L 3481 3500 
L 3481 434 
z
" transform="scale(0.015625)"/>
      <path id="DejaVuSans-68" d="M 3513 2113 
L 3513 0 
L 2938 0 
L 2938 2094 
Q 2938 2591 2744 2837 
Q 2550 3084 2163 3084 
Q 1697 3084 1428 2787 
Q 1159 2491 1159 1978 
L 1159 0 
L 581 0 
L 581 4863 
L 1159 4863 
L 1159 2956 
Q 1366 3272 1645 3428 
Q 1925 3584 2291 3584 
Q 2894 3584 3203 3211 
Q 3513 2838 3513 2113 
z
" transform="scale(0.015625)"/>
      <path id="DejaVuSans-49" d="M 628 4666 
L 1259 4666 
L 1259 0 
L 628 0 
L 628 4666 
z
" transform="scale(0.015625)"/>
      <path id="DejaVuSans-64" d="M 2906 2969 
L 2906 4863 
L 3481 4863 
L 3481 0 
L 2906 0 
L 2906 525 
Q 2725 213 2448 61 
Q 2172 -91 1784 -91 
Q 1150 -91 751 415 
Q 353 922 353 1747 
Q 353 2572 751 3078 
Q 1150 3584 1784 3584 
Q 2172 3584 2448 3432 
Q 2725 3281 2906 2969 
z
M 947 1747 
Q 947 1113 1208 752 
Q 1469 391 1925 391 
Q 2381 391 2643 752 
Q 2906 1113 2906 1747 
Q 2906 2381 2643 2742 
Q 2381 3103 1925 3103 
Q 1469 3103 1208 2742 
Q 947 2381 947 1747 
z
" transform="scale(0.015625)"/>
      <path id="DejaVuSans-78" d="M 3513 3500 
L 2247 1797 
L 3578 0 
L 2900 0 
L 1881 1375 
L 863 0 
L 184 0 
L 1544 1831 
L 300 3500 
L 978 3500 
L 1906 2253 
L 2834 3500 
L 3513 3500 
z
" transform="scale(0.015625)"/>
     </defs>
     <use xlink:href="#DejaVuSans-42"/>
     <use xlink:href="#DejaVuSans-52" x="68.603516"/>
     <use xlink:href="#DejaVuSans-4b" x="138.085938"/>
     <use xlink:href="#DejaVuSans-5f" x="203.662109"/>
     <use xlink:href="#DejaVuSans-42" x="253.662109"/>
     <use xlink:href="#DejaVuSans-2c" x="322.265625"/>
     <use xlink:href="#DejaVuSans-20" x="354.052734"/>
     <use xlink:href="#DejaVuSans-52" x="385.839844"/>
     <use xlink:href="#DejaVuSans-65" x="450.822266"/>
     <use xlink:href="#DejaVuSans-6c" x="512.345703"/>
     <use xlink:href="#DejaVuSans-61" x="540.128906"/>
     <use xlink:href="#DejaVuSans-74" x="601.408203"/>
     <use xlink:href="#DejaVuSans-69" x="640.617188"/>
     <use xlink:href="#DejaVuSans-76" x="668.400391"/>
     <use xlink:href="#DejaVuSans-65" x="727.580078"/>
     <use xlink:href="#DejaVuSans-20" x="789.103516"/>
     <use xlink:href="#DejaVuSans-53" x="820.890625"/>
     <use xlink:href="#DejaVuSans-74" x="884.367188"/>
     <use xlink:href="#DejaVuSans-72" x="923.576172"/>
     <use xlink:href="#DejaVuSans-65" x="962.439453"/>
     <use xlink:href="#DejaVuSans-6e" x="1023.962891"/>
     <use xlink:href="#DejaVuSans-67" x="1087.341797"/>
     <use xlink:href="#DejaVuSans-74" x="1150.818359"/>
     <use xlink:href="#DejaVuSans-68" x="1190.027344"/>
     <use xlink:href="#DejaVuSans-20" x="1253.40625"/>
     <use xlink:href="#DejaVuSans-49" x="1285.193359"/>
     <use xlink:href="#DejaVuSans-6e" x="1314.685547"/>
     <use xlink:href="#DejaVuSans-64" x="1378.064453"/>
     <use xlink:href="#DejaVuSans-65" x="1441.541016"/>
     <use xlink:href="#DejaVuSans-78" x="1501.314453"/>
     <use xlink:href="#DejaVuSans-20" x="1560.494141"/>
     <use xlink:href="#DejaVuSans-28" x="1592.28125"/>
     <use xlink:href="#DejaVuSans-52" x="1631.294922"/>
     <use xlink:href="#DejaVuSans-53" x="1700.777344"/>
     <use xlink:href="#DejaVuSans-49" x="1764.253906"/>
     <use xlink:href="#DejaVuSans-29" x="1793.746094"/>
     <use xlink:href="#DejaVuSans-2c" x="1832.759766"/>
     <use xlink:href="#DejaVuSans-20" x="1864.546875"/>
     <use xlink:href="#DejaVuSans-42" x="1896.333984"/>
     <use xlink:href="#DejaVuSans-52" x="1964.9375"/>
     <use xlink:href="#DejaVuSans-4b" x="2034.419922"/>
     <use xlink:href="#DejaVuSans-5f" x="2099.996094"/>
     <use xlink:href="#DejaVuSans-42" x="2149.996094"/>
    </g>
   </g>
   <g id="legend_1">
    <g id="patch_7">
     <path d="M 53.965625 74.3525 
L 203.875 74.3525 
Q 205.875 74.3525 205.875 72.3525 
L 205.875 29.318125 
Q 205.875 27.318125 203.875 27.318125 
L 53.965625 27.318125 
Q 51.965625 27.318125 51.965625 29.318125 
L 51.965625 72.3525 
Q 51.965625 74.3525 53.965625 74.3525 
z
" style="fill: #ffffff; opacity: 0.8; stroke: #cccccc; stroke-linejoin: miter"/>
    </g>
    <g id="line2d_27">
     <path d="M 55.965625 35.416562 
L 65.965625 35.416562 
L 75.965625 35.416562 
" style="fill: none; stroke: #00ff7f; stroke-linecap: square"/>
    </g>
    <g id="text_18">
     <!-- Oversold, RSI &lt;= 30 -->
     <g transform="translate(83.965625 38.916562)scale(0.1 -0.1)">
      <defs>
       <path id="DejaVuSans-4f" d="M 2522 4238 
Q 1834 4238 1429 3725 
Q 1025 3213 1025 2328 
Q 1025 1447 1429 934 
Q 1834 422 2522 422 
Q 3209 422 3611 934 
Q 4013 1447 4013 2328 
Q 4013 3213 3611 3725 
Q 3209 4238 2522 4238 
z
M 2522 4750 
Q 3503 4750 4090 4092 
Q 4678 3434 4678 2328 
Q 4678 1225 4090 567 
Q 3503 -91 2522 -91 
Q 1538 -91 948 565 
Q 359 1222 359 2328 
Q 359 3434 948 4092 
Q 1538 4750 2522 4750 
z
" transform="scale(0.015625)"/>
       <path id="DejaVuSans-73" d="M 2834 3397 
L 2834 2853 
Q 2591 2978 2328 3040 
Q 2066 3103 1784 3103 
Q 1356 3103 1142 2972 
Q 928 2841 928 2578 
Q 928 2378 1081 2264 
Q 1234 2150 1697 2047 
L 1894 2003 
Q 2506 1872 2764 1633 
Q 3022 1394 3022 966 
Q 3022 478 2636 193 
Q 2250 -91 1575 -91 
Q 1294 -91 989 -36 
Q 684 19 347 128 
L 347 722 
Q 666 556 975 473 
Q 1284 391 1588 391 
Q 1994 391 2212 530 
Q 2431 669 2431 922 
Q 2431 1156 2273 1281 
Q 2116 1406 1581 1522 
L 1381 1569 
Q 847 1681 609 1914 
Q 372 2147 372 2553 
Q 372 3047 722 3315 
Q 1072 3584 1716 3584 
Q 2034 3584 2315 3537 
Q 2597 3491 2834 3397 
z
" transform="scale(0.015625)"/>
       <path id="DejaVuSans-6f" d="M 1959 3097 
Q 1497 3097 1228 2736 
Q 959 2375 959 1747 
Q 959 1119 1226 758 
Q 1494 397 1959 397 
Q 2419 397 2687 759 
Q 2956 1122 2956 1747 
Q 2956 2369 2687 2733 
Q 2419 3097 1959 3097 
z
M 1959 3584 
Q 2709 3584 3137 3096 
Q 3566 2609 3566 1747 
Q 3566 888 3137 398 
Q 2709 -91 1959 -91 
Q 1206 -91 779 398 
Q 353 888 353 1747 
Q 353 2609 779 3096 
Q 1206 3584 1959 3584 
z
" transform="scale(0.015625)"/>
       <path id="DejaVuSans-3c" d="M 4684 3150 
L 1459 2003 
L 4684 863 
L 4684 294 
L 678 1747 
L 678 2266 
L 4684 3719 
L 4684 3150 
z
" transform="scale(0.015625)"/>
       <path id="DejaVuSans-3d" d="M 678 2906 
L 4684 2906 
L 4684 2381 
L 678 2381 
L 678 2906 
z
M 678 1631 
L 4684 1631 
L 4684 1100 
L 678 1100 
L 678 1631 
z
" transform="scale(0.015625)"/>
      </defs>
      <use xlink:href="#DejaVuSans-4f"/>
      <use xlink:href="#DejaVuSans-76" x="78.710938"/>
      <use xlink:href="#DejaVuSans-65" x="137.890625"/>
      <use xlink:href="#DejaVuSans-72" x="199.414062"/>
      <use xlink:href="#DejaVuSans-73" x="240.527344"/>
      <use xlink:href="#DejaVuSans-6f" x="292.626953"/>
      <use xlink:href="#DejaVuSans-6c" x="353.808594"/>
      <use xlink:href="#DejaVuSans-64" x="381.591797"/>
      <use xlink:href="#DejaVuSans-2c" x="445.068359"/>
      <use xlink:href="#DejaVuSans-20" x="476.855469"/>
      <use xlink:href="#DejaVuSans-52" x="508.642578"/>
      <use xlink:href="#DejaVuSans-53" x="578.125"/>
      <use xlink:href="#DejaVuSans-49" x="641.601562"/>
      <use xlink:href="#DejaVuSans-20" x="671.09375"/>
      <use xlink:href="#DejaVuSans-3c" x="702.880859"/>
      <use xlink:href="#DejaVuSans-3d" x="786.669922"/>
      <use xlink:href="#DejaVuSans-20" x="870.458984"/>
      <use xlink:href="#DejaVuSans-33" x="902.246094"/>
      <use xlink:href="#DejaVuSans-30" x="965.869141"/>
     </g>
    </g>
    <g id="line2d_28">
     <path d="M 55.965625 50.094687 
L 65.965625 50.094687 
L 75.965625 50.094687 
" style="fill: none; stroke: #ff4500; stroke-linecap: square"/>
    </g>
    <g id="text_19">
     <!-- Overbought, RSI &gt;= 70 -->
     <g transform="translate(83.965625 53.594687)scale(0.1 -0.1)">
      <defs>
       <path id="DejaVuSans-62" d="M 3116 1747 
Q 3116 2381 2855 2742 
Q 2594 3103 2138 3103 
Q 1681 3103 1420 2742 
Q 1159 2381 1159 1747 
Q 1159 1113 1420 752 
Q 1681 391 2138 391 
Q 2594 391 2855 752 
Q 3116 1113 3116 1747 
z
M 1159 2969 
Q 1341 3281 1617 3432 
Q 1894 3584 2278 3584 
Q 2916 3584 3314 3078 
Q 3713 2572 3713 1747 
Q 3713 922 3314 415 
Q 2916 -91 2278 -91 
Q 1894 -91 1617 61 
Q 1341 213 1159 525 
L 1159 0 
L 581 0 
L 581 4863 
L 1159 4863 
L 1159 2969 
z
" transform="scale(0.015625)"/>
       <path id="DejaVuSans-75" d="M 544 1381 
L 544 3500 
L 1119 3500 
L 1119 1403 
Q 1119 906 1312 657 
Q 1506 409 1894 409 
Q 2359 409 2629 706 
Q 2900 1003 2900 1516 
L 2900 3500 
L 3475 3500 
L 3475 0 
L 2900 0 
L 2900 538 
Q 2691 219 2414 64 
Q 2138 -91 1772 -91 
Q 1169 -91 856 284 
Q 544 659 544 1381 
z
M 1991 3584 
L 1991 3584 
z
" transform="scale(0.015625)"/>
       <path id="DejaVuSans-3e" d="M 678 3150 
L 678 3719 
L 4684 2266 
L 4684 1747 
L 678 294 
L 678 863 
L 3897 2003 
L 678 3150 
z
" transform="scale(0.015625)"/>
      </defs>
      <use xlink:href="#DejaVuSans-4f"/>
      <use xlink:href="#DejaVuSans-76" x="78.710938"/>
      <use xlink:href="#DejaVuSans-65" x="137.890625"/>
      <use xlink:href="#DejaVuSans-72" x="199.414062"/>
      <use xlink:href="#DejaVuSans-62" x="240.527344"/>
      <use xlink:href="#DejaVuSans-6f" x="304.003906"/>
      <use xlink:href="#DejaVuSans-75" x="365.185547"/>
      <use xlink:href="#DejaVuSans-67" x="428.564453"/>
      <use xlink:href="#DejaVuSans-68" x="492.041016"/>
      <use xlink:href="#DejaVuSans-74" x="555.419922"/>
      <use xlink:href="#DejaVuSans-2c" x="594.628906"/>
      <use xlink:href="#DejaVuSans-20" x="626.416016"/>
      <use xlink:href="#DejaVuSans-52" x="658.203125"/>
      <use xlink:href="#DejaVuSans-53" x="727.685547"/>
      <use xlink:href="#DejaVuSans-49" x="791.162109"/>
      <use xlink:href="#DejaVuSans-20" x="820.654297"/>
      <use xlink:href="#DejaVuSans-3e" x="852.441406"/>
      <use xlink:href="#DejaVuSans-3d" x="936.230469"/>
      <use xlink:href="#DejaVuSans-20" x="1020.019531"/>
      <use xlink:href="#DejaVuSans-37" x="1051.806641"/>
      <use xlink:href="#DejaVuSans-30" x="1115.429688"/>
     </g>
    </g>
    <g id="line2d_29">
     <path d="M 55.965625 64.772812 
L 65.965625 64.772812 
L 75.965625 64.772812 
" style="fill: none; stroke: #1e90ff; stroke-linecap: square"/>
    </g>
    <g id="text_20">
     <!-- Neutral -->
     <g transform="translate(83.965625 68.272812)scale(0.1 -0.1)">
      <defs>
       <path id="DejaVuSans-4e" d="M 628 4666 
L 1478 4666 
L 3547 763 
L 3547 4666 
L 4159 4666 
L 4159 0 
L 3309 0 
L 1241 3903 
L 1241 0 
L 628 0 
L 628 4666 
z
" transform="scale(0.015625)"/>
      </defs>
      <use xlink:href="#DejaVuSans-4e"/>
      <use xlink:href="#DejaVuSans-65" x="74.804688"/>
      <use xlink:href="#DejaVuSans-75" x="136.328125"/>
      <use xlink:href="#DejaVuSans-74" x="199.707031"/>
      <use xlink:href="#DejaVuSans-72" x="238.916016"/>
      <use xlink:href="#DejaVuSans-61" x="280.029297"/>
      <use xlink:href="#DejaVuSans-6c" x="341.308594"/>
     </g>
    </g>
   </g>
  </g>
 </g>
 <defs>
  <clipPath id="p1581e90ee7">
   <rect x="46.965625" y="22.318125" width="558" height="332.64"/>
  </clipPath>
 </defs>
</svg>
