<?xml version="1.0" encoding="utf-8" standalone="no"?>
<!DOCTYPE svg PUBLIC "-//W3C//DTD SVG 1.1//EN"
  "http://www.w3.org/Graphics/SVG/1.1/DTD/svg11.dtd">
<svg xmlns:xlink="http://www.w3.org/1999/xlink" width="612.165625pt" height="392.514375pt" viewBox="0 0 612.165625 392.514375" xmlns="http://www.w3.org/2000/svg" version="1.1">
 <metadata>
  <rdf:RDF xmlns:dc="http://purl.org/dc/elements/1.1/" xmlns:cc="http://creativecommons.org/ns#" xmlns:rdf="http://www.w3.org/1999/02/22-rdf-syntax-ns#">
   <cc:Work>
    <dc:type rdf:resource="http://purl.org/dc/dcmitype/StillImage"/>
    <dc:date>2023-04-23T16:54:52.022767</dc:date>
    <dc:format>image/svg+xml</dc:format>
    <dc:creator>
     <cc:Agent>
      <dc:title>Matplotlib v3.5.1, https://matplotlib.org/</dc:title>
     </cc:Agent>
    </dc:creator>
   </cc:Work>
  </rdf:RDF>
 </metadata>
 <defs>
  <style type="text/css">*{stroke-linejoin: round; stroke-linecap: butt}</style>
 </defs>
 <g id="figure_1">
  <g id="patch_1">
   <path d="M 0 392.514375 
L 612.165625 392.514375 
L 612.165625 0 
L 0 0 
z
" style="fill: #ffffff"/>
  </g>
  <g id="axes_1">
   <g id="patch_2">
    <path d="M 46.965625 354.958125 
L 604.965625 354.958125 
L 604.965625 22.318125 
L 46.965625 22.318125 
z
" style="fill: #ffffff"/>
   </g>
   <g id="matplotlib.axis_1">
    <g id="xtick_1">
     <g id="line2d_1">
      <defs>
       <path id="m8b55fe29be" d="M 0 0 
L 0 3.5 
" style="stroke: #000000; stroke-width: 0.8"/>
      </defs>
      <g>
       <use xlink:href="#m8b55fe29be" x="72.329261" y="354.958125" style="stroke: #000000; stroke-width: 0.8"/>
      </g>
     </g>
     <g id="text_1">
      <!-- 0 -->
      <g transform="translate(69.148011 369.556562)scale(0.1 -0.1)">
       <defs>
        <path id="DejaVuSans-30" d="M 2034 4250 
Q 1547 4250 1301 3770 
Q 1056 3291 1056 2328 
Q 1056 1369 1301 889 
Q 1547 409 2034 409 
Q 2525 409 2770 889 
Q 3016 1369 3016 2328 
Q 3016 3291 2770 3770 
Q 2525 4250 2034 4250 
z
M 2034 4750 
Q 2819 4750 3233 4129 
Q 3647 3509 3647 2328 
Q 3647 1150 3233 529 
Q 2819 -91 2034 -91 
Q 1250 -91 836 529 
Q 422 1150 422 2328 
Q 422 3509 836 4129 
Q 1250 4750 2034 4750 
z
" transform="scale(0.015625)"/>
       </defs>
       <use xlink:href="#DejaVuSans-30"/>
      </g>
     </g>
    </g>
    <g id="xtick_2">
     <g id="line2d_2">
      <g>
       <use xlink:href="#m8b55fe29be" x="184.112586" y="354.958125" style="stroke: #000000; stroke-width: 0.8"/>
      </g>
     </g>
     <g id="text_2">
      <!-- 500 -->
      <g transform="translate(174.568836 369.556562)scale(0.1 -0.1)">
       <defs>
        <path id="DejaVuSans-35" d="M 691 4666 
L 3169 4666 
L 3169 4134 
L 1269 4134 
L 1269 2991 
Q 1406 3038 1543 3061 
Q 1681 3084 1819 3084 
Q 2600 3084 3056 2656 
Q 3513 2228 3513 1497 
Q 3513 744 3044 326 
Q 2575 -91 1722 -91 
Q 1428 -91 1123 -41 
Q 819 9 494 109 
L 494 744 
Q 775 591 1075 516 
Q 1375 441 1709 441 
Q 2250 441 2565 725 
Q 2881 1009 2881 1497 
Q 2881 1984 2565 2268 
Q 2250 2553 1709 2553 
Q 1456 2553 1204 2497 
Q 953 2441 691 2322 
L 691 4666 
z
" transform="scale(0.015625)"/>
       </defs>
       <use xlink:href="#DejaVuSans-35"/>
       <use xlink:href="#DejaVuSans-30" x="63.623047"/>
       <use xlink:href="#DejaVuSans-30" x="127.246094"/>
      </g>
     </g>
    </g>
    <g id="xtick_3">
     <g id="line2d_3">
      <g>
       <use xlink:href="#m8b55fe29be" x="295.895911" y="354.958125" style="stroke: #000000; stroke-width: 0.8"/>
      </g>
     </g>
     <g id="text_3">
      <!-- 1000 -->
      <g transform="translate(283.170911 369.556562)scale(0.1 -0.1)">
       <defs>
        <path id="DejaVuSans-31" d="M 794 531 
L 1825 531 
L 1825 4091 
L 703 3866 
L 703 4441 
L 1819 4666 
L 2450 4666 
L 2450 531 
L 3481 531 
L 3481 0 
L 794 0 
L 794 531 
z
" transform="scale(0.015625)"/>
       </defs>
       <use xlink:href="#DejaVuSans-31"/>
       <use xlink:href="#DejaVuSans-30" x="63.623047"/>
       <use xlink:href="#DejaVuSans-30" x="127.246094"/>
       <use xlink:href="#DejaVuSans-30" x="190.869141"/>
      </g>
     </g>
    </g>
    <g id="xtick_4">
     <g id="line2d_4">
      <g>
       <use xlink:href="#m8b55fe29be" x="407.679235" y="354.958125" style="stroke: #000000; stroke-width: 0.8"/>
      </g>
     </g>
     <g id="text_4">
      <!-- 1500 -->
      <g transform="translate(394.954235 369.556562)scale(0.1 -0.1)">
       <use xlink:href="#DejaVuSans-31"/>
       <use xlink:href="#DejaVuSans-35" x="63.623047"/>
       <use xlink:href="#DejaVuSans-30" x="127.246094"/>
       <use xlink:href="#DejaVuSans-30" x="190.869141"/>
      </g>
     </g>
    </g>
    <g id="xtick_5">
     <g id="line2d_5">
      <g>
       <use xlink:href="#m8b55fe29be" x="519.46256" y="354.958125" style="stroke: #000000; stroke-width: 0.8"/>
      </g>
     </g>
     <g id="text_5">
      <!-- 2000 -->
      <g transform="translate(506.73756 369.556562)scale(0.1 -0.1)">
       <defs>
        <path id="DejaVuSans-32" d="M 1228 531 
L 3431 531 
L 3431 0 
L 469 0 
L 469 531 
Q 828 903 1448 1529 
Q 2069 2156 2228 2338 
Q 2531 2678 2651 2914 
Q 2772 3150 2772 3378 
Q 2772 3750 2511 3984 
Q 2250 4219 1831 4219 
Q 1534 4219 1204 4116 
Q 875 4013 500 3803 
L 500 4441 
Q 881 4594 1212 4672 
Q 1544 4750 1819 4750 
Q 2544 4750 2975 4387 
Q 3406 4025 3406 3419 
Q 3406 3131 3298 2873 
Q 3191 2616 2906 2266 
Q 2828 2175 2409 1742 
Q 1991 1309 1228 531 
z
" transform="scale(0.015625)"/>
       </defs>
       <use xlink:href="#DejaVuSans-32"/>
       <use xlink:href="#DejaVuSans-30" x="63.623047"/>
       <use xlink:href="#DejaVuSans-30" x="127.246094"/>
       <use xlink:href="#DejaVuSans-30" x="190.869141"/>
      </g>
     </g>
    </g>
    <g id="text_6">
     <!-- Date -->
     <g transform="translate(314.014844 383.234687)scale(0.1 -0.1)">
      <defs>
       <path id="DejaVuSans-44" d="M 1259 4147 
L 1259 519 
L 2022 519 
Q 2988 519 3436 956 
Q 3884 1394 3884 2338 
Q 3884 3275 3436 3711 
Q 2988 4147 2022 4147 
L 1259 4147 
z
M 628 4666 
L 1925 4666 
Q 3281 4666 3915 4102 
Q 4550 3538 4550 2338 
Q 4550 1131 3912 565 
Q 3275 0 1925 0 
L 628 0 
L 628 4666 
z
" transform="scale(0.015625)"/>
       <path id="DejaVuSans-61" d="M 2194 1759 
Q 1497 1759 1228 1600 
Q 959 1441 959 1056 
Q 959 750 1161 570 
Q 1363 391 1709 391 
Q 2188 391 2477 730 
Q 2766 1069 2766 1631 
L 2766 1759 
L 2194 1759 
z
M 3341 1997 
L 3341 0 
L 2766 0 
L 2766 531 
Q 2569 213 2275 61 
Q 1981 -91 1556 -91 
Q 1019 -91 701 211 
Q 384 513 384 1019 
Q 384 1609 779 1909 
Q 1175 2209 1959 2209 
L 2766 2209 
L 2766 2266 
Q 2766 2663 2505 2880 
Q 2244 3097 1772 3097 
Q 1472 3097 1187 3025 
Q 903 2953 641 2809 
L 641 3341 
Q 956 3463 1253 3523 
Q 1550 3584 1831 3584 
Q 2591 3584 2966 3190 
Q 3341 2797 3341 1997 
z
" transform="scale(0.015625)"/>
       <path id="DejaVuSans-74" d="M 1172 4494 
L 1172 3500 
L 2356 3500 
L 2356 3053 
L 1172 3053 
L 1172 1153 
Q 1172 725 1289 603 
Q 1406 481 1766 481 
L 2356 481 
L 2356 0 
L 1766 0 
Q 1100 0 847 248 
Q 594 497 594 1153 
L 594 3053 
L 172 3053 
L 172 3500 
L 594 3500 
L 594 4494 
L 1172 4494 
z
" transform="scale(0.015625)"/>
       <path id="DejaVuSans-65" d="M 3597 1894 
L 3597 1613 
L 953 1613 
Q 991 1019 1311 708 
Q 1631 397 2203 397 
Q 2534 397 2845 478 
Q 3156 559 3463 722 
L 3463 178 
Q 3153 47 2828 -22 
Q 2503 -91 2169 -91 
Q 1331 -91 842 396 
Q 353 884 353 1716 
Q 353 2575 817 3079 
Q 1281 3584 2069 3584 
Q 2775 3584 3186 3129 
Q 3597 2675 3597 1894 
z
M 3022 2063 
Q 3016 2534 2758 2815 
Q 2500 3097 2075 3097 
Q 1594 3097 1305 2825 
Q 1016 2553 972 2059 
L 3022 2063 
z
" transform="scale(0.015625)"/>
      </defs>
      <use xlink:href="#DejaVuSans-44"/>
      <use xlink:href="#DejaVuSans-61" x="77.001953"/>
      <use xlink:href="#DejaVuSans-74" x="138.28125"/>
      <use xlink:href="#DejaVuSans-65" x="177.490234"/>
     </g>
    </g>
   </g>
   <g id="matplotlib.axis_2">
    <g id="ytick_1">
     <g id="line2d_6">
      <path d="M 46.965625 341.994992 
L 604.965625 341.994992 
" clip-path="url(#p90ebd6be66)" style="fill: none; stroke: #dcdcdc; stroke-width: 0.5; stroke-linecap: square"/>
     </g>
     <g id="line2d_7">
      <defs>
       <path id="mcda14a256b" d="M 0 0 
L -3.5 0 
" style="stroke: #000000; stroke-width: 0.8"/>
      </defs>
      <g>
       <use xlink:href="#mcda14a256b" x="46.965625" y="341.994992" style="stroke: #000000; stroke-width: 0.8"/>
      </g>
     </g>
     <g id="text_7">
      <!-- 100 -->
      <g transform="translate(20.878125 345.79421)scale(0.1 -0.1)">
       <use xlink:href="#DejaVuSans-31"/>
       <use xlink:href="#DejaVuSans-30" x="63.623047"/>
       <use xlink:href="#DejaVuSans-30" x="127.246094"/>
      </g>
     </g>
    </g>
    <g id="ytick_2">
     <g id="line2d_8">
      <path d="M 46.965625 281.066558 
L 604.965625 281.066558 
" clip-path="url(#p90ebd6be66)" style="fill: none; stroke: #dcdcdc; stroke-width: 0.5; stroke-linecap: square"/>
     </g>
     <g id="line2d_9">
      <g>
       <use xlink:href="#mcda14a256b" x="46.965625" y="281.066558" style="stroke: #000000; stroke-width: 0.8"/>
      </g>
     </g>
     <g id="text_8">
      <!-- 150 -->
      <g transform="translate(20.878125 284.865777)scale(0.1 -0.1)">
       <use xlink:href="#DejaVuSans-31"/>
       <use xlink:href="#DejaVuSans-35" x="63.623047"/>
       <use xlink:href="#DejaVuSans-30" x="127.246094"/>
      </g>
     </g>
    </g>
    <g id="ytick_3">
     <g id="line2d_10">
      <path d="M 46.965625 220.138125 
L 604.965625 220.138125 
" clip-path="url(#p90ebd6be66)" style="fill: none; stroke: #dcdcdc; stroke-width: 0.5; stroke-linecap: square"/>
     </g>
     <g id="line2d_11">
      <g>
       <use xlink:href="#mcda14a256b" x="46.965625" y="220.138125" style="stroke: #000000; stroke-width: 0.8"/>
      </g>
     </g>
     <g id="text_9">
      <!-- 200 -->
      <g transform="translate(20.878125 223.937344)scale(0.1 -0.1)">
       <use xlink:href="#DejaVuSans-32"/>
       <use xlink:href="#DejaVuSans-30" x="63.623047"/>
       <use xlink:href="#DejaVuSans-30" x="127.246094"/>
      </g>
     </g>
    </g>
    <g id="ytick_4">
     <g id="line2d_12">
      <path d="M 46.965625 159.209692 
L 604.965625 159.209692 
" clip-path="url(#p90ebd6be66)" style="fill: none; stroke: #dcdcdc; stroke-width: 0.5; stroke-linecap: square"/>
     </g>
     <g id="line2d_13">
      <g>
       <use xlink:href="#mcda14a256b" x="46.965625" y="159.209692" style="stroke: #000000; stroke-width: 0.8"/>
      </g>
     </g>
     <g id="text_10">
      <!-- 250 -->
      <g transform="translate(20.878125 163.00891)scale(0.1 -0.1)">
       <use xlink:href="#DejaVuSans-32"/>
       <use xlink:href="#DejaVuSans-35" x="63.623047"/>
       <use xlink:href="#DejaVuSans-30" x="127.246094"/>
      </g>
     </g>
    </g>
    <g id="ytick_5">
     <g id="line2d_14">
      <path d="M 46.965625 98.281258 
L 604.965625 98.281258 
" clip-path="url(#p90ebd6be66)" style="fill: none; stroke: #dcdcdc; stroke-width: 0.5; stroke-linecap: square"/>
     </g>
     <g id="line2d_15">
      <g>
       <use xlink:href="#mcda14a256b" x="46.965625" y="98.281258" style="stroke: #000000; stroke-width: 0.8"/>
      </g>
     </g>
     <g id="text_11">
      <!-- 300 -->
      <g transform="translate(20.878125 102.080477)scale(0.1 -0.1)">
       <defs>
        <path id="DejaVuSans-33" d="M 2597 2516 
Q 3050 2419 3304 2112 
Q 3559 1806 3559 1356 
Q 3559 666 3084 287 
Q 2609 -91 1734 -91 
Q 1441 -91 1130 -33 
Q 819 25 488 141 
L 488 750 
Q 750 597 1062 519 
Q 1375 441 1716 441 
Q 2309 441 2620 675 
Q 2931 909 2931 1356 
Q 2931 1769 2642 2001 
Q 2353 2234 1838 2234 
L 1294 2234 
L 1294 2753 
L 1863 2753 
Q 2328 2753 2575 2939 
Q 2822 3125 2822 3475 
Q 2822 3834 2567 4026 
Q 2313 4219 1838 4219 
Q 1578 4219 1281 4162 
Q 984 4106 628 3988 
L 628 4550 
Q 988 4650 1302 4700 
Q 1616 4750 1894 4750 
Q 2613 4750 3031 4423 
Q 3450 4097 3450 3541 
Q 3450 3153 3228 2886 
Q 3006 2619 2597 2516 
z
" transform="scale(0.015625)"/>
       </defs>
       <use xlink:href="#DejaVuSans-33"/>
       <use xlink:href="#DejaVuSans-30" x="63.623047"/>
       <use xlink:href="#DejaVuSans-30" x="127.246094"/>
      </g>
     </g>
    </g>
    <g id="ytick_6">
     <g id="line2d_16">
      <path d="M 46.965625 37.352825 
L 604.965625 37.352825 
" clip-path="url(#p90ebd6be66)" style="fill: none; stroke: #dcdcdc; stroke-width: 0.5; stroke-linecap: square"/>
     </g>
     <g id="line2d_17">
      <g>
       <use xlink:href="#mcda14a256b" x="46.965625" y="37.352825" style="stroke: #000000; stroke-width: 0.8"/>
      </g>
     </g>
     <g id="text_12">
      <!-- 350 -->
      <g transform="translate(20.878125 41.152044)scale(0.1 -0.1)">
       <use xlink:href="#DejaVuSans-33"/>
       <use xlink:href="#DejaVuSans-35" x="63.623047"/>
       <use xlink:href="#DejaVuSans-30" x="127.246094"/>
      </g>
     </g>
    </g>
    <g id="text_13">
     <!-- Price (USD) -->
     <g transform="translate(14.798437 217.01)rotate(-90)scale(0.1 -0.1)">
      <defs>
       <path id="DejaVuSans-50" d="M 1259 4147 
L 1259 2394 
L 2053 2394 
Q 2494 2394 2734 2622 
Q 2975 2850 2975 3272 
Q 2975 3691 2734 3919 
Q 2494 4147 2053 4147 
L 1259 4147 
z
M 628 4666 
L 2053 4666 
Q 2838 4666 3239 4311 
Q 3641 3956 3641 3272 
Q 3641 2581 3239 2228 
Q 2838 1875 2053 1875 
L 1259 1875 
L 1259 0 
L 628 0 
L 628 4666 
z
" transform="scale(0.015625)"/>
       <path id="DejaVuSans-72" d="M 2631 2963 
Q 2534 3019 2420 3045 
Q 2306 3072 2169 3072 
Q 1681 3072 1420 2755 
Q 1159 2438 1159 1844 
L 1159 0 
L 581 0 
L 581 3500 
L 1159 3500 
L 1159 2956 
Q 1341 3275 1631 3429 
Q 1922 3584 2338 3584 
Q 2397 3584 2469 3576 
Q 2541 3569 2628 3553 
L 2631 2963 
z
" transform="scale(0.015625)"/>
       <path id="DejaVuSans-69" d="M 603 3500 
L 1178 3500 
L 1178 0 
L 603 0 
L 603 3500 
z
M 603 4863 
L 1178 4863 
L 1178 4134 
L 603 4134 
L 603 4863 
z
" transform="scale(0.015625)"/>
       <path id="DejaVuSans-63" d="M 3122 3366 
L 3122 2828 
Q 2878 2963 2633 3030 
Q 2388 3097 2138 3097 
Q 1578 3097 1268 2742 
Q 959 2388 959 1747 
Q 959 1106 1268 751 
Q 1578 397 2138 397 
Q 2388 397 2633 464 
Q 2878 531 3122 666 
L 3122 134 
Q 2881 22 2623 -34 
Q 2366 -91 2075 -91 
Q 1284 -91 818 406 
Q 353 903 353 1747 
Q 353 2603 823 3093 
Q 1294 3584 2113 3584 
Q 2378 3584 2631 3529 
Q 2884 3475 3122 3366 
z
" transform="scale(0.015625)"/>
       <path id="DejaVuSans-20" transform="scale(0.015625)"/>
       <path id="DejaVuSans-28" d="M 1984 4856 
Q 1566 4138 1362 3434 
Q 1159 2731 1159 2009 
Q 1159 1288 1364 580 
Q 1569 -128 1984 -844 
L 1484 -844 
Q 1016 -109 783 600 
Q 550 1309 550 2009 
Q 550 2706 781 3412 
Q 1013 4119 1484 4856 
L 1984 4856 
z
" transform="scale(0.015625)"/>
       <path id="DejaVuSans-55" d="M 556 4666 
L 1191 4666 
L 1191 1831 
Q 1191 1081 1462 751 
Q 1734 422 2344 422 
Q 2950 422 3222 751 
Q 3494 1081 3494 1831 
L 3494 4666 
L 4128 4666 
L 4128 1753 
Q 4128 841 3676 375 
Q 3225 -91 2344 -91 
Q 1459 -91 1007 375 
Q 556 841 556 1753 
L 556 4666 
z
" transform="scale(0.015625)"/>
       <path id="DejaVuSans-53" d="M 3425 4513 
L 3425 3897 
Q 3066 4069 2747 4153 
Q 2428 4238 2131 4238 
Q 1616 4238 1336 4038 
Q 1056 3838 1056 3469 
Q 1056 3159 1242 3001 
Q 1428 2844 1947 2747 
L 2328 2669 
Q 3034 2534 3370 2195 
Q 3706 1856 3706 1288 
Q 3706 609 3251 259 
Q 2797 -91 1919 -91 
Q 1588 -91 1214 -16 
Q 841 59 441 206 
L 441 856 
Q 825 641 1194 531 
Q 1563 422 1919 422 
Q 2459 422 2753 634 
Q 3047 847 3047 1241 
Q 3047 1584 2836 1778 
Q 2625 1972 2144 2069 
L 1759 2144 
Q 1053 2284 737 2584 
Q 422 2884 422 3419 
Q 422 4038 858 4394 
Q 1294 4750 2059 4750 
Q 2388 4750 2728 4690 
Q 3069 4631 3425 4513 
z
" transform="scale(0.015625)"/>
       <path id="DejaVuSans-29" d="M 513 4856 
L 1013 4856 
Q 1481 4119 1714 3412 
Q 1947 2706 1947 2009 
Q 1947 1309 1714 600 
Q 1481 -109 1013 -844 
L 513 -844 
Q 928 -128 1133 580 
Q 1338 1288 1338 2009 
Q 1338 2731 1133 3434 
Q 928 4138 513 4856 
z
" transform="scale(0.015625)"/>
      </defs>
      <use xlink:href="#DejaVuSans-50"/>
      <use xlink:href="#DejaVuSans-72" x="58.552734"/>
      <use xlink:href="#DejaVuSans-69" x="99.666016"/>
      <use xlink:href="#DejaVuSans-63" x="127.449219"/>
      <use xlink:href="#DejaVuSans-65" x="182.429688"/>
      <use xlink:href="#DejaVuSans-20" x="243.953125"/>
      <use xlink:href="#DejaVuSans-28" x="275.740234"/>
      <use xlink:href="#DejaVuSans-55" x="314.753906"/>
      <use xlink:href="#DejaVuSans-53" x="387.947266"/>
      <use xlink:href="#DejaVuSans-44" x="451.423828"/>
      <use xlink:href="#DejaVuSans-29" x="528.425781"/>
     </g>
    </g>
   </g>
   <g id="line2d_18">
    <path d="M 73.670661 61.74857 
L 73.894228 65.867332 
L 74.117795 67.451471 
L 74.341361 67.329614 
L 74.564928 75.713367 
L 75.012061 67.402728 
L 75.235628 64.478164 
L 75.459194 69.474295 
L 75.682761 77.760562 
M 76.129894 74.835997 
L 76.353461 88.19151 
L 76.577028 86.107757 
M 81.271927 93.735997 
L 81.495494 91.92033 
M 85.07256 98.939286 
L 85.519694 102.339092 
L 85.74326 104.995572 
L 85.966827 105.093057 
L 86.190394 106.518783 
L 86.41396 110.942187 
L 86.637527 106.006984 
M 87.978927 117.144701 
L 88.202493 118.119556 
M 98.262993 125.028841 
L 98.486559 130.402728 
M 109.664892 124.49267 
L 109.888458 125.45534 
M 124.420291 137.409498 
L 124.867424 132.267139 
M 127.10309 149.217429 
L 127.326657 152.544121 
M 127.77379 148.461916 
L 127.997357 150.959982 
L 128.220924 158.295765 
L 128.668057 161.269073 
L 128.891624 158.771007 
L 129.11519 158.003309 
L 129.338757 156.212013 
L 129.78589 157.381839 
M 136.045756 180.315301 
L 136.269323 180.851471 
L 136.49289 184.409692 
L 136.716456 186.176616 
L 136.940023 182.423425 
L 137.16359 186.798086 
L 137.387156 181.667912 
M 142.082056 190.600021 
L 142.305623 193.475843 
L 142.529189 191.513947 
L 142.752756 191.587061 
M 149.236189 209.353792 
L 149.683322 212.619556 
L 149.906889 212.059015 
L 150.354022 217.822845 
L 150.577589 218.298086 
L 150.801155 219.285127 
L 151.024722 211.754373 
L 151.248289 209.792477 
M 161.308788 211.08416 
L 161.532354 212.680485 
L 161.979488 209.987448 
L 162.203054 211.876229 
M 164.885854 227.083966 
L 165.109421 224.512787 
L 165.556554 229.716075 
L 165.780121 226.815881 
L 166.227254 229.764817 
L 166.450821 229.557661 
L 166.674387 231.738899 
L 167.121521 231.093057 
L 167.345087 231.641413 
L 167.568654 232.677197 
L 167.792221 239.47681 
L 168.015787 240.975649 
L 168.239354 245.971781 
L 168.462921 243.047216 
L 168.686487 243.108144 
L 168.910054 241.194992 
L 169.133621 245.935224 
L 169.357187 246.958821 
L 169.580754 246.325166 
L 170.027887 250.151471 
L 170.251454 245.910852 
L 170.47502 247.519363 
M 176.064187 253.660949 
L 176.287753 250.0418 
L 176.51132 257.609111 
L 176.734887 255.561916 
L 176.958453 256.000601 
M 201.327218 196.254179 
L 201.550785 197.716462 
L 201.774351 198.106404 
M 202.668618 197.107177 
L 202.892185 196.912206 
L 203.339318 199.873328 
M 207.139951 204.284547 
L 207.363518 204.467332 
L 207.810651 207.63561 
L 208.034217 206.782612 
L 208.257784 207.196926 
L 208.481351 206.136771 
L 208.704917 209.463463 
L 208.928484 209.634063 
L 209.152051 208.817622 
L 209.375617 208.707951 
L 209.599184 210.499247 
L 209.822751 210.29209 
L 210.046317 211.778744 
L 210.269884 211.985901 
L 210.493451 215.154179 
M 216.753317 219.589769 
L 216.976883 222.148763 
M 226.813816 210.304276 
L 227.260949 212.570814 
M 227.708083 211.912787 
L 227.931649 212.814527 
L 228.155216 215.897506 
L 228.378783 213.850311 
L 228.602349 214.057467 
L 228.825916 214.569266 
L 229.049483 212.059015 
M 237.992148 207.27004 
L 238.439282 214.630195 
L 238.886415 213.74064 
L 239.109982 213.643154 
L 239.333548 215.141993 
L 239.557115 215.665978 
L 239.780682 215.410079 
M 240.227815 219.053599 
L 240.451382 219.33387 
L 240.674948 221.100794 
L 240.898515 219.382612 
L 241.122082 220.820523 
M 251.629714 223.866945 
L 251.853281 225.280485 
L 252.076847 224.659015 
M 253.194681 225.987255 
L 253.418247 230.300988 
M 263.031613 216.05592 
L 263.25518 220.089382 
L 263.478747 221.978164 
M 271.750713 205.198473 
L 272.197846 209.512206 
L 272.644979 206.404856 
L 273.092112 207.330968 
L 273.315679 210.413947 
L 273.539246 211.315688 
L 273.762812 211.206017 
L 273.986379 209.792477 
L 274.209946 209.829034 
L 274.433512 210.218976 
L 274.657079 210.925746 
L 274.880646 214.654566 
M 276.892745 222.502148 
L 277.116312 222.758048 
L 277.339879 222.733676 
L 277.563445 221.247022 
L 277.787012 222.636191 
M 278.681279 222.758048 
L 278.904845 224.061916 
L 279.128412 223.196732 
L 279.351979 219.601955 
L 279.575545 231.824199 
M 281.140512 235.297119 
L 281.364078 235.370233 
L 281.587645 237.173715 
L 281.811212 234.968106 
L 282.034778 236.406017 
L 282.258345 235.869846 
L 282.481912 238.526326 
M 308.192076 211.985901 
L 308.415643 213.301955 
L 308.63921 216.458048 
L 308.862776 216.799247 
L 309.30991 219.297313 
L 309.533476 220.394024 
L 309.757043 223.525746 
L 310.204176 220.674295 
L 310.65131 223.099247 
L 310.874876 222.672748 
L 311.098443 221.490736 
L 311.322009 222.831162 
L 311.545576 222.684934 
M 314.675509 232.506597 
L 314.899076 235.321491 
L 315.122643 240.256694 
L 315.346209 241.633676 
L 315.569776 241.389963 
L 315.793342 240.63445 
L 316.016909 242.523231 
L 316.240476 243.217816 
L 316.464042 242.011433 
L 316.687609 242.303889 
L 317.134742 239.147796 
L 317.358309 240.025166 
L 317.581876 239.038125 
M 324.065308 240.46385 
L 324.288875 240.597893 
L 324.512442 240.524779 
L 324.736008 242.242961 
L 324.959575 241.438705 
L 325.183142 242.242961 
L 325.630275 239.854566 
L 325.853842 240.841607 
L 326.524542 246.252051 
L 326.748108 245.825552 
L 326.971675 246.178937 
L 327.195242 247.10505 
L 327.642375 251.833096 
M 335.243641 255.074489 
L 335.467208 255.232903 
L 335.690774 256.317429 
L 335.914341 256.500214 
L 336.137908 257.341026 
L 336.585041 256.79267 
L 336.808607 257.621297 
L 337.032174 256.390543 
M 343.068474 262.446829 
L 343.29204 262.653986 
L 343.515607 261.947216 
L 343.96274 262.873328 
L 344.186307 262.203115 
L 344.409874 262.629614 
L 344.857007 266.90679 
L 345.080574 267.345475 
M 358.271006 257.170427 
L 358.941706 259.44915 
L 359.388839 260.411819 
L 359.612406 261.752245 
L 359.835972 263.994411 
L 360.059539 263.957854 
L 360.283106 265.38358 
L 360.506672 265.310465 
L 360.953806 264.079711 
L 361.177372 265.225166 
L 361.624506 263.835997 
M 362.742339 268.003502 
L 362.965905 270.330968 
M 370.343605 269.624199 
L 370.567172 268.734643 
L 370.790738 272.000407 
L 371.014305 271.707951 
L 371.237871 272.573135 
L 371.461438 271.098667 
L 371.685005 271.183966 
L 371.908571 270.513754 
L 372.132138 270.452825 
L 372.355705 271.622651 
L 372.579271 270.842767 
L 372.802838 272.439092 
M 373.920671 279.50679 
L 374.144238 283.759595 
L 374.367805 284.831935 
L 374.591371 289.657467 
L 374.814938 288.816655 
L 375.038505 289.365011 
L 375.485638 288.0124 
L 375.709204 288.37797 
L 375.932771 287.829614 
L 376.379904 289.08474 
L 376.603471 288.585127 
L 376.827038 288.865398 
L 377.050604 287.780872 
M 388.899637 286.367332 
L 389.123203 289.450311 
L 389.34677 288.828841 
L 389.570337 289.218783 
L 390.01747 288.048957 
L 390.241037 287.866171 
M 390.68817 287.963657 
L 390.911737 288.207371 
M 394.935936 292.911046 
L 395.159503 295.080098 
L 395.38307 293.60563 
M 407.455669 291.960562 
L 407.679235 292.265204 
L 407.902802 291.180678 
L 408.126369 291.789963 
M 413.268402 297.236964 
L 413.491968 296.981065 
L 413.939102 303.09828 
L 414.162668 302.623038 
L 414.386235 304.182806 
L 414.609801 304.536191 
L 414.833368 303.01298 
L 415.056935 304.158434 
L 415.280501 304.389963 
L 415.504068 305.121104 
L 415.727635 307.19267 
L 415.951201 307.789769 
L 416.174768 311.421104 
L 416.621901 308.216268 
L 416.845468 309.361723 
M 450.827599 296.274295 
L 451.051165 297.992477 
L 451.274732 297.50505 
M 485.256863 286.172361 
L 485.480429 286.708531 
L 485.703996 286.525746 
L 485.927563 285.587448 
L 486.374696 287.22033 
L 486.598263 287.098473 
L 486.821829 288.853212 
L 487.268962 289.694024 
L 487.492529 290.595765 
L 487.716096 292.265204 
L 488.163229 293.812787 
L 488.610362 292.691703 
L 488.833929 293.824972 
L 489.057496 293.983386 
L 489.504629 296.115881 
L 489.728196 294.507371 
L 489.951762 296.62768 
L 490.175329 296.79828 
L 490.398896 299.710659 
L 490.622462 298.565204 
M 499.788695 299.308531 
L 500.012261 300.149344 
M 500.459395 301.68474 
L 500.682961 301.709111 
L 501.130095 304.34122 
L 501.353661 306.717429 
L 501.577228 306.522458 
L 501.800795 307.887255 
L 502.024361 305.779131 
L 502.247928 310.519363 
L 502.471495 311.00679 
L 502.695061 308.191897 
L 502.918628 308.654953 
M 519.46256 315.552051 
L 519.686127 314.857467 
L 519.909693 312.737158 
L 520.13326 313.809498 
L 520.356827 313.821684 
M 525.722426 319.366171 
L 525.945993 322.424779 
L 526.169559 322.765978 
L 526.616693 325.300601 
L 526.840259 325.008144 
L 527.063826 325.909885 
L 527.510959 326.031742 
L 527.734526 325.714914 
L 527.958093 324.045475 
L 528.181659 323.77739 
L 528.405226 324.082032 
L 528.628793 325.788028 
L 528.852359 325.410272 
L 529.075926 326.628841 
M 529.523059 329.614334 
L 529.746626 331.295959 
L 529.970192 330.86946 
L 530.193759 331.040059 
M 547.855524 327.652438 
L 548.079091 328.139866 
M 553.891824 328.322651 
L 554.115391 327.384353 
L 554.338957 327.128454 
L 554.562524 327.932709 
M 563.281623 326.738512 
L 563.50519 326.104856 
L 563.728757 327.469653 
L 563.952323 326.153599 
L 564.17589 326.26327 
L 564.399456 327.286868 
L 564.623023 328.944121 
M 572.671423 333.09944 
L 572.894989 334.537351 
L 573.342122 333.940253 
L 573.789256 332.892284 
L 574.012822 333.769653 
L 574.236389 333.854953 
L 574.459956 335.877777 
L 574.683522 335.560949 
L 574.907089 338.339286 
L 574.907089 338.339286 
" clip-path="url(#p90ebd6be66)" style="fill: none; stroke: #00ff7f; stroke-linecap: square"/>
   </g>
   <g id="line2d_19">
    <path d="M 103.405026 116.242961 
L 103.628592 115.621491 
L 103.852159 115.755533 
L 104.075726 114.610079 
L 104.299292 116.230775 
L 104.522859 113.757081 
L 104.746426 115.316848 
M 105.193559 116.230775 
L 105.417125 116.401375 
L 105.640692 114.902535 
L 105.864259 111.563657 
L 106.087825 111.137158 
M 116.595458 112.197313 
L 116.819025 111.453986 
M 117.266158 107.396152 
L 117.489725 108.066365 
L 117.713291 110.442574 
L 117.936858 110.661916 
L 118.160424 111.149344 
L 118.383991 111.319943 
M 146.329822 179.766945 
L 146.553389 178.804276 
M 153.483955 200.141413 
L 153.931088 201.67681 
M 159.296688 198.021104 
L 159.520255 193.719556 
M 172.934254 224.9271 
L 173.15782 218.237158 
L 173.381387 219.33387 
M 179.641253 235.418976 
L 180.088386 237.648957 
L 180.311953 236.491316 
M 180.982653 230.861529 
L 181.20622 234.809692 
M 191.713852 186.773715 
L 191.937419 184.056307 
L 192.160985 185.226133 
M 214.294084 203.553405 
L 214.51765 206.282999 
M 223.683883 204.442961 
L 224.131016 202.956307 
M 225.248849 201.554953 
L 225.472416 201.664624 
L 225.695983 202.420137 
L 225.919549 202.322651 
L 226.143116 204.089576 
M 233.744382 209.146636 
L 233.967949 209.707177 
L 234.191515 208.817622 
L 234.415082 208.647022 
L 234.862215 197.472748 
L 235.085782 200.726326 
L 235.309349 199.775843 
L 235.532915 199.775843 
L 235.756482 199.934257 
M 257.88958 194.779711 
L 258.113147 197.911433 
L 258.336714 198.56946 
L 258.56028 198.813173 
L 258.783847 204.86946 
M 266.385113 191.184934 
L 266.60868 193.2565 
M 284.717578 226.779324 
L 284.941145 225.901955 
L 285.164712 225.828841 
L 285.388278 225.000214 
L 285.611845 225.536384 
L 285.835411 227.461723 
M 306.850676 200.677583 
L 307.074243 203.99209 
M 318.476142 235.650504 
L 318.699709 234.017622 
M 319.146842 236.052632 
L 319.593975 234.041993 
L 320.041109 233.895765 
L 320.264675 232.591897 
L 320.711809 233.493638 
M 348.210507 260.899247 
L 348.434073 259.583193 
L 348.65764 259.70505 
M 353.35254 258.328067 
L 353.576106 256.829228 
M 354.246806 254.172748 
L 354.470373 253.258821 
L 354.693939 251.723425 
L 354.917506 251.004469 
L 355.141073 250.931355 
L 355.364639 250.1271 
L 355.588206 250.626713 
L 355.811773 250.151471 
L 356.035339 250.638899 
L 356.258906 250.236771 
L 356.482473 250.114914 
L 356.929606 249.517816 
L 357.153173 247.824005 
M 366.766538 262.848957 
L 366.990105 262.398086 
L 367.213672 261.532903 
L 367.437238 261.630388 
L 367.660805 261.130775 
L 367.884372 262.361529 
M 422.658201 301.465398 
L 422.881767 300.393057 
M 423.328901 300.697699 
L 423.552467 300.380872 
L 423.776034 301.611626 
M 445.238432 289.17004 
L 445.461999 288.987255 
L 445.685566 289.986481 
L 445.909132 290.41298 
L 446.132699 289.913367 
M 456.193198 287.476229 
L 456.416765 287.464044 
M 457.311031 286.013947 
L 457.534598 285.282806 
L 457.981731 286.842574 
L 458.205298 286.208918 
M 465.135864 287.988028 
L 465.359431 285.965204 
M 532.876559 322.680678 
L 533.100126 323.765204 
M 533.994392 323.302148 
L 534.217959 322.266365 
L 534.441525 322.156694 
L 534.665092 320.58474 
L 534.888659 320.67004 
L 535.112225 319.378357 
M 550.985458 321.072168 
L 551.209024 321.644895 
M 556.79819 320.938125 
L 557.021757 321.12091 
L 557.245324 321.632709 
L 557.46889 320.49944 
L 557.692457 321.523038 
L 557.692457 321.523038 
" clip-path="url(#p90ebd6be66)" style="fill: none; stroke: #ff4500; stroke-linecap: square"/>
   </g>
   <g id="line2d_20">
    <path d="M 72.329261 37.438125 
L 72.552828 37.767139 
L 72.776395 46.601761 
L 72.999961 43.482226 
L 73.223528 54.278744 
L 73.447095 58.616848 
M 76.800594 81.026326 
L 77.024161 80.246442 
L 77.247728 81.769653 
L 77.471294 79.210659 
L 77.694861 78.540446 
L 77.918428 80.880098 
L 78.141994 74.957854 
L 78.365561 74.09267 
L 78.589128 71.009692 
L 78.812694 72.155146 
L 79.036261 78.16269 
L 79.259827 80.014914 
L 79.483394 79.722458 
L 79.706961 74.397313 
L 79.930527 81.27004 
L 80.154094 82.415494 
L 80.377661 82.561723 
L 80.601227 88.934837 
L 80.824794 86.997313 
L 81.048361 89.51975 
M 81.719061 84.864817 
L 82.166194 73.5565 
L 82.389761 68.877197 
L 82.613327 72.374489 
L 83.284027 75.213754 
L 83.507594 74.17797 
L 83.954727 86.193057 
L 84.178294 87.886868 
L 84.40186 97.318589 
L 84.625427 99.499827 
L 84.848994 98.30563 
M 86.861094 98.074102 
L 87.08466 104.885901 
L 87.308227 104.337545 
L 87.531794 110.454759 
L 87.75536 112.623812 
M 88.42606 116.596346 
L 88.649627 120.971007 
M 89.09676 123.761529 
L 89.320327 128.745475 
L 89.543893 126.686094 
L 89.76746 120.069266 
M 90.214593 113.781452 
L 90.43816 112.221684 
L 90.885293 122.664817 
L 91.332427 120.715108 
L 91.77956 116.961916 
L 92.003127 115.353405 
L 92.226693 116.986287 
L 92.45026 116.169846 
L 92.673826 114.914721 
L 92.897393 111.929228 
L 93.12096 113.050311 
L 93.344526 113.281839 
L 93.568093 112.026713 
L 93.79166 112.989382 
L 94.015226 115.048763 
L 94.238793 114.110465 
M 94.685926 113.172168 
L 94.909493 109.431162 
L 95.13306 110.150117 
L 95.356626 111.393057 
L 95.580193 114.341993 
L 95.80376 113.525552 
L 96.250893 119.496539 
L 96.474459 117.522458 
L 96.921593 125.211626 
L 97.145159 124.334257 
L 97.592293 117.607757 
L 97.815859 119.057854 
L 98.039426 122.384547 
M 99.157259 125.954953 
L 99.380826 126.564237 
L 99.604393 122.993831 
L 99.827959 125.248183 
L 100.051526 124.943541 
L 100.275093 129.878744 
L 100.498659 130.96327 
L 100.722226 129.72033 
L 100.945792 126.600794 
L 101.392926 124.870427 
L 101.616492 126.064624 
L 101.840059 122.750117 
L 102.063626 125.577197 
L 102.510759 123.456887 
L 102.734326 123.993057 
L 103.181459 116.49886 
M 106.311392 113.038125 
L 106.534959 110.174489 
L 106.758525 108.907177 
L 107.205659 113.84238 
L 107.429225 115.79209 
L 107.652792 122.396732 
L 107.876359 124.139286 
L 108.099925 120.459208 
L 108.323492 124.919169 
L 108.547059 124.736384 
L 108.770625 122.945088 
L 108.994192 124.967912 
L 109.217758 121.702148 
L 109.441325 124.114914 
M 110.112025 122.79886 
L 110.335592 126.44238 
M 110.782725 125.211626 
L 111.006292 122.993831 
L 111.229858 124.712013 
L 111.676992 122.518589 
L 111.900558 122.055533 
L 112.124125 129.842187 
L 112.347692 123.578744 
L 112.571258 125.918396 
L 113.018392 122.445475 
L 113.465525 127.271007 
L 113.689091 126.78358 
L 113.912658 124.626713 
L 114.136225 128.148376 
L 114.359791 129.159788 
L 114.583358 126.405823 
L 114.806925 126.186481 
L 115.030491 129.915301 
L 115.477625 118.862883 
L 115.701191 117.851471 
L 115.924758 118.351084 
L 116.148325 114.341993 
L 116.371891 116.66946 
M 118.607558 113.720523 
L 118.831124 113.878937 
L 119.054691 110.795959 
L 119.501824 114.451665 
L 119.725391 115.073135 
L 120.396091 109.638318 
L 120.843224 119.106597 
L 121.066791 115.79209 
L 121.290358 107.62768 
L 121.737491 110.82033 
L 121.961058 119.289382 
L 122.184624 122.335804 
L 122.408191 123.651858 
L 122.631757 128.806404 
L 122.855324 125.577197 
L 123.078891 131.243541 
L 123.302457 130.390543 
M 123.749591 132.425552 
L 123.973157 135.435417 
L 124.196724 132.145282 
M 125.090991 135.886287 
L 125.314557 137.848183 
L 125.538124 138.372168 
L 125.761691 137.360756 
L 126.208824 142.746829 
L 126.43239 142.612787 
L 126.879524 143.782612 
M 130.009457 153.59209 
L 130.233024 146.999634 
L 130.45659 145.915108 
L 130.680157 142.161916 
L 130.903723 148.218202 
L 131.12729 149.936384 
L 131.350857 155.3712 
L 131.574423 164.717622 
L 131.79799 157.32091 
L 132.021557 160.160175 
L 132.245123 160.172361 
L 132.46869 170.773908 
L 132.915823 161.098473 
L 133.13939 164.656694 
L 133.362957 165.339092 
L 133.586523 169.141026 
L 134.033657 164.997893 
L 134.257223 164.961336 
L 134.704357 171.687835 
L 134.927923 171.492864 
L 135.15149 171.50505 
L 135.598623 177.293251 
L 135.82219 176.549924 
M 137.610723 179.913173 
L 137.83429 180.022845 
L 138.057856 178.511819 
L 138.281423 177.780678 
L 138.50499 178.036578 
L 138.728556 179.32826 
L 138.952123 177.46385 
L 139.17569 178.08532 
L 139.399256 179.888802 
L 139.846389 178.670233 
L 140.069956 180.071587 
L 140.517089 186.664044 
L 140.740656 185.469846 
L 140.964223 181.302342 
L 141.187789 184.007564 
L 141.411356 184.10505 
L 141.634923 185.518589 
L 141.858489 187.809498 
M 143.423456 190.429421 
L 143.647022 192.293831 
L 143.870589 187.980098 
L 144.094156 186.810272 
L 144.317722 186.615301 
L 144.541289 185.786674 
L 144.764856 184.507177 
L 144.988422 181.935997 
L 145.211989 182.338125 
M 145.659122 183.971007 
L 145.882689 184.909305 
L 146.106256 181.692284 
M 146.776956 184.141607 
L 147.000522 187.224585 
L 147.224089 184.153792 
L 147.447656 183.495765 
L 147.671222 179.730388 
L 147.894789 179.803502 
L 148.118355 186.724972 
L 148.341922 190.015108 
L 148.565489 186.785901 
L 148.789055 185.433289 
L 149.012622 193.938899 
M 151.471855 204.650117 
L 151.695422 205.990543 
M 152.142555 207.879324 
L 152.366122 209.183193 
L 152.589688 205.624972 
L 152.813255 205.9418 
L 153.036822 206.843541 
L 153.260388 205.137545 
M 154.154655 203.943347 
L 154.378222 207.63561 
L 154.601788 205.076616 
L 154.825355 206.514527 
L 155.272488 204.369846 
L 155.496055 207.416268 
L 155.719622 203.638705 
L 156.166755 209.512206 
L 156.390322 208.42768 
L 156.613888 202.883193 
L 156.837455 204.272361 
L 157.061021 197.94799 
L 157.284588 198.142961 
L 157.508155 196.266365 
L 157.731721 197.058434 
L 157.955288 195.839866 
L 158.178855 198.289189 
L 158.402421 198.447603 
L 158.625988 196.217622 
L 158.849555 198.447603 
L 159.073121 197.813947 
M 159.743821 197.533676 
L 159.967388 198.155146 
L 160.190955 197.533676 
L 161.085221 204.771974 
M 162.426621 206.782612 
L 162.873754 204.004276 
L 163.097321 204.711046 
L 163.320888 204.808531 
L 163.991588 215.726906 
M 164.438721 221.039866 
L 164.662288 225.280485 
M 170.698587 243.278744 
L 171.14572 244.850698 
L 171.369287 243.619943 
L 171.592854 243.461529 
L 171.81642 241.70679 
L 172.039987 242.620717 
L 172.263554 243.03503 
L 172.48712 246.922264 
L 172.710687 230.483773 
M 173.604953 229.825746 
L 173.82852 231.324585 
L 174.052087 237.2712 
L 174.275653 239.830195 
L 174.49922 237.709885 
L 174.722787 238.294798 
L 174.946353 237.478357 
L 175.393487 250.687641 
L 175.617053 250.675456 
L 175.84062 249.359402 
M 177.18202 253.271007 
L 177.629153 248.372361 
L 177.85272 252.454566 
L 178.076286 253.794992 
L 178.970553 235.540833 
M 180.53552 240.268879 
L 180.759086 233.847022 
M 181.87692 233.822651 
L 182.100486 227.644508 
L 182.324053 231.093057 
L 182.547619 238.112013 
L 182.771186 238.124199 
L 182.994753 246.532322 
L 183.218319 244.838512 
L 183.441886 249.444701 
L 183.665453 241.060949 
L 183.889019 240.63445 
L 184.112586 244.923812 
L 184.336153 239.757081 
L 184.783286 246.702922 
M 185.230419 256.622071 
L 185.453986 250.992284 
L 185.677553 253.721877 
L 185.901119 235.248376 
L 186.124686 247.226906 
L 186.348253 224.524972 
L 186.571819 249.42033 
L 186.795386 226.669653 
L 187.018952 216.811433 
L 187.242519 228.509692 
L 187.466086 212.851084 
L 187.689652 209.21975 
L 187.913219 198.374489 
L 188.136786 209.402535 
L 188.360352 198.654759 
L 188.583919 212.4124 
L 188.807486 210.791703 
L 189.031052 200.567912 
L 189.254619 198.142961 
L 189.478186 193.707371 
M 189.925319 185.811046 
L 190.148886 184.507177 
M 190.596019 187.480485 
L 190.819585 187.882612 
L 191.043152 186.700601 
L 191.266719 186.834643 
L 191.490285 187.102728 
M 192.384552 189.576423 
L 192.608119 191.538318 
L 192.831685 190.368493 
L 193.055252 186.164431 
L 193.278819 190.283193 
L 193.502385 190.85592 
L 193.725952 192.781258 
L 194.173085 184.336578 
L 194.396652 184.141607 
L 194.620219 185.250504 
L 194.843785 183.337351 
L 195.067352 183.910079 
L 195.514485 187.029614 
L 195.738052 185.469846 
L 195.961618 187.699827 
L 196.185185 185.226133 
L 196.408752 188.467525 
L 196.632318 188.552825 
L 196.855885 187.248957 
L 197.079452 188.235997 
L 197.303018 185.542961 
L 197.526585 187.846055 
L 197.750152 188.747796 
L 198.197285 187.906984 
L 198.420852 189.101181 
L 198.644418 189.088995 
L 198.867985 188.077583 
L 199.091552 189.418009 
L 199.315118 189.661723 
L 199.538685 187.175843 
L 199.762251 187.419556 
L 199.985818 189.223038 
L 200.209385 188.552825 
M 200.656518 194.231355 
L 200.880085 194.085127 
L 201.103651 192.586287 
M 201.997918 195.364624 
L 202.221485 195.401181 
L 202.445051 195.157467 
M 203.562885 198.837545 
L 203.786451 196.948763 
L 204.233584 196.08358 
L 204.457151 196.546636 
L 204.680718 196.047022 
L 204.904284 194.682226 
L 205.127851 194.730968 
L 205.351418 194.170427 
L 205.574984 192.427874 
L 205.798551 193.329614 
L 206.022118 194.694411 
L 206.692818 204.808531 
L 206.916384 203.99209 
M 210.717017 211.315688 
L 210.940584 210.29209 
L 211.387717 216.360562 
L 211.611284 211.961529 
L 211.834851 210.365204 
L 212.281984 211.730001 
L 212.50555 210.255533 
L 212.729117 212.339286 
L 212.952684 210.438318 
L 213.17625 210.243347 
L 213.399817 208.902922 
L 213.623384 206.855727 
L 213.84695 207.769653 
L 214.070517 207.550311 
M 214.741217 206.843541 
L 215.18835 212.0712 
L 215.411917 214.374295 
L 215.635484 214.971394 
L 216.082617 219.041413 
L 216.306184 215.982806 
L 216.52975 216.238705 
M 218.094717 222.392477 
L 218.318283 218.99267 
L 218.765417 222.197506 
L 218.988983 225.243928 
L 219.21255 221.624779 
L 219.436117 223.550117 
L 219.88325 219.504469 
L 220.106817 222.319363 
L 220.330383 219.467912 
L 220.55395 222.904276 
L 220.777517 216.884547 
L 221.001083 218.054373 
L 221.448216 210.621104 
L 221.671783 209.646249 
L 221.89535 208.074295 
L 222.118916 210.511433 
L 222.342483 210.426133 
L 222.789616 214.240253 
L 223.013183 212.86327 
L 223.23675 210.413947 
L 223.460316 211.059788 
M 224.354583 204.089576 
L 224.801716 202.164237 
L 225.025283 201.701181 
M 226.366683 205.49093 
L 226.590249 209.768106 
M 229.273049 211.413173 
L 230.167316 218.200601 
L 230.390882 221.892864 
M 230.838016 220.454953 
L 231.061582 221.941607 
L 231.285149 220.503696 
L 231.508716 218.078744 
L 231.732282 218.553986 
L 232.179416 216.043734 
L 232.402982 216.811433 
L 232.626549 216.153405 
L 232.850116 214.496152 
L 233.073682 216.50679 
L 233.297249 215.641607 
L 233.520816 214.033096 
M 235.980049 202.810079 
L 236.427182 207.257854 
L 236.650749 205.990543 
L 236.874315 208.573908 
L 237.321449 207.501568 
L 237.545015 205.759015 
L 237.768582 208.269266 
M 241.345648 219.467912 
L 241.569215 214.739866 
L 241.792782 216.153405 
L 242.239915 211.998086 
L 242.463481 214.886094 
L 242.687048 216.019363 
L 242.910615 215.190736 
L 243.134181 217.091703 
L 243.357748 217.591316 
L 243.581315 221.722264 
L 243.804881 220.991123 
L 244.252015 218.346829 
L 244.475581 217.932516 
L 244.699148 216.324005 
L 244.922715 218.553986 
L 245.146281 217.347603 
L 245.369848 217.822845 
L 245.593415 217.323231 
L 245.816981 217.810659 
L 246.040548 213.643154 
L 246.264115 212.631742 
L 246.487681 213.204469 
M 246.934814 216.750504 
L 247.158381 213.070427 
L 247.381948 212.643928 
L 247.829081 219.017042 
L 248.052648 218.030001 
L 248.276214 212.814527 
L 248.499781 210.608918 
L 248.946914 208.939479 
L 249.170481 213.387255 
L 249.394048 212.875456 
L 249.617614 217.640059 
L 249.841181 218.980485 
L 250.064748 216.787061 
L 250.288314 218.895185 
L 250.511881 218.736771 
L 250.735448 219.260756 
L 250.959014 214.678937 
L 251.182581 221.624779 
L 251.406147 222.075649 
M 252.747547 224.634643 
L 252.971114 223.903502 
M 253.641814 216.726133 
L 253.865381 215.044508 
L 254.536081 223.099247 
L 254.759647 235.053405 
L 254.983214 229.764817 
L 256.101047 220.138125 
L 256.324614 217.189189 
L 256.54818 217.116075 
L 256.771747 217.359788 
L 256.995314 216.165591 
L 257.21888 214.19151 
L 257.666014 207.80621 
M 259.007414 207.18474 
L 259.23098 211.522845 
L 259.454547 206.904469 
L 259.678113 207.087255 
L 259.90168 198.277003 
L 260.125247 197.704276 
L 260.57238 200.604469 
L 260.795947 198.301375 
L 261.019513 201.347796 
L 261.466647 192.817816 
L 261.690213 194.255727 
L 262.137347 200.34857 
L 262.360913 212.132129 
L 262.808047 213.704082 
M 264.149446 215.26385 
L 264.373013 212.595185 
L 264.59658 208.159595 
L 264.820146 209.536578 
L 265.043713 207.318783 
L 265.26728 208.159595 
L 265.490846 214.008725 
L 265.714413 211.851858 
L 265.93798 213.813754 
L 266.161546 204.174875 
M 267.27938 200.153599 
L 267.502946 201.50621 
L 267.95008 202.944121 
L 268.173646 199.788028 
L 268.397213 200.506984 
L 268.620779 198.142961 
L 268.844346 198.045475 
M 269.291479 193.719556 
L 269.515046 194.609111 
L 269.962179 200.287641 
L 270.185746 200.190156 
L 270.409313 201.993638 
L 270.632879 202.359208 
L 270.856446 201.737738 
L 271.080013 201.725552 
L 271.527146 204.442961 
M 275.104212 213.03387 
L 275.327779 213.838125 
L 275.551346 212.059015 
L 275.774912 209.04915 
L 276.222046 209.512206 
L 276.445612 212.753599 
L 276.669179 219.845669 
M 279.799112 229.886674 
L 280.246245 232.372554 
L 280.469812 232.433483 
M 282.705478 236.661916 
L 282.929045 236.308531 
L 283.152612 233.652051 
L 283.376178 233.71298 
L 284.046878 230.9712 
L 284.494012 229.27739 
M 286.058978 231.385514 
L 286.282545 230.739672 
L 286.506111 229.606404 
L 286.729678 230.459402 
L 286.953245 227.32768 
L 287.176811 232.482226 
L 287.400378 227.266752 
L 287.623945 226.438125 
L 287.847511 225.073328 
L 288.071078 222.416848 
L 288.294645 222.684934 
L 288.518211 224.939286 
L 288.741778 223.196732 
L 288.965345 222.782419 
L 289.188911 223.355146 
L 289.412478 221.137351 
L 289.636044 220.991123 
M 290.083178 220.296539 
L 290.306744 224.719943 
L 290.530311 223.720717 
L 290.753878 225.451084 
L 290.977444 230.361916 
L 291.424578 226.096926 
L 291.648144 227.778551 
L 291.871711 223.51356 
L 292.318844 224.037545 
L 292.542411 224.037545 
L 292.765978 220.844895 
L 292.989544 219.979711 
L 293.213111 219.675069 
L 293.436678 220.735224 
L 293.660244 221.02768 
L 294.107377 223.793831 
L 294.330944 222.416848 
L 294.554511 225.962883 
L 294.778077 222.818976 
L 295.001644 225.828841 
L 295.225211 225.63387 
L 295.448777 219.102342 
L 295.672344 220.004082 
L 296.119477 226.230968 
L 296.343044 220.771781 
L 296.566611 224.195959 
L 296.790177 224.829614 
L 297.013744 220.94238 
L 297.237311 229.326133 
L 297.684444 214.252438 
L 297.908011 214.349924 
L 298.131577 215.276036 
L 298.355144 211.656887 
L 298.57871 210.608918 
L 298.802277 211.62033 
L 299.025844 209.012593 
M 299.472977 204.369846 
L 299.696544 213.691897 
L 299.92011 214.89828 
L 300.143677 214.593638 
L 300.59081 218.505243 
L 300.814377 218.273715 
L 301.037944 211.364431 
L 301.26151 208.366752 
L 301.485077 207.196926 
L 301.708644 216.774875 
L 301.93221 219.24857 
L 302.155777 218.895185 
L 302.379343 216.421491 
L 302.60291 215.51975 
L 302.826477 215.385707 
L 303.27361 222.587448 
L 303.497177 221.490736 
L 303.720743 224.988028 
L 303.94431 230.593444 
L 304.167877 219.687255 
L 304.391443 218.6271 
L 304.61501 224.037545 
L 305.062143 199.117816 
L 305.28571 202.615108 
L 305.509277 202.578551 
L 305.732843 201.299053 
L 305.95641 199.19093 
L 306.179977 201.737738 
L 306.403543 201.116268 
L 306.62711 201.177197 
M 307.29781 204.065204 
L 307.521376 202.883193 
L 307.744943 207.599053 
L 307.96851 207.757467 
M 311.769143 220.94238 
L 312.216276 224.208144 
L 312.439843 223.306404 
L 312.663409 221.271394 
L 312.886976 224.159402 
L 313.110543 224.476229 
L 313.334109 224.598086 
L 313.557676 225.000214 
L 313.781243 224.9271 
L 314.004809 223.842574 
L 314.451943 228.65592 
M 317.805442 238.904082 
L 318.029009 236.832516 
L 318.252576 236.36946 
M 320.935375 235.723618 
L 321.158942 234.943734 
L 321.382509 235.504276 
L 321.606075 234.809692 
L 321.829642 235.528647 
L 322.053209 236.832516 
L 322.276775 235.418976 
L 322.500342 234.760949 
L 322.723909 235.370233 
L 322.947475 235.455533 
L 323.171042 235.833289 
M 323.618175 237.600214 
L 323.841742 237.917042 
M 327.865942 248.421104 
L 328.089508 248.189576 
L 328.313075 243.619943 
L 328.536641 243.095959 
L 328.760208 244.082999 
L 328.983775 246.191123 
L 329.207341 246.093638 
L 329.430908 244.996926 
L 329.654475 246.422651 
L 329.878041 244.53387 
L 330.101608 243.961142 
L 330.325175 246.532322 
L 330.772308 247.970233 
L 330.995875 246.288609 
L 331.219441 247.592477 
L 331.443008 247.811819 
L 331.666575 250.188028 
L 331.890141 248.945088 
L 332.113708 246.873522 
L 332.337275 248.859788 
L 332.784408 244.606984 
L 333.231541 247.129421 
L 333.678674 250.638899 
L 334.125808 252.978551 
L 334.572941 253.112593 
L 334.796508 255.025746 
L 335.020074 255.062303 
M 337.255741 255.306017 
L 337.479307 256.451471 
L 337.702874 254.440833 
L 337.926441 254.501761 
L 338.150007 257.462883 
L 338.373574 257.548183 
L 338.597141 256.829228 
L 338.820707 259.924392 
L 339.044274 259.753792 
L 339.267841 260.082806 
L 340.162107 254.806404 
L 340.385674 256.110272 
L 340.609241 256.024972 
L 340.832807 254.92826 
L 341.056374 254.903889 
L 341.503507 256.695185 
L 341.727074 260.424005 
L 342.174207 261.411046 
L 342.397774 260.935804 
L 342.62134 261.216075 
L 342.844907 260.765204 
M 345.30414 264.481839 
L 345.527707 264.250311 
L 345.751273 264.835224 
L 345.97484 264.896152 
L 346.198407 264.347796 
L 346.421973 264.664624 
L 346.869107 260.899247 
L 347.092673 261.155146 
L 347.31624 260.679904 
L 347.763373 262.251858 
L 347.98694 262.532129 
M 348.881207 261.837545 
L 349.104773 264.725552 
L 349.32834 262.8124 
L 349.551907 265.517622 
L 349.99904 263.580098 
L 350.222606 265.347022 
L 350.446173 262.653986 
L 350.893306 261.142961 
L 351.116873 261.362303 
L 351.34044 260.996732 
L 351.564006 261.776616 
L 351.787573 260.521491 
L 352.01114 260.509305 
L 352.234706 260.740833 
L 352.458273 259.912206 
L 352.68184 260.850504 
M 353.799673 257.548183 
L 354.023239 257.341026 
M 357.376739 254.964817 
L 357.823873 256.4271 
L 358.047439 256.5124 
M 361.848072 263.031742 
L 362.071639 263.519169 
L 362.295206 262.885514 
L 362.518772 263.701955 
M 363.189472 268.624972 
L 363.413039 269.599827 
L 363.636605 268.283773 
L 363.860172 269.319556 
L 364.083739 266.565591 
L 364.307305 267.16269 
L 364.530872 266.163463 
L 364.754439 267.089576 
L 364.978005 266.419363 
L 365.201572 264.725552 
L 365.425139 264.859595 
L 365.648705 263.909111 
L 365.872272 264.213754 
L 366.095839 265.249537 
L 366.319405 265.164237 
L 366.542972 264.311239 
M 368.107938 263.080485 
L 368.331505 261.898473 
L 368.555072 262.714914 
L 368.778638 260.813947 
L 369.002205 261.423231 
L 369.449338 263.872554 
L 369.672905 263.165785 
L 369.896472 267.24799 
L 370.120038 268.624972 
M 373.026405 271.976036 
L 373.249971 271.403309 
L 373.697105 273.682032 
M 377.274171 287.330001 
L 377.721304 288.621684 
L 377.944871 288.158628 
L 378.168438 289.328454 
L 378.392004 287.269073 
L 378.615571 288.438899 
L 378.839138 286.915688 
L 379.286271 288.536384 
L 379.509838 288.195185 
L 379.733404 289.389382 
L 380.180537 287.805243 
L 380.404104 288.877583 
L 380.627671 286.818202 
L 380.851237 286.745088 
L 381.074804 288.158628 
L 381.298371 287.159402 
L 381.521937 285.294992 
L 381.745504 285.380291 
L 381.969071 287.256887 
L 382.192637 286.866945 
L 382.416204 287.147216 
L 382.639771 285.136578 
L 382.863337 286.208918 
L 383.086904 285.660562 
L 383.310471 282.321684 
L 383.534037 285.18532 
L 383.757604 281.334643 
L 383.98117 281.578357 
L 384.204737 280.542574 
L 384.428304 280.189189 
L 384.65187 280.640059 
L 384.875437 280.46946 
L 385.099004 280.786287 
L 385.546137 283.613367 
L 385.769704 282.723812 
L 385.99327 283.004082 
L 386.216837 282.565398 
L 386.440404 282.95534 
L 386.66397 282.589769 
L 386.887537 282.516655 
L 387.111104 282.187641 
M 387.558237 283.771781 
L 388.00537 283.820523 
M 388.452503 284.454179 
L 388.67607 286.477003 
M 391.135303 287.646829 
L 391.35887 287.951471 
L 391.582437 285.733676 
L 391.806003 284.81975 
L 392.02957 285.246249 
M 392.923836 287.561529 
L 393.147403 288.46327 
L 393.37097 288.804469 
L 393.594536 290.924779 
L 393.818103 290.193638 
L 394.04167 290.534837 
L 394.265236 288.426713 
L 394.488803 287.415301 
L 394.71237 290.668879 
M 395.606636 285.965204 
L 395.830203 288.451084 
L 396.05377 288.950698 
L 396.500903 292.36269 
L 396.72447 290.827293 
L 396.948036 292.703889 
L 397.171603 291.668106 
L 397.395169 292.10679 
L 397.842303 290.534837 
L 398.065869 290.169266 
L 398.289436 291.534063 
L 398.513003 291.03445 
L 398.736569 291.863077 
L 398.960136 290.681065 
L 399.183703 290.827293 
L 399.407269 292.594218 
L 399.630836 289.17004 
L 399.854403 289.53561 
L 400.077969 288.280485 
L 400.301536 288.731355 
L 400.525103 291.448763 
L 400.748669 291.022264 
L 400.972236 292.289576 
L 401.195802 291.460949 
L 401.419369 292.837932 
L 401.642936 290.997893 
L 401.866502 291.546249 
L 402.090069 289.218783 
L 402.313636 289.754953 
L 402.537202 287.427487 
L 402.760769 289.70621 
L 402.984336 287.622458 
L 403.207902 288.524199 
L 403.431469 288.085514 
L 403.655036 287.366558 
L 403.878602 284.856307 
L 404.102169 286.574489 
L 404.325736 285.855533 
M 404.772869 284.697893 
L 404.996436 285.721491 
L 405.220002 285.80679 
L 405.443569 287.330001 
L 405.667135 285.831162 
L 405.890702 286.001761 
L 406.337835 289.048183 
L 406.784969 288.329228 
L 407.232102 292.045862 
M 408.349935 289.328454 
L 408.573502 288.63387 
L 408.797069 290.961336 
L 409.020635 290.254566 
L 409.467769 291.680291 
L 409.691335 293.118202 
L 410.138468 290.595765 
L 410.585602 290.620137 
L 410.809168 290.32768 
L 411.032735 293.459402 
L 411.256302 292.764817 
L 411.479868 293.593444 
L 411.703435 292.460175 
L 411.927002 294.93387 
L 412.150568 294.3124 
L 412.374135 295.933096 
L 412.597702 294.812013 
L 413.044835 297.102922 
M 417.069035 309.629808 
L 417.292601 308.557467 
L 417.516168 310.01975 
L 417.739735 310.677777 
L 417.963301 307.070814 
L 418.186868 305.718202 
L 418.410434 310.300021 
L 418.634001 311.299247 
L 418.857568 310.446249 
L 419.081134 312.59093 
L 419.304701 309.044895 
L 419.751834 311.737932 
L 419.975401 308.167525 
L 420.198968 310.141607 
L 420.422534 307.789769 
L 420.646101 310.007564 
L 420.869668 306.900214 
L 421.093234 307.436384 
L 421.316801 307.472941 
L 421.540368 306.071587 
L 421.763934 303.817235 
L 421.987501 303.914721 
L 422.211068 304.524005 
L 422.434634 302.952051 
M 423.999601 303.987835 
L 424.223167 306.010659 
L 424.446734 300.600214 
L 424.670301 298.272748 
L 424.893867 299.491316 
L 425.341001 305.060175 
L 425.564567 303.354179 
L 425.788134 303.354179 
L 426.458834 297.541607 
L 426.682401 302.196539 
L 426.905967 299.016075 
L 427.129534 297.602535 
L 427.3531 300.453986 
L 428.470934 297.358821 
L 428.6945 297.358821 
L 428.918067 297.858434 
L 429.141634 301.672554 
L 429.3652 301.416655 
L 429.588767 303.049537 
L 429.812334 302.050311 
L 430.0359 299.393831 
L 430.259467 299.674102 
L 430.483034 300.563657 
L 430.7066 297.724392 
L 430.930167 297.431935 
L 431.3773 295.762496 
L 431.600867 295.201955 
L 431.824433 298.102148 
L 432.048 295.823425 
L 432.271567 295.494411 
L 432.495133 298.57739 
L 432.942267 295.957467 
L 433.165833 296.554566 
L 433.3894 301.51414 
L 433.612967 300.368686 
L 433.836533 301.026713 
L 434.0601 300.795185 
L 434.283667 300.807371 
L 434.507233 304.000021 
L 434.954367 301.294798 
L 435.177933 301.745669 
L 435.4015 300.868299 
L 435.848633 303.987835 
L 436.0722 302.537738 
M 436.519333 305.58416 
L 436.7429 304.950504 
L 436.966466 306.888028 
L 437.190033 307.119556 
L 437.4136 305.876616 
L 437.637166 306.863657 
L 437.860733 306.461529 
L 438.0843 306.29093 
L 438.307866 304.243734 
L 438.531433 306.534643 
L 438.755 303.646636 
L 438.978566 302.294024 
L 439.202133 302.683966 
L 439.4257 304.34122 
L 439.649266 303.768493 
L 439.872833 304.633676 
L 440.096399 304.718976 
L 440.319966 301.904082 
L 440.543533 305.876616 
L 440.767099 302.818009 
L 440.990666 302.732709 
L 441.214233 304.938318 
L 441.437799 300.514914 
L 441.661366 298.443347 
L 441.884933 297.846249 
L 442.332066 308.191897 
L 442.555633 305.961916 
L 443.002766 295.21414 
L 443.226333 292.679518 
L 443.673466 290.425166 
L 443.897033 290.120523 
L 444.344166 291.302535 
L 444.791299 289.08474 
L 445.014866 288.926326 
M 446.356266 289.779324 
L 446.579832 289.694024 
L 446.803399 289.328454 
L 447.026966 292.374875 
L 447.250532 291.729034 
L 448.144799 287.7565 
L 448.368365 288.524199 
L 448.591932 288.475456 
L 449.039065 291.887448 
L 449.262632 291.558434 
L 449.709765 295.38474 
M 450.156899 295.153212 
L 450.380465 297.041993 
L 450.604032 296.432709 
M 451.498299 293.52033 
L 451.721865 293.922458 
L 451.945432 293.142574 
L 452.168999 291.631549 
L 452.392565 291.387835 
L 452.616132 292.082419 
L 452.839698 289.998667 
L 453.063265 293.288802 
L 453.510398 293.983386 
L 453.957532 291.594992 
L 454.181098 292.204276 
L 454.404665 293.703115 
L 454.628232 293.837158 
L 454.851798 292.326133 
L 455.075365 291.582806 
L 455.298932 289.365011 
L 455.522498 289.559982 
L 455.746065 289.17004 
L 455.969632 289.596539 
M 456.640332 288.828841 
L 457.087465 286.830388 
M 458.428865 288.061142 
L 458.652431 287.415301 
L 458.875998 285.733676 
M 459.323131 286.781645 
L 459.546698 288.646055 
L 459.770265 287.695572 
L 459.993831 285.758048 
L 460.440965 291.777777 
L 460.664531 290.315494 
L 460.888098 290.181452 
L 461.111665 291.924005 
L 461.335231 290.705436 
L 461.558798 290.291123 
L 461.782364 290.827293 
L 462.005931 291.863077 
L 462.229498 290.705436 
L 462.453064 292.399247 
L 462.676631 290.693251 
L 462.900198 289.949924 
L 463.123764 289.901181 
L 463.347331 289.035997 
L 463.570898 288.987255 
L 463.794464 288.804469 
L 464.241598 289.523425 
L 464.465164 288.670427 
L 464.912298 289.048183 
M 465.582997 288.512013 
L 465.806564 289.559982 
L 466.253697 288.024585 
L 466.477264 286.477003 
L 466.700831 286.51356 
L 466.924397 287.30563 
L 467.147964 285.940833 
L 467.371531 287.464044 
L 467.595097 285.965204 
L 467.818664 288.414527 
L 468.042231 286.342961 
L 468.265797 289.060369 
L 468.489364 289.365011 
L 468.712931 285.782419 
L 468.936497 286.818202 
L 469.160064 285.867719 
L 469.383631 287.256887 
L 469.830764 284.624779 
L 470.05433 284.222651 
L 470.277897 283.089382 
L 470.501464 282.553212 
L 470.72503 282.346055 
L 470.948597 284.271394 
L 471.172164 282.626326 
L 471.39573 284.137351 
L 471.619297 282.687255 
L 471.842864 282.07797 
L 472.06643 283.089382 
L 472.289997 281.322458 
L 472.513564 281.4565 
L 472.73713 281.164044 
L 472.960697 282.126713 
L 473.184264 280.847216 
L 473.40783 281.468686 
L 473.631397 284.076423 
L 473.854964 283.150311 
L 474.07853 285.051278 
L 474.302097 288.487641 
L 474.525663 285.587448 
L 474.74923 287.427487 
L 475.196363 281.432129 
L 475.41993 282.138899 
L 475.643497 280.883773 
L 475.867063 284.502922 
L 476.09063 282.735997 
L 476.314197 282.029228 
L 476.537763 284.015494 
L 476.76133 283.723038 
L 476.984897 282.735997 
L 477.208463 283.162496 
L 477.43203 281.7124 
L 477.655597 279.397119 
L 478.10273 284.917235 
L 478.326297 284.722264 
L 478.549863 282.07797 
L 478.77343 280.883773 
L 478.996996 278.51975 
L 479.220563 278.568493 
L 479.44413 279.421491 
L 480.11483 278.751278 
L 480.338396 279.165591 
L 480.561963 277.81298 
L 481.009096 286.818202 
L 481.232663 285.794605 
L 481.45623 285.380291 
L 481.679796 280.908144 
L 481.903363 282.187641 
L 482.350496 278.702535 
L 482.797629 281.00563 
L 483.021196 281.395572 
L 483.244763 281.224972 
L 483.468329 282.87004 
L 483.691896 282.662883 
L 484.586163 285.087835 
M 490.846029 296.432709 
L 491.069596 297.663463 
L 491.516729 296.79828 
L 491.740295 293.325359 
L 491.963862 297.24915 
L 492.187429 294.275843 
L 492.410995 293.861529 
L 492.858129 297.371007 
L 493.081695 295.518783 
L 493.305262 295.287255 
L 493.528829 294.860756 
L 493.752395 296.79828 
L 493.975962 293.313173 
L 494.199529 294.738899 
L 494.423095 294.153986 
L 494.870229 291.692477 
L 495.317362 294.84857 
L 495.764495 296.79828 
L 495.988062 295.786868 
L 496.211628 296.030581 
L 496.435195 297.041993 
L 496.658762 295.348183 
L 497.329462 296.018396 
L 497.553028 295.738125 
L 497.776595 296.603309 
M 498.223728 297.492864 
L 498.447295 297.821877 
L 498.670862 297.846249 
L 498.894428 298.431162 
L 499.117995 297.139479 
L 499.341562 299.454759 
L 499.565128 299.466945 
M 503.589328 307.44857 
L 503.812895 307.716655 
L 504.260028 307.168299 
L 504.483594 307.53387 
L 504.707161 309.678551 
L 504.930728 307.741026 
L 505.377861 306.680872 
L 505.824994 307.326713 
L 506.048561 306.961142 
L 506.272128 307.606984 
L 506.719261 306.29093 
L 506.942828 308.204082 
L 507.389961 309.629808 
L 507.613528 308.703696 
L 507.837094 308.971781 
L 508.060661 308.935224 
L 508.284228 309.361723 
L 508.507794 309.495765 
L 508.731361 309.410465 
L 508.954927 308.788995 
L 509.178494 308.886481 
L 509.402061 310.275649 
L 509.625627 310.129421 
M 510.072761 308.752438 
L 510.296327 307.606984 
L 510.519894 307.570427 
L 510.743461 307.887255 
L 510.967027 307.082999 
L 511.190594 307.631355 
L 511.414161 308.813367 
L 511.637727 309.178937 
L 511.861294 308.021297 
L 512.084861 307.460756 
L 512.308427 307.741026 
L 512.531994 308.533096 
L 512.75556 308.459982 
L 512.979127 309.337351 
L 513.202694 309.118009 
L 513.42626 309.507951 
L 513.649827 310.239092 
L 513.873394 308.935224 
L 514.09696 309.264237 
L 514.320527 309.873522 
L 514.544094 308.447796 
L 514.76766 308.009111 
L 514.991227 308.740253 
L 515.214794 308.679324 
L 515.43836 309.495765 
L 515.661927 308.545282 
L 515.885494 311.932903 
L 516.332627 307.765398 
L 516.556194 306.583386 
L 516.77976 306.839286 
L 517.003327 307.27797 
L 517.45046 308.77681 
L 517.674027 309.154566 
L 517.897593 308.849924 
L 518.12116 308.910852 
L 518.344727 309.702922 
L 518.568293 308.874295 
L 518.79186 310.312206 
L 519.238993 314.833096 
M 520.580393 312.8712 
L 520.80396 312.371587 
L 521.027527 312.176616 
L 521.251093 311.677003 
L 521.47466 311.567332 
L 521.698226 313.322071 
L 521.921793 313.395185 
L 522.14536 313.955727 
L 522.368926 312.176616 
L 522.592493 312.359402 
L 522.81606 311.287061 
L 523.039626 312.213173 
L 523.263193 314.430968 
L 523.48676 313.626713 
L 523.710326 313.529228 
L 523.933893 314.565011 
L 524.381026 311.323618 
L 524.82816 312.627487 
L 525.275293 316.161336 
L 525.49886 318.866558 
M 530.417326 327.859595 
L 530.640892 326.153599 
L 530.864459 328.249537 
L 531.088026 327.359982 
L 531.311592 327.981452 
L 531.535159 327.603696 
L 531.982292 323.399634 
L 532.429426 323.631162 
L 532.652992 323.424005 
M 533.323692 324.922845 
L 533.547259 323.753019 
L 533.770826 323.32652 
M 535.335792 320.012013 
L 535.782925 320.072941 
L 536.230059 321.230581 
L 536.453625 322.98532 
L 536.677192 322.059208 
L 536.900759 322.327293 
L 537.124325 325.385901 
L 537.347892 324.983773 
L 537.571459 324.861916 
L 537.795025 324.471974 
L 538.018592 324.31356 
L 538.465725 321.108725 
L 538.689292 321.693638 
L 538.912858 323.765204 
L 539.136425 323.350891 
L 539.359992 323.972361 
L 539.583558 323.314334 
L 539.807125 321.852051 
L 540.254258 321.791123 
L 540.477825 322.948763 
L 540.701392 321.328067 
L 540.924958 321.986094 
L 541.148525 323.838318 
L 541.372092 322.692864 
L 541.595658 322.61975 
L 541.819225 322.132322 
L 542.489925 324.679131 
L 542.713492 322.924392 
L 542.937058 322.644121 
L 543.160625 325.142187 
L 543.384191 323.826133 
L 543.607758 324.496346 
L 544.054891 323.387448 
L 544.278458 323.60679 
L 544.725591 320.779711 
L 544.949158 321.352438 
L 545.172725 321.242767 
L 545.396291 321.474295 
L 545.619858 321.99828 
L 545.843425 320.682226 
L 546.066991 321.413367 
L 546.290558 321.315881 
L 546.514125 321.37681 
L 546.737691 321.657081 
L 546.961258 324.167332 
L 547.184824 322.497893 
L 547.408391 322.729421 
L 547.631958 323.911433 
M 548.302658 326.324199 
L 548.526224 325.239672 
L 548.749791 325.702728 
L 548.973358 324.435417 
L 549.196924 324.764431 
L 549.420491 325.532129 
L 549.867624 322.753792 
L 550.091191 323.094992 
L 550.314758 323.655533 
L 550.538324 322.936578 
L 550.761891 320.182612 
M 551.432591 323.24122 
L 551.656157 323.911433 
L 551.879724 325.495572 
L 552.103291 325.690543 
L 552.326857 324.593831 
L 552.997557 327.542767 
L 553.221124 327.043154 
L 553.444691 327.274682 
L 553.668257 327.274682 
M 554.786091 325.117816 
L 555.233224 324.021104 
L 555.456791 324.959402 
L 555.680357 323.704276 
L 555.903924 324.56946 
L 556.12749 323.424005 
L 556.351057 323.960175 
L 556.574624 321.803309 
M 557.916024 320.170427 
L 558.13959 319.780485 
L 558.586724 320.938125 
L 558.81029 322.656307 
L 559.033857 322.753792 
L 559.48099 320.865011 
L 559.704557 321.194024 
L 559.928123 321.937351 
L 560.15169 319.804856 
L 560.375257 318.915301 
L 560.598823 318.964044 
L 560.82239 319.378357 
L 561.045957 320.511626 
L 561.269523 321.03561 
L 561.49309 321.023425 
L 561.940223 321.303696 
L 562.16379 323.86269 
L 562.387357 322.741607 
L 562.610923 323.704276 
L 562.83449 323.765204 
L 563.058057 326.604469 
M 564.84659 326.909111 
L 565.070156 328.091123 
L 565.51729 323.509305 
L 565.740856 323.813947 
L 565.964423 324.740059 
L 566.18799 323.728647 
L 566.411556 326.214527 
L 566.635123 325.532129 
L 566.85869 323.533676 
L 567.082256 323.338705 
L 567.52939 327.969266 
L 567.752956 325.6418 
L 567.976523 324.84973 
L 568.20009 324.84973 
L 568.423656 323.911433 
L 568.647223 326.117042 
L 568.870789 327.030968 
L 569.094356 328.797893 
L 569.541489 327.554953 
L 569.765056 326.519169 
L 569.988623 326.153599 
L 570.212189 326.129228 
L 570.435756 327.932709 
L 570.659323 326.43387 
L 570.882889 326.555727 
L 571.106456 327.688995 
L 571.330023 327.59151 
L 571.553589 329.00505 
L 571.777156 328.66385 
L 572.000723 329.931162 
L 572.224289 329.809305 
L 572.447856 331.466558 
M 575.130656 335.694992 
L 575.354222 333.27004 
L 575.577789 336.487061 
L 575.801356 333.416268 
L 576.248489 334.281452 
L 576.472056 335.75592 
L 576.695622 335.58532 
L 576.919189 336.937932 
L 577.142755 335.743734 
L 577.366322 336.82826 
L 577.589889 335.731549 
L 577.813455 337.766558 
L 578.037022 336.877003 
L 578.260589 338.144315 
L 578.484155 337.340059 
L 578.707722 339.070427 
L 578.931289 338.86327 
L 579.154855 339.606597 
L 579.378422 339.143541 
L 579.601989 339.838125 
L 579.601989 339.838125 
" clip-path="url(#p90ebd6be66)" style="fill: none; stroke: #1e90ff; stroke-linecap: square"/>
   </g>
   <g id="patch_3">
    <path d="M 46.965625 354.958125 
L 46.965625 22.318125 
" style="fill: none; stroke: #000000; stroke-width: 0.8; stroke-linejoin: miter; stroke-linecap: square"/>
   </g>
   <g id="patch_4">
    <path d="M 604.965625 354.958125 
L 604.965625 22.318125 
" style="fill: none; stroke: #000000; stroke-width: 0.8; stroke-linejoin: miter; stroke-linecap: square"/>
   </g>
   <g id="patch_5">
    <path d="M 46.965625 354.958125 
L 604.965625 354.958125 
" style="fill: none; stroke: #000000; stroke-width: 0.8; stroke-linejoin: miter; stroke-linecap: square"/>
   </g>
   <g id="patch_6">
    <path d="M 46.965625 22.318125 
L 604.965625 22.318125 
" style="fill: none; stroke: #000000; stroke-width: 0.8; stroke-linejoin: miter; stroke-linecap: square"/>
   </g>
   <g id="text_14">
    <!-- BRK_B, Relative Strength Index (RSI), BRK_B -->
    <g transform="translate(192.84625 16.318125)scale(0.12 -0.12)">
     <defs>
      <path id="DejaVuSans-42" d="M 1259 2228 
L 1259 519 
L 2272 519 
Q 2781 519 3026 730 
Q 3272 941 3272 1375 
Q 3272 1813 3026 2020 
Q 2781 2228 2272 2228 
L 1259 2228 
z
M 1259 4147 
L 1259 2741 
L 2194 2741 
Q 2656 2741 2882 2914 
Q 3109 3088 3109 3444 
Q 3109 3797 2882 3972 
Q 2656 4147 2194 4147 
L 1259 4147 
z
M 628 4666 
L 2241 4666 
Q 2963 4666 3353 4366 
Q 3744 4066 3744 3513 
Q 3744 3084 3544 2831 
Q 3344 2578 2956 2516 
Q 3422 2416 3680 2098 
Q 3938 1781 3938 1306 
Q 3938 681 3513 340 
Q 3088 0 2303 0 
L 628 0 
L 628 4666 
z
" transform="scale(0.015625)"/>
      <path id="DejaVuSans-52" d="M 2841 2188 
Q 3044 2119 3236 1894 
Q 3428 1669 3622 1275 
L 4263 0 
L 3584 0 
L 2988 1197 
Q 2756 1666 2539 1819 
Q 2322 1972 1947 1972 
L 1259 1972 
L 1259 0 
L 628 0 
L 628 4666 
L 2053 4666 
Q 2853 4666 3247 4331 
Q 3641 3997 3641 3322 
Q 3641 2881 3436 2590 
Q 3231 2300 2841 2188 
z
M 1259 4147 
L 1259 2491 
L 2053 2491 
Q 2509 2491 2742 2702 
Q 2975 2913 2975 3322 
Q 2975 3731 2742 3939 
Q 2509 4147 2053 4147 
L 1259 4147 
z
" transform="scale(0.015625)"/>
      <path id="DejaVuSans-4b" d="M 628 4666 
L 1259 4666 
L 1259 2694 
L 3353 4666 
L 4166 4666 
L 1850 2491 
L 4331 0 
L 3500 0 
L 1259 2247 
L 1259 0 
L 628 0 
L 628 4666 
z
" transform="scale(0.015625)"/>
      <path id="DejaVuSans-5f" d="M 3263 -1063 
L 3263 -1509 
L -63 -1509 
L -63 -1063 
L 3263 -1063 
z
" transform="scale(0.015625)"/>
      <path id="DejaVuSans-2c" d="M 750 794 
L 1409 794 
L 1409 256 
L 897 -744 
L 494 -744 
L 750 256 
L 750 794 
z
" transform="scale(0.015625)"/>
      <path id="DejaVuSans-6c" d="M 603 4863 
L 1178 4863 
L 1178 0 
L 603 0 
L 603 4863 
z
" transform="scale(0.015625)"/>
      <path id="DejaVuSans-76" d="M 191 3500 
L 800 3500 
L 1894 563 
L 2988 3500 
L 3597 3500 
L 2284 0 
L 1503 0 
L 191 3500 
z
" transform="scale(0.015625)"/>
      <path id="DejaVuSans-6e" d="M 3513 2113 
L 3513 0 
L 2938 0 
L 2938 2094 
Q 2938 2591 2744 2837 
Q 2550 3084 2163 3084 
Q 1697 3084 1428 2787 
Q 1159 2491 1159 1978 
L 1159 0 
L 581 0 
L 581 3500 
L 1159 3500 
L 1159 2956 
Q 1366 3272 1645 3428 
Q 1925 3584 2291 3584 
Q 2894 3584 3203 3211 
Q 3513 2838 3513 2113 
z
" transform="scale(0.015625)"/>
      <path id="DejaVuSans-67" d="M 2906 1791 
Q 2906 2416 2648 2759 
Q 2391 3103 1925 3103 
Q 1463 3103 1205 2759 
Q 947 2416 947 1791 
Q 947 1169 1205 825 
Q 1463 481 1925 481 
Q 2391 481 2648 825 
Q 2906 1169 2906 1791 
z
M 3481 434 
Q 3481 -459 3084 -895 
Q 2688 -1331 1869 -1331 
Q 1566 -1331 1297 -1286 
Q 1028 -1241 775 -1147 
L 775 -588 
Q 1028 -725 1275 -790 
Q 1522 -856 1778 -856 
Q 2344 -856 2625 -561 
Q 2906 -266 2906 331 
L 2906 616 
Q 2728 306 2450 153 
Q 2172 0 1784 0 
Q 1141 0 747 490 
Q 353 981 353 1791 
Q 353 2603 747 3093 
Q 1141 3584 1784 3584 
Q 2172 3584 2450 3431 
Q 2728 3278 2906 2969 
L 2906 3500 
L 3481 3500 
L 3481 434 
z
" transform="scale(0.015625)"/>
      <path id="DejaVuSans-68" d="M 3513 2113 
L 3513 0 
L 2938 0 
L 2938 2094 
Q 2938 2591 2744 2837 
Q 2550 3084 2163 3084 
Q 1697 3084 1428 2787 
Q 1159 2491 1159 1978 
L 1159 0 
L 581 0 
L 581 4863 
L 1159 4863 
L 1159 2956 
Q 1366 3272 1645 3428 
Q 1925 3584 2291 3584 
Q 2894 3584 3203 3211 
Q 3513 2838 3513 2113 
z
" transform="scale(0.015625)"/>
      <path id="DejaVuSans-49" d="M 628 4666 
L 1259 4666 
L 1259 0 
L 628 0 
L 628 4666 
z
" transform="scale(0.015625)"/>
      <path id="DejaVuSans-64" d="M 2906 2969 
L 2906 4863 
L 3481 4863 
L 3481 0 
L 2906 0 
L 2906 525 
Q 2725 213 2448 61 
Q 2172 -91 1784 -91 
Q 1150 -91 751 415 
Q 353 922 353 1747 
Q 353 2572 751 3078 
Q 1150 3584 1784 3584 
Q 2172 3584 2448 3432 
Q 2725 3281 2906 2969 
z
M 947 1747 
Q 947 1113 1208 752 
Q 1469 391 1925 391 
Q 2381 391 2643 752 
Q 2906 1113 2906 1747 
Q 2906 2381 2643 2742 
Q 2381 3103 1925 3103 
Q 1469 3103 1208 2742 
Q 947 2381 947 1747 
z
" transform="scale(0.015625)"/>
      <path id="DejaVuSans-78" d="M 3513 3500 
L 2247 1797 
L 3578 0 
L 2900 0 
L 1881 1375 
L 863 0 
L 184 0 
L 1544 1831 
L 300 3500 
L 978 3500 
L 1906 2253 
L 2834 3500 
L 3513 3500 
z
" transform="scale(0.015625)"/>
     </defs>
     <use xlink:href="#DejaVuSans-42"/>
     <use xlink:href="#DejaVuSans-52" x="68.603516"/>
     <use xlink:href="#DejaVuSans-4b" x="138.085938"/>
     <use xlink:href="#DejaVuSans-5f" x="203.662109"/>
     <use xlink:href="#DejaVuSans-42" x="253.662109"/>
     <use xlink:href="#DejaVuSans-2c" x="322.265625"/>
     <use xlink:href="#DejaVuSans-20" x="354.052734"/>
     <use xlink:href="#DejaVuSans-52" x="385.839844"/>
     <use xlink:href="#DejaVuSans-65" x="450.822266"/>
     <use xlink:href="#DejaVuSans-6c" x="512.345703"/>
     <use xlink:href="#DejaVuSans-61" x="540.128906"/>
     <use xlink:href="#DejaVuSans-74" x="601.408203"/>
     <use xlink:href="#DejaVuSans-69" x="640.617188"/>
     <use xlink:href="#DejaVuSans-76" x="668.400391"/>
     <use xlink:href="#DejaVuSans-65" x="727.580078"/>
     <use xlink:href="#DejaVuSans-20" x="789.103516"/>
     <use xlink:href="#DejaVuSans-53" x="820.890625"/>
     <use xlink:href="#DejaVuSans-74" x="884.367188"/>
     <use xlink:href="#DejaVuSans-72" x="923.576172"/>
     <use xlink:href="#DejaVuSans-65" x="962.439453"/>
     <use xlink:href="#DejaVuSans-6e" x="1023.962891"/>
     <use xlink:href="#DejaVuSans-67" x="1087.341797"/>
     <use xlink:href="#DejaVuSans-74" x="1150.818359"/>
     <use xlink:href="#DejaVuSans-68" x="1190.027344"/>
     <use xlink:href="#DejaVuSans-20" x="1253.40625"/>
     <use xlink:href="#DejaVuSans-49" x="1285.193359"/>
     <use xlink:href="#DejaVuSans-6e" x="1314.685547"/>
     <use xlink:href="#DejaVuSans-64" x="1378.064453"/>
     <use xlink:href="#DejaVuSans-65" x="1441.541016"/>
     <use xlink:href="#DejaVuSans-78" x="1501.314453"/>
     <use xlink:href="#DejaVuSans-20" x="1560.494141"/>
     <use xlink:href="#DejaVuSans-28" x="1592.28125"/>
     <use xlink:href="#DejaVuSans-52" x="1631.294922"/>
     <use xlink:href="#DejaVuSans-53" x="1700.777344"/>
     <use xlink:href="#DejaVuSans-49" x="1764.253906"/>
     <use xlink:href="#DejaVuSans-29" x="1793.746094"/>
     <use xlink:href="#DejaVuSans-2c" x="1832.759766"/>
     <use xlink:href="#DejaVuSans-20" x="1864.546875"/>
     <use xlink:href="#DejaVuSans-42" x="1896.333984"/>
     <use xlink:href="#DejaVuSans-52" x="1964.9375"/>
     <use xlink:href="#DejaVuSans-4b" x="2034.419922"/>
     <use xlink:href="#DejaVuSans-5f" x="2099.996094"/>
     <use xlink:href="#DejaVuSans-42" x="2149.996094"/>
    </g>
   </g>
   <g id="legend_1">
    <g id="patch_7">
     <path d="M 448.05625 74.3525 
L 597.965625 74.3525 
Q 599.965625 74.3525 599.965625 72.3525 
L 599.965625 29.318125 
Q 599.965625 27.318125 597.965625 27.318125 
L 448.05625 27.318125 
Q 446.05625 27.318125 446.05625 29.318125 
L 446.05625 72.3525 
Q 446.05625 74.3525 448.05625 74.3525 
z
" style="fill: #ffffff; opacity: 0.8; stroke: #cccccc; stroke-linejoin: miter"/>
    </g>
    <g id="line2d_21">
     <path d="M 450.05625 35.416562 
L 460.05625 35.416562 
L 470.05625 35.416562 
" style="fill: none; stroke: #00ff7f; stroke-linecap: square"/>
    </g>
    <g id="text_15">
     <!-- Oversold, RSI &lt;= 30 -->
     <g transform="translate(478.05625 38.916562)scale(0.1 -0.1)">
      <defs>
       <path id="DejaVuSans-4f" d="M 2522 4238 
Q 1834 4238 1429 3725 
Q 1025 3213 1025 2328 
Q 1025 1447 1429 934 
Q 1834 422 2522 422 
Q 3209 422 3611 934 
Q 4013 1447 4013 2328 
Q 4013 3213 3611 3725 
Q 3209 4238 2522 4238 
z
M 2522 4750 
Q 3503 4750 4090 4092 
Q 4678 3434 4678 2328 
Q 4678 1225 4090 567 
Q 3503 -91 2522 -91 
Q 1538 -91 948 565 
Q 359 1222 359 2328 
Q 359 3434 948 4092 
Q 1538 4750 2522 4750 
z
" transform="scale(0.015625)"/>
       <path id="DejaVuSans-73" d="M 2834 3397 
L 2834 2853 
Q 2591 2978 2328 3040 
Q 2066 3103 1784 3103 
Q 1356 3103 1142 2972 
Q 928 2841 928 2578 
Q 928 2378 1081 2264 
Q 1234 2150 1697 2047 
L 1894 2003 
Q 2506 1872 2764 1633 
Q 3022 1394 3022 966 
Q 3022 478 2636 193 
Q 2250 -91 1575 -91 
Q 1294 -91 989 -36 
Q 684 19 347 128 
L 347 722 
Q 666 556 975 473 
Q 1284 391 1588 391 
Q 1994 391 2212 530 
Q 2431 669 2431 922 
Q 2431 1156 2273 1281 
Q 2116 1406 1581 1522 
L 1381 1569 
Q 847 1681 609 1914 
Q 372 2147 372 2553 
Q 372 3047 722 3315 
Q 1072 3584 1716 3584 
Q 2034 3584 2315 3537 
Q 2597 3491 2834 3397 
z
" transform="scale(0.015625)"/>
       <path id="DejaVuSans-6f" d="M 1959 3097 
Q 1497 3097 1228 2736 
Q 959 2375 959 1747 
Q 959 1119 1226 758 
Q 1494 397 1959 397 
Q 2419 397 2687 759 
Q 2956 1122 2956 1747 
Q 2956 2369 2687 2733 
Q 2419 3097 1959 3097 
z
M 1959 3584 
Q 2709 3584 3137 3096 
Q 3566 2609 3566 1747 
Q 3566 888 3137 398 
Q 2709 -91 1959 -91 
Q 1206 -91 779 398 
Q 353 888 353 1747 
Q 353 2609 779 3096 
Q 1206 3584 1959 3584 
z
" transform="scale(0.015625)"/>
       <path id="DejaVuSans-3c" d="M 4684 3150 
L 1459 2003 
L 4684 863 
L 4684 294 
L 678 1747 
L 678 2266 
L 4684 3719 
L 4684 3150 
z
" transform="scale(0.015625)"/>
       <path id="DejaVuSans-3d" d="M 678 2906 
L 4684 2906 
L 4684 2381 
L 678 2381 
L 678 2906 
z
M 678 1631 
L 4684 1631 
L 4684 1100 
L 678 1100 
L 678 1631 
z
" transform="scale(0.015625)"/>
      </defs>
      <use xlink:href="#DejaVuSans-4f"/>
      <use xlink:href="#DejaVuSans-76" x="78.710938"/>
      <use xlink:href="#DejaVuSans-65" x="137.890625"/>
      <use xlink:href="#DejaVuSans-72" x="199.414062"/>
      <use xlink:href="#DejaVuSans-73" x="240.527344"/>
      <use xlink:href="#DejaVuSans-6f" x="292.626953"/>
      <use xlink:href="#DejaVuSans-6c" x="353.808594"/>
      <use xlink:href="#DejaVuSans-64" x="381.591797"/>
      <use xlink:href="#DejaVuSans-2c" x="445.068359"/>
      <use xlink:href="#DejaVuSans-20" x="476.855469"/>
      <use xlink:href="#DejaVuSans-52" x="508.642578"/>
      <use xlink:href="#DejaVuSans-53" x="578.125"/>
      <use xlink:href="#DejaVuSans-49" x="641.601562"/>
      <use xlink:href="#DejaVuSans-20" x="671.09375"/>
      <use xlink:href="#DejaVuSans-3c" x="702.880859"/>
      <use xlink:href="#DejaVuSans-3d" x="786.669922"/>
      <use xlink:href="#DejaVuSans-20" x="870.458984"/>
      <use xlink:href="#DejaVuSans-33" x="902.246094"/>
      <use xlink:href="#DejaVuSans-30" x="965.869141"/>
     </g>
    </g>
    <g id="line2d_22">
     <path d="M 450.05625 50.094687 
L 460.05625 50.094687 
L 470.05625 50.094687 
" style="fill: none; stroke: #ff4500; stroke-linecap: square"/>
    </g>
    <g id="text_16">
     <!-- Overbought, RSI &gt;= 70 -->
     <g transform="translate(478.05625 53.594687)scale(0.1 -0.1)">
      <defs>
       <path id="DejaVuSans-62" d="M 3116 1747 
Q 3116 2381 2855 2742 
Q 2594 3103 2138 3103 
Q 1681 3103 1420 2742 
Q 1159 2381 1159 1747 
Q 1159 1113 1420 752 
Q 1681 391 2138 391 
Q 2594 391 2855 752 
Q 3116 1113 3116 1747 
z
M 1159 2969 
Q 1341 3281 1617 3432 
Q 1894 3584 2278 3584 
Q 2916 3584 3314 3078 
Q 3713 2572 3713 1747 
Q 3713 922 3314 415 
Q 2916 -91 2278 -91 
Q 1894 -91 1617 61 
Q 1341 213 1159 525 
L 1159 0 
L 581 0 
L 581 4863 
L 1159 4863 
L 1159 2969 
z
" transform="scale(0.015625)"/>
       <path id="DejaVuSans-75" d="M 544 1381 
L 544 3500 
L 1119 3500 
L 1119 1403 
Q 1119 906 1312 657 
Q 1506 409 1894 409 
Q 2359 409 2629 706 
Q 2900 1003 2900 1516 
L 2900 3500 
L 3475 3500 
L 3475 0 
L 2900 0 
L 2900 538 
Q 2691 219 2414 64 
Q 2138 -91 1772 -91 
Q 1169 -91 856 284 
Q 544 659 544 1381 
z
M 1991 3584 
L 1991 3584 
z
" transform="scale(0.015625)"/>
       <path id="DejaVuSans-3e" d="M 678 3150 
L 678 3719 
L 4684 2266 
L 4684 1747 
L 678 294 
L 678 863 
L 3897 2003 
L 678 3150 
z
" transform="scale(0.015625)"/>
       <path id="DejaVuSans-37" d="M 525 4666 
L 3525 4666 
L 3525 4397 
L 1831 0 
L 1172 0 
L 2766 4134 
L 525 4134 
L 525 4666 
z
" transform="scale(0.015625)"/>
      </defs>
      <use xlink:href="#DejaVuSans-4f"/>
      <use xlink:href="#DejaVuSans-76" x="78.710938"/>
      <use xlink:href="#DejaVuSans-65" x="137.890625"/>
      <use xlink:href="#DejaVuSans-72" x="199.414062"/>
      <use xlink:href="#DejaVuSans-62" x="240.527344"/>
      <use xlink:href="#DejaVuSans-6f" x="304.003906"/>
      <use xlink:href="#DejaVuSans-75" x="365.185547"/>
      <use xlink:href="#DejaVuSans-67" x="428.564453"/>
      <use xlink:href="#DejaVuSans-68" x="492.041016"/>
      <use xlink:href="#DejaVuSans-74" x="555.419922"/>
      <use xlink:href="#DejaVuSans-2c" x="594.628906"/>
      <use xlink:href="#DejaVuSans-20" x="626.416016"/>
      <use xlink:href="#DejaVuSans-52" x="658.203125"/>
      <use xlink:href="#DejaVuSans-53" x="727.685547"/>
      <use xlink:href="#DejaVuSans-49" x="791.162109"/>
      <use xlink:href="#DejaVuSans-20" x="820.654297"/>
      <use xlink:href="#DejaVuSans-3e" x="852.441406"/>
      <use xlink:href="#DejaVuSans-3d" x="936.230469"/>
      <use xlink:href="#DejaVuSans-20" x="1020.019531"/>
      <use xlink:href="#DejaVuSans-37" x="1051.806641"/>
      <use xlink:href="#DejaVuSans-30" x="1115.429688"/>
     </g>
    </g>
    <g id="line2d_23">
     <path d="M 450.05625 64.772812 
L 460.05625 64.772812 
L 470.05625 64.772812 
" style="fill: none; stroke: #1e90ff; stroke-linecap: square"/>
    </g>
    <g id="text_17">
     <!-- Neutral -->
     <g transform="translate(478.05625 68.272812)scale(0.1 -0.1)">
      <defs>
       <path id="DejaVuSans-4e" d="M 628 4666 
L 1478 4666 
L 3547 763 
L 3547 4666 
L 4159 4666 
L 4159 0 
L 3309 0 
L 1241 3903 
L 1241 0 
L 628 0 
L 628 4666 
z
" transform="scale(0.015625)"/>
      </defs>
      <use xlink:href="#DejaVuSans-4e"/>
      <use xlink:href="#DejaVuSans-65" x="74.804688"/>
      <use xlink:href="#DejaVuSans-75" x="136.328125"/>
      <use xlink:href="#DejaVuSans-74" x="199.707031"/>
      <use xlink:href="#DejaVuSans-72" x="238.916016"/>
      <use xlink:href="#DejaVuSans-61" x="280.029297"/>
      <use xlink:href="#DejaVuSans-6c" x="341.308594"/>
     </g>
    </g>
   </g>
  </g>
 </g>
 <defs>
  <clipPath id="p90ebd6be66">
   <rect x="46.965625" y="22.318125" width="558" height="332.64"/>
  </clipPath>
 </defs>
</svg>
