<?xml version="1.0" encoding="utf-8" standalone="no"?>
<!DOCTYPE svg PUBLIC "-//W3C//DTD SVG 1.1//EN"
  "http://www.w3.org/Graphics/SVG/1.1/DTD/svg11.dtd">
<svg xmlns:xlink="http://www.w3.org/1999/xlink" width="691.28175pt" height="422.947075pt" viewBox="0 0 691.28175 422.947075" xmlns="http://www.w3.org/2000/svg" version="1.1">
 <metadata>
  <rdf:RDF xmlns:dc="http://purl.org/dc/elements/1.1/" xmlns:cc="http://creativecommons.org/ns#" xmlns:rdf="http://www.w3.org/1999/02/22-rdf-syntax-ns#">
   <cc:Work>
    <dc:type rdf:resource="http://purl.org/dc/dcmitype/StillImage"/>
    <dc:date>2023-04-23T14:47:36.023167</dc:date>
    <dc:format>image/svg+xml</dc:format>
    <dc:creator>
     <cc:Agent>
      <dc:title>Matplotlib v3.5.1, https://matplotlib.org/</dc:title>
     </cc:Agent>
    </dc:creator>
   </cc:Work>
  </rdf:RDF>
 </metadata>
 <defs>
  <style type="text/css">*{stroke-linejoin: round; stroke-linecap: butt}</style>
 </defs>
 <g id="figure_1">
  <g id="patch_1">
   <path d="M 0 422.947075 
L 691.28175 422.947075 
L 691.28175 0 
L 0 0 
z
" style="fill: #f0f0f0"/>
  </g>
  <g id="axes_1">
   <g id="patch_2">
    <path d="M 57.68175 378.43845 
L 684.08175 378.43845 
L 684.08175 28.51845 
L 57.68175 28.51845 
z
" style="fill: #f0f0f0"/>
   </g>
   <g id="matplotlib.axis_1">
    <g id="xtick_1">
     <g id="line2d_1">
      <path d="M 86.154477 378.43845 
L 86.154477 28.51845 
" clip-path="url(#pd64049e311)" style="fill: none; stroke: #cbcbcb"/>
     </g>
     <g id="line2d_2"/>
     <g id="text_1">
      <!-- 0 -->
      <g transform="translate(81.700727 392.576263)scale(0.14 -0.14)">
       <defs>
        <path id="DejaVuSans-30" d="M 2034 4250 
Q 1547 4250 1301 3770 
Q 1056 3291 1056 2328 
Q 1056 1369 1301 889 
Q 1547 409 2034 409 
Q 2525 409 2770 889 
Q 3016 1369 3016 2328 
Q 3016 3291 2770 3770 
Q 2525 4250 2034 4250 
z
M 2034 4750 
Q 2819 4750 3233 4129 
Q 3647 3509 3647 2328 
Q 3647 1150 3233 529 
Q 2819 -91 2034 -91 
Q 1250 -91 836 529 
Q 422 1150 422 2328 
Q 422 3509 836 4129 
Q 1250 4750 2034 4750 
z
" transform="scale(0.015625)"/>
       </defs>
       <use xlink:href="#DejaVuSans-30"/>
      </g>
     </g>
    </g>
    <g id="xtick_2">
     <g id="line2d_3">
      <path d="M 207.573357 378.43845 
L 207.573357 28.51845 
" clip-path="url(#pd64049e311)" style="fill: none; stroke: #cbcbcb"/>
     </g>
     <g id="line2d_4"/>
     <g id="text_2">
      <!-- 500 -->
      <g transform="translate(194.212107 392.576263)scale(0.14 -0.14)">
       <defs>
        <path id="DejaVuSans-35" d="M 691 4666 
L 3169 4666 
L 3169 4134 
L 1269 4134 
L 1269 2991 
Q 1406 3038 1543 3061 
Q 1681 3084 1819 3084 
Q 2600 3084 3056 2656 
Q 3513 2228 3513 1497 
Q 3513 744 3044 326 
Q 2575 -91 1722 -91 
Q 1428 -91 1123 -41 
Q 819 9 494 109 
L 494 744 
Q 775 591 1075 516 
Q 1375 441 1709 441 
Q 2250 441 2565 725 
Q 2881 1009 2881 1497 
Q 2881 1984 2565 2268 
Q 2250 2553 1709 2553 
Q 1456 2553 1204 2497 
Q 953 2441 691 2322 
L 691 4666 
z
" transform="scale(0.015625)"/>
       </defs>
       <use xlink:href="#DejaVuSans-35"/>
       <use xlink:href="#DejaVuSans-30" x="63.623047"/>
       <use xlink:href="#DejaVuSans-30" x="127.246094"/>
      </g>
     </g>
    </g>
    <g id="xtick_3">
     <g id="line2d_5">
      <path d="M 328.992237 378.43845 
L 328.992237 28.51845 
" clip-path="url(#pd64049e311)" style="fill: none; stroke: #cbcbcb"/>
     </g>
     <g id="line2d_6"/>
     <g id="text_3">
      <!-- 1000 -->
      <g transform="translate(311.177237 392.576263)scale(0.14 -0.14)">
       <defs>
        <path id="DejaVuSans-31" d="M 794 531 
L 1825 531 
L 1825 4091 
L 703 3866 
L 703 4441 
L 1819 4666 
L 2450 4666 
L 2450 531 
L 3481 531 
L 3481 0 
L 794 0 
L 794 531 
z
" transform="scale(0.015625)"/>
       </defs>
       <use xlink:href="#DejaVuSans-31"/>
       <use xlink:href="#DejaVuSans-30" x="63.623047"/>
       <use xlink:href="#DejaVuSans-30" x="127.246094"/>
       <use xlink:href="#DejaVuSans-30" x="190.869141"/>
      </g>
     </g>
    </g>
    <g id="xtick_4">
     <g id="line2d_7">
      <path d="M 450.411116 378.43845 
L 450.411116 28.51845 
" clip-path="url(#pd64049e311)" style="fill: none; stroke: #cbcbcb"/>
     </g>
     <g id="line2d_8"/>
     <g id="text_4">
      <!-- 1500 -->
      <g transform="translate(432.596116 392.576263)scale(0.14 -0.14)">
       <use xlink:href="#DejaVuSans-31"/>
       <use xlink:href="#DejaVuSans-35" x="63.623047"/>
       <use xlink:href="#DejaVuSans-30" x="127.246094"/>
       <use xlink:href="#DejaVuSans-30" x="190.869141"/>
      </g>
     </g>
    </g>
    <g id="xtick_5">
     <g id="line2d_9">
      <path d="M 571.829996 378.43845 
L 571.829996 28.51845 
" clip-path="url(#pd64049e311)" style="fill: none; stroke: #cbcbcb"/>
     </g>
     <g id="line2d_10"/>
     <g id="text_5">
      <!-- 2000 -->
      <g transform="translate(554.014996 392.576263)scale(0.14 -0.14)">
       <defs>
        <path id="DejaVuSans-32" d="M 1228 531 
L 3431 531 
L 3431 0 
L 469 0 
L 469 531 
Q 828 903 1448 1529 
Q 2069 2156 2228 2338 
Q 2531 2678 2651 2914 
Q 2772 3150 2772 3378 
Q 2772 3750 2511 3984 
Q 2250 4219 1831 4219 
Q 1534 4219 1204 4116 
Q 875 4013 500 3803 
L 500 4441 
Q 881 4594 1212 4672 
Q 1544 4750 1819 4750 
Q 2544 4750 2975 4387 
Q 3406 4025 3406 3419 
Q 3406 3131 3298 2873 
Q 3191 2616 2906 2266 
Q 2828 2175 2409 1742 
Q 1991 1309 1228 531 
z
" transform="scale(0.015625)"/>
       </defs>
       <use xlink:href="#DejaVuSans-32"/>
       <use xlink:href="#DejaVuSans-30" x="63.623047"/>
       <use xlink:href="#DejaVuSans-30" x="127.246094"/>
       <use xlink:href="#DejaVuSans-30" x="190.869141"/>
      </g>
     </g>
    </g>
    <g id="text_6">
     <!-- Date -->
     <g transform="translate(350.804438 412.2532)scale(0.168 -0.168)">
      <defs>
       <path id="DejaVuSans-44" d="M 1259 4147 
L 1259 519 
L 2022 519 
Q 2988 519 3436 956 
Q 3884 1394 3884 2338 
Q 3884 3275 3436 3711 
Q 2988 4147 2022 4147 
L 1259 4147 
z
M 628 4666 
L 1925 4666 
Q 3281 4666 3915 4102 
Q 4550 3538 4550 2338 
Q 4550 1131 3912 565 
Q 3275 0 1925 0 
L 628 0 
L 628 4666 
z
" transform="scale(0.015625)"/>
       <path id="DejaVuSans-61" d="M 2194 1759 
Q 1497 1759 1228 1600 
Q 959 1441 959 1056 
Q 959 750 1161 570 
Q 1363 391 1709 391 
Q 2188 391 2477 730 
Q 2766 1069 2766 1631 
L 2766 1759 
L 2194 1759 
z
M 3341 1997 
L 3341 0 
L 2766 0 
L 2766 531 
Q 2569 213 2275 61 
Q 1981 -91 1556 -91 
Q 1019 -91 701 211 
Q 384 513 384 1019 
Q 384 1609 779 1909 
Q 1175 2209 1959 2209 
L 2766 2209 
L 2766 2266 
Q 2766 2663 2505 2880 
Q 2244 3097 1772 3097 
Q 1472 3097 1187 3025 
Q 903 2953 641 2809 
L 641 3341 
Q 956 3463 1253 3523 
Q 1550 3584 1831 3584 
Q 2591 3584 2966 3190 
Q 3341 2797 3341 1997 
z
" transform="scale(0.015625)"/>
       <path id="DejaVuSans-74" d="M 1172 4494 
L 1172 3500 
L 2356 3500 
L 2356 3053 
L 1172 3053 
L 1172 1153 
Q 1172 725 1289 603 
Q 1406 481 1766 481 
L 2356 481 
L 2356 0 
L 1766 0 
Q 1100 0 847 248 
Q 594 497 594 1153 
L 594 3053 
L 172 3053 
L 172 3500 
L 594 3500 
L 594 4494 
L 1172 4494 
z
" transform="scale(0.015625)"/>
       <path id="DejaVuSans-65" d="M 3597 1894 
L 3597 1613 
L 953 1613 
Q 991 1019 1311 708 
Q 1631 397 2203 397 
Q 2534 397 2845 478 
Q 3156 559 3463 722 
L 3463 178 
Q 3153 47 2828 -22 
Q 2503 -91 2169 -91 
Q 1331 -91 842 396 
Q 353 884 353 1716 
Q 353 2575 817 3079 
Q 1281 3584 2069 3584 
Q 2775 3584 3186 3129 
Q 3597 2675 3597 1894 
z
M 3022 2063 
Q 3016 2534 2758 2815 
Q 2500 3097 2075 3097 
Q 1594 3097 1305 2825 
Q 1016 2553 972 2059 
L 3022 2063 
z
" transform="scale(0.015625)"/>
      </defs>
      <use xlink:href="#DejaVuSans-44"/>
      <use xlink:href="#DejaVuSans-61" x="77.001953"/>
      <use xlink:href="#DejaVuSans-74" x="138.28125"/>
      <use xlink:href="#DejaVuSans-65" x="177.490234"/>
     </g>
    </g>
   </g>
   <g id="matplotlib.axis_2">
    <g id="ytick_1">
     <g id="line2d_11">
      <path d="M 57.68175 364.717065 
L 684.08175 364.717065 
" clip-path="url(#pd64049e311)" style="fill: none; stroke: #dcdcdc; stroke-width: 0.5"/>
     </g>
     <g id="line2d_12"/>
     <g id="text_7">
      <!-- 100 -->
      <g transform="translate(27.45925 370.035971)scale(0.14 -0.14)">
       <use xlink:href="#DejaVuSans-31"/>
       <use xlink:href="#DejaVuSans-30" x="63.623047"/>
       <use xlink:href="#DejaVuSans-30" x="127.246094"/>
      </g>
     </g>
    </g>
    <g id="ytick_2">
     <g id="line2d_13">
      <path d="M 57.68175 303.020189 
L 684.08175 303.020189 
" clip-path="url(#pd64049e311)" style="fill: none; stroke: #dcdcdc; stroke-width: 0.5"/>
     </g>
     <g id="line2d_14"/>
     <g id="text_8">
      <!-- 150 -->
      <g transform="translate(27.45925 308.339095)scale(0.14 -0.14)">
       <use xlink:href="#DejaVuSans-31"/>
       <use xlink:href="#DejaVuSans-35" x="63.623047"/>
       <use xlink:href="#DejaVuSans-30" x="127.246094"/>
      </g>
     </g>
    </g>
    <g id="ytick_3">
     <g id="line2d_15">
      <path d="M 57.68175 241.323314 
L 684.08175 241.323314 
" clip-path="url(#pd64049e311)" style="fill: none; stroke: #dcdcdc; stroke-width: 0.5"/>
     </g>
     <g id="line2d_16"/>
     <g id="text_9">
      <!-- 200 -->
      <g transform="translate(27.45925 246.64222)scale(0.14 -0.14)">
       <use xlink:href="#DejaVuSans-32"/>
       <use xlink:href="#DejaVuSans-30" x="63.623047"/>
       <use xlink:href="#DejaVuSans-30" x="127.246094"/>
      </g>
     </g>
    </g>
    <g id="ytick_4">
     <g id="line2d_17">
      <path d="M 57.68175 179.626438 
L 684.08175 179.626438 
" clip-path="url(#pd64049e311)" style="fill: none; stroke: #dcdcdc; stroke-width: 0.5"/>
     </g>
     <g id="line2d_18"/>
     <g id="text_10">
      <!-- 250 -->
      <g transform="translate(27.45925 184.945344)scale(0.14 -0.14)">
       <use xlink:href="#DejaVuSans-32"/>
       <use xlink:href="#DejaVuSans-35" x="63.623047"/>
       <use xlink:href="#DejaVuSans-30" x="127.246094"/>
      </g>
     </g>
    </g>
    <g id="ytick_5">
     <g id="line2d_19">
      <path d="M 57.68175 117.929562 
L 684.08175 117.929562 
" clip-path="url(#pd64049e311)" style="fill: none; stroke: #dcdcdc; stroke-width: 0.5"/>
     </g>
     <g id="line2d_20"/>
     <g id="text_11">
      <!-- 300 -->
      <g transform="translate(27.45925 123.248468)scale(0.14 -0.14)">
       <defs>
        <path id="DejaVuSans-33" d="M 2597 2516 
Q 3050 2419 3304 2112 
Q 3559 1806 3559 1356 
Q 3559 666 3084 287 
Q 2609 -91 1734 -91 
Q 1441 -91 1130 -33 
Q 819 25 488 141 
L 488 750 
Q 750 597 1062 519 
Q 1375 441 1716 441 
Q 2309 441 2620 675 
Q 2931 909 2931 1356 
Q 2931 1769 2642 2001 
Q 2353 2234 1838 2234 
L 1294 2234 
L 1294 2753 
L 1863 2753 
Q 2328 2753 2575 2939 
Q 2822 3125 2822 3475 
Q 2822 3834 2567 4026 
Q 2313 4219 1838 4219 
Q 1578 4219 1281 4162 
Q 984 4106 628 3988 
L 628 4550 
Q 988 4650 1302 4700 
Q 1616 4750 1894 4750 
Q 2613 4750 3031 4423 
Q 3450 4097 3450 3541 
Q 3450 3153 3228 2886 
Q 3006 2619 2597 2516 
z
" transform="scale(0.015625)"/>
       </defs>
       <use xlink:href="#DejaVuSans-33"/>
       <use xlink:href="#DejaVuSans-30" x="63.623047"/>
       <use xlink:href="#DejaVuSans-30" x="127.246094"/>
      </g>
     </g>
    </g>
    <g id="ytick_6">
     <g id="line2d_21">
      <path d="M 57.68175 56.232687 
L 684.08175 56.232687 
" clip-path="url(#pd64049e311)" style="fill: none; stroke: #dcdcdc; stroke-width: 0.5"/>
     </g>
     <g id="line2d_22"/>
     <g id="text_12">
      <!-- 350 -->
      <g transform="translate(27.45925 61.551593)scale(0.14 -0.14)">
       <use xlink:href="#DejaVuSans-33"/>
       <use xlink:href="#DejaVuSans-35" x="63.623047"/>
       <use xlink:href="#DejaVuSans-30" x="127.246094"/>
      </g>
     </g>
    </g>
    <g id="text_13">
     <!-- Price (USD) -->
     <g transform="translate(19.965375 251.1432)rotate(-90)scale(0.168 -0.168)">
      <defs>
       <path id="DejaVuSans-50" d="M 1259 4147 
L 1259 2394 
L 2053 2394 
Q 2494 2394 2734 2622 
Q 2975 2850 2975 3272 
Q 2975 3691 2734 3919 
Q 2494 4147 2053 4147 
L 1259 4147 
z
M 628 4666 
L 2053 4666 
Q 2838 4666 3239 4311 
Q 3641 3956 3641 3272 
Q 3641 2581 3239 2228 
Q 2838 1875 2053 1875 
L 1259 1875 
L 1259 0 
L 628 0 
L 628 4666 
z
" transform="scale(0.015625)"/>
       <path id="DejaVuSans-72" d="M 2631 2963 
Q 2534 3019 2420 3045 
Q 2306 3072 2169 3072 
Q 1681 3072 1420 2755 
Q 1159 2438 1159 1844 
L 1159 0 
L 581 0 
L 581 3500 
L 1159 3500 
L 1159 2956 
Q 1341 3275 1631 3429 
Q 1922 3584 2338 3584 
Q 2397 3584 2469 3576 
Q 2541 3569 2628 3553 
L 2631 2963 
z
" transform="scale(0.015625)"/>
       <path id="DejaVuSans-69" d="M 603 3500 
L 1178 3500 
L 1178 0 
L 603 0 
L 603 3500 
z
M 603 4863 
L 1178 4863 
L 1178 4134 
L 603 4134 
L 603 4863 
z
" transform="scale(0.015625)"/>
       <path id="DejaVuSans-63" d="M 3122 3366 
L 3122 2828 
Q 2878 2963 2633 3030 
Q 2388 3097 2138 3097 
Q 1578 3097 1268 2742 
Q 959 2388 959 1747 
Q 959 1106 1268 751 
Q 1578 397 2138 397 
Q 2388 397 2633 464 
Q 2878 531 3122 666 
L 3122 134 
Q 2881 22 2623 -34 
Q 2366 -91 2075 -91 
Q 1284 -91 818 406 
Q 353 903 353 1747 
Q 353 2603 823 3093 
Q 1294 3584 2113 3584 
Q 2378 3584 2631 3529 
Q 2884 3475 3122 3366 
z
" transform="scale(0.015625)"/>
       <path id="DejaVuSans-20" transform="scale(0.015625)"/>
       <path id="DejaVuSans-28" d="M 1984 4856 
Q 1566 4138 1362 3434 
Q 1159 2731 1159 2009 
Q 1159 1288 1364 580 
Q 1569 -128 1984 -844 
L 1484 -844 
Q 1016 -109 783 600 
Q 550 1309 550 2009 
Q 550 2706 781 3412 
Q 1013 4119 1484 4856 
L 1984 4856 
z
" transform="scale(0.015625)"/>
       <path id="DejaVuSans-55" d="M 556 4666 
L 1191 4666 
L 1191 1831 
Q 1191 1081 1462 751 
Q 1734 422 2344 422 
Q 2950 422 3222 751 
Q 3494 1081 3494 1831 
L 3494 4666 
L 4128 4666 
L 4128 1753 
Q 4128 841 3676 375 
Q 3225 -91 2344 -91 
Q 1459 -91 1007 375 
Q 556 841 556 1753 
L 556 4666 
z
" transform="scale(0.015625)"/>
       <path id="DejaVuSans-53" d="M 3425 4513 
L 3425 3897 
Q 3066 4069 2747 4153 
Q 2428 4238 2131 4238 
Q 1616 4238 1336 4038 
Q 1056 3838 1056 3469 
Q 1056 3159 1242 3001 
Q 1428 2844 1947 2747 
L 2328 2669 
Q 3034 2534 3370 2195 
Q 3706 1856 3706 1288 
Q 3706 609 3251 259 
Q 2797 -91 1919 -91 
Q 1588 -91 1214 -16 
Q 841 59 441 206 
L 441 856 
Q 825 641 1194 531 
Q 1563 422 1919 422 
Q 2459 422 2753 634 
Q 3047 847 3047 1241 
Q 3047 1584 2836 1778 
Q 2625 1972 2144 2069 
L 1759 2144 
Q 1053 2284 737 2584 
Q 422 2884 422 3419 
Q 422 4038 858 4394 
Q 1294 4750 2059 4750 
Q 2388 4750 2728 4690 
Q 3069 4631 3425 4513 
z
" transform="scale(0.015625)"/>
       <path id="DejaVuSans-29" d="M 513 4856 
L 1013 4856 
Q 1481 4119 1714 3412 
Q 1947 2706 1947 2009 
Q 1947 1309 1714 600 
Q 1481 -109 1013 -844 
L 513 -844 
Q 928 -128 1133 580 
Q 1338 1288 1338 2009 
Q 1338 2731 1133 3434 
Q 928 4138 513 4856 
z
" transform="scale(0.015625)"/>
      </defs>
      <use xlink:href="#DejaVuSans-50"/>
      <use xlink:href="#DejaVuSans-72" x="58.552734"/>
      <use xlink:href="#DejaVuSans-69" x="99.666016"/>
      <use xlink:href="#DejaVuSans-63" x="127.449219"/>
      <use xlink:href="#DejaVuSans-65" x="182.429688"/>
      <use xlink:href="#DejaVuSans-20" x="243.953125"/>
      <use xlink:href="#DejaVuSans-28" x="275.740234"/>
      <use xlink:href="#DejaVuSans-55" x="314.753906"/>
      <use xlink:href="#DejaVuSans-53" x="387.947266"/>
      <use xlink:href="#DejaVuSans-44" x="451.423828"/>
      <use xlink:href="#DejaVuSans-29" x="528.425781"/>
     </g>
    </g>
   </g>
   <g id="line2d_23">
    <path d="M 86.154477 145.964623 
L 86.397315 144.446879 
M 106.067174 80.936116 
L 106.310011 85.106824 
L 106.552849 86.710943 
L 106.795687 86.587549 
L 107.038525 95.077039 
L 107.5242 86.661586 
L 107.767038 83.700136 
L 108.009876 88.759279 
L 108.252713 97.150054 
M 108.738389 94.188604 
L 108.981227 107.71256 
L 109.224064 105.602526 
M 114.323657 113.326975 
L 114.566495 111.488408 
M 118.451899 118.595888 
L 118.937575 122.038574 
L 119.180413 124.728558 
L 119.42325 124.827273 
L 119.666088 126.27098 
L 119.908926 130.750173 
L 120.151764 125.752726 
M 121.60879 137.030915 
L 121.851628 138.018065 
M 132.779327 145.014491 
L 133.022165 150.456155 
M 145.164053 144.471558 
L 145.406891 145.446369 
M 161.191345 157.551296 
L 161.67702 152.344079 
M 164.105398 169.50815 
L 164.348236 172.8768 
M 164.833911 168.743109 
L 165.076749 171.272681 
L 165.319587 178.700985 
L 165.805262 181.711792 
L 166.0481 179.18222 
L 166.290938 178.40484 
L 166.533776 176.590952 
L 167.019451 177.775532 
M 173.818908 200.998236 
L 174.061746 201.541168 
L 174.304584 205.144266 
L 174.547422 206.933475 
L 174.790259 203.132947 
L 175.033097 207.562783 
L 175.275935 202.367906 
M 180.375528 211.412668 
L 180.618366 214.324761 
L 180.861203 212.338121 
L 181.104041 212.412158 
M 188.146336 230.402967 
L 188.632012 233.709919 
L 188.874849 233.142308 
L 189.360525 238.978832 
L 189.603363 239.460068 
L 189.8462 240.459557 
L 190.089038 232.833823 
L 190.331876 230.847184 
M 201.259575 232.155158 
L 201.502413 233.771616 
L 201.988088 231.044614 
L 202.230926 232.957217 
M 205.144979 248.356757 
L 205.387817 245.753149 
L 205.873493 251.022062 
L 206.11633 248.085291 
L 206.602006 251.07142 
L 206.844844 250.861651 
L 207.087681 253.070399 
L 207.573357 252.416412 
L 207.816195 252.971684 
L 208.059032 254.020531 
L 208.30187 260.905902 
L 208.544708 262.423645 
L 208.787546 267.482789 
L 209.030383 264.521339 
L 209.273221 264.583036 
L 209.516059 262.645754 
L 209.758897 267.445771 
L 210.001734 268.482278 
L 210.244572 267.840631 
L 210.730248 271.715194 
L 210.973086 267.421092 
L 211.215923 269.049889 
M 217.286867 275.268935 
L 217.529705 271.60414 
L 217.772543 279.266892 
L 218.015381 277.193877 
L 218.258218 277.638095 
M 244.727534 217.138138 
L 244.970372 218.618863 
L 245.21321 219.013723 
M 246.184561 218.001895 
L 246.427398 217.804465 
L 246.913074 220.802933 
M 251.041316 225.269786 
L 251.284154 225.454877 
L 251.769829 228.663115 
L 252.012667 227.799358 
L 252.255505 228.218897 
L 252.498342 227.145372 
L 252.74118 230.514021 
L 252.984018 230.686772 
L 253.226856 229.860034 
L 253.469693 229.74898 
L 253.712531 231.562868 
L 253.955369 231.353098 
L 254.198207 232.858502 
L 254.441044 233.068272 
L 254.683882 236.276509 
M 261.483339 240.768042 
L 261.726177 243.35931 
M 272.411039 231.365438 
L 272.653876 232.870842 
L 272.896714 233.660562 
M 273.38239 232.994235 
L 273.625227 233.907349 
L 273.868065 237.029211 
L 274.110903 234.956196 
L 274.353741 235.165965 
L 274.596578 235.684219 
L 274.839416 233.142308 
M 284.552927 228.292933 
L 285.038602 235.745916 
L 285.524278 234.845142 
L 285.767115 234.746427 
L 286.009953 236.26417 
L 286.252791 236.794763 
L 286.495629 236.535636 
M 286.981304 240.225109 
L 287.224142 240.508915 
L 287.46698 242.298124 
L 287.709817 240.558272 
L 287.952655 242.014319 
M 299.36603 245.099162 
L 299.608868 246.53053 
L 299.851705 245.901222 
M 301.065894 247.246214 
L 301.308732 251.614352 
M 311.750756 237.189623 
L 311.993593 241.273956 
L 312.236431 243.186559 
M 321.221428 226.19524 
L 321.707104 230.563378 
L 321.949942 229.292423 
L 322.192779 227.416838 
L 322.678455 228.35463 
L 322.921293 231.476492 
L 323.16413 232.389606 
L 323.406968 232.278552 
L 323.649806 230.847184 
L 323.892644 230.884202 
L 324.135481 231.279062 
L 324.378319 231.994746 
L 324.621157 235.770595 
M 326.806697 243.717152 
L 327.049534 243.976279 
L 327.292372 243.9516 
L 327.53521 242.446197 
L 327.778048 243.852885 
M 328.749399 243.976279 
L 328.992237 245.296592 
L 329.235074 244.420497 
L 329.477912 240.780381 
L 329.72075 253.156774 
M 331.420614 256.673496 
L 331.663452 256.747532 
L 331.90629 258.57376 
L 332.149127 256.340333 
L 332.391965 257.796379 
L 332.634803 257.253447 
L 332.877641 259.943431 
M 360.803983 233.068272 
L 361.046821 234.400924 
L 361.289659 237.596822 
L 361.532496 237.942325 
L 362.018172 240.471897 
L 362.26101 241.58244 
L 362.503847 244.75366 
L 362.989523 241.866246 
L 363.475198 244.321782 
L 363.718036 243.889904 
L 363.960874 242.692984 
L 364.203712 244.050315 
L 364.446549 243.902243 
M 367.846278 253.847779 
L 368.089116 256.698175 
L 368.331954 261.695622 
L 368.574791 263.089971 
L 368.817629 262.843184 
L 369.060467 262.078143 
L 369.303305 263.990746 
L 369.546142 264.69409 
L 369.78898 263.472492 
L 370.031818 263.768637 
L 370.517493 260.572739 
L 370.760331 261.461174 
L 371.003169 260.461684 
M 378.045464 261.905391 
L 378.288302 262.041124 
L 378.531139 261.967088 
L 378.773977 263.70694 
L 379.016815 262.892541 
L 379.259653 263.70694 
L 379.50249 262.102821 
L 379.745328 261.288422 
L 379.988166 262.287912 
L 380.716679 267.766594 
L 380.959517 267.334716 
L 381.202355 267.692558 
L 381.445193 268.630351 
L 381.930868 273.418028 
M 390.187352 276.700302 
L 390.43019 276.860714 
L 390.673027 277.958918 
L 390.915865 278.144009 
L 391.158703 278.995426 
L 391.644378 278.440154 
L 391.887216 279.279231 
L 392.130054 278.032955 
M 398.686673 284.165624 
L 398.929511 284.375393 
L 399.172349 283.65971 
L 399.658024 284.597502 
L 399.900862 283.918836 
L 400.1437 284.350715 
L 400.629376 288.681835 
L 400.872213 289.126053 
M 415.199641 278.822675 
L 415.442479 279.674091 
L 415.685317 280.10597 
L 416.170992 281.697749 
L 416.41383 282.104948 
L 416.656668 283.46228 
L 416.899505 285.732725 
L 417.142343 285.695707 
L 417.385181 287.139413 
L 417.628019 287.065377 
L 418.113694 285.8191 
L 418.356532 286.979002 
L 418.842207 285.572313 
M 420.056396 289.792379 
L 420.299234 292.1492 
M 428.31288 291.433516 
L 428.555718 290.532742 
L 428.798556 293.839694 
L 429.041393 293.543549 
L 429.284231 294.419645 
L 429.527069 292.92658 
L 429.769907 293.012956 
L 430.012744 292.33429 
L 430.255582 292.272593 
L 430.49842 293.457173 
L 430.741258 292.667453 
L 430.984095 294.283912 
M 432.198284 301.440749 
L 432.441122 305.747191 
L 432.68396 306.833056 
L 432.926797 311.719449 
L 433.169635 310.868032 
L 433.412473 311.423304 
L 433.655311 310.880371 
L 433.898149 310.053633 
L 434.140986 310.423814 
L 434.383824 309.868542 
L 434.8695 311.139498 
L 435.112337 310.633584 
L 435.355175 310.917389 
L 435.598013 309.819185 
M 448.468414 308.387817 
L 448.711252 311.509679 
L 448.95409 310.880371 
L 449.196927 311.275231 
L 449.682603 310.090651 
L 449.925441 309.905561 
M 450.411116 310.004276 
L 450.653954 310.251063 
M 455.025034 315.014062 
L 455.267871 317.210471 
L 455.510709 315.717406 
M 468.623948 314.051591 
L 468.866786 314.360075 
L 469.109624 313.261871 
L 469.352461 313.878839 
M 474.93773 319.39454 
L 475.180568 319.135413 
L 475.666243 325.329779 
L 475.909081 324.848544 
L 476.151919 326.427984 
L 476.394756 326.785826 
L 476.637594 325.243404 
L 476.880432 326.403305 
L 477.12327 326.637753 
L 477.366107 327.378116 
L 477.608945 329.475809 
L 477.851783 330.080439 
L 478.094621 333.757573 
L 478.580296 330.512317 
L 478.823134 331.672218 
M 515.734473 318.419729 
L 515.977311 320.159581 
L 516.220149 319.666006 
M 553.131488 308.190387 
L 553.374326 308.73332 
L 553.617164 308.548229 
L 553.860002 307.598097 
L 554.345677 309.251574 
L 554.588515 309.12818 
L 554.831353 310.90505 
L 555.317028 311.756467 
L 555.559866 312.669581 
L 555.802704 314.360075 
L 556.288379 315.927176 
L 556.774055 314.791953 
L 557.016892 315.939515 
L 557.25973 316.099927 
L 557.745406 318.259317 
L 557.988244 316.63052 
L 558.231081 318.777571 
L 558.473919 318.950322 
L 558.716757 321.899433 
L 558.959595 320.739532 
M 568.915943 321.492234 
L 569.15878 322.343651 
M 569.644456 323.898412 
L 569.887294 323.923091 
L 570.372969 326.588396 
L 570.615807 328.994574 
L 570.858645 328.797144 
L 571.101483 330.179154 
L 571.34432 328.044442 
L 571.587158 332.844459 
L 571.829996 333.338034 
L 572.072834 330.487638 
L 572.315671 330.956534 
M 590.285665 337.940621 
L 590.528503 337.237276 
L 590.771341 335.090225 
L 591.014179 336.17609 
L 591.257017 336.18843 
M 597.085123 341.802845 
L 597.327961 344.900028 
L 597.570798 345.245531 
L 598.056474 347.812121 
L 598.299312 347.515976 
L 598.542149 348.42909 
L 599.027825 348.552483 
L 599.270663 348.23166 
L 599.5135 346.541165 
L 599.756338 346.269699 
L 599.999176 346.578183 
L 600.242014 348.305696 
L 600.484851 347.923175 
L 600.727689 349.157113 
M 601.213365 352.18026 
L 601.456202 353.883093 
L 601.69904 353.451215 
L 601.941878 353.623967 
M 621.126061 350.19362 
L 621.368899 350.687195 
M 627.68268 350.872286 
L 627.925518 349.922154 
L 628.168356 349.663027 
L 628.411194 350.477426 
M 637.881866 349.268167 
L 638.124704 348.62652 
L 638.367542 350.00853 
L 638.61038 348.675877 
L 638.853217 348.786932 
L 639.096055 349.823439 
L 639.338893 351.501594 
M 648.081052 355.709321 
L 648.32389 357.165367 
L 648.809565 356.560738 
L 649.295241 355.499552 
L 649.538079 356.387987 
L 649.780917 356.474362 
L 650.023754 358.522699 
L 650.266592 358.201875 
L 650.50943 361.015252 
L 650.50943 361.015252 
" clip-path="url(#pd64049e311)" style="fill: none; stroke: #00ff7f"/>
   </g>
   <g id="line2d_24">
    <path d="M 91.25407 116.942412 
L 91.739746 101.086315 
L 92.225421 104.430286 
L 92.468259 99.482196 
L 92.711097 102.863185 
L 93.196772 94.349016 
L 93.682448 107.268342 
L 93.925286 106.614355 
L 94.168123 105.3434 
M 98.782041 80.109377 
L 99.024879 72.335571 
L 99.267716 74.050744 
L 99.753392 57.688733 
L 99.99623 58.083593 
L 100.481905 63.229112 
M 100.967581 56.55351 
L 101.210418 53.740133 
L 101.453256 52.40748 
M 138.364596 136.117801 
L 138.607433 135.488493 
L 138.850271 135.624226 
L 139.093109 134.464325 
L 139.335947 136.105462 
L 139.578784 133.600569 
L 139.821622 135.180009 
M 140.307298 136.105462 
L 140.550135 136.278213 
L 140.792973 134.76047 
L 141.035811 131.379481 
L 141.278649 130.947603 
M 152.692023 132.021129 
L 152.934861 131.268427 
M 153.420537 127.159415 
L 153.663374 127.83808 
L 153.906212 130.244259 
L 154.14905 130.466367 
L 154.391888 130.959942 
L 154.634725 131.132694 
M 184.989445 200.442964 
L 185.232283 199.468153 
M 192.760254 221.074399 
L 193.245929 222.62916 
M 199.074035 218.927348 
L 199.316873 214.571548 
M 213.887139 246.172688 
L 214.129976 239.398371 
L 214.372814 240.508915 
M 221.172271 256.79689 
L 221.657947 259.054996 
L 221.900785 257.882755 
M 222.629298 252.181964 
L 222.872136 256.179921 
M 234.28551 207.538104 
L 234.528348 204.786424 
L 234.771186 205.971004 
M 258.812124 224.529424 
L 259.054962 227.293444 
M 269.01131 225.430198 
L 269.496986 223.924795 
M 270.711174 222.505766 
L 270.954012 222.616821 
L 271.19685 223.381862 
L 271.439688 223.283147 
L 271.682525 225.072356 
M 279.939009 230.193197 
L 280.181847 230.760808 
L 280.424685 229.860034 
L 280.667522 229.687283 
L 280.91036 225.084696 
L 281.153198 218.372076 
L 281.396036 221.666689 
L 281.638873 220.704218 
L 281.881711 220.704218 
L 282.124549 220.86463 
M 306.165487 215.645074 
L 306.408325 218.816293 
L 306.651163 219.48262 
L 306.894 219.729407 
L 307.136838 225.862076 
M 315.393322 212.004958 
L 315.63616 214.102652 
M 335.306018 248.048273 
L 335.548856 247.159838 
L 335.791694 247.085802 
L 336.034532 246.246724 
L 336.277369 246.789657 
L 336.520207 248.739278 
M 359.346956 221.617331 
L 359.589794 224.973641 
M 371.97452 257.031338 
L 372.217358 255.377862 
M 372.703033 257.438537 
L 373.188709 255.402541 
L 373.674384 255.254468 
L 373.917222 253.934155 
L 374.402898 254.847269 
M 404.271942 282.598523 
L 404.51478 281.265871 
L 404.757617 281.389265 
M 409.85721 279.994915 
L 410.100048 278.477172 
M 410.828561 275.787188 
L 411.071399 274.861735 
L 411.314237 273.306974 
L 411.557075 272.578951 
L 411.799912 272.504914 
L 412.04275 271.690516 
L 412.285588 272.19643 
L 412.528426 271.715194 
L 412.771263 272.208769 
L 413.014101 271.80157 
L 413.256939 271.678176 
L 413.742615 271.073547 
L 413.985452 269.358374 
M 424.427476 284.572823 
L 424.670314 284.116266 
L 424.913151 283.240171 
L 425.155989 283.338886 
L 425.398827 282.832971 
L 425.641665 284.079248 
M 485.136916 323.676303 
L 485.379753 322.590438 
M 485.865429 322.898923 
L 486.108267 322.578099 
L 486.351105 323.824376 
M 509.663529 311.225874 
L 509.906367 311.040783 
L 510.149205 312.052612 
L 510.392043 312.48449 
L 510.63488 311.978576 
M 521.56258 309.510701 
L 521.805417 309.498361 
M 522.776768 308.029975 
L 523.019606 307.289613 
L 523.505282 308.869053 
L 523.748119 308.227405 
M 531.27609 310.028954 
L 531.518928 307.980618 
M 604.855931 345.159155 
L 605.098769 346.25736 
M 606.07012 345.788463 
L 606.312958 344.739617 
L 606.555795 344.628562 
L 606.798633 343.036783 
L 607.041471 343.123158 
L 607.284309 341.815185 
M 624.52579 343.530358 
L 624.768627 344.110308 
M 630.839571 343.394625 
L 631.082409 343.579715 
L 631.325247 344.097969 
L 631.568085 342.950407 
L 631.810922 343.986915 
L 631.810922 343.986915 
" clip-path="url(#pd64049e311)" style="fill: none; stroke: #ff4500"/>
   </g>
   <g id="line2d_25">
    <path d="M 86.640153 141.584144 
L 86.882991 143.496747 
L 87.125828 147.975941 
L 87.368666 147.926583 
L 87.611504 145.693156 
L 87.854342 151.221196 
L 88.340017 150.184689 
L 88.582855 144.582612 
L 88.825693 144.730685 
L 89.06853 158.007853 
L 89.554206 152.763618 
L 89.797044 157.316848 
L 90.039881 156.724558 
L 90.282719 143.928626 
L 90.525557 145.520405 
L 90.768395 140.68337 
L 91.011232 128.158904 
M 94.410961 112.932115 
L 94.653799 112.808722 
L 94.896637 109.736217 
L 95.139474 99.914075 
L 95.382312 106.466283 
L 95.62515 105.14597 
L 95.867988 107.984026 
L 96.110825 103.689923 
L 96.353663 102.468325 
L 96.596501 101.937732 
L 96.839339 94.632822 
L 97.082176 94.879609 
L 97.325014 84.860037 
L 97.567852 94.497089 
L 97.81069 95.484239 
L 98.053527 89.758769 
M 101.696094 60.539128 
L 101.938932 62.760216 
L 102.181769 62.649162 
L 102.424607 61.871781 
L 102.667445 53.912884 
L 102.910283 52.641928 
L 103.15312 46.842422 
L 103.395958 49.914926 
L 103.638796 44.423905 
L 103.881634 45.423394 
L 104.367309 58.503132 
L 104.610147 56.319062 
L 104.852985 56.652225 
L 105.095822 65.598272 
L 105.33866 62.439392 
L 105.581498 73.372079 
L 105.824336 77.764896 
M 109.466902 100.457007 
L 109.70974 99.667287 
L 109.952578 101.209709 
L 110.195415 98.61844 
L 110.438253 97.939774 
L 110.681091 100.308935 
L 110.923929 94.311998 
L 111.166766 93.435903 
L 111.409604 90.314041 
L 111.652442 91.473942 
L 111.89528 97.557254 
L 112.138118 99.432839 
L 112.380955 99.136694 
L 112.623793 93.744387 
L 112.866631 100.703795 
L 113.109469 101.863696 
L 113.352306 102.011768 
L 113.595144 108.465261 
L 113.837982 106.503301 
L 114.08082 109.057551 
M 114.809333 104.34391 
L 115.052171 99.728984 
L 115.537846 88.15465 
L 115.780684 91.696051 
L 116.509197 94.571125 
L 116.752035 93.522278 
L 116.994873 101.616908 
L 117.23771 105.688902 
L 117.480548 107.404075 
L 117.723386 116.954752 
L 117.966224 119.1635 
L 118.209061 117.954241 
M 120.394601 117.719793 
L 120.637439 124.617504 
L 120.880277 124.062232 
L 121.123115 130.256598 
L 121.365952 132.453007 
M 122.094466 136.475643 
L 122.337303 140.905479 
M 122.822979 143.731196 
L 123.065817 148.778 
L 123.308654 146.692646 
L 123.551492 139.992365 
M 124.037168 133.625247 
L 124.280005 132.045807 
L 124.765681 142.620652 
L 125.008519 141.830932 
L 125.251357 140.646352 
L 125.737032 136.845824 
L 125.97987 135.217027 
L 126.222708 136.870503 
L 126.465545 136.043765 
L 126.708383 134.772809 
L 126.951221 131.749662 
L 127.194059 132.884885 
L 127.436896 133.119333 
L 127.679734 131.848377 
L 127.922572 132.823188 
L 128.16541 134.908542 
L 128.408247 133.958411 
M 128.893923 133.008279 
L 129.136761 129.22009 
L 129.379598 129.948114 
L 129.622436 131.20673 
L 129.865274 134.192859 
L 130.108112 133.36612 
L 130.593787 139.412414 
L 130.836625 137.413436 
L 131.3223 145.199581 
L 131.565138 144.311146 
L 132.050814 137.499811 
L 132.293652 138.968197 
L 132.536489 142.336846 
M 133.750678 145.952283 
L 133.993516 146.569252 
L 134.236354 142.953815 
L 134.479191 145.236599 
L 134.722029 144.928115 
L 134.964867 149.925562 
L 135.207705 151.023766 
L 135.450542 149.76515 
L 135.69338 146.60627 
L 136.179056 144.854079 
L 136.421893 146.063338 
L 136.664731 142.707027 
L 136.907569 145.569763 
L 137.393244 143.422711 
L 137.636082 143.965644 
L 138.121758 136.376928 
M 141.521486 132.872545 
L 141.764324 129.972792 
L 142.007162 128.689497 
L 142.492837 133.686944 
L 142.735675 135.661244 
L 142.978513 142.349186 
L 143.221351 144.113716 
L 143.464188 140.387225 
L 143.707026 144.903436 
L 143.949864 144.718346 
L 144.192702 142.904457 
L 144.435539 144.952794 
L 144.678377 141.645841 
L 144.921215 144.089037 
M 145.649728 142.756385 
L 145.892566 146.445858 
M 146.378242 145.199581 
L 146.621079 142.953815 
L 146.863917 144.693667 
L 147.349593 142.472579 
L 147.59243 142.003683 
L 147.835268 149.888544 
L 148.078106 143.546105 
L 148.320944 145.915265 
L 148.806619 142.398543 
L 149.292295 147.284936 
L 149.535132 146.791361 
L 149.77797 144.607291 
L 150.020808 148.173371 
L 150.263646 149.197539 
L 150.506483 146.40884 
L 150.749321 146.186731 
L 150.992159 149.96258 
L 151.477835 138.770767 
L 151.720672 137.746599 
L 151.96351 138.252513 
L 152.206348 134.192859 
L 152.449186 136.549679 
M 154.877563 133.563551 
L 155.120401 133.723962 
L 155.363239 130.6021 
L 155.606076 133.057636 
L 155.848914 134.303913 
L 156.091752 134.933221 
L 156.820265 129.42986 
L 157.305941 139.017554 
L 157.548778 135.661244 
L 157.791616 127.393863 
L 158.277292 130.626779 
L 158.52013 139.202645 
L 158.762967 142.287489 
L 159.005805 143.620141 
L 159.248643 148.839697 
L 159.491481 145.569763 
L 159.734318 151.307572 
L 159.977156 150.443816 
M 160.462832 152.504491 
L 160.705669 155.552317 
L 160.948507 152.220686 
M 161.919858 156.008874 
L 162.162696 157.995513 
L 162.405534 158.526106 
L 162.648371 157.501938 
L 163.134047 162.955942 
L 163.376885 162.820209 
L 163.86256 164.004789 
M 167.262289 173.937986 
L 167.505127 167.262384 
L 167.747964 166.16418 
L 167.990802 162.363652 
L 168.23364 168.496322 
L 168.476478 170.236173 
L 168.719315 175.739535 
L 168.962153 185.203835 
L 169.204991 177.713835 
L 169.447829 180.588909 
L 169.690666 180.601249 
L 169.933504 191.336505 
L 170.176342 187.412584 
L 170.41918 181.539041 
L 170.662017 185.142139 
L 170.904855 185.833144 
L 171.147693 189.683029 
L 171.633369 185.487641 
L 171.876206 185.450623 
L 172.361882 192.261958 
L 172.60472 192.064528 
L 172.847557 192.076867 
L 173.333233 197.938071 
L 173.576071 197.185369 
M 175.518773 200.591036 
L 175.76161 200.702091 
L 176.004448 199.172008 
L 176.247286 198.431646 
L 176.490124 198.690772 
L 176.732961 199.998746 
L 176.975799 198.110822 
L 177.218637 198.74013 
L 177.461475 200.566357 
L 177.94715 199.33242 
L 178.189988 200.751448 
L 178.675664 207.42705 
L 178.918501 206.217791 
L 179.161339 201.997725 
L 179.404177 204.737066 
L 179.647015 204.835781 
L 179.889852 206.267149 
L 180.13269 208.586951 
M 181.832554 211.239917 
L 182.075392 213.127841 
L 182.31823 208.759703 
L 182.561068 207.575123 
L 182.803905 207.377693 
L 183.046743 206.538615 
L 183.289581 205.242981 
L 183.532419 202.639372 
L 183.775256 203.046572 
M 184.260932 204.700048 
L 184.50377 205.65018 
L 184.746608 202.392585 
M 185.475121 204.872799 
L 185.717959 207.994661 
L 185.960796 204.885139 
L 186.203634 204.218813 
L 186.446472 200.405946 
L 186.68931 200.479982 
L 186.932147 207.488747 
L 187.174985 210.820378 
L 187.417823 207.550444 
L 187.660661 206.180773 
L 187.903498 214.793657 
M 190.574714 225.639968 
L 190.817552 226.997299 
M 191.303227 228.909902 
L 191.546065 230.230215 
L 191.788903 226.627118 
L 192.03174 226.947942 
L 192.274578 227.861055 
L 192.517416 226.133543 
M 193.488767 224.924284 
L 193.731605 228.663115 
L 193.974442 226.071846 
L 194.21728 227.527892 
L 194.702956 225.356162 
L 194.945793 228.441006 
L 195.188631 224.6158 
L 195.674307 230.563378 
L 195.917144 229.465174 
L 196.159982 223.850758 
L 196.40282 225.257447 
L 196.645658 218.853311 
L 196.888495 219.050741 
L 197.131333 217.150478 
L 197.374171 217.952537 
L 197.617009 216.7186 
L 197.859847 219.198814 
L 198.102684 219.359226 
L 198.345522 217.10112 
L 198.58836 219.359226 
L 198.831198 218.717578 
M 199.559711 218.433773 
L 199.802549 219.063081 
L 200.045386 218.433773 
L 200.7739 224.850248 
L 201.016737 225.763361 
M 202.473764 227.799358 
L 202.959439 224.985981 
L 203.202277 225.701665 
L 203.445115 225.80038 
L 204.173628 236.85646 
M 204.659304 242.236427 
L 204.902142 246.53053 
M 211.458761 264.755787 
L 211.944437 266.347566 
L 212.187274 265.101289 
L 212.430112 264.940878 
L 212.67295 263.164008 
L 212.915788 264.089461 
L 213.158625 264.508999 
L 213.401463 268.44526 
L 213.644301 251.799443 
M 214.615652 251.133117 
L 214.85849 252.65086 
L 215.101327 258.672475 
L 215.344165 261.263744 
L 215.587003 259.116692 
L 215.829841 259.708982 
L 216.072678 258.882244 
L 216.558354 272.258127 
L 216.801192 272.245788 
L 217.04403 270.913135 
M 218.501056 274.874075 
L 218.986732 269.913646 
L 219.229569 274.047336 
L 219.472407 275.404668 
L 219.715245 270.900796 
L 219.958083 268.531636 
L 220.443758 256.920284 
M 222.143622 261.707961 
L 222.38646 255.205111 
M 223.600649 255.180432 
L 223.843487 248.924369 
L 224.086325 252.416412 
L 224.329162 259.523892 
L 224.572 259.536231 
L 224.814838 268.0504 
L 225.057676 266.335227 
L 225.300513 270.999511 
L 225.543351 262.510021 
L 225.786189 262.078143 
L 226.029027 266.421603 
L 226.271864 261.189707 
L 226.75754 268.223151 
M 227.243215 278.267403 
L 227.486053 272.566611 
L 227.728891 275.330631 
L 227.971729 256.624139 
L 228.214566 268.753744 
L 228.457404 245.765489 
L 228.700242 270.974832 
L 228.94308 247.937219 
L 229.185917 237.954664 
L 229.428755 249.800464 
L 229.671593 233.944367 
L 229.914431 230.267233 
L 230.157269 219.28519 
L 230.400106 230.452324 
L 230.642944 219.568995 
L 230.885782 233.50015 
L 231.12862 231.859013 
L 231.371457 221.506277 
L 231.614295 219.050741 
L 231.857133 214.559209 
M 232.342808 206.563294 
L 232.585646 205.242981 
M 233.071322 208.253788 
L 233.314159 208.660988 
L 233.556997 207.464068 
L 233.799835 207.599801 
L 234.042673 207.871268 
M 235.014024 210.376161 
L 235.256861 212.3628 
L 235.499699 211.17822 
L 235.742537 206.921136 
L 235.985375 211.091844 
L 236.228212 211.671795 
L 236.47105 213.621416 
L 236.956726 205.070229 
L 237.199564 204.872799 
L 237.442401 205.995683 
L 237.685239 204.058401 
L 237.928077 204.638351 
L 238.413752 207.797231 
L 238.65659 206.217791 
L 238.899428 208.475897 
L 239.142266 205.971004 
L 239.385103 209.253278 
L 239.627941 209.339653 
L 239.870779 208.01934 
L 240.113617 209.018829 
L 240.356454 206.291828 
L 240.599292 208.623969 
L 240.84213 209.537083 
L 241.327805 208.685666 
L 241.570643 209.894925 
L 241.813481 209.882586 
L 242.056319 208.858418 
L 242.299156 210.215749 
L 242.541994 210.462536 
L 242.784832 207.945304 
L 243.02767 208.192091 
L 243.270508 210.018319 
L 243.513345 209.339653 
M 243.999021 215.089802 
L 244.241859 214.941729 
L 244.484696 213.423986 
M 245.456047 216.237364 
L 245.698885 216.274382 
L 245.941723 216.027595 
M 247.155912 219.754086 
L 247.398749 217.841483 
L 247.884425 216.965387 
L 248.127263 217.434283 
L 248.3701 216.928369 
L 248.612938 215.546359 
L 248.855776 215.595716 
L 249.098614 215.028105 
L 249.341451 213.263574 
L 249.584289 214.176688 
L 249.827127 215.558698 
L 250.55564 225.80038 
L 250.798478 224.973641 
M 254.92672 232.389606 
L 255.169558 231.353098 
L 255.655233 237.498107 
L 255.898071 233.043593 
L 256.140909 231.427135 
L 256.626584 232.809145 
L 256.869422 231.31608 
L 257.11226 233.426113 
L 257.355098 231.501171 
L 257.597935 231.303741 
L 257.840773 229.94641 
L 258.083611 227.873395 
L 258.326449 228.798848 
L 258.569286 228.576739 
M 259.2978 227.861055 
L 259.783475 233.154647 
L 260.026313 235.486789 
L 260.269151 236.091418 
L 260.754826 240.21277 
L 260.997664 237.115587 
L 261.240502 237.374713 
M 262.940366 243.606098 
L 263.183204 240.163412 
L 263.668879 243.408668 
L 263.911717 246.493512 
L 264.154555 242.828717 
L 264.397393 244.778339 
L 264.883068 240.681666 
L 265.125906 243.532062 
L 265.368744 240.644648 
L 265.611581 244.124352 
L 265.854419 238.0287 
L 266.097257 239.21328 
L 266.582932 231.686262 
L 266.82577 230.699112 
L 267.068608 229.107332 
L 267.311446 231.575207 
L 267.554283 231.488832 
L 268.039959 235.351056 
L 268.282797 233.956707 
L 268.525634 231.476492 
L 268.768472 232.130479 
M 269.739823 225.072356 
L 270.225499 223.122735 
L 270.468337 222.653839 
M 271.925363 226.491385 
L 272.168201 230.822505 
M 275.082254 232.488321 
L 276.053605 239.361353 
L 276.296443 243.100184 
M 276.782118 241.644137 
L 277.024956 243.149541 
L 277.267794 241.693495 
L 277.510632 239.237959 
L 277.753469 239.719195 
L 278.239145 237.177283 
L 278.481983 237.954664 
L 278.72482 237.288338 
L 278.967658 235.610183 
L 279.210496 237.64618 
L 279.453334 236.770084 
L 279.696171 235.141287 
M 282.367387 223.776722 
L 282.853062 228.280594 
L 283.0959 226.997299 
L 283.338738 229.613247 
L 283.824413 228.527382 
L 284.067251 226.762851 
L 284.310089 229.304762 
M 288.195493 240.644648 
L 288.438331 235.85697 
L 288.681168 237.288338 
L 289.166844 233.080611 
L 289.409682 236.005043 
L 289.65252 237.152605 
L 289.895357 236.313527 
L 290.138195 238.23847 
L 290.381033 238.744384 
L 290.623871 242.927432 
L 290.866708 242.18707 
L 291.352384 239.509425 
L 291.595222 239.089887 
L 291.838059 237.461089 
L 292.080897 239.719195 
L 292.323735 238.497597 
L 292.566573 238.978832 
L 292.80941 238.472918 
L 293.052248 238.966493 
L 293.295086 234.746427 
L 293.537924 233.722258 
L 293.780761 234.302209 
M 294.266437 237.892967 
L 294.509275 234.166476 
L 294.752112 233.734598 
L 295.237788 240.188091 
L 295.480626 239.188602 
L 295.723464 233.907349 
L 295.966301 231.673922 
L 296.451977 229.983428 
L 296.694815 234.4873 
L 296.937652 233.969046 
L 297.18049 238.793742 
L 297.423328 240.151073 
L 297.666166 237.929985 
L 297.909003 240.064697 
L 298.151841 239.904285 
L 298.394679 240.434879 
L 298.637517 235.795273 
L 298.880354 242.828717 
L 299.123192 243.285274 
M 300.580219 245.876543 
L 300.823056 245.13618 
M 301.55157 237.868288 
L 301.794407 236.165455 
L 302.522921 244.321782 
L 302.765759 256.426709 
L 303.008596 251.07142 
L 304.222785 241.323314 
L 304.465623 238.337185 
L 304.708461 238.263148 
L 304.951298 238.509936 
L 305.194136 237.300677 
L 305.436974 235.301698 
L 305.922649 228.835866 
M 307.379676 228.206558 
L 307.622514 232.599375 
L 307.865351 227.922752 
L 308.108189 228.107843 
L 308.351027 219.186475 
L 308.593865 218.606524 
L 309.07954 221.543295 
L 309.322378 219.211153 
L 309.565216 222.295997 
L 310.050891 213.658434 
L 310.293729 215.114481 
L 310.779405 221.284168 
L 311.022242 233.216344 
L 311.507918 234.808123 
M 312.964944 236.387563 
L 313.207782 233.68524 
L 313.45062 229.193708 
L 313.693458 230.588057 
L 313.936295 228.342291 
L 314.179133 229.193708 
L 314.421971 235.116608 
L 314.664809 232.932538 
L 314.907646 234.919178 
L 315.150484 225.158732 
M 316.364673 221.086738 
L 316.607511 222.456409 
L 317.093186 223.912455 
L 317.336024 220.716557 
L 317.578862 221.44458 
L 317.8217 219.050741 
L 318.064537 218.952026 
M 318.550213 214.571548 
L 318.793051 215.472323 
L 319.278726 221.222471 
L 319.521564 221.123756 
L 319.764402 222.949984 
L 320.007239 223.320165 
L 320.250077 222.690857 
L 320.492915 222.678518 
L 320.97859 225.430198 
M 324.863995 234.129458 
L 325.106832 234.943857 
L 325.34967 233.142308 
L 325.592508 230.094482 
L 326.078183 230.563378 
L 326.321021 233.845652 
L 326.563859 241.027169 
M 329.963588 251.194814 
L 330.449263 253.712046 
L 330.692101 253.773743 
M 333.120478 258.055506 
L 333.363316 257.697664 
L 333.606154 255.007681 
L 333.848992 255.069377 
L 334.334667 253.230811 
L 335.063181 250.577845 
M 336.763045 252.712557 
L 337.005883 252.05857 
L 337.24872 250.911008 
L 337.491558 251.774764 
L 337.734396 248.603545 
L 337.977234 253.823101 
L 338.220071 248.541848 
L 338.462909 247.70277 
L 338.705747 246.32076 
L 338.948585 243.630777 
L 339.191422 243.902243 
L 339.43426 246.185027 
L 339.677098 244.420497 
L 339.919936 244.000958 
L 340.162773 244.580909 
L 340.405611 242.335142 
L 340.648449 242.18707 
M 341.134124 241.483725 
L 341.376962 245.962919 
L 341.6198 244.95109 
L 341.862638 246.703281 
L 342.105476 251.676049 
L 342.591151 247.357268 
L 342.833989 249.060102 
L 343.076827 244.74132 
L 343.562502 245.271914 
L 343.80534 245.271914 
L 344.048178 242.038997 
L 344.291015 241.162902 
L 344.533853 240.854417 
L 344.776691 241.927943 
L 345.019529 242.224088 
L 345.505204 245.025126 
L 345.748042 243.630777 
L 345.99088 247.221535 
L 346.233717 244.037976 
L 346.476555 247.085802 
L 346.719393 246.888372 
L 346.962231 240.274467 
L 347.205068 241.18758 
L 347.690744 247.493001 
L 347.933582 241.964961 
L 348.17642 245.432325 
L 348.419257 246.073973 
L 348.662095 242.137712 
L 348.904933 250.627202 
L 349.390608 235.363395 
L 349.633446 235.46211 
L 349.876284 236.399903 
L 350.119122 232.735108 
L 350.361959 231.673922 
L 350.604797 232.69809 
L 350.847635 230.057464 
M 351.33331 225.356162 
L 351.576148 234.795784 
L 351.818986 236.017382 
L 352.061824 235.708898 
L 352.547499 239.669837 
L 352.790337 239.435389 
L 353.033175 232.438963 
L 353.276012 229.403477 
L 353.51885 228.218897 
L 353.761688 237.917646 
L 354.004526 240.422539 
L 354.247363 240.064697 
L 354.490201 237.559804 
L 354.733039 236.64669 
L 354.975877 236.510957 
L 355.461552 243.803528 
L 355.70439 242.692984 
L 355.947228 246.234385 
L 356.190066 251.910497 
L 356.432903 240.866757 
L 356.675741 239.793231 
L 356.918579 245.271914 
L 357.404254 220.037891 
L 357.647092 223.579292 
L 357.88993 223.542274 
L 358.132768 222.24664 
L 358.375605 220.111928 
L 358.618443 222.690857 
L 358.861281 222.061549 
L 359.104119 222.123246 
M 359.832632 225.047678 
L 360.07547 223.850758 
L 360.318307 228.626097 
L 360.561145 228.786508 
M 364.689387 242.137712 
L 365.175063 245.444665 
L 365.4179 244.531551 
L 365.660738 242.470875 
L 365.903576 245.395307 
L 366.146414 245.716131 
L 366.389251 245.839525 
L 366.632089 246.246724 
L 366.874927 246.172688 
L 367.117765 245.074484 
L 367.60344 249.948537 
M 371.246007 260.325951 
L 371.488844 258.228257 
L 371.731682 257.759361 
M 374.645735 257.105374 
L 374.888573 256.315654 
L 375.131411 256.883266 
L 375.374249 256.179921 
L 375.617086 256.907944 
L 375.859924 258.228257 
L 376.102762 256.79689 
L 376.3456 256.130564 
L 376.588437 256.747532 
L 376.831275 256.833908 
L 377.074113 257.216429 
M 377.559788 259.005638 
L 377.802626 259.326462 
M 382.173706 269.963003 
L 382.416544 269.728555 
L 382.659381 265.101289 
L 382.902219 264.570696 
L 383.145057 265.570186 
L 383.387895 267.704898 
L 383.630732 267.606183 
L 383.87357 266.495639 
L 384.116408 267.939346 
L 384.359246 266.026743 
L 384.602083 265.446792 
L 384.844921 268.0504 
L 385.087759 269.012871 
L 385.330597 269.506446 
L 385.573434 267.803613 
L 385.816272 269.123926 
L 386.05911 269.346034 
L 386.301948 271.752213 
L 386.544785 270.493596 
L 386.787623 268.395903 
L 387.030461 270.407221 
L 387.516137 266.100779 
L 388.001812 268.655029 
L 388.487488 272.208769 
L 388.973163 274.57793 
L 389.458839 274.713663 
L 389.701676 276.650945 
L 389.944514 276.687963 
M 392.372892 276.93475 
L 392.615729 278.094651 
L 392.858567 276.058655 
L 393.101405 276.120351 
L 393.344243 279.11882 
L 393.58708 279.205195 
L 393.829918 278.477172 
L 394.072756 281.611373 
L 394.315594 281.438622 
L 394.558432 281.771785 
L 395.529783 276.428836 
L 395.77262 277.749149 
L 396.015458 277.662773 
L 396.258296 276.55223 
L 396.501134 276.527551 
L 396.743971 277.72447 
L 396.986809 278.341439 
L 397.229647 282.117288 
L 397.715322 283.116777 
L 397.95816 282.635541 
L 398.200998 282.919347 
L 398.443836 282.46279 
M 401.115051 286.2263 
L 401.357889 285.991852 
L 401.600727 286.584142 
L 401.843564 286.645838 
L 402.086402 286.090567 
L 402.32924 286.41139 
L 402.814915 282.598523 
L 403.057753 282.85765 
L 403.300591 282.376415 
L 403.786266 283.968194 
L 404.029104 284.252 
M 405.000455 283.548655 
L 405.243293 286.473087 
L 405.486131 284.535805 
L 405.728968 287.275147 
L 406.214644 285.313186 
L 406.457482 287.102395 
L 406.700319 284.375393 
L 407.185995 282.845311 
L 407.428833 283.06742 
L 407.671671 282.697238 
L 407.914508 283.486958 
L 408.157346 282.216003 
L 408.400184 282.203663 
L 408.643022 282.438111 
L 408.885859 281.599034 
L 409.128697 282.549166 
M 410.342886 279.205195 
L 410.585724 278.995426 
M 414.22829 276.589248 
L 414.471128 277.564058 
L 414.713966 278.069973 
L 414.956803 278.156348 
M 419.085045 284.757914 
L 419.327883 285.251489 
L 419.570721 284.609841 
L 419.813558 285.43658 
M 420.542072 290.421687 
L 420.78491 291.408837 
L 421.027747 290.076185 
L 421.270585 291.125032 
L 421.513423 288.336333 
L 421.756261 288.940962 
L 421.999098 287.929133 
L 422.241936 288.866926 
L 422.484774 288.18826 
L 422.727612 286.473087 
L 422.970449 286.60882 
L 423.213287 285.646349 
L 423.456125 285.954833 
L 423.698963 287.00368 
L 423.9418 286.917305 
L 424.184638 286.053548 
M 425.884502 284.807271 
L 426.12734 283.610352 
L 426.370178 284.43709 
L 426.613016 282.512148 
L 426.855854 283.129116 
L 427.341529 285.609331 
L 427.584367 284.893647 
L 427.827205 289.027338 
L 428.070042 290.421687 
M 431.226933 293.815015 
L 431.469771 293.235065 
L 431.955446 295.542528 
M 435.840851 309.362628 
L 436.326526 310.670602 
L 436.569364 310.201706 
L 436.812202 311.386286 
L 437.055039 309.300931 
L 437.297877 310.485511 
L 437.540715 308.943089 
L 438.02639 310.584226 
L 438.269228 310.238724 
L 438.512066 311.447982 
L 438.997741 309.843864 
L 439.240579 310.929729 
L 439.483417 308.844374 
L 439.726255 308.770338 
L 439.969093 310.201706 
L 440.21193 309.189877 
L 440.454768 307.301952 
L 440.697606 307.388328 
L 440.940444 309.288592 
L 441.183281 308.893732 
L 441.426119 309.177537 
L 441.668957 307.14154 
L 441.911795 308.227405 
L 442.154632 307.672134 
L 442.39747 304.291145 
L 442.640308 307.190898 
L 442.883146 303.291655 
L 443.125983 303.538443 
L 443.368821 302.489596 
L 443.611659 302.131754 
L 443.854497 302.588311 
L 444.097334 302.41556 
L 444.340172 302.736384 
L 444.58301 303.883945 
L 444.825848 305.599119 
L 445.068685 304.698344 
L 445.311523 304.98215 
L 445.554361 304.537932 
L 445.797199 304.932792 
L 446.040036 304.562611 
L 446.282874 304.488575 
L 446.525712 304.155412 
M 447.011388 305.75953 
L 447.497063 305.808888 
M 447.982739 306.450535 
L 448.225576 308.498872 
M 450.896792 309.683452 
L 451.139629 309.991936 
L 451.382467 307.74617 
L 451.625305 306.820717 
L 451.868143 307.252595 
M 452.839494 309.597076 
L 453.082332 310.51019 
L 453.325169 310.855692 
L 453.568007 313.002744 
L 453.810845 312.262381 
L 454.053683 312.607884 
L 454.29652 310.473172 
L 454.539358 309.449004 
L 454.782196 312.743617 
M 455.753547 307.980618 
L 455.996385 310.497851 
L 456.239222 311.003765 
L 456.48206 313.298889 
L 456.724898 314.45879 
L 456.967736 312.904029 
L 457.210573 314.804292 
L 457.453411 313.755446 
L 457.696249 314.199663 
L 458.181924 312.607884 
L 458.424762 312.237702 
L 458.6676 313.619712 
L 458.910438 313.113798 
L 459.153275 313.952876 
L 459.396113 312.755956 
L 459.638951 312.904029 
L 459.881789 314.693238 
L 460.124627 311.225874 
L 460.367464 311.596055 
L 460.610302 310.325099 
L 460.85314 310.781656 
L 461.095978 313.533337 
L 461.338815 313.101459 
L 461.581653 314.384754 
L 461.824491 313.545676 
L 462.067329 314.940026 
L 462.310166 313.07678 
L 462.553004 313.632052 
L 462.795842 311.275231 
L 463.03868 311.818164 
L 463.281517 309.461343 
L 463.524355 311.768806 
L 463.767193 309.658773 
L 464.010031 310.571887 
L 464.252868 310.127669 
L 464.495706 309.399646 
L 464.738544 306.857735 
L 464.981382 308.597587 
L 465.224219 307.869564 
M 465.709895 306.697323 
L 465.952733 307.73383 
L 466.195571 307.820206 
L 466.438408 309.362628 
L 466.681246 307.844885 
L 466.924084 308.017636 
L 467.409759 311.10248 
L 467.895435 310.374457 
L 468.38111 314.137966 
M 469.595299 311.386286 
L 469.838137 310.682941 
L 470.080975 313.039762 
L 470.323812 312.324078 
L 470.809488 313.767785 
L 471.052326 315.223831 
L 471.538001 312.669581 
L 472.023677 312.694259 
L 472.266514 312.398114 
L 472.509352 315.569334 
L 472.75219 314.865989 
L 472.995028 315.705067 
L 473.237866 314.557505 
L 473.480703 317.062398 
L 473.723541 316.43309 
L 473.966379 318.074227 
L 474.209217 316.939004 
L 474.452054 317.864457 
L 474.694892 319.258807 
M 479.065972 331.943685 
L 479.30881 330.857819 
L 479.551647 332.338545 
L 479.794485 333.004871 
L 480.037323 329.352416 
L 480.280161 327.982745 
L 480.522998 332.62235 
L 480.765836 333.634179 
L 481.008674 332.770423 
L 481.251512 334.942153 
L 481.494349 331.351394 
L 481.980025 334.078396 
L 482.222863 330.462959 
L 482.4657 332.461938 
L 482.708538 330.080439 
L 482.951376 332.326205 
L 483.194214 329.179664 
L 483.437051 329.722597 
L 483.679889 329.759615 
L 483.922727 328.340587 
L 484.165565 326.057803 
L 484.408402 326.156518 
L 484.65124 326.773486 
L 484.894078 325.181707 
M 486.593942 326.230554 
L 486.83678 328.27889 
L 487.079618 322.800208 
L 487.322456 320.443387 
L 487.565293 321.677324 
L 488.050969 327.316419 
L 488.293807 325.588906 
L 488.536644 325.588906 
L 489.265158 319.703024 
L 489.507995 324.416666 
L 489.750833 321.196089 
L 489.993671 319.764721 
L 490.236509 322.652135 
L 491.450697 319.517934 
L 491.693535 319.517934 
L 491.936373 320.023848 
L 492.179211 323.886073 
L 492.422049 323.626946 
L 492.664886 325.280422 
L 492.907724 324.268593 
L 493.150562 321.578609 
L 493.3934 321.862415 
L 493.636237 322.763189 
L 493.879075 319.888115 
L 494.121913 319.59197 
L 494.607588 317.901476 
L 494.850426 317.333864 
L 495.093264 320.270636 
L 495.336102 317.963172 
L 495.578939 317.630009 
L 495.821777 320.751871 
L 496.307453 318.098906 
L 496.55029 318.703535 
L 496.793128 323.725661 
L 497.035966 322.565759 
L 497.278804 323.232086 
L 497.521641 322.997638 
L 497.764479 323.009977 
L 498.007317 326.242893 
L 498.492992 323.503552 
L 498.73583 323.960109 
L 498.978668 323.071674 
L 499.464344 326.230554 
L 499.707181 324.762168 
M 500.192857 327.847012 
L 500.435695 327.205364 
L 500.678532 329.167325 
L 500.92137 329.401773 
L 501.164208 328.143157 
L 501.407046 329.142646 
L 501.649883 328.735447 
L 501.892721 328.562696 
L 502.135559 326.489681 
L 502.378397 328.809483 
L 502.621234 325.885051 
L 502.864072 324.515381 
L 503.10691 324.910241 
L 503.349748 326.588396 
L 503.592585 326.008445 
L 503.835423 326.884541 
L 504.078261 326.970916 
L 504.321099 324.120521 
L 504.563936 328.143157 
L 504.806774 325.045974 
L 505.049612 324.959598 
L 505.29245 327.193025 
L 505.535288 322.713832 
L 505.778125 320.616138 
L 506.020963 320.011509 
L 506.506639 330.487638 
L 506.749476 328.229533 
L 507.235152 317.346204 
L 507.47799 314.779614 
L 507.963665 312.496829 
L 508.206503 312.188345 
L 508.692178 313.385264 
L 508.935016 311.904539 
L 509.177854 311.139498 
L 509.420692 310.979086 
M 510.877718 311.842842 
L 511.120556 311.756467 
L 511.363394 311.386286 
L 511.606231 314.471129 
L 511.849069 313.817142 
L 512.334745 311.016104 
L 512.577583 310.917389 
L 512.82042 309.794506 
L 513.063258 310.571887 
L 513.306096 310.522529 
L 513.791771 313.977554 
L 514.034609 313.644391 
L 514.520285 317.518955 
M 515.00596 317.284507 
L 515.248798 319.19711 
L 515.491636 318.580141 
M 516.462987 315.631031 
L 516.705824 316.03823 
L 516.948662 315.24851 
L 517.1915 313.718427 
L 517.434338 313.47164 
L 517.677175 314.174984 
L 517.920013 312.064951 
L 518.162851 315.396582 
L 518.648527 316.099927 
L 519.134202 313.681409 
L 519.37704 314.298378 
L 519.619878 315.816121 
L 519.862715 315.951854 
L 520.105553 314.421772 
L 520.348391 313.66907 
L 520.591229 311.423304 
L 520.834066 311.620734 
L 521.076904 311.225874 
L 521.319742 311.657752 
M 522.048255 310.880371 
L 522.533931 308.856714 
M 523.990957 310.102991 
L 524.233795 309.449004 
L 524.476633 307.74617 
M 524.962308 308.807356 
L 525.205146 310.695281 
L 525.447984 309.732809 
L 525.690822 307.770849 
L 526.176497 313.8665 
L 526.419335 312.385775 
L 526.662173 312.250042 
L 526.90501 314.014572 
L 527.147848 312.780635 
L 527.390686 312.361096 
L 527.633524 312.904029 
L 527.876361 313.952876 
L 528.119199 312.780635 
L 528.362037 314.495808 
L 528.604875 312.768296 
L 528.847712 312.015594 
L 529.09055 311.966236 
L 529.333388 311.090141 
L 529.576226 311.040783 
L 529.819063 310.855692 
L 530.304739 311.583716 
L 530.547577 310.719959 
L 531.033252 311.10248 
M 531.761766 310.559547 
L 532.004603 311.620734 
L 532.490279 310.065972 
L 532.733117 308.498872 
L 532.975954 308.53589 
L 533.218792 309.337949 
L 533.46163 307.955939 
L 533.704468 309.498361 
L 533.947305 307.980618 
L 534.190143 310.460832 
L 534.432981 308.363139 
L 534.675819 311.114819 
L 534.918656 311.423304 
L 535.161494 307.795527 
L 535.404332 308.844374 
L 535.64717 307.881903 
L 535.890007 309.288592 
L 536.375683 306.623287 
L 536.618521 306.216087 
L 536.861358 305.068525 
L 537.104196 304.525593 
L 537.347034 304.315824 
L 537.589872 306.265445 
L 537.832709 304.599629 
L 538.075547 306.129712 
L 538.318385 304.661326 
L 538.561223 304.044357 
L 538.804061 305.068525 
L 539.046898 303.279316 
L 539.289736 303.415049 
L 539.532574 303.118904 
L 539.775412 304.093715 
L 540.018249 302.79808 
L 540.261087 303.427389 
L 540.503925 306.068015 
L 540.746763 305.130222 
L 540.9896 307.055165 
L 541.232438 310.534869 
L 541.475276 307.598097 
L 541.718114 309.461343 
L 542.203789 303.39037 
L 542.446627 304.106054 
L 542.689465 302.835099 
L 542.932302 306.499893 
L 543.17514 304.710684 
L 543.417978 303.995 
L 543.660816 306.006318 
L 543.903653 305.710173 
L 544.146491 304.710684 
L 544.389329 305.142562 
L 544.632167 303.674176 
L 544.875005 301.329695 
L 545.36068 306.919432 
L 545.603518 306.722002 
L 545.846356 304.044357 
L 546.089193 302.835099 
L 546.332031 300.44126 
L 546.574869 300.490617 
L 546.817707 301.354374 
L 547.54622 300.675708 
L 547.789058 301.095247 
L 548.031895 299.725576 
L 548.517571 308.844374 
L 548.760409 307.807867 
L 549.003246 307.388328 
L 549.246084 302.859777 
L 549.488922 304.155412 
L 549.974597 300.62635 
L 550.217435 302.181112 
L 550.460273 302.958492 
L 550.703111 303.353352 
L 550.945948 303.180601 
L 551.188786 304.846417 
L 551.431624 304.636647 
L 552.402975 307.092183 
M 559.202432 318.580141 
L 559.44527 319.826418 
L 559.930946 318.950322 
L 560.173783 315.433601 
L 560.416621 319.406879 
L 560.659459 316.396072 
L 560.902297 315.976533 
L 561.387972 319.530273 
L 561.63081 317.654688 
L 561.873648 317.42024 
L 562.116485 316.988362 
L 562.359323 318.950322 
L 562.602161 315.421261 
L 562.844999 316.864968 
L 563.087836 316.272678 
L 563.573512 313.780124 
L 564.059187 316.976022 
L 564.544863 318.950322 
L 564.787701 317.926154 
L 565.030539 318.172942 
L 565.273376 319.19711 
L 565.516214 317.481937 
L 566.244727 318.160602 
L 566.487565 317.876797 
L 566.730403 318.752892 
M 567.216078 319.653667 
L 567.458916 319.98683 
L 567.701754 320.011509 
L 567.944592 320.603799 
L 568.187429 319.295825 
L 568.430267 321.640306 
L 568.673105 321.652646 
M 573.044185 329.734936 
L 573.287022 330.006403 
L 573.772698 329.451131 
L 574.015536 329.821312 
L 574.258373 331.993042 
L 574.501211 330.031081 
L 574.986887 328.957556 
L 575.472562 329.611543 
L 575.7154 329.241361 
L 575.958238 329.895348 
L 576.443913 328.562696 
L 576.686751 330.499978 
L 577.172426 331.943685 
L 577.415264 331.005892 
L 577.658102 331.277358 
L 577.90094 331.24034 
L 578.143778 331.672218 
L 578.386615 331.807951 
L 578.629453 331.721576 
L 578.872291 331.092268 
L 579.115129 331.190983 
L 579.357966 332.597671 
L 579.600804 332.449599 
M 580.08648 331.055249 
L 580.329317 329.895348 
L 580.572155 329.85833 
L 580.814993 330.179154 
L 581.057831 329.364755 
L 581.300668 329.920027 
L 581.543506 331.116946 
L 581.786344 331.487128 
L 582.029182 330.314887 
L 582.272019 329.747276 
L 582.514857 330.031081 
L 582.757695 330.833141 
L 583.000533 330.759104 
L 583.24337 331.647539 
L 583.486208 331.425431 
L 583.729046 331.820291 
L 583.971884 332.560653 
L 584.214722 331.24034 
L 584.457559 331.573503 
L 584.700397 332.190472 
L 584.943235 330.746765 
L 585.186073 330.302548 
L 585.42891 331.04291 
L 585.671748 330.981213 
L 585.914586 331.807951 
L 586.157424 330.84548 
L 586.400261 334.275826 
L 586.885937 330.05576 
L 587.128775 328.858841 
L 587.371612 329.117968 
L 587.61445 329.562185 
L 588.100126 331.079928 
L 588.342963 331.462449 
L 588.585801 331.153964 
L 588.828639 331.215661 
L 589.071477 332.017721 
L 589.314314 331.178643 
L 589.557152 332.63469 
L 590.042828 337.212598 
M 591.499854 335.225958 
L 591.742692 334.720044 
L 591.98553 334.522614 
L 592.228368 334.0167 
L 592.471205 333.905645 
L 592.714043 335.682515 
L 592.956881 335.756551 
L 593.199719 336.324163 
L 593.442556 334.522614 
L 593.685394 334.707705 
L 593.928232 333.62184 
L 594.17107 334.559632 
L 594.413907 336.805398 
L 594.656745 335.991 
L 594.899583 335.892285 
L 595.142421 336.941131 
L 595.628096 333.658858 
L 596.113772 334.979171 
L 596.599447 338.55759 
L 596.842285 341.296931 
M 602.184716 350.40339 
L 602.427553 348.675877 
L 602.670391 350.79825 
L 602.913229 349.897475 
L 603.156067 350.526783 
L 603.398904 350.144263 
L 603.88458 345.887178 
L 604.370256 346.121627 
L 604.613093 345.911857 
M 605.341607 347.4296 
L 605.584444 346.24502 
L 605.827282 345.813142 
M 607.527146 342.456832 
L 608.012822 342.518529 
L 608.498497 343.69077 
L 608.741335 345.46764 
L 608.984173 344.529847 
L 609.227011 344.801313 
L 609.469848 347.898497 
L 609.712686 347.491297 
L 609.955524 347.367903 
L 610.198362 346.973043 
L 610.4412 346.812632 
L 610.926875 343.567376 
L 611.169713 344.159666 
L 611.412551 346.25736 
L 611.655388 345.837821 
L 611.898226 346.467129 
L 612.141064 345.800803 
L 612.383902 344.320078 
L 612.869577 344.258381 
L 613.112415 345.430622 
L 613.355253 343.789485 
L 613.59809 344.455811 
L 613.840928 346.331396 
L 614.083766 345.171495 
L 614.326604 345.097458 
L 614.569441 344.603883 
L 615.297955 347.182813 
L 615.540792 345.405943 
L 615.78363 345.122137 
L 616.026468 347.651709 
L 616.269306 346.319057 
L 616.512143 346.997722 
L 616.997819 345.874839 
L 617.240657 346.096948 
L 617.726332 343.234213 
L 617.96917 343.814163 
L 618.212008 343.703109 
L 618.454846 343.937557 
L 618.697683 344.46815 
L 618.940521 343.135498 
L 619.183359 343.87586 
L 619.426197 343.777145 
L 619.669034 343.838842 
L 619.911872 344.122648 
L 620.15471 346.664559 
L 620.397548 344.974065 
L 620.640385 345.208513 
L 620.883223 346.405432 
M 621.611736 348.848628 
L 621.854574 347.750424 
L 622.097412 348.21932 
L 622.34025 346.936025 
L 622.583087 347.269188 
L 622.825925 348.046569 
L 623.311601 345.233192 
L 623.554439 345.578694 
L 623.797276 346.146305 
L 624.040114 345.418282 
L 624.282952 342.629583 
M 625.011465 345.726767 
L 625.254303 346.405432 
L 625.497141 348.009551 
L 625.739978 348.206981 
L 625.982816 347.096437 
L 626.468492 349.083077 
L 626.711329 350.082566 
L 626.954167 349.576652 
L 627.197005 349.8111 
L 627.439843 349.8111 
M 628.654031 347.62703 
L 629.139707 346.516487 
L 629.382545 347.466618 
L 629.625382 346.195663 
L 629.86822 347.071758 
L 630.111058 345.911857 
L 630.353896 346.45479 
L 630.596734 344.27072 
M 632.05376 342.617244 
L 632.296598 342.222384 
L 632.782273 343.394625 
L 633.025111 345.134477 
L 633.267949 345.233192 
L 633.753624 343.320588 
L 633.996462 343.653752 
L 634.2393 344.406453 
L 634.482138 342.247063 
L 634.724975 341.346288 
L 634.967813 341.395646 
L 635.210651 341.815185 
L 635.453489 342.962746 
L 635.696326 343.49334 
L 635.939164 343.481 
L 636.42484 343.764806 
L 636.667678 346.356075 
L 636.910515 345.220852 
L 637.153353 346.195663 
L 637.396191 346.25736 
L 637.639029 349.132434 
M 639.581731 349.440918 
L 639.824568 350.637838 
L 640.310244 345.998233 
L 640.553082 346.306717 
L 640.795919 347.24451 
L 641.038757 346.220342 
L 641.281595 348.737574 
L 641.524433 348.046569 
L 641.76727 346.022912 
L 642.010108 345.825482 
L 642.495784 350.514444 
L 642.738621 348.157623 
L 642.981459 347.355564 
L 643.224297 347.355564 
L 643.467135 346.405432 
L 643.709973 348.638859 
L 643.95281 349.564312 
L 644.195648 351.353522 
L 644.681324 350.094905 
L 644.924161 349.046058 
L 645.166999 348.675877 
L 645.409837 348.651198 
L 645.652675 350.477426 
L 645.895512 348.959683 
L 646.13835 349.083077 
L 646.381188 350.230638 
L 646.624026 350.131923 
L 646.866863 351.563291 
L 647.109701 351.217788 
L 647.352539 352.501083 
L 647.595377 352.37769 
L 647.838214 354.055845 
M 650.752268 358.337608 
L 650.995105 355.882072 
L 651.237943 359.139667 
L 651.480781 356.030145 
L 651.966456 356.90624 
L 652.209294 358.399305 
L 652.452132 358.226554 
L 652.69497 359.596224 
L 652.937807 358.386965 
L 653.180645 359.48517 
L 653.423483 358.374626 
L 653.666321 360.435302 
L 653.909158 359.534527 
L 654.151996 360.817822 
L 654.394834 360.003424 
L 654.637672 361.755615 
L 654.880509 361.545845 
L 655.123347 362.298547 
L 655.366185 361.829651 
L 655.609023 362.532995 
L 655.609023 362.532995 
" clip-path="url(#pd64049e311)" style="fill: none; stroke: #1e90ff"/>
   </g>
   <g id="patch_3">
    <path d="M 57.68175 378.43845 
L 57.68175 28.51845 
" style="fill: none; stroke: #f0f0f0; stroke-width: 3; stroke-linejoin: miter; stroke-linecap: square"/>
   </g>
   <g id="patch_4">
    <path d="M 684.08175 378.43845 
L 684.08175 28.51845 
" style="fill: none; stroke: #f0f0f0; stroke-width: 3; stroke-linejoin: miter; stroke-linecap: square"/>
   </g>
   <g id="patch_5">
    <path d="M 57.68175 378.43845 
L 684.08175 378.43845 
" style="fill: none; stroke: #f0f0f0; stroke-width: 3; stroke-linejoin: miter; stroke-linecap: square"/>
   </g>
   <g id="patch_6">
    <path d="M 57.68175 28.51845 
L 684.08175 28.51845 
" style="fill: none; stroke: #f0f0f0; stroke-width: 3; stroke-linejoin: miter; stroke-linecap: square"/>
   </g>
   <g id="text_14">
    <!-- BRK_B, Relative Strength Index (RSI), BRK_B -->
    <g transform="translate(147.2412 22.51845)scale(0.2016 -0.2016)">
     <defs>
      <path id="DejaVuSans-42" d="M 1259 2228 
L 1259 519 
L 2272 519 
Q 2781 519 3026 730 
Q 3272 941 3272 1375 
Q 3272 1813 3026 2020 
Q 2781 2228 2272 2228 
L 1259 2228 
z
M 1259 4147 
L 1259 2741 
L 2194 2741 
Q 2656 2741 2882 2914 
Q 3109 3088 3109 3444 
Q 3109 3797 2882 3972 
Q 2656 4147 2194 4147 
L 1259 4147 
z
M 628 4666 
L 2241 4666 
Q 2963 4666 3353 4366 
Q 3744 4066 3744 3513 
Q 3744 3084 3544 2831 
Q 3344 2578 2956 2516 
Q 3422 2416 3680 2098 
Q 3938 1781 3938 1306 
Q 3938 681 3513 340 
Q 3088 0 2303 0 
L 628 0 
L 628 4666 
z
" transform="scale(0.015625)"/>
      <path id="DejaVuSans-52" d="M 2841 2188 
Q 3044 2119 3236 1894 
Q 3428 1669 3622 1275 
L 4263 0 
L 3584 0 
L 2988 1197 
Q 2756 1666 2539 1819 
Q 2322 1972 1947 1972 
L 1259 1972 
L 1259 0 
L 628 0 
L 628 4666 
L 2053 4666 
Q 2853 4666 3247 4331 
Q 3641 3997 3641 3322 
Q 3641 2881 3436 2590 
Q 3231 2300 2841 2188 
z
M 1259 4147 
L 1259 2491 
L 2053 2491 
Q 2509 2491 2742 2702 
Q 2975 2913 2975 3322 
Q 2975 3731 2742 3939 
Q 2509 4147 2053 4147 
L 1259 4147 
z
" transform="scale(0.015625)"/>
      <path id="DejaVuSans-4b" d="M 628 4666 
L 1259 4666 
L 1259 2694 
L 3353 4666 
L 4166 4666 
L 1850 2491 
L 4331 0 
L 3500 0 
L 1259 2247 
L 1259 0 
L 628 0 
L 628 4666 
z
" transform="scale(0.015625)"/>
      <path id="DejaVuSans-5f" d="M 3263 -1063 
L 3263 -1509 
L -63 -1509 
L -63 -1063 
L 3263 -1063 
z
" transform="scale(0.015625)"/>
      <path id="DejaVuSans-2c" d="M 750 794 
L 1409 794 
L 1409 256 
L 897 -744 
L 494 -744 
L 750 256 
L 750 794 
z
" transform="scale(0.015625)"/>
      <path id="DejaVuSans-6c" d="M 603 4863 
L 1178 4863 
L 1178 0 
L 603 0 
L 603 4863 
z
" transform="scale(0.015625)"/>
      <path id="DejaVuSans-76" d="M 191 3500 
L 800 3500 
L 1894 563 
L 2988 3500 
L 3597 3500 
L 2284 0 
L 1503 0 
L 191 3500 
z
" transform="scale(0.015625)"/>
      <path id="DejaVuSans-6e" d="M 3513 2113 
L 3513 0 
L 2938 0 
L 2938 2094 
Q 2938 2591 2744 2837 
Q 2550 3084 2163 3084 
Q 1697 3084 1428 2787 
Q 1159 2491 1159 1978 
L 1159 0 
L 581 0 
L 581 3500 
L 1159 3500 
L 1159 2956 
Q 1366 3272 1645 3428 
Q 1925 3584 2291 3584 
Q 2894 3584 3203 3211 
Q 3513 2838 3513 2113 
z
" transform="scale(0.015625)"/>
      <path id="DejaVuSans-67" d="M 2906 1791 
Q 2906 2416 2648 2759 
Q 2391 3103 1925 3103 
Q 1463 3103 1205 2759 
Q 947 2416 947 1791 
Q 947 1169 1205 825 
Q 1463 481 1925 481 
Q 2391 481 2648 825 
Q 2906 1169 2906 1791 
z
M 3481 434 
Q 3481 -459 3084 -895 
Q 2688 -1331 1869 -1331 
Q 1566 -1331 1297 -1286 
Q 1028 -1241 775 -1147 
L 775 -588 
Q 1028 -725 1275 -790 
Q 1522 -856 1778 -856 
Q 2344 -856 2625 -561 
Q 2906 -266 2906 331 
L 2906 616 
Q 2728 306 2450 153 
Q 2172 0 1784 0 
Q 1141 0 747 490 
Q 353 981 353 1791 
Q 353 2603 747 3093 
Q 1141 3584 1784 3584 
Q 2172 3584 2450 3431 
Q 2728 3278 2906 2969 
L 2906 3500 
L 3481 3500 
L 3481 434 
z
" transform="scale(0.015625)"/>
      <path id="DejaVuSans-68" d="M 3513 2113 
L 3513 0 
L 2938 0 
L 2938 2094 
Q 2938 2591 2744 2837 
Q 2550 3084 2163 3084 
Q 1697 3084 1428 2787 
Q 1159 2491 1159 1978 
L 1159 0 
L 581 0 
L 581 4863 
L 1159 4863 
L 1159 2956 
Q 1366 3272 1645 3428 
Q 1925 3584 2291 3584 
Q 2894 3584 3203 3211 
Q 3513 2838 3513 2113 
z
" transform="scale(0.015625)"/>
      <path id="DejaVuSans-49" d="M 628 4666 
L 1259 4666 
L 1259 0 
L 628 0 
L 628 4666 
z
" transform="scale(0.015625)"/>
      <path id="DejaVuSans-64" d="M 2906 2969 
L 2906 4863 
L 3481 4863 
L 3481 0 
L 2906 0 
L 2906 525 
Q 2725 213 2448 61 
Q 2172 -91 1784 -91 
Q 1150 -91 751 415 
Q 353 922 353 1747 
Q 353 2572 751 3078 
Q 1150 3584 1784 3584 
Q 2172 3584 2448 3432 
Q 2725 3281 2906 2969 
z
M 947 1747 
Q 947 1113 1208 752 
Q 1469 391 1925 391 
Q 2381 391 2643 752 
Q 2906 1113 2906 1747 
Q 2906 2381 2643 2742 
Q 2381 3103 1925 3103 
Q 1469 3103 1208 2742 
Q 947 2381 947 1747 
z
" transform="scale(0.015625)"/>
      <path id="DejaVuSans-78" d="M 3513 3500 
L 2247 1797 
L 3578 0 
L 2900 0 
L 1881 1375 
L 863 0 
L 184 0 
L 1544 1831 
L 300 3500 
L 978 3500 
L 1906 2253 
L 2834 3500 
L 3513 3500 
z
" transform="scale(0.015625)"/>
     </defs>
     <use xlink:href="#DejaVuSans-42"/>
     <use xlink:href="#DejaVuSans-52" x="68.603516"/>
     <use xlink:href="#DejaVuSans-4b" x="138.085938"/>
     <use xlink:href="#DejaVuSans-5f" x="203.662109"/>
     <use xlink:href="#DejaVuSans-42" x="253.662109"/>
     <use xlink:href="#DejaVuSans-2c" x="322.265625"/>
     <use xlink:href="#DejaVuSans-20" x="354.052734"/>
     <use xlink:href="#DejaVuSans-52" x="385.839844"/>
     <use xlink:href="#DejaVuSans-65" x="450.822266"/>
     <use xlink:href="#DejaVuSans-6c" x="512.345703"/>
     <use xlink:href="#DejaVuSans-61" x="540.128906"/>
     <use xlink:href="#DejaVuSans-74" x="601.408203"/>
     <use xlink:href="#DejaVuSans-69" x="640.617188"/>
     <use xlink:href="#DejaVuSans-76" x="668.400391"/>
     <use xlink:href="#DejaVuSans-65" x="727.580078"/>
     <use xlink:href="#DejaVuSans-20" x="789.103516"/>
     <use xlink:href="#DejaVuSans-53" x="820.890625"/>
     <use xlink:href="#DejaVuSans-74" x="884.367188"/>
     <use xlink:href="#DejaVuSans-72" x="923.576172"/>
     <use xlink:href="#DejaVuSans-65" x="962.439453"/>
     <use xlink:href="#DejaVuSans-6e" x="1023.962891"/>
     <use xlink:href="#DejaVuSans-67" x="1087.341797"/>
     <use xlink:href="#DejaVuSans-74" x="1150.818359"/>
     <use xlink:href="#DejaVuSans-68" x="1190.027344"/>
     <use xlink:href="#DejaVuSans-20" x="1253.40625"/>
     <use xlink:href="#DejaVuSans-49" x="1285.193359"/>
     <use xlink:href="#DejaVuSans-6e" x="1314.685547"/>
     <use xlink:href="#DejaVuSans-64" x="1378.064453"/>
     <use xlink:href="#DejaVuSans-65" x="1441.541016"/>
     <use xlink:href="#DejaVuSans-78" x="1501.314453"/>
     <use xlink:href="#DejaVuSans-20" x="1560.494141"/>
     <use xlink:href="#DejaVuSans-28" x="1592.28125"/>
     <use xlink:href="#DejaVuSans-52" x="1631.294922"/>
     <use xlink:href="#DejaVuSans-53" x="1700.777344"/>
     <use xlink:href="#DejaVuSans-49" x="1764.253906"/>
     <use xlink:href="#DejaVuSans-29" x="1793.746094"/>
     <use xlink:href="#DejaVuSans-2c" x="1832.759766"/>
     <use xlink:href="#DejaVuSans-20" x="1864.546875"/>
     <use xlink:href="#DejaVuSans-42" x="1896.333984"/>
     <use xlink:href="#DejaVuSans-52" x="1964.9375"/>
     <use xlink:href="#DejaVuSans-4b" x="2034.419922"/>
     <use xlink:href="#DejaVuSans-5f" x="2099.996094"/>
     <use xlink:href="#DejaVuSans-42" x="2149.996094"/>
    </g>
   </g>
   <g id="legend_1">
    <g id="patch_7">
     <path d="M 464.408625 101.366575 
L 674.28175 101.366575 
Q 677.08175 101.366575 677.08175 98.566575 
L 677.08175 38.31845 
Q 677.08175 35.51845 674.28175 35.51845 
L 464.408625 35.51845 
Q 461.608625 35.51845 461.608625 38.31845 
L 461.608625 98.566575 
Q 461.608625 101.366575 464.408625 101.366575 
z
" style="fill: #f0f0f0; opacity: 0.8; stroke: #cccccc; stroke-width: 0.5; stroke-linejoin: miter"/>
    </g>
    <g id="line2d_26">
     <path d="M 467.208625 46.856262 
L 481.208625 46.856262 
L 495.208625 46.856262 
" style="fill: none; stroke: #00ff7f"/>
    </g>
    <g id="text_15">
     <!-- Oversold, RSI &lt;= 30 -->
     <g transform="translate(506.408625 51.756262)scale(0.14 -0.14)">
      <defs>
       <path id="DejaVuSans-4f" d="M 2522 4238 
Q 1834 4238 1429 3725 
Q 1025 3213 1025 2328 
Q 1025 1447 1429 934 
Q 1834 422 2522 422 
Q 3209 422 3611 934 
Q 4013 1447 4013 2328 
Q 4013 3213 3611 3725 
Q 3209 4238 2522 4238 
z
M 2522 4750 
Q 3503 4750 4090 4092 
Q 4678 3434 4678 2328 
Q 4678 1225 4090 567 
Q 3503 -91 2522 -91 
Q 1538 -91 948 565 
Q 359 1222 359 2328 
Q 359 3434 948 4092 
Q 1538 4750 2522 4750 
z
" transform="scale(0.015625)"/>
       <path id="DejaVuSans-73" d="M 2834 3397 
L 2834 2853 
Q 2591 2978 2328 3040 
Q 2066 3103 1784 3103 
Q 1356 3103 1142 2972 
Q 928 2841 928 2578 
Q 928 2378 1081 2264 
Q 1234 2150 1697 2047 
L 1894 2003 
Q 2506 1872 2764 1633 
Q 3022 1394 3022 966 
Q 3022 478 2636 193 
Q 2250 -91 1575 -91 
Q 1294 -91 989 -36 
Q 684 19 347 128 
L 347 722 
Q 666 556 975 473 
Q 1284 391 1588 391 
Q 1994 391 2212 530 
Q 2431 669 2431 922 
Q 2431 1156 2273 1281 
Q 2116 1406 1581 1522 
L 1381 1569 
Q 847 1681 609 1914 
Q 372 2147 372 2553 
Q 372 3047 722 3315 
Q 1072 3584 1716 3584 
Q 2034 3584 2315 3537 
Q 2597 3491 2834 3397 
z
" transform="scale(0.015625)"/>
       <path id="DejaVuSans-6f" d="M 1959 3097 
Q 1497 3097 1228 2736 
Q 959 2375 959 1747 
Q 959 1119 1226 758 
Q 1494 397 1959 397 
Q 2419 397 2687 759 
Q 2956 1122 2956 1747 
Q 2956 2369 2687 2733 
Q 2419 3097 1959 3097 
z
M 1959 3584 
Q 2709 3584 3137 3096 
Q 3566 2609 3566 1747 
Q 3566 888 3137 398 
Q 2709 -91 1959 -91 
Q 1206 -91 779 398 
Q 353 888 353 1747 
Q 353 2609 779 3096 
Q 1206 3584 1959 3584 
z
" transform="scale(0.015625)"/>
       <path id="DejaVuSans-3c" d="M 4684 3150 
L 1459 2003 
L 4684 863 
L 4684 294 
L 678 1747 
L 678 2266 
L 4684 3719 
L 4684 3150 
z
" transform="scale(0.015625)"/>
       <path id="DejaVuSans-3d" d="M 678 2906 
L 4684 2906 
L 4684 2381 
L 678 2381 
L 678 2906 
z
M 678 1631 
L 4684 1631 
L 4684 1100 
L 678 1100 
L 678 1631 
z
" transform="scale(0.015625)"/>
      </defs>
      <use xlink:href="#DejaVuSans-4f"/>
      <use xlink:href="#DejaVuSans-76" x="78.710938"/>
      <use xlink:href="#DejaVuSans-65" x="137.890625"/>
      <use xlink:href="#DejaVuSans-72" x="199.414062"/>
      <use xlink:href="#DejaVuSans-73" x="240.527344"/>
      <use xlink:href="#DejaVuSans-6f" x="292.626953"/>
      <use xlink:href="#DejaVuSans-6c" x="353.808594"/>
      <use xlink:href="#DejaVuSans-64" x="381.591797"/>
      <use xlink:href="#DejaVuSans-2c" x="445.068359"/>
      <use xlink:href="#DejaVuSans-20" x="476.855469"/>
      <use xlink:href="#DejaVuSans-52" x="508.642578"/>
      <use xlink:href="#DejaVuSans-53" x="578.125"/>
      <use xlink:href="#DejaVuSans-49" x="641.601562"/>
      <use xlink:href="#DejaVuSans-20" x="671.09375"/>
      <use xlink:href="#DejaVuSans-3c" x="702.880859"/>
      <use xlink:href="#DejaVuSans-3d" x="786.669922"/>
      <use xlink:href="#DejaVuSans-20" x="870.458984"/>
      <use xlink:href="#DejaVuSans-33" x="902.246094"/>
      <use xlink:href="#DejaVuSans-30" x="965.869141"/>
     </g>
    </g>
    <g id="line2d_27">
     <path d="M 467.208625 67.405637 
L 481.208625 67.405637 
L 495.208625 67.405637 
" style="fill: none; stroke: #ff4500"/>
    </g>
    <g id="text_16">
     <!-- Overbought, RSI &gt;= 70 -->
     <g transform="translate(506.408625 72.305637)scale(0.14 -0.14)">
      <defs>
       <path id="DejaVuSans-62" d="M 3116 1747 
Q 3116 2381 2855 2742 
Q 2594 3103 2138 3103 
Q 1681 3103 1420 2742 
Q 1159 2381 1159 1747 
Q 1159 1113 1420 752 
Q 1681 391 2138 391 
Q 2594 391 2855 752 
Q 3116 1113 3116 1747 
z
M 1159 2969 
Q 1341 3281 1617 3432 
Q 1894 3584 2278 3584 
Q 2916 3584 3314 3078 
Q 3713 2572 3713 1747 
Q 3713 922 3314 415 
Q 2916 -91 2278 -91 
Q 1894 -91 1617 61 
Q 1341 213 1159 525 
L 1159 0 
L 581 0 
L 581 4863 
L 1159 4863 
L 1159 2969 
z
" transform="scale(0.015625)"/>
       <path id="DejaVuSans-75" d="M 544 1381 
L 544 3500 
L 1119 3500 
L 1119 1403 
Q 1119 906 1312 657 
Q 1506 409 1894 409 
Q 2359 409 2629 706 
Q 2900 1003 2900 1516 
L 2900 3500 
L 3475 3500 
L 3475 0 
L 2900 0 
L 2900 538 
Q 2691 219 2414 64 
Q 2138 -91 1772 -91 
Q 1169 -91 856 284 
Q 544 659 544 1381 
z
M 1991 3584 
L 1991 3584 
z
" transform="scale(0.015625)"/>
       <path id="DejaVuSans-3e" d="M 678 3150 
L 678 3719 
L 4684 2266 
L 4684 1747 
L 678 294 
L 678 863 
L 3897 2003 
L 678 3150 
z
" transform="scale(0.015625)"/>
       <path id="DejaVuSans-37" d="M 525 4666 
L 3525 4666 
L 3525 4397 
L 1831 0 
L 1172 0 
L 2766 4134 
L 525 4134 
L 525 4666 
z
" transform="scale(0.015625)"/>
      </defs>
      <use xlink:href="#DejaVuSans-4f"/>
      <use xlink:href="#DejaVuSans-76" x="78.710938"/>
      <use xlink:href="#DejaVuSans-65" x="137.890625"/>
      <use xlink:href="#DejaVuSans-72" x="199.414062"/>
      <use xlink:href="#DejaVuSans-62" x="240.527344"/>
      <use xlink:href="#DejaVuSans-6f" x="304.003906"/>
      <use xlink:href="#DejaVuSans-75" x="365.185547"/>
      <use xlink:href="#DejaVuSans-67" x="428.564453"/>
      <use xlink:href="#DejaVuSans-68" x="492.041016"/>
      <use xlink:href="#DejaVuSans-74" x="555.419922"/>
      <use xlink:href="#DejaVuSans-2c" x="594.628906"/>
      <use xlink:href="#DejaVuSans-20" x="626.416016"/>
      <use xlink:href="#DejaVuSans-52" x="658.203125"/>
      <use xlink:href="#DejaVuSans-53" x="727.685547"/>
      <use xlink:href="#DejaVuSans-49" x="791.162109"/>
      <use xlink:href="#DejaVuSans-20" x="820.654297"/>
      <use xlink:href="#DejaVuSans-3e" x="852.441406"/>
      <use xlink:href="#DejaVuSans-3d" x="936.230469"/>
      <use xlink:href="#DejaVuSans-20" x="1020.019531"/>
      <use xlink:href="#DejaVuSans-37" x="1051.806641"/>
      <use xlink:href="#DejaVuSans-30" x="1115.429688"/>
     </g>
    </g>
    <g id="line2d_28">
     <path d="M 467.208625 87.955012 
L 481.208625 87.955012 
L 495.208625 87.955012 
" style="fill: none; stroke: #1e90ff"/>
    </g>
    <g id="text_17">
     <!-- Neutral -->
     <g transform="translate(506.408625 92.855012)scale(0.14 -0.14)">
      <defs>
       <path id="DejaVuSans-4e" d="M 628 4666 
L 1478 4666 
L 3547 763 
L 3547 4666 
L 4159 4666 
L 4159 0 
L 3309 0 
L 1241 3903 
L 1241 0 
L 628 0 
L 628 4666 
z
" transform="scale(0.015625)"/>
      </defs>
      <use xlink:href="#DejaVuSans-4e"/>
      <use xlink:href="#DejaVuSans-65" x="74.804688"/>
      <use xlink:href="#DejaVuSans-75" x="136.328125"/>
      <use xlink:href="#DejaVuSans-74" x="199.707031"/>
      <use xlink:href="#DejaVuSans-72" x="238.916016"/>
      <use xlink:href="#DejaVuSans-61" x="280.029297"/>
      <use xlink:href="#DejaVuSans-6c" x="341.308594"/>
     </g>
    </g>
   </g>
  </g>
 </g>
 <defs>
  <clipPath id="pd64049e311">
   <rect x="57.68175" y="28.51845" width="626.4" height="349.92"/>
  </clipPath>
 </defs>
</svg>
