<?xml version="1.0" encoding="utf-8" standalone="no"?>
<!DOCTYPE svg PUBLIC "-//W3C//DTD SVG 1.1//EN"
  "http://www.w3.org/Graphics/SVG/1.1/DTD/svg11.dtd">
<svg xmlns:xlink="http://www.w3.org/1999/xlink" width="615.34375pt" height="392.514375pt" viewBox="0 0 615.34375 392.514375" xmlns="http://www.w3.org/2000/svg" version="1.1">
 <metadata>
  <rdf:RDF xmlns:dc="http://purl.org/dc/elements/1.1/" xmlns:cc="http://creativecommons.org/ns#" xmlns:rdf="http://www.w3.org/1999/02/22-rdf-syntax-ns#">
   <cc:Work>
    <dc:type rdf:resource="http://purl.org/dc/dcmitype/StillImage"/>
    <dc:date>2023-03-19T16:42:49.828515</dc:date>
    <dc:format>image/svg+xml</dc:format>
    <dc:creator>
     <cc:Agent>
      <dc:title>Matplotlib v3.5.1, https://matplotlib.org/</dc:title>
     </cc:Agent>
    </dc:creator>
   </cc:Work>
  </rdf:RDF>
 </metadata>
 <defs>
  <style type="text/css">*{stroke-linejoin: round; stroke-linecap: butt}</style>
 </defs>
 <g id="figure_1">
  <g id="patch_1">
   <path d="M 0 392.514375 
L 615.34375 392.514375 
L 615.34375 0 
L 0 0 
z
" style="fill: #ffffff"/>
  </g>
  <g id="axes_1">
   <g id="patch_2">
    <path d="M 50.14375 354.958125 
L 608.14375 354.958125 
L 608.14375 22.318125 
L 50.14375 22.318125 
z
" style="fill: #ffffff"/>
   </g>
   <g id="patch_3">
    <path d="M 97.838652 354.958125 
L 102.464754 354.958125 
L 102.464754 353.484637 
L 97.838652 353.484637 
z
" clip-path="url(#p17e06f035a)" style="fill: #1f77b4; opacity: 0.4"/>
   </g>
   <g id="patch_4">
    <path d="M 102.464754 354.958125 
L 107.090856 354.958125 
L 107.090856 354.958125 
L 102.464754 354.958125 
z
" clip-path="url(#p17e06f035a)" style="fill: #1f77b4; opacity: 0.4"/>
   </g>
   <g id="patch_5">
    <path d="M 107.090856 354.958125 
L 111.716958 354.958125 
L 111.716958 354.958125 
L 107.090856 354.958125 
z
" clip-path="url(#p17e06f035a)" style="fill: #1f77b4; opacity: 0.4"/>
   </g>
   <g id="patch_6">
    <path d="M 111.716958 354.958125 
L 116.34306 354.958125 
L 116.34306 353.484637 
L 111.716958 353.484637 
z
" clip-path="url(#p17e06f035a)" style="fill: #1f77b4; opacity: 0.4"/>
   </g>
   <g id="patch_7">
    <path d="M 116.34306 354.958125 
L 120.969162 354.958125 
L 120.969162 354.958125 
L 116.34306 354.958125 
z
" clip-path="url(#p17e06f035a)" style="fill: #1f77b4; opacity: 0.4"/>
   </g>
   <g id="patch_8">
    <path d="M 120.969162 354.958125 
L 125.595264 354.958125 
L 125.595264 353.484637 
L 120.969162 353.484637 
z
" clip-path="url(#p17e06f035a)" style="fill: #1f77b4; opacity: 0.4"/>
   </g>
   <g id="patch_9">
    <path d="M 125.595264 354.958125 
L 130.221366 354.958125 
L 130.221366 354.958125 
L 125.595264 354.958125 
z
" clip-path="url(#p17e06f035a)" style="fill: #1f77b4; opacity: 0.4"/>
   </g>
   <g id="patch_10">
    <path d="M 130.221366 354.958125 
L 134.847468 354.958125 
L 134.847468 353.484637 
L 130.221366 353.484637 
z
" clip-path="url(#p17e06f035a)" style="fill: #1f77b4; opacity: 0.4"/>
   </g>
   <g id="patch_11">
    <path d="M 134.847468 354.958125 
L 139.47357 354.958125 
L 139.47357 352.011148 
L 134.847468 352.011148 
z
" clip-path="url(#p17e06f035a)" style="fill: #1f77b4; opacity: 0.4"/>
   </g>
   <g id="patch_12">
    <path d="M 139.47357 354.958125 
L 144.099672 354.958125 
L 144.099672 353.484637 
L 139.47357 353.484637 
z
" clip-path="url(#p17e06f035a)" style="fill: #1f77b4; opacity: 0.4"/>
   </g>
   <g id="patch_13">
    <path d="M 144.099672 354.958125 
L 148.725774 354.958125 
L 148.725774 353.484637 
L 144.099672 353.484637 
z
" clip-path="url(#p17e06f035a)" style="fill: #1f77b4; opacity: 0.4"/>
   </g>
   <g id="patch_14">
    <path d="M 148.725774 354.958125 
L 153.351876 354.958125 
L 153.351876 353.484637 
L 148.725774 353.484637 
z
" clip-path="url(#p17e06f035a)" style="fill: #1f77b4; opacity: 0.4"/>
   </g>
   <g id="patch_15">
    <path d="M 153.351876 354.958125 
L 157.977978 354.958125 
L 157.977978 353.484637 
L 153.351876 353.484637 
z
" clip-path="url(#p17e06f035a)" style="fill: #1f77b4; opacity: 0.4"/>
   </g>
   <g id="patch_16">
    <path d="M 157.977978 354.958125 
L 162.60408 354.958125 
L 162.60408 349.064172 
L 157.977978 349.064172 
z
" clip-path="url(#p17e06f035a)" style="fill: #1f77b4; opacity: 0.4"/>
   </g>
   <g id="patch_17">
    <path d="M 162.60408 354.958125 
L 167.230182 354.958125 
L 167.230182 350.53766 
L 162.60408 350.53766 
z
" clip-path="url(#p17e06f035a)" style="fill: #1f77b4; opacity: 0.4"/>
   </g>
   <g id="patch_18">
    <path d="M 167.230182 354.958125 
L 171.856284 354.958125 
L 171.856284 349.064172 
L 167.230182 349.064172 
z
" clip-path="url(#p17e06f035a)" style="fill: #1f77b4; opacity: 0.4"/>
   </g>
   <g id="patch_19">
    <path d="M 171.856284 354.958125 
L 176.482386 354.958125 
L 176.482386 349.064172 
L 171.856284 349.064172 
z
" clip-path="url(#p17e06f035a)" style="fill: #1f77b4; opacity: 0.4"/>
   </g>
   <g id="patch_20">
    <path d="M 176.482386 354.958125 
L 181.108488 354.958125 
L 181.108488 349.064172 
L 176.482386 349.064172 
z
" clip-path="url(#p17e06f035a)" style="fill: #1f77b4; opacity: 0.4"/>
   </g>
   <g id="patch_21">
    <path d="M 181.108488 354.958125 
L 185.734589 354.958125 
L 185.734589 349.064172 
L 181.108488 349.064172 
z
" clip-path="url(#p17e06f035a)" style="fill: #1f77b4; opacity: 0.4"/>
   </g>
   <g id="patch_22">
    <path d="M 185.734589 354.958125 
L 190.360691 354.958125 
L 190.360691 350.53766 
L 185.734589 350.53766 
z
" clip-path="url(#p17e06f035a)" style="fill: #1f77b4; opacity: 0.4"/>
   </g>
   <g id="patch_23">
    <path d="M 190.360691 354.958125 
L 194.986793 354.958125 
L 194.986793 346.117195 
L 190.360691 346.117195 
z
" clip-path="url(#p17e06f035a)" style="fill: #1f77b4; opacity: 0.4"/>
   </g>
   <g id="patch_24">
    <path d="M 194.986793 354.958125 
L 199.612895 354.958125 
L 199.612895 344.643706 
L 194.986793 344.643706 
z
" clip-path="url(#p17e06f035a)" style="fill: #1f77b4; opacity: 0.4"/>
   </g>
   <g id="patch_25">
    <path d="M 199.612895 354.958125 
L 204.238997 354.958125 
L 204.238997 349.064172 
L 199.612895 349.064172 
z
" clip-path="url(#p17e06f035a)" style="fill: #1f77b4; opacity: 0.4"/>
   </g>
   <g id="patch_26">
    <path d="M 204.238997 354.958125 
L 208.865099 354.958125 
L 208.865099 344.643706 
L 204.238997 344.643706 
z
" clip-path="url(#p17e06f035a)" style="fill: #1f77b4; opacity: 0.4"/>
   </g>
   <g id="patch_27">
    <path d="M 208.865099 354.958125 
L 213.491201 354.958125 
L 213.491201 340.223241 
L 208.865099 340.223241 
z
" clip-path="url(#p17e06f035a)" style="fill: #1f77b4; opacity: 0.4"/>
   </g>
   <g id="patch_28">
    <path d="M 213.491201 354.958125 
L 218.117303 354.958125 
L 218.117303 340.223241 
L 213.491201 340.223241 
z
" clip-path="url(#p17e06f035a)" style="fill: #1f77b4; opacity: 0.4"/>
   </g>
   <g id="patch_29">
    <path d="M 218.117303 354.958125 
L 222.743405 354.958125 
L 222.743405 344.643706 
L 218.117303 344.643706 
z
" clip-path="url(#p17e06f035a)" style="fill: #1f77b4; opacity: 0.4"/>
   </g>
   <g id="patch_30">
    <path d="M 222.743405 354.958125 
L 227.369507 354.958125 
L 227.369507 343.170218 
L 222.743405 343.170218 
z
" clip-path="url(#p17e06f035a)" style="fill: #1f77b4; opacity: 0.4"/>
   </g>
   <g id="patch_31">
    <path d="M 227.369507 354.958125 
L 231.995609 354.958125 
L 231.995609 321.067892 
L 227.369507 321.067892 
z
" clip-path="url(#p17e06f035a)" style="fill: #1f77b4; opacity: 0.4"/>
   </g>
   <g id="patch_32">
    <path d="M 231.995609 354.958125 
L 236.621711 354.958125 
L 236.621711 324.014869 
L 231.995609 324.014869 
z
" clip-path="url(#p17e06f035a)" style="fill: #1f77b4; opacity: 0.4"/>
   </g>
   <g id="patch_33">
    <path d="M 236.621711 354.958125 
L 241.247813 354.958125 
L 241.247813 309.279985 
L 236.621711 309.279985 
z
" clip-path="url(#p17e06f035a)" style="fill: #1f77b4; opacity: 0.4"/>
   </g>
   <g id="patch_34">
    <path d="M 241.247813 354.958125 
L 245.873915 354.958125 
L 245.873915 324.014869 
L 241.247813 324.014869 
z
" clip-path="url(#p17e06f035a)" style="fill: #1f77b4; opacity: 0.4"/>
   </g>
   <g id="patch_35">
    <path d="M 245.873915 354.958125 
L 250.500017 354.958125 
L 250.500017 294.545102 
L 245.873915 294.545102 
z
" clip-path="url(#p17e06f035a)" style="fill: #1f77b4; opacity: 0.4"/>
   </g>
   <g id="patch_36">
    <path d="M 250.500017 354.958125 
L 255.126119 354.958125 
L 255.126119 297.492078 
L 250.500017 297.492078 
z
" clip-path="url(#p17e06f035a)" style="fill: #1f77b4; opacity: 0.4"/>
   </g>
   <g id="patch_37">
    <path d="M 255.126119 354.958125 
L 259.752221 354.958125 
L 259.752221 272.442776 
L 255.126119 272.442776 
z
" clip-path="url(#p17e06f035a)" style="fill: #1f77b4; opacity: 0.4"/>
   </g>
   <g id="patch_38">
    <path d="M 259.752221 354.958125 
L 264.378323 354.958125 
L 264.378323 257.707892 
L 259.752221 257.707892 
z
" clip-path="url(#p17e06f035a)" style="fill: #1f77b4; opacity: 0.4"/>
   </g>
   <g id="patch_39">
    <path d="M 264.378323 354.958125 
L 269.004425 354.958125 
L 269.004425 213.503241 
L 264.378323 213.503241 
z
" clip-path="url(#p17e06f035a)" style="fill: #1f77b4; opacity: 0.4"/>
   </g>
   <g id="patch_40">
    <path d="M 269.004425 354.958125 
L 273.630527 354.958125 
L 273.630527 192.874404 
L 269.004425 192.874404 
z
" clip-path="url(#p17e06f035a)" style="fill: #1f77b4; opacity: 0.4"/>
   </g>
   <g id="patch_41">
    <path d="M 273.630527 354.958125 
L 278.256629 354.958125 
L 278.256629 123.620451 
L 273.630527 123.620451 
z
" clip-path="url(#p17e06f035a)" style="fill: #1f77b4; opacity: 0.4"/>
   </g>
   <g id="patch_42">
    <path d="M 278.256629 354.958125 
L 282.88273 354.958125 
L 282.88273 100.044637 
L 278.256629 100.044637 
z
" clip-path="url(#p17e06f035a)" style="fill: #1f77b4; opacity: 0.4"/>
   </g>
   <g id="patch_43">
    <path d="M 282.88273 354.958125 
L 287.508832 354.958125 
L 287.508832 46.999055 
L 282.88273 46.999055 
z
" clip-path="url(#p17e06f035a)" style="fill: #1f77b4; opacity: 0.4"/>
   </g>
   <g id="patch_44">
    <path d="M 287.508832 354.958125 
L 292.134934 354.958125 
L 292.134934 58.786962 
L 287.508832 58.786962 
z
" clip-path="url(#p17e06f035a)" style="fill: #1f77b4; opacity: 0.4"/>
   </g>
   <g id="patch_45">
    <path d="M 292.134934 354.958125 
L 296.761036 354.958125 
L 296.761036 38.158125 
L 292.134934 38.158125 
z
" clip-path="url(#p17e06f035a)" style="fill: #1f77b4; opacity: 0.4"/>
   </g>
   <g id="patch_46">
    <path d="M 296.761036 354.958125 
L 301.387138 354.958125 
L 301.387138 108.885567 
L 296.761036 108.885567 
z
" clip-path="url(#p17e06f035a)" style="fill: #1f77b4; opacity: 0.4"/>
   </g>
   <g id="patch_47">
    <path d="M 301.387138 354.958125 
L 306.01324 354.958125 
L 306.01324 132.461381 
L 301.387138 132.461381 
z
" clip-path="url(#p17e06f035a)" style="fill: #1f77b4; opacity: 0.4"/>
   </g>
   <g id="patch_48">
    <path d="M 306.01324 354.958125 
L 310.639342 354.958125 
L 310.639342 163.404637 
L 306.01324 163.404637 
z
" clip-path="url(#p17e06f035a)" style="fill: #1f77b4; opacity: 0.4"/>
   </g>
   <g id="patch_49">
    <path d="M 310.639342 354.958125 
L 315.265444 354.958125 
L 315.265444 212.029753 
L 310.639342 212.029753 
z
" clip-path="url(#p17e06f035a)" style="fill: #1f77b4; opacity: 0.4"/>
   </g>
   <g id="patch_50">
    <path d="M 315.265444 354.958125 
L 319.891546 354.958125 
L 319.891546 231.185102 
L 315.265444 231.185102 
z
" clip-path="url(#p17e06f035a)" style="fill: #1f77b4; opacity: 0.4"/>
   </g>
   <g id="patch_51">
    <path d="M 319.891546 354.958125 
L 324.517648 354.958125 
L 324.517648 263.601846 
L 319.891546 263.601846 
z
" clip-path="url(#p17e06f035a)" style="fill: #1f77b4; opacity: 0.4"/>
   </g>
   <g id="patch_52">
    <path d="M 324.517648 354.958125 
L 329.14375 354.958125 
L 329.14375 285.704172 
L 324.517648 285.704172 
z
" clip-path="url(#p17e06f035a)" style="fill: #1f77b4; opacity: 0.4"/>
   </g>
   <g id="patch_53">
    <path d="M 329.14375 354.958125 
L 333.769852 354.958125 
L 333.769852 310.753474 
L 329.14375 310.753474 
z
" clip-path="url(#p17e06f035a)" style="fill: #1f77b4; opacity: 0.4"/>
   </g>
   <g id="patch_54">
    <path d="M 333.769852 354.958125 
L 338.395954 354.958125 
L 338.395954 297.492078 
L 333.769852 297.492078 
z
" clip-path="url(#p17e06f035a)" style="fill: #1f77b4; opacity: 0.4"/>
   </g>
   <g id="patch_55">
    <path d="M 338.395954 354.958125 
L 343.022056 354.958125 
L 343.022056 310.753474 
L 338.395954 310.753474 
z
" clip-path="url(#p17e06f035a)" style="fill: #1f77b4; opacity: 0.4"/>
   </g>
   <g id="patch_56">
    <path d="M 343.022056 354.958125 
L 347.648158 354.958125 
L 347.648158 331.382311 
L 343.022056 331.382311 
z
" clip-path="url(#p17e06f035a)" style="fill: #1f77b4; opacity: 0.4"/>
   </g>
   <g id="patch_57">
    <path d="M 347.648158 354.958125 
L 352.27426 354.958125 
L 352.27426 334.329288 
L 347.648158 334.329288 
z
" clip-path="url(#p17e06f035a)" style="fill: #1f77b4; opacity: 0.4"/>
   </g>
   <g id="patch_58">
    <path d="M 352.27426 354.958125 
L 356.900362 354.958125 
L 356.900362 328.435334 
L 352.27426 328.435334 
z
" clip-path="url(#p17e06f035a)" style="fill: #1f77b4; opacity: 0.4"/>
   </g>
   <g id="patch_59">
    <path d="M 356.900362 354.958125 
L 361.526464 354.958125 
L 361.526464 346.117195 
L 356.900362 346.117195 
z
" clip-path="url(#p17e06f035a)" style="fill: #1f77b4; opacity: 0.4"/>
   </g>
   <g id="patch_60">
    <path d="M 361.526464 354.958125 
L 366.152566 354.958125 
L 366.152566 332.855799 
L 361.526464 332.855799 
z
" clip-path="url(#p17e06f035a)" style="fill: #1f77b4; opacity: 0.4"/>
   </g>
   <g id="patch_61">
    <path d="M 366.152566 354.958125 
L 370.778668 354.958125 
L 370.778668 341.69673 
L 366.152566 341.69673 
z
" clip-path="url(#p17e06f035a)" style="fill: #1f77b4; opacity: 0.4"/>
   </g>
   <g id="patch_62">
    <path d="M 370.778668 354.958125 
L 375.40477 354.958125 
L 375.40477 341.69673 
L 370.778668 341.69673 
z
" clip-path="url(#p17e06f035a)" style="fill: #1f77b4; opacity: 0.4"/>
   </g>
   <g id="patch_63">
    <path d="M 375.40477 354.958125 
L 380.030871 354.958125 
L 380.030871 344.643706 
L 375.40477 344.643706 
z
" clip-path="url(#p17e06f035a)" style="fill: #1f77b4; opacity: 0.4"/>
   </g>
   <g id="patch_64">
    <path d="M 380.030871 354.958125 
L 384.656973 354.958125 
L 384.656973 349.064172 
L 380.030871 349.064172 
z
" clip-path="url(#p17e06f035a)" style="fill: #1f77b4; opacity: 0.4"/>
   </g>
   <g id="patch_65">
    <path d="M 384.656973 354.958125 
L 389.283075 354.958125 
L 389.283075 350.53766 
L 384.656973 350.53766 
z
" clip-path="url(#p17e06f035a)" style="fill: #1f77b4; opacity: 0.4"/>
   </g>
   <g id="patch_66">
    <path d="M 389.283075 354.958125 
L 393.909177 354.958125 
L 393.909177 349.064172 
L 389.283075 349.064172 
z
" clip-path="url(#p17e06f035a)" style="fill: #1f77b4; opacity: 0.4"/>
   </g>
   <g id="patch_67">
    <path d="M 393.909177 354.958125 
L 398.535279 354.958125 
L 398.535279 352.011148 
L 393.909177 352.011148 
z
" clip-path="url(#p17e06f035a)" style="fill: #1f77b4; opacity: 0.4"/>
   </g>
   <g id="patch_68">
    <path d="M 398.535279 354.958125 
L 403.161381 354.958125 
L 403.161381 349.064172 
L 398.535279 349.064172 
z
" clip-path="url(#p17e06f035a)" style="fill: #1f77b4; opacity: 0.4"/>
   </g>
   <g id="patch_69">
    <path d="M 403.161381 354.958125 
L 407.787483 354.958125 
L 407.787483 353.484637 
L 403.161381 353.484637 
z
" clip-path="url(#p17e06f035a)" style="fill: #1f77b4; opacity: 0.4"/>
   </g>
   <g id="patch_70">
    <path d="M 407.787483 354.958125 
L 412.413585 354.958125 
L 412.413585 353.484637 
L 407.787483 353.484637 
z
" clip-path="url(#p17e06f035a)" style="fill: #1f77b4; opacity: 0.4"/>
   </g>
   <g id="patch_71">
    <path d="M 412.413585 354.958125 
L 417.039687 354.958125 
L 417.039687 352.011148 
L 412.413585 352.011148 
z
" clip-path="url(#p17e06f035a)" style="fill: #1f77b4; opacity: 0.4"/>
   </g>
   <g id="patch_72">
    <path d="M 417.039687 354.958125 
L 421.665789 354.958125 
L 421.665789 352.011148 
L 417.039687 352.011148 
z
" clip-path="url(#p17e06f035a)" style="fill: #1f77b4; opacity: 0.4"/>
   </g>
   <g id="patch_73">
    <path d="M 421.665789 354.958125 
L 426.291891 354.958125 
L 426.291891 354.958125 
L 421.665789 354.958125 
z
" clip-path="url(#p17e06f035a)" style="fill: #1f77b4; opacity: 0.4"/>
   </g>
   <g id="patch_74">
    <path d="M 426.291891 354.958125 
L 430.917993 354.958125 
L 430.917993 353.484637 
L 426.291891 353.484637 
z
" clip-path="url(#p17e06f035a)" style="fill: #1f77b4; opacity: 0.4"/>
   </g>
   <g id="patch_75">
    <path d="M 430.917993 354.958125 
L 435.544095 354.958125 
L 435.544095 350.53766 
L 430.917993 350.53766 
z
" clip-path="url(#p17e06f035a)" style="fill: #1f77b4; opacity: 0.4"/>
   </g>
   <g id="patch_76">
    <path d="M 435.544095 354.958125 
L 440.170197 354.958125 
L 440.170197 354.958125 
L 435.544095 354.958125 
z
" clip-path="url(#p17e06f035a)" style="fill: #1f77b4; opacity: 0.4"/>
   </g>
   <g id="patch_77">
    <path d="M 440.170197 354.958125 
L 444.796299 354.958125 
L 444.796299 354.958125 
L 440.170197 354.958125 
z
" clip-path="url(#p17e06f035a)" style="fill: #1f77b4; opacity: 0.4"/>
   </g>
   <g id="patch_78">
    <path d="M 444.796299 354.958125 
L 449.422401 354.958125 
L 449.422401 352.011148 
L 444.796299 352.011148 
z
" clip-path="url(#p17e06f035a)" style="fill: #1f77b4; opacity: 0.4"/>
   </g>
   <g id="patch_79">
    <path d="M 449.422401 354.958125 
L 454.048503 354.958125 
L 454.048503 353.484637 
L 449.422401 353.484637 
z
" clip-path="url(#p17e06f035a)" style="fill: #1f77b4; opacity: 0.4"/>
   </g>
   <g id="patch_80">
    <path d="M 454.048503 354.958125 
L 458.674605 354.958125 
L 458.674605 353.484637 
L 454.048503 353.484637 
z
" clip-path="url(#p17e06f035a)" style="fill: #1f77b4; opacity: 0.4"/>
   </g>
   <g id="patch_81">
    <path d="M 458.674605 354.958125 
L 463.300707 354.958125 
L 463.300707 354.958125 
L 458.674605 354.958125 
z
" clip-path="url(#p17e06f035a)" style="fill: #1f77b4; opacity: 0.4"/>
   </g>
   <g id="patch_82">
    <path d="M 463.300707 354.958125 
L 467.926809 354.958125 
L 467.926809 354.958125 
L 463.300707 354.958125 
z
" clip-path="url(#p17e06f035a)" style="fill: #1f77b4; opacity: 0.4"/>
   </g>
   <g id="patch_83">
    <path d="M 467.926809 354.958125 
L 472.552911 354.958125 
L 472.552911 354.958125 
L 467.926809 354.958125 
z
" clip-path="url(#p17e06f035a)" style="fill: #1f77b4; opacity: 0.4"/>
   </g>
   <g id="patch_84">
    <path d="M 472.552911 354.958125 
L 477.179012 354.958125 
L 477.179012 353.484637 
L 472.552911 353.484637 
z
" clip-path="url(#p17e06f035a)" style="fill: #1f77b4; opacity: 0.4"/>
   </g>
   <g id="patch_85">
    <path d="M 477.179012 354.958125 
L 481.805114 354.958125 
L 481.805114 354.958125 
L 477.179012 354.958125 
z
" clip-path="url(#p17e06f035a)" style="fill: #1f77b4; opacity: 0.4"/>
   </g>
   <g id="patch_86">
    <path d="M 481.805114 354.958125 
L 486.431216 354.958125 
L 486.431216 354.958125 
L 481.805114 354.958125 
z
" clip-path="url(#p17e06f035a)" style="fill: #1f77b4; opacity: 0.4"/>
   </g>
   <g id="patch_87">
    <path d="M 486.431216 354.958125 
L 491.057318 354.958125 
L 491.057318 354.958125 
L 486.431216 354.958125 
z
" clip-path="url(#p17e06f035a)" style="fill: #1f77b4; opacity: 0.4"/>
   </g>
   <g id="patch_88">
    <path d="M 491.057318 354.958125 
L 495.68342 354.958125 
L 495.68342 354.958125 
L 491.057318 354.958125 
z
" clip-path="url(#p17e06f035a)" style="fill: #1f77b4; opacity: 0.4"/>
   </g>
   <g id="patch_89">
    <path d="M 495.68342 354.958125 
L 500.309522 354.958125 
L 500.309522 354.958125 
L 495.68342 354.958125 
z
" clip-path="url(#p17e06f035a)" style="fill: #1f77b4; opacity: 0.4"/>
   </g>
   <g id="patch_90">
    <path d="M 500.309522 354.958125 
L 504.935624 354.958125 
L 504.935624 354.958125 
L 500.309522 354.958125 
z
" clip-path="url(#p17e06f035a)" style="fill: #1f77b4; opacity: 0.4"/>
   </g>
   <g id="patch_91">
    <path d="M 504.935624 354.958125 
L 509.561726 354.958125 
L 509.561726 354.958125 
L 504.935624 354.958125 
z
" clip-path="url(#p17e06f035a)" style="fill: #1f77b4; opacity: 0.4"/>
   </g>
   <g id="patch_92">
    <path d="M 509.561726 354.958125 
L 514.187828 354.958125 
L 514.187828 354.958125 
L 509.561726 354.958125 
z
" clip-path="url(#p17e06f035a)" style="fill: #1f77b4; opacity: 0.4"/>
   </g>
   <g id="patch_93">
    <path d="M 514.187828 354.958125 
L 518.81393 354.958125 
L 518.81393 354.958125 
L 514.187828 354.958125 
z
" clip-path="url(#p17e06f035a)" style="fill: #1f77b4; opacity: 0.4"/>
   </g>
   <g id="patch_94">
    <path d="M 518.81393 354.958125 
L 523.440032 354.958125 
L 523.440032 354.958125 
L 518.81393 354.958125 
z
" clip-path="url(#p17e06f035a)" style="fill: #1f77b4; opacity: 0.4"/>
   </g>
   <g id="patch_95">
    <path d="M 523.440032 354.958125 
L 528.066134 354.958125 
L 528.066134 354.958125 
L 523.440032 354.958125 
z
" clip-path="url(#p17e06f035a)" style="fill: #1f77b4; opacity: 0.4"/>
   </g>
   <g id="patch_96">
    <path d="M 528.066134 354.958125 
L 532.692236 354.958125 
L 532.692236 354.958125 
L 528.066134 354.958125 
z
" clip-path="url(#p17e06f035a)" style="fill: #1f77b4; opacity: 0.4"/>
   </g>
   <g id="patch_97">
    <path d="M 532.692236 354.958125 
L 537.318338 354.958125 
L 537.318338 354.958125 
L 532.692236 354.958125 
z
" clip-path="url(#p17e06f035a)" style="fill: #1f77b4; opacity: 0.4"/>
   </g>
   <g id="patch_98">
    <path d="M 537.318338 354.958125 
L 541.94444 354.958125 
L 541.94444 354.958125 
L 537.318338 354.958125 
z
" clip-path="url(#p17e06f035a)" style="fill: #1f77b4; opacity: 0.4"/>
   </g>
   <g id="patch_99">
    <path d="M 541.94444 354.958125 
L 546.570542 354.958125 
L 546.570542 354.958125 
L 541.94444 354.958125 
z
" clip-path="url(#p17e06f035a)" style="fill: #1f77b4; opacity: 0.4"/>
   </g>
   <g id="patch_100">
    <path d="M 546.570542 354.958125 
L 551.196644 354.958125 
L 551.196644 354.958125 
L 546.570542 354.958125 
z
" clip-path="url(#p17e06f035a)" style="fill: #1f77b4; opacity: 0.4"/>
   </g>
   <g id="patch_101">
    <path d="M 551.196644 354.958125 
L 555.822746 354.958125 
L 555.822746 354.958125 
L 551.196644 354.958125 
z
" clip-path="url(#p17e06f035a)" style="fill: #1f77b4; opacity: 0.4"/>
   </g>
   <g id="patch_102">
    <path d="M 555.822746 354.958125 
L 560.448848 354.958125 
L 560.448848 353.484637 
L 555.822746 353.484637 
z
" clip-path="url(#p17e06f035a)" style="fill: #1f77b4; opacity: 0.4"/>
   </g>
   <g id="matplotlib.axis_1">
    <g id="xtick_1">
     <g id="line2d_1">
      <defs>
       <path id="mb43ccc3d0f" d="M 0 0 
L 0 3.5 
" style="stroke: #000000; stroke-width: 0.8"/>
      </defs>
      <g>
       <use xlink:href="#mb43ccc3d0f" x="113.790728" y="354.958125" style="stroke: #000000; stroke-width: 0.8"/>
      </g>
     </g>
     <g id="text_1">
      <!-- −10 -->
      <g transform="translate(103.238384 369.556562)scale(0.1 -0.1)">
       <defs>
        <path id="DejaVuSans-2212" d="M 678 2272 
L 4684 2272 
L 4684 1741 
L 678 1741 
L 678 2272 
z
" transform="scale(0.015625)"/>
        <path id="DejaVuSans-31" d="M 794 531 
L 1825 531 
L 1825 4091 
L 703 3866 
L 703 4441 
L 1819 4666 
L 2450 4666 
L 2450 531 
L 3481 531 
L 3481 0 
L 794 0 
L 794 531 
z
" transform="scale(0.015625)"/>
        <path id="DejaVuSans-30" d="M 2034 4250 
Q 1547 4250 1301 3770 
Q 1056 3291 1056 2328 
Q 1056 1369 1301 889 
Q 1547 409 2034 409 
Q 2525 409 2770 889 
Q 3016 1369 3016 2328 
Q 3016 3291 2770 3770 
Q 2525 4250 2034 4250 
z
M 2034 4750 
Q 2819 4750 3233 4129 
Q 3647 3509 3647 2328 
Q 3647 1150 3233 529 
Q 2819 -91 2034 -91 
Q 1250 -91 836 529 
Q 422 1150 422 2328 
Q 422 3509 836 4129 
Q 1250 4750 2034 4750 
z
" transform="scale(0.015625)"/>
       </defs>
       <use xlink:href="#DejaVuSans-2212"/>
       <use xlink:href="#DejaVuSans-31" x="83.789062"/>
       <use xlink:href="#DejaVuSans-30" x="147.412109"/>
      </g>
     </g>
    </g>
    <g id="xtick_2">
     <g id="line2d_2">
      <g>
       <use xlink:href="#mb43ccc3d0f" x="202.413371" y="354.958125" style="stroke: #000000; stroke-width: 0.8"/>
      </g>
     </g>
     <g id="text_2">
      <!-- −5 -->
      <g transform="translate(195.042277 369.556562)scale(0.1 -0.1)">
       <defs>
        <path id="DejaVuSans-35" d="M 691 4666 
L 3169 4666 
L 3169 4134 
L 1269 4134 
L 1269 2991 
Q 1406 3038 1543 3061 
Q 1681 3084 1819 3084 
Q 2600 3084 3056 2656 
Q 3513 2228 3513 1497 
Q 3513 744 3044 326 
Q 2575 -91 1722 -91 
Q 1428 -91 1123 -41 
Q 819 9 494 109 
L 494 744 
Q 775 591 1075 516 
Q 1375 441 1709 441 
Q 2250 441 2565 725 
Q 2881 1009 2881 1497 
Q 2881 1984 2565 2268 
Q 2250 2553 1709 2553 
Q 1456 2553 1204 2497 
Q 953 2441 691 2322 
L 691 4666 
z
" transform="scale(0.015625)"/>
       </defs>
       <use xlink:href="#DejaVuSans-2212"/>
       <use xlink:href="#DejaVuSans-35" x="83.789062"/>
      </g>
     </g>
    </g>
    <g id="xtick_3">
     <g id="line2d_3">
      <g>
       <use xlink:href="#mb43ccc3d0f" x="291.036014" y="354.958125" style="stroke: #000000; stroke-width: 0.8"/>
      </g>
     </g>
     <g id="text_3">
      <!-- 0 -->
      <g transform="translate(287.854764 369.556562)scale(0.1 -0.1)">
       <use xlink:href="#DejaVuSans-30"/>
      </g>
     </g>
    </g>
    <g id="xtick_4">
     <g id="line2d_4">
      <g>
       <use xlink:href="#mb43ccc3d0f" x="379.658656" y="354.958125" style="stroke: #000000; stroke-width: 0.8"/>
      </g>
     </g>
     <g id="text_4">
      <!-- 5 -->
      <g transform="translate(376.477406 369.556562)scale(0.1 -0.1)">
       <use xlink:href="#DejaVuSans-35"/>
      </g>
     </g>
    </g>
    <g id="xtick_5">
     <g id="line2d_5">
      <g>
       <use xlink:href="#mb43ccc3d0f" x="468.281299" y="354.958125" style="stroke: #000000; stroke-width: 0.8"/>
      </g>
     </g>
     <g id="text_5">
      <!-- 10 -->
      <g transform="translate(461.918799 369.556562)scale(0.1 -0.1)">
       <use xlink:href="#DejaVuSans-31"/>
       <use xlink:href="#DejaVuSans-30" x="63.623047"/>
      </g>
     </g>
    </g>
    <g id="xtick_6">
     <g id="line2d_6">
      <g>
       <use xlink:href="#mb43ccc3d0f" x="556.903942" y="354.958125" style="stroke: #000000; stroke-width: 0.8"/>
      </g>
     </g>
     <g id="text_6">
      <!-- 15 -->
      <g transform="translate(550.541442 369.556562)scale(0.1 -0.1)">
       <use xlink:href="#DejaVuSans-31"/>
       <use xlink:href="#DejaVuSans-35" x="63.623047"/>
      </g>
     </g>
    </g>
    <g id="text_7">
     <!-- Returns (USD) -->
     <g transform="translate(293.773438 383.234687)scale(0.1 -0.1)">
      <defs>
       <path id="DejaVuSans-52" d="M 2841 2188 
Q 3044 2119 3236 1894 
Q 3428 1669 3622 1275 
L 4263 0 
L 3584 0 
L 2988 1197 
Q 2756 1666 2539 1819 
Q 2322 1972 1947 1972 
L 1259 1972 
L 1259 0 
L 628 0 
L 628 4666 
L 2053 4666 
Q 2853 4666 3247 4331 
Q 3641 3997 3641 3322 
Q 3641 2881 3436 2590 
Q 3231 2300 2841 2188 
z
M 1259 4147 
L 1259 2491 
L 2053 2491 
Q 2509 2491 2742 2702 
Q 2975 2913 2975 3322 
Q 2975 3731 2742 3939 
Q 2509 4147 2053 4147 
L 1259 4147 
z
" transform="scale(0.015625)"/>
       <path id="DejaVuSans-65" d="M 3597 1894 
L 3597 1613 
L 953 1613 
Q 991 1019 1311 708 
Q 1631 397 2203 397 
Q 2534 397 2845 478 
Q 3156 559 3463 722 
L 3463 178 
Q 3153 47 2828 -22 
Q 2503 -91 2169 -91 
Q 1331 -91 842 396 
Q 353 884 353 1716 
Q 353 2575 817 3079 
Q 1281 3584 2069 3584 
Q 2775 3584 3186 3129 
Q 3597 2675 3597 1894 
z
M 3022 2063 
Q 3016 2534 2758 2815 
Q 2500 3097 2075 3097 
Q 1594 3097 1305 2825 
Q 1016 2553 972 2059 
L 3022 2063 
z
" transform="scale(0.015625)"/>
       <path id="DejaVuSans-74" d="M 1172 4494 
L 1172 3500 
L 2356 3500 
L 2356 3053 
L 1172 3053 
L 1172 1153 
Q 1172 725 1289 603 
Q 1406 481 1766 481 
L 2356 481 
L 2356 0 
L 1766 0 
Q 1100 0 847 248 
Q 594 497 594 1153 
L 594 3053 
L 172 3053 
L 172 3500 
L 594 3500 
L 594 4494 
L 1172 4494 
z
" transform="scale(0.015625)"/>
       <path id="DejaVuSans-75" d="M 544 1381 
L 544 3500 
L 1119 3500 
L 1119 1403 
Q 1119 906 1312 657 
Q 1506 409 1894 409 
Q 2359 409 2629 706 
Q 2900 1003 2900 1516 
L 2900 3500 
L 3475 3500 
L 3475 0 
L 2900 0 
L 2900 538 
Q 2691 219 2414 64 
Q 2138 -91 1772 -91 
Q 1169 -91 856 284 
Q 544 659 544 1381 
z
M 1991 3584 
L 1991 3584 
z
" transform="scale(0.015625)"/>
       <path id="DejaVuSans-72" d="M 2631 2963 
Q 2534 3019 2420 3045 
Q 2306 3072 2169 3072 
Q 1681 3072 1420 2755 
Q 1159 2438 1159 1844 
L 1159 0 
L 581 0 
L 581 3500 
L 1159 3500 
L 1159 2956 
Q 1341 3275 1631 3429 
Q 1922 3584 2338 3584 
Q 2397 3584 2469 3576 
Q 2541 3569 2628 3553 
L 2631 2963 
z
" transform="scale(0.015625)"/>
       <path id="DejaVuSans-6e" d="M 3513 2113 
L 3513 0 
L 2938 0 
L 2938 2094 
Q 2938 2591 2744 2837 
Q 2550 3084 2163 3084 
Q 1697 3084 1428 2787 
Q 1159 2491 1159 1978 
L 1159 0 
L 581 0 
L 581 3500 
L 1159 3500 
L 1159 2956 
Q 1366 3272 1645 3428 
Q 1925 3584 2291 3584 
Q 2894 3584 3203 3211 
Q 3513 2838 3513 2113 
z
" transform="scale(0.015625)"/>
       <path id="DejaVuSans-73" d="M 2834 3397 
L 2834 2853 
Q 2591 2978 2328 3040 
Q 2066 3103 1784 3103 
Q 1356 3103 1142 2972 
Q 928 2841 928 2578 
Q 928 2378 1081 2264 
Q 1234 2150 1697 2047 
L 1894 2003 
Q 2506 1872 2764 1633 
Q 3022 1394 3022 966 
Q 3022 478 2636 193 
Q 2250 -91 1575 -91 
Q 1294 -91 989 -36 
Q 684 19 347 128 
L 347 722 
Q 666 556 975 473 
Q 1284 391 1588 391 
Q 1994 391 2212 530 
Q 2431 669 2431 922 
Q 2431 1156 2273 1281 
Q 2116 1406 1581 1522 
L 1381 1569 
Q 847 1681 609 1914 
Q 372 2147 372 2553 
Q 372 3047 722 3315 
Q 1072 3584 1716 3584 
Q 2034 3584 2315 3537 
Q 2597 3491 2834 3397 
z
" transform="scale(0.015625)"/>
       <path id="DejaVuSans-20" transform="scale(0.015625)"/>
       <path id="DejaVuSans-28" d="M 1984 4856 
Q 1566 4138 1362 3434 
Q 1159 2731 1159 2009 
Q 1159 1288 1364 580 
Q 1569 -128 1984 -844 
L 1484 -844 
Q 1016 -109 783 600 
Q 550 1309 550 2009 
Q 550 2706 781 3412 
Q 1013 4119 1484 4856 
L 1984 4856 
z
" transform="scale(0.015625)"/>
       <path id="DejaVuSans-55" d="M 556 4666 
L 1191 4666 
L 1191 1831 
Q 1191 1081 1462 751 
Q 1734 422 2344 422 
Q 2950 422 3222 751 
Q 3494 1081 3494 1831 
L 3494 4666 
L 4128 4666 
L 4128 1753 
Q 4128 841 3676 375 
Q 3225 -91 2344 -91 
Q 1459 -91 1007 375 
Q 556 841 556 1753 
L 556 4666 
z
" transform="scale(0.015625)"/>
       <path id="DejaVuSans-53" d="M 3425 4513 
L 3425 3897 
Q 3066 4069 2747 4153 
Q 2428 4238 2131 4238 
Q 1616 4238 1336 4038 
Q 1056 3838 1056 3469 
Q 1056 3159 1242 3001 
Q 1428 2844 1947 2747 
L 2328 2669 
Q 3034 2534 3370 2195 
Q 3706 1856 3706 1288 
Q 3706 609 3251 259 
Q 2797 -91 1919 -91 
Q 1588 -91 1214 -16 
Q 841 59 441 206 
L 441 856 
Q 825 641 1194 531 
Q 1563 422 1919 422 
Q 2459 422 2753 634 
Q 3047 847 3047 1241 
Q 3047 1584 2836 1778 
Q 2625 1972 2144 2069 
L 1759 2144 
Q 1053 2284 737 2584 
Q 422 2884 422 3419 
Q 422 4038 858 4394 
Q 1294 4750 2059 4750 
Q 2388 4750 2728 4690 
Q 3069 4631 3425 4513 
z
" transform="scale(0.015625)"/>
       <path id="DejaVuSans-44" d="M 1259 4147 
L 1259 519 
L 2022 519 
Q 2988 519 3436 956 
Q 3884 1394 3884 2338 
Q 3884 3275 3436 3711 
Q 2988 4147 2022 4147 
L 1259 4147 
z
M 628 4666 
L 1925 4666 
Q 3281 4666 3915 4102 
Q 4550 3538 4550 2338 
Q 4550 1131 3912 565 
Q 3275 0 1925 0 
L 628 0 
L 628 4666 
z
" transform="scale(0.015625)"/>
       <path id="DejaVuSans-29" d="M 513 4856 
L 1013 4856 
Q 1481 4119 1714 3412 
Q 1947 2706 1947 2009 
Q 1947 1309 1714 600 
Q 1481 -109 1013 -844 
L 513 -844 
Q 928 -128 1133 580 
Q 1338 1288 1338 2009 
Q 1338 2731 1133 3434 
Q 928 4138 513 4856 
z
" transform="scale(0.015625)"/>
      </defs>
      <use xlink:href="#DejaVuSans-52"/>
      <use xlink:href="#DejaVuSans-65" x="64.982422"/>
      <use xlink:href="#DejaVuSans-74" x="126.505859"/>
      <use xlink:href="#DejaVuSans-75" x="165.714844"/>
      <use xlink:href="#DejaVuSans-72" x="229.09375"/>
      <use xlink:href="#DejaVuSans-6e" x="268.457031"/>
      <use xlink:href="#DejaVuSans-73" x="331.835938"/>
      <use xlink:href="#DejaVuSans-20" x="383.935547"/>
      <use xlink:href="#DejaVuSans-28" x="415.722656"/>
      <use xlink:href="#DejaVuSans-55" x="454.736328"/>
      <use xlink:href="#DejaVuSans-53" x="527.929688"/>
      <use xlink:href="#DejaVuSans-44" x="591.40625"/>
      <use xlink:href="#DejaVuSans-29" x="668.408203"/>
     </g>
    </g>
   </g>
   <g id="matplotlib.axis_2">
    <g id="ytick_1">
     <g id="line2d_7">
      <defs>
       <path id="m0a5960a6e4" d="M 0 0 
L -3.5 0 
" style="stroke: #000000; stroke-width: 0.8"/>
      </defs>
      <g>
       <use xlink:href="#m0a5960a6e4" x="50.14375" y="354.958125" style="stroke: #000000; stroke-width: 0.8"/>
      </g>
     </g>
     <g id="text_8">
      <!-- 0.00 -->
      <g transform="translate(20.878125 358.757344)scale(0.1 -0.1)">
       <defs>
        <path id="DejaVuSans-2e" d="M 684 794 
L 1344 794 
L 1344 0 
L 684 0 
L 684 794 
z
" transform="scale(0.015625)"/>
       </defs>
       <use xlink:href="#DejaVuSans-30"/>
       <use xlink:href="#DejaVuSans-2e" x="63.623047"/>
       <use xlink:href="#DejaVuSans-30" x="95.410156"/>
       <use xlink:href="#DejaVuSans-30" x="159.033203"/>
      </g>
     </g>
    </g>
    <g id="ytick_2">
     <g id="line2d_8">
      <g>
       <use xlink:href="#m0a5960a6e4" x="50.14375" y="306.539444" style="stroke: #000000; stroke-width: 0.8"/>
      </g>
     </g>
     <g id="text_9">
      <!-- 0.05 -->
      <g transform="translate(20.878125 310.338663)scale(0.1 -0.1)">
       <use xlink:href="#DejaVuSans-30"/>
       <use xlink:href="#DejaVuSans-2e" x="63.623047"/>
       <use xlink:href="#DejaVuSans-30" x="95.410156"/>
       <use xlink:href="#DejaVuSans-35" x="159.033203"/>
      </g>
     </g>
    </g>
    <g id="ytick_3">
     <g id="line2d_9">
      <g>
       <use xlink:href="#m0a5960a6e4" x="50.14375" y="258.120764" style="stroke: #000000; stroke-width: 0.8"/>
      </g>
     </g>
     <g id="text_10">
      <!-- 0.10 -->
      <g transform="translate(20.878125 261.919983)scale(0.1 -0.1)">
       <use xlink:href="#DejaVuSans-30"/>
       <use xlink:href="#DejaVuSans-2e" x="63.623047"/>
       <use xlink:href="#DejaVuSans-31" x="95.410156"/>
       <use xlink:href="#DejaVuSans-30" x="159.033203"/>
      </g>
     </g>
    </g>
    <g id="ytick_4">
     <g id="line2d_10">
      <g>
       <use xlink:href="#m0a5960a6e4" x="50.14375" y="209.702083" style="stroke: #000000; stroke-width: 0.8"/>
      </g>
     </g>
     <g id="text_11">
      <!-- 0.15 -->
      <g transform="translate(20.878125 213.501302)scale(0.1 -0.1)">
       <use xlink:href="#DejaVuSans-30"/>
       <use xlink:href="#DejaVuSans-2e" x="63.623047"/>
       <use xlink:href="#DejaVuSans-31" x="95.410156"/>
       <use xlink:href="#DejaVuSans-35" x="159.033203"/>
      </g>
     </g>
    </g>
    <g id="ytick_5">
     <g id="line2d_11">
      <g>
       <use xlink:href="#m0a5960a6e4" x="50.14375" y="161.283403" style="stroke: #000000; stroke-width: 0.8"/>
      </g>
     </g>
     <g id="text_12">
      <!-- 0.20 -->
      <g transform="translate(20.878125 165.082622)scale(0.1 -0.1)">
       <defs>
        <path id="DejaVuSans-32" d="M 1228 531 
L 3431 531 
L 3431 0 
L 469 0 
L 469 531 
Q 828 903 1448 1529 
Q 2069 2156 2228 2338 
Q 2531 2678 2651 2914 
Q 2772 3150 2772 3378 
Q 2772 3750 2511 3984 
Q 2250 4219 1831 4219 
Q 1534 4219 1204 4116 
Q 875 4013 500 3803 
L 500 4441 
Q 881 4594 1212 4672 
Q 1544 4750 1819 4750 
Q 2544 4750 2975 4387 
Q 3406 4025 3406 3419 
Q 3406 3131 3298 2873 
Q 3191 2616 2906 2266 
Q 2828 2175 2409 1742 
Q 1991 1309 1228 531 
z
" transform="scale(0.015625)"/>
       </defs>
       <use xlink:href="#DejaVuSans-30"/>
       <use xlink:href="#DejaVuSans-2e" x="63.623047"/>
       <use xlink:href="#DejaVuSans-32" x="95.410156"/>
       <use xlink:href="#DejaVuSans-30" x="159.033203"/>
      </g>
     </g>
    </g>
    <g id="ytick_6">
     <g id="line2d_12">
      <g>
       <use xlink:href="#m0a5960a6e4" x="50.14375" y="112.864722" style="stroke: #000000; stroke-width: 0.8"/>
      </g>
     </g>
     <g id="text_13">
      <!-- 0.25 -->
      <g transform="translate(20.878125 116.663941)scale(0.1 -0.1)">
       <use xlink:href="#DejaVuSans-30"/>
       <use xlink:href="#DejaVuSans-2e" x="63.623047"/>
       <use xlink:href="#DejaVuSans-32" x="95.410156"/>
       <use xlink:href="#DejaVuSans-35" x="159.033203"/>
      </g>
     </g>
    </g>
    <g id="ytick_7">
     <g id="line2d_13">
      <g>
       <use xlink:href="#m0a5960a6e4" x="50.14375" y="64.446042" style="stroke: #000000; stroke-width: 0.8"/>
      </g>
     </g>
     <g id="text_14">
      <!-- 0.30 -->
      <g transform="translate(20.878125 68.24526)scale(0.1 -0.1)">
       <defs>
        <path id="DejaVuSans-33" d="M 2597 2516 
Q 3050 2419 3304 2112 
Q 3559 1806 3559 1356 
Q 3559 666 3084 287 
Q 2609 -91 1734 -91 
Q 1441 -91 1130 -33 
Q 819 25 488 141 
L 488 750 
Q 750 597 1062 519 
Q 1375 441 1716 441 
Q 2309 441 2620 675 
Q 2931 909 2931 1356 
Q 2931 1769 2642 2001 
Q 2353 2234 1838 2234 
L 1294 2234 
L 1294 2753 
L 1863 2753 
Q 2328 2753 2575 2939 
Q 2822 3125 2822 3475 
Q 2822 3834 2567 4026 
Q 2313 4219 1838 4219 
Q 1578 4219 1281 4162 
Q 984 4106 628 3988 
L 628 4550 
Q 988 4650 1302 4700 
Q 1616 4750 1894 4750 
Q 2613 4750 3031 4423 
Q 3450 4097 3450 3541 
Q 3450 3153 3228 2886 
Q 3006 2619 2597 2516 
z
" transform="scale(0.015625)"/>
       </defs>
       <use xlink:href="#DejaVuSans-30"/>
       <use xlink:href="#DejaVuSans-2e" x="63.623047"/>
       <use xlink:href="#DejaVuSans-33" x="95.410156"/>
       <use xlink:href="#DejaVuSans-30" x="159.033203"/>
      </g>
     </g>
    </g>
    <g id="text_15">
     <!-- Density -->
     <g transform="translate(14.798437 207.646719)rotate(-90)scale(0.1 -0.1)">
      <defs>
       <path id="DejaVuSans-69" d="M 603 3500 
L 1178 3500 
L 1178 0 
L 603 0 
L 603 3500 
z
M 603 4863 
L 1178 4863 
L 1178 4134 
L 603 4134 
L 603 4863 
z
" transform="scale(0.015625)"/>
       <path id="DejaVuSans-79" d="M 2059 -325 
Q 1816 -950 1584 -1140 
Q 1353 -1331 966 -1331 
L 506 -1331 
L 506 -850 
L 844 -850 
Q 1081 -850 1212 -737 
Q 1344 -625 1503 -206 
L 1606 56 
L 191 3500 
L 800 3500 
L 1894 763 
L 2988 3500 
L 3597 3500 
L 2059 -325 
z
" transform="scale(0.015625)"/>
      </defs>
      <use xlink:href="#DejaVuSans-44"/>
      <use xlink:href="#DejaVuSans-65" x="77.001953"/>
      <use xlink:href="#DejaVuSans-6e" x="138.525391"/>
      <use xlink:href="#DejaVuSans-73" x="201.904297"/>
      <use xlink:href="#DejaVuSans-69" x="254.003906"/>
      <use xlink:href="#DejaVuSans-74" x="281.787109"/>
      <use xlink:href="#DejaVuSans-79" x="320.996094"/>
     </g>
    </g>
   </g>
   <g id="line2d_14">
    <path d="M 75.507386 354.954066 
L 85.703823 354.861062 
L 100.998478 354.533592 
L 111.194915 354.43859 
L 126.48957 354.011542 
L 141.784225 353.240318 
L 146.882443 353.087637 
L 149.431553 352.91103 
L 151.980662 352.61587 
L 157.07888 351.680901 
L 164.726208 350.125843 
L 169.824426 349.47056 
L 174.922644 349.155908 
L 182.569972 348.876781 
L 187.66819 348.327252 
L 192.766409 347.425613 
L 197.864627 346.388485 
L 202.962845 345.077228 
L 215.708391 341.000337 
L 218.257501 339.863631 
L 220.80661 338.243712 
L 223.355719 336.019163 
L 225.904828 333.215933 
L 231.003046 326.610082 
L 241.199483 313.089039 
L 243.748592 308.994264 
L 246.297702 304.090206 
L 248.846811 298.147801 
L 251.39592 290.950299 
L 253.945029 282.256917 
L 256.494138 271.811541 
L 259.043247 259.410334 
L 261.592357 244.991928 
L 264.141466 228.693416 
L 266.690575 210.836855 
L 271.788793 172.225381 
L 276.887012 132.994738 
L 279.436121 114.647804 
L 281.98523 98.309514 
L 284.534339 85.090593 
L 287.083448 76.119987 
L 289.632558 72.292629 
L 292.181667 74.018695 
L 294.730776 81.08065 
L 297.279885 92.670319 
L 299.828994 107.600059 
L 302.378104 124.601505 
L 312.57454 196.512333 
L 317.672759 230.130767 
L 320.221868 245.660762 
L 322.770977 259.883158 
L 325.320086 272.420433 
L 327.869195 283.014499 
L 330.418305 291.658004 
L 332.967414 298.646925 
L 335.516523 304.494329 
L 338.065632 309.724357 
L 340.614741 314.659018 
L 343.163851 319.331931 
L 345.71296 323.576388 
L 348.262069 327.20725 
L 350.811178 330.159567 
L 353.360287 332.505424 
L 355.909396 334.379889 
L 358.458506 335.905688 
L 361.007615 337.175651 
L 371.204052 341.63926 
L 381.400488 346.816098 
L 383.949597 347.814153 
L 386.498707 348.623737 
L 389.047816 349.260343 
L 394.146034 350.168511 
L 409.440689 352.417768 
L 414.538908 352.845432 
L 419.637126 353.096698 
L 427.284454 353.207234 
L 434.931781 353.314898 
L 442.579109 353.488867 
L 450.226436 353.549351 
L 455.324655 353.86368 
L 462.971982 354.454604 
L 468.0702 354.586173 
L 478.266637 354.621327 
L 493.561292 354.941721 
L 524.150602 354.958122 
L 547.092585 354.885082 
L 562.38724 354.604978 
L 582.780114 354.954067 
L 582.780114 354.954067 
" clip-path="url(#p17e06f035a)" style="fill: none; stroke: #1f77b4; stroke-width: 1.5; stroke-linecap: square"/>
   </g>
   <g id="patch_103">
    <path d="M 50.14375 354.958125 
L 50.14375 22.318125 
" style="fill: none; stroke: #000000; stroke-width: 0.8; stroke-linejoin: miter; stroke-linecap: square"/>
   </g>
   <g id="patch_104">
    <path d="M 608.14375 354.958125 
L 608.14375 22.318125 
" style="fill: none; stroke: #000000; stroke-width: 0.8; stroke-linejoin: miter; stroke-linecap: square"/>
   </g>
   <g id="patch_105">
    <path d="M 50.14375 354.958125 
L 608.14375 354.958125 
" style="fill: none; stroke: #000000; stroke-width: 0.8; stroke-linejoin: miter; stroke-linecap: square"/>
   </g>
   <g id="patch_106">
    <path d="M 50.14375 22.318125 
L 608.14375 22.318125 
" style="fill: none; stroke: #000000; stroke-width: 0.8; stroke-linejoin: miter; stroke-linecap: square"/>
   </g>
   <g id="patch_107">
    <path d="M 109.461953 267.89819 
Q 105.455196 304.192289 101.448438 340.486387 
L 105.424284 340.925308 
Q 101.783932 346.560663 98.143581 352.196018 
Q 95.820164 345.902281 93.496747 339.608545 
L 97.472593 340.047466 
Q 101.47935 303.753367 105.486107 267.459269 
L 109.461953 267.89819 
z
" style="fill: #ff0000"/>
   </g>
   <g id="text_16">
    <!-- Worst Day: $-10.90 -->
    <g transform="translate(108 249.636875)scale(0.1 -0.1)">
     <defs>
      <path id="DejaVuSans-57" d="M 213 4666 
L 850 4666 
L 1831 722 
L 2809 4666 
L 3519 4666 
L 4500 722 
L 5478 4666 
L 6119 4666 
L 4947 0 
L 4153 0 
L 3169 4050 
L 2175 0 
L 1381 0 
L 213 4666 
z
" transform="scale(0.015625)"/>
      <path id="DejaVuSans-6f" d="M 1959 3097 
Q 1497 3097 1228 2736 
Q 959 2375 959 1747 
Q 959 1119 1226 758 
Q 1494 397 1959 397 
Q 2419 397 2687 759 
Q 2956 1122 2956 1747 
Q 2956 2369 2687 2733 
Q 2419 3097 1959 3097 
z
M 1959 3584 
Q 2709 3584 3137 3096 
Q 3566 2609 3566 1747 
Q 3566 888 3137 398 
Q 2709 -91 1959 -91 
Q 1206 -91 779 398 
Q 353 888 353 1747 
Q 353 2609 779 3096 
Q 1206 3584 1959 3584 
z
" transform="scale(0.015625)"/>
      <path id="DejaVuSans-61" d="M 2194 1759 
Q 1497 1759 1228 1600 
Q 959 1441 959 1056 
Q 959 750 1161 570 
Q 1363 391 1709 391 
Q 2188 391 2477 730 
Q 2766 1069 2766 1631 
L 2766 1759 
L 2194 1759 
z
M 3341 1997 
L 3341 0 
L 2766 0 
L 2766 531 
Q 2569 213 2275 61 
Q 1981 -91 1556 -91 
Q 1019 -91 701 211 
Q 384 513 384 1019 
Q 384 1609 779 1909 
Q 1175 2209 1959 2209 
L 2766 2209 
L 2766 2266 
Q 2766 2663 2505 2880 
Q 2244 3097 1772 3097 
Q 1472 3097 1187 3025 
Q 903 2953 641 2809 
L 641 3341 
Q 956 3463 1253 3523 
Q 1550 3584 1831 3584 
Q 2591 3584 2966 3190 
Q 3341 2797 3341 1997 
z
" transform="scale(0.015625)"/>
      <path id="DejaVuSans-3a" d="M 750 794 
L 1409 794 
L 1409 0 
L 750 0 
L 750 794 
z
M 750 3309 
L 1409 3309 
L 1409 2516 
L 750 2516 
L 750 3309 
z
" transform="scale(0.015625)"/>
      <path id="DejaVuSans-24" d="M 2163 -941 
L 1850 -941 
L 1847 0 
Q 1519 6 1191 76 
Q 863 147 531 288 
L 531 850 
Q 850 650 1176 548 
Q 1503 447 1850 444 
L 1850 1869 
Q 1159 1981 845 2250 
Q 531 2519 531 2988 
Q 531 3497 872 3790 
Q 1213 4084 1850 4128 
L 1850 4863 
L 2163 4863 
L 2163 4138 
Q 2453 4125 2725 4076 
Q 2997 4028 3256 3944 
L 3256 3397 
Q 2997 3528 2723 3600 
Q 2450 3672 2163 3684 
L 2163 2350 
Q 2872 2241 3206 1959 
Q 3541 1678 3541 1191 
Q 3541 663 3186 358 
Q 2831 53 2163 6 
L 2163 -941 
z
M 1850 2406 
L 1850 3688 
Q 1488 3647 1297 3481 
Q 1106 3316 1106 3041 
Q 1106 2772 1282 2622 
Q 1459 2472 1850 2406 
z
M 2163 1806 
L 2163 453 
Q 2559 506 2761 678 
Q 2963 850 2963 1131 
Q 2963 1406 2770 1568 
Q 2578 1731 2163 1806 
z
" transform="scale(0.015625)"/>
      <path id="DejaVuSans-2d" d="M 313 2009 
L 1997 2009 
L 1997 1497 
L 313 1497 
L 313 2009 
z
" transform="scale(0.015625)"/>
      <path id="DejaVuSans-39" d="M 703 97 
L 703 672 
Q 941 559 1184 500 
Q 1428 441 1663 441 
Q 2288 441 2617 861 
Q 2947 1281 2994 2138 
Q 2813 1869 2534 1725 
Q 2256 1581 1919 1581 
Q 1219 1581 811 2004 
Q 403 2428 403 3163 
Q 403 3881 828 4315 
Q 1253 4750 1959 4750 
Q 2769 4750 3195 4129 
Q 3622 3509 3622 2328 
Q 3622 1225 3098 567 
Q 2575 -91 1691 -91 
Q 1453 -91 1209 -44 
Q 966 3 703 97 
z
M 1959 2075 
Q 2384 2075 2632 2365 
Q 2881 2656 2881 3163 
Q 2881 3666 2632 3958 
Q 2384 4250 1959 4250 
Q 1534 4250 1286 3958 
Q 1038 3666 1038 3163 
Q 1038 2656 1286 2365 
Q 1534 2075 1959 2075 
z
" transform="scale(0.015625)"/>
     </defs>
     <use xlink:href="#DejaVuSans-57"/>
     <use xlink:href="#DejaVuSans-6f" x="93.001953"/>
     <use xlink:href="#DejaVuSans-72" x="154.183594"/>
     <use xlink:href="#DejaVuSans-73" x="195.296875"/>
     <use xlink:href="#DejaVuSans-74" x="247.396484"/>
     <use xlink:href="#DejaVuSans-20" x="286.605469"/>
     <use xlink:href="#DejaVuSans-44" x="318.392578"/>
     <use xlink:href="#DejaVuSans-61" x="395.394531"/>
     <use xlink:href="#DejaVuSans-79" x="456.673828"/>
     <use xlink:href="#DejaVuSans-3a" x="508.603516"/>
     <use xlink:href="#DejaVuSans-20" x="542.294922"/>
     <use xlink:href="#DejaVuSans-24" x="574.082031"/>
     <use xlink:href="#DejaVuSans-2d" x="637.705078"/>
     <use xlink:href="#DejaVuSans-31" x="673.789062"/>
     <use xlink:href="#DejaVuSans-30" x="737.412109"/>
     <use xlink:href="#DejaVuSans-2e" x="801.035156"/>
     <use xlink:href="#DejaVuSans-39" x="832.822266"/>
     <use xlink:href="#DejaVuSans-30" x="896.445312"/>
    </g>
    <!-- 2018/10/10 -->
    <g transform="translate(108 260.834687)scale(0.1 -0.1)">
     <defs>
      <path id="DejaVuSans-38" d="M 2034 2216 
Q 1584 2216 1326 1975 
Q 1069 1734 1069 1313 
Q 1069 891 1326 650 
Q 1584 409 2034 409 
Q 2484 409 2743 651 
Q 3003 894 3003 1313 
Q 3003 1734 2745 1975 
Q 2488 2216 2034 2216 
z
M 1403 2484 
Q 997 2584 770 2862 
Q 544 3141 544 3541 
Q 544 4100 942 4425 
Q 1341 4750 2034 4750 
Q 2731 4750 3128 4425 
Q 3525 4100 3525 3541 
Q 3525 3141 3298 2862 
Q 3072 2584 2669 2484 
Q 3125 2378 3379 2068 
Q 3634 1759 3634 1313 
Q 3634 634 3220 271 
Q 2806 -91 2034 -91 
Q 1263 -91 848 271 
Q 434 634 434 1313 
Q 434 1759 690 2068 
Q 947 2378 1403 2484 
z
M 1172 3481 
Q 1172 3119 1398 2916 
Q 1625 2713 2034 2713 
Q 2441 2713 2670 2916 
Q 2900 3119 2900 3481 
Q 2900 3844 2670 4047 
Q 2441 4250 2034 4250 
Q 1625 4250 1398 4047 
Q 1172 3844 1172 3481 
z
" transform="scale(0.015625)"/>
      <path id="DejaVuSans-2f" d="M 1625 4666 
L 2156 4666 
L 531 -594 
L 0 -594 
L 1625 4666 
z
" transform="scale(0.015625)"/>
     </defs>
     <use xlink:href="#DejaVuSans-32"/>
     <use xlink:href="#DejaVuSans-30" x="63.623047"/>
     <use xlink:href="#DejaVuSans-31" x="127.246094"/>
     <use xlink:href="#DejaVuSans-38" x="190.869141"/>
     <use xlink:href="#DejaVuSans-2f" x="254.492188"/>
     <use xlink:href="#DejaVuSans-31" x="288.183594"/>
     <use xlink:href="#DejaVuSans-30" x="351.806641"/>
     <use xlink:href="#DejaVuSans-2f" x="415.429688"/>
     <use xlink:href="#DejaVuSans-31" x="449.121094"/>
     <use xlink:href="#DejaVuSans-30" x="512.744141"/>
    </g>
   </g>
   <g id="patch_108">
    <path d="M 521.899901 266.839217 
Q 538.924642 303.651748 555.949383 340.464278 
L 559.579931 338.785254 
Q 559.375691 345.490636 559.171452 352.196018 
Q 553.92987 348.009172 548.688287 343.822327 
L 552.318835 342.143302 
Q 535.294094 305.330772 518.269354 268.518242 
L 521.899901 266.839217 
z
" style="fill: #008000"/>
   </g>
   <g id="text_17">
    <!-- Best Day: $15.20 -->
    <g transform="translate(432 249.636875)scale(0.1 -0.1)">
     <defs>
      <path id="DejaVuSans-42" d="M 1259 2228 
L 1259 519 
L 2272 519 
Q 2781 519 3026 730 
Q 3272 941 3272 1375 
Q 3272 1813 3026 2020 
Q 2781 2228 2272 2228 
L 1259 2228 
z
M 1259 4147 
L 1259 2741 
L 2194 2741 
Q 2656 2741 2882 2914 
Q 3109 3088 3109 3444 
Q 3109 3797 2882 3972 
Q 2656 4147 2194 4147 
L 1259 4147 
z
M 628 4666 
L 2241 4666 
Q 2963 4666 3353 4366 
Q 3744 4066 3744 3513 
Q 3744 3084 3544 2831 
Q 3344 2578 2956 2516 
Q 3422 2416 3680 2098 
Q 3938 1781 3938 1306 
Q 3938 681 3513 340 
Q 3088 0 2303 0 
L 628 0 
L 628 4666 
z
" transform="scale(0.015625)"/>
     </defs>
     <use xlink:href="#DejaVuSans-42"/>
     <use xlink:href="#DejaVuSans-65" x="68.603516"/>
     <use xlink:href="#DejaVuSans-73" x="130.126953"/>
     <use xlink:href="#DejaVuSans-74" x="182.226562"/>
     <use xlink:href="#DejaVuSans-20" x="221.435547"/>
     <use xlink:href="#DejaVuSans-44" x="253.222656"/>
     <use xlink:href="#DejaVuSans-61" x="330.224609"/>
     <use xlink:href="#DejaVuSans-79" x="391.503906"/>
     <use xlink:href="#DejaVuSans-3a" x="443.433594"/>
     <use xlink:href="#DejaVuSans-20" x="477.125"/>
     <use xlink:href="#DejaVuSans-24" x="508.912109"/>
     <use xlink:href="#DejaVuSans-31" x="572.535156"/>
     <use xlink:href="#DejaVuSans-35" x="636.158203"/>
     <use xlink:href="#DejaVuSans-2e" x="699.78125"/>
     <use xlink:href="#DejaVuSans-32" x="731.568359"/>
     <use xlink:href="#DejaVuSans-30" x="795.191406"/>
    </g>
    <!-- 2022/10/13 -->
    <g transform="translate(432 260.834687)scale(0.1 -0.1)">
     <use xlink:href="#DejaVuSans-32"/>
     <use xlink:href="#DejaVuSans-30" x="63.623047"/>
     <use xlink:href="#DejaVuSans-32" x="127.246094"/>
     <use xlink:href="#DejaVuSans-32" x="190.869141"/>
     <use xlink:href="#DejaVuSans-2f" x="254.492188"/>
     <use xlink:href="#DejaVuSans-31" x="288.183594"/>
     <use xlink:href="#DejaVuSans-30" x="351.806641"/>
     <use xlink:href="#DejaVuSans-2f" x="415.429688"/>
     <use xlink:href="#DejaVuSans-31" x="449.121094"/>
     <use xlink:href="#DejaVuSans-33" x="512.744141"/>
    </g>
   </g>
   <g id="text_18">
    <!-- BRK_B, Stock Price Daily Changes Distribution -->
    <g transform="translate(190.84 16.318125)scale(0.12 -0.12)">
     <defs>
      <path id="DejaVuSans-4b" d="M 628 4666 
L 1259 4666 
L 1259 2694 
L 3353 4666 
L 4166 4666 
L 1850 2491 
L 4331 0 
L 3500 0 
L 1259 2247 
L 1259 0 
L 628 0 
L 628 4666 
z
" transform="scale(0.015625)"/>
      <path id="DejaVuSans-5f" d="M 3263 -1063 
L 3263 -1509 
L -63 -1509 
L -63 -1063 
L 3263 -1063 
z
" transform="scale(0.015625)"/>
      <path id="DejaVuSans-2c" d="M 750 794 
L 1409 794 
L 1409 256 
L 897 -744 
L 494 -744 
L 750 256 
L 750 794 
z
" transform="scale(0.015625)"/>
      <path id="DejaVuSans-63" d="M 3122 3366 
L 3122 2828 
Q 2878 2963 2633 3030 
Q 2388 3097 2138 3097 
Q 1578 3097 1268 2742 
Q 959 2388 959 1747 
Q 959 1106 1268 751 
Q 1578 397 2138 397 
Q 2388 397 2633 464 
Q 2878 531 3122 666 
L 3122 134 
Q 2881 22 2623 -34 
Q 2366 -91 2075 -91 
Q 1284 -91 818 406 
Q 353 903 353 1747 
Q 353 2603 823 3093 
Q 1294 3584 2113 3584 
Q 2378 3584 2631 3529 
Q 2884 3475 3122 3366 
z
" transform="scale(0.015625)"/>
      <path id="DejaVuSans-6b" d="M 581 4863 
L 1159 4863 
L 1159 1991 
L 2875 3500 
L 3609 3500 
L 1753 1863 
L 3688 0 
L 2938 0 
L 1159 1709 
L 1159 0 
L 581 0 
L 581 4863 
z
" transform="scale(0.015625)"/>
      <path id="DejaVuSans-50" d="M 1259 4147 
L 1259 2394 
L 2053 2394 
Q 2494 2394 2734 2622 
Q 2975 2850 2975 3272 
Q 2975 3691 2734 3919 
Q 2494 4147 2053 4147 
L 1259 4147 
z
M 628 4666 
L 2053 4666 
Q 2838 4666 3239 4311 
Q 3641 3956 3641 3272 
Q 3641 2581 3239 2228 
Q 2838 1875 2053 1875 
L 1259 1875 
L 1259 0 
L 628 0 
L 628 4666 
z
" transform="scale(0.015625)"/>
      <path id="DejaVuSans-6c" d="M 603 4863 
L 1178 4863 
L 1178 0 
L 603 0 
L 603 4863 
z
" transform="scale(0.015625)"/>
      <path id="DejaVuSans-43" d="M 4122 4306 
L 4122 3641 
Q 3803 3938 3442 4084 
Q 3081 4231 2675 4231 
Q 1875 4231 1450 3742 
Q 1025 3253 1025 2328 
Q 1025 1406 1450 917 
Q 1875 428 2675 428 
Q 3081 428 3442 575 
Q 3803 722 4122 1019 
L 4122 359 
Q 3791 134 3420 21 
Q 3050 -91 2638 -91 
Q 1578 -91 968 557 
Q 359 1206 359 2328 
Q 359 3453 968 4101 
Q 1578 4750 2638 4750 
Q 3056 4750 3426 4639 
Q 3797 4528 4122 4306 
z
" transform="scale(0.015625)"/>
      <path id="DejaVuSans-68" d="M 3513 2113 
L 3513 0 
L 2938 0 
L 2938 2094 
Q 2938 2591 2744 2837 
Q 2550 3084 2163 3084 
Q 1697 3084 1428 2787 
Q 1159 2491 1159 1978 
L 1159 0 
L 581 0 
L 581 4863 
L 1159 4863 
L 1159 2956 
Q 1366 3272 1645 3428 
Q 1925 3584 2291 3584 
Q 2894 3584 3203 3211 
Q 3513 2838 3513 2113 
z
" transform="scale(0.015625)"/>
      <path id="DejaVuSans-67" d="M 2906 1791 
Q 2906 2416 2648 2759 
Q 2391 3103 1925 3103 
Q 1463 3103 1205 2759 
Q 947 2416 947 1791 
Q 947 1169 1205 825 
Q 1463 481 1925 481 
Q 2391 481 2648 825 
Q 2906 1169 2906 1791 
z
M 3481 434 
Q 3481 -459 3084 -895 
Q 2688 -1331 1869 -1331 
Q 1566 -1331 1297 -1286 
Q 1028 -1241 775 -1147 
L 775 -588 
Q 1028 -725 1275 -790 
Q 1522 -856 1778 -856 
Q 2344 -856 2625 -561 
Q 2906 -266 2906 331 
L 2906 616 
Q 2728 306 2450 153 
Q 2172 0 1784 0 
Q 1141 0 747 490 
Q 353 981 353 1791 
Q 353 2603 747 3093 
Q 1141 3584 1784 3584 
Q 2172 3584 2450 3431 
Q 2728 3278 2906 2969 
L 2906 3500 
L 3481 3500 
L 3481 434 
z
" transform="scale(0.015625)"/>
      <path id="DejaVuSans-62" d="M 3116 1747 
Q 3116 2381 2855 2742 
Q 2594 3103 2138 3103 
Q 1681 3103 1420 2742 
Q 1159 2381 1159 1747 
Q 1159 1113 1420 752 
Q 1681 391 2138 391 
Q 2594 391 2855 752 
Q 3116 1113 3116 1747 
z
M 1159 2969 
Q 1341 3281 1617 3432 
Q 1894 3584 2278 3584 
Q 2916 3584 3314 3078 
Q 3713 2572 3713 1747 
Q 3713 922 3314 415 
Q 2916 -91 2278 -91 
Q 1894 -91 1617 61 
Q 1341 213 1159 525 
L 1159 0 
L 581 0 
L 581 4863 
L 1159 4863 
L 1159 2969 
z
" transform="scale(0.015625)"/>
     </defs>
     <use xlink:href="#DejaVuSans-42"/>
     <use xlink:href="#DejaVuSans-52" x="68.603516"/>
     <use xlink:href="#DejaVuSans-4b" x="138.085938"/>
     <use xlink:href="#DejaVuSans-5f" x="203.662109"/>
     <use xlink:href="#DejaVuSans-42" x="253.662109"/>
     <use xlink:href="#DejaVuSans-2c" x="322.265625"/>
     <use xlink:href="#DejaVuSans-20" x="354.052734"/>
     <use xlink:href="#DejaVuSans-53" x="385.839844"/>
     <use xlink:href="#DejaVuSans-74" x="449.316406"/>
     <use xlink:href="#DejaVuSans-6f" x="488.525391"/>
     <use xlink:href="#DejaVuSans-63" x="549.707031"/>
     <use xlink:href="#DejaVuSans-6b" x="604.6875"/>
     <use xlink:href="#DejaVuSans-20" x="662.597656"/>
     <use xlink:href="#DejaVuSans-50" x="694.384766"/>
     <use xlink:href="#DejaVuSans-72" x="752.9375"/>
     <use xlink:href="#DejaVuSans-69" x="794.050781"/>
     <use xlink:href="#DejaVuSans-63" x="821.833984"/>
     <use xlink:href="#DejaVuSans-65" x="876.814453"/>
     <use xlink:href="#DejaVuSans-20" x="938.337891"/>
     <use xlink:href="#DejaVuSans-44" x="970.125"/>
     <use xlink:href="#DejaVuSans-61" x="1047.126953"/>
     <use xlink:href="#DejaVuSans-69" x="1108.40625"/>
     <use xlink:href="#DejaVuSans-6c" x="1136.189453"/>
     <use xlink:href="#DejaVuSans-79" x="1163.972656"/>
     <use xlink:href="#DejaVuSans-20" x="1223.152344"/>
     <use xlink:href="#DejaVuSans-43" x="1254.939453"/>
     <use xlink:href="#DejaVuSans-68" x="1324.763672"/>
     <use xlink:href="#DejaVuSans-61" x="1388.142578"/>
     <use xlink:href="#DejaVuSans-6e" x="1449.421875"/>
     <use xlink:href="#DejaVuSans-67" x="1512.800781"/>
     <use xlink:href="#DejaVuSans-65" x="1576.277344"/>
     <use xlink:href="#DejaVuSans-73" x="1637.800781"/>
     <use xlink:href="#DejaVuSans-20" x="1689.900391"/>
     <use xlink:href="#DejaVuSans-44" x="1721.6875"/>
     <use xlink:href="#DejaVuSans-69" x="1798.689453"/>
     <use xlink:href="#DejaVuSans-73" x="1826.472656"/>
     <use xlink:href="#DejaVuSans-74" x="1878.572266"/>
     <use xlink:href="#DejaVuSans-72" x="1917.78125"/>
     <use xlink:href="#DejaVuSans-69" x="1958.894531"/>
     <use xlink:href="#DejaVuSans-62" x="1986.677734"/>
     <use xlink:href="#DejaVuSans-75" x="2050.154297"/>
     <use xlink:href="#DejaVuSans-74" x="2113.533203"/>
     <use xlink:href="#DejaVuSans-69" x="2152.742188"/>
     <use xlink:href="#DejaVuSans-6f" x="2180.525391"/>
     <use xlink:href="#DejaVuSans-6e" x="2241.707031"/>
    </g>
   </g>
  </g>
 </g>
 <defs>
  <clipPath id="p17e06f035a">
   <rect x="50.14375" y="22.318125" width="558" height="332.64"/>
  </clipPath>
 </defs>
</svg>
