<?xml version="1.0" encoding="utf-8" standalone="no"?>
<!DOCTYPE svg PUBLIC "-//W3C//DTD SVG 1.1//EN"
  "http://www.w3.org/Graphics/SVG/1.1/DTD/svg11.dtd">
<svg xmlns:xlink="http://www.w3.org/1999/xlink" width="612.165625pt" height="392.514375pt" viewBox="0 0 612.165625 392.514375" xmlns="http://www.w3.org/2000/svg" version="1.1">
 <metadata>
  <rdf:RDF xmlns:dc="http://purl.org/dc/elements/1.1/" xmlns:cc="http://creativecommons.org/ns#" xmlns:rdf="http://www.w3.org/1999/02/22-rdf-syntax-ns#">
   <cc:Work>
    <dc:type rdf:resource="http://purl.org/dc/dcmitype/StillImage"/>
    <dc:date>2023-04-24T15:33:46.679888</dc:date>
    <dc:format>image/svg+xml</dc:format>
    <dc:creator>
     <cc:Agent>
      <dc:title>Matplotlib v3.5.1, https://matplotlib.org/</dc:title>
     </cc:Agent>
    </dc:creator>
   </cc:Work>
  </rdf:RDF>
 </metadata>
 <defs>
  <style type="text/css">*{stroke-linejoin: round; stroke-linecap: butt}</style>
 </defs>
 <g id="figure_1">
  <g id="patch_1">
   <path d="M 0 392.514375 
L 612.165625 392.514375 
L 612.165625 0 
L 0 0 
z
" style="fill: #ffffff"/>
  </g>
  <g id="axes_1">
   <g id="patch_2">
    <path d="M 46.965625 354.958125 
L 604.965625 354.958125 
L 604.965625 22.318125 
L 46.965625 22.318125 
z
" style="fill: #ffffff"/>
   </g>
   <g id="matplotlib.axis_1">
    <g id="xtick_1">
     <g id="line2d_1">
      <defs>
       <path id="m171277f16d" d="M 0 0 
L 0 3.5 
" style="stroke: #000000; stroke-width: 0.8"/>
      </defs>
      <g>
       <use xlink:href="#m171277f16d" x="72.329261" y="354.958125" style="stroke: #000000; stroke-width: 0.8"/>
      </g>
     </g>
     <g id="text_1">
      <!-- 0 -->
      <g transform="translate(69.148011 369.556562)scale(0.1 -0.1)">
       <defs>
        <path id="DejaVuSans-30" d="M 2034 4250 
Q 1547 4250 1301 3770 
Q 1056 3291 1056 2328 
Q 1056 1369 1301 889 
Q 1547 409 2034 409 
Q 2525 409 2770 889 
Q 3016 1369 3016 2328 
Q 3016 3291 2770 3770 
Q 2525 4250 2034 4250 
z
M 2034 4750 
Q 2819 4750 3233 4129 
Q 3647 3509 3647 2328 
Q 3647 1150 3233 529 
Q 2819 -91 2034 -91 
Q 1250 -91 836 529 
Q 422 1150 422 2328 
Q 422 3509 836 4129 
Q 1250 4750 2034 4750 
z
" transform="scale(0.015625)"/>
       </defs>
       <use xlink:href="#DejaVuSans-30"/>
      </g>
     </g>
    </g>
    <g id="xtick_2">
     <g id="line2d_2">
      <g>
       <use xlink:href="#m171277f16d" x="186.01656" y="354.958125" style="stroke: #000000; stroke-width: 0.8"/>
      </g>
     </g>
     <g id="text_2">
      <!-- 500 -->
      <g transform="translate(176.47281 369.556562)scale(0.1 -0.1)">
       <defs>
        <path id="DejaVuSans-35" d="M 691 4666 
L 3169 4666 
L 3169 4134 
L 1269 4134 
L 1269 2991 
Q 1406 3038 1543 3061 
Q 1681 3084 1819 3084 
Q 2600 3084 3056 2656 
Q 3513 2228 3513 1497 
Q 3513 744 3044 326 
Q 2575 -91 1722 -91 
Q 1428 -91 1123 -41 
Q 819 9 494 109 
L 494 744 
Q 775 591 1075 516 
Q 1375 441 1709 441 
Q 2250 441 2565 725 
Q 2881 1009 2881 1497 
Q 2881 1984 2565 2268 
Q 2250 2553 1709 2553 
Q 1456 2553 1204 2497 
Q 953 2441 691 2322 
L 691 4666 
z
" transform="scale(0.015625)"/>
       </defs>
       <use xlink:href="#DejaVuSans-35"/>
       <use xlink:href="#DejaVuSans-30" x="63.623047"/>
       <use xlink:href="#DejaVuSans-30" x="127.246094"/>
      </g>
     </g>
    </g>
    <g id="xtick_3">
     <g id="line2d_3">
      <g>
       <use xlink:href="#m171277f16d" x="299.703859" y="354.958125" style="stroke: #000000; stroke-width: 0.8"/>
      </g>
     </g>
     <g id="text_3">
      <!-- 1000 -->
      <g transform="translate(286.978859 369.556562)scale(0.1 -0.1)">
       <defs>
        <path id="DejaVuSans-31" d="M 794 531 
L 1825 531 
L 1825 4091 
L 703 3866 
L 703 4441 
L 1819 4666 
L 2450 4666 
L 2450 531 
L 3481 531 
L 3481 0 
L 794 0 
L 794 531 
z
" transform="scale(0.015625)"/>
       </defs>
       <use xlink:href="#DejaVuSans-31"/>
       <use xlink:href="#DejaVuSans-30" x="63.623047"/>
       <use xlink:href="#DejaVuSans-30" x="127.246094"/>
       <use xlink:href="#DejaVuSans-30" x="190.869141"/>
      </g>
     </g>
    </g>
    <g id="xtick_4">
     <g id="line2d_4">
      <g>
       <use xlink:href="#m171277f16d" x="413.391158" y="354.958125" style="stroke: #000000; stroke-width: 0.8"/>
      </g>
     </g>
     <g id="text_4">
      <!-- 1500 -->
      <g transform="translate(400.666158 369.556562)scale(0.1 -0.1)">
       <use xlink:href="#DejaVuSans-31"/>
       <use xlink:href="#DejaVuSans-35" x="63.623047"/>
       <use xlink:href="#DejaVuSans-30" x="127.246094"/>
       <use xlink:href="#DejaVuSans-30" x="190.869141"/>
      </g>
     </g>
    </g>
    <g id="xtick_5">
     <g id="line2d_5">
      <g>
       <use xlink:href="#m171277f16d" x="527.078457" y="354.958125" style="stroke: #000000; stroke-width: 0.8"/>
      </g>
     </g>
     <g id="text_5">
      <!-- 2000 -->
      <g transform="translate(514.353457 369.556562)scale(0.1 -0.1)">
       <defs>
        <path id="DejaVuSans-32" d="M 1228 531 
L 3431 531 
L 3431 0 
L 469 0 
L 469 531 
Q 828 903 1448 1529 
Q 2069 2156 2228 2338 
Q 2531 2678 2651 2914 
Q 2772 3150 2772 3378 
Q 2772 3750 2511 3984 
Q 2250 4219 1831 4219 
Q 1534 4219 1204 4116 
Q 875 4013 500 3803 
L 500 4441 
Q 881 4594 1212 4672 
Q 1544 4750 1819 4750 
Q 2544 4750 2975 4387 
Q 3406 4025 3406 3419 
Q 3406 3131 3298 2873 
Q 3191 2616 2906 2266 
Q 2828 2175 2409 1742 
Q 1991 1309 1228 531 
z
" transform="scale(0.015625)"/>
       </defs>
       <use xlink:href="#DejaVuSans-32"/>
       <use xlink:href="#DejaVuSans-30" x="63.623047"/>
       <use xlink:href="#DejaVuSans-30" x="127.246094"/>
       <use xlink:href="#DejaVuSans-30" x="190.869141"/>
      </g>
     </g>
    </g>
    <g id="text_6">
     <!-- Date -->
     <g transform="translate(314.014844 383.234687)scale(0.1 -0.1)">
      <defs>
       <path id="DejaVuSans-44" d="M 1259 4147 
L 1259 519 
L 2022 519 
Q 2988 519 3436 956 
Q 3884 1394 3884 2338 
Q 3884 3275 3436 3711 
Q 2988 4147 2022 4147 
L 1259 4147 
z
M 628 4666 
L 1925 4666 
Q 3281 4666 3915 4102 
Q 4550 3538 4550 2338 
Q 4550 1131 3912 565 
Q 3275 0 1925 0 
L 628 0 
L 628 4666 
z
" transform="scale(0.015625)"/>
       <path id="DejaVuSans-61" d="M 2194 1759 
Q 1497 1759 1228 1600 
Q 959 1441 959 1056 
Q 959 750 1161 570 
Q 1363 391 1709 391 
Q 2188 391 2477 730 
Q 2766 1069 2766 1631 
L 2766 1759 
L 2194 1759 
z
M 3341 1997 
L 3341 0 
L 2766 0 
L 2766 531 
Q 2569 213 2275 61 
Q 1981 -91 1556 -91 
Q 1019 -91 701 211 
Q 384 513 384 1019 
Q 384 1609 779 1909 
Q 1175 2209 1959 2209 
L 2766 2209 
L 2766 2266 
Q 2766 2663 2505 2880 
Q 2244 3097 1772 3097 
Q 1472 3097 1187 3025 
Q 903 2953 641 2809 
L 641 3341 
Q 956 3463 1253 3523 
Q 1550 3584 1831 3584 
Q 2591 3584 2966 3190 
Q 3341 2797 3341 1997 
z
" transform="scale(0.015625)"/>
       <path id="DejaVuSans-74" d="M 1172 4494 
L 1172 3500 
L 2356 3500 
L 2356 3053 
L 1172 3053 
L 1172 1153 
Q 1172 725 1289 603 
Q 1406 481 1766 481 
L 2356 481 
L 2356 0 
L 1766 0 
Q 1100 0 847 248 
Q 594 497 594 1153 
L 594 3053 
L 172 3053 
L 172 3500 
L 594 3500 
L 594 4494 
L 1172 4494 
z
" transform="scale(0.015625)"/>
       <path id="DejaVuSans-65" d="M 3597 1894 
L 3597 1613 
L 953 1613 
Q 991 1019 1311 708 
Q 1631 397 2203 397 
Q 2534 397 2845 478 
Q 3156 559 3463 722 
L 3463 178 
Q 3153 47 2828 -22 
Q 2503 -91 2169 -91 
Q 1331 -91 842 396 
Q 353 884 353 1716 
Q 353 2575 817 3079 
Q 1281 3584 2069 3584 
Q 2775 3584 3186 3129 
Q 3597 2675 3597 1894 
z
M 3022 2063 
Q 3016 2534 2758 2815 
Q 2500 3097 2075 3097 
Q 1594 3097 1305 2825 
Q 1016 2553 972 2059 
L 3022 2063 
z
" transform="scale(0.015625)"/>
      </defs>
      <use xlink:href="#DejaVuSans-44"/>
      <use xlink:href="#DejaVuSans-61" x="77.001953"/>
      <use xlink:href="#DejaVuSans-74" x="138.28125"/>
      <use xlink:href="#DejaVuSans-65" x="177.490234"/>
     </g>
    </g>
   </g>
   <g id="matplotlib.axis_2">
    <g id="ytick_1">
     <g id="line2d_6">
      <path d="M 46.965625 342.245249 
L 604.965625 342.245249 
" clip-path="url(#pe4b70fe42d)" style="fill: none; stroke: #dcdcdc; stroke-width: 0.5; stroke-linecap: square"/>
     </g>
     <g id="line2d_7">
      <defs>
       <path id="m32f57f9b22" d="M 0 0 
L -3.5 0 
" style="stroke: #000000; stroke-width: 0.8"/>
      </defs>
      <g>
       <use xlink:href="#m32f57f9b22" x="46.965625" y="342.245249" style="stroke: #000000; stroke-width: 0.8"/>
      </g>
     </g>
     <g id="text_7">
      <!-- 100 -->
      <g transform="translate(20.878125 346.044467)scale(0.1 -0.1)">
       <use xlink:href="#DejaVuSans-31"/>
       <use xlink:href="#DejaVuSans-30" x="63.623047"/>
       <use xlink:href="#DejaVuSans-30" x="127.246094"/>
      </g>
     </g>
    </g>
    <g id="ytick_2">
     <g id="line2d_8">
      <path d="M 46.965625 274.247407 
L 604.965625 274.247407 
" clip-path="url(#pe4b70fe42d)" style="fill: none; stroke: #dcdcdc; stroke-width: 0.5; stroke-linecap: square"/>
     </g>
     <g id="line2d_9">
      <g>
       <use xlink:href="#m32f57f9b22" x="46.965625" y="274.247407" style="stroke: #000000; stroke-width: 0.8"/>
      </g>
     </g>
     <g id="text_8">
      <!-- 150 -->
      <g transform="translate(20.878125 278.046626)scale(0.1 -0.1)">
       <use xlink:href="#DejaVuSans-31"/>
       <use xlink:href="#DejaVuSans-35" x="63.623047"/>
       <use xlink:href="#DejaVuSans-30" x="127.246094"/>
      </g>
     </g>
    </g>
    <g id="ytick_3">
     <g id="line2d_10">
      <path d="M 46.965625 206.249566 
L 604.965625 206.249566 
" clip-path="url(#pe4b70fe42d)" style="fill: none; stroke: #dcdcdc; stroke-width: 0.5; stroke-linecap: square"/>
     </g>
     <g id="line2d_11">
      <g>
       <use xlink:href="#m32f57f9b22" x="46.965625" y="206.249566" style="stroke: #000000; stroke-width: 0.8"/>
      </g>
     </g>
     <g id="text_9">
      <!-- 200 -->
      <g transform="translate(20.878125 210.048785)scale(0.1 -0.1)">
       <use xlink:href="#DejaVuSans-32"/>
       <use xlink:href="#DejaVuSans-30" x="63.623047"/>
       <use xlink:href="#DejaVuSans-30" x="127.246094"/>
      </g>
     </g>
    </g>
    <g id="ytick_4">
     <g id="line2d_12">
      <path d="M 46.965625 138.251725 
L 604.965625 138.251725 
" clip-path="url(#pe4b70fe42d)" style="fill: none; stroke: #dcdcdc; stroke-width: 0.5; stroke-linecap: square"/>
     </g>
     <g id="line2d_13">
      <g>
       <use xlink:href="#m32f57f9b22" x="46.965625" y="138.251725" style="stroke: #000000; stroke-width: 0.8"/>
      </g>
     </g>
     <g id="text_10">
      <!-- 250 -->
      <g transform="translate(20.878125 142.050943)scale(0.1 -0.1)">
       <use xlink:href="#DejaVuSans-32"/>
       <use xlink:href="#DejaVuSans-35" x="63.623047"/>
       <use xlink:href="#DejaVuSans-30" x="127.246094"/>
      </g>
     </g>
    </g>
    <g id="ytick_5">
     <g id="line2d_14">
      <path d="M 46.965625 70.253883 
L 604.965625 70.253883 
" clip-path="url(#pe4b70fe42d)" style="fill: none; stroke: #dcdcdc; stroke-width: 0.5; stroke-linecap: square"/>
     </g>
     <g id="line2d_15">
      <g>
       <use xlink:href="#m32f57f9b22" x="46.965625" y="70.253883" style="stroke: #000000; stroke-width: 0.8"/>
      </g>
     </g>
     <g id="text_11">
      <!-- 300 -->
      <g transform="translate(20.878125 74.053102)scale(0.1 -0.1)">
       <defs>
        <path id="DejaVuSans-33" d="M 2597 2516 
Q 3050 2419 3304 2112 
Q 3559 1806 3559 1356 
Q 3559 666 3084 287 
Q 2609 -91 1734 -91 
Q 1441 -91 1130 -33 
Q 819 25 488 141 
L 488 750 
Q 750 597 1062 519 
Q 1375 441 1716 441 
Q 2309 441 2620 675 
Q 2931 909 2931 1356 
Q 2931 1769 2642 2001 
Q 2353 2234 1838 2234 
L 1294 2234 
L 1294 2753 
L 1863 2753 
Q 2328 2753 2575 2939 
Q 2822 3125 2822 3475 
Q 2822 3834 2567 4026 
Q 2313 4219 1838 4219 
Q 1578 4219 1281 4162 
Q 984 4106 628 3988 
L 628 4550 
Q 988 4650 1302 4700 
Q 1616 4750 1894 4750 
Q 2613 4750 3031 4423 
Q 3450 4097 3450 3541 
Q 3450 3153 3228 2886 
Q 3006 2619 2597 2516 
z
" transform="scale(0.015625)"/>
       </defs>
       <use xlink:href="#DejaVuSans-33"/>
       <use xlink:href="#DejaVuSans-30" x="63.623047"/>
       <use xlink:href="#DejaVuSans-30" x="127.246094"/>
      </g>
     </g>
    </g>
    <g id="text_12">
     <!-- Price (USD) -->
     <g transform="translate(14.798437 217.01)rotate(-90)scale(0.1 -0.1)">
      <defs>
       <path id="DejaVuSans-50" d="M 1259 4147 
L 1259 2394 
L 2053 2394 
Q 2494 2394 2734 2622 
Q 2975 2850 2975 3272 
Q 2975 3691 2734 3919 
Q 2494 4147 2053 4147 
L 1259 4147 
z
M 628 4666 
L 2053 4666 
Q 2838 4666 3239 4311 
Q 3641 3956 3641 3272 
Q 3641 2581 3239 2228 
Q 2838 1875 2053 1875 
L 1259 1875 
L 1259 0 
L 628 0 
L 628 4666 
z
" transform="scale(0.015625)"/>
       <path id="DejaVuSans-72" d="M 2631 2963 
Q 2534 3019 2420 3045 
Q 2306 3072 2169 3072 
Q 1681 3072 1420 2755 
Q 1159 2438 1159 1844 
L 1159 0 
L 581 0 
L 581 3500 
L 1159 3500 
L 1159 2956 
Q 1341 3275 1631 3429 
Q 1922 3584 2338 3584 
Q 2397 3584 2469 3576 
Q 2541 3569 2628 3553 
L 2631 2963 
z
" transform="scale(0.015625)"/>
       <path id="DejaVuSans-69" d="M 603 3500 
L 1178 3500 
L 1178 0 
L 603 0 
L 603 3500 
z
M 603 4863 
L 1178 4863 
L 1178 4134 
L 603 4134 
L 603 4863 
z
" transform="scale(0.015625)"/>
       <path id="DejaVuSans-63" d="M 3122 3366 
L 3122 2828 
Q 2878 2963 2633 3030 
Q 2388 3097 2138 3097 
Q 1578 3097 1268 2742 
Q 959 2388 959 1747 
Q 959 1106 1268 751 
Q 1578 397 2138 397 
Q 2388 397 2633 464 
Q 2878 531 3122 666 
L 3122 134 
Q 2881 22 2623 -34 
Q 2366 -91 2075 -91 
Q 1284 -91 818 406 
Q 353 903 353 1747 
Q 353 2603 823 3093 
Q 1294 3584 2113 3584 
Q 2378 3584 2631 3529 
Q 2884 3475 3122 3366 
z
" transform="scale(0.015625)"/>
       <path id="DejaVuSans-20" transform="scale(0.015625)"/>
       <path id="DejaVuSans-28" d="M 1984 4856 
Q 1566 4138 1362 3434 
Q 1159 2731 1159 2009 
Q 1159 1288 1364 580 
Q 1569 -128 1984 -844 
L 1484 -844 
Q 1016 -109 783 600 
Q 550 1309 550 2009 
Q 550 2706 781 3412 
Q 1013 4119 1484 4856 
L 1984 4856 
z
" transform="scale(0.015625)"/>
       <path id="DejaVuSans-55" d="M 556 4666 
L 1191 4666 
L 1191 1831 
Q 1191 1081 1462 751 
Q 1734 422 2344 422 
Q 2950 422 3222 751 
Q 3494 1081 3494 1831 
L 3494 4666 
L 4128 4666 
L 4128 1753 
Q 4128 841 3676 375 
Q 3225 -91 2344 -91 
Q 1459 -91 1007 375 
Q 556 841 556 1753 
L 556 4666 
z
" transform="scale(0.015625)"/>
       <path id="DejaVuSans-53" d="M 3425 4513 
L 3425 3897 
Q 3066 4069 2747 4153 
Q 2428 4238 2131 4238 
Q 1616 4238 1336 4038 
Q 1056 3838 1056 3469 
Q 1056 3159 1242 3001 
Q 1428 2844 1947 2747 
L 2328 2669 
Q 3034 2534 3370 2195 
Q 3706 1856 3706 1288 
Q 3706 609 3251 259 
Q 2797 -91 1919 -91 
Q 1588 -91 1214 -16 
Q 841 59 441 206 
L 441 856 
Q 825 641 1194 531 
Q 1563 422 1919 422 
Q 2459 422 2753 634 
Q 3047 847 3047 1241 
Q 3047 1584 2836 1778 
Q 2625 1972 2144 2069 
L 1759 2144 
Q 1053 2284 737 2584 
Q 422 2884 422 3419 
Q 422 4038 858 4394 
Q 1294 4750 2059 4750 
Q 2388 4750 2728 4690 
Q 3069 4631 3425 4513 
z
" transform="scale(0.015625)"/>
       <path id="DejaVuSans-29" d="M 513 4856 
L 1013 4856 
Q 1481 4119 1714 3412 
Q 1947 2706 1947 2009 
Q 1947 1309 1714 600 
Q 1481 -109 1013 -844 
L 513 -844 
Q 928 -128 1133 580 
Q 1338 1288 1338 2009 
Q 1338 2731 1133 3434 
Q 928 4138 513 4856 
z
" transform="scale(0.015625)"/>
      </defs>
      <use xlink:href="#DejaVuSans-50"/>
      <use xlink:href="#DejaVuSans-72" x="58.552734"/>
      <use xlink:href="#DejaVuSans-69" x="99.666016"/>
      <use xlink:href="#DejaVuSans-63" x="127.449219"/>
      <use xlink:href="#DejaVuSans-65" x="182.429688"/>
      <use xlink:href="#DejaVuSans-20" x="243.953125"/>
      <use xlink:href="#DejaVuSans-28" x="275.740234"/>
      <use xlink:href="#DejaVuSans-55" x="314.753906"/>
      <use xlink:href="#DejaVuSans-53" x="387.947266"/>
      <use xlink:href="#DejaVuSans-44" x="451.423828"/>
      <use xlink:href="#DejaVuSans-29" x="528.425781"/>
     </g>
    </g>
   </g>
   <g id="line2d_16">
    <path d="M 77.104128 338.165378 
L 77.331503 335.064677 
L 77.558877 335.418265 
L 77.786252 333.160737 
L 78.013626 333.06554 
L 78.241001 332.086371 
L 79.150499 333.922313 
L 79.377874 332.317564 
M 87.563359 327.680111 
L 88.018109 324.688206 
L 88.245483 324.56581 
L 88.472858 326.034563 
L 88.700232 324.511412 
L 88.927607 325.218589 
M 97.795216 326.551347 
L 98.022591 325.653775 
L 98.249965 325.939366 
L 98.47734 326.986533 
M 104.38908 326.782539 
L 104.616454 326.238557 
M 122.579047 330.019237 
L 122.806422 329.828843 
L 123.033797 330.304828 
L 123.261171 328.428087 
M 123.71592 325.096193 
L 123.943295 323.736236 
L 124.17067 324.157823 
L 124.398044 322.253883 
L 124.625419 321.913894 
L 124.852793 322.213085 
L 125.080168 324.076225 
L 125.307543 324.429814 
L 125.762292 324.293818 
L 125.989666 323.28745 
L 126.217041 323.61384 
L 126.899165 320.404342 
L 127.126539 316.99085 
M 132.58353 310.803047 
L 132.810904 310.789447 
L 133.038279 309.592685 
L 133.265654 311.95901 
L 133.493028 312.734185 
M 150.318748 305.03683 
L 150.546123 304.520046 
L 150.773498 307.661546 
L 151.000872 307.117564 
L 151.228247 301.827332 
L 151.455621 304.180057 
L 151.682996 302.656905 
L 151.910371 302.874498 
L 152.36512 298.794628 
L 152.592494 297.285076 
L 152.819869 297.257877 
M 153.274618 295.544331 
L 153.501993 294.605961 
M 162.824351 293.776387 
L 163.051726 295.054747 
L 163.2791 291.80445 
L 163.506475 291.614056 
L 163.73385 289.247731 
L 163.961224 291.042874 
L 164.415973 288.66295 
L 164.643348 288.486155 
L 164.870723 287.221395 
L 165.325472 288.472556 
L 165.780221 286.74541 
L 166.23497 283.875902 
L 166.689719 282.937531 
L 166.917094 280.979194 
L 167.144469 281.115189 
L 167.599218 279.292847 
L 167.826592 280.340014 
L 168.053967 280.544007 
L 168.281342 279.945626 
M 202.84228 292.593225 
L 203.069655 293.137208 
L 203.29703 291.219668 
M 237.857968 305.825605 
L 238.085343 304.547245 
L 238.540092 308.123932 
L 238.767467 304.07126 
L 238.994841 303.404882 
L 239.222216 301.092955 
L 239.449591 300.276981 
L 239.676965 300.018589 
L 239.90434 298.74023 
L 240.131714 300.440176 
L 240.359089 300.045788 
L 240.586464 298.305044 
L 240.813838 298.835427 
L 241.268587 292.008443 
L 241.495962 292.294034 
M 246.725578 286.215027 
L 246.952952 285.535049 
L 247.180327 286.74541 
L 247.407702 286.405421 
M 259.68593 288.241363 
L 259.913304 289.886911 
L 260.140679 287.466188 
M 264.233422 282.216754 
L 264.460796 281.944763 
M 264.915546 281.835966 
L 265.14292 282.03996 
L 265.370295 282.502345 
L 265.597669 283.345518 
L 265.825044 282.910332 
L 266.052419 283.60391 
L 266.279793 280.163219 
M 278.330647 281.740769 
L 278.558021 282.951131 
L 278.785396 282.638341 
L 279.012771 283.195923 
L 279.46752 281.795168 
L 279.694894 282.407148 
L 279.922269 281.999161 
L 280.377018 283.508713 
L 280.604393 282.896733 
L 280.831767 283.835103 
L 281.059142 278.449674 
L 281.286517 277.252912 
L 281.513891 272.506663 
M 282.650764 264.618913 
L 282.878139 262.837369 
L 283.105513 263.707742 
L 283.332888 262.402183 
L 283.560263 262.470181 
L 283.787637 263.218157 
L 284.015012 263.12296 
L 284.242386 264.768508 
L 284.469761 263.802939 
L 284.697136 264.129328 
L 284.92451 260.484644 
L 285.151885 261.477413 
M 292.655246 262.266188 
L 292.882621 259.66867 
M 294.019494 255.017618 
L 294.474243 256.567968 
L 294.701618 255.289609 
L 295.156367 256.663165 
L 295.383742 256.744763 
L 295.611116 255.153613 
L 295.838491 255.194412 
L 296.29324 251.196139 
L 296.747989 250.121773 
L 296.975364 248.993009 
L 297.202738 248.517024 
L 297.430113 247.578654 
M 310.845214 258.934293 
L 311.072589 258.444709 
L 311.527338 253.67126 
L 311.754713 253.195276 
L 311.982087 253.943252 
L 312.436836 252.909685 
L 312.664211 253.69846 
L 312.891586 253.467267 
M 319.0307 246.708282 
L 319.258074 248.081838 
L 319.485449 247.157067 
L 319.940198 247.769048 
L 320.167573 246.830678 
L 320.394947 246.626684 
L 320.622322 245.416323 
L 320.849697 245.239528 
M 328.580433 241.622043 
L 328.807807 239.568508 
L 329.035182 236.34541 
L 329.262557 235.311843 
L 329.489931 234.917456 
L 329.717306 235.393441 
L 330.626804 228.253667 
L 330.854179 229.151239 
L 331.081553 230.919183 
L 331.308928 230.021611 
L 331.536303 230.919183 
L 331.763677 229.001644 
L 331.991052 229.083241 
L 332.218426 228.933646 
M 338.81229 227.342496 
L 339.039664 228.444061 
L 339.267039 227.464892 
L 339.721788 230.987181 
L 339.949163 230.660791 
L 340.176537 232.007148 
L 340.403912 231.231973 
L 340.631287 229.12404 
L 340.858661 229.967213 
L 341.086036 230.239204 
L 341.31341 228.702453 
L 341.76816 220.053128 
M 344.951404 209.091876 
L 345.178778 209.25507 
L 345.406153 207.759118 
L 345.633528 209.078276 
L 345.860902 209.554261 
L 346.315651 206.847947 
L 346.770401 210.030246 
L 346.997775 206.535157 
L 347.907274 202.142496 
L 348.134648 198.620208 
L 348.362023 197.151455 
M 374.510102 226.771314 
L 374.737476 223.806609 
L 374.964851 224.40499 
L 375.192225 222.80024 
L 375.4196 225.261762 
L 375.646975 223.249026 
L 375.874349 223.167429 
M 377.465971 219.291552 
L 377.693346 205.651185 
L 377.920721 209.663058 
L 378.148095 210.628627 
L 378.37547 209.173473 
M 379.284968 209.037477 
L 379.512343 207.487127 
L 379.739717 209.146274 
L 379.967092 209.173473 
L 380.194467 208.887882 
M 382.240838 200.12976 
L 382.468213 195.968292 
L 382.922962 194.744331 
L 383.150336 194.703532 
L 383.377711 196.281082 
L 383.605085 196.403478 
L 383.83246 195.39711 
L 384.059835 191.95642 
L 384.287209 191.602831 
L 384.514584 190.922852 
L 384.969333 194.390742 
L 385.196708 192.582 
L 385.424082 189.576495 
M 393.836942 208.303101 
L 394.064317 206.195168 
L 394.291692 201.693711 
M 404.068799 217.591606 
L 404.296174 212.777359 
M 405.433047 211.295006 
L 405.660421 211.988584 
L 405.887796 210.411034 
M 416.574402 207.011142 
L 416.801777 205.406393 
L 417.029151 207.323932 
L 417.256526 205.351994 
L 417.483901 205.039204 
M 417.93865 200.972933 
L 418.166024 201.258524 
L 418.393399 200.673743 
L 418.620774 199.000996 
L 418.848148 199.109793 
L 419.302897 200.102561 
L 419.530272 197.178654 
L 419.757647 191.888422 
M 428.85263 197.233052 
L 429.080005 200.034563 
L 429.30738 199.463381 
L 429.534754 199.232189 
L 429.762129 201.516916 
L 429.989503 198.076225 
L 430.216878 197.069857 
M 430.671627 197.804234 
L 430.899002 196.933862 
L 431.126376 195.274714 
M 441.130859 208.493495 
L 441.358233 205.637585 
M 447.724722 200.687342 
L 447.952097 197.151455 
L 448.179471 196.920262 
L 448.406846 195.261115 
L 448.63422 195.492307 
L 448.861595 193.493171 
L 449.08897 193.615567 
L 449.316344 194.526738 
L 449.543719 194.336344 
L 449.771093 190.623662 
L 449.998468 191.806824 
L 450.225843 191.344439 
L 450.453217 192.296409 
L 450.907966 188.760521 
L 451.135341 188.556528 
M 455.000709 183.633484 
L 455.455458 180.328789 
L 455.682833 180.546382 
M 456.592331 181.661546 
L 456.819706 181.22636 
L 457.047081 179.594412 
M 481.830912 246.273095 
L 482.058286 245.783511 
L 482.285661 248.068238 
L 482.513035 239.622906 
L 482.74041 243.661978 
M 488.424775 236.807796 
L 488.65215 235.012653 
L 488.879524 239.745303 
L 489.334273 235.475038 
L 489.561648 236.182216 
L 489.789023 235.039852 
L 490.016397 229.74962 
L 490.243772 231.884752 
L 490.471146 231.816754 
L 490.698521 235.080651 
L 490.925896 229.504828 
L 491.15327 227.832081 
L 491.380645 220.243522 
L 491.835394 218.475578 
L 492.290143 219.196355 
L 492.517518 216.762032 
L 492.744892 216.993225 
L 493.199642 213.702129 
L 493.427016 216.938827 
L 493.881765 211.131811 
L 494.10914 214.00132 
M 496.837635 197.029059 
L 497.06501 194.921126 
L 497.519759 197.92663 
L 497.747133 196.145087 
M 507.97899 194.703532 
L 508.206365 196.893063 
L 508.43374 205.297596 
L 508.661114 204.196031 
L 508.888489 203.665648 
L 509.343238 197.233052 
L 509.570613 197.858632 
L 510.025362 194.213948 
M 516.619225 174.385777 
L 516.8466 174.30418 
L 517.073974 176.493711 
L 517.301349 173.284212 
M 522.076215 163.315729 
L 522.30359 169.041147 
L 522.530965 164.158902 
L 522.758339 168.347569 
L 522.985714 166.375632 
L 523.213088 162.404558 
L 523.440463 161.806177 
M 529.806952 136.211789 
L 530.261701 134.906231 
L 530.489076 136.905367 
L 530.71645 137.76214 
L 530.943825 140.550052 
L 531.398574 137.231757 
L 531.625949 129.044817 
L 531.853323 126.256905 
M 532.308072 130.812761 
L 532.535447 127.100079 
M 534.809193 108.183079 
L 535.263942 113.922097 
M 550.043291 100.58092 
L 550.270666 99.506555 
M 561.639395 106.102345 
L 561.86677 100.104936 
M 572.098627 92.39398 
L 572.326002 91.306015 
M 573.690249 78.87601 
L 573.917624 84.383835 
L 574.144998 79.447191 
L 574.372373 77.856042 
L 574.599747 77.747245 
L 575.054497 72.579409 
L 575.281871 70.98826 
M 578.919865 63.154909 
L 579.147239 65.181244 
L 579.147239 65.181244 
" clip-path="url(#pe4b70fe42d)" style="fill: none; stroke: #00ff7f; stroke-linecap: square"/>
   </g>
   <g id="line2d_17">
    <path d="M 94.611972 319.397974 
L 94.839347 318.25561 
L 95.066721 319.52037 
L 95.294096 318.949188 
L 95.52147 318.745195 
M 101.205835 319.53397 
L 101.43321 318.89479 
M 117.576806 317.00445 
L 117.804181 318.446004 
L 118.031555 318.350807 
L 118.25893 320.105151 
L 118.486305 320.227548 
L 118.713679 321.383511 
M 119.623178 321.900294 
L 119.850552 320.689933 
M 188.517681 279.714434 
L 188.745055 281.971962 
M 195.793668 279.986425 
L 196.021042 280.693603 
L 196.475792 278.952858 
L 196.703166 279.768832 
M 197.612665 281.387181 
L 197.840039 281.40078 
M 208.071896 284.120694 
L 208.299271 284.678276 
L 208.526645 284.202291 
L 208.75402 283.087127 
L 208.981395 283.29112 
M 230.809356 297.176279 
L 231.03673 295.802723 
L 231.264105 296.156312 
M 231.718854 295.816323 
L 231.946229 297.013085 
M 287.653005 253.37207 
L 287.88038 251.998514 
L 288.107754 252.556096 
L 288.335129 252.447299 
L 288.789878 253.916053 
M 298.566986 237.147785 
L 298.794361 239.038125 
L 299.703859 240.289285 
L 299.931234 239.745303 
L 300.158608 240.275686 
L 300.385983 239.718103 
L 300.613357 240.615675 
L 300.840732 240.697272 
L 301.068107 241.499647 
L 301.522856 244.23316 
M 302.20498 247.197866 
L 302.432354 248.870613 
M 307.207221 250.407364 
L 307.434595 250.271368 
L 307.66197 251.740122 
M 335.629045 221.154693 
L 336.083795 220.148325 
L 336.311169 221.603478 
L 336.765918 221.766673 
L 337.220668 224.010602 
M 337.675417 221.739474 
L 337.902791 223.561816 
M 349.498896 188.230138 
L 349.72627 184.531055 
M 371.099483 214.422906 
L 371.326857 212.274175 
L 371.554232 211.675794 
L 371.781606 212.600564 
L 372.008981 212.682162 
L 372.236356 213.661331 
M 390.653698 176.248918 
L 390.881073 173.936992 
M 398.611809 189.209307 
L 398.839184 182.450321 
L 399.066558 182.17833 
L 399.293933 181.443953 
L 399.521307 177.948864 
M 422.031392 183.701482 
L 422.258767 183.524687 
L 422.486142 183.524687 
L 422.713516 184.585454 
L 422.940891 180.954369 
L 423.39564 193.425173 
L 423.623015 193.615567 
L 423.850389 194.608335 
L 424.077764 193.982755 
M 431.8085 188.338934 
L 432.035875 186.366997 
L 432.263249 186.475794 
L 432.490624 185.63262 
L 432.717999 185.510224 
M 433.854872 187.074175 
L 434.309621 188.733322 
M 443.631979 190.786857 
L 443.859354 187.740553 
M 466.369439 167.286803 
L 466.596814 165.981244 
L 466.824188 169.013948 
M 477.510794 222.623446 
L 477.738169 218.217186 
M 478.420293 224.500187 
L 478.647667 225.792146 
L 479.102416 223.303425 
M 485.468905 205.351994 
L 485.69628 204.128033 
L 485.923654 211.594196 
M 499.56613 176.765702 
L 499.793505 181.56635 
M 505.250495 185.64622 
L 505.705244 183.932674 
M 512.753857 160.11983 
L 512.981232 161.194196 
M 541.403056 84.805421 
L 541.630431 84.615027 
L 541.857805 84.071045 
L 542.08518 83.826252 
L 542.312555 81.174337 
L 542.539929 80.42636 
M 542.994678 84.955017 
L 543.222053 85.78459 
M 553.908659 84.601428 
L 554.136034 85.077413 
L 554.363408 88.803694 
L 554.590783 90.476441 
L 554.818157 90.286047 
M 555.272907 89.26608 
L 555.500281 87.525335 
L 555.727656 90.286047 
L 555.95503 88.477305 
L 556.182405 89.755664 
L 556.40978 89.606069 
L 556.637154 90.299647 
M 565.732138 84.234239 
" clip-path="url(#pe4b70fe42d)" style="fill: none; stroke: #ff4500; stroke-linecap: square"/>
   </g>
   <g id="line2d_18">
    <path d="M 72.329261 339.838125 
L 72.556636 339.06295 
L 72.784011 339.579733 
L 73.011385 338.75016 
L 73.23876 338.981352 
L 73.466134 337.050214 
L 73.693509 337.947785 
L 73.920884 336.53343 
L 74.148258 337.526198 
L 74.375633 335.25507 
L 74.603007 336.479032 
L 74.830382 335.26867 
L 75.057757 336.601428 
L 75.285131 335.091876 
L 75.512506 335.28227 
L 75.73988 333.636722 
L 76.19463 332.671153 
L 76.422004 336.098244 
L 76.649379 332.507958 
L 76.876753 335.214272 
M 79.605248 330.495222 
L 79.832623 328.64568 
L 80.059998 328.781676 
L 80.287372 327.367321 
L 80.514747 327.748109 
L 80.742121 326.170559 
L 80.969496 326.279355 
L 81.196871 325.014596 
L 81.424245 324.8786 
L 81.65162 326.551347 
L 81.878994 324.538611 
L 82.106369 324.56581 
L 82.333744 324.973797 
L 82.788493 326.891336 
L 83.015867 327.516916 
L 83.697991 322.063489 
L 83.925366 323.110656 
L 84.15274 323.110656 
L 84.380115 323.994628 
L 84.60749 326.592146 
L 85.062239 321.42431 
L 85.289613 321.641903 
L 85.516988 323.872232 
L 85.744363 324.633808 
L 85.971737 321.859496 
L 86.199112 322.98826 
L 86.426486 321.954693 
L 86.653861 321.614704 
L 86.881236 323.423446 
L 87.10861 326.728141 
L 87.335985 325.408983 
M 89.154982 325.068994 
L 89.382356 321.900294 
L 89.609731 321.832297 
L 89.837105 320.757931 
L 90.06448 322.009091 
L 90.291855 319.153182 
L 90.746604 318.840392 
L 90.973978 318.853991 
L 91.201353 318.26921 
L 91.428728 317.00445 
L 91.656102 316.542065 
L 91.883477 316.487666 
L 92.110851 317.480435 
L 92.338226 319.860359 
L 92.565601 319.030786 
L 92.792975 318.663597 
L 93.247724 320.77153 
L 93.475099 320.662734 
L 93.702474 318.745195 
L 94.157223 317.453236 
L 94.384597 317.888422 
M 95.748845 319.710764 
L 95.97622 322.117888 
L 96.203594 321.519507 
L 96.430969 322.797866 
L 96.658343 321.832297 
L 96.885718 323.233052 
L 97.113093 322.185885 
L 97.567842 323.409847 
M 98.704715 325.81697 
L 98.932089 325.81697 
L 99.159464 325.558578 
L 99.386838 326.116161 
L 100.068962 322.825065 
L 100.296337 324.049026 
L 100.523711 323.831433 
L 100.751086 322.063489 
L 100.978461 321.315513 
M 101.660584 317.902021 
L 101.887959 320.975524 
L 102.115334 321.777898 
L 102.570083 320.77153 
L 103.024832 323.872232 
L 103.252207 323.015459 
L 103.479581 322.648271 
L 103.706956 324.062626 
L 103.93433 323.545842 
L 104.161705 324.756204 
M 104.843829 322.063489 
L 105.071203 320.744331 
L 105.298578 320.485939 
L 105.525953 322.34908 
L 105.753327 319.547569 
L 105.980702 319.234779 
L 106.208076 319.166781 
L 106.435451 319.275578 
L 106.662826 318.459604 
L 106.8902 319.928357 
L 107.117575 319.343576 
L 107.344949 319.085184 
L 107.572324 319.20758 
L 107.799699 318.5684 
L 108.254448 321.7235 
L 108.481822 321.478708 
L 108.936572 322.716269 
L 109.163946 321.968292 
L 109.391321 323.437046 
L 109.618695 320.649134 
L 109.84607 320.961924 
L 110.073445 322.920262 
L 110.755568 320.077952 
L 110.982943 320.621935 
L 111.210318 320.703532 
L 111.437692 321.981892 
L 111.665067 319.914757 
L 111.892441 319.180381 
L 112.119816 320.989123 
L 112.347191 319.697164 
L 112.80194 319.765162 
L 113.029314 321.39711 
L 113.256689 322.131487 
L 113.484064 321.437909 
L 113.711438 321.900294 
L 113.938813 319.588368 
L 114.166187 318.935589 
L 114.620937 322.512275 
L 114.848311 322.689069 
L 115.075686 323.124256 
L 115.30306 323.260251 
L 115.530435 323.709037 
L 115.75781 320.295545 
L 115.985184 319.996355 
L 116.212559 321.029922 
L 116.439933 319.071584 
L 116.894682 317.779625 
L 117.349432 317.711627 
M 118.941054 321.41071 
L 119.168428 321.886695 
L 119.395803 323.192253 
M 120.077927 321.519507 
L 120.305301 321.750699 
L 120.760051 321.492307 
L 121.2148 326.184158 
L 121.442174 326.605745 
L 121.669549 325.912167 
L 121.896924 326.904936 
L 122.124298 324.56581 
L 122.351673 326.469749 
M 127.353914 316.433268 
L 127.808663 311.415027 
L 128.036038 309.470289 
L 128.490787 308.015135 
L 128.945536 311.63262 
L 129.172911 310.476657 
L 129.400285 310.585454 
L 129.62766 311.483025 
L 129.855035 309.007904 
L 130.082409 307.974337 
L 130.309784 309.171099 
L 130.537158 308.967105 
L 130.764533 310.952642 
L 130.991908 310.327062 
L 131.219282 310.245464 
L 131.446657 308.287127 
L 131.674031 308.409523 
L 131.901406 308.967105 
L 132.128781 309.184698 
L 132.356155 309.74228 
M 133.720403 311.931811 
L 133.947777 309.919075 
L 134.402527 305.281622 
L 134.629901 306.206393 
L 134.857276 305.322421 
L 135.08465 305.254423 
L 135.312025 305.594412 
L 135.766774 304.574444 
L 135.994149 303.500079 
L 136.448898 302.724903 
L 136.676272 304.044061 
L 137.131022 308.695114 
L 137.358396 304.914434 
L 137.585771 305.9752 
L 137.813145 305.064029 
L 138.04052 305.132027 
L 138.267895 304.316053 
L 138.495269 304.805637 
L 138.722644 306.396787 
L 139.177393 305.34962 
L 139.404768 306.804774 
L 139.859517 305.553613 
L 140.086891 305.798406 
L 140.314266 304.819237 
L 140.541641 304.900834 
L 140.769015 304.016862 
L 140.99639 303.704072 
L 141.223764 304.329652 
L 141.451139 305.621611 
L 141.678514 305.213624 
L 141.905888 303.894466 
L 142.133263 303.282485 
L 142.360637 304.180057 
L 142.588012 303.826468 
L 142.815387 303.867267 
L 143.042761 305.145626 
M 143.49751 306.682378 
L 143.724885 306.845572 
L 143.95226 305.295222 
L 144.179634 305.186425 
L 144.407009 305.880003 
L 144.634383 305.9752 
L 144.861758 305.825605 
L 145.089133 305.34962 
L 145.316507 305.390419 
L 145.543882 305.091228 
L 145.771256 306.124795 
L 146.226006 304.533646 
L 146.45338 302.398514 
L 146.908129 303.867267 
L 147.135504 303.14649 
L 147.362879 303.554477 
L 147.590253 303.309685 
L 147.817628 302.8337 
L 148.272377 304.016862 
L 148.499752 306.179194 
L 148.727126 303.78567 
L 148.954501 303.377682 
L 149.181875 303.595276 
L 149.40925 303.989663 
L 149.636625 303.690473 
M 153.729367 294.782755 
L 153.956742 294.769156 
L 154.184117 292.185238 
L 154.411491 293.626792 
L 154.638866 292.974013 
L 154.86624 292.946814 
L 155.093615 292.579625 
M 155.548364 291.586857 
L 155.775739 290.621287 
L 156.003113 290.934078 
L 156.685237 290.186101 
L 156.912612 292.076441 
L 157.139986 290.947677 
L 157.367361 290.675686 
L 157.594735 291.80445 
L 158.504234 286.106231 
L 158.731608 287.0854 
L 158.958983 288.853344 
L 159.186358 289.506123 
L 159.413732 287.914973 
L 159.641107 291.80445 
L 159.868481 289.642119 
L 160.323231 290.376495 
L 160.550605 292.44363 
L 160.77798 291.056474 
L 161.005354 288.526954 
L 161.232729 288.989339 
L 161.460104 292.307634 
L 161.687478 287.928573 
L 161.914853 291.80445 
L 162.369602 292.770019 
L 162.596977 291.396463 
M 168.963465 278.735265 
L 169.872964 276.028951 
L 170.100338 276.260143 
L 170.327713 274.424202 
L 170.555088 274.614596 
L 170.782462 274.179409 
L 171.009837 273.322637 
L 171.237211 271.609091 
L 171.691961 275.498568 
L 171.919335 274.070613 
L 172.14671 279.061654 
L 172.374084 279.52404 
L 172.601459 280.666403 
L 173.056208 270.616323 
L 173.283583 272.125875 
L 173.510957 271.663489 
L 174.193081 272.411466 
L 174.420456 271.459496 
L 174.64783 271.405097 
L 174.875205 274.043414 
L 175.102579 275.376171 
L 175.329954 278.327278 
L 175.557329 278.544871 
L 176.012078 272.384266 
L 176.466827 276.586533 
L 176.694202 276.110548 
L 176.921576 277.212113 
L 177.148951 277.538503 
L 177.376325 275.321773 
L 177.6037 276.110548 
L 177.831075 278.082485 
L 178.058449 274.043414 
L 178.285824 275.444169 
L 178.513198 274.655394 
L 178.967948 281.346382 
L 179.195322 279.292847 
L 179.422697 282.529544 
L 179.877446 276.572933 
L 180.104821 277.606501 
L 180.332195 274.696193 
L 180.55957 274.002615 
L 180.786944 275.43057 
L 181.014319 274.356204 
L 181.241694 274.682593 
L 181.469068 274.532998 
L 181.696443 276.504936 
L 181.923817 275.376171 
L 182.151192 276.05615 
L 182.378567 277.674498 
L 182.605941 275.988152 
L 182.833316 277.824094 
L 183.06069 275.675362 
L 183.288065 275.906555 
L 183.51544 276.504936 
L 183.742814 277.769695 
L 183.970189 278.218481 
L 184.424938 281.155988 
L 184.652313 279.605637 
L 184.879687 280.666403 
L 185.107062 279.51044 
L 185.334436 283.508713 
L 185.561811 283.168724 
L 185.789186 280.13602 
L 186.01656 282.447947 
L 186.243935 279.714434 
L 186.471309 281.387181 
L 186.698684 279.687235 
L 186.926059 281.210386 
L 187.153433 280.326414 
L 187.380808 280.285616 
L 187.835557 283.005529 
L 188.062932 283.726306 
L 188.290306 282.556743 
M 188.97243 283.155124 
L 189.427179 282.733538 
L 189.654554 283.685508 
L 189.881928 283.386317 
L 190.109303 282.883133 
L 190.336678 283.087127 
L 190.564052 283.141525 
L 190.791427 284.107094 
L 191.018801 284.161493 
L 191.246176 284.991066 
L 191.473551 286.895006 
L 191.700925 285.004666 
L 191.9283 286.296625 
L 192.383049 284.54228 
L 192.610424 285.004666 
L 192.837798 286.364623 
L 193.065173 284.419884 
L 193.292547 284.56948 
L 193.519922 286.201428 
L 193.974671 279.483241 
L 194.202046 281.645572 
L 194.42942 282.706339 
L 194.656795 280.625605 
M 195.111544 279.456042 
L 195.338919 281.332782 
L 195.566293 282.053559 
M 196.930541 280.680003 
L 197.38529 282.910332 
M 198.067414 283.767105 
L 198.294788 283.29112 
L 198.522163 283.726306 
L 198.749538 283.508713 
L 198.976912 285.983835 
L 199.204287 286.813408 
L 199.431661 288.499755 
L 199.659036 288.35016 
L 199.886411 286.677413 
L 200.113785 285.997434 
L 200.568534 288.66295 
L 201.023284 287.887774 
L 201.250658 284.215891 
L 201.478033 286.541417 
L 201.705407 285.766242 
L 201.932782 286.038233 
L 202.387531 288.594952 
L 202.614906 288.146166 
M 203.524404 291.396463 
L 203.751779 292.076441 
L 203.979153 289.968508 
M 204.433903 290.2269 
L 204.888652 285.956636 
L 205.116026 286.323824 
L 205.570776 282.515945 
L 205.79815 282.570343 
L 206.025525 281.71357 
L 206.252899 282.951131 
L 206.480274 283.059927 
L 206.935023 286.147029 
L 207.162398 286.867807 
L 207.389772 283.467915 
L 207.617147 283.875902 
L 207.844522 283.971099 
M 209.208769 283.019129 
L 209.436144 283.195923 
L 209.663518 284.039096 
L 209.890893 285.671045 
L 210.118268 285.19506 
L 210.345642 284.351886 
L 210.573017 284.691876 
L 211.027766 287.207796 
L 211.255141 290.036506 
L 211.937264 304.520046 
L 212.392013 292.974013 
L 212.619388 293.640392 
L 212.846763 295.952318 
L 213.074137 300.888961 
L 213.301512 298.42744 
L 213.528886 298.522637 
L 213.756261 301.936128 
L 213.983636 297.502669 
L 214.21101 300.644169 
L 214.438385 300.548972 
L 214.665759 299.583403 
L 214.893134 300.222583 
L 215.120509 298.373041 
L 215.347883 297.937855 
L 215.575258 299.447407 
L 215.802632 302.670505 
L 216.030007 300.113786 
L 216.257382 302.398514 
L 216.484756 302.588908 
L 216.712131 303.037693 
L 216.939505 301.936128 
L 217.16688 303.323284 
L 217.394255 303.064892 
L 217.621629 300.902561 
L 217.849004 301.609739 
M 218.303753 298.209847 
L 218.531128 299.828195 
L 218.985877 296.346706 
L 219.213251 297.325875 
L 219.440626 296.822691 
L 219.895375 299.841795 
L 220.12275 296.278708 
L 220.350124 296.265108 
L 220.577499 296.5235 
L 220.804874 295.789123 
L 221.032248 297.067483 
L 221.259623 291.532459 
L 221.486997 290.86608 
L 221.714372 291.926846 
L 221.941747 293.789987 
L 222.169121 290.349296 
L 222.396496 290.716484 
L 222.62387 293.259604 
L 222.851245 290.022906 
L 223.305994 291.342065 
L 223.533369 292.511627 
L 223.760743 292.838017 
L 223.988118 296.006716 
L 224.215493 295.013948 
L 224.442867 294.701158 
L 224.670242 297.665864 
L 224.897616 298.781028 
L 225.124991 296.958686 
L 225.352366 297.244277 
L 225.57974 292.987612 
L 225.807115 292.43003 
L 226.034489 292.43003 
L 226.489239 293.912383 
L 226.943988 295.149944 
L 227.171362 295.88432 
L 227.398737 292.702021 
L 227.626112 294.279571 
L 227.853486 297.829059 
L 228.080861 292.634024 
L 228.308235 293.830786 
L 228.762985 299.121018 
L 228.990359 299.121018 
L 229.217734 301.024957 
L 229.445108 298.699431 
L 229.672483 294.809954 
L 229.899858 293.449998 
L 230.127232 296.047515 
L 230.354607 302.085723 
L 230.581981 299.828195 
M 232.173603 298.672232 
L 232.400978 300.426576 
L 232.628353 299.746598 
L 232.855727 299.637801 
L 233.310476 303.717672 
L 233.537851 303.676873 
L 233.765226 303.078492 
L 233.9926 306.546382 
L 234.219975 304.07126 
L 234.447349 306.695977 
L 234.674724 304.492847 
L 234.902099 308.477521 
L 235.129473 307.403155 
L 235.356848 305.472016 
L 235.584222 309.42949 
L 235.811597 307.035966 
L 236.038972 307.987936 
L 236.266346 306.872772 
L 236.493721 301.759334 
L 236.721095 303.268886 
L 236.94847 307.294358 
L 237.175845 306.559981 
L 237.403219 304.928033 
L 237.630594 306.124795 
M 241.723337 292.144439 
L 242.178086 289.58772 
L 242.40546 290.838881 
L 242.632835 289.030138 
L 242.86021 289.723716 
L 243.087584 286.963004 
L 243.314959 288.227763 
L 243.542333 287.302993 
L 243.769708 288.078168 
L 243.997083 284.583079 
L 244.224457 284.909469 
L 244.679206 284.88227 
L 245.133956 287.69738 
L 245.588705 285.263058 
L 245.816079 284.501482 
L 246.043454 285.290257 
L 246.270829 282.692739 
L 246.498203 283.467915 
M 247.635076 286.500618 
L 248.089825 282.35275 
L 248.544575 283.155124 
L 248.771949 281.890365 
L 248.999324 279.755232 
L 249.226698 279.564838 
L 249.454073 281.237585 
L 249.681448 279.537639 
L 249.908822 279.442442 
L 250.136197 278.300079 
M 250.590946 279.592038 
L 250.81832 280.394412 
L 251.045695 278.476873 
L 251.27307 281.278384 
L 251.727819 282.570343 
L 251.955193 281.563975 
L 252.182568 283.889501 
L 252.409943 281.346382 
L 252.637317 283.943899 
L 252.864692 283.345518 
L 253.092066 285.943036 
L 253.319441 285.331055 
L 253.546816 287.38459 
L 253.77419 285.847839 
L 254.001565 286.77261 
L 254.228939 285.358255 
L 254.456314 285.834239 
L 254.683689 282.801536 
L 254.911063 282.298352 
L 255.138438 283.699107 
L 255.365812 283.29112 
L 255.593187 287.112599 
L 255.820562 285.140661 
L 256.047936 284.977467 
L 256.275311 286.296625 
L 256.502685 285.371854 
L 256.73006 285.929436 
L 256.957435 284.406285 
L 257.184809 284.814272 
L 257.412184 285.453451 
L 257.639558 286.568616 
L 257.866933 286.079032 
L 258.094308 287.234995 
L 258.321682 285.140661 
L 258.549057 286.854207 
L 258.776431 285.575848 
L 259.003806 283.046328 
L 259.231181 282.488746 
L 259.458555 279.714434 
M 260.368054 284.963867 
L 260.595428 281.332782 
L 260.822803 282.461546 
L 261.050177 284.814272 
L 261.277552 284.433484 
L 261.504927 285.249458 
L 261.732301 282.883133 
L 261.959676 282.502345 
L 262.18705 281.495977 
M 263.096549 278.912059 
L 263.323923 278.436074 
L 263.551298 279.456042 
L 263.778673 281.931163 
L 264.006047 281.591174 
M 266.507168 280.285616 
L 266.734542 278.028087 
M 267.189292 277.32091 
L 267.644041 277.266511 
M 268.09879 275.498568 
L 268.326165 275.865756 
L 268.553539 275.947353 
L 268.780914 276.35534 
L 269.008288 275.920154 
L 269.235663 276.409739 
L 269.463037 276.096949 
L 269.690412 277.089717 
L 270.145161 273.934617 
L 270.372536 273.581028 
L 270.59991 273.771422 
L 270.827285 273.268238 
L 271.05466 273.662626 
L 271.282034 274.818589 
L 271.509409 274.546598 
L 271.736783 278.844061 
L 271.964158 275.648163 
L 272.191533 279.374444 
L 272.418907 279.986425 
L 272.646282 278.789663 
L 272.873656 281.033592 
L 273.101031 280.720802 
L 273.328406 281.155988 
L 273.55578 279.061654 
L 273.783155 278.966457 
L 274.237904 282.162356 
L 274.465279 280.584806 
L 274.692653 280.666403 
L 274.920028 282.964731 
L 275.147402 281.767968 
L 275.602152 283.535912 
L 275.829526 282.203155 
L 276.056901 282.583943 
L 276.51165 280.7752 
L 276.739025 282.475146 
L 276.966399 281.169587 
L 277.193774 283.467915 
L 277.421148 282.162356 
L 277.648523 282.67914 
L 278.103272 281.237585 
M 281.741266 266.006069 
L 282.196015 263.46295 
L 282.42339 264.102129 
M 285.379259 260.362248 
L 285.606634 258.825497 
L 285.834009 254.269641 
L 286.061383 255.058416 
L 286.288758 254.038449 
L 286.516132 252.324903 
L 286.743507 251.644925 
L 286.970882 253.766457 
L 287.198256 252.855286 
L 287.425631 254.174444 
M 289.017253 255.548001 
L 289.244627 256.499971 
L 289.472002 256.595168 
L 289.699377 255.439204 
L 289.926751 255.099215 
L 290.154126 256.159981 
L 290.3815 256.010386 
L 290.608875 257.900726 
L 290.83625 258.648702 
L 291.063624 257.615135 
L 291.290999 258.7303 
L 291.518373 258.063921 
L 291.745748 261.137423 
L 291.973123 259.98146 
L 292.200497 261.450214 
L 292.427872 260.362248 
M 293.109996 254.868022 
L 293.33737 253.956851 
L 293.564745 254.664029 
L 293.792119 254.120046 
M 297.657488 246.844277 
L 297.884862 246.74908 
L 298.112237 246.191498 
L 298.339611 245.117132 
M 301.75023 247.769048 
L 301.977605 248.00024 
M 303.114478 251.685723 
L 303.341853 250.638557 
L 303.569227 251.563327 
L 303.796602 251.304936 
L 304.023976 251.318535 
L 304.251351 252.719291 
L 304.478726 251.848918 
L 304.7061 252.256905 
L 304.933475 252.012113 
L 305.388224 253.69846 
L 305.615599 256.703964 
L 305.842973 254.732027 
L 306.297722 256.894358 
L 306.525097 253.875254 
L 306.752472 256.010386 
L 306.979846 252.787289 
M 307.889344 253.562464 
L 308.116719 253.249674 
L 308.571468 251.49533 
L 308.798843 252.025713 
L 309.026217 251.740122 
L 309.480967 255.942388 
L 309.708341 255.5888 
L 309.935716 256.20078 
L 310.16309 256.132782 
L 310.390465 255.480003 
L 310.61784 255.738395 
M 313.11896 251.590527 
L 313.346335 252.093711 
L 313.573709 251.78092 
L 313.801084 252.311304 
L 314.255833 251.209739 
L 314.483208 247.048271 
L 314.710582 246.368292 
L 314.937957 245.049134 
L 315.165332 245.076333 
L 315.392706 246.300294 
L 315.620081 246.395491 
L 315.847455 244.940338 
L 316.756954 250.828951 
L 316.984328 250.461762 
L 317.211703 250.652156 
L 317.439078 247.197866 
L 317.666452 248.00024 
L 317.893827 247.905044 
L 318.121201 244.600348 
L 318.348576 244.532351 
L 318.575951 246.776279 
L 318.803325 245.49792 
M 321.077071 245.225929 
L 321.304446 245.18513 
L 321.53182 243.049998 
L 321.98657 242.900402 
L 322.668693 238.494142 
L 323.123443 234.822259 
L 323.350817 233.557499 
L 323.805566 238.303748 
L 324.032941 236.087019 
L 324.48769 239.786101 
L 324.715065 237.134185 
L 324.942439 236.889393 
L 325.169814 235.434239 
L 325.397189 237.31098 
L 325.624563 236.766997 
L 325.851938 235.706231 
L 326.079312 232.836722 
L 326.306687 233.475902 
L 326.534061 235.583835 
L 326.761436 233.992685 
L 326.988811 235.216646 
L 327.216185 235.325443 
L 327.44356 232.972718 
L 327.670934 231.871153 
L 327.898309 232.455934 
L 328.125684 237.555772 
L 328.353058 237.814164 
M 332.445801 226.091336 
L 332.673176 225.737747 
M 333.127925 223.76581 
L 333.355299 223.344223 
L 333.582674 223.249026 
L 333.810049 222.569048 
L 334.037423 223.303425 
L 334.264798 224.880974 
L 334.719547 222.623446 
L 334.946922 223.398621 
L 335.174296 222.773041 
L 335.401671 223.643414 
M 338.130166 224.364191 
L 338.357541 224.880974 
L 338.584915 227.192901 
M 341.995534 215.755664 
L 342.222909 213.647731 
L 342.450283 210.383835 
L 342.677658 211.594196 
L 342.905033 211.675794 
L 343.132407 211.227008 
L 343.359782 211.091012 
L 343.587156 210.737423 
L 343.814531 207.514326 
L 344.041906 209.785454 
L 344.26928 210.791822 
L 344.724029 207.147137 
M 348.589397 192.432405 
L 348.816772 192.25561 
L 349.044147 186.992577 
L 349.271521 188.311735 
M 349.953645 185.088638 
L 350.18102 185.02064 
L 350.408394 185.714218 
L 350.635769 182.871908 
L 351.090518 186.652588 
L 351.317893 186.693387 
L 351.545267 182.790311 
L 351.772642 193.84676 
L 352.000016 210.601428 
L 352.227391 204.563219 
L 352.454766 205.746382 
L 352.68214 217.917995 
L 353.136889 207.759118 
L 353.364264 208.983079 
L 353.819013 200.945734 
L 354.046388 201.09533 
L 354.273762 202.101698 
L 354.501137 204.86241 
L 354.728512 205.256797 
L 354.955886 202.496085 
L 355.183261 191.806824 
L 355.410635 193.112383 
L 355.63801 196.457877 
L 355.865385 204.168832 
L 356.092759 204.427224 
L 356.547508 200.061762 
L 356.774883 200.401752 
L 357.002258 199.055394 
L 357.229632 188.651725 
M 357.684381 193.83316 
L 357.911756 196.743468 
L 358.139131 195.614704 
L 358.366505 196.784266 
L 358.59388 200.823338 
L 358.821254 199.789771 
L 359.048629 199.680974 
L 359.503378 216.50364 
L 359.730753 207.147137 
L 359.958127 211.4854 
L 360.185502 210.778222 
L 360.412877 206.956743 
L 360.640251 213.04935 
L 361.095 206.099971 
L 361.322375 205.093603 
L 361.54975 212.382971 
L 361.777124 212.600564 
L 362.004499 209.241471 
L 362.231873 212.75016 
L 362.459248 208.792685 
L 362.686623 210.329436 
L 363.141372 207.242334 
L 363.368746 206.915945 
L 363.596121 205.732782 
L 363.823496 206.072772 
L 364.05087 207.038341 
L 364.278245 210.601428 
L 364.505619 210.601428 
L 364.960368 210.016646 
L 365.187743 214.776495 
L 365.415118 212.899755 
L 365.869867 217.659604 
L 366.097241 212.178978 
L 366.324616 210.247839 
L 366.551991 211.363004 
L 366.779365 206.42636 
M 367.234114 207.201536 
L 367.461489 207.364731 
L 367.688864 209.839852 
L 367.916238 209.200672 
L 368.143613 209.663058 
L 368.370987 211.607796 
L 368.598362 209.091876 
L 368.825737 208.792685 
L 369.280486 213.280543 
L 369.50786 214.205313 
L 369.735235 220.025929 
L 369.96261 214.273311 
L 370.189984 217.7684 
L 370.417359 216.81643 
L 370.872108 218.801967 
M 372.46373 216.449242 
L 373.600603 221.399485 
L 373.827978 221.331487 
L 374.055352 224.296193 
L 374.282727 224.69058 
M 376.556473 219.97153 
L 376.783848 219.903532 
L 377.238597 217.129221 
M 380.421841 205.923176 
L 380.649216 198.008228 
L 380.87659 194.390742 
L 381.33134 193.873959 
L 381.786089 199.218589 
L 382.013463 198.321018 
M 385.651457 188.733322 
L 386.106206 185.700618 
L 386.333581 185.714218 
L 386.560955 186.407796 
L 386.78833 185.999809 
L 387.015704 183.987073 
L 387.243079 184.095869 
L 387.925203 176.765702 
M 388.379952 181.593549 
L 388.607327 181.702345 
L 388.834701 184.340661 
L 389.062076 183.538287 
L 389.28945 187.060575 
L 389.971574 183.946274 
M 391.108447 188.434131 
L 391.335822 199.19139 
L 391.563196 197.001859 
L 391.790571 199.408983 
L 392.017946 192.88119 
L 392.24532 191.94282 
L 392.472695 194.417942 
L 392.700069 192.88119 
L 393.154819 200.809739 
M 394.519066 199.068994 
L 394.973815 197.31465 
L 395.20119 184.163867 
L 395.883314 175.759334 
L 396.110688 179.553613 
L 396.338063 185.279032 
L 396.565438 181.87914 
L 396.792812 184.449458 
L 397.247561 181.212761 
L 397.474936 181.85194 
L 397.702311 191.684428 
L 397.929685 191.480435 
L 398.15706 196.634671 
L 398.384434 191.793225 
M 399.748682 192.486803 
L 400.65818 203.148864 
L 400.885555 202.876873 
L 401.11293 202.95847 
L 401.567679 209.078276 
L 402.477177 216.993225 
L 402.704552 222.895437 
L 402.931926 209.554261 
L 403.61405 200.564946 
L 403.841425 202.441687 
M 404.523548 210.451833 
L 404.750923 211.267807 
M 406.115171 208.411897 
L 406.342545 207.908713 
L 406.56992 200.156959 
L 406.797294 205.270397 
L 407.024669 204.685616 
L 407.252044 204.86241 
L 407.479418 202.509685 
L 407.706793 204.957607 
L 407.934167 203.461654 
L 408.161542 198.144223 
L 408.388917 198.715405 
L 408.616291 193.751563 
L 409.07104 195.614704 
L 409.298415 198.076225 
L 409.52579 203.896841 
L 409.753164 204.998406 
L 410.207913 197.885831 
L 410.435288 198.361816 
L 410.662663 202.468886 
M 411.117412 198.511412 
L 411.344786 197.872232 
L 411.572161 199.000996 
L 411.799536 203.652048 
L 412.02691 203.108066 
L 412.254285 203.665648 
L 412.481659 203.135265 
L 412.709034 204.481622 
L 412.936409 201.992901 
L 413.163783 203.788044 
L 413.391158 204.250429 
L 413.618532 205.338395 
L 413.845907 207.201536 
L 414.073282 208.01751 
L 414.300656 203.407256 
L 414.528031 202.849674 
L 414.755405 200.728141 
L 414.98278 201.652912 
L 415.210155 200.388152 
L 415.437529 197.165054 
L 415.892278 201.802507 
L 416.119653 200.224957 
L 416.347028 205.50159 
M 419.985021 193.003586 
L 420.212396 190.202075 
L 420.43977 192.146814 
L 420.89452 193.343576 
L 421.121894 190.460467 
L 421.349269 191.874822 
L 421.576643 189.998082 
L 421.804018 186.91098 
M 424.305138 199.436182 
L 424.759888 202.196895 
L 424.987262 199.952966 
L 425.214637 201.802507 
L 425.442011 202.536884 
L 425.669386 201.680111 
L 425.896761 202.713678 
L 426.124135 204.481622 
L 426.35151 203.951239 
L 426.806259 208.262302 
L 427.033634 206.603155 
M 427.488383 208.207904 
L 427.943132 201.761708 
L 428.625256 196.512275 
M 431.353751 194.676333 
L 431.581126 189.902885 
M 432.945373 185.673419 
L 433.172748 186.190203 
L 433.627497 188.338934 
M 434.536995 196.117888 
L 434.76437 195.39711 
L 435.219119 199.667375 
L 435.673868 195.41071 
L 435.901243 195.505907 
L 436.128618 192.785993 
L 436.810741 198.865 
L 437.038116 203.92404 
L 437.265491 202.618481 
L 437.492865 209.336668 
L 437.72024 205.50159 
L 437.947614 208.683889 
L 438.174989 205.542388 
L 438.629738 210.057445 
L 438.857113 207.908713 
L 439.084487 211.947785 
L 439.539237 206.630354 
L 439.766611 204.971206 
L 439.993986 208.765486 
M 441.585608 201.897704 
L 441.812982 201.612113 
L 442.040357 205.025605 
L 442.267732 203.27126 
L 442.495106 200.483349 
L 442.722481 199.81697 
L 443.404605 191.412437 
M 444.086728 192.201212 
L 444.314103 192.446004 
L 444.541478 191.426036 
L 444.996227 195.206716 
L 445.223601 195.42431 
L 445.450976 197.545842 
L 445.678351 195.220316 
L 445.905725 196.865864 
L 446.360474 195.342712 
L 446.587849 197.124256 
L 446.815224 202.0337 
L 447.042598 199.476981 
L 447.269973 195.261115 
L 447.497347 196.403478 
M 451.362716 188.230138 
L 451.59009 189.141309 
L 452.272214 177.853667 
L 452.726963 175.324148 
L 452.954338 177.268886 
L 453.181712 177.894466 
L 453.409087 177.840068 
L 453.636462 179.363219 
L 453.863836 179.920802 
L 454.091211 179.404018 
L 454.54596 180.369587 
L 454.773335 182.477521 
M 455.910208 178.370451 
L 456.137582 178.642442 
L 456.364957 178.601644 
M 457.274455 175.500942 
L 457.50183 177.173689 
L 457.729204 177.336884 
M 458.183954 170.999485 
L 458.411328 171.747461 
L 458.638703 169.734725 
L 458.866077 169.462734 
L 459.093452 172.237046 
L 459.320826 171.965054 
L 459.548201 170.469102 
L 459.775576 171.597866 
L 460.00295 171.611466 
L 460.230325 170.278708 
L 460.685074 171.217078 
L 460.912449 170.21071 
L 461.139823 167.640392 
L 461.367198 170.645896 
L 461.594572 169.544331 
L 461.821947 170.999485 
L 462.049322 170.904288 
L 462.276696 167.286803 
L 462.504071 170.047515 
L 462.731445 167.558794 
L 462.95882 169.299539 
L 463.640944 165.17887 
L 463.868318 167.314002 
L 464.095693 166.076441 
L 464.323068 166.294034 
L 464.550442 169.721126 
L 464.777817 175.718535 
L 465.005191 173.569803 
L 465.232566 172.930624 
L 465.459941 168.33397 
L 465.687315 173.025821 
L 465.91469 174.331379 
L 466.142064 172.141849 
M 467.051563 169.381136 
L 467.506312 168.932351 
L 467.733687 170.251509 
L 467.961061 169.802723 
M 468.41581 166.484428 
L 468.643185 167.939582 
M 469.097934 176.752102 
L 469.552683 184.408659 
L 469.780058 195.818697 
L 470.007433 197.62744 
L 470.234807 182.273527 
L 470.462182 194.268346 
L 470.689556 181.960737 
L 470.916931 194.064353 
L 471.144306 198.117024 
L 471.37168 215.592469 
L 471.599055 202.536884 
L 471.826429 213.538934 
L 472.053804 238.929328 
L 472.281179 211.14541 
L 472.508553 236.481406 
L 472.735928 223.113031 
L 472.963302 243.729976 
L 473.190677 240.683673 
L 473.418052 246.966673 
M 473.872801 235.896625 
L 474.100175 232.809523 
L 474.32755 228.144871 
L 474.554925 233.911088 
L 474.782299 229.12404 
L 475.009674 229.600025 
L 475.237048 238.956528 
L 475.464423 233.815891 
L 475.691798 235.706231 
L 475.919172 226.322529 
L 476.146547 226.308929 
L 476.373921 218.475578 
L 476.601296 214.6269 
L 476.828671 221.521881 
M 477.965544 221.54908 
L 478.192918 228.716053 
M 479.78454 223.43942 
L 480.239289 236.236614 
L 480.466664 238.847731 
L 480.694039 243.811573 
L 480.921413 242.315621 
L 481.148788 237.759766 
L 481.603537 243.226792 
M 482.967785 238.861331 
L 483.195159 240.330084 
L 483.422534 240.343684 
L 483.877283 225.601752 
L 484.104658 226.512923 
L 484.332032 225.860143 
L 484.559407 228.226468 
L 484.786781 225.370559 
L 485.014156 218.73397 
L 485.241531 217.061223 
M 486.151029 217.795599 
L 486.378404 236.141417 
L 486.605778 231.803155 
L 486.833153 231.340769 
L 487.060527 230.320802 
L 487.287902 232.27914 
L 487.515277 232.455934 
L 487.742651 233.82949 
L 487.970026 233.21751 
L 488.1974 232.075146 
M 494.336515 211.988584 
L 494.563889 207.255934 
M 495.018638 201.326522 
L 495.246013 199.422583 
L 495.700762 189.141309 
L 495.928137 189.032512 
L 496.155511 188.243738 
L 496.610261 191.344439 
M 497.974508 189.10051 
L 498.201883 188.094142 
L 498.429257 186.312599 
L 498.884006 181.022367 
L 499.111381 181.715945 
L 499.338756 181.022367 
M 500.020879 181.335157 
L 500.248254 182.042334 
L 500.475629 179.553613 
L 500.703003 182.042334 
L 500.930378 181.86554 
L 501.157752 179.132027 
L 501.385127 180.491984 
L 501.612502 179.608012 
L 501.839876 181.702345 
L 502.067251 181.484752 
L 502.294625 188.542928 
L 502.522 186.992577 
L 502.749375 193.180381 
L 502.976749 194.390742 
L 503.204124 192.038017 
L 503.431498 187.83575 
L 503.658873 192.051617 
L 503.886248 188.651725 
L 504.340997 191.045249 
L 504.568371 189.4405 
L 504.795746 192.296409 
L 505.023121 188.17574 
M 505.932619 189.508497 
L 506.159994 191.412437 
L 506.387368 190.406069 
L 506.614743 190.05248 
L 506.842117 194.023554 
L 507.069492 192.5684 
M 507.524241 190.460467 
L 507.751616 188.964515 
M 510.252736 177.010494 
L 510.480111 167.517995 
L 510.707486 169.027548 
L 510.93486 172.631433 
L 511.162235 168.95955 
L 511.389609 161.234995 
L 511.616984 161.153398 
L 511.844359 165.355664 
L 512.071733 166.090041 
L 512.299108 169.517132 
L 512.526482 166.076441 
M 513.208606 163.342928 
L 513.435981 166.933214 
L 513.663355 165.886047 
M 514.118105 164.063705 
L 514.345479 163.614919 
L 514.572854 166.484428 
L 515.027603 168.837154 
L 515.254978 169.054747 
L 515.482352 170.360305 
L 515.709727 175.174552 
L 515.937101 173.093818 
M 517.528723 170.169911 
L 517.983473 166.035643 
L 518.210847 165.926846 
L 518.438222 162.907742 
L 518.665596 167.558794 
L 518.892971 168.891552 
L 519.34772 161.534185 
L 519.575095 159.970235 
L 520.029844 161.330192 
L 520.257219 159.317456 
L 520.484593 158.623878 
L 520.711968 160.704612 
L 520.939342 159.263058 
L 521.166717 158.977467 
L 521.394092 159.793441 
L 521.621466 161.479787 
L 521.848841 161.357391 
M 523.667838 157.60391 
L 523.895212 158.433484 
L 524.349961 151.973689 
L 524.577336 151.960089 
L 524.804711 152.177682 
L 525.25946 144.670721 
L 525.486834 144.711519 
L 525.941584 149.335373 
L 526.168958 145.092307 
L 526.396333 144.330732 
L 526.623707 140.359658 
L 527.078457 151.157715 
L 527.305831 139.32609 
L 527.533206 139.312491 
L 527.76058 136.143791 
L 527.987955 144.398729 
L 528.442704 127.902453 
L 528.670079 125.984914 
L 528.897453 119.225929 
L 529.124828 123.414596 
L 529.352203 124.624957 
L 529.579577 131.982324 
M 532.762822 121.034671 
L 533.217571 119.729113 
L 533.444945 119.878708 
L 533.899695 113.867699 
L 534.127069 114.996463 
L 534.354444 114.411681 
L 534.581818 112.222151 
M 535.491317 108.047083 
L 535.718691 111.718967 
L 535.946066 108.359874 
M 536.400815 106.088746 
L 536.62819 107.040715 
L 536.855564 100.716916 
L 537.082939 104.320802 
L 537.310313 98.568184 
L 537.537688 97.099431 
L 537.765063 93.699539 
L 537.992437 84.247839 
L 538.447186 80.684752 
L 538.674561 89.796463 
L 538.901936 93.495545 
L 539.356685 82.928681 
L 540.038809 88.994088 
L 540.266183 88.30051 
L 540.493558 86.926954 
L 540.720932 84.22064 
L 540.948307 87.661331 
L 541.175682 87.484536 
M 543.449428 90.775632 
L 543.676802 88.178114 
L 543.904177 92.652372 
L 544.131551 92.09479 
L 544.358926 93.223554 
L 544.813675 105.558362 
L 545.04105 101.396895 
L 545.268424 101.641687 
L 545.495799 104.715189 
L 545.723174 103.586425 
L 545.950548 99.65615 
L 546.177923 102.063273 
L 546.405297 102.607256 
L 546.860047 97.221827 
L 547.087421 98.649782 
L 547.314796 101.097704 
L 547.54217 98.486587 
L 547.769545 105.476765 
L 547.99692 96.786641 
L 548.224294 97.303425 
L 548.679043 99.751347 
L 548.906418 97.833808 
L 549.133793 100.308929 
M 549.588542 101.682485 
L 549.815916 97.616215 
M 550.49804 99.084968 
L 550.725415 96.392253 
L 550.952789 100.036938 
L 551.180164 97.779409 
L 551.407539 99.778546 
L 551.634913 99.982539 
L 551.862288 95.005097 
L 552.089662 99.112167 
L 552.317037 97.167429 
L 552.544412 89.796463 
L 552.999161 85.295006 
L 553.226535 82.112707 
L 553.45391 83.527062 
L 553.681285 86.72296 
M 556.864529 90.585238 
L 557.319278 98.948972 
L 557.546653 98.350591 
L 558.001402 100.716916 
L 558.228776 97.561816 
L 558.456151 101.260899 
L 558.683526 99.928141 
L 559.138275 101.85928 
L 559.365649 105.340769 
L 559.593024 106.727925 
L 559.820399 105.517564 
L 560.047773 100.009739 
L 560.275148 100.349728 
L 560.502522 97.833808 
L 560.729897 101.818481 
L 560.957272 101.138503 
M 562.094145 97.153829 
L 562.321519 93.441147 
L 562.548894 91.822799 
L 563.003643 99.32976 
L 563.231018 100.308929 
L 563.685767 91.727602 
L 563.913141 93.930732 
L 564.367891 87.266943 
L 564.595265 88.178114 
L 564.82264 84.887019 
L 565.277389 82.697488 
L 565.504764 86.872556 
M 565.959513 87.919722 
L 566.186887 88.966889 
L 566.414262 86.668562 
L 566.641637 85.594196 
L 566.869011 86.994952 
L 567.096386 86.73656 
L 567.32376 85.4854 
L 567.551135 88.817294 
L 568.005884 91.129221 
L 568.233259 89.306878 
L 569.370132 97.466619 
L 569.824881 85.811789 
L 570.052256 87.552534 
M 570.507005 94.569911 
L 570.734379 101.954477 
L 570.961754 104.252804 
L 571.189129 98.69058 
M 571.643878 95.576279 
L 571.871252 90.694034 
M 572.553376 86.260575 
L 572.780751 83.839852 
L 573.008125 77.012869 
L 573.2355 77.624849 
L 573.462875 70.022691 
M 575.509246 70.281082 
L 575.73662 71.61384 
L 575.963995 69.179517 
L 576.19137 58.653451 
L 576.418744 56.763112 
L 576.646119 52.275254 
L 576.873493 43.353937 
L 577.100868 44.5099 
L 577.782992 41.341201 
L 578.010366 37.438125 
L 578.69249 55.280759 
M 579.374614 60.475794 
L 579.601989 57.660683 
L 579.601989 57.660683 
" clip-path="url(#pe4b70fe42d)" style="fill: none; stroke: #1e90ff; stroke-linecap: square"/>
   </g>
   <g id="patch_3">
    <path d="M 46.965625 354.958125 
L 46.965625 22.318125 
" style="fill: none; stroke: #000000; stroke-width: 0.8; stroke-linejoin: miter; stroke-linecap: square"/>
   </g>
   <g id="patch_4">
    <path d="M 604.965625 354.958125 
L 604.965625 22.318125 
" style="fill: none; stroke: #000000; stroke-width: 0.8; stroke-linejoin: miter; stroke-linecap: square"/>
   </g>
   <g id="patch_5">
    <path d="M 46.965625 354.958125 
L 604.965625 354.958125 
" style="fill: none; stroke: #000000; stroke-width: 0.8; stroke-linejoin: miter; stroke-linecap: square"/>
   </g>
   <g id="patch_6">
    <path d="M 46.965625 22.318125 
L 604.965625 22.318125 
" style="fill: none; stroke: #000000; stroke-width: 0.8; stroke-linejoin: miter; stroke-linecap: square"/>
   </g>
   <g id="text_13">
    <!-- BRK_B, Relative Strength Index (RSI), BRK_B -->
    <g transform="translate(192.84625 16.318125)scale(0.12 -0.12)">
     <defs>
      <path id="DejaVuSans-42" d="M 1259 2228 
L 1259 519 
L 2272 519 
Q 2781 519 3026 730 
Q 3272 941 3272 1375 
Q 3272 1813 3026 2020 
Q 2781 2228 2272 2228 
L 1259 2228 
z
M 1259 4147 
L 1259 2741 
L 2194 2741 
Q 2656 2741 2882 2914 
Q 3109 3088 3109 3444 
Q 3109 3797 2882 3972 
Q 2656 4147 2194 4147 
L 1259 4147 
z
M 628 4666 
L 2241 4666 
Q 2963 4666 3353 4366 
Q 3744 4066 3744 3513 
Q 3744 3084 3544 2831 
Q 3344 2578 2956 2516 
Q 3422 2416 3680 2098 
Q 3938 1781 3938 1306 
Q 3938 681 3513 340 
Q 3088 0 2303 0 
L 628 0 
L 628 4666 
z
" transform="scale(0.015625)"/>
      <path id="DejaVuSans-52" d="M 2841 2188 
Q 3044 2119 3236 1894 
Q 3428 1669 3622 1275 
L 4263 0 
L 3584 0 
L 2988 1197 
Q 2756 1666 2539 1819 
Q 2322 1972 1947 1972 
L 1259 1972 
L 1259 0 
L 628 0 
L 628 4666 
L 2053 4666 
Q 2853 4666 3247 4331 
Q 3641 3997 3641 3322 
Q 3641 2881 3436 2590 
Q 3231 2300 2841 2188 
z
M 1259 4147 
L 1259 2491 
L 2053 2491 
Q 2509 2491 2742 2702 
Q 2975 2913 2975 3322 
Q 2975 3731 2742 3939 
Q 2509 4147 2053 4147 
L 1259 4147 
z
" transform="scale(0.015625)"/>
      <path id="DejaVuSans-4b" d="M 628 4666 
L 1259 4666 
L 1259 2694 
L 3353 4666 
L 4166 4666 
L 1850 2491 
L 4331 0 
L 3500 0 
L 1259 2247 
L 1259 0 
L 628 0 
L 628 4666 
z
" transform="scale(0.015625)"/>
      <path id="DejaVuSans-5f" d="M 3263 -1063 
L 3263 -1509 
L -63 -1509 
L -63 -1063 
L 3263 -1063 
z
" transform="scale(0.015625)"/>
      <path id="DejaVuSans-2c" d="M 750 794 
L 1409 794 
L 1409 256 
L 897 -744 
L 494 -744 
L 750 256 
L 750 794 
z
" transform="scale(0.015625)"/>
      <path id="DejaVuSans-6c" d="M 603 4863 
L 1178 4863 
L 1178 0 
L 603 0 
L 603 4863 
z
" transform="scale(0.015625)"/>
      <path id="DejaVuSans-76" d="M 191 3500 
L 800 3500 
L 1894 563 
L 2988 3500 
L 3597 3500 
L 2284 0 
L 1503 0 
L 191 3500 
z
" transform="scale(0.015625)"/>
      <path id="DejaVuSans-6e" d="M 3513 2113 
L 3513 0 
L 2938 0 
L 2938 2094 
Q 2938 2591 2744 2837 
Q 2550 3084 2163 3084 
Q 1697 3084 1428 2787 
Q 1159 2491 1159 1978 
L 1159 0 
L 581 0 
L 581 3500 
L 1159 3500 
L 1159 2956 
Q 1366 3272 1645 3428 
Q 1925 3584 2291 3584 
Q 2894 3584 3203 3211 
Q 3513 2838 3513 2113 
z
" transform="scale(0.015625)"/>
      <path id="DejaVuSans-67" d="M 2906 1791 
Q 2906 2416 2648 2759 
Q 2391 3103 1925 3103 
Q 1463 3103 1205 2759 
Q 947 2416 947 1791 
Q 947 1169 1205 825 
Q 1463 481 1925 481 
Q 2391 481 2648 825 
Q 2906 1169 2906 1791 
z
M 3481 434 
Q 3481 -459 3084 -895 
Q 2688 -1331 1869 -1331 
Q 1566 -1331 1297 -1286 
Q 1028 -1241 775 -1147 
L 775 -588 
Q 1028 -725 1275 -790 
Q 1522 -856 1778 -856 
Q 2344 -856 2625 -561 
Q 2906 -266 2906 331 
L 2906 616 
Q 2728 306 2450 153 
Q 2172 0 1784 0 
Q 1141 0 747 490 
Q 353 981 353 1791 
Q 353 2603 747 3093 
Q 1141 3584 1784 3584 
Q 2172 3584 2450 3431 
Q 2728 3278 2906 2969 
L 2906 3500 
L 3481 3500 
L 3481 434 
z
" transform="scale(0.015625)"/>
      <path id="DejaVuSans-68" d="M 3513 2113 
L 3513 0 
L 2938 0 
L 2938 2094 
Q 2938 2591 2744 2837 
Q 2550 3084 2163 3084 
Q 1697 3084 1428 2787 
Q 1159 2491 1159 1978 
L 1159 0 
L 581 0 
L 581 4863 
L 1159 4863 
L 1159 2956 
Q 1366 3272 1645 3428 
Q 1925 3584 2291 3584 
Q 2894 3584 3203 3211 
Q 3513 2838 3513 2113 
z
" transform="scale(0.015625)"/>
      <path id="DejaVuSans-49" d="M 628 4666 
L 1259 4666 
L 1259 0 
L 628 0 
L 628 4666 
z
" transform="scale(0.015625)"/>
      <path id="DejaVuSans-64" d="M 2906 2969 
L 2906 4863 
L 3481 4863 
L 3481 0 
L 2906 0 
L 2906 525 
Q 2725 213 2448 61 
Q 2172 -91 1784 -91 
Q 1150 -91 751 415 
Q 353 922 353 1747 
Q 353 2572 751 3078 
Q 1150 3584 1784 3584 
Q 2172 3584 2448 3432 
Q 2725 3281 2906 2969 
z
M 947 1747 
Q 947 1113 1208 752 
Q 1469 391 1925 391 
Q 2381 391 2643 752 
Q 2906 1113 2906 1747 
Q 2906 2381 2643 2742 
Q 2381 3103 1925 3103 
Q 1469 3103 1208 2742 
Q 947 2381 947 1747 
z
" transform="scale(0.015625)"/>
      <path id="DejaVuSans-78" d="M 3513 3500 
L 2247 1797 
L 3578 0 
L 2900 0 
L 1881 1375 
L 863 0 
L 184 0 
L 1544 1831 
L 300 3500 
L 978 3500 
L 1906 2253 
L 2834 3500 
L 3513 3500 
z
" transform="scale(0.015625)"/>
     </defs>
     <use xlink:href="#DejaVuSans-42"/>
     <use xlink:href="#DejaVuSans-52" x="68.603516"/>
     <use xlink:href="#DejaVuSans-4b" x="138.085938"/>
     <use xlink:href="#DejaVuSans-5f" x="203.662109"/>
     <use xlink:href="#DejaVuSans-42" x="253.662109"/>
     <use xlink:href="#DejaVuSans-2c" x="322.265625"/>
     <use xlink:href="#DejaVuSans-20" x="354.052734"/>
     <use xlink:href="#DejaVuSans-52" x="385.839844"/>
     <use xlink:href="#DejaVuSans-65" x="450.822266"/>
     <use xlink:href="#DejaVuSans-6c" x="512.345703"/>
     <use xlink:href="#DejaVuSans-61" x="540.128906"/>
     <use xlink:href="#DejaVuSans-74" x="601.408203"/>
     <use xlink:href="#DejaVuSans-69" x="640.617188"/>
     <use xlink:href="#DejaVuSans-76" x="668.400391"/>
     <use xlink:href="#DejaVuSans-65" x="727.580078"/>
     <use xlink:href="#DejaVuSans-20" x="789.103516"/>
     <use xlink:href="#DejaVuSans-53" x="820.890625"/>
     <use xlink:href="#DejaVuSans-74" x="884.367188"/>
     <use xlink:href="#DejaVuSans-72" x="923.576172"/>
     <use xlink:href="#DejaVuSans-65" x="962.439453"/>
     <use xlink:href="#DejaVuSans-6e" x="1023.962891"/>
     <use xlink:href="#DejaVuSans-67" x="1087.341797"/>
     <use xlink:href="#DejaVuSans-74" x="1150.818359"/>
     <use xlink:href="#DejaVuSans-68" x="1190.027344"/>
     <use xlink:href="#DejaVuSans-20" x="1253.40625"/>
     <use xlink:href="#DejaVuSans-49" x="1285.193359"/>
     <use xlink:href="#DejaVuSans-6e" x="1314.685547"/>
     <use xlink:href="#DejaVuSans-64" x="1378.064453"/>
     <use xlink:href="#DejaVuSans-65" x="1441.541016"/>
     <use xlink:href="#DejaVuSans-78" x="1501.314453"/>
     <use xlink:href="#DejaVuSans-20" x="1560.494141"/>
     <use xlink:href="#DejaVuSans-28" x="1592.28125"/>
     <use xlink:href="#DejaVuSans-52" x="1631.294922"/>
     <use xlink:href="#DejaVuSans-53" x="1700.777344"/>
     <use xlink:href="#DejaVuSans-49" x="1764.253906"/>
     <use xlink:href="#DejaVuSans-29" x="1793.746094"/>
     <use xlink:href="#DejaVuSans-2c" x="1832.759766"/>
     <use xlink:href="#DejaVuSans-20" x="1864.546875"/>
     <use xlink:href="#DejaVuSans-42" x="1896.333984"/>
     <use xlink:href="#DejaVuSans-52" x="1964.9375"/>
     <use xlink:href="#DejaVuSans-4b" x="2034.419922"/>
     <use xlink:href="#DejaVuSans-5f" x="2099.996094"/>
     <use xlink:href="#DejaVuSans-42" x="2149.996094"/>
    </g>
   </g>
   <g id="legend_1">
    <g id="patch_7">
     <path d="M 53.965625 74.3525 
L 203.875 74.3525 
Q 205.875 74.3525 205.875 72.3525 
L 205.875 29.318125 
Q 205.875 27.318125 203.875 27.318125 
L 53.965625 27.318125 
Q 51.965625 27.318125 51.965625 29.318125 
L 51.965625 72.3525 
Q 51.965625 74.3525 53.965625 74.3525 
z
" style="fill: #ffffff; opacity: 0.8; stroke: #cccccc; stroke-linejoin: miter"/>
    </g>
    <g id="line2d_19">
     <path d="M 55.965625 35.416562 
L 65.965625 35.416562 
L 75.965625 35.416562 
" style="fill: none; stroke: #00ff7f; stroke-linecap: square"/>
    </g>
    <g id="text_14">
     <!-- Oversold, RSI &lt;= 30 -->
     <g transform="translate(83.965625 38.916562)scale(0.1 -0.1)">
      <defs>
       <path id="DejaVuSans-4f" d="M 2522 4238 
Q 1834 4238 1429 3725 
Q 1025 3213 1025 2328 
Q 1025 1447 1429 934 
Q 1834 422 2522 422 
Q 3209 422 3611 934 
Q 4013 1447 4013 2328 
Q 4013 3213 3611 3725 
Q 3209 4238 2522 4238 
z
M 2522 4750 
Q 3503 4750 4090 4092 
Q 4678 3434 4678 2328 
Q 4678 1225 4090 567 
Q 3503 -91 2522 -91 
Q 1538 -91 948 565 
Q 359 1222 359 2328 
Q 359 3434 948 4092 
Q 1538 4750 2522 4750 
z
" transform="scale(0.015625)"/>
       <path id="DejaVuSans-73" d="M 2834 3397 
L 2834 2853 
Q 2591 2978 2328 3040 
Q 2066 3103 1784 3103 
Q 1356 3103 1142 2972 
Q 928 2841 928 2578 
Q 928 2378 1081 2264 
Q 1234 2150 1697 2047 
L 1894 2003 
Q 2506 1872 2764 1633 
Q 3022 1394 3022 966 
Q 3022 478 2636 193 
Q 2250 -91 1575 -91 
Q 1294 -91 989 -36 
Q 684 19 347 128 
L 347 722 
Q 666 556 975 473 
Q 1284 391 1588 391 
Q 1994 391 2212 530 
Q 2431 669 2431 922 
Q 2431 1156 2273 1281 
Q 2116 1406 1581 1522 
L 1381 1569 
Q 847 1681 609 1914 
Q 372 2147 372 2553 
Q 372 3047 722 3315 
Q 1072 3584 1716 3584 
Q 2034 3584 2315 3537 
Q 2597 3491 2834 3397 
z
" transform="scale(0.015625)"/>
       <path id="DejaVuSans-6f" d="M 1959 3097 
Q 1497 3097 1228 2736 
Q 959 2375 959 1747 
Q 959 1119 1226 758 
Q 1494 397 1959 397 
Q 2419 397 2687 759 
Q 2956 1122 2956 1747 
Q 2956 2369 2687 2733 
Q 2419 3097 1959 3097 
z
M 1959 3584 
Q 2709 3584 3137 3096 
Q 3566 2609 3566 1747 
Q 3566 888 3137 398 
Q 2709 -91 1959 -91 
Q 1206 -91 779 398 
Q 353 888 353 1747 
Q 353 2609 779 3096 
Q 1206 3584 1959 3584 
z
" transform="scale(0.015625)"/>
       <path id="DejaVuSans-3c" d="M 4684 3150 
L 1459 2003 
L 4684 863 
L 4684 294 
L 678 1747 
L 678 2266 
L 4684 3719 
L 4684 3150 
z
" transform="scale(0.015625)"/>
       <path id="DejaVuSans-3d" d="M 678 2906 
L 4684 2906 
L 4684 2381 
L 678 2381 
L 678 2906 
z
M 678 1631 
L 4684 1631 
L 4684 1100 
L 678 1100 
L 678 1631 
z
" transform="scale(0.015625)"/>
      </defs>
      <use xlink:href="#DejaVuSans-4f"/>
      <use xlink:href="#DejaVuSans-76" x="78.710938"/>
      <use xlink:href="#DejaVuSans-65" x="137.890625"/>
      <use xlink:href="#DejaVuSans-72" x="199.414062"/>
      <use xlink:href="#DejaVuSans-73" x="240.527344"/>
      <use xlink:href="#DejaVuSans-6f" x="292.626953"/>
      <use xlink:href="#DejaVuSans-6c" x="353.808594"/>
      <use xlink:href="#DejaVuSans-64" x="381.591797"/>
      <use xlink:href="#DejaVuSans-2c" x="445.068359"/>
      <use xlink:href="#DejaVuSans-20" x="476.855469"/>
      <use xlink:href="#DejaVuSans-52" x="508.642578"/>
      <use xlink:href="#DejaVuSans-53" x="578.125"/>
      <use xlink:href="#DejaVuSans-49" x="641.601562"/>
      <use xlink:href="#DejaVuSans-20" x="671.09375"/>
      <use xlink:href="#DejaVuSans-3c" x="702.880859"/>
      <use xlink:href="#DejaVuSans-3d" x="786.669922"/>
      <use xlink:href="#DejaVuSans-20" x="870.458984"/>
      <use xlink:href="#DejaVuSans-33" x="902.246094"/>
      <use xlink:href="#DejaVuSans-30" x="965.869141"/>
     </g>
    </g>
    <g id="line2d_20">
     <path d="M 55.965625 50.094687 
L 65.965625 50.094687 
L 75.965625 50.094687 
" style="fill: none; stroke: #ff4500; stroke-linecap: square"/>
    </g>
    <g id="text_15">
     <!-- Overbought, RSI &gt;= 70 -->
     <g transform="translate(83.965625 53.594687)scale(0.1 -0.1)">
      <defs>
       <path id="DejaVuSans-62" d="M 3116 1747 
Q 3116 2381 2855 2742 
Q 2594 3103 2138 3103 
Q 1681 3103 1420 2742 
Q 1159 2381 1159 1747 
Q 1159 1113 1420 752 
Q 1681 391 2138 391 
Q 2594 391 2855 752 
Q 3116 1113 3116 1747 
z
M 1159 2969 
Q 1341 3281 1617 3432 
Q 1894 3584 2278 3584 
Q 2916 3584 3314 3078 
Q 3713 2572 3713 1747 
Q 3713 922 3314 415 
Q 2916 -91 2278 -91 
Q 1894 -91 1617 61 
Q 1341 213 1159 525 
L 1159 0 
L 581 0 
L 581 4863 
L 1159 4863 
L 1159 2969 
z
" transform="scale(0.015625)"/>
       <path id="DejaVuSans-75" d="M 544 1381 
L 544 3500 
L 1119 3500 
L 1119 1403 
Q 1119 906 1312 657 
Q 1506 409 1894 409 
Q 2359 409 2629 706 
Q 2900 1003 2900 1516 
L 2900 3500 
L 3475 3500 
L 3475 0 
L 2900 0 
L 2900 538 
Q 2691 219 2414 64 
Q 2138 -91 1772 -91 
Q 1169 -91 856 284 
Q 544 659 544 1381 
z
M 1991 3584 
L 1991 3584 
z
" transform="scale(0.015625)"/>
       <path id="DejaVuSans-3e" d="M 678 3150 
L 678 3719 
L 4684 2266 
L 4684 1747 
L 678 294 
L 678 863 
L 3897 2003 
L 678 3150 
z
" transform="scale(0.015625)"/>
       <path id="DejaVuSans-37" d="M 525 4666 
L 3525 4666 
L 3525 4397 
L 1831 0 
L 1172 0 
L 2766 4134 
L 525 4134 
L 525 4666 
z
" transform="scale(0.015625)"/>
      </defs>
      <use xlink:href="#DejaVuSans-4f"/>
      <use xlink:href="#DejaVuSans-76" x="78.710938"/>
      <use xlink:href="#DejaVuSans-65" x="137.890625"/>
      <use xlink:href="#DejaVuSans-72" x="199.414062"/>
      <use xlink:href="#DejaVuSans-62" x="240.527344"/>
      <use xlink:href="#DejaVuSans-6f" x="304.003906"/>
      <use xlink:href="#DejaVuSans-75" x="365.185547"/>
      <use xlink:href="#DejaVuSans-67" x="428.564453"/>
      <use xlink:href="#DejaVuSans-68" x="492.041016"/>
      <use xlink:href="#DejaVuSans-74" x="555.419922"/>
      <use xlink:href="#DejaVuSans-2c" x="594.628906"/>
      <use xlink:href="#DejaVuSans-20" x="626.416016"/>
      <use xlink:href="#DejaVuSans-52" x="658.203125"/>
      <use xlink:href="#DejaVuSans-53" x="727.685547"/>
      <use xlink:href="#DejaVuSans-49" x="791.162109"/>
      <use xlink:href="#DejaVuSans-20" x="820.654297"/>
      <use xlink:href="#DejaVuSans-3e" x="852.441406"/>
      <use xlink:href="#DejaVuSans-3d" x="936.230469"/>
      <use xlink:href="#DejaVuSans-20" x="1020.019531"/>
      <use xlink:href="#DejaVuSans-37" x="1051.806641"/>
      <use xlink:href="#DejaVuSans-30" x="1115.429688"/>
     </g>
    </g>
    <g id="line2d_21">
     <path d="M 55.965625 64.772812 
L 65.965625 64.772812 
L 75.965625 64.772812 
" style="fill: none; stroke: #1e90ff; stroke-linecap: square"/>
    </g>
    <g id="text_16">
     <!-- Neutral -->
     <g transform="translate(83.965625 68.272812)scale(0.1 -0.1)">
      <defs>
       <path id="DejaVuSans-4e" d="M 628 4666 
L 1478 4666 
L 3547 763 
L 3547 4666 
L 4159 4666 
L 4159 0 
L 3309 0 
L 1241 3903 
L 1241 0 
L 628 0 
L 628 4666 
z
" transform="scale(0.015625)"/>
      </defs>
      <use xlink:href="#DejaVuSans-4e"/>
      <use xlink:href="#DejaVuSans-65" x="74.804688"/>
      <use xlink:href="#DejaVuSans-75" x="136.328125"/>
      <use xlink:href="#DejaVuSans-74" x="199.707031"/>
      <use xlink:href="#DejaVuSans-72" x="238.916016"/>
      <use xlink:href="#DejaVuSans-61" x="280.029297"/>
      <use xlink:href="#DejaVuSans-6c" x="341.308594"/>
     </g>
    </g>
   </g>
  </g>
 </g>
 <defs>
  <clipPath id="pe4b70fe42d">
   <rect x="46.965625" y="22.318125" width="558" height="332.64"/>
  </clipPath>
 </defs>
</svg>
