<?xml version="1.0" encoding="utf-8" standalone="no"?>
<!DOCTYPE svg PUBLIC "-//W3C//DTD SVG 1.1//EN"
  "http://www.w3.org/Graphics/SVG/1.1/DTD/svg11.dtd">
<svg xmlns:xlink="http://www.w3.org/1999/xlink" width="612.165625pt" height="392.514375pt" viewBox="0 0 612.165625 392.514375" xmlns="http://www.w3.org/2000/svg" version="1.1">
 <metadata>
  <rdf:RDF xmlns:dc="http://purl.org/dc/elements/1.1/" xmlns:cc="http://creativecommons.org/ns#" xmlns:rdf="http://www.w3.org/1999/02/22-rdf-syntax-ns#">
   <cc:Work>
    <dc:type rdf:resource="http://purl.org/dc/dcmitype/StillImage"/>
    <dc:date>2023-04-24T21:55:14.125901</dc:date>
    <dc:format>image/svg+xml</dc:format>
    <dc:creator>
     <cc:Agent>
      <dc:title>Matplotlib v3.5.1, https://matplotlib.org/</dc:title>
     </cc:Agent>
    </dc:creator>
   </cc:Work>
  </rdf:RDF>
 </metadata>
 <defs>
  <style type="text/css">*{stroke-linejoin: round; stroke-linecap: butt}</style>
 </defs>
 <g id="figure_1">
  <g id="patch_1">
   <path d="M 0 392.514375 
L 612.165625 392.514375 
L 612.165625 0 
L 0 0 
z
" style="fill: #ffffff"/>
  </g>
  <g id="axes_1">
   <g id="patch_2">
    <path d="M 46.965625 354.958125 
L 604.965625 354.958125 
L 604.965625 22.318125 
L 46.965625 22.318125 
z
" style="fill: #ffffff"/>
   </g>
   <g id="matplotlib.axis_1">
    <g id="xtick_1">
     <g id="line2d_1">
      <defs>
       <path id="m032a9b295b" d="M 0 0 
L 0 3.5 
" style="stroke: #000000; stroke-width: 0.8"/>
      </defs>
      <g>
       <use xlink:href="#m032a9b295b" x="72.329261" y="354.958125" style="stroke: #000000; stroke-width: 0.8"/>
      </g>
     </g>
     <g id="text_1">
      <!-- 0 -->
      <g transform="translate(69.148011 369.556562)scale(0.1 -0.1)">
       <defs>
        <path id="DejaVuSans-30" d="M 2034 4250 
Q 1547 4250 1301 3770 
Q 1056 3291 1056 2328 
Q 1056 1369 1301 889 
Q 1547 409 2034 409 
Q 2525 409 2770 889 
Q 3016 1369 3016 2328 
Q 3016 3291 2770 3770 
Q 2525 4250 2034 4250 
z
M 2034 4750 
Q 2819 4750 3233 4129 
Q 3647 3509 3647 2328 
Q 3647 1150 3233 529 
Q 2819 -91 2034 -91 
Q 1250 -91 836 529 
Q 422 1150 422 2328 
Q 422 3509 836 4129 
Q 1250 4750 2034 4750 
z
" transform="scale(0.015625)"/>
       </defs>
       <use xlink:href="#DejaVuSans-30"/>
      </g>
     </g>
    </g>
    <g id="xtick_2">
     <g id="line2d_2">
      <g>
       <use xlink:href="#m032a9b295b" x="189.15854" y="354.958125" style="stroke: #000000; stroke-width: 0.8"/>
      </g>
     </g>
     <g id="text_2">
      <!-- 500 -->
      <g transform="translate(179.61479 369.556562)scale(0.1 -0.1)">
       <defs>
        <path id="DejaVuSans-35" d="M 691 4666 
L 3169 4666 
L 3169 4134 
L 1269 4134 
L 1269 2991 
Q 1406 3038 1543 3061 
Q 1681 3084 1819 3084 
Q 2600 3084 3056 2656 
Q 3513 2228 3513 1497 
Q 3513 744 3044 326 
Q 2575 -91 1722 -91 
Q 1428 -91 1123 -41 
Q 819 9 494 109 
L 494 744 
Q 775 591 1075 516 
Q 1375 441 1709 441 
Q 2250 441 2565 725 
Q 2881 1009 2881 1497 
Q 2881 1984 2565 2268 
Q 2250 2553 1709 2553 
Q 1456 2553 1204 2497 
Q 953 2441 691 2322 
L 691 4666 
z
" transform="scale(0.015625)"/>
       </defs>
       <use xlink:href="#DejaVuSans-35"/>
       <use xlink:href="#DejaVuSans-30" x="63.623047"/>
       <use xlink:href="#DejaVuSans-30" x="127.246094"/>
      </g>
     </g>
    </g>
    <g id="xtick_3">
     <g id="line2d_3">
      <g>
       <use xlink:href="#m032a9b295b" x="305.987818" y="354.958125" style="stroke: #000000; stroke-width: 0.8"/>
      </g>
     </g>
     <g id="text_3">
      <!-- 1000 -->
      <g transform="translate(293.262818 369.556562)scale(0.1 -0.1)">
       <defs>
        <path id="DejaVuSans-31" d="M 794 531 
L 1825 531 
L 1825 4091 
L 703 3866 
L 703 4441 
L 1819 4666 
L 2450 4666 
L 2450 531 
L 3481 531 
L 3481 0 
L 794 0 
L 794 531 
z
" transform="scale(0.015625)"/>
       </defs>
       <use xlink:href="#DejaVuSans-31"/>
       <use xlink:href="#DejaVuSans-30" x="63.623047"/>
       <use xlink:href="#DejaVuSans-30" x="127.246094"/>
       <use xlink:href="#DejaVuSans-30" x="190.869141"/>
      </g>
     </g>
    </g>
    <g id="xtick_4">
     <g id="line2d_4">
      <g>
       <use xlink:href="#m032a9b295b" x="422.817097" y="354.958125" style="stroke: #000000; stroke-width: 0.8"/>
      </g>
     </g>
     <g id="text_4">
      <!-- 1500 -->
      <g transform="translate(410.092097 369.556562)scale(0.1 -0.1)">
       <use xlink:href="#DejaVuSans-31"/>
       <use xlink:href="#DejaVuSans-35" x="63.623047"/>
       <use xlink:href="#DejaVuSans-30" x="127.246094"/>
       <use xlink:href="#DejaVuSans-30" x="190.869141"/>
      </g>
     </g>
    </g>
    <g id="xtick_5">
     <g id="line2d_5">
      <g>
       <use xlink:href="#m032a9b295b" x="539.646375" y="354.958125" style="stroke: #000000; stroke-width: 0.8"/>
      </g>
     </g>
     <g id="text_5">
      <!-- 2000 -->
      <g transform="translate(526.921375 369.556562)scale(0.1 -0.1)">
       <defs>
        <path id="DejaVuSans-32" d="M 1228 531 
L 3431 531 
L 3431 0 
L 469 0 
L 469 531 
Q 828 903 1448 1529 
Q 2069 2156 2228 2338 
Q 2531 2678 2651 2914 
Q 2772 3150 2772 3378 
Q 2772 3750 2511 3984 
Q 2250 4219 1831 4219 
Q 1534 4219 1204 4116 
Q 875 4013 500 3803 
L 500 4441 
Q 881 4594 1212 4672 
Q 1544 4750 1819 4750 
Q 2544 4750 2975 4387 
Q 3406 4025 3406 3419 
Q 3406 3131 3298 2873 
Q 3191 2616 2906 2266 
Q 2828 2175 2409 1742 
Q 1991 1309 1228 531 
z
" transform="scale(0.015625)"/>
       </defs>
       <use xlink:href="#DejaVuSans-32"/>
       <use xlink:href="#DejaVuSans-30" x="63.623047"/>
       <use xlink:href="#DejaVuSans-30" x="127.246094"/>
       <use xlink:href="#DejaVuSans-30" x="190.869141"/>
      </g>
     </g>
    </g>
    <g id="text_6">
     <!-- Date -->
     <g transform="translate(314.014844 383.234687)scale(0.1 -0.1)">
      <defs>
       <path id="DejaVuSans-44" d="M 1259 4147 
L 1259 519 
L 2022 519 
Q 2988 519 3436 956 
Q 3884 1394 3884 2338 
Q 3884 3275 3436 3711 
Q 2988 4147 2022 4147 
L 1259 4147 
z
M 628 4666 
L 1925 4666 
Q 3281 4666 3915 4102 
Q 4550 3538 4550 2338 
Q 4550 1131 3912 565 
Q 3275 0 1925 0 
L 628 0 
L 628 4666 
z
" transform="scale(0.015625)"/>
       <path id="DejaVuSans-61" d="M 2194 1759 
Q 1497 1759 1228 1600 
Q 959 1441 959 1056 
Q 959 750 1161 570 
Q 1363 391 1709 391 
Q 2188 391 2477 730 
Q 2766 1069 2766 1631 
L 2766 1759 
L 2194 1759 
z
M 3341 1997 
L 3341 0 
L 2766 0 
L 2766 531 
Q 2569 213 2275 61 
Q 1981 -91 1556 -91 
Q 1019 -91 701 211 
Q 384 513 384 1019 
Q 384 1609 779 1909 
Q 1175 2209 1959 2209 
L 2766 2209 
L 2766 2266 
Q 2766 2663 2505 2880 
Q 2244 3097 1772 3097 
Q 1472 3097 1187 3025 
Q 903 2953 641 2809 
L 641 3341 
Q 956 3463 1253 3523 
Q 1550 3584 1831 3584 
Q 2591 3584 2966 3190 
Q 3341 2797 3341 1997 
z
" transform="scale(0.015625)"/>
       <path id="DejaVuSans-74" d="M 1172 4494 
L 1172 3500 
L 2356 3500 
L 2356 3053 
L 1172 3053 
L 1172 1153 
Q 1172 725 1289 603 
Q 1406 481 1766 481 
L 2356 481 
L 2356 0 
L 1766 0 
Q 1100 0 847 248 
Q 594 497 594 1153 
L 594 3053 
L 172 3053 
L 172 3500 
L 594 3500 
L 594 4494 
L 1172 4494 
z
" transform="scale(0.015625)"/>
       <path id="DejaVuSans-65" d="M 3597 1894 
L 3597 1613 
L 953 1613 
Q 991 1019 1311 708 
Q 1631 397 2203 397 
Q 2534 397 2845 478 
Q 3156 559 3463 722 
L 3463 178 
Q 3153 47 2828 -22 
Q 2503 -91 2169 -91 
Q 1331 -91 842 396 
Q 353 884 353 1716 
Q 353 2575 817 3079 
Q 1281 3584 2069 3584 
Q 2775 3584 3186 3129 
Q 3597 2675 3597 1894 
z
M 3022 2063 
Q 3016 2534 2758 2815 
Q 2500 3097 2075 3097 
Q 1594 3097 1305 2825 
Q 1016 2553 972 2059 
L 3022 2063 
z
" transform="scale(0.015625)"/>
      </defs>
      <use xlink:href="#DejaVuSans-44"/>
      <use xlink:href="#DejaVuSans-61" x="77.001953"/>
      <use xlink:href="#DejaVuSans-74" x="138.28125"/>
      <use xlink:href="#DejaVuSans-65" x="177.490234"/>
     </g>
    </g>
   </g>
   <g id="matplotlib.axis_2">
    <g id="ytick_1">
     <g id="line2d_6">
      <path d="M 46.965625 343.655503 
L 604.965625 343.655503 
" clip-path="url(#p79c049931b)" style="fill: none; stroke: #dcdcdc; stroke-width: 0.5; stroke-linecap: square"/>
     </g>
     <g id="line2d_7">
      <defs>
       <path id="m39e2b1aa94" d="M 0 0 
L -3.5 0 
" style="stroke: #000000; stroke-width: 0.8"/>
      </defs>
      <g>
       <use xlink:href="#m39e2b1aa94" x="46.965625" y="343.655503" style="stroke: #000000; stroke-width: 0.8"/>
      </g>
     </g>
     <g id="text_7">
      <!-- 100 -->
      <g transform="translate(20.878125 347.454722)scale(0.1 -0.1)">
       <use xlink:href="#DejaVuSans-31"/>
       <use xlink:href="#DejaVuSans-30" x="63.623047"/>
       <use xlink:href="#DejaVuSans-30" x="127.246094"/>
      </g>
     </g>
    </g>
    <g id="ytick_2">
     <g id="line2d_8">
      <path d="M 46.965625 303.891144 
L 604.965625 303.891144 
" clip-path="url(#p79c049931b)" style="fill: none; stroke: #dcdcdc; stroke-width: 0.5; stroke-linecap: square"/>
     </g>
     <g id="line2d_9">
      <g>
       <use xlink:href="#m39e2b1aa94" x="46.965625" y="303.891144" style="stroke: #000000; stroke-width: 0.8"/>
      </g>
     </g>
     <g id="text_8">
      <!-- 125 -->
      <g transform="translate(20.878125 307.690363)scale(0.1 -0.1)">
       <use xlink:href="#DejaVuSans-31"/>
       <use xlink:href="#DejaVuSans-32" x="63.623047"/>
       <use xlink:href="#DejaVuSans-35" x="127.246094"/>
      </g>
     </g>
    </g>
    <g id="ytick_3">
     <g id="line2d_10">
      <path d="M 46.965625 264.126785 
L 604.965625 264.126785 
" clip-path="url(#p79c049931b)" style="fill: none; stroke: #dcdcdc; stroke-width: 0.5; stroke-linecap: square"/>
     </g>
     <g id="line2d_11">
      <g>
       <use xlink:href="#m39e2b1aa94" x="46.965625" y="264.126785" style="stroke: #000000; stroke-width: 0.8"/>
      </g>
     </g>
     <g id="text_9">
      <!-- 150 -->
      <g transform="translate(20.878125 267.926004)scale(0.1 -0.1)">
       <use xlink:href="#DejaVuSans-31"/>
       <use xlink:href="#DejaVuSans-35" x="63.623047"/>
       <use xlink:href="#DejaVuSans-30" x="127.246094"/>
      </g>
     </g>
    </g>
    <g id="ytick_4">
     <g id="line2d_12">
      <path d="M 46.965625 224.362425 
L 604.965625 224.362425 
" clip-path="url(#p79c049931b)" style="fill: none; stroke: #dcdcdc; stroke-width: 0.5; stroke-linecap: square"/>
     </g>
     <g id="line2d_13">
      <g>
       <use xlink:href="#m39e2b1aa94" x="46.965625" y="224.362425" style="stroke: #000000; stroke-width: 0.8"/>
      </g>
     </g>
     <g id="text_10">
      <!-- 175 -->
      <g transform="translate(20.878125 228.161644)scale(0.1 -0.1)">
       <defs>
        <path id="DejaVuSans-37" d="M 525 4666 
L 3525 4666 
L 3525 4397 
L 1831 0 
L 1172 0 
L 2766 4134 
L 525 4134 
L 525 4666 
z
" transform="scale(0.015625)"/>
       </defs>
       <use xlink:href="#DejaVuSans-31"/>
       <use xlink:href="#DejaVuSans-37" x="63.623047"/>
       <use xlink:href="#DejaVuSans-35" x="127.246094"/>
      </g>
     </g>
    </g>
    <g id="ytick_5">
     <g id="line2d_14">
      <path d="M 46.965625 184.598066 
L 604.965625 184.598066 
" clip-path="url(#p79c049931b)" style="fill: none; stroke: #dcdcdc; stroke-width: 0.5; stroke-linecap: square"/>
     </g>
     <g id="line2d_15">
      <g>
       <use xlink:href="#m39e2b1aa94" x="46.965625" y="184.598066" style="stroke: #000000; stroke-width: 0.8"/>
      </g>
     </g>
     <g id="text_11">
      <!-- 200 -->
      <g transform="translate(20.878125 188.397285)scale(0.1 -0.1)">
       <use xlink:href="#DejaVuSans-32"/>
       <use xlink:href="#DejaVuSans-30" x="63.623047"/>
       <use xlink:href="#DejaVuSans-30" x="127.246094"/>
      </g>
     </g>
    </g>
    <g id="ytick_6">
     <g id="line2d_16">
      <path d="M 46.965625 144.833707 
L 604.965625 144.833707 
" clip-path="url(#p79c049931b)" style="fill: none; stroke: #dcdcdc; stroke-width: 0.5; stroke-linecap: square"/>
     </g>
     <g id="line2d_17">
      <g>
       <use xlink:href="#m39e2b1aa94" x="46.965625" y="144.833707" style="stroke: #000000; stroke-width: 0.8"/>
      </g>
     </g>
     <g id="text_12">
      <!-- 225 -->
      <g transform="translate(20.878125 148.632925)scale(0.1 -0.1)">
       <use xlink:href="#DejaVuSans-32"/>
       <use xlink:href="#DejaVuSans-32" x="63.623047"/>
       <use xlink:href="#DejaVuSans-35" x="127.246094"/>
      </g>
     </g>
    </g>
    <g id="ytick_7">
     <g id="line2d_18">
      <path d="M 46.965625 105.069347 
L 604.965625 105.069347 
" clip-path="url(#p79c049931b)" style="fill: none; stroke: #dcdcdc; stroke-width: 0.5; stroke-linecap: square"/>
     </g>
     <g id="line2d_19">
      <g>
       <use xlink:href="#m39e2b1aa94" x="46.965625" y="105.069347" style="stroke: #000000; stroke-width: 0.8"/>
      </g>
     </g>
     <g id="text_13">
      <!-- 250 -->
      <g transform="translate(20.878125 108.868566)scale(0.1 -0.1)">
       <use xlink:href="#DejaVuSans-32"/>
       <use xlink:href="#DejaVuSans-35" x="63.623047"/>
       <use xlink:href="#DejaVuSans-30" x="127.246094"/>
      </g>
     </g>
    </g>
    <g id="ytick_8">
     <g id="line2d_20">
      <path d="M 46.965625 65.304988 
L 604.965625 65.304988 
" clip-path="url(#p79c049931b)" style="fill: none; stroke: #dcdcdc; stroke-width: 0.5; stroke-linecap: square"/>
     </g>
     <g id="line2d_21">
      <g>
       <use xlink:href="#m39e2b1aa94" x="46.965625" y="65.304988" style="stroke: #000000; stroke-width: 0.8"/>
      </g>
     </g>
     <g id="text_14">
      <!-- 275 -->
      <g transform="translate(20.878125 69.104207)scale(0.1 -0.1)">
       <use xlink:href="#DejaVuSans-32"/>
       <use xlink:href="#DejaVuSans-37" x="63.623047"/>
       <use xlink:href="#DejaVuSans-35" x="127.246094"/>
      </g>
     </g>
    </g>
    <g id="ytick_9">
     <g id="line2d_22">
      <path d="M 46.965625 25.540629 
L 604.965625 25.540629 
" clip-path="url(#p79c049931b)" style="fill: none; stroke: #dcdcdc; stroke-width: 0.5; stroke-linecap: square"/>
     </g>
     <g id="line2d_23">
      <g>
       <use xlink:href="#m39e2b1aa94" x="46.965625" y="25.540629" style="stroke: #000000; stroke-width: 0.8"/>
      </g>
     </g>
     <g id="text_15">
      <!-- 300 -->
      <g transform="translate(20.878125 29.339847)scale(0.1 -0.1)">
       <defs>
        <path id="DejaVuSans-33" d="M 2597 2516 
Q 3050 2419 3304 2112 
Q 3559 1806 3559 1356 
Q 3559 666 3084 287 
Q 2609 -91 1734 -91 
Q 1441 -91 1130 -33 
Q 819 25 488 141 
L 488 750 
Q 750 597 1062 519 
Q 1375 441 1716 441 
Q 2309 441 2620 675 
Q 2931 909 2931 1356 
Q 2931 1769 2642 2001 
Q 2353 2234 1838 2234 
L 1294 2234 
L 1294 2753 
L 1863 2753 
Q 2328 2753 2575 2939 
Q 2822 3125 2822 3475 
Q 2822 3834 2567 4026 
Q 2313 4219 1838 4219 
Q 1578 4219 1281 4162 
Q 984 4106 628 3988 
L 628 4550 
Q 988 4650 1302 4700 
Q 1616 4750 1894 4750 
Q 2613 4750 3031 4423 
Q 3450 4097 3450 3541 
Q 3450 3153 3228 2886 
Q 3006 2619 2597 2516 
z
" transform="scale(0.015625)"/>
       </defs>
       <use xlink:href="#DejaVuSans-33"/>
       <use xlink:href="#DejaVuSans-30" x="63.623047"/>
       <use xlink:href="#DejaVuSans-30" x="127.246094"/>
      </g>
     </g>
    </g>
    <g id="text_16">
     <!-- Price (USD) -->
     <g transform="translate(14.798437 217.01)rotate(-90)scale(0.1 -0.1)">
      <defs>
       <path id="DejaVuSans-50" d="M 1259 4147 
L 1259 2394 
L 2053 2394 
Q 2494 2394 2734 2622 
Q 2975 2850 2975 3272 
Q 2975 3691 2734 3919 
Q 2494 4147 2053 4147 
L 1259 4147 
z
M 628 4666 
L 2053 4666 
Q 2838 4666 3239 4311 
Q 3641 3956 3641 3272 
Q 3641 2581 3239 2228 
Q 2838 1875 2053 1875 
L 1259 1875 
L 1259 0 
L 628 0 
L 628 4666 
z
" transform="scale(0.015625)"/>
       <path id="DejaVuSans-72" d="M 2631 2963 
Q 2534 3019 2420 3045 
Q 2306 3072 2169 3072 
Q 1681 3072 1420 2755 
Q 1159 2438 1159 1844 
L 1159 0 
L 581 0 
L 581 3500 
L 1159 3500 
L 1159 2956 
Q 1341 3275 1631 3429 
Q 1922 3584 2338 3584 
Q 2397 3584 2469 3576 
Q 2541 3569 2628 3553 
L 2631 2963 
z
" transform="scale(0.015625)"/>
       <path id="DejaVuSans-69" d="M 603 3500 
L 1178 3500 
L 1178 0 
L 603 0 
L 603 3500 
z
M 603 4863 
L 1178 4863 
L 1178 4134 
L 603 4134 
L 603 4863 
z
" transform="scale(0.015625)"/>
       <path id="DejaVuSans-63" d="M 3122 3366 
L 3122 2828 
Q 2878 2963 2633 3030 
Q 2388 3097 2138 3097 
Q 1578 3097 1268 2742 
Q 959 2388 959 1747 
Q 959 1106 1268 751 
Q 1578 397 2138 397 
Q 2388 397 2633 464 
Q 2878 531 3122 666 
L 3122 134 
Q 2881 22 2623 -34 
Q 2366 -91 2075 -91 
Q 1284 -91 818 406 
Q 353 903 353 1747 
Q 353 2603 823 3093 
Q 1294 3584 2113 3584 
Q 2378 3584 2631 3529 
Q 2884 3475 3122 3366 
z
" transform="scale(0.015625)"/>
       <path id="DejaVuSans-20" transform="scale(0.015625)"/>
       <path id="DejaVuSans-28" d="M 1984 4856 
Q 1566 4138 1362 3434 
Q 1159 2731 1159 2009 
Q 1159 1288 1364 580 
Q 1569 -128 1984 -844 
L 1484 -844 
Q 1016 -109 783 600 
Q 550 1309 550 2009 
Q 550 2706 781 3412 
Q 1013 4119 1484 4856 
L 1984 4856 
z
" transform="scale(0.015625)"/>
       <path id="DejaVuSans-55" d="M 556 4666 
L 1191 4666 
L 1191 1831 
Q 1191 1081 1462 751 
Q 1734 422 2344 422 
Q 2950 422 3222 751 
Q 3494 1081 3494 1831 
L 3494 4666 
L 4128 4666 
L 4128 1753 
Q 4128 841 3676 375 
Q 3225 -91 2344 -91 
Q 1459 -91 1007 375 
Q 556 841 556 1753 
L 556 4666 
z
" transform="scale(0.015625)"/>
       <path id="DejaVuSans-53" d="M 3425 4513 
L 3425 3897 
Q 3066 4069 2747 4153 
Q 2428 4238 2131 4238 
Q 1616 4238 1336 4038 
Q 1056 3838 1056 3469 
Q 1056 3159 1242 3001 
Q 1428 2844 1947 2747 
L 2328 2669 
Q 3034 2534 3370 2195 
Q 3706 1856 3706 1288 
Q 3706 609 3251 259 
Q 2797 -91 1919 -91 
Q 1588 -91 1214 -16 
Q 841 59 441 206 
L 441 856 
Q 825 641 1194 531 
Q 1563 422 1919 422 
Q 2459 422 2753 634 
Q 3047 847 3047 1241 
Q 3047 1584 2836 1778 
Q 2625 1972 2144 2069 
L 1759 2144 
Q 1053 2284 737 2584 
Q 422 2884 422 3419 
Q 422 4038 858 4394 
Q 1294 4750 2059 4750 
Q 2388 4750 2728 4690 
Q 3069 4631 3425 4513 
z
" transform="scale(0.015625)"/>
       <path id="DejaVuSans-29" d="M 513 4856 
L 1013 4856 
Q 1481 4119 1714 3412 
Q 1947 2706 1947 2009 
Q 1947 1309 1714 600 
Q 1481 -109 1013 -844 
L 513 -844 
Q 928 -128 1133 580 
Q 1338 1288 1338 2009 
Q 1338 2731 1133 3434 
Q 928 4138 513 4856 
z
" transform="scale(0.015625)"/>
      </defs>
      <use xlink:href="#DejaVuSans-50"/>
      <use xlink:href="#DejaVuSans-72" x="58.552734"/>
      <use xlink:href="#DejaVuSans-69" x="99.666016"/>
      <use xlink:href="#DejaVuSans-63" x="127.449219"/>
      <use xlink:href="#DejaVuSans-65" x="182.429688"/>
      <use xlink:href="#DejaVuSans-20" x="243.953125"/>
      <use xlink:href="#DejaVuSans-28" x="275.740234"/>
      <use xlink:href="#DejaVuSans-55" x="314.753906"/>
      <use xlink:href="#DejaVuSans-53" x="387.947266"/>
      <use xlink:href="#DejaVuSans-44" x="451.423828"/>
      <use xlink:href="#DejaVuSans-29" x="528.425781"/>
     </g>
    </g>
   </g>
   <g id="line2d_24">
    <path d="M 76.535115 338.88378 
L 76.768774 335.257271 
L 77.002433 335.67082 
L 77.236091 333.030467 
L 77.46975 332.919126 
L 77.703408 331.773913 
L 78.638042 333.921188 
L 78.871701 332.044311 
M 87.283409 326.620452 
L 87.750726 323.121188 
L 87.984385 322.978037 
L 88.218043 324.695857 
L 88.451702 322.914414 
L 88.68536 323.741512 
M 97.798044 325.300275 
L 98.031703 324.250496 
L 98.265361 324.584517 
L 98.49902 325.809259 
M 104.574142 325.570673 
L 104.807801 324.934443 
M 123.266827 329.35624 
L 123.500485 329.133559 
L 123.734144 329.69026 
L 123.967802 327.495268 
M 124.43512 323.598361 
L 124.668778 322.007786 
L 124.902437 322.500864 
L 125.136095 320.27406 
L 125.369754 319.876417 
L 125.603412 320.226343 
L 125.837071 322.40543 
L 126.070729 322.818979 
L 126.538047 322.659922 
L 126.771705 321.482897 
L 127.005364 321.864635 
L 127.706339 318.110879 
L 127.939998 314.118537 
M 133.547803 306.881424 
L 133.781462 306.865518 
L 134.01512 305.465813 
L 134.248779 308.233412 
L 134.482438 309.14004 
M 151.773171 300.137389 
L 152.006829 299.53297 
L 152.240488 303.207197 
L 152.474146 302.570967 
L 152.707805 296.383633 
L 152.941464 299.135327 
L 153.175122 297.353883 
L 153.408781 297.608375 
L 153.876098 292.836652 
L 154.109756 291.071115 
L 154.343415 291.039303 
M 154.810732 289.035179 
L 155.044391 287.937683 
M 164.624391 286.967433 
L 164.85805 288.462573 
L 165.091708 284.6611 
L 165.325367 284.43842 
L 165.559026 281.67082 
L 165.792684 283.770378 
L 166.260001 280.986873 
L 166.49366 280.780098 
L 166.727318 279.300864 
L 167.194636 280.764193 
L 167.661953 278.744163 
L 168.12927 275.388051 
L 168.596587 274.290555 
L 168.830245 272.000128 
L 169.063904 272.159185 
L 169.531221 270.027816 
L 169.76488 271.252558 
L 169.998538 271.491144 
L 170.232197 270.791291 
M 205.748297 285.583633 
L 205.981956 286.219863 
L 206.215615 283.977153 
M 241.731715 301.059922 
L 241.965374 299.564782 
L 242.432691 303.747992 
L 242.666349 299.008081 
L 242.900008 298.228699 
L 243.133667 295.524723 
L 243.367325 294.570378 
L 243.600984 294.268169 
L 243.834642 292.773029 
L 244.068301 294.761247 
L 244.301959 294.299981 
L 244.535618 292.264045 
L 244.769276 292.884369 
L 245.236594 284.899686 
L 245.470252 285.233707 
M 250.844399 278.123839 
L 251.078057 277.328552 
L 251.311716 278.744163 
L 251.545375 278.34652 
M 264.162937 280.493795 
L 264.396595 282.41839 
L 264.630254 279.587168 
M 268.836108 273.447551 
L 269.069766 273.129436 
M 269.537083 273.00219 
L 269.770742 273.240776 
L 270.004401 273.781571 
L 270.238059 274.767727 
L 270.471718 274.258744 
L 270.705376 275.069936 
L 270.939035 271.045783 
M 283.322938 272.89085 
L 283.556597 274.306461 
L 283.790255 273.940629 
L 284.023914 274.592764 
L 284.491231 272.954473 
L 284.72489 273.670231 
L 284.958548 273.193059 
L 285.425865 274.958596 
L 285.659524 274.242838 
L 285.893182 275.340334 
L 286.126841 269.04166 
L 286.3605 267.641954 
L 286.594158 262.09085 
M 287.762451 252.865518 
L 287.996109 250.781866 
L 288.229768 251.799833 
L 288.463427 250.272882 
L 288.697085 250.352411 
L 288.930744 251.227227 
L 289.164402 251.115886 
L 289.398061 253.040481 
L 289.631719 251.911174 
L 289.865378 252.292911 
L 290.099036 248.030172 
L 290.332695 249.191291 
M 298.043427 250.113825 
L 298.277086 247.075828 
M 299.445379 241.636063 
L 299.912696 243.449318 
L 300.146354 241.954178 
L 300.613672 243.560658 
L 300.84733 243.656093 
L 301.080989 241.795121 
L 301.314647 241.842838 
L 301.781964 237.166549 
L 302.249281 235.909995 
L 302.48294 234.589819 
L 302.716599 234.033118 
L 302.950257 232.935621 
M 316.736112 246.216917 
L 316.969771 245.644311 
L 317.437088 240.061395 
L 317.670746 239.504693 
L 317.904405 240.379509 
L 318.371722 239.170673 
L 318.60538 240.093206 
L 318.839039 239.822808 
M 325.14782 231.917654 
L 325.381479 233.524134 
L 325.615137 232.442543 
L 326.082454 233.158302 
L 326.316113 232.060805 
L 326.549771 231.822219 
L 326.78343 230.406608 
L 327.017089 230.199833 
M 334.961479 225.968906 
L 335.195138 223.567138 
L 335.428797 219.797477 
L 335.662455 218.58864 
L 335.896114 218.127374 
L 336.129772 218.684075 
L 337.064406 210.333559 
L 337.298065 211.383339 
L 337.531724 213.451085 
L 337.765382 212.401306 
L 337.999041 213.451085 
L 338.232699 211.208375 
L 338.466358 211.30381 
L 338.700016 211.128847 
M 345.476115 209.267875 
L 345.709773 210.55624 
L 345.943432 209.411026 
L 346.410749 213.530614 
L 346.644407 213.148876 
L 346.878066 214.723545 
L 347.111724 213.816917 
L 347.345383 211.351527 
L 347.579042 212.337683 
L 347.8127 212.655798 
L 348.046359 210.858449 
L 348.513676 200.742396 
M 351.784896 187.922367 
L 352.018554 188.113235 
L 352.252213 186.363604 
L 352.485871 187.906461 
L 352.71953 188.463162 
L 353.186847 185.297919 
L 353.654164 189.019863 
L 353.887823 184.932087 
L 354.822457 179.794531 
L 355.056115 175.674944 
L 355.289774 173.957124 
M 382.160508 208.599833 
L 382.394167 205.132381 
L 382.627825 205.832234 
L 382.861484 203.955356 
L 383.095142 206.834296 
L 383.328801 204.480246 
L 383.562459 204.384811 
M 385.198069 199.851674 
L 385.431728 183.898213 
L 385.665386 188.590408 
L 385.899045 189.719716 
L 386.132703 188.017801 
M 387.067338 187.858744 
L 387.300996 186.045489 
L 387.534655 187.98599 
L 387.768313 188.017801 
L 388.001972 187.68378 
M 390.104899 177.440481 
L 390.338557 172.573324 
L 390.805875 171.141807 
L 391.039533 171.09409 
L 391.273192 172.939156 
L 391.50685 173.082308 
L 391.740509 171.905283 
L 391.974167 167.881129 
L 392.207826 167.46758 
L 392.441484 166.672293 
L 392.908802 170.728258 
L 393.14246 168.612794 
L 393.376119 165.097624 
M 402.021485 186.999833 
L 402.255144 184.534443 
L 402.488802 179.269642 
M 412.53612 197.863456 
L 412.769779 192.232823 
M 413.938072 190.499097 
L 414.17173 191.31029 
L 414.405389 189.465224 
M 425.387341 185.488788 
L 425.621 183.61191 
L 425.854658 185.85462 
L 426.088317 183.548287 
L 426.321975 183.182455 
M 426.789292 178.426638 
L 427.022951 178.760658 
L 427.256609 178.076711 
L 427.490268 176.120305 
L 427.723927 176.247551 
L 428.191244 177.40867 
L 428.424902 173.988935 
L 428.658561 167.801601 
M 438.004903 174.052558 
L 438.238562 177.329141 
L 438.47222 176.6611 
L 438.705879 176.390702 
L 438.939537 179.062867 
L 439.173196 175.038714 
L 439.406854 173.861689 
M 439.874172 174.720599 
L 440.10783 173.702632 
L 440.341489 171.762131 
M 450.622465 187.222514 
L 450.856124 183.882308 
M 457.398563 178.092617 
L 457.632222 173.957124 
L 457.86588 173.686726 
L 458.099539 171.746225 
L 458.333198 172.016623 
L 458.566856 169.678478 
L 458.800515 169.82163 
L 459.034173 170.887315 
L 459.267832 170.664635 
L 459.50149 166.322367 
L 459.735149 167.706166 
L 459.968807 167.165371 
L 460.202466 168.278773 
L 460.669783 164.14328 
L 460.903442 163.904693 
M 464.875637 158.146814 
L 465.342954 154.281719 
L 465.576613 154.53621 
M 466.511247 155.840481 
L 466.744906 155.331498 
L 466.978564 153.422808 
M 492.447347 231.40867 
L 492.681005 230.836063 
L 492.914664 233.508228 
L 493.148323 223.630761 
L 493.381981 228.354767 
M 499.223445 220.338272 
L 499.457104 218.238714 
L 499.690762 223.773913 
L 500.158079 218.779509 
L 500.391738 219.606608 
L 500.625396 218.270526 
L 500.859055 212.083191 
L 501.092713 214.580393 
L 501.326372 214.500864 
L 501.560031 218.318243 
L 501.793689 211.796888 
L 502.027348 209.840481 
L 502.261006 200.965076 
L 502.728323 198.89733 
L 503.19564 199.740334 
L 503.429299 196.893206 
L 503.662958 197.163604 
L 504.130275 193.314414 
L 504.363933 197.099981 
L 504.83125 190.308228 
L 505.064909 193.66434 
M 507.868812 173.813972 
L 508.10247 171.348582 
L 508.569787 174.863751 
L 508.803446 172.780098 
M 519.318081 171.09409 
L 519.551739 173.654914 
L 519.785398 183.484664 
L 520.019057 182.196299 
L 520.252715 181.575975 
L 520.720032 174.052558 
L 520.953691 174.784222 
L 521.421008 170.521483 
M 528.197106 147.330909 
L 528.430765 147.235474 
L 528.664423 149.796299 
L 528.898082 146.042543 
M 533.804911 134.383633 
L 534.03857 141.079951 
L 534.272229 135.369789 
L 534.505887 140.268758 
L 534.739546 137.962425 
L 534.973204 133.317948 
L 535.206863 132.618096 
M 541.749302 102.683486 
L 542.21662 101.156534 
L 542.450278 103.494679 
L 542.683937 104.496741 
L 542.917595 107.757418 
L 543.384912 103.876417 
L 543.618571 94.301159 
L 543.852229 91.040481 
M 544.319547 96.368906 
L 544.553205 92.026638 
M 546.889791 69.901748 
L 547.357108 76.613972 
M 562.544914 61.010437 
L 562.778573 59.753883 
M 574.4615 67.468169 
L 574.695159 60.453736 
L 574.695159 60.453736 
" clip-path="url(#p79c049931b)" style="fill: none; stroke: #00ff7f; stroke-linecap: square"/>
   </g>
   <g id="line2d_25">
    <path d="M 94.526824 316.933854 
L 94.760483 315.597772 
L 94.994141 317.077006 
L 95.2278 316.408964 
L 95.461459 316.170378 
M 101.302922 317.092911 
L 101.536581 316.345341 
M 118.126339 314.134443 
L 118.359997 315.820452 
L 118.593656 315.709112 
L 118.827314 317.760953 
L 119.060973 317.904104 
L 119.294631 319.256093 
M 120.229266 319.860511 
L 120.462924 318.4449 
M 191.027808 270.520894 
L 191.261467 273.161247 
M 198.504882 270.839009 
L 198.738541 271.666107 
L 199.205858 269.630172 
L 199.439516 270.584517 
M 200.374151 272.4773 
L 200.607809 272.493206 
M 211.122444 275.674355 
L 211.356103 276.32649 
L 211.589761 275.769789 
L 211.82342 274.465518 
L 212.057078 274.704104 
M 234.4883 290.943869 
L 234.721958 289.337389 
L 234.955617 289.750938 
M 235.422934 289.353294 
L 235.656593 290.753 
M 292.902939 239.711468 
L 293.136598 238.104988 
L 293.370256 238.757124 
L 293.603915 238.629878 
L 294.071232 240.347698 
M 304.11855 220.735916 
L 304.352208 222.946814 
L 305.286843 224.410143 
L 305.520501 223.773913 
L 305.75416 224.394237 
L 305.987818 223.742101 
L 306.221477 224.791881 
L 306.455135 224.887315 
L 306.688794 225.825754 
L 307.156111 229.022808 
M 307.857087 232.49026 
L 308.090745 234.446667 
M 312.997575 236.244016 
L 313.231234 236.084959 
L 313.464892 237.802779 
M 342.204895 202.030761 
L 342.672212 200.853736 
L 342.90587 202.555651 
L 343.373187 202.74652 
L 343.840505 205.370967 
M 344.307822 202.714708 
L 344.54148 204.846078 
M 356.458067 163.522956 
L 356.691725 159.196593 
M 378.65563 194.157418 
L 378.889288 191.644311 
L 379.122947 190.944458 
L 379.356605 192.026048 
L 379.590264 192.121483 
L 379.823922 193.266696 
M 398.750266 149.509995 
L 398.983924 146.806019 
M 406.928315 164.668169 
L 407.161974 156.763015 
L 407.395632 156.4449 
L 407.629291 155.58599 
L 407.862949 151.498213 
M 430.995146 158.226343 
L 431.228805 158.019568 
L 431.462463 158.019568 
L 431.696122 159.260216 
L 431.929781 155.013383 
L 432.397098 169.59895 
L 432.630756 169.82163 
L 432.864415 170.982749 
L 433.098073 170.251085 
M 441.042464 163.650202 
L 441.276123 161.343869 
L 441.509781 161.471115 
L 441.74344 160.484959 
L 441.977099 160.341807 
M 443.145391 162.170967 
L 443.612708 164.111468 
M 453.192709 166.513235 
L 453.426368 162.950349 
M 476.558565 139.02811 
L 476.792224 137.501159 
L 477.025882 141.04814 
M 488.007834 203.748582 
L 488.241493 198.595121 
M 488.942469 205.943574 
L 489.176127 207.45462 
L 489.643444 204.543869 
M 496.185884 183.548287 
L 496.419542 182.11677 
L 496.653201 190.849023 
M 510.672714 150.114414 
L 510.906373 155.729141 
M 516.514178 160.500864 
L 516.981495 158.496741 
M 524.224911 130.645783 
L 524.458569 131.902337 
M 553.665889 42.559774 
L 553.899547 42.337094 
L 554.133206 41.700864 
L 554.366864 41.414561 
L 554.600523 38.312941 
L 554.834182 37.438125 
M 555.301499 42.734738 
L 555.535157 43.704988 
M 566.517109 42.321188 
L 566.750768 42.877889 
L 566.984427 47.236063 
L 567.218085 49.19247 
L 567.451744 48.969789 
M 567.919061 47.776858 
L 568.152719 45.740923 
L 568.386378 48.969789 
L 568.620036 46.854325 
L 568.853695 48.349465 
L 569.087354 48.174502 
L 569.321012 48.985695 
M 578.667354 41.891733 
" clip-path="url(#p79c049931b)" style="fill: none; stroke: #ff4500; stroke-linecap: square"/>
   </g>
   <g id="line2d_26">
    <path d="M 72.329261 339.567727 
L 72.56292 339.838125 
L 72.796578 337.579509 
L 73.030237 338.629288 
L 73.263896 336.975091 
L 73.497554 338.13621 
L 73.731213 335.479951 
L 73.964871 336.911468 
L 74.19853 335.495857 
L 74.432188 337.05462 
L 74.665847 335.289082 
L 74.899505 335.511763 
L 75.133164 333.587168 
L 75.600481 332.45786 
L 75.83414 336.466107 
L 76.067798 332.266991 
L 76.301457 335.432234 
M 79.10536 329.912941 
L 79.339018 327.74976 
L 79.572677 327.908817 
L 79.806335 326.25462 
L 80.039994 326.699981 
L 80.273652 324.854914 
L 80.507311 324.98216 
L 80.740969 323.502926 
L 80.974628 323.343869 
L 81.208287 325.300275 
L 81.441945 322.946225 
L 81.675604 322.978037 
L 81.909262 323.455209 
L 82.376579 325.697919 
L 82.610238 326.429583 
L 82.843896 324.12325 
L 83.077555 322.930319 
L 83.311214 320.05138 
L 83.544872 321.276122 
L 83.778531 321.276122 
L 84.012189 322.309995 
L 84.245848 325.347992 
L 84.713165 319.30381 
L 84.946823 319.558302 
L 85.180482 322.166844 
L 85.414141 323.057565 
L 85.647799 319.812794 
L 85.881458 321.13297 
L 86.115116 319.924134 
L 86.348775 319.52649 
L 86.582433 321.641954 
L 86.816092 325.50705 
L 87.04975 323.964193 
M 88.919019 323.566549 
L 89.152677 319.860511 
L 89.386336 319.780982 
L 89.619995 318.524428 
L 89.853653 319.987757 
L 90.087312 316.647551 
L 90.554629 316.281719 
L 90.788287 316.297624 
L 91.021946 315.613677 
L 91.255604 314.134443 
L 91.489263 313.593648 
L 91.722922 313.530025 
L 91.95658 314.691144 
L 92.190239 317.474649 
L 92.423897 316.504399 
L 92.657556 316.074944 
L 93.124873 318.540334 
L 93.358531 318.413088 
L 93.59219 316.170378 
L 94.059507 314.659333 
L 94.293166 315.168316 
M 95.695117 317.299686 
L 95.928776 320.115003 
L 96.162434 319.41515 
L 96.396093 320.91029 
L 96.629751 319.780982 
L 96.86341 321.419274 
L 97.097068 320.194531 
L 97.564386 321.626048 
M 98.732678 324.441365 
L 98.966337 324.441365 
L 99.199995 324.139156 
L 99.433654 324.791291 
L 100.13463 320.942101 
L 100.368288 322.373618 
L 100.601947 322.119126 
L 100.835605 320.05138 
L 101.069264 319.176564 
M 101.77024 315.184222 
L 102.003898 318.77892 
L 102.237557 319.717359 
L 102.704874 318.540334 
L 103.172191 322.166844 
L 103.405849 321.164782 
L 103.639508 320.735327 
L 103.873167 322.389524 
L 104.106825 321.785106 
L 104.340484 323.200717 
M 105.041459 320.05138 
L 105.275118 318.508523 
L 105.508776 318.206314 
L 105.742435 320.3854 
L 105.976094 317.108817 
L 106.209752 316.742985 
L 106.443411 316.663456 
L 106.677069 316.790702 
L 106.910728 315.836358 
L 107.144386 317.554178 
L 107.378045 316.870231 
L 107.611703 316.568022 
L 107.845362 316.711174 
L 108.079021 315.963604 
L 108.546338 319.653736 
L 108.779996 319.367433 
L 109.247313 320.814855 
L 109.480972 319.94004 
L 109.71463 321.65786 
L 109.948289 318.397182 
L 110.181948 318.763015 
L 110.415606 321.053442 
L 111.116582 317.729141 
L 111.35024 318.365371 
L 111.583899 318.460805 
L 111.817557 319.955945 
L 112.051216 317.538272 
L 112.284875 316.679362 
L 112.518533 318.794826 
L 112.752192 317.28378 
L 113.219509 317.363309 
L 113.453167 319.271998 
L 113.686826 320.130909 
L 113.920485 319.319716 
L 114.154143 319.860511 
L 114.387802 317.156534 
L 114.62146 316.393059 
L 115.088777 320.576269 
L 115.322436 320.783044 
L 115.556094 321.292028 
L 115.789753 321.451085 
L 116.023412 321.975975 
L 116.25707 317.983633 
L 116.490729 317.633707 
L 116.724387 318.842543 
L 116.958046 316.552116 
L 117.425363 315.041071 
L 117.89268 314.961542 
M 119.52829 319.287904 
L 119.761948 319.844605 
L 119.995607 321.371557 
M 120.696583 319.41515 
L 120.930241 319.685548 
L 121.397558 319.383339 
L 121.864875 324.87082 
L 122.098534 325.363898 
L 122.332193 324.552705 
L 122.565851 325.713825 
L 122.79951 322.978037 
L 123.033168 325.204841 
M 128.173656 313.466402 
L 128.640974 307.597182 
L 128.874632 305.322661 
L 129.341949 303.620747 
L 129.809266 307.851674 
L 130.042925 306.499686 
L 130.276584 306.626932 
L 130.510242 307.676711 
L 130.743901 304.781866 
L 130.977559 303.573029 
L 131.211218 304.972735 
L 131.444876 304.734149 
L 131.678535 307.056387 
L 131.912193 306.324723 
L 132.145852 306.229288 
L 132.379511 303.938861 
L 132.613169 304.082013 
L 132.846828 304.734149 
L 133.080486 304.98864 
L 133.314145 305.640776 
M 134.716096 308.201601 
L 134.949755 305.847551 
L 135.417072 300.423692 
L 135.65073 301.505283 
L 135.884389 300.471409 
L 136.118047 300.391881 
L 136.351706 300.789524 
L 136.819023 299.596593 
L 137.052682 298.34004 
L 137.519999 297.433412 
L 137.753657 298.976269 
L 138.220974 304.416034 
L 138.454633 299.994237 
L 138.688292 301.234885 
L 138.92195 300.1692 
L 139.155609 300.248729 
L 139.389267 299.294384 
L 139.622926 299.866991 
L 139.856584 301.727963 
L 140.323901 300.503221 
L 140.55756 302.205135 
L 141.024877 300.741807 
L 141.258536 301.02811 
L 141.492194 299.882897 
L 141.725853 299.978331 
L 141.959511 298.944458 
L 142.19317 298.578626 
L 142.426828 299.31029 
L 142.660487 300.821336 
L 142.894146 300.344163 
L 143.127804 298.801306 
L 143.361463 298.085548 
L 143.595121 299.135327 
L 143.82878 298.721777 
L 144.062438 298.769495 
L 144.296097 300.264635 
M 144.763414 302.061984 
L 144.997073 302.252853 
L 145.230731 300.439598 
L 145.46439 300.312352 
L 145.698048 301.123545 
L 145.931707 301.234885 
L 146.165365 301.059922 
L 146.399024 300.503221 
L 146.632682 300.550938 
L 146.866341 300.201012 
L 147.1 301.409848 
L 147.567317 299.548876 
L 147.800975 297.051674 
L 148.268292 298.769495 
L 148.501951 297.92649 
L 148.73561 298.403663 
L 148.969268 298.117359 
L 149.202927 297.560658 
L 149.670244 298.944458 
L 149.903902 301.473471 
L 150.137561 298.67406 
L 150.371219 298.196888 
L 150.604878 298.45138 
L 150.838537 298.912646 
L 151.072195 298.56272 
M 155.278049 288.144458 
L 155.511708 288.128552 
L 155.745366 285.106461 
L 155.979025 286.79247 
L 156.212683 286.028994 
L 156.446342 285.997182 
L 156.68 285.567727 
M 157.147318 284.406608 
L 157.380976 283.2773 
L 157.614635 283.643132 
L 158.31561 282.768316 
L 158.549269 284.979215 
L 158.782927 283.659038 
L 159.016586 283.340923 
L 159.250245 284.6611 
L 160.184879 277.996593 
L 160.418537 279.141807 
L 160.652196 281.209554 
L 160.885854 281.973029 
L 161.119513 280.112057 
L 161.353172 284.6611 
L 161.58683 282.132087 
L 162.054147 282.990997 
L 162.287806 285.40867 
L 162.521464 283.786284 
L 162.755123 280.827816 
L 162.988781 281.368611 
L 163.22244 285.249612 
L 163.456099 280.127963 
L 163.689757 284.6611 
L 164.157074 285.790408 
L 164.390733 284.183928 
M 170.933172 269.37568 
L 171.634148 267.005724 
L 171.867807 266.210437 
L 172.101465 266.480835 
L 172.335124 264.333559 
L 172.568782 264.55624 
L 172.802441 264.047256 
L 173.036099 263.045194 
L 173.269758 261.041071 
L 173.737075 265.590113 
L 173.970734 263.92001 
L 174.204392 269.757418 
L 174.438051 270.298213 
L 174.671709 271.634296 
L 175.139026 259.879951 
L 175.372685 261.645489 
L 175.606344 261.104693 
L 176.073661 261.6773 
L 176.307319 261.979509 
L 176.540978 260.866107 
L 176.774636 260.802484 
L 177.008295 263.888199 
L 177.241953 265.446962 
L 177.475612 268.898508 
L 177.709271 269.153 
L 178.176588 261.947698 
L 178.643905 266.862573 
L 178.877563 266.305872 
L 179.111222 267.594237 
L 179.34488 267.975975 
L 179.578539 265.383339 
L 179.812198 266.305872 
L 180.045856 268.612205 
L 180.279515 263.888199 
L 180.513173 265.52649 
L 180.746832 264.603957 
L 181.214149 272.429583 
L 181.447807 270.027816 
L 181.681466 273.813383 
L 182.148783 266.846667 
L 182.382442 268.055503 
L 182.6161 264.651674 
L 182.849759 263.840481 
L 183.083417 265.510584 
L 183.317076 264.254031 
L 183.550735 264.635769 
L 183.784393 264.460805 
L 184.018052 266.767138 
L 184.25171 265.446962 
L 184.485369 266.242249 
L 184.719027 268.135032 
L 184.952686 266.16272 
L 185.186344 268.309995 
L 185.420003 265.796888 
L 185.653662 266.067286 
L 185.88732 266.767138 
L 186.120979 268.246372 
L 186.354637 268.771262 
L 186.821954 272.206903 
L 187.055613 270.393648 
L 187.289271 271.634296 
L 187.52293 270.282308 
L 187.756589 274.958596 
L 187.990247 274.560953 
L 188.223906 271.013972 
L 188.457564 273.717948 
L 188.691223 270.520894 
L 188.924881 272.4773 
L 189.15854 270.489082 
L 189.392198 272.270526 
L 189.625857 271.236652 
L 189.859516 271.188935 
L 190.326833 274.370084 
L 190.560491 275.213088 
L 190.79415 273.845194 
M 191.495125 274.545047 
L 191.728784 274.370084 
L 191.962443 274.051969 
L 192.196101 275.165371 
L 192.42976 274.815445 
L 192.663418 274.226932 
L 192.897077 274.465518 
L 193.130735 274.529141 
L 193.364394 275.658449 
L 193.598052 275.722072 
L 193.831711 276.692322 
L 194.06537 278.919126 
L 194.299028 276.708228 
L 194.532687 278.219274 
L 195.000004 276.167433 
L 195.233662 276.708228 
L 195.467321 278.298802 
L 195.700979 276.024281 
L 195.934638 276.199244 
L 196.168297 278.107934 
L 196.635614 270.250496 
L 196.869272 272.779509 
L 197.102931 274.020157 
L 197.336589 271.586579 
M 197.803906 270.218685 
L 198.037565 272.413677 
L 198.271224 273.256682 
M 199.673175 271.650202 
L 200.140492 274.258744 
M 200.841468 275.260805 
L 201.075126 274.704104 
L 201.308785 275.213088 
L 201.542443 274.958596 
L 201.776102 277.853442 
L 202.009761 278.823692 
L 202.243419 280.796004 
L 202.477078 280.621041 
L 202.710736 278.664635 
L 202.944395 277.869347 
L 203.411712 280.986873 
L 203.879029 280.080246 
L 204.112688 275.785695 
L 204.346346 278.505577 
L 204.580005 277.59895 
L 204.813663 277.917065 
L 205.047322 279.889377 
L 205.28098 280.907344 
L 205.514639 280.382455 
M 206.449273 284.183928 
L 206.682932 284.979215 
L 206.91659 282.513825 
M 207.383907 282.816034 
L 207.851224 277.82163 
L 208.084883 278.251085 
L 208.5522 273.797477 
L 208.785859 273.8611 
L 209.019517 272.859038 
L 209.253176 274.306461 
L 209.486834 274.433707 
L 209.954151 278.044311 
L 210.18781 278.887315 
L 210.421469 274.910879 
L 210.655127 275.388051 
L 210.888786 275.499392 
M 212.290737 274.38599 
L 212.524396 274.592764 
L 212.758054 275.57892 
L 212.991713 277.48761 
L 213.225371 276.930909 
L 213.45903 275.944752 
L 213.692688 276.342396 
L 214.160005 279.284959 
L 214.393664 282.593353 
L 215.09464 299.53297 
L 215.561957 286.028994 
L 215.795615 286.808375 
L 216.029274 289.512352 
L 216.262932 295.286137 
L 216.496591 292.407197 
L 216.73025 292.518537 
L 216.963908 296.510879 
L 217.197567 291.325607 
L 217.431225 294.999833 
L 217.664884 294.888493 
L 217.898542 293.759185 
L 218.132201 294.506755 
L 218.365859 292.343574 
L 218.599518 291.83459 
L 218.833177 293.600128 
L 219.066835 297.369789 
L 219.300494 294.379509 
L 219.534152 297.051674 
L 219.767811 297.274355 
L 220.001469 297.799244 
L 220.235128 296.510879 
L 220.468787 298.133265 
L 220.702445 297.831056 
L 220.936104 295.302043 
L 221.169762 296.129141 
M 221.637079 292.152705 
L 221.870738 294.045489 
L 222.338055 289.973618 
L 222.571714 291.118832 
L 222.805372 290.530319 
L 223.272689 294.061395 
L 223.506348 289.89409 
L 223.740006 289.878184 
L 223.973665 290.180393 
L 224.207323 289.321483 
L 224.440982 290.816623 
L 224.674641 284.342985 
L 224.908299 283.563604 
L 225.141958 284.804252 
L 225.375616 286.983339 
L 225.609275 282.959185 
L 225.842933 283.38864 
L 226.076592 286.363015 
L 226.31025 282.577448 
L 226.777568 284.120305 
L 227.011226 285.488199 
L 227.244885 285.869936 
L 227.478543 289.575975 
L 227.712202 288.414855 
L 227.94586 288.049023 
L 228.179519 291.516476 
L 228.413177 292.820747 
L 228.646836 290.689377 
L 228.880495 291.023397 
L 229.114153 286.0449 
L 229.347812 285.392764 
L 229.58147 285.392764 
L 230.048787 287.12649 
L 230.516104 288.573913 
L 230.749763 289.432823 
L 230.983422 285.710879 
L 231.21708 287.555945 
L 231.450739 291.707344 
L 231.684397 285.63135 
L 231.918056 287.031056 
L 232.385373 293.21839 
L 232.619031 293.21839 
L 232.85269 295.445194 
L 233.086349 292.725312 
L 233.320007 288.176269 
L 233.553666 286.585695 
L 233.787324 289.623692 
L 234.020983 296.685842 
L 234.254641 294.045489 
M 235.890251 292.693501 
L 236.12391 294.745341 
L 236.357568 293.950054 
L 236.591227 293.822808 
L 237.058544 298.594531 
L 237.292203 298.546814 
L 237.525861 297.846962 
L 237.75952 301.902926 
L 237.993178 299.008081 
L 238.226837 302.077889 
L 238.460495 299.501159 
L 238.694154 304.161542 
L 238.927813 302.904988 
L 239.161471 300.646372 
L 239.39513 305.274944 
L 239.628788 302.475533 
L 239.862447 303.588935 
L 240.096105 302.284664 
L 240.329764 296.304104 
L 240.563422 298.069642 
L 240.797081 302.777742 
L 241.03074 301.918832 
L 241.264398 300.010143 
L 241.498057 301.409848 
M 245.703911 285.058744 
L 246.171228 282.068464 
L 246.404886 283.531792 
L 246.638545 281.416328 
L 246.872203 282.227521 
L 247.105862 278.998655 
L 247.339521 280.477889 
L 247.573179 279.396299 
L 247.806838 280.302926 
L 248.040496 276.21515 
L 248.274155 276.596888 
L 248.507813 276.644605 
L 248.741472 276.565076 
L 249.208789 279.857565 
L 249.442448 277.980688 
L 249.909765 276.119716 
L 250.143423 277.042249 
L 250.377082 274.004252 
L 250.61074 274.910879 
M 251.779033 278.45786 
L 252.24635 273.606608 
L 252.713667 274.545047 
L 252.947326 273.065813 
L 253.180984 270.568611 
L 253.414643 270.345931 
L 253.648302 272.302337 
L 253.88196 270.314119 
L 254.115619 270.202779 
L 254.349277 268.866696 
M 254.816594 270.377742 
L 255.050253 271.316181 
L 255.283912 269.073471 
L 255.51757 272.350054 
L 255.984887 273.8611 
L 256.218546 272.684075 
L 256.452204 275.403957 
L 256.685863 272.429583 
L 256.919521 275.46758 
L 257.15318 274.767727 
L 257.386839 277.805724 
L 257.620497 277.089966 
L 257.854156 279.491733 
L 258.087814 277.694384 
L 258.321473 278.775975 
L 258.555131 277.121777 
L 258.78879 277.678478 
L 259.022448 274.131498 
L 259.256107 273.542985 
L 259.489766 275.181277 
L 259.723424 274.704104 
L 259.957083 279.173618 
L 260.190741 276.867286 
L 260.4244 276.676417 
L 260.658058 278.219274 
L 260.891717 277.137683 
L 261.125375 277.789819 
L 261.359034 276.008375 
L 261.592693 276.485548 
L 261.826351 277.233118 
L 262.06001 278.537389 
L 262.293668 277.964782 
L 262.527327 279.31677 
L 262.760985 276.867286 
L 262.994644 278.871409 
L 263.228302 277.376269 
L 263.461961 274.417801 
L 263.69562 273.765666 
L 263.929278 270.520894 
M 264.863912 276.660511 
L 265.097571 272.413677 
L 265.331229 273.733854 
L 265.564888 276.485548 
L 265.798547 276.040187 
L 266.032205 276.994531 
L 266.265864 274.226932 
L 266.499522 273.781571 
L 266.733181 272.604546 
M 267.667815 269.582455 
L 267.901474 269.025754 
L 268.135132 270.218685 
L 268.368791 273.11353 
L 268.602449 272.715886 
M 271.172693 271.188935 
L 271.406352 268.548582 
M 271.873669 267.721483 
L 272.107328 267.753294 
L 272.340986 267.65786 
M 272.808303 265.590113 
L 273.041962 266.019568 
L 273.27562 266.115003 
L 273.509279 266.592175 
L 273.742938 266.083191 
L 273.976596 266.655798 
L 274.210255 266.289966 
L 274.443913 267.451085 
L 274.91123 263.760953 
L 275.144889 263.347403 
L 275.378547 263.570084 
L 275.612206 262.981571 
L 275.845865 263.442838 
L 276.079523 264.794826 
L 276.313182 264.476711 
L 276.54684 269.502926 
L 276.780499 265.765076 
L 277.014157 270.12325 
L 277.247816 270.839009 
L 277.481474 269.439303 
L 277.715133 272.063751 
L 277.948792 271.697919 
L 278.18245 272.206903 
L 278.416109 269.757418 
L 278.649767 269.646078 
L 279.117084 273.383928 
L 279.350743 271.538861 
L 279.584401 271.634296 
L 279.81806 274.322367 
L 280.051719 272.922661 
L 280.519036 274.990408 
L 280.752694 273.431645 
L 280.986353 273.877006 
L 281.45367 271.761542 
L 281.687328 273.74976 
L 281.920987 272.222808 
L 282.154646 274.910879 
L 282.388304 273.383928 
L 282.621963 273.988346 
L 283.08928 272.302337 
M 286.827817 254.487904 
L 287.295134 251.51353 
L 287.528792 252.2611 
M 290.566354 247.88702 
L 290.800012 246.089671 
L 291.033671 240.761247 
L 291.267329 241.68378 
L 291.500988 240.49085 
L 291.734646 238.486726 
L 291.968305 237.691439 
L 292.201964 240.172735 
L 292.435622 239.10705 
L 292.669281 240.649907 
M 294.304891 242.256387 
L 294.538549 243.369789 
L 294.772208 243.481129 
L 295.005866 242.129141 
L 295.239525 241.731498 
L 295.473183 242.972146 
L 295.706842 242.797182 
L 295.9405 245.008081 
L 296.174159 245.882897 
L 296.407818 244.67406 
L 296.641476 245.978331 
L 296.875135 245.19895 
L 297.108793 248.793648 
L 297.342452 247.44166 
L 297.57611 249.15948 
L 297.809769 247.88702 
M 298.510745 241.4611 
L 298.744403 240.395415 
L 298.978062 241.222514 
L 299.21172 240.586284 
M 303.183916 232.076711 
L 303.417574 231.965371 
L 303.651233 231.313235 
L 303.884891 230.056682 
M 307.38977 233.158302 
L 307.623428 233.428699 
M 308.791721 237.739156 
L 309.02538 236.514414 
L 309.259038 237.596004 
L 309.492697 237.293795 
L 309.726355 237.309701 
L 309.960014 238.947992 
L 310.193672 237.930025 
L 310.427331 238.407197 
L 310.66099 238.120894 
L 311.128307 240.093206 
L 311.361965 243.608375 
L 311.595624 241.302043 
L 312.062941 243.831056 
L 312.296599 240.299981 
L 312.530258 242.797182 
L 312.763917 239.027521 
M 313.698551 239.934149 
L 313.932209 239.568316 
L 314.399526 237.516476 
L 314.633185 238.1368 
L 314.866844 237.802779 
L 315.334161 242.717654 
L 315.567819 242.304104 
L 315.801478 243.019863 
L 316.035136 242.940334 
L 316.268795 242.176858 
L 316.502453 242.479068 
M 319.072698 237.627816 
L 319.306356 238.216328 
L 319.540015 237.850496 
L 319.773673 238.47082 
L 320.24099 237.182455 
L 320.474649 232.315297 
L 320.708307 231.52001 
L 320.941966 229.977153 
L 321.175625 230.008964 
L 321.409283 231.440481 
L 321.642942 231.551822 
L 321.8766 229.849907 
L 322.811234 236.737094 
L 323.044893 236.307639 
L 323.278552 236.530319 
L 323.51221 232.49026 
L 323.745869 233.428699 
L 323.979527 233.317359 
L 324.213186 229.452263 
L 324.446844 229.372735 
L 324.680503 231.997182 
L 324.914161 230.502043 
M 327.250747 230.183928 
L 327.484406 230.13621 
L 327.718064 227.639009 
L 328.185381 227.464045 
L 328.886357 222.310584 
L 329.353674 218.016034 
L 329.587333 216.5368 
L 330.05465 222.087904 
L 330.288308 219.495268 
L 330.755625 223.82163 
L 330.989284 220.72001 
L 331.222943 220.433707 
L 331.456601 218.731792 
L 331.69026 220.926785 
L 331.923918 220.290555 
L 332.157577 219.049907 
L 332.391235 215.693795 
L 332.624894 216.441365 
L 332.858552 218.906755 
L 333.092211 217.045783 
L 333.32587 218.4773 
L 333.559528 218.604546 
L 333.793187 215.852853 
L 334.026845 214.564487 
L 334.260504 215.248434 
L 334.494162 221.213088 
L 334.727821 221.515297 
M 338.933675 207.804546 
L 339.167333 207.390997 
M 339.634651 205.084664 
L 339.868309 204.591586 
L 340.101968 204.480246 
L 340.335626 203.684959 
L 340.569285 204.543869 
L 340.802943 206.388935 
L 341.27026 203.748582 
L 341.503919 204.655209 
L 341.737578 203.923545 
L 341.971236 204.941512 
M 344.775139 205.784517 
L 345.008797 206.388935 
L 345.242456 209.092911 
M 348.747334 195.716181 
L 348.980993 193.250791 
L 349.214651 189.433412 
L 349.44831 190.849023 
L 349.681969 190.944458 
L 349.915627 190.419568 
L 350.149286 190.260511 
L 350.382944 189.846962 
L 350.616603 186.0773 
L 350.850261 188.733559 
L 351.08392 189.910584 
L 351.551237 185.647845 
M 355.523432 168.43783 
L 355.757091 168.231056 
L 355.99075 162.075533 
L 356.224408 163.61839 
M 356.925384 159.848729 
L 357.159042 159.7692 
L 357.392701 160.580393 
L 357.626359 157.256093 
L 358.093677 161.677889 
L 358.327335 161.725607 
L 358.560994 157.160658 
L 358.794652 170.092028 
L 359.028311 189.687904 
L 359.261969 182.625754 
L 359.495628 184.009554 
L 359.729286 198.245194 
L 360.196604 186.363604 
L 360.430262 187.795121 
L 360.897579 178.394826 
L 361.131238 178.569789 
L 361.364896 179.746814 
L 361.598555 182.97568 
L 361.832214 183.436947 
L 362.065872 180.208081 
L 362.299531 167.706166 
L 362.533189 169.233118 
L 362.766848 173.145931 
L 363.000506 182.164487 
L 363.234165 182.466696 
L 363.701482 177.360953 
L 363.935141 177.758596 
L 364.168799 176.183928 
L 364.402458 164.016034 
M 364.869775 170.076122 
L 365.103433 173.479951 
L 365.337092 172.159774 
L 365.57075 173.527668 
L 365.804409 178.251674 
L 366.038068 177.042838 
L 366.271726 176.915592 
L 366.739043 196.590997 
L 366.972702 185.647845 
L 367.20636 190.721777 
L 367.440019 189.894679 
L 367.673677 185.425165 
L 367.907336 192.550938 
L 368.374653 184.423103 
L 368.608312 183.246078 
L 368.84197 191.771557 
L 369.075629 192.026048 
L 369.309287 188.09733 
L 369.542946 192.201012 
L 369.776604 187.57244 
L 370.010263 189.369789 
L 370.47758 185.759185 
L 370.711239 185.377448 
L 370.944897 183.993648 
L 371.178556 184.391291 
L 371.412214 185.520599 
L 371.645873 189.687904 
L 371.879531 189.687904 
L 372.346849 189.003957 
L 372.580507 194.570967 
L 372.814166 192.375975 
L 373.281483 197.942985 
L 373.515141 191.53297 
L 373.7488 189.274355 
L 373.982458 190.578626 
L 374.216117 184.804841 
M 374.683434 185.711468 
L 374.917093 185.902337 
L 375.150751 188.797182 
L 375.38441 188.049612 
L 375.618068 188.590408 
L 375.851727 190.864929 
L 376.085385 187.922367 
L 376.319044 187.57244 
L 376.552703 191.039892 
L 377.02002 193.902926 
L 377.253678 200.710584 
L 377.487337 193.982455 
L 377.720995 198.070231 
L 377.954654 196.956829 
L 378.421971 199.279068 
M 380.057581 196.527374 
L 381.225874 202.317065 
L 381.459532 202.237536 
L 381.693191 205.704988 
L 381.926849 206.166255 
M 384.263435 200.646962 
L 384.497094 200.567433 
L 384.964411 197.322661 
M 388.23563 184.216328 
L 388.469289 174.959185 
L 388.702948 170.728258 
L 389.170265 170.123839 
L 389.637582 176.374797 
L 389.87124 175.325017 
M 393.609777 164.111468 
L 394.077094 160.564487 
L 394.310753 160.580393 
L 394.544411 161.391586 
L 394.77807 160.914414 
L 395.011729 158.560364 
L 395.245387 158.68761 
L 395.946363 150.114414 
M 396.41368 155.760953 
L 396.647338 155.888199 
L 396.880997 158.973913 
L 397.114656 158.035474 
L 397.348314 162.155062 
L 398.04929 158.512646 
M 399.217583 163.761542 
L 399.451241 176.342985 
L 399.6849 173.78216 
L 399.918558 176.597477 
L 400.152217 168.96272 
L 400.385875 167.865224 
L 400.619534 170.760069 
L 400.853193 168.96272 
L 401.32051 178.235769 
M 402.722461 176.199833 
L 403.189778 174.147992 
L 403.423437 158.767138 
L 404.124412 148.937389 
L 404.358071 153.375091 
L 404.591729 160.071409 
L 404.825388 156.094973 
L 405.059047 159.101159 
L 405.526364 155.315592 
L 405.760022 156.063162 
L 405.993681 167.563015 
L 406.227339 167.324428 
L 406.460998 173.352705 
L 406.694656 167.69026 
M 408.096608 168.501453 
L 409.031242 180.971557 
L 409.264901 180.653442 
L 409.498559 180.748876 
L 409.965876 187.906461 
L 410.90051 197.163604 
L 411.134169 204.066696 
L 411.367828 188.463162 
L 412.068803 177.949465 
L 412.302462 180.144458 
M 413.003437 189.512941 
L 413.237096 190.467286 
M 414.639047 187.127079 
L 414.872706 186.538567 
L 415.106365 177.472293 
L 415.340023 183.452853 
L 415.573682 182.768906 
L 415.80734 182.97568 
L 416.040999 180.223987 
L 416.274657 183.08702 
L 416.508316 181.337389 
L 416.741974 175.118243 
L 416.975633 175.786284 
L 417.209292 169.980688 
L 417.676609 172.159774 
L 417.910267 175.038714 
L 418.143926 181.846372 
L 418.377584 183.134738 
L 418.844901 174.816034 
L 419.07856 175.372735 
L 419.312219 180.176269 
M 419.779536 175.547698 
L 420.013194 174.800128 
L 420.246853 176.120305 
L 420.480511 181.560069 
L 420.71417 180.923839 
L 420.947828 181.575975 
L 421.181487 180.955651 
L 421.415146 182.530319 
L 421.648804 179.619568 
L 421.882463 181.719126 
L 422.116121 182.259922 
L 422.34978 183.532381 
L 422.583438 185.711468 
L 422.817097 186.665813 
L 423.050755 181.273766 
L 423.284414 180.62163 
L 423.518073 178.140334 
L 423.751731 179.221925 
L 423.98539 177.742691 
L 424.219048 173.973029 
L 424.686365 179.396888 
L 424.920024 177.551822 
L 425.153682 183.72325 
M 428.892219 169.105872 
L 429.125878 165.829288 
L 429.359536 168.10381 
L 429.826854 169.503515 
L 430.060512 166.131498 
L 430.294171 167.785695 
L 430.527829 165.590702 
L 430.761488 161.980098 
M 433.331732 176.629288 
L 433.799049 179.858154 
L 434.032708 177.233707 
L 434.266366 179.396888 
L 434.500025 180.255798 
L 434.733683 179.253736 
L 434.967342 180.462573 
L 435.201 182.530319 
L 435.434659 181.909995 
L 435.901976 186.952116 
L 436.135635 185.011615 
M 436.602952 186.888493 
L 437.070269 179.349171 
L 437.771245 173.209554 
M 440.575147 171.062278 
L 440.808806 165.479362 
M 442.210757 160.532676 
L 442.444416 161.137094 
L 442.911733 163.650202 
M 443.846367 172.748287 
L 444.080026 171.905283 
L 444.547343 176.899686 
L 445.01466 171.921188 
L 445.248318 172.032529 
L 445.481977 168.85138 
L 446.182953 175.961247 
L 446.416611 181.878184 
L 446.65027 180.351233 
L 446.883928 188.20867 
L 447.117587 183.72325 
L 447.351245 187.445194 
L 447.584904 183.770967 
L 448.052221 189.051674 
L 448.28588 186.538567 
L 448.519538 191.262573 
L 448.986855 185.043427 
L 449.220514 183.102926 
L 449.454172 187.540629 
M 451.089782 179.508228 
L 451.323441 179.174207 
L 451.557099 183.166549 
L 451.790758 181.114708 
L 452.024417 177.854031 
L 452.258075 177.074649 
L 452.959051 167.2449 
M 453.660026 168.167433 
L 453.893685 168.453736 
L 454.127344 167.260805 
L 454.594661 171.682602 
L 454.828319 171.937094 
L 455.061978 174.41839 
L 455.295636 171.698508 
L 455.529295 173.623103 
L 455.996612 171.84166 
L 456.230271 173.925312 
L 456.463929 179.667286 
L 456.697588 176.677006 
L 456.931246 171.746225 
L 457.164905 173.082308 
M 461.1371 163.522956 
L 461.370759 164.58864 
L 462.071734 151.386873 
L 462.539052 148.428405 
L 462.77271 150.702926 
L 463.006369 151.43459 
L 463.240027 151.370967 
L 463.473686 153.152411 
L 463.707344 153.804546 
L 463.941003 153.200128 
L 464.40832 154.329436 
L 464.641979 156.794826 
M 465.810271 151.991291 
L 466.04393 152.309406 
L 466.277588 152.261689 
M 467.212223 148.635179 
L 467.445881 150.591586 
L 467.67954 150.782455 
M 468.146857 143.370378 
L 468.380515 144.245194 
L 468.614174 141.891144 
L 468.847833 141.573029 
L 469.081491 144.817801 
L 469.31515 144.499686 
L 469.548808 142.750054 
L 469.782467 144.070231 
L 470.016125 144.086137 
L 470.249784 142.527374 
L 470.717101 143.62487 
L 470.95076 142.447845 
L 471.184418 139.44166 
L 471.418077 142.956829 
L 471.651735 141.668464 
L 471.885394 143.370378 
L 472.119052 143.259038 
L 472.352711 139.02811 
L 472.58637 142.256976 
L 472.820028 139.346225 
L 473.053687 141.38216 
L 473.754662 136.56272 
L 473.988321 139.059922 
L 474.221979 137.612499 
L 474.455638 137.866991 
L 474.689297 141.875238 
L 474.922955 148.889671 
L 475.156614 146.376564 
L 475.390272 145.628994 
L 475.623931 140.252853 
L 475.857589 145.740334 
L 476.091248 147.267286 
L 476.324906 144.706461 
M 477.259541 141.477595 
L 477.726858 140.952705 
L 477.960516 142.495562 
L 478.194175 141.970673 
M 478.661492 138.089671 
L 478.895151 139.791586 
M 479.362468 150.098508 
L 479.829785 159.053442 
L 480.063443 172.398361 
L 480.297102 174.513825 
L 480.53076 156.55624 
L 480.764419 170.585106 
L 480.998078 156.190408 
L 481.231736 170.34652 
L 481.465395 175.086431 
L 481.699053 195.525312 
L 481.932712 180.255798 
L 482.16637 193.123545 
L 482.400029 222.819568 
L 482.633687 190.324134 
L 482.867346 219.956534 
L 483.101005 204.321188 
L 483.334663 228.434296 
L 483.568322 224.871409 
L 483.80198 232.219863 
M 484.269297 219.272587 
L 484.502956 215.661984 
L 484.736614 210.206314 
L 484.970273 216.950349 
L 485.203932 211.351527 
L 485.43759 211.908228 
L 485.671249 222.85138 
L 485.904907 216.839009 
L 486.138566 219.049907 
L 486.372224 208.074944 
L 486.605883 208.059038 
L 486.839542 198.89733 
L 487.0732 194.396004 
L 487.306859 202.460216 
M 488.475151 202.492028 
L 488.70881 210.874355 
M 490.34442 204.702926 
L 490.811737 219.670231 
L 491.045396 222.724134 
L 491.279054 228.52973 
L 491.512713 226.780098 
L 491.746371 221.451674 
L 492.213688 227.845783 
M 493.61564 222.74004 
L 493.849298 224.45786 
L 494.082957 224.473766 
L 494.550274 207.231939 
L 494.783932 208.297624 
L 495.017591 207.534149 
L 495.25125 210.301748 
L 495.484908 206.961542 
L 495.718567 199.199539 
L 495.952225 197.243132 
M 496.886859 198.102043 
L 497.120518 219.558891 
L 497.354177 214.484959 
L 497.587835 213.944163 
L 497.821494 212.751233 
L 498.055152 215.04166 
L 498.288811 215.248434 
L 498.522469 216.854914 
L 498.756128 216.139156 
L 498.989786 214.803073 
M 505.298568 191.31029 
L 505.532226 185.775091 
M 505.999543 178.840187 
L 506.233202 176.613383 
L 506.700519 164.58864 
L 506.934177 164.461395 
L 507.167836 163.538861 
L 507.635153 167.165371 
M 509.037104 164.540923 
L 509.270763 163.363898 
L 509.504422 161.280246 
L 509.971739 155.092911 
L 510.205397 155.904104 
L 510.439056 155.092911 
M 511.140031 155.458744 
L 511.37369 156.285842 
L 511.607349 153.375091 
L 511.841007 156.285842 
L 512.074666 156.079068 
L 512.308324 152.882013 
L 512.541983 154.472587 
L 512.775641 153.438714 
L 513.0093 155.888199 
L 513.242958 155.633707 
L 513.476617 163.888788 
L 513.710276 162.075533 
L 513.943934 169.312646 
L 514.177593 170.728258 
L 514.411251 167.976564 
L 514.64491 163.061689 
L 514.878568 167.99247 
L 515.112227 164.016034 
L 515.579544 166.815445 
L 515.813203 164.938567 
L 516.046861 168.278773 
L 516.28052 163.459333 
M 517.215154 165.018096 
L 517.448812 167.2449 
L 517.682471 166.067875 
L 517.91613 165.654325 
L 518.149788 170.298802 
L 518.383447 168.596888 
M 518.850764 166.131498 
L 519.084422 164.381866 
M 521.654666 150.400717 
L 521.888325 139.298508 
L 522.121984 141.064045 
L 522.355642 145.279068 
L 522.589301 140.984517 
L 522.822959 131.950054 
L 523.056618 131.85462 
L 523.290276 136.769495 
L 523.523935 137.628405 
L 523.757594 141.636652 
L 523.991252 137.612499 
M 524.692228 134.415445 
L 524.925886 138.614561 
L 525.159545 137.389819 
M 525.626862 135.258449 
L 525.860521 134.733559 
L 526.094179 138.089671 
L 526.561496 140.841365 
L 526.795155 141.095857 
L 527.028813 142.622808 
L 527.262472 148.253442 
L 527.49613 145.819863 
M 529.13174 142.400128 
L 529.599057 137.564782 
L 529.832716 137.437536 
L 530.066375 133.906461 
L 530.300033 139.346225 
L 530.533692 140.904988 
L 531.001009 132.299981 
L 531.234667 130.47082 
L 531.701984 132.061395 
L 531.935643 129.707344 
L 532.169302 128.896152 
L 532.40296 131.32973 
L 532.636619 129.643721 
L 532.870277 129.309701 
L 533.103936 130.264045 
L 533.337594 132.236358 
L 533.571253 132.093206 
M 535.440521 127.703221 
L 535.67418 128.673471 
L 536.141497 121.118243 
L 536.375156 121.102337 
L 536.608814 121.356829 
L 537.076131 112.576858 
L 537.30979 112.624576 
L 537.777107 118.032529 
L 538.010765 113.069936 
L 538.244424 112.179215 
L 538.478083 107.534738 
L 538.9454 120.163898 
L 539.179058 106.325901 
L 539.412717 106.309995 
L 539.646375 102.603957 
L 539.880034 112.258744 
L 540.347351 92.965076 
L 540.58101 90.722367 
L 540.814668 82.817212 
L 541.048327 87.716181 
L 541.281985 89.131792 
L 541.515644 97.7368 
M 544.786864 84.932676 
L 545.254181 83.405724 
L 545.487839 83.580688 
L 545.955156 76.550349 
L 546.188815 77.870526 
L 546.422474 77.186579 
L 546.656132 74.625754 
M 547.590766 69.742691 
L 547.824425 74.037241 
L 548.058083 70.108523 
M 548.525401 67.452263 
L 548.759059 68.565666 
L 548.992718 61.169495 
L 549.226376 65.384517 
L 549.460035 58.656387 
L 549.693693 56.938567 
L 549.927352 52.962131 
L 550.16101 41.907639 
L 550.628328 37.740334 
L 550.861986 48.397182 
L 551.095645 52.723545 
L 551.562962 40.364782 
L 552.263937 47.458744 
L 552.497596 46.647551 
L 552.731255 45.041071 
L 552.964913 41.875828 
L 553.198572 45.899981 
L 553.43223 45.693206 
M 555.768816 49.542396 
L 556.002474 46.504399 
L 556.236133 51.737389 
L 556.469791 51.085253 
L 556.70345 52.40543 
L 557.170767 66.831939 
L 557.404426 61.964782 
L 557.638084 62.251085 
L 557.871743 65.845783 
L 558.105401 64.525607 
L 558.33906 59.928847 
L 558.572719 62.744163 
L 558.806377 63.380393 
L 559.273694 57.081719 
L 559.507353 58.751822 
L 559.741011 61.614855 
L 559.97467 58.560953 
L 560.208328 66.736505 
L 560.441987 56.572735 
L 560.675646 57.177153 
L 561.142963 60.040187 
L 561.376621 57.797477 
L 561.61028 60.692322 
M 562.077597 62.298802 
L 562.311255 57.542985 
M 563.012231 59.260805 
L 563.24589 56.111468 
L 563.479548 60.374207 
L 563.713207 57.733854 
L 563.946865 60.071998 
L 564.180524 60.310584 
L 564.414182 54.489082 
L 564.647841 59.292617 
L 564.8815 57.018096 
L 565.115158 48.397182 
L 565.582475 43.132381 
L 565.816134 39.410437 
L 566.049792 41.064635 
L 566.283451 44.802484 
M 569.554671 49.319716 
L 570.021988 59.101748 
L 570.255646 58.401895 
L 570.722963 61.169495 
L 570.956622 57.479362 
L 571.190281 61.805724 
L 571.423939 60.246962 
L 571.891256 62.505577 
L 572.124915 66.577448 
L 572.358573 68.199833 
L 572.592232 66.784222 
L 572.82589 60.342396 
L 573.059549 60.74004 
L 573.293208 57.797477 
L 573.526866 62.45786 
L 573.760525 61.662573 
M 574.928817 57.00219 
L 575.162476 52.659922 
L 575.396135 50.767138 
L 575.863452 59.547109 
L 576.09711 60.692322 
L 576.564427 50.655798 
L 576.798086 53.232529 
L 577.265403 45.438714 
L 577.499062 46.504399 
L 577.73272 42.655209 
L 578.200037 40.094384 
L 578.433696 44.977448 
M 578.901013 46.20219 
L 579.134672 47.426932 
L 579.36833 44.738861 
L 579.601989 43.482308 
L 579.601989 43.482308 
" clip-path="url(#p79c049931b)" style="fill: none; stroke: #1e90ff; stroke-linecap: square"/>
   </g>
   <g id="patch_3">
    <path d="M 46.965625 354.958125 
L 46.965625 22.318125 
" style="fill: none; stroke: #000000; stroke-width: 0.8; stroke-linejoin: miter; stroke-linecap: square"/>
   </g>
   <g id="patch_4">
    <path d="M 604.965625 354.958125 
L 604.965625 22.318125 
" style="fill: none; stroke: #000000; stroke-width: 0.8; stroke-linejoin: miter; stroke-linecap: square"/>
   </g>
   <g id="patch_5">
    <path d="M 46.965625 354.958125 
L 604.965625 354.958125 
" style="fill: none; stroke: #000000; stroke-width: 0.8; stroke-linejoin: miter; stroke-linecap: square"/>
   </g>
   <g id="patch_6">
    <path d="M 46.965625 22.318125 
L 604.965625 22.318125 
" style="fill: none; stroke: #000000; stroke-width: 0.8; stroke-linejoin: miter; stroke-linecap: square"/>
   </g>
   <g id="text_17">
    <!-- BRK_B, Relative Strength Index (RSI), BRK_B -->
    <g transform="translate(192.84625 16.318125)scale(0.12 -0.12)">
     <defs>
      <path id="DejaVuSans-42" d="M 1259 2228 
L 1259 519 
L 2272 519 
Q 2781 519 3026 730 
Q 3272 941 3272 1375 
Q 3272 1813 3026 2020 
Q 2781 2228 2272 2228 
L 1259 2228 
z
M 1259 4147 
L 1259 2741 
L 2194 2741 
Q 2656 2741 2882 2914 
Q 3109 3088 3109 3444 
Q 3109 3797 2882 3972 
Q 2656 4147 2194 4147 
L 1259 4147 
z
M 628 4666 
L 2241 4666 
Q 2963 4666 3353 4366 
Q 3744 4066 3744 3513 
Q 3744 3084 3544 2831 
Q 3344 2578 2956 2516 
Q 3422 2416 3680 2098 
Q 3938 1781 3938 1306 
Q 3938 681 3513 340 
Q 3088 0 2303 0 
L 628 0 
L 628 4666 
z
" transform="scale(0.015625)"/>
      <path id="DejaVuSans-52" d="M 2841 2188 
Q 3044 2119 3236 1894 
Q 3428 1669 3622 1275 
L 4263 0 
L 3584 0 
L 2988 1197 
Q 2756 1666 2539 1819 
Q 2322 1972 1947 1972 
L 1259 1972 
L 1259 0 
L 628 0 
L 628 4666 
L 2053 4666 
Q 2853 4666 3247 4331 
Q 3641 3997 3641 3322 
Q 3641 2881 3436 2590 
Q 3231 2300 2841 2188 
z
M 1259 4147 
L 1259 2491 
L 2053 2491 
Q 2509 2491 2742 2702 
Q 2975 2913 2975 3322 
Q 2975 3731 2742 3939 
Q 2509 4147 2053 4147 
L 1259 4147 
z
" transform="scale(0.015625)"/>
      <path id="DejaVuSans-4b" d="M 628 4666 
L 1259 4666 
L 1259 2694 
L 3353 4666 
L 4166 4666 
L 1850 2491 
L 4331 0 
L 3500 0 
L 1259 2247 
L 1259 0 
L 628 0 
L 628 4666 
z
" transform="scale(0.015625)"/>
      <path id="DejaVuSans-5f" d="M 3263 -1063 
L 3263 -1509 
L -63 -1509 
L -63 -1063 
L 3263 -1063 
z
" transform="scale(0.015625)"/>
      <path id="DejaVuSans-2c" d="M 750 794 
L 1409 794 
L 1409 256 
L 897 -744 
L 494 -744 
L 750 256 
L 750 794 
z
" transform="scale(0.015625)"/>
      <path id="DejaVuSans-6c" d="M 603 4863 
L 1178 4863 
L 1178 0 
L 603 0 
L 603 4863 
z
" transform="scale(0.015625)"/>
      <path id="DejaVuSans-76" d="M 191 3500 
L 800 3500 
L 1894 563 
L 2988 3500 
L 3597 3500 
L 2284 0 
L 1503 0 
L 191 3500 
z
" transform="scale(0.015625)"/>
      <path id="DejaVuSans-6e" d="M 3513 2113 
L 3513 0 
L 2938 0 
L 2938 2094 
Q 2938 2591 2744 2837 
Q 2550 3084 2163 3084 
Q 1697 3084 1428 2787 
Q 1159 2491 1159 1978 
L 1159 0 
L 581 0 
L 581 3500 
L 1159 3500 
L 1159 2956 
Q 1366 3272 1645 3428 
Q 1925 3584 2291 3584 
Q 2894 3584 3203 3211 
Q 3513 2838 3513 2113 
z
" transform="scale(0.015625)"/>
      <path id="DejaVuSans-67" d="M 2906 1791 
Q 2906 2416 2648 2759 
Q 2391 3103 1925 3103 
Q 1463 3103 1205 2759 
Q 947 2416 947 1791 
Q 947 1169 1205 825 
Q 1463 481 1925 481 
Q 2391 481 2648 825 
Q 2906 1169 2906 1791 
z
M 3481 434 
Q 3481 -459 3084 -895 
Q 2688 -1331 1869 -1331 
Q 1566 -1331 1297 -1286 
Q 1028 -1241 775 -1147 
L 775 -588 
Q 1028 -725 1275 -790 
Q 1522 -856 1778 -856 
Q 2344 -856 2625 -561 
Q 2906 -266 2906 331 
L 2906 616 
Q 2728 306 2450 153 
Q 2172 0 1784 0 
Q 1141 0 747 490 
Q 353 981 353 1791 
Q 353 2603 747 3093 
Q 1141 3584 1784 3584 
Q 2172 3584 2450 3431 
Q 2728 3278 2906 2969 
L 2906 3500 
L 3481 3500 
L 3481 434 
z
" transform="scale(0.015625)"/>
      <path id="DejaVuSans-68" d="M 3513 2113 
L 3513 0 
L 2938 0 
L 2938 2094 
Q 2938 2591 2744 2837 
Q 2550 3084 2163 3084 
Q 1697 3084 1428 2787 
Q 1159 2491 1159 1978 
L 1159 0 
L 581 0 
L 581 4863 
L 1159 4863 
L 1159 2956 
Q 1366 3272 1645 3428 
Q 1925 3584 2291 3584 
Q 2894 3584 3203 3211 
Q 3513 2838 3513 2113 
z
" transform="scale(0.015625)"/>
      <path id="DejaVuSans-49" d="M 628 4666 
L 1259 4666 
L 1259 0 
L 628 0 
L 628 4666 
z
" transform="scale(0.015625)"/>
      <path id="DejaVuSans-64" d="M 2906 2969 
L 2906 4863 
L 3481 4863 
L 3481 0 
L 2906 0 
L 2906 525 
Q 2725 213 2448 61 
Q 2172 -91 1784 -91 
Q 1150 -91 751 415 
Q 353 922 353 1747 
Q 353 2572 751 3078 
Q 1150 3584 1784 3584 
Q 2172 3584 2448 3432 
Q 2725 3281 2906 2969 
z
M 947 1747 
Q 947 1113 1208 752 
Q 1469 391 1925 391 
Q 2381 391 2643 752 
Q 2906 1113 2906 1747 
Q 2906 2381 2643 2742 
Q 2381 3103 1925 3103 
Q 1469 3103 1208 2742 
Q 947 2381 947 1747 
z
" transform="scale(0.015625)"/>
      <path id="DejaVuSans-78" d="M 3513 3500 
L 2247 1797 
L 3578 0 
L 2900 0 
L 1881 1375 
L 863 0 
L 184 0 
L 1544 1831 
L 300 3500 
L 978 3500 
L 1906 2253 
L 2834 3500 
L 3513 3500 
z
" transform="scale(0.015625)"/>
     </defs>
     <use xlink:href="#DejaVuSans-42"/>
     <use xlink:href="#DejaVuSans-52" x="68.603516"/>
     <use xlink:href="#DejaVuSans-4b" x="138.085938"/>
     <use xlink:href="#DejaVuSans-5f" x="203.662109"/>
     <use xlink:href="#DejaVuSans-42" x="253.662109"/>
     <use xlink:href="#DejaVuSans-2c" x="322.265625"/>
     <use xlink:href="#DejaVuSans-20" x="354.052734"/>
     <use xlink:href="#DejaVuSans-52" x="385.839844"/>
     <use xlink:href="#DejaVuSans-65" x="450.822266"/>
     <use xlink:href="#DejaVuSans-6c" x="512.345703"/>
     <use xlink:href="#DejaVuSans-61" x="540.128906"/>
     <use xlink:href="#DejaVuSans-74" x="601.408203"/>
     <use xlink:href="#DejaVuSans-69" x="640.617188"/>
     <use xlink:href="#DejaVuSans-76" x="668.400391"/>
     <use xlink:href="#DejaVuSans-65" x="727.580078"/>
     <use xlink:href="#DejaVuSans-20" x="789.103516"/>
     <use xlink:href="#DejaVuSans-53" x="820.890625"/>
     <use xlink:href="#DejaVuSans-74" x="884.367188"/>
     <use xlink:href="#DejaVuSans-72" x="923.576172"/>
     <use xlink:href="#DejaVuSans-65" x="962.439453"/>
     <use xlink:href="#DejaVuSans-6e" x="1023.962891"/>
     <use xlink:href="#DejaVuSans-67" x="1087.341797"/>
     <use xlink:href="#DejaVuSans-74" x="1150.818359"/>
     <use xlink:href="#DejaVuSans-68" x="1190.027344"/>
     <use xlink:href="#DejaVuSans-20" x="1253.40625"/>
     <use xlink:href="#DejaVuSans-49" x="1285.193359"/>
     <use xlink:href="#DejaVuSans-6e" x="1314.685547"/>
     <use xlink:href="#DejaVuSans-64" x="1378.064453"/>
     <use xlink:href="#DejaVuSans-65" x="1441.541016"/>
     <use xlink:href="#DejaVuSans-78" x="1501.314453"/>
     <use xlink:href="#DejaVuSans-20" x="1560.494141"/>
     <use xlink:href="#DejaVuSans-28" x="1592.28125"/>
     <use xlink:href="#DejaVuSans-52" x="1631.294922"/>
     <use xlink:href="#DejaVuSans-53" x="1700.777344"/>
     <use xlink:href="#DejaVuSans-49" x="1764.253906"/>
     <use xlink:href="#DejaVuSans-29" x="1793.746094"/>
     <use xlink:href="#DejaVuSans-2c" x="1832.759766"/>
     <use xlink:href="#DejaVuSans-20" x="1864.546875"/>
     <use xlink:href="#DejaVuSans-42" x="1896.333984"/>
     <use xlink:href="#DejaVuSans-52" x="1964.9375"/>
     <use xlink:href="#DejaVuSans-4b" x="2034.419922"/>
     <use xlink:href="#DejaVuSans-5f" x="2099.996094"/>
     <use xlink:href="#DejaVuSans-42" x="2149.996094"/>
    </g>
   </g>
   <g id="legend_1">
    <g id="patch_7">
     <path d="M 53.965625 74.3525 
L 203.875 74.3525 
Q 205.875 74.3525 205.875 72.3525 
L 205.875 29.318125 
Q 205.875 27.318125 203.875 27.318125 
L 53.965625 27.318125 
Q 51.965625 27.318125 51.965625 29.318125 
L 51.965625 72.3525 
Q 51.965625 74.3525 53.965625 74.3525 
z
" style="fill: #ffffff; opacity: 0.8; stroke: #cccccc; stroke-linejoin: miter"/>
    </g>
    <g id="line2d_27">
     <path d="M 55.965625 35.416562 
L 65.965625 35.416562 
L 75.965625 35.416562 
" style="fill: none; stroke: #00ff7f; stroke-linecap: square"/>
    </g>
    <g id="text_18">
     <!-- Oversold, RSI &lt;= 30 -->
     <g transform="translate(83.965625 38.916562)scale(0.1 -0.1)">
      <defs>
       <path id="DejaVuSans-4f" d="M 2522 4238 
Q 1834 4238 1429 3725 
Q 1025 3213 1025 2328 
Q 1025 1447 1429 934 
Q 1834 422 2522 422 
Q 3209 422 3611 934 
Q 4013 1447 4013 2328 
Q 4013 3213 3611 3725 
Q 3209 4238 2522 4238 
z
M 2522 4750 
Q 3503 4750 4090 4092 
Q 4678 3434 4678 2328 
Q 4678 1225 4090 567 
Q 3503 -91 2522 -91 
Q 1538 -91 948 565 
Q 359 1222 359 2328 
Q 359 3434 948 4092 
Q 1538 4750 2522 4750 
z
" transform="scale(0.015625)"/>
       <path id="DejaVuSans-73" d="M 2834 3397 
L 2834 2853 
Q 2591 2978 2328 3040 
Q 2066 3103 1784 3103 
Q 1356 3103 1142 2972 
Q 928 2841 928 2578 
Q 928 2378 1081 2264 
Q 1234 2150 1697 2047 
L 1894 2003 
Q 2506 1872 2764 1633 
Q 3022 1394 3022 966 
Q 3022 478 2636 193 
Q 2250 -91 1575 -91 
Q 1294 -91 989 -36 
Q 684 19 347 128 
L 347 722 
Q 666 556 975 473 
Q 1284 391 1588 391 
Q 1994 391 2212 530 
Q 2431 669 2431 922 
Q 2431 1156 2273 1281 
Q 2116 1406 1581 1522 
L 1381 1569 
Q 847 1681 609 1914 
Q 372 2147 372 2553 
Q 372 3047 722 3315 
Q 1072 3584 1716 3584 
Q 2034 3584 2315 3537 
Q 2597 3491 2834 3397 
z
" transform="scale(0.015625)"/>
       <path id="DejaVuSans-6f" d="M 1959 3097 
Q 1497 3097 1228 2736 
Q 959 2375 959 1747 
Q 959 1119 1226 758 
Q 1494 397 1959 397 
Q 2419 397 2687 759 
Q 2956 1122 2956 1747 
Q 2956 2369 2687 2733 
Q 2419 3097 1959 3097 
z
M 1959 3584 
Q 2709 3584 3137 3096 
Q 3566 2609 3566 1747 
Q 3566 888 3137 398 
Q 2709 -91 1959 -91 
Q 1206 -91 779 398 
Q 353 888 353 1747 
Q 353 2609 779 3096 
Q 1206 3584 1959 3584 
z
" transform="scale(0.015625)"/>
       <path id="DejaVuSans-3c" d="M 4684 3150 
L 1459 2003 
L 4684 863 
L 4684 294 
L 678 1747 
L 678 2266 
L 4684 3719 
L 4684 3150 
z
" transform="scale(0.015625)"/>
       <path id="DejaVuSans-3d" d="M 678 2906 
L 4684 2906 
L 4684 2381 
L 678 2381 
L 678 2906 
z
M 678 1631 
L 4684 1631 
L 4684 1100 
L 678 1100 
L 678 1631 
z
" transform="scale(0.015625)"/>
      </defs>
      <use xlink:href="#DejaVuSans-4f"/>
      <use xlink:href="#DejaVuSans-76" x="78.710938"/>
      <use xlink:href="#DejaVuSans-65" x="137.890625"/>
      <use xlink:href="#DejaVuSans-72" x="199.414062"/>
      <use xlink:href="#DejaVuSans-73" x="240.527344"/>
      <use xlink:href="#DejaVuSans-6f" x="292.626953"/>
      <use xlink:href="#DejaVuSans-6c" x="353.808594"/>
      <use xlink:href="#DejaVuSans-64" x="381.591797"/>
      <use xlink:href="#DejaVuSans-2c" x="445.068359"/>
      <use xlink:href="#DejaVuSans-20" x="476.855469"/>
      <use xlink:href="#DejaVuSans-52" x="508.642578"/>
      <use xlink:href="#DejaVuSans-53" x="578.125"/>
      <use xlink:href="#DejaVuSans-49" x="641.601562"/>
      <use xlink:href="#DejaVuSans-20" x="671.09375"/>
      <use xlink:href="#DejaVuSans-3c" x="702.880859"/>
      <use xlink:href="#DejaVuSans-3d" x="786.669922"/>
      <use xlink:href="#DejaVuSans-20" x="870.458984"/>
      <use xlink:href="#DejaVuSans-33" x="902.246094"/>
      <use xlink:href="#DejaVuSans-30" x="965.869141"/>
     </g>
    </g>
    <g id="line2d_28">
     <path d="M 55.965625 50.094687 
L 65.965625 50.094687 
L 75.965625 50.094687 
" style="fill: none; stroke: #ff4500; stroke-linecap: square"/>
    </g>
    <g id="text_19">
     <!-- Overbought, RSI &gt;= 70 -->
     <g transform="translate(83.965625 53.594687)scale(0.1 -0.1)">
      <defs>
       <path id="DejaVuSans-62" d="M 3116 1747 
Q 3116 2381 2855 2742 
Q 2594 3103 2138 3103 
Q 1681 3103 1420 2742 
Q 1159 2381 1159 1747 
Q 1159 1113 1420 752 
Q 1681 391 2138 391 
Q 2594 391 2855 752 
Q 3116 1113 3116 1747 
z
M 1159 2969 
Q 1341 3281 1617 3432 
Q 1894 3584 2278 3584 
Q 2916 3584 3314 3078 
Q 3713 2572 3713 1747 
Q 3713 922 3314 415 
Q 2916 -91 2278 -91 
Q 1894 -91 1617 61 
Q 1341 213 1159 525 
L 1159 0 
L 581 0 
L 581 4863 
L 1159 4863 
L 1159 2969 
z
" transform="scale(0.015625)"/>
       <path id="DejaVuSans-75" d="M 544 1381 
L 544 3500 
L 1119 3500 
L 1119 1403 
Q 1119 906 1312 657 
Q 1506 409 1894 409 
Q 2359 409 2629 706 
Q 2900 1003 2900 1516 
L 2900 3500 
L 3475 3500 
L 3475 0 
L 2900 0 
L 2900 538 
Q 2691 219 2414 64 
Q 2138 -91 1772 -91 
Q 1169 -91 856 284 
Q 544 659 544 1381 
z
M 1991 3584 
L 1991 3584 
z
" transform="scale(0.015625)"/>
       <path id="DejaVuSans-3e" d="M 678 3150 
L 678 3719 
L 4684 2266 
L 4684 1747 
L 678 294 
L 678 863 
L 3897 2003 
L 678 3150 
z
" transform="scale(0.015625)"/>
      </defs>
      <use xlink:href="#DejaVuSans-4f"/>
      <use xlink:href="#DejaVuSans-76" x="78.710938"/>
      <use xlink:href="#DejaVuSans-65" x="137.890625"/>
      <use xlink:href="#DejaVuSans-72" x="199.414062"/>
      <use xlink:href="#DejaVuSans-62" x="240.527344"/>
      <use xlink:href="#DejaVuSans-6f" x="304.003906"/>
      <use xlink:href="#DejaVuSans-75" x="365.185547"/>
      <use xlink:href="#DejaVuSans-67" x="428.564453"/>
      <use xlink:href="#DejaVuSans-68" x="492.041016"/>
      <use xlink:href="#DejaVuSans-74" x="555.419922"/>
      <use xlink:href="#DejaVuSans-2c" x="594.628906"/>
      <use xlink:href="#DejaVuSans-20" x="626.416016"/>
      <use xlink:href="#DejaVuSans-52" x="658.203125"/>
      <use xlink:href="#DejaVuSans-53" x="727.685547"/>
      <use xlink:href="#DejaVuSans-49" x="791.162109"/>
      <use xlink:href="#DejaVuSans-20" x="820.654297"/>
      <use xlink:href="#DejaVuSans-3e" x="852.441406"/>
      <use xlink:href="#DejaVuSans-3d" x="936.230469"/>
      <use xlink:href="#DejaVuSans-20" x="1020.019531"/>
      <use xlink:href="#DejaVuSans-37" x="1051.806641"/>
      <use xlink:href="#DejaVuSans-30" x="1115.429688"/>
     </g>
    </g>
    <g id="line2d_29">
     <path d="M 55.965625 64.772812 
L 65.965625 64.772812 
L 75.965625 64.772812 
" style="fill: none; stroke: #1e90ff; stroke-linecap: square"/>
    </g>
    <g id="text_20">
     <!-- Neutral -->
     <g transform="translate(83.965625 68.272812)scale(0.1 -0.1)">
      <defs>
       <path id="DejaVuSans-4e" d="M 628 4666 
L 1478 4666 
L 3547 763 
L 3547 4666 
L 4159 4666 
L 4159 0 
L 3309 0 
L 1241 3903 
L 1241 0 
L 628 0 
L 628 4666 
z
" transform="scale(0.015625)"/>
      </defs>
      <use xlink:href="#DejaVuSans-4e"/>
      <use xlink:href="#DejaVuSans-65" x="74.804688"/>
      <use xlink:href="#DejaVuSans-75" x="136.328125"/>
      <use xlink:href="#DejaVuSans-74" x="199.707031"/>
      <use xlink:href="#DejaVuSans-72" x="238.916016"/>
      <use xlink:href="#DejaVuSans-61" x="280.029297"/>
      <use xlink:href="#DejaVuSans-6c" x="341.308594"/>
     </g>
    </g>
   </g>
  </g>
 </g>
 <defs>
  <clipPath id="p79c049931b">
   <rect x="46.965625" y="22.318125" width="558" height="332.64"/>
  </clipPath>
 </defs>
</svg>
