<?xml version="1.0" encoding="utf-8" standalone="no"?>
<!DOCTYPE svg PUBLIC "-//W3C//DTD SVG 1.1//EN"
  "http://www.w3.org/Graphics/SVG/1.1/DTD/svg11.dtd">
<svg xmlns:xlink="http://www.w3.org/1999/xlink" width="605.803125pt" height="378.83625pt" viewBox="0 0 605.803125 378.83625" xmlns="http://www.w3.org/2000/svg" version="1.1">
 <metadata>
  <rdf:RDF xmlns:dc="http://purl.org/dc/elements/1.1/" xmlns:cc="http://creativecommons.org/ns#" xmlns:rdf="http://www.w3.org/1999/02/22-rdf-syntax-ns#">
   <cc:Work>
    <dc:type rdf:resource="http://purl.org/dc/dcmitype/StillImage"/>
    <dc:date>2023-03-19T14:15:25.539483</dc:date>
    <dc:format>image/svg+xml</dc:format>
    <dc:creator>
     <cc:Agent>
      <dc:title>Matplotlib v3.5.1, https://matplotlib.org/</dc:title>
     </cc:Agent>
    </dc:creator>
   </cc:Work>
  </rdf:RDF>
 </metadata>
 <defs>
  <style type="text/css">*{stroke-linejoin: round; stroke-linecap: butt}</style>
 </defs>
 <g id="figure_1">
  <g id="patch_1">
   <path d="M 0 378.83625 
L 605.803125 378.83625 
L 605.803125 0 
L 0 0 
z
" style="fill: #ffffff"/>
  </g>
  <g id="axes_1">
   <g id="patch_2">
    <path d="M 40.603125 354.958125 
L 598.603125 354.958125 
L 598.603125 22.318125 
L 40.603125 22.318125 
z
" style="fill: #ffffff"/>
   </g>
   <g id="matplotlib.axis_1">
    <g id="xtick_1">
     <g id="line2d_1">
      <defs>
       <path id="md47326926e" d="M 0 0 
L 0 3.5 
" style="stroke: #000000; stroke-width: 0.8"/>
      </defs>
      <g>
       <use xlink:href="#md47326926e" x="55.265392" y="354.958125" style="stroke: #000000; stroke-width: 0.8"/>
      </g>
     </g>
     <g id="text_1">
      <!-- 2013 -->
      <g transform="translate(42.540392 369.556562)scale(0.1 -0.1)">
       <defs>
        <path id="DejaVuSans-32" d="M 1228 531 
L 3431 531 
L 3431 0 
L 469 0 
L 469 531 
Q 828 903 1448 1529 
Q 2069 2156 2228 2338 
Q 2531 2678 2651 2914 
Q 2772 3150 2772 3378 
Q 2772 3750 2511 3984 
Q 2250 4219 1831 4219 
Q 1534 4219 1204 4116 
Q 875 4013 500 3803 
L 500 4441 
Q 881 4594 1212 4672 
Q 1544 4750 1819 4750 
Q 2544 4750 2975 4387 
Q 3406 4025 3406 3419 
Q 3406 3131 3298 2873 
Q 3191 2616 2906 2266 
Q 2828 2175 2409 1742 
Q 1991 1309 1228 531 
z
" transform="scale(0.015625)"/>
        <path id="DejaVuSans-30" d="M 2034 4250 
Q 1547 4250 1301 3770 
Q 1056 3291 1056 2328 
Q 1056 1369 1301 889 
Q 1547 409 2034 409 
Q 2525 409 2770 889 
Q 3016 1369 3016 2328 
Q 3016 3291 2770 3770 
Q 2525 4250 2034 4250 
z
M 2034 4750 
Q 2819 4750 3233 4129 
Q 3647 3509 3647 2328 
Q 3647 1150 3233 529 
Q 2819 -91 2034 -91 
Q 1250 -91 836 529 
Q 422 1150 422 2328 
Q 422 3509 836 4129 
Q 1250 4750 2034 4750 
z
" transform="scale(0.015625)"/>
        <path id="DejaVuSans-31" d="M 794 531 
L 1825 531 
L 1825 4091 
L 703 3866 
L 703 4441 
L 1819 4666 
L 2450 4666 
L 2450 531 
L 3481 531 
L 3481 0 
L 794 0 
L 794 531 
z
" transform="scale(0.015625)"/>
        <path id="DejaVuSans-33" d="M 2597 2516 
Q 3050 2419 3304 2112 
Q 3559 1806 3559 1356 
Q 3559 666 3084 287 
Q 2609 -91 1734 -91 
Q 1441 -91 1130 -33 
Q 819 25 488 141 
L 488 750 
Q 750 597 1062 519 
Q 1375 441 1716 441 
Q 2309 441 2620 675 
Q 2931 909 2931 1356 
Q 2931 1769 2642 2001 
Q 2353 2234 1838 2234 
L 1294 2234 
L 1294 2753 
L 1863 2753 
Q 2328 2753 2575 2939 
Q 2822 3125 2822 3475 
Q 2822 3834 2567 4026 
Q 2313 4219 1838 4219 
Q 1578 4219 1281 4162 
Q 984 4106 628 3988 
L 628 4550 
Q 988 4650 1302 4700 
Q 1616 4750 1894 4750 
Q 2613 4750 3031 4423 
Q 3450 4097 3450 3541 
Q 3450 3153 3228 2886 
Q 3006 2619 2597 2516 
z
" transform="scale(0.015625)"/>
       </defs>
       <use xlink:href="#DejaVuSans-32"/>
       <use xlink:href="#DejaVuSans-30" x="63.623047"/>
       <use xlink:href="#DejaVuSans-31" x="127.246094"/>
       <use xlink:href="#DejaVuSans-33" x="190.869141"/>
      </g>
     </g>
    </g>
    <g id="xtick_2">
     <g id="line2d_2">
      <g>
       <use xlink:href="#md47326926e" x="105.992664" y="354.958125" style="stroke: #000000; stroke-width: 0.8"/>
      </g>
     </g>
     <g id="text_2">
      <!-- 2014 -->
      <g transform="translate(93.267664 369.556562)scale(0.1 -0.1)">
       <defs>
        <path id="DejaVuSans-34" d="M 2419 4116 
L 825 1625 
L 2419 1625 
L 2419 4116 
z
M 2253 4666 
L 3047 4666 
L 3047 1625 
L 3713 1625 
L 3713 1100 
L 3047 1100 
L 3047 0 
L 2419 0 
L 2419 1100 
L 313 1100 
L 313 1709 
L 2253 4666 
z
" transform="scale(0.015625)"/>
       </defs>
       <use xlink:href="#DejaVuSans-32"/>
       <use xlink:href="#DejaVuSans-30" x="63.623047"/>
       <use xlink:href="#DejaVuSans-31" x="127.246094"/>
       <use xlink:href="#DejaVuSans-34" x="190.869141"/>
      </g>
     </g>
    </g>
    <g id="xtick_3">
     <g id="line2d_3">
      <g>
       <use xlink:href="#md47326926e" x="156.719937" y="354.958125" style="stroke: #000000; stroke-width: 0.8"/>
      </g>
     </g>
     <g id="text_3">
      <!-- 2015 -->
      <g transform="translate(143.994937 369.556562)scale(0.1 -0.1)">
       <defs>
        <path id="DejaVuSans-35" d="M 691 4666 
L 3169 4666 
L 3169 4134 
L 1269 4134 
L 1269 2991 
Q 1406 3038 1543 3061 
Q 1681 3084 1819 3084 
Q 2600 3084 3056 2656 
Q 3513 2228 3513 1497 
Q 3513 744 3044 326 
Q 2575 -91 1722 -91 
Q 1428 -91 1123 -41 
Q 819 9 494 109 
L 494 744 
Q 775 591 1075 516 
Q 1375 441 1709 441 
Q 2250 441 2565 725 
Q 2881 1009 2881 1497 
Q 2881 1984 2565 2268 
Q 2250 2553 1709 2553 
Q 1456 2553 1204 2497 
Q 953 2441 691 2322 
L 691 4666 
z
" transform="scale(0.015625)"/>
       </defs>
       <use xlink:href="#DejaVuSans-32"/>
       <use xlink:href="#DejaVuSans-30" x="63.623047"/>
       <use xlink:href="#DejaVuSans-31" x="127.246094"/>
       <use xlink:href="#DejaVuSans-35" x="190.869141"/>
      </g>
     </g>
    </g>
    <g id="xtick_4">
     <g id="line2d_4">
      <g>
       <use xlink:href="#md47326926e" x="207.44721" y="354.958125" style="stroke: #000000; stroke-width: 0.8"/>
      </g>
     </g>
     <g id="text_4">
      <!-- 2016 -->
      <g transform="translate(194.72221 369.556562)scale(0.1 -0.1)">
       <defs>
        <path id="DejaVuSans-36" d="M 2113 2584 
Q 1688 2584 1439 2293 
Q 1191 2003 1191 1497 
Q 1191 994 1439 701 
Q 1688 409 2113 409 
Q 2538 409 2786 701 
Q 3034 994 3034 1497 
Q 3034 2003 2786 2293 
Q 2538 2584 2113 2584 
z
M 3366 4563 
L 3366 3988 
Q 3128 4100 2886 4159 
Q 2644 4219 2406 4219 
Q 1781 4219 1451 3797 
Q 1122 3375 1075 2522 
Q 1259 2794 1537 2939 
Q 1816 3084 2150 3084 
Q 2853 3084 3261 2657 
Q 3669 2231 3669 1497 
Q 3669 778 3244 343 
Q 2819 -91 2113 -91 
Q 1303 -91 875 529 
Q 447 1150 447 2328 
Q 447 3434 972 4092 
Q 1497 4750 2381 4750 
Q 2619 4750 2861 4703 
Q 3103 4656 3366 4563 
z
" transform="scale(0.015625)"/>
       </defs>
       <use xlink:href="#DejaVuSans-32"/>
       <use xlink:href="#DejaVuSans-30" x="63.623047"/>
       <use xlink:href="#DejaVuSans-31" x="127.246094"/>
       <use xlink:href="#DejaVuSans-36" x="190.869141"/>
      </g>
     </g>
    </g>
    <g id="xtick_5">
     <g id="line2d_5">
      <g>
       <use xlink:href="#md47326926e" x="258.313461" y="354.958125" style="stroke: #000000; stroke-width: 0.8"/>
      </g>
     </g>
     <g id="text_5">
      <!-- 2017 -->
      <g transform="translate(245.588461 369.556562)scale(0.1 -0.1)">
       <defs>
        <path id="DejaVuSans-37" d="M 525 4666 
L 3525 4666 
L 3525 4397 
L 1831 0 
L 1172 0 
L 2766 4134 
L 525 4134 
L 525 4666 
z
" transform="scale(0.015625)"/>
       </defs>
       <use xlink:href="#DejaVuSans-32"/>
       <use xlink:href="#DejaVuSans-30" x="63.623047"/>
       <use xlink:href="#DejaVuSans-31" x="127.246094"/>
       <use xlink:href="#DejaVuSans-37" x="190.869141"/>
      </g>
     </g>
    </g>
    <g id="xtick_6">
     <g id="line2d_6">
      <g>
       <use xlink:href="#md47326926e" x="309.040734" y="354.958125" style="stroke: #000000; stroke-width: 0.8"/>
      </g>
     </g>
     <g id="text_6">
      <!-- 2018 -->
      <g transform="translate(296.315734 369.556562)scale(0.1 -0.1)">
       <defs>
        <path id="DejaVuSans-38" d="M 2034 2216 
Q 1584 2216 1326 1975 
Q 1069 1734 1069 1313 
Q 1069 891 1326 650 
Q 1584 409 2034 409 
Q 2484 409 2743 651 
Q 3003 894 3003 1313 
Q 3003 1734 2745 1975 
Q 2488 2216 2034 2216 
z
M 1403 2484 
Q 997 2584 770 2862 
Q 544 3141 544 3541 
Q 544 4100 942 4425 
Q 1341 4750 2034 4750 
Q 2731 4750 3128 4425 
Q 3525 4100 3525 3541 
Q 3525 3141 3298 2862 
Q 3072 2584 2669 2484 
Q 3125 2378 3379 2068 
Q 3634 1759 3634 1313 
Q 3634 634 3220 271 
Q 2806 -91 2034 -91 
Q 1263 -91 848 271 
Q 434 634 434 1313 
Q 434 1759 690 2068 
Q 947 2378 1403 2484 
z
M 1172 3481 
Q 1172 3119 1398 2916 
Q 1625 2713 2034 2713 
Q 2441 2713 2670 2916 
Q 2900 3119 2900 3481 
Q 2900 3844 2670 4047 
Q 2441 4250 2034 4250 
Q 1625 4250 1398 4047 
Q 1172 3844 1172 3481 
z
" transform="scale(0.015625)"/>
       </defs>
       <use xlink:href="#DejaVuSans-32"/>
       <use xlink:href="#DejaVuSans-30" x="63.623047"/>
       <use xlink:href="#DejaVuSans-31" x="127.246094"/>
       <use xlink:href="#DejaVuSans-38" x="190.869141"/>
      </g>
     </g>
    </g>
    <g id="xtick_7">
     <g id="line2d_7">
      <g>
       <use xlink:href="#md47326926e" x="359.768007" y="354.958125" style="stroke: #000000; stroke-width: 0.8"/>
      </g>
     </g>
     <g id="text_7">
      <!-- 2019 -->
      <g transform="translate(347.043007 369.556562)scale(0.1 -0.1)">
       <defs>
        <path id="DejaVuSans-39" d="M 703 97 
L 703 672 
Q 941 559 1184 500 
Q 1428 441 1663 441 
Q 2288 441 2617 861 
Q 2947 1281 2994 2138 
Q 2813 1869 2534 1725 
Q 2256 1581 1919 1581 
Q 1219 1581 811 2004 
Q 403 2428 403 3163 
Q 403 3881 828 4315 
Q 1253 4750 1959 4750 
Q 2769 4750 3195 4129 
Q 3622 3509 3622 2328 
Q 3622 1225 3098 567 
Q 2575 -91 1691 -91 
Q 1453 -91 1209 -44 
Q 966 3 703 97 
z
M 1959 2075 
Q 2384 2075 2632 2365 
Q 2881 2656 2881 3163 
Q 2881 3666 2632 3958 
Q 2384 4250 1959 4250 
Q 1534 4250 1286 3958 
Q 1038 3666 1038 3163 
Q 1038 2656 1286 2365 
Q 1534 2075 1959 2075 
z
" transform="scale(0.015625)"/>
       </defs>
       <use xlink:href="#DejaVuSans-32"/>
       <use xlink:href="#DejaVuSans-30" x="63.623047"/>
       <use xlink:href="#DejaVuSans-31" x="127.246094"/>
       <use xlink:href="#DejaVuSans-39" x="190.869141"/>
      </g>
     </g>
    </g>
    <g id="xtick_8">
     <g id="line2d_8">
      <g>
       <use xlink:href="#md47326926e" x="410.495279" y="354.958125" style="stroke: #000000; stroke-width: 0.8"/>
      </g>
     </g>
     <g id="text_8">
      <!-- 2020 -->
      <g transform="translate(397.770279 369.556562)scale(0.1 -0.1)">
       <use xlink:href="#DejaVuSans-32"/>
       <use xlink:href="#DejaVuSans-30" x="63.623047"/>
       <use xlink:href="#DejaVuSans-32" x="127.246094"/>
       <use xlink:href="#DejaVuSans-30" x="190.869141"/>
      </g>
     </g>
    </g>
    <g id="xtick_9">
     <g id="line2d_9">
      <g>
       <use xlink:href="#md47326926e" x="461.361531" y="354.958125" style="stroke: #000000; stroke-width: 0.8"/>
      </g>
     </g>
     <g id="text_9">
      <!-- 2021 -->
      <g transform="translate(448.636531 369.556562)scale(0.1 -0.1)">
       <use xlink:href="#DejaVuSans-32"/>
       <use xlink:href="#DejaVuSans-30" x="63.623047"/>
       <use xlink:href="#DejaVuSans-32" x="127.246094"/>
       <use xlink:href="#DejaVuSans-31" x="190.869141"/>
      </g>
     </g>
    </g>
    <g id="xtick_10">
     <g id="line2d_10">
      <g>
       <use xlink:href="#md47326926e" x="512.088804" y="354.958125" style="stroke: #000000; stroke-width: 0.8"/>
      </g>
     </g>
     <g id="text_10">
      <!-- 2022 -->
      <g transform="translate(499.363804 369.556562)scale(0.1 -0.1)">
       <use xlink:href="#DejaVuSans-32"/>
       <use xlink:href="#DejaVuSans-30" x="63.623047"/>
       <use xlink:href="#DejaVuSans-32" x="127.246094"/>
       <use xlink:href="#DejaVuSans-32" x="190.869141"/>
      </g>
     </g>
    </g>
    <g id="xtick_11">
     <g id="line2d_11">
      <g>
       <use xlink:href="#md47326926e" x="562.816076" y="354.958125" style="stroke: #000000; stroke-width: 0.8"/>
      </g>
     </g>
     <g id="text_11">
      <!-- 2023 -->
      <g transform="translate(550.091076 369.556562)scale(0.1 -0.1)">
       <use xlink:href="#DejaVuSans-32"/>
       <use xlink:href="#DejaVuSans-30" x="63.623047"/>
       <use xlink:href="#DejaVuSans-32" x="127.246094"/>
       <use xlink:href="#DejaVuSans-33" x="190.869141"/>
      </g>
     </g>
    </g>
   </g>
   <g id="matplotlib.axis_2">
    <g id="ytick_1">
     <g id="line2d_12">
      <defs>
       <path id="mf54a42f9e3" d="M 0 0 
L -3.5 0 
" style="stroke: #000000; stroke-width: 0.8"/>
      </defs>
      <g>
       <use xlink:href="#mf54a42f9e3" x="40.603125" y="323.476855" style="stroke: #000000; stroke-width: 0.8"/>
      </g>
     </g>
     <g id="text_12">
      <!-- 10 -->
      <g transform="translate(20.878125 327.276074)scale(0.1 -0.1)">
       <use xlink:href="#DejaVuSans-31"/>
       <use xlink:href="#DejaVuSans-30" x="63.623047"/>
      </g>
     </g>
    </g>
    <g id="ytick_2">
     <g id="line2d_13">
      <g>
       <use xlink:href="#mf54a42f9e3" x="40.603125" y="282.978663" style="stroke: #000000; stroke-width: 0.8"/>
      </g>
     </g>
     <g id="text_13">
      <!-- 20 -->
      <g transform="translate(20.878125 286.777882)scale(0.1 -0.1)">
       <use xlink:href="#DejaVuSans-32"/>
       <use xlink:href="#DejaVuSans-30" x="63.623047"/>
      </g>
     </g>
    </g>
    <g id="ytick_3">
     <g id="line2d_14">
      <g>
       <use xlink:href="#mf54a42f9e3" x="40.603125" y="242.480471" style="stroke: #000000; stroke-width: 0.8"/>
      </g>
     </g>
     <g id="text_14">
      <!-- 30 -->
      <g transform="translate(20.878125 246.27969)scale(0.1 -0.1)">
       <use xlink:href="#DejaVuSans-33"/>
       <use xlink:href="#DejaVuSans-30" x="63.623047"/>
      </g>
     </g>
    </g>
    <g id="ytick_4">
     <g id="line2d_15">
      <g>
       <use xlink:href="#mf54a42f9e3" x="40.603125" y="201.982279" style="stroke: #000000; stroke-width: 0.8"/>
      </g>
     </g>
     <g id="text_15">
      <!-- 40 -->
      <g transform="translate(20.878125 205.781498)scale(0.1 -0.1)">
       <use xlink:href="#DejaVuSans-34"/>
       <use xlink:href="#DejaVuSans-30" x="63.623047"/>
      </g>
     </g>
    </g>
    <g id="ytick_5">
     <g id="line2d_16">
      <g>
       <use xlink:href="#mf54a42f9e3" x="40.603125" y="161.484087" style="stroke: #000000; stroke-width: 0.8"/>
      </g>
     </g>
     <g id="text_16">
      <!-- 50 -->
      <g transform="translate(20.878125 165.283306)scale(0.1 -0.1)">
       <use xlink:href="#DejaVuSans-35"/>
       <use xlink:href="#DejaVuSans-30" x="63.623047"/>
      </g>
     </g>
    </g>
    <g id="ytick_6">
     <g id="line2d_17">
      <g>
       <use xlink:href="#mf54a42f9e3" x="40.603125" y="120.985895" style="stroke: #000000; stroke-width: 0.8"/>
      </g>
     </g>
     <g id="text_17">
      <!-- 60 -->
      <g transform="translate(20.878125 124.785114)scale(0.1 -0.1)">
       <use xlink:href="#DejaVuSans-36"/>
       <use xlink:href="#DejaVuSans-30" x="63.623047"/>
      </g>
     </g>
    </g>
    <g id="ytick_7">
     <g id="line2d_18">
      <g>
       <use xlink:href="#mf54a42f9e3" x="40.603125" y="80.487703" style="stroke: #000000; stroke-width: 0.8"/>
      </g>
     </g>
     <g id="text_18">
      <!-- 70 -->
      <g transform="translate(20.878125 84.286922)scale(0.1 -0.1)">
       <use xlink:href="#DejaVuSans-37"/>
       <use xlink:href="#DejaVuSans-30" x="63.623047"/>
      </g>
     </g>
    </g>
    <g id="ytick_8">
     <g id="line2d_19">
      <g>
       <use xlink:href="#mf54a42f9e3" x="40.603125" y="39.989511" style="stroke: #000000; stroke-width: 0.8"/>
      </g>
     </g>
     <g id="text_19">
      <!-- 80 -->
      <g transform="translate(20.878125 43.78873)scale(0.1 -0.1)">
       <use xlink:href="#DejaVuSans-38"/>
       <use xlink:href="#DejaVuSans-30" x="63.623047"/>
      </g>
     </g>
    </g>
    <g id="text_20">
     <!-- Price (US Dollars) -->
     <g transform="translate(14.798438 232.160781)rotate(-90)scale(0.1 -0.1)">
      <defs>
       <path id="DejaVuSans-50" d="M 1259 4147 
L 1259 2394 
L 2053 2394 
Q 2494 2394 2734 2622 
Q 2975 2850 2975 3272 
Q 2975 3691 2734 3919 
Q 2494 4147 2053 4147 
L 1259 4147 
z
M 628 4666 
L 2053 4666 
Q 2838 4666 3239 4311 
Q 3641 3956 3641 3272 
Q 3641 2581 3239 2228 
Q 2838 1875 2053 1875 
L 1259 1875 
L 1259 0 
L 628 0 
L 628 4666 
z
" transform="scale(0.015625)"/>
       <path id="DejaVuSans-72" d="M 2631 2963 
Q 2534 3019 2420 3045 
Q 2306 3072 2169 3072 
Q 1681 3072 1420 2755 
Q 1159 2438 1159 1844 
L 1159 0 
L 581 0 
L 581 3500 
L 1159 3500 
L 1159 2956 
Q 1341 3275 1631 3429 
Q 1922 3584 2338 3584 
Q 2397 3584 2469 3576 
Q 2541 3569 2628 3553 
L 2631 2963 
z
" transform="scale(0.015625)"/>
       <path id="DejaVuSans-69" d="M 603 3500 
L 1178 3500 
L 1178 0 
L 603 0 
L 603 3500 
z
M 603 4863 
L 1178 4863 
L 1178 4134 
L 603 4134 
L 603 4863 
z
" transform="scale(0.015625)"/>
       <path id="DejaVuSans-63" d="M 3122 3366 
L 3122 2828 
Q 2878 2963 2633 3030 
Q 2388 3097 2138 3097 
Q 1578 3097 1268 2742 
Q 959 2388 959 1747 
Q 959 1106 1268 751 
Q 1578 397 2138 397 
Q 2388 397 2633 464 
Q 2878 531 3122 666 
L 3122 134 
Q 2881 22 2623 -34 
Q 2366 -91 2075 -91 
Q 1284 -91 818 406 
Q 353 903 353 1747 
Q 353 2603 823 3093 
Q 1294 3584 2113 3584 
Q 2378 3584 2631 3529 
Q 2884 3475 3122 3366 
z
" transform="scale(0.015625)"/>
       <path id="DejaVuSans-65" d="M 3597 1894 
L 3597 1613 
L 953 1613 
Q 991 1019 1311 708 
Q 1631 397 2203 397 
Q 2534 397 2845 478 
Q 3156 559 3463 722 
L 3463 178 
Q 3153 47 2828 -22 
Q 2503 -91 2169 -91 
Q 1331 -91 842 396 
Q 353 884 353 1716 
Q 353 2575 817 3079 
Q 1281 3584 2069 3584 
Q 2775 3584 3186 3129 
Q 3597 2675 3597 1894 
z
M 3022 2063 
Q 3016 2534 2758 2815 
Q 2500 3097 2075 3097 
Q 1594 3097 1305 2825 
Q 1016 2553 972 2059 
L 3022 2063 
z
" transform="scale(0.015625)"/>
       <path id="DejaVuSans-20" transform="scale(0.015625)"/>
       <path id="DejaVuSans-28" d="M 1984 4856 
Q 1566 4138 1362 3434 
Q 1159 2731 1159 2009 
Q 1159 1288 1364 580 
Q 1569 -128 1984 -844 
L 1484 -844 
Q 1016 -109 783 600 
Q 550 1309 550 2009 
Q 550 2706 781 3412 
Q 1013 4119 1484 4856 
L 1984 4856 
z
" transform="scale(0.015625)"/>
       <path id="DejaVuSans-55" d="M 556 4666 
L 1191 4666 
L 1191 1831 
Q 1191 1081 1462 751 
Q 1734 422 2344 422 
Q 2950 422 3222 751 
Q 3494 1081 3494 1831 
L 3494 4666 
L 4128 4666 
L 4128 1753 
Q 4128 841 3676 375 
Q 3225 -91 2344 -91 
Q 1459 -91 1007 375 
Q 556 841 556 1753 
L 556 4666 
z
" transform="scale(0.015625)"/>
       <path id="DejaVuSans-53" d="M 3425 4513 
L 3425 3897 
Q 3066 4069 2747 4153 
Q 2428 4238 2131 4238 
Q 1616 4238 1336 4038 
Q 1056 3838 1056 3469 
Q 1056 3159 1242 3001 
Q 1428 2844 1947 2747 
L 2328 2669 
Q 3034 2534 3370 2195 
Q 3706 1856 3706 1288 
Q 3706 609 3251 259 
Q 2797 -91 1919 -91 
Q 1588 -91 1214 -16 
Q 841 59 441 206 
L 441 856 
Q 825 641 1194 531 
Q 1563 422 1919 422 
Q 2459 422 2753 634 
Q 3047 847 3047 1241 
Q 3047 1584 2836 1778 
Q 2625 1972 2144 2069 
L 1759 2144 
Q 1053 2284 737 2584 
Q 422 2884 422 3419 
Q 422 4038 858 4394 
Q 1294 4750 2059 4750 
Q 2388 4750 2728 4690 
Q 3069 4631 3425 4513 
z
" transform="scale(0.015625)"/>
       <path id="DejaVuSans-44" d="M 1259 4147 
L 1259 519 
L 2022 519 
Q 2988 519 3436 956 
Q 3884 1394 3884 2338 
Q 3884 3275 3436 3711 
Q 2988 4147 2022 4147 
L 1259 4147 
z
M 628 4666 
L 1925 4666 
Q 3281 4666 3915 4102 
Q 4550 3538 4550 2338 
Q 4550 1131 3912 565 
Q 3275 0 1925 0 
L 628 0 
L 628 4666 
z
" transform="scale(0.015625)"/>
       <path id="DejaVuSans-6f" d="M 1959 3097 
Q 1497 3097 1228 2736 
Q 959 2375 959 1747 
Q 959 1119 1226 758 
Q 1494 397 1959 397 
Q 2419 397 2687 759 
Q 2956 1122 2956 1747 
Q 2956 2369 2687 2733 
Q 2419 3097 1959 3097 
z
M 1959 3584 
Q 2709 3584 3137 3096 
Q 3566 2609 3566 1747 
Q 3566 888 3137 398 
Q 2709 -91 1959 -91 
Q 1206 -91 779 398 
Q 353 888 353 1747 
Q 353 2609 779 3096 
Q 1206 3584 1959 3584 
z
" transform="scale(0.015625)"/>
       <path id="DejaVuSans-6c" d="M 603 4863 
L 1178 4863 
L 1178 0 
L 603 0 
L 603 4863 
z
" transform="scale(0.015625)"/>
       <path id="DejaVuSans-61" d="M 2194 1759 
Q 1497 1759 1228 1600 
Q 959 1441 959 1056 
Q 959 750 1161 570 
Q 1363 391 1709 391 
Q 2188 391 2477 730 
Q 2766 1069 2766 1631 
L 2766 1759 
L 2194 1759 
z
M 3341 1997 
L 3341 0 
L 2766 0 
L 2766 531 
Q 2569 213 2275 61 
Q 1981 -91 1556 -91 
Q 1019 -91 701 211 
Q 384 513 384 1019 
Q 384 1609 779 1909 
Q 1175 2209 1959 2209 
L 2766 2209 
L 2766 2266 
Q 2766 2663 2505 2880 
Q 2244 3097 1772 3097 
Q 1472 3097 1187 3025 
Q 903 2953 641 2809 
L 641 3341 
Q 956 3463 1253 3523 
Q 1550 3584 1831 3584 
Q 2591 3584 2966 3190 
Q 3341 2797 3341 1997 
z
" transform="scale(0.015625)"/>
       <path id="DejaVuSans-73" d="M 2834 3397 
L 2834 2853 
Q 2591 2978 2328 3040 
Q 2066 3103 1784 3103 
Q 1356 3103 1142 2972 
Q 928 2841 928 2578 
Q 928 2378 1081 2264 
Q 1234 2150 1697 2047 
L 1894 2003 
Q 2506 1872 2764 1633 
Q 3022 1394 3022 966 
Q 3022 478 2636 193 
Q 2250 -91 1575 -91 
Q 1294 -91 989 -36 
Q 684 19 347 128 
L 347 722 
Q 666 556 975 473 
Q 1284 391 1588 391 
Q 1994 391 2212 530 
Q 2431 669 2431 922 
Q 2431 1156 2273 1281 
Q 2116 1406 1581 1522 
L 1381 1569 
Q 847 1681 609 1914 
Q 372 2147 372 2553 
Q 372 3047 722 3315 
Q 1072 3584 1716 3584 
Q 2034 3584 2315 3537 
Q 2597 3491 2834 3397 
z
" transform="scale(0.015625)"/>
       <path id="DejaVuSans-29" d="M 513 4856 
L 1013 4856 
Q 1481 4119 1714 3412 
Q 1947 2706 1947 2009 
Q 1947 1309 1714 600 
Q 1481 -109 1013 -844 
L 513 -844 
Q 928 -128 1133 580 
Q 1338 1288 1338 2009 
Q 1338 2731 1133 3434 
Q 928 4138 513 4856 
z
" transform="scale(0.015625)"/>
      </defs>
      <use xlink:href="#DejaVuSans-50"/>
      <use xlink:href="#DejaVuSans-72" x="58.552734"/>
      <use xlink:href="#DejaVuSans-69" x="99.666016"/>
      <use xlink:href="#DejaVuSans-63" x="127.449219"/>
      <use xlink:href="#DejaVuSans-65" x="182.429688"/>
      <use xlink:href="#DejaVuSans-20" x="243.953125"/>
      <use xlink:href="#DejaVuSans-28" x="275.740234"/>
      <use xlink:href="#DejaVuSans-55" x="314.753906"/>
      <use xlink:href="#DejaVuSans-53" x="387.947266"/>
      <use xlink:href="#DejaVuSans-20" x="451.423828"/>
      <use xlink:href="#DejaVuSans-44" x="483.210938"/>
      <use xlink:href="#DejaVuSans-6f" x="560.212891"/>
      <use xlink:href="#DejaVuSans-6c" x="621.394531"/>
      <use xlink:href="#DejaVuSans-6c" x="649.177734"/>
      <use xlink:href="#DejaVuSans-61" x="676.960938"/>
      <use xlink:href="#DejaVuSans-72" x="738.240234"/>
      <use xlink:href="#DejaVuSans-73" x="779.353516"/>
      <use xlink:href="#DejaVuSans-29" x="831.453125"/>
     </g>
    </g>
   </g>
   <g id="line2d_20">
    <path d="M 573.239489 175.860945 
L 573.10051 176.265927 
L 572.961531 172.540094 
L 572.822552 158.082239 
L 572.683573 157.150781 
L 572.266637 146.621251 
L 572.127658 139.736558 
L 571.988679 138.886096 
L 571.710722 133.945722 
L 571.293785 132.608876 
L 571.015827 141.052749 
L 570.73787 140.14154 
L 570.320933 140.465526 
L 570.181954 140.156929 
L 569.903997 144.920327 
L 569.348081 142.044955 
L 568.931145 103.149681 
L 568.792166 104.341138 
L 568.37523 106.042062 
L 568.236251 114.870668 
L 568.097272 109.646401 
L 567.958293 111.549816 
L 567.819314 115.636489 
L 567.402378 110.719604 
L 567.263399 112.643268 
L 566.985441 105.85982 
L 566.846462 100.979788 
L 566.429526 92.819403 
L 566.151568 104.057651 
L 566.01259 96.201002 
L 565.873611 95.634027 
L 565.317695 103.976655 
L 565.178717 99.076373 
L 565.039738 103.207189 
L 564.483822 104.179145 
L 564.344844 101.627759 
L 564.066886 108.188467 
L 563.927907 106.852026 
L 563.510971 111.833304 
L 563.233013 123.982761 
L 563.094034 115.883123 
L 562.538119 114.627679 
L 562.39914 114.789672 
L 562.121182 106.305301 
L 561.565267 110.780351 
L 561.426288 113.858213 
L 561.287309 113.311488 
L 561.14833 121.390877 
L 561.009352 117.260062 
L 560.592415 117.908033 
L 560.175479 108.471954 
L 560.0365 114.971914 
L 559.619563 111.367575 
L 559.480585 95.148049 
L 559.341606 98.873882 
L 559.063648 78.786779 
L 558.646712 82.593609 
L 558.507733 79.961227 
L 558.229775 87.93937 
L 558.090796 89.194814 
L 557.67386 84.13254 
L 557.395902 87.250901 
L 557.256923 78.746281 
L 557.117944 88.384851 
L 556.701008 81.135674 
L 556.284071 64.369423 
L 556.145093 68.621733 
L 555.728156 68.378744 
L 555.589177 81.621653 
L 555.172241 68.783726 
L 554.755304 63.239928 
L 554.616325 75.263436 
L 554.338368 44.970789 
L 554.199389 46.995698 
L 553.782453 48.008153 
L 553.643474 44.768298 
L 553.504495 47.765164 
L 553.365516 57.079748 
L 553.226537 56.715264 
L 552.809601 62.749495 
L 552.253685 79.323785 
L 551.69777 68.054758 
L 551.558791 79.961227 
L 551.419812 78.09831 
L 551.280834 66.475329 
L 550.863897 64.814903 
L 550.446961 84.173039 
L 550.307982 97.13246 
L 549.891045 114.303694 
L 549.752066 115.113657 
L 549.613088 120.21643 
L 549.474109 132.203894 
L 548.918193 119.97344 
L 548.779215 96.281998 
L 548.640236 92.88015 
L 548.501257 98.266409 
L 548.362278 93.588868 
L 547.945342 84.659017 
L 547.667384 67.163798 
L 547.528405 74.655963 
L 547.389426 74.129487 
L 546.97249 84.740013 
L 546.833511 81.975202 
L 546.694532 83.849053 
L 546.555553 74.088989 
L 545.999638 75.465927 
L 545.860659 84.821415 
L 545.72168 70.444152 
L 545.582702 69.067213 
L 545.443723 59.145156 
L 545.026786 60.765084 
L 544.60985 70.525148 
L 544.470871 85.792156 
L 544.053934 80.892685 
L 543.775977 99.805341 
L 543.636998 98.873882 
L 543.498019 103.18694 
L 543.081083 97.496944 
L 542.942104 101.222777 
L 542.803125 118.839491 
L 542.664146 118.798993 
L 542.525167 129.503475 
L 542.108231 132.710122 
L 541.969252 134.75528 
L 541.691294 112.076293 
L 541.552316 109.565405 
L 541.135379 108.309961 
L 540.857421 121.188386 
L 540.579464 128.843354 
L 540.162527 132.001403 
L 540.023548 136.132219 
L 539.88457 129.409519 
L 539.745591 131.515425 
L 539.606612 138.440616 
L 539.050697 155.490355 
L 538.911718 144.717836 
L 538.772739 150.954557 
L 538.63376 141.153995 
L 538.216824 141.437482 
L 538.077845 144.272356 
L 537.938866 150.792565 
L 537.799887 146.459258 
L 537.104993 134.269302 
L 536.966014 116.976574 
L 536.827035 119.001484 
L 536.688057 127.263115 
L 536.27112 135.119764 
L 536.132141 127.344111 
L 535.993162 126.939129 
L 535.854184 116.085614 
L 535.298268 108.917434 
L 534.881332 70.606144 
L 534.742353 74.493971 
L 534.325416 55.257329 
L 534.186438 42.419403 
L 533.90848 47.238687 
L 533.769501 47.40068 
L 533.213586 51.329005 
L 533.074607 49.709077 
L 532.935628 43.269865 
L 532.240734 58.456687 
L 531.962776 75.141942 
L 531.406861 71.294614 
L 531.267882 74.939451 
L 531.128903 67.609278 
L 530.989925 69.026715 
L 530.850946 73.926996 
L 530.434009 83.197032 
L 530.29503 98.995377 
L 530.156052 87.49389 
L 530.017073 98.387904 
L 529.878094 90.207269 
L 529.461157 81.500158 
L 529.1832 88.951825 
L 528.905242 126.534147 
L 528.488306 117.786538 
L 528.349327 118.879989 
L 527.93239 135.362753 
L 527.515454 114.182199 
L 527.376475 98.914381 
L 526.959538 103.814662 
L 526.403623 104.579673 
L 526.264644 103.612171 
L 526.125665 107.135514 
L 525.986687 114.506184 
L 525.56975 110.698949 
L 525.291792 122.727317 
L 525.013835 112.440777 
L 524.596898 117.648034 
L 524.318941 114.020206 
L 524.179962 118.717996 
L 524.040983 116.774488 
L 523.624047 109.322416 
L 523.485068 113.170959 
L 523.346089 107.783485 
L 523.20711 113.93921 
L 523.068131 111.995297 
L 522.512216 129.490516 
L 522.373237 143.340897 
L 522.234258 145.770789 
L 522.095279 133.41884 
L 521.539364 117.422054 
L 521.400385 122.44383 
L 521.261406 108.431456 
L 521.122428 109.6869 
L 520.566512 123.699274 
L 520.288555 117.990649 
L 520.149576 122.362834 
L 519.59366 144.879828 
L 519.454682 142.138911 
L 519.315703 128.964039 
L 518.759788 140.384529 
L 518.620809 135.484248 
L 518.48183 138.400118 
L 518.342851 154.24949 
L 518.203872 145.851785 
L 517.786936 144.677338 
L 517.647957 145.487301 
L 517.369999 150.995055 
L 517.23102 146.054276 
L 516.814084 139.453071 
L 516.675105 147.350623 
L 516.536126 147.593207 
L 516.397147 148.322175 
L 516.258169 155.36886 
L 515.841232 150.387583 
L 515.702253 144.231857 
L 515.424296 154.03242 
L 515.285317 167.376574 
L 514.86838 172.378101 
L 514.729401 157.636759 
L 514.590423 157.434268 
L 514.451444 153.424947 
L 513.895528 155.611849 
L 513.75655 158.082239 
L 513.617571 156.786297 
L 513.339613 166.505863 
L 512.922677 162.496542 
L 512.50574 169.70522 
L 512.366761 178.635072 
L 511.949825 184.547808 
L 511.671867 181.369105 
L 511.532888 180.315747 
L 510.837994 190.723782 
L 510.699015 190.237804 
L 510.560037 195.68481 
L 510.421058 208.542986 
L 510.004121 201.577297 
L 509.865142 195.70506 
L 509.726164 200.605341 
L 509.587185 197.608475 
L 509.448206 189.832822 
L 508.892291 187.579097 
L 508.753312 179.505783 
L 508.614333 180.153754 
L 508.475354 189.124103 
L 508.058418 188.901363 
L 507.919439 194.469865 
L 507.78046 186.025992 
L 507.641481 186.349977 
L 507.502502 181.57119 
L 507.085566 190.399796 
L 506.807608 179.465285 
L 506.529651 193.68015 
L 506.112714 193.160153 
L 505.973735 186.005743 
L 505.834756 185.823501 
L 505.556799 186.775208 
L 505.139862 190.359298 
L 504.583947 182.587695 
L 504.16701 187.119443 
L 504.028032 186.754959 
L 503.889053 185.661508 
L 503.750074 191.736237 
L 503.611095 192.262713 
L 503.194159 200.40285 
L 503.05518 199.776748 
L 502.777222 194.935594 
L 502.638243 196.717514 
L 502.221307 200.119362 
L 501.943349 197.831215 
L 501.665392 193.963637 
L 501.248455 198.013456 
L 500.970497 204.533665 
L 500.69254 198.488095 
L 500.275603 202.103774 
L 500.136624 206.113095 
L 499.858667 200.990074 
L 499.163773 218.54604 
L 499.024794 218.019563 
L 498.885815 218.303051 
L 498.746836 221.866892 
L 498.190921 230.63475 
L 497.912963 246.894774 
L 497.773984 247.21876 
L 497.357048 239.686096 
L 497.07909 240.739049 
L 496.940111 245.367992 
L 496.801132 244.606626 
L 496.384196 246.408796 
L 496.245217 246.226554 
L 496.106238 244.039652 
L 495.967259 245.19385 
L 495.272365 242.601966 
L 495.133387 244.140897 
L 494.855429 240.253071 
L 494.438492 240.820045 
L 494.299514 244.140897 
L 494.160535 244.485132 
L 493.882577 253.131496 
L 493.465641 259.570708 
L 493.326662 259.368217 
L 493.187683 252.969503 
L 493.048704 252.281034 
L 492.909725 252.402528 
L 492.492789 247.66424 
L 492.35381 248.433706 
L 492.075852 251.673561 
L 491.936873 255.439893 
L 491.519937 252.767012 
L 491.380958 254.447687 
L 491.241979 258.659499 
L 491.103 257.626795 
L 490.964022 255.601886 
L 490.547085 256.452348 
L 490.408106 254.467936 
L 490.130149 256.573842 
L 489.99117 255.601886 
L 489.574233 258.378037 
L 489.296276 255.804377 
L 489.018318 261.798109 
L 488.462403 252.240536 
L 488.323424 243.675168 
L 488.045466 246.935272 
L 487.62853 247.583244 
L 487.489551 249.851142 
L 487.211593 245.335594 
L 486.655678 242.601966 
L 486.516699 240.253071 
L 486.238741 247.016269 
L 486.099763 243.776413 
L 485.682826 242.52097 
L 485.543847 243.452428 
L 485.404868 242.844955 
L 485.26589 247.745236 
L 485.126911 248.038848 
L 484.709974 252.848008 
L 484.570995 245.19385 
L 484.154059 242.703211 
L 483.737123 244.262392 
L 483.459165 237.701685 
L 483.320186 237.964923 
L 483.181207 234.421331 
L 482.764271 235.150299 
L 482.625292 237.215706 
L 482.486313 236.871067 
L 481.791419 254.994413 
L 481.65244 254.913416 
L 481.374482 257.100319 
L 481.235504 258.355763 
L 480.818567 258.720246 
L 480.679588 261.11045 
L 480.540609 260.218679 
L 480.401631 252.868258 
L 480.262652 253.212492 
L 479.845715 257.05982 
L 479.706736 259.935192 
L 479.567758 254.569182 
L 479.428779 259.125228 
L 479.2898 253.333987 
L 478.872863 256.330853 
L 478.733885 261.514622 
L 478.594906 260.117434 
L 478.455927 266.414903 
L 478.316948 267.548852 
L 477.900012 265.937024 
L 477.761033 263.33704 
L 477.622054 265.969423 
L 477.483075 273.704577 
L 477.344096 274.717032 
L 476.788181 277.551906 
L 476.649202 277.389913 
L 476.371245 272.914863 
L 475.954308 272.611126 
L 475.815329 272.368137 
L 475.67635 270.221733 
L 475.537372 275.00052 
L 475.398393 272.450753 
L 474.981456 272.226393 
L 474.842477 273.299595 
L 474.56452 268.7233 
L 474.425541 269.047285 
L 473.869626 268.601805 
L 473.730647 274.75753 
L 473.591668 274.453794 
L 473.452689 271.456928 
L 473.035753 270.100238 
L 472.896774 273.097105 
L 472.757795 270.343227 
L 472.618816 273.097105 
L 472.479837 272.30739 
L 472.062901 270.970949 
L 471.784943 267.164119 
L 471.506986 263.701524 
L 471.090049 263.742022 
L 470.95107 262.972556 
L 470.812091 266.009921 
L 470.534134 258.801243 
L 470.117197 258.153272 
L 469.83924 268.804296 
L 469.144345 275.810483 
L 469.005367 272.226393 
L 468.866388 273.056606 
L 468.727409 275.89148 
L 468.58843 272.85371 
L 468.171494 279.293328 
L 467.893536 274.977436 
L 467.754557 278.442866 
L 467.059663 284.882078 
L 466.920684 283.626634 
L 466.642726 287.433464 
L 466.22579 287.797948 
L 465.669875 295.249616 
L 465.252938 292.657731 
L 465.113959 292.880471 
L 464.974981 292.819724 
L 464.836002 291.350855 
L 464.697023 292.576735 
L 464.280086 290.774565 
L 464.141108 283.019162 
L 464.002129 281.763718 
L 463.86315 282.431938 
L 463.307235 283.230157 
L 463.168256 279.860303 
L 463.029277 284.112613 
L 462.890298 283.464642 
L 462.751319 289.519121 
L 462.334383 287.635955 
L 462.195404 285.935031 
L 461.917446 291.321291 
L 461.778467 297.436518 
L 461.222552 298.327478 
L 461.083573 298.246482 
L 460.944594 301.000359 
L 460.805616 300.595377 
L 460.2497 300.392886 
L 460.110722 299.481677 
L 459.971743 301.830572 
L 459.832764 301.243348 
L 459.415827 298.185734 
L 459.276849 298.043991 
L 458.998891 299.866409 
L 458.859912 296.748049 
L 458.442976 297.193529 
L 458.303997 296.26207 
L 458.165018 297.760503 
L 458.026039 297.153031 
L 457.88706 297.072034 
L 457.470124 296.181074 
L 457.192166 302.103935 
L 457.053187 304.888185 
L 456.914208 304.746442 
L 456.497272 302.296301 
L 456.219314 301.911568 
L 456.080335 301.466088 
L 455.941357 305.131174 
L 455.52442 309.019001 
L 455.385441 308.958254 
L 455.246462 308.755763 
L 454.968505 313.028322 
L 454.551568 316.065686 
L 454.41259 316.110234 
L 454.273611 315.579708 
L 454.134632 316.268177 
L 453.995653 315.863195 
L 453.578717 322.342906 
L 453.439738 322.079668 
L 453.022801 325.177779 
L 452.605865 327.810162 
L 452.466886 329.713577 
L 452.327907 329.754075 
L 452.049949 326.797707 
L 451.633013 325.258776 
L 451.494034 325.987743 
L 451.355055 327.526675 
L 451.216076 327.040696 
L 451.077098 327.162191 
L 450.660161 325.62326 
L 450.521182 325.754879 
L 450.243225 323.59835 
L 450.104246 323.355361 
L 449.687309 321.613939 
L 449.54833 322.140415 
L 449.409352 323.679346 
L 449.270373 321.087462 
L 449.131394 322.828884 
L 448.714458 324.04383 
L 448.575479 325.339772 
L 448.4365 324.448812 
L 448.297521 324.408314 
L 448.158542 323.395859 
L 447.741606 327.648169 
L 447.324669 325.542263 
L 447.18569 325.663758 
L 446.768754 323.213617 
L 446.490796 323.760343 
L 446.212839 326.635714 
L 445.795902 327.465927 
L 445.656923 324.732299 
L 445.517944 324.327317 
L 445.378966 322.464401 
L 444.82305 320.34027 
L 444.684071 320.358495 
L 444.406114 319.143549 
L 444.267135 318.858847 
L 443.850198 318.495578 
L 443.71122 319.953513 
L 443.572241 319.022054 
L 443.433262 319.163798 
L 443.294283 319.771271 
L 442.877347 320.621733 
L 442.321431 315.215224 
L 441.904495 314.891239 
L 441.626537 312.339853 
L 441.487558 310.314943 
L 441.34858 312.542344 
L 440.792664 315.18971 
L 440.653685 314.810242 
L 440.375728 320.378744 
L 439.958791 321.370949 
L 439.819812 321.087462 
L 439.680834 320.034509 
L 439.541855 320.743227 
L 439.402876 320.641982 
L 438.707982 318.414581 
L 438.569003 316.87565 
L 438.430024 321.12796 
L 437.874109 319.548531 
L 437.73513 320.115505 
L 437.596151 321.735433 
L 437.457172 321.634188 
L 437.040236 322.504899 
L 436.762278 321.451946 
L 436.484321 316.470668 
L 435.928405 316.754156 
L 435.789426 316.20743 
L 435.511469 318.618287 
L 434.955553 316.227679 
L 434.816575 314.688748 
L 434.677596 311.327398 
L 434.538617 311.408394 
L 434.12168 308.654517 
L 433.982702 310.760423 
L 433.843723 310.071954 
L 433.704744 307.763557 
L 433.565765 310.962914 
L 433.148829 310.962914 
L 433.00985 310.436438 
L 432.731892 303.106265 
L 432.592913 300.149897 
L 432.175977 303.632741 
L 432.036998 312.056365 
L 431.75904 314.486257 
L 431.620061 315.883444 
L 431.203125 317.159137 
L 431.064146 313.757289 
L 430.925167 313.352307 
L 430.786189 312.17786 
L 430.230273 314.364762 
L 429.813337 310.679427 
L 429.674358 309.869463 
L 429.118443 315.154477 
L 428.979464 314.283766 
L 428.840485 311.003412 
L 428.701506 312.218358 
L 428.28457 312.461347 
L 428.006612 315.174726 
L 427.867633 314.364762 
L 427.728654 317.685614 
L 427.311718 314.587502 
L 427.172739 311.934871 
L 427.03376 311.73238 
L 426.755802 319.872516 
L 426.338866 318.515827 
L 426.199887 319.427036 
L 425.921929 326.453473 
L 425.782951 325.177779 
L 425.366014 326.51422 
L 425.227035 329.025108 
L 425.088057 328.620126 
L 424.810099 322.099917 
L 424.254184 321.208957 
L 424.115205 325.744754 
L 423.976226 323.15287 
L 423.837247 327.972155 
L 423.420311 329.276197 
L 423.281332 327.364682 
L 423.142353 335.869302 
L 423.003374 333.811184 
L 422.864395 337.570226 
L 422.447459 335.788306 
L 422.169501 332.426956 
L 422.030522 333.074927 
L 421.891543 337.286739 
L 421.474607 334.249374 
L 421.196649 339.838125 
L 420.918692 330.118559 
L 420.501755 328.701122 
L 420.362776 331.191761 
L 420.084819 325.906747 
L 419.94584 324.408314 
L 419.389925 298.772958 
L 419.111967 295.897587 
L 418.556052 297.902247 
L 418.417073 296.221572 
L 418.000136 283.262151 
L 417.305242 270.707711 
L 417.166263 272.611126 
L 416.610348 268.439812 
L 416.471369 269.351022 
L 416.33239 267.629849 
L 416.054433 271.477177 
L 415.637496 270.464722 
L 415.498517 268.601805 
L 415.359538 268.358816 
L 415.081581 275.729487 
L 414.664644 274.676534 
L 414.386687 270.518585 
L 414.247708 270.930451 
L 414.108729 269.128282 
L 413.413835 263.33704 
L 413.274856 259.611207 
L 412.718941 256.411849 
L 412.579962 254.710925 
L 412.440983 257.626795 
L 412.302004 257.221813 
L 412.163025 260.988145 
L 411.746089 259.894694 
L 411.60711 258.942986 
L 411.468131 256.695337 
L 411.329152 256.371351 
L 411.190174 256.452348 
L 410.773237 256.513095 
L 410.634258 257.545799 
L 410.217322 258.800838 
L 409.661406 254.994413 
L 409.383449 255.905622 
L 409.24447 257.424304 
L 408.549576 262.648571 
L 408.410597 265.402448 
L 408.271618 265.949174 
L 407.854682 265.928925 
L 407.715703 266.313657 
L 407.576724 268.480311 
L 407.437745 267.224867 
L 407.298766 269.61426 
L 406.88183 269.816751 
L 406.464893 275.810483 
L 406.325915 273.380592 
L 405.908978 273.86657 
L 405.353063 271.274686 
L 404.936126 270.687462 
L 404.797147 271.274686 
L 404.658169 272.712372 
L 404.51919 275.324505 
L 404.380211 273.583083 
L 403.963274 271.436679 
L 403.824296 274.433545 
L 403.685317 273.502086 
L 403.546338 270.545718 
L 403.407359 271.801162 
L 402.990423 270.829206 
L 402.851444 271.355682 
L 402.712465 266.779387 
L 402.573486 268.520809 
L 402.434507 272.246642 
L 401.878592 281.237241 
L 401.739613 276.539451 
L 401.600634 276.741942 
L 401.461656 275.405501 
L 400.766761 276.794589 
L 400.627783 278.199877 
L 400.488804 281.399234 
L 399.932888 280.042544 
L 399.79391 277.389913 
L 399.654931 277.916389 
L 399.515952 278.928844 
L 399.099015 276.012974 
L 398.960037 277.511407 
L 398.821058 277.308916 
L 398.682079 276.012974 
L 398.5431 272.449133 
L 398.126164 271.558173 
L 397.987185 272.064401 
L 397.848206 270.464722 
L 397.709227 264.592484 
L 397.570248 265.928925 
L 397.153312 263.863517 
L 397.014333 264.632982 
L 396.875354 263.418037 
L 396.597396 258.072275 
L 396.18046 257.707792 
L 396.041481 254.548933 
L 395.902502 254.751424 
L 395.624545 248.899435 
L 395.068629 263.296542 
L 394.790672 261.129889 
L 394.651693 264.025509 
L 394.234756 268.520809 
L 394.095778 266.374405 
L 393.81782 274.271552 
L 393.261905 271.193689 
L 393.122926 272.07331 
L 392.844968 275.00052 
L 392.289053 271.234188 
L 392.011095 266.888327 
L 391.733137 269.249776 
L 391.177222 274.231054 
L 390.899264 264.794975 
L 390.760286 266.617394 
L 390.343349 262.810564 
L 390.065392 264.91647 
L 389.926413 264.754477 
L 389.787434 264.592484 
L 389.370497 259.651705 
L 389.09254 252.220287 
L 388.953561 254.103452 
L 388.814582 260.178181 
L 388.397646 259.003734 
L 388.119688 255.075409 
L 387.980709 257.424304 
L 387.84173 255.399395 
L 387.424794 256.999073 
L 387.285815 258.841741 
L 386.868878 247.137763 
L 386.451942 246.3278 
L 386.312963 246.651785 
L 386.173984 246.003814 
L 386.035005 250.094131 
L 385.896027 247.684489 
L 385.47909 250.823099 
L 385.201132 251.592565 
L 384.923175 245.072356 
L 384.506238 247.461749 
L 384.228281 245.720327 
L 384.089302 249.68915 
L 383.950323 248.474204 
L 383.533387 248.271713 
L 383.394408 249.365164 
L 383.255429 253.678221 
L 383.11645 253.27324 
L 382.977471 256.816831 
L 382.421556 258.112773 
L 382.282577 259.693418 
L 382.143598 255.662633 
L 382.004619 255.196904 
L 381.448704 259.125228 
L 381.309725 259.003734 
L 381.170746 257.910282 
L 381.031768 259.813698 
L 380.614831 260.117434 
L 380.475852 254.913416 
L 380.336873 255.196904 
L 380.197895 253.934575 
L 379.641979 251.228081 
L 379.503 247.704738 
L 379.364022 238.957129 
L 379.225043 237.296703 
L 379.086064 239.038125 
L 378.669127 237.620688 
L 378.530149 235.150299 
L 378.39117 238.187663 
L 378.252191 238.592645 
L 377.696276 236.648732 
L 377.557297 237.022125 
L 377.418318 234.826313 
L 377.279339 237.701685 
L 377.14036 236.203252 
L 376.723424 236.608233 
L 376.584445 234.380833 
L 376.445466 229.561548 
L 376.306487 229.440053 
L 376.167509 229.683043 
L 375.750572 228.994573 
L 375.472614 221.542906 
L 375.333636 220.651946 
L 375.194657 221.340415 
L 374.360784 230.614501 
L 374.221805 228.306104 
L 373.804868 227.05066 
L 373.66589 235.393288 
L 373.526911 236.000761 
L 373.248953 232.396422 
L 372.832017 233.530371 
L 372.693038 237.944674 
L 372.276101 234.056847 
L 371.859165 232.639411 
L 371.581207 235.150299 
L 371.442228 234.542826 
L 371.30325 238.673641 
L 370.747334 235.393288 
L 370.608355 235.960262 
L 370.330398 240.172074 
L 369.774482 243.897908 
L 369.635504 244.52563 
L 369.357546 250.650982 
L 368.940609 252.524023 
L 368.662652 245.19385 
L 368.523673 244.242143 
L 368.384694 240.698551 
L 367.967758 241.265526 
L 367.828779 242.682962 
L 367.6898 241.103533 
L 367.411842 242.682962 
L 366.994906 241.589511 
L 366.855927 238.47115 
L 366.716948 232.234429 
L 366.577969 248.271713 
L 366.022054 248.737442 
L 365.466139 260.704658 
L 365.049202 260.947647 
L 364.771245 254.957964 
L 364.632266 253.090998 
L 364.493287 253.131496 
L 364.07635 252.524023 
L 363.937372 250.904095 
L 363.798393 251.876052 
L 363.659414 254.629929 
L 363.520435 255.075409 
L 363.103499 252.929005 
L 362.96452 255.237402 
L 362.825541 255.237402 
L 362.686562 254.751424 
L 362.130647 254.062954 
L 361.991668 256.61434 
L 361.852689 257.100319 
L 361.71371 256.290355 
L 361.157795 256.654839 
L 361.018816 256.918077 
L 360.184943 263.823019 
L 359.906986 269.16878 
L 359.629028 271.031697 
L 359.212091 270.181235 
L 358.656176 275.081516 
L 358.23924 271.63917 
L 357.683324 256.411849 
L 357.266388 256.492846 
L 356.98843 250.175128 
L 356.849451 253.94146 
L 356.710472 254.143951 
L 356.293536 247.583244 
L 356.154557 251.228081 
L 355.737621 245.801323 
L 355.320684 254.022456 
L 355.181705 253.212492 
L 355.042726 255.156405 
L 354.764769 252.078543 
L 354.347832 251.47107 
L 354.069875 246.732781 
L 353.930896 246.570789 
L 353.791917 242.237482 
L 353.374981 238.673641 
L 353.236002 239.15962 
L 352.819065 228.346602 
L 352.402129 229.359057 
L 352.124171 223.648812 
L 351.846213 229.197064 
L 351.429277 228.346602 
L 351.290298 227.435393 
L 351.151319 229.278061 
L 351.01234 232.801403 
L 350.873362 231.707952 
L 350.456425 230.695497 
L 350.317446 229.156566 
L 350.178467 225.147245 
L 350.039489 225.572476 
L 349.90051 221.866892 
L 349.483573 219.234509 
L 349.344594 219.153513 
L 349.066637 211.175369 
L 348.927658 213.524264 
L 348.510722 214.212733 
L 348.371743 212.511809 
L 348.093785 201.901283 
L 347.954806 202.549254 
L 347.398891 198.438687 
L 347.259912 198.82342 
L 346.981954 200.078864 
L 346.426039 201.253312 
L 346.148081 194.12563 
L 346.009103 194.692605 
L 345.592166 198.256851 
L 345.314208 201.617796 
L 345.17523 203.399716 
L 345.036251 201.212814 
L 344.619314 197.608475 
L 344.341357 192.78919 
L 344.063399 197.648973 
L 343.646462 199.714381 
L 343.229526 188.73937 
L 342.673611 189.711327 
L 342.534632 187.40293 
L 342.117695 189.87332 
L 341.700759 188.577378 
L 341.56178 191.351504 
L 341.422801 189.832822 
L 341.144844 196.59602 
L 340.727907 197.810965 
L 340.588928 197.324987 
L 340.310971 190.804778 
L 340.171992 189.711327 
L 339.755055 190.217554 
L 339.616076 189.994814 
L 339.477098 188.707377 
L 339.338119 184.406064 
L 339.19914 184.466811 
L 338.782203 185.540013 
L 338.643225 184.325068 
L 338.504246 185.863999 
L 338.365267 180.558736 
L 338.226288 179.951263 
L 337.809352 179.586779 
L 337.670373 179.262794 
L 337.392415 180.477739 
L 337.253436 182.786136 
L 336.8365 184.122577 
L 336.697521 183.636598 
L 336.558542 186.430974 
L 336.419563 183.474606 
L 336.280585 183.474606 
L 335.863648 180.396743 
L 335.724669 183.231616 
L 335.446712 175.486337 
L 335.307733 180.477739 
L 334.890796 182.340656 
L 334.751817 184.203573 
L 334.47386 180.923624 
L 334.334881 186.390475 
L 333.917944 182.178663 
L 333.778966 185.783002 
L 333.639987 183.5961 
L 333.501008 190.582038 
L 333.362029 188.941861 
L 332.945093 186.390475 
L 332.806114 192.748691 
L 332.667135 190.54154 
L 332.389177 194.591359 
L 331.972241 195.90755 
L 331.833262 189.387342 
L 331.555304 190.237804 
L 331.416325 191.331255 
L 330.999389 192.890435 
L 330.86041 191.736237 
L 330.721431 192.019724 
L 330.582453 202.144272 
L 330.443474 193.072677 
L 330.026537 194.004135 
L 329.887558 192.627197 
L 329.74858 192.667695 
L 329.609601 198.215947 
L 329.053685 199.066409 
L 328.775728 192.951182 
L 328.636749 190.278302 
L 328.49777 191.290757 
L 328.080834 192.303211 
L 327.941855 191.047767 
L 327.802876 195.563316 
L 327.663897 195.340576 
L 327.524918 195.664561 
L 327.107982 196.312532 
L 326.969003 198.256446 
L 326.830024 198.013456 
L 326.691045 204.736156 
L 326.552066 204.391922 
L 326.13513 209.757932 
L 325.996151 209.35295 
L 325.857172 203.521211 
L 325.718193 215.711166 
L 325.579215 215.589672 
L 325.023299 218.829527 
L 324.884321 220.99618 
L 324.745342 219.092765 
L 324.606363 219.841982 
L 324.189426 219.801484 
L 324.050448 215.593722 
L 323.911469 215.306184 
L 323.77249 226.767173 
L 323.633511 227.415144 
L 323.216575 226.726675 
L 323.077596 228.063115 
L 322.938617 226.047925 
L 322.799638 227.010162 
L 322.660659 233.246884 
L 322.243723 233.503237 
L 322.104744 232.416671 
L 321.965765 236.729728 
L 321.826786 236.851223 
L 321.687807 235.55528 
L 320.992913 234.21884 
L 320.853934 232.011689 
L 320.714956 232.072436 
L 320.298019 230.020393 
L 320.15904 231.343469 
L 320.020061 229.116068 
L 319.881083 234.542826 
L 319.742104 234.785815 
L 319.325167 232.052187 
L 319.186189 230.117183 
L 319.04721 230.250017 
L 318.769252 228.913577 
L 318.352316 230.938487 
L 318.213337 232.315425 
L 318.074358 236.405743 
L 317.935379 233.489873 
L 317.7964 233.044393 
L 317.379464 236.729728 
L 317.240485 236.486739 
L 316.962527 232.43692 
L 316.823548 234.461829 
L 316.406612 236.567735 
L 316.267633 236.162753 
L 315.989675 222.636357 
L 315.43376 222.595859 
L 315.294781 219.457249 
L 315.155802 218.99152 
L 315.016824 220.651946 
L 314.877845 217.736076 
L 314.460908 221.097426 
L 314.182951 206.356084 
L 314.043972 205.10064 
L 313.904993 201.253312 
L 313.349078 192.485453 
L 313.210099 194.004135 
L 312.932141 184.122577 
L 312.515205 184.527559 
L 312.376226 181.085212 
L 312.237247 181.611689 
L 312.098268 181.166209 
L 311.959289 182.462151 
L 311.542353 189.711327 
L 311.403374 186.657763 
L 311.264395 186.430974 
L 311.125416 184.086128 
L 310.569501 184.95279 
L 310.291543 191.128764 
L 310.152565 188.374887 
L 310.013586 188.172396 
L 309.596649 188.75962 
L 309.45767 188.658374 
L 309.318692 188.712237 
L 309.179713 192.870186 
L 308.484819 193.963637 
L 308.34584 191.65524 
L 308.206861 191.452749 
L 307.511967 196.636518 
L 307.234009 205.748611 
L 307.09503 209.150459 
L 306.539115 208.299997 
L 306.400136 207.976012 
L 306.261157 206.518077 
L 306.122179 207.368539 
L 305.705242 208.340495 
L 305.566263 212.916791 
L 305.149327 203.31872 
L 304.73239 202.265767 
L 304.454433 211.782842 
L 304.315454 212.754798 
L 304.176475 210.770387 
L 303.759538 208.057008 
L 303.342602 210.405903 
L 303.203623 208.583485 
L 302.786687 206.194091 
L 302.508729 209.79843 
L 302.230771 199.679552 
L 301.813835 197.851464 
L 301.674856 197.810965 
L 301.535877 197.405984 
L 301.396898 196.029045 
L 300.840983 203.804698 
L 300.702004 203.278221 
L 300.563025 204.65516 
L 300.285068 215.954156 
L 299.868131 218.627036 
L 299.729152 222.251624 
L 299.590174 222.393368 
L 299.312216 220.854437 
L 298.895279 221.745397 
L 298.756301 220.368458 
L 298.617322 217.614581 
L 298.478343 218.465043 
L 298.339364 216.52113 
L 297.922428 216.764119 
L 297.783449 219.032018 
L 297.505491 214.779708 
L 297.366512 218.181556 
L 296.949576 217.533585 
L 296.671618 215.225188 
L 296.532639 215.346683 
L 296.39366 215.63017 
L 295.976724 215.225188 
L 295.837745 212.309318 
L 294.864893 219.558495 
L 294.447957 226.321693 
L 294.03102 225.369985 
L 293.892042 223.851303 
L 293.475105 234.383668 
L 293.058169 233.246884 
L 292.780211 229.96653 
L 292.641232 231.545959 
L 292.085317 232.963396 
L 291.66838 237.944674 
L 291.112465 235.778021 
L 290.973486 237.256205 
L 290.834507 236.952468 
L 290.55655 240.617554 
L 290.139613 239.443107 
L 289.861656 236.304497 
L 289.722677 238.47115 
L 289.583698 235.028804 
L 289.166761 234.421331 
L 289.027783 231.788949 
L 288.749825 230.776494 
L 288.610846 228.18461 
L 288.19391 227.212653 
L 288.054931 225.147245 
L 287.776973 227.901122 
L 287.637994 227.455642 
L 287.221058 225.71422 
L 287.082079 228.427599 
L 286.9431 226.969664 
L 286.804121 228.670588 
L 286.665142 233.368378 
L 286.248206 234.016349 
L 286.109227 231.120728 
L 285.970248 231.743186 
L 285.831269 235.676775 
L 285.692291 234.340335 
L 285.275354 234.907309 
L 285.136375 237.296703 
L 284.997396 236.000761 
L 284.719439 242.27636 
L 284.302502 242.682962 
L 284.024545 232.43692 
L 283.746587 230.007028 
L 283.190672 233.408876 
L 283.051693 238.552147 
L 282.912714 238.430652 
L 282.773735 237.701685 
L 282.356799 239.929085 
L 282.21782 239.726594 
L 282.078841 236.619573 
L 281.939862 236.851223 
L 281.800883 234.745317 
L 281.383947 235.312291 
L 280.96701 228.306104 
L 280.828032 227.94162 
L 280.411095 231.221974 
L 280.272116 233.391462 
L 280.133137 226.686176 
L 279.994159 226.645678 
L 279.85518 229.095819 
L 279.438243 226.402689 
L 279.299264 222.960343 
L 279.160286 224.377779 
L 279.021307 220.311761 
L 278.465392 218.627036 
L 278.326413 211.053874 
L 278.187434 210.567896 
L 278.048455 209.312452 
L 277.909476 206.882561 
L 277.49254 208.097506 
L 277.353561 212.106827 
L 276.936624 206.194091 
L 276.519688 209.717434 
L 276.24173 205.586618 
L 276.102751 208.866972 
L 275.963773 208.360745 
L 275.546836 209.79843 
L 275.407857 211.013376 
L 275.1299 203.111369 
L 274.990921 203.197225 
L 274.573984 201.901283 
L 274.435005 200.726835 
L 274.296027 196.749103 
L 274.018069 200.84833 
L 273.601132 202.508756 
L 273.462154 202.225268 
L 273.184196 196.920005 
L 273.045217 197.810965 
L 272.489302 192.505702 
L 272.350323 189.954316 
L 272.211344 189.893569 
L 272.072365 188.941861 
L 271.655429 189.42784 
L 271.51645 189.184851 
L 271.377471 187.720436 
L 271.099514 192.606948 
L 270.682577 194.085132 
L 270.543598 193.842143 
L 270.404619 196.855208 
L 270.126662 205.910604 
L 269.570746 203.278221 
L 269.292789 198.661428 
L 269.15381 199.228402 
L 268.736873 197.162994 
L 268.597895 197.365485 
L 268.458916 196.839009 
L 268.319937 200.686337 
L 268.180958 197.203493 
L 267.764022 196.59602 
L 267.625043 197.770467 
L 267.347085 184.446562 
L 267.208106 185.803252 
L 266.79117 185.84375 
L 266.652191 185.17553 
L 266.513212 182.664642 
L 266.235255 188.010403 
L 265.818318 186.228483 
L 265.679339 181.935674 
L 265.54036 181.854678 
L 265.401382 179.222295 
L 264.845466 184.689551 
L 264.706487 180.801725 
L 264.567509 172.62109 
L 264.289551 179.060303 
L 263.872614 177.926353 
L 263.733636 182.016671 
L 263.594657 182.826634 
L 263.455678 180.335996 
L 263.316699 174.119523 
L 262.899763 172.945076 
L 262.760784 177.78461 
L 262.621805 176.913898 
L 262.482826 179.465285 
L 262.343847 175.617956 
L 261.926911 174.079025 
L 261.787932 170.312693 
L 261.648953 173.51205 
L 261.509974 174.079025 
L 261.370995 177.278382 
L 260.954059 173.836036 
L 260.676101 175.98244 
L 260.537123 172.924826 
L 259.981207 174.679613 
L 259.842228 170.413939 
L 259.564271 172.702086 
L 259.425292 168.854758 
L 258.869377 163.711488 
L 258.730398 171.50739 
L 258.591419 171.385895 
L 258.035504 175.030732 
L 257.896525 176.832902 
L 257.757546 172.823581 
L 257.618567 173.51205 
L 257.062652 172.823581 
L 256.923673 171.082159 
L 256.784694 172.823581 
L 256.645715 171.28465 
L 256.506736 171.446642 
L 256.0898 170.029206 
L 255.950821 170.677177 
L 255.811842 165.979387 
L 255.672863 166.505863 
L 255.533885 158.689712 
L 255.116948 167.599314 
L 254.977969 167.9233 
L 254.700012 169.745718 
L 254.561033 165.89839 
L 254.144096 166.404618 
L 254.005118 163.144513 
L 253.866139 166.707949 
L 253.72716 192.222215 
L 253.588181 181.81418 
L 253.171245 182.502649 
L 252.893287 181.530692 
L 252.754308 180.558736 
L 252.615329 180.518237 
L 252.198393 184.284569 
L 251.920435 181.530692 
L 251.781456 181.733183 
L 251.642477 190.359298 
L 251.225541 190.642786 
L 250.947583 185.297024 
L 250.669626 194.530612 
L 250.252689 198.175449 
L 250.11371 197.93246 
L 249.835753 207.004055 
L 249.696774 205.789109 
L 249.140858 197.0415 
L 249.00188 199.066409 
L 248.723922 191.209355 
L 248.168007 188.962111 
L 248.029028 187.828161 
L 247.890049 190.885775 
L 247.195155 182.70514 
L 247.056176 182.948129 
L 246.917197 184.406064 
L 246.778218 183.768217 
L 246.361282 185.904497 
L 246.222303 182.421653 
L 246.083324 181.976172 
L 245.805367 184.406064 
L 245.38843 184.770548 
L 245.249451 185.823501 
L 244.971494 206.032098 
L 244.832515 200.767334 
L 244.415578 193.963637 
L 244.276599 189.387342 
L 243.998642 195.097587 
L 243.859663 194.490114 
L 243.442726 197.405984 
L 243.303748 196.920005 
L 243.02579 192.222215 
L 242.886811 187.119443 
L 242.330896 179.627277 
L 242.052938 183.231616 
L 241.497023 181.449696 
L 241.358044 186.106988 
L 241.219065 185.094533 
L 241.080086 179.222295 
L 240.941108 181.490194 
L 240.524171 180.821974 
L 240.385192 181.733183 
L 240.246213 180.194252 
L 240.107235 179.910765 
L 239.968256 184.001082 
L 239.551319 182.826634 
L 239.41234 181.692685 
L 239.134383 190.781289 
L 238.995404 191.128764 
L 238.578467 193.477659 
L 238.439489 195.259579 
L 238.30051 200.281355 
L 238.022552 197.527478 
L 237.466637 206.477579 
L 237.188679 214.73921 
L 237.0497 211.053874 
L 236.632764 208.623983 
L 236.493785 215.601821 
L 236.354806 208.178503 
L 236.076849 212.349816 
L 235.659912 210.365405 
L 235.520933 206.396582 
L 235.381954 208.785976 
L 235.242976 208.097506 
L 235.103997 208.542986 
L 234.68706 206.011849 
L 234.409103 200.969824 
L 234.270124 200.767334 
L 234.131145 208.219001 
L 233.714208 210.446401 
L 233.57523 208.502488 
L 233.297272 215.225188 
L 232.741357 211.539853 
L 232.602378 214.982199 
L 232.463399 213.544513 
L 232.185441 220.854437 
L 231.490547 206.396582 
L 230.795653 216.399636 
L 230.656674 220.611448 
L 230.378717 216.459168 
L 229.822801 214.860704 
L 229.683822 211.59331 
L 229.544844 204.132733 
L 229.405865 205.627117 
L 229.266886 211.337362 
L 228.849949 212.349816 
L 228.571992 217.493087 
L 228.433013 213.483766 
L 227.877098 218.465043 
L 227.738119 213.807751 
L 227.59914 215.508675 
L 227.321182 223.284328 
L 226.904246 224.094292 
L 226.765267 225.349736 
L 226.626288 222.393368 
L 226.487309 222.028884 
L 226.34833 224.58027 
L 225.931394 228.873079 
L 225.792415 225.795216 
L 225.653436 228.751584 
L 225.375479 238.147165 
L 224.819563 230.574003 
L 224.680585 225.26874 
L 224.541606 226.362191 
L 223.846712 211.398109 
L 223.707733 213.402769 
L 223.568754 222.271873 
L 223.429775 221.502408 
L 223.012839 220.044473 
L 222.87386 221.218921 
L 222.734881 220.732942 
L 222.456923 233.206385 
L 221.762029 237.296703 
L 221.62305 237.377699 
L 221.484071 243.695417 
L 221.067135 245.031857 
L 220.650198 255.2779 
L 220.51122 253.455481 
L 220.094283 255.156405 
L 219.955304 252.625268 
L 219.677347 258.011528 
L 219.538368 256.209358 
L 218.982453 256.128362 
L 218.704495 248.028724 
L 218.565516 247.137763 
L 218.14858 248.312211 
L 218.009601 250.296622 
L 217.731643 264.3499 
L 217.592664 262.89156 
L 217.175728 262.567575 
L 217.036749 271.760664 
L 216.619812 263.863517 
L 216.202876 266.617394 
L 215.785939 282.978663 
L 215.646961 281.196743 
L 215.230024 280.645158 
L 214.952066 285.003573 
L 214.813088 281.399234 
L 214.674109 280.953754 
L 214.257172 285.773039 
L 213.840236 272.732621 
L 213.145342 276.498953 
L 213.006363 269.132332 
L 212.867384 269.209278 
L 212.311469 258.922737 
L 212.17249 247.057577 
L 211.894532 261.190636 
L 211.755553 254.508434 
L 211.338617 247.907229 
L 210.92168 264.147004 
L 210.782702 258.598752 
L 210.365765 252.605019 
L 210.087807 272.246642 
L 209.948829 263.215546 
L 209.392913 264.147004 
L 209.114956 255.885373 
L 208.836998 247.239009 
L 208.420061 246.813778 
L 208.003125 230.614501 
L 207.864146 230.695497 
L 207.308231 233.570869 
L 207.030273 230.978985 
L 206.891294 232.43692 
L 206.335379 228.427599 
L 206.1964 228.792082 
L 205.918443 243.816912 
L 205.501506 242.561468 
L 205.362527 239.807591 
L 205.08457 232.598912 
L 204.945591 227.435393 
L 204.528654 220.611448 
L 204.389675 215.346683 
L 204.250697 216.278141 
L 204.111718 219.153513 
L 203.972739 209.03018 
L 203.555802 197.972958 
L 203.277845 177.359379 
L 203.138866 175.577458 
L 202.999887 175.395216 
L 202.582951 178.89831 
L 202.166014 173.51205 
L 202.027035 179.100801 
L 201.47112 173.714541 
L 201.332141 172.054115 
L 201.193162 175.698953 
L 201.054184 175.496462 
L 200.637247 178.331335 
L 200.498268 177.399877 
L 200.220311 168.571271 
L 200.081332 169.276749 
L 199.664395 166.829849 
L 199.525416 167.389534 
L 199.386438 170.231697 
L 199.247459 175.698953 
L 199.10848 188.577378 
L 198.274607 193.801644 
L 198.135628 182.583645 
L 197.718692 180.801725 
L 197.579713 181.652187 
L 197.301755 176.184931 
L 197.162776 177.926353 
L 196.74584 175.820447 
L 196.467882 182.219162 
L 196.328903 182.462151 
L 196.189925 180.356245 
L 195.772988 180.23475 
L 195.634009 181.895176 
L 195.49503 179.910765 
L 194.661157 206.356084 
L 194.522179 212.228322 
L 194.3832 213.321773 
L 194.244221 209.273169 
L 193.827284 206.032098 
L 193.688306 206.234589 
L 193.410348 199.51189 
L 193.271369 198.782922 
L 192.854433 200.269206 
L 192.715454 194.004135 
L 192.298517 206.032098 
L 191.881581 205.181636 
L 191.603623 195.90755 
L 191.464644 198.863918 
L 190.908729 200.240857 
L 190.76975 193.072677 
L 190.630771 196.960503 
L 190.352814 189.063356 
L 189.935877 190.966771 
L 189.65792 208.138004 
L 189.379962 200.807832 
L 188.963025 190.885775 
L 188.685068 177.116389 
L 188.546089 174.888989 
L 188.40711 174.767494 
L 187.990174 175.577458 
L 187.712216 169.502729 
L 187.573237 171.163155 
L 187.434258 168.652267 
L 187.017322 166.505863 
L 186.878343 166.991841 
L 186.739364 154.680391 
L 186.600385 162.901524 
L 186.461406 162.861026 
L 186.04447 160.026152 
L 185.905491 154.720889 
L 185.766512 154.437402 
L 185.488555 163.832982 
L 184.515703 146.783244 
L 184.098766 143.786377 
L 183.820809 135.686739 
L 183.68183 135.281757 
L 183.542851 137.185172 
L 182.847957 131.150941 
L 182.708978 131.555923 
L 182.569999 129.328523 
L 182.014084 127.344111 
L 181.875105 121.795859 
L 181.597147 121.026393 
L 181.180211 117.624545 
L 180.902253 113.736719 
L 180.624296 114.708675 
L 180.207359 114.587181 
L 180.06838 112.116791 
L 179.929401 107.176012 
L 179.651444 112.157289 
L 179.234507 110.375369 
L 179.095528 104.584127 
L 178.95655 104.503131 
L 178.817571 106.123059 
L 178.261656 102.599716 
L 178.122677 106.528041 
L 177.844719 99.440857 
L 177.70574 98.71189 
L 177.288804 97.901926 
L 177.149825 96.889471 
L 176.871867 91.705702 
L 176.315952 88.749334 
L 176.176973 90.207269 
L 176.037994 96.767976 
L 175.899015 97.699435 
L 175.760037 95.289792 
L 175.3431 96.079507 
L 175.204121 94.176092 
L 174.926164 88.202609 
L 174.787185 88.708836 
L 174.370248 88.749334 
L 174.231269 90.207269 
L 173.953312 78.54379 
L 173.814333 83.727559 
L 173.397396 82.917595 
L 173.119439 84.578021 
L 172.98046 90.531255 
L 172.424545 93.892605 
L 172.285566 91.827197 
L 172.146587 95.998511 
L 171.868629 90.976735 
L 171.451693 95.10755 
L 171.312714 91.341219 
L 171.173735 91.158977 
L 170.895778 98.752388 
L 170.478841 100.858294 
L 170.339862 99.764843 
L 170.200883 104.827117 
L 170.061905 103.612171 
L 169.36701 109.160423 
L 169.228032 111.833304 
L 168.950074 117.705542 
L 168.533137 121.431375 
L 168.394159 116.207109 
L 168.25518 119.568458 
L 168.116201 126.736638 
L 167.977222 124.120455 
L 167.560286 122.524826 
L 167.421307 123.213296 
L 167.282328 118.637 
L 167.143349 126.372155 
L 167.00437 125.845678 
L 166.587434 130.097988 
L 166.309476 127.14162 
L 166.170497 128.640053 
L 166.031519 123.091801 
L 165.614582 120.21643 
L 165.336624 112.967253 
L 165.197646 113.04825 
L 165.058667 114.708675 
L 164.64173 109.119925 
L 164.363773 98.590395 
L 164.085815 103.207189 
L 163.5299 101.546763 
L 163.251942 92.313175 
L 162.696027 93.892605 
L 162.557048 95.553031 
L 162.418069 102.194734 
L 162.27909 101.870749 
L 162.140111 97.253955 
L 161.723175 97.051464 
L 161.584196 99.116871 
L 161.445217 103.693167 
L 161.306238 100.979788 
L 161.167259 109.44391 
L 160.750323 117.219563 
L 160.611344 124.185252 
L 160.333387 110.57786 
L 160.194408 112.237881 
L 159.777471 114.425188 
L 159.638492 112.157289 
L 159.499514 114.222697 
L 159.360535 120.985895 
L 158.804619 117.705542 
L 158.526662 123.496783 
L 158.387683 121.836357 
L 158.248704 122.646321 
L 157.831768 118.070025 
L 157.692789 119.163477 
L 157.55381 125.278704 
L 157.414831 124.266249 
L 157.275852 122.241339 
L 156.858916 114.38469 
L 156.580958 112.724264 
L 156.441979 115.113657 
L 156.303 113.817715 
L 155.608106 116.247607 
L 155.469127 113.534228 
L 155.330149 118.353513 
L 154.913212 115.073159 
L 154.774233 118.070025 
L 154.635255 123.78027 
L 154.357297 143.786377 
L 153.94036 142.652428 
L 153.662403 138.238125 
L 153.384445 124.428242 
L 152.967509 118.758495 
L 152.82853 119.608957 
L 152.689551 111.9143 
L 152.411593 120.378422 
L 151.994657 120.21643 
L 151.438741 91.827197 
L 151.021805 86.683927 
L 150.604868 101.222777 
L 150.46589 103.126192 
L 150.048953 103.652669 
L 149.909974 104.786618 
L 149.770995 100.777297 
L 149.632017 101.303774 
L 149.493038 94.986056 
L 149.076101 100.49381 
L 148.659165 130.907952 
L 148.520186 116.531094 
L 147.964271 122.727317 
L 147.825292 114.546683 
L 147.547334 127.14162 
L 146.85244 116.328603 
L 146.574482 124.428242 
L 146.157546 126.372155 
L 145.879588 139.048089 
L 145.601631 121.431375 
L 145.184694 115.599636 
L 144.906736 104.503131 
L 144.628779 96.821839 
L 144.072863 92.394172 
L 143.794906 82.391118 
L 143.655927 81.621653 
L 143.238991 81.90514 
L 142.961033 77.43009 
L 142.822054 78.138808 
L 142.683075 77.288346 
L 142.266139 71.578101 
L 142.12716 71.578101 
L 141.988181 71.456606 
L 141.849202 71.133026 
L 141.710223 78.09831 
L 141.293287 77.571833 
L 141.154308 76.51888 
L 141.015329 77.328844 
L 140.737372 71.578101 
L 140.320435 69.189113 
L 140.042477 60.238607 
L 139.903499 58.861669 
L 139.347583 58.416188 
L 139.208604 60.84608 
L 139.069626 61.048571 
L 138.930647 57.687221 
L 138.791668 60.319604 
L 138.374731 61.332058 
L 138.235753 60.279105 
L 138.096774 62.87099 
L 137.957795 61.332058 
L 137.818816 65.503372 
L 137.40188 65.867856 
L 137.262901 67.244794 
L 136.984943 64.126434 
L 136.845964 59.793127 
L 136.429028 62.506506 
L 136.290049 61.575047 
L 135.873113 52.098471 
L 135.456176 56.917755 
L 135.178218 46.185734 
L 135.03924 47.157691 
L 134.900261 45.335272 
L 134.483324 45.424368 
L 134.344345 42.783886 
L 134.205367 45.902247 
L 134.066388 46.307229 
L 133.927409 51.288507 
L 133.510472 50.76203 
L 133.371494 45.537763 
L 133.232515 48.251142 
L 133.093536 48.494131 
L 132.954557 47.84616 
L 132.537621 47.522175 
L 132.259663 42.378904 
L 132.120684 43.472356 
L 131.981705 40.556486 
L 131.42579 42.986377 
L 131.008854 37.438125 
L 130.452938 42.176413 
L 130.313959 42.014421 
L 130.174981 42.054919 
L 130.036002 43.067374 
L 129.619065 43.026876 
L 129.480086 46.06424 
L 129.341108 44.930291 
L 129.202129 46.788348 
L 129.06315 46.793207 
L 128.507235 48.08915 
L 128.090298 60.036116 
L 127.673362 60.238607 
L 127.534383 59.845775 
L 127.256425 60.238607 
L 127.117446 62.951986 
L 126.70051 64.328925 
L 126.561531 64.369423 
L 126.283573 67.649776 
L 125.727658 67.811769 
L 125.588679 65.54387 
L 125.4497 65.746361 
L 125.310722 68.540736 
L 125.171743 73.846 
L 124.754806 76.032902 
L 124.33787 68.986217 
L 124.198891 75.607671 
L 123.781954 76.032902 
L 123.503997 65.138888 
L 123.365018 77.085855 
L 123.226039 77.733826 
L 122.809103 77.713577 
L 122.670124 79.43475 
L 122.531145 79.353754 
L 122.392166 74.453473 
L 122.253187 76.721776 
L 121.836251 73.40052 
L 121.697272 70.727639 
L 121.419314 76.721371 
L 121.280335 76.559379 
L 120.72442 76.275891 
L 120.307484 87.93937 
L 119.890547 85.499354 
L 119.751568 82.593609 
L 119.473611 88.101363 
L 119.334632 87.777783 
L 118.778717 82.188627 
L 118.500759 89.842786 
L 118.36178 92.839652 
L 117.805865 99.15737 
L 117.527907 103.490676 
L 117.388928 102.032741 
L 116.971992 103.369182 
L 116.833013 106.568539 
L 116.694034 105.272597 
L 115.99914 109.565405 
L 115.860161 107.338409 
L 115.721182 107.66199 
L 115.582203 101.627759 
L 115.443225 100.49381 
L 115.026288 99.724344 
L 114.887309 101.749254 
L 114.74833 100.817796 
L 114.609352 101.344272 
L 114.470373 100.574806 
L 114.053436 101.749254 
L 113.775479 104.624626 
L 113.6365 104.179145 
L 113.497521 101.101283 
L 113.080585 101.465767 
L 112.941606 101.020287 
L 112.802627 98.144915 
L 112.663648 107.338004 
L 112.107733 111.144835 
L 111.968754 111.02334 
L 111.829775 113.412733 
L 111.690796 113.71647 
L 111.551817 117.179065 
L 111.134881 116.490596 
L 110.995902 118.272516 
L 110.856923 122.44383 
L 110.717944 121.836357 
L 110.578966 122.484328 
L 110.162029 121.988225 
L 110.02305 118.960986 
L 109.884071 122.727317 
L 109.606114 123.010805 
L 109.189177 121.431375 
L 109.050198 118.596502 
L 108.91122 118.070025 
L 108.772241 120.418516 
L 108.216325 122.686819 
L 108.077347 122.686819 
L 107.938368 119.771354 
L 107.799389 120.580913 
L 107.66041 117.786538 
L 107.243474 116.693087 
L 106.965516 113.736719 
L 106.826537 112.926755 
L 106.687558 118.353513 
L 106.131643 113.534228 
L 105.714707 111.266329 
L 105.29777 113.372235 
L 105.158791 115.073159 
L 104.880834 115.113657 
L 104.741855 113.49373 
L 104.324918 116.490596 
L 104.185939 116.450098 
L 104.046961 121.471873 
L 103.769003 118.717996 
L 103.352066 121.520471 
L 102.93513 114.874718 
L 102.796151 116.976574 
L 102.379215 113.291239 
L 102.240236 113.291239 
L 102.101257 113.696221 
L 101.962278 113.169744 
L 101.823299 117.30056 
L 101.128405 114.870668 
L 100.989426 111.306827 
L 100.850448 110.861347 
L 100.433511 108.431456 
L 100.294532 106.730532 
L 100.155553 98.306908 
L 99.877596 117.74604 
L 99.460659 116.491001 
L 99.32168 116.814581 
L 99.182702 118.556004 
L 99.043723 118.151022 
L 98.904744 114.870668 
L 98.487807 118.717996 
L 98.348829 114.951665 
L 98.20985 102.842705 
L 98.070871 103.004698 
L 97.931892 102.07324 
L 97.375977 105.515586 
L 97.236998 100.817796 
L 97.098019 101.83025 
L 96.95904 101.627759 
L 96.542104 100.736799 
L 96.403125 101.546763 
L 96.264146 100.615305 
L 96.125167 92.961146 
L 95.986189 93.366128 
L 95.430273 108.309961 
L 95.291294 108.471954 
L 95.152316 114.951665 
L 95.013337 116.126112 
L 94.5964 115.438048 
L 94.318443 126.129166 
L 94.179464 125.076213 
L 94.040485 124.306747 
L 93.623548 124.46874 
L 93.48457 127.263115 
L 93.206612 125.278704 
L 93.067633 129.16653 
L 92.511718 122.038848 
L 92.372739 120.621006 
L 92.23376 120.601162 
L 92.094781 122.403332 
L 91.677845 120.013939 
L 91.538866 120.175931 
L 91.399887 119.426715 
L 91.260908 124.752227 
L 91.121929 125.035714 
L 90.704993 124.266249 
L 90.566014 122.322336 
L 90.427035 124.509238 
L 90.288057 124.306747 
L 90.149078 124.630732 
L 89.732141 124.104256 
L 89.593162 125.886176 
L 89.454184 129.693006 
L 89.315205 129.571512 
L 88.759289 130.988949 
L 88.620311 130.50297 
L 88.481332 127.546602 
L 88.342353 129.085939 
L 88.203374 126.736638 
L 87.786438 127.789591 
L 87.50848 133.297346 
L 87.369501 130.745959 
L 87.230522 131.110443 
L 86.674607 128.619804 
L 86.535628 127.303613 
L 86.396649 128.862794 
L 86.25767 126.460441 
L 85.840734 125.238205 
L 85.701755 123.415787 
L 85.423797 137.023179 
L 85.284819 136.091721 
L 84.867882 136.371158 
L 84.728903 134.99827 
L 84.450946 140.992002 
L 84.311967 138.035634 
L 83.756052 133.945317 
L 83.478094 129.753754 
L 83.339115 129.693006 
L 82.922179 129.126032 
L 82.644221 134.512291 
L 82.366263 135.747486 
L 81.949327 135.079266 
L 81.810348 133.540335 
L 81.671369 137.630652 
L 81.393411 139.534067 
L 80.976475 142.61193 
L 80.42056 150.347084 
L 80.003623 151.56203 
L 79.864644 146.702247 
L 79.586687 148.281677 
L 79.447708 149.942103 
L 78.891792 146.135272 
L 78.752814 139.331576 
L 78.613835 138.886096 
L 78.474856 139.939049 
L 78.05792 140.303533 
L 77.918941 140.607269 
L 77.779962 138.197627 
L 77.640983 138.319121 
L 77.502004 133.742826 
L 77.085068 133.540335 
L 76.946089 129.085534 
L 76.80711 132.203894 
L 76.668131 130.178985 
L 76.529152 130.097988 
L 76.112216 128.397064 
L 75.973237 125.886176 
L 75.834258 125.643187 
L 75.695279 124.91422 
L 75.139364 129.045035 
L 75.000385 126.331657 
L 74.861406 116.531094 
L 74.722428 117.5233 
L 74.583449 121.188386 
L 74.166512 123.820769 
L 74.027533 125.562191 
L 73.749576 122.079346 
L 73.610597 122.322336 
L 73.19366 124.185252 
L 73.054682 126.331657 
L 72.915703 125.400198 
L 72.776724 125.643187 
L 72.637745 123.051303 
L 72.220809 127.850339 
L 72.08183 133.621331 
L 71.942851 132.487382 
L 71.803872 140.627518 
L 71.664893 141.0325 
L 71.247957 146.297265 
L 71.108978 143.259901 
L 70.692042 153.991922 
L 70.275105 147.552709 
L 70.136126 147.30972 
L 69.997147 147.370467 
L 69.302253 135.140013 
L 69.163274 134.390797 
L 68.746338 142.368941 
L 68.329401 143.259901 
L 68.190423 144.636839 
L 67.773486 136.091721 
L 67.217571 131.920407 
L 67.078592 131.758414 
L 66.939613 131.312934 
L 66.800634 128.478061 
L 66.383698 130.705461 
L 66.244719 130.300479 
L 65.966761 128.599555 
L 65.966761 128.599555 
" clip-path="url(#p3cef470d0b)" style="fill: none; stroke: #000000; stroke-width: 0.4; stroke-linecap: square"/>
   </g>
   <g id="patch_3">
    <path d="M 40.603125 354.958125 
L 40.603125 22.318125 
" style="fill: none; stroke: #000000; stroke-width: 0.8; stroke-linejoin: miter; stroke-linecap: square"/>
   </g>
   <g id="patch_4">
    <path d="M 598.603125 354.958125 
L 598.603125 22.318125 
" style="fill: none; stroke: #000000; stroke-width: 0.8; stroke-linejoin: miter; stroke-linecap: square"/>
   </g>
   <g id="patch_5">
    <path d="M 40.603125 354.958125 
L 598.603125 354.958125 
" style="fill: none; stroke: #000000; stroke-width: 0.8; stroke-linejoin: miter; stroke-linecap: square"/>
   </g>
   <g id="patch_6">
    <path d="M 40.603125 22.318125 
L 598.603125 22.318125 
" style="fill: none; stroke: #000000; stroke-width: 0.8; stroke-linejoin: miter; stroke-linecap: square"/>
   </g>
   <g id="text_21">
    <!-- DVN, High Price (2013-2023) -->
    <g transform="translate(233.053125 16.318125)scale(0.12 -0.12)">
     <defs>
      <path id="DejaVuSans-56" d="M 1831 0 
L 50 4666 
L 709 4666 
L 2188 738 
L 3669 4666 
L 4325 4666 
L 2547 0 
L 1831 0 
z
" transform="scale(0.015625)"/>
      <path id="DejaVuSans-4e" d="M 628 4666 
L 1478 4666 
L 3547 763 
L 3547 4666 
L 4159 4666 
L 4159 0 
L 3309 0 
L 1241 3903 
L 1241 0 
L 628 0 
L 628 4666 
z
" transform="scale(0.015625)"/>
      <path id="DejaVuSans-2c" d="M 750 794 
L 1409 794 
L 1409 256 
L 897 -744 
L 494 -744 
L 750 256 
L 750 794 
z
" transform="scale(0.015625)"/>
      <path id="DejaVuSans-48" d="M 628 4666 
L 1259 4666 
L 1259 2753 
L 3553 2753 
L 3553 4666 
L 4184 4666 
L 4184 0 
L 3553 0 
L 3553 2222 
L 1259 2222 
L 1259 0 
L 628 0 
L 628 4666 
z
" transform="scale(0.015625)"/>
      <path id="DejaVuSans-67" d="M 2906 1791 
Q 2906 2416 2648 2759 
Q 2391 3103 1925 3103 
Q 1463 3103 1205 2759 
Q 947 2416 947 1791 
Q 947 1169 1205 825 
Q 1463 481 1925 481 
Q 2391 481 2648 825 
Q 2906 1169 2906 1791 
z
M 3481 434 
Q 3481 -459 3084 -895 
Q 2688 -1331 1869 -1331 
Q 1566 -1331 1297 -1286 
Q 1028 -1241 775 -1147 
L 775 -588 
Q 1028 -725 1275 -790 
Q 1522 -856 1778 -856 
Q 2344 -856 2625 -561 
Q 2906 -266 2906 331 
L 2906 616 
Q 2728 306 2450 153 
Q 2172 0 1784 0 
Q 1141 0 747 490 
Q 353 981 353 1791 
Q 353 2603 747 3093 
Q 1141 3584 1784 3584 
Q 2172 3584 2450 3431 
Q 2728 3278 2906 2969 
L 2906 3500 
L 3481 3500 
L 3481 434 
z
" transform="scale(0.015625)"/>
      <path id="DejaVuSans-68" d="M 3513 2113 
L 3513 0 
L 2938 0 
L 2938 2094 
Q 2938 2591 2744 2837 
Q 2550 3084 2163 3084 
Q 1697 3084 1428 2787 
Q 1159 2491 1159 1978 
L 1159 0 
L 581 0 
L 581 4863 
L 1159 4863 
L 1159 2956 
Q 1366 3272 1645 3428 
Q 1925 3584 2291 3584 
Q 2894 3584 3203 3211 
Q 3513 2838 3513 2113 
z
" transform="scale(0.015625)"/>
      <path id="DejaVuSans-2d" d="M 313 2009 
L 1997 2009 
L 1997 1497 
L 313 1497 
L 313 2009 
z
" transform="scale(0.015625)"/>
     </defs>
     <use xlink:href="#DejaVuSans-44"/>
     <use xlink:href="#DejaVuSans-56" x="75.251953"/>
     <use xlink:href="#DejaVuSans-4e" x="143.660156"/>
     <use xlink:href="#DejaVuSans-2c" x="218.464844"/>
     <use xlink:href="#DejaVuSans-20" x="250.251953"/>
     <use xlink:href="#DejaVuSans-48" x="282.039062"/>
     <use xlink:href="#DejaVuSans-69" x="357.234375"/>
     <use xlink:href="#DejaVuSans-67" x="385.017578"/>
     <use xlink:href="#DejaVuSans-68" x="448.494141"/>
     <use xlink:href="#DejaVuSans-20" x="511.873047"/>
     <use xlink:href="#DejaVuSans-50" x="543.660156"/>
     <use xlink:href="#DejaVuSans-72" x="602.212891"/>
     <use xlink:href="#DejaVuSans-69" x="643.326172"/>
     <use xlink:href="#DejaVuSans-63" x="671.109375"/>
     <use xlink:href="#DejaVuSans-65" x="726.089844"/>
     <use xlink:href="#DejaVuSans-20" x="787.613281"/>
     <use xlink:href="#DejaVuSans-28" x="819.400391"/>
     <use xlink:href="#DejaVuSans-32" x="858.414062"/>
     <use xlink:href="#DejaVuSans-30" x="922.037109"/>
     <use xlink:href="#DejaVuSans-31" x="985.660156"/>
     <use xlink:href="#DejaVuSans-33" x="1049.283203"/>
     <use xlink:href="#DejaVuSans-2d" x="1112.90625"/>
     <use xlink:href="#DejaVuSans-32" x="1148.990234"/>
     <use xlink:href="#DejaVuSans-30" x="1212.613281"/>
     <use xlink:href="#DejaVuSans-32" x="1276.236328"/>
     <use xlink:href="#DejaVuSans-33" x="1339.859375"/>
     <use xlink:href="#DejaVuSans-29" x="1403.482422"/>
    </g>
   </g>
  </g>
 </g>
 <defs>
  <clipPath id="p3cef470d0b">
   <rect x="40.603125" y="22.318125" width="558" height="332.64"/>
  </clipPath>
 </defs>
</svg>
