<?xml version="1.0" encoding="utf-8" standalone="no"?>
<!DOCTYPE svg PUBLIC "-//W3C//DTD SVG 1.1//EN"
  "http://www.w3.org/Graphics/SVG/1.1/DTD/svg11.dtd">
<svg xmlns:xlink="http://www.w3.org/1999/xlink" width="605.803125pt" height="392.514375pt" viewBox="0 0 605.803125 392.514375" xmlns="http://www.w3.org/2000/svg" version="1.1">
 <metadata>
  <rdf:RDF xmlns:dc="http://purl.org/dc/elements/1.1/" xmlns:cc="http://creativecommons.org/ns#" xmlns:rdf="http://www.w3.org/1999/02/22-rdf-syntax-ns#">
   <cc:Work>
    <dc:type rdf:resource="http://purl.org/dc/dcmitype/StillImage"/>
    <dc:date>2023-04-24T15:33:46.847327</dc:date>
    <dc:format>image/svg+xml</dc:format>
    <dc:creator>
     <cc:Agent>
      <dc:title>Matplotlib v3.5.1, https://matplotlib.org/</dc:title>
     </cc:Agent>
    </dc:creator>
   </cc:Work>
  </rdf:RDF>
 </metadata>
 <defs>
  <style type="text/css">*{stroke-linejoin: round; stroke-linecap: butt}</style>
 </defs>
 <g id="figure_1">
  <g id="patch_1">
   <path d="M 0 392.514375 
L 605.803125 392.514375 
L 605.803125 0 
L 0 0 
z
" style="fill: #ffffff"/>
  </g>
  <g id="axes_1">
   <g id="patch_2">
    <path d="M 40.603125 354.958125 
L 598.603125 354.958125 
L 598.603125 22.318125 
L 40.603125 22.318125 
z
" style="fill: #ffffff"/>
   </g>
   <g id="matplotlib.axis_1">
    <g id="xtick_1">
     <g id="line2d_1">
      <defs>
       <path id="ma495d2153a" d="M 0 0 
L 0 3.5 
" style="stroke: #000000; stroke-width: 0.8"/>
      </defs>
      <g>
       <use xlink:href="#ma495d2153a" x="65.966761" y="354.958125" style="stroke: #000000; stroke-width: 0.8"/>
      </g>
     </g>
     <g id="text_1">
      <!-- 0 -->
      <g transform="translate(62.785511 369.556562)scale(0.1 -0.1)">
       <defs>
        <path id="DejaVuSans-30" d="M 2034 4250 
Q 1547 4250 1301 3770 
Q 1056 3291 1056 2328 
Q 1056 1369 1301 889 
Q 1547 409 2034 409 
Q 2525 409 2770 889 
Q 3016 1369 3016 2328 
Q 3016 3291 2770 3770 
Q 2525 4250 2034 4250 
z
M 2034 4750 
Q 2819 4750 3233 4129 
Q 3647 3509 3647 2328 
Q 3647 1150 3233 529 
Q 2819 -91 2034 -91 
Q 1250 -91 836 529 
Q 422 1150 422 2328 
Q 422 3509 836 4129 
Q 1250 4750 2034 4750 
z
" transform="scale(0.015625)"/>
       </defs>
       <use xlink:href="#DejaVuSans-30"/>
      </g>
     </g>
    </g>
    <g id="xtick_2">
     <g id="line2d_2">
      <g>
       <use xlink:href="#ma495d2153a" x="179.65406" y="354.958125" style="stroke: #000000; stroke-width: 0.8"/>
      </g>
     </g>
     <g id="text_2">
      <!-- 500 -->
      <g transform="translate(170.11031 369.556562)scale(0.1 -0.1)">
       <defs>
        <path id="DejaVuSans-35" d="M 691 4666 
L 3169 4666 
L 3169 4134 
L 1269 4134 
L 1269 2991 
Q 1406 3038 1543 3061 
Q 1681 3084 1819 3084 
Q 2600 3084 3056 2656 
Q 3513 2228 3513 1497 
Q 3513 744 3044 326 
Q 2575 -91 1722 -91 
Q 1428 -91 1123 -41 
Q 819 9 494 109 
L 494 744 
Q 775 591 1075 516 
Q 1375 441 1709 441 
Q 2250 441 2565 725 
Q 2881 1009 2881 1497 
Q 2881 1984 2565 2268 
Q 2250 2553 1709 2553 
Q 1456 2553 1204 2497 
Q 953 2441 691 2322 
L 691 4666 
z
" transform="scale(0.015625)"/>
       </defs>
       <use xlink:href="#DejaVuSans-35"/>
       <use xlink:href="#DejaVuSans-30" x="63.623047"/>
       <use xlink:href="#DejaVuSans-30" x="127.246094"/>
      </g>
     </g>
    </g>
    <g id="xtick_3">
     <g id="line2d_3">
      <g>
       <use xlink:href="#ma495d2153a" x="293.341359" y="354.958125" style="stroke: #000000; stroke-width: 0.8"/>
      </g>
     </g>
     <g id="text_3">
      <!-- 1000 -->
      <g transform="translate(280.616359 369.556562)scale(0.1 -0.1)">
       <defs>
        <path id="DejaVuSans-31" d="M 794 531 
L 1825 531 
L 1825 4091 
L 703 3866 
L 703 4441 
L 1819 4666 
L 2450 4666 
L 2450 531 
L 3481 531 
L 3481 0 
L 794 0 
L 794 531 
z
" transform="scale(0.015625)"/>
       </defs>
       <use xlink:href="#DejaVuSans-31"/>
       <use xlink:href="#DejaVuSans-30" x="63.623047"/>
       <use xlink:href="#DejaVuSans-30" x="127.246094"/>
       <use xlink:href="#DejaVuSans-30" x="190.869141"/>
      </g>
     </g>
    </g>
    <g id="xtick_4">
     <g id="line2d_4">
      <g>
       <use xlink:href="#ma495d2153a" x="407.028658" y="354.958125" style="stroke: #000000; stroke-width: 0.8"/>
      </g>
     </g>
     <g id="text_4">
      <!-- 1500 -->
      <g transform="translate(394.303658 369.556562)scale(0.1 -0.1)">
       <use xlink:href="#DejaVuSans-31"/>
       <use xlink:href="#DejaVuSans-35" x="63.623047"/>
       <use xlink:href="#DejaVuSans-30" x="127.246094"/>
       <use xlink:href="#DejaVuSans-30" x="190.869141"/>
      </g>
     </g>
    </g>
    <g id="xtick_5">
     <g id="line2d_5">
      <g>
       <use xlink:href="#ma495d2153a" x="520.715957" y="354.958125" style="stroke: #000000; stroke-width: 0.8"/>
      </g>
     </g>
     <g id="text_5">
      <!-- 2000 -->
      <g transform="translate(507.990957 369.556562)scale(0.1 -0.1)">
       <defs>
        <path id="DejaVuSans-32" d="M 1228 531 
L 3431 531 
L 3431 0 
L 469 0 
L 469 531 
Q 828 903 1448 1529 
Q 2069 2156 2228 2338 
Q 2531 2678 2651 2914 
Q 2772 3150 2772 3378 
Q 2772 3750 2511 3984 
Q 2250 4219 1831 4219 
Q 1534 4219 1204 4116 
Q 875 4013 500 3803 
L 500 4441 
Q 881 4594 1212 4672 
Q 1544 4750 1819 4750 
Q 2544 4750 2975 4387 
Q 3406 4025 3406 3419 
Q 3406 3131 3298 2873 
Q 3191 2616 2906 2266 
Q 2828 2175 2409 1742 
Q 1991 1309 1228 531 
z
" transform="scale(0.015625)"/>
       </defs>
       <use xlink:href="#DejaVuSans-32"/>
       <use xlink:href="#DejaVuSans-30" x="63.623047"/>
       <use xlink:href="#DejaVuSans-30" x="127.246094"/>
       <use xlink:href="#DejaVuSans-30" x="190.869141"/>
      </g>
     </g>
    </g>
    <g id="text_6">
     <!-- Date -->
     <g transform="translate(307.652344 383.234687)scale(0.1 -0.1)">
      <defs>
       <path id="DejaVuSans-44" d="M 1259 4147 
L 1259 519 
L 2022 519 
Q 2988 519 3436 956 
Q 3884 1394 3884 2338 
Q 3884 3275 3436 3711 
Q 2988 4147 2022 4147 
L 1259 4147 
z
M 628 4666 
L 1925 4666 
Q 3281 4666 3915 4102 
Q 4550 3538 4550 2338 
Q 4550 1131 3912 565 
Q 3275 0 1925 0 
L 628 0 
L 628 4666 
z
" transform="scale(0.015625)"/>
       <path id="DejaVuSans-61" d="M 2194 1759 
Q 1497 1759 1228 1600 
Q 959 1441 959 1056 
Q 959 750 1161 570 
Q 1363 391 1709 391 
Q 2188 391 2477 730 
Q 2766 1069 2766 1631 
L 2766 1759 
L 2194 1759 
z
M 3341 1997 
L 3341 0 
L 2766 0 
L 2766 531 
Q 2569 213 2275 61 
Q 1981 -91 1556 -91 
Q 1019 -91 701 211 
Q 384 513 384 1019 
Q 384 1609 779 1909 
Q 1175 2209 1959 2209 
L 2766 2209 
L 2766 2266 
Q 2766 2663 2505 2880 
Q 2244 3097 1772 3097 
Q 1472 3097 1187 3025 
Q 903 2953 641 2809 
L 641 3341 
Q 956 3463 1253 3523 
Q 1550 3584 1831 3584 
Q 2591 3584 2966 3190 
Q 3341 2797 3341 1997 
z
" transform="scale(0.015625)"/>
       <path id="DejaVuSans-74" d="M 1172 4494 
L 1172 3500 
L 2356 3500 
L 2356 3053 
L 1172 3053 
L 1172 1153 
Q 1172 725 1289 603 
Q 1406 481 1766 481 
L 2356 481 
L 2356 0 
L 1766 0 
Q 1100 0 847 248 
Q 594 497 594 1153 
L 594 3053 
L 172 3053 
L 172 3500 
L 594 3500 
L 594 4494 
L 1172 4494 
z
" transform="scale(0.015625)"/>
       <path id="DejaVuSans-65" d="M 3597 1894 
L 3597 1613 
L 953 1613 
Q 991 1019 1311 708 
Q 1631 397 2203 397 
Q 2534 397 2845 478 
Q 3156 559 3463 722 
L 3463 178 
Q 3153 47 2828 -22 
Q 2503 -91 2169 -91 
Q 1331 -91 842 396 
Q 353 884 353 1716 
Q 353 2575 817 3079 
Q 1281 3584 2069 3584 
Q 2775 3584 3186 3129 
Q 3597 2675 3597 1894 
z
M 3022 2063 
Q 3016 2534 2758 2815 
Q 2500 3097 2075 3097 
Q 1594 3097 1305 2825 
Q 1016 2553 972 2059 
L 3022 2063 
z
" transform="scale(0.015625)"/>
      </defs>
      <use xlink:href="#DejaVuSans-44"/>
      <use xlink:href="#DejaVuSans-61" x="77.001953"/>
      <use xlink:href="#DejaVuSans-74" x="138.28125"/>
      <use xlink:href="#DejaVuSans-65" x="177.490234"/>
     </g>
    </g>
   </g>
   <g id="matplotlib.axis_2">
    <g id="ytick_1">
     <g id="line2d_6">
      <path d="M 40.603125 321.103937 
L 598.603125 321.103937 
" clip-path="url(#p395054e875)" style="fill: none; stroke: #dcdcdc; stroke-width: 0.5; stroke-linecap: square"/>
     </g>
     <g id="line2d_7">
      <defs>
       <path id="m80ca8fec37" d="M 0 0 
L -3.5 0 
" style="stroke: #000000; stroke-width: 0.8"/>
      </defs>
      <g>
       <use xlink:href="#m80ca8fec37" x="40.603125" y="321.103937" style="stroke: #000000; stroke-width: 0.8"/>
      </g>
     </g>
     <g id="text_7">
      <!-- 10 -->
      <g transform="translate(20.878125 324.903156)scale(0.1 -0.1)">
       <use xlink:href="#DejaVuSans-31"/>
       <use xlink:href="#DejaVuSans-30" x="63.623047"/>
      </g>
     </g>
    </g>
    <g id="ytick_2">
     <g id="line2d_8">
      <path d="M 40.603125 280.288712 
L 598.603125 280.288712 
" clip-path="url(#p395054e875)" style="fill: none; stroke: #dcdcdc; stroke-width: 0.5; stroke-linecap: square"/>
     </g>
     <g id="line2d_9">
      <g>
       <use xlink:href="#m80ca8fec37" x="40.603125" y="280.288712" style="stroke: #000000; stroke-width: 0.8"/>
      </g>
     </g>
     <g id="text_8">
      <!-- 20 -->
      <g transform="translate(20.878125 284.087931)scale(0.1 -0.1)">
       <use xlink:href="#DejaVuSans-32"/>
       <use xlink:href="#DejaVuSans-30" x="63.623047"/>
      </g>
     </g>
    </g>
    <g id="ytick_3">
     <g id="line2d_10">
      <path d="M 40.603125 239.473487 
L 598.603125 239.473487 
" clip-path="url(#p395054e875)" style="fill: none; stroke: #dcdcdc; stroke-width: 0.5; stroke-linecap: square"/>
     </g>
     <g id="line2d_11">
      <g>
       <use xlink:href="#m80ca8fec37" x="40.603125" y="239.473487" style="stroke: #000000; stroke-width: 0.8"/>
      </g>
     </g>
     <g id="text_9">
      <!-- 30 -->
      <g transform="translate(20.878125 243.272706)scale(0.1 -0.1)">
       <defs>
        <path id="DejaVuSans-33" d="M 2597 2516 
Q 3050 2419 3304 2112 
Q 3559 1806 3559 1356 
Q 3559 666 3084 287 
Q 2609 -91 1734 -91 
Q 1441 -91 1130 -33 
Q 819 25 488 141 
L 488 750 
Q 750 597 1062 519 
Q 1375 441 1716 441 
Q 2309 441 2620 675 
Q 2931 909 2931 1356 
Q 2931 1769 2642 2001 
Q 2353 2234 1838 2234 
L 1294 2234 
L 1294 2753 
L 1863 2753 
Q 2328 2753 2575 2939 
Q 2822 3125 2822 3475 
Q 2822 3834 2567 4026 
Q 2313 4219 1838 4219 
Q 1578 4219 1281 4162 
Q 984 4106 628 3988 
L 628 4550 
Q 988 4650 1302 4700 
Q 1616 4750 1894 4750 
Q 2613 4750 3031 4423 
Q 3450 4097 3450 3541 
Q 3450 3153 3228 2886 
Q 3006 2619 2597 2516 
z
" transform="scale(0.015625)"/>
       </defs>
       <use xlink:href="#DejaVuSans-33"/>
       <use xlink:href="#DejaVuSans-30" x="63.623047"/>
      </g>
     </g>
    </g>
    <g id="ytick_4">
     <g id="line2d_12">
      <path d="M 40.603125 198.658263 
L 598.603125 198.658263 
" clip-path="url(#p395054e875)" style="fill: none; stroke: #dcdcdc; stroke-width: 0.5; stroke-linecap: square"/>
     </g>
     <g id="line2d_13">
      <g>
       <use xlink:href="#m80ca8fec37" x="40.603125" y="198.658263" style="stroke: #000000; stroke-width: 0.8"/>
      </g>
     </g>
     <g id="text_10">
      <!-- 40 -->
      <g transform="translate(20.878125 202.457481)scale(0.1 -0.1)">
       <defs>
        <path id="DejaVuSans-34" d="M 2419 4116 
L 825 1625 
L 2419 1625 
L 2419 4116 
z
M 2253 4666 
L 3047 4666 
L 3047 1625 
L 3713 1625 
L 3713 1100 
L 3047 1100 
L 3047 0 
L 2419 0 
L 2419 1100 
L 313 1100 
L 313 1709 
L 2253 4666 
z
" transform="scale(0.015625)"/>
       </defs>
       <use xlink:href="#DejaVuSans-34"/>
       <use xlink:href="#DejaVuSans-30" x="63.623047"/>
      </g>
     </g>
    </g>
    <g id="ytick_5">
     <g id="line2d_14">
      <path d="M 40.603125 157.843038 
L 598.603125 157.843038 
" clip-path="url(#p395054e875)" style="fill: none; stroke: #dcdcdc; stroke-width: 0.5; stroke-linecap: square"/>
     </g>
     <g id="line2d_15">
      <g>
       <use xlink:href="#m80ca8fec37" x="40.603125" y="157.843038" style="stroke: #000000; stroke-width: 0.8"/>
      </g>
     </g>
     <g id="text_11">
      <!-- 50 -->
      <g transform="translate(20.878125 161.642257)scale(0.1 -0.1)">
       <use xlink:href="#DejaVuSans-35"/>
       <use xlink:href="#DejaVuSans-30" x="63.623047"/>
      </g>
     </g>
    </g>
    <g id="ytick_6">
     <g id="line2d_16">
      <path d="M 40.603125 117.027813 
L 598.603125 117.027813 
" clip-path="url(#p395054e875)" style="fill: none; stroke: #dcdcdc; stroke-width: 0.5; stroke-linecap: square"/>
     </g>
     <g id="line2d_17">
      <g>
       <use xlink:href="#m80ca8fec37" x="40.603125" y="117.027813" style="stroke: #000000; stroke-width: 0.8"/>
      </g>
     </g>
     <g id="text_12">
      <!-- 60 -->
      <g transform="translate(20.878125 120.827032)scale(0.1 -0.1)">
       <defs>
        <path id="DejaVuSans-36" d="M 2113 2584 
Q 1688 2584 1439 2293 
Q 1191 2003 1191 1497 
Q 1191 994 1439 701 
Q 1688 409 2113 409 
Q 2538 409 2786 701 
Q 3034 994 3034 1497 
Q 3034 2003 2786 2293 
Q 2538 2584 2113 2584 
z
M 3366 4563 
L 3366 3988 
Q 3128 4100 2886 4159 
Q 2644 4219 2406 4219 
Q 1781 4219 1451 3797 
Q 1122 3375 1075 2522 
Q 1259 2794 1537 2939 
Q 1816 3084 2150 3084 
Q 2853 3084 3261 2657 
Q 3669 2231 3669 1497 
Q 3669 778 3244 343 
Q 2819 -91 2113 -91 
Q 1303 -91 875 529 
Q 447 1150 447 2328 
Q 447 3434 972 4092 
Q 1497 4750 2381 4750 
Q 2619 4750 2861 4703 
Q 3103 4656 3366 4563 
z
" transform="scale(0.015625)"/>
       </defs>
       <use xlink:href="#DejaVuSans-36"/>
       <use xlink:href="#DejaVuSans-30" x="63.623047"/>
      </g>
     </g>
    </g>
    <g id="ytick_7">
     <g id="line2d_18">
      <path d="M 40.603125 76.212588 
L 598.603125 76.212588 
" clip-path="url(#p395054e875)" style="fill: none; stroke: #dcdcdc; stroke-width: 0.5; stroke-linecap: square"/>
     </g>
     <g id="line2d_19">
      <g>
       <use xlink:href="#m80ca8fec37" x="40.603125" y="76.212588" style="stroke: #000000; stroke-width: 0.8"/>
      </g>
     </g>
     <g id="text_13">
      <!-- 70 -->
      <g transform="translate(20.878125 80.011807)scale(0.1 -0.1)">
       <defs>
        <path id="DejaVuSans-37" d="M 525 4666 
L 3525 4666 
L 3525 4397 
L 1831 0 
L 1172 0 
L 2766 4134 
L 525 4134 
L 525 4666 
z
" transform="scale(0.015625)"/>
       </defs>
       <use xlink:href="#DejaVuSans-37"/>
       <use xlink:href="#DejaVuSans-30" x="63.623047"/>
      </g>
     </g>
    </g>
    <g id="ytick_8">
     <g id="line2d_20">
      <path d="M 40.603125 35.397364 
L 598.603125 35.397364 
" clip-path="url(#p395054e875)" style="fill: none; stroke: #dcdcdc; stroke-width: 0.5; stroke-linecap: square"/>
     </g>
     <g id="line2d_21">
      <g>
       <use xlink:href="#m80ca8fec37" x="40.603125" y="35.397364" style="stroke: #000000; stroke-width: 0.8"/>
      </g>
     </g>
     <g id="text_14">
      <!-- 80 -->
      <g transform="translate(20.878125 39.196583)scale(0.1 -0.1)">
       <defs>
        <path id="DejaVuSans-38" d="M 2034 2216 
Q 1584 2216 1326 1975 
Q 1069 1734 1069 1313 
Q 1069 891 1326 650 
Q 1584 409 2034 409 
Q 2484 409 2743 651 
Q 3003 894 3003 1313 
Q 3003 1734 2745 1975 
Q 2488 2216 2034 2216 
z
M 1403 2484 
Q 997 2584 770 2862 
Q 544 3141 544 3541 
Q 544 4100 942 4425 
Q 1341 4750 2034 4750 
Q 2731 4750 3128 4425 
Q 3525 4100 3525 3541 
Q 3525 3141 3298 2862 
Q 3072 2584 2669 2484 
Q 3125 2378 3379 2068 
Q 3634 1759 3634 1313 
Q 3634 634 3220 271 
Q 2806 -91 2034 -91 
Q 1263 -91 848 271 
Q 434 634 434 1313 
Q 434 1759 690 2068 
Q 947 2378 1403 2484 
z
M 1172 3481 
Q 1172 3119 1398 2916 
Q 1625 2713 2034 2713 
Q 2441 2713 2670 2916 
Q 2900 3119 2900 3481 
Q 2900 3844 2670 4047 
Q 2441 4250 2034 4250 
Q 1625 4250 1398 4047 
Q 1172 3844 1172 3481 
z
" transform="scale(0.015625)"/>
       </defs>
       <use xlink:href="#DejaVuSans-38"/>
       <use xlink:href="#DejaVuSans-30" x="63.623047"/>
      </g>
     </g>
    </g>
    <g id="text_15">
     <!-- Price (USD) -->
     <g transform="translate(14.798437 217.01)rotate(-90)scale(0.1 -0.1)">
      <defs>
       <path id="DejaVuSans-50" d="M 1259 4147 
L 1259 2394 
L 2053 2394 
Q 2494 2394 2734 2622 
Q 2975 2850 2975 3272 
Q 2975 3691 2734 3919 
Q 2494 4147 2053 4147 
L 1259 4147 
z
M 628 4666 
L 2053 4666 
Q 2838 4666 3239 4311 
Q 3641 3956 3641 3272 
Q 3641 2581 3239 2228 
Q 2838 1875 2053 1875 
L 1259 1875 
L 1259 0 
L 628 0 
L 628 4666 
z
" transform="scale(0.015625)"/>
       <path id="DejaVuSans-72" d="M 2631 2963 
Q 2534 3019 2420 3045 
Q 2306 3072 2169 3072 
Q 1681 3072 1420 2755 
Q 1159 2438 1159 1844 
L 1159 0 
L 581 0 
L 581 3500 
L 1159 3500 
L 1159 2956 
Q 1341 3275 1631 3429 
Q 1922 3584 2338 3584 
Q 2397 3584 2469 3576 
Q 2541 3569 2628 3553 
L 2631 2963 
z
" transform="scale(0.015625)"/>
       <path id="DejaVuSans-69" d="M 603 3500 
L 1178 3500 
L 1178 0 
L 603 0 
L 603 3500 
z
M 603 4863 
L 1178 4863 
L 1178 4134 
L 603 4134 
L 603 4863 
z
" transform="scale(0.015625)"/>
       <path id="DejaVuSans-63" d="M 3122 3366 
L 3122 2828 
Q 2878 2963 2633 3030 
Q 2388 3097 2138 3097 
Q 1578 3097 1268 2742 
Q 959 2388 959 1747 
Q 959 1106 1268 751 
Q 1578 397 2138 397 
Q 2388 397 2633 464 
Q 2878 531 3122 666 
L 3122 134 
Q 2881 22 2623 -34 
Q 2366 -91 2075 -91 
Q 1284 -91 818 406 
Q 353 903 353 1747 
Q 353 2603 823 3093 
Q 1294 3584 2113 3584 
Q 2378 3584 2631 3529 
Q 2884 3475 3122 3366 
z
" transform="scale(0.015625)"/>
       <path id="DejaVuSans-20" transform="scale(0.015625)"/>
       <path id="DejaVuSans-28" d="M 1984 4856 
Q 1566 4138 1362 3434 
Q 1159 2731 1159 2009 
Q 1159 1288 1364 580 
Q 1569 -128 1984 -844 
L 1484 -844 
Q 1016 -109 783 600 
Q 550 1309 550 2009 
Q 550 2706 781 3412 
Q 1013 4119 1484 4856 
L 1984 4856 
z
" transform="scale(0.015625)"/>
       <path id="DejaVuSans-55" d="M 556 4666 
L 1191 4666 
L 1191 1831 
Q 1191 1081 1462 751 
Q 1734 422 2344 422 
Q 2950 422 3222 751 
Q 3494 1081 3494 1831 
L 3494 4666 
L 4128 4666 
L 4128 1753 
Q 4128 841 3676 375 
Q 3225 -91 2344 -91 
Q 1459 -91 1007 375 
Q 556 841 556 1753 
L 556 4666 
z
" transform="scale(0.015625)"/>
       <path id="DejaVuSans-53" d="M 3425 4513 
L 3425 3897 
Q 3066 4069 2747 4153 
Q 2428 4238 2131 4238 
Q 1616 4238 1336 4038 
Q 1056 3838 1056 3469 
Q 1056 3159 1242 3001 
Q 1428 2844 1947 2747 
L 2328 2669 
Q 3034 2534 3370 2195 
Q 3706 1856 3706 1288 
Q 3706 609 3251 259 
Q 2797 -91 1919 -91 
Q 1588 -91 1214 -16 
Q 841 59 441 206 
L 441 856 
Q 825 641 1194 531 
Q 1563 422 1919 422 
Q 2459 422 2753 634 
Q 3047 847 3047 1241 
Q 3047 1584 2836 1778 
Q 2625 1972 2144 2069 
L 1759 2144 
Q 1053 2284 737 2584 
Q 422 2884 422 3419 
Q 422 4038 858 4394 
Q 1294 4750 2059 4750 
Q 2388 4750 2728 4690 
Q 3069 4631 3425 4513 
z
" transform="scale(0.015625)"/>
       <path id="DejaVuSans-29" d="M 513 4856 
L 1013 4856 
Q 1481 4119 1714 3412 
Q 1947 2706 1947 2009 
Q 1947 1309 1714 600 
Q 1481 -109 1013 -844 
L 513 -844 
Q 928 -128 1133 580 
Q 1338 1288 1338 2009 
Q 1338 2731 1133 3434 
Q 928 4138 513 4856 
z
" transform="scale(0.015625)"/>
      </defs>
      <use xlink:href="#DejaVuSans-50"/>
      <use xlink:href="#DejaVuSans-72" x="58.552734"/>
      <use xlink:href="#DejaVuSans-69" x="99.666016"/>
      <use xlink:href="#DejaVuSans-63" x="127.449219"/>
      <use xlink:href="#DejaVuSans-65" x="182.429688"/>
      <use xlink:href="#DejaVuSans-20" x="243.953125"/>
      <use xlink:href="#DejaVuSans-28" x="275.740234"/>
      <use xlink:href="#DejaVuSans-55" x="314.753906"/>
      <use xlink:href="#DejaVuSans-53" x="387.947266"/>
      <use xlink:href="#DejaVuSans-44" x="451.423828"/>
      <use xlink:href="#DejaVuSans-29" x="528.425781"/>
     </g>
    </g>
   </g>
   <g id="line2d_22">
    <path d="M 70.059504 145.190318 
L 70.286879 141.394502 
L 70.514253 146.414775 
L 70.741628 145.190318 
L 70.969003 151.965646 
L 71.196377 150.90445 
L 71.423752 145.884177 
L 71.651126 143.843416 
L 71.878501 143.680155 
L 72.105875 143.108742 
L 72.33325 138.374176 
L 72.787999 136.45586 
M 81.200859 149.557547 
L 81.428234 145.312764 
L 81.655609 145.639286 
L 82.110358 150.169776 
L 82.337732 148.537167 
L 82.565107 145.394394 
M 96.434957 122.292977 
L 96.662332 126.170424 
L 96.889707 122.741945 
L 97.344456 125.313304 
L 97.57183 121.435857 
L 97.799205 123.72151 
L 98.02658 124.374554 
L 98.253954 123.966401 
M 115.534424 121.06852 
L 115.761798 118.374716 
L 115.989173 120.211401 
L 116.216547 125.803087 
L 116.443922 119.803248 
L 116.671297 120.782814 
L 116.898671 115.191128 
L 117.126046 112.86466 
M 121.900912 102.538408 
L 122.355662 106.45667 
L 122.583036 105.844442 
L 122.810411 105.59955 
L 123.037785 102.7833 
L 123.26516 102.905745 
L 123.492535 103.599604 
L 123.719909 100.334386 
L 123.947284 101.06906 
L 124.402033 100.701723 
L 124.629408 97.885473 
L 125.084157 88.742862 
M 125.538906 84.824601 
L 125.766281 82.294057 
M 132.132769 69.069924 
L 132.360144 73.192262 
L 132.587518 73.477968 
L 132.814893 70.98824 
L 133.269642 61.763999 
L 133.497017 65.151663 
L 133.724391 65.396554 
L 134.406515 60.335466 
L 134.63389 60.294651 
L 134.861264 61.151771 
L 135.088639 57.029433 
L 135.316014 56.335574 
L 135.770763 57.151879 
L 135.998137 58.049813 
L 136.225512 56.049867 
M 159.417721 122.986836 
L 159.645096 133.272273 
M 165.329461 139.598632 
L 165.556835 142.169992 
M 172.605448 123.435803 
L 172.832822 122.252162 
M 180.563559 124.129662 
L 180.790933 122.497053 
L 181.018308 125.313304 
L 181.245682 125.843902 
L 181.473057 118.497161 
L 181.700432 116.782922 
L 181.927806 120.497107 
L 182.155181 114.129932 
L 182.382555 115.762541 
L 182.60993 110.579008 
M 183.519428 104.619985 
L 183.746803 96.865092 
M 210.122256 206.209079 
L 210.349631 204.372394 
L 210.577005 204.902992 
L 210.80438 211.923211 
L 211.031755 213.229298 
L 211.486504 207.841688 
M 234.223964 282.084582 
L 234.451338 279.105071 
L 234.906087 283.4723 
L 235.133462 274.084798 
M 238.544081 256.779143 
L 238.771456 253.881262 
L 238.99883 256.452621 
L 239.226205 255.43224 
L 239.453579 254.983273 
L 239.680954 249.922185 
L 240.135703 255.595501 
L 240.363078 254.207784 
L 240.590452 249.432402 
L 240.817827 249.269141 
L 241.045202 244.49376 
M 245.365319 234.57566 
L 245.592693 233.759356 
L 245.820068 239.310226 
L 246.274817 229.10642 
L 246.502192 228.412561 
L 246.729566 229.188051 
L 247.184316 220.576038 
M 258.325671 214.453755 
L 258.553046 214.453755 
L 258.78042 205.678481 
L 259.007795 215.35169 
L 259.235169 214.49457 
L 259.462544 206.821308 
L 259.917293 200.658209 
L 260.144668 197.841958 
L 260.599417 200.413317 
M 273.559769 207.270275 
L 273.787144 208.08658 
M 277.879886 187.842228 
L 278.107261 189.842174 
M 312.213451 238.738813 
L 312.440825 241.350988 
L 312.6682 240.575498 
L 312.895574 237.31028 
M 318.807314 236.779683 
L 319.034689 238.738813 
M 319.944187 235.473595 
L 320.171561 234.902182 
L 320.398936 234.738921 
L 320.626311 235.677671 
L 320.853685 235.43278 
L 321.08106 235.555226 
L 321.308434 233.759356 
L 321.535809 230.861475 
L 321.763184 230.779845 
L 321.990558 228.535007 
L 322.217933 229.718649 
L 322.445307 233.473649 
L 322.900057 230.616584 
L 323.127431 225.147344 
M 327.902298 216.576146 
L 328.129672 215.51495 
L 328.357047 215.596581 
L 328.584422 216.086364 
L 329.039171 219.269951 
L 329.266545 219.351582 
L 329.49392 220.494408 
L 329.721295 219.718919 
M 336.315158 205.270329 
L 336.542533 211.392613 
L 336.769907 210.290602 
L 336.997282 206.617231 
L 337.224656 204.821362 
L 337.452031 205.147883 
L 337.679406 206.331525 
L 337.90678 206.821308 
L 338.134155 208.127395 
L 338.361529 206.576416 
L 338.588904 203.964242 
L 338.816278 199.311306 
M 354.277751 238.044955 
L 354.505126 233.881802 
M 355.18725 233.55528 
L 355.414624 233.473649 
M 356.551497 224.698376 
L 356.778872 224.412669 
M 357.233621 216.249625 
L 357.460996 217.433266 
L 357.68837 217.31082 
L 357.915745 221.188267 
L 358.370494 215.882288 
L 358.597868 216.004733 
L 358.825243 213.63745 
L 359.052618 214.168048 
L 359.279992 205.882557 
L 359.507367 210.086526 
L 359.734741 207.351906 
M 395.887302 270.044091 
L 396.114677 272.493004 
L 396.342052 276.28882 
L 396.569426 269.227786 
L 396.796801 268.452297 
L 397.024175 270.248167 
L 397.25155 269.921645 
L 397.478925 267.187025 
L 397.706299 265.921753 
L 397.933674 261.636154 
M 403.16329 258.656643 
L 403.390664 260.207622 
L 403.845413 255.962838 
M 407.710782 252.901696 
L 407.938156 248.452837 
M 420.898508 259.228056 
L 421.125883 257.799523 
M 421.580632 257.921969 
L 421.808007 257.309741 
L 422.035381 257.064849 
L 422.262756 255.309795 
L 422.49013 255.391425 
M 434.313609 273.431754 
L 434.540984 273.880722 
L 434.768359 274.819472 
L 434.995733 272.452189 
M 449.775082 272.574635 
L 450.002457 272.819526 
L 450.229831 274.533765 
L 450.457206 270.533873 
L 450.684581 271.839961 
L 450.911955 267.472732 
L 451.13933 267.431916 
L 451.366704 266.329905 
L 451.594079 266.329905 
M 452.048828 266.085014 
L 452.276203 264.574851 
M 466.600802 339.838125 
L 466.828177 335.185189 
L 467.055552 337.103505 
L 467.282926 336.695353 
M 468.192425 336.246385 
L 468.419799 336.001494 
M 468.874548 334.205624 
L 469.101923 330.124102 
M 470.011421 323.512035 
L 470.238796 322.450839 
M 471.148294 328.899645 
L 471.375669 324.287524 
L 471.603044 324.532416 
L 471.830418 324.981383 
M 500.934367 326.695623 
L 501.161741 323.797742 
M 501.61649 325.960949 
L 501.843865 326.450731 
L 502.07124 328.85883 
L 502.525989 325.471166 
L 502.753363 323.430405 
L 503.435487 320.899861 
L 503.662862 322.042687 
M 504.57236 316.124479 
L 504.799735 313.838827 
M 510.256725 298.124965 
L 510.711474 301.390183 
L 510.938849 298.00252 
L 511.166223 299.349422 
L 511.393598 299.267792 
L 511.620973 299.431053 
M 515.713715 293.145508 
L 515.94109 291.67616 
M 516.395839 294.737302 
L 516.850588 292.69654 
L 517.077963 287.635453 
M 517.532712 288.859909 
L 517.760087 285.390615 
L 517.987461 284.900833 
M 518.442211 283.145778 
L 518.669585 280.370343 
M 528.446693 272.61545 
L 528.674068 272.003222 
L 528.901442 276.329635 
L 529.128817 275.513331 
L 529.356191 276.20719 
L 530.038315 271.554254 
M 532.312061 256.860773 
L 532.539436 257.513817 
L 532.76681 260.90148 
L 532.994185 254.248599 
M 533.448934 254.820012 
L 533.676309 258.738273 
L 533.903683 258.819904 
L 534.131058 258.452567 
M 550.956778 243.310119 
L 551.184153 246.697782 
L 551.411527 245.799847 
L 551.638902 247.350826 
L 551.866276 243.881532 
L 552.093651 246.534521 
L 552.321026 238.126585 
L 552.5484 238.208215 
L 552.775775 240.330607 
L 553.003149 246.901858 
L 553.230524 245.636586 
L 553.685273 228.045224 
L 553.912648 226.861583 
L 554.140022 219.065875 
L 554.367397 218.535277 
L 554.594772 216.004733 
L 554.822146 216.984299 
M 566.645625 197.270545 
L 566.873 198.739893 
L 567.100375 197.188915 
L 567.555124 205.760112 
L 567.782498 193.311468 
L 568.009873 189.311576 
L 568.237247 190.291142 
L 568.464622 179.842444 
L 568.691997 180.291412 
M 572.557365 173.679345 
L 572.784739 164.65918 
L 572.784739 164.65918 
" clip-path="url(#p395054e875)" style="fill: none; stroke: #00ff7f; stroke-linecap: square"/>
   </g>
   <g id="line2d_23">
    <path d="M 75.971244 116.333954 
L 76.198618 120.497107 
M 78.699739 129.884609 
L 78.927113 132.455968 
M 100.072951 95.314114 
L 100.300326 94.497809 
L 100.5277 100.293571 
M 105.075192 105.803626 
L 105.302567 106.415855 
L 105.529941 106.5383 
M 143.04675 41.519647 
L 143.274125 39.356441 
L 143.728874 44.295083 
M 147.821617 56.213128 
L 148.048991 59.27427 
L 148.276366 57.029433 
M 149.185864 54.090737 
L 149.413239 59.559977 
L 149.640613 59.151825 
M 151.45961 75.110577 
L 151.686985 68.661772 
L 151.914359 69.804598 
L 152.141734 69.845413 
L 152.369108 72.253512 
L 152.596483 76.294219 
L 152.823858 76.579926 
L 153.051232 75.886067 
L 153.278607 81.518568 
L 153.733356 77.926828 
L 153.960731 83.640959 
M 162.146216 97.31406 
L 162.373591 89.436721 
L 162.600965 87.640851 
L 162.82834 91.355037 
L 163.055715 97.518136 
M 175.333943 90.620363 
L 175.561317 89.885689 
L 175.788692 100.905799 
L 176.016067 99.028299 
L 176.243441 101.436397 
L 176.470816 100.905799 
L 176.925565 94.783516 
M 190.568041 86.375579 
L 190.795415 86.53884 
L 191.02279 91.355037 
M 193.523911 101.477213 
L 193.97866 109.395366 
L 194.206034 110.374932 
L 194.433409 106.987268 
L 194.660784 110.334116 
L 194.888158 111.150421 
L 195.115533 113.068736 
L 195.342907 111.517758 
L 195.570282 111.191236 
L 195.797657 112.578954 
L 196.025031 115.476835 
L 196.252406 115.150313 
L 196.47978 121.84401 
L 196.707155 119.10939 
L 196.93453 126.292869 
L 197.161904 125.721456 
L 197.389279 130.578468 
L 197.616653 127.966293 
L 197.844028 135.190588 
L 198.071403 133.598794 
L 198.298777 133.966131 
L 198.526152 135.802817 
L 198.753526 132.78249 
L 198.980901 138.088469 
L 199.208276 140.006785 
M 201.482022 155.353309 
L 201.936771 164.536735 
L 202.164145 162.985756 
L 202.39152 170.291681 
L 202.618895 164.781626 
M 218.762491 172.128367 
L 218.989866 174.536465 
L 219.21724 169.801899 
L 219.671989 177.23027 
L 219.899364 178.536357 
L 220.126739 171.92429 
L 220.354113 174.536465 
L 220.581488 178.781248 
L 220.808862 174.128313 
L 221.036237 172.169182 
L 221.490986 194.168588 
L 221.718361 196.495056 
M 224.67423 226.412615 
L 224.901605 228.453377 
L 225.12898 232.575714 
L 225.356354 230.330877 
M 229.903846 252.575175 
L 230.131221 248.044685 
L 230.58597 261.146372 
L 230.813345 253.391479 
L 231.040719 253.513925 
M 262.645788 177.3119 
L 262.873163 180.250596 
M 263.555287 178.209835 
L 263.782661 180.536303 
M 270.14915 180.740379 
L 270.376525 181.76076 
L 270.603899 180.04652 
M 292.204486 179.760814 
L 292.431861 184.49538 
L 292.659235 184.985162 
L 292.88661 182.577064 
L 293.113984 184.128043 
M 298.570975 186.168804 
L 299.025724 191.025816 
L 299.253099 196.005273 
M 303.118467 207.270275 
L 303.345841 204.617285 
L 303.573216 207.025384 
L 303.80059 207.392721 
L 304.027965 206.168264 
L 304.25534 207.147829 
L 304.710089 211.310982 
L 304.937463 205.229514 
L 305.392213 207.555982 
L 305.619587 210.372232 
M 315.62407 225.310604 
L 315.851444 226.3718 
L 316.078819 225.963648 
M 325.855926 212.086472 
L 326.310676 212.821146 
M 331.767666 195.148153 
L 331.995041 193.515544 
L 332.222415 197.597067 
M 342.226897 182.168912 
L 342.454272 185.352499 
L 342.681647 184.617825 
L 343.136396 187.025924 
L 343.36377 179.02614 
L 343.591145 180.209781 
L 343.81852 180.209781 
L 344.045894 182.69951 
L 344.273269 182.903586 
L 344.500643 185.066793 
L 344.728018 192.454349 
L 344.955393 193.066577 
L 345.182767 189.597283 
L 345.637516 204.168318 
L 345.864891 205.270329 
L 346.092266 211.882395 
M 372.695094 177.638422 
L 372.922468 180.087335 
L 373.149843 178.005759 
L 373.377217 178.209835 
M 381.790077 196.413425 
L 382.017452 192.331903 
L 382.244827 192.903316 
M 382.92695 198.903154 
L 383.154325 197.841958 
L 383.3817 199.229676 
L 383.609074 196.005273 
L 383.836449 198.08685 
L 384.063823 198.495002 
L 384.291198 203.63772 
L 384.518573 200.658209 
L 384.745947 209.678373 
M 388.611315 230.167616 
L 388.83869 226.820768 
L 389.066065 227.514627 
L 389.293439 223.718811 
L 389.520814 228.371746 
L 389.748188 227.188105 
M 392.704058 252.085392 
L 392.931433 251.595609 
L 393.158807 244.49376 
L 393.840931 250.90175 
M 414.53202 218.412831 
L 414.759394 220.698484 
L 414.986769 221.147451 
M 416.805765 233.392019 
L 417.03314 235.187889 
L 417.260515 233.228758 
L 417.487889 234.371584 
L 417.715264 234.126693 
L 417.942638 239.800009 
L 418.170013 236.37153 
L 418.397388 235.677671 
L 418.624762 234.167508 
L 419.079511 239.351042 
L 419.306886 234.902182 
L 419.534261 242.289738 
M 424.991251 244.657021 
L 425.218626 246.412076 
M 429.311368 253.718001 
L 429.538743 257.554632 
L 429.766118 257.677078 
M 430.220867 252.207838 
L 430.448241 251.718055 
M 437.724228 247.14675 
L 437.951603 253.024142 
L 438.178978 253.758816 
L 438.406352 255.962838 
L 438.633727 255.35061 
L 438.861101 256.493436 
L 439.088476 261.023926 
L 439.315851 261.064741 
L 439.7706 262.942242 
L 439.997974 263.717731 
L 440.225349 267.472732 
M 455.232072 254.126153 
L 455.459447 253.799631 
L 455.686822 257.636262 
L 455.914196 256.411806 
L 456.141571 259.472948 
L 456.368945 258.411752 
L 456.59632 254.860827 
M 459.779564 272.69708 
L 460.006939 266.37072 
L 460.689063 269.921645 
L 460.916437 269.268601 
L 461.143812 266.982949 
L 461.371187 266.819688 
L 461.825936 271.472624 
L 462.05331 269.186971 
L 462.280685 271.513439 
L 462.50806 276.329635 
L 462.962809 289.349692 
L 463.417558 297.961704 
L 463.644933 295.635237 
L 463.872307 295.34953 
L 464.099682 297.471922 
L 464.327056 295.553606 
L 464.554431 296.818878 
M 479.33378 297.594367 
L 479.561154 302.53301 
M 480.698027 307.634913 
L 480.925402 310.369533 
L 481.152777 309.063446 
L 481.380151 309.104261 
L 481.607526 310.083826 
M 490.70251 315.634697 
L 490.929884 316.655077 
L 491.157259 318.287686 
M 491.612008 317.920349 
L 491.839383 317.104045 
M 492.976256 317.389751 
L 493.20363 318.410132 
M 540.497547 239.636748 
" clip-path="url(#p395054e875)" style="fill: none; stroke: #ff4500; stroke-linecap: square"/>
   </g>
   <g id="line2d_24">
    <path d="M 65.966761 128.211185 
L 66.421511 129.639718 
L 66.648885 128.007109 
L 66.87626 129.19075 
L 67.103634 128.415261 
L 67.331009 128.700967 
L 68.013133 137.639502 
L 68.240507 142.129176 
L 68.467882 144.006677 
L 69.604755 131.149881 
L 69.83213 137.231349 
M 73.015374 130.741729 
L 73.242748 124.57863 
L 73.470123 123.558249 
L 73.697498 124.701075 
L 73.924872 123.435803 
L 74.152247 123.599064 
L 74.379621 120.374662 
L 74.606996 120.415477 
L 74.834371 119.272651 
L 75.28912 124.252108 
L 75.516494 121.966455 
L 75.743869 117.599226 
M 76.425993 124.007217 
L 76.653367 125.843902 
L 77.108117 122.497053 
L 77.335491 123.599064 
L 77.562866 129.884609 
L 77.79024 127.027543 
M 78.24499 130.741729 
L 78.472364 134.047762 
M 79.154488 136.37423 
L 79.381863 139.312926 
L 79.609237 137.272165 
L 79.836612 140.210861 
L 80.063986 137.435426 
L 80.291361 136.210969 
L 80.74611 146.782112 
L 80.973485 143.843416 
M 82.792482 143.557709 
L 83.019856 139.231295 
L 83.247231 138.1701 
L 83.474605 134.945697 
L 83.70198 136.333415 
L 83.929355 133.476349 
L 84.156729 134.782436 
L 84.384104 132.945751 
L 84.611478 132.578414 
L 84.838853 132.660044 
L 85.066228 130.170316 
L 85.293602 125.639826 
L 85.520977 128.088739 
L 85.748351 127.639772 
L 85.975726 131.966185 
L 86.203101 131.313142 
L 86.430475 134.006947 
L 86.65785 138.496621 
L 87.112599 137.39461 
L 87.339974 132.007001 
L 87.567348 133.517164 
L 87.794723 133.353903 
L 88.022097 134.170208 
L 88.249472 130.578468 
L 88.476847 122.456238 
L 88.704221 123.150097 
L 89.15897 127.027543 
L 89.386345 125.394934 
L 89.61372 125.109228 
L 90.068469 131.558033 
L 90.295843 131.190696 
L 90.523218 133.027381 
L 90.977967 124.66026 
L 91.205342 124.905152 
L 91.432716 129.435642 
L 91.660091 127.231619 
M 92.11484 128.905044 
L 92.342215 128.33363 
L 92.569589 127.231619 
L 92.796964 122.211347 
L 93.024338 123.63988 
L 93.251713 121.027705 
L 93.479088 122.333792 
L 93.706462 120.578738 
L 93.933837 121.517488 
L 94.388586 124.741891 
L 94.843335 117.762487 
L 95.298084 118.905314 
L 95.525459 118.742053 
L 95.752834 118.129824 
L 95.980208 119.068574 
L 96.207583 119.19102 
M 98.481329 115.884987 
L 98.708703 113.762595 
L 98.936078 113.191182 
L 99.163453 113.068736 
L 99.390827 106.864822 
L 99.618202 104.905691 
L 99.845576 103.926126 
M 100.755075 98.660962 
L 100.982449 98.497701 
L 101.209824 100.579278 
M 101.664573 103.109822 
L 101.891948 103.885311 
L 102.119322 102.089441 
L 102.346697 98.824223 
L 102.574072 101.558843 
L 103.028821 118.007379 
L 103.256195 116.578846 
L 103.48357 114.129932 
L 103.710945 117.721672 
L 103.938319 114.5789 
L 104.165694 113.680965 
L 104.393068 115.068682 
L 104.620443 117.884933 
L 104.847818 105.721996 
M 105.757316 110.497377 
L 105.984691 111.84428 
L 106.212065 114.701345 
L 106.43944 114.497269 
L 106.666814 114.823791 
L 106.894189 111.109606 
L 107.121564 113.72178 
L 107.348938 111.476943 
L 107.576313 115.068682 
L 108.031062 113.680965 
L 108.258437 118.782868 
L 108.713186 120.211401 
L 108.94056 115.395204 
L 109.167935 118.456346 
L 109.39531 119.721618 
L 109.622684 113.966671 
L 109.850059 113.191182 
L 110.077433 113.72178 
L 110.304808 111.885095 
L 110.532182 112.456508 
L 110.759557 110.13004 
L 111.214306 109.395366 
L 111.441681 112.293247 
L 111.669055 112.823845 
L 111.89643 116.007433 
L 112.123805 110.98716 
L 112.351179 111.681019 
L 112.578554 113.844226 
L 112.805928 114.864606 
L 113.033303 120.374662 
L 113.260678 117.925748 
L 113.488052 120.252216 
L 113.715427 119.599172 
L 113.942801 121.06852 
L 114.397551 115.354389 
L 114.624925 116.538031 
L 115.079674 122.456238 
L 115.307049 119.925694 
M 117.35342 113.762595 
L 117.580795 110.742269 
L 117.80817 112.211617 
L 118.035544 107.762757 
L 118.262919 108.660692 
L 118.490293 105.150583 
L 118.717668 99.681343 
L 118.945043 98.416071 
L 119.172417 102.048626 
L 119.399792 99.19156 
L 119.627166 101.06906 
L 119.854541 101.803734 
L 120.081916 99.436451 
L 120.30929 98.987484 
L 120.536665 101.599658 
L 120.764039 98.089549 
L 120.991414 98.783408 
L 121.218789 98.579332 
L 121.446163 96.089603 
L 121.673538 98.538516 
M 125.993655 84.334818 
L 126.22103 86.212319 
L 126.448404 84.987862 
L 126.675779 82.824655 
L 126.903154 81.885905 
L 127.130528 86.212319 
L 127.357903 85.232753 
L 128.040027 73.355523 
L 128.267401 74.171827 
L 128.494776 73.641229 
L 128.949525 68.416881 
L 129.176899 74.57998 
L 129.404274 75.069762 
L 129.631649 74.253458 
L 129.859023 76.212588 
L 130.086398 76.661556 
L 130.313772 75.069762 
L 130.541147 74.784056 
L 130.768522 75.437099 
L 130.995896 63.72313 
L 131.223271 72.171881 
L 131.450645 73.233077 
L 131.67802 71.967805 
L 131.905395 66.294489 
M 136.452887 50.009214 
L 136.680261 47.641931 
L 136.907636 43.397148 
L 137.13501 42.621659 
L 137.362385 43.070626 
L 137.58976 43.070626 
L 138.044509 39.682962 
L 138.271883 40.009484 
L 138.499258 45.315463 
L 138.726633 37.601386 
L 138.954007 41.111495 
L 139.181382 37.438125 
L 139.408756 37.846277 
L 139.636131 39.152364 
L 139.863506 41.193126 
L 140.09088 38.621767 
L 140.318255 42.417582 
L 140.545629 42.988996 
L 140.773004 37.846277 
L 141.227753 47.111333 
L 141.455128 44.335898 
L 141.682502 49.682692 
L 141.909877 44.009376 
L 142.137252 52.784649 
L 142.364626 47.601116 
L 142.592001 47.152148 
L 142.819375 42.94818 
M 143.956248 46.009322 
L 144.183623 46.376659 
L 144.410998 53.764215 
L 144.638372 55.437639 
L 144.865747 48.41742 
L 145.093121 57.4784 
L 145.320496 58.33552 
L 145.547871 62.049706 
L 145.775245 58.33552 
L 146.00262 59.070194 
L 146.229994 63.927206 
L 146.457369 65.478184 
L 146.684744 65.355739 
L 146.912118 62.580303 
L 147.139493 61.763999 
L 147.366867 58.743672 
L 147.594242 60.498727 
M 148.50374 57.600846 
L 148.731115 58.743672 
L 148.958489 57.315139 
M 150.322737 71.233131 
L 150.550112 73.151447 
L 151.004861 73.641229 
L 151.232235 76.416665 
M 154.642854 94.824331 
L 154.870229 97.354875 
L 155.097604 102.293517 
L 155.324978 100.905799 
L 156.007102 131.068251 
L 156.234477 136.415045 
L 156.461851 136.864012 
L 156.9166 124.496999 
L 157.143975 125.272489 
L 157.37135 116.782922 
L 157.598724 122.578684 
L 157.826099 116.986998 
L 158.053473 117.39515 
L 158.280848 127.925478 
L 158.508223 118.742053 
L 158.735597 118.129824 
L 158.962972 123.966401 
L 159.190346 117.027813 
M 159.87247 110.415747 
L 160.099845 106.579116 
L 160.327219 96.497755 
L 160.554594 99.844604 
L 160.781969 98.416071 
L 161.009343 100.416017 
L 161.236718 103.64042 
L 161.464092 99.967049 
L 161.691467 101.313952 
L 161.918842 98.701777 
M 163.283089 100.620093 
L 163.510464 121.231781 
L 163.737838 117.272705 
L 163.965213 117.476781 
L 164.192588 113.272813 
L 164.419962 118.986944 
L 164.647337 117.435965 
L 164.874711 130.90499 
L 165.102086 128.456076 
M 165.78421 145.557655 
L 166.011584 146.986188 
L 166.238959 141.108796 
L 166.466334 123.272543 
L 166.921083 111.681019 
L 167.148457 116.252324 
L 167.375832 111.027975 
L 167.603206 116.170693 
L 168.057956 112.334062 
L 168.28533 112.701399 
L 168.512705 112.089171 
L 168.740079 113.109552 
L 169.194829 127.231619 
L 169.422203 126.129608 
L 169.649578 117.762487 
L 169.876952 115.354389 
L 170.104327 120.578738 
L 170.331702 121.558303 
L 170.559076 123.150097 
L 170.786451 125.762271 
L 171.013825 114.170747 
L 171.2412 118.497161 
L 171.468575 110.497377 
L 171.695949 111.92591 
L 171.923324 116.37477 
L 172.150698 110.007595 
L 172.378073 108.456616 
M 173.060197 115.925802 
L 173.287571 105.436289 
L 173.514946 100.416017 
L 173.742321 100.701723 
L 173.969695 96.620201 
L 174.19707 95.51819 
L 174.651819 99.967049 
L 174.879194 98.25281 
L 175.106568 93.436613 
M 177.15294 106.619931 
L 177.607689 113.517704 
L 177.835063 111.92591 
L 178.062438 109.436181 
L 178.289813 113.64015 
L 178.744562 125.027597 
L 178.971936 129.313196 
L 179.199311 125.843902 
L 179.426686 128.578522 
L 179.65406 126.415315 
L 179.881435 122.129716 
L 180.108809 124.986782 
L 180.336184 116.048248 
M 182.837305 106.619931 
L 183.064679 103.109822 
L 183.292054 103.436343 
M 183.974178 97.191614 
L 184.201552 98.33444 
L 184.428927 91.885635 
L 184.656301 88.661232 
L 184.883676 90.13058 
L 185.111051 92.8652 
L 185.338425 89.804058 
L 185.5658 95.477375 
L 186.020549 91.314222 
L 186.247924 90.497917 
L 186.475298 90.253026 
L 186.702673 86.498025 
L 186.930047 80.498187 
L 187.157422 83.518514 
L 187.612171 80.171665 
L 187.839546 89.885689 
L 188.06692 86.498025 
L 188.294295 90.620363 
L 188.521669 84.824601 
L 188.749044 90.661178 
L 188.976419 86.130688 
L 189.203793 92.742755 
L 189.431168 93.844766 
L 189.658542 93.110092 
L 189.885917 91.559113 
L 190.113292 97.518136 
L 190.340666 93.273352 
M 191.250165 92.334602 
L 191.477539 95.069222 
L 191.704914 95.722266 
L 191.932288 98.783408 
L 192.159663 97.31406 
L 192.614412 104.456724 
L 192.841787 101.518028 
L 193.069161 106.824007 
L 193.296536 108.374986 
M 199.43565 142.986296 
L 199.663025 150.373852 
L 199.890399 149.353471 
L 200.117774 153.190102 
L 200.345149 153.108472 
L 200.572523 160.291951 
L 200.799898 162.618419 
L 201.254647 153.026841 
M 202.846269 172.495704 
L 203.073644 166.495866 
L 203.301018 168.863149 
L 203.528393 166.495866 
L 203.755768 174.128313 
L 203.983142 173.924236 
L 204.210517 172.495704 
L 204.437891 173.271193 
L 205.120015 194.209403 
L 205.34739 206.494786 
L 205.574764 212.412993 
L 206.256888 189.678913 
L 206.484263 187.801413 
L 206.711637 197.31136 
L 206.939012 195.719566 
L 207.166386 195.270599 
L 207.393761 198.08685 
L 207.621136 196.617501 
L 207.84851 199.923535 
L 208.075885 198.699078 
L 208.303259 203.392829 
L 208.530634 203.107122 
L 208.758009 202.045926 
L 208.985383 194.372664 
L 209.212758 195.352229 
L 209.440132 199.556198 
L 209.667507 197.31136 
L 209.894882 200.699024 
M 211.713878 195.719566 
L 211.941253 186.740217 
L 212.168628 183.352553 
L 212.396002 182.903586 
L 212.850751 177.271085 
L 213.078126 182.372988 
L 213.305501 183.474999 
L 213.987624 172.414073 
L 214.214999 177.107824 
L 214.442374 175.4344 
L 214.669748 182.740325 
L 214.897123 179.271031 
L 215.124497 178.413911 
L 215.351872 187.270815 
M 216.26137 190.780924 
L 216.488745 185.883097 
L 216.943494 172.169182 
L 217.170869 168.006029 
L 217.398243 170.618203 
L 217.625618 170.169236 
L 217.852993 166.985648 
L 218.080367 175.720106 
L 218.307742 178.005759 
L 218.535116 178.046574 
M 221.945735 213.188483 
L 222.17311 218.290386 
L 222.627859 216.984299 
L 223.082608 233.187943 
L 223.309983 231.84104 
L 223.764732 243.63664 
L 223.992107 244.901912 
L 224.219481 244.248869 
L 224.446856 240.167346 
M 225.583729 235.391965 
L 225.811103 231.310442 
M 226.265853 227.922779 
L 226.720602 247.391641 
L 226.947976 245.595771 
L 227.402726 256.942404 
L 227.6301 260.697404 
L 227.857475 255.962838 
L 228.539599 273.799091 
L 228.994348 257.309741 
L 229.221722 268.982895 
L 229.449097 261.67697 
L 229.676472 261.962676 
M 231.268094 260.493328 
L 231.950218 273.63583 
L 232.177592 275.186809 
L 232.404967 273.390939 
L 232.632341 275.145994 
L 233.314465 285.798767 
L 233.54184 279.064255 
M 235.360837 272.125667 
L 235.815586 263.187133 
L 236.04296 274.288874 
L 236.270335 268.329851 
M 236.725084 260.779035 
L 236.952459 260.738219 
L 237.179833 263.595285 
L 237.634583 250.085446 
L 237.861957 249.514033 
L 238.089332 247.554902 
L 238.316706 247.595717 
M 241.272576 243.350934 
L 241.499951 235.555226 
L 241.727325 235.555226 
L 241.9547 233.963432 
L 242.182075 233.759356 
L 242.409449 231.310442 
L 242.864198 220.086256 
L 243.091573 223.433104 
L 243.318948 218.249571 
L 243.546322 223.351474 
L 243.773697 220.616854 
L 244.001071 211.270167 
L 244.228446 214.535385 
L 244.45582 220.371962 
L 244.683195 220.861745 
L 245.137944 234.126693 
M 247.41169 222.657615 
L 247.639065 223.55555 
L 248.093814 220.943375 
L 248.321189 221.147451 
L 248.548563 213.188483 
L 248.775938 215.392505 
L 249.003312 215.392505 
L 249.230687 214.617016 
L 249.458062 214.372124 
L 249.685436 211.678319 
L 249.912811 215.310874 
L 250.36756 203.719351 
L 250.594935 208.535547 
L 250.822309 209.066145 
L 251.049684 218.576092 
L 251.277058 215.882288 
L 251.504433 216.821038 
L 251.959182 219.88218 
L 252.641306 206.045818 
L 252.868681 207.066199 
L 253.096055 203.55609 
L 253.550804 224.167778 
L 253.778179 215.025168 
L 254.005554 212.168102 
L 254.232928 213.963972 
L 254.460303 209.066145 
L 254.687677 214.372124 
L 254.915052 210.984461 
L 255.142427 211.678319 
L 255.369801 208.535547 
L 255.597176 208.16821 
L 255.82455 198.617447 
L 256.2793 205.229514 
L 256.506674 205.637666 
L 256.734049 206.37234 
L 256.961423 207.841688 
L 257.188798 206.984569 
L 257.416173 209.555928 
L 257.643547 207.841688 
L 257.870922 214.657831 
L 258.098296 209.02533 
M 260.826792 193.311468 
L 261.508915 188.576902 
L 261.73629 185.148423 
L 261.963665 179.230216 
L 262.418414 181.924021 
M 263.100537 180.781194 
L 263.327912 180.577118 
M 264.010036 185.066793 
L 264.23741 183.55663 
M 265.146909 177.107824 
L 265.374283 184.944347 
L 265.601658 185.638206 
L 265.829033 194.005327 
L 266.056407 197.923589 
L 266.283782 194.984892 
L 266.511156 194.617555 
L 266.965906 195.964458 
L 267.19328 189.801359 
L 267.420655 190.985 
L 267.648029 200.535763 
L 267.875404 200.127611 
L 268.102779 205.270329 
L 268.330153 192.209457 
L 268.784902 181.883205 
L 269.012277 181.515868 
L 269.239652 185.270869 
L 269.467026 181.597499 
L 269.921775 187.189185 
M 270.831274 182.740325 
L 271.058648 186.087173 
L 271.286023 191.433968 
L 271.513398 190.90337 
L 271.740772 186.576956 
L 271.968147 186.658587 
L 272.195521 187.678967 
L 272.877645 197.841958 
L 273.10502 196.780762 
L 273.332394 202.005111 
M 274.014518 200.494948 
L 274.241893 196.576686 
L 274.469267 197.882773 
L 274.696642 191.229892 
L 274.924017 190.576848 
L 275.151391 183.883151 
L 275.378766 185.842282 
L 275.60614 191.107446 
L 275.833515 187.189185 
L 276.06089 178.25065 
L 276.515639 186.944293 
L 276.970388 178.658803 
L 277.197763 180.373042 
L 277.425137 178.087389 
L 277.652512 181.393423 
M 278.334636 164.65918 
L 278.56201 166.618311 
L 278.789385 166.618311 
L 279.016759 167.067279 
L 279.244134 168.822333 
L 279.698883 167.067279 
M 280.153632 165.5163 
L 280.381007 165.230594 
L 280.608382 170.005975 
L 280.835756 167.924398 
L 281.063131 168.536627 
L 281.51788 171.475323 
L 281.745254 171.84266 
L 281.972629 170.495758 
L 282.200004 171.965106 
L 282.427378 170.740649 
L 282.654753 173.189562 
L 283.109502 175.51603 
L 283.336877 169.761084 
L 283.564251 168.046844 
L 283.791626 161.883745 
L 284.019 163.271463 
L 284.246375 171.801845 
L 284.47375 171.312062 
L 284.701124 168.454996 
L 284.928499 172.291627 
L 285.155873 172.495704 
L 285.383248 172.209997 
L 285.610623 172.69978 
L 285.837997 173.801791 
L 286.065372 173.107932 
L 286.292746 175.679291 
L 286.520121 171.76103 
L 286.747496 172.291627 
L 286.97487 169.475377 
L 287.202245 171.556953 
L 287.429619 177.964944 
L 287.656994 176.046628 
L 287.884369 176.046628 
L 288.111743 175.597661 
L 288.339118 170.944725 
L 288.793867 181.76076 
L 289.021242 182.087281 
L 289.475991 176.577226 
L 289.703365 177.189454 
L 289.93074 174.414019 
L 290.158115 181.393423 
L 290.385489 181.883205 
L 290.612864 181.638314 
L 290.840238 178.005759 
L 291.067613 183.311738 
L 291.294988 182.372988 
L 291.522362 187.189185 
L 291.977111 184.944347 
M 293.341359 195.719566 
L 293.568734 195.51549 
L 293.796108 197.597067 
L 294.023483 194.740001 
L 294.250857 198.576632 
L 294.478232 194.086958 
L 294.705607 195.719566 
L 294.932981 196.454241 
L 295.160356 196.454241 
M 295.615105 201.352068 
L 296.069854 203.55609 
L 296.297229 203.229568 
L 296.524603 200.209241 
L 296.751978 193.678805 
L 297.206727 191.638044 
L 297.661476 188.495272 
L 297.888851 192.454349 
M 299.480473 194.535925 
L 299.707848 196.495056 
L 299.935222 201.719405 
L 300.162597 199.882719 
L 300.389972 199.760274 
L 300.617346 199.392937 
L 300.844721 196.250164 
L 301.072095 196.250164 
L 301.29947 201.311252 
L 301.526844 200.739839 
L 301.754219 201.474513 
L 302.208968 206.127449 
L 302.436343 210.984461 
L 302.663717 206.739677 
L 302.891092 206.168264 
M 305.846962 216.086364 
L 306.074336 215.719027 
L 306.301711 221.147451 
L 306.529086 223.229028 
L 306.75646 222.045386 
L 306.983835 226.698322 
L 307.211209 227.024844 
L 307.438584 223.55555 
L 307.665959 231.636964 
L 307.893333 233.392019 
L 308.120708 228.943159 
L 308.348082 228.371746 
L 308.575457 225.228974 
L 309.030206 233.392019 
L 309.257581 232.290008 
L 309.484955 234.085878 
L 309.71233 234.738921 
L 309.939705 238.861259 
L 310.167079 239.432672 
L 310.621828 236.534791 
L 310.849203 238.044955 
L 311.076578 237.22865 
L 311.303952 232.085932 
L 311.531327 231.432888 
L 311.758701 228.126855 
L 311.986076 234.983813 
M 313.122949 236.167454 
L 313.577698 232.738975 
L 313.805073 233.963432 
L 314.032447 233.922617 
L 314.259822 229.269681 
L 314.487197 231.351258 
L 314.714571 231.473703 
L 314.941946 232.371638 
L 315.16932 227.31055 
L 315.396695 227.269735 
M 317.215692 229.677833 
L 317.443066 230.739029 
L 317.670441 230.983921 
L 317.897816 232.290008 
L 318.12519 232.902236 
L 318.352565 235.106258 
L 318.579939 235.718487 
M 319.262063 237.840878 
L 319.489438 238.08577 
L 319.716812 237.840878 
M 323.809555 223.269843 
L 324.03693 224.086148 
L 324.264304 219.514843 
L 324.719053 215.882288 
L 324.946428 212.249733 
L 325.401177 210.208971 
L 325.628552 212.576254 
M 326.992799 215.882288 
L 327.674923 214.657831 
M 329.948669 221.718865 
L 330.176044 219.433212 
L 330.403418 215.474135 
L 330.630793 214.984353 
L 330.858168 211.310982 
L 331.085542 202.413263 
L 331.312917 203.433644 
L 331.540291 201.637774 
M 332.44979 195.352229 
L 332.677164 196.984838 
L 332.904539 200.086796 
L 333.131914 205.882557 
L 333.359288 207.188645 
L 333.586663 206.168264 
L 333.814037 204.045872 
L 334.041412 209.229406 
L 334.268787 208.657993 
L 334.496161 206.862123 
L 334.723536 206.698862 
L 334.95091 211.75995 
L 335.178285 210.208971 
L 335.40566 210.494678 
L 335.633034 204.658101 
L 335.860409 203.392829 
L 336.087783 204.209133 
M 339.043653 194.903262 
L 339.271028 192.250272 
L 339.498402 188.127935 
L 339.725777 191.148261 
L 339.953151 191.474783 
L 340.180526 192.944131 
L 340.635275 187.556522 
L 340.86265 185.474945 
L 341.090024 185.964728 
L 341.317399 185.393315 
L 341.544774 188.291196 
L 341.772148 189.760544 
L 341.999523 186.127989 
M 346.31964 219.310766 
L 346.547015 220.371962 
L 346.774389 215.882288 
L 347.001764 220.82093 
M 347.456513 220.127071 
L 347.683888 222.69843 
L 347.911262 220.494408 
L 348.138637 237.14702 
L 348.366012 237.800063 
L 348.593386 233.63691 
L 349.048135 231.881856 
L 349.27551 236.738867 
L 349.502885 237.269465 
L 349.957634 231.310442 
L 350.412383 235.596041 
L 350.639758 229.718649 
L 350.867132 228.371746 
L 351.094507 227.963594 
L 351.321881 228.08604 
L 351.549256 228.779899 
L 351.776631 232.494084 
L 352.004005 231.473703 
L 352.23138 234.738921 
L 352.458754 233.147128 
L 352.686129 227.555442 
L 352.913504 230.126801 
L 353.140878 230.371692 
L 353.368253 229.392127 
L 353.595627 232.494084 
M 354.7325 234.085878 
L 354.959875 230.126801 
M 355.641999 224.780006 
L 355.869373 224.208593 
M 359.962116 207.270275 
L 360.64424 195.025708 
L 360.871614 194.780816 
L 361.098989 193.270653 
L 361.326364 193.433914 
L 361.553738 192.944131 
L 361.781113 189.02587 
L 362.008487 190.658479 
L 362.235862 189.148315 
L 362.463237 191.311522 
L 362.690611 189.719728 
L 362.917986 191.76049 
L 363.14536 196.29098 
L 363.372735 195.025708 
L 363.60011 190.780924 
L 363.827484 192.250272 
L 364.054859 192.944131 
L 364.509608 201.433698 
L 364.736983 192.495164 
L 364.964357 190.699294 
L 365.419106 189.393207 
L 365.646481 190.780924 
L 365.873856 188.087119 
L 366.10123 191.678859 
L 366.328605 197.637882 
L 367.010729 188.005489 
L 367.238103 193.964512 
L 367.465478 185.270869 
L 367.692852 190.944185 
L 368.147602 184.49538 
L 368.374976 184.046412 
L 368.602351 182.495434 
L 368.829725 184.250488 
L 369.0571 182.332173 
L 369.284475 182.372988 
L 369.511849 180.250596 
L 369.739224 177.026194 
L 369.966598 175.760922 
L 370.193973 181.84239 
L 370.421348 182.617879 
L 370.648722 179.393477 
L 370.876097 181.475053 
L 371.103471 182.005651 
L 371.330846 183.352553 
L 371.558221 181.76076 
L 371.785595 181.76076 
L 372.01297 181.475053 
L 372.240344 180.04652 
L 372.467719 177.148639 
M 373.604592 184.49538 
L 373.831967 182.577064 
L 374.059341 186.209619 
L 374.286716 183.760706 
L 374.51409 184.57701 
L 374.96884 190.209511 
L 375.196214 187.066739 
L 375.423589 190.209511 
L 375.650963 188.821794 
L 375.878338 196.699132 
L 376.105713 195.882827 
L 376.333087 196.209349 
L 376.560462 194.413479 
L 377.015211 187.597337 
L 377.242585 188.372826 
L 377.46996 187.801413 
M 377.924709 188.413641 
L 378.152084 186.576956 
L 378.379458 185.883097 
L 378.606833 186.699402 
L 379.061582 191.678859 
L 379.288957 196.086904 
L 379.516331 196.739947 
L 379.743706 196.576686 
L 379.971081 192.576794 
L 380.198455 190.699294 
L 380.880579 203.515274 
L 381.335328 199.188861 
L 381.562703 198.209295 
M 382.472201 199.96435 
L 382.699576 201.188807 
M 384.973322 214.821092 
L 385.200696 212.412993 
L 385.428071 214.535385 
L 385.655446 210.576308 
L 386.110195 218.657723 
L 386.337569 219.310766 
L 386.564944 219.596473 
L 387.019693 230.779845 
L 387.247068 227.841148 
L 387.474442 229.759464 
L 387.701817 235.473595 
L 387.929192 230.004355 
M 389.975563 233.147128 
L 390.430312 237.269465 
L 390.657687 236.942943 
L 390.885061 241.269357 
L 391.112436 241.024466 
L 391.339811 249.922185 
L 391.567185 245.473325 
L 391.79456 252.085392 
L 392.021934 251.187457 
L 392.249309 253.309849 
L 392.476684 252.248653 
M 394.068306 254.697566 
L 394.523055 250.575229 
L 394.75043 252.248653 
L 394.977804 256.452621 
L 395.205179 257.799523 
L 395.432553 262.289198 
L 395.659928 264.574851 
M 398.161048 258.452567 
L 398.615798 256.493436 
L 398.843172 254.615936 
L 399.070547 254.330229 
L 399.297921 255.105718 
L 399.525296 254.166968 
L 399.752671 256.248545 
L 399.980045 254.207784 
L 400.20742 251.146642 
L 400.662169 254.49349 
L 400.889544 253.350664 
L 401.116918 250.697674 
L 401.344293 253.758816 
L 401.571667 252.330283 
L 401.799042 248.983435 
L 402.026417 253.146588 
L 402.253791 251.67724 
L 402.481166 251.065011 
L 402.70854 252.289468 
L 402.935915 252.61599 
M 404.072788 252.085392 
L 404.300163 250.371152 
L 404.527537 245.922293 
L 404.754912 246.37126 
L 404.982286 238.371476 
L 405.209661 240.085716 
L 405.66441 241.555064 
L 405.891785 241.146912 
L 406.119159 239.96327 
L 406.346534 241.473433 
L 406.573909 238.861259 
L 406.801283 241.75914 
L 407.028658 242.452999 
L 407.483407 247.391641 
M 408.165531 244.534575 
L 408.392905 242.208107 
L 408.847655 240.942835 
L 409.075029 237.391911 
L 409.302404 238.493922 
L 409.529778 234.371584 
L 409.757153 232.738975 
L 409.984528 238.08577 
L 410.211902 236.126639 
L 410.439277 232.943051 
L 410.666651 234.045063 
L 410.894026 231.800225 
L 411.121401 233.106312 
L 411.348775 233.187943 
L 411.57615 234.534845 
L 411.803524 236.575606 
L 412.030899 235.35115 
L 412.258274 230.494138 
L 412.485648 231.187997 
L 412.713023 235.147074 
L 412.940397 233.759356 
L 413.167772 234.657291 
L 413.395147 225.269789 
L 413.622521 228.983975 
L 414.07727 226.3718 
L 414.304645 224.984083 
M 415.214143 225.024898 
L 415.441518 228.494192 
L 415.668892 228.371746 
L 416.351016 235.718487 
L 416.578391 234.330769 
M 419.761635 251.024196 
L 419.98901 251.75887 
L 420.216384 253.350664 
L 420.443759 252.330283 
L 420.671134 256.697512 
M 422.717505 257.921969 
L 422.94488 255.309795 
L 423.172254 256.738327 
L 423.627003 252.126207 
L 423.854378 252.085392 
L 424.081753 247.350826 
L 424.309127 246.656967 
L 424.536502 247.963054 
L 424.763876 247.963054 
M 425.446 245.514141 
L 425.673375 243.963162 
L 425.900749 249.514033 
L 426.128124 249.595663 
L 426.355499 248.044685 
L 426.582873 247.881424 
M 427.037622 244.208053 
L 427.264997 244.942728 
M 427.719746 249.065065 
L 428.174495 256.085284 
L 428.40187 257.024034 
L 428.629245 254.41186 
L 428.856619 254.126153 
L 429.083994 254.942458 
M 430.675616 259.228056 
L 430.902991 259.758654 
L 431.130365 263.717731 
L 431.35774 263.064687 
L 431.585114 263.309579 
L 431.812489 262.166752 
L 432.267238 265.962568 
L 432.494613 265.513601 
L 432.721987 272.003222 
L 432.949362 273.676646 
L 433.404111 266.942134 
L 433.631486 266.574797 
L 433.85886 266.493166 
L 434.086235 267.921699 
M 435.677857 271.75833 
L 436.132606 266.003383 
L 436.359981 266.615612 
L 436.587355 261.391263 
L 436.81473 261.67697 
L 437.042105 260.003545 
L 437.269479 261.67697 
L 437.496854 259.595393 
M 440.452724 272.003222 
L 440.680098 269.391047 
L 440.907473 269.676754 
L 441.362222 276.574527 
L 441.589597 275.921483 
L 441.816971 276.901048 
L 442.044346 275.145994 
L 442.27172 276.411266 
L 442.499095 276.329635 
L 442.953844 278.737734 
L 443.181219 281.105017 
L 444.090717 274.329689 
L 444.318092 274.288874 
L 444.545466 276.003114 
L 444.772841 274.574581 
L 445.000216 279.268332 
L 445.22759 279.145886 
L 445.454965 275.513331 
L 445.682339 269.799199 
L 445.909714 268.125775 
L 446.137089 271.799145 
L 446.364463 269.350232 
L 446.591838 268.411482 
L 446.819212 269.96246 
L 447.046587 270.615504 
L 447.273962 273.676646 
L 447.501336 272.778711 
L 447.728711 269.840015 
L 448.18346 274.207244 
L 448.410835 272.329743 
L 448.638209 268.982895 
L 448.865584 268.982895 
L 449.092958 269.105341 
L 449.320333 271.064471 
L 449.547708 270.044091 
M 452.503577 263.268763 
L 452.958326 259.432132 
L 453.185701 257.962784 
L 453.413076 254.860827 
L 453.64045 253.595555 
L 453.867825 254.330229 
L 454.095199 256.901588 
L 454.322574 257.717893 
L 454.549949 255.922023 
L 454.777323 256.656697 
L 455.004698 255.391425 
M 456.823695 254.820012 
L 457.051069 254.003707 
L 457.505818 259.921915 
L 457.733193 262.738165 
L 457.960568 262.330013 
L 458.187942 264.166698 
L 458.415317 269.595123 
L 458.642691 269.186971 
L 458.870066 271.350178 
L 459.097441 270.125721 
L 459.55219 275.472516 
M 464.781806 307.349206 
L 465.00918 327.756818 
L 465.236555 325.144644 
L 465.463929 327.593558 
L 465.691304 332.246493 
L 465.918679 326.409916 
L 466.373428 335.552526 
M 467.510301 331.67508 
L 467.737675 332.695461 
L 467.96505 331.879156 
M 469.329298 327.716003 
L 469.556672 326.001764 
L 469.784047 326.369101 
M 470.466171 322.287578 
L 470.92092 326.532362 
M 472.057793 322.165133 
L 472.285167 318.777469 
L 472.512542 318.981545 
L 472.967291 317.14486 
L 473.194666 310.369533 
L 473.42204 311.022576 
L 473.649415 316.410186 
L 473.876789 315.308175 
L 474.104164 316.28774 
L 474.331539 315.022468 
L 474.786288 310.083826 
L 475.013662 311.063392 
L 475.241037 311.308283 
L 475.468412 314.859207 
L 475.695786 314.32861 
L 475.923161 313.144968 
L 476.150535 308.369587 
L 476.37791 311.67562 
L 476.605285 311.226652 
L 477.060034 312.369479 
L 477.514783 311.185837 
L 477.969532 317.797904 
L 478.424281 312.287848 
L 478.879031 310.002196 
L 479.106405 302.328933 
M 479.788529 306.124749 
L 480.015904 312.124587 
L 480.243278 309.675674 
L 480.470653 309.308337 
M 481.8349 311.389913 
L 482.062275 316.002034 
L 482.28965 314.165349 
L 482.517024 317.267306 
L 482.971773 315.634697 
L 483.199148 316.614262 
L 483.426523 316.042849 
L 483.653897 316.369371 
L 483.881272 319.675404 
L 484.108646 319.634589 
L 484.336021 321.920241 
L 484.563396 320.328448 
L 484.79077 321.267198 
L 485.245519 318.08361 
L 485.472894 318.369317 
L 485.700269 319.920295 
L 485.927643 320.001926 
L 486.155018 315.593882 
L 486.609767 317.512197 
L 487.291891 319.716219 
L 487.519265 317.675458 
L 487.74664 319.716219 
L 488.201389 318.655023 
L 488.428764 316.655077 
L 488.656138 312.777631 
L 488.883513 313.879642 
L 489.110888 312.491924 
L 489.338262 310.328718 
L 489.565637 311.471544 
L 489.793011 310.859315 
L 490.020386 313.593936 
M 492.066757 318.246871 
L 492.294132 318.00198 
L 492.521506 316.614262 
L 492.748881 317.553012 
M 493.431005 319.185621 
L 493.658379 318.859099 
L 493.885754 322.654915 
L 494.113129 322.818176 
L 494.340503 325.716057 
L 494.795252 324.695677 
L 495.022627 324.246709 
L 495.250002 322.083502 
L 495.477376 321.308013 
L 495.704751 322.001872 
L 495.932125 324.083448 
L 496.1595 324.369155 
L 496.386875 326.491547 
L 496.614249 325.34872 
L 496.841624 325.920133 
L 497.068998 321.920241 
L 497.296373 322.858992 
L 497.523748 323.307959 
L 497.751122 324.777307 
L 498.205871 320.491708 
L 498.433246 322.205948 
L 498.660621 321.634535 
M 499.11537 320.81823 
L 499.342744 321.67535 
L 499.570119 323.144698 
L 499.797494 323.879372 
L 500.024868 323.47122 
L 500.252243 325.389535 
L 500.479617 325.756872 
L 500.706992 325.307905 
M 503.890236 315.675512 
L 504.117611 313.920457 
L 504.344986 314.32861 
M 505.027109 310.777685 
L 505.254484 308.410402 
L 505.481859 309.838935 
L 505.709233 306.573717 
L 505.936608 308.206326 
L 506.391357 299.471868 
L 506.618732 300.206542 
L 506.846106 301.594259 
L 507.073481 304.818662 
L 507.300855 304.777847 
L 507.982979 293.676106 
L 508.210354 296.818878 
L 508.437728 296.737248 
L 508.665103 297.798444 
L 508.892478 294.288334 
L 509.119852 295.961758 
L 509.347227 299.186161 
L 509.574601 297.471922 
M 511.848347 296.043389 
L 512.075722 297.390291 
L 512.303096 296.084204 
L 512.757846 287.14567 
L 512.98522 286.125289 
L 513.212595 288.00279 
L 513.439969 287.104855 
L 513.667344 281.472354 
L 513.894719 283.839637 
L 514.122093 279.145886 
L 514.349468 282.043767 
L 514.576842 280.288712 
L 514.804217 280.411158 
L 515.031592 286.859963 
L 515.486341 291.023116 
M 518.89696 276.737788 
L 519.124334 273.227678 
L 519.351709 278.08469 
M 519.806458 275.186809 
L 520.033833 273.799091 
L 520.261207 271.023656 
L 520.488582 274.778657 
L 520.715957 274.003168 
L 520.943331 270.493058 
L 521.170706 270.166536 
L 521.39808 269.309417 
L 521.625455 265.513601 
M 522.080204 261.636154 
L 522.307579 264.656481 
L 522.534953 264.370774 
M 522.989703 262.942242 
L 523.217077 261.472894 
L 523.444452 265.962568 
L 523.671826 265.268709 
L 523.899201 270.656319 
L 524.126576 269.268601 
L 524.35395 270.778765 
L 524.581325 273.186863 
L 524.808699 270.73795 
L 525.036074 270.697134 
L 525.263449 269.105341 
L 525.490823 272.737896 
L 525.718198 272.125667 
L 525.945572 272.737896 
M 526.400322 270.248167 
L 526.627696 268.94208 
L 527.30982 271.962406 
L 527.764569 273.390939 
L 527.991944 270.125721 
L 528.219318 270.615504 
M 530.26569 263.840177 
L 530.493064 263.676916 
L 530.720439 266.493166 
L 530.947813 265.513601 
L 531.175188 266.20746 
L 531.402563 258.94235 
L 531.629937 258.779089 
L 531.857312 254.901642 
L 532.084686 255.758762 
M 534.813182 254.126153 
L 535.040556 253.146588 
L 535.267931 253.513925 
L 535.495305 238.657183 
L 535.950055 234.698106 
L 536.177429 232.69816 
L 536.404804 235.718487 
L 536.632178 236.004193 
L 537.086928 241.963216 
L 537.314302 242.371368 
L 537.541677 243.63664 
L 537.769051 241.106096 
L 537.996426 243.310119 
L 538.451175 252.738435 
L 538.67855 245.187619 
L 538.905924 245.43251 
L 539.360674 240.534683 
L 539.588048 240.453053 
L 539.815423 245.963108 
L 540.042797 247.554902 
L 540.270172 242.779521 
M 540.724921 242.61626 
L 540.952296 248.289576 
L 541.17967 249.554848 
L 541.407045 248.616098 
L 541.63442 244.983543 
L 541.861794 244.779467 
L 542.089169 243.677456 
L 542.316543 250.493598 
L 542.771293 256.697512 
L 542.998667 260.166806 
L 543.226042 258.534197 
L 543.453416 254.41186 
L 543.908166 257.350556 
L 544.13554 253.146588 
L 544.362915 256.044469 
L 544.590289 253.922077 
L 544.817664 253.228218 
L 545.045039 256.452621 
L 545.272413 257.881154 
L 545.499788 254.942458 
L 545.727162 258.697458 
L 545.954537 253.228218 
L 546.181912 251.67724 
L 546.409286 253.187403 
L 546.636661 249.065065 
L 547.09141 245.718217 
L 547.318785 247.595717 
L 547.546159 251.024196 
L 547.773534 252.085392 
L 548.228283 258.493382 
L 548.455657 257.024034 
L 548.910407 245.473325 
L 549.137781 242.575444 
L 549.365156 243.187673 
L 549.59253 238.004139 
L 549.819905 240.371422 
L 550.04728 241.310173 
L 550.274654 246.656967 
L 550.502029 242.248923 
L 550.729403 242.861151 
M 555.049521 211.678319 
L 555.50427 198.331741 
L 555.731645 204.045872 
L 555.959019 205.188699 
L 556.186394 199.229676 
L 556.413768 200.9031 
L 556.868518 202.7806 
L 557.095892 199.556198 
L 557.550641 196.535871 
L 557.778016 197.433806 
L 558.005391 194.944077 
L 558.232765 199.882719 
L 558.46014 196.862393 
L 558.687514 195.964458 
L 558.914889 192.495164 
M 559.369638 196.617501 
L 559.597013 198.331741 
L 559.824387 190.536033 
L 560.279137 190.617663 
L 560.506511 189.02587 
L 560.733886 184.046412 
L 560.96126 181.84239 
L 561.188635 182.372988 
L 561.41601 189.148315 
L 561.643384 187.556522 
L 561.870759 188.127935 
L 562.098133 185.679021 
L 562.325508 184.658641 
L 562.552883 189.311576 
L 562.780257 185.107608 
L 563.007632 196.209349 
L 563.235006 194.005327 
L 563.689756 177.883313 
L 563.91713 187.638152 
L 564.144505 182.658695 
L 564.599254 195.229784 
L 564.826629 192.168642 
L 565.054003 191.433968 
L 565.281378 189.02587 
L 565.508752 177.760868 
L 565.736127 178.617987 
L 565.963502 189.189131 
L 566.190876 184.699456 
L 566.418251 194.331849 
M 569.37412 182.128097 
L 569.82887 167.393801 
L 570.056244 171.679399 
L 570.283619 164.49592 
L 570.510993 162.373528 
L 570.738368 163.965322 
L 570.965743 158.659342 
L 571.193117 158.25119 
L 571.420492 159.312386 
L 571.647866 156.251244 
L 571.875241 156.37369 
L 572.102616 162.210267 
L 572.32999 163.434724 
M 573.012114 152.70032 
L 573.239489 150.537113 
L 573.239489 150.537113 
" clip-path="url(#p395054e875)" style="fill: none; stroke: #1e90ff; stroke-linecap: square"/>
   </g>
   <g id="patch_3">
    <path d="M 40.603125 354.958125 
L 40.603125 22.318125 
" style="fill: none; stroke: #000000; stroke-width: 0.8; stroke-linejoin: miter; stroke-linecap: square"/>
   </g>
   <g id="patch_4">
    <path d="M 598.603125 354.958125 
L 598.603125 22.318125 
" style="fill: none; stroke: #000000; stroke-width: 0.8; stroke-linejoin: miter; stroke-linecap: square"/>
   </g>
   <g id="patch_5">
    <path d="M 40.603125 354.958125 
L 598.603125 354.958125 
" style="fill: none; stroke: #000000; stroke-width: 0.8; stroke-linejoin: miter; stroke-linecap: square"/>
   </g>
   <g id="patch_6">
    <path d="M 40.603125 22.318125 
L 598.603125 22.318125 
" style="fill: none; stroke: #000000; stroke-width: 0.8; stroke-linejoin: miter; stroke-linecap: square"/>
   </g>
   <g id="text_16">
    <!-- DVN, Relative Strength Index (RSI), DVN -->
    <g transform="translate(198.94125 16.318125)scale(0.12 -0.12)">
     <defs>
      <path id="DejaVuSans-56" d="M 1831 0 
L 50 4666 
L 709 4666 
L 2188 738 
L 3669 4666 
L 4325 4666 
L 2547 0 
L 1831 0 
z
" transform="scale(0.015625)"/>
      <path id="DejaVuSans-4e" d="M 628 4666 
L 1478 4666 
L 3547 763 
L 3547 4666 
L 4159 4666 
L 4159 0 
L 3309 0 
L 1241 3903 
L 1241 0 
L 628 0 
L 628 4666 
z
" transform="scale(0.015625)"/>
      <path id="DejaVuSans-2c" d="M 750 794 
L 1409 794 
L 1409 256 
L 897 -744 
L 494 -744 
L 750 256 
L 750 794 
z
" transform="scale(0.015625)"/>
      <path id="DejaVuSans-52" d="M 2841 2188 
Q 3044 2119 3236 1894 
Q 3428 1669 3622 1275 
L 4263 0 
L 3584 0 
L 2988 1197 
Q 2756 1666 2539 1819 
Q 2322 1972 1947 1972 
L 1259 1972 
L 1259 0 
L 628 0 
L 628 4666 
L 2053 4666 
Q 2853 4666 3247 4331 
Q 3641 3997 3641 3322 
Q 3641 2881 3436 2590 
Q 3231 2300 2841 2188 
z
M 1259 4147 
L 1259 2491 
L 2053 2491 
Q 2509 2491 2742 2702 
Q 2975 2913 2975 3322 
Q 2975 3731 2742 3939 
Q 2509 4147 2053 4147 
L 1259 4147 
z
" transform="scale(0.015625)"/>
      <path id="DejaVuSans-6c" d="M 603 4863 
L 1178 4863 
L 1178 0 
L 603 0 
L 603 4863 
z
" transform="scale(0.015625)"/>
      <path id="DejaVuSans-76" d="M 191 3500 
L 800 3500 
L 1894 563 
L 2988 3500 
L 3597 3500 
L 2284 0 
L 1503 0 
L 191 3500 
z
" transform="scale(0.015625)"/>
      <path id="DejaVuSans-6e" d="M 3513 2113 
L 3513 0 
L 2938 0 
L 2938 2094 
Q 2938 2591 2744 2837 
Q 2550 3084 2163 3084 
Q 1697 3084 1428 2787 
Q 1159 2491 1159 1978 
L 1159 0 
L 581 0 
L 581 3500 
L 1159 3500 
L 1159 2956 
Q 1366 3272 1645 3428 
Q 1925 3584 2291 3584 
Q 2894 3584 3203 3211 
Q 3513 2838 3513 2113 
z
" transform="scale(0.015625)"/>
      <path id="DejaVuSans-67" d="M 2906 1791 
Q 2906 2416 2648 2759 
Q 2391 3103 1925 3103 
Q 1463 3103 1205 2759 
Q 947 2416 947 1791 
Q 947 1169 1205 825 
Q 1463 481 1925 481 
Q 2391 481 2648 825 
Q 2906 1169 2906 1791 
z
M 3481 434 
Q 3481 -459 3084 -895 
Q 2688 -1331 1869 -1331 
Q 1566 -1331 1297 -1286 
Q 1028 -1241 775 -1147 
L 775 -588 
Q 1028 -725 1275 -790 
Q 1522 -856 1778 -856 
Q 2344 -856 2625 -561 
Q 2906 -266 2906 331 
L 2906 616 
Q 2728 306 2450 153 
Q 2172 0 1784 0 
Q 1141 0 747 490 
Q 353 981 353 1791 
Q 353 2603 747 3093 
Q 1141 3584 1784 3584 
Q 2172 3584 2450 3431 
Q 2728 3278 2906 2969 
L 2906 3500 
L 3481 3500 
L 3481 434 
z
" transform="scale(0.015625)"/>
      <path id="DejaVuSans-68" d="M 3513 2113 
L 3513 0 
L 2938 0 
L 2938 2094 
Q 2938 2591 2744 2837 
Q 2550 3084 2163 3084 
Q 1697 3084 1428 2787 
Q 1159 2491 1159 1978 
L 1159 0 
L 581 0 
L 581 4863 
L 1159 4863 
L 1159 2956 
Q 1366 3272 1645 3428 
Q 1925 3584 2291 3584 
Q 2894 3584 3203 3211 
Q 3513 2838 3513 2113 
z
" transform="scale(0.015625)"/>
      <path id="DejaVuSans-49" d="M 628 4666 
L 1259 4666 
L 1259 0 
L 628 0 
L 628 4666 
z
" transform="scale(0.015625)"/>
      <path id="DejaVuSans-64" d="M 2906 2969 
L 2906 4863 
L 3481 4863 
L 3481 0 
L 2906 0 
L 2906 525 
Q 2725 213 2448 61 
Q 2172 -91 1784 -91 
Q 1150 -91 751 415 
Q 353 922 353 1747 
Q 353 2572 751 3078 
Q 1150 3584 1784 3584 
Q 2172 3584 2448 3432 
Q 2725 3281 2906 2969 
z
M 947 1747 
Q 947 1113 1208 752 
Q 1469 391 1925 391 
Q 2381 391 2643 752 
Q 2906 1113 2906 1747 
Q 2906 2381 2643 2742 
Q 2381 3103 1925 3103 
Q 1469 3103 1208 2742 
Q 947 2381 947 1747 
z
" transform="scale(0.015625)"/>
      <path id="DejaVuSans-78" d="M 3513 3500 
L 2247 1797 
L 3578 0 
L 2900 0 
L 1881 1375 
L 863 0 
L 184 0 
L 1544 1831 
L 300 3500 
L 978 3500 
L 1906 2253 
L 2834 3500 
L 3513 3500 
z
" transform="scale(0.015625)"/>
     </defs>
     <use xlink:href="#DejaVuSans-44"/>
     <use xlink:href="#DejaVuSans-56" x="75.251953"/>
     <use xlink:href="#DejaVuSans-4e" x="143.660156"/>
     <use xlink:href="#DejaVuSans-2c" x="218.464844"/>
     <use xlink:href="#DejaVuSans-20" x="250.251953"/>
     <use xlink:href="#DejaVuSans-52" x="282.039062"/>
     <use xlink:href="#DejaVuSans-65" x="347.021484"/>
     <use xlink:href="#DejaVuSans-6c" x="408.544922"/>
     <use xlink:href="#DejaVuSans-61" x="436.328125"/>
     <use xlink:href="#DejaVuSans-74" x="497.607422"/>
     <use xlink:href="#DejaVuSans-69" x="536.816406"/>
     <use xlink:href="#DejaVuSans-76" x="564.599609"/>
     <use xlink:href="#DejaVuSans-65" x="623.779297"/>
     <use xlink:href="#DejaVuSans-20" x="685.302734"/>
     <use xlink:href="#DejaVuSans-53" x="717.089844"/>
     <use xlink:href="#DejaVuSans-74" x="780.566406"/>
     <use xlink:href="#DejaVuSans-72" x="819.775391"/>
     <use xlink:href="#DejaVuSans-65" x="858.638672"/>
     <use xlink:href="#DejaVuSans-6e" x="920.162109"/>
     <use xlink:href="#DejaVuSans-67" x="983.541016"/>
     <use xlink:href="#DejaVuSans-74" x="1047.017578"/>
     <use xlink:href="#DejaVuSans-68" x="1086.226562"/>
     <use xlink:href="#DejaVuSans-20" x="1149.605469"/>
     <use xlink:href="#DejaVuSans-49" x="1181.392578"/>
     <use xlink:href="#DejaVuSans-6e" x="1210.884766"/>
     <use xlink:href="#DejaVuSans-64" x="1274.263672"/>
     <use xlink:href="#DejaVuSans-65" x="1337.740234"/>
     <use xlink:href="#DejaVuSans-78" x="1397.513672"/>
     <use xlink:href="#DejaVuSans-20" x="1456.693359"/>
     <use xlink:href="#DejaVuSans-28" x="1488.480469"/>
     <use xlink:href="#DejaVuSans-52" x="1527.494141"/>
     <use xlink:href="#DejaVuSans-53" x="1596.976562"/>
     <use xlink:href="#DejaVuSans-49" x="1660.453125"/>
     <use xlink:href="#DejaVuSans-29" x="1689.945312"/>
     <use xlink:href="#DejaVuSans-2c" x="1728.958984"/>
     <use xlink:href="#DejaVuSans-20" x="1760.746094"/>
     <use xlink:href="#DejaVuSans-44" x="1792.533203"/>
     <use xlink:href="#DejaVuSans-56" x="1867.785156"/>
     <use xlink:href="#DejaVuSans-4e" x="1936.193359"/>
    </g>
   </g>
   <g id="legend_1">
    <g id="patch_7">
     <path d="M 441.69375 74.3525 
L 591.603125 74.3525 
Q 593.603125 74.3525 593.603125 72.3525 
L 593.603125 29.318125 
Q 593.603125 27.318125 591.603125 27.318125 
L 441.69375 27.318125 
Q 439.69375 27.318125 439.69375 29.318125 
L 439.69375 72.3525 
Q 439.69375 74.3525 441.69375 74.3525 
z
" style="fill: #ffffff; opacity: 0.8; stroke: #cccccc; stroke-linejoin: miter"/>
    </g>
    <g id="line2d_25">
     <path d="M 443.69375 35.416562 
L 453.69375 35.416562 
L 463.69375 35.416562 
" style="fill: none; stroke: #00ff7f; stroke-linecap: square"/>
    </g>
    <g id="text_17">
     <!-- Oversold, RSI &lt;= 30 -->
     <g transform="translate(471.69375 38.916562)scale(0.1 -0.1)">
      <defs>
       <path id="DejaVuSans-4f" d="M 2522 4238 
Q 1834 4238 1429 3725 
Q 1025 3213 1025 2328 
Q 1025 1447 1429 934 
Q 1834 422 2522 422 
Q 3209 422 3611 934 
Q 4013 1447 4013 2328 
Q 4013 3213 3611 3725 
Q 3209 4238 2522 4238 
z
M 2522 4750 
Q 3503 4750 4090 4092 
Q 4678 3434 4678 2328 
Q 4678 1225 4090 567 
Q 3503 -91 2522 -91 
Q 1538 -91 948 565 
Q 359 1222 359 2328 
Q 359 3434 948 4092 
Q 1538 4750 2522 4750 
z
" transform="scale(0.015625)"/>
       <path id="DejaVuSans-73" d="M 2834 3397 
L 2834 2853 
Q 2591 2978 2328 3040 
Q 2066 3103 1784 3103 
Q 1356 3103 1142 2972 
Q 928 2841 928 2578 
Q 928 2378 1081 2264 
Q 1234 2150 1697 2047 
L 1894 2003 
Q 2506 1872 2764 1633 
Q 3022 1394 3022 966 
Q 3022 478 2636 193 
Q 2250 -91 1575 -91 
Q 1294 -91 989 -36 
Q 684 19 347 128 
L 347 722 
Q 666 556 975 473 
Q 1284 391 1588 391 
Q 1994 391 2212 530 
Q 2431 669 2431 922 
Q 2431 1156 2273 1281 
Q 2116 1406 1581 1522 
L 1381 1569 
Q 847 1681 609 1914 
Q 372 2147 372 2553 
Q 372 3047 722 3315 
Q 1072 3584 1716 3584 
Q 2034 3584 2315 3537 
Q 2597 3491 2834 3397 
z
" transform="scale(0.015625)"/>
       <path id="DejaVuSans-6f" d="M 1959 3097 
Q 1497 3097 1228 2736 
Q 959 2375 959 1747 
Q 959 1119 1226 758 
Q 1494 397 1959 397 
Q 2419 397 2687 759 
Q 2956 1122 2956 1747 
Q 2956 2369 2687 2733 
Q 2419 3097 1959 3097 
z
M 1959 3584 
Q 2709 3584 3137 3096 
Q 3566 2609 3566 1747 
Q 3566 888 3137 398 
Q 2709 -91 1959 -91 
Q 1206 -91 779 398 
Q 353 888 353 1747 
Q 353 2609 779 3096 
Q 1206 3584 1959 3584 
z
" transform="scale(0.015625)"/>
       <path id="DejaVuSans-3c" d="M 4684 3150 
L 1459 2003 
L 4684 863 
L 4684 294 
L 678 1747 
L 678 2266 
L 4684 3719 
L 4684 3150 
z
" transform="scale(0.015625)"/>
       <path id="DejaVuSans-3d" d="M 678 2906 
L 4684 2906 
L 4684 2381 
L 678 2381 
L 678 2906 
z
M 678 1631 
L 4684 1631 
L 4684 1100 
L 678 1100 
L 678 1631 
z
" transform="scale(0.015625)"/>
      </defs>
      <use xlink:href="#DejaVuSans-4f"/>
      <use xlink:href="#DejaVuSans-76" x="78.710938"/>
      <use xlink:href="#DejaVuSans-65" x="137.890625"/>
      <use xlink:href="#DejaVuSans-72" x="199.414062"/>
      <use xlink:href="#DejaVuSans-73" x="240.527344"/>
      <use xlink:href="#DejaVuSans-6f" x="292.626953"/>
      <use xlink:href="#DejaVuSans-6c" x="353.808594"/>
      <use xlink:href="#DejaVuSans-64" x="381.591797"/>
      <use xlink:href="#DejaVuSans-2c" x="445.068359"/>
      <use xlink:href="#DejaVuSans-20" x="476.855469"/>
      <use xlink:href="#DejaVuSans-52" x="508.642578"/>
      <use xlink:href="#DejaVuSans-53" x="578.125"/>
      <use xlink:href="#DejaVuSans-49" x="641.601562"/>
      <use xlink:href="#DejaVuSans-20" x="671.09375"/>
      <use xlink:href="#DejaVuSans-3c" x="702.880859"/>
      <use xlink:href="#DejaVuSans-3d" x="786.669922"/>
      <use xlink:href="#DejaVuSans-20" x="870.458984"/>
      <use xlink:href="#DejaVuSans-33" x="902.246094"/>
      <use xlink:href="#DejaVuSans-30" x="965.869141"/>
     </g>
    </g>
    <g id="line2d_26">
     <path d="M 443.69375 50.094687 
L 453.69375 50.094687 
L 463.69375 50.094687 
" style="fill: none; stroke: #ff4500; stroke-linecap: square"/>
    </g>
    <g id="text_18">
     <!-- Overbought, RSI &gt;= 70 -->
     <g transform="translate(471.69375 53.594687)scale(0.1 -0.1)">
      <defs>
       <path id="DejaVuSans-62" d="M 3116 1747 
Q 3116 2381 2855 2742 
Q 2594 3103 2138 3103 
Q 1681 3103 1420 2742 
Q 1159 2381 1159 1747 
Q 1159 1113 1420 752 
Q 1681 391 2138 391 
Q 2594 391 2855 752 
Q 3116 1113 3116 1747 
z
M 1159 2969 
Q 1341 3281 1617 3432 
Q 1894 3584 2278 3584 
Q 2916 3584 3314 3078 
Q 3713 2572 3713 1747 
Q 3713 922 3314 415 
Q 2916 -91 2278 -91 
Q 1894 -91 1617 61 
Q 1341 213 1159 525 
L 1159 0 
L 581 0 
L 581 4863 
L 1159 4863 
L 1159 2969 
z
" transform="scale(0.015625)"/>
       <path id="DejaVuSans-75" d="M 544 1381 
L 544 3500 
L 1119 3500 
L 1119 1403 
Q 1119 906 1312 657 
Q 1506 409 1894 409 
Q 2359 409 2629 706 
Q 2900 1003 2900 1516 
L 2900 3500 
L 3475 3500 
L 3475 0 
L 2900 0 
L 2900 538 
Q 2691 219 2414 64 
Q 2138 -91 1772 -91 
Q 1169 -91 856 284 
Q 544 659 544 1381 
z
M 1991 3584 
L 1991 3584 
z
" transform="scale(0.015625)"/>
       <path id="DejaVuSans-3e" d="M 678 3150 
L 678 3719 
L 4684 2266 
L 4684 1747 
L 678 294 
L 678 863 
L 3897 2003 
L 678 3150 
z
" transform="scale(0.015625)"/>
      </defs>
      <use xlink:href="#DejaVuSans-4f"/>
      <use xlink:href="#DejaVuSans-76" x="78.710938"/>
      <use xlink:href="#DejaVuSans-65" x="137.890625"/>
      <use xlink:href="#DejaVuSans-72" x="199.414062"/>
      <use xlink:href="#DejaVuSans-62" x="240.527344"/>
      <use xlink:href="#DejaVuSans-6f" x="304.003906"/>
      <use xlink:href="#DejaVuSans-75" x="365.185547"/>
      <use xlink:href="#DejaVuSans-67" x="428.564453"/>
      <use xlink:href="#DejaVuSans-68" x="492.041016"/>
      <use xlink:href="#DejaVuSans-74" x="555.419922"/>
      <use xlink:href="#DejaVuSans-2c" x="594.628906"/>
      <use xlink:href="#DejaVuSans-20" x="626.416016"/>
      <use xlink:href="#DejaVuSans-52" x="658.203125"/>
      <use xlink:href="#DejaVuSans-53" x="727.685547"/>
      <use xlink:href="#DejaVuSans-49" x="791.162109"/>
      <use xlink:href="#DejaVuSans-20" x="820.654297"/>
      <use xlink:href="#DejaVuSans-3e" x="852.441406"/>
      <use xlink:href="#DejaVuSans-3d" x="936.230469"/>
      <use xlink:href="#DejaVuSans-20" x="1020.019531"/>
      <use xlink:href="#DejaVuSans-37" x="1051.806641"/>
      <use xlink:href="#DejaVuSans-30" x="1115.429688"/>
     </g>
    </g>
    <g id="line2d_27">
     <path d="M 443.69375 64.772812 
L 453.69375 64.772812 
L 463.69375 64.772812 
" style="fill: none; stroke: #1e90ff; stroke-linecap: square"/>
    </g>
    <g id="text_19">
     <!-- Neutral -->
     <g transform="translate(471.69375 68.272812)scale(0.1 -0.1)">
      <use xlink:href="#DejaVuSans-4e"/>
      <use xlink:href="#DejaVuSans-65" x="74.804688"/>
      <use xlink:href="#DejaVuSans-75" x="136.328125"/>
      <use xlink:href="#DejaVuSans-74" x="199.707031"/>
      <use xlink:href="#DejaVuSans-72" x="238.916016"/>
      <use xlink:href="#DejaVuSans-61" x="280.029297"/>
      <use xlink:href="#DejaVuSans-6c" x="341.308594"/>
     </g>
    </g>
   </g>
  </g>
 </g>
 <defs>
  <clipPath id="p395054e875">
   <rect x="40.603125" y="22.318125" width="558" height="332.64"/>
  </clipPath>
 </defs>
</svg>
