<?xml version="1.0" encoding="utf-8" standalone="no"?>
<!DOCTYPE svg PUBLIC "-//W3C//DTD SVG 1.1//EN"
  "http://www.w3.org/Graphics/SVG/1.1/DTD/svg11.dtd">
<svg xmlns:xlink="http://www.w3.org/1999/xlink" width="682.37425pt" height="422.947075pt" viewBox="0 0 682.37425 422.947075" xmlns="http://www.w3.org/2000/svg" version="1.1">
 <metadata>
  <rdf:RDF xmlns:dc="http://purl.org/dc/elements/1.1/" xmlns:cc="http://creativecommons.org/ns#" xmlns:rdf="http://www.w3.org/1999/02/22-rdf-syntax-ns#">
   <cc:Work>
    <dc:type rdf:resource="http://purl.org/dc/dcmitype/StillImage"/>
    <dc:date>2023-04-23T14:47:36.176657</dc:date>
    <dc:format>image/svg+xml</dc:format>
    <dc:creator>
     <cc:Agent>
      <dc:title>Matplotlib v3.5.1, https://matplotlib.org/</dc:title>
     </cc:Agent>
    </dc:creator>
   </cc:Work>
  </rdf:RDF>
 </metadata>
 <defs>
  <style type="text/css">*{stroke-linejoin: round; stroke-linecap: butt}</style>
 </defs>
 <g id="figure_1">
  <g id="patch_1">
   <path d="M 0 422.947075 
L 682.37425 422.947075 
L 682.37425 0 
L 0 0 
z
" style="fill: #f0f0f0"/>
  </g>
  <g id="axes_1">
   <g id="patch_2">
    <path d="M 48.77425 378.43845 
L 675.17425 378.43845 
L 675.17425 28.51845 
L 48.77425 28.51845 
z
" style="fill: #f0f0f0"/>
   </g>
   <g id="matplotlib.axis_1">
    <g id="xtick_1">
     <g id="line2d_1">
      <path d="M 77.246977 378.43845 
L 77.246977 28.51845 
" clip-path="url(#p6647058a96)" style="fill: none; stroke: #cbcbcb"/>
     </g>
     <g id="line2d_2"/>
     <g id="text_1">
      <!-- 0 -->
      <g transform="translate(72.793227 392.576263)scale(0.14 -0.14)">
       <defs>
        <path id="DejaVuSans-30" d="M 2034 4250 
Q 1547 4250 1301 3770 
Q 1056 3291 1056 2328 
Q 1056 1369 1301 889 
Q 1547 409 2034 409 
Q 2525 409 2770 889 
Q 3016 1369 3016 2328 
Q 3016 3291 2770 3770 
Q 2525 4250 2034 4250 
z
M 2034 4750 
Q 2819 4750 3233 4129 
Q 3647 3509 3647 2328 
Q 3647 1150 3233 529 
Q 2819 -91 2034 -91 
Q 1250 -91 836 529 
Q 422 1150 422 2328 
Q 422 3509 836 4129 
Q 1250 4750 2034 4750 
z
" transform="scale(0.015625)"/>
       </defs>
       <use xlink:href="#DejaVuSans-30"/>
      </g>
     </g>
    </g>
    <g id="xtick_2">
     <g id="line2d_3">
      <path d="M 198.665857 378.43845 
L 198.665857 28.51845 
" clip-path="url(#p6647058a96)" style="fill: none; stroke: #cbcbcb"/>
     </g>
     <g id="line2d_4"/>
     <g id="text_2">
      <!-- 500 -->
      <g transform="translate(185.304607 392.576263)scale(0.14 -0.14)">
       <defs>
        <path id="DejaVuSans-35" d="M 691 4666 
L 3169 4666 
L 3169 4134 
L 1269 4134 
L 1269 2991 
Q 1406 3038 1543 3061 
Q 1681 3084 1819 3084 
Q 2600 3084 3056 2656 
Q 3513 2228 3513 1497 
Q 3513 744 3044 326 
Q 2575 -91 1722 -91 
Q 1428 -91 1123 -41 
Q 819 9 494 109 
L 494 744 
Q 775 591 1075 516 
Q 1375 441 1709 441 
Q 2250 441 2565 725 
Q 2881 1009 2881 1497 
Q 2881 1984 2565 2268 
Q 2250 2553 1709 2553 
Q 1456 2553 1204 2497 
Q 953 2441 691 2322 
L 691 4666 
z
" transform="scale(0.015625)"/>
       </defs>
       <use xlink:href="#DejaVuSans-35"/>
       <use xlink:href="#DejaVuSans-30" x="63.623047"/>
       <use xlink:href="#DejaVuSans-30" x="127.246094"/>
      </g>
     </g>
    </g>
    <g id="xtick_3">
     <g id="line2d_5">
      <path d="M 320.084737 378.43845 
L 320.084737 28.51845 
" clip-path="url(#p6647058a96)" style="fill: none; stroke: #cbcbcb"/>
     </g>
     <g id="line2d_6"/>
     <g id="text_3">
      <!-- 1000 -->
      <g transform="translate(302.269737 392.576263)scale(0.14 -0.14)">
       <defs>
        <path id="DejaVuSans-31" d="M 794 531 
L 1825 531 
L 1825 4091 
L 703 3866 
L 703 4441 
L 1819 4666 
L 2450 4666 
L 2450 531 
L 3481 531 
L 3481 0 
L 794 0 
L 794 531 
z
" transform="scale(0.015625)"/>
       </defs>
       <use xlink:href="#DejaVuSans-31"/>
       <use xlink:href="#DejaVuSans-30" x="63.623047"/>
       <use xlink:href="#DejaVuSans-30" x="127.246094"/>
       <use xlink:href="#DejaVuSans-30" x="190.869141"/>
      </g>
     </g>
    </g>
    <g id="xtick_4">
     <g id="line2d_7">
      <path d="M 441.503616 378.43845 
L 441.503616 28.51845 
" clip-path="url(#p6647058a96)" style="fill: none; stroke: #cbcbcb"/>
     </g>
     <g id="line2d_8"/>
     <g id="text_4">
      <!-- 1500 -->
      <g transform="translate(423.688616 392.576263)scale(0.14 -0.14)">
       <use xlink:href="#DejaVuSans-31"/>
       <use xlink:href="#DejaVuSans-35" x="63.623047"/>
       <use xlink:href="#DejaVuSans-30" x="127.246094"/>
       <use xlink:href="#DejaVuSans-30" x="190.869141"/>
      </g>
     </g>
    </g>
    <g id="xtick_5">
     <g id="line2d_9">
      <path d="M 562.922496 378.43845 
L 562.922496 28.51845 
" clip-path="url(#p6647058a96)" style="fill: none; stroke: #cbcbcb"/>
     </g>
     <g id="line2d_10"/>
     <g id="text_5">
      <!-- 2000 -->
      <g transform="translate(545.107496 392.576263)scale(0.14 -0.14)">
       <defs>
        <path id="DejaVuSans-32" d="M 1228 531 
L 3431 531 
L 3431 0 
L 469 0 
L 469 531 
Q 828 903 1448 1529 
Q 2069 2156 2228 2338 
Q 2531 2678 2651 2914 
Q 2772 3150 2772 3378 
Q 2772 3750 2511 3984 
Q 2250 4219 1831 4219 
Q 1534 4219 1204 4116 
Q 875 4013 500 3803 
L 500 4441 
Q 881 4594 1212 4672 
Q 1544 4750 1819 4750 
Q 2544 4750 2975 4387 
Q 3406 4025 3406 3419 
Q 3406 3131 3298 2873 
Q 3191 2616 2906 2266 
Q 2828 2175 2409 1742 
Q 1991 1309 1228 531 
z
" transform="scale(0.015625)"/>
       </defs>
       <use xlink:href="#DejaVuSans-32"/>
       <use xlink:href="#DejaVuSans-30" x="63.623047"/>
       <use xlink:href="#DejaVuSans-30" x="127.246094"/>
       <use xlink:href="#DejaVuSans-30" x="190.869141"/>
      </g>
     </g>
    </g>
    <g id="text_6">
     <!-- Date -->
     <g transform="translate(341.896937 412.2532)scale(0.168 -0.168)">
      <defs>
       <path id="DejaVuSans-44" d="M 1259 4147 
L 1259 519 
L 2022 519 
Q 2988 519 3436 956 
Q 3884 1394 3884 2338 
Q 3884 3275 3436 3711 
Q 2988 4147 2022 4147 
L 1259 4147 
z
M 628 4666 
L 1925 4666 
Q 3281 4666 3915 4102 
Q 4550 3538 4550 2338 
Q 4550 1131 3912 565 
Q 3275 0 1925 0 
L 628 0 
L 628 4666 
z
" transform="scale(0.015625)"/>
       <path id="DejaVuSans-61" d="M 2194 1759 
Q 1497 1759 1228 1600 
Q 959 1441 959 1056 
Q 959 750 1161 570 
Q 1363 391 1709 391 
Q 2188 391 2477 730 
Q 2766 1069 2766 1631 
L 2766 1759 
L 2194 1759 
z
M 3341 1997 
L 3341 0 
L 2766 0 
L 2766 531 
Q 2569 213 2275 61 
Q 1981 -91 1556 -91 
Q 1019 -91 701 211 
Q 384 513 384 1019 
Q 384 1609 779 1909 
Q 1175 2209 1959 2209 
L 2766 2209 
L 2766 2266 
Q 2766 2663 2505 2880 
Q 2244 3097 1772 3097 
Q 1472 3097 1187 3025 
Q 903 2953 641 2809 
L 641 3341 
Q 956 3463 1253 3523 
Q 1550 3584 1831 3584 
Q 2591 3584 2966 3190 
Q 3341 2797 3341 1997 
z
" transform="scale(0.015625)"/>
       <path id="DejaVuSans-74" d="M 1172 4494 
L 1172 3500 
L 2356 3500 
L 2356 3053 
L 1172 3053 
L 1172 1153 
Q 1172 725 1289 603 
Q 1406 481 1766 481 
L 2356 481 
L 2356 0 
L 1766 0 
Q 1100 0 847 248 
Q 594 497 594 1153 
L 594 3053 
L 172 3053 
L 172 3500 
L 594 3500 
L 594 4494 
L 1172 4494 
z
" transform="scale(0.015625)"/>
       <path id="DejaVuSans-65" d="M 3597 1894 
L 3597 1613 
L 953 1613 
Q 991 1019 1311 708 
Q 1631 397 2203 397 
Q 2534 397 2845 478 
Q 3156 559 3463 722 
L 3463 178 
Q 3153 47 2828 -22 
Q 2503 -91 2169 -91 
Q 1331 -91 842 396 
Q 353 884 353 1716 
Q 353 2575 817 3079 
Q 1281 3584 2069 3584 
Q 2775 3584 3186 3129 
Q 3597 2675 3597 1894 
z
M 3022 2063 
Q 3016 2534 2758 2815 
Q 2500 3097 2075 3097 
Q 1594 3097 1305 2825 
Q 1016 2553 972 2059 
L 3022 2063 
z
" transform="scale(0.015625)"/>
      </defs>
      <use xlink:href="#DejaVuSans-44"/>
      <use xlink:href="#DejaVuSans-61" x="77.001953"/>
      <use xlink:href="#DejaVuSans-74" x="138.28125"/>
      <use xlink:href="#DejaVuSans-65" x="177.490234"/>
     </g>
    </g>
   </g>
   <g id="matplotlib.axis_2">
    <g id="ytick_1">
     <g id="line2d_11">
      <path d="M 48.77425 342.825603 
L 675.17425 342.825603 
" clip-path="url(#p6647058a96)" style="fill: none; stroke: #dcdcdc; stroke-width: 0.5"/>
     </g>
     <g id="line2d_12"/>
     <g id="text_7">
      <!-- 10 -->
      <g transform="translate(27.45925 348.144509)scale(0.14 -0.14)">
       <use xlink:href="#DejaVuSans-31"/>
       <use xlink:href="#DejaVuSans-30" x="63.623047"/>
      </g>
     </g>
    </g>
    <g id="ytick_2">
     <g id="line2d_13">
      <path d="M 48.77425 299.890107 
L 675.17425 299.890107 
" clip-path="url(#p6647058a96)" style="fill: none; stroke: #dcdcdc; stroke-width: 0.5"/>
     </g>
     <g id="line2d_14"/>
     <g id="text_8">
      <!-- 20 -->
      <g transform="translate(27.45925 305.209013)scale(0.14 -0.14)">
       <use xlink:href="#DejaVuSans-32"/>
       <use xlink:href="#DejaVuSans-30" x="63.623047"/>
      </g>
     </g>
    </g>
    <g id="ytick_3">
     <g id="line2d_15">
      <path d="M 48.77425 256.95461 
L 675.17425 256.95461 
" clip-path="url(#p6647058a96)" style="fill: none; stroke: #dcdcdc; stroke-width: 0.5"/>
     </g>
     <g id="line2d_16"/>
     <g id="text_9">
      <!-- 30 -->
      <g transform="translate(27.45925 262.273517)scale(0.14 -0.14)">
       <defs>
        <path id="DejaVuSans-33" d="M 2597 2516 
Q 3050 2419 3304 2112 
Q 3559 1806 3559 1356 
Q 3559 666 3084 287 
Q 2609 -91 1734 -91 
Q 1441 -91 1130 -33 
Q 819 25 488 141 
L 488 750 
Q 750 597 1062 519 
Q 1375 441 1716 441 
Q 2309 441 2620 675 
Q 2931 909 2931 1356 
Q 2931 1769 2642 2001 
Q 2353 2234 1838 2234 
L 1294 2234 
L 1294 2753 
L 1863 2753 
Q 2328 2753 2575 2939 
Q 2822 3125 2822 3475 
Q 2822 3834 2567 4026 
Q 2313 4219 1838 4219 
Q 1578 4219 1281 4162 
Q 984 4106 628 3988 
L 628 4550 
Q 988 4650 1302 4700 
Q 1616 4750 1894 4750 
Q 2613 4750 3031 4423 
Q 3450 4097 3450 3541 
Q 3450 3153 3228 2886 
Q 3006 2619 2597 2516 
z
" transform="scale(0.015625)"/>
       </defs>
       <use xlink:href="#DejaVuSans-33"/>
       <use xlink:href="#DejaVuSans-30" x="63.623047"/>
      </g>
     </g>
    </g>
    <g id="ytick_4">
     <g id="line2d_17">
      <path d="M 48.77425 214.019114 
L 675.17425 214.019114 
" clip-path="url(#p6647058a96)" style="fill: none; stroke: #dcdcdc; stroke-width: 0.5"/>
     </g>
     <g id="line2d_18"/>
     <g id="text_10">
      <!-- 40 -->
      <g transform="translate(27.45925 219.338021)scale(0.14 -0.14)">
       <defs>
        <path id="DejaVuSans-34" d="M 2419 4116 
L 825 1625 
L 2419 1625 
L 2419 4116 
z
M 2253 4666 
L 3047 4666 
L 3047 1625 
L 3713 1625 
L 3713 1100 
L 3047 1100 
L 3047 0 
L 2419 0 
L 2419 1100 
L 313 1100 
L 313 1709 
L 2253 4666 
z
" transform="scale(0.015625)"/>
       </defs>
       <use xlink:href="#DejaVuSans-34"/>
       <use xlink:href="#DejaVuSans-30" x="63.623047"/>
      </g>
     </g>
    </g>
    <g id="ytick_5">
     <g id="line2d_19">
      <path d="M 48.77425 171.083618 
L 675.17425 171.083618 
" clip-path="url(#p6647058a96)" style="fill: none; stroke: #dcdcdc; stroke-width: 0.5"/>
     </g>
     <g id="line2d_20"/>
     <g id="text_11">
      <!-- 50 -->
      <g transform="translate(27.45925 176.402524)scale(0.14 -0.14)">
       <use xlink:href="#DejaVuSans-35"/>
       <use xlink:href="#DejaVuSans-30" x="63.623047"/>
      </g>
     </g>
    </g>
    <g id="ytick_6">
     <g id="line2d_21">
      <path d="M 48.77425 128.148122 
L 675.17425 128.148122 
" clip-path="url(#p6647058a96)" style="fill: none; stroke: #dcdcdc; stroke-width: 0.5"/>
     </g>
     <g id="line2d_22"/>
     <g id="text_12">
      <!-- 60 -->
      <g transform="translate(27.45925 133.467028)scale(0.14 -0.14)">
       <defs>
        <path id="DejaVuSans-36" d="M 2113 2584 
Q 1688 2584 1439 2293 
Q 1191 2003 1191 1497 
Q 1191 994 1439 701 
Q 1688 409 2113 409 
Q 2538 409 2786 701 
Q 3034 994 3034 1497 
Q 3034 2003 2786 2293 
Q 2538 2584 2113 2584 
z
M 3366 4563 
L 3366 3988 
Q 3128 4100 2886 4159 
Q 2644 4219 2406 4219 
Q 1781 4219 1451 3797 
Q 1122 3375 1075 2522 
Q 1259 2794 1537 2939 
Q 1816 3084 2150 3084 
Q 2853 3084 3261 2657 
Q 3669 2231 3669 1497 
Q 3669 778 3244 343 
Q 2819 -91 2113 -91 
Q 1303 -91 875 529 
Q 447 1150 447 2328 
Q 447 3434 972 4092 
Q 1497 4750 2381 4750 
Q 2619 4750 2861 4703 
Q 3103 4656 3366 4563 
z
" transform="scale(0.015625)"/>
       </defs>
       <use xlink:href="#DejaVuSans-36"/>
       <use xlink:href="#DejaVuSans-30" x="63.623047"/>
      </g>
     </g>
    </g>
    <g id="ytick_7">
     <g id="line2d_23">
      <path d="M 48.77425 85.212626 
L 675.17425 85.212626 
" clip-path="url(#p6647058a96)" style="fill: none; stroke: #dcdcdc; stroke-width: 0.5"/>
     </g>
     <g id="line2d_24"/>
     <g id="text_13">
      <!-- 70 -->
      <g transform="translate(27.45925 90.531532)scale(0.14 -0.14)">
       <defs>
        <path id="DejaVuSans-37" d="M 525 4666 
L 3525 4666 
L 3525 4397 
L 1831 0 
L 1172 0 
L 2766 4134 
L 525 4134 
L 525 4666 
z
" transform="scale(0.015625)"/>
       </defs>
       <use xlink:href="#DejaVuSans-37"/>
       <use xlink:href="#DejaVuSans-30" x="63.623047"/>
      </g>
     </g>
    </g>
    <g id="ytick_8">
     <g id="line2d_25">
      <path d="M 48.77425 42.27713 
L 675.17425 42.27713 
" clip-path="url(#p6647058a96)" style="fill: none; stroke: #dcdcdc; stroke-width: 0.5"/>
     </g>
     <g id="line2d_26"/>
     <g id="text_14">
      <!-- 80 -->
      <g transform="translate(27.45925 47.596036)scale(0.14 -0.14)">
       <defs>
        <path id="DejaVuSans-38" d="M 2034 2216 
Q 1584 2216 1326 1975 
Q 1069 1734 1069 1313 
Q 1069 891 1326 650 
Q 1584 409 2034 409 
Q 2484 409 2743 651 
Q 3003 894 3003 1313 
Q 3003 1734 2745 1975 
Q 2488 2216 2034 2216 
z
M 1403 2484 
Q 997 2584 770 2862 
Q 544 3141 544 3541 
Q 544 4100 942 4425 
Q 1341 4750 2034 4750 
Q 2731 4750 3128 4425 
Q 3525 4100 3525 3541 
Q 3525 3141 3298 2862 
Q 3072 2584 2669 2484 
Q 3125 2378 3379 2068 
Q 3634 1759 3634 1313 
Q 3634 634 3220 271 
Q 2806 -91 2034 -91 
Q 1263 -91 848 271 
Q 434 634 434 1313 
Q 434 1759 690 2068 
Q 947 2378 1403 2484 
z
M 1172 3481 
Q 1172 3119 1398 2916 
Q 1625 2713 2034 2713 
Q 2441 2713 2670 2916 
Q 2900 3119 2900 3481 
Q 2900 3844 2670 4047 
Q 2441 4250 2034 4250 
Q 1625 4250 1398 4047 
Q 1172 3844 1172 3481 
z
" transform="scale(0.015625)"/>
       </defs>
       <use xlink:href="#DejaVuSans-38"/>
       <use xlink:href="#DejaVuSans-30" x="63.623047"/>
      </g>
     </g>
    </g>
    <g id="text_15">
     <!-- Price (USD) -->
     <g transform="translate(19.965375 251.1432)rotate(-90)scale(0.168 -0.168)">
      <defs>
       <path id="DejaVuSans-50" d="M 1259 4147 
L 1259 2394 
L 2053 2394 
Q 2494 2394 2734 2622 
Q 2975 2850 2975 3272 
Q 2975 3691 2734 3919 
Q 2494 4147 2053 4147 
L 1259 4147 
z
M 628 4666 
L 2053 4666 
Q 2838 4666 3239 4311 
Q 3641 3956 3641 3272 
Q 3641 2581 3239 2228 
Q 2838 1875 2053 1875 
L 1259 1875 
L 1259 0 
L 628 0 
L 628 4666 
z
" transform="scale(0.015625)"/>
       <path id="DejaVuSans-72" d="M 2631 2963 
Q 2534 3019 2420 3045 
Q 2306 3072 2169 3072 
Q 1681 3072 1420 2755 
Q 1159 2438 1159 1844 
L 1159 0 
L 581 0 
L 581 3500 
L 1159 3500 
L 1159 2956 
Q 1341 3275 1631 3429 
Q 1922 3584 2338 3584 
Q 2397 3584 2469 3576 
Q 2541 3569 2628 3553 
L 2631 2963 
z
" transform="scale(0.015625)"/>
       <path id="DejaVuSans-69" d="M 603 3500 
L 1178 3500 
L 1178 0 
L 603 0 
L 603 3500 
z
M 603 4863 
L 1178 4863 
L 1178 4134 
L 603 4134 
L 603 4863 
z
" transform="scale(0.015625)"/>
       <path id="DejaVuSans-63" d="M 3122 3366 
L 3122 2828 
Q 2878 2963 2633 3030 
Q 2388 3097 2138 3097 
Q 1578 3097 1268 2742 
Q 959 2388 959 1747 
Q 959 1106 1268 751 
Q 1578 397 2138 397 
Q 2388 397 2633 464 
Q 2878 531 3122 666 
L 3122 134 
Q 2881 22 2623 -34 
Q 2366 -91 2075 -91 
Q 1284 -91 818 406 
Q 353 903 353 1747 
Q 353 2603 823 3093 
Q 1294 3584 2113 3584 
Q 2378 3584 2631 3529 
Q 2884 3475 3122 3366 
z
" transform="scale(0.015625)"/>
       <path id="DejaVuSans-20" transform="scale(0.015625)"/>
       <path id="DejaVuSans-28" d="M 1984 4856 
Q 1566 4138 1362 3434 
Q 1159 2731 1159 2009 
Q 1159 1288 1364 580 
Q 1569 -128 1984 -844 
L 1484 -844 
Q 1016 -109 783 600 
Q 550 1309 550 2009 
Q 550 2706 781 3412 
Q 1013 4119 1484 4856 
L 1984 4856 
z
" transform="scale(0.015625)"/>
       <path id="DejaVuSans-55" d="M 556 4666 
L 1191 4666 
L 1191 1831 
Q 1191 1081 1462 751 
Q 1734 422 2344 422 
Q 2950 422 3222 751 
Q 3494 1081 3494 1831 
L 3494 4666 
L 4128 4666 
L 4128 1753 
Q 4128 841 3676 375 
Q 3225 -91 2344 -91 
Q 1459 -91 1007 375 
Q 556 841 556 1753 
L 556 4666 
z
" transform="scale(0.015625)"/>
       <path id="DejaVuSans-53" d="M 3425 4513 
L 3425 3897 
Q 3066 4069 2747 4153 
Q 2428 4238 2131 4238 
Q 1616 4238 1336 4038 
Q 1056 3838 1056 3469 
Q 1056 3159 1242 3001 
Q 1428 2844 1947 2747 
L 2328 2669 
Q 3034 2534 3370 2195 
Q 3706 1856 3706 1288 
Q 3706 609 3251 259 
Q 2797 -91 1919 -91 
Q 1588 -91 1214 -16 
Q 841 59 441 206 
L 441 856 
Q 825 641 1194 531 
Q 1563 422 1919 422 
Q 2459 422 2753 634 
Q 3047 847 3047 1241 
Q 3047 1584 2836 1778 
Q 2625 1972 2144 2069 
L 1759 2144 
Q 1053 2284 737 2584 
Q 422 2884 422 3419 
Q 422 4038 858 4394 
Q 1294 4750 2059 4750 
Q 2388 4750 2728 4690 
Q 3069 4631 3425 4513 
z
" transform="scale(0.015625)"/>
       <path id="DejaVuSans-29" d="M 513 4856 
L 1013 4856 
Q 1481 4119 1714 3412 
Q 1947 2706 1947 2009 
Q 1947 1309 1714 600 
Q 1481 -109 1013 -844 
L 513 -844 
Q 928 -128 1133 580 
Q 1338 1288 1338 2009 
Q 1338 2731 1133 3434 
Q 928 4138 513 4856 
z
" transform="scale(0.015625)"/>
      </defs>
      <use xlink:href="#DejaVuSans-50"/>
      <use xlink:href="#DejaVuSans-72" x="58.552734"/>
      <use xlink:href="#DejaVuSans-69" x="99.666016"/>
      <use xlink:href="#DejaVuSans-63" x="127.449219"/>
      <use xlink:href="#DejaVuSans-65" x="182.429688"/>
      <use xlink:href="#DejaVuSans-20" x="243.953125"/>
      <use xlink:href="#DejaVuSans-28" x="275.740234"/>
      <use xlink:href="#DejaVuSans-55" x="314.753906"/>
      <use xlink:href="#DejaVuSans-53" x="387.947266"/>
      <use xlink:href="#DejaVuSans-44" x="451.423828"/>
      <use xlink:href="#DejaVuSans-29" x="528.425781"/>
     </g>
    </g>
   </g>
   <g id="line2d_27">
    <path d="M 77.246977 162.797067 
L 77.489815 156.829033 
M 85.746299 87.316465 
L 85.989137 85.55611 
M 86.71765 90.79424 
L 86.960488 108.354858 
L 87.203325 108.05431 
L 87.446163 112.004375 
L 87.689001 119.475152 
M 89.631703 136.434673 
L 89.874541 143.604901 
M 96.916836 158.160034 
L 97.159674 159.53397 
M 101.530753 164.986778 
L 101.773591 161.380196 
M 105.416157 178.253846 
L 105.658995 187.742591 
M 109.787237 194.698141 
L 110.030075 194.225851 
L 110.272913 205.217338 
L 110.51575 204.186886 
L 110.758588 208.394564 
L 111.001426 221.489891 
L 111.487101 212.473436 
L 111.729939 214.104985 
L 111.972777 212.559307 
M 124.60034 233.297152 
L 124.843178 232.2667 
L 125.086016 234.928701 
L 125.328854 235.486862 
L 125.571691 243.687542 
L 125.814529 244.932672 
L 126.300205 263.43787 
L 126.543042 264.768871 
L 126.78588 257.856256 
L 127.028718 255.62361 
L 127.271556 255.537739 
L 127.514393 264.382451 
L 127.757231 261.591644 
L 128.000069 265.241161 
L 128.242907 263.609612 
L 128.485744 264.554193 
L 128.728582 260.990547 
M 146.698576 276.919616 
L 146.941414 277.306036 
L 147.184252 277.220165 
L 147.42709 273.098357 
M 147.912765 272.49726 
L 148.155603 279.495746 
L 148.398441 275.9321 
L 148.641278 275.245132 
M 151.069656 290.70191 
L 151.312494 291.861169 
L 151.798169 295.596557 
L 152.041007 294.866654 
L 152.283845 295.725363 
L 152.526683 291.174201 
L 152.76952 291.818233 
M 163.211544 299.975978 
L 163.454382 302.895591 
M 163.940057 304.741818 
L 164.182895 305.257044 
L 164.425733 308.906561 
M 164.911408 307.618496 
L 165.154246 312.942497 
L 165.397084 313.801207 
L 165.639922 315.089272 
M 166.125597 311.86911 
L 166.368435 313.414788 
M 170.739515 320.026854 
L 170.982352 319.855112 
L 171.22519 319.940983 
L 171.468028 318.524112 
L 171.710866 322.087758 
L 172.196541 318.652918 
M 178.024647 335.183084 
L 178.267485 337.587472 
M 179.238836 343.813119 
L 179.481674 342.610925 
L 180.210187 345.272926 
L 180.9387 350.983347 
L 181.181538 348.450153 
L 181.424376 347.934927 
M 181.910052 345.659345 
L 182.152889 348.707766 
M 213.236122 346.904475 
L 213.721798 346.174571 
L 213.964636 351.026282 
M 214.935987 344.242474 
L 215.178825 345.358797 
M 216.150176 352.314347 
L 216.393013 356.607897 
M 216.878689 358.497059 
L 217.121527 358.754672 
M 218.092878 359.226962 
L 218.335715 359.656317 
L 218.578553 357.638349 
L 218.821391 362.532995 
M 234.12017 283.359941 
L 234.363008 284.948554 
M 234.848683 285.206167 
L 235.091521 285.206167 
L 235.334359 286.365425 
L 235.577196 286.408361 
L 235.820034 291.002459 
L 236.062872 289.628523 
L 236.30571 293.836202 
L 236.548547 292.032911 
L 236.791385 291.775298 
M 252.575839 291.646491 
L 252.818677 294.13675 
L 253.061515 293.149234 
L 253.304353 292.676943 
M 265.931916 273.699454 
L 266.174754 273.613583 
L 266.417592 275.459809 
L 266.660429 275.717422 
L 266.903267 276.361455 
M 267.388943 276.232648 
L 267.631781 277.735391 
M 281.473533 266.40042 
L 281.716371 271.080389 
M 285.844612 274.300551 
L 286.330288 278.765842 
L 286.573126 277.134294 
M 292.158394 280.268585 
L 292.401232 284.776812 
L 292.64407 286.107812 
L 292.886907 288.984491 
L 293.129745 289.327975 
L 293.372583 287.438813 
L 293.615421 288.254587 
L 293.858259 295.682428 
L 294.343934 289.113297 
M 332.955138 223.164375 
L 333.197976 226.041053 
L 333.440813 221.618697 
L 333.683651 230.334603 
L 333.926489 229.776441 
L 334.169327 232.2667 
L 334.412164 232.137894 
L 334.89784 237.719508 
L 335.140678 233.640636 
L 335.383515 233.769443 
L 335.626353 232.524313 
M 336.112029 241.111412 
L 336.354866 241.411961 
M 337.569055 250.643093 
L 337.811893 250.728964 
M 338.540406 251.072447 
L 338.783244 255.451868 
M 355.296212 214.706082 
L 355.781887 222.348601 
L 356.024725 223.980149 
L 356.267563 222.606214 
L 356.5104 222.090988 
L 356.753238 220.845858 
L 356.996076 220.502374 
L 357.238914 222.391536 
L 357.481751 226.255731 
L 357.724589 227.414989 
L 357.967427 220.974665 
M 365.009722 236.17383 
L 365.25256 236.989605 
L 365.495398 235.787411 
L 365.738235 235.70154 
L 365.981073 234.542281 
L 366.223911 232.352571 
L 366.466749 231.837345 
L 366.709586 231.751474 
L 366.952424 232.867797 
M 372.052017 241.884251 
L 372.294855 247.637608 
L 372.78053 250.643093 
L 373.023368 246.693027 
L 373.266206 245.447897 
L 373.509044 247.80935 
L 373.751881 247.895221 
L 374.237557 252.832803 
L 374.480395 252.703996 
L 374.723232 252.961609 
L 374.96607 251.974093 
L 375.208908 252.145835 
L 375.451746 252.746932 
M 376.423097 256.181772 
L 376.665934 254.120868 
M 382.979716 254.679029 
L 383.222554 258.113869 
L 383.465392 258.929643 
L 383.708229 256.181772 
M 420.133893 204.745047 
L 420.376731 202.641208 
M 424.747811 223.937214 
L 424.990649 223.078504 
M 438.832401 215.865341 
L 439.318076 213.160404 
L 440.04659 222.606214 
L 440.289427 230.678087 
L 440.532265 231.579732 
L 440.775103 221.40402 
L 441.017941 230.635151 
L 441.260778 230.635151 
M 453.159829 237.075476 
L 453.402666 240.682057 
L 453.645504 246.134865 
L 453.888342 245.319091 
L 454.13118 246.048994 
L 454.374017 250.342544 
L 454.616855 256.782868 
L 454.859693 250.943641 
L 455.102531 251.802351 
M 459.716448 262.235676 
L 459.959286 267.25913 
L 460.202124 267.430872 
L 460.444961 272.454325 
L 460.687799 273.914131 
L 460.930637 271.509744 
L 461.173475 267.946097 
L 461.416312 273.270099 
L 461.65915 273.742389 
L 461.901988 274.815777 
L 462.144826 272.110841 
L 462.387663 275.159261 
M 466.03023 293.363911 
L 466.273068 303.239075 
L 466.758743 298.644977 
L 467.001581 301.779268 
M 491.285357 223.679601 
L 491.771032 229.347086 
L 492.01387 227.973151 
L 492.256708 220.588245 
L 492.499546 220.030084 
L 492.742383 221.962181 
M 520.911563 106.937987 
L 521.154401 115.095731 
M 522.125752 121.364314 
L 522.36859 126.817122 
L 522.611428 125.099702 
L 522.854266 131.797639 
L 523.097103 127.890509 
L 523.339941 129.6938 
L 523.582779 137.422189 
L 523.825617 136.864028 
L 524.068454 133.901479 
L 524.311292 135.618898 
M 532.567776 133.643866 
L 532.810614 134.888995 
M 540.338584 154.596388 
L 540.581422 151.891451 
M 546.652366 145.236449 
L 546.895204 134.416704 
M 571.664655 64.002491 
L 571.907493 66.10633 
L 572.393168 64.646523 
L 572.636006 64.303039 
L 572.878844 65.032943 
L 573.121682 69.369428 
L 573.364519 68.467782 
L 573.607357 68.510718 
L 574.33587 73.834719 
L 574.578708 73.577106 
L 574.821546 70.01346 
L 575.550059 82.335948 
L 575.792897 82.035399 
L 576.035735 77.698914 
M 582.835192 91.610015 
L 583.07803 94.272016 
M 583.563705 98.393823 
L 584.292219 110.973924 
L 584.777894 111.360343 
L 585.020732 110.587504 
L 585.26357 114.022344 
L 585.506407 113.29244 
L 585.749245 113.163634 
L 585.992083 116.126183 
L 586.234921 116.383796 
L 586.477758 117.027829 
L 586.963434 112.906021 
M 592.063027 123.768701 
L 592.305865 126.216025 
L 592.548702 132.098188 
L 592.79154 131.067736 
L 593.034378 137.379254 
L 593.277216 131.497091 
L 593.520053 129.564993 
L 593.762891 132.398736 
M 612.218561 135.447156 
L 612.461399 135.876511 
L 612.704236 135.189543 
L 612.947074 132.785156 
L 613.189912 136.864028 
L 613.675587 134.159091 
L 613.918425 137.765673 
L 614.161263 133.686801 
M 628.974366 157.988292 
L 629.217204 161.294325 
L 629.460042 163.011745 
L 629.945717 158.245905 
L 630.188555 157.902421 
L 630.431393 162.367712 
M 639.41639 148.585418 
L 639.659228 149.358257 
L 639.902065 150.603387 
L 640.144903 155.583904 
L 640.387741 156.185001 
L 640.630579 156.356743 
L 640.873417 158.503518 
L 641.116254 163.784584 
L 641.359092 164.900907 
L 641.60193 157.773614 
L 641.844768 159.061679 
L 642.087605 153.780613 
L 642.330443 157.773614 
L 642.330443 157.773614 
" clip-path="url(#p6647058a96)" style="fill: none; stroke: #00ff7f"/>
   </g>
   <g id="line2d_28">
    <path d="M 81.375219 91.824692 
L 81.618057 82.679432 
L 81.860895 88.475724 
L 82.34657 51.508261 
L 82.832246 50.692487 
L 83.075083 54.943101 
L 83.317921 55.071908 
L 83.560759 58.120328 
L 83.803597 57.390424 
L 84.046435 64.174233 
L 84.289272 60.310038 
L 84.53211 68.854202 
M 190.409373 339.99186 
L 190.652211 338.918473 
M 191.8664 338.617924 
L 192.109237 339.476634 
M 192.594913 339.863053 
L 193.080588 337.072246 
M 202.794099 331.233019 
L 203.036937 330.202567 
L 203.279774 330.159631 
L 203.522612 331.533567 
L 203.76545 328.656889 
M 204.979639 323.289952 
L 205.222476 318.094757 
M 221.006931 317.278983 
L 221.249769 315.947982 
L 221.492606 317.96595 
L 221.735444 315.733305 
L 221.978282 316.033853 
L 222.22112 318.481176 
L 222.949633 303.410817 
L 223.435308 290.658975 
L 223.678146 288.211652 
L 223.920984 290.616039 
L 224.406659 285.721393 
L 224.649497 285.893135 
L 224.892335 288.297523 
L 225.135173 288.984491 
L 225.37801 287.138264 
L 225.620848 286.451296 
L 225.863686 285.249102 
L 226.106524 291.904104 
M 229.506252 273.141292 
L 229.74909 276.876681 
L 229.991928 277.993004 
L 230.234766 274.772841 
L 230.477603 276.060906 
L 230.720441 272.02497 
L 230.963279 272.368454 
M 246.990571 286.408361 
L 247.233409 282.458295 
L 247.961922 279.667488 
L 248.20476 279.624552 
L 248.447598 274.858712 
L 248.690435 273.656518 
L 248.933273 274.300551 
L 249.176111 271.982034 
L 249.418949 271.209195 
L 249.661786 265.026484 
M 257.432595 269.835259 
L 257.675432 270.350485 
M 258.161108 276.103842 
L 258.403946 275.975035 
L 258.646783 271.939099 
M 263.017863 264.253645 
L 263.260701 262.407418 
M 269.088807 259.91716 
L 269.331645 252.145835 
L 269.574483 256.825804 
L 270.060158 251.372996 
L 270.302996 252.961609 
L 270.545834 253.691513 
L 270.788671 257.298094 
L 271.031509 251.33006 
L 271.274347 251.587673 
L 271.517185 250.38548 
L 271.760022 252.446383 
L 272.00286 250.557222 
M 273.945562 237.676573 
L 274.1884 237.204282 
L 274.431238 234.799894 
M 296.529474 268.976549 
L 297.257987 262.235676 
L 297.500825 269.706453 
L 297.743663 270.221679 
M 300.900554 244.031026 
L 301.143391 245.276155 
L 301.386229 240.381509 
L 301.629067 244.37451 
L 301.871905 243.644607 
L 302.114742 247.165317 
M 306.242984 225.611698 
L 306.485822 216.122954 
L 306.72866 219.257245 
L 306.971498 213.847372 
L 307.214335 213.418017 
L 307.457173 211.228307 
L 307.700011 214.620211 
L 307.942849 213.160404 
L 308.185686 214.276727 
M 308.9142 207.965209 
L 309.157037 207.364112 
L 309.399875 211.657662 
M 318.384872 192.508431 
L 318.62771 192.293753 
L 318.870548 194.483464 
L 319.113385 191.907334 
M 347.525403 227.930215 
L 347.768241 220.974665 
L 348.011079 219.815406 
L 348.253917 213.890308 
L 348.496754 204.487434 
L 348.739592 208.136951 
L 348.98243 207.492919 
L 349.225268 199.721594 
L 349.468105 197.446013 
L 349.710943 197.231335 
L 349.953781 194.61227 
L 350.196619 194.61227 
L 350.439456 193.367141 
L 350.682294 201.782498 
L 351.16797 199.249304 
L 351.410807 200.022143 
L 351.653645 196.673174 
M 362.338507 212.902791 
L 362.581344 208.609242 
L 362.824182 210.326662 
M 368.652288 228.917731 
L 369.137964 228.144893 
M 379.579988 242.742961 
L 379.822825 243.172316 
L 380.065663 242.055993 
M 390.750524 226.341602 
L 390.993362 223.379052 
L 391.479038 220.931729 
L 391.721876 227.329118 
L 392.450389 221.919246 
L 392.693227 223.20731 
L 392.936064 222.820891 
L 393.178902 220.287697 
L 393.42174 223.078504 
M 397.549982 211.228307 
L 397.792819 205.990177 
L 398.278495 200.880852 
M 404.106601 198.734078 
L 404.349439 197.102529 
L 404.592277 199.635723 
L 404.835115 199.120497 
L 405.077952 194.13998 
M 428.147539 194.440528 
L 428.390377 196.243819 
L 428.633215 195.170431 
M 435.432672 194.955754 
L 435.67551 192.508431 
M 436.404023 194.655206 
L 436.646861 191.56385 
M 470.40131 271.724421 
L 470.644147 271.595615 
L 470.886985 279.753359 
L 471.372661 265.971065 
L 471.615498 270.736905 
M 476.472253 247.337059 
L 476.715091 249.698512 
L 476.957929 245.362026 
L 477.200767 243.215252 
M 480.357658 211.743533 
L 480.600495 209.29621 
L 481.086171 186.153977 
L 481.329009 188.214881 
L 481.571846 193.109528 
L 482.057522 185.896364 
L 482.30036 192.851915 
L 482.543197 191.477979 
L 482.786035 188.343688 
L 483.028873 183.663719 
L 483.271711 188.644236 
L 483.514549 186.111042 
M 500.756029 178.382653 
L 500.998867 184.178944 
L 501.241705 176.493491 
L 501.484543 178.12504 
L 501.970218 168.464553 
M 504.398596 152.320806 
L 504.641434 150.302838 
L 504.884271 144.721224 
L 505.127109 147.89845 
L 505.369947 145.966353 
L 505.612785 145.579933 
L 505.855622 147.254418 
L 506.09846 139.654835 
L 506.341298 142.402707 
L 506.584136 137.293383 
L 506.826973 137.89448 
L 507.069811 130.337832 
L 507.312649 133.214511 
L 507.555487 126.173089 
L 507.798324 126.516573 
L 508.041162 123.468153 
L 508.284 122.008346 
L 508.526838 122.35183 
L 508.769675 123.983379 
L 509.012513 121.965411 
L 509.255351 121.106701 
L 509.498189 117.58599 
L 509.741027 121.149636 
L 509.983864 120.119184 
L 510.46954 111.789698 
M 513.140755 101.141695 
L 513.383593 96.075306 
L 513.626431 95.903564 
M 528.196696 104.748277 
L 528.925209 111.746762 
L 529.168047 109.213568 
L 529.410885 111.188601 
L 529.653723 99.596017 
L 529.896561 100.368856 
M 543.0098 107.624955 
L 543.495475 97.234565 
L 543.738313 99.123727 
L 543.981151 107.410277 
M 552.72331 93.026886 
L 552.966148 87.015917 
L 553.208985 88.303982 
L 553.451823 90.79424 
L 553.694661 84.869142 
L 553.937499 85.599045 
L 554.180336 85.298497 
L 554.666012 78.514688 
L 554.90885 78.471753 
L 555.151687 77.269559 
L 555.394525 84.053367 
M 557.337227 67.265588 
L 557.580065 67.694943 
L 557.822903 61.941587 
M 558.794254 65.032943 
L 559.037092 67.394395 
L 559.279929 64.174233 
M 563.651009 51.637068 
L 564.136685 46.441873 
L 564.379522 48.717454 
M 604.447753 117.1137 
L 604.69059 116.984893 
L 604.933428 116.340861 
M 609.790183 110.544569 
L 610.033021 104.447728 
L 610.275859 105.306438 
M 632.85977 144.37774 
L 633.102608 141.672803 
M 635.773824 131.797639 
L 636.016661 127.418219 
L 636.016661 127.418219 
" clip-path="url(#p6647058a96)" style="fill: none; stroke: #ff4500"/>
   </g>
   <g id="line2d_29">
    <path d="M 77.732653 151.848516 
L 77.975491 155.326291 
L 78.218328 166.790069 
L 78.461166 162.968809 
L 78.704004 149.14358 
L 78.946842 149.14358 
L 79.189679 146.095159 
L 79.432517 130.466639 
L 79.675355 137.636867 
L 79.918193 154.896936 
L 80.16103 150.732193 
L 80.646706 125.743734 
L 80.889544 136.64935 
L 81.132381 114.108215 
M 84.774948 76.88314 
L 85.017786 83.538142 
L 85.260623 80.661463 
L 85.503461 85.55611 
M 86.231974 74.135268 
L 86.474812 80.962012 
M 87.931839 86.543626 
L 88.174676 97.449242 
L 88.417514 94.916048 
L 88.660352 109.77173 
L 88.90319 135.232479 
L 89.146027 136.005318 
L 89.388865 128.620412 
M 90.117379 144.549482 
L 90.360216 136.434673 
L 90.845892 108.354858 
L 91.08873 115.267473 
L 91.331567 112.948956 
L 91.574405 117.156635 
L 91.817243 112.047311 
L 92.060081 118.4447 
L 92.302918 128.019316 
L 92.545756 117.972409 
L 93.031432 135.275414 
L 93.274269 134.717253 
L 93.517107 124.498605 
L 93.759945 126.64538 
L 94.002783 131.88351 
L 94.24562 125.743734 
L 94.731296 126.216025 
L 94.974134 117.414248 
L 95.216971 121.536056 
L 95.459809 120.977894 
L 95.702647 125.443186 
L 95.945485 121.965411 
L 96.188322 135.575963 
L 96.43116 138.796125 
L 96.673998 160.521486 
M 97.402511 133.987349 
L 97.645349 125.700799 
L 97.888187 132.699285 
L 98.373862 128.620412 
L 98.6167 129.994348 
L 98.859538 133.085704 
L 99.102376 133.944414 
L 99.345213 131.368284 
L 99.588051 130.080219 
L 100.073727 159.276357 
L 100.316564 155.841517 
L 100.559402 159.619841 
L 100.80224 150.560451 
L 101.045078 148.542483 
L 101.287915 154.553452 
M 102.016429 153.437129 
L 102.259266 161.551938 
L 102.502104 161.981293 
L 102.744942 165.974294 
L 102.98778 159.963325 
L 103.230618 158.761131 
L 103.473455 158.160034 
L 103.716293 157.172517 
L 103.959131 160.092131 
L 104.201969 168.636295 
L 104.444806 164.428616 
L 104.687644 163.612842 
L 104.930482 163.398164 
L 105.17332 165.673746 
M 105.901833 176.965781 
L 106.144671 175.677716 
L 106.387508 169.53794 
L 106.630346 169.409134 
L 106.873184 172.629296 
L 107.116022 171.512973 
L 107.358859 171.942328 
L 107.601697 177.523943 
L 107.844535 175.849458 
L 108.087373 178.082104 
L 108.33021 185.638751 
L 108.573048 181.130524 
L 109.058724 196.630238 
M 112.215615 209.467952 
L 112.458452 199.335175 
L 112.70129 204.058079 
L 112.944128 192.937786 
L 113.186966 192.03614 
L 113.429803 203.886337 
L 113.672641 206.419531 
L 113.915479 207.19237 
L 114.158317 210.412533 
L 114.401154 205.174402 
L 114.643992 197.1884 
L 114.88683 202.42653 
L 115.129668 192.164947 
L 115.858181 211.442985 
L 116.101019 199.76453 
L 116.343857 204.186886 
L 116.586694 199.292239 
L 116.829532 200.365627 
L 117.07237 202.941756 
L 117.315208 202.340659 
L 117.558045 204.015144 
L 117.800883 196.887851 
L 118.043721 196.32969 
L 118.286559 198.648207 
L 118.529396 203.886337 
L 118.772234 205.560822 
L 119.25791 205.474951 
L 119.500747 213.67563 
L 119.743585 211.872339 
M 120.229261 207.535854 
L 120.472098 211.185372 
L 120.714936 212.129952 
L 120.957774 215.307179 
L 121.200612 210.111984 
L 121.443449 212.731049 
L 121.686287 211.786469 
L 122.171963 214.963695 
L 122.4148 218.355599 
L 123.143314 214.620211 
L 123.386152 220.888794 
L 123.628989 219.6866 
L 123.871827 213.67563 
L 124.114665 219.343116 
L 124.357503 227.715538 
M 128.97142 260.518257 
L 129.214258 259.874224 
L 129.457096 264.511258 
L 129.699933 258.886708 
L 129.942771 257.899191 
L 130.185609 255.408933 
L 130.428447 260.861741 
L 130.671284 260.217708 
L 130.914122 263.266128 
L 131.399798 275.416874 
L 131.642635 276.962552 
L 132.128311 270.221679 
L 132.371149 269.105356 
L 132.856824 263.523741 
L 133.3425 267.044452 
L 133.585337 271.380937 
L 133.828175 269.792324 
L 134.071013 271.423873 
L 134.313851 277.177229 
L 134.556688 273.227163 
L 134.799526 276.318519 
L 135.042364 274.815777 
L 135.285202 271.423873 
L 135.528039 272.153776 
L 135.770877 274.386422 
L 136.013715 271.338002 
L 136.256553 275.760358 
L 136.742228 272.669002 
L 136.985066 277.005487 
L 137.227904 278.722907 
L 137.956417 268.547194 
L 138.199255 261.376967 
L 138.442093 262.536225 
L 138.68493 262.750902 
L 138.927768 266.572162 
L 139.170606 267.559678 
L 139.413444 266.228678 
L 139.656281 260.260644 
M 140.141957 260.432386 
L 140.384795 265.455839 
L 140.627632 263.781354 
L 140.87047 257.985062 
L 141.113308 258.070933 
L 141.598983 263.223193 
L 141.841821 262.96558 
L 142.084659 270.908647 
L 142.327497 267.302065 
L 142.570335 260.990547 
L 142.813172 258.67203 
L 143.05601 261.334031 
L 143.298848 260.003031 
L 143.541686 259.573676 
L 143.784523 257.255159 
L 144.027361 253.305093 
L 144.270199 253.004545 
L 144.513037 249.827318 
L 145.24155 256.095901 
L 145.484388 271.724421 
L 145.727225 271.338002 
L 145.970063 272.368454 
M 148.884116 274.085873 
L 149.126954 273.184228 
L 149.369792 277.2631 
L 149.61263 277.434842 
L 149.855467 285.07736 
L 150.098305 284.347457 
L 150.341143 285.377909 
L 150.583981 282.41536 
L 150.826818 282.587102 
M 153.012358 289.714394 
L 153.255196 289.199168 
L 153.498034 292.634008 
L 154.469385 289.070362 
L 154.712222 287.954039 
L 154.95506 289.327975 
M 155.440736 291.94704 
L 155.683574 291.303007 
L 155.926411 291.94704 
L 156.169249 288.125781 
L 156.412087 289.800265 
L 156.654925 289.8432 
L 156.897762 292.41933 
L 157.383438 288.297523 
L 157.626276 289.757329 
L 157.869113 284.089844 
L 158.111951 284.819747 
L 158.354789 280.096843 
L 158.597627 281.642521 
M 159.083302 283.145263 
L 159.32614 283.445812 
L 159.568978 280.268585 
M 160.054653 284.347457 
L 160.297491 288.340458 
L 160.540329 289.242104 
L 160.783166 289.585588 
L 161.026004 293.27804 
L 161.268842 294.093815 
L 161.51168 290.143749 
L 161.754517 293.063363 
L 161.997355 294.52317 
M 162.483031 297.57159 
L 162.725869 292.462266 
L 162.968706 296.154718 
M 166.611273 311.182142 
L 167.096948 306.802721 
L 167.339786 300.018913 
L 167.582624 299.890107 
L 167.825461 301.736333 
L 168.068299 298.687913 
L 168.311137 303.625495 
L 168.553975 301.135236 
L 168.796813 307.060334 
L 169.03965 308.004915 
L 169.282488 306.029883 
L 169.525326 307.10327 
L 170.253839 317.880079 
L 170.496677 316.463208 
M 172.925054 317.96595 
L 173.167892 319.769241 
L 173.41073 316.377337 
L 173.653568 314.616982 
L 173.896405 318.309434 
L 174.139243 317.193112 
L 174.382081 317.278983 
L 174.624919 313.972949 
L 174.867756 320.026854 
L 175.110594 322.216565 
L 175.353432 325.651404 
L 175.59627 325.69434 
L 175.839108 322.302436 
L 176.081945 320.842629 
L 176.324783 320.06979 
L 176.567621 323.5905 
L 176.810459 329.257986 
L 177.053296 327.540566 
L 177.296134 330.975406 
L 177.538972 329.472663 
L 177.78181 331.962922 
M 178.510323 335.69831 
L 178.753161 335.268955 
L 178.995998 337.115182 
M 182.395727 347.247959 
L 182.638565 347.720249 
L 182.881403 347.33383 
L 183.12424 345.315862 
L 183.367078 345.745216 
L 183.609916 344.972378 
L 184.095591 342.525054 
M 184.581267 343.383764 
L 184.824105 343.984861 
L 185.066942 342.18157 
L 185.552618 346.689797 
L 185.795456 345.14412 
L 186.038293 344.671829 
L 186.281131 343.684313 
L 186.523969 347.891991 
L 186.766807 347.290894 
L 187.009644 348.493088 
L 187.252482 346.260442 
L 187.49532 345.959894 
L 187.738158 343.770184 
L 187.980995 343.04028 
L 188.223833 343.856055 
L 188.466671 346.131636 
L 189.195184 347.677314 
L 189.438022 344.628894 
L 189.68086 344.457152 
L 189.923698 340.46415 
L 190.166535 340.807634 
M 190.895049 339.090215 
L 191.137886 338.102698 
L 191.380724 339.562505 
L 191.623562 339.820118 
M 193.809102 334.925471 
L 194.051939 332.048793 
L 194.294777 332.692826 
L 194.537615 331.490632 
L 195.023291 335.22602 
L 195.266128 334.066762 
L 195.508966 338.145634 
L 195.751804 340.249473 
L 196.237479 341.365796 
L 196.480317 339.219021 
L 196.723155 341.365796 
L 196.965993 340.979376 
L 197.451668 339.047279 
L 197.937344 337.029311 
L 198.180181 341.666344 
L 198.423019 341.580473 
L 198.665857 339.948924 
L 198.908695 339.648376 
L 199.151532 340.979376 
L 199.39437 342.997345 
L 199.637208 342.009828 
L 199.880046 343.684313 
L 200.122883 341.279925 
L 200.365721 341.32286 
L 200.608559 337.845085 
L 200.851397 337.501601 
L 201.094234 338.102698 
L 201.337072 337.072246 
L 201.822748 338.789666 
L 202.065586 335.526568 
L 202.308423 337.458666 
L 202.551261 332.606955 
M 204.008288 330.417244 
L 204.251125 330.803664 
L 204.493963 333.379794 
L 204.736801 327.068276 
M 205.465314 323.075275 
L 205.708152 331.147148 
L 205.95099 332.005858 
L 206.436665 335.526568 
L 206.679503 339.347828 
L 207.165178 332.392277 
L 207.650854 333.637407 
L 208.13653 332.435213 
L 208.379367 332.907503 
L 208.622205 329.429728 
L 208.865043 334.453181 
L 209.107881 335.69831 
L 209.350718 336.256472 
L 209.593556 332.521084 
L 209.836394 332.263471 
L 210.079232 331.233019 
L 210.564907 336.428214 
L 210.807745 337.759214 
L 211.050583 336.728762 
L 211.29342 337.888021 
L 211.536258 332.220535 
L 211.779096 331.533567 
L 212.021934 338.66086 
L 212.507609 340.592957 
L 212.750447 340.378279 
L 212.993285 343.941926 
M 214.207473 348.536024 
L 214.693149 344.070732 
M 215.421662 348.364282 
L 215.6645 347.977862 
L 215.907338 349.781153 
M 217.364364 354.160574 
L 217.607202 355.019284 
L 217.85004 353.945896 
M 219.064229 358.024768 
L 219.549904 348.407217 
L 219.792742 354.546993 
L 220.03558 349.652347 
L 220.278417 347.076217 
L 220.521255 349.824089 
L 220.764093 328.356341 
M 226.349361 294.823718 
L 226.835037 289.199168 
L 227.077875 290.487233 
L 227.320712 288.211652 
L 227.56355 288.641007 
L 227.806388 282.930586 
L 228.049226 280.998488 
L 228.292064 281.427843 
L 229.020577 272.239647 
L 229.263415 273.098357 
M 231.206117 273.699454 
L 231.448954 275.030454 
L 231.691792 274.257615 
L 231.93463 276.146777 
L 232.177468 275.288067 
L 232.420305 272.583131 
L 232.663143 271.810292 
L 232.905981 273.141292 
L 233.148819 276.40439 
L 233.634494 279.710423 
L 233.877332 281.986005 
M 237.034223 289.113297 
L 237.277061 290.186684 
L 237.519898 288.125781 
L 237.762736 287.996974 
L 238.005574 287.996974 
L 238.491249 293.492718 
L 238.976925 288.89862 
L 239.219763 291.989975 
L 239.4626 292.934556 
L 239.705438 289.714394 
L 239.948276 289.027426 
L 240.191114 287.395877 
L 240.433951 288.383394 
L 240.676789 290.959523 
L 240.919627 287.095329 
L 241.162465 288.855684 
L 241.64814 298.687913 
L 241.890978 298.816719 
L 242.133816 293.879137 
L 242.376654 295.381879 
L 242.619491 293.578589 
L 242.862329 293.621524 
L 243.105167 294.308492 
L 243.590842 298.859655 
L 243.83368 300.748817 
L 244.076518 298.258558 
L 244.562193 295.725363 
L 244.805031 295.811234 
L 245.047869 294.480234 
L 245.290707 296.32646 
L 245.533544 295.296008 
L 245.776382 295.982976 
L 246.262058 288.726878 
L 246.504895 288.426329 
L 246.747733 291.174201 
M 249.904624 278.12181 
L 250.147462 280.31152 
L 250.3903 278.551165 
L 250.633137 280.31152 
L 250.875975 280.010972 
L 251.118813 285.506715 
L 251.361651 284.862683 
L 251.847326 290.916588 
M 253.54719 286.880651 
L 253.790028 285.377909 
L 254.032866 285.46378 
L 254.275704 285.850199 
L 254.761379 292.934556 
L 255.004217 291.174201 
L 255.247055 284.347457 
L 255.489893 284.819747 
L 255.975568 280.826746 
L 256.218406 282.02894 
L 256.461244 281.771327 
L 256.704081 282.458295 
L 256.946919 278.293552 
L 257.189757 277.735391 
M 258.889621 273.227163 
L 259.132459 272.368454 
L 259.375297 272.669002 
L 259.618134 275.416874 
L 259.860972 274.429357 
L 260.346648 267.044452 
M 260.832323 262.707967 
L 261.075161 261.935128 
M 261.560837 265.799323 
L 261.803674 265.971065 
L 262.046512 267.602613 
L 262.28935 267.516742 
L 262.532188 261.677515 
L 262.775025 263.309064 
M 263.503539 265.885194 
L 263.746376 265.885194 
L 263.989214 264.511258 
L 264.232052 265.241161 
L 264.47489 270.221679 
L 264.717727 270.264614 
L 265.203403 275.116325 
L 265.446241 273.613583 
L 265.689078 276.361455 
M 267.874618 275.07339 
L 268.117456 270.479292 
L 268.360294 271.552679 
L 268.603132 269.878195 
L 268.845969 269.105356 
M 272.245698 251.544738 
L 272.488536 253.004545 
L 272.731373 249.054479 
L 272.974211 247.766414 
L 273.217049 245.276155 
L 273.459887 245.404962 
L 273.702725 241.755445 
M 274.674076 241.712509 
L 275.402589 245.920188 
L 275.645427 242.013058 
L 275.888264 251.888222 
L 276.131102 250.943641 
L 276.37394 252.403448 
L 276.616778 248.238705 
L 276.859615 247.508801 
L 277.102453 252.618125 
L 277.345291 253.90619 
L 277.830966 250.342544 
L 278.073804 250.256673 
L 278.316642 248.882737 
L 278.55948 251.244189 
L 278.802317 250.084931 
L 279.287993 255.494804 
L 279.530831 249.870254 
L 279.773668 251.587673 
L 280.016506 255.924159 
L 280.259344 254.7649 
L 280.502182 258.500288 
L 280.987857 259.831289 
L 281.230695 262.278612 
M 281.959208 265.284097 
L 282.444884 260.088902 
L 282.687722 259.358998 
L 282.930559 256.310578 
L 283.173397 259.05845 
L 283.416235 257.469836 
L 283.659073 258.714966 
L 283.90191 259.144321 
L 284.387586 257.598643 
L 284.630424 255.795352 
L 284.873261 264.210709 
L 285.116099 263.738419 
L 285.358937 268.418388 
L 285.601775 270.221679 
M 286.815964 270.77984 
L 287.058801 270.436356 
L 287.301639 269.148291 
L 287.544477 269.792324 
L 287.787315 271.338002 
L 288.030152 266.958581 
L 288.27299 270.479292 
L 288.515828 271.982034 
L 288.758666 268.761872 
L 289.001503 271.552679 
L 289.244341 272.754873 
L 289.487179 271.423873 
L 289.730017 269.234162 
L 290.215692 274.601099 
L 290.45853 272.411389 
L 290.701368 273.398905 
L 290.944205 272.583131 
L 291.187043 272.88368 
L 291.672719 276.060906 
L 291.915556 276.919616 
M 294.586772 283.359941 
L 294.82961 280.955553 
L 295.072447 276.232648 
L 295.315285 274.815777 
L 295.558123 270.393421 
L 295.800961 268.633065 
L 296.286636 272.969551 
M 297.9865 270.393421 
L 298.229338 271.509744 
L 298.472176 269.277098 
L 298.715014 270.221679 
L 298.957851 263.266128 
L 299.200689 267.946097 
L 299.443527 258.586159 
L 299.686365 258.843772 
L 299.929203 254.29261 
L 300.17204 254.636094 
L 300.414878 253.090416 
L 300.657716 250.299609 
M 302.843256 246.993575 
L 303.086093 252.746932 
L 303.328931 246.735962 
L 303.571769 244.717994 
L 303.814607 247.80935 
L 304.300282 236.045024 
L 304.54312 235.744475 
L 304.785958 235.057507 
L 305.271633 226.556279 
L 305.514471 230.721022 
L 305.757309 228.488377 
L 306.000146 231.021571 
M 308.428524 216.681115 
L 308.671362 215.39305 
M 309.642713 213.546824 
L 309.885551 214.577276 
L 310.371226 219.128438 
L 310.856902 210.240791 
L 311.099739 205.646693 
L 311.342577 207.621725 
L 311.585415 211.829404 
L 311.828253 212.001146 
L 312.07109 211.314178 
L 312.556766 203.929273 
L 312.799604 201.439014 
L 313.042442 200.580304 
L 313.285279 201.310207 
L 313.528117 203.242305 
M 314.013793 202.598272 
L 314.25663 203.199369 
L 314.499468 202.383595 
L 314.985144 209.553823 
L 315.227981 211.442985 
L 315.470819 211.099501 
L 315.713657 211.95821 
L 315.956495 203.67166 
L 316.199332 205.131467 
L 316.44217 201.825433 
L 316.685008 205.131467 
L 317.413521 198.347658 
L 317.656359 200.923788 
L 317.899197 197.102529 
L 318.142034 199.120497 
M 319.356223 191.392108 
L 319.599061 194.440528 
L 319.841899 195.94327 
L 320.084737 196.243819 
L 320.327574 196.243819 
L 320.570412 197.918303 
L 320.81325 196.501432 
L 321.056088 195.94327 
L 321.298925 193.75356 
L 321.541763 197.145464 
L 321.784601 196.32969 
L 322.027439 189.932301 
L 322.270276 191.263301 
L 322.755952 196.887851 
L 322.99879 196.844916 
L 323.241627 198.862884 
L 323.484465 197.016658 
L 323.727303 198.648207 
L 323.970141 199.120497 
L 324.455816 205.904306 
L 324.698654 199.936272 
L 324.941492 209.081532 
L 325.184329 202.81295 
L 325.427167 207.106499 
L 325.670005 209.29621 
L 325.912843 212.945727 
L 326.398518 202.898821 
L 326.641356 205.732564 
L 326.884194 204.272757 
L 327.127032 204.745047 
L 327.369869 205.646693 
L 327.612707 207.535854 
L 327.855545 216.938728 
L 328.098383 213.632695 
L 328.34122 208.008145 
L 328.584058 207.278241 
L 328.826896 205.732564 
L 329.069734 210.197855 
L 329.312571 211.528856 
L 329.555409 206.763015 
L 329.798247 204.616241 
L 330.041085 206.290725 
L 330.283922 204.015144 
L 330.52676 205.603757 
L 330.769598 203.886337 
L 331.012436 208.008145 
L 331.255273 208.523371 
L 331.498111 208.351629 
L 331.740949 209.940242 
L 331.983787 210.197855 
L 332.226624 213.074533 
L 332.7123 223.078504 
M 337.08338 240.896735 
L 337.326217 241.497832 
M 338.054731 247.122382 
L 338.297568 251.287125 
M 339.511757 249.612641 
L 339.754595 246.349543 
L 339.997433 247.379995 
L 340.240271 247.122382 
L 340.483108 244.417446 
L 340.725946 250.299609 
L 340.968784 251.974093 
L 341.211622 248.539253 
L 341.454459 249.612641 
L 341.697297 245.70551 
L 341.940135 244.975607 
L 342.182973 244.846801 
L 342.42581 245.276155 
L 342.668648 246.693027 
L 342.911486 252.875738 
L 343.154324 251.244189 
L 343.397161 248.367511 
L 343.882837 254.636094 
L 344.125675 254.077932 
L 344.368512 248.968608 
L 344.854188 250.814834 
L 345.097026 255.194255 
L 345.339863 254.507287 
L 345.582701 236.989605 
L 345.825539 239.308122 
L 346.068377 236.603185 
M 346.554052 237.333089 
L 346.79689 232.137894 
L 347.039728 236.860798 
L 347.282566 235.744475 
M 351.896483 200.837917 
L 352.139321 204.659176 
L 352.382159 203.113498 
L 352.624996 200.065078 
L 352.867834 200.666175 
L 353.110672 200.150949 
L 353.596347 204.444499 
L 353.839185 208.008145 
L 354.082023 206.462467 
L 354.324861 206.118983 
L 354.567698 202.941756 
L 355.053374 210.069049 
M 358.210265 219.858342 
L 358.453102 218.999632 
L 358.69594 220.330632 
L 358.938778 226.470408 
L 359.181616 226.16986 
L 359.424454 227.801409 
L 359.667291 222.477407 
L 359.910129 222.649149 
L 360.152967 224.538311 
L 360.395805 225.139408 
L 360.638642 219.6866 
L 360.88148 221.919246 
L 361.124318 222.992633 
L 361.367156 221.618697 
L 361.609993 215.521857 
L 361.852831 212.258759 
L 362.095669 210.541339 
M 363.06702 217.153406 
L 363.309858 219.042567 
L 363.552695 217.96918 
L 363.795533 227.329118 
L 364.038371 231.193313 
L 364.281209 231.708539 
L 364.766884 238.27767 
M 367.195262 230.849829 
L 367.680937 231.665603 
L 367.923775 232.137894 
M 369.380802 228.660118 
L 369.623639 226.16986 
L 370.109315 228.316635 
L 370.352153 232.137894 
L 370.837828 235.959153 
L 371.080666 240.767928 
L 371.323504 239.909218 
M 375.694583 255.237191 
L 375.937421 255.494804 
L 376.180259 255.237191 
M 376.908772 253.004545 
L 377.15161 252.360512 
L 377.394448 250.041996 
L 377.637285 249.397963 
L 377.880123 248.024027 
L 378.122961 247.766414 
L 378.365799 246.650091 
M 380.308501 244.116897 
L 380.551339 244.159833 
L 380.794176 249.483834 
L 381.037014 248.539253 
L 381.279852 248.410447 
L 381.52269 246.220736 
L 381.765527 251.115383 
L 382.008365 251.158318 
L 382.251203 249.870254 
L 382.736878 253.476835 
M 383.951067 252.231706 
L 384.193905 245.018543 
L 384.436743 248.496318 
L 384.67958 249.183286 
L 384.922418 254.593158 
L 385.165256 255.451868 
L 385.408094 253.863255 
L 385.650932 254.893707 
L 385.893769 256.911675 
L 386.136607 256.310578 
L 386.379445 251.974093 
L 386.622283 251.287125 
L 386.86512 249.397963 
L 387.107958 250.557222 
L 387.350796 247.551737 
L 387.593634 241.970122 
L 387.836471 245.276155 
L 388.079309 245.877252 
L 388.322147 250.557222 
L 388.564985 248.710995 
L 388.807822 240.209767 
L 389.05066 243.859284 
L 389.293498 243.5158 
L 389.536336 238.621154 
L 389.779173 239.866283 
L 390.022011 237.676573 
L 390.264849 231.966152 
L 390.507687 232.352571 
M 393.664578 221.919246 
L 393.907415 222.520343 
L 394.150253 226.985634 
L 394.635929 218.956696 
L 394.878766 216.981664 
L 395.121604 216.208825 
L 395.364442 216.809922 
L 395.60728 211.48592 
L 395.850117 211.48592 
L 396.092955 214.791953 
L 396.335793 215.178373 
L 396.578631 215.307179 
L 396.821468 217.239277 
L 397.064306 211.743533 
L 397.307144 209.682629 
M 399.007008 207.492919 
L 399.249846 203.328176 
L 399.735522 206.634209 
L 400.221197 208.780984 
L 400.464035 215.650663 
L 400.706873 218.82789 
L 400.94971 219.171374 
L 401.435386 216.852857 
M 401.921061 211.700598 
L 402.163899 211.700598 
L 402.406737 210.927759 
L 402.649575 209.210339 
L 402.892412 213.933243 
L 403.13525 209.897307 
L 403.378088 212.902791 
L 403.620926 210.713081 
L 403.863763 210.927759 
M 405.32079 199.592788 
L 405.806466 201.95424 
L 406.049303 196.887851 
L 406.292141 197.875368 
L 406.534979 192.293753 
L 406.777817 196.115012 
L 407.020654 196.372625 
L 407.263492 195.857399 
L 407.50633 188.51543 
L 407.749168 191.435043 
L 407.992005 190.791011 
L 408.477681 196.587303 
L 408.720519 196.243819 
L 409.206194 184.865912 
L 409.449032 189.760559 
L 409.69187 190.232849 
L 409.934707 190.232849 
L 410.177545 192.250818 
L 410.420383 185.509945 
L 410.663221 183.320235 
L 410.906058 186.282784 
L 411.148896 185.724622 
L 411.391734 189.84643 
L 411.634572 187.141494 
L 411.87741 187.871397 
L 412.120247 186.712139 
L 412.363085 186.196913 
L 412.605923 186.497461 
L 412.848761 186.282784 
L 413.091598 182.246847 
L 413.334436 185.252332 
L 413.577274 185.767558 
L 413.820112 176.794039 
L 414.062949 175.334232 
L 414.305787 181.817492 
L 414.548625 183.620783 
L 414.791463 189.674688 
L 415.277138 187.227365 
L 415.519976 184.651235 
L 415.762814 185.9393 
L 416.005651 184.393622 
L 416.248489 185.810493 
L 416.491327 185.424074 
L 416.977002 182.332718 
L 417.21984 181.688686 
L 417.462678 183.878396 
L 417.705516 178.854943 
L 417.948354 179.155491 
M 418.434029 180.78704 
L 418.919705 182.633267 
L 419.162542 180.78704 
L 419.40538 180.31475 
L 419.648218 180.31475 
L 419.891056 178.253846 
M 420.619569 195.857399 
L 420.862407 192.379624 
L 421.105244 194.784012 
L 421.348082 192.980721 
L 421.833758 201.696627 
L 422.319433 192.551366 
L 422.562271 201.95424 
L 422.805109 206.076048 
L 423.047946 200.537369 
L 423.290784 198.476465 
L 423.533622 205.517886 
L 423.77646 206.204854 
L 424.019297 213.20334 
L 424.262135 211.829404 
L 424.504973 215.951212 
M 425.233486 217.539825 
L 425.476324 212.044081 
L 425.719162 213.160404 
L 425.962 211.142436 
L 426.447675 202.469466 
L 426.690513 201.396078 
L 426.933351 201.310207 
L 427.176188 205.86137 
L 427.419026 206.419531 
L 427.904702 197.274271 
M 428.876053 201.95424 
L 429.361728 196.072077 
L 429.604566 199.936272 
L 429.847404 195.986206 
L 430.090241 196.372625 
L 430.575917 207.235306 
L 430.818755 220.974665 
L 431.061593 215.564792 
L 431.30443 215.994147 
L 431.547268 205.947241 
L 431.790106 204.702112 
L 432.032944 211.185372 
L 432.518619 209.7685 
L 432.761457 210.15492 
L 433.004295 213.246275 
L 433.247132 209.124468 
L 433.48997 200.322691 
L 433.732808 199.592788 
L 433.975646 191.349172 
M 434.946997 198.132981 
L 435.189834 199.721594 
M 435.918348 194.99869 
L 436.161185 195.213367 
M 436.889699 196.415561 
L 437.132536 195.428044 
L 437.375374 193.581818 
L 437.86105 203.414047 
L 438.346725 206.848886 
L 438.589563 208.394564 
M 441.503616 224.92473 
L 441.746454 230.849829 
L 441.989292 223.679601 
L 442.232129 225.482892 
L 442.474967 222.777956 
L 442.717805 223.679601 
L 442.960643 222.133923 
L 443.446318 220.931729 
L 443.689156 218.312664 
L 443.931994 213.976179 
L 444.174832 224.023085 
L 444.417669 224.409504 
L 444.660507 227.715538 
L 444.903345 226.985634 
L 445.146183 230.54928 
L 445.38902 224.967666 
L 445.631858 230.119925 
L 445.874696 228.230764 
L 446.117534 231.236248 
L 446.360371 240.853799 
L 446.846047 219.171374 
L 447.088885 222.863827 
L 447.331722 221.790439 
L 447.57456 225.525827 
L 448.060236 236.345572 
L 448.303073 235.100443 
L 448.545911 233.12541 
L 448.788749 232.137894 
L 449.031587 234.971636 
L 449.274424 224.967666 
L 449.517262 224.409504 
L 449.7601 219.343116 
L 450.245775 231.536797 
L 450.488613 227.715538 
L 450.731451 230.54928 
L 450.974289 230.806893 
L 451.217127 231.622668 
L 451.459964 231.622668 
L 451.702802 229.304151 
L 451.94564 237.676573 
L 452.188478 237.461895 
L 452.674153 240.209767 
L 452.916991 239.265186 
M 455.345368 251.33006 
L 455.831044 237.376024 
L 456.073882 236.860798 
L 456.559557 227.286183 
L 456.802395 237.118411 
L 457.045233 239.995089 
L 457.288071 234.628152 
L 457.530908 240.08096 
L 457.773746 236.56025 
L 458.502259 250.943641 
L 458.745097 251.158318 
L 458.987935 252.832803 
L 459.230773 252.832803 
L 459.47361 261.033483 
M 462.630501 265.498774 
L 462.873339 265.455839 
L 463.116177 267.516742 
L 463.359014 268.117839 
L 463.601852 273.184228 
L 463.84469 282.329489 
L 464.087528 279.324004 
L 464.330366 279.366939 
M 464.816041 287.310006 
L 465.058879 293.578589 
L 465.301717 281.900134 
L 465.544554 285.678457 
L 465.787392 291.303007 
M 467.730094 298.602042 
L 467.972932 305.686399 
L 468.458607 298.473235 
L 468.701445 294.480234 
L 468.944283 292.634008 
L 469.187121 294.52317 
L 469.429958 292.891621 
L 470.158472 279.066391 
M 471.858336 280.612069 
L 472.101174 280.31152 
L 472.344012 287.996974 
L 472.586849 275.717422 
L 472.829687 281.943069 
L 473.072525 293.063363 
L 473.315363 284.948554 
L 473.801038 274.300551 
L 474.043876 279.281068 
L 474.529551 269.964066 
L 474.772389 263.394935 
L 475.015227 265.284097 
L 475.500902 244.803865 
M 475.986578 248.367511 
L 476.229416 252.661061 
M 477.443605 257.684514 
L 477.686442 261.978063 
L 477.92928 262.665031 
L 478.172118 261.334031 
L 478.657793 248.925673 
L 478.900631 250.342544 
L 479.386307 233.297152 
L 479.871982 234.671088 
L 480.11482 229.304151 
M 483.757386 192.336689 
L 484.000224 192.293753 
L 484.243062 189.889365 
L 484.4859 180.701169 
L 484.728737 184.050138 
L 484.971575 184.522428 
L 485.214413 181.774557 
L 485.700088 191.606785 
L 486.185764 205.732564 
M 487.157115 202.040111 
L 487.399953 192.723108 
L 487.64279 193.624754 
L 487.885628 197.274271 
L 488.128466 189.588817 
L 488.371304 191.349172 
L 488.614141 186.41159 
L 489.099817 194.054109 
L 489.342655 198.04711 
L 489.585492 196.887851 
L 489.82833 191.520914 
L 490.799681 201.481949 
L 491.042519 210.927759 
M 492.985221 216.165889 
L 493.228059 212.602243 
L 493.470897 214.963695 
L 493.713734 210.541339 
L 493.956572 209.510887 
L 494.19941 217.58276 
L 494.442248 218.699083 
L 494.685085 218.999632 
L 494.927923 214.06205 
L 495.170761 215.350115 
L 495.413599 211.872339 
L 495.656436 213.418017 
L 495.899274 210.455468 
L 496.142112 210.927759 
L 496.38495 212.602243 
L 496.627788 202.598272 
L 496.870625 204.573305 
L 497.113463 210.670146 
L 497.599139 228.488377 
L 497.841976 222.26273 
L 498.327652 201.95424 
L 498.813327 187.313236 
L 499.056165 186.497461 
L 499.299003 188.000204 
L 499.541841 188.214881 
L 499.784678 180.185943 
L 500.027516 182.676202 
L 500.270354 180.185943 
L 500.513192 186.497461 
M 502.213056 166.01723 
L 502.698731 176.107071 
L 502.941569 173.659748 
L 503.184407 166.103101 
L 503.427245 166.188972 
L 503.670083 162.153035 
L 503.91292 163.226422 
L 504.155758 155.455098 
M 510.712378 119.045797 
L 510.955215 117.414248 
L 511.198053 111.832633 
L 511.440891 114.923989 
L 511.926566 107.410277 
L 512.169404 108.955955 
L 512.412242 105.735793 
L 512.65508 105.048825 
L 512.897917 102.172147 
M 513.869268 103.159663 
L 514.112106 107.624955 
L 514.354944 101.356372 
L 514.597782 102.987921 
L 514.840619 103.76076 
L 515.083457 102.601502 
L 515.326295 95.645951 
L 515.569133 100.411792 
L 515.81197 94.272016 
L 516.054808 100.368856 
L 516.297646 96.032371 
L 516.540484 99.596017 
L 516.783322 89.377369 
L 517.268997 92.89808 
L 517.511835 89.720853 
L 517.99751 99.982437 
L 518.240348 100.24005 
L 518.483186 101.098759 
L 518.968861 105.47818 
L 519.211699 99.510146 
L 519.454537 102.730308 
L 519.697375 99.85363 
L 519.940212 98.307952 
L 520.18305 101.699856 
L 520.425888 108.483665 
L 520.668726 107.281471 
M 521.397239 113.850602 
L 521.640077 113.507118 
L 521.882914 117.199571 
M 524.55413 127.11767 
L 524.796968 136.520544 
L 525.039805 133.515059 
L 525.282643 138.023286 
L 525.525481 140.298867 
L 525.768319 137.422189 
L 526.011156 141.071706 
L 526.496832 131.668833 
L 526.982507 120.16212 
L 527.468183 124.455669 
L 527.953858 117.199571 
M 530.139398 103.331405 
L 530.382236 108.397794 
L 530.625074 110.201085 
L 531.110749 105.521116 
L 531.353587 106.680374 
L 531.596425 110.973924 
L 531.839263 110.673375 
L 532.0821 115.954441 
L 532.324938 126.988864 
M 533.053451 119.131668 
L 533.296289 120.763217 
L 533.539127 127.461154 
L 533.781965 122.781185 
L 534.024802 121.278443 
L 534.26764 129.6938 
L 534.510478 125.142637 
L 534.753316 137.336318 
L 535.238991 132.913962 
L 535.481829 131.88351 
L 535.724667 126.387767 
L 535.967505 128.920961 
L 536.210342 137.722738 
L 536.45318 138.881996 
L 536.696018 133.729737 
L 536.938856 124.026314 
L 537.181693 122.952927 
L 537.424531 123.596959 
L 537.667369 123.21054 
L 537.910207 124.584476 
L 538.153044 127.246477 
L 538.395882 121.836604 
L 538.63872 127.332348 
L 538.881558 122.523572 
L 539.124395 126.902993 
L 539.367233 134.717253 
L 539.610071 153.480065 
L 539.852909 159.662776 
L 540.095746 158.160034 
M 540.82426 140.170061 
L 541.067097 142.746191 
L 541.309935 128.577477 
L 541.552773 130.209026 
L 541.795611 124.198056 
L 542.038448 128.620412 
L 542.281286 128.405735 
L 542.524124 132.570478 
L 542.766962 110.888053 
M 544.223988 108.870084 
L 544.466826 111.617956 
L 544.709664 110.201085 
L 544.952502 114.065279 
L 545.438177 108.569536 
L 545.681015 110.072278 
L 545.923853 106.551567 
L 546.16669 117.156635 
L 546.409528 121.192572 
M 547.138041 128.148122 
L 547.380879 135.447156 
L 547.623717 129.30738 
L 547.866555 129.951413 
L 548.109392 139.611899 
L 548.35223 128.534541 
L 548.595068 128.105187 
L 548.837906 133.987349 
L 549.080744 127.890509 
L 549.323581 136.821092 
L 549.566419 136.005318 
L 550.052095 149.014773 
L 550.294932 148.542483 
L 550.53777 142.917933 
L 551.266283 111.188601 
L 551.509121 112.648408 
L 551.751959 107.453213 
L 551.994797 104.791212 
M 555.637363 85.427303 
L 555.880201 82.50769 
L 556.123039 82.335948 
L 556.365876 81.992464 
L 556.608714 79.974495 
M 558.065741 65.333491 
L 558.308578 66.836234 
L 558.551416 65.63404 
M 559.522767 68.68246 
L 559.765605 66.836234 
L 560.008443 70.01346 
L 560.25128 70.87217 
L 560.494118 73.791784 
L 560.736956 73.92059 
L 560.979794 72.289042 
L 561.222631 67.179718 
L 561.465469 66.406879 
L 561.708307 70.314009 
L 561.951145 66.406879 
L 562.193983 65.505233 
L 562.43682 55.973553 
L 562.679658 63.358458 
L 562.922496 61.598103 
L 563.165334 53.826778 
L 563.408171 53.440359 
M 564.62236 50.220197 
L 564.865198 54.642553 
L 565.108036 55.114843 
L 565.350873 60.567651 
L 565.593711 51.336519 
L 565.836549 57.304553 
L 566.079387 51.680003 
L 566.322224 54.599617 
L 566.8079 44.85326 
L 567.050738 50.263132 
L 567.293575 49.662035 
L 567.536413 45.669034 
L 567.779251 48.37397 
L 568.264926 44.85326 
L 568.507764 44.423905 
L 568.750602 48.288099 
L 568.99344 44.595647 
L 569.236278 52.710455 
L 569.479115 47.128841 
L 569.721953 46.785357 
L 570.207629 50.349003 
L 570.450466 50.349003 
L 570.693304 49.876713 
L 570.936142 50.692487 
L 571.421817 57.648037 
M 576.278573 74.7793 
L 576.52141 80.747334 
L 576.764248 82.078335 
L 577.007086 80.962012 
L 577.249924 72.074364 
L 577.492761 84.396851 
L 577.735599 83.709884 
L 577.978437 84.010432 
L 578.221275 85.684916 
L 578.464112 85.212626 
L 578.70695 83.151722 
L 578.949788 84.010432 
L 579.192626 83.495206 
L 579.435463 77.011946 
L 579.921139 82.50769 
L 580.163977 83.065851 
L 580.406814 82.207141 
L 580.89249 90.880111 
L 581.135328 94.701371 
L 581.378165 95.731822 
L 581.621003 91.18066 
L 581.863841 92.168176 
L 582.349517 95.731822 
L 582.592354 93.75679 
M 587.206272 108.698342 
L 587.449109 106.122213 
L 587.691947 108.741278 
L 587.934785 108.955955 
L 588.177623 108.226052 
L 588.420461 111.918504 
L 588.663298 109.170633 
L 588.906136 109.642923 
L 589.148974 112.133182 
L 589.391812 111.360343 
L 589.634649 109.38531 
L 589.877487 112.390795 
L 590.120325 108.569536 
L 590.363163 109.900536 
L 590.848838 119.346345 
L 591.091676 118.401764 
L 591.334514 123.081733 
L 591.577351 121.536056 
L 591.820189 124.713282 
M 594.005729 131.196542 
L 594.248567 133.858543 
L 594.734242 127.632896 
L 594.97708 126.387767 
L 595.462756 132.398736 
L 595.705593 130.853058 
L 595.948431 131.540026 
L 596.191269 129.092703 
L 596.434107 131.668833 
L 596.676944 125.872541 
L 596.919782 124.799153 
L 597.16262 122.523572 
L 597.405458 121.793669 
L 597.648295 127.074735 
L 597.891133 123.725766 
L 598.133971 123.167604 
L 598.376809 120.119184 
L 598.862484 120.892023 
L 599.105322 123.339346 
L 599.34816 122.73825 
L 599.590997 124.670347 
L 599.833835 124.112185 
L 600.076673 124.92796 
L 600.319511 130.981865 
L 600.562348 129.650864 
L 600.805186 126.430702 
L 601.048024 131.497091 
L 601.5337 129.994348 
L 601.776537 124.627411 
L 602.019375 125.142637 
L 602.262213 126.087218 
L 602.505051 122.308895 
L 602.747888 124.670347 
L 602.990726 121.922475 
L 603.233564 125.829605 
L 603.476402 125.486121 
L 603.719239 125.700799 
L 603.962077 122.695314 
L 604.204915 121.278443 
M 605.176266 116.25499 
L 605.419104 129.049767 
L 605.661941 126.087218 
L 605.904779 124.627411 
L 606.147617 125.571992 
L 606.390455 128.878025 
L 606.633292 125.099702 
L 607.118968 129.178574 
L 607.847481 108.998891 
L 608.333157 114.322892 
L 608.575995 113.507118 
M 609.06167 110.845117 
L 609.304508 108.655407 
L 609.547346 108.827149 
M 610.518697 114.365828 
L 610.761534 115.39628 
L 611.004372 117.457183 
L 611.24721 123.983379 
L 611.490048 124.112185 
L 611.732885 124.713282 
L 611.975723 126.945928 
M 614.404101 130.423703 
L 614.646939 130.294897 
L 614.889776 129.30738 
L 615.132614 129.951413 
L 615.375452 130.123155 
L 615.861127 128.920961 
L 616.346803 136.262931 
L 616.589641 135.060737 
L 616.832478 132.871027 
L 617.075316 131.88351 
L 617.318154 133.729737 
L 617.560992 132.355801 
L 617.803829 135.103672 
L 618.046667 133.60093 
L 618.289505 138.881996 
L 618.532343 140.041254 
L 618.77518 140.642351 
M 619.260856 138.881996 
L 619.503694 141.200513 
L 619.746531 136.434673 
L 619.989369 136.17706 
L 620.232207 139.611899 
L 620.475045 144.978837 
L 620.717882 143.046739 
L 620.96072 143.433159 
L 621.446396 136.64935 
L 621.689234 136.949899 
L 621.932071 138.667319 
L 622.174909 137.207512 
L 622.417747 134.588446 
L 622.660585 133.858543 
L 622.903422 142.402707 
L 623.14626 146.18103 
L 623.389098 145.32232 
L 623.631936 145.494062 
L 623.874773 143.905449 
L 624.117611 149.572935 
L 624.603287 150.732193 
L 625.088962 143.175546 
L 625.3318 143.862514 
L 625.574638 139.311351 
L 625.817475 139.783641 
L 626.060313 137.207512 
L 626.545989 144.592417 
L 626.788826 144.506546 
L 627.031664 144.892966 
L 627.274502 146.825063 
L 627.51734 145.451127 
L 627.760178 148.456612 
L 628.003015 146.996805 
L 628.245853 150.388709 
L 628.488691 151.505032 
L 628.731529 156.056195 
M 630.674231 156.356743 
L 630.917068 159.448099 
L 631.402744 148.327805 
L 631.645582 149.61587 
L 631.888419 152.535484 
L 632.131257 149.444128 
L 632.374095 151.590903 
L 632.616933 148.499547 
M 633.345446 146.052224 
L 633.588284 142.574449 
M 634.073959 138.667319 
L 634.316797 141.672803 
L 634.559635 135.060737 
L 634.802473 133.901479 
L 635.288148 137.422189 
L 635.530986 135.490092 
M 636.259499 128.749219 
L 636.502337 133.343317 
L 636.745175 135.747705 
L 637.23085 130.509574 
L 637.473688 131.711768 
L 637.716526 131.668833 
L 637.959363 135.060737 
L 638.202201 134.888995 
L 638.445039 136.219995 
L 638.687877 135.017801 
L 638.930714 136.091189 
L 639.173552 142.574449 
M 642.573281 149.401193 
L 642.816119 143.003804 
L 643.544632 152.020258 
L 644.030307 156.528485 
L 644.273145 154.553452 
L 644.515983 149.830548 
L 644.758821 147.383224 
L 645.244496 140.427674 
L 645.487334 140.127125 
L 645.730172 140.9429 
L 645.973009 139.69777 
L 646.215847 141.41519 
L 646.701523 139.912448 
L 646.701523 139.912448 
" clip-path="url(#p6647058a96)" style="fill: none; stroke: #1e90ff"/>
   </g>
   <g id="patch_3">
    <path d="M 48.77425 378.43845 
L 48.77425 28.51845 
" style="fill: none; stroke: #f0f0f0; stroke-width: 3; stroke-linejoin: miter; stroke-linecap: square"/>
   </g>
   <g id="patch_4">
    <path d="M 675.17425 378.43845 
L 675.17425 28.51845 
" style="fill: none; stroke: #f0f0f0; stroke-width: 3; stroke-linejoin: miter; stroke-linecap: square"/>
   </g>
   <g id="patch_5">
    <path d="M 48.77425 378.43845 
L 675.17425 378.43845 
" style="fill: none; stroke: #f0f0f0; stroke-width: 3; stroke-linejoin: miter; stroke-linecap: square"/>
   </g>
   <g id="patch_6">
    <path d="M 48.77425 28.51845 
L 675.17425 28.51845 
" style="fill: none; stroke: #f0f0f0; stroke-width: 3; stroke-linejoin: miter; stroke-linecap: square"/>
   </g>
   <g id="text_16">
    <!-- DVN, Relative Strength Index (RSI), DVN -->
    <g transform="translate(159.2623 22.51845)scale(0.2016 -0.2016)">
     <defs>
      <path id="DejaVuSans-56" d="M 1831 0 
L 50 4666 
L 709 4666 
L 2188 738 
L 3669 4666 
L 4325 4666 
L 2547 0 
L 1831 0 
z
" transform="scale(0.015625)"/>
      <path id="DejaVuSans-4e" d="M 628 4666 
L 1478 4666 
L 3547 763 
L 3547 4666 
L 4159 4666 
L 4159 0 
L 3309 0 
L 1241 3903 
L 1241 0 
L 628 0 
L 628 4666 
z
" transform="scale(0.015625)"/>
      <path id="DejaVuSans-2c" d="M 750 794 
L 1409 794 
L 1409 256 
L 897 -744 
L 494 -744 
L 750 256 
L 750 794 
z
" transform="scale(0.015625)"/>
      <path id="DejaVuSans-52" d="M 2841 2188 
Q 3044 2119 3236 1894 
Q 3428 1669 3622 1275 
L 4263 0 
L 3584 0 
L 2988 1197 
Q 2756 1666 2539 1819 
Q 2322 1972 1947 1972 
L 1259 1972 
L 1259 0 
L 628 0 
L 628 4666 
L 2053 4666 
Q 2853 4666 3247 4331 
Q 3641 3997 3641 3322 
Q 3641 2881 3436 2590 
Q 3231 2300 2841 2188 
z
M 1259 4147 
L 1259 2491 
L 2053 2491 
Q 2509 2491 2742 2702 
Q 2975 2913 2975 3322 
Q 2975 3731 2742 3939 
Q 2509 4147 2053 4147 
L 1259 4147 
z
" transform="scale(0.015625)"/>
      <path id="DejaVuSans-6c" d="M 603 4863 
L 1178 4863 
L 1178 0 
L 603 0 
L 603 4863 
z
" transform="scale(0.015625)"/>
      <path id="DejaVuSans-76" d="M 191 3500 
L 800 3500 
L 1894 563 
L 2988 3500 
L 3597 3500 
L 2284 0 
L 1503 0 
L 191 3500 
z
" transform="scale(0.015625)"/>
      <path id="DejaVuSans-6e" d="M 3513 2113 
L 3513 0 
L 2938 0 
L 2938 2094 
Q 2938 2591 2744 2837 
Q 2550 3084 2163 3084 
Q 1697 3084 1428 2787 
Q 1159 2491 1159 1978 
L 1159 0 
L 581 0 
L 581 3500 
L 1159 3500 
L 1159 2956 
Q 1366 3272 1645 3428 
Q 1925 3584 2291 3584 
Q 2894 3584 3203 3211 
Q 3513 2838 3513 2113 
z
" transform="scale(0.015625)"/>
      <path id="DejaVuSans-67" d="M 2906 1791 
Q 2906 2416 2648 2759 
Q 2391 3103 1925 3103 
Q 1463 3103 1205 2759 
Q 947 2416 947 1791 
Q 947 1169 1205 825 
Q 1463 481 1925 481 
Q 2391 481 2648 825 
Q 2906 1169 2906 1791 
z
M 3481 434 
Q 3481 -459 3084 -895 
Q 2688 -1331 1869 -1331 
Q 1566 -1331 1297 -1286 
Q 1028 -1241 775 -1147 
L 775 -588 
Q 1028 -725 1275 -790 
Q 1522 -856 1778 -856 
Q 2344 -856 2625 -561 
Q 2906 -266 2906 331 
L 2906 616 
Q 2728 306 2450 153 
Q 2172 0 1784 0 
Q 1141 0 747 490 
Q 353 981 353 1791 
Q 353 2603 747 3093 
Q 1141 3584 1784 3584 
Q 2172 3584 2450 3431 
Q 2728 3278 2906 2969 
L 2906 3500 
L 3481 3500 
L 3481 434 
z
" transform="scale(0.015625)"/>
      <path id="DejaVuSans-68" d="M 3513 2113 
L 3513 0 
L 2938 0 
L 2938 2094 
Q 2938 2591 2744 2837 
Q 2550 3084 2163 3084 
Q 1697 3084 1428 2787 
Q 1159 2491 1159 1978 
L 1159 0 
L 581 0 
L 581 4863 
L 1159 4863 
L 1159 2956 
Q 1366 3272 1645 3428 
Q 1925 3584 2291 3584 
Q 2894 3584 3203 3211 
Q 3513 2838 3513 2113 
z
" transform="scale(0.015625)"/>
      <path id="DejaVuSans-49" d="M 628 4666 
L 1259 4666 
L 1259 0 
L 628 0 
L 628 4666 
z
" transform="scale(0.015625)"/>
      <path id="DejaVuSans-64" d="M 2906 2969 
L 2906 4863 
L 3481 4863 
L 3481 0 
L 2906 0 
L 2906 525 
Q 2725 213 2448 61 
Q 2172 -91 1784 -91 
Q 1150 -91 751 415 
Q 353 922 353 1747 
Q 353 2572 751 3078 
Q 1150 3584 1784 3584 
Q 2172 3584 2448 3432 
Q 2725 3281 2906 2969 
z
M 947 1747 
Q 947 1113 1208 752 
Q 1469 391 1925 391 
Q 2381 391 2643 752 
Q 2906 1113 2906 1747 
Q 2906 2381 2643 2742 
Q 2381 3103 1925 3103 
Q 1469 3103 1208 2742 
Q 947 2381 947 1747 
z
" transform="scale(0.015625)"/>
      <path id="DejaVuSans-78" d="M 3513 3500 
L 2247 1797 
L 3578 0 
L 2900 0 
L 1881 1375 
L 863 0 
L 184 0 
L 1544 1831 
L 300 3500 
L 978 3500 
L 1906 2253 
L 2834 3500 
L 3513 3500 
z
" transform="scale(0.015625)"/>
     </defs>
     <use xlink:href="#DejaVuSans-44"/>
     <use xlink:href="#DejaVuSans-56" x="75.251953"/>
     <use xlink:href="#DejaVuSans-4e" x="143.660156"/>
     <use xlink:href="#DejaVuSans-2c" x="218.464844"/>
     <use xlink:href="#DejaVuSans-20" x="250.251953"/>
     <use xlink:href="#DejaVuSans-52" x="282.039062"/>
     <use xlink:href="#DejaVuSans-65" x="347.021484"/>
     <use xlink:href="#DejaVuSans-6c" x="408.544922"/>
     <use xlink:href="#DejaVuSans-61" x="436.328125"/>
     <use xlink:href="#DejaVuSans-74" x="497.607422"/>
     <use xlink:href="#DejaVuSans-69" x="536.816406"/>
     <use xlink:href="#DejaVuSans-76" x="564.599609"/>
     <use xlink:href="#DejaVuSans-65" x="623.779297"/>
     <use xlink:href="#DejaVuSans-20" x="685.302734"/>
     <use xlink:href="#DejaVuSans-53" x="717.089844"/>
     <use xlink:href="#DejaVuSans-74" x="780.566406"/>
     <use xlink:href="#DejaVuSans-72" x="819.775391"/>
     <use xlink:href="#DejaVuSans-65" x="858.638672"/>
     <use xlink:href="#DejaVuSans-6e" x="920.162109"/>
     <use xlink:href="#DejaVuSans-67" x="983.541016"/>
     <use xlink:href="#DejaVuSans-74" x="1047.017578"/>
     <use xlink:href="#DejaVuSans-68" x="1086.226562"/>
     <use xlink:href="#DejaVuSans-20" x="1149.605469"/>
     <use xlink:href="#DejaVuSans-49" x="1181.392578"/>
     <use xlink:href="#DejaVuSans-6e" x="1210.884766"/>
     <use xlink:href="#DejaVuSans-64" x="1274.263672"/>
     <use xlink:href="#DejaVuSans-65" x="1337.740234"/>
     <use xlink:href="#DejaVuSans-78" x="1397.513672"/>
     <use xlink:href="#DejaVuSans-20" x="1456.693359"/>
     <use xlink:href="#DejaVuSans-28" x="1488.480469"/>
     <use xlink:href="#DejaVuSans-52" x="1527.494141"/>
     <use xlink:href="#DejaVuSans-53" x="1596.976562"/>
     <use xlink:href="#DejaVuSans-49" x="1660.453125"/>
     <use xlink:href="#DejaVuSans-29" x="1689.945312"/>
     <use xlink:href="#DejaVuSans-2c" x="1728.958984"/>
     <use xlink:href="#DejaVuSans-20" x="1760.746094"/>
     <use xlink:href="#DejaVuSans-44" x="1792.533203"/>
     <use xlink:href="#DejaVuSans-56" x="1867.785156"/>
     <use xlink:href="#DejaVuSans-4e" x="1936.193359"/>
    </g>
   </g>
   <g id="legend_1">
    <g id="patch_7">
     <path d="M 257.037688 101.366575 
L 466.910812 101.366575 
Q 469.710812 101.366575 469.710812 98.566575 
L 469.710812 38.31845 
Q 469.710812 35.51845 466.910812 35.51845 
L 257.037688 35.51845 
Q 254.237688 35.51845 254.237688 38.31845 
L 254.237688 98.566575 
Q 254.237688 101.366575 257.037688 101.366575 
z
" style="fill: #f0f0f0; opacity: 0.8; stroke: #cccccc; stroke-width: 0.5; stroke-linejoin: miter"/>
    </g>
    <g id="line2d_30">
     <path d="M 259.837688 46.856262 
L 273.837688 46.856262 
L 287.837688 46.856262 
" style="fill: none; stroke: #00ff7f"/>
    </g>
    <g id="text_17">
     <!-- Oversold, RSI &lt;= 30 -->
     <g transform="translate(299.037688 51.756262)scale(0.14 -0.14)">
      <defs>
       <path id="DejaVuSans-4f" d="M 2522 4238 
Q 1834 4238 1429 3725 
Q 1025 3213 1025 2328 
Q 1025 1447 1429 934 
Q 1834 422 2522 422 
Q 3209 422 3611 934 
Q 4013 1447 4013 2328 
Q 4013 3213 3611 3725 
Q 3209 4238 2522 4238 
z
M 2522 4750 
Q 3503 4750 4090 4092 
Q 4678 3434 4678 2328 
Q 4678 1225 4090 567 
Q 3503 -91 2522 -91 
Q 1538 -91 948 565 
Q 359 1222 359 2328 
Q 359 3434 948 4092 
Q 1538 4750 2522 4750 
z
" transform="scale(0.015625)"/>
       <path id="DejaVuSans-73" d="M 2834 3397 
L 2834 2853 
Q 2591 2978 2328 3040 
Q 2066 3103 1784 3103 
Q 1356 3103 1142 2972 
Q 928 2841 928 2578 
Q 928 2378 1081 2264 
Q 1234 2150 1697 2047 
L 1894 2003 
Q 2506 1872 2764 1633 
Q 3022 1394 3022 966 
Q 3022 478 2636 193 
Q 2250 -91 1575 -91 
Q 1294 -91 989 -36 
Q 684 19 347 128 
L 347 722 
Q 666 556 975 473 
Q 1284 391 1588 391 
Q 1994 391 2212 530 
Q 2431 669 2431 922 
Q 2431 1156 2273 1281 
Q 2116 1406 1581 1522 
L 1381 1569 
Q 847 1681 609 1914 
Q 372 2147 372 2553 
Q 372 3047 722 3315 
Q 1072 3584 1716 3584 
Q 2034 3584 2315 3537 
Q 2597 3491 2834 3397 
z
" transform="scale(0.015625)"/>
       <path id="DejaVuSans-6f" d="M 1959 3097 
Q 1497 3097 1228 2736 
Q 959 2375 959 1747 
Q 959 1119 1226 758 
Q 1494 397 1959 397 
Q 2419 397 2687 759 
Q 2956 1122 2956 1747 
Q 2956 2369 2687 2733 
Q 2419 3097 1959 3097 
z
M 1959 3584 
Q 2709 3584 3137 3096 
Q 3566 2609 3566 1747 
Q 3566 888 3137 398 
Q 2709 -91 1959 -91 
Q 1206 -91 779 398 
Q 353 888 353 1747 
Q 353 2609 779 3096 
Q 1206 3584 1959 3584 
z
" transform="scale(0.015625)"/>
       <path id="DejaVuSans-3c" d="M 4684 3150 
L 1459 2003 
L 4684 863 
L 4684 294 
L 678 1747 
L 678 2266 
L 4684 3719 
L 4684 3150 
z
" transform="scale(0.015625)"/>
       <path id="DejaVuSans-3d" d="M 678 2906 
L 4684 2906 
L 4684 2381 
L 678 2381 
L 678 2906 
z
M 678 1631 
L 4684 1631 
L 4684 1100 
L 678 1100 
L 678 1631 
z
" transform="scale(0.015625)"/>
      </defs>
      <use xlink:href="#DejaVuSans-4f"/>
      <use xlink:href="#DejaVuSans-76" x="78.710938"/>
      <use xlink:href="#DejaVuSans-65" x="137.890625"/>
      <use xlink:href="#DejaVuSans-72" x="199.414062"/>
      <use xlink:href="#DejaVuSans-73" x="240.527344"/>
      <use xlink:href="#DejaVuSans-6f" x="292.626953"/>
      <use xlink:href="#DejaVuSans-6c" x="353.808594"/>
      <use xlink:href="#DejaVuSans-64" x="381.591797"/>
      <use xlink:href="#DejaVuSans-2c" x="445.068359"/>
      <use xlink:href="#DejaVuSans-20" x="476.855469"/>
      <use xlink:href="#DejaVuSans-52" x="508.642578"/>
      <use xlink:href="#DejaVuSans-53" x="578.125"/>
      <use xlink:href="#DejaVuSans-49" x="641.601562"/>
      <use xlink:href="#DejaVuSans-20" x="671.09375"/>
      <use xlink:href="#DejaVuSans-3c" x="702.880859"/>
      <use xlink:href="#DejaVuSans-3d" x="786.669922"/>
      <use xlink:href="#DejaVuSans-20" x="870.458984"/>
      <use xlink:href="#DejaVuSans-33" x="902.246094"/>
      <use xlink:href="#DejaVuSans-30" x="965.869141"/>
     </g>
    </g>
    <g id="line2d_31">
     <path d="M 259.837688 67.405637 
L 273.837688 67.405637 
L 287.837688 67.405637 
" style="fill: none; stroke: #ff4500"/>
    </g>
    <g id="text_18">
     <!-- Overbought, RSI &gt;= 70 -->
     <g transform="translate(299.037688 72.305637)scale(0.14 -0.14)">
      <defs>
       <path id="DejaVuSans-62" d="M 3116 1747 
Q 3116 2381 2855 2742 
Q 2594 3103 2138 3103 
Q 1681 3103 1420 2742 
Q 1159 2381 1159 1747 
Q 1159 1113 1420 752 
Q 1681 391 2138 391 
Q 2594 391 2855 752 
Q 3116 1113 3116 1747 
z
M 1159 2969 
Q 1341 3281 1617 3432 
Q 1894 3584 2278 3584 
Q 2916 3584 3314 3078 
Q 3713 2572 3713 1747 
Q 3713 922 3314 415 
Q 2916 -91 2278 -91 
Q 1894 -91 1617 61 
Q 1341 213 1159 525 
L 1159 0 
L 581 0 
L 581 4863 
L 1159 4863 
L 1159 2969 
z
" transform="scale(0.015625)"/>
       <path id="DejaVuSans-75" d="M 544 1381 
L 544 3500 
L 1119 3500 
L 1119 1403 
Q 1119 906 1312 657 
Q 1506 409 1894 409 
Q 2359 409 2629 706 
Q 2900 1003 2900 1516 
L 2900 3500 
L 3475 3500 
L 3475 0 
L 2900 0 
L 2900 538 
Q 2691 219 2414 64 
Q 2138 -91 1772 -91 
Q 1169 -91 856 284 
Q 544 659 544 1381 
z
M 1991 3584 
L 1991 3584 
z
" transform="scale(0.015625)"/>
       <path id="DejaVuSans-3e" d="M 678 3150 
L 678 3719 
L 4684 2266 
L 4684 1747 
L 678 294 
L 678 863 
L 3897 2003 
L 678 3150 
z
" transform="scale(0.015625)"/>
      </defs>
      <use xlink:href="#DejaVuSans-4f"/>
      <use xlink:href="#DejaVuSans-76" x="78.710938"/>
      <use xlink:href="#DejaVuSans-65" x="137.890625"/>
      <use xlink:href="#DejaVuSans-72" x="199.414062"/>
      <use xlink:href="#DejaVuSans-62" x="240.527344"/>
      <use xlink:href="#DejaVuSans-6f" x="304.003906"/>
      <use xlink:href="#DejaVuSans-75" x="365.185547"/>
      <use xlink:href="#DejaVuSans-67" x="428.564453"/>
      <use xlink:href="#DejaVuSans-68" x="492.041016"/>
      <use xlink:href="#DejaVuSans-74" x="555.419922"/>
      <use xlink:href="#DejaVuSans-2c" x="594.628906"/>
      <use xlink:href="#DejaVuSans-20" x="626.416016"/>
      <use xlink:href="#DejaVuSans-52" x="658.203125"/>
      <use xlink:href="#DejaVuSans-53" x="727.685547"/>
      <use xlink:href="#DejaVuSans-49" x="791.162109"/>
      <use xlink:href="#DejaVuSans-20" x="820.654297"/>
      <use xlink:href="#DejaVuSans-3e" x="852.441406"/>
      <use xlink:href="#DejaVuSans-3d" x="936.230469"/>
      <use xlink:href="#DejaVuSans-20" x="1020.019531"/>
      <use xlink:href="#DejaVuSans-37" x="1051.806641"/>
      <use xlink:href="#DejaVuSans-30" x="1115.429688"/>
     </g>
    </g>
    <g id="line2d_32">
     <path d="M 259.837688 87.955012 
L 273.837688 87.955012 
L 287.837688 87.955012 
" style="fill: none; stroke: #1e90ff"/>
    </g>
    <g id="text_19">
     <!-- Neutral -->
     <g transform="translate(299.037688 92.855012)scale(0.14 -0.14)">
      <use xlink:href="#DejaVuSans-4e"/>
      <use xlink:href="#DejaVuSans-65" x="74.804688"/>
      <use xlink:href="#DejaVuSans-75" x="136.328125"/>
      <use xlink:href="#DejaVuSans-74" x="199.707031"/>
      <use xlink:href="#DejaVuSans-72" x="238.916016"/>
      <use xlink:href="#DejaVuSans-61" x="280.029297"/>
      <use xlink:href="#DejaVuSans-6c" x="341.308594"/>
     </g>
    </g>
   </g>
  </g>
 </g>
 <defs>
  <clipPath id="p6647058a96">
   <rect x="48.77425" y="28.51845" width="626.4" height="349.92"/>
  </clipPath>
 </defs>
</svg>
