<?xml version="1.0" encoding="utf-8" standalone="no"?>
<!DOCTYPE svg PUBLIC "-//W3C//DTD SVG 1.1//EN"
  "http://www.w3.org/Graphics/SVG/1.1/DTD/svg11.dtd">
<svg xmlns:xlink="http://www.w3.org/1999/xlink" width="605.803125pt" height="392.514375pt" viewBox="0 0 605.803125 392.514375" xmlns="http://www.w3.org/2000/svg" version="1.1">
 <metadata>
  <rdf:RDF xmlns:dc="http://purl.org/dc/elements/1.1/" xmlns:cc="http://creativecommons.org/ns#" xmlns:rdf="http://www.w3.org/1999/02/22-rdf-syntax-ns#">
   <cc:Work>
    <dc:type rdf:resource="http://purl.org/dc/dcmitype/StillImage"/>
    <dc:date>2023-04-23T16:54:52.177889</dc:date>
    <dc:format>image/svg+xml</dc:format>
    <dc:creator>
     <cc:Agent>
      <dc:title>Matplotlib v3.5.1, https://matplotlib.org/</dc:title>
     </cc:Agent>
    </dc:creator>
   </cc:Work>
  </rdf:RDF>
 </metadata>
 <defs>
  <style type="text/css">*{stroke-linejoin: round; stroke-linecap: butt}</style>
 </defs>
 <g id="figure_1">
  <g id="patch_1">
   <path d="M 0 392.514375 
L 605.803125 392.514375 
L 605.803125 0 
L 0 0 
z
" style="fill: #ffffff"/>
  </g>
  <g id="axes_1">
   <g id="patch_2">
    <path d="M 40.603125 354.958125 
L 598.603125 354.958125 
L 598.603125 22.318125 
L 40.603125 22.318125 
z
" style="fill: #ffffff"/>
   </g>
   <g id="matplotlib.axis_1">
    <g id="xtick_1">
     <g id="line2d_1">
      <defs>
       <path id="m641f998931" d="M 0 0 
L 0 3.5 
" style="stroke: #000000; stroke-width: 0.8"/>
      </defs>
      <g>
       <use xlink:href="#m641f998931" x="65.966761" y="354.958125" style="stroke: #000000; stroke-width: 0.8"/>
      </g>
     </g>
     <g id="text_1">
      <!-- 0 -->
      <g transform="translate(62.785511 369.556562)scale(0.1 -0.1)">
       <defs>
        <path id="DejaVuSans-30" d="M 2034 4250 
Q 1547 4250 1301 3770 
Q 1056 3291 1056 2328 
Q 1056 1369 1301 889 
Q 1547 409 2034 409 
Q 2525 409 2770 889 
Q 3016 1369 3016 2328 
Q 3016 3291 2770 3770 
Q 2525 4250 2034 4250 
z
M 2034 4750 
Q 2819 4750 3233 4129 
Q 3647 3509 3647 2328 
Q 3647 1150 3233 529 
Q 2819 -91 2034 -91 
Q 1250 -91 836 529 
Q 422 1150 422 2328 
Q 422 3509 836 4129 
Q 1250 4750 2034 4750 
z
" transform="scale(0.015625)"/>
       </defs>
       <use xlink:href="#DejaVuSans-30"/>
      </g>
     </g>
    </g>
    <g id="xtick_2">
     <g id="line2d_2">
      <g>
       <use xlink:href="#m641f998931" x="177.750086" y="354.958125" style="stroke: #000000; stroke-width: 0.8"/>
      </g>
     </g>
     <g id="text_2">
      <!-- 500 -->
      <g transform="translate(168.206336 369.556562)scale(0.1 -0.1)">
       <defs>
        <path id="DejaVuSans-35" d="M 691 4666 
L 3169 4666 
L 3169 4134 
L 1269 4134 
L 1269 2991 
Q 1406 3038 1543 3061 
Q 1681 3084 1819 3084 
Q 2600 3084 3056 2656 
Q 3513 2228 3513 1497 
Q 3513 744 3044 326 
Q 2575 -91 1722 -91 
Q 1428 -91 1123 -41 
Q 819 9 494 109 
L 494 744 
Q 775 591 1075 516 
Q 1375 441 1709 441 
Q 2250 441 2565 725 
Q 2881 1009 2881 1497 
Q 2881 1984 2565 2268 
Q 2250 2553 1709 2553 
Q 1456 2553 1204 2497 
Q 953 2441 691 2322 
L 691 4666 
z
" transform="scale(0.015625)"/>
       </defs>
       <use xlink:href="#DejaVuSans-35"/>
       <use xlink:href="#DejaVuSans-30" x="63.623047"/>
       <use xlink:href="#DejaVuSans-30" x="127.246094"/>
      </g>
     </g>
    </g>
    <g id="xtick_3">
     <g id="line2d_3">
      <g>
       <use xlink:href="#m641f998931" x="289.533411" y="354.958125" style="stroke: #000000; stroke-width: 0.8"/>
      </g>
     </g>
     <g id="text_3">
      <!-- 1000 -->
      <g transform="translate(276.808411 369.556562)scale(0.1 -0.1)">
       <defs>
        <path id="DejaVuSans-31" d="M 794 531 
L 1825 531 
L 1825 4091 
L 703 3866 
L 703 4441 
L 1819 4666 
L 2450 4666 
L 2450 531 
L 3481 531 
L 3481 0 
L 794 0 
L 794 531 
z
" transform="scale(0.015625)"/>
       </defs>
       <use xlink:href="#DejaVuSans-31"/>
       <use xlink:href="#DejaVuSans-30" x="63.623047"/>
       <use xlink:href="#DejaVuSans-30" x="127.246094"/>
       <use xlink:href="#DejaVuSans-30" x="190.869141"/>
      </g>
     </g>
    </g>
    <g id="xtick_4">
     <g id="line2d_4">
      <g>
       <use xlink:href="#m641f998931" x="401.316735" y="354.958125" style="stroke: #000000; stroke-width: 0.8"/>
      </g>
     </g>
     <g id="text_4">
      <!-- 1500 -->
      <g transform="translate(388.591735 369.556562)scale(0.1 -0.1)">
       <use xlink:href="#DejaVuSans-31"/>
       <use xlink:href="#DejaVuSans-35" x="63.623047"/>
       <use xlink:href="#DejaVuSans-30" x="127.246094"/>
       <use xlink:href="#DejaVuSans-30" x="190.869141"/>
      </g>
     </g>
    </g>
    <g id="xtick_5">
     <g id="line2d_5">
      <g>
       <use xlink:href="#m641f998931" x="513.10006" y="354.958125" style="stroke: #000000; stroke-width: 0.8"/>
      </g>
     </g>
     <g id="text_5">
      <!-- 2000 -->
      <g transform="translate(500.37506 369.556562)scale(0.1 -0.1)">
       <defs>
        <path id="DejaVuSans-32" d="M 1228 531 
L 3431 531 
L 3431 0 
L 469 0 
L 469 531 
Q 828 903 1448 1529 
Q 2069 2156 2228 2338 
Q 2531 2678 2651 2914 
Q 2772 3150 2772 3378 
Q 2772 3750 2511 3984 
Q 2250 4219 1831 4219 
Q 1534 4219 1204 4116 
Q 875 4013 500 3803 
L 500 4441 
Q 881 4594 1212 4672 
Q 1544 4750 1819 4750 
Q 2544 4750 2975 4387 
Q 3406 4025 3406 3419 
Q 3406 3131 3298 2873 
Q 3191 2616 2906 2266 
Q 2828 2175 2409 1742 
Q 1991 1309 1228 531 
z
" transform="scale(0.015625)"/>
       </defs>
       <use xlink:href="#DejaVuSans-32"/>
       <use xlink:href="#DejaVuSans-30" x="63.623047"/>
       <use xlink:href="#DejaVuSans-30" x="127.246094"/>
       <use xlink:href="#DejaVuSans-30" x="190.869141"/>
      </g>
     </g>
    </g>
    <g id="text_6">
     <!-- Date -->
     <g transform="translate(307.652344 383.234687)scale(0.1 -0.1)">
      <defs>
       <path id="DejaVuSans-44" d="M 1259 4147 
L 1259 519 
L 2022 519 
Q 2988 519 3436 956 
Q 3884 1394 3884 2338 
Q 3884 3275 3436 3711 
Q 2988 4147 2022 4147 
L 1259 4147 
z
M 628 4666 
L 1925 4666 
Q 3281 4666 3915 4102 
Q 4550 3538 4550 2338 
Q 4550 1131 3912 565 
Q 3275 0 1925 0 
L 628 0 
L 628 4666 
z
" transform="scale(0.015625)"/>
       <path id="DejaVuSans-61" d="M 2194 1759 
Q 1497 1759 1228 1600 
Q 959 1441 959 1056 
Q 959 750 1161 570 
Q 1363 391 1709 391 
Q 2188 391 2477 730 
Q 2766 1069 2766 1631 
L 2766 1759 
L 2194 1759 
z
M 3341 1997 
L 3341 0 
L 2766 0 
L 2766 531 
Q 2569 213 2275 61 
Q 1981 -91 1556 -91 
Q 1019 -91 701 211 
Q 384 513 384 1019 
Q 384 1609 779 1909 
Q 1175 2209 1959 2209 
L 2766 2209 
L 2766 2266 
Q 2766 2663 2505 2880 
Q 2244 3097 1772 3097 
Q 1472 3097 1187 3025 
Q 903 2953 641 2809 
L 641 3341 
Q 956 3463 1253 3523 
Q 1550 3584 1831 3584 
Q 2591 3584 2966 3190 
Q 3341 2797 3341 1997 
z
" transform="scale(0.015625)"/>
       <path id="DejaVuSans-74" d="M 1172 4494 
L 1172 3500 
L 2356 3500 
L 2356 3053 
L 1172 3053 
L 1172 1153 
Q 1172 725 1289 603 
Q 1406 481 1766 481 
L 2356 481 
L 2356 0 
L 1766 0 
Q 1100 0 847 248 
Q 594 497 594 1153 
L 594 3053 
L 172 3053 
L 172 3500 
L 594 3500 
L 594 4494 
L 1172 4494 
z
" transform="scale(0.015625)"/>
       <path id="DejaVuSans-65" d="M 3597 1894 
L 3597 1613 
L 953 1613 
Q 991 1019 1311 708 
Q 1631 397 2203 397 
Q 2534 397 2845 478 
Q 3156 559 3463 722 
L 3463 178 
Q 3153 47 2828 -22 
Q 2503 -91 2169 -91 
Q 1331 -91 842 396 
Q 353 884 353 1716 
Q 353 2575 817 3079 
Q 1281 3584 2069 3584 
Q 2775 3584 3186 3129 
Q 3597 2675 3597 1894 
z
M 3022 2063 
Q 3016 2534 2758 2815 
Q 2500 3097 2075 3097 
Q 1594 3097 1305 2825 
Q 1016 2553 972 2059 
L 3022 2063 
z
" transform="scale(0.015625)"/>
      </defs>
      <use xlink:href="#DejaVuSans-44"/>
      <use xlink:href="#DejaVuSans-61" x="77.001953"/>
      <use xlink:href="#DejaVuSans-74" x="138.28125"/>
      <use xlink:href="#DejaVuSans-65" x="177.490234"/>
     </g>
    </g>
   </g>
   <g id="matplotlib.axis_2">
    <g id="ytick_1">
     <g id="line2d_6">
      <path d="M 40.603125 321.103937 
L 598.603125 321.103937 
" clip-path="url(#p87ebbe5c71)" style="fill: none; stroke: #dcdcdc; stroke-width: 0.5; stroke-linecap: square"/>
     </g>
     <g id="line2d_7">
      <defs>
       <path id="mc3dd04630d" d="M 0 0 
L -3.5 0 
" style="stroke: #000000; stroke-width: 0.8"/>
      </defs>
      <g>
       <use xlink:href="#mc3dd04630d" x="40.603125" y="321.103937" style="stroke: #000000; stroke-width: 0.8"/>
      </g>
     </g>
     <g id="text_7">
      <!-- 10 -->
      <g transform="translate(20.878125 324.903156)scale(0.1 -0.1)">
       <use xlink:href="#DejaVuSans-31"/>
       <use xlink:href="#DejaVuSans-30" x="63.623047"/>
      </g>
     </g>
    </g>
    <g id="ytick_2">
     <g id="line2d_8">
      <path d="M 40.603125 280.288712 
L 598.603125 280.288712 
" clip-path="url(#p87ebbe5c71)" style="fill: none; stroke: #dcdcdc; stroke-width: 0.5; stroke-linecap: square"/>
     </g>
     <g id="line2d_9">
      <g>
       <use xlink:href="#mc3dd04630d" x="40.603125" y="280.288712" style="stroke: #000000; stroke-width: 0.8"/>
      </g>
     </g>
     <g id="text_8">
      <!-- 20 -->
      <g transform="translate(20.878125 284.087931)scale(0.1 -0.1)">
       <use xlink:href="#DejaVuSans-32"/>
       <use xlink:href="#DejaVuSans-30" x="63.623047"/>
      </g>
     </g>
    </g>
    <g id="ytick_3">
     <g id="line2d_10">
      <path d="M 40.603125 239.473487 
L 598.603125 239.473487 
" clip-path="url(#p87ebbe5c71)" style="fill: none; stroke: #dcdcdc; stroke-width: 0.5; stroke-linecap: square"/>
     </g>
     <g id="line2d_11">
      <g>
       <use xlink:href="#mc3dd04630d" x="40.603125" y="239.473487" style="stroke: #000000; stroke-width: 0.8"/>
      </g>
     </g>
     <g id="text_9">
      <!-- 30 -->
      <g transform="translate(20.878125 243.272706)scale(0.1 -0.1)">
       <defs>
        <path id="DejaVuSans-33" d="M 2597 2516 
Q 3050 2419 3304 2112 
Q 3559 1806 3559 1356 
Q 3559 666 3084 287 
Q 2609 -91 1734 -91 
Q 1441 -91 1130 -33 
Q 819 25 488 141 
L 488 750 
Q 750 597 1062 519 
Q 1375 441 1716 441 
Q 2309 441 2620 675 
Q 2931 909 2931 1356 
Q 2931 1769 2642 2001 
Q 2353 2234 1838 2234 
L 1294 2234 
L 1294 2753 
L 1863 2753 
Q 2328 2753 2575 2939 
Q 2822 3125 2822 3475 
Q 2822 3834 2567 4026 
Q 2313 4219 1838 4219 
Q 1578 4219 1281 4162 
Q 984 4106 628 3988 
L 628 4550 
Q 988 4650 1302 4700 
Q 1616 4750 1894 4750 
Q 2613 4750 3031 4423 
Q 3450 4097 3450 3541 
Q 3450 3153 3228 2886 
Q 3006 2619 2597 2516 
z
" transform="scale(0.015625)"/>
       </defs>
       <use xlink:href="#DejaVuSans-33"/>
       <use xlink:href="#DejaVuSans-30" x="63.623047"/>
      </g>
     </g>
    </g>
    <g id="ytick_4">
     <g id="line2d_12">
      <path d="M 40.603125 198.658263 
L 598.603125 198.658263 
" clip-path="url(#p87ebbe5c71)" style="fill: none; stroke: #dcdcdc; stroke-width: 0.5; stroke-linecap: square"/>
     </g>
     <g id="line2d_13">
      <g>
       <use xlink:href="#mc3dd04630d" x="40.603125" y="198.658263" style="stroke: #000000; stroke-width: 0.8"/>
      </g>
     </g>
     <g id="text_10">
      <!-- 40 -->
      <g transform="translate(20.878125 202.457481)scale(0.1 -0.1)">
       <defs>
        <path id="DejaVuSans-34" d="M 2419 4116 
L 825 1625 
L 2419 1625 
L 2419 4116 
z
M 2253 4666 
L 3047 4666 
L 3047 1625 
L 3713 1625 
L 3713 1100 
L 3047 1100 
L 3047 0 
L 2419 0 
L 2419 1100 
L 313 1100 
L 313 1709 
L 2253 4666 
z
" transform="scale(0.015625)"/>
       </defs>
       <use xlink:href="#DejaVuSans-34"/>
       <use xlink:href="#DejaVuSans-30" x="63.623047"/>
      </g>
     </g>
    </g>
    <g id="ytick_5">
     <g id="line2d_14">
      <path d="M 40.603125 157.843038 
L 598.603125 157.843038 
" clip-path="url(#p87ebbe5c71)" style="fill: none; stroke: #dcdcdc; stroke-width: 0.5; stroke-linecap: square"/>
     </g>
     <g id="line2d_15">
      <g>
       <use xlink:href="#mc3dd04630d" x="40.603125" y="157.843038" style="stroke: #000000; stroke-width: 0.8"/>
      </g>
     </g>
     <g id="text_11">
      <!-- 50 -->
      <g transform="translate(20.878125 161.642257)scale(0.1 -0.1)">
       <use xlink:href="#DejaVuSans-35"/>
       <use xlink:href="#DejaVuSans-30" x="63.623047"/>
      </g>
     </g>
    </g>
    <g id="ytick_6">
     <g id="line2d_16">
      <path d="M 40.603125 117.027813 
L 598.603125 117.027813 
" clip-path="url(#p87ebbe5c71)" style="fill: none; stroke: #dcdcdc; stroke-width: 0.5; stroke-linecap: square"/>
     </g>
     <g id="line2d_17">
      <g>
       <use xlink:href="#mc3dd04630d" x="40.603125" y="117.027813" style="stroke: #000000; stroke-width: 0.8"/>
      </g>
     </g>
     <g id="text_12">
      <!-- 60 -->
      <g transform="translate(20.878125 120.827032)scale(0.1 -0.1)">
       <defs>
        <path id="DejaVuSans-36" d="M 2113 2584 
Q 1688 2584 1439 2293 
Q 1191 2003 1191 1497 
Q 1191 994 1439 701 
Q 1688 409 2113 409 
Q 2538 409 2786 701 
Q 3034 994 3034 1497 
Q 3034 2003 2786 2293 
Q 2538 2584 2113 2584 
z
M 3366 4563 
L 3366 3988 
Q 3128 4100 2886 4159 
Q 2644 4219 2406 4219 
Q 1781 4219 1451 3797 
Q 1122 3375 1075 2522 
Q 1259 2794 1537 2939 
Q 1816 3084 2150 3084 
Q 2853 3084 3261 2657 
Q 3669 2231 3669 1497 
Q 3669 778 3244 343 
Q 2819 -91 2113 -91 
Q 1303 -91 875 529 
Q 447 1150 447 2328 
Q 447 3434 972 4092 
Q 1497 4750 2381 4750 
Q 2619 4750 2861 4703 
Q 3103 4656 3366 4563 
z
" transform="scale(0.015625)"/>
       </defs>
       <use xlink:href="#DejaVuSans-36"/>
       <use xlink:href="#DejaVuSans-30" x="63.623047"/>
      </g>
     </g>
    </g>
    <g id="ytick_7">
     <g id="line2d_18">
      <path d="M 40.603125 76.212588 
L 598.603125 76.212588 
" clip-path="url(#p87ebbe5c71)" style="fill: none; stroke: #dcdcdc; stroke-width: 0.5; stroke-linecap: square"/>
     </g>
     <g id="line2d_19">
      <g>
       <use xlink:href="#mc3dd04630d" x="40.603125" y="76.212588" style="stroke: #000000; stroke-width: 0.8"/>
      </g>
     </g>
     <g id="text_13">
      <!-- 70 -->
      <g transform="translate(20.878125 80.011807)scale(0.1 -0.1)">
       <defs>
        <path id="DejaVuSans-37" d="M 525 4666 
L 3525 4666 
L 3525 4397 
L 1831 0 
L 1172 0 
L 2766 4134 
L 525 4134 
L 525 4666 
z
" transform="scale(0.015625)"/>
       </defs>
       <use xlink:href="#DejaVuSans-37"/>
       <use xlink:href="#DejaVuSans-30" x="63.623047"/>
      </g>
     </g>
    </g>
    <g id="ytick_8">
     <g id="line2d_20">
      <path d="M 40.603125 35.397364 
L 598.603125 35.397364 
" clip-path="url(#p87ebbe5c71)" style="fill: none; stroke: #dcdcdc; stroke-width: 0.5; stroke-linecap: square"/>
     </g>
     <g id="line2d_21">
      <g>
       <use xlink:href="#mc3dd04630d" x="40.603125" y="35.397364" style="stroke: #000000; stroke-width: 0.8"/>
      </g>
     </g>
     <g id="text_14">
      <!-- 80 -->
      <g transform="translate(20.878125 39.196583)scale(0.1 -0.1)">
       <defs>
        <path id="DejaVuSans-38" d="M 2034 2216 
Q 1584 2216 1326 1975 
Q 1069 1734 1069 1313 
Q 1069 891 1326 650 
Q 1584 409 2034 409 
Q 2484 409 2743 651 
Q 3003 894 3003 1313 
Q 3003 1734 2745 1975 
Q 2488 2216 2034 2216 
z
M 1403 2484 
Q 997 2584 770 2862 
Q 544 3141 544 3541 
Q 544 4100 942 4425 
Q 1341 4750 2034 4750 
Q 2731 4750 3128 4425 
Q 3525 4100 3525 3541 
Q 3525 3141 3298 2862 
Q 3072 2584 2669 2484 
Q 3125 2378 3379 2068 
Q 3634 1759 3634 1313 
Q 3634 634 3220 271 
Q 2806 -91 2034 -91 
Q 1263 -91 848 271 
Q 434 634 434 1313 
Q 434 1759 690 2068 
Q 947 2378 1403 2484 
z
M 1172 3481 
Q 1172 3119 1398 2916 
Q 1625 2713 2034 2713 
Q 2441 2713 2670 2916 
Q 2900 3119 2900 3481 
Q 2900 3844 2670 4047 
Q 2441 4250 2034 4250 
Q 1625 4250 1398 4047 
Q 1172 3844 1172 3481 
z
" transform="scale(0.015625)"/>
       </defs>
       <use xlink:href="#DejaVuSans-38"/>
       <use xlink:href="#DejaVuSans-30" x="63.623047"/>
      </g>
     </g>
    </g>
    <g id="text_15">
     <!-- Price (USD) -->
     <g transform="translate(14.798437 217.01)rotate(-90)scale(0.1 -0.1)">
      <defs>
       <path id="DejaVuSans-50" d="M 1259 4147 
L 1259 2394 
L 2053 2394 
Q 2494 2394 2734 2622 
Q 2975 2850 2975 3272 
Q 2975 3691 2734 3919 
Q 2494 4147 2053 4147 
L 1259 4147 
z
M 628 4666 
L 2053 4666 
Q 2838 4666 3239 4311 
Q 3641 3956 3641 3272 
Q 3641 2581 3239 2228 
Q 2838 1875 2053 1875 
L 1259 1875 
L 1259 0 
L 628 0 
L 628 4666 
z
" transform="scale(0.015625)"/>
       <path id="DejaVuSans-72" d="M 2631 2963 
Q 2534 3019 2420 3045 
Q 2306 3072 2169 3072 
Q 1681 3072 1420 2755 
Q 1159 2438 1159 1844 
L 1159 0 
L 581 0 
L 581 3500 
L 1159 3500 
L 1159 2956 
Q 1341 3275 1631 3429 
Q 1922 3584 2338 3584 
Q 2397 3584 2469 3576 
Q 2541 3569 2628 3553 
L 2631 2963 
z
" transform="scale(0.015625)"/>
       <path id="DejaVuSans-69" d="M 603 3500 
L 1178 3500 
L 1178 0 
L 603 0 
L 603 3500 
z
M 603 4863 
L 1178 4863 
L 1178 4134 
L 603 4134 
L 603 4863 
z
" transform="scale(0.015625)"/>
       <path id="DejaVuSans-63" d="M 3122 3366 
L 3122 2828 
Q 2878 2963 2633 3030 
Q 2388 3097 2138 3097 
Q 1578 3097 1268 2742 
Q 959 2388 959 1747 
Q 959 1106 1268 751 
Q 1578 397 2138 397 
Q 2388 397 2633 464 
Q 2878 531 3122 666 
L 3122 134 
Q 2881 22 2623 -34 
Q 2366 -91 2075 -91 
Q 1284 -91 818 406 
Q 353 903 353 1747 
Q 353 2603 823 3093 
Q 1294 3584 2113 3584 
Q 2378 3584 2631 3529 
Q 2884 3475 3122 3366 
z
" transform="scale(0.015625)"/>
       <path id="DejaVuSans-20" transform="scale(0.015625)"/>
       <path id="DejaVuSans-28" d="M 1984 4856 
Q 1566 4138 1362 3434 
Q 1159 2731 1159 2009 
Q 1159 1288 1364 580 
Q 1569 -128 1984 -844 
L 1484 -844 
Q 1016 -109 783 600 
Q 550 1309 550 2009 
Q 550 2706 781 3412 
Q 1013 4119 1484 4856 
L 1984 4856 
z
" transform="scale(0.015625)"/>
       <path id="DejaVuSans-55" d="M 556 4666 
L 1191 4666 
L 1191 1831 
Q 1191 1081 1462 751 
Q 1734 422 2344 422 
Q 2950 422 3222 751 
Q 3494 1081 3494 1831 
L 3494 4666 
L 4128 4666 
L 4128 1753 
Q 4128 841 3676 375 
Q 3225 -91 2344 -91 
Q 1459 -91 1007 375 
Q 556 841 556 1753 
L 556 4666 
z
" transform="scale(0.015625)"/>
       <path id="DejaVuSans-53" d="M 3425 4513 
L 3425 3897 
Q 3066 4069 2747 4153 
Q 2428 4238 2131 4238 
Q 1616 4238 1336 4038 
Q 1056 3838 1056 3469 
Q 1056 3159 1242 3001 
Q 1428 2844 1947 2747 
L 2328 2669 
Q 3034 2534 3370 2195 
Q 3706 1856 3706 1288 
Q 3706 609 3251 259 
Q 2797 -91 1919 -91 
Q 1588 -91 1214 -16 
Q 841 59 441 206 
L 441 856 
Q 825 641 1194 531 
Q 1563 422 1919 422 
Q 2459 422 2753 634 
Q 3047 847 3047 1241 
Q 3047 1584 2836 1778 
Q 2625 1972 2144 2069 
L 1759 2144 
Q 1053 2284 737 2584 
Q 422 2884 422 3419 
Q 422 4038 858 4394 
Q 1294 4750 2059 4750 
Q 2388 4750 2728 4690 
Q 3069 4631 3425 4513 
z
" transform="scale(0.015625)"/>
       <path id="DejaVuSans-29" d="M 513 4856 
L 1013 4856 
Q 1481 4119 1714 3412 
Q 1947 2706 1947 2009 
Q 1947 1309 1714 600 
Q 1481 -109 1013 -844 
L 513 -844 
Q 928 -128 1133 580 
Q 1338 1288 1338 2009 
Q 1338 2731 1133 3434 
Q 928 4138 513 4856 
z
" transform="scale(0.015625)"/>
      </defs>
      <use xlink:href="#DejaVuSans-50"/>
      <use xlink:href="#DejaVuSans-72" x="58.552734"/>
      <use xlink:href="#DejaVuSans-69" x="99.666016"/>
      <use xlink:href="#DejaVuSans-63" x="127.449219"/>
      <use xlink:href="#DejaVuSans-65" x="182.429688"/>
      <use xlink:href="#DejaVuSans-20" x="243.953125"/>
      <use xlink:href="#DejaVuSans-28" x="275.740234"/>
      <use xlink:href="#DejaVuSans-55" x="314.753906"/>
      <use xlink:href="#DejaVuSans-53" x="387.947266"/>
      <use xlink:href="#DejaVuSans-44" x="451.423828"/>
      <use xlink:href="#DejaVuSans-29" x="528.425781"/>
     </g>
    </g>
   </g>
   <g id="line2d_22">
    <path d="M 67.084595 145.557655 
L 67.308161 146.863742 
M 71.332361 152.047276 
L 71.555928 148.618797 
M 74.909427 164.65918 
L 75.132994 173.679345 
M 78.933627 180.291412 
L 79.157194 179.842444 
L 79.38076 190.291142 
L 79.604327 189.311576 
L 79.827894 193.311468 
L 80.05146 205.760112 
L 80.498594 197.188915 
L 80.72216 198.739893 
L 80.945727 197.270545 
M 92.571193 216.984299 
L 92.794759 216.004733 
L 93.018326 218.535277 
L 93.241893 219.065875 
L 93.465459 226.861583 
L 93.689026 228.045224 
L 94.136159 245.636586 
L 94.359726 246.901858 
L 94.583292 240.330607 
L 94.806859 238.208215 
L 95.030426 238.126585 
L 95.253992 246.534521 
L 95.477559 243.881532 
L 95.701126 247.350826 
L 95.924692 245.799847 
L 96.148259 246.697782 
L 96.371826 243.310119 
M 112.915758 258.452567 
L 113.139324 258.819904 
L 113.362891 258.738273 
L 113.586458 254.820012 
M 114.033591 254.248599 
L 114.257158 260.90148 
L 114.480724 257.513817 
L 114.704291 256.860773 
M 116.939957 271.554254 
L 117.163524 272.656265 
L 117.610657 276.20719 
L 117.834224 275.513331 
L 118.057791 276.329635 
L 118.281357 272.003222 
L 118.504924 272.61545 
M 128.11829 280.370343 
L 128.341857 283.145778 
M 128.78899 284.900833 
L 129.012556 285.390615 
L 129.236123 288.859909 
M 129.683256 287.635453 
L 129.906823 292.69654 
L 130.353956 294.737302 
M 130.80109 291.67616 
L 131.024656 293.145508 
M 135.048856 299.431053 
L 135.272423 299.267792 
L 135.495989 299.349422 
L 135.719556 298.00252 
L 135.943123 301.390183 
L 136.390256 298.124965 
M 141.755855 313.838827 
L 141.979422 316.124479 
M 142.873689 322.042687 
L 143.097255 320.899861 
L 143.767955 323.430405 
L 144.438655 328.85883 
L 144.662222 326.450731 
L 144.885789 325.960949 
M 145.332922 323.797742 
L 145.556489 326.695623 
M 174.17302 324.981383 
L 174.620153 324.287524 
L 174.84372 328.899645 
M 175.737986 322.450839 
L 175.961553 323.512035 
M 176.855819 330.124102 
L 177.079386 334.205624 
M 177.526519 336.001494 
L 177.750086 336.246385 
M 178.644353 336.695353 
L 178.867919 337.103505 
L 179.091486 335.185189 
L 179.315053 339.838125 
M 193.399751 264.574851 
L 193.623318 266.085014 
M 194.070451 266.329905 
L 194.294018 266.329905 
L 194.517585 267.431916 
L 194.741151 267.472732 
L 194.964718 271.839961 
L 195.188285 270.533873 
L 195.411851 274.533765 
L 195.635418 272.819526 
L 195.858985 272.574635 
M 210.390817 272.452189 
L 210.614383 274.819472 
L 210.83795 273.880722 
L 211.061517 273.431754 
M 222.686983 255.391425 
L 222.910549 255.309795 
L 223.134116 257.064849 
L 223.357682 257.309741 
L 223.581249 257.921969 
M 224.028382 257.799523 
L 224.251949 259.228056 
M 236.995248 248.452837 
L 237.218815 252.901696 
M 241.019448 255.962838 
L 241.466581 260.207622 
L 241.690148 258.656643 
M 246.832181 261.636154 
L 247.055747 265.921753 
L 247.279314 267.187025 
L 247.502881 269.921645 
L 247.726447 270.248167 
L 247.950014 268.452297 
L 248.173581 269.227786 
L 248.397147 276.28882 
L 248.84428 270.044091 
M 284.391378 207.351906 
L 284.614944 210.086526 
L 284.838511 205.882557 
L 285.062078 214.168048 
L 285.285644 213.63745 
L 285.509211 216.004733 
L 285.732778 215.882288 
L 286.179911 221.188267 
L 286.403478 217.31082 
L 286.627044 217.433266 
L 286.850611 216.249625 
M 287.297744 224.412669 
L 287.521311 224.698376 
M 288.639144 233.473649 
L 288.862711 233.55528 
M 289.533411 233.881802 
L 289.756977 238.044955 
M 304.959509 199.311306 
L 305.406643 206.576416 
L 305.630209 208.127395 
L 305.853776 206.821308 
L 306.077343 206.331525 
L 306.300909 205.147883 
L 306.524476 204.821362 
L 306.748043 206.617231 
L 306.971609 210.290602 
L 307.195176 211.392613 
L 307.418743 205.270329 
M 313.902175 219.718919 
L 314.125742 220.494408 
L 314.349309 219.351582 
L 314.572875 219.269951 
L 314.796442 218.16794 
L 315.020009 216.086364 
L 315.243575 215.596581 
L 315.467142 215.51495 
L 315.690709 216.576146 
M 320.385608 225.147344 
L 320.609175 230.616584 
L 321.056308 233.473649 
L 321.279875 229.718649 
L 321.503442 228.535007 
L 321.727008 230.779845 
L 321.950575 230.861475 
L 322.397708 235.555226 
L 322.621275 235.43278 
L 322.844841 235.677671 
L 323.068408 234.738921 
L 323.291975 234.902182 
L 323.515541 235.473595 
M 324.409808 238.738813 
L 324.633375 236.779683 
M 330.446107 237.31028 
L 330.669674 240.575498 
L 330.893241 241.350988 
L 331.116807 238.738813 
M 364.651805 189.842174 
L 364.875371 187.842228 
M 368.899571 208.08658 
L 369.123138 207.270275 
M 381.866437 200.413317 
L 382.31357 197.841958 
L 382.98427 206.821308 
L 383.207837 214.49457 
L 383.431403 215.35169 
L 383.65497 205.678481 
L 383.878537 214.453755 
L 384.102103 214.453755 
M 395.056869 220.576038 
L 395.280436 224.004517 
L 395.504002 229.188051 
L 395.727569 228.412561 
L 395.951136 229.10642 
L 396.174702 233.187943 
L 396.398269 239.310226 
L 396.621836 233.759356 
L 396.845402 234.57566 
M 401.093169 244.49376 
L 401.316735 249.269141 
L 401.540302 249.432402 
L 401.763869 254.207784 
L 401.987435 255.595501 
L 402.434569 249.922185 
L 402.658135 254.983273 
L 402.881702 255.43224 
L 403.105269 256.452621 
L 403.328835 253.881262 
L 403.552402 256.779143 
M 406.905902 274.084798 
L 407.129468 283.4723 
L 407.576602 279.105071 
L 407.800168 282.084582 
M 430.156833 207.841688 
L 430.603966 213.229298 
L 430.827533 211.923211 
L 431.0511 204.902992 
L 431.274666 204.372394 
L 431.498233 206.209079 
M 457.431964 96.865092 
L 457.655531 104.619985 
M 458.549798 110.579008 
L 458.773364 115.762541 
L 458.996931 114.129932 
L 459.220497 120.497107 
L 459.444064 116.782922 
L 459.667631 118.497161 
L 459.891197 125.843902 
L 460.114764 125.313304 
L 460.338331 122.497053 
L 460.561897 124.129662 
M 468.163163 122.252162 
L 468.38673 123.435803 
M 475.317296 142.169992 
L 475.540863 139.598632 
M 481.130029 133.272273 
L 481.353596 122.986836 
M 504.157394 56.049867 
L 504.380961 58.049813 
L 504.828094 56.662096 
L 505.051661 56.335574 
L 505.275227 57.029433 
L 505.498794 61.151771 
L 505.722361 60.294651 
L 505.945927 60.335466 
L 506.616627 65.396554 
L 506.840194 65.151663 
L 507.06376 61.763999 
L 507.73446 73.477968 
L 507.958027 73.192262 
L 508.181594 69.069924 
M 514.44146 82.294057 
L 514.665027 84.824601 
M 515.11216 88.742862 
L 515.78286 100.701723 
L 516.229993 101.06906 
L 516.45356 100.334386 
L 516.677126 103.599604 
L 516.900693 102.905745 
L 517.12426 102.7833 
L 517.347826 105.59955 
L 517.571393 105.844442 
L 517.79496 106.45667 
L 518.242093 102.538408 
M 522.936993 112.86466 
L 523.160559 115.191128 
L 523.384126 120.782814 
L 523.607692 119.803248 
L 523.831259 125.803087 
L 524.054826 120.211401 
L 524.278392 118.374716 
L 524.501959 121.06852 
M 541.493024 123.966401 
L 541.716591 124.374554 
L 541.940158 123.72151 
L 542.163724 121.435857 
L 542.387291 125.313304 
L 542.834424 122.741945 
L 543.057991 126.170424 
L 543.281558 122.292977 
M 556.919123 145.394394 
L 557.366257 150.169776 
L 557.81339 145.639286 
L 558.036956 145.312764 
L 558.260523 149.557547 
M 566.532489 136.45586 
L 566.756056 137.190534 
L 566.979622 138.374176 
L 567.203189 143.108742 
L 567.426756 143.680155 
L 567.650322 143.843416 
L 567.873889 145.884177 
L 568.097456 150.90445 
L 568.321022 151.965646 
L 568.544589 145.190318 
L 568.768156 146.414775 
L 568.991722 141.394502 
L 569.215289 145.190318 
L 569.215289 145.190318 
" clip-path="url(#p87ebbe5c71)" style="fill: none; stroke: #00ff7f; stroke-linecap: square"/>
   </g>
   <g id="line2d_23">
    <path d="M 153.157755 318.410132 
L 153.381321 317.389751 
M 154.499154 317.104045 
L 154.722721 317.920349 
M 155.169854 318.287686 
L 155.616988 315.634697 
M 164.559654 310.083826 
L 164.78322 309.104261 
L 165.006787 309.063446 
L 165.230354 310.369533 
L 165.45392 307.634913 
M 166.571754 302.53301 
L 166.79532 297.594367 
M 181.327152 296.818878 
L 181.550719 295.553606 
L 181.774286 297.471922 
L 181.997852 295.34953 
L 182.221419 295.635237 
L 182.444986 297.961704 
L 183.115686 283.635561 
L 183.562819 271.513439 
L 183.786386 269.186971 
L 184.009952 271.472624 
L 184.457085 266.819688 
L 184.680652 266.982949 
L 184.904219 269.268601 
L 185.127785 269.921645 
L 185.351352 268.16659 
L 185.574919 267.513547 
L 185.798485 266.37072 
L 186.022052 272.69708 
M 189.151985 254.860827 
L 189.375552 258.411752 
L 189.599118 259.472948 
L 189.822685 256.411806 
L 190.046252 257.636262 
L 190.269818 253.799631 
L 190.493385 254.126153 
M 205.248784 267.472732 
L 205.472351 263.717731 
L 206.14305 261.064741 
L 206.366617 261.023926 
L 206.590184 256.493436 
L 206.81375 255.35061 
L 207.037317 255.962838 
L 207.260884 253.758816 
L 207.48445 253.024142 
L 207.708017 247.14675 
M 214.86215 251.718055 
L 215.085716 252.207838 
M 215.53285 257.677078 
L 215.756416 257.554632 
L 215.979983 253.718001 
M 220.004183 246.412076 
L 220.227749 244.657021 
M 225.593349 242.289738 
L 225.816916 234.902182 
L 226.040482 239.351042 
L 226.487616 234.167508 
L 226.711182 235.677671 
L 226.934749 236.37153 
L 227.158316 239.800009 
L 227.381882 234.126693 
L 227.605449 234.371584 
L 227.829015 233.228758 
L 228.052582 235.187889 
L 228.276149 233.392019 
M 230.064682 221.147451 
L 230.288249 220.698484 
L 230.511815 218.412831 
M 250.85638 250.90175 
L 251.52708 244.49376 
L 251.750647 251.595609 
L 251.974214 252.085392 
M 254.88058 227.188105 
L 255.104147 228.371746 
L 255.327713 223.718811 
L 255.55128 227.514627 
L 255.774847 226.820768 
L 255.998413 230.167616 
M 259.799046 209.678373 
L 260.022613 200.658209 
L 260.24618 203.63772 
L 260.469746 198.495002 
L 260.693313 198.08685 
L 260.91688 196.005273 
L 261.140446 199.229676 
L 261.364013 197.841958 
L 261.58758 198.903154 
M 262.258279 192.903316 
L 262.481846 192.331903 
L 262.705413 196.413425 
M 270.977379 178.209835 
L 271.200945 178.005759 
L 271.424512 180.087335 
L 271.648079 177.638422 
M 297.805377 211.882395 
L 298.028943 205.270329 
L 298.25251 204.168318 
L 298.476077 198.535817 
L 298.699643 189.597283 
L 298.92321 193.066577 
L 299.146777 192.454349 
L 299.370343 185.066793 
L 299.59391 182.903586 
L 299.817477 182.69951 
L 300.041043 180.209781 
L 300.26461 180.209781 
L 300.488176 179.02614 
L 300.711743 187.025924 
L 301.158876 184.617825 
L 301.382443 185.352499 
L 301.60601 182.168912 
M 311.442942 197.597067 
L 311.666509 193.515544 
L 311.890076 195.148153 
M 317.255675 212.821146 
L 317.702808 212.086472 
M 327.316174 225.963648 
L 327.539741 226.3718 
L 327.763308 225.310604 
M 337.60024 210.372232 
L 337.823807 207.555982 
L 338.27094 205.229514 
L 338.494507 211.310982 
L 339.165207 206.168264 
L 339.388773 207.392721 
L 339.61234 207.025384 
L 339.835907 204.617285 
L 340.059473 207.270275 
M 343.860106 196.005273 
L 344.30724 188.372826 
L 344.530806 186.168804 
M 349.896406 184.128043 
L 350.119973 182.577064 
L 350.343539 184.985162 
L 350.567106 184.49538 
L 350.790673 179.760814 
M 372.029504 180.04652 
L 372.253071 181.76076 
L 372.476638 180.740379 
M 378.736504 180.536303 
L 378.96007 178.209835 
M 379.63077 180.250596 
L 379.854337 177.3119 
M 410.930101 253.513925 
L 411.153668 253.391479 
L 411.377235 261.146372 
L 411.824368 248.044685 
L 412.047934 252.575175 
M 416.519267 230.330877 
L 416.742834 232.575714 
L 416.966401 228.453377 
L 417.189967 226.412615 
M 420.096334 196.495056 
L 420.319901 194.168588 
L 420.767034 172.169182 
L 420.9906 174.128313 
L 421.214167 178.781248 
L 421.6613 171.92429 
L 421.884867 178.536357 
L 422.108434 177.23027 
L 422.555567 169.801899 
L 422.779134 174.536465 
L 423.0027 172.128367 
M 438.875932 164.781626 
L 439.099499 170.291681 
L 439.323066 162.985756 
L 439.546632 164.536735 
L 439.993766 155.353309 
M 442.229432 140.006785 
L 442.452999 138.088469 
L 442.676565 132.78249 
L 442.900132 135.802817 
L 443.123699 133.966131 
L 443.347265 133.598794 
L 443.570832 135.190588 
L 443.794399 127.966293 
L 444.017965 130.578468 
L 444.241532 125.721456 
L 444.465099 126.292869 
L 444.688665 119.10939 
L 444.912232 121.84401 
L 445.135799 115.150313 
L 445.359365 115.476835 
L 445.582932 112.578954 
L 445.806499 111.191236 
L 446.030065 111.517758 
L 446.253632 113.068736 
L 446.477198 111.150421 
L 446.700765 110.334116 
L 446.924332 106.987268 
L 447.147898 110.374932 
L 447.371465 109.395366 
L 447.818598 101.477213 
M 450.277832 91.355037 
L 450.501398 86.53884 
L 450.724965 86.375579 
M 464.138964 94.783516 
L 464.809664 101.436397 
L 465.03323 99.028299 
L 465.256797 100.905799 
L 465.480364 89.885689 
L 465.70393 90.620363 
M 477.776529 97.518136 
L 478.223663 87.640851 
L 478.447229 89.436721 
L 478.670796 97.31406 
M 486.719195 83.640959 
L 486.942762 77.926828 
L 487.166329 79.151285 
L 487.389895 81.518568 
L 487.613462 75.886067 
L 487.837029 76.579926 
L 488.060595 76.294219 
L 488.507729 69.845413 
L 488.731295 69.804598 
L 488.954862 68.661772 
L 489.178428 75.110577 
M 490.966962 59.151825 
L 491.190528 59.559977 
L 491.414095 54.090737 
M 492.308362 57.029433 
L 492.531928 59.27427 
L 492.755495 56.213128 
M 496.779695 44.295083 
L 497.226828 39.356441 
L 497.450395 41.519647 
M 534.338892 106.5383 
L 534.562458 106.415855 
L 534.786025 105.803626 
M 539.257358 100.293571 
L 539.480925 94.497809 
L 539.704491 95.314114 
M 560.49619 132.455968 
L 560.719756 129.884609 
M 563.178989 120.497107 
L 563.402556 116.333954 
L 563.402556 116.333954 
" clip-path="url(#p87ebbe5c71)" style="fill: none; stroke: #ff4500; stroke-linecap: square"/>
   </g>
   <g id="line2d_24">
    <path d="M 65.966761 114.456454 
L 66.190328 111.150421 
L 66.413895 124.088847 
L 66.637461 127.149989 
L 66.861028 147.802493 
M 67.531728 122.578684 
L 67.755295 114.701345 
L 67.978861 121.354227 
L 68.425995 117.476781 
L 68.649561 118.782868 
L 68.873128 121.721564 
L 69.096694 122.537869 
L 69.320261 120.088955 
L 69.543828 118.864498 
L 69.990961 146.618851 
L 70.214528 143.353633 
L 70.438094 146.945373 
L 70.661661 138.333361 
L 70.885228 136.415045 
L 71.108794 142.129176 
M 71.779494 141.067981 
L 72.003061 148.782058 
L 72.226628 149.19021 
L 72.450194 152.986026 
L 72.673761 147.271895 
L 73.120894 145.557655 
L 73.344461 144.618905 
L 73.568027 147.39434 
L 73.791594 155.51657 
L 74.015161 151.516678 
L 74.238727 150.741189 
L 74.462294 150.537113 
L 74.685861 152.70032 
M 75.356561 163.434724 
L 75.580127 162.210267 
L 75.803694 156.37369 
L 76.027261 156.251244 
L 76.250827 159.312386 
L 76.474394 158.25119 
L 76.697961 158.659342 
L 76.921527 163.965322 
L 77.145094 162.373528 
L 77.36866 164.49592 
L 77.592227 171.679399 
L 77.815794 167.393801 
L 78.262927 182.128097 
M 81.169294 194.331849 
L 81.39286 184.699456 
L 81.616427 189.189131 
L 81.839993 178.617987 
L 82.06356 177.760868 
L 82.287127 189.02587 
L 82.510693 191.433968 
L 82.73426 192.168642 
L 82.957827 195.229784 
L 83.181393 190.250326 
L 83.40496 182.658695 
L 83.628527 187.638152 
L 83.852093 177.883313 
L 84.522793 196.209349 
L 84.74636 185.107608 
L 84.969927 189.311576 
L 85.193493 184.658641 
L 85.41706 185.679021 
L 85.640627 188.127935 
L 85.864193 187.556522 
L 86.08776 189.148315 
L 86.311326 182.372988 
L 86.534893 181.84239 
L 86.75846 184.046412 
L 86.982026 189.02587 
L 87.205593 190.617663 
L 87.652726 190.536033 
L 87.876293 198.331741 
L 88.09986 196.617501 
M 88.546993 192.495164 
L 88.77056 195.964458 
L 88.994126 196.862393 
L 89.217693 199.882719 
L 89.44126 194.944077 
L 89.664826 197.433806 
L 89.888393 196.535871 
L 90.335526 199.556198 
L 90.559093 202.7806 
L 91.229793 199.229676 
L 91.453359 205.188699 
L 91.676926 204.045872 
L 91.900493 198.331741 
L 92.347626 211.678319 
M 96.595392 242.861151 
L 96.818959 242.248923 
L 97.042526 246.656967 
L 97.266092 241.310173 
L 97.489659 240.371422 
L 97.713226 238.004139 
L 97.936792 243.187673 
L 98.160359 242.575444 
L 98.383926 245.473325 
L 99.054625 258.493382 
L 99.501759 252.085392 
L 99.725325 251.024196 
L 100.172459 245.718217 
L 100.619592 249.065065 
L 100.843159 253.187403 
L 101.066725 251.67724 
L 101.290292 253.228218 
L 101.513859 258.697458 
L 101.737425 254.942458 
L 101.960992 257.881154 
L 102.184559 256.452621 
L 102.408125 253.228218 
L 102.631692 253.922077 
L 102.855258 256.044469 
L 103.078825 253.146588 
L 103.302392 257.350556 
L 103.749525 254.41186 
L 103.973092 258.534197 
L 104.196658 260.166806 
L 104.867358 250.493598 
L 105.090925 243.677456 
L 105.314492 244.779467 
L 105.538058 244.983543 
L 105.761625 248.616098 
L 105.985192 249.554848 
L 106.208758 248.289576 
L 106.432325 242.61626 
M 106.879458 242.779521 
L 107.103025 247.554902 
L 107.326591 245.963108 
L 107.550158 240.453053 
L 107.773725 240.534683 
L 108.220858 245.43251 
L 108.444425 245.187619 
L 108.667991 252.738435 
L 108.891558 249.309957 
L 109.115125 243.310119 
L 109.338691 241.106096 
L 109.562258 243.63664 
L 109.785825 242.371368 
L 110.009391 241.963216 
L 110.232958 239.759194 
L 110.456525 236.004193 
L 110.680091 235.718487 
L 110.903658 232.69816 
L 111.574358 238.657183 
L 111.797924 253.513925 
L 112.021491 253.146588 
L 112.245058 254.126153 
M 114.927858 255.758762 
L 115.151424 254.901642 
L 115.374991 258.779089 
L 115.598558 258.94235 
L 115.822124 266.20746 
L 116.045691 265.513601 
L 116.269257 266.493166 
L 116.492824 263.676916 
L 116.716391 263.840177 
M 118.728491 270.615504 
L 118.952057 270.125721 
L 119.175624 273.390939 
L 120.06989 270.003275 
L 120.293457 268.94208 
L 120.517024 270.248167 
M 120.964157 272.737896 
L 121.187724 272.125667 
L 121.41129 272.737896 
L 121.634857 269.105341 
L 121.858424 270.697134 
L 122.08199 270.73795 
L 122.305557 273.186863 
L 122.75269 269.268601 
L 122.976257 270.656319 
L 123.199824 265.268709 
L 123.42339 265.962568 
L 123.646957 261.472894 
L 123.870524 262.942242 
M 124.317657 264.370774 
L 124.541223 264.656481 
L 124.76479 261.636154 
M 125.211923 265.513601 
L 125.43549 269.309417 
L 125.659057 270.166536 
L 125.882623 270.493058 
L 126.10619 274.003168 
L 126.329757 274.778657 
L 126.553323 271.023656 
L 126.77689 273.799091 
L 127.000457 275.186809 
M 127.44759 278.08469 
L 127.671157 273.227678 
L 127.894723 276.737788 
M 131.248223 291.023116 
L 131.695356 286.859963 
L 131.918923 280.411158 
L 132.14249 280.288712 
L 132.366056 282.043767 
L 132.589623 279.145886 
L 132.81319 283.839637 
L 133.036756 281.472354 
L 133.260323 287.104855 
L 133.483889 288.00279 
L 133.707456 286.125289 
L 133.931023 287.14567 
L 134.601723 297.390291 
L 134.825289 296.043389 
M 137.060956 297.471922 
L 137.284522 299.186161 
L 137.731656 294.288334 
L 137.955222 297.798444 
L 138.178789 296.737248 
L 138.402356 296.818878 
L 138.625922 293.676106 
L 138.849489 299.431053 
L 139.073056 301.512629 
L 139.296622 304.777847 
L 139.520189 304.818662 
L 139.743756 301.594259 
L 140.190889 299.471868 
L 140.414456 302.818716 
L 140.638022 308.206326 
L 140.861589 306.573717 
L 141.085156 309.838935 
L 141.308722 308.410402 
L 141.532289 310.777685 
M 142.202989 314.32861 
L 142.426555 313.920457 
L 142.650122 315.675512 
M 145.780055 325.307905 
L 146.003622 325.756872 
L 146.227188 325.389535 
L 146.450755 323.47122 
L 146.674322 323.879372 
L 146.897888 323.144698 
L 147.345022 320.81823 
M 147.792155 321.634535 
L 148.015722 322.205948 
L 148.239288 320.491708 
L 148.686422 324.777307 
L 148.909988 323.307959 
L 149.133555 322.858992 
L 149.357122 321.920241 
L 149.580688 325.920133 
L 149.804255 325.34872 
L 150.027822 326.491547 
L 150.251388 324.369155 
L 150.474955 324.083448 
L 150.698521 322.001872 
L 150.922088 321.308013 
L 151.145655 322.083502 
L 151.369221 324.246709 
L 152.039921 325.716057 
L 152.263488 322.818176 
L 152.487055 322.654915 
L 152.710621 318.859099 
L 152.934188 319.185621 
M 153.604888 317.553012 
L 153.828455 316.614262 
L 154.052021 318.00198 
L 154.275588 318.246871 
M 156.287688 313.593936 
L 156.511254 310.859315 
L 156.734821 311.471544 
L 156.958388 310.328718 
L 157.405521 313.879642 
L 157.629088 312.777631 
L 158.076221 318.655023 
L 158.523354 319.716219 
L 158.746921 317.675458 
L 158.970487 319.716219 
L 159.194054 319.348882 
L 159.641187 317.512197 
L 160.088321 315.593882 
L 160.311887 320.001926 
L 160.535454 319.920295 
L 160.759021 318.369317 
L 160.982587 318.08361 
L 161.206154 319.348882 
L 161.429721 321.267198 
L 161.653287 320.328448 
L 161.876854 321.920241 
L 162.100421 319.634589 
L 162.323987 319.675404 
L 162.547554 316.369371 
L 162.771121 316.042849 
L 162.994687 316.614262 
L 163.218254 315.634697 
L 163.665387 317.267306 
L 163.888954 314.165349 
L 164.11252 316.002034 
L 164.336087 311.389913 
M 165.677487 309.308337 
L 165.901054 309.675674 
L 166.12462 312.124587 
L 166.348187 306.124749 
M 167.018887 302.328933 
L 167.242453 310.002196 
L 167.46602 310.8185 
L 167.913153 314.165349 
L 168.13672 317.797904 
L 168.583853 311.185837 
L 169.030987 312.369479 
L 169.47812 311.226652 
L 169.701687 311.67562 
L 169.925253 308.369587 
L 170.14882 313.144968 
L 170.372387 314.32861 
L 170.595953 314.859207 
L 170.81952 311.308283 
L 171.043087 311.063392 
L 171.266653 310.083826 
L 171.713786 315.022468 
L 171.937353 316.28774 
L 172.16092 315.308175 
L 172.384486 316.410186 
L 172.608053 311.022576 
L 172.83162 310.369533 
L 173.055186 317.14486 
L 173.50232 318.981545 
L 173.725886 318.777469 
L 173.949453 322.165133 
M 175.067286 326.532362 
L 175.51442 322.287578 
M 176.185119 326.369101 
L 176.408686 326.001764 
L 176.632253 327.716003 
M 177.973653 331.879156 
L 178.197219 332.695461 
L 178.420786 331.67508 
M 179.538619 335.552526 
L 179.985753 326.409916 
L 180.209319 332.246493 
L 180.656452 325.144644 
L 180.880019 327.756818 
L 181.103586 307.349206 
M 186.245619 275.472516 
L 186.692752 270.125721 
L 186.916319 271.350178 
L 187.139885 269.186971 
L 187.363452 269.595123 
L 187.587019 264.166698 
L 187.810585 262.330013 
L 188.034152 262.738165 
L 188.704852 254.003707 
L 188.928418 254.820012 
M 190.716952 255.391425 
L 190.940518 256.656697 
L 191.164085 255.922023 
L 191.387652 257.717893 
L 191.611218 256.901588 
L 191.834785 254.330229 
L 192.058352 253.595555 
L 192.281918 254.860827 
L 192.505485 257.962784 
L 192.952618 261.105557 
L 193.176185 263.268763 
M 196.082551 270.044091 
L 196.306118 271.064471 
L 196.529685 269.105341 
L 196.976818 268.982895 
L 197.423951 274.207244 
L 197.871084 269.840015 
L 198.094651 272.778711 
L 198.318218 273.676646 
L 198.541784 270.615504 
L 198.765351 269.96246 
L 198.988918 268.411482 
L 199.212484 269.350232 
L 199.436051 271.799145 
L 199.659618 268.125775 
L 199.883184 269.799199 
L 200.330318 279.145886 
L 200.553884 279.268332 
L 200.777451 274.574581 
L 201.001018 276.003114 
L 201.224584 274.288874 
L 201.448151 274.329689 
L 201.671717 274.982733 
L 202.118851 279.309147 
L 202.342417 281.105017 
L 202.565984 278.737734 
L 203.013117 276.329635 
L 203.236684 276.411266 
L 203.460251 275.145994 
L 203.683817 276.901048 
L 203.907384 275.921483 
L 204.130951 276.574527 
L 204.578084 269.676754 
L 204.801651 269.391047 
L 205.025217 272.003222 
M 207.931584 259.595393 
L 208.15515 261.67697 
L 208.378717 260.003545 
L 208.602284 261.67697 
L 208.82585 261.391263 
L 209.049417 266.615612 
L 209.272984 266.003383 
L 209.720117 271.75833 
M 211.285083 267.921699 
L 211.50865 266.493166 
L 211.732217 266.574797 
L 211.955783 266.942134 
L 212.402917 273.676646 
L 212.626483 272.003222 
L 212.85005 265.513601 
L 213.073617 265.962568 
L 213.52075 262.166752 
L 213.744317 263.309579 
L 213.967883 263.064687 
L 214.19145 263.717731 
L 214.415017 259.758654 
L 214.638583 259.228056 
M 216.20355 254.942458 
L 216.427116 254.126153 
L 216.650683 254.41186 
L 216.87425 257.024034 
L 217.097816 256.085284 
L 217.54495 249.065065 
M 217.992083 244.942728 
L 218.21565 244.208053 
M 218.662783 247.881424 
L 218.886349 248.044685 
L 219.109916 249.595663 
L 219.333483 249.514033 
L 219.557049 243.963162 
L 219.780616 245.514141 
M 220.451316 247.963054 
L 220.674883 247.963054 
L 220.898449 246.656967 
L 221.122016 247.350826 
L 221.345583 252.085392 
L 221.569149 252.126207 
L 222.016283 256.738327 
L 222.239849 255.309795 
L 222.463416 257.921969 
M 224.475516 256.697512 
L 224.699082 252.330283 
L 224.922649 253.350664 
L 225.146216 251.75887 
L 225.369782 251.024196 
M 228.499715 234.330769 
L 228.723282 235.718487 
L 228.946849 231.963486 
L 229.170415 230.739029 
L 229.393982 228.371746 
L 229.617549 228.494192 
L 229.841115 225.024898 
M 230.735382 224.984083 
L 231.406082 228.983975 
L 231.629648 225.269789 
L 231.853215 234.657291 
L 232.076782 233.759356 
L 232.300348 235.147074 
L 232.523915 231.187997 
L 232.747482 230.494138 
L 232.971048 235.35115 
L 233.194615 236.575606 
L 233.641748 233.187943 
L 233.865315 233.106312 
L 234.088882 231.800225 
L 234.312448 234.045063 
L 234.536015 232.943051 
L 234.983148 238.08577 
L 235.206715 232.738975 
L 235.430282 234.371584 
L 235.653848 238.493922 
L 235.877415 237.391911 
L 236.100981 240.942835 
L 236.548115 242.208107 
L 236.771681 244.534575 
M 237.442381 247.391641 
L 237.889515 242.452999 
L 238.113081 241.75914 
L 238.336648 238.861259 
L 238.560215 241.473433 
L 238.783781 239.96327 
L 239.007348 241.146912 
L 239.230915 241.555064 
L 239.678048 240.085716 
L 239.901615 238.371476 
L 240.125181 246.37126 
L 240.348748 245.922293 
L 240.572314 250.371152 
L 240.795881 252.085392 
M 241.913714 252.61599 
L 242.137281 252.289468 
L 242.360848 251.065011 
L 242.584414 251.67724 
L 242.807981 253.146588 
L 243.031548 248.983435 
L 243.255114 252.330283 
L 243.478681 253.758816 
L 243.702248 250.697674 
L 243.925814 253.350664 
L 244.149381 254.49349 
L 244.372948 253.228218 
L 244.596514 251.146642 
L 245.043647 256.248545 
L 245.267214 254.166968 
L 245.490781 255.105718 
L 245.714347 254.330229 
L 245.937914 254.615936 
L 246.385047 257.636262 
L 246.608614 258.452567 
M 249.067847 264.574851 
L 249.291414 262.289198 
L 249.51498 257.799523 
L 249.738547 256.452621 
L 249.962114 252.248653 
L 250.18568 250.575229 
L 250.632814 254.697566 
M 252.19778 252.248653 
L 252.421347 253.309849 
L 252.644914 251.187457 
L 252.86848 252.085392 
L 253.092047 245.473325 
L 253.315613 249.922185 
L 253.53918 241.024466 
L 253.762747 241.269357 
L 253.986313 236.942943 
L 254.20988 237.269465 
L 254.433447 235.800117 
L 254.657013 233.147128 
M 256.669113 230.004355 
L 256.89268 235.473595 
L 257.116247 229.759464 
L 257.339813 227.841148 
L 257.56338 230.779845 
L 258.010513 219.596473 
L 258.23408 219.310766 
L 258.457646 218.657723 
L 258.90478 210.576308 
L 259.128346 214.535385 
L 259.351913 212.412993 
L 259.57548 214.821092 
M 261.811146 201.188807 
L 262.034713 199.96435 
M 262.928979 198.209295 
L 263.152546 199.188861 
L 263.599679 203.515274 
L 264.046813 195.066523 
L 264.270379 190.699294 
L 264.493946 192.576794 
L 264.717513 196.576686 
L 264.941079 196.739947 
L 265.164646 196.086904 
L 265.611779 189.066685 
L 265.835346 186.699402 
L 266.058912 185.883097 
L 266.282479 186.576956 
L 266.506046 188.413641 
M 266.953179 187.801413 
L 267.176746 188.372826 
L 267.400312 187.597337 
L 267.847446 194.413479 
L 268.071012 196.209349 
L 268.294579 195.882827 
L 268.518146 196.699132 
L 268.741712 188.821794 
L 268.965279 190.209511 
L 269.188846 187.066739 
L 269.412412 190.209511 
L 270.083112 183.760706 
L 270.306679 186.209619 
L 270.530245 182.577064 
L 270.753812 184.49538 
M 271.871645 177.148639 
L 272.095212 180.04652 
L 272.318779 181.475053 
L 272.542345 181.76076 
L 272.765912 181.76076 
L 272.989479 183.352553 
L 273.213045 182.005651 
L 273.436612 181.475053 
L 273.660179 179.393477 
L 273.883745 182.617879 
L 274.107312 181.84239 
L 274.330879 175.760922 
L 274.554445 177.026194 
L 275.001578 182.372988 
L 275.225145 182.332173 
L 275.448712 184.250488 
L 275.672278 182.495434 
L 275.895845 184.046412 
L 276.119412 184.49538 
L 276.566545 190.944185 
L 276.790112 185.270869 
L 277.013678 193.964512 
L 277.237245 188.005489 
L 277.684378 194.168588 
L 277.907945 197.637882 
L 278.355078 188.087119 
L 278.578645 190.780924 
L 278.802212 189.393207 
L 279.025778 189.842174 
L 279.249345 190.699294 
L 279.472911 192.495164 
L 279.696478 201.433698 
L 279.920045 198.290926 
L 280.143611 192.944131 
L 280.367178 192.250272 
L 280.590745 190.780924 
L 280.814311 195.025708 
L 281.037878 196.29098 
L 281.261445 191.76049 
L 281.485011 189.719728 
L 281.708578 191.311522 
L 281.932145 189.148315 
L 282.155711 190.658479 
L 282.379278 189.02587 
L 282.602845 192.944131 
L 282.826411 193.433914 
L 283.049978 193.270653 
L 283.273544 194.780816 
L 283.497111 195.025708 
L 283.720678 197.760328 
L 284.167811 207.270275 
M 288.192011 224.208593 
L 288.415577 224.780006 
M 289.086277 230.126801 
L 289.309844 234.085878 
M 290.427677 232.494084 
L 290.651244 229.392127 
L 290.874811 230.371692 
L 291.098377 230.126801 
L 291.321944 227.555442 
L 291.545511 233.147128 
L 291.769077 234.738921 
L 291.992644 231.473703 
L 292.21621 232.494084 
L 292.439777 228.779899 
L 292.663344 228.08604 
L 292.88691 227.963594 
L 293.110477 228.371746 
L 293.334044 229.718649 
L 293.55761 235.596041 
L 293.781177 234.045063 
L 294.004744 231.310442 
L 294.451877 237.269465 
L 294.675444 236.738867 
L 294.89901 231.881856 
L 295.346144 233.63691 
L 295.56971 237.800063 
L 295.793277 237.14702 
L 296.016843 220.494408 
L 296.24041 222.69843 
L 296.463977 220.127071 
M 296.91111 220.82093 
L 297.134677 215.882288 
L 297.358243 220.371962 
L 297.58181 219.310766 
M 301.829576 186.127989 
L 302.053143 189.760544 
L 302.27671 188.291196 
L 302.500276 185.393315 
L 302.723843 185.964728 
L 302.94741 185.474945 
L 303.394543 189.556468 
L 303.61811 192.944131 
L 303.841676 191.474783 
L 304.065243 191.148261 
L 304.28881 188.127935 
L 304.735943 194.903262 
M 307.642309 204.209133 
L 307.865876 203.392829 
L 308.089443 204.658101 
L 308.313009 210.494678 
L 308.536576 210.208971 
L 308.760143 211.75995 
L 308.983709 206.698862 
L 309.207276 206.862123 
L 309.430842 208.657993 
L 309.654409 209.229406 
L 309.877976 204.045872 
L 310.101542 206.168264 
L 310.325109 207.188645 
L 310.548676 205.882557 
L 310.995809 196.984838 
L 311.219376 195.352229 
M 312.113642 201.637774 
L 312.337209 203.433644 
L 312.560776 202.413263 
L 312.784342 211.310982 
L 313.007909 214.984353 
L 313.231475 215.474135 
L 313.678609 221.718865 
M 315.914275 214.657831 
L 316.361409 215.43332 
L 316.584975 215.882288 
M 317.926375 212.576254 
L 318.149942 210.208971 
L 318.597075 212.249733 
L 318.820642 215.882288 
L 319.267775 219.514843 
L 319.491342 224.086148 
L 319.714908 223.269843 
M 323.739108 237.840878 
L 323.962675 238.08577 
L 324.186241 237.840878 
M 324.856941 235.718487 
L 325.080508 235.106258 
L 325.304075 232.902236 
L 325.527641 232.290008 
L 325.751208 230.983921 
L 325.974775 230.739029 
L 326.198341 229.677833 
M 327.986874 227.269735 
L 328.210441 227.31055 
L 328.434008 232.371638 
L 328.657574 231.473703 
L 328.881141 231.351258 
L 329.104708 229.269681 
L 329.328274 233.922617 
L 329.551841 233.963432 
L 329.775408 232.738975 
L 330.222541 236.167454 
M 331.340374 234.983813 
L 331.563941 228.126855 
L 331.787507 231.432888 
L 332.011074 232.085932 
L 332.234641 237.22865 
L 332.458207 238.044955 
L 332.681774 236.534791 
L 332.905341 237.514357 
L 333.128907 239.432672 
L 333.352474 238.861259 
L 333.576041 234.738921 
L 333.799607 234.085878 
L 334.023174 232.290008 
L 334.246741 233.392019 
L 334.470307 230.534953 
L 334.693874 225.228974 
L 334.91744 228.371746 
L 335.141007 228.943159 
L 335.364574 233.392019 
L 335.58814 231.636964 
L 335.811707 223.55555 
L 336.035274 227.024844 
L 336.25884 226.698322 
L 336.482407 222.045386 
L 336.705974 223.229028 
L 336.92954 221.147451 
L 337.153107 215.719027 
L 337.376674 216.086364 
M 340.28304 206.168264 
L 340.506607 206.739677 
L 340.730173 210.984461 
L 341.177307 203.352014 
L 341.400873 201.474513 
L 341.62444 200.739839 
L 341.848007 201.311252 
L 342.071573 196.250164 
L 342.29514 196.250164 
L 342.518707 199.392937 
L 342.742273 199.760274 
L 342.96584 199.882719 
L 343.189407 201.719405 
L 343.412973 196.495056 
L 343.63654 194.535925 
M 345.201506 192.454349 
L 345.425073 188.495272 
L 345.872206 191.638044 
L 346.31934 193.678805 
L 346.542906 200.209241 
L 346.766473 203.229568 
L 346.99004 203.55609 
L 347.437173 201.352068 
M 347.884306 196.454241 
L 348.107873 196.454241 
L 348.331439 195.719566 
L 348.555006 194.086958 
L 348.778573 198.576632 
L 349.002139 194.740001 
L 349.225706 197.597067 
L 349.449273 195.51549 
L 349.672839 195.719566 
M 351.014239 184.944347 
L 351.461373 187.189185 
L 351.684939 182.372988 
L 351.908506 183.311738 
L 352.132072 178.005759 
L 352.355639 181.638314 
L 352.579206 181.883205 
L 352.802772 181.393423 
L 353.026339 174.414019 
L 353.249906 177.189454 
L 353.473472 176.577226 
L 353.920606 182.087281 
L 354.144172 181.76076 
L 354.591306 170.944725 
L 354.814872 175.597661 
L 355.038439 176.046628 
L 355.262006 176.046628 
L 355.485572 177.964944 
L 355.709139 171.556953 
L 355.932706 169.475377 
L 356.156272 172.291627 
L 356.379839 171.76103 
L 356.603405 175.679291 
L 356.826972 173.107932 
L 357.050539 173.801791 
L 357.274105 172.69978 
L 357.497672 172.209997 
L 357.721239 172.495704 
L 357.944805 172.291627 
L 358.168372 168.454996 
L 358.391939 171.312062 
L 358.615505 171.801845 
L 358.839072 163.271463 
L 359.062639 161.883745 
L 359.286205 168.046844 
L 359.509772 169.761084 
L 359.733339 175.51603 
L 360.180472 173.189562 
L 360.404038 170.740649 
L 360.627605 171.965106 
L 360.851172 170.495758 
L 361.074738 171.84266 
L 361.298305 171.475323 
L 361.745438 168.536627 
L 361.969005 167.924398 
L 362.192572 170.005975 
L 362.416138 165.230594 
L 362.639705 165.5163 
M 363.086838 167.067279 
L 363.533972 168.822333 
L 363.757538 167.067279 
L 363.981105 166.618311 
L 364.204672 166.618311 
L 364.428238 164.65918 
M 365.098938 181.393423 
L 365.322505 178.087389 
L 365.546071 180.373042 
L 365.769638 178.658803 
L 366.216771 186.944293 
L 366.663905 178.25065 
L 366.887471 187.189185 
L 367.111038 191.107446 
L 367.334605 185.842282 
L 367.558171 183.883151 
L 367.781738 190.576848 
L 368.005305 191.229892 
L 368.228871 197.882773 
L 368.452438 196.576686 
L 368.676005 200.494948 
M 369.346704 202.005111 
L 369.570271 196.780762 
L 369.793838 197.841958 
L 370.017404 195.923643 
L 370.464538 187.678967 
L 370.688104 186.658587 
L 370.911671 186.576956 
L 371.135238 190.90337 
L 371.358804 191.433968 
L 371.805938 182.740325 
M 372.700204 187.189185 
L 373.147338 181.597499 
L 373.370904 185.270869 
L 373.594471 181.515868 
L 373.818037 181.883205 
L 374.265171 192.209457 
L 374.488737 205.270329 
L 374.712304 200.127611 
L 374.935871 200.535763 
L 375.159437 190.985 
L 375.383004 189.801359 
L 375.606571 195.964458 
L 376.053704 194.617555 
L 376.277271 194.984892 
L 376.500837 197.923589 
L 376.724404 194.005327 
L 376.947971 185.638206 
L 377.171537 184.944347 
L 377.395104 177.107824 
M 378.28937 183.55663 
L 378.512937 185.066793 
M 379.183637 180.577118 
L 379.407204 180.781194 
M 380.077904 181.924021 
L 380.30147 180.98527 
L 380.525037 179.230216 
L 380.97217 188.576902 
L 381.419304 191.84212 
L 381.64287 193.311468 
M 384.32567 209.02533 
L 384.549237 214.657831 
L 384.772803 207.841688 
L 384.99637 209.555928 
L 385.219937 206.984569 
L 385.443503 207.841688 
L 385.890637 205.637666 
L 386.114203 205.229514 
L 386.33777 202.739785 
L 386.561336 198.617447 
L 386.784903 208.16821 
L 387.00847 208.535547 
L 387.232036 211.678319 
L 387.455603 210.984461 
L 387.67917 214.372124 
L 387.902736 209.066145 
L 388.126303 213.963972 
L 388.34987 212.168102 
L 388.573436 215.025168 
L 388.797003 224.167778 
L 389.244136 203.55609 
L 389.467703 207.066199 
L 389.69127 206.045818 
L 389.914836 209.596743 
L 390.36197 219.88218 
L 390.585536 218.698538 
L 391.032669 215.882288 
L 391.256236 218.576092 
L 391.479803 209.066145 
L 391.703369 208.535547 
L 391.926936 203.719351 
L 392.374069 215.310874 
L 392.597636 211.678319 
L 392.821203 214.372124 
L 393.044769 214.617016 
L 393.268336 215.392505 
L 393.491903 215.392505 
L 393.715469 213.188483 
L 393.939036 221.147451 
L 394.162603 220.943375 
L 394.609736 223.55555 
L 394.833302 222.657615 
M 397.068969 234.126693 
L 397.516102 220.861745 
L 397.739669 220.371962 
L 398.186802 211.270167 
L 398.410369 220.616854 
L 398.633936 223.351474 
L 398.857502 218.249571 
L 399.081069 223.433104 
L 399.304635 220.086256 
L 399.975335 233.759356 
L 400.198902 233.963432 
L 400.422469 235.555226 
L 400.646035 235.555226 
L 400.869602 243.350934 
M 403.775968 247.595717 
L 403.999535 247.554902 
L 404.223102 249.514033 
L 404.446668 250.085446 
L 404.670235 254.901642 
L 404.893802 263.595285 
L 405.117368 260.738219 
L 405.340935 260.779035 
M 405.788068 268.329851 
L 406.011635 274.288874 
L 406.235202 263.187133 
L 406.682335 272.125667 
M 408.470868 279.064255 
L 408.694435 285.798767 
L 409.141568 278.94181 
L 409.365135 275.145994 
L 409.588701 273.390939 
L 409.812268 275.186809 
L 410.035835 273.63583 
L 410.706535 260.493328 
M 412.271501 261.962676 
L 412.495068 261.67697 
L 412.718634 268.982895 
L 412.942201 257.309741 
L 413.165768 263.227948 
L 413.389334 273.799091 
L 413.836468 261.962676 
L 414.060034 255.962838 
L 414.283601 260.697404 
L 414.730734 251.8405 
L 414.954301 245.595771 
L 415.177868 247.391641 
L 415.625001 227.922779 
M 416.072134 231.310442 
L 416.295701 235.391965 
M 417.413534 240.167346 
L 417.637101 244.248869 
L 417.860667 244.901912 
L 418.084234 243.63664 
L 418.531367 231.84104 
L 418.754934 233.187943 
L 419.202067 216.984299 
L 419.649201 218.290386 
L 419.872767 213.188483 
M 423.226267 178.046574 
L 423.449834 178.005759 
L 423.6734 175.720106 
L 423.896967 166.985648 
L 424.120534 170.169236 
L 424.3441 170.618203 
L 424.567667 168.006029 
L 425.0148 177.352715 
L 425.461933 190.780924 
M 426.3562 187.270815 
L 426.579767 178.413911 
L 426.803333 179.271031 
L 427.0269 182.740325 
L 427.250467 175.4344 
L 427.474033 177.107824 
L 427.6976 172.414073 
L 428.144733 179.679183 
L 428.3683 183.474999 
L 428.591867 182.372988 
L 428.815433 177.271085 
L 429.7097 186.740217 
L 429.933266 195.719566 
M 431.7218 200.699024 
L 431.945366 197.31136 
L 432.168933 199.556198 
L 432.3925 195.352229 
L 432.616066 194.372664 
L 432.839633 202.045926 
L 433.0632 203.107122 
L 433.286766 203.392829 
L 433.510333 198.699078 
L 433.733899 199.923535 
L 433.957466 196.617501 
L 434.181033 198.08685 
L 434.404599 195.270599 
L 434.628166 195.719566 
L 434.851733 197.31136 
L 435.075299 187.801413 
L 435.298866 189.678913 
L 435.522433 195.474675 
L 435.969566 212.412993 
L 436.193133 206.494786 
L 436.640266 187.189185 
L 437.087399 173.271193 
L 437.310966 172.495704 
L 437.534533 173.924236 
L 437.758099 174.128313 
L 437.981666 166.495866 
L 438.205232 168.863149 
L 438.428799 166.495866 
L 438.652366 172.495704 
M 440.217332 153.026841 
L 440.664466 162.618419 
L 440.888032 160.291951 
L 441.111599 153.108472 
L 441.335166 153.190102 
L 441.558732 149.353471 
L 441.782299 150.373852 
L 442.005865 142.986296 
M 448.042165 108.374986 
L 448.265732 106.824007 
L 448.489298 101.518028 
L 448.712865 104.456724 
L 449.159998 97.31406 
L 449.383565 98.783408 
L 449.607132 95.722266 
L 449.830698 95.069222 
L 450.054265 92.334602 
M 450.948531 93.273352 
L 451.172098 97.518136 
L 451.395665 91.559113 
L 451.619231 93.110092 
L 451.842798 93.844766 
L 452.066365 92.742755 
L 452.289931 86.130688 
L 452.513498 90.661178 
L 452.737065 84.824601 
L 452.960631 90.620363 
L 453.184198 86.498025 
L 453.407765 89.885689 
L 453.631331 80.171665 
L 454.078465 83.518514 
L 454.302031 80.498187 
L 454.749165 90.253026 
L 454.972731 90.497917 
L 455.196298 91.314222 
L 455.643431 95.477375 
L 455.866998 89.804058 
L 456.090564 92.8652 
L 456.537698 88.661232 
L 456.761264 91.885635 
L 456.984831 98.33444 
L 457.208398 97.191614 
M 457.879098 103.436343 
L 458.102664 103.109822 
L 458.326231 106.619931 
M 460.785464 116.048248 
L 461.009031 124.986782 
L 461.232597 122.129716 
L 461.679731 128.578522 
L 461.903297 125.843902 
L 462.126864 129.313196 
L 462.573997 120.374662 
L 463.021131 109.436181 
L 463.468264 113.517704 
L 463.915397 106.619931 
M 465.927497 93.436613 
L 466.151064 98.25281 
L 466.37463 99.967049 
L 466.821764 95.51819 
L 467.04533 96.620201 
L 467.268897 100.701723 
L 467.492464 100.416017 
L 467.71603 105.436289 
L 467.939597 115.925802 
M 468.610297 108.456616 
L 468.833863 110.007595 
L 469.05743 116.37477 
L 469.280997 111.92591 
L 469.504563 110.497377 
L 469.72813 118.497161 
L 469.951697 114.170747 
L 470.175263 125.762271 
L 470.622397 121.558303 
L 470.845963 120.578738 
L 471.06953 115.354389 
L 471.293097 117.762487 
L 471.516663 126.129608 
L 471.74023 127.231619 
L 471.963797 122.333792 
L 472.187363 113.109552 
L 472.41093 112.089171 
L 472.634496 112.701399 
L 472.858063 112.334062 
L 473.08163 113.64015 
L 473.305196 116.170693 
L 473.528763 111.027975 
L 473.75233 116.252324 
L 473.975896 111.681019 
L 474.199463 115.844172 
L 474.42303 123.272543 
L 474.646596 141.108796 
L 474.870163 146.986188 
L 475.09373 145.557655 
M 475.76443 128.456076 
L 475.987996 130.90499 
L 476.211563 117.435965 
L 476.435129 118.986944 
L 476.658696 113.272813 
L 476.882263 117.476781 
L 477.105829 117.272705 
L 477.329396 121.231781 
L 477.552963 100.620093 
M 478.894363 98.701777 
L 479.117929 101.313952 
L 479.341496 99.967049 
L 479.565063 103.64042 
L 480.012196 98.416071 
L 480.235763 99.844604 
L 480.459329 96.497755 
L 480.682896 106.579116 
L 480.906462 110.415747 
M 481.577162 117.027813 
L 481.800729 123.966401 
L 482.024296 118.129824 
L 482.247862 118.742053 
L 482.471429 127.925478 
L 482.694996 117.39515 
L 482.918562 116.986998 
L 483.142129 122.578684 
L 483.365696 116.782922 
L 483.589262 125.272489 
L 483.812829 124.496999 
L 484.259962 136.864012 
L 484.483529 136.415045 
L 484.707096 131.068251 
L 485.377795 100.905799 
L 485.601362 102.293517 
L 486.048495 94.824331 
M 489.401995 76.416665 
L 489.625562 73.641229 
L 489.849128 73.477968 
L 490.072695 73.151447 
L 490.296262 71.233131 
M 491.637662 57.315139 
L 491.861228 58.743672 
L 492.084795 57.600846 
M 492.979062 60.498727 
L 493.202628 58.743672 
L 493.426195 61.763999 
L 493.649761 62.580303 
L 493.873328 65.355739 
L 494.096895 65.478184 
L 494.320461 63.927206 
L 494.544028 59.070194 
L 494.767595 58.33552 
L 494.991161 62.049706 
L 495.214728 58.33552 
L 495.438295 57.4784 
L 495.661861 48.41742 
L 495.885428 55.437639 
L 496.108995 53.764215 
L 496.332561 46.376659 
L 496.556128 46.009322 
M 497.673961 42.94818 
L 497.897528 47.152148 
L 498.121094 47.601116 
L 498.344661 52.784649 
L 498.568228 44.009376 
L 498.791794 49.682692 
L 499.015361 44.335898 
L 499.238928 47.111333 
L 499.686061 37.846277 
L 499.909628 42.988996 
L 500.133194 42.417582 
L 500.356761 38.621767 
L 500.580328 41.193126 
L 501.027461 37.846277 
L 501.251028 37.438125 
L 501.474594 41.111495 
L 501.698161 37.601386 
L 501.921728 45.315463 
L 502.145294 40.009484 
L 502.368861 39.682962 
L 502.815994 43.070626 
L 503.039561 43.070626 
L 503.263127 42.621659 
L 503.486694 43.397148 
L 503.933827 50.009214 
M 508.40516 66.294489 
L 508.628727 71.967805 
L 508.852294 73.233077 
L 509.07586 72.171881 
L 509.299427 63.72313 
L 509.522994 75.437099 
L 509.74656 74.784056 
L 509.970127 75.069762 
L 510.193694 76.661556 
L 510.41726 76.212588 
L 510.640827 74.253458 
L 510.864393 75.069762 
L 511.08796 74.57998 
L 511.311527 68.416881 
L 511.75866 73.641229 
L 511.982227 74.171827 
L 512.205793 73.355523 
L 513.10006 86.212319 
L 513.323627 81.885905 
L 513.547193 82.824655 
L 513.994327 86.212319 
L 514.217893 84.334818 
M 518.46566 98.538516 
L 518.689226 96.089603 
L 518.912793 98.579332 
L 519.13636 98.783408 
L 519.359926 98.089549 
L 519.583493 101.599658 
L 519.807059 98.987484 
L 520.030626 99.436451 
L 520.254193 101.803734 
L 520.477759 101.06906 
L 520.701326 99.19156 
L 520.924893 102.048626 
L 521.148459 98.416071 
L 521.372026 99.681343 
L 521.819159 108.660692 
L 522.042726 107.762757 
L 522.266293 112.211617 
L 522.489859 110.742269 
L 522.713426 113.762595 
M 524.725526 119.925694 
L 524.949092 122.456238 
L 525.396226 116.538031 
L 525.619792 115.354389 
L 526.066926 121.06852 
L 526.290492 119.599172 
L 526.514059 120.252216 
L 526.737626 117.925748 
L 526.961192 120.374662 
L 527.184759 114.864606 
L 527.408326 113.844226 
L 527.631892 111.681019 
L 527.855459 110.98716 
L 528.079025 116.007433 
L 528.302592 112.823845 
L 528.526159 112.293247 
L 528.749725 109.395366 
L 529.196859 110.13004 
L 529.420425 112.456508 
L 529.643992 111.885095 
L 529.867559 113.72178 
L 530.091125 113.191182 
L 530.314692 113.966671 
L 530.538259 119.721618 
L 530.761825 118.456346 
L 530.985392 115.395204 
L 531.208959 120.211401 
L 531.656092 118.782868 
L 531.879659 113.680965 
L 532.103225 114.170747 
L 532.326792 115.068682 
L 532.550358 111.476943 
L 532.773925 113.72178 
L 532.997492 111.109606 
L 533.221058 114.823791 
L 533.444625 114.497269 
L 533.668192 114.701345 
L 533.891758 111.84428 
L 534.115325 110.497377 
M 535.009592 105.721996 
L 535.233158 117.884933 
L 535.456725 115.068682 
L 535.680292 113.680965 
L 535.903858 114.5789 
L 536.127425 117.721672 
L 536.350992 114.129932 
L 536.798125 118.007379 
L 537.468825 98.824223 
L 537.915958 103.885311 
L 538.139525 103.109822 
M 538.586658 100.579278 
L 538.810225 98.497701 
L 539.033791 98.660962 
M 539.928058 103.926126 
L 540.151625 104.905691 
L 540.375191 106.864822 
L 540.598758 113.068736 
L 540.822324 113.191182 
L 541.045891 113.762595 
L 541.269458 115.884987 
M 543.505124 119.19102 
L 543.728691 119.068574 
L 543.952258 118.129824 
L 544.175824 118.742053 
L 544.399391 118.905314 
L 544.846524 117.762487 
L 545.293657 124.741891 
L 545.517224 123.599064 
L 545.740791 121.517488 
L 545.964357 120.578738 
L 546.187924 122.333792 
L 546.411491 121.027705 
L 546.635057 123.63988 
L 546.858624 122.211347 
L 547.082191 127.231619 
L 547.529324 128.905044 
M 547.976457 127.231619 
L 548.200024 129.435642 
L 548.423591 124.905152 
L 548.647157 124.66026 
L 548.870724 127.925478 
L 549.094291 133.027381 
L 549.317857 131.190696 
L 549.541424 131.558033 
L 549.988557 125.109228 
L 550.212124 125.394934 
L 550.43569 127.027543 
L 550.659257 125.639826 
L 550.882824 123.150097 
L 551.10639 122.456238 
L 551.329957 130.578468 
L 551.553524 134.170208 
L 551.77709 133.353903 
L 552.000657 133.517164 
L 552.224224 132.007001 
L 552.44779 137.39461 
L 552.894924 138.496621 
L 553.342057 131.313142 
L 553.565623 131.966185 
L 553.78919 127.639772 
L 554.012757 128.088739 
L 554.236323 125.639826 
L 554.683457 132.660044 
L 554.907023 132.578414 
L 555.13059 132.945751 
L 555.354157 134.782436 
L 555.577723 133.476349 
L 555.80129 136.333415 
L 556.024857 134.945697 
L 556.248423 138.1701 
L 556.47199 139.231295 
L 556.695557 143.557709 
M 558.48409 143.843416 
L 558.707656 146.782112 
L 559.15479 136.210969 
L 559.378356 137.435426 
L 559.601923 140.210861 
L 559.82549 137.272165 
L 560.049056 139.312926 
L 560.272623 136.37423 
M 560.943323 134.047762 
L 561.16689 130.741729 
M 561.614023 127.027543 
L 561.83759 129.884609 
L 562.061156 123.599064 
L 562.284723 122.497053 
L 562.731856 125.843902 
L 562.955423 124.007217 
M 563.626123 117.599226 
L 564.073256 124.252108 
L 564.520389 119.272651 
L 564.743956 120.415477 
L 564.967523 120.374662 
L 565.191089 123.599064 
L 565.414656 123.435803 
L 565.638223 124.701075 
L 565.861789 123.558249 
L 566.085356 124.57863 
L 566.308923 130.741729 
M 569.438856 137.231349 
L 569.662422 131.149881 
L 570.333122 139.721078 
L 570.780255 144.006677 
L 571.003822 142.129176 
L 571.450955 135.313034 
L 571.898089 128.700967 
L 572.121655 128.415261 
L 572.345222 129.19075 
L 572.568789 128.007109 
L 572.792355 129.639718 
L 573.239489 128.211185 
L 573.239489 128.211185 
" clip-path="url(#p87ebbe5c71)" style="fill: none; stroke: #1e90ff; stroke-linecap: square"/>
   </g>
   <g id="patch_3">
    <path d="M 40.603125 354.958125 
L 40.603125 22.318125 
" style="fill: none; stroke: #000000; stroke-width: 0.8; stroke-linejoin: miter; stroke-linecap: square"/>
   </g>
   <g id="patch_4">
    <path d="M 598.603125 354.958125 
L 598.603125 22.318125 
" style="fill: none; stroke: #000000; stroke-width: 0.8; stroke-linejoin: miter; stroke-linecap: square"/>
   </g>
   <g id="patch_5">
    <path d="M 40.603125 354.958125 
L 598.603125 354.958125 
" style="fill: none; stroke: #000000; stroke-width: 0.8; stroke-linejoin: miter; stroke-linecap: square"/>
   </g>
   <g id="patch_6">
    <path d="M 40.603125 22.318125 
L 598.603125 22.318125 
" style="fill: none; stroke: #000000; stroke-width: 0.8; stroke-linejoin: miter; stroke-linecap: square"/>
   </g>
   <g id="text_16">
    <!-- DVN, Relative Strength Index (RSI), DVN -->
    <g transform="translate(198.94125 16.318125)scale(0.12 -0.12)">
     <defs>
      <path id="DejaVuSans-56" d="M 1831 0 
L 50 4666 
L 709 4666 
L 2188 738 
L 3669 4666 
L 4325 4666 
L 2547 0 
L 1831 0 
z
" transform="scale(0.015625)"/>
      <path id="DejaVuSans-4e" d="M 628 4666 
L 1478 4666 
L 3547 763 
L 3547 4666 
L 4159 4666 
L 4159 0 
L 3309 0 
L 1241 3903 
L 1241 0 
L 628 0 
L 628 4666 
z
" transform="scale(0.015625)"/>
      <path id="DejaVuSans-2c" d="M 750 794 
L 1409 794 
L 1409 256 
L 897 -744 
L 494 -744 
L 750 256 
L 750 794 
z
" transform="scale(0.015625)"/>
      <path id="DejaVuSans-52" d="M 2841 2188 
Q 3044 2119 3236 1894 
Q 3428 1669 3622 1275 
L 4263 0 
L 3584 0 
L 2988 1197 
Q 2756 1666 2539 1819 
Q 2322 1972 1947 1972 
L 1259 1972 
L 1259 0 
L 628 0 
L 628 4666 
L 2053 4666 
Q 2853 4666 3247 4331 
Q 3641 3997 3641 3322 
Q 3641 2881 3436 2590 
Q 3231 2300 2841 2188 
z
M 1259 4147 
L 1259 2491 
L 2053 2491 
Q 2509 2491 2742 2702 
Q 2975 2913 2975 3322 
Q 2975 3731 2742 3939 
Q 2509 4147 2053 4147 
L 1259 4147 
z
" transform="scale(0.015625)"/>
      <path id="DejaVuSans-6c" d="M 603 4863 
L 1178 4863 
L 1178 0 
L 603 0 
L 603 4863 
z
" transform="scale(0.015625)"/>
      <path id="DejaVuSans-76" d="M 191 3500 
L 800 3500 
L 1894 563 
L 2988 3500 
L 3597 3500 
L 2284 0 
L 1503 0 
L 191 3500 
z
" transform="scale(0.015625)"/>
      <path id="DejaVuSans-6e" d="M 3513 2113 
L 3513 0 
L 2938 0 
L 2938 2094 
Q 2938 2591 2744 2837 
Q 2550 3084 2163 3084 
Q 1697 3084 1428 2787 
Q 1159 2491 1159 1978 
L 1159 0 
L 581 0 
L 581 3500 
L 1159 3500 
L 1159 2956 
Q 1366 3272 1645 3428 
Q 1925 3584 2291 3584 
Q 2894 3584 3203 3211 
Q 3513 2838 3513 2113 
z
" transform="scale(0.015625)"/>
      <path id="DejaVuSans-67" d="M 2906 1791 
Q 2906 2416 2648 2759 
Q 2391 3103 1925 3103 
Q 1463 3103 1205 2759 
Q 947 2416 947 1791 
Q 947 1169 1205 825 
Q 1463 481 1925 481 
Q 2391 481 2648 825 
Q 2906 1169 2906 1791 
z
M 3481 434 
Q 3481 -459 3084 -895 
Q 2688 -1331 1869 -1331 
Q 1566 -1331 1297 -1286 
Q 1028 -1241 775 -1147 
L 775 -588 
Q 1028 -725 1275 -790 
Q 1522 -856 1778 -856 
Q 2344 -856 2625 -561 
Q 2906 -266 2906 331 
L 2906 616 
Q 2728 306 2450 153 
Q 2172 0 1784 0 
Q 1141 0 747 490 
Q 353 981 353 1791 
Q 353 2603 747 3093 
Q 1141 3584 1784 3584 
Q 2172 3584 2450 3431 
Q 2728 3278 2906 2969 
L 2906 3500 
L 3481 3500 
L 3481 434 
z
" transform="scale(0.015625)"/>
      <path id="DejaVuSans-68" d="M 3513 2113 
L 3513 0 
L 2938 0 
L 2938 2094 
Q 2938 2591 2744 2837 
Q 2550 3084 2163 3084 
Q 1697 3084 1428 2787 
Q 1159 2491 1159 1978 
L 1159 0 
L 581 0 
L 581 4863 
L 1159 4863 
L 1159 2956 
Q 1366 3272 1645 3428 
Q 1925 3584 2291 3584 
Q 2894 3584 3203 3211 
Q 3513 2838 3513 2113 
z
" transform="scale(0.015625)"/>
      <path id="DejaVuSans-49" d="M 628 4666 
L 1259 4666 
L 1259 0 
L 628 0 
L 628 4666 
z
" transform="scale(0.015625)"/>
      <path id="DejaVuSans-64" d="M 2906 2969 
L 2906 4863 
L 3481 4863 
L 3481 0 
L 2906 0 
L 2906 525 
Q 2725 213 2448 61 
Q 2172 -91 1784 -91 
Q 1150 -91 751 415 
Q 353 922 353 1747 
Q 353 2572 751 3078 
Q 1150 3584 1784 3584 
Q 2172 3584 2448 3432 
Q 2725 3281 2906 2969 
z
M 947 1747 
Q 947 1113 1208 752 
Q 1469 391 1925 391 
Q 2381 391 2643 752 
Q 2906 1113 2906 1747 
Q 2906 2381 2643 2742 
Q 2381 3103 1925 3103 
Q 1469 3103 1208 2742 
Q 947 2381 947 1747 
z
" transform="scale(0.015625)"/>
      <path id="DejaVuSans-78" d="M 3513 3500 
L 2247 1797 
L 3578 0 
L 2900 0 
L 1881 1375 
L 863 0 
L 184 0 
L 1544 1831 
L 300 3500 
L 978 3500 
L 1906 2253 
L 2834 3500 
L 3513 3500 
z
" transform="scale(0.015625)"/>
     </defs>
     <use xlink:href="#DejaVuSans-44"/>
     <use xlink:href="#DejaVuSans-56" x="75.251953"/>
     <use xlink:href="#DejaVuSans-4e" x="143.660156"/>
     <use xlink:href="#DejaVuSans-2c" x="218.464844"/>
     <use xlink:href="#DejaVuSans-20" x="250.251953"/>
     <use xlink:href="#DejaVuSans-52" x="282.039062"/>
     <use xlink:href="#DejaVuSans-65" x="347.021484"/>
     <use xlink:href="#DejaVuSans-6c" x="408.544922"/>
     <use xlink:href="#DejaVuSans-61" x="436.328125"/>
     <use xlink:href="#DejaVuSans-74" x="497.607422"/>
     <use xlink:href="#DejaVuSans-69" x="536.816406"/>
     <use xlink:href="#DejaVuSans-76" x="564.599609"/>
     <use xlink:href="#DejaVuSans-65" x="623.779297"/>
     <use xlink:href="#DejaVuSans-20" x="685.302734"/>
     <use xlink:href="#DejaVuSans-53" x="717.089844"/>
     <use xlink:href="#DejaVuSans-74" x="780.566406"/>
     <use xlink:href="#DejaVuSans-72" x="819.775391"/>
     <use xlink:href="#DejaVuSans-65" x="858.638672"/>
     <use xlink:href="#DejaVuSans-6e" x="920.162109"/>
     <use xlink:href="#DejaVuSans-67" x="983.541016"/>
     <use xlink:href="#DejaVuSans-74" x="1047.017578"/>
     <use xlink:href="#DejaVuSans-68" x="1086.226562"/>
     <use xlink:href="#DejaVuSans-20" x="1149.605469"/>
     <use xlink:href="#DejaVuSans-49" x="1181.392578"/>
     <use xlink:href="#DejaVuSans-6e" x="1210.884766"/>
     <use xlink:href="#DejaVuSans-64" x="1274.263672"/>
     <use xlink:href="#DejaVuSans-65" x="1337.740234"/>
     <use xlink:href="#DejaVuSans-78" x="1397.513672"/>
     <use xlink:href="#DejaVuSans-20" x="1456.693359"/>
     <use xlink:href="#DejaVuSans-28" x="1488.480469"/>
     <use xlink:href="#DejaVuSans-52" x="1527.494141"/>
     <use xlink:href="#DejaVuSans-53" x="1596.976562"/>
     <use xlink:href="#DejaVuSans-49" x="1660.453125"/>
     <use xlink:href="#DejaVuSans-29" x="1689.945312"/>
     <use xlink:href="#DejaVuSans-2c" x="1728.958984"/>
     <use xlink:href="#DejaVuSans-20" x="1760.746094"/>
     <use xlink:href="#DejaVuSans-44" x="1792.533203"/>
     <use xlink:href="#DejaVuSans-56" x="1867.785156"/>
     <use xlink:href="#DejaVuSans-4e" x="1936.193359"/>
    </g>
   </g>
   <g id="legend_1">
    <g id="patch_7">
     <path d="M 47.603125 74.3525 
L 197.5125 74.3525 
Q 199.5125 74.3525 199.5125 72.3525 
L 199.5125 29.318125 
Q 199.5125 27.318125 197.5125 27.318125 
L 47.603125 27.318125 
Q 45.603125 27.318125 45.603125 29.318125 
L 45.603125 72.3525 
Q 45.603125 74.3525 47.603125 74.3525 
z
" style="fill: #ffffff; opacity: 0.8; stroke: #cccccc; stroke-linejoin: miter"/>
    </g>
    <g id="line2d_25">
     <path d="M 49.603125 35.416562 
L 59.603125 35.416562 
L 69.603125 35.416562 
" style="fill: none; stroke: #00ff7f; stroke-linecap: square"/>
    </g>
    <g id="text_17">
     <!-- Oversold, RSI &lt;= 30 -->
     <g transform="translate(77.603125 38.916562)scale(0.1 -0.1)">
      <defs>
       <path id="DejaVuSans-4f" d="M 2522 4238 
Q 1834 4238 1429 3725 
Q 1025 3213 1025 2328 
Q 1025 1447 1429 934 
Q 1834 422 2522 422 
Q 3209 422 3611 934 
Q 4013 1447 4013 2328 
Q 4013 3213 3611 3725 
Q 3209 4238 2522 4238 
z
M 2522 4750 
Q 3503 4750 4090 4092 
Q 4678 3434 4678 2328 
Q 4678 1225 4090 567 
Q 3503 -91 2522 -91 
Q 1538 -91 948 565 
Q 359 1222 359 2328 
Q 359 3434 948 4092 
Q 1538 4750 2522 4750 
z
" transform="scale(0.015625)"/>
       <path id="DejaVuSans-73" d="M 2834 3397 
L 2834 2853 
Q 2591 2978 2328 3040 
Q 2066 3103 1784 3103 
Q 1356 3103 1142 2972 
Q 928 2841 928 2578 
Q 928 2378 1081 2264 
Q 1234 2150 1697 2047 
L 1894 2003 
Q 2506 1872 2764 1633 
Q 3022 1394 3022 966 
Q 3022 478 2636 193 
Q 2250 -91 1575 -91 
Q 1294 -91 989 -36 
Q 684 19 347 128 
L 347 722 
Q 666 556 975 473 
Q 1284 391 1588 391 
Q 1994 391 2212 530 
Q 2431 669 2431 922 
Q 2431 1156 2273 1281 
Q 2116 1406 1581 1522 
L 1381 1569 
Q 847 1681 609 1914 
Q 372 2147 372 2553 
Q 372 3047 722 3315 
Q 1072 3584 1716 3584 
Q 2034 3584 2315 3537 
Q 2597 3491 2834 3397 
z
" transform="scale(0.015625)"/>
       <path id="DejaVuSans-6f" d="M 1959 3097 
Q 1497 3097 1228 2736 
Q 959 2375 959 1747 
Q 959 1119 1226 758 
Q 1494 397 1959 397 
Q 2419 397 2687 759 
Q 2956 1122 2956 1747 
Q 2956 2369 2687 2733 
Q 2419 3097 1959 3097 
z
M 1959 3584 
Q 2709 3584 3137 3096 
Q 3566 2609 3566 1747 
Q 3566 888 3137 398 
Q 2709 -91 1959 -91 
Q 1206 -91 779 398 
Q 353 888 353 1747 
Q 353 2609 779 3096 
Q 1206 3584 1959 3584 
z
" transform="scale(0.015625)"/>
       <path id="DejaVuSans-3c" d="M 4684 3150 
L 1459 2003 
L 4684 863 
L 4684 294 
L 678 1747 
L 678 2266 
L 4684 3719 
L 4684 3150 
z
" transform="scale(0.015625)"/>
       <path id="DejaVuSans-3d" d="M 678 2906 
L 4684 2906 
L 4684 2381 
L 678 2381 
L 678 2906 
z
M 678 1631 
L 4684 1631 
L 4684 1100 
L 678 1100 
L 678 1631 
z
" transform="scale(0.015625)"/>
      </defs>
      <use xlink:href="#DejaVuSans-4f"/>
      <use xlink:href="#DejaVuSans-76" x="78.710938"/>
      <use xlink:href="#DejaVuSans-65" x="137.890625"/>
      <use xlink:href="#DejaVuSans-72" x="199.414062"/>
      <use xlink:href="#DejaVuSans-73" x="240.527344"/>
      <use xlink:href="#DejaVuSans-6f" x="292.626953"/>
      <use xlink:href="#DejaVuSans-6c" x="353.808594"/>
      <use xlink:href="#DejaVuSans-64" x="381.591797"/>
      <use xlink:href="#DejaVuSans-2c" x="445.068359"/>
      <use xlink:href="#DejaVuSans-20" x="476.855469"/>
      <use xlink:href="#DejaVuSans-52" x="508.642578"/>
      <use xlink:href="#DejaVuSans-53" x="578.125"/>
      <use xlink:href="#DejaVuSans-49" x="641.601562"/>
      <use xlink:href="#DejaVuSans-20" x="671.09375"/>
      <use xlink:href="#DejaVuSans-3c" x="702.880859"/>
      <use xlink:href="#DejaVuSans-3d" x="786.669922"/>
      <use xlink:href="#DejaVuSans-20" x="870.458984"/>
      <use xlink:href="#DejaVuSans-33" x="902.246094"/>
      <use xlink:href="#DejaVuSans-30" x="965.869141"/>
     </g>
    </g>
    <g id="line2d_26">
     <path d="M 49.603125 50.094687 
L 59.603125 50.094687 
L 69.603125 50.094687 
" style="fill: none; stroke: #ff4500; stroke-linecap: square"/>
    </g>
    <g id="text_18">
     <!-- Overbought, RSI &gt;= 70 -->
     <g transform="translate(77.603125 53.594687)scale(0.1 -0.1)">
      <defs>
       <path id="DejaVuSans-62" d="M 3116 1747 
Q 3116 2381 2855 2742 
Q 2594 3103 2138 3103 
Q 1681 3103 1420 2742 
Q 1159 2381 1159 1747 
Q 1159 1113 1420 752 
Q 1681 391 2138 391 
Q 2594 391 2855 752 
Q 3116 1113 3116 1747 
z
M 1159 2969 
Q 1341 3281 1617 3432 
Q 1894 3584 2278 3584 
Q 2916 3584 3314 3078 
Q 3713 2572 3713 1747 
Q 3713 922 3314 415 
Q 2916 -91 2278 -91 
Q 1894 -91 1617 61 
Q 1341 213 1159 525 
L 1159 0 
L 581 0 
L 581 4863 
L 1159 4863 
L 1159 2969 
z
" transform="scale(0.015625)"/>
       <path id="DejaVuSans-75" d="M 544 1381 
L 544 3500 
L 1119 3500 
L 1119 1403 
Q 1119 906 1312 657 
Q 1506 409 1894 409 
Q 2359 409 2629 706 
Q 2900 1003 2900 1516 
L 2900 3500 
L 3475 3500 
L 3475 0 
L 2900 0 
L 2900 538 
Q 2691 219 2414 64 
Q 2138 -91 1772 -91 
Q 1169 -91 856 284 
Q 544 659 544 1381 
z
M 1991 3584 
L 1991 3584 
z
" transform="scale(0.015625)"/>
       <path id="DejaVuSans-3e" d="M 678 3150 
L 678 3719 
L 4684 2266 
L 4684 1747 
L 678 294 
L 678 863 
L 3897 2003 
L 678 3150 
z
" transform="scale(0.015625)"/>
      </defs>
      <use xlink:href="#DejaVuSans-4f"/>
      <use xlink:href="#DejaVuSans-76" x="78.710938"/>
      <use xlink:href="#DejaVuSans-65" x="137.890625"/>
      <use xlink:href="#DejaVuSans-72" x="199.414062"/>
      <use xlink:href="#DejaVuSans-62" x="240.527344"/>
      <use xlink:href="#DejaVuSans-6f" x="304.003906"/>
      <use xlink:href="#DejaVuSans-75" x="365.185547"/>
      <use xlink:href="#DejaVuSans-67" x="428.564453"/>
      <use xlink:href="#DejaVuSans-68" x="492.041016"/>
      <use xlink:href="#DejaVuSans-74" x="555.419922"/>
      <use xlink:href="#DejaVuSans-2c" x="594.628906"/>
      <use xlink:href="#DejaVuSans-20" x="626.416016"/>
      <use xlink:href="#DejaVuSans-52" x="658.203125"/>
      <use xlink:href="#DejaVuSans-53" x="727.685547"/>
      <use xlink:href="#DejaVuSans-49" x="791.162109"/>
      <use xlink:href="#DejaVuSans-20" x="820.654297"/>
      <use xlink:href="#DejaVuSans-3e" x="852.441406"/>
      <use xlink:href="#DejaVuSans-3d" x="936.230469"/>
      <use xlink:href="#DejaVuSans-20" x="1020.019531"/>
      <use xlink:href="#DejaVuSans-37" x="1051.806641"/>
      <use xlink:href="#DejaVuSans-30" x="1115.429688"/>
     </g>
    </g>
    <g id="line2d_27">
     <path d="M 49.603125 64.772812 
L 59.603125 64.772812 
L 69.603125 64.772812 
" style="fill: none; stroke: #1e90ff; stroke-linecap: square"/>
    </g>
    <g id="text_19">
     <!-- Neutral -->
     <g transform="translate(77.603125 68.272812)scale(0.1 -0.1)">
      <use xlink:href="#DejaVuSans-4e"/>
      <use xlink:href="#DejaVuSans-65" x="74.804688"/>
      <use xlink:href="#DejaVuSans-75" x="136.328125"/>
      <use xlink:href="#DejaVuSans-74" x="199.707031"/>
      <use xlink:href="#DejaVuSans-72" x="238.916016"/>
      <use xlink:href="#DejaVuSans-61" x="280.029297"/>
      <use xlink:href="#DejaVuSans-6c" x="341.308594"/>
     </g>
    </g>
   </g>
  </g>
 </g>
 <defs>
  <clipPath id="p87ebbe5c71">
   <rect x="40.603125" y="22.318125" width="558" height="332.64"/>
  </clipPath>
 </defs>
</svg>
