<?xml version="1.0" encoding="utf-8" standalone="no"?>
<!DOCTYPE svg PUBLIC "-//W3C//DTD SVG 1.1//EN"
  "http://www.w3.org/Graphics/SVG/1.1/DTD/svg11.dtd">
<svg xmlns:xlink="http://www.w3.org/1999/xlink" width="605.803125pt" height="392.514375pt" viewBox="0 0 605.803125 392.514375" xmlns="http://www.w3.org/2000/svg" version="1.1">
 <metadata>
  <rdf:RDF xmlns:dc="http://purl.org/dc/elements/1.1/" xmlns:cc="http://creativecommons.org/ns#" xmlns:rdf="http://www.w3.org/1999/02/22-rdf-syntax-ns#">
   <cc:Work>
    <dc:type rdf:resource="http://purl.org/dc/dcmitype/StillImage"/>
    <dc:date>2023-04-24T21:55:14.326056</dc:date>
    <dc:format>image/svg+xml</dc:format>
    <dc:creator>
     <cc:Agent>
      <dc:title>Matplotlib v3.5.1, https://matplotlib.org/</dc:title>
     </cc:Agent>
    </dc:creator>
   </cc:Work>
  </rdf:RDF>
 </metadata>
 <defs>
  <style type="text/css">*{stroke-linejoin: round; stroke-linecap: butt}</style>
 </defs>
 <g id="figure_1">
  <g id="patch_1">
   <path d="M 0 392.514375 
L 605.803125 392.514375 
L 605.803125 0 
L 0 0 
z
" style="fill: #ffffff"/>
  </g>
  <g id="axes_1">
   <g id="patch_2">
    <path d="M 40.603125 354.958125 
L 598.603125 354.958125 
L 598.603125 22.318125 
L 40.603125 22.318125 
z
" style="fill: #ffffff"/>
   </g>
   <g id="matplotlib.axis_1">
    <g id="xtick_1">
     <g id="line2d_1">
      <defs>
       <path id="m244d623100" d="M 0 0 
L 0 3.5 
" style="stroke: #000000; stroke-width: 0.8"/>
      </defs>
      <g>
       <use xlink:href="#m244d623100" x="65.966761" y="354.958125" style="stroke: #000000; stroke-width: 0.8"/>
      </g>
     </g>
     <g id="text_1">
      <!-- 0 -->
      <g transform="translate(62.785511 369.556562)scale(0.1 -0.1)">
       <defs>
        <path id="DejaVuSans-30" d="M 2034 4250 
Q 1547 4250 1301 3770 
Q 1056 3291 1056 2328 
Q 1056 1369 1301 889 
Q 1547 409 2034 409 
Q 2525 409 2770 889 
Q 3016 1369 3016 2328 
Q 3016 3291 2770 3770 
Q 2525 4250 2034 4250 
z
M 2034 4750 
Q 2819 4750 3233 4129 
Q 3647 3509 3647 2328 
Q 3647 1150 3233 529 
Q 2819 -91 2034 -91 
Q 1250 -91 836 529 
Q 422 1150 422 2328 
Q 422 3509 836 4129 
Q 1250 4750 2034 4750 
z
" transform="scale(0.015625)"/>
       </defs>
       <use xlink:href="#DejaVuSans-30"/>
      </g>
     </g>
    </g>
    <g id="xtick_2">
     <g id="line2d_2">
      <g>
       <use xlink:href="#m244d623100" x="182.79604" y="354.958125" style="stroke: #000000; stroke-width: 0.8"/>
      </g>
     </g>
     <g id="text_2">
      <!-- 500 -->
      <g transform="translate(173.25229 369.556562)scale(0.1 -0.1)">
       <defs>
        <path id="DejaVuSans-35" d="M 691 4666 
L 3169 4666 
L 3169 4134 
L 1269 4134 
L 1269 2991 
Q 1406 3038 1543 3061 
Q 1681 3084 1819 3084 
Q 2600 3084 3056 2656 
Q 3513 2228 3513 1497 
Q 3513 744 3044 326 
Q 2575 -91 1722 -91 
Q 1428 -91 1123 -41 
Q 819 9 494 109 
L 494 744 
Q 775 591 1075 516 
Q 1375 441 1709 441 
Q 2250 441 2565 725 
Q 2881 1009 2881 1497 
Q 2881 1984 2565 2268 
Q 2250 2553 1709 2553 
Q 1456 2553 1204 2497 
Q 953 2441 691 2322 
L 691 4666 
z
" transform="scale(0.015625)"/>
       </defs>
       <use xlink:href="#DejaVuSans-35"/>
       <use xlink:href="#DejaVuSans-30" x="63.623047"/>
       <use xlink:href="#DejaVuSans-30" x="127.246094"/>
      </g>
     </g>
    </g>
    <g id="xtick_3">
     <g id="line2d_3">
      <g>
       <use xlink:href="#m244d623100" x="299.625318" y="354.958125" style="stroke: #000000; stroke-width: 0.8"/>
      </g>
     </g>
     <g id="text_3">
      <!-- 1000 -->
      <g transform="translate(286.900318 369.556562)scale(0.1 -0.1)">
       <defs>
        <path id="DejaVuSans-31" d="M 794 531 
L 1825 531 
L 1825 4091 
L 703 3866 
L 703 4441 
L 1819 4666 
L 2450 4666 
L 2450 531 
L 3481 531 
L 3481 0 
L 794 0 
L 794 531 
z
" transform="scale(0.015625)"/>
       </defs>
       <use xlink:href="#DejaVuSans-31"/>
       <use xlink:href="#DejaVuSans-30" x="63.623047"/>
       <use xlink:href="#DejaVuSans-30" x="127.246094"/>
       <use xlink:href="#DejaVuSans-30" x="190.869141"/>
      </g>
     </g>
    </g>
    <g id="xtick_4">
     <g id="line2d_4">
      <g>
       <use xlink:href="#m244d623100" x="416.454597" y="354.958125" style="stroke: #000000; stroke-width: 0.8"/>
      </g>
     </g>
     <g id="text_4">
      <!-- 1500 -->
      <g transform="translate(403.729597 369.556562)scale(0.1 -0.1)">
       <use xlink:href="#DejaVuSans-31"/>
       <use xlink:href="#DejaVuSans-35" x="63.623047"/>
       <use xlink:href="#DejaVuSans-30" x="127.246094"/>
       <use xlink:href="#DejaVuSans-30" x="190.869141"/>
      </g>
     </g>
    </g>
    <g id="xtick_5">
     <g id="line2d_5">
      <g>
       <use xlink:href="#m244d623100" x="533.283875" y="354.958125" style="stroke: #000000; stroke-width: 0.8"/>
      </g>
     </g>
     <g id="text_5">
      <!-- 2000 -->
      <g transform="translate(520.558875 369.556562)scale(0.1 -0.1)">
       <defs>
        <path id="DejaVuSans-32" d="M 1228 531 
L 3431 531 
L 3431 0 
L 469 0 
L 469 531 
Q 828 903 1448 1529 
Q 2069 2156 2228 2338 
Q 2531 2678 2651 2914 
Q 2772 3150 2772 3378 
Q 2772 3750 2511 3984 
Q 2250 4219 1831 4219 
Q 1534 4219 1204 4116 
Q 875 4013 500 3803 
L 500 4441 
Q 881 4594 1212 4672 
Q 1544 4750 1819 4750 
Q 2544 4750 2975 4387 
Q 3406 4025 3406 3419 
Q 3406 3131 3298 2873 
Q 3191 2616 2906 2266 
Q 2828 2175 2409 1742 
Q 1991 1309 1228 531 
z
" transform="scale(0.015625)"/>
       </defs>
       <use xlink:href="#DejaVuSans-32"/>
       <use xlink:href="#DejaVuSans-30" x="63.623047"/>
       <use xlink:href="#DejaVuSans-30" x="127.246094"/>
       <use xlink:href="#DejaVuSans-30" x="190.869141"/>
      </g>
     </g>
    </g>
    <g id="text_6">
     <!-- Date -->
     <g transform="translate(307.652344 383.234687)scale(0.1 -0.1)">
      <defs>
       <path id="DejaVuSans-44" d="M 1259 4147 
L 1259 519 
L 2022 519 
Q 2988 519 3436 956 
Q 3884 1394 3884 2338 
Q 3884 3275 3436 3711 
Q 2988 4147 2022 4147 
L 1259 4147 
z
M 628 4666 
L 1925 4666 
Q 3281 4666 3915 4102 
Q 4550 3538 4550 2338 
Q 4550 1131 3912 565 
Q 3275 0 1925 0 
L 628 0 
L 628 4666 
z
" transform="scale(0.015625)"/>
       <path id="DejaVuSans-61" d="M 2194 1759 
Q 1497 1759 1228 1600 
Q 959 1441 959 1056 
Q 959 750 1161 570 
Q 1363 391 1709 391 
Q 2188 391 2477 730 
Q 2766 1069 2766 1631 
L 2766 1759 
L 2194 1759 
z
M 3341 1997 
L 3341 0 
L 2766 0 
L 2766 531 
Q 2569 213 2275 61 
Q 1981 -91 1556 -91 
Q 1019 -91 701 211 
Q 384 513 384 1019 
Q 384 1609 779 1909 
Q 1175 2209 1959 2209 
L 2766 2209 
L 2766 2266 
Q 2766 2663 2505 2880 
Q 2244 3097 1772 3097 
Q 1472 3097 1187 3025 
Q 903 2953 641 2809 
L 641 3341 
Q 956 3463 1253 3523 
Q 1550 3584 1831 3584 
Q 2591 3584 2966 3190 
Q 3341 2797 3341 1997 
z
" transform="scale(0.015625)"/>
       <path id="DejaVuSans-74" d="M 1172 4494 
L 1172 3500 
L 2356 3500 
L 2356 3053 
L 1172 3053 
L 1172 1153 
Q 1172 725 1289 603 
Q 1406 481 1766 481 
L 2356 481 
L 2356 0 
L 1766 0 
Q 1100 0 847 248 
Q 594 497 594 1153 
L 594 3053 
L 172 3053 
L 172 3500 
L 594 3500 
L 594 4494 
L 1172 4494 
z
" transform="scale(0.015625)"/>
       <path id="DejaVuSans-65" d="M 3597 1894 
L 3597 1613 
L 953 1613 
Q 991 1019 1311 708 
Q 1631 397 2203 397 
Q 2534 397 2845 478 
Q 3156 559 3463 722 
L 3463 178 
Q 3153 47 2828 -22 
Q 2503 -91 2169 -91 
Q 1331 -91 842 396 
Q 353 884 353 1716 
Q 353 2575 817 3079 
Q 1281 3584 2069 3584 
Q 2775 3584 3186 3129 
Q 3597 2675 3597 1894 
z
M 3022 2063 
Q 3016 2534 2758 2815 
Q 2500 3097 2075 3097 
Q 1594 3097 1305 2825 
Q 1016 2553 972 2059 
L 3022 2063 
z
" transform="scale(0.015625)"/>
      </defs>
      <use xlink:href="#DejaVuSans-44"/>
      <use xlink:href="#DejaVuSans-61" x="77.001953"/>
      <use xlink:href="#DejaVuSans-74" x="138.28125"/>
      <use xlink:href="#DejaVuSans-65" x="177.490234"/>
     </g>
    </g>
   </g>
   <g id="matplotlib.axis_2">
    <g id="ytick_1">
     <g id="line2d_6">
      <path d="M 40.603125 321.103937 
L 598.603125 321.103937 
" clip-path="url(#p2762bb0779)" style="fill: none; stroke: #dcdcdc; stroke-width: 0.5; stroke-linecap: square"/>
     </g>
     <g id="line2d_7">
      <defs>
       <path id="m3ec8e9a723" d="M 0 0 
L -3.5 0 
" style="stroke: #000000; stroke-width: 0.8"/>
      </defs>
      <g>
       <use xlink:href="#m3ec8e9a723" x="40.603125" y="321.103937" style="stroke: #000000; stroke-width: 0.8"/>
      </g>
     </g>
     <g id="text_7">
      <!-- 10 -->
      <g transform="translate(20.878125 324.903156)scale(0.1 -0.1)">
       <use xlink:href="#DejaVuSans-31"/>
       <use xlink:href="#DejaVuSans-30" x="63.623047"/>
      </g>
     </g>
    </g>
    <g id="ytick_2">
     <g id="line2d_8">
      <path d="M 40.603125 280.288712 
L 598.603125 280.288712 
" clip-path="url(#p2762bb0779)" style="fill: none; stroke: #dcdcdc; stroke-width: 0.5; stroke-linecap: square"/>
     </g>
     <g id="line2d_9">
      <g>
       <use xlink:href="#m3ec8e9a723" x="40.603125" y="280.288712" style="stroke: #000000; stroke-width: 0.8"/>
      </g>
     </g>
     <g id="text_8">
      <!-- 20 -->
      <g transform="translate(20.878125 284.087931)scale(0.1 -0.1)">
       <use xlink:href="#DejaVuSans-32"/>
       <use xlink:href="#DejaVuSans-30" x="63.623047"/>
      </g>
     </g>
    </g>
    <g id="ytick_3">
     <g id="line2d_10">
      <path d="M 40.603125 239.473487 
L 598.603125 239.473487 
" clip-path="url(#p2762bb0779)" style="fill: none; stroke: #dcdcdc; stroke-width: 0.5; stroke-linecap: square"/>
     </g>
     <g id="line2d_11">
      <g>
       <use xlink:href="#m3ec8e9a723" x="40.603125" y="239.473487" style="stroke: #000000; stroke-width: 0.8"/>
      </g>
     </g>
     <g id="text_9">
      <!-- 30 -->
      <g transform="translate(20.878125 243.272706)scale(0.1 -0.1)">
       <defs>
        <path id="DejaVuSans-33" d="M 2597 2516 
Q 3050 2419 3304 2112 
Q 3559 1806 3559 1356 
Q 3559 666 3084 287 
Q 2609 -91 1734 -91 
Q 1441 -91 1130 -33 
Q 819 25 488 141 
L 488 750 
Q 750 597 1062 519 
Q 1375 441 1716 441 
Q 2309 441 2620 675 
Q 2931 909 2931 1356 
Q 2931 1769 2642 2001 
Q 2353 2234 1838 2234 
L 1294 2234 
L 1294 2753 
L 1863 2753 
Q 2328 2753 2575 2939 
Q 2822 3125 2822 3475 
Q 2822 3834 2567 4026 
Q 2313 4219 1838 4219 
Q 1578 4219 1281 4162 
Q 984 4106 628 3988 
L 628 4550 
Q 988 4650 1302 4700 
Q 1616 4750 1894 4750 
Q 2613 4750 3031 4423 
Q 3450 4097 3450 3541 
Q 3450 3153 3228 2886 
Q 3006 2619 2597 2516 
z
" transform="scale(0.015625)"/>
       </defs>
       <use xlink:href="#DejaVuSans-33"/>
       <use xlink:href="#DejaVuSans-30" x="63.623047"/>
      </g>
     </g>
    </g>
    <g id="ytick_4">
     <g id="line2d_12">
      <path d="M 40.603125 198.658263 
L 598.603125 198.658263 
" clip-path="url(#p2762bb0779)" style="fill: none; stroke: #dcdcdc; stroke-width: 0.5; stroke-linecap: square"/>
     </g>
     <g id="line2d_13">
      <g>
       <use xlink:href="#m3ec8e9a723" x="40.603125" y="198.658263" style="stroke: #000000; stroke-width: 0.8"/>
      </g>
     </g>
     <g id="text_10">
      <!-- 40 -->
      <g transform="translate(20.878125 202.457481)scale(0.1 -0.1)">
       <defs>
        <path id="DejaVuSans-34" d="M 2419 4116 
L 825 1625 
L 2419 1625 
L 2419 4116 
z
M 2253 4666 
L 3047 4666 
L 3047 1625 
L 3713 1625 
L 3713 1100 
L 3047 1100 
L 3047 0 
L 2419 0 
L 2419 1100 
L 313 1100 
L 313 1709 
L 2253 4666 
z
" transform="scale(0.015625)"/>
       </defs>
       <use xlink:href="#DejaVuSans-34"/>
       <use xlink:href="#DejaVuSans-30" x="63.623047"/>
      </g>
     </g>
    </g>
    <g id="ytick_5">
     <g id="line2d_14">
      <path d="M 40.603125 157.843038 
L 598.603125 157.843038 
" clip-path="url(#p2762bb0779)" style="fill: none; stroke: #dcdcdc; stroke-width: 0.5; stroke-linecap: square"/>
     </g>
     <g id="line2d_15">
      <g>
       <use xlink:href="#m3ec8e9a723" x="40.603125" y="157.843038" style="stroke: #000000; stroke-width: 0.8"/>
      </g>
     </g>
     <g id="text_11">
      <!-- 50 -->
      <g transform="translate(20.878125 161.642257)scale(0.1 -0.1)">
       <use xlink:href="#DejaVuSans-35"/>
       <use xlink:href="#DejaVuSans-30" x="63.623047"/>
      </g>
     </g>
    </g>
    <g id="ytick_6">
     <g id="line2d_16">
      <path d="M 40.603125 117.027813 
L 598.603125 117.027813 
" clip-path="url(#p2762bb0779)" style="fill: none; stroke: #dcdcdc; stroke-width: 0.5; stroke-linecap: square"/>
     </g>
     <g id="line2d_17">
      <g>
       <use xlink:href="#m3ec8e9a723" x="40.603125" y="117.027813" style="stroke: #000000; stroke-width: 0.8"/>
      </g>
     </g>
     <g id="text_12">
      <!-- 60 -->
      <g transform="translate(20.878125 120.827032)scale(0.1 -0.1)">
       <defs>
        <path id="DejaVuSans-36" d="M 2113 2584 
Q 1688 2584 1439 2293 
Q 1191 2003 1191 1497 
Q 1191 994 1439 701 
Q 1688 409 2113 409 
Q 2538 409 2786 701 
Q 3034 994 3034 1497 
Q 3034 2003 2786 2293 
Q 2538 2584 2113 2584 
z
M 3366 4563 
L 3366 3988 
Q 3128 4100 2886 4159 
Q 2644 4219 2406 4219 
Q 1781 4219 1451 3797 
Q 1122 3375 1075 2522 
Q 1259 2794 1537 2939 
Q 1816 3084 2150 3084 
Q 2853 3084 3261 2657 
Q 3669 2231 3669 1497 
Q 3669 778 3244 343 
Q 2819 -91 2113 -91 
Q 1303 -91 875 529 
Q 447 1150 447 2328 
Q 447 3434 972 4092 
Q 1497 4750 2381 4750 
Q 2619 4750 2861 4703 
Q 3103 4656 3366 4563 
z
" transform="scale(0.015625)"/>
       </defs>
       <use xlink:href="#DejaVuSans-36"/>
       <use xlink:href="#DejaVuSans-30" x="63.623047"/>
      </g>
     </g>
    </g>
    <g id="ytick_7">
     <g id="line2d_18">
      <path d="M 40.603125 76.212588 
L 598.603125 76.212588 
" clip-path="url(#p2762bb0779)" style="fill: none; stroke: #dcdcdc; stroke-width: 0.5; stroke-linecap: square"/>
     </g>
     <g id="line2d_19">
      <g>
       <use xlink:href="#m3ec8e9a723" x="40.603125" y="76.212588" style="stroke: #000000; stroke-width: 0.8"/>
      </g>
     </g>
     <g id="text_13">
      <!-- 70 -->
      <g transform="translate(20.878125 80.011807)scale(0.1 -0.1)">
       <defs>
        <path id="DejaVuSans-37" d="M 525 4666 
L 3525 4666 
L 3525 4397 
L 1831 0 
L 1172 0 
L 2766 4134 
L 525 4134 
L 525 4666 
z
" transform="scale(0.015625)"/>
       </defs>
       <use xlink:href="#DejaVuSans-37"/>
       <use xlink:href="#DejaVuSans-30" x="63.623047"/>
      </g>
     </g>
    </g>
    <g id="ytick_8">
     <g id="line2d_20">
      <path d="M 40.603125 35.397364 
L 598.603125 35.397364 
" clip-path="url(#p2762bb0779)" style="fill: none; stroke: #dcdcdc; stroke-width: 0.5; stroke-linecap: square"/>
     </g>
     <g id="line2d_21">
      <g>
       <use xlink:href="#m3ec8e9a723" x="40.603125" y="35.397364" style="stroke: #000000; stroke-width: 0.8"/>
      </g>
     </g>
     <g id="text_14">
      <!-- 80 -->
      <g transform="translate(20.878125 39.196583)scale(0.1 -0.1)">
       <defs>
        <path id="DejaVuSans-38" d="M 2034 2216 
Q 1584 2216 1326 1975 
Q 1069 1734 1069 1313 
Q 1069 891 1326 650 
Q 1584 409 2034 409 
Q 2484 409 2743 651 
Q 3003 894 3003 1313 
Q 3003 1734 2745 1975 
Q 2488 2216 2034 2216 
z
M 1403 2484 
Q 997 2584 770 2862 
Q 544 3141 544 3541 
Q 544 4100 942 4425 
Q 1341 4750 2034 4750 
Q 2731 4750 3128 4425 
Q 3525 4100 3525 3541 
Q 3525 3141 3298 2862 
Q 3072 2584 2669 2484 
Q 3125 2378 3379 2068 
Q 3634 1759 3634 1313 
Q 3634 634 3220 271 
Q 2806 -91 2034 -91 
Q 1263 -91 848 271 
Q 434 634 434 1313 
Q 434 1759 690 2068 
Q 947 2378 1403 2484 
z
M 1172 3481 
Q 1172 3119 1398 2916 
Q 1625 2713 2034 2713 
Q 2441 2713 2670 2916 
Q 2900 3119 2900 3481 
Q 2900 3844 2670 4047 
Q 2441 4250 2034 4250 
Q 1625 4250 1398 4047 
Q 1172 3844 1172 3481 
z
" transform="scale(0.015625)"/>
       </defs>
       <use xlink:href="#DejaVuSans-38"/>
       <use xlink:href="#DejaVuSans-30" x="63.623047"/>
      </g>
     </g>
    </g>
    <g id="text_15">
     <!-- Price (USD) -->
     <g transform="translate(14.798437 217.01)rotate(-90)scale(0.1 -0.1)">
      <defs>
       <path id="DejaVuSans-50" d="M 1259 4147 
L 1259 2394 
L 2053 2394 
Q 2494 2394 2734 2622 
Q 2975 2850 2975 3272 
Q 2975 3691 2734 3919 
Q 2494 4147 2053 4147 
L 1259 4147 
z
M 628 4666 
L 2053 4666 
Q 2838 4666 3239 4311 
Q 3641 3956 3641 3272 
Q 3641 2581 3239 2228 
Q 2838 1875 2053 1875 
L 1259 1875 
L 1259 0 
L 628 0 
L 628 4666 
z
" transform="scale(0.015625)"/>
       <path id="DejaVuSans-72" d="M 2631 2963 
Q 2534 3019 2420 3045 
Q 2306 3072 2169 3072 
Q 1681 3072 1420 2755 
Q 1159 2438 1159 1844 
L 1159 0 
L 581 0 
L 581 3500 
L 1159 3500 
L 1159 2956 
Q 1341 3275 1631 3429 
Q 1922 3584 2338 3584 
Q 2397 3584 2469 3576 
Q 2541 3569 2628 3553 
L 2631 2963 
z
" transform="scale(0.015625)"/>
       <path id="DejaVuSans-69" d="M 603 3500 
L 1178 3500 
L 1178 0 
L 603 0 
L 603 3500 
z
M 603 4863 
L 1178 4863 
L 1178 4134 
L 603 4134 
L 603 4863 
z
" transform="scale(0.015625)"/>
       <path id="DejaVuSans-63" d="M 3122 3366 
L 3122 2828 
Q 2878 2963 2633 3030 
Q 2388 3097 2138 3097 
Q 1578 3097 1268 2742 
Q 959 2388 959 1747 
Q 959 1106 1268 751 
Q 1578 397 2138 397 
Q 2388 397 2633 464 
Q 2878 531 3122 666 
L 3122 134 
Q 2881 22 2623 -34 
Q 2366 -91 2075 -91 
Q 1284 -91 818 406 
Q 353 903 353 1747 
Q 353 2603 823 3093 
Q 1294 3584 2113 3584 
Q 2378 3584 2631 3529 
Q 2884 3475 3122 3366 
z
" transform="scale(0.015625)"/>
       <path id="DejaVuSans-20" transform="scale(0.015625)"/>
       <path id="DejaVuSans-28" d="M 1984 4856 
Q 1566 4138 1362 3434 
Q 1159 2731 1159 2009 
Q 1159 1288 1364 580 
Q 1569 -128 1984 -844 
L 1484 -844 
Q 1016 -109 783 600 
Q 550 1309 550 2009 
Q 550 2706 781 3412 
Q 1013 4119 1484 4856 
L 1984 4856 
z
" transform="scale(0.015625)"/>
       <path id="DejaVuSans-55" d="M 556 4666 
L 1191 4666 
L 1191 1831 
Q 1191 1081 1462 751 
Q 1734 422 2344 422 
Q 2950 422 3222 751 
Q 3494 1081 3494 1831 
L 3494 4666 
L 4128 4666 
L 4128 1753 
Q 4128 841 3676 375 
Q 3225 -91 2344 -91 
Q 1459 -91 1007 375 
Q 556 841 556 1753 
L 556 4666 
z
" transform="scale(0.015625)"/>
       <path id="DejaVuSans-53" d="M 3425 4513 
L 3425 3897 
Q 3066 4069 2747 4153 
Q 2428 4238 2131 4238 
Q 1616 4238 1336 4038 
Q 1056 3838 1056 3469 
Q 1056 3159 1242 3001 
Q 1428 2844 1947 2747 
L 2328 2669 
Q 3034 2534 3370 2195 
Q 3706 1856 3706 1288 
Q 3706 609 3251 259 
Q 2797 -91 1919 -91 
Q 1588 -91 1214 -16 
Q 841 59 441 206 
L 441 856 
Q 825 641 1194 531 
Q 1563 422 1919 422 
Q 2459 422 2753 634 
Q 3047 847 3047 1241 
Q 3047 1584 2836 1778 
Q 2625 1972 2144 2069 
L 1759 2144 
Q 1053 2284 737 2584 
Q 422 2884 422 3419 
Q 422 4038 858 4394 
Q 1294 4750 2059 4750 
Q 2388 4750 2728 4690 
Q 3069 4631 3425 4513 
z
" transform="scale(0.015625)"/>
       <path id="DejaVuSans-29" d="M 513 4856 
L 1013 4856 
Q 1481 4119 1714 3412 
Q 1947 2706 1947 2009 
Q 1947 1309 1714 600 
Q 1481 -109 1013 -844 
L 513 -844 
Q 928 -128 1133 580 
Q 1338 1288 1338 2009 
Q 1338 2731 1133 3434 
Q 928 4138 513 4856 
z
" transform="scale(0.015625)"/>
      </defs>
      <use xlink:href="#DejaVuSans-50"/>
      <use xlink:href="#DejaVuSans-72" x="58.552734"/>
      <use xlink:href="#DejaVuSans-69" x="99.666016"/>
      <use xlink:href="#DejaVuSans-63" x="127.449219"/>
      <use xlink:href="#DejaVuSans-65" x="182.429688"/>
      <use xlink:href="#DejaVuSans-20" x="243.953125"/>
      <use xlink:href="#DejaVuSans-28" x="275.740234"/>
      <use xlink:href="#DejaVuSans-55" x="314.753906"/>
      <use xlink:href="#DejaVuSans-53" x="387.947266"/>
      <use xlink:href="#DejaVuSans-44" x="451.423828"/>
      <use xlink:href="#DejaVuSans-29" x="528.425781"/>
     </g>
    </g>
   </g>
   <g id="line2d_22">
    <path d="M 69.47164 145.190318 
L 69.705298 141.394502 
L 69.938957 146.414775 
L 70.172615 145.190318 
L 70.406274 151.965646 
L 70.639933 150.90445 
L 70.873591 145.884177 
L 71.10725 143.843416 
L 71.340908 143.680155 
L 71.574567 143.108742 
L 71.808225 138.374176 
L 72.275542 136.45586 
M 80.920909 149.557547 
L 81.154568 145.312764 
L 81.388226 145.639286 
L 81.855543 150.169776 
L 82.089202 148.537167 
L 82.32286 145.394394 
M 96.576032 122.292977 
L 96.809691 126.170424 
L 97.043349 122.741945 
L 97.510667 125.313304 
L 97.744325 121.435857 
L 97.977984 123.72151 
L 98.211642 124.374554 
L 98.445301 123.966401 
M 116.203351 121.06852 
L 116.43701 118.374716 
L 116.670668 120.211401 
L 116.904327 125.803087 
L 117.137985 119.803248 
L 117.371644 120.782814 
L 117.605302 115.191128 
L 117.838961 112.86466 
M 122.745791 102.538408 
L 123.213108 106.45667 
L 123.446766 105.844442 
L 123.680425 105.59955 
L 123.914084 102.7833 
L 124.147742 102.905745 
L 124.381401 103.599604 
L 124.615059 100.334386 
L 124.848718 101.06906 
L 125.316035 100.701723 
L 125.549693 97.885473 
L 126.017011 88.742862 
M 126.484328 84.824601 
L 126.717986 82.294057 
M 133.260426 69.069924 
L 133.494084 73.192262 
L 133.727743 73.477968 
L 133.961401 70.98824 
L 134.428719 61.763999 
L 134.662377 65.151663 
L 134.896036 65.396554 
L 135.597011 60.335466 
L 135.83067 60.294651 
L 136.064328 61.151771 
L 136.297987 57.029433 
L 136.531646 56.335574 
L 136.998963 57.151879 
L 137.232621 58.049813 
L 137.46628 56.049867 
M 161.299453 122.986836 
L 161.533111 133.272273 
M 167.374575 139.598632 
L 167.608234 142.169992 
M 174.851649 123.435803 
L 175.085307 122.252162 
M 183.029698 124.129662 
L 183.263357 122.497053 
L 183.497016 125.313304 
L 183.730674 125.843902 
L 183.964333 118.497161 
L 184.197991 116.782922 
L 184.43165 120.497107 
L 184.665308 114.129932 
L 184.898967 115.762541 
L 185.132625 110.579008 
M 186.06726 104.619985 
L 186.300918 96.865092 
M 213.405311 206.209079 
L 213.638969 204.372394 
L 213.872628 204.902992 
L 214.106287 211.923211 
L 214.339945 213.229298 
L 214.807262 207.841688 
M 238.173118 282.084582 
L 238.406776 279.105071 
L 238.874094 283.4723 
L 239.107752 274.084798 
M 242.61263 256.779143 
L 242.846289 253.881262 
L 243.079948 256.452621 
L 243.313606 255.43224 
L 243.547265 254.983273 
L 243.780923 249.922185 
L 244.24824 255.595501 
L 244.481899 254.207784 
L 244.715557 249.432402 
L 244.949216 249.269141 
L 245.182875 244.49376 
M 249.622387 234.57566 
L 249.856046 233.759356 
L 250.089704 239.310226 
L 250.557021 229.10642 
L 250.79068 228.412561 
L 251.024339 229.188051 
L 251.491656 220.576038 
M 262.940925 214.453755 
L 263.174583 214.453755 
L 263.408242 205.678481 
L 263.641901 215.35169 
L 263.875559 214.49457 
L 264.109218 206.821308 
L 264.576535 200.658209 
L 264.810193 197.841958 
L 265.27751 200.413317 
M 278.596048 207.270275 
L 278.829707 208.08658 
M 283.035561 187.842228 
L 283.269219 189.842174 
M 318.318003 238.738813 
L 318.551661 241.350988 
L 318.78532 240.575498 
L 319.018979 237.31028 
M 325.094101 236.779683 
L 325.32776 238.738813 
M 326.262394 235.473595 
L 326.496052 234.902182 
L 326.729711 234.738921 
L 326.96337 235.677671 
L 327.197028 235.43278 
L 327.430687 235.555226 
L 327.664345 233.759356 
L 327.898004 230.861475 
L 328.131662 230.779845 
L 328.365321 228.535007 
L 328.598979 229.718649 
L 328.832638 233.473649 
L 329.299955 230.616584 
L 329.533614 225.147344 
M 334.440443 216.576146 
L 334.674102 215.51495 
L 334.90776 215.596581 
L 335.141419 216.086364 
L 335.608736 219.269951 
L 335.842395 219.351582 
L 336.076053 220.494408 
L 336.309712 219.718919 
M 343.08581 205.270329 
L 343.319469 211.392613 
L 343.553127 210.290602 
L 343.786786 206.617231 
L 344.020444 204.821362 
L 344.254103 205.147883 
L 344.487761 206.331525 
L 344.72142 206.821308 
L 344.955078 208.127395 
L 345.188737 206.576416 
L 345.422396 203.964242 
L 345.656054 199.311306 
M 361.544836 238.044955 
L 361.778495 233.881802 
M 362.47947 233.55528 
L 362.713129 233.473649 
M 363.881422 224.698376 
L 364.11508 224.412669 
M 364.582397 216.249625 
L 364.816056 217.433266 
L 365.049714 217.31082 
L 365.283373 221.188267 
L 365.75069 215.882288 
L 365.984349 216.004733 
L 366.218007 213.63745 
L 366.451666 214.168048 
L 366.685324 205.882557 
L 366.918983 210.086526 
L 367.152641 207.351906 
M 404.304352 270.044091 
L 404.53801 272.493004 
L 404.771669 276.28882 
L 405.005328 269.227786 
L 405.238986 268.452297 
L 405.472645 270.248167 
L 405.706303 269.921645 
L 405.939962 267.187025 
L 406.17362 265.921753 
L 406.407279 261.636154 
M 411.781426 258.656643 
L 412.015084 260.207622 
L 412.482401 255.962838 
M 416.454597 252.901696 
L 416.688255 248.452837 
M 430.006793 259.228056 
L 430.240452 257.799523 
M 430.707769 257.921969 
L 430.941427 257.309741 
L 431.175086 257.064849 
L 431.408745 255.309795 
L 431.642403 255.391425 
M 443.792648 273.431754 
L 444.026307 273.880722 
L 444.259965 274.819472 
L 444.493624 272.452189 
M 459.68143 272.574635 
L 459.915088 272.819526 
L 460.148747 274.533765 
L 460.382406 270.533873 
L 460.616064 271.839961 
L 460.849723 267.472732 
L 461.083381 267.431916 
L 461.31704 266.329905 
L 461.550698 266.329905 
M 462.018015 266.085014 
L 462.251674 264.574851 
M 476.972163 339.838125 
L 477.205822 335.185189 
L 477.43948 337.103505 
L 477.673139 336.695353 
M 478.607773 336.246385 
L 478.841432 336.001494 
M 479.308749 334.205624 
L 479.542407 330.124102 
M 480.477042 323.512035 
L 480.7107 322.450839 
M 481.645334 328.899645 
L 481.878993 324.287524 
L 482.112651 324.532416 
L 482.34631 324.981383 
M 512.254605 326.695623 
L 512.488264 323.797742 
M 512.955581 325.960949 
L 513.189239 326.450731 
L 513.422898 328.85883 
L 513.890215 325.471166 
L 514.123874 323.430405 
L 514.824849 320.899861 
L 515.058508 322.042687 
M 515.993142 316.124479 
L 516.226801 313.838827 
M 521.834606 298.124965 
L 522.301923 301.390183 
L 522.535582 298.00252 
L 522.76924 299.349422 
L 523.002899 299.267792 
L 523.236557 299.431053 
M 527.442411 293.145508 
L 527.67607 291.67616 
M 528.143387 294.737302 
L 528.610704 292.69654 
L 528.844363 287.635453 
M 529.31168 288.859909 
L 529.545338 285.390615 
L 529.778997 284.900833 
M 530.246314 283.145778 
L 530.479973 280.370343 
M 540.527291 272.61545 
L 540.760949 272.003222 
L 540.994608 276.329635 
L 541.228266 275.513331 
L 541.461925 276.20719 
L 542.162901 271.554254 
M 544.499486 256.860773 
L 544.733145 257.513817 
L 544.966803 260.90148 
L 545.200462 254.248599 
M 545.667779 254.820012 
L 545.901437 258.738273 
L 546.135096 258.819904 
L 546.368755 258.452567 
M 563.659488 243.310119 
L 563.893146 246.697782 
L 564.126805 245.799847 
L 564.360463 247.350826 
L 564.594122 243.881532 
L 564.827781 246.534521 
L 565.061439 238.126585 
L 565.295098 238.208215 
L 565.528756 240.330607 
L 565.762415 246.901858 
L 565.996073 245.636586 
L 566.46339 228.045224 
L 566.697049 226.861583 
L 566.930708 219.065875 
L 567.164366 218.535277 
L 567.398025 216.004733 
L 567.631683 216.984299 
M 572.071196 200.250056 
" clip-path="url(#p2762bb0779)" style="fill: none; stroke: #00ff7f; stroke-linecap: square"/>
   </g>
   <g id="line2d_23">
    <path d="M 75.546762 116.333954 
L 75.780421 120.497107 
M 78.350665 129.884609 
L 78.584323 132.455968 
M 100.314569 95.314114 
L 100.548228 94.497809 
L 100.781886 100.293571 
M 105.455057 105.803626 
L 105.688716 106.415855 
L 105.922375 106.5383 
M 144.476037 41.519647 
L 144.709695 39.356441 
L 145.177012 44.295083 
M 149.382866 56.213128 
L 149.616525 59.27427 
L 149.850183 57.029433 
M 150.784818 54.090737 
L 151.018476 59.559977 
L 151.252135 59.151825 
M 153.121403 75.110577 
L 153.355062 68.661772 
L 153.58872 69.804598 
L 153.822379 69.845413 
L 154.056037 72.253512 
L 154.289696 76.294219 
L 154.523354 76.579926 
L 154.757013 75.886067 
L 154.990672 81.518568 
L 155.22433 79.151285 
L 155.457989 77.926828 
L 155.691647 83.640959 
M 164.103355 97.31406 
L 164.337014 89.436721 
L 164.570672 87.640851 
L 164.804331 91.355037 
L 165.03799 97.518136 
M 177.655552 90.620363 
L 177.88921 89.885689 
L 178.122869 100.905799 
L 178.356527 99.028299 
L 178.590186 101.436397 
L 178.823844 100.905799 
L 179.291162 94.783516 
M 193.310675 86.375579 
L 193.544333 86.53884 
L 193.777992 91.355037 
M 196.348236 101.477213 
L 196.815553 109.395366 
L 197.049212 110.374932 
L 197.28287 106.987268 
L 197.516529 110.334116 
L 197.750188 111.150421 
L 197.983846 113.068736 
L 198.217505 111.517758 
L 198.451163 111.191236 
L 198.684822 112.578954 
L 198.91848 115.476835 
L 199.152139 115.150313 
L 199.385797 121.84401 
L 199.619456 119.10939 
L 199.853115 126.292869 
L 200.086773 125.721456 
L 200.320432 130.578468 
L 200.55409 127.966293 
L 200.787749 135.190588 
L 201.021407 133.598794 
L 201.255066 133.966131 
L 201.488724 135.802817 
L 201.722383 132.78249 
L 201.956042 138.088469 
L 202.1897 140.006785 
M 204.526286 155.353309 
L 204.993603 164.536735 
L 205.227261 162.985756 
L 205.46092 170.291681 
L 205.694578 164.781626 
M 222.284336 172.128367 
L 222.517995 174.536465 
L 222.751653 169.801899 
L 223.21897 177.23027 
L 223.452629 178.536357 
L 223.686287 171.92429 
L 223.919946 174.536465 
L 224.153604 178.781248 
L 224.387263 174.128313 
L 224.620922 172.169182 
L 225.088239 194.168588 
L 225.321897 196.495056 
M 228.359458 226.412615 
L 228.593117 228.453377 
L 228.826776 232.575714 
L 229.060434 230.330877 
M 233.733605 252.575175 
L 233.967264 248.044685 
L 234.434581 261.146372 
L 234.66824 253.391479 
L 234.901898 253.513925 
M 267.380438 177.3119 
L 267.614096 180.250596 
M 268.315072 178.209835 
L 268.54873 180.536303 
M 275.09117 180.740379 
L 275.324828 181.76076 
L 275.558487 180.04652 
M 297.75605 179.760814 
L 297.989708 184.49538 
L 298.223367 184.985162 
L 298.457026 182.577064 
L 298.690684 184.128043 
M 304.29849 186.168804 
L 304.765807 191.025816 
L 304.999465 196.005273 
M 308.971661 207.270275 
L 309.205319 204.617285 
L 309.438978 207.025384 
L 309.672636 207.392721 
L 309.906295 206.168264 
L 310.139953 207.147829 
L 310.607271 211.310982 
L 310.840929 205.229514 
L 311.308246 207.555982 
L 311.541905 210.372232 
M 321.822881 225.310604 
L 322.05654 226.3718 
L 322.290198 225.963648 
M 332.337516 212.086472 
L 332.804833 212.821146 
M 338.412639 195.148153 
L 338.646297 193.515544 
L 338.879956 197.597067 
M 349.160932 182.168912 
L 349.394591 185.352499 
L 349.62825 184.617825 
L 350.095567 187.025924 
L 350.329225 179.02614 
L 350.562884 180.209781 
L 350.796542 180.209781 
L 351.030201 182.69951 
L 351.263859 182.903586 
L 351.497518 185.066793 
L 351.731177 192.454349 
L 351.964835 193.066577 
L 352.198494 189.597283 
L 352.665811 204.168318 
L 352.899469 205.270329 
L 353.133128 211.882395 
M 380.471179 177.638422 
L 380.704838 180.087335 
L 380.938496 178.005759 
L 381.172155 178.209835 
M 389.817521 196.413425 
L 390.05118 192.331903 
L 390.284838 192.903316 
M 390.985814 198.903154 
L 391.219473 197.841958 
L 391.453131 199.229676 
L 391.68679 196.005273 
L 391.920448 198.08685 
L 392.154107 198.495002 
L 392.387766 203.63772 
L 392.621424 200.658209 
L 392.855083 209.678373 
M 396.827278 230.167616 
L 397.060937 226.820768 
L 397.294595 227.514627 
L 397.528254 223.718811 
L 397.761912 228.371746 
L 397.995571 227.188105 
M 401.033132 252.085392 
L 401.266791 251.595609 
L 401.500449 244.49376 
L 402.201425 250.90175 
M 423.464354 218.412831 
L 423.698012 220.698484 
L 423.931671 221.147451 
M 425.800939 233.392019 
L 426.034598 235.187889 
L 426.268256 233.228758 
L 426.501915 234.371584 
L 426.735573 234.126693 
L 426.969232 239.800009 
L 427.202891 236.37153 
L 427.436549 235.677671 
L 427.670208 234.167508 
L 428.137525 239.351042 
L 428.371183 234.902182 
L 428.604842 242.289738 
M 434.212647 244.657021 
L 434.446306 246.412076 
M 438.65216 253.718001 
L 438.885818 257.554632 
L 439.119477 257.677078 
M 439.586794 252.207838 
L 439.820453 251.718055 
M 447.297526 247.14675 
L 447.531185 253.024142 
L 447.764844 253.758816 
L 447.998502 255.962838 
L 448.232161 255.35061 
L 448.465819 256.493436 
L 448.699478 261.023926 
L 448.933136 261.064741 
L 449.400453 262.942242 
L 449.634112 263.717731 
L 449.867771 267.472732 
M 465.289235 254.126153 
L 465.522894 253.799631 
L 465.756552 257.636262 
L 465.990211 256.411806 
L 466.22387 259.472948 
L 466.457528 258.411752 
L 466.691187 254.860827 
M 469.962406 272.69708 
L 470.196065 266.37072 
L 470.897041 269.921645 
L 471.130699 269.268601 
L 471.364358 266.982949 
L 471.598016 266.819688 
L 472.065333 271.472624 
L 472.298992 269.186971 
L 472.532651 271.513439 
L 472.766309 276.329635 
L 473.233626 289.349692 
L 473.700943 297.961704 
L 473.934602 295.635237 
L 474.16826 295.34953 
L 474.401919 297.471922 
L 474.635578 295.553606 
L 474.869236 296.818878 
M 490.057042 297.594367 
L 490.290701 302.53301 
M 491.458994 307.634913 
L 491.692652 310.369533 
L 491.926311 309.063446 
L 492.159969 309.104261 
L 492.393628 310.083826 
M 501.73997 315.634697 
L 501.973629 316.655077 
L 502.207287 318.287686 
M 502.674604 317.920349 
L 502.908263 317.104045 
M 504.076556 317.389751 
L 504.310214 318.410132 
M 552.911194 239.636748 
" clip-path="url(#p2762bb0779)" style="fill: none; stroke: #ff4500; stroke-linecap: square"/>
   </g>
   <g id="line2d_24">
    <path d="M 65.966761 128.007109 
L 66.20042 129.19075 
L 66.434078 128.415261 
L 66.667737 128.700967 
L 67.368713 137.639502 
L 67.602371 142.129176 
L 67.83603 144.006677 
L 69.004323 131.149881 
L 69.237981 137.231349 
M 72.509201 130.741729 
L 72.74286 124.57863 
L 72.976518 123.558249 
L 73.210177 124.701075 
L 73.443835 123.435803 
L 73.677494 123.599064 
L 73.911152 120.374662 
L 74.144811 120.415477 
L 74.378469 119.272651 
L 74.845787 124.252108 
L 75.079445 121.966455 
L 75.313104 117.599226 
M 76.014079 124.007217 
L 76.247738 125.843902 
L 76.715055 122.497053 
L 76.948714 123.599064 
L 77.182372 129.884609 
L 77.416031 127.027543 
M 77.883348 130.741729 
L 78.117006 134.047762 
M 78.817982 136.37423 
L 79.051641 139.312926 
L 79.285299 137.272165 
L 79.518958 140.210861 
L 79.752616 137.435426 
L 79.986275 136.210969 
L 80.453592 146.782112 
L 80.68725 143.843416 
M 82.556519 143.557709 
L 82.790177 139.231295 
L 83.023836 138.1701 
L 83.257495 134.945697 
L 83.491153 136.333415 
L 83.724812 133.476349 
L 83.95847 134.782436 
L 84.192129 132.945751 
L 84.425787 132.578414 
L 84.659446 132.660044 
L 84.893104 130.170316 
L 85.126763 125.639826 
L 85.360422 128.088739 
L 85.59408 127.639772 
L 85.827739 131.966185 
L 86.061397 131.313142 
L 86.295056 134.006947 
L 86.528714 138.496621 
L 86.996031 137.39461 
L 87.22969 132.007001 
L 87.463349 133.517164 
L 87.697007 133.353903 
L 87.930666 134.170208 
L 88.164324 130.578468 
L 88.397983 122.456238 
L 88.631641 123.150097 
L 89.098959 127.027543 
L 89.332617 125.394934 
L 89.566276 125.109228 
L 90.033593 131.558033 
L 90.267251 131.190696 
L 90.50091 133.027381 
L 90.968227 124.66026 
L 91.201886 124.905152 
L 91.435544 129.435642 
L 91.669203 127.231619 
M 92.13652 128.905044 
L 92.370178 128.33363 
L 92.603837 127.231619 
L 92.837495 122.211347 
L 93.071154 123.63988 
L 93.304813 121.027705 
L 93.538471 122.333792 
L 93.77213 120.578738 
L 94.005788 121.517488 
L 94.473105 124.741891 
L 94.940422 117.762487 
L 95.40774 118.905314 
L 95.641398 118.742053 
L 95.875057 118.129824 
L 96.108715 119.068574 
L 96.342374 119.19102 
M 98.678959 115.884987 
L 98.912618 113.762595 
L 99.146276 113.191182 
L 99.379935 113.068736 
L 99.613594 106.864822 
L 99.847252 104.905691 
L 100.080911 103.926126 
M 101.015545 98.660962 
L 101.249203 98.497701 
L 101.482862 100.579278 
M 101.950179 103.109822 
L 102.183838 103.885311 
L 102.417496 102.089441 
L 102.651155 98.824223 
L 102.884813 101.558843 
L 103.35213 118.007379 
L 103.585789 116.578846 
L 103.819448 114.129932 
L 104.053106 117.721672 
L 104.286765 114.5789 
L 104.520423 113.680965 
L 104.754082 115.068682 
L 104.98774 117.884933 
L 105.221399 105.721996 
M 106.156033 110.497377 
L 106.389692 111.84428 
L 106.62335 114.701345 
L 106.857009 114.497269 
L 107.090667 114.823791 
L 107.324326 111.109606 
L 107.557985 113.72178 
L 107.791643 111.476943 
L 108.025302 115.068682 
L 108.492619 113.680965 
L 108.726277 118.782868 
L 109.193594 120.211401 
L 109.427253 115.395204 
L 109.660912 118.456346 
L 109.89457 119.721618 
L 110.128229 113.966671 
L 110.361887 113.191182 
L 110.595546 113.72178 
L 110.829204 111.885095 
L 111.062863 112.456508 
L 111.296521 110.13004 
L 111.763839 109.395366 
L 111.997497 112.293247 
L 112.231156 112.823845 
L 112.464814 116.007433 
L 112.698473 110.98716 
L 112.932131 111.681019 
L 113.16579 113.844226 
L 113.399448 114.864606 
L 113.633107 120.374662 
L 113.866766 117.925748 
L 114.100424 120.252216 
L 114.334083 119.599172 
L 114.567741 121.06852 
L 115.035058 115.354389 
L 115.268717 116.538031 
L 115.736034 122.456238 
L 115.969693 119.925694 
M 118.07262 113.762595 
L 118.306278 110.742269 
L 118.539937 112.211617 
L 118.773595 107.762757 
L 119.007254 108.660692 
L 119.240912 105.150583 
L 119.474571 99.681343 
L 119.708229 98.416071 
L 119.941888 102.048626 
L 120.175547 99.19156 
L 120.409205 101.06906 
L 120.642864 101.803734 
L 120.876522 99.436451 
L 121.110181 98.987484 
L 121.343839 101.599658 
L 121.577498 98.089549 
L 121.811156 98.783408 
L 122.044815 98.579332 
L 122.278474 96.089603 
L 122.512132 98.538516 
M 126.951645 84.334818 
L 127.185303 86.212319 
L 127.418962 84.987862 
L 127.65262 82.824655 
L 127.886279 81.885905 
L 128.119938 86.212319 
L 128.353596 85.232753 
L 129.054572 73.355523 
L 129.28823 74.171827 
L 129.521889 73.641229 
L 129.989206 68.416881 
L 130.222865 74.57998 
L 130.456523 75.069762 
L 130.690182 74.253458 
L 130.92384 76.212588 
L 131.157499 76.661556 
L 131.391157 75.069762 
L 131.624816 74.784056 
L 131.858474 75.437099 
L 132.092133 63.72313 
L 132.325792 72.171881 
L 132.55945 73.233077 
L 132.793109 71.967805 
L 133.026767 66.294489 
M 137.699938 50.009214 
L 137.933597 47.641931 
L 138.167255 43.397148 
L 138.400914 42.621659 
L 138.634573 43.070626 
L 138.868231 43.070626 
L 139.335548 39.682962 
L 139.569207 40.009484 
L 139.802865 45.315463 
L 140.036524 37.601386 
L 140.270182 41.111495 
L 140.503841 37.438125 
L 140.7375 37.846277 
L 140.971158 39.152364 
L 141.204817 41.193126 
L 141.438475 38.621767 
L 141.672134 42.417582 
L 141.905792 42.988996 
L 142.139451 37.846277 
L 142.606768 47.111333 
L 142.840427 44.335898 
L 143.074085 49.682692 
L 143.307744 44.009376 
L 143.541402 52.784649 
L 143.775061 47.601116 
L 144.008719 47.152148 
L 144.242378 42.94818 
M 145.410671 46.009322 
L 145.644329 46.376659 
L 145.877988 53.764215 
L 146.111646 55.437639 
L 146.345305 48.41742 
L 146.578964 57.4784 
L 146.812622 58.33552 
L 147.046281 62.049706 
L 147.279939 58.33552 
L 147.513598 59.070194 
L 147.747256 63.927206 
L 147.980915 65.478184 
L 148.214573 65.355739 
L 148.448232 62.580303 
L 148.681891 61.763999 
L 148.915549 58.743672 
L 149.149208 60.498727 
M 150.083842 57.600846 
L 150.3175 58.743672 
L 150.551159 57.315139 
M 151.95311 71.233131 
L 152.186769 73.151447 
L 152.654086 73.641229 
L 152.887745 76.416665 
M 156.392623 94.824331 
L 156.626281 97.354875 
L 156.85994 102.293517 
L 157.093599 100.905799 
L 157.794574 131.068251 
L 158.028233 136.415045 
L 158.261891 136.864012 
L 158.729208 124.496999 
L 158.962867 125.272489 
L 159.196526 116.782922 
L 159.430184 122.578684 
L 159.663843 116.986998 
L 159.897501 117.39515 
L 160.13116 127.925478 
L 160.364818 118.742053 
L 160.598477 118.129824 
L 160.832136 123.966401 
L 161.065794 117.027813 
M 161.76677 110.415747 
L 162.000428 106.579116 
L 162.234087 96.497755 
L 162.467745 99.844604 
L 162.701404 98.416071 
L 162.935063 100.416017 
L 163.168721 103.64042 
L 163.40238 99.967049 
L 163.636038 101.313952 
L 163.869697 98.701777 
M 165.271648 100.620093 
L 165.505307 121.231781 
L 165.738965 117.272705 
L 165.972624 117.476781 
L 166.206282 113.272813 
L 166.439941 118.986944 
L 166.673599 117.435965 
L 166.907258 130.90499 
L 167.140917 128.456076 
M 167.841892 145.557655 
L 168.075551 146.986188 
L 168.309209 141.108796 
L 168.542868 123.272543 
L 169.010185 111.681019 
L 169.243844 116.252324 
L 169.477502 111.027975 
L 169.711161 116.170693 
L 169.944819 113.64015 
L 170.178478 112.334062 
L 170.412136 112.701399 
L 170.645795 112.089171 
L 170.879453 113.109552 
L 171.346771 127.231619 
L 171.580429 126.129608 
L 171.814088 117.762487 
L 172.047746 115.354389 
L 172.281405 120.578738 
L 172.515063 121.558303 
L 172.748722 123.150097 
L 172.98238 125.762271 
L 173.216039 114.170747 
L 173.449698 118.497161 
L 173.683356 110.497377 
L 173.917015 111.92591 
L 174.150673 116.37477 
L 174.384332 110.007595 
L 174.61799 108.456616 
M 175.318966 115.925802 
L 175.552625 105.436289 
L 175.786283 100.416017 
L 176.019942 100.701723 
L 176.2536 96.620201 
L 176.487259 95.51819 
L 176.954576 99.967049 
L 177.188235 98.25281 
L 177.421893 93.436613 
M 179.52482 106.619931 
L 179.992137 113.517704 
L 180.225796 111.92591 
L 180.459454 109.436181 
L 180.693113 113.64015 
L 181.16043 125.027597 
L 181.394089 129.313196 
L 181.627747 125.843902 
L 181.861406 128.578522 
L 182.095064 126.415315 
L 182.328723 122.129716 
L 182.562381 124.986782 
L 182.79604 116.048248 
M 185.366284 106.619931 
L 185.599943 103.109822 
L 185.833601 103.436343 
M 186.534577 97.191614 
L 186.768235 98.33444 
L 187.001894 91.885635 
L 187.235552 88.661232 
L 187.469211 90.13058 
L 187.70287 92.8652 
L 187.936528 89.804058 
L 188.170187 95.477375 
L 188.637504 91.314222 
L 188.871162 90.497917 
L 189.104821 90.253026 
L 189.338479 86.498025 
L 189.572138 80.498187 
L 189.805797 83.518514 
L 190.273114 80.171665 
L 190.506772 89.885689 
L 190.740431 86.498025 
L 190.974089 90.620363 
L 191.207748 84.824601 
L 191.441406 90.661178 
L 191.675065 86.130688 
L 191.908724 92.742755 
L 192.142382 93.844766 
L 192.376041 93.110092 
L 192.609699 91.559113 
L 192.843358 97.518136 
L 193.077016 93.273352 
M 194.011651 92.334602 
L 194.245309 95.069222 
L 194.478968 95.722266 
L 194.712626 98.783408 
L 194.946285 97.31406 
L 195.413602 104.456724 
L 195.647261 101.518028 
L 195.880919 106.824007 
L 196.114578 108.374986 
M 202.423359 142.986296 
L 202.657017 150.373852 
L 202.890676 149.353471 
L 203.124334 153.190102 
L 203.357993 153.108472 
L 203.591651 160.291951 
L 203.82531 162.618419 
L 204.292627 153.026841 
M 205.928237 172.495704 
L 206.161896 166.495866 
L 206.395554 168.863149 
L 206.629213 166.495866 
L 206.862871 174.128313 
L 207.09653 173.924236 
L 207.330188 172.495704 
L 207.563847 173.271193 
L 208.264823 194.209403 
L 208.498481 206.494786 
L 208.73214 212.412993 
L 209.433115 189.678913 
L 209.666774 187.801413 
L 209.900432 197.31136 
L 210.134091 195.719566 
L 210.36775 195.270599 
L 210.601408 198.08685 
L 210.835067 196.617501 
L 211.068725 199.923535 
L 211.302384 198.699078 
L 211.536042 203.392829 
L 211.769701 203.107122 
L 212.003359 202.045926 
L 212.237018 194.372664 
L 212.470677 195.352229 
L 212.704335 199.556198 
L 212.937994 197.31136 
L 213.171652 200.699024 
M 215.040921 195.719566 
L 215.274579 186.740217 
L 215.508238 183.352553 
L 215.741896 182.903586 
L 216.209214 177.271085 
L 216.442872 182.372988 
L 216.676531 183.474999 
L 217.377506 172.414073 
L 217.611165 177.107824 
L 217.844823 175.4344 
L 218.078482 182.740325 
L 218.312141 179.271031 
L 218.545799 178.413911 
L 218.779458 187.270815 
M 219.714092 190.780924 
L 219.94775 185.883097 
L 220.415068 172.169182 
L 220.648726 168.006029 
L 220.882385 170.618203 
L 221.116043 170.169236 
L 221.349702 166.985648 
L 221.58336 175.720106 
L 221.817019 178.005759 
L 222.050677 178.046574 
M 225.555556 213.188483 
L 225.789214 218.290386 
L 226.256531 216.984299 
L 226.723849 233.187943 
L 226.957507 231.84104 
L 227.424824 243.63664 
L 227.658483 244.901912 
L 227.892141 244.248869 
L 228.1258 240.167346 
M 229.294093 235.391965 
L 229.527751 231.310442 
M 229.995068 227.922779 
L 230.462385 247.391641 
L 230.696044 245.595771 
L 231.163361 256.942404 
L 231.39702 260.697404 
L 231.630678 255.962838 
L 232.331654 273.799091 
L 232.798971 257.309741 
L 233.03263 268.982895 
L 233.266288 261.67697 
L 233.499947 261.962676 
M 235.135557 260.493328 
L 235.836532 273.63583 
L 236.070191 275.186809 
L 236.303849 273.390939 
L 236.537508 275.145994 
L 237.238484 285.798767 
L 237.472142 279.064255 
M 239.341411 272.125667 
L 239.808728 263.187133 
L 240.042386 274.288874 
L 240.276045 268.329851 
M 240.743362 260.779035 
L 240.977021 260.738219 
L 241.210679 263.595285 
L 241.677996 250.085446 
L 241.911655 249.514033 
L 242.145313 247.554902 
L 242.378972 247.595717 
M 245.416533 243.350934 
L 245.650192 235.555226 
L 245.88385 235.555226 
L 246.117509 233.963432 
L 246.351167 233.759356 
L 246.584826 231.310442 
L 247.052143 220.086256 
L 247.285802 223.433104 
L 247.51946 218.249571 
L 247.753119 223.351474 
L 247.986777 220.616854 
L 248.220436 211.270167 
L 248.454094 214.535385 
L 248.687753 220.371962 
L 248.921412 220.861745 
L 249.388729 234.126693 
M 251.725314 222.657615 
L 251.958973 223.55555 
L 252.42629 220.943375 
L 252.659948 221.147451 
L 252.893607 213.188483 
L 253.127266 215.392505 
L 253.360924 215.392505 
L 253.594583 214.617016 
L 253.828241 214.372124 
L 254.0619 211.678319 
L 254.295558 215.310874 
L 254.762875 203.719351 
L 254.996534 208.535547 
L 255.230193 209.066145 
L 255.463851 218.576092 
L 255.69751 215.882288 
L 255.931168 216.821038 
L 256.398485 219.88218 
L 257.099461 206.045818 
L 257.33312 207.066199 
L 257.566778 203.55609 
L 258.034095 224.167778 
L 258.267754 215.025168 
L 258.501412 212.168102 
L 258.735071 213.963972 
L 258.968729 209.066145 
L 259.202388 214.372124 
L 259.436047 210.984461 
L 259.669705 211.678319 
L 259.903364 208.535547 
L 260.137022 208.16821 
L 260.370681 198.617447 
L 260.837998 205.229514 
L 261.071656 205.637666 
L 261.305315 206.37234 
L 261.538974 207.841688 
L 261.772632 206.984569 
L 262.006291 209.555928 
L 262.239949 207.841688 
L 262.473608 214.657831 
L 262.707266 209.02533 
M 265.511169 193.311468 
L 266.212145 188.576902 
L 266.445803 185.148423 
L 266.679462 179.230216 
L 267.146779 181.924021 
M 267.847755 180.781194 
L 268.081413 180.577118 
M 268.782389 185.066793 
L 269.016047 183.55663 
M 269.950682 177.107824 
L 270.18434 184.944347 
L 270.417999 185.638206 
L 270.651657 194.005327 
L 270.885316 197.923589 
L 271.118974 194.984892 
L 271.352633 194.617555 
L 271.81995 195.964458 
L 272.053609 189.801359 
L 272.287267 190.985 
L 272.520926 200.535763 
L 272.754584 200.127611 
L 272.988243 205.270329 
L 273.221901 192.209457 
L 273.689219 181.883205 
L 273.922877 181.515868 
L 274.156536 185.270869 
L 274.390194 181.597499 
L 274.857511 187.189185 
M 275.792146 182.740325 
L 276.025804 186.087173 
L 276.259463 191.433968 
L 276.493121 190.90337 
L 276.72678 186.576956 
L 276.960438 186.658587 
L 277.194097 187.678967 
L 277.895073 197.841958 
L 278.128731 196.780762 
L 278.36239 202.005111 
M 279.063365 200.494948 
L 279.297024 196.576686 
L 279.530682 197.882773 
L 279.764341 191.229892 
L 279.998 190.576848 
L 280.231658 183.883151 
L 280.465317 185.842282 
L 280.698975 191.107446 
L 280.932634 187.189185 
L 281.166292 178.25065 
L 281.633609 186.944293 
L 282.100927 178.658803 
L 282.334585 180.373042 
L 282.568244 178.087389 
L 282.801902 181.393423 
M 283.502878 164.65918 
L 283.736536 166.618311 
L 283.970195 166.618311 
L 284.203854 167.067279 
L 284.437512 168.822333 
L 284.904829 167.067279 
M 285.372146 165.5163 
L 285.605805 165.230594 
L 285.839464 170.005975 
L 286.073122 167.924398 
L 286.306781 168.536627 
L 286.774098 171.475323 
L 287.007756 171.84266 
L 287.241415 170.495758 
L 287.475073 171.965106 
L 287.708732 170.740649 
L 287.942391 173.189562 
L 288.409708 175.51603 
L 288.643366 169.761084 
L 288.877025 168.046844 
L 289.110683 161.883745 
L 289.344342 163.271463 
L 289.578 171.801845 
L 289.811659 171.312062 
L 290.045318 168.454996 
L 290.278976 172.291627 
L 290.512635 172.495704 
L 290.746293 172.209997 
L 290.979952 172.69978 
L 291.21361 173.801791 
L 291.447269 173.107932 
L 291.680927 175.679291 
L 291.914586 171.76103 
L 292.148245 172.291627 
L 292.381903 169.475377 
L 292.615562 171.556953 
L 292.84922 177.964944 
L 293.082879 176.046628 
L 293.316537 176.046628 
L 293.550196 175.597661 
L 293.783854 170.944725 
L 294.251172 181.76076 
L 294.48483 182.087281 
L 294.952147 176.577226 
L 295.185806 177.189454 
L 295.419464 174.414019 
L 295.653123 181.393423 
L 295.886781 181.883205 
L 296.12044 181.638314 
L 296.354099 178.005759 
L 296.587757 183.311738 
L 296.821416 182.372988 
L 297.055074 187.189185 
L 297.522391 184.944347 
M 298.924343 195.719566 
L 299.158001 195.51549 
L 299.39166 197.597067 
L 299.625318 194.740001 
L 299.858977 198.576632 
L 300.092635 194.086958 
L 300.326294 195.719566 
L 300.559953 196.454241 
L 300.793611 196.454241 
M 301.260928 201.352068 
L 301.728245 203.55609 
L 301.961904 203.229568 
L 302.195563 200.209241 
L 302.429221 193.678805 
L 302.896538 191.638044 
L 303.130197 190.372772 
L 303.363855 188.495272 
L 303.597514 192.454349 
M 305.233124 194.535925 
L 305.466782 196.495056 
L 305.700441 201.719405 
L 305.934099 199.882719 
L 306.167758 199.760274 
L 306.401417 199.392937 
L 306.635075 196.250164 
L 306.868734 196.250164 
L 307.102392 201.311252 
L 307.336051 200.739839 
L 307.569709 201.474513 
L 308.037026 206.127449 
L 308.270685 210.984461 
L 308.504344 206.739677 
L 308.738002 206.168264 
M 311.775563 216.086364 
L 312.009222 215.719027 
L 312.24288 221.147451 
L 312.476539 223.229028 
L 312.710198 222.045386 
L 312.943856 226.698322 
L 313.177515 227.024844 
L 313.411173 223.55555 
L 313.644832 231.636964 
L 313.87849 233.392019 
L 314.112149 228.943159 
L 314.345807 228.371746 
L 314.579466 225.228974 
L 315.046783 233.392019 
L 315.280442 232.290008 
L 315.5141 234.085878 
L 315.747759 234.738921 
L 315.981417 238.861259 
L 316.215076 239.432672 
L 316.448734 237.514357 
L 316.682393 236.534791 
L 316.916052 238.044955 
L 317.14971 237.22865 
L 317.383369 232.085932 
L 317.617027 231.432888 
L 317.850686 228.126855 
L 318.084344 234.983813 
M 319.252637 236.167454 
L 319.719954 232.738975 
L 319.953613 233.963432 
L 320.187271 233.922617 
L 320.42093 229.269681 
L 320.654589 231.351258 
L 320.888247 231.473703 
L 321.121906 232.371638 
L 321.355564 227.31055 
L 321.589223 227.269735 
M 323.458491 229.677833 
L 323.69215 230.739029 
L 323.925808 230.983921 
L 324.159467 232.290008 
L 324.393125 232.902236 
L 324.626784 235.106258 
L 324.860443 235.718487 
M 325.561418 237.840878 
L 325.795077 238.08577 
L 326.028735 237.840878 
M 330.234589 223.269843 
L 330.468248 224.086148 
L 330.701906 219.514843 
L 331.169224 215.882288 
L 331.402882 212.249733 
L 331.870199 210.208971 
L 332.103858 212.576254 
M 333.505809 215.882288 
L 334.206785 214.657831 
M 336.54337 221.718865 
L 336.777029 219.433212 
L 337.010687 215.474135 
L 337.244346 214.984353 
L 337.478005 211.310982 
L 337.711663 202.413263 
L 337.945322 203.433644 
L 338.17898 201.637774 
M 339.113615 195.352229 
L 339.347273 196.984838 
L 339.580932 200.086796 
L 339.81459 205.882557 
L 340.048249 207.188645 
L 340.281907 206.168264 
L 340.515566 204.045872 
L 340.749224 209.229406 
L 340.982883 208.657993 
L 341.216542 206.862123 
L 341.4502 206.698862 
L 341.683859 211.75995 
L 341.917517 210.208971 
L 342.151176 210.494678 
L 342.384834 204.658101 
L 342.618493 203.392829 
L 342.852151 204.209133 
M 345.889713 194.903262 
L 346.123371 192.250272 
L 346.35703 188.127935 
L 346.590688 191.148261 
L 346.824347 191.474783 
L 347.058005 192.944131 
L 347.525323 187.556522 
L 347.758981 185.474945 
L 347.99264 185.964728 
L 348.226298 185.393315 
L 348.459957 188.291196 
L 348.693615 189.760544 
L 348.927274 186.127989 
M 353.366786 219.310766 
L 353.600445 220.371962 
L 353.834104 215.882288 
L 354.067762 220.82093 
M 354.535079 220.127071 
L 354.768738 222.69843 
L 355.002396 220.494408 
L 355.236055 237.14702 
L 355.469714 237.800063 
L 355.703372 233.63691 
L 356.170689 231.881856 
L 356.404348 236.738867 
L 356.638006 237.269465 
L 357.105323 231.310442 
L 357.572641 235.596041 
L 357.806299 229.718649 
L 358.039958 228.371746 
L 358.273616 227.963594 
L 358.507275 228.08604 
L 358.740933 228.779899 
L 358.974592 232.494084 
L 359.20825 231.473703 
L 359.441909 234.738921 
L 359.675568 233.147128 
L 359.909226 227.555442 
L 360.142885 230.126801 
L 360.376543 230.371692 
L 360.610202 229.392127 
L 360.84386 232.494084 
M 362.012153 234.085878 
L 362.245812 230.126801 
M 362.946787 224.780006 
L 363.180446 224.208593 
M 367.3863 207.270275 
L 368.087276 195.025708 
L 368.320934 194.780816 
L 368.554593 193.270653 
L 368.788251 193.433914 
L 369.02191 192.944131 
L 369.255568 189.02587 
L 369.489227 190.658479 
L 369.722885 189.148315 
L 369.956544 191.311522 
L 370.190203 189.719728 
L 370.423861 191.76049 
L 370.65752 196.29098 
L 370.891178 195.025708 
L 371.124837 190.780924 
L 371.358495 192.250272 
L 371.592154 192.944131 
L 372.059471 201.433698 
L 372.29313 192.495164 
L 372.526788 190.699294 
L 372.994105 189.393207 
L 373.227764 190.780924 
L 373.461422 188.087119 
L 373.695081 191.678859 
L 373.92874 197.637882 
L 374.629715 188.005489 
L 374.863374 193.964512 
L 375.097032 185.270869 
L 375.330691 190.944185 
L 375.798008 184.49538 
L 376.031667 184.046412 
L 376.265325 182.495434 
L 376.498984 184.250488 
L 376.732642 182.332173 
L 376.966301 182.372988 
L 377.199959 180.250596 
L 377.433618 177.026194 
L 377.667276 175.760922 
L 377.900935 181.84239 
L 378.134594 182.617879 
L 378.368252 179.393477 
L 378.601911 181.475053 
L 378.835569 182.005651 
L 379.069228 183.352553 
L 379.302886 181.76076 
L 379.536545 181.76076 
L 379.770203 181.475053 
L 380.003862 180.04652 
L 380.237521 177.148639 
M 381.405813 184.49538 
L 381.639472 182.577064 
L 381.87313 186.209619 
L 382.106789 183.760706 
L 382.340448 184.57701 
L 382.807765 190.209511 
L 383.041423 187.066739 
L 383.275082 190.209511 
L 383.50874 188.821794 
L 383.742399 196.699132 
L 383.976057 195.882827 
L 384.209716 196.209349 
L 384.443375 194.413479 
L 384.910692 187.597337 
L 385.14435 188.372826 
L 385.378009 187.801413 
M 385.845326 188.413641 
L 386.078984 186.576956 
L 386.312643 185.883097 
L 386.546302 186.699402 
L 387.013619 191.678859 
L 387.247277 196.086904 
L 387.480936 196.739947 
L 387.714594 196.576686 
L 387.948253 192.576794 
L 388.181911 190.699294 
L 388.882887 203.515274 
L 389.350204 199.188861 
L 389.583863 198.209295 
M 390.518497 199.96435 
L 390.752156 201.188807 
M 393.088741 214.821092 
L 393.3224 212.412993 
L 393.556058 214.535385 
L 393.789717 210.576308 
L 394.257034 218.657723 
L 394.490693 219.310766 
L 394.724351 219.596473 
L 395.191668 230.779845 
L 395.425327 227.841148 
L 395.658985 229.759464 
L 395.892644 235.473595 
L 396.126302 230.004355 
M 398.229229 233.147128 
L 398.696547 237.269465 
L 398.930205 236.942943 
L 399.163864 241.269357 
L 399.397522 241.024466 
L 399.631181 249.922185 
L 399.864839 245.473325 
L 400.098498 252.085392 
L 400.332156 251.187457 
L 400.565815 253.309849 
L 400.799474 252.248653 
M 402.435083 254.697566 
L 402.902401 250.575229 
L 403.136059 252.248653 
L 403.369718 256.452621 
L 403.603376 257.799523 
L 403.837035 262.289198 
L 404.070693 264.574851 
M 406.640937 258.452567 
L 407.108255 256.493436 
L 407.341913 254.615936 
L 407.575572 254.330229 
L 407.80923 255.105718 
L 408.042889 254.166968 
L 408.276547 256.248545 
L 408.510206 254.207784 
L 408.743865 251.146642 
L 409.211182 254.49349 
L 409.44484 253.350664 
L 409.678499 250.697674 
L 409.912157 253.758816 
L 410.145816 252.330283 
L 410.379474 248.983435 
L 410.613133 253.146588 
L 410.846792 251.67724 
L 411.08045 251.065011 
L 411.314109 252.289468 
L 411.547767 252.61599 
M 412.71606 252.085392 
L 412.949719 250.371152 
L 413.183377 245.922293 
L 413.417036 246.37126 
L 413.650694 238.371476 
L 413.884353 240.085716 
L 414.35167 241.555064 
L 414.585328 241.146912 
L 414.818987 239.96327 
L 415.052646 241.473433 
L 415.286304 238.861259 
L 415.519963 241.75914 
L 415.753621 242.452999 
L 416.220938 247.391641 
M 416.921914 244.534575 
L 417.155573 242.208107 
L 417.62289 240.942835 
L 417.856548 237.391911 
L 418.090207 238.493922 
L 418.323865 234.371584 
L 418.557524 232.738975 
L 418.791182 238.08577 
L 419.024841 236.126639 
L 419.2585 232.943051 
L 419.492158 234.045063 
L 419.725817 231.800225 
L 419.959475 233.106312 
L 420.193134 233.187943 
L 420.426792 234.534845 
L 420.660451 236.575606 
L 420.894109 235.35115 
L 421.127768 230.494138 
L 421.361427 231.187997 
L 421.595085 235.147074 
L 421.828744 233.759356 
L 422.062402 234.657291 
L 422.296061 225.269789 
L 422.529719 228.983975 
L 422.997036 226.3718 
L 423.230695 224.984083 
M 424.165329 225.024898 
L 424.398988 228.494192 
L 424.632646 228.371746 
L 424.866305 230.739029 
L 425.099963 231.963486 
L 425.333622 235.718487 
L 425.567281 234.330769 
M 428.8385 251.024196 
L 429.072159 251.75887 
L 429.305818 253.350664 
L 429.539476 252.330283 
L 429.773135 256.697512 
M 431.876062 257.921969 
L 432.10972 255.309795 
L 432.343379 256.738327 
L 432.810696 252.126207 
L 433.044354 252.085392 
L 433.278013 247.350826 
L 433.511672 246.656967 
L 433.74533 247.963054 
L 433.978989 247.963054 
M 434.679964 245.514141 
L 434.913623 243.963162 
L 435.147281 249.514033 
L 435.38094 249.595663 
L 435.614599 248.044685 
L 435.848257 247.881424 
M 436.315574 244.208053 
L 436.549233 244.942728 
M 437.01655 249.065065 
L 437.483867 256.085284 
L 437.717526 257.024034 
L 437.951184 254.41186 
L 438.184843 254.126153 
L 438.418501 254.942458 
M 440.054111 259.228056 
L 440.28777 259.758654 
L 440.521428 263.717731 
L 440.755087 263.064687 
L 440.988745 263.309579 
L 441.222404 262.166752 
L 441.689721 265.962568 
L 441.92338 265.513601 
L 442.157038 272.003222 
L 442.390697 273.676646 
L 442.858014 266.942134 
L 443.091672 266.574797 
L 443.325331 266.493166 
L 443.558989 267.921699 
M 445.194599 271.75833 
L 445.661917 266.003383 
L 445.895575 266.615612 
L 446.129234 261.391263 
L 446.362892 261.67697 
L 446.596551 260.003545 
L 446.830209 261.67697 
L 447.063868 259.595393 
M 450.101429 272.003222 
L 450.335088 269.391047 
L 450.568746 269.676754 
L 451.036063 276.574527 
L 451.269722 275.921483 
L 451.50338 276.901048 
L 451.737039 275.145994 
L 451.970698 276.411266 
L 452.204356 276.329635 
L 452.671673 278.737734 
L 452.905332 281.105017 
L 453.839966 274.329689 
L 454.073625 274.288874 
L 454.307283 276.003114 
L 454.540942 274.574581 
L 454.7746 279.268332 
L 455.008259 279.145886 
L 455.241917 275.513331 
L 455.475576 269.799199 
L 455.709234 268.125775 
L 455.942893 271.799145 
L 456.176552 269.350232 
L 456.41021 268.411482 
L 456.643869 269.96246 
L 456.877527 270.615504 
L 457.111186 273.676646 
L 457.344844 272.778711 
L 457.578503 269.840015 
L 458.04582 274.207244 
L 458.279479 272.329743 
L 458.513137 268.982895 
L 458.746796 268.982895 
L 458.980454 269.105341 
L 459.214113 271.064471 
L 459.447771 270.044091 
M 462.485333 263.268763 
L 462.95265 259.432132 
L 463.186308 257.962784 
L 463.419967 254.860827 
L 463.653625 253.595555 
L 463.887284 254.330229 
L 464.120943 256.901588 
L 464.354601 257.717893 
L 464.58826 255.922023 
L 464.821918 256.656697 
L 465.055577 255.391425 
M 466.924845 254.820012 
L 467.158504 254.003707 
L 467.625821 259.921915 
L 467.859479 262.738165 
L 468.093138 262.330013 
L 468.326797 264.166698 
L 468.560455 269.595123 
L 468.794114 269.186971 
L 469.027772 271.350178 
L 469.261431 270.125721 
L 469.728748 275.472516 
M 475.102895 307.349206 
L 475.336553 327.756818 
L 475.570212 325.144644 
L 475.80387 327.593558 
L 476.037529 332.246493 
L 476.271187 326.409916 
L 476.738505 335.552526 
M 477.906797 331.67508 
L 478.140456 332.695461 
L 478.374114 331.879156 
M 479.776066 327.716003 
L 480.009724 326.001764 
L 480.243383 326.369101 
M 480.944359 322.287578 
L 481.411676 326.532362 
M 482.579969 322.165133 
L 482.813627 318.777469 
L 483.047286 318.981545 
L 483.514603 317.14486 
L 483.748261 310.369533 
L 483.98192 311.022576 
L 484.215578 316.410186 
L 484.449237 315.308175 
L 484.682896 316.28774 
L 484.916554 315.022468 
L 485.383871 310.083826 
L 485.61753 311.063392 
L 485.851188 311.308283 
L 486.084847 314.859207 
L 486.318505 314.32861 
L 486.552164 313.144968 
L 486.785823 308.369587 
L 487.019481 311.67562 
L 487.25314 311.226652 
L 487.720457 312.369479 
L 488.187774 311.185837 
L 488.655091 317.797904 
L 488.88875 314.165349 
L 489.356067 310.8185 
L 489.589725 310.002196 
L 489.823384 302.328933 
M 490.524359 306.124749 
L 490.758018 312.124587 
L 490.991677 309.675674 
L 491.225335 309.308337 
M 492.627286 311.389913 
L 492.860945 316.002034 
L 493.094604 314.165349 
L 493.328262 317.267306 
L 493.795579 315.634697 
L 494.029238 316.614262 
L 494.262896 316.042849 
L 494.496555 316.369371 
L 494.730213 319.675404 
L 494.963872 319.634589 
L 495.197531 321.920241 
L 495.431189 320.328448 
L 495.664848 321.267198 
L 496.132165 318.08361 
L 496.365823 318.369317 
L 496.599482 319.920295 
L 496.83314 320.001926 
L 497.066799 315.593882 
L 497.534116 317.512197 
L 497.767775 318.246871 
L 498.001433 319.348882 
L 498.235092 319.716219 
L 498.46875 317.675458 
L 498.702409 319.716219 
L 499.169726 318.655023 
L 499.403385 316.655077 
L 499.637043 312.777631 
L 499.870702 313.879642 
L 500.10436 312.491924 
L 500.338019 310.328718 
L 500.571677 311.471544 
L 500.805336 310.859315 
L 501.038995 313.593936 
M 503.141922 318.246871 
L 503.37558 318.00198 
L 503.609239 316.614262 
L 503.842897 317.553012 
M 504.543873 319.185621 
L 504.777531 318.859099 
L 505.01119 322.654915 
L 505.244849 322.818176 
L 505.478507 325.716057 
L 505.945824 324.695677 
L 506.179483 324.246709 
L 506.413141 322.083502 
L 506.6468 321.308013 
L 506.880458 322.001872 
L 507.114117 324.083448 
L 507.347776 324.369155 
L 507.581434 326.491547 
L 507.815093 325.34872 
L 508.048751 325.920133 
L 508.28241 321.920241 
L 508.516068 322.858992 
L 508.749727 323.307959 
L 508.983385 324.777307 
L 509.450703 320.491708 
L 509.684361 322.205948 
L 509.91802 321.634535 
M 510.385337 320.81823 
L 510.618995 321.67535 
L 510.852654 323.144698 
L 511.086312 323.879372 
L 511.319971 323.47122 
L 511.55363 325.389535 
L 511.787288 325.756872 
L 512.020947 325.307905 
M 515.292166 315.675512 
L 515.525825 313.920457 
L 515.759484 314.32861 
M 516.460459 310.777685 
L 516.694118 308.410402 
L 516.927776 309.838935 
L 517.161435 306.573717 
L 517.395094 308.206326 
L 517.862411 299.471868 
L 518.096069 300.206542 
L 518.329728 301.594259 
L 518.563386 304.818662 
L 518.797045 304.777847 
L 519.498021 293.676106 
L 519.731679 296.818878 
L 519.965338 296.737248 
L 520.198996 297.798444 
L 520.432655 294.288334 
L 520.666313 295.961758 
L 520.899972 299.186161 
L 521.13363 297.471922 
M 523.470216 296.043389 
L 523.703875 297.390291 
L 523.937533 296.084204 
L 524.40485 287.14567 
L 524.638509 286.125289 
L 524.872167 288.00279 
L 525.105826 287.104855 
L 525.339484 281.472354 
L 525.573143 283.839637 
L 525.806802 279.145886 
L 526.04046 282.043767 
L 526.274119 280.288712 
L 526.507777 280.411158 
L 526.741436 286.859963 
L 527.208753 291.023116 
M 530.713631 276.737788 
L 530.94729 273.227678 
L 531.180948 278.08469 
M 531.648265 275.186809 
L 531.881924 273.799091 
L 532.115583 271.023656 
L 532.349241 274.778657 
L 532.5829 274.003168 
L 532.816558 270.493058 
L 533.050217 270.166536 
L 533.283875 269.309417 
L 533.517534 265.513601 
M 533.984851 261.636154 
L 534.21851 264.656481 
L 534.452168 264.370774 
M 534.919485 262.942242 
L 535.153144 261.472894 
L 535.386802 265.962568 
L 535.620461 265.268709 
L 535.85412 270.656319 
L 536.087778 269.268601 
L 536.321437 270.778765 
L 536.555095 273.186863 
L 536.788754 270.73795 
L 537.022412 270.697134 
L 537.256071 269.105341 
L 537.489729 272.737896 
L 537.723388 272.125667 
L 537.957047 272.737896 
M 538.424364 270.248167 
L 538.658022 268.94208 
L 539.358998 271.962406 
L 539.826315 273.390939 
L 540.059974 270.125721 
L 540.293632 270.615504 
M 542.396559 263.840177 
L 542.630218 263.676916 
L 542.863876 266.493166 
L 543.097535 265.513601 
L 543.331193 266.20746 
L 543.564852 258.94235 
L 543.79851 258.779089 
L 544.032169 254.901642 
L 544.265828 255.758762 
M 547.06973 254.126153 
L 547.303389 253.146588 
L 547.537047 253.513925 
L 547.770706 238.657183 
L 548.238023 234.698106 
L 548.471682 232.69816 
L 548.70534 235.718487 
L 548.938999 236.004193 
L 549.406316 241.963216 
L 549.639974 242.371368 
L 549.873633 243.63664 
L 550.107291 241.106096 
L 550.34095 243.310119 
L 550.808267 252.738435 
L 551.041926 245.187619 
L 551.275584 245.43251 
L 551.742901 240.534683 
L 551.97656 240.453053 
L 552.210219 245.963108 
L 552.443877 247.554902 
L 552.677536 242.779521 
M 553.144853 242.61626 
L 553.378511 248.289576 
L 553.61217 249.554848 
L 553.845828 248.616098 
L 554.079487 244.983543 
L 554.313146 244.779467 
L 554.546804 243.677456 
L 554.780463 250.493598 
L 555.24778 256.697512 
L 555.481438 260.166806 
L 555.715097 258.534197 
L 555.948755 254.41186 
L 556.416073 257.350556 
L 556.649731 253.146588 
L 556.88339 256.044469 
L 557.117048 253.922077 
L 557.350707 253.228218 
L 557.584365 256.452621 
L 557.818024 257.881154 
L 558.051682 254.942458 
L 558.285341 258.697458 
L 558.519 253.228218 
L 558.752658 251.67724 
L 558.986317 253.187403 
L 559.219975 249.065065 
L 559.687292 245.718217 
L 559.920951 247.595717 
L 560.154609 251.024196 
L 560.388268 252.085392 
L 560.855585 258.493382 
L 561.089244 257.024034 
L 561.556561 245.473325 
L 561.790219 242.575444 
L 562.023878 243.187673 
L 562.257536 238.004139 
L 562.491195 240.371422 
L 562.724854 241.310173 
L 562.958512 246.656967 
L 563.192171 242.248923 
L 563.425829 242.861151 
M 567.865342 211.678319 
L 568.332659 198.331741 
L 568.566317 204.045872 
L 568.799976 205.188699 
L 569.033635 199.229676 
L 569.267293 200.9031 
L 569.73461 202.7806 
L 569.968269 199.556198 
L 570.435586 196.535871 
L 570.669245 197.433806 
L 570.902903 194.944077 
L 571.136562 199.882719 
L 571.37022 196.862393 
L 571.603879 195.964458 
L 571.837537 192.495164 
M 572.304854 196.617501 
L 572.538513 198.331741 
L 572.772172 190.536033 
L 573.239489 190.617663 
L 573.239489 190.617663 
" clip-path="url(#p2762bb0779)" style="fill: none; stroke: #1e90ff; stroke-linecap: square"/>
   </g>
   <g id="patch_3">
    <path d="M 40.603125 354.958125 
L 40.603125 22.318125 
" style="fill: none; stroke: #000000; stroke-width: 0.8; stroke-linejoin: miter; stroke-linecap: square"/>
   </g>
   <g id="patch_4">
    <path d="M 598.603125 354.958125 
L 598.603125 22.318125 
" style="fill: none; stroke: #000000; stroke-width: 0.8; stroke-linejoin: miter; stroke-linecap: square"/>
   </g>
   <g id="patch_5">
    <path d="M 40.603125 354.958125 
L 598.603125 354.958125 
" style="fill: none; stroke: #000000; stroke-width: 0.8; stroke-linejoin: miter; stroke-linecap: square"/>
   </g>
   <g id="patch_6">
    <path d="M 40.603125 22.318125 
L 598.603125 22.318125 
" style="fill: none; stroke: #000000; stroke-width: 0.8; stroke-linejoin: miter; stroke-linecap: square"/>
   </g>
   <g id="text_16">
    <!-- DVN, Relative Strength Index (RSI), DVN -->
    <g transform="translate(198.94125 16.318125)scale(0.12 -0.12)">
     <defs>
      <path id="DejaVuSans-56" d="M 1831 0 
L 50 4666 
L 709 4666 
L 2188 738 
L 3669 4666 
L 4325 4666 
L 2547 0 
L 1831 0 
z
" transform="scale(0.015625)"/>
      <path id="DejaVuSans-4e" d="M 628 4666 
L 1478 4666 
L 3547 763 
L 3547 4666 
L 4159 4666 
L 4159 0 
L 3309 0 
L 1241 3903 
L 1241 0 
L 628 0 
L 628 4666 
z
" transform="scale(0.015625)"/>
      <path id="DejaVuSans-2c" d="M 750 794 
L 1409 794 
L 1409 256 
L 897 -744 
L 494 -744 
L 750 256 
L 750 794 
z
" transform="scale(0.015625)"/>
      <path id="DejaVuSans-52" d="M 2841 2188 
Q 3044 2119 3236 1894 
Q 3428 1669 3622 1275 
L 4263 0 
L 3584 0 
L 2988 1197 
Q 2756 1666 2539 1819 
Q 2322 1972 1947 1972 
L 1259 1972 
L 1259 0 
L 628 0 
L 628 4666 
L 2053 4666 
Q 2853 4666 3247 4331 
Q 3641 3997 3641 3322 
Q 3641 2881 3436 2590 
Q 3231 2300 2841 2188 
z
M 1259 4147 
L 1259 2491 
L 2053 2491 
Q 2509 2491 2742 2702 
Q 2975 2913 2975 3322 
Q 2975 3731 2742 3939 
Q 2509 4147 2053 4147 
L 1259 4147 
z
" transform="scale(0.015625)"/>
      <path id="DejaVuSans-6c" d="M 603 4863 
L 1178 4863 
L 1178 0 
L 603 0 
L 603 4863 
z
" transform="scale(0.015625)"/>
      <path id="DejaVuSans-76" d="M 191 3500 
L 800 3500 
L 1894 563 
L 2988 3500 
L 3597 3500 
L 2284 0 
L 1503 0 
L 191 3500 
z
" transform="scale(0.015625)"/>
      <path id="DejaVuSans-6e" d="M 3513 2113 
L 3513 0 
L 2938 0 
L 2938 2094 
Q 2938 2591 2744 2837 
Q 2550 3084 2163 3084 
Q 1697 3084 1428 2787 
Q 1159 2491 1159 1978 
L 1159 0 
L 581 0 
L 581 3500 
L 1159 3500 
L 1159 2956 
Q 1366 3272 1645 3428 
Q 1925 3584 2291 3584 
Q 2894 3584 3203 3211 
Q 3513 2838 3513 2113 
z
" transform="scale(0.015625)"/>
      <path id="DejaVuSans-67" d="M 2906 1791 
Q 2906 2416 2648 2759 
Q 2391 3103 1925 3103 
Q 1463 3103 1205 2759 
Q 947 2416 947 1791 
Q 947 1169 1205 825 
Q 1463 481 1925 481 
Q 2391 481 2648 825 
Q 2906 1169 2906 1791 
z
M 3481 434 
Q 3481 -459 3084 -895 
Q 2688 -1331 1869 -1331 
Q 1566 -1331 1297 -1286 
Q 1028 -1241 775 -1147 
L 775 -588 
Q 1028 -725 1275 -790 
Q 1522 -856 1778 -856 
Q 2344 -856 2625 -561 
Q 2906 -266 2906 331 
L 2906 616 
Q 2728 306 2450 153 
Q 2172 0 1784 0 
Q 1141 0 747 490 
Q 353 981 353 1791 
Q 353 2603 747 3093 
Q 1141 3584 1784 3584 
Q 2172 3584 2450 3431 
Q 2728 3278 2906 2969 
L 2906 3500 
L 3481 3500 
L 3481 434 
z
" transform="scale(0.015625)"/>
      <path id="DejaVuSans-68" d="M 3513 2113 
L 3513 0 
L 2938 0 
L 2938 2094 
Q 2938 2591 2744 2837 
Q 2550 3084 2163 3084 
Q 1697 3084 1428 2787 
Q 1159 2491 1159 1978 
L 1159 0 
L 581 0 
L 581 4863 
L 1159 4863 
L 1159 2956 
Q 1366 3272 1645 3428 
Q 1925 3584 2291 3584 
Q 2894 3584 3203 3211 
Q 3513 2838 3513 2113 
z
" transform="scale(0.015625)"/>
      <path id="DejaVuSans-49" d="M 628 4666 
L 1259 4666 
L 1259 0 
L 628 0 
L 628 4666 
z
" transform="scale(0.015625)"/>
      <path id="DejaVuSans-64" d="M 2906 2969 
L 2906 4863 
L 3481 4863 
L 3481 0 
L 2906 0 
L 2906 525 
Q 2725 213 2448 61 
Q 2172 -91 1784 -91 
Q 1150 -91 751 415 
Q 353 922 353 1747 
Q 353 2572 751 3078 
Q 1150 3584 1784 3584 
Q 2172 3584 2448 3432 
Q 2725 3281 2906 2969 
z
M 947 1747 
Q 947 1113 1208 752 
Q 1469 391 1925 391 
Q 2381 391 2643 752 
Q 2906 1113 2906 1747 
Q 2906 2381 2643 2742 
Q 2381 3103 1925 3103 
Q 1469 3103 1208 2742 
Q 947 2381 947 1747 
z
" transform="scale(0.015625)"/>
      <path id="DejaVuSans-78" d="M 3513 3500 
L 2247 1797 
L 3578 0 
L 2900 0 
L 1881 1375 
L 863 0 
L 184 0 
L 1544 1831 
L 300 3500 
L 978 3500 
L 1906 2253 
L 2834 3500 
L 3513 3500 
z
" transform="scale(0.015625)"/>
     </defs>
     <use xlink:href="#DejaVuSans-44"/>
     <use xlink:href="#DejaVuSans-56" x="75.251953"/>
     <use xlink:href="#DejaVuSans-4e" x="143.660156"/>
     <use xlink:href="#DejaVuSans-2c" x="218.464844"/>
     <use xlink:href="#DejaVuSans-20" x="250.251953"/>
     <use xlink:href="#DejaVuSans-52" x="282.039062"/>
     <use xlink:href="#DejaVuSans-65" x="347.021484"/>
     <use xlink:href="#DejaVuSans-6c" x="408.544922"/>
     <use xlink:href="#DejaVuSans-61" x="436.328125"/>
     <use xlink:href="#DejaVuSans-74" x="497.607422"/>
     <use xlink:href="#DejaVuSans-69" x="536.816406"/>
     <use xlink:href="#DejaVuSans-76" x="564.599609"/>
     <use xlink:href="#DejaVuSans-65" x="623.779297"/>
     <use xlink:href="#DejaVuSans-20" x="685.302734"/>
     <use xlink:href="#DejaVuSans-53" x="717.089844"/>
     <use xlink:href="#DejaVuSans-74" x="780.566406"/>
     <use xlink:href="#DejaVuSans-72" x="819.775391"/>
     <use xlink:href="#DejaVuSans-65" x="858.638672"/>
     <use xlink:href="#DejaVuSans-6e" x="920.162109"/>
     <use xlink:href="#DejaVuSans-67" x="983.541016"/>
     <use xlink:href="#DejaVuSans-74" x="1047.017578"/>
     <use xlink:href="#DejaVuSans-68" x="1086.226562"/>
     <use xlink:href="#DejaVuSans-20" x="1149.605469"/>
     <use xlink:href="#DejaVuSans-49" x="1181.392578"/>
     <use xlink:href="#DejaVuSans-6e" x="1210.884766"/>
     <use xlink:href="#DejaVuSans-64" x="1274.263672"/>
     <use xlink:href="#DejaVuSans-65" x="1337.740234"/>
     <use xlink:href="#DejaVuSans-78" x="1397.513672"/>
     <use xlink:href="#DejaVuSans-20" x="1456.693359"/>
     <use xlink:href="#DejaVuSans-28" x="1488.480469"/>
     <use xlink:href="#DejaVuSans-52" x="1527.494141"/>
     <use xlink:href="#DejaVuSans-53" x="1596.976562"/>
     <use xlink:href="#DejaVuSans-49" x="1660.453125"/>
     <use xlink:href="#DejaVuSans-29" x="1689.945312"/>
     <use xlink:href="#DejaVuSans-2c" x="1728.958984"/>
     <use xlink:href="#DejaVuSans-20" x="1760.746094"/>
     <use xlink:href="#DejaVuSans-44" x="1792.533203"/>
     <use xlink:href="#DejaVuSans-56" x="1867.785156"/>
     <use xlink:href="#DejaVuSans-4e" x="1936.193359"/>
    </g>
   </g>
   <g id="legend_1">
    <g id="patch_7">
     <path d="M 441.69375 74.3525 
L 591.603125 74.3525 
Q 593.603125 74.3525 593.603125 72.3525 
L 593.603125 29.318125 
Q 593.603125 27.318125 591.603125 27.318125 
L 441.69375 27.318125 
Q 439.69375 27.318125 439.69375 29.318125 
L 439.69375 72.3525 
Q 439.69375 74.3525 441.69375 74.3525 
z
" style="fill: #ffffff; opacity: 0.8; stroke: #cccccc; stroke-linejoin: miter"/>
    </g>
    <g id="line2d_25">
     <path d="M 443.69375 35.416562 
L 453.69375 35.416562 
L 463.69375 35.416562 
" style="fill: none; stroke: #00ff7f; stroke-linecap: square"/>
    </g>
    <g id="text_17">
     <!-- Oversold, RSI &lt;= 30 -->
     <g transform="translate(471.69375 38.916562)scale(0.1 -0.1)">
      <defs>
       <path id="DejaVuSans-4f" d="M 2522 4238 
Q 1834 4238 1429 3725 
Q 1025 3213 1025 2328 
Q 1025 1447 1429 934 
Q 1834 422 2522 422 
Q 3209 422 3611 934 
Q 4013 1447 4013 2328 
Q 4013 3213 3611 3725 
Q 3209 4238 2522 4238 
z
M 2522 4750 
Q 3503 4750 4090 4092 
Q 4678 3434 4678 2328 
Q 4678 1225 4090 567 
Q 3503 -91 2522 -91 
Q 1538 -91 948 565 
Q 359 1222 359 2328 
Q 359 3434 948 4092 
Q 1538 4750 2522 4750 
z
" transform="scale(0.015625)"/>
       <path id="DejaVuSans-73" d="M 2834 3397 
L 2834 2853 
Q 2591 2978 2328 3040 
Q 2066 3103 1784 3103 
Q 1356 3103 1142 2972 
Q 928 2841 928 2578 
Q 928 2378 1081 2264 
Q 1234 2150 1697 2047 
L 1894 2003 
Q 2506 1872 2764 1633 
Q 3022 1394 3022 966 
Q 3022 478 2636 193 
Q 2250 -91 1575 -91 
Q 1294 -91 989 -36 
Q 684 19 347 128 
L 347 722 
Q 666 556 975 473 
Q 1284 391 1588 391 
Q 1994 391 2212 530 
Q 2431 669 2431 922 
Q 2431 1156 2273 1281 
Q 2116 1406 1581 1522 
L 1381 1569 
Q 847 1681 609 1914 
Q 372 2147 372 2553 
Q 372 3047 722 3315 
Q 1072 3584 1716 3584 
Q 2034 3584 2315 3537 
Q 2597 3491 2834 3397 
z
" transform="scale(0.015625)"/>
       <path id="DejaVuSans-6f" d="M 1959 3097 
Q 1497 3097 1228 2736 
Q 959 2375 959 1747 
Q 959 1119 1226 758 
Q 1494 397 1959 397 
Q 2419 397 2687 759 
Q 2956 1122 2956 1747 
Q 2956 2369 2687 2733 
Q 2419 3097 1959 3097 
z
M 1959 3584 
Q 2709 3584 3137 3096 
Q 3566 2609 3566 1747 
Q 3566 888 3137 398 
Q 2709 -91 1959 -91 
Q 1206 -91 779 398 
Q 353 888 353 1747 
Q 353 2609 779 3096 
Q 1206 3584 1959 3584 
z
" transform="scale(0.015625)"/>
       <path id="DejaVuSans-3c" d="M 4684 3150 
L 1459 2003 
L 4684 863 
L 4684 294 
L 678 1747 
L 678 2266 
L 4684 3719 
L 4684 3150 
z
" transform="scale(0.015625)"/>
       <path id="DejaVuSans-3d" d="M 678 2906 
L 4684 2906 
L 4684 2381 
L 678 2381 
L 678 2906 
z
M 678 1631 
L 4684 1631 
L 4684 1100 
L 678 1100 
L 678 1631 
z
" transform="scale(0.015625)"/>
      </defs>
      <use xlink:href="#DejaVuSans-4f"/>
      <use xlink:href="#DejaVuSans-76" x="78.710938"/>
      <use xlink:href="#DejaVuSans-65" x="137.890625"/>
      <use xlink:href="#DejaVuSans-72" x="199.414062"/>
      <use xlink:href="#DejaVuSans-73" x="240.527344"/>
      <use xlink:href="#DejaVuSans-6f" x="292.626953"/>
      <use xlink:href="#DejaVuSans-6c" x="353.808594"/>
      <use xlink:href="#DejaVuSans-64" x="381.591797"/>
      <use xlink:href="#DejaVuSans-2c" x="445.068359"/>
      <use xlink:href="#DejaVuSans-20" x="476.855469"/>
      <use xlink:href="#DejaVuSans-52" x="508.642578"/>
      <use xlink:href="#DejaVuSans-53" x="578.125"/>
      <use xlink:href="#DejaVuSans-49" x="641.601562"/>
      <use xlink:href="#DejaVuSans-20" x="671.09375"/>
      <use xlink:href="#DejaVuSans-3c" x="702.880859"/>
      <use xlink:href="#DejaVuSans-3d" x="786.669922"/>
      <use xlink:href="#DejaVuSans-20" x="870.458984"/>
      <use xlink:href="#DejaVuSans-33" x="902.246094"/>
      <use xlink:href="#DejaVuSans-30" x="965.869141"/>
     </g>
    </g>
    <g id="line2d_26">
     <path d="M 443.69375 50.094687 
L 453.69375 50.094687 
L 463.69375 50.094687 
" style="fill: none; stroke: #ff4500; stroke-linecap: square"/>
    </g>
    <g id="text_18">
     <!-- Overbought, RSI &gt;= 70 -->
     <g transform="translate(471.69375 53.594687)scale(0.1 -0.1)">
      <defs>
       <path id="DejaVuSans-62" d="M 3116 1747 
Q 3116 2381 2855 2742 
Q 2594 3103 2138 3103 
Q 1681 3103 1420 2742 
Q 1159 2381 1159 1747 
Q 1159 1113 1420 752 
Q 1681 391 2138 391 
Q 2594 391 2855 752 
Q 3116 1113 3116 1747 
z
M 1159 2969 
Q 1341 3281 1617 3432 
Q 1894 3584 2278 3584 
Q 2916 3584 3314 3078 
Q 3713 2572 3713 1747 
Q 3713 922 3314 415 
Q 2916 -91 2278 -91 
Q 1894 -91 1617 61 
Q 1341 213 1159 525 
L 1159 0 
L 581 0 
L 581 4863 
L 1159 4863 
L 1159 2969 
z
" transform="scale(0.015625)"/>
       <path id="DejaVuSans-75" d="M 544 1381 
L 544 3500 
L 1119 3500 
L 1119 1403 
Q 1119 906 1312 657 
Q 1506 409 1894 409 
Q 2359 409 2629 706 
Q 2900 1003 2900 1516 
L 2900 3500 
L 3475 3500 
L 3475 0 
L 2900 0 
L 2900 538 
Q 2691 219 2414 64 
Q 2138 -91 1772 -91 
Q 1169 -91 856 284 
Q 544 659 544 1381 
z
M 1991 3584 
L 1991 3584 
z
" transform="scale(0.015625)"/>
       <path id="DejaVuSans-3e" d="M 678 3150 
L 678 3719 
L 4684 2266 
L 4684 1747 
L 678 294 
L 678 863 
L 3897 2003 
L 678 3150 
z
" transform="scale(0.015625)"/>
      </defs>
      <use xlink:href="#DejaVuSans-4f"/>
      <use xlink:href="#DejaVuSans-76" x="78.710938"/>
      <use xlink:href="#DejaVuSans-65" x="137.890625"/>
      <use xlink:href="#DejaVuSans-72" x="199.414062"/>
      <use xlink:href="#DejaVuSans-62" x="240.527344"/>
      <use xlink:href="#DejaVuSans-6f" x="304.003906"/>
      <use xlink:href="#DejaVuSans-75" x="365.185547"/>
      <use xlink:href="#DejaVuSans-67" x="428.564453"/>
      <use xlink:href="#DejaVuSans-68" x="492.041016"/>
      <use xlink:href="#DejaVuSans-74" x="555.419922"/>
      <use xlink:href="#DejaVuSans-2c" x="594.628906"/>
      <use xlink:href="#DejaVuSans-20" x="626.416016"/>
      <use xlink:href="#DejaVuSans-52" x="658.203125"/>
      <use xlink:href="#DejaVuSans-53" x="727.685547"/>
      <use xlink:href="#DejaVuSans-49" x="791.162109"/>
      <use xlink:href="#DejaVuSans-20" x="820.654297"/>
      <use xlink:href="#DejaVuSans-3e" x="852.441406"/>
      <use xlink:href="#DejaVuSans-3d" x="936.230469"/>
      <use xlink:href="#DejaVuSans-20" x="1020.019531"/>
      <use xlink:href="#DejaVuSans-37" x="1051.806641"/>
      <use xlink:href="#DejaVuSans-30" x="1115.429688"/>
     </g>
    </g>
    <g id="line2d_27">
     <path d="M 443.69375 64.772812 
L 453.69375 64.772812 
L 463.69375 64.772812 
" style="fill: none; stroke: #1e90ff; stroke-linecap: square"/>
    </g>
    <g id="text_19">
     <!-- Neutral -->
     <g transform="translate(471.69375 68.272812)scale(0.1 -0.1)">
      <use xlink:href="#DejaVuSans-4e"/>
      <use xlink:href="#DejaVuSans-65" x="74.804688"/>
      <use xlink:href="#DejaVuSans-75" x="136.328125"/>
      <use xlink:href="#DejaVuSans-74" x="199.707031"/>
      <use xlink:href="#DejaVuSans-72" x="238.916016"/>
      <use xlink:href="#DejaVuSans-61" x="280.029297"/>
      <use xlink:href="#DejaVuSans-6c" x="341.308594"/>
     </g>
    </g>
   </g>
  </g>
 </g>
 <defs>
  <clipPath id="p2762bb0779">
   <rect x="40.603125" y="22.318125" width="558" height="332.64"/>
  </clipPath>
 </defs>
</svg>
