<?xml version="1.0" encoding="utf-8" standalone="no"?>
<!DOCTYPE svg PUBLIC "-//W3C//DTD SVG 1.1//EN"
  "http://www.w3.org/Graphics/SVG/1.1/DTD/svg11.dtd">
<svg xmlns:xlink="http://www.w3.org/1999/xlink" width="605.803125pt" height="392.514375pt" viewBox="0 0 605.803125 392.514375" xmlns="http://www.w3.org/2000/svg" version="1.1">
 <metadata>
  <rdf:RDF xmlns:dc="http://purl.org/dc/elements/1.1/" xmlns:cc="http://creativecommons.org/ns#" xmlns:rdf="http://www.w3.org/1999/02/22-rdf-syntax-ns#">
   <cc:Work>
    <dc:type rdf:resource="http://purl.org/dc/dcmitype/StillImage"/>
    <dc:date>2023-04-24T17:59:47.201797</dc:date>
    <dc:format>image/svg+xml</dc:format>
    <dc:creator>
     <cc:Agent>
      <dc:title>Matplotlib v3.5.1, https://matplotlib.org/</dc:title>
     </cc:Agent>
    </dc:creator>
   </cc:Work>
  </rdf:RDF>
 </metadata>
 <defs>
  <style type="text/css">*{stroke-linejoin: round; stroke-linecap: butt}</style>
 </defs>
 <g id="figure_1">
  <g id="patch_1">
   <path d="M 0 392.514375 
L 605.803125 392.514375 
L 605.803125 0 
L 0 0 
z
" style="fill: #ffffff"/>
  </g>
  <g id="axes_1">
   <g id="patch_2">
    <path d="M 40.603125 354.958125 
L 598.603125 354.958125 
L 598.603125 22.318125 
L 40.603125 22.318125 
z
" style="fill: #ffffff"/>
   </g>
   <g id="matplotlib.axis_1">
    <g id="xtick_1">
     <g id="line2d_1">
      <defs>
       <path id="m51fc57a8d6" d="M 0 0 
L 0 3.5 
" style="stroke: #000000; stroke-width: 0.8"/>
      </defs>
      <g>
       <use xlink:href="#m51fc57a8d6" x="65.966761" y="354.958125" style="stroke: #000000; stroke-width: 0.8"/>
      </g>
     </g>
     <g id="text_1">
      <!-- 0 -->
      <g transform="translate(62.785511 369.556562)scale(0.1 -0.1)">
       <defs>
        <path id="DejaVuSans-30" d="M 2034 4250 
Q 1547 4250 1301 3770 
Q 1056 3291 1056 2328 
Q 1056 1369 1301 889 
Q 1547 409 2034 409 
Q 2525 409 2770 889 
Q 3016 1369 3016 2328 
Q 3016 3291 2770 3770 
Q 2525 4250 2034 4250 
z
M 2034 4750 
Q 2819 4750 3233 4129 
Q 3647 3509 3647 2328 
Q 3647 1150 3233 529 
Q 2819 -91 2034 -91 
Q 1250 -91 836 529 
Q 422 1150 422 2328 
Q 422 3509 836 4129 
Q 1250 4750 2034 4750 
z
" transform="scale(0.015625)"/>
       </defs>
       <use xlink:href="#DejaVuSans-30"/>
      </g>
     </g>
    </g>
    <g id="xtick_2">
     <g id="line2d_2">
      <g>
       <use xlink:href="#m51fc57a8d6" x="181.729593" y="354.958125" style="stroke: #000000; stroke-width: 0.8"/>
      </g>
     </g>
     <g id="text_2">
      <!-- 500 -->
      <g transform="translate(172.185843 369.556562)scale(0.1 -0.1)">
       <defs>
        <path id="DejaVuSans-35" d="M 691 4666 
L 3169 4666 
L 3169 4134 
L 1269 4134 
L 1269 2991 
Q 1406 3038 1543 3061 
Q 1681 3084 1819 3084 
Q 2600 3084 3056 2656 
Q 3513 2228 3513 1497 
Q 3513 744 3044 326 
Q 2575 -91 1722 -91 
Q 1428 -91 1123 -41 
Q 819 9 494 109 
L 494 744 
Q 775 591 1075 516 
Q 1375 441 1709 441 
Q 2250 441 2565 725 
Q 2881 1009 2881 1497 
Q 2881 1984 2565 2268 
Q 2250 2553 1709 2553 
Q 1456 2553 1204 2497 
Q 953 2441 691 2322 
L 691 4666 
z
" transform="scale(0.015625)"/>
       </defs>
       <use xlink:href="#DejaVuSans-35"/>
       <use xlink:href="#DejaVuSans-30" x="63.623047"/>
       <use xlink:href="#DejaVuSans-30" x="127.246094"/>
      </g>
     </g>
    </g>
    <g id="xtick_3">
     <g id="line2d_3">
      <g>
       <use xlink:href="#m51fc57a8d6" x="297.492424" y="354.958125" style="stroke: #000000; stroke-width: 0.8"/>
      </g>
     </g>
     <g id="text_3">
      <!-- 1000 -->
      <g transform="translate(284.767424 369.556562)scale(0.1 -0.1)">
       <defs>
        <path id="DejaVuSans-31" d="M 794 531 
L 1825 531 
L 1825 4091 
L 703 3866 
L 703 4441 
L 1819 4666 
L 2450 4666 
L 2450 531 
L 3481 531 
L 3481 0 
L 794 0 
L 794 531 
z
" transform="scale(0.015625)"/>
       </defs>
       <use xlink:href="#DejaVuSans-31"/>
       <use xlink:href="#DejaVuSans-30" x="63.623047"/>
       <use xlink:href="#DejaVuSans-30" x="127.246094"/>
       <use xlink:href="#DejaVuSans-30" x="190.869141"/>
      </g>
     </g>
    </g>
    <g id="xtick_4">
     <g id="line2d_4">
      <g>
       <use xlink:href="#m51fc57a8d6" x="413.255256" y="354.958125" style="stroke: #000000; stroke-width: 0.8"/>
      </g>
     </g>
     <g id="text_4">
      <!-- 1500 -->
      <g transform="translate(400.530256 369.556562)scale(0.1 -0.1)">
       <use xlink:href="#DejaVuSans-31"/>
       <use xlink:href="#DejaVuSans-35" x="63.623047"/>
       <use xlink:href="#DejaVuSans-30" x="127.246094"/>
       <use xlink:href="#DejaVuSans-30" x="190.869141"/>
      </g>
     </g>
    </g>
    <g id="xtick_5">
     <g id="line2d_5">
      <g>
       <use xlink:href="#m51fc57a8d6" x="529.018087" y="354.958125" style="stroke: #000000; stroke-width: 0.8"/>
      </g>
     </g>
     <g id="text_5">
      <!-- 2000 -->
      <g transform="translate(516.293087 369.556562)scale(0.1 -0.1)">
       <defs>
        <path id="DejaVuSans-32" d="M 1228 531 
L 3431 531 
L 3431 0 
L 469 0 
L 469 531 
Q 828 903 1448 1529 
Q 2069 2156 2228 2338 
Q 2531 2678 2651 2914 
Q 2772 3150 2772 3378 
Q 2772 3750 2511 3984 
Q 2250 4219 1831 4219 
Q 1534 4219 1204 4116 
Q 875 4013 500 3803 
L 500 4441 
Q 881 4594 1212 4672 
Q 1544 4750 1819 4750 
Q 2544 4750 2975 4387 
Q 3406 4025 3406 3419 
Q 3406 3131 3298 2873 
Q 3191 2616 2906 2266 
Q 2828 2175 2409 1742 
Q 1991 1309 1228 531 
z
" transform="scale(0.015625)"/>
       </defs>
       <use xlink:href="#DejaVuSans-32"/>
       <use xlink:href="#DejaVuSans-30" x="63.623047"/>
       <use xlink:href="#DejaVuSans-30" x="127.246094"/>
       <use xlink:href="#DejaVuSans-30" x="190.869141"/>
      </g>
     </g>
    </g>
    <g id="text_6">
     <!-- Date -->
     <g transform="translate(307.652344 383.234687)scale(0.1 -0.1)">
      <defs>
       <path id="DejaVuSans-44" d="M 1259 4147 
L 1259 519 
L 2022 519 
Q 2988 519 3436 956 
Q 3884 1394 3884 2338 
Q 3884 3275 3436 3711 
Q 2988 4147 2022 4147 
L 1259 4147 
z
M 628 4666 
L 1925 4666 
Q 3281 4666 3915 4102 
Q 4550 3538 4550 2338 
Q 4550 1131 3912 565 
Q 3275 0 1925 0 
L 628 0 
L 628 4666 
z
" transform="scale(0.015625)"/>
       <path id="DejaVuSans-61" d="M 2194 1759 
Q 1497 1759 1228 1600 
Q 959 1441 959 1056 
Q 959 750 1161 570 
Q 1363 391 1709 391 
Q 2188 391 2477 730 
Q 2766 1069 2766 1631 
L 2766 1759 
L 2194 1759 
z
M 3341 1997 
L 3341 0 
L 2766 0 
L 2766 531 
Q 2569 213 2275 61 
Q 1981 -91 1556 -91 
Q 1019 -91 701 211 
Q 384 513 384 1019 
Q 384 1609 779 1909 
Q 1175 2209 1959 2209 
L 2766 2209 
L 2766 2266 
Q 2766 2663 2505 2880 
Q 2244 3097 1772 3097 
Q 1472 3097 1187 3025 
Q 903 2953 641 2809 
L 641 3341 
Q 956 3463 1253 3523 
Q 1550 3584 1831 3584 
Q 2591 3584 2966 3190 
Q 3341 2797 3341 1997 
z
" transform="scale(0.015625)"/>
       <path id="DejaVuSans-74" d="M 1172 4494 
L 1172 3500 
L 2356 3500 
L 2356 3053 
L 1172 3053 
L 1172 1153 
Q 1172 725 1289 603 
Q 1406 481 1766 481 
L 2356 481 
L 2356 0 
L 1766 0 
Q 1100 0 847 248 
Q 594 497 594 1153 
L 594 3053 
L 172 3053 
L 172 3500 
L 594 3500 
L 594 4494 
L 1172 4494 
z
" transform="scale(0.015625)"/>
       <path id="DejaVuSans-65" d="M 3597 1894 
L 3597 1613 
L 953 1613 
Q 991 1019 1311 708 
Q 1631 397 2203 397 
Q 2534 397 2845 478 
Q 3156 559 3463 722 
L 3463 178 
Q 3153 47 2828 -22 
Q 2503 -91 2169 -91 
Q 1331 -91 842 396 
Q 353 884 353 1716 
Q 353 2575 817 3079 
Q 1281 3584 2069 3584 
Q 2775 3584 3186 3129 
Q 3597 2675 3597 1894 
z
M 3022 2063 
Q 3016 2534 2758 2815 
Q 2500 3097 2075 3097 
Q 1594 3097 1305 2825 
Q 1016 2553 972 2059 
L 3022 2063 
z
" transform="scale(0.015625)"/>
      </defs>
      <use xlink:href="#DejaVuSans-44"/>
      <use xlink:href="#DejaVuSans-61" x="77.001953"/>
      <use xlink:href="#DejaVuSans-74" x="138.28125"/>
      <use xlink:href="#DejaVuSans-65" x="177.490234"/>
     </g>
    </g>
   </g>
   <g id="matplotlib.axis_2">
    <g id="ytick_1">
     <g id="line2d_6">
      <path d="M 40.603125 321.103937 
L 598.603125 321.103937 
" clip-path="url(#p2c9f20d2d0)" style="fill: none; stroke: #dcdcdc; stroke-width: 0.5; stroke-linecap: square"/>
     </g>
     <g id="line2d_7">
      <defs>
       <path id="m6e4f795369" d="M 0 0 
L -3.5 0 
" style="stroke: #000000; stroke-width: 0.8"/>
      </defs>
      <g>
       <use xlink:href="#m6e4f795369" x="40.603125" y="321.103937" style="stroke: #000000; stroke-width: 0.8"/>
      </g>
     </g>
     <g id="text_7">
      <!-- 10 -->
      <g transform="translate(20.878125 324.903156)scale(0.1 -0.1)">
       <use xlink:href="#DejaVuSans-31"/>
       <use xlink:href="#DejaVuSans-30" x="63.623047"/>
      </g>
     </g>
    </g>
    <g id="ytick_2">
     <g id="line2d_8">
      <path d="M 40.603125 280.288712 
L 598.603125 280.288712 
" clip-path="url(#p2c9f20d2d0)" style="fill: none; stroke: #dcdcdc; stroke-width: 0.5; stroke-linecap: square"/>
     </g>
     <g id="line2d_9">
      <g>
       <use xlink:href="#m6e4f795369" x="40.603125" y="280.288712" style="stroke: #000000; stroke-width: 0.8"/>
      </g>
     </g>
     <g id="text_8">
      <!-- 20 -->
      <g transform="translate(20.878125 284.087931)scale(0.1 -0.1)">
       <use xlink:href="#DejaVuSans-32"/>
       <use xlink:href="#DejaVuSans-30" x="63.623047"/>
      </g>
     </g>
    </g>
    <g id="ytick_3">
     <g id="line2d_10">
      <path d="M 40.603125 239.473487 
L 598.603125 239.473487 
" clip-path="url(#p2c9f20d2d0)" style="fill: none; stroke: #dcdcdc; stroke-width: 0.5; stroke-linecap: square"/>
     </g>
     <g id="line2d_11">
      <g>
       <use xlink:href="#m6e4f795369" x="40.603125" y="239.473487" style="stroke: #000000; stroke-width: 0.8"/>
      </g>
     </g>
     <g id="text_9">
      <!-- 30 -->
      <g transform="translate(20.878125 243.272706)scale(0.1 -0.1)">
       <defs>
        <path id="DejaVuSans-33" d="M 2597 2516 
Q 3050 2419 3304 2112 
Q 3559 1806 3559 1356 
Q 3559 666 3084 287 
Q 2609 -91 1734 -91 
Q 1441 -91 1130 -33 
Q 819 25 488 141 
L 488 750 
Q 750 597 1062 519 
Q 1375 441 1716 441 
Q 2309 441 2620 675 
Q 2931 909 2931 1356 
Q 2931 1769 2642 2001 
Q 2353 2234 1838 2234 
L 1294 2234 
L 1294 2753 
L 1863 2753 
Q 2328 2753 2575 2939 
Q 2822 3125 2822 3475 
Q 2822 3834 2567 4026 
Q 2313 4219 1838 4219 
Q 1578 4219 1281 4162 
Q 984 4106 628 3988 
L 628 4550 
Q 988 4650 1302 4700 
Q 1616 4750 1894 4750 
Q 2613 4750 3031 4423 
Q 3450 4097 3450 3541 
Q 3450 3153 3228 2886 
Q 3006 2619 2597 2516 
z
" transform="scale(0.015625)"/>
       </defs>
       <use xlink:href="#DejaVuSans-33"/>
       <use xlink:href="#DejaVuSans-30" x="63.623047"/>
      </g>
     </g>
    </g>
    <g id="ytick_4">
     <g id="line2d_12">
      <path d="M 40.603125 198.658263 
L 598.603125 198.658263 
" clip-path="url(#p2c9f20d2d0)" style="fill: none; stroke: #dcdcdc; stroke-width: 0.5; stroke-linecap: square"/>
     </g>
     <g id="line2d_13">
      <g>
       <use xlink:href="#m6e4f795369" x="40.603125" y="198.658263" style="stroke: #000000; stroke-width: 0.8"/>
      </g>
     </g>
     <g id="text_10">
      <!-- 40 -->
      <g transform="translate(20.878125 202.457481)scale(0.1 -0.1)">
       <defs>
        <path id="DejaVuSans-34" d="M 2419 4116 
L 825 1625 
L 2419 1625 
L 2419 4116 
z
M 2253 4666 
L 3047 4666 
L 3047 1625 
L 3713 1625 
L 3713 1100 
L 3047 1100 
L 3047 0 
L 2419 0 
L 2419 1100 
L 313 1100 
L 313 1709 
L 2253 4666 
z
" transform="scale(0.015625)"/>
       </defs>
       <use xlink:href="#DejaVuSans-34"/>
       <use xlink:href="#DejaVuSans-30" x="63.623047"/>
      </g>
     </g>
    </g>
    <g id="ytick_5">
     <g id="line2d_14">
      <path d="M 40.603125 157.843038 
L 598.603125 157.843038 
" clip-path="url(#p2c9f20d2d0)" style="fill: none; stroke: #dcdcdc; stroke-width: 0.5; stroke-linecap: square"/>
     </g>
     <g id="line2d_15">
      <g>
       <use xlink:href="#m6e4f795369" x="40.603125" y="157.843038" style="stroke: #000000; stroke-width: 0.8"/>
      </g>
     </g>
     <g id="text_11">
      <!-- 50 -->
      <g transform="translate(20.878125 161.642257)scale(0.1 -0.1)">
       <use xlink:href="#DejaVuSans-35"/>
       <use xlink:href="#DejaVuSans-30" x="63.623047"/>
      </g>
     </g>
    </g>
    <g id="ytick_6">
     <g id="line2d_16">
      <path d="M 40.603125 117.027813 
L 598.603125 117.027813 
" clip-path="url(#p2c9f20d2d0)" style="fill: none; stroke: #dcdcdc; stroke-width: 0.5; stroke-linecap: square"/>
     </g>
     <g id="line2d_17">
      <g>
       <use xlink:href="#m6e4f795369" x="40.603125" y="117.027813" style="stroke: #000000; stroke-width: 0.8"/>
      </g>
     </g>
     <g id="text_12">
      <!-- 60 -->
      <g transform="translate(20.878125 120.827032)scale(0.1 -0.1)">
       <defs>
        <path id="DejaVuSans-36" d="M 2113 2584 
Q 1688 2584 1439 2293 
Q 1191 2003 1191 1497 
Q 1191 994 1439 701 
Q 1688 409 2113 409 
Q 2538 409 2786 701 
Q 3034 994 3034 1497 
Q 3034 2003 2786 2293 
Q 2538 2584 2113 2584 
z
M 3366 4563 
L 3366 3988 
Q 3128 4100 2886 4159 
Q 2644 4219 2406 4219 
Q 1781 4219 1451 3797 
Q 1122 3375 1075 2522 
Q 1259 2794 1537 2939 
Q 1816 3084 2150 3084 
Q 2853 3084 3261 2657 
Q 3669 2231 3669 1497 
Q 3669 778 3244 343 
Q 2819 -91 2113 -91 
Q 1303 -91 875 529 
Q 447 1150 447 2328 
Q 447 3434 972 4092 
Q 1497 4750 2381 4750 
Q 2619 4750 2861 4703 
Q 3103 4656 3366 4563 
z
" transform="scale(0.015625)"/>
       </defs>
       <use xlink:href="#DejaVuSans-36"/>
       <use xlink:href="#DejaVuSans-30" x="63.623047"/>
      </g>
     </g>
    </g>
    <g id="ytick_7">
     <g id="line2d_18">
      <path d="M 40.603125 76.212588 
L 598.603125 76.212588 
" clip-path="url(#p2c9f20d2d0)" style="fill: none; stroke: #dcdcdc; stroke-width: 0.5; stroke-linecap: square"/>
     </g>
     <g id="line2d_19">
      <g>
       <use xlink:href="#m6e4f795369" x="40.603125" y="76.212588" style="stroke: #000000; stroke-width: 0.8"/>
      </g>
     </g>
     <g id="text_13">
      <!-- 70 -->
      <g transform="translate(20.878125 80.011807)scale(0.1 -0.1)">
       <defs>
        <path id="DejaVuSans-37" d="M 525 4666 
L 3525 4666 
L 3525 4397 
L 1831 0 
L 1172 0 
L 2766 4134 
L 525 4134 
L 525 4666 
z
" transform="scale(0.015625)"/>
       </defs>
       <use xlink:href="#DejaVuSans-37"/>
       <use xlink:href="#DejaVuSans-30" x="63.623047"/>
      </g>
     </g>
    </g>
    <g id="ytick_8">
     <g id="line2d_20">
      <path d="M 40.603125 35.397364 
L 598.603125 35.397364 
" clip-path="url(#p2c9f20d2d0)" style="fill: none; stroke: #dcdcdc; stroke-width: 0.5; stroke-linecap: square"/>
     </g>
     <g id="line2d_21">
      <g>
       <use xlink:href="#m6e4f795369" x="40.603125" y="35.397364" style="stroke: #000000; stroke-width: 0.8"/>
      </g>
     </g>
     <g id="text_14">
      <!-- 80 -->
      <g transform="translate(20.878125 39.196583)scale(0.1 -0.1)">
       <defs>
        <path id="DejaVuSans-38" d="M 2034 2216 
Q 1584 2216 1326 1975 
Q 1069 1734 1069 1313 
Q 1069 891 1326 650 
Q 1584 409 2034 409 
Q 2484 409 2743 651 
Q 3003 894 3003 1313 
Q 3003 1734 2745 1975 
Q 2488 2216 2034 2216 
z
M 1403 2484 
Q 997 2584 770 2862 
Q 544 3141 544 3541 
Q 544 4100 942 4425 
Q 1341 4750 2034 4750 
Q 2731 4750 3128 4425 
Q 3525 4100 3525 3541 
Q 3525 3141 3298 2862 
Q 3072 2584 2669 2484 
Q 3125 2378 3379 2068 
Q 3634 1759 3634 1313 
Q 3634 634 3220 271 
Q 2806 -91 2034 -91 
Q 1263 -91 848 271 
Q 434 634 434 1313 
Q 434 1759 690 2068 
Q 947 2378 1403 2484 
z
M 1172 3481 
Q 1172 3119 1398 2916 
Q 1625 2713 2034 2713 
Q 2441 2713 2670 2916 
Q 2900 3119 2900 3481 
Q 2900 3844 2670 4047 
Q 2441 4250 2034 4250 
Q 1625 4250 1398 4047 
Q 1172 3844 1172 3481 
z
" transform="scale(0.015625)"/>
       </defs>
       <use xlink:href="#DejaVuSans-38"/>
       <use xlink:href="#DejaVuSans-30" x="63.623047"/>
      </g>
     </g>
    </g>
    <g id="text_15">
     <!-- Price (USD) -->
     <g transform="translate(14.798437 217.01)rotate(-90)scale(0.1 -0.1)">
      <defs>
       <path id="DejaVuSans-50" d="M 1259 4147 
L 1259 2394 
L 2053 2394 
Q 2494 2394 2734 2622 
Q 2975 2850 2975 3272 
Q 2975 3691 2734 3919 
Q 2494 4147 2053 4147 
L 1259 4147 
z
M 628 4666 
L 2053 4666 
Q 2838 4666 3239 4311 
Q 3641 3956 3641 3272 
Q 3641 2581 3239 2228 
Q 2838 1875 2053 1875 
L 1259 1875 
L 1259 0 
L 628 0 
L 628 4666 
z
" transform="scale(0.015625)"/>
       <path id="DejaVuSans-72" d="M 2631 2963 
Q 2534 3019 2420 3045 
Q 2306 3072 2169 3072 
Q 1681 3072 1420 2755 
Q 1159 2438 1159 1844 
L 1159 0 
L 581 0 
L 581 3500 
L 1159 3500 
L 1159 2956 
Q 1341 3275 1631 3429 
Q 1922 3584 2338 3584 
Q 2397 3584 2469 3576 
Q 2541 3569 2628 3553 
L 2631 2963 
z
" transform="scale(0.015625)"/>
       <path id="DejaVuSans-69" d="M 603 3500 
L 1178 3500 
L 1178 0 
L 603 0 
L 603 3500 
z
M 603 4863 
L 1178 4863 
L 1178 4134 
L 603 4134 
L 603 4863 
z
" transform="scale(0.015625)"/>
       <path id="DejaVuSans-63" d="M 3122 3366 
L 3122 2828 
Q 2878 2963 2633 3030 
Q 2388 3097 2138 3097 
Q 1578 3097 1268 2742 
Q 959 2388 959 1747 
Q 959 1106 1268 751 
Q 1578 397 2138 397 
Q 2388 397 2633 464 
Q 2878 531 3122 666 
L 3122 134 
Q 2881 22 2623 -34 
Q 2366 -91 2075 -91 
Q 1284 -91 818 406 
Q 353 903 353 1747 
Q 353 2603 823 3093 
Q 1294 3584 2113 3584 
Q 2378 3584 2631 3529 
Q 2884 3475 3122 3366 
z
" transform="scale(0.015625)"/>
       <path id="DejaVuSans-20" transform="scale(0.015625)"/>
       <path id="DejaVuSans-28" d="M 1984 4856 
Q 1566 4138 1362 3434 
Q 1159 2731 1159 2009 
Q 1159 1288 1364 580 
Q 1569 -128 1984 -844 
L 1484 -844 
Q 1016 -109 783 600 
Q 550 1309 550 2009 
Q 550 2706 781 3412 
Q 1013 4119 1484 4856 
L 1984 4856 
z
" transform="scale(0.015625)"/>
       <path id="DejaVuSans-55" d="M 556 4666 
L 1191 4666 
L 1191 1831 
Q 1191 1081 1462 751 
Q 1734 422 2344 422 
Q 2950 422 3222 751 
Q 3494 1081 3494 1831 
L 3494 4666 
L 4128 4666 
L 4128 1753 
Q 4128 841 3676 375 
Q 3225 -91 2344 -91 
Q 1459 -91 1007 375 
Q 556 841 556 1753 
L 556 4666 
z
" transform="scale(0.015625)"/>
       <path id="DejaVuSans-53" d="M 3425 4513 
L 3425 3897 
Q 3066 4069 2747 4153 
Q 2428 4238 2131 4238 
Q 1616 4238 1336 4038 
Q 1056 3838 1056 3469 
Q 1056 3159 1242 3001 
Q 1428 2844 1947 2747 
L 2328 2669 
Q 3034 2534 3370 2195 
Q 3706 1856 3706 1288 
Q 3706 609 3251 259 
Q 2797 -91 1919 -91 
Q 1588 -91 1214 -16 
Q 841 59 441 206 
L 441 856 
Q 825 641 1194 531 
Q 1563 422 1919 422 
Q 2459 422 2753 634 
Q 3047 847 3047 1241 
Q 3047 1584 2836 1778 
Q 2625 1972 2144 2069 
L 1759 2144 
Q 1053 2284 737 2584 
Q 422 2884 422 3419 
Q 422 4038 858 4394 
Q 1294 4750 2059 4750 
Q 2388 4750 2728 4690 
Q 3069 4631 3425 4513 
z
" transform="scale(0.015625)"/>
       <path id="DejaVuSans-29" d="M 513 4856 
L 1013 4856 
Q 1481 4119 1714 3412 
Q 1947 2706 1947 2009 
Q 1947 1309 1714 600 
Q 1481 -109 1013 -844 
L 513 -844 
Q 928 -128 1133 580 
Q 1338 1288 1338 2009 
Q 1338 2731 1133 3434 
Q 928 4138 513 4856 
z
" transform="scale(0.015625)"/>
      </defs>
      <use xlink:href="#DejaVuSans-50"/>
      <use xlink:href="#DejaVuSans-72" x="58.552734"/>
      <use xlink:href="#DejaVuSans-69" x="99.666016"/>
      <use xlink:href="#DejaVuSans-63" x="127.449219"/>
      <use xlink:href="#DejaVuSans-65" x="182.429688"/>
      <use xlink:href="#DejaVuSans-20" x="243.953125"/>
      <use xlink:href="#DejaVuSans-28" x="275.740234"/>
      <use xlink:href="#DejaVuSans-55" x="314.753906"/>
      <use xlink:href="#DejaVuSans-53" x="387.947266"/>
      <use xlink:href="#DejaVuSans-44" x="451.423828"/>
      <use xlink:href="#DejaVuSans-29" x="528.425781"/>
     </g>
    </g>
   </g>
   <g id="line2d_22">
    <path d="M 69.671172 145.190318 
L 69.902698 141.394502 
L 70.134223 146.414775 
L 70.365749 145.190318 
L 70.597275 151.965646 
L 70.8288 150.90445 
L 71.060326 145.884177 
L 71.291852 143.843416 
L 71.523377 143.680155 
L 71.754903 143.108742 
L 71.986429 138.374176 
L 72.44948 136.45586 
M 81.015929 149.557547 
L 81.247455 145.312764 
L 81.478981 145.639286 
L 81.942032 150.169776 
L 82.173558 148.537167 
L 82.405083 145.394394 
M 96.528149 122.292977 
L 96.759675 126.170424 
L 96.9912 122.741945 
L 97.454252 125.313304 
L 97.685777 121.435857 
L 97.917303 123.72151 
L 98.148828 124.374554 
L 98.380354 123.966401 
M 115.976305 121.06852 
L 116.20783 118.374716 
L 116.439356 120.211401 
L 116.670882 125.803087 
L 116.902407 119.803248 
L 117.133933 120.782814 
L 117.365459 115.191128 
L 117.596984 112.86466 
M 122.459023 102.538408 
L 122.922074 106.45667 
L 123.1536 105.844442 
L 123.385126 105.59955 
L 123.616651 102.7833 
L 123.848177 102.905745 
L 124.079703 103.599604 
L 124.311228 100.334386 
L 124.542754 101.06906 
L 125.005805 100.701723 
L 125.237331 97.885473 
L 125.700382 88.742862 
M 126.163434 84.824601 
L 126.394959 82.294057 
M 132.877678 69.069924 
L 133.109204 73.192262 
L 133.340729 73.477968 
L 133.572255 70.98824 
L 134.035306 61.763999 
L 134.266832 65.151663 
L 134.498358 65.396554 
L 135.192935 60.335466 
L 135.42446 60.294651 
L 135.655986 61.151771 
L 135.887512 57.029433 
L 136.119037 56.335574 
L 136.582089 57.151879 
L 136.813614 58.049813 
L 137.04514 56.049867 
M 160.660757 122.986836 
L 160.892283 133.272273 
M 166.680425 139.598632 
L 166.91195 142.169992 
M 174.089246 123.435803 
L 174.320772 122.252162 
M 182.192644 124.129662 
L 182.42417 122.497053 
L 182.655695 125.313304 
L 182.887221 125.843902 
L 183.118747 118.497161 
L 183.350272 116.782922 
L 183.581798 120.497107 
L 183.813324 114.129932 
L 184.044849 115.762541 
L 184.276375 110.579008 
M 185.202478 104.619985 
L 185.434003 96.865092 
M 212.29098 206.209079 
L 212.522506 204.372394 
L 212.754032 204.902992 
L 212.985557 211.923211 
L 213.217083 213.229298 
L 213.680134 207.841688 
M 236.832701 282.084582 
L 237.064226 279.105071 
L 237.527278 283.4723 
L 237.758803 274.084798 
M 241.231688 256.779143 
L 241.463214 253.881262 
L 241.694739 256.452621 
L 241.926265 255.43224 
L 242.157791 254.983273 
L 242.389316 249.922185 
L 242.852368 255.595501 
L 243.083893 254.207784 
L 243.315419 249.432402 
L 243.546945 249.269141 
L 243.77847 244.49376 
M 248.177458 234.57566 
L 248.408984 233.759356 
L 248.640509 239.310226 
L 249.103561 229.10642 
L 249.335086 228.412561 
L 249.566612 229.188051 
L 250.029663 220.576038 
M 261.374421 214.453755 
L 261.605946 214.453755 
L 261.837472 205.678481 
L 262.068998 215.35169 
L 262.300523 214.49457 
L 262.532049 206.821308 
L 262.9951 200.658209 
L 263.226626 197.841958 
L 263.689677 200.413317 
M 276.88664 207.270275 
L 277.118166 208.08658 
M 281.285628 187.842228 
L 281.517153 189.842174 
M 316.246003 238.738813 
L 316.477529 241.350988 
L 316.709054 240.575498 
L 316.94058 237.31028 
M 322.960247 236.779683 
L 323.191773 238.738813 
M 324.117875 235.473595 
L 324.349401 234.902182 
L 324.580927 234.738921 
L 324.812452 235.677671 
L 325.043978 235.43278 
L 325.275504 235.555226 
L 325.507029 233.759356 
L 325.738555 230.861475 
L 325.970081 230.779845 
L 326.201606 228.535007 
L 326.433132 229.718649 
L 326.664658 233.473649 
L 327.127709 230.616584 
L 327.359235 225.147344 
M 332.221274 216.576146 
L 332.452799 215.51495 
L 332.684325 215.596581 
L 332.915851 216.086364 
L 333.378902 219.269951 
L 333.610428 219.351582 
L 333.841953 220.494408 
L 334.073479 219.718919 
M 340.787723 205.270329 
L 341.019249 211.392613 
L 341.250774 210.290602 
L 341.4823 206.617231 
L 341.713826 204.821362 
L 341.945351 205.147883 
L 342.176877 206.331525 
L 342.408403 206.821308 
L 342.639928 208.127395 
L 342.871454 206.576416 
L 343.10298 203.964242 
L 343.334505 199.311306 
M 359.078251 238.044955 
L 359.309776 233.881802 
M 360.004353 233.55528 
L 360.235879 233.473649 
M 361.393507 224.698376 
L 361.625033 224.412669 
M 362.088084 216.249625 
L 362.31961 217.433266 
L 362.551135 217.31082 
L 362.782661 221.188267 
L 363.245712 215.882288 
L 363.477238 216.004733 
L 363.708764 213.63745 
L 363.940289 214.168048 
L 364.171815 205.882557 
L 364.403341 210.086526 
L 364.634866 207.351906 
M 401.447447 270.044091 
L 401.678972 272.493004 
L 401.910498 276.28882 
L 402.142024 269.227786 
L 402.373549 268.452297 
L 402.605075 270.248167 
L 402.836601 269.921645 
L 403.068126 267.187025 
L 403.299652 265.921753 
L 403.531178 261.636154 
M 408.856268 258.656643 
L 409.087794 260.207622 
L 409.550845 255.962838 
M 413.486781 252.901696 
L 413.718307 248.452837 
M 426.91527 259.228056 
L 427.146795 257.799523 
M 427.609847 257.921969 
L 427.841372 257.309741 
L 428.072898 257.064849 
L 428.304424 255.309795 
L 428.535949 255.391425 
M 440.575284 273.431754 
L 440.806809 273.880722 
L 441.038335 274.819472 
L 441.269861 272.452189 
M 456.319029 272.574635 
L 456.550555 272.819526 
L 456.78208 274.533765 
L 457.013606 270.533873 
L 457.245132 271.839961 
L 457.476657 267.472732 
L 457.708183 267.431916 
L 457.939709 266.329905 
L 458.171234 266.329905 
M 458.634286 266.085014 
L 458.865811 264.574851 
M 473.451928 339.838125 
L 473.683454 335.185189 
L 473.914979 337.103505 
L 474.146505 336.695353 
M 475.072608 336.246385 
L 475.304133 336.001494 
M 475.767185 334.205624 
L 475.99871 330.124102 
M 476.924813 323.512035 
L 477.156339 322.450839 
M 478.082441 328.899645 
L 478.313967 324.287524 
L 478.545493 324.532416 
L 478.777018 324.981383 
M 508.412303 326.695623 
L 508.643829 323.797742 
M 509.10688 325.960949 
L 509.338406 326.450731 
L 509.569931 328.85883 
L 510.032983 325.471166 
L 510.264508 323.430405 
L 510.959085 320.899861 
L 511.190611 322.042687 
M 512.116714 316.124479 
L 512.348239 313.838827 
M 517.904855 298.124965 
L 518.367907 301.390183 
L 518.599432 298.00252 
L 518.830958 299.349422 
L 519.062484 299.267792 
L 519.294009 299.431053 
M 523.461471 293.145508 
L 523.692997 291.67616 
M 524.156048 294.737302 
L 524.619099 292.69654 
L 524.850625 287.635453 
M 525.313676 288.859909 
L 525.545202 285.390615 
L 525.776728 284.900833 
M 526.239779 283.145778 
L 526.471305 280.370343 
M 536.426908 272.61545 
L 536.658434 272.003222 
L 536.88996 276.329635 
L 537.121485 275.513331 
L 537.353011 276.20719 
L 538.047588 271.554254 
M 540.362845 256.860773 
L 540.59437 257.513817 
L 540.825896 260.90148 
L 541.057422 254.248599 
M 541.520473 254.820012 
L 541.751998 258.738273 
L 541.983524 258.819904 
L 542.21505 258.452567 
M 559.347949 243.310119 
L 559.579475 246.697782 
L 559.811 245.799847 
L 560.042526 247.350826 
L 560.274052 243.881532 
L 560.505577 246.534521 
L 560.737103 238.126585 
L 560.968629 238.208215 
L 561.200154 240.330607 
L 561.43168 246.901858 
L 561.663205 245.636586 
L 562.126257 228.045224 
L 562.357782 226.861583 
L 562.589308 219.065875 
L 562.820834 218.535277 
L 563.052359 216.004733 
L 563.283885 216.984299 
M 567.682873 200.250056 
" clip-path="url(#p2c9f20d2d0)" style="fill: none; stroke: #00ff7f; stroke-linecap: square"/>
   </g>
   <g id="line2d_23">
    <path d="M 75.690839 116.333954 
L 75.922365 120.497107 
M 78.469147 129.884609 
L 78.700673 132.455968 
M 100.232559 95.314114 
L 100.464085 94.497809 
L 100.695611 100.293571 
M 105.326124 105.803626 
L 105.55765 106.415855 
L 105.789175 106.5383 
M 143.99091 41.519647 
L 144.222435 39.356441 
L 144.685487 44.295083 
M 148.852949 56.213128 
L 149.084474 59.27427 
L 149.316 57.029433 
M 150.242103 54.090737 
L 150.473628 59.559977 
L 150.705154 59.151825 
M 152.557359 75.110577 
L 152.788885 68.661772 
L 153.020411 69.804598 
L 153.251936 69.845413 
L 153.483462 72.253512 
L 153.714988 76.294219 
L 153.946513 76.579926 
L 154.178039 75.886067 
L 154.409565 81.518568 
L 154.64109 79.151285 
L 154.872616 77.926828 
L 155.104142 83.640959 
M 163.439065 97.31406 
L 163.670591 89.436721 
L 163.902117 87.640851 
L 164.133642 91.355037 
L 164.365168 97.518136 
M 176.867554 90.620363 
L 177.09908 89.885689 
L 177.330605 100.905799 
L 177.562131 99.028299 
L 177.793657 101.436397 
L 178.025182 100.905799 
L 178.488234 94.783516 
M 192.379773 86.375579 
L 192.611299 86.53884 
L 192.842825 91.355037 
M 195.389607 101.477213 
L 195.852658 109.395366 
L 196.084184 110.374932 
L 196.31571 106.987268 
L 196.547235 110.334116 
L 196.778761 111.150421 
L 197.010287 113.068736 
L 197.241812 111.517758 
L 197.473338 111.191236 
L 197.704864 112.578954 
L 197.936389 115.476835 
L 198.167915 115.150313 
L 198.399441 121.84401 
L 198.630966 119.10939 
L 198.862492 126.292869 
L 199.094017 125.721456 
L 199.325543 130.578468 
L 199.557069 127.966293 
L 199.788594 135.190588 
L 200.02012 133.598794 
L 200.251646 133.966131 
L 200.483171 135.802817 
L 200.714697 132.78249 
L 200.946223 138.088469 
L 201.177748 140.006785 
M 203.493005 155.353309 
L 203.956056 164.536735 
L 204.187582 162.985756 
L 204.419108 170.291681 
L 204.650633 164.781626 
M 221.088955 172.128367 
L 221.320481 174.536465 
L 221.552007 169.801899 
L 222.015058 177.23027 
L 222.246584 178.536357 
L 222.478109 171.92429 
L 222.709635 174.536465 
L 222.941161 178.781248 
L 223.172686 174.128313 
L 223.404212 172.169182 
L 223.867263 194.168588 
L 224.098789 196.495056 
M 227.108623 226.412615 
L 227.340148 228.453377 
L 227.571674 232.575714 
L 227.8032 230.330877 
M 232.433713 252.575175 
L 232.665239 248.044685 
L 233.12829 261.146372 
L 233.359816 253.391479 
L 233.591341 253.513925 
M 265.773408 177.3119 
L 266.004934 180.250596 
M 266.699511 178.209835 
L 266.931037 180.536303 
M 273.413755 180.740379 
L 273.645281 181.76076 
L 273.876807 180.04652 
M 295.871745 179.760814 
L 296.10327 184.49538 
L 296.334796 184.985162 
L 296.566322 182.577064 
L 296.797847 184.128043 
M 302.354463 186.168804 
L 302.817514 191.025816 
L 303.04904 196.005273 
M 306.984976 207.270275 
L 307.216502 204.617285 
L 307.448028 207.025384 
L 307.679553 207.392721 
L 307.911079 206.168264 
L 308.142605 207.147829 
L 308.605656 211.310982 
L 308.837182 205.229514 
L 309.300233 207.555982 
L 309.531759 210.372232 
M 319.718888 225.310604 
L 319.950413 226.3718 
L 320.181939 225.963648 
M 330.137543 212.086472 
L 330.600594 212.821146 
M 336.15721 195.148153 
L 336.388736 193.515544 
L 336.620261 197.597067 
M 346.80739 182.168912 
L 347.038916 185.352499 
L 347.270442 184.617825 
L 347.733493 187.025924 
L 347.965019 179.02614 
L 348.196544 180.209781 
L 348.42807 180.209781 
L 348.659596 182.69951 
L 348.891121 182.903586 
L 349.122647 185.066793 
L 349.354173 192.454349 
L 349.585698 193.066577 
L 349.817224 189.597283 
L 350.280275 204.168318 
L 350.511801 205.270329 
L 350.743327 211.882395 
M 377.831829 177.638422 
L 378.063355 180.087335 
L 378.294881 178.005759 
L 378.526406 178.209835 
M 387.092856 196.413425 
L 387.324381 192.331903 
L 387.555907 192.903316 
M 388.250484 198.903154 
L 388.48201 197.841958 
L 388.713535 199.229676 
L 388.945061 196.005273 
L 389.176587 198.08685 
L 389.408112 198.495002 
L 389.639638 203.63772 
L 389.871164 200.658209 
L 390.102689 209.678373 
M 394.038626 230.167616 
L 394.270151 226.820768 
L 394.501677 227.514627 
L 394.733203 223.718811 
L 394.964728 228.371746 
L 395.196254 227.188105 
M 398.206088 252.085392 
L 398.437613 251.595609 
L 398.669139 244.49376 
L 399.363716 250.90175 
M 420.432551 218.412831 
L 420.664077 220.698484 
L 420.895602 221.147451 
M 422.747808 233.392019 
L 422.979333 235.187889 
L 423.210859 233.228758 
L 423.442385 234.371584 
L 423.67391 234.126693 
L 423.905436 239.800009 
L 424.136962 236.37153 
L 424.368487 235.677671 
L 424.600013 234.167508 
L 425.063064 239.351042 
L 425.29459 234.902182 
L 425.526116 242.289738 
M 431.082732 244.657021 
L 431.314257 246.412076 
M 435.481719 253.718001 
L 435.713245 257.554632 
L 435.944771 257.677078 
M 436.407822 252.207838 
L 436.639348 251.718055 
M 444.048169 247.14675 
L 444.279694 253.024142 
L 444.51122 253.758816 
L 444.742746 255.962838 
L 444.974271 255.35061 
L 445.205797 256.493436 
L 445.437323 261.023926 
L 445.668848 261.064741 
L 446.1319 262.942242 
L 446.363425 263.717731 
L 446.594951 267.472732 
M 461.875645 254.126153 
L 462.10717 253.799631 
L 462.338696 257.636262 
L 462.570222 256.411806 
L 462.801747 259.472948 
L 463.033273 258.411752 
L 463.264799 254.860827 
M 466.506158 272.69708 
L 466.737684 266.37072 
L 467.432261 269.921645 
L 467.663786 269.268601 
L 467.895312 266.982949 
L 468.126838 266.819688 
L 468.589889 271.472624 
L 468.821415 269.186971 
L 469.05294 271.513439 
L 469.284466 276.329635 
L 469.747517 289.349692 
L 470.210569 297.961704 
L 470.442094 295.635237 
L 470.67362 295.34953 
L 470.905146 297.471922 
L 471.136671 295.553606 
L 471.368197 296.818878 
M 486.417365 297.594367 
L 486.648891 302.53301 
M 487.806519 307.634913 
L 488.038045 310.369533 
L 488.26957 309.063446 
L 488.501096 309.104261 
L 488.732622 310.083826 
M 497.993648 315.634697 
L 498.225174 316.655077 
L 498.4567 318.287686 
M 498.919751 317.920349 
L 499.151277 317.104045 
M 500.308905 317.389751 
L 500.540431 318.410132 
M 548.697768 239.636748 
" clip-path="url(#p2c9f20d2d0)" style="fill: none; stroke: #ff4500; stroke-linecap: square"/>
   </g>
   <g id="line2d_24">
    <path d="M 65.966761 129.639718 
L 66.198287 128.007109 
L 66.429813 129.19075 
L 66.661338 128.415261 
L 66.892864 128.700967 
L 67.587441 137.639502 
L 67.818967 142.129176 
L 68.050492 144.006677 
L 69.208121 131.149881 
L 69.439646 137.231349 
M 72.681006 130.741729 
L 72.912531 124.57863 
L 73.144057 123.558249 
L 73.375583 124.701075 
L 73.607108 123.435803 
L 73.838634 123.599064 
L 74.07016 120.374662 
L 74.301685 120.415477 
L 74.533211 119.272651 
L 74.996262 124.252108 
L 75.227788 121.966455 
L 75.459314 117.599226 
M 76.153891 124.007217 
L 76.385416 125.843902 
L 76.848468 122.497053 
L 77.079993 123.599064 
L 77.311519 129.884609 
L 77.543045 127.027543 
M 78.006096 130.741729 
L 78.237621 134.047762 
M 78.932198 136.37423 
L 79.163724 139.312926 
L 79.39525 137.272165 
L 79.626775 140.210861 
L 79.858301 137.435426 
L 80.089827 136.210969 
L 80.552878 146.782112 
L 80.784404 143.843416 
M 82.636609 143.557709 
L 82.868135 139.231295 
L 83.09966 138.1701 
L 83.331186 134.945697 
L 83.562712 136.333415 
L 83.794237 133.476349 
L 84.025763 134.782436 
L 84.257289 132.945751 
L 84.488814 132.578414 
L 84.72034 132.660044 
L 84.951866 130.170316 
L 85.183391 125.639826 
L 85.414917 128.088739 
L 85.646443 127.639772 
L 85.877968 131.966185 
L 86.109494 131.313142 
L 86.34102 134.006947 
L 86.572545 138.496621 
L 87.035597 137.39461 
L 87.267122 132.007001 
L 87.498648 133.517164 
L 87.730174 133.353903 
L 87.961699 134.170208 
L 88.193225 130.578468 
L 88.424751 122.456238 
L 88.656276 123.150097 
L 89.119328 127.027543 
L 89.350853 125.394934 
L 89.582379 125.109228 
L 90.04543 131.558033 
L 90.276956 131.190696 
L 90.508482 133.027381 
L 90.971533 124.66026 
L 91.203059 124.905152 
L 91.434584 129.435642 
L 91.66611 127.231619 
M 92.129161 128.905044 
L 92.360687 128.33363 
L 92.592213 127.231619 
L 92.823738 122.211347 
L 93.055264 123.63988 
L 93.28679 121.027705 
L 93.518315 122.333792 
L 93.749841 120.578738 
L 93.981367 121.517488 
L 94.444418 124.741891 
L 94.907469 117.762487 
L 95.370521 118.905314 
L 95.602046 118.742053 
L 95.833572 118.129824 
L 96.065098 119.068574 
L 96.296623 119.19102 
M 98.61188 115.884987 
L 98.843405 113.762595 
L 99.074931 113.191182 
L 99.306457 113.068736 
L 99.537982 106.864822 
L 99.769508 104.905691 
L 100.001034 103.926126 
M 100.927136 98.660962 
L 101.158662 98.497701 
L 101.390188 100.579278 
M 101.853239 103.109822 
L 102.084765 103.885311 
L 102.31629 102.089441 
L 102.547816 98.824223 
L 102.779342 101.558843 
L 103.242393 118.007379 
L 103.473919 116.578846 
L 103.705444 114.129932 
L 103.93697 117.721672 
L 104.168496 114.5789 
L 104.400021 113.680965 
L 104.631547 115.068682 
L 104.863073 117.884933 
L 105.094598 105.721996 
M 106.020701 110.497377 
L 106.252227 111.84428 
L 106.483752 114.701345 
L 106.715278 114.497269 
L 106.946804 114.823791 
L 107.178329 111.109606 
L 107.409855 113.72178 
L 107.641381 111.476943 
L 107.872906 115.068682 
L 108.335958 113.680965 
L 108.567483 118.782868 
L 109.030535 120.211401 
L 109.26206 115.395204 
L 109.493586 118.456346 
L 109.725112 119.721618 
L 109.956637 113.966671 
L 110.188163 113.191182 
L 110.419689 113.72178 
L 110.651214 111.885095 
L 110.88274 112.456508 
L 111.114266 110.13004 
L 111.577317 109.395366 
L 111.808843 112.293247 
L 112.040368 112.823845 
L 112.271894 116.007433 
L 112.50342 110.98716 
L 112.734945 111.681019 
L 112.966471 113.844226 
L 113.197997 114.864606 
L 113.429522 120.374662 
L 113.661048 117.925748 
L 113.892574 120.252216 
L 114.124099 119.599172 
L 114.355625 121.06852 
L 114.818676 115.354389 
L 115.050202 116.538031 
L 115.513253 122.456238 
L 115.744779 119.925694 
M 117.82851 113.762595 
L 118.060036 110.742269 
L 118.291561 112.211617 
L 118.523087 107.762757 
L 118.754612 108.660692 
L 118.986138 105.150583 
L 119.217664 99.681343 
L 119.449189 98.416071 
L 119.680715 102.048626 
L 119.912241 99.19156 
L 120.143766 101.06906 
L 120.375292 101.803734 
L 120.606818 99.436451 
L 120.838343 98.987484 
L 121.069869 101.599658 
L 121.301395 98.089549 
L 121.53292 98.783408 
L 121.764446 98.579332 
L 121.995972 96.089603 
L 122.227497 98.538516 
M 126.626485 84.334818 
L 126.858011 86.212319 
L 127.089536 84.987862 
L 127.321062 82.824655 
L 127.552588 81.885905 
L 127.784113 86.212319 
L 128.015639 85.232753 
L 128.710216 73.355523 
L 128.941742 74.171827 
L 129.173267 73.641229 
L 129.636319 68.416881 
L 129.867844 74.57998 
L 130.09937 75.069762 
L 130.330896 74.253458 
L 130.562421 76.212588 
L 130.793947 76.661556 
L 131.025473 75.069762 
L 131.256998 74.784056 
L 131.488524 75.437099 
L 131.72005 63.72313 
L 131.951575 72.171881 
L 132.183101 73.233077 
L 132.414627 71.967805 
L 132.646152 66.294489 
M 137.276666 50.009214 
L 137.508191 47.641931 
L 137.739717 43.397148 
L 137.971243 42.621659 
L 138.202768 43.070626 
L 138.434294 43.070626 
L 138.897345 39.682962 
L 139.128871 40.009484 
L 139.360396 45.315463 
L 139.591922 37.601386 
L 139.823448 41.111495 
L 140.054973 37.438125 
L 140.286499 37.846277 
L 140.518025 39.152364 
L 140.74955 41.193126 
L 140.981076 38.621767 
L 141.212602 42.417582 
L 141.444127 42.988996 
L 141.675653 37.846277 
L 142.138704 47.111333 
L 142.37023 44.335898 
L 142.601756 49.682692 
L 142.833281 44.009376 
L 143.064807 52.784649 
L 143.296333 47.601116 
L 143.527858 47.152148 
L 143.759384 42.94818 
M 144.917012 46.009322 
L 145.148538 46.376659 
L 145.380064 53.764215 
L 145.611589 55.437639 
L 145.843115 48.41742 
L 146.074641 57.4784 
L 146.306166 58.33552 
L 146.537692 62.049706 
L 146.769218 58.33552 
L 147.000743 59.070194 
L 147.232269 63.927206 
L 147.463795 65.478184 
L 147.69532 65.355739 
L 147.926846 62.580303 
L 148.158372 61.763999 
L 148.389897 58.743672 
L 148.621423 60.498727 
M 149.547526 57.600846 
L 149.779051 58.743672 
L 150.010577 57.315139 
M 151.399731 71.233131 
L 151.631257 73.151447 
L 152.094308 73.641229 
L 152.325834 76.416665 
M 155.798719 94.824331 
L 156.030244 97.354875 
L 156.26177 102.293517 
L 156.493296 100.905799 
L 157.187873 131.068251 
L 157.419398 136.415045 
L 157.650924 136.864012 
L 158.113975 124.496999 
L 158.345501 125.272489 
L 158.577026 116.782922 
L 158.808552 122.578684 
L 159.040078 116.986998 
L 159.271603 117.39515 
L 159.503129 127.925478 
L 159.734655 118.742053 
L 159.96618 118.129824 
L 160.197706 123.966401 
L 160.429232 117.027813 
M 161.123809 110.415747 
L 161.355334 106.579116 
L 161.58686 96.497755 
L 161.818386 99.844604 
L 162.049911 98.416071 
L 162.281437 100.416017 
L 162.512963 103.64042 
L 162.744488 99.967049 
L 162.976014 101.313952 
L 163.20754 98.701777 
M 164.596694 100.620093 
L 164.828219 121.231781 
L 165.059745 117.272705 
L 165.291271 117.476781 
L 165.522796 113.272813 
L 165.754322 118.986944 
L 165.985848 117.435965 
L 166.217373 130.90499 
L 166.448899 128.456076 
M 167.143476 145.557655 
L 167.375002 146.986188 
L 167.606527 141.108796 
L 167.838053 123.272543 
L 168.301104 111.681019 
L 168.53263 116.252324 
L 168.764156 111.027975 
L 168.995681 116.170693 
L 169.227207 113.64015 
L 169.458733 112.334062 
L 169.690258 112.701399 
L 169.921784 112.089171 
L 170.15331 113.109552 
L 170.616361 127.231619 
L 170.847887 126.129608 
L 171.079412 117.762487 
L 171.310938 115.354389 
L 171.542464 120.578738 
L 171.773989 121.558303 
L 172.005515 123.150097 
L 172.237041 125.762271 
L 172.468566 114.170747 
L 172.700092 118.497161 
L 172.931618 110.497377 
L 173.163143 111.92591 
L 173.394669 116.37477 
L 173.626195 110.007595 
L 173.85772 108.456616 
M 174.552297 115.925802 
L 174.783823 105.436289 
L 175.015349 100.416017 
L 175.246874 100.701723 
L 175.4784 96.620201 
L 175.709926 95.51819 
L 176.172977 99.967049 
L 176.404503 98.25281 
L 176.636028 93.436613 
M 178.719759 106.619931 
L 179.18281 113.517704 
L 179.414336 111.92591 
L 179.645862 109.436181 
L 179.877387 113.64015 
L 180.340439 125.027597 
L 180.571964 129.313196 
L 180.80349 125.843902 
L 181.035016 128.578522 
L 181.266541 126.415315 
L 181.498067 122.129716 
L 181.729593 124.986782 
L 181.961118 116.048248 
M 184.507901 106.619931 
L 184.739426 103.109822 
L 184.970952 103.436343 
M 185.665529 97.191614 
L 185.897055 98.33444 
L 186.12858 91.885635 
L 186.360106 88.661232 
L 186.591632 90.13058 
L 186.823157 92.8652 
L 187.054683 89.804058 
L 187.286209 95.477375 
L 187.74926 91.314222 
L 187.980786 90.497917 
L 188.212311 90.253026 
L 188.443837 86.498025 
L 188.675363 80.498187 
L 188.906888 83.518514 
L 189.36994 80.171665 
L 189.601465 89.885689 
L 189.832991 86.498025 
L 190.064517 90.620363 
L 190.296042 84.824601 
L 190.527568 90.661178 
L 190.759094 86.130688 
L 190.990619 92.742755 
L 191.222145 93.844766 
L 191.453671 93.110092 
L 191.685196 91.559113 
L 191.916722 97.518136 
L 192.148248 93.273352 
M 193.07435 92.334602 
L 193.305876 95.069222 
L 193.537402 95.722266 
L 193.768927 98.783408 
L 194.000453 97.31406 
L 194.463504 104.456724 
L 194.69503 101.518028 
L 194.926556 106.824007 
L 195.158081 108.374986 
M 201.409274 142.986296 
L 201.6408 150.373852 
L 201.872325 149.353471 
L 202.103851 153.190102 
L 202.335377 153.108472 
L 202.566902 160.291951 
L 202.798428 162.618419 
L 203.261479 153.026841 
M 204.882159 172.495704 
L 205.113685 166.495866 
L 205.34521 168.863149 
L 205.576736 166.495866 
L 205.808262 174.128313 
L 206.039787 173.924236 
L 206.271313 172.495704 
L 206.502839 173.271193 
L 207.197416 194.209403 
L 207.428941 206.494786 
L 207.660467 212.412993 
L 208.355044 189.678913 
L 208.58657 187.801413 
L 208.818095 197.31136 
L 209.049621 195.719566 
L 209.281147 195.270599 
L 209.512672 198.08685 
L 209.744198 196.617501 
L 209.975724 199.923535 
L 210.207249 198.699078 
L 210.438775 203.392829 
L 210.670301 203.107122 
L 210.901826 202.045926 
L 211.133352 194.372664 
L 211.364878 195.352229 
L 211.596403 199.556198 
L 211.827929 197.31136 
L 212.059455 200.699024 
M 213.91166 195.719566 
L 214.143186 186.740217 
L 214.374711 183.352553 
L 214.606237 182.903586 
L 215.069288 177.271085 
L 215.300814 182.372988 
L 215.53234 183.474999 
L 216.226917 172.414073 
L 216.458442 177.107824 
L 216.689968 175.4344 
L 216.921494 182.740325 
L 217.153019 179.271031 
L 217.384545 178.413911 
L 217.616071 187.270815 
M 218.542173 190.780924 
L 218.773699 185.883097 
L 219.23675 172.169182 
L 219.468276 168.006029 
L 219.699801 170.618203 
L 219.931327 170.169236 
L 220.162853 166.985648 
L 220.394378 175.720106 
L 220.625904 178.005759 
L 220.85743 178.046574 
M 224.330315 213.188483 
L 224.56184 218.290386 
L 225.024892 216.984299 
L 225.487943 233.187943 
L 225.719469 231.84104 
L 226.18252 243.63664 
L 226.414046 244.901912 
L 226.645571 244.248869 
L 226.877097 240.167346 
M 228.034725 235.391965 
L 228.266251 231.310442 
M 228.729302 227.922779 
L 229.192354 247.391641 
L 229.423879 245.595771 
L 229.886931 256.942404 
L 230.118456 260.697404 
L 230.349982 255.962838 
L 231.044559 273.799091 
L 231.50761 257.309741 
L 231.739136 268.982895 
L 231.970662 261.67697 
L 232.202187 261.962676 
M 233.822867 260.493328 
L 234.517444 273.63583 
L 234.74897 275.186809 
L 234.980495 273.390939 
L 235.212021 275.145994 
L 235.906598 285.798767 
L 236.138124 279.064255 
M 237.990329 272.125667 
L 238.45338 263.187133 
L 238.684906 274.288874 
L 238.916432 268.329851 
M 239.379483 260.779035 
L 239.611008 260.738219 
L 239.842534 263.595285 
L 240.305585 250.085446 
L 240.537111 249.514033 
L 240.768637 247.554902 
L 241.000162 247.595717 
M 244.009996 243.350934 
L 244.241522 235.555226 
L 244.473047 235.555226 
L 244.704573 233.963432 
L 244.936099 233.759356 
L 245.167624 231.310442 
L 245.630676 220.086256 
L 245.862201 223.433104 
L 246.093727 218.249571 
L 246.325253 223.351474 
L 246.556778 220.616854 
L 246.788304 211.270167 
L 247.01983 214.535385 
L 247.251355 220.371962 
L 247.482881 220.861745 
L 247.945932 234.126693 
M 250.261189 222.657615 
L 250.492715 223.55555 
L 250.955766 220.943375 
L 251.187292 221.147451 
L 251.418817 213.188483 
L 251.650343 215.392505 
L 251.881869 215.392505 
L 252.113394 214.617016 
L 252.34492 214.372124 
L 252.576446 211.678319 
L 252.807971 215.310874 
L 253.271023 203.719351 
L 253.502548 208.535547 
L 253.734074 209.066145 
L 253.9656 218.576092 
L 254.197125 215.882288 
L 254.428651 216.821038 
L 254.891702 219.88218 
L 255.586279 206.045818 
L 255.817805 207.066199 
L 256.049331 203.55609 
L 256.512382 224.167778 
L 256.743908 215.025168 
L 256.975433 212.168102 
L 257.206959 213.963972 
L 257.438485 209.066145 
L 257.67001 214.372124 
L 257.901536 210.984461 
L 258.133062 211.678319 
L 258.364587 208.535547 
L 258.596113 208.16821 
L 258.827639 198.617447 
L 259.29069 205.229514 
L 259.522215 205.637666 
L 259.753741 206.37234 
L 259.985267 207.841688 
L 260.216792 206.984569 
L 260.448318 209.555928 
L 260.679844 207.841688 
L 260.911369 214.657831 
L 261.142895 209.02533 
M 263.921203 193.311468 
L 264.61578 188.576902 
L 264.847306 185.148423 
L 265.078831 179.230216 
L 265.541883 181.924021 
M 266.23646 180.781194 
L 266.467985 180.577118 
M 267.162562 185.066793 
L 267.394088 183.55663 
M 268.320191 177.107824 
L 268.551716 184.944347 
L 268.783242 185.638206 
L 269.014768 194.005327 
L 269.246293 197.923589 
L 269.477819 194.984892 
L 269.709345 194.617555 
L 270.172396 195.964458 
L 270.403922 189.801359 
L 270.635447 190.985 
L 270.866973 200.535763 
L 271.098499 200.127611 
L 271.330024 205.270329 
L 271.56155 192.209457 
L 272.024601 181.883205 
L 272.256127 181.515868 
L 272.487653 185.270869 
L 272.719178 181.597499 
L 273.18223 187.189185 
M 274.108332 182.740325 
L 274.339858 186.087173 
L 274.571384 191.433968 
L 274.802909 190.90337 
L 275.034435 186.576956 
L 275.265961 186.658587 
L 275.497486 187.678967 
L 276.192063 197.841958 
L 276.423589 196.780762 
L 276.655115 202.005111 
M 277.349692 200.494948 
L 277.581217 196.576686 
L 277.812743 197.882773 
L 278.044269 191.229892 
L 278.275794 190.576848 
L 278.50732 183.883151 
L 278.738846 185.842282 
L 278.970371 191.107446 
L 279.201897 187.189185 
L 279.433422 178.25065 
L 279.896474 186.944293 
L 280.359525 178.658803 
L 280.591051 180.373042 
L 280.822576 178.087389 
L 281.054102 181.393423 
M 281.748679 164.65918 
L 281.980205 166.618311 
L 282.21173 166.618311 
L 282.443256 167.067279 
L 282.674782 168.822333 
L 283.137833 167.067279 
M 283.600884 165.5163 
L 283.83241 165.230594 
L 284.063936 170.005975 
L 284.295461 167.924398 
L 284.526987 168.536627 
L 284.990038 171.475323 
L 285.221564 171.84266 
L 285.45309 170.495758 
L 285.684615 171.965106 
L 285.916141 170.740649 
L 286.147667 173.189562 
L 286.610718 175.51603 
L 286.842244 169.761084 
L 287.073769 168.046844 
L 287.305295 161.883745 
L 287.536821 163.271463 
L 287.768346 171.801845 
L 287.999872 171.312062 
L 288.231398 168.454996 
L 288.462923 172.291627 
L 288.694449 172.495704 
L 288.925975 172.209997 
L 289.1575 172.69978 
L 289.389026 173.801791 
L 289.620552 173.107932 
L 289.852077 175.679291 
L 290.083603 171.76103 
L 290.315129 172.291627 
L 290.546654 169.475377 
L 290.77818 171.556953 
L 291.009706 177.964944 
L 291.241231 176.046628 
L 291.472757 176.046628 
L 291.704283 175.597661 
L 291.935808 170.944725 
L 292.39886 181.76076 
L 292.630385 182.087281 
L 293.093437 176.577226 
L 293.324962 177.189454 
L 293.556488 174.414019 
L 293.788014 181.393423 
L 294.019539 181.883205 
L 294.251065 181.638314 
L 294.482591 178.005759 
L 294.714116 183.311738 
L 294.945642 182.372988 
L 295.177168 187.189185 
L 295.640219 184.944347 
M 297.029373 195.719566 
L 297.260899 195.51549 
L 297.492424 197.597067 
L 297.72395 194.740001 
L 297.955476 198.576632 
L 298.187001 194.086958 
L 298.418527 195.719566 
L 298.650053 196.454241 
L 298.881578 196.454241 
M 299.34463 201.352068 
L 299.807681 203.55609 
L 300.039206 203.229568 
L 300.270732 200.209241 
L 300.502258 193.678805 
L 300.965309 191.638044 
L 301.42836 188.495272 
L 301.659886 192.454349 
M 303.280566 194.535925 
L 303.512091 196.495056 
L 303.743617 201.719405 
L 303.975143 199.882719 
L 304.206668 199.760274 
L 304.438194 199.392937 
L 304.66972 196.250164 
L 304.901245 196.250164 
L 305.132771 201.311252 
L 305.364297 200.739839 
L 305.595822 201.474513 
L 306.058874 206.127449 
L 306.290399 210.984461 
L 306.521925 206.739677 
L 306.753451 206.168264 
M 309.763284 216.086364 
L 309.99481 215.719027 
L 310.226336 221.147451 
L 310.457861 223.229028 
L 310.689387 222.045386 
L 310.920913 226.698322 
L 311.152438 227.024844 
L 311.383964 223.55555 
L 311.61549 231.636964 
L 311.847015 233.392019 
L 312.078541 228.943159 
L 312.310067 228.371746 
L 312.541592 225.228974 
L 313.004644 233.392019 
L 313.236169 232.290008 
L 313.467695 234.085878 
L 313.699221 234.738921 
L 313.930746 238.861259 
L 314.162272 239.432672 
L 314.393798 237.514357 
L 314.625323 236.534791 
L 314.856849 238.044955 
L 315.088375 237.22865 
L 315.3199 232.085932 
L 315.551426 231.432888 
L 315.782952 228.126855 
L 316.014477 234.983813 
M 317.172106 236.167454 
L 317.635157 232.738975 
L 317.866683 233.963432 
L 318.098208 233.922617 
L 318.329734 229.269681 
L 318.56126 231.351258 
L 318.792785 231.473703 
L 319.024311 232.371638 
L 319.255837 227.31055 
L 319.487362 227.269735 
M 321.339567 229.677833 
L 321.571093 230.739029 
L 321.802619 230.983921 
L 322.034144 232.290008 
L 322.26567 232.902236 
L 322.497196 235.106258 
L 322.728721 235.718487 
M 323.423298 237.840878 
L 323.654824 238.08577 
L 323.88635 237.840878 
M 328.053812 223.269843 
L 328.285337 224.086148 
L 328.516863 219.514843 
L 328.979914 215.882288 
L 329.21144 212.249733 
L 329.674491 210.208971 
L 329.906017 212.576254 
M 331.295171 215.882288 
L 331.989748 214.657831 
M 334.305005 221.718865 
L 334.53653 219.433212 
L 334.768056 215.474135 
L 334.999582 214.984353 
L 335.231107 211.310982 
L 335.462633 202.413263 
L 335.694159 203.433644 
L 335.925684 201.637774 
M 336.851787 195.352229 
L 337.083313 196.984838 
L 337.314838 200.086796 
L 337.546364 205.882557 
L 337.77789 207.188645 
L 338.009415 206.168264 
L 338.240941 204.045872 
L 338.472467 209.229406 
L 338.703992 208.657993 
L 338.935518 206.862123 
L 339.167044 206.698862 
L 339.398569 211.75995 
L 339.630095 210.208971 
L 339.86162 210.494678 
L 340.093146 204.658101 
L 340.324672 203.392829 
L 340.556197 204.209133 
M 343.566031 194.903262 
L 343.797557 192.250272 
L 344.029082 188.127935 
L 344.260608 191.148261 
L 344.492134 191.474783 
L 344.723659 192.944131 
L 345.186711 187.556522 
L 345.418236 185.474945 
L 345.649762 185.964728 
L 345.881288 185.393315 
L 346.112813 188.291196 
L 346.344339 189.760544 
L 346.575865 186.127989 
M 350.974852 219.310766 
L 351.206378 220.371962 
L 351.437904 215.882288 
L 351.669429 220.82093 
M 352.132481 220.127071 
L 352.364006 222.69843 
L 352.595532 220.494408 
L 352.827058 237.14702 
L 353.058583 237.800063 
L 353.290109 233.63691 
L 353.75316 231.881856 
L 353.984686 236.738867 
L 354.216212 237.269465 
L 354.679263 231.310442 
L 355.142314 235.596041 
L 355.37384 229.718649 
L 355.605366 228.371746 
L 355.836891 227.963594 
L 356.068417 228.08604 
L 356.299943 228.779899 
L 356.531468 232.494084 
L 356.762994 231.473703 
L 356.99452 234.738921 
L 357.226045 233.147128 
L 357.457571 227.555442 
L 357.689097 230.126801 
L 357.920622 230.371692 
L 358.152148 229.392127 
L 358.383674 232.494084 
M 359.541302 234.085878 
L 359.772828 230.126801 
M 360.467404 224.780006 
L 360.69893 224.208593 
M 364.866392 207.270275 
L 365.560969 195.025708 
L 365.792495 194.780816 
L 366.02402 193.270653 
L 366.255546 193.433914 
L 366.487072 192.944131 
L 366.718597 189.02587 
L 366.950123 190.658479 
L 367.181649 189.148315 
L 367.413174 191.311522 
L 367.6447 189.719728 
L 367.876226 191.76049 
L 368.107751 196.29098 
L 368.339277 195.025708 
L 368.570803 190.780924 
L 368.802328 192.250272 
L 369.033854 192.944131 
L 369.496905 201.433698 
L 369.728431 192.495164 
L 369.959957 190.699294 
L 370.423008 189.393207 
L 370.654534 190.780924 
L 370.886059 188.087119 
L 371.117585 191.678859 
L 371.349111 197.637882 
L 372.043688 188.005489 
L 372.275213 193.964512 
L 372.506739 185.270869 
L 372.738265 190.944185 
L 373.201316 184.49538 
L 373.432842 184.046412 
L 373.664367 182.495434 
L 373.895893 184.250488 
L 374.127419 182.332173 
L 374.358944 182.372988 
L 374.59047 180.250596 
L 374.821996 177.026194 
L 375.053521 175.760922 
L 375.285047 181.84239 
L 375.516573 182.617879 
L 375.748098 179.393477 
L 375.979624 181.475053 
L 376.21115 182.005651 
L 376.442675 183.352553 
L 376.674201 181.76076 
L 376.905727 181.76076 
L 377.137252 181.475053 
L 377.368778 180.04652 
L 377.600304 177.148639 
M 378.757932 184.49538 
L 378.989458 182.577064 
L 379.220983 186.209619 
L 379.452509 183.760706 
L 379.684035 184.57701 
L 380.147086 190.209511 
L 380.378611 187.066739 
L 380.610137 190.209511 
L 380.841663 188.821794 
L 381.073188 196.699132 
L 381.304714 195.882827 
L 381.53624 196.209349 
L 381.767765 194.413479 
L 382.230817 187.597337 
L 382.462342 188.372826 
L 382.693868 187.801413 
M 383.156919 188.413641 
L 383.388445 186.576956 
L 383.619971 185.883097 
L 383.851496 186.699402 
L 384.314548 191.678859 
L 384.546073 196.086904 
L 384.777599 196.739947 
L 385.009125 196.576686 
L 385.24065 192.576794 
L 385.472176 190.699294 
L 386.166753 203.515274 
L 386.629804 199.188861 
L 386.86133 198.209295 
M 387.787433 199.96435 
L 388.018958 201.188807 
M 390.334215 214.821092 
L 390.565741 212.412993 
L 390.797266 214.535385 
L 391.028792 210.576308 
L 391.491843 218.657723 
L 391.723369 219.310766 
L 391.954895 219.596473 
L 392.417946 230.779845 
L 392.649472 227.841148 
L 392.880997 229.759464 
L 393.112523 235.473595 
L 393.344049 230.004355 
M 395.42778 233.147128 
L 395.890831 237.269465 
L 396.122357 236.942943 
L 396.353882 241.269357 
L 396.585408 241.024466 
L 396.816934 249.922185 
L 397.048459 245.473325 
L 397.279985 252.085392 
L 397.511511 251.187457 
L 397.743036 253.309849 
L 397.974562 252.248653 
M 399.595242 254.697566 
L 400.058293 250.575229 
L 400.289818 252.248653 
L 400.521344 256.452621 
L 400.75287 257.799523 
L 400.984395 262.289198 
L 401.215921 264.574851 
M 403.762703 258.452567 
L 404.225755 256.493436 
L 404.45728 254.615936 
L 404.688806 254.330229 
L 404.920332 255.105718 
L 405.151857 254.166968 
L 405.383383 256.248545 
L 405.614909 254.207784 
L 405.846434 251.146642 
L 406.309486 254.49349 
L 406.541011 253.350664 
L 406.772537 250.697674 
L 407.004063 253.758816 
L 407.235588 252.330283 
L 407.467114 248.983435 
L 407.69864 253.146588 
L 407.930165 251.67724 
L 408.161691 251.065011 
L 408.393217 252.289468 
L 408.624742 252.61599 
M 409.782371 252.085392 
L 410.013896 250.371152 
L 410.245422 245.922293 
L 410.476948 246.37126 
L 410.708473 238.371476 
L 410.939999 240.085716 
L 411.40305 241.555064 
L 411.634576 241.146912 
L 411.866102 239.96327 
L 412.097627 241.473433 
L 412.329153 238.861259 
L 412.560679 241.75914 
L 412.792204 242.452999 
L 413.255256 247.391641 
M 413.949833 244.534575 
L 414.181358 242.208107 
L 414.64441 240.942835 
L 414.875935 237.391911 
L 415.107461 238.493922 
L 415.338987 234.371584 
L 415.570512 232.738975 
L 415.802038 238.08577 
L 416.033564 236.126639 
L 416.265089 232.943051 
L 416.496615 234.045063 
L 416.728141 231.800225 
L 416.959666 233.106312 
L 417.191192 233.187943 
L 417.422718 234.534845 
L 417.654243 236.575606 
L 417.885769 235.35115 
L 418.117295 230.494138 
L 418.34882 231.187997 
L 418.580346 235.147074 
L 418.811872 233.759356 
L 419.043397 234.657291 
L 419.274923 225.269789 
L 419.506449 228.983975 
L 419.9695 226.3718 
L 420.201026 224.984083 
M 421.127128 225.024898 
L 421.358654 228.494192 
L 421.590179 228.371746 
L 421.821705 230.739029 
L 422.053231 231.963486 
L 422.284756 235.718487 
L 422.516282 234.330769 
M 425.757641 251.024196 
L 425.989167 251.75887 
L 426.220693 253.350664 
L 426.452218 252.330283 
L 426.683744 256.697512 
M 428.767475 257.921969 
L 428.999001 255.309795 
L 429.230526 256.738327 
L 429.693578 252.126207 
L 429.925103 252.085392 
L 430.156629 247.350826 
L 430.388155 246.656967 
L 430.61968 247.963054 
L 430.851206 247.963054 
M 431.545783 245.514141 
L 431.777309 243.963162 
L 432.008834 249.514033 
L 432.24036 249.595663 
L 432.471886 248.044685 
L 432.703411 247.881424 
M 433.166463 244.208053 
L 433.397988 244.942728 
M 433.86104 249.065065 
L 434.324091 256.085284 
L 434.555617 257.024034 
L 434.787142 254.41186 
L 435.018668 254.126153 
L 435.250194 254.942458 
M 436.870873 259.228056 
L 437.102399 259.758654 
L 437.333925 263.717731 
L 437.56545 263.064687 
L 437.796976 263.309579 
L 438.028502 262.166752 
L 438.491553 265.962568 
L 438.723079 265.513601 
L 438.954604 272.003222 
L 439.18613 273.676646 
L 439.649181 266.942134 
L 439.880707 266.574797 
L 440.112233 266.493166 
L 440.343758 267.921699 
M 441.964438 271.75833 
L 442.427489 266.003383 
L 442.659015 266.615612 
L 442.89054 261.391263 
L 443.122066 261.67697 
L 443.353592 260.003545 
L 443.585117 261.67697 
L 443.816643 259.595393 
M 446.826477 272.003222 
L 447.058002 269.391047 
L 447.289528 269.676754 
L 447.752579 276.574527 
L 447.984105 275.921483 
L 448.215631 276.901048 
L 448.447156 275.145994 
L 448.678682 276.411266 
L 448.910208 276.329635 
L 449.373259 278.737734 
L 449.604785 281.105017 
L 450.530887 274.329689 
L 450.762413 274.288874 
L 450.993939 276.003114 
L 451.225464 274.574581 
L 451.45699 279.268332 
L 451.688516 279.145886 
L 451.920041 275.513331 
L 452.151567 269.799199 
L 452.383093 268.125775 
L 452.614618 271.799145 
L 452.846144 269.350232 
L 453.07767 268.411482 
L 453.309195 269.96246 
L 453.540721 270.615504 
L 453.772247 273.676646 
L 454.003772 272.778711 
L 454.235298 269.840015 
L 454.698349 274.207244 
L 454.929875 272.329743 
L 455.161401 268.982895 
L 455.392926 268.982895 
L 455.624452 269.105341 
L 455.855978 271.064471 
L 456.087503 270.044091 
M 459.097337 263.268763 
L 459.560388 259.432132 
L 459.791914 257.962784 
L 460.02344 254.860827 
L 460.254965 253.595555 
L 460.486491 254.330229 
L 460.718016 256.901588 
L 460.949542 257.717893 
L 461.181068 255.922023 
L 461.412593 256.656697 
L 461.644119 255.391425 
M 463.496324 254.820012 
L 463.72785 254.003707 
L 464.190901 259.921915 
L 464.422427 262.738165 
L 464.653953 262.330013 
L 464.885478 264.166698 
L 465.117004 269.595123 
L 465.34853 269.186971 
L 465.580055 271.350178 
L 465.811581 270.125721 
L 466.274632 275.472516 
M 471.599723 307.349206 
L 471.831248 327.756818 
L 472.062774 325.144644 
L 472.2943 327.593558 
L 472.525825 332.246493 
L 472.757351 326.409916 
L 473.220402 335.552526 
M 474.378031 331.67508 
L 474.609556 332.695461 
L 474.841082 331.879156 
M 476.230236 327.716003 
L 476.461762 326.001764 
L 476.693287 326.369101 
M 477.387864 322.287578 
L 477.850916 326.532362 
M 479.008544 322.165133 
L 479.24007 318.777469 
L 479.471595 318.981545 
L 479.934647 317.14486 
L 480.166172 310.369533 
L 480.397698 311.022576 
L 480.629224 316.410186 
L 480.860749 315.308175 
L 481.092275 316.28774 
L 481.3238 315.022468 
L 481.786852 310.083826 
L 482.018377 311.063392 
L 482.249903 311.308283 
L 482.481429 314.859207 
L 482.712954 314.32861 
L 482.94448 313.144968 
L 483.176006 308.369587 
L 483.407531 311.67562 
L 483.639057 311.226652 
L 484.102108 312.369479 
L 484.56516 311.185837 
L 485.028211 317.797904 
L 485.259737 314.165349 
L 485.722788 310.8185 
L 485.954314 310.002196 
L 486.185839 302.328933 
M 486.880416 306.124749 
L 487.111942 312.124587 
L 487.343468 309.675674 
L 487.574993 309.308337 
M 488.964147 311.389913 
L 489.195673 316.002034 
L 489.427199 314.165349 
L 489.658724 317.267306 
L 490.121776 315.634697 
L 490.353301 316.614262 
L 490.584827 316.042849 
L 490.816353 316.369371 
L 491.047878 319.675404 
L 491.279404 319.634589 
L 491.51093 321.920241 
L 491.742455 320.328448 
L 491.973981 321.267198 
L 492.437032 318.08361 
L 492.668558 318.369317 
L 492.900084 319.920295 
L 493.131609 320.001926 
L 493.363135 315.593882 
L 493.826186 317.512197 
L 494.520763 319.716219 
L 494.752289 317.675458 
L 494.983815 319.716219 
L 495.446866 318.655023 
L 495.678392 316.655077 
L 495.909917 312.777631 
L 496.141443 313.879642 
L 496.372969 312.491924 
L 496.604494 310.328718 
L 496.83602 311.471544 
L 497.067546 310.859315 
L 497.299071 313.593936 
M 499.382802 318.246871 
L 499.614328 318.00198 
L 499.845854 316.614262 
L 500.077379 317.553012 
M 500.771956 319.185621 
L 501.003482 318.859099 
L 501.235007 322.654915 
L 501.466533 322.818176 
L 501.698059 325.716057 
L 502.16111 324.695677 
L 502.392636 324.246709 
L 502.624161 322.083502 
L 502.855687 321.308013 
L 503.087213 322.001872 
L 503.318738 324.083448 
L 503.550264 324.369155 
L 503.78179 326.491547 
L 504.013315 325.34872 
L 504.244841 325.920133 
L 504.476367 321.920241 
L 504.707892 322.858992 
L 504.939418 323.307959 
L 505.170944 324.777307 
L 505.633995 320.491708 
L 505.865521 322.205948 
L 506.097046 321.634535 
M 506.560098 320.81823 
L 506.791623 321.67535 
L 507.023149 323.144698 
L 507.254675 323.879372 
L 507.4862 323.47122 
L 507.717726 325.389535 
L 507.949252 325.756872 
L 508.180777 325.307905 
M 511.422137 315.675512 
L 511.653662 313.920457 
L 511.885188 314.32861 
M 512.579765 310.777685 
L 512.811291 308.410402 
L 513.042816 309.838935 
L 513.274342 306.573717 
L 513.505868 308.206326 
L 513.968919 299.471868 
L 514.200445 300.206542 
L 514.43197 301.594259 
L 514.663496 304.818662 
L 514.895022 304.777847 
L 515.589599 293.676106 
L 515.821124 296.818878 
L 516.05265 296.737248 
L 516.284176 297.798444 
L 516.515701 294.288334 
L 516.747227 295.961758 
L 516.978753 299.186161 
L 517.210278 297.471922 
M 519.525535 296.043389 
L 519.757061 297.390291 
L 519.988586 296.084204 
L 520.451638 287.14567 
L 520.683163 286.125289 
L 520.914689 288.00279 
L 521.146214 287.104855 
L 521.37774 281.472354 
L 521.609266 283.839637 
L 521.840791 279.145886 
L 522.072317 282.043767 
L 522.303843 280.288712 
L 522.535368 280.411158 
L 522.766894 286.859963 
L 523.229945 291.023116 
M 526.70283 276.737788 
L 526.934356 273.227678 
L 527.165882 278.08469 
M 527.628933 275.186809 
L 527.860459 273.799091 
L 528.091984 271.023656 
L 528.32351 274.778657 
L 528.555036 274.003168 
L 528.786561 270.493058 
L 529.018087 270.166536 
L 529.249613 269.309417 
L 529.481138 265.513601 
M 529.94419 261.636154 
L 530.175715 264.656481 
L 530.407241 264.370774 
M 530.870292 262.942242 
L 531.101818 261.472894 
L 531.333344 265.962568 
L 531.564869 265.268709 
L 531.796395 270.656319 
L 532.027921 269.268601 
L 532.259446 270.778765 
L 532.490972 273.186863 
L 532.722498 270.73795 
L 532.954023 270.697134 
L 533.185549 269.105341 
L 533.417075 272.737896 
L 533.6486 272.125667 
L 533.880126 272.737896 
M 534.343177 270.248167 
L 534.574703 268.94208 
L 535.26928 271.962406 
L 535.732331 273.390939 
L 535.963857 270.125721 
L 536.195383 270.615504 
M 538.279114 263.840177 
L 538.510639 263.676916 
L 538.742165 266.493166 
L 538.973691 265.513601 
L 539.205216 266.20746 
L 539.436742 258.94235 
L 539.668268 258.779089 
L 539.899793 254.901642 
L 540.131319 255.758762 
M 542.909627 254.126153 
L 543.141152 253.146588 
L 543.372678 253.513925 
L 543.604204 238.657183 
L 544.067255 234.698106 
L 544.298781 232.69816 
L 544.530306 235.718487 
L 544.761832 236.004193 
L 545.224883 241.963216 
L 545.456409 242.371368 
L 545.687935 243.63664 
L 545.91946 241.106096 
L 546.150986 243.310119 
L 546.614037 252.738435 
L 546.845563 245.187619 
L 547.077089 245.43251 
L 547.54014 240.534683 
L 547.771666 240.453053 
L 548.003191 245.963108 
L 548.234717 247.554902 
L 548.466243 242.779521 
M 548.929294 242.61626 
L 549.16082 248.289576 
L 549.392345 249.554848 
L 549.623871 248.616098 
L 549.855397 244.983543 
L 550.086922 244.779467 
L 550.318448 243.677456 
L 550.549974 250.493598 
L 551.013025 256.697512 
L 551.244551 260.166806 
L 551.476076 258.534197 
L 551.707602 254.41186 
L 552.170653 257.350556 
L 552.402179 253.146588 
L 552.633705 256.044469 
L 552.86523 253.922077 
L 553.096756 253.228218 
L 553.328282 256.452621 
L 553.559807 257.881154 
L 553.791333 254.942458 
L 554.022859 258.697458 
L 554.254384 253.228218 
L 554.48591 251.67724 
L 554.717436 253.187403 
L 554.948961 249.065065 
L 555.412013 245.718217 
L 555.643538 247.595717 
L 555.875064 251.024196 
L 556.10659 252.085392 
L 556.569641 258.493382 
L 556.801167 257.024034 
L 557.264218 245.473325 
L 557.495744 242.575444 
L 557.727269 243.187673 
L 557.958795 238.004139 
L 558.190321 240.371422 
L 558.421846 241.310173 
L 558.653372 246.656967 
L 558.884898 242.248923 
L 559.116423 242.861151 
M 563.515411 211.678319 
L 563.978462 198.331741 
L 564.209988 204.045872 
L 564.441513 205.188699 
L 564.673039 199.229676 
L 564.904565 200.9031 
L 565.367616 202.7806 
L 565.599142 199.556198 
L 566.062193 196.535871 
L 566.293719 197.433806 
L 566.525244 194.944077 
L 566.75677 199.882719 
L 566.988296 196.862393 
L 567.219821 195.964458 
L 567.451347 192.495164 
M 567.914398 196.617501 
L 568.145924 198.331741 
L 568.37745 190.536033 
L 568.840501 190.617663 
L 569.072027 189.02587 
L 569.303552 184.046412 
L 569.535078 181.84239 
L 569.766604 182.372988 
L 569.998129 189.148315 
L 570.229655 187.556522 
L 570.461181 188.127935 
L 570.692706 185.679021 
L 570.924232 184.658641 
L 571.155758 189.311576 
L 571.387283 185.107608 
L 571.618809 196.209349 
L 571.850335 194.005327 
L 572.313386 177.883313 
L 572.544912 187.638152 
L 572.776437 182.658695 
L 573.239489 195.229784 
L 573.239489 195.229784 
" clip-path="url(#p2c9f20d2d0)" style="fill: none; stroke: #1e90ff; stroke-linecap: square"/>
   </g>
   <g id="patch_3">
    <path d="M 40.603125 354.958125 
L 40.603125 22.318125 
" style="fill: none; stroke: #000000; stroke-width: 0.8; stroke-linejoin: miter; stroke-linecap: square"/>
   </g>
   <g id="patch_4">
    <path d="M 598.603125 354.958125 
L 598.603125 22.318125 
" style="fill: none; stroke: #000000; stroke-width: 0.8; stroke-linejoin: miter; stroke-linecap: square"/>
   </g>
   <g id="patch_5">
    <path d="M 40.603125 354.958125 
L 598.603125 354.958125 
" style="fill: none; stroke: #000000; stroke-width: 0.8; stroke-linejoin: miter; stroke-linecap: square"/>
   </g>
   <g id="patch_6">
    <path d="M 40.603125 22.318125 
L 598.603125 22.318125 
" style="fill: none; stroke: #000000; stroke-width: 0.8; stroke-linejoin: miter; stroke-linecap: square"/>
   </g>
   <g id="text_16">
    <!-- DVN, Relative Strength Index (RSI), DVN -->
    <g transform="translate(198.94125 16.318125)scale(0.12 -0.12)">
     <defs>
      <path id="DejaVuSans-56" d="M 1831 0 
L 50 4666 
L 709 4666 
L 2188 738 
L 3669 4666 
L 4325 4666 
L 2547 0 
L 1831 0 
z
" transform="scale(0.015625)"/>
      <path id="DejaVuSans-4e" d="M 628 4666 
L 1478 4666 
L 3547 763 
L 3547 4666 
L 4159 4666 
L 4159 0 
L 3309 0 
L 1241 3903 
L 1241 0 
L 628 0 
L 628 4666 
z
" transform="scale(0.015625)"/>
      <path id="DejaVuSans-2c" d="M 750 794 
L 1409 794 
L 1409 256 
L 897 -744 
L 494 -744 
L 750 256 
L 750 794 
z
" transform="scale(0.015625)"/>
      <path id="DejaVuSans-52" d="M 2841 2188 
Q 3044 2119 3236 1894 
Q 3428 1669 3622 1275 
L 4263 0 
L 3584 0 
L 2988 1197 
Q 2756 1666 2539 1819 
Q 2322 1972 1947 1972 
L 1259 1972 
L 1259 0 
L 628 0 
L 628 4666 
L 2053 4666 
Q 2853 4666 3247 4331 
Q 3641 3997 3641 3322 
Q 3641 2881 3436 2590 
Q 3231 2300 2841 2188 
z
M 1259 4147 
L 1259 2491 
L 2053 2491 
Q 2509 2491 2742 2702 
Q 2975 2913 2975 3322 
Q 2975 3731 2742 3939 
Q 2509 4147 2053 4147 
L 1259 4147 
z
" transform="scale(0.015625)"/>
      <path id="DejaVuSans-6c" d="M 603 4863 
L 1178 4863 
L 1178 0 
L 603 0 
L 603 4863 
z
" transform="scale(0.015625)"/>
      <path id="DejaVuSans-76" d="M 191 3500 
L 800 3500 
L 1894 563 
L 2988 3500 
L 3597 3500 
L 2284 0 
L 1503 0 
L 191 3500 
z
" transform="scale(0.015625)"/>
      <path id="DejaVuSans-6e" d="M 3513 2113 
L 3513 0 
L 2938 0 
L 2938 2094 
Q 2938 2591 2744 2837 
Q 2550 3084 2163 3084 
Q 1697 3084 1428 2787 
Q 1159 2491 1159 1978 
L 1159 0 
L 581 0 
L 581 3500 
L 1159 3500 
L 1159 2956 
Q 1366 3272 1645 3428 
Q 1925 3584 2291 3584 
Q 2894 3584 3203 3211 
Q 3513 2838 3513 2113 
z
" transform="scale(0.015625)"/>
      <path id="DejaVuSans-67" d="M 2906 1791 
Q 2906 2416 2648 2759 
Q 2391 3103 1925 3103 
Q 1463 3103 1205 2759 
Q 947 2416 947 1791 
Q 947 1169 1205 825 
Q 1463 481 1925 481 
Q 2391 481 2648 825 
Q 2906 1169 2906 1791 
z
M 3481 434 
Q 3481 -459 3084 -895 
Q 2688 -1331 1869 -1331 
Q 1566 -1331 1297 -1286 
Q 1028 -1241 775 -1147 
L 775 -588 
Q 1028 -725 1275 -790 
Q 1522 -856 1778 -856 
Q 2344 -856 2625 -561 
Q 2906 -266 2906 331 
L 2906 616 
Q 2728 306 2450 153 
Q 2172 0 1784 0 
Q 1141 0 747 490 
Q 353 981 353 1791 
Q 353 2603 747 3093 
Q 1141 3584 1784 3584 
Q 2172 3584 2450 3431 
Q 2728 3278 2906 2969 
L 2906 3500 
L 3481 3500 
L 3481 434 
z
" transform="scale(0.015625)"/>
      <path id="DejaVuSans-68" d="M 3513 2113 
L 3513 0 
L 2938 0 
L 2938 2094 
Q 2938 2591 2744 2837 
Q 2550 3084 2163 3084 
Q 1697 3084 1428 2787 
Q 1159 2491 1159 1978 
L 1159 0 
L 581 0 
L 581 4863 
L 1159 4863 
L 1159 2956 
Q 1366 3272 1645 3428 
Q 1925 3584 2291 3584 
Q 2894 3584 3203 3211 
Q 3513 2838 3513 2113 
z
" transform="scale(0.015625)"/>
      <path id="DejaVuSans-49" d="M 628 4666 
L 1259 4666 
L 1259 0 
L 628 0 
L 628 4666 
z
" transform="scale(0.015625)"/>
      <path id="DejaVuSans-64" d="M 2906 2969 
L 2906 4863 
L 3481 4863 
L 3481 0 
L 2906 0 
L 2906 525 
Q 2725 213 2448 61 
Q 2172 -91 1784 -91 
Q 1150 -91 751 415 
Q 353 922 353 1747 
Q 353 2572 751 3078 
Q 1150 3584 1784 3584 
Q 2172 3584 2448 3432 
Q 2725 3281 2906 2969 
z
M 947 1747 
Q 947 1113 1208 752 
Q 1469 391 1925 391 
Q 2381 391 2643 752 
Q 2906 1113 2906 1747 
Q 2906 2381 2643 2742 
Q 2381 3103 1925 3103 
Q 1469 3103 1208 2742 
Q 947 2381 947 1747 
z
" transform="scale(0.015625)"/>
      <path id="DejaVuSans-78" d="M 3513 3500 
L 2247 1797 
L 3578 0 
L 2900 0 
L 1881 1375 
L 863 0 
L 184 0 
L 1544 1831 
L 300 3500 
L 978 3500 
L 1906 2253 
L 2834 3500 
L 3513 3500 
z
" transform="scale(0.015625)"/>
     </defs>
     <use xlink:href="#DejaVuSans-44"/>
     <use xlink:href="#DejaVuSans-56" x="75.251953"/>
     <use xlink:href="#DejaVuSans-4e" x="143.660156"/>
     <use xlink:href="#DejaVuSans-2c" x="218.464844"/>
     <use xlink:href="#DejaVuSans-20" x="250.251953"/>
     <use xlink:href="#DejaVuSans-52" x="282.039062"/>
     <use xlink:href="#DejaVuSans-65" x="347.021484"/>
     <use xlink:href="#DejaVuSans-6c" x="408.544922"/>
     <use xlink:href="#DejaVuSans-61" x="436.328125"/>
     <use xlink:href="#DejaVuSans-74" x="497.607422"/>
     <use xlink:href="#DejaVuSans-69" x="536.816406"/>
     <use xlink:href="#DejaVuSans-76" x="564.599609"/>
     <use xlink:href="#DejaVuSans-65" x="623.779297"/>
     <use xlink:href="#DejaVuSans-20" x="685.302734"/>
     <use xlink:href="#DejaVuSans-53" x="717.089844"/>
     <use xlink:href="#DejaVuSans-74" x="780.566406"/>
     <use xlink:href="#DejaVuSans-72" x="819.775391"/>
     <use xlink:href="#DejaVuSans-65" x="858.638672"/>
     <use xlink:href="#DejaVuSans-6e" x="920.162109"/>
     <use xlink:href="#DejaVuSans-67" x="983.541016"/>
     <use xlink:href="#DejaVuSans-74" x="1047.017578"/>
     <use xlink:href="#DejaVuSans-68" x="1086.226562"/>
     <use xlink:href="#DejaVuSans-20" x="1149.605469"/>
     <use xlink:href="#DejaVuSans-49" x="1181.392578"/>
     <use xlink:href="#DejaVuSans-6e" x="1210.884766"/>
     <use xlink:href="#DejaVuSans-64" x="1274.263672"/>
     <use xlink:href="#DejaVuSans-65" x="1337.740234"/>
     <use xlink:href="#DejaVuSans-78" x="1397.513672"/>
     <use xlink:href="#DejaVuSans-20" x="1456.693359"/>
     <use xlink:href="#DejaVuSans-28" x="1488.480469"/>
     <use xlink:href="#DejaVuSans-52" x="1527.494141"/>
     <use xlink:href="#DejaVuSans-53" x="1596.976562"/>
     <use xlink:href="#DejaVuSans-49" x="1660.453125"/>
     <use xlink:href="#DejaVuSans-29" x="1689.945312"/>
     <use xlink:href="#DejaVuSans-2c" x="1728.958984"/>
     <use xlink:href="#DejaVuSans-20" x="1760.746094"/>
     <use xlink:href="#DejaVuSans-44" x="1792.533203"/>
     <use xlink:href="#DejaVuSans-56" x="1867.785156"/>
     <use xlink:href="#DejaVuSans-4e" x="1936.193359"/>
    </g>
   </g>
   <g id="legend_1">
    <g id="patch_7">
     <path d="M 441.69375 74.3525 
L 591.603125 74.3525 
Q 593.603125 74.3525 593.603125 72.3525 
L 593.603125 29.318125 
Q 593.603125 27.318125 591.603125 27.318125 
L 441.69375 27.318125 
Q 439.69375 27.318125 439.69375 29.318125 
L 439.69375 72.3525 
Q 439.69375 74.3525 441.69375 74.3525 
z
" style="fill: #ffffff; opacity: 0.8; stroke: #cccccc; stroke-linejoin: miter"/>
    </g>
    <g id="line2d_25">
     <path d="M 443.69375 35.416562 
L 453.69375 35.416562 
L 463.69375 35.416562 
" style="fill: none; stroke: #00ff7f; stroke-linecap: square"/>
    </g>
    <g id="text_17">
     <!-- Oversold, RSI &lt;= 30 -->
     <g transform="translate(471.69375 38.916562)scale(0.1 -0.1)">
      <defs>
       <path id="DejaVuSans-4f" d="M 2522 4238 
Q 1834 4238 1429 3725 
Q 1025 3213 1025 2328 
Q 1025 1447 1429 934 
Q 1834 422 2522 422 
Q 3209 422 3611 934 
Q 4013 1447 4013 2328 
Q 4013 3213 3611 3725 
Q 3209 4238 2522 4238 
z
M 2522 4750 
Q 3503 4750 4090 4092 
Q 4678 3434 4678 2328 
Q 4678 1225 4090 567 
Q 3503 -91 2522 -91 
Q 1538 -91 948 565 
Q 359 1222 359 2328 
Q 359 3434 948 4092 
Q 1538 4750 2522 4750 
z
" transform="scale(0.015625)"/>
       <path id="DejaVuSans-73" d="M 2834 3397 
L 2834 2853 
Q 2591 2978 2328 3040 
Q 2066 3103 1784 3103 
Q 1356 3103 1142 2972 
Q 928 2841 928 2578 
Q 928 2378 1081 2264 
Q 1234 2150 1697 2047 
L 1894 2003 
Q 2506 1872 2764 1633 
Q 3022 1394 3022 966 
Q 3022 478 2636 193 
Q 2250 -91 1575 -91 
Q 1294 -91 989 -36 
Q 684 19 347 128 
L 347 722 
Q 666 556 975 473 
Q 1284 391 1588 391 
Q 1994 391 2212 530 
Q 2431 669 2431 922 
Q 2431 1156 2273 1281 
Q 2116 1406 1581 1522 
L 1381 1569 
Q 847 1681 609 1914 
Q 372 2147 372 2553 
Q 372 3047 722 3315 
Q 1072 3584 1716 3584 
Q 2034 3584 2315 3537 
Q 2597 3491 2834 3397 
z
" transform="scale(0.015625)"/>
       <path id="DejaVuSans-6f" d="M 1959 3097 
Q 1497 3097 1228 2736 
Q 959 2375 959 1747 
Q 959 1119 1226 758 
Q 1494 397 1959 397 
Q 2419 397 2687 759 
Q 2956 1122 2956 1747 
Q 2956 2369 2687 2733 
Q 2419 3097 1959 3097 
z
M 1959 3584 
Q 2709 3584 3137 3096 
Q 3566 2609 3566 1747 
Q 3566 888 3137 398 
Q 2709 -91 1959 -91 
Q 1206 -91 779 398 
Q 353 888 353 1747 
Q 353 2609 779 3096 
Q 1206 3584 1959 3584 
z
" transform="scale(0.015625)"/>
       <path id="DejaVuSans-3c" d="M 4684 3150 
L 1459 2003 
L 4684 863 
L 4684 294 
L 678 1747 
L 678 2266 
L 4684 3719 
L 4684 3150 
z
" transform="scale(0.015625)"/>
       <path id="DejaVuSans-3d" d="M 678 2906 
L 4684 2906 
L 4684 2381 
L 678 2381 
L 678 2906 
z
M 678 1631 
L 4684 1631 
L 4684 1100 
L 678 1100 
L 678 1631 
z
" transform="scale(0.015625)"/>
      </defs>
      <use xlink:href="#DejaVuSans-4f"/>
      <use xlink:href="#DejaVuSans-76" x="78.710938"/>
      <use xlink:href="#DejaVuSans-65" x="137.890625"/>
      <use xlink:href="#DejaVuSans-72" x="199.414062"/>
      <use xlink:href="#DejaVuSans-73" x="240.527344"/>
      <use xlink:href="#DejaVuSans-6f" x="292.626953"/>
      <use xlink:href="#DejaVuSans-6c" x="353.808594"/>
      <use xlink:href="#DejaVuSans-64" x="381.591797"/>
      <use xlink:href="#DejaVuSans-2c" x="445.068359"/>
      <use xlink:href="#DejaVuSans-20" x="476.855469"/>
      <use xlink:href="#DejaVuSans-52" x="508.642578"/>
      <use xlink:href="#DejaVuSans-53" x="578.125"/>
      <use xlink:href="#DejaVuSans-49" x="641.601562"/>
      <use xlink:href="#DejaVuSans-20" x="671.09375"/>
      <use xlink:href="#DejaVuSans-3c" x="702.880859"/>
      <use xlink:href="#DejaVuSans-3d" x="786.669922"/>
      <use xlink:href="#DejaVuSans-20" x="870.458984"/>
      <use xlink:href="#DejaVuSans-33" x="902.246094"/>
      <use xlink:href="#DejaVuSans-30" x="965.869141"/>
     </g>
    </g>
    <g id="line2d_26">
     <path d="M 443.69375 50.094687 
L 453.69375 50.094687 
L 463.69375 50.094687 
" style="fill: none; stroke: #ff4500; stroke-linecap: square"/>
    </g>
    <g id="text_18">
     <!-- Overbought, RSI &gt;= 70 -->
     <g transform="translate(471.69375 53.594687)scale(0.1 -0.1)">
      <defs>
       <path id="DejaVuSans-62" d="M 3116 1747 
Q 3116 2381 2855 2742 
Q 2594 3103 2138 3103 
Q 1681 3103 1420 2742 
Q 1159 2381 1159 1747 
Q 1159 1113 1420 752 
Q 1681 391 2138 391 
Q 2594 391 2855 752 
Q 3116 1113 3116 1747 
z
M 1159 2969 
Q 1341 3281 1617 3432 
Q 1894 3584 2278 3584 
Q 2916 3584 3314 3078 
Q 3713 2572 3713 1747 
Q 3713 922 3314 415 
Q 2916 -91 2278 -91 
Q 1894 -91 1617 61 
Q 1341 213 1159 525 
L 1159 0 
L 581 0 
L 581 4863 
L 1159 4863 
L 1159 2969 
z
" transform="scale(0.015625)"/>
       <path id="DejaVuSans-75" d="M 544 1381 
L 544 3500 
L 1119 3500 
L 1119 1403 
Q 1119 906 1312 657 
Q 1506 409 1894 409 
Q 2359 409 2629 706 
Q 2900 1003 2900 1516 
L 2900 3500 
L 3475 3500 
L 3475 0 
L 2900 0 
L 2900 538 
Q 2691 219 2414 64 
Q 2138 -91 1772 -91 
Q 1169 -91 856 284 
Q 544 659 544 1381 
z
M 1991 3584 
L 1991 3584 
z
" transform="scale(0.015625)"/>
       <path id="DejaVuSans-3e" d="M 678 3150 
L 678 3719 
L 4684 2266 
L 4684 1747 
L 678 294 
L 678 863 
L 3897 2003 
L 678 3150 
z
" transform="scale(0.015625)"/>
      </defs>
      <use xlink:href="#DejaVuSans-4f"/>
      <use xlink:href="#DejaVuSans-76" x="78.710938"/>
      <use xlink:href="#DejaVuSans-65" x="137.890625"/>
      <use xlink:href="#DejaVuSans-72" x="199.414062"/>
      <use xlink:href="#DejaVuSans-62" x="240.527344"/>
      <use xlink:href="#DejaVuSans-6f" x="304.003906"/>
      <use xlink:href="#DejaVuSans-75" x="365.185547"/>
      <use xlink:href="#DejaVuSans-67" x="428.564453"/>
      <use xlink:href="#DejaVuSans-68" x="492.041016"/>
      <use xlink:href="#DejaVuSans-74" x="555.419922"/>
      <use xlink:href="#DejaVuSans-2c" x="594.628906"/>
      <use xlink:href="#DejaVuSans-20" x="626.416016"/>
      <use xlink:href="#DejaVuSans-52" x="658.203125"/>
      <use xlink:href="#DejaVuSans-53" x="727.685547"/>
      <use xlink:href="#DejaVuSans-49" x="791.162109"/>
      <use xlink:href="#DejaVuSans-20" x="820.654297"/>
      <use xlink:href="#DejaVuSans-3e" x="852.441406"/>
      <use xlink:href="#DejaVuSans-3d" x="936.230469"/>
      <use xlink:href="#DejaVuSans-20" x="1020.019531"/>
      <use xlink:href="#DejaVuSans-37" x="1051.806641"/>
      <use xlink:href="#DejaVuSans-30" x="1115.429688"/>
     </g>
    </g>
    <g id="line2d_27">
     <path d="M 443.69375 64.772812 
L 453.69375 64.772812 
L 463.69375 64.772812 
" style="fill: none; stroke: #1e90ff; stroke-linecap: square"/>
    </g>
    <g id="text_19">
     <!-- Neutral -->
     <g transform="translate(471.69375 68.272812)scale(0.1 -0.1)">
      <use xlink:href="#DejaVuSans-4e"/>
      <use xlink:href="#DejaVuSans-65" x="74.804688"/>
      <use xlink:href="#DejaVuSans-75" x="136.328125"/>
      <use xlink:href="#DejaVuSans-74" x="199.707031"/>
      <use xlink:href="#DejaVuSans-72" x="238.916016"/>
      <use xlink:href="#DejaVuSans-61" x="280.029297"/>
      <use xlink:href="#DejaVuSans-6c" x="341.308594"/>
     </g>
    </g>
   </g>
  </g>
 </g>
 <defs>
  <clipPath id="p2c9f20d2d0">
   <rect x="40.603125" y="22.318125" width="558" height="332.64"/>
  </clipPath>
 </defs>
</svg>
