<?xml version="1.0" encoding="utf-8" standalone="no"?>
<!DOCTYPE svg PUBLIC "-//W3C//DTD SVG 1.1//EN"
  "http://www.w3.org/Graphics/SVG/1.1/DTD/svg11.dtd">
<svg xmlns:xlink="http://www.w3.org/1999/xlink" width="708.332381pt" height="422.947075pt" viewBox="0 0 708.332381 422.947075" xmlns="http://www.w3.org/2000/svg" version="1.1">
 <metadata>
  <rdf:RDF xmlns:dc="http://purl.org/dc/elements/1.1/" xmlns:cc="http://creativecommons.org/ns#" xmlns:rdf="http://www.w3.org/1999/02/22-rdf-syntax-ns#">
   <cc:Work>
    <dc:type rdf:resource="http://purl.org/dc/dcmitype/StillImage"/>
    <dc:date>2023-04-23T14:47:37.031517</dc:date>
    <dc:format>image/svg+xml</dc:format>
    <dc:creator>
     <cc:Agent>
      <dc:title>Matplotlib v3.5.1, https://matplotlib.org/</dc:title>
     </cc:Agent>
    </dc:creator>
   </cc:Work>
  </rdf:RDF>
 </metadata>
 <defs>
  <style type="text/css">*{stroke-linejoin: round; stroke-linecap: butt}</style>
 </defs>
 <g id="figure_1">
  <g id="patch_1">
   <path d="M 0 422.947075 
L 708.332381 422.947075 
L 708.332381 0 
L 0 0 
z
" style="fill: #f0f0f0"/>
  </g>
  <g id="axes_1">
   <g id="patch_2">
    <path d="M 57.68175 378.43845 
L 684.08175 378.43845 
L 684.08175 28.51845 
L 57.68175 28.51845 
z
" style="fill: #f0f0f0"/>
   </g>
   <g id="matplotlib.axis_1">
    <g id="xtick_1">
     <g id="line2d_1">
      <path d="M 86.154477 378.43845 
L 86.154477 28.51845 
" clip-path="url(#p1199ed65e1)" style="fill: none; stroke: #cbcbcb"/>
     </g>
     <g id="line2d_2"/>
     <g id="text_1">
      <!-- 0 -->
      <g transform="translate(81.700727 392.576263)scale(0.14 -0.14)">
       <defs>
        <path id="DejaVuSans-30" d="M 2034 4250 
Q 1547 4250 1301 3770 
Q 1056 3291 1056 2328 
Q 1056 1369 1301 889 
Q 1547 409 2034 409 
Q 2525 409 2770 889 
Q 3016 1369 3016 2328 
Q 3016 3291 2770 3770 
Q 2525 4250 2034 4250 
z
M 2034 4750 
Q 2819 4750 3233 4129 
Q 3647 3509 3647 2328 
Q 3647 1150 3233 529 
Q 2819 -91 2034 -91 
Q 1250 -91 836 529 
Q 422 1150 422 2328 
Q 422 3509 836 4129 
Q 1250 4750 2034 4750 
z
" transform="scale(0.015625)"/>
       </defs>
       <use xlink:href="#DejaVuSans-30"/>
      </g>
     </g>
    </g>
    <g id="xtick_2">
     <g id="line2d_3">
      <path d="M 205.587058 378.43845 
L 205.587058 28.51845 
" clip-path="url(#p1199ed65e1)" style="fill: none; stroke: #cbcbcb"/>
     </g>
     <g id="line2d_4"/>
     <g id="text_2">
      <!-- 500 -->
      <g transform="translate(192.225808 392.576263)scale(0.14 -0.14)">
       <defs>
        <path id="DejaVuSans-35" d="M 691 4666 
L 3169 4666 
L 3169 4134 
L 1269 4134 
L 1269 2991 
Q 1406 3038 1543 3061 
Q 1681 3084 1819 3084 
Q 2600 3084 3056 2656 
Q 3513 2228 3513 1497 
Q 3513 744 3044 326 
Q 2575 -91 1722 -91 
Q 1428 -91 1123 -41 
Q 819 9 494 109 
L 494 744 
Q 775 591 1075 516 
Q 1375 441 1709 441 
Q 2250 441 2565 725 
Q 2881 1009 2881 1497 
Q 2881 1984 2565 2268 
Q 2250 2553 1709 2553 
Q 1456 2553 1204 2497 
Q 953 2441 691 2322 
L 691 4666 
z
" transform="scale(0.015625)"/>
       </defs>
       <use xlink:href="#DejaVuSans-35"/>
       <use xlink:href="#DejaVuSans-30" x="63.623047"/>
       <use xlink:href="#DejaVuSans-30" x="127.246094"/>
      </g>
     </g>
    </g>
    <g id="xtick_3">
     <g id="line2d_5">
      <path d="M 325.019639 378.43845 
L 325.019639 28.51845 
" clip-path="url(#p1199ed65e1)" style="fill: none; stroke: #cbcbcb"/>
     </g>
     <g id="line2d_6"/>
     <g id="text_3">
      <!-- 1000 -->
      <g transform="translate(307.204639 392.576263)scale(0.14 -0.14)">
       <defs>
        <path id="DejaVuSans-31" d="M 794 531 
L 1825 531 
L 1825 4091 
L 703 3866 
L 703 4441 
L 1819 4666 
L 2450 4666 
L 2450 531 
L 3481 531 
L 3481 0 
L 794 0 
L 794 531 
z
" transform="scale(0.015625)"/>
       </defs>
       <use xlink:href="#DejaVuSans-31"/>
       <use xlink:href="#DejaVuSans-30" x="63.623047"/>
       <use xlink:href="#DejaVuSans-30" x="127.246094"/>
       <use xlink:href="#DejaVuSans-30" x="190.869141"/>
      </g>
     </g>
    </g>
    <g id="xtick_4">
     <g id="line2d_7">
      <path d="M 444.45222 378.43845 
L 444.45222 28.51845 
" clip-path="url(#p1199ed65e1)" style="fill: none; stroke: #cbcbcb"/>
     </g>
     <g id="line2d_8"/>
     <g id="text_4">
      <!-- 1500 -->
      <g transform="translate(426.63722 392.576263)scale(0.14 -0.14)">
       <use xlink:href="#DejaVuSans-31"/>
       <use xlink:href="#DejaVuSans-35" x="63.623047"/>
       <use xlink:href="#DejaVuSans-30" x="127.246094"/>
       <use xlink:href="#DejaVuSans-30" x="190.869141"/>
      </g>
     </g>
    </g>
    <g id="xtick_5">
     <g id="line2d_9">
      <path d="M 563.884801 378.43845 
L 563.884801 28.51845 
" clip-path="url(#p1199ed65e1)" style="fill: none; stroke: #cbcbcb"/>
     </g>
     <g id="line2d_10"/>
     <g id="text_5">
      <!-- 2000 -->
      <g transform="translate(546.069801 392.576263)scale(0.14 -0.14)">
       <defs>
        <path id="DejaVuSans-32" d="M 1228 531 
L 3431 531 
L 3431 0 
L 469 0 
L 469 531 
Q 828 903 1448 1529 
Q 2069 2156 2228 2338 
Q 2531 2678 2651 2914 
Q 2772 3150 2772 3378 
Q 2772 3750 2511 3984 
Q 2250 4219 1831 4219 
Q 1534 4219 1204 4116 
Q 875 4013 500 3803 
L 500 4441 
Q 881 4594 1212 4672 
Q 1544 4750 1819 4750 
Q 2544 4750 2975 4387 
Q 3406 4025 3406 3419 
Q 3406 3131 3298 2873 
Q 3191 2616 2906 2266 
Q 2828 2175 2409 1742 
Q 1991 1309 1228 531 
z
" transform="scale(0.015625)"/>
       </defs>
       <use xlink:href="#DejaVuSans-32"/>
       <use xlink:href="#DejaVuSans-30" x="63.623047"/>
       <use xlink:href="#DejaVuSans-30" x="127.246094"/>
       <use xlink:href="#DejaVuSans-30" x="190.869141"/>
      </g>
     </g>
    </g>
    <g id="xtick_6">
     <g id="line2d_11">
      <path d="M 683.317381 378.43845 
L 683.317381 28.51845 
" clip-path="url(#p1199ed65e1)" style="fill: none; stroke: #cbcbcb"/>
     </g>
     <g id="line2d_12"/>
     <g id="text_6">
      <!-- 2500 -->
      <g transform="translate(665.502381 392.576263)scale(0.14 -0.14)">
       <use xlink:href="#DejaVuSans-32"/>
       <use xlink:href="#DejaVuSans-35" x="63.623047"/>
       <use xlink:href="#DejaVuSans-30" x="127.246094"/>
       <use xlink:href="#DejaVuSans-30" x="190.869141"/>
      </g>
     </g>
    </g>
    <g id="text_7">
     <!-- Date -->
     <g transform="translate(350.804438 412.2532)scale(0.168 -0.168)">
      <defs>
       <path id="DejaVuSans-44" d="M 1259 4147 
L 1259 519 
L 2022 519 
Q 2988 519 3436 956 
Q 3884 1394 3884 2338 
Q 3884 3275 3436 3711 
Q 2988 4147 2022 4147 
L 1259 4147 
z
M 628 4666 
L 1925 4666 
Q 3281 4666 3915 4102 
Q 4550 3538 4550 2338 
Q 4550 1131 3912 565 
Q 3275 0 1925 0 
L 628 0 
L 628 4666 
z
" transform="scale(0.015625)"/>
       <path id="DejaVuSans-61" d="M 2194 1759 
Q 1497 1759 1228 1600 
Q 959 1441 959 1056 
Q 959 750 1161 570 
Q 1363 391 1709 391 
Q 2188 391 2477 730 
Q 2766 1069 2766 1631 
L 2766 1759 
L 2194 1759 
z
M 3341 1997 
L 3341 0 
L 2766 0 
L 2766 531 
Q 2569 213 2275 61 
Q 1981 -91 1556 -91 
Q 1019 -91 701 211 
Q 384 513 384 1019 
Q 384 1609 779 1909 
Q 1175 2209 1959 2209 
L 2766 2209 
L 2766 2266 
Q 2766 2663 2505 2880 
Q 2244 3097 1772 3097 
Q 1472 3097 1187 3025 
Q 903 2953 641 2809 
L 641 3341 
Q 956 3463 1253 3523 
Q 1550 3584 1831 3584 
Q 2591 3584 2966 3190 
Q 3341 2797 3341 1997 
z
" transform="scale(0.015625)"/>
       <path id="DejaVuSans-74" d="M 1172 4494 
L 1172 3500 
L 2356 3500 
L 2356 3053 
L 1172 3053 
L 1172 1153 
Q 1172 725 1289 603 
Q 1406 481 1766 481 
L 2356 481 
L 2356 0 
L 1766 0 
Q 1100 0 847 248 
Q 594 497 594 1153 
L 594 3053 
L 172 3053 
L 172 3500 
L 594 3500 
L 594 4494 
L 1172 4494 
z
" transform="scale(0.015625)"/>
       <path id="DejaVuSans-65" d="M 3597 1894 
L 3597 1613 
L 953 1613 
Q 991 1019 1311 708 
Q 1631 397 2203 397 
Q 2534 397 2845 478 
Q 3156 559 3463 722 
L 3463 178 
Q 3153 47 2828 -22 
Q 2503 -91 2169 -91 
Q 1331 -91 842 396 
Q 353 884 353 1716 
Q 353 2575 817 3079 
Q 1281 3584 2069 3584 
Q 2775 3584 3186 3129 
Q 3597 2675 3597 1894 
z
M 3022 2063 
Q 3016 2534 2758 2815 
Q 2500 3097 2075 3097 
Q 1594 3097 1305 2825 
Q 1016 2553 972 2059 
L 3022 2063 
z
" transform="scale(0.015625)"/>
      </defs>
      <use xlink:href="#DejaVuSans-44"/>
      <use xlink:href="#DejaVuSans-61" x="77.001953"/>
      <use xlink:href="#DejaVuSans-74" x="138.28125"/>
      <use xlink:href="#DejaVuSans-65" x="177.490234"/>
     </g>
    </g>
   </g>
   <g id="matplotlib.axis_2">
    <g id="ytick_1">
     <g id="line2d_13">
      <path d="M 57.68175 344.530571 
L 684.08175 344.530571 
" clip-path="url(#p1199ed65e1)" style="fill: none; stroke: #dcdcdc; stroke-width: 0.5"/>
     </g>
     <g id="line2d_14"/>
     <g id="text_8">
      <!-- 50 -->
      <g transform="translate(36.36675 349.849477)scale(0.14 -0.14)">
       <use xlink:href="#DejaVuSans-35"/>
       <use xlink:href="#DejaVuSans-30" x="63.623047"/>
      </g>
     </g>
    </g>
    <g id="ytick_2">
     <g id="line2d_15">
      <path d="M 57.68175 273.543092 
L 684.08175 273.543092 
" clip-path="url(#p1199ed65e1)" style="fill: none; stroke: #dcdcdc; stroke-width: 0.5"/>
     </g>
     <g id="line2d_16"/>
     <g id="text_9">
      <!-- 100 -->
      <g transform="translate(27.45925 278.861998)scale(0.14 -0.14)">
       <use xlink:href="#DejaVuSans-31"/>
       <use xlink:href="#DejaVuSans-30" x="63.623047"/>
       <use xlink:href="#DejaVuSans-30" x="127.246094"/>
      </g>
     </g>
    </g>
    <g id="ytick_3">
     <g id="line2d_17">
      <path d="M 57.68175 202.555613 
L 684.08175 202.555613 
" clip-path="url(#p1199ed65e1)" style="fill: none; stroke: #dcdcdc; stroke-width: 0.5"/>
     </g>
     <g id="line2d_18"/>
     <g id="text_10">
      <!-- 150 -->
      <g transform="translate(27.45925 207.874519)scale(0.14 -0.14)">
       <use xlink:href="#DejaVuSans-31"/>
       <use xlink:href="#DejaVuSans-35" x="63.623047"/>
       <use xlink:href="#DejaVuSans-30" x="127.246094"/>
      </g>
     </g>
    </g>
    <g id="ytick_4">
     <g id="line2d_19">
      <path d="M 57.68175 131.568134 
L 684.08175 131.568134 
" clip-path="url(#p1199ed65e1)" style="fill: none; stroke: #dcdcdc; stroke-width: 0.5"/>
     </g>
     <g id="line2d_20"/>
     <g id="text_11">
      <!-- 200 -->
      <g transform="translate(27.45925 136.88704)scale(0.14 -0.14)">
       <use xlink:href="#DejaVuSans-32"/>
       <use xlink:href="#DejaVuSans-30" x="63.623047"/>
       <use xlink:href="#DejaVuSans-30" x="127.246094"/>
      </g>
     </g>
    </g>
    <g id="ytick_5">
     <g id="line2d_21">
      <path d="M 57.68175 60.580655 
L 684.08175 60.580655 
" clip-path="url(#p1199ed65e1)" style="fill: none; stroke: #dcdcdc; stroke-width: 0.5"/>
     </g>
     <g id="line2d_22"/>
     <g id="text_12">
      <!-- 250 -->
      <g transform="translate(27.45925 65.899561)scale(0.14 -0.14)">
       <use xlink:href="#DejaVuSans-32"/>
       <use xlink:href="#DejaVuSans-35" x="63.623047"/>
       <use xlink:href="#DejaVuSans-30" x="127.246094"/>
      </g>
     </g>
    </g>
    <g id="text_13">
     <!-- Price (USD) -->
     <g transform="translate(19.965375 251.1432)rotate(-90)scale(0.168 -0.168)">
      <defs>
       <path id="DejaVuSans-50" d="M 1259 4147 
L 1259 2394 
L 2053 2394 
Q 2494 2394 2734 2622 
Q 2975 2850 2975 3272 
Q 2975 3691 2734 3919 
Q 2494 4147 2053 4147 
L 1259 4147 
z
M 628 4666 
L 2053 4666 
Q 2838 4666 3239 4311 
Q 3641 3956 3641 3272 
Q 3641 2581 3239 2228 
Q 2838 1875 2053 1875 
L 1259 1875 
L 1259 0 
L 628 0 
L 628 4666 
z
" transform="scale(0.015625)"/>
       <path id="DejaVuSans-72" d="M 2631 2963 
Q 2534 3019 2420 3045 
Q 2306 3072 2169 3072 
Q 1681 3072 1420 2755 
Q 1159 2438 1159 1844 
L 1159 0 
L 581 0 
L 581 3500 
L 1159 3500 
L 1159 2956 
Q 1341 3275 1631 3429 
Q 1922 3584 2338 3584 
Q 2397 3584 2469 3576 
Q 2541 3569 2628 3553 
L 2631 2963 
z
" transform="scale(0.015625)"/>
       <path id="DejaVuSans-69" d="M 603 3500 
L 1178 3500 
L 1178 0 
L 603 0 
L 603 3500 
z
M 603 4863 
L 1178 4863 
L 1178 4134 
L 603 4134 
L 603 4863 
z
" transform="scale(0.015625)"/>
       <path id="DejaVuSans-63" d="M 3122 3366 
L 3122 2828 
Q 2878 2963 2633 3030 
Q 2388 3097 2138 3097 
Q 1578 3097 1268 2742 
Q 959 2388 959 1747 
Q 959 1106 1268 751 
Q 1578 397 2138 397 
Q 2388 397 2633 464 
Q 2878 531 3122 666 
L 3122 134 
Q 2881 22 2623 -34 
Q 2366 -91 2075 -91 
Q 1284 -91 818 406 
Q 353 903 353 1747 
Q 353 2603 823 3093 
Q 1294 3584 2113 3584 
Q 2378 3584 2631 3529 
Q 2884 3475 3122 3366 
z
" transform="scale(0.015625)"/>
       <path id="DejaVuSans-20" transform="scale(0.015625)"/>
       <path id="DejaVuSans-28" d="M 1984 4856 
Q 1566 4138 1362 3434 
Q 1159 2731 1159 2009 
Q 1159 1288 1364 580 
Q 1569 -128 1984 -844 
L 1484 -844 
Q 1016 -109 783 600 
Q 550 1309 550 2009 
Q 550 2706 781 3412 
Q 1013 4119 1484 4856 
L 1984 4856 
z
" transform="scale(0.015625)"/>
       <path id="DejaVuSans-55" d="M 556 4666 
L 1191 4666 
L 1191 1831 
Q 1191 1081 1462 751 
Q 1734 422 2344 422 
Q 2950 422 3222 751 
Q 3494 1081 3494 1831 
L 3494 4666 
L 4128 4666 
L 4128 1753 
Q 4128 841 3676 375 
Q 3225 -91 2344 -91 
Q 1459 -91 1007 375 
Q 556 841 556 1753 
L 556 4666 
z
" transform="scale(0.015625)"/>
       <path id="DejaVuSans-53" d="M 3425 4513 
L 3425 3897 
Q 3066 4069 2747 4153 
Q 2428 4238 2131 4238 
Q 1616 4238 1336 4038 
Q 1056 3838 1056 3469 
Q 1056 3159 1242 3001 
Q 1428 2844 1947 2747 
L 2328 2669 
Q 3034 2534 3370 2195 
Q 3706 1856 3706 1288 
Q 3706 609 3251 259 
Q 2797 -91 1919 -91 
Q 1588 -91 1214 -16 
Q 841 59 441 206 
L 441 856 
Q 825 641 1194 531 
Q 1563 422 1919 422 
Q 2459 422 2753 634 
Q 3047 847 3047 1241 
Q 3047 1584 2836 1778 
Q 2625 1972 2144 2069 
L 1759 2144 
Q 1053 2284 737 2584 
Q 422 2884 422 3419 
Q 422 4038 858 4394 
Q 1294 4750 2059 4750 
Q 2388 4750 2728 4690 
Q 3069 4631 3425 4513 
z
" transform="scale(0.015625)"/>
       <path id="DejaVuSans-29" d="M 513 4856 
L 1013 4856 
Q 1481 4119 1714 3412 
Q 1947 2706 1947 2009 
Q 1947 1309 1714 600 
Q 1481 -109 1013 -844 
L 513 -844 
Q 928 -128 1133 580 
Q 1338 1288 1338 2009 
Q 1338 2731 1133 3434 
Q 928 4138 513 4856 
z
" transform="scale(0.015625)"/>
      </defs>
      <use xlink:href="#DejaVuSans-50"/>
      <use xlink:href="#DejaVuSans-72" x="58.552734"/>
      <use xlink:href="#DejaVuSans-69" x="99.666016"/>
      <use xlink:href="#DejaVuSans-63" x="127.449219"/>
      <use xlink:href="#DejaVuSans-65" x="182.429688"/>
      <use xlink:href="#DejaVuSans-20" x="243.953125"/>
      <use xlink:href="#DejaVuSans-28" x="275.740234"/>
      <use xlink:href="#DejaVuSans-55" x="314.753906"/>
      <use xlink:href="#DejaVuSans-53" x="387.947266"/>
      <use xlink:href="#DejaVuSans-44" x="451.423828"/>
      <use xlink:href="#DejaVuSans-29" x="528.425781"/>
     </g>
    </g>
   </g>
   <g id="line2d_23">
    <path d="M 92.364971 143.593413 
L 92.842702 145.87921 
L 93.081567 147.753279 
M 95.470219 158.543376 
L 95.709084 159.806953 
M 96.664544 160.133495 
L 97.142275 167.530391 
L 97.38114 165.500149 
L 97.620005 167.459403 
M 117.445813 101.668208 
L 117.684679 104.337337 
L 117.923544 112.529292 
L 118.162409 110.144113 
M 136.077296 77.929995 
L 136.316161 82.870723 
L 136.793892 86.491085 
L 137.032757 83.552203 
L 137.271622 86.476887 
L 137.510487 86.46269 
M 138.943678 99.041671 
L 139.182543 100.702778 
L 139.660273 108.213253 
L 140.138004 117.654588 
L 140.376869 119.00335 
L 140.615734 122.822476 
L 140.854599 120.352112 
L 141.093464 125.889135 
L 141.571195 125.165063 
L 142.048925 127.50765 
L 142.28779 121.487912 
L 142.526655 123.858894 
M 159.008352 147.355749 
L 159.247217 150.195248 
M 159.724947 151.160678 
L 160.202677 146.248344 
M 172.384801 145.510075 
L 172.623666 145.737235 
L 172.862531 147.724884 
L 173.101396 143.479833 
L 173.579126 158.997696 
L 173.817992 159.395226 
L 174.056857 157.279799 
L 174.295722 160.687198 
L 174.534587 167.246441 
L 174.773452 167.856933 
L 175.012317 166.593356 
L 175.251183 168.197673 
L 175.490048 171.960009 
L 175.728913 173.095809 
L 176.445508 184.212448 
L 176.923239 197.203157 
L 177.400969 184.027881 
L 177.639834 185.603803 
L 178.117565 190.459346 
M 186.477845 187.051947 
L 186.71671 187.818612 
L 187.194441 187.563057 
L 187.433306 187.591452 
L 187.672171 185.461828 
L 187.911036 184.425411 
L 188.149901 184.908125 
M 191.016283 199.730311 
L 191.255148 202.555613 
L 191.494014 199.758706 
L 191.732879 199.985866 
L 191.971744 197.728464 
M 193.6438 203.123513 
L 193.882665 207.183996 
M 202.481811 185.149483 
L 202.720676 184.680966 
L 202.959541 188.997004 
L 203.198406 190.459346 
L 203.437272 190.331569 
L 203.676137 186.157505 
L 203.915002 188.926017 
M 210.842092 197.274144 
L 211.080957 198.608709 
L 211.558687 202.186478 
L 211.797552 203.02413 
L 212.036417 202.17228 
L 212.275283 204.10314 
L 212.514148 203.691412 
L 212.753013 204.38709 
L 212.991878 205.806839 
M 213.469608 206.772269 
L 213.708474 207.524736 
M 214.186204 209.654361 
L 214.425069 210.932135 
L 214.663934 210.520408 
L 215.38053 216.667924 
L 215.619395 221.651245 
L 215.85826 220.401865 
L 216.097125 222.985809 
L 216.33599 222.787044 
L 216.574856 223.823461 
L 216.813721 222.772847 
L 217.291451 222.957414 
L 217.530316 223.681487 
L 217.769181 225.953086 
L 218.008047 231.788257 
L 218.246912 228.437648 
L 218.485777 228.1395 
M 220.396698 236.558615 
L 220.635563 239.554287 
M 224.218541 249.421546 
L 224.696271 249.790681 
L 225.174001 258.791894 
L 225.412867 258.735104 
L 225.651732 257.585106 
L 225.890597 254.532645 
L 226.129462 253.340055 
L 226.607192 259.885101 
L 226.846058 259.132634 
L 227.323788 267.211009 
L 227.562653 266.799281 
L 227.801518 264.797434 
L 228.756979 280.783815 
L 228.995844 280.712827 
L 229.234709 284.020844 
L 229.712439 277.660366 
L 229.951305 284.276399 
L 230.19017 281.578874 
M 233.773147 305.771407 
L 234.012012 319.259028 
L 234.250878 321.303468 
L 234.489743 316.320147 
L 234.728608 323.205932 
M 250.493709 248.470314 
L 250.732574 250.145619 
M 251.210304 250.429569 
L 251.449169 251.423393 
L 251.688034 251.593763 
L 251.926899 252.885735 
M 269.364056 276.567158 
L 269.602921 280.570852 
L 269.841787 282.175169 
L 270.080652 282.941834 
L 270.319517 282.643687 
L 270.558382 278.398635 
L 270.797247 279.10851 
L 271.036112 275.601729 
M 278.679798 276.070246 
L 278.918663 274.934446 
L 279.157528 272.350502 
M 282.50164 282.288749 
L 282.740505 283.083809 
L 282.979371 282.231959 
L 283.218236 283.154796 
L 283.457101 285.085656 
M 293.250572 261.659788 
L 293.728303 265.081384 
L 293.967168 264.982002 
L 294.206033 266.515331 
L 294.444898 264.527682 
L 294.683763 268.446191 
L 294.922629 268.644956 
L 295.400359 273.344327 
L 295.878089 271.881985 
L 296.35582 272.975192 
L 296.594685 274.494324 
L 296.83355 272.53507 
M 301.371988 277.97271 
L 301.610853 277.532588 
L 301.849718 276.240616 
L 302.088583 276.567158 
L 302.805179 279.577027 
L 303.044044 282.870847 
L 303.282909 283.268376 
L 303.521774 282.317144 
L 303.76064 285.185038 
L 303.999505 285.142446 
L 304.23837 285.525778 
M 308.537943 293.476376 
L 309.015673 288.933177 
M 326.45283 260.225841 
L 326.691695 261.602998 
M 327.169425 261.120283 
L 327.408291 262.355465 
L 327.647156 261.219665 
L 327.886021 261.801763 
L 328.124886 263.647437 
L 328.363751 263.888795 
M 328.841482 265.706074 
L 329.080347 273.912227 
L 330.035807 278.043698 
L 330.274673 275.814691 
L 330.513538 277.674563 
L 330.991268 273.628277 
L 331.230133 275.147409 
L 331.468998 275.275186 
L 331.707863 276.737528 
L 332.185594 277.177651 
M 337.201762 280.556655 
L 337.440627 280.826407 
L 337.918358 279.22209 
L 338.157223 278.781968 
M 344.128852 293.774523 
L 344.367717 291.446134 
L 344.845447 294.172053 
L 345.084313 294.115263 
L 345.323178 293.859708 
L 345.562043 292.596131 
M 346.039773 294.739953 
L 346.278638 295.66279 
L 346.517504 295.904148 
L 346.756369 296.472047 
L 346.995234 295.932543 
L 347.234099 297.920192 
M 365.626716 279.591225 
L 365.865582 281.820232 
L 366.104447 281.280727 
L 366.343312 282.473317 
L 366.582177 281.010975 
L 366.821042 283.850474 
L 367.298773 285.440593 
L 367.537638 283.566524 
L 367.776503 283.680104 
L 368.015368 284.744916 
L 368.254233 285.057261 
L 368.731964 286.70417 
L 368.970829 287.470835 
L 369.687424 292.439959 
L 369.926289 294.015881 
L 370.165155 293.987486 
L 370.40402 294.853533 
L 370.642885 294.072671 
L 370.88175 293.987486 
L 371.35948 298.530684 
M 374.942458 303.031291 
L 375.181323 305.444865 
L 375.420188 305.501655 
L 375.659053 304.664003 
L 375.897918 304.649805 
M 383.541604 302.875118 
L 383.780469 304.45104 
L 384.258199 304.90536 
L 384.497064 305.501655 
L 384.735929 305.2461 
L 385.21366 304.124498 
L 385.452525 304.976347 
M 387.363446 310.612753 
L 387.602311 310.584358 
L 387.841176 311.237443 
M 388.318907 311.379418 
L 388.557772 312.430033 
L 388.796637 311.862133 
M 409.577906 297.267107 
L 409.816771 299.112782 
L 410.055637 298.914017 
L 410.294502 299.169572 
L 410.533367 300.433149 
L 410.772232 299.283152 
M 411.488827 298.899819 
L 411.727693 299.141177 
L 411.966558 299.638089 
L 412.205423 299.680682 
M 418.177052 309.931274 
L 418.415917 307.020787 
L 418.893647 307.901032 
M 422.476625 312.799168 
L 422.71549 311.76275 
M 433.942153 316.973231 
L 434.181018 317.115206 
L 434.658748 320.366433 
M 436.569669 321.45964 
L 436.808535 320.976925 
L 437.0474 321.019518 
M 458.545264 307.162762 
L 458.784129 306.112147 
M 459.500725 304.309065 
L 459.73959 303.93993 
M 465.711219 309.022634 
L 465.950084 308.468931 
L 466.18895 308.852264 
M 475.504691 310.768926 
L 475.743556 311.734355 
L 475.982421 312.231268 
L 476.221286 313.12571 
L 476.460151 315.141754 
L 476.937882 314.730027 
L 477.176747 315.042372 
L 477.654477 316.234962 
L 477.893342 317.427551 
L 478.132208 317.498539 
L 478.371073 319.642361 
L 478.609938 317.413354 
L 478.848803 317.981254 
L 479.087668 318.094834 
L 479.326533 319.117053 
M 480.759724 323.418895 
L 480.99859 325.505926 
M 495.091634 313.80719 
L 495.330499 316.007802 
M 502.974184 317.668909 
L 503.21305 320.72137 
L 503.451915 320.181865 
M 513.245386 317.754094 
L 513.484252 317.924464 
L 513.961982 320.338038 
L 514.200847 320.139273 
M 514.917442 321.260875 
L 515.156308 320.820753 
M 541.431475 313.63682 
L 541.670341 314.786817 
M 542.386936 315.184347 
L 543.103532 319.315818 
M 554.807924 332.420107 
L 555.04679 331.908997 
L 555.285655 332.349119 
L 555.52452 332.306527 
L 556.00225 333.172574 
L 556.718846 333.783066 
L 556.957711 334.677509 
L 557.435441 333.953436 
L 557.674306 334.308374 
L 557.913172 335.628741 
L 558.152037 336.281826 
L 558.390902 335.926888 
L 558.629767 336.764541 
L 558.868632 336.963306 
L 559.107497 337.488613 
L 559.346363 338.936757 
L 559.585228 338.01392 
L 560.301823 342.528724 
L 560.540688 342.812674 
L 561.018419 341.023789 
M 570.33416 343.891683 
L 570.573025 344.530571 
L 570.81189 343.948473 
L 571.050755 344.743533 
L 571.767351 344.928101 
L 572.006216 347.48365 
L 572.245081 347.228095 
L 572.483946 347.88118 
L 572.722812 347.497847 
L 572.961677 347.952167 
L 573.200542 347.583032 
L 573.439407 346.702788 
L 573.678272 347.31328 
M 580.366497 350.436729 
L 580.605362 350.436729 
L 580.844227 351.033024 
L 581.321957 350.848456 
M 585.1438 350.891049 
L 585.382665 350.848456 
L 585.62153 351.118209 
L 585.860396 352.154626 
M 600.43117 348.889202 
L 600.670036 348.39229 
L 600.908901 349.300929 
L 601.386631 349.130559 
L 601.625496 350.039199 
L 601.864361 350.110187 
L 602.103227 349.386114 
L 602.580957 351.771294 
M 621.69017 349.357719 
L 621.929035 349.457102 
M 637.933001 355.434248 
L 638.171866 355.36326 
L 638.410731 357.223132 
L 638.649596 357.450292 
L 638.888461 357.095355 
L 639.127327 357.975599 
L 639.366192 359.423744 
L 639.605057 359.508929 
L 639.843922 359.366954 
L 640.082787 358.983622 
M 647.965338 359.310164 
L 648.443068 361.312011 
L 648.681933 360.971271 
L 648.920798 361.212628 
L 649.159663 361.993491 
L 649.398529 361.865713 
L 649.637394 361.979293 
L 649.876259 361.553368 
L 650.115124 362.007688 
L 650.353989 361.397196 
L 650.592854 362.532995 
L 651.070585 361.581763 
L 651.070585 361.581763 
" clip-path="url(#p1199ed65e1)" style="fill: none; stroke: #00ff7f"/>
   </g>
   <g id="line2d_24">
    <path d="M 101.680713 137.062565 
L 101.919578 143.32366 
L 102.397308 132.093441 
L 102.636173 137.914414 
M 114.101701 80.925666 
L 114.340566 82.757143 
L 114.579432 87.087379 
L 114.818297 87.456514 
L 115.057162 93.930572 
M 121.267656 83.140476 
L 121.506521 76.041728 
L 121.984252 78.540487 
M 125.806094 49.520806 
L 126.044959 53.836844 
L 126.283824 46.652911 
M 126.761555 48.541178 
L 127.00042 51.508455 
L 127.239285 49.83315 
M 180.028486 163.995214 
L 180.267351 166.025456 
L 180.506216 163.881634 
L 180.745081 163.114969 
L 180.983946 161.141518 
L 181.222812 167.019281 
M 200.093159 166.593356 
L 200.332025 170.284705 
M 237.356125 261.390035 
L 237.59499 257.869056 
M 238.07272 262.7246 
L 238.55045 247.24933 
M 239.028181 237.60923 
L 239.267046 235.820345 
M 239.744776 240.562309 
L 239.983641 237.453057 
M 241.177967 243.046871 
L 241.416832 243.004278 
M 264.347888 256.690664 
L 264.586753 255.654247 
L 264.825618 255.46968 
L 265.064483 255.611655 
L 265.542214 253.836968 
L 265.781079 254.39067 
L 266.019944 251.849318 
L 266.258809 252.544995 
L 266.497674 252.658575 
L 266.73654 253.36845 
M 272.947034 268.190636 
L 273.185899 267.920883 
L 273.424764 268.531376 
L 273.663629 270.632605 
M 274.857955 268.219031 
L 275.335685 264.31472 
L 275.57455 262.227688 
L 275.813416 263.036945 
M 284.412561 257.783871 
L 284.651427 260.481396 
L 284.890292 260.736951 
L 285.129157 261.347443 
M 286.562348 263.988177 
L 286.801213 263.434475 
L 287.040078 257.428934 
L 287.278943 255.994987 
L 287.517809 256.349924 
M 288.951 253.70919 
L 289.189865 254.319682 
L 289.42873 254.475855 
L 289.667595 254.035733 
L 289.90646 249.236979 
L 290.145325 249.364756 
L 290.384191 249.151794 
M 316.659358 278.057895 
L 316.898223 277.177651 
L 317.137089 280.329495 
M 320.481201 267.537551 
L 321.197796 259.487571 
L 321.436662 259.714731 
L 322.630987 252.502403 
L 322.869853 252.956723 
L 323.347583 251.962898 
L 323.586448 252.232651 
L 323.825313 249.634509 
L 324.064178 249.833274 
L 324.303043 250.457964 
L 324.541909 251.465986 
M 340.307009 274.735681 
L 340.545874 274.309757 
L 340.78474 272.833217 
L 341.023605 272.833217 
L 341.26247 273.230747 
M 358.221896 279.520238 
L 358.460762 277.078268 
L 358.699627 277.106663 
L 358.938492 277.958513 
L 359.177357 280.159125 
L 359.416222 279.719002 
L 359.655087 278.781968 
L 359.893953 278.498018 
L 360.132818 277.901723 
L 360.371683 279.136905 
L 360.610548 276.694936 
L 360.849413 277.560983 
M 362.521469 266.827676 
L 362.760335 266.188789 
L 362.9992 263.832005 
L 363.238065 263.036945 
M 363.715795 264.002375 
L 363.95466 263.448672 
L 364.193525 263.448672 
L 364.432391 266.515331 
M 404.561738 295.421433 
L 405.039468 296.614022 
L 405.278333 294.328226 
L 405.517198 294.569583 
M 406.233794 293.334401 
L 406.472659 293.632548 
L 406.711524 293.419586 
L 406.950389 293.419586 
L 407.189255 294.271436 
L 407.42812 294.086868 
M 428.925984 310.186828 
L 429.164849 310.073248 
M 430.59804 309.732509 
L 430.836906 309.476954 
L 431.075771 308.696091 
L 431.314636 307.049182 
M 439.913782 316.163974 
L 440.152647 314.218917 
L 440.391512 314.573855 
L 440.630377 314.26151 
M 446.840871 307.602884 
L 447.079737 306.254122 
L 447.318602 306.992392 
L 447.557467 306.822022 
L 447.796332 306.822022 
L 448.035197 305.941777 
L 448.274062 306.339307 
L 448.512928 305.53005 
L 448.751793 306.254122 
L 448.990658 305.771407 
L 449.229523 305.785605 
L 449.468388 305.033137 
M 450.184984 299.836854 
L 450.423849 299.751669 
L 450.662714 299.496114 
L 450.901579 299.652287 
L 451.140444 300.546729 
L 451.618175 299.638089 
L 451.85704 299.496114 
L 452.095905 300.603519 
L 452.33477 299.070189 
L 452.573635 299.141177 
L 452.8125 298.658462 
L 453.290231 298.715252 
M 487.925679 306.396097 
L 488.164544 306.012765 
L 488.40341 306.992392 
L 488.88114 307.389922 
M 531.638004 309.178806 
L 531.876869 310.101643 
M 595.415002 345.126866 
L 595.653867 344.771928 
M 605.686204 346.958343 
L 605.925069 346.092295 
L 606.163934 346.433035 
L 606.402799 344.984891 
M 615.479676 341.762059 
L 615.718541 342.713291 
M 646.054416 354.142275 
" clip-path="url(#p1199ed65e1)" style="fill: none; stroke: #ff4500"/>
   </g>
   <g id="line2d_25">
    <path d="M 86.154477 141.563171 
L 86.393342 137.942809 
L 86.632208 137.587872 
L 86.871073 139.887866 
L 87.348803 130.049002 
L 87.587668 130.162582 
L 87.826533 116.007678 
L 88.065399 119.62804 
L 88.304264 120.962604 
L 88.781994 115.439779 
L 89.020859 108.184858 
L 89.259724 109.746583 
M 89.737455 120.153347 
L 89.97632 122.382354 
L 90.215185 128.47308 
L 90.45405 129.537892 
L 90.692915 138.382932 
L 90.931781 128.955795 
L 91.409511 135.600223 
L 91.648376 138.070587 
M 93.320432 138.950832 
L 93.559297 137.843427 
L 94.275893 147.497724 
L 94.514758 151.742775 
L 94.753623 152.864377 
L 94.992488 156.186591 
L 95.231353 156.598319 
M 95.947949 157.648934 
L 96.186814 157.734119 
L 96.425679 161.29769 
M 97.85887 153.971782 
L 98.097735 155.931037 
L 98.336601 165.173606 
L 98.575466 169.049523 
L 98.814331 170.781617 
L 99.053196 170.65384 
L 99.292061 171.874824 
L 99.530926 161.368677 
L 99.769791 162.88781 
L 100.008657 158.174241 
L 100.247522 150.976111 
L 100.486387 139.689101 
L 100.725252 142.287243 
M 101.202982 136.153925 
L 101.441848 138.027994 
M 102.875039 147.824266 
L 103.113904 153.403882 
L 103.352769 151.08969 
L 103.591634 153.3045 
L 103.830499 148.803894 
L 104.069364 154.539682 
L 104.30823 140.044039 
L 104.547095 139.050214 
L 104.78596 140.086631 
L 105.024825 143.352055 
L 105.26369 148.931671 
L 105.741421 137.14775 
L 105.980286 142.514403 
L 106.219151 137.360712 
M 106.696881 129.253942 
L 106.935746 127.11012 
L 107.174612 134.790965 
L 107.413477 124.270621 
L 107.652342 132.178626 
L 107.891207 132.150231 
L 108.130072 131.028629 
L 108.368937 135.742198 
L 108.607802 124.426793 
L 108.846668 119.159522 
L 109.324398 133.669363 
L 109.563263 129.750854 
L 109.802128 123.745314 
L 110.040993 125.690371 
L 110.279859 125.051483 
L 110.518724 122.112602 
L 110.757589 127.819995 
L 110.996454 130.645297 
L 111.235319 124.653953 
L 111.474184 125.718765 
L 111.71305 128.160735 
L 111.951915 128.458882 
L 112.429645 103.783634 
L 112.66851 112.003985 
L 112.907375 113.224969 
L 113.146241 104.351534 
L 113.385106 101.866973 
M 115.296027 100.035496 
L 115.773757 94.825015 
L 116.012622 98.544759 
L 116.251488 99.964508 
L 116.729218 94.257115 
L 116.968083 90.878111 
L 117.206948 101.043518 
M 118.401274 110.853987 
L 118.640139 99.354016 
L 118.879004 97.792291 
L 119.11787 93.220698 
L 119.356735 91.673171 
L 119.5956 94.725632 
L 119.834465 94.782422 
L 120.07333 92.666995 
L 120.312195 83.779363 
L 120.551061 86.476887 
L 120.789926 93.2065 
L 121.028791 90.296013 
M 122.223117 81.891096 
L 122.461982 94.754027 
L 123.178577 85.639235 
L 123.417442 96.045999 
L 123.656308 97.593526 
L 123.895173 82.302823 
L 124.372903 69.951002 
L 124.611768 59.58683 
L 124.850633 59.558435 
L 125.089499 61.29053 
L 125.328364 63.860276 
L 125.567229 59.033128 
M 127.47815 54.873261 
L 127.717015 55.327581 
L 127.955881 60.452877 
L 128.194746 61.00658 
L 128.433611 64.868298 
L 128.672476 66.799158 
L 128.911341 63.292376 
L 129.389072 49.875743 
L 129.627937 57.088071 
L 130.105667 44.423905 
L 130.344532 49.009696 
L 130.583397 51.011543 
L 130.822263 50.770185 
L 131.061128 58.90535 
L 131.299993 62.440527 
L 131.538858 60.026952 
L 131.777723 67.196688 
L 132.016588 68.2615 
L 132.255453 62.596699 
L 132.494319 63.860276 
L 132.733184 56.846713 
L 132.972049 57.868933 
L 133.210914 57.244243 
L 133.688644 64.300399 
L 134.166375 67.991748 
M 135.121835 85.355285 
L 135.360701 83.424426 
M 137.749352 87.456514 
L 137.988217 86.391702 
L 138.227083 90.721938 
L 138.465948 92.6386 
L 138.704813 96.060197 
M 142.765521 116.476196 
L 143.004386 120.394705 
L 143.243251 120.238532 
L 143.482116 118.94656 
L 143.720981 122.666304 
L 143.959846 124.086053 
L 144.198712 118.747795 
L 144.437577 119.528657 
L 144.676442 123.603339 
L 144.915307 125.647778 
L 145.154172 122.978649 
L 145.631903 127.294688 
L 146.348498 123.078031 
L 146.587363 122.836674 
L 146.826228 126.698393 
L 147.065094 126.045308 
L 147.542824 123.191611 
L 147.781689 123.546549 
L 148.020554 122.794081 
L 148.259419 126.755183 
L 148.73715 119.91199 
L 148.976015 127.890982 
L 149.21488 131.951466 
M 149.69261 140.824901 
L 149.931475 145.041557 
L 150.170341 142.92613 
L 150.409206 139.348361 
L 150.648071 146.148962 
L 150.886936 148.619326 
L 151.125801 145.53847 
L 151.364666 144.8002 
L 151.603532 145.907605 
L 151.842397 140.157619 
L 152.081262 144.40267 
L 152.558992 140.626136 
L 152.797857 142.372428 
L 153.036723 140.782309 
L 153.514453 130.375544 
L 153.753318 136.153925 
L 154.231048 139.930459 
L 154.469914 141.648356 
L 154.708779 137.048367 
L 154.947644 137.602069 
L 155.186509 141.875516 
L 155.664239 137.857624 
L 155.903104 138.198364 
L 156.14197 141.790331 
L 156.380835 137.417502 
L 156.6197 139.021819 
L 156.858565 137.658859 
L 157.09743 137.502687 
L 157.336295 140.129224 
L 157.575161 139.802681 
L 158.052891 141.989096 
L 158.530621 144.147115 
L 158.769486 143.32366 
M 160.441543 144.615632 
L 160.680408 147.497724 
L 160.919273 144.91378 
L 161.158138 143.77798 
L 161.397003 145.410692 
L 161.635868 145.893407 
L 162.113599 144.672422 
L 162.352464 143.139093 
M 163.307924 141.477986 
L 163.54679 144.828595 
L 163.785655 142.258848 
L 164.02452 140.924284 
L 164.263385 144.74341 
L 164.741115 139.902064 
L 164.979981 133.115661 
M 165.457711 137.900217 
L 165.696576 123.986671 
M 166.174306 119.642237 
L 166.413172 123.134821 
L 166.652037 131.568134 
L 166.890902 131.142209 
L 167.129767 132.703933 
L 167.368632 136.892195 
L 167.607497 133.782943 
L 167.846363 137.161947 
L 168.085228 132.916896 
L 168.324093 132.718131 
L 168.562958 130.247767 
L 168.801823 129.722459 
L 169.040688 126.016913 
L 169.279554 127.635427 
L 169.518419 125.874938 
L 169.757284 119.8552 
L 170.235014 129.410114 
L 170.473879 131.965664 
L 170.712745 130.645297 
L 170.95161 133.683561 
L 171.190475 139.788484 
L 171.42934 140.555149 
L 171.668205 139.802681 
L 171.90707 140.469964 
L 172.145935 143.89156 
M 178.35643 185.078495 
L 178.83416 170.739025 
L 179.073025 163.455709 
L 179.31189 163.995214 
L 179.550755 164.037807 
L 179.789621 168.396438 
M 181.461677 169.85878 
L 182.178272 183.573561 
L 182.417137 178.632832 
L 182.656003 170.838407 
L 182.894868 177.411848 
L 183.133733 168.907548 
L 183.372598 168.339648 
L 183.611463 170.753222 
L 183.850328 170.838407 
L 184.089194 170.76742 
L 184.328059 173.081611 
L 184.566924 172.258157 
L 185.044654 174.401979 
L 185.283519 175.594568 
L 185.522385 179.3853 
L 186.23898 183.999486 
M 188.388766 181.813071 
L 188.627632 182.210601 
L 188.866497 183.814918 
L 189.105362 183.332203 
L 189.344227 183.814918 
L 189.583092 183.630351 
L 190.060823 191.453171 
L 190.299688 188.045772 
L 190.538553 188.17355 
L 190.777418 200.795123 
M 192.210609 194.29267 
L 192.449474 195.925382 
L 192.688339 195.627235 
L 192.927205 195.513655 
L 193.16607 197.345132 
L 193.404935 202.654995 
M 194.12153 188.556882 
L 194.360396 185.660593 
L 194.599261 189.451324 
L 194.838126 191.226011 
L 195.076991 191.197616 
L 195.554721 197.657477 
L 195.793586 176.261851 
L 196.032452 175.225433 
L 196.271317 176.687775 
L 196.987912 191.055641 
L 197.226777 187.293305 
L 197.465643 186.342073 
L 198.182238 171.122357 
L 198.421103 172.385934 
L 198.659968 167.771748 
M 199.137699 166.877306 
L 199.376564 163.228549 
L 199.615429 165.429161 
L 199.854294 169.035325 
M 200.57089 169.57483 
L 201.04862 176.332838 
L 201.287485 181.273567 
L 201.52635 176.233456 
L 201.765216 179.143942 
L 202.004081 178.178512 
L 202.242946 180.038384 
M 204.153867 188.216142 
L 204.631597 178.831597 
L 204.870463 175.537778 
L 205.587058 190.729099 
L 205.825923 189.025399 
L 206.064788 197.245749 
L 206.303654 193.483413 
L 206.542519 186.200098 
L 206.781384 173.464944 
L 207.259114 181.699491 
L 207.736845 179.399497 
L 207.97571 173.606919 
L 208.214575 179.953199 
L 208.45344 180.364927 
L 208.93117 190.374161 
L 209.408901 191.325394 
L 209.647766 190.615519 
L 209.886631 196.3939 
M 210.364361 193.142673 
L 210.603227 197.061182 
M 218.724642 224.874076 
L 218.963507 224.249386 
L 219.202372 225.512963 
L 219.441237 224.490744 
L 219.680103 222.929019 
L 220.157833 234.173436 
M 220.874428 230.808629 
L 221.113294 231.561097 
L 221.352159 229.800607 
L 221.591024 229.573447 
L 221.829889 232.824674 
L 222.068754 226.918516 
L 222.307619 228.1395 
L 222.546485 231.916034 
L 222.78535 230.453692 
L 223.024215 233.619734 
L 223.26308 233.775906 
L 223.501945 240.051199 
L 223.979676 244.23946 
M 230.429035 274.863459 
L 230.6679 280.35789 
L 230.906765 280.201717 
L 231.14563 281.564677 
L 231.623361 289.48688 
M 232.101091 297.8776 
L 232.339956 301.341789 
L 232.578821 293.348598 
L 232.817687 289.572065 
L 233.056552 292.028231 
L 233.295417 290.423914 
L 233.534282 296.656615 
M 234.967473 310.754728 
L 235.206338 312.458428 
L 235.445203 278.526413 
L 235.684068 287.854168 
L 235.922934 274.749879 
L 236.161799 267.835698 
L 236.400664 281.749244 
L 236.639529 266.004222 
L 236.878394 262.866575 
L 237.117259 254.67462 
M 240.222507 238.375895 
L 240.461372 238.00676 
M 241.655698 242.124034 
L 242.133428 249.151794 
M 242.611158 245.54563 
L 243.088888 243.515388 
L 243.327754 245.48884 
L 243.566619 244.821558 
L 243.805484 241.300579 
L 244.283214 243.827733 
L 244.522079 241.797491 
L 244.760945 246.184517 
L 244.99981 245.82958 
L 245.238675 245.048718 
L 245.47754 243.657363 
L 245.716405 243.728351 
L 245.95527 242.237614 
L 246.194136 242.975883 
L 246.433001 245.673408 
L 246.671866 244.651188 
L 246.910731 245.716 
L 247.149596 244.495015 
L 247.388461 245.48884 
L 247.866192 244.821558 
L 248.105057 245.531433 
L 248.343922 245.474643 
L 248.582787 245.730198 
L 248.821652 245.531433 
L 249.060518 244.849953 
L 249.299383 246.127727 
L 249.538248 246.11353 
L 249.777113 245.03452 
L 250.015978 247.277725 
L 250.254843 247.703649 
M 252.165765 250.827098 
L 252.643495 247.334515 
L 253.121225 249.407349 
L 253.36009 247.703649 
L 253.598956 249.378954 
L 253.837821 248.228957 
L 254.076686 254.518447 
L 254.315551 252.218453 
L 254.554416 251.508578 
L 254.793281 252.899933 
L 255.032147 255.29931 
L 255.271012 253.212278 
L 255.509877 253.02771 
L 255.748742 253.666598 
L 255.987607 255.654247 
L 256.226472 255.554865 
L 256.465338 256.222147 
L 256.943068 255.157335 
M 257.898529 257.017207 
L 258.137394 257.102392 
L 258.376259 258.110414 
L 258.615124 257.201774 
L 258.853989 255.838815 
L 259.092854 256.577084 
L 259.331719 255.313507 
L 259.80945 256.037579 
L 260.048315 255.909802 
L 260.28718 258.394364 
L 260.526045 258.195599 
L 261.003776 264.598669 
M 261.481506 261.858553 
L 261.959236 264.499287 
M 262.436967 260.027076 
L 262.675832 259.402386 
L 262.914697 259.998681 
L 263.153562 258.323376 
L 263.392427 258.280784 
L 263.631292 259.317201 
L 264.109023 257.982636 
M 266.975405 256.619677 
L 267.21427 257.670291 
L 267.453135 256.222147 
L 267.692 255.668445 
L 267.930865 261.92954 
M 268.886326 261.957935 
L 269.125191 262.185095 
M 271.274978 272.875809 
L 271.513843 275.843086 
L 271.752708 276.496171 
L 271.991573 277.745551 
L 272.230438 274.636299 
L 272.469303 274.267164 
L 272.708169 271.555442 
M 273.902494 269.567793 
L 274.14136 269.851743 
L 274.61909 269.993718 
M 276.052281 266.628911 
L 276.291146 269.170263 
L 276.530011 266.643109 
L 276.768876 266.927059 
L 277.007741 267.551749 
L 277.246607 269.070881 
L 277.724337 270.419643 
L 278.202067 274.451732 
L 278.440932 274.622101 
M 279.396393 271.498652 
L 279.635258 275.346174 
M 280.112989 273.429512 
L 280.351854 274.068399 
L 280.590719 275.502346 
M 281.068449 278.725178 
L 281.307314 278.781968 
L 281.54618 278.14308 
L 281.785045 278.88135 
L 282.02391 278.867153 
L 282.262775 278.043698 
M 283.695966 280.116532 
L 283.934831 280.92579 
L 284.173696 276.467776 
M 285.368022 262.7246 
L 285.845752 266.927059 
M 287.756674 258.351771 
L 287.995539 254.887582 
L 288.234404 256.193752 
L 288.473269 255.824617 
L 288.712134 254.234497 
M 290.623056 250.457964 
L 291.339651 254.887582 
L 291.578516 251.125246 
L 291.817381 252.275243 
L 292.772842 260.864728 
L 293.011707 260.098063 
M 297.072415 270.220878 
L 297.31128 269.269646 
L 297.550145 269.014091 
L 298.027876 266.316566 
L 298.266741 262.7246 
L 298.505606 266.401751 
L 298.744471 266.430146 
L 298.983336 264.641262 
L 299.222201 265.706074 
L 299.461067 265.507309 
L 299.938797 267.523354 
L 300.177662 271.39927 
L 300.416527 271.470257 
L 300.894258 277.97271 
L 301.133123 277.560983 
M 304.477235 280.670235 
L 304.7161 284.830101 
L 304.954965 282.118379 
L 305.193831 280.769617 
L 305.432696 277.930118 
L 305.671561 277.376416 
L 305.910426 279.250485 
L 306.388156 276.907898 
L 307.104752 286.079481 
L 307.343617 284.517756 
L 307.582482 284.389979 
L 307.821347 285.085656 
L 308.060212 285.099853 
L 308.299078 286.264048 
M 309.254538 287.27207 
L 309.493403 285.667753 
L 309.732269 287.1017 
L 309.971134 282.970229 
L 310.209999 281.649862 
L 310.687729 288.478857 
L 311.16546 288.592437 
L 311.404325 286.391825 
L 311.64319 287.27207 
L 311.882055 281.649862 
L 312.12092 281.536282 
L 312.359785 283.197389 
L 312.598651 282.501712 
L 313.315246 290.849839 
L 313.554111 290.054779 
L 313.792976 293.164031 
L 314.031842 285.823926 
L 314.270707 283.126401 
L 314.509572 282.515909 
L 314.987302 279.804187 
L 315.226167 279.719002 
L 315.465032 278.057895 
L 315.703898 274.295559 
L 315.942763 272.691242 
L 316.181628 277.078268 
L 316.420493 277.702958 
M 317.375954 281.010975 
L 317.614819 283.680104 
L 317.853684 282.373934 
L 318.092549 276.453578 
L 318.331414 278.469623 
L 318.57028 276.212221 
L 318.809145 275.828889 
L 319.04801 274.125189 
L 319.286875 273.954819 
L 319.52574 270.078903 
M 320.003471 266.912861 
L 320.242336 265.933234 
M 324.780774 254.035733 
L 325.019639 253.82277 
L 325.258504 255.441285 
L 325.497369 253.183883 
L 325.736234 253.411043 
L 325.9751 255.952394 
L 326.213965 259.927693 
M 332.424459 276.439381 
L 332.663324 274.480126 
L 332.902189 274.565311 
L 333.141054 276.382591 
L 333.618785 274.934446 
L 334.096515 271.896182 
L 334.33538 272.606057 
L 334.574245 271.56964 
L 334.813111 272.052355 
L 335.290841 274.068399 
L 335.529706 274.139387 
L 335.768571 275.956666 
L 336.246302 274.948644 
L 336.485167 277.85913 
L 336.962897 279.90357 
M 338.396088 277.617773 
L 338.634953 278.015303 
L 339.112683 274.877656 
L 339.351549 275.757901 
L 339.590414 276.155431 
L 340.068144 274.707286 
M 341.501335 274.579509 
L 341.979065 277.092466 
L 342.217931 276.964688 
L 342.456796 279.463448 
M 342.934526 277.206046 
L 343.173391 279.534435 
L 343.412256 278.242463 
L 343.651122 278.526413 
L 343.889987 281.081962 
M 347.472964 296.315875 
L 347.950694 298.488092 
L 348.18956 296.259085 
L 348.428425 297.281305 
L 348.66729 299.836854 
L 349.14502 295.762173 
L 349.383885 296.79859 
L 349.861616 292.837489 
L 350.100481 293.192426 
L 350.339346 293.334401 
L 350.578211 293.093043 
L 350.817076 291.943046 
L 351.055942 292.496749 
L 351.294807 291.801071 
L 351.533672 294.498596 
L 351.772537 290.239347 
M 352.250267 290.494902 
L 352.489133 294.200448 
L 352.727998 295.421433 
L 352.966863 290.935024 
L 353.205728 293.589956 
L 353.444593 293.476376 
L 353.683458 288.734412 
L 353.922324 296.585627 
L 354.400054 291.644899 
L 354.638919 293.802918 
L 354.877784 293.717733 
L 355.116649 291.999836 
L 355.355514 294.072671 
L 355.59438 292.880081 
L 355.833245 293.220821 
L 356.07211 291.034407 
L 356.310975 291.602306 
L 356.54984 293.192426 
L 356.788705 293.263413 
L 357.027571 291.829466 
L 357.505301 294.356621 
L 357.983031 288.322685 
M 361.566009 273.230747 
L 361.804874 276.978886 
L 362.282604 268.062858 
M 364.671256 271.612232 
L 364.910121 271.157912 
L 365.148986 272.165935 
L 365.387851 272.322107 
M 371.598345 292.979464 
L 371.837211 290.523297 
L 372.076076 295.932543 
L 372.314941 297.153527 
L 372.553806 297.25291 
L 373.031536 302.179441 
L 373.270402 303.017093 
L 373.509267 302.562773 
L 373.986997 299.865249 
L 374.464727 302.690551 
L 374.703593 304.252275 
M 376.136784 305.30289 
L 376.375649 305.615235 
L 376.614514 304.891163 
L 376.853379 306.694244 
L 377.092244 302.051663 
L 377.331109 302.009071 
L 377.569975 302.775736 
L 378.047705 299.765867 
L 378.28657 300.532531 
L 378.525435 300.291174 
L 378.7643 301.355986 
L 379.003165 301.881293 
L 379.242031 300.135001 
L 379.480896 300.873271 
L 379.719761 300.362161 
L 379.958626 300.234384 
M 380.436356 299.709077 
L 380.675222 300.220186 
L 380.914087 300.376359 
L 381.152952 299.467719 
L 381.391817 299.297349 
L 381.630682 298.729449 
L 381.869547 299.865249 
L 382.108413 300.021421 
L 382.347278 300.816481 
L 382.825008 302.718946 
L 383.063873 303.031291 
L 383.302738 302.946106 
M 385.69139 303.840548 
L 385.930255 305.487457 
L 386.16912 303.982523 
L 386.407986 305.231902 
L 386.646851 305.53005 
L 387.124581 309.533744 
M 389.035502 307.872637 
L 389.274367 310.669543 
M 389.752098 310.286211 
L 389.990963 308.539919 
L 390.229828 310.030656 
L 390.468693 305.175112 
L 390.946424 306.183135 
L 391.185289 304.294868 
L 391.424154 305.899185 
L 391.663019 304.323263 
L 391.901884 304.252275 
L 392.140749 304.90536 
L 392.61848 305.01894 
L 392.857345 305.629432 
L 393.09621 306.935602 
L 393.335075 306.197332 
L 393.57394 307.645477 
L 393.812806 308.057204 
L 394.051671 310.016458 
L 394.290536 310.683741 
M 394.768266 306.43869 
L 395.007131 307.673872 
L 395.245996 307.006589 
L 395.484862 307.531897 
L 395.723727 306.878812 
L 395.962592 307.304737 
L 396.201457 307.262144 
L 396.440322 306.310912 
L 396.679187 305.98437 
L 396.918053 306.779429 
L 397.395783 304.408448 
L 397.873513 306.765232 
L 398.112378 306.168937 
L 398.351244 307.148564 
L 398.590109 306.623257 
L 398.828974 307.517699 
L 399.067839 304.294868 
L 399.306704 303.159068 
L 399.545569 301.284999 
L 399.784435 300.404754 
L 400.0233 302.222033 
L 400.262165 301.384381 
L 400.50103 301.143024 
L 400.97876 303.31524 
L 401.217626 303.854745 
L 401.456491 305.288692 
L 401.695356 305.07573 
L 402.411951 301.625738 
L 402.650817 301.327591 
L 402.889682 303.684375 
L 403.128547 302.775736 
L 403.367412 300.646111 
L 403.606277 300.049816 
L 403.845142 302.151046 
L 404.322873 296.188098 
M 405.756064 295.09489 
L 405.994929 295.26526 
M 407.666985 294.299831 
L 407.90585 295.691185 
L 408.38358 294.456003 
L 408.622446 294.512793 
L 408.861311 295.535013 
L 409.100176 296.017728 
L 409.339041 297.011552 
M 411.011097 298.516487 
L 411.249962 298.502289 
M 412.444288 299.041794 
L 412.922018 298.672659 
L 413.160884 298.800437 
L 413.399749 298.530684 
L 413.638614 299.723274 
L 413.877479 298.800437 
L 414.116344 298.459697 
L 414.355209 298.601672 
L 414.594075 299.212164 
L 414.83294 298.601672 
L 415.071805 296.926367 
L 415.31067 297.36649 
L 415.549535 297.295502 
L 415.7884 299.183769 
L 416.027266 299.694879 
L 416.266131 299.694879 
L 416.504996 300.276976 
L 416.743861 300.049816 
L 416.982726 300.745494 
L 417.221591 300.489939 
L 417.460457 299.552904 
L 417.699322 301.370184 
L 417.938187 299.879446 
M 419.132513 306.481282 
L 419.371378 305.842395 
L 419.849108 307.162762 
L 420.087973 306.32511 
L 420.326838 308.014612 
L 420.565704 310.598556 
M 421.998895 311.464603 
L 422.23776 313.367067 
M 422.954355 311.067073 
L 423.19322 311.521393 
M 423.670951 311.791145 
L 423.909816 310.456581 
L 424.387546 313.63682 
L 424.865277 314.176325 
L 425.104142 312.756575 
L 425.343007 313.083118 
L 425.820737 314.346695 
L 426.059602 314.417682 
L 426.537333 314.786817 
L 426.776198 314.616447 
L 427.015063 313.565832 
M 427.492793 314.54546 
L 427.970524 313.906572 
L 428.209389 312.969538 
L 428.448254 312.870155 
L 428.687119 311.862133 
M 429.403715 311.98991 
L 429.64258 311.93312 
L 429.881445 310.925098 
L 430.12031 311.081271 
L 430.359175 309.533744 
M 431.553501 312.642995 
L 431.792366 312.359045 
L 432.031231 312.855958 
L 432.270097 314.71583 
L 432.508962 315.354717 
L 432.747827 315.127557 
L 432.986692 314.43188 
L 433.225557 312.997933 
L 433.464422 313.622622 
L 433.703288 313.878177 
M 434.897613 317.484341 
L 435.136478 316.121382 
L 435.614209 316.902244 
L 436.091939 320.66458 
L 436.330804 320.068286 
M 437.286265 322.339885 
L 437.52513 320.89174 
L 437.763995 320.352235 
L 438.241726 319.869521 
L 438.480591 318.307796 
L 438.719456 314.744225 
L 438.958321 315.212742 
L 439.197186 316.291752 
L 439.436051 316.717677 
L 439.674917 315.794839 
M 440.869242 316.007802 
L 441.108108 314.758422 
L 441.346973 314.289905 
M 441.824703 312.941143 
L 442.063568 312.302255 
L 442.302433 313.026328 
L 442.541299 312.997933 
L 443.257894 314.005955 
L 443.496759 314.985582 
L 443.735624 312.799168 
L 443.974489 313.1825 
L 444.213355 313.225093 
L 444.45222 314.190522 
L 444.691085 314.275707 
L 444.92995 314.786817 
L 445.168815 314.275707 
L 445.40768 314.54546 
L 445.646546 314.60225 
L 445.885411 312.586205 
L 446.124276 313.622622 
L 446.602006 308.412141 
M 449.707253 307.006589 
L 449.946119 306.367702 
M 453.529096 300.859074 
L 453.767961 300.433149 
L 454.006826 300.532531 
L 454.484557 301.725121 
L 454.723422 300.220186 
L 454.962287 299.922039 
L 455.201152 299.212164 
L 455.440017 299.567102 
L 455.678882 298.914017 
L 455.917748 299.595497 
L 456.156613 297.76402 
L 456.395478 297.962785 
L 456.634343 298.615869 
L 456.873208 301.256604 
L 457.112073 301.810306 
L 457.350939 302.761538 
L 457.589804 302.505983 
L 457.828669 303.116476 
L 458.067534 305.118322 
L 458.306399 304.73499 
M 459.022995 303.968325 
L 459.26186 304.28067 
M 459.978455 304.181288 
L 460.21732 304.536225 
L 460.695051 307.503502 
L 461.172781 304.33746 
L 461.889377 302.591168 
L 462.128242 304.138695 
L 462.367107 301.923886 
L 462.605972 300.859074 
L 462.844837 301.554751 
L 463.083702 301.753516 
L 463.322568 301.441171 
L 463.800298 302.023268 
M 464.278028 303.5424 
L 464.516893 302.193638 
L 464.755759 302.136848 
L 464.994624 303.925733 
L 465.233489 307.517699 
L 465.472354 306.197332 
M 466.427815 306.21153 
L 466.66668 307.844242 
L 467.14441 308.838066 
L 467.383275 307.858439 
L 467.62214 308.028809 
L 467.861006 307.418317 
L 468.099871 307.588687 
L 468.338736 308.483129 
L 468.577601 306.282517 
L 468.816466 307.162762 
L 469.294197 307.546094 
L 469.533062 307.858439 
L 469.771927 307.134367 
L 470.010792 307.034984 
L 470.249657 305.686222 
L 470.488522 305.75721 
L 470.727388 306.907207 
L 470.966253 306.680047 
L 471.443983 308.823869 
L 471.682848 308.994239 
L 471.921713 308.539919 
L 472.160579 307.489304 
L 472.399444 307.801649 
L 472.877174 306.907207 
L 473.116039 307.972019 
L 473.354904 307.588687 
L 473.59377 308.085599 
L 473.832635 309.051029 
L 474.0715 309.363374 
L 474.310365 309.349176 
L 474.54923 308.681894 
L 474.788095 308.724486 
L 475.02696 309.136214 
L 475.265826 310.428186 
M 479.565399 316.888046 
L 480.043129 319.372608 
L 480.281994 318.975078 
L 480.520859 319.784336 
M 481.237455 324.568892 
L 481.47632 324.441114 
L 481.715185 325.292964 
L 482.192915 319.031868 
L 482.431781 319.798533 
L 482.670646 313.480647 
L 482.909511 312.359045 
L 483.148376 313.778795 
L 483.387241 317.228786 
L 483.864971 316.135579 
L 484.103837 316.277554 
M 484.581567 317.101009 
L 484.820432 318.875696 
L 485.059297 316.902244 
L 485.298162 317.569526 
L 485.537028 316.263357 
L 485.775893 316.277554 
L 486.014758 311.492998 
L 486.253623 312.33065 
L 486.492488 314.8862 
L 486.731353 313.196698 
L 487.209084 308.412141 
L 487.447949 308.639301 
L 487.686814 307.560292 
M 489.120005 308.809671 
L 489.35887 309.193004 
L 489.597735 310.612753 
L 490.075466 307.432514 
L 490.314331 309.178806 
L 490.553196 308.113994 
L 490.792061 309.022634 
L 491.030926 307.375724 
L 491.269791 307.446712 
L 491.508657 305.955975 
L 491.747522 306.978194 
L 491.986387 306.538072 
L 492.225252 308.866461 
L 492.702982 306.012765 
L 492.941848 306.765232 
L 493.180713 305.714617 
L 493.419578 305.331285 
L 493.658443 305.64363 
L 494.136173 307.943624 
L 494.375039 311.322628 
L 494.613904 311.194851 
L 494.852769 312.089293 
M 495.569364 312.288058 
L 495.80823 313.12571 
L 496.047095 311.393616 
L 496.28596 313.267685 
L 496.524825 311.677565 
L 496.76369 311.052876 
L 497.002555 311.734355 
L 497.241421 310.527568 
L 497.480286 310.783123 
L 498.196881 310.428186 
L 498.435746 311.095468 
M 498.913477 311.095468 
L 499.152342 311.280036 
L 499.391207 312.27386 
L 499.630072 312.10349 
L 499.868937 311.265838 
L 500.107802 312.188675 
L 500.346668 312.373243 
L 500.585533 313.23929 
L 501.063263 310.726333 
L 501.302128 311.407813 
L 501.540993 311.634973 
L 501.779859 313.594227 
L 502.018724 314.446077 
L 502.257589 313.622622 
L 502.496454 315.809037 
L 502.735319 316.433727 
M 503.69078 317.995451 
L 503.929645 318.293599 
L 504.16851 317.938661 
M 505.123971 315.454099 
L 505.362836 316.036197 
L 505.601701 316.930639 
L 505.840566 318.762116 
L 506.079432 318.080636 
L 506.318297 319.074461 
L 506.557162 318.818906 
L 506.796027 317.115206 
L 507.034892 319.259028 
L 507.273757 317.413354 
L 507.512622 317.498539 
L 507.751488 319.330016 
L 507.990353 317.313971 
L 508.229218 318.336191 
L 508.468083 317.470144 
L 508.706948 317.910266 
L 508.945813 320.409025 
L 509.184679 318.534956 
L 509.662409 311.620776 
L 509.901274 309.931274 
L 510.140139 311.847935 
L 510.856735 314.417682 
L 511.0956 317.597921 
L 511.334465 316.959034 
L 511.57333 316.746071 
L 511.812195 316.802861 
L 512.051061 317.115206 
L 512.289926 316.220764 
L 512.767656 317.683106 
L 513.006521 317.044219 
M 514.439712 319.401003 
L 514.678577 319.770138 
M 515.395173 319.642361 
L 515.634038 318.648536 
L 516.350633 318.549153 
L 516.589499 319.188041 
L 517.067229 321.06211 
L 517.306094 319.869521 
L 517.544959 321.45964 
L 518.02269 320.054088 
L 518.261555 320.43742 
L 518.50042 319.642361 
L 518.97815 316.618294 
L 519.455881 315.283729 
L 519.933611 316.149777 
L 520.172476 315.922617 
L 520.650206 316.987429 
M 521.127937 317.512736 
L 521.366802 317.498539 
L 521.605667 317.313971 
L 521.844532 318.222611 
L 522.083397 318.009649 
L 522.322263 316.433727 
L 522.799993 315.212742 
L 523.038858 315.922617 
L 523.277723 315.936814 
L 523.516588 316.163974 
L 523.994319 315.113359 
L 524.233184 316.731874 
L 524.472049 316.788664 
L 524.710914 317.952859 
L 524.949779 318.265204 
L 525.188644 313.537437 
M 525.666375 311.748553 
L 525.90524 312.926945 
L 526.38297 310.925098 
L 526.621835 311.563986 
L 526.860701 311.507196 
L 527.099566 312.884353 
L 527.338431 315.042372 
L 527.577296 315.525087 
L 527.816161 314.360892 
L 528.055026 315.141754 
L 528.293892 317.754094 
L 528.771622 313.665215 
L 529.010487 313.52324 
L 529.249352 311.649171 
L 529.488217 311.351023 
L 529.727083 311.776948 
L 529.965948 311.535591 
L 530.204813 312.401638 
L 530.443678 312.515218 
L 530.682543 310.343001 
L 530.921408 311.294233 
L 531.160273 310.484976 
L 531.399139 310.726333 
M 532.115734 309.306584 
L 532.354599 310.300408 
L 532.593464 308.951646 
L 532.83233 309.263991 
L 533.071195 309.902879 
L 533.31006 309.902879 
L 533.548925 309.320781 
L 534.026655 312.075095 
L 534.504386 308.170784 
L 534.982116 308.710289 
L 535.220981 309.661521 
L 535.459846 309.718311 
L 535.698712 309.647324 
L 535.937577 308.412141 
L 536.176442 310.229421 
L 536.415307 309.122016 
L 536.654172 311.776948 
L 536.893037 311.791145 
L 537.131903 310.087446 
L 537.370768 311.152258 
L 537.609633 309.661521 
L 537.848498 310.428186 
L 538.087363 309.022634 
L 538.326228 308.909054 
L 538.565094 310.328803 
L 538.803959 310.314606 
L 539.281689 309.533744 
L 539.520554 310.839913 
L 539.759419 311.081271 
L 539.998284 312.884353 
L 540.23715 312.55781 
L 540.476015 312.628798 
L 540.71488 313.225093 
L 540.953745 313.026328 
L 541.19261 314.105337 
M 541.909206 313.438055 
L 542.148071 314.048547 
M 543.342397 316.234962 
L 543.581262 317.242984 
L 544.058992 315.510889 
L 544.297857 316.547307 
L 544.536723 316.774466 
L 544.775588 319.940508 
L 545.014453 321.076308 
L 545.253318 318.989276 
L 545.492183 321.317665 
L 545.731048 319.841126 
L 545.969914 319.173843 
L 546.208779 319.188041 
L 546.447644 318.506561 
L 546.686509 316.646689 
L 547.164239 321.488035 
L 547.403104 321.700998 
L 547.880835 317.839279 
L 548.1197 318.194216 
L 548.358565 318.165821 
L 548.59743 319.684953 
L 548.836295 319.670756 
L 549.075161 319.060263 
L 549.314026 319.202238 
L 549.552891 320.536803 
L 549.791756 320.934333 
L 550.030621 321.885565 
L 550.269486 324.341732 
L 550.508352 322.780007 
L 550.747217 323.418895 
L 550.986082 322.155317 
M 551.463812 322.041737 
L 551.702677 321.6868 
L 551.941543 323.433092 
L 552.658138 324.696669 
L 552.897003 325.846666 
L 553.135868 324.895434 
L 553.374734 326.272591 
L 553.613599 326.144814 
L 553.852464 325.165187 
L 554.091329 325.704691 
M 561.257284 339.277497 
L 561.496149 338.97935 
L 561.735014 338.368858 
L 561.973879 340.015767 
L 562.212745 339.419472 
L 562.45161 339.43367 
L 562.92934 340.839222 
L 563.40707 339.77441 
L 563.884801 340.17194 
L 564.123666 339.37688 
L 564.362531 340.100952 
L 564.601396 339.618237 
L 564.840261 338.723795 
L 565.079126 338.63861 
L 566.034587 340.313915 
L 566.273452 340.157742 
L 566.512317 339.71762 
L 566.751183 340.22873 
L 567.228913 338.6954 
L 567.945508 340.825024 
L 568.184374 340.966999 
L 569.139834 340.697247 
L 569.378699 340.938604 
L 569.617565 340.739839 
L 569.85643 341.222554 
L 570.095295 342.372551 
M 574.394868 347.37007 
L 574.872598 347.668217 
L 575.111463 347.966365 
L 575.350328 347.639822 
L 575.589194 348.363895 
L 575.828059 347.852785 
L 576.066924 348.065747 
L 576.305789 348.477475 
L 576.544654 348.16513 
L 576.783519 348.50587 
L 577.022385 347.568835 
L 577.26125 347.625625 
L 577.500115 347.071923 
L 577.73898 347.043528 
L 577.977845 347.1997 
L 578.21671 347.185502 
L 578.455576 347.384267 
L 578.694441 348.193525 
L 578.933306 348.50587 
L 579.172171 349.215744 
L 579.411036 349.485497 
L 579.649901 350.095989 
L 580.127632 350.351544 
M 581.560823 348.917597 
L 581.799688 347.952167 
L 582.038553 347.923772 
L 582.277418 347.696612 
L 582.755148 348.548462 
L 582.994014 348.477475 
L 583.232879 348.775622 
L 583.471744 348.67624 
L 583.710609 348.775622 
L 583.949474 349.201547 
M 584.427205 348.704635 
L 584.66607 348.945992 
L 584.904935 351.047221 
M 586.099261 351.387961 
L 586.576991 349.812039 
L 587.054721 351.600924 
L 587.293586 351.473146 
L 587.532452 351.075616 
L 588.010182 348.818215 
L 588.487912 350.337347 
L 588.726777 349.599077 
L 589.204508 349.670064 
L 589.443373 348.56266 
L 589.682238 349.897224 
L 589.921103 348.023155 
L 590.159968 349.244139 
L 590.398834 349.073769 
L 591.115429 349.300929 
L 591.354294 349.769447 
L 591.593159 349.087967 
L 591.832025 348.023155 
L 592.07089 349.173152 
L 592.309755 349.116362 
L 592.54862 346.74538 
L 592.787485 345.879333 
M 593.265216 345.339828 
L 593.504081 346.092295 
L 593.742946 346.0639 
L 593.981811 346.603405 
L 594.220676 346.617603 
L 594.459541 346.85896 
M 594.937272 345.595383 
L 595.176137 345.169458 
M 595.892732 345.268841 
L 596.370463 346.362048 
L 596.609328 345.410816 
L 596.848193 345.297236 
L 597.087058 344.544768 
M 598.042519 343.636129 
L 598.281384 344.260818 
L 598.520249 344.487978 
L 598.759114 343.366376 
L 598.997979 343.508351 
L 599.236845 347.213897 
L 599.47571 348.477475 
L 599.714575 348.704635 
L 599.95344 349.272534 
L 600.192305 349.442904 
M 602.819822 350.777469 
L 603.058687 349.797842 
L 603.297552 349.499694 
L 603.536417 350.252162 
L 604.014148 347.37007 
L 604.253013 347.611427 
L 604.491878 347.157108 
L 604.730743 347.725007 
L 604.969608 347.625625 
L 605.208474 347.923772 
L 605.447339 347.114515 
M 606.641665 346.305258 
L 607.35826 347.000935 
L 607.83599 345.325631 
L 608.074856 345.169458 
L 608.552586 346.191678 
L 608.791451 345.907728 
L 609.508047 347.412662 
L 609.746912 346.816368 
L 609.985777 346.91575 
L 610.224642 349.286732 
L 610.463507 348.605252 
L 610.702372 348.633647 
L 610.941237 348.945992 
L 611.180103 348.349697 
M 611.657833 347.71081 
L 611.896698 347.398465 
L 612.135563 349.343522 
L 612.374428 348.988584 
L 612.613294 349.499694 
L 612.852159 349.031177 
L 613.329889 347.526242 
L 613.568754 347.355872 
L 613.807619 347.725007 
L 614.046485 347.512045 
L 614.28535 347.08612 
L 614.524215 348.321302 
L 614.76308 343.905881 
L 615.001945 343.266994 
L 615.24081 342.017614 
M 615.957406 344.360201 
L 616.196271 345.808345 
L 616.435136 346.34785 
L 616.674001 345.850938 
L 616.912867 344.573163 
L 617.151732 344.275016 
L 617.629462 345.694765 
L 618.107192 344.317608 
L 618.346058 343.664524 
L 618.584923 344.374398 
L 618.823788 343.692919 
L 619.062653 343.905881 
L 619.540383 347.100318 
L 619.779248 347.341675 
L 620.018114 347.852785 
L 620.256979 345.921925 
L 620.495844 346.702788 
L 620.734709 346.731183 
L 620.973574 346.12069 
L 621.212439 346.23427 
L 621.451305 347.625625 
M 622.1679 348.420685 
L 622.406765 347.171305 
L 622.64563 347.469452 
L 622.884496 346.787973 
L 623.123361 347.100318 
L 623.362226 347.923772 
L 623.839956 347.526242 
L 624.078821 348.023155 
L 624.317687 347.31328 
L 624.556552 348.406487 
L 624.795417 347.59723 
L 625.034282 345.978715 
L 625.512012 349.002782 
L 625.989743 348.988584 
L 626.228608 348.804017 
L 626.467473 348.264512 
L 626.706338 348.576857 
L 626.945203 349.315127 
L 627.184068 350.777469 
L 627.422934 350.408334 
L 627.661799 350.252162 
L 627.900664 350.763271 
L 628.139529 350.465124 
M 628.617259 349.670064 
L 628.856125 350.209569 
L 629.09499 348.804017 
L 629.333855 348.818215 
L 629.57272 348.236117 
L 630.05045 352.935488 
L 630.289316 353.517586 
L 630.528181 353.105858 
L 630.767046 353.262031 
L 631.244776 350.025002 
L 631.483641 350.493519 
L 631.722507 350.663889 
L 631.961372 349.982409 
L 632.200237 352.623143 
L 632.677967 350.962036 
L 632.916832 351.643516 
L 633.155698 351.572529 
L 633.872293 353.844128 
L 634.111158 353.091661 
L 634.350023 352.864501 
L 634.827754 351.487344 
L 635.305484 352.665736 
L 635.783214 352.679933 
L 636.022079 353.347216 
L 636.260945 353.404006 
L 636.49981 353.290426 
L 636.738675 353.94351 
L 636.97754 353.915116 
L 637.216405 353.318821 
L 637.45527 353.758943 
L 637.694136 354.781163 
M 640.321652 357.265725 
L 640.560518 356.655232 
L 640.799383 356.78301 
L 641.038248 357.081157 
L 641.277113 357.052762 
L 641.515978 357.862019 
L 642.232574 356.456467 
L 642.710304 359.295966 
L 643.188034 355.377458 
L 643.426899 355.732395 
L 643.90463 354.34104 
L 644.38236 354.979928 
L 644.621225 354.90894 
L 644.86009 354.51141 
L 645.098956 355.24968 
L 645.337821 355.349063 
L 645.576686 354.937335 
L 645.815551 354.809558 
M 646.293281 354.781163 
L 646.532147 355.76079 
L 646.771012 355.789185 
L 647.009877 356.21511 
L 647.248742 355.391655 
M 651.30945 361.695343 
L 651.548315 360.261396 
L 651.78718 360.374976 
L 652.026045 360.133619 
L 652.26491 360.332384 
L 652.503776 360.176211 
L 652.742641 361.013863 
L 652.981506 360.673124 
L 653.220371 361.752133 
L 653.459236 361.539171 
L 653.698101 362.249046 
L 654.175832 361.312011 
L 654.414697 361.255221 
L 654.653562 361.397196 
L 654.892427 361.808923 
L 655.131292 361.908306 
L 655.370158 360.985468 
L 655.609023 361.226826 
L 655.609023 361.226826 
" clip-path="url(#p1199ed65e1)" style="fill: none; stroke: #1e90ff"/>
   </g>
   <g id="patch_3">
    <path d="M 57.68175 378.43845 
L 57.68175 28.51845 
" style="fill: none; stroke: #f0f0f0; stroke-width: 3; stroke-linejoin: miter; stroke-linecap: square"/>
   </g>
   <g id="patch_4">
    <path d="M 684.08175 378.43845 
L 684.08175 28.51845 
" style="fill: none; stroke: #f0f0f0; stroke-width: 3; stroke-linejoin: miter; stroke-linecap: square"/>
   </g>
   <g id="patch_5">
    <path d="M 57.68175 378.43845 
L 684.08175 378.43845 
" style="fill: none; stroke: #f0f0f0; stroke-width: 3; stroke-linejoin: miter; stroke-linecap: square"/>
   </g>
   <g id="patch_6">
    <path d="M 57.68175 28.51845 
L 684.08175 28.51845 
" style="fill: none; stroke: #f0f0f0; stroke-width: 3; stroke-linejoin: miter; stroke-linecap: square"/>
   </g>
   <g id="text_14">
    <!-- LOW, Relative Strength Index (RSI), LOW -->
    <g transform="translate(165.9081 22.51845)scale(0.2016 -0.2016)">
     <defs>
      <path id="DejaVuSans-4c" d="M 628 4666 
L 1259 4666 
L 1259 531 
L 3531 531 
L 3531 0 
L 628 0 
L 628 4666 
z
" transform="scale(0.015625)"/>
      <path id="DejaVuSans-4f" d="M 2522 4238 
Q 1834 4238 1429 3725 
Q 1025 3213 1025 2328 
Q 1025 1447 1429 934 
Q 1834 422 2522 422 
Q 3209 422 3611 934 
Q 4013 1447 4013 2328 
Q 4013 3213 3611 3725 
Q 3209 4238 2522 4238 
z
M 2522 4750 
Q 3503 4750 4090 4092 
Q 4678 3434 4678 2328 
Q 4678 1225 4090 567 
Q 3503 -91 2522 -91 
Q 1538 -91 948 565 
Q 359 1222 359 2328 
Q 359 3434 948 4092 
Q 1538 4750 2522 4750 
z
" transform="scale(0.015625)"/>
      <path id="DejaVuSans-57" d="M 213 4666 
L 850 4666 
L 1831 722 
L 2809 4666 
L 3519 4666 
L 4500 722 
L 5478 4666 
L 6119 4666 
L 4947 0 
L 4153 0 
L 3169 4050 
L 2175 0 
L 1381 0 
L 213 4666 
z
" transform="scale(0.015625)"/>
      <path id="DejaVuSans-2c" d="M 750 794 
L 1409 794 
L 1409 256 
L 897 -744 
L 494 -744 
L 750 256 
L 750 794 
z
" transform="scale(0.015625)"/>
      <path id="DejaVuSans-52" d="M 2841 2188 
Q 3044 2119 3236 1894 
Q 3428 1669 3622 1275 
L 4263 0 
L 3584 0 
L 2988 1197 
Q 2756 1666 2539 1819 
Q 2322 1972 1947 1972 
L 1259 1972 
L 1259 0 
L 628 0 
L 628 4666 
L 2053 4666 
Q 2853 4666 3247 4331 
Q 3641 3997 3641 3322 
Q 3641 2881 3436 2590 
Q 3231 2300 2841 2188 
z
M 1259 4147 
L 1259 2491 
L 2053 2491 
Q 2509 2491 2742 2702 
Q 2975 2913 2975 3322 
Q 2975 3731 2742 3939 
Q 2509 4147 2053 4147 
L 1259 4147 
z
" transform="scale(0.015625)"/>
      <path id="DejaVuSans-6c" d="M 603 4863 
L 1178 4863 
L 1178 0 
L 603 0 
L 603 4863 
z
" transform="scale(0.015625)"/>
      <path id="DejaVuSans-76" d="M 191 3500 
L 800 3500 
L 1894 563 
L 2988 3500 
L 3597 3500 
L 2284 0 
L 1503 0 
L 191 3500 
z
" transform="scale(0.015625)"/>
      <path id="DejaVuSans-6e" d="M 3513 2113 
L 3513 0 
L 2938 0 
L 2938 2094 
Q 2938 2591 2744 2837 
Q 2550 3084 2163 3084 
Q 1697 3084 1428 2787 
Q 1159 2491 1159 1978 
L 1159 0 
L 581 0 
L 581 3500 
L 1159 3500 
L 1159 2956 
Q 1366 3272 1645 3428 
Q 1925 3584 2291 3584 
Q 2894 3584 3203 3211 
Q 3513 2838 3513 2113 
z
" transform="scale(0.015625)"/>
      <path id="DejaVuSans-67" d="M 2906 1791 
Q 2906 2416 2648 2759 
Q 2391 3103 1925 3103 
Q 1463 3103 1205 2759 
Q 947 2416 947 1791 
Q 947 1169 1205 825 
Q 1463 481 1925 481 
Q 2391 481 2648 825 
Q 2906 1169 2906 1791 
z
M 3481 434 
Q 3481 -459 3084 -895 
Q 2688 -1331 1869 -1331 
Q 1566 -1331 1297 -1286 
Q 1028 -1241 775 -1147 
L 775 -588 
Q 1028 -725 1275 -790 
Q 1522 -856 1778 -856 
Q 2344 -856 2625 -561 
Q 2906 -266 2906 331 
L 2906 616 
Q 2728 306 2450 153 
Q 2172 0 1784 0 
Q 1141 0 747 490 
Q 353 981 353 1791 
Q 353 2603 747 3093 
Q 1141 3584 1784 3584 
Q 2172 3584 2450 3431 
Q 2728 3278 2906 2969 
L 2906 3500 
L 3481 3500 
L 3481 434 
z
" transform="scale(0.015625)"/>
      <path id="DejaVuSans-68" d="M 3513 2113 
L 3513 0 
L 2938 0 
L 2938 2094 
Q 2938 2591 2744 2837 
Q 2550 3084 2163 3084 
Q 1697 3084 1428 2787 
Q 1159 2491 1159 1978 
L 1159 0 
L 581 0 
L 581 4863 
L 1159 4863 
L 1159 2956 
Q 1366 3272 1645 3428 
Q 1925 3584 2291 3584 
Q 2894 3584 3203 3211 
Q 3513 2838 3513 2113 
z
" transform="scale(0.015625)"/>
      <path id="DejaVuSans-49" d="M 628 4666 
L 1259 4666 
L 1259 0 
L 628 0 
L 628 4666 
z
" transform="scale(0.015625)"/>
      <path id="DejaVuSans-64" d="M 2906 2969 
L 2906 4863 
L 3481 4863 
L 3481 0 
L 2906 0 
L 2906 525 
Q 2725 213 2448 61 
Q 2172 -91 1784 -91 
Q 1150 -91 751 415 
Q 353 922 353 1747 
Q 353 2572 751 3078 
Q 1150 3584 1784 3584 
Q 2172 3584 2448 3432 
Q 2725 3281 2906 2969 
z
M 947 1747 
Q 947 1113 1208 752 
Q 1469 391 1925 391 
Q 2381 391 2643 752 
Q 2906 1113 2906 1747 
Q 2906 2381 2643 2742 
Q 2381 3103 1925 3103 
Q 1469 3103 1208 2742 
Q 947 2381 947 1747 
z
" transform="scale(0.015625)"/>
      <path id="DejaVuSans-78" d="M 3513 3500 
L 2247 1797 
L 3578 0 
L 2900 0 
L 1881 1375 
L 863 0 
L 184 0 
L 1544 1831 
L 300 3500 
L 978 3500 
L 1906 2253 
L 2834 3500 
L 3513 3500 
z
" transform="scale(0.015625)"/>
     </defs>
     <use xlink:href="#DejaVuSans-4c"/>
     <use xlink:href="#DejaVuSans-4f" x="52.087891"/>
     <use xlink:href="#DejaVuSans-57" x="130.798828"/>
     <use xlink:href="#DejaVuSans-2c" x="229.675781"/>
     <use xlink:href="#DejaVuSans-20" x="261.462891"/>
     <use xlink:href="#DejaVuSans-52" x="293.25"/>
     <use xlink:href="#DejaVuSans-65" x="358.232422"/>
     <use xlink:href="#DejaVuSans-6c" x="419.755859"/>
     <use xlink:href="#DejaVuSans-61" x="447.539062"/>
     <use xlink:href="#DejaVuSans-74" x="508.818359"/>
     <use xlink:href="#DejaVuSans-69" x="548.027344"/>
     <use xlink:href="#DejaVuSans-76" x="575.810547"/>
     <use xlink:href="#DejaVuSans-65" x="634.990234"/>
     <use xlink:href="#DejaVuSans-20" x="696.513672"/>
     <use xlink:href="#DejaVuSans-53" x="728.300781"/>
     <use xlink:href="#DejaVuSans-74" x="791.777344"/>
     <use xlink:href="#DejaVuSans-72" x="830.986328"/>
     <use xlink:href="#DejaVuSans-65" x="869.849609"/>
     <use xlink:href="#DejaVuSans-6e" x="931.373047"/>
     <use xlink:href="#DejaVuSans-67" x="994.751953"/>
     <use xlink:href="#DejaVuSans-74" x="1058.228516"/>
     <use xlink:href="#DejaVuSans-68" x="1097.4375"/>
     <use xlink:href="#DejaVuSans-20" x="1160.816406"/>
     <use xlink:href="#DejaVuSans-49" x="1192.603516"/>
     <use xlink:href="#DejaVuSans-6e" x="1222.095703"/>
     <use xlink:href="#DejaVuSans-64" x="1285.474609"/>
     <use xlink:href="#DejaVuSans-65" x="1348.951172"/>
     <use xlink:href="#DejaVuSans-78" x="1408.724609"/>
     <use xlink:href="#DejaVuSans-20" x="1467.904297"/>
     <use xlink:href="#DejaVuSans-28" x="1499.691406"/>
     <use xlink:href="#DejaVuSans-52" x="1538.705078"/>
     <use xlink:href="#DejaVuSans-53" x="1608.1875"/>
     <use xlink:href="#DejaVuSans-49" x="1671.664062"/>
     <use xlink:href="#DejaVuSans-29" x="1701.15625"/>
     <use xlink:href="#DejaVuSans-2c" x="1740.169922"/>
     <use xlink:href="#DejaVuSans-20" x="1771.957031"/>
     <use xlink:href="#DejaVuSans-4c" x="1803.744141"/>
     <use xlink:href="#DejaVuSans-4f" x="1855.832031"/>
     <use xlink:href="#DejaVuSans-57" x="1934.542969"/>
    </g>
   </g>
   <g id="legend_1">
    <g id="patch_7">
     <path d="M 464.408625 101.366575 
L 674.28175 101.366575 
Q 677.08175 101.366575 677.08175 98.566575 
L 677.08175 38.31845 
Q 677.08175 35.51845 674.28175 35.51845 
L 464.408625 35.51845 
Q 461.608625 35.51845 461.608625 38.31845 
L 461.608625 98.566575 
Q 461.608625 101.366575 464.408625 101.366575 
z
" style="fill: #f0f0f0; opacity: 0.8; stroke: #cccccc; stroke-width: 0.5; stroke-linejoin: miter"/>
    </g>
    <g id="line2d_26">
     <path d="M 467.208625 46.856262 
L 481.208625 46.856262 
L 495.208625 46.856262 
" style="fill: none; stroke: #00ff7f"/>
    </g>
    <g id="text_15">
     <!-- Oversold, RSI &lt;= 30 -->
     <g transform="translate(506.408625 51.756262)scale(0.14 -0.14)">
      <defs>
       <path id="DejaVuSans-73" d="M 2834 3397 
L 2834 2853 
Q 2591 2978 2328 3040 
Q 2066 3103 1784 3103 
Q 1356 3103 1142 2972 
Q 928 2841 928 2578 
Q 928 2378 1081 2264 
Q 1234 2150 1697 2047 
L 1894 2003 
Q 2506 1872 2764 1633 
Q 3022 1394 3022 966 
Q 3022 478 2636 193 
Q 2250 -91 1575 -91 
Q 1294 -91 989 -36 
Q 684 19 347 128 
L 347 722 
Q 666 556 975 473 
Q 1284 391 1588 391 
Q 1994 391 2212 530 
Q 2431 669 2431 922 
Q 2431 1156 2273 1281 
Q 2116 1406 1581 1522 
L 1381 1569 
Q 847 1681 609 1914 
Q 372 2147 372 2553 
Q 372 3047 722 3315 
Q 1072 3584 1716 3584 
Q 2034 3584 2315 3537 
Q 2597 3491 2834 3397 
z
" transform="scale(0.015625)"/>
       <path id="DejaVuSans-6f" d="M 1959 3097 
Q 1497 3097 1228 2736 
Q 959 2375 959 1747 
Q 959 1119 1226 758 
Q 1494 397 1959 397 
Q 2419 397 2687 759 
Q 2956 1122 2956 1747 
Q 2956 2369 2687 2733 
Q 2419 3097 1959 3097 
z
M 1959 3584 
Q 2709 3584 3137 3096 
Q 3566 2609 3566 1747 
Q 3566 888 3137 398 
Q 2709 -91 1959 -91 
Q 1206 -91 779 398 
Q 353 888 353 1747 
Q 353 2609 779 3096 
Q 1206 3584 1959 3584 
z
" transform="scale(0.015625)"/>
       <path id="DejaVuSans-3c" d="M 4684 3150 
L 1459 2003 
L 4684 863 
L 4684 294 
L 678 1747 
L 678 2266 
L 4684 3719 
L 4684 3150 
z
" transform="scale(0.015625)"/>
       <path id="DejaVuSans-3d" d="M 678 2906 
L 4684 2906 
L 4684 2381 
L 678 2381 
L 678 2906 
z
M 678 1631 
L 4684 1631 
L 4684 1100 
L 678 1100 
L 678 1631 
z
" transform="scale(0.015625)"/>
       <path id="DejaVuSans-33" d="M 2597 2516 
Q 3050 2419 3304 2112 
Q 3559 1806 3559 1356 
Q 3559 666 3084 287 
Q 2609 -91 1734 -91 
Q 1441 -91 1130 -33 
Q 819 25 488 141 
L 488 750 
Q 750 597 1062 519 
Q 1375 441 1716 441 
Q 2309 441 2620 675 
Q 2931 909 2931 1356 
Q 2931 1769 2642 2001 
Q 2353 2234 1838 2234 
L 1294 2234 
L 1294 2753 
L 1863 2753 
Q 2328 2753 2575 2939 
Q 2822 3125 2822 3475 
Q 2822 3834 2567 4026 
Q 2313 4219 1838 4219 
Q 1578 4219 1281 4162 
Q 984 4106 628 3988 
L 628 4550 
Q 988 4650 1302 4700 
Q 1616 4750 1894 4750 
Q 2613 4750 3031 4423 
Q 3450 4097 3450 3541 
Q 3450 3153 3228 2886 
Q 3006 2619 2597 2516 
z
" transform="scale(0.015625)"/>
      </defs>
      <use xlink:href="#DejaVuSans-4f"/>
      <use xlink:href="#DejaVuSans-76" x="78.710938"/>
      <use xlink:href="#DejaVuSans-65" x="137.890625"/>
      <use xlink:href="#DejaVuSans-72" x="199.414062"/>
      <use xlink:href="#DejaVuSans-73" x="240.527344"/>
      <use xlink:href="#DejaVuSans-6f" x="292.626953"/>
      <use xlink:href="#DejaVuSans-6c" x="353.808594"/>
      <use xlink:href="#DejaVuSans-64" x="381.591797"/>
      <use xlink:href="#DejaVuSans-2c" x="445.068359"/>
      <use xlink:href="#DejaVuSans-20" x="476.855469"/>
      <use xlink:href="#DejaVuSans-52" x="508.642578"/>
      <use xlink:href="#DejaVuSans-53" x="578.125"/>
      <use xlink:href="#DejaVuSans-49" x="641.601562"/>
      <use xlink:href="#DejaVuSans-20" x="671.09375"/>
      <use xlink:href="#DejaVuSans-3c" x="702.880859"/>
      <use xlink:href="#DejaVuSans-3d" x="786.669922"/>
      <use xlink:href="#DejaVuSans-20" x="870.458984"/>
      <use xlink:href="#DejaVuSans-33" x="902.246094"/>
      <use xlink:href="#DejaVuSans-30" x="965.869141"/>
     </g>
    </g>
    <g id="line2d_27">
     <path d="M 467.208625 67.405637 
L 481.208625 67.405637 
L 495.208625 67.405637 
" style="fill: none; stroke: #ff4500"/>
    </g>
    <g id="text_16">
     <!-- Overbought, RSI &gt;= 70 -->
     <g transform="translate(506.408625 72.305637)scale(0.14 -0.14)">
      <defs>
       <path id="DejaVuSans-62" d="M 3116 1747 
Q 3116 2381 2855 2742 
Q 2594 3103 2138 3103 
Q 1681 3103 1420 2742 
Q 1159 2381 1159 1747 
Q 1159 1113 1420 752 
Q 1681 391 2138 391 
Q 2594 391 2855 752 
Q 3116 1113 3116 1747 
z
M 1159 2969 
Q 1341 3281 1617 3432 
Q 1894 3584 2278 3584 
Q 2916 3584 3314 3078 
Q 3713 2572 3713 1747 
Q 3713 922 3314 415 
Q 2916 -91 2278 -91 
Q 1894 -91 1617 61 
Q 1341 213 1159 525 
L 1159 0 
L 581 0 
L 581 4863 
L 1159 4863 
L 1159 2969 
z
" transform="scale(0.015625)"/>
       <path id="DejaVuSans-75" d="M 544 1381 
L 544 3500 
L 1119 3500 
L 1119 1403 
Q 1119 906 1312 657 
Q 1506 409 1894 409 
Q 2359 409 2629 706 
Q 2900 1003 2900 1516 
L 2900 3500 
L 3475 3500 
L 3475 0 
L 2900 0 
L 2900 538 
Q 2691 219 2414 64 
Q 2138 -91 1772 -91 
Q 1169 -91 856 284 
Q 544 659 544 1381 
z
M 1991 3584 
L 1991 3584 
z
" transform="scale(0.015625)"/>
       <path id="DejaVuSans-3e" d="M 678 3150 
L 678 3719 
L 4684 2266 
L 4684 1747 
L 678 294 
L 678 863 
L 3897 2003 
L 678 3150 
z
" transform="scale(0.015625)"/>
       <path id="DejaVuSans-37" d="M 525 4666 
L 3525 4666 
L 3525 4397 
L 1831 0 
L 1172 0 
L 2766 4134 
L 525 4134 
L 525 4666 
z
" transform="scale(0.015625)"/>
      </defs>
      <use xlink:href="#DejaVuSans-4f"/>
      <use xlink:href="#DejaVuSans-76" x="78.710938"/>
      <use xlink:href="#DejaVuSans-65" x="137.890625"/>
      <use xlink:href="#DejaVuSans-72" x="199.414062"/>
      <use xlink:href="#DejaVuSans-62" x="240.527344"/>
      <use xlink:href="#DejaVuSans-6f" x="304.003906"/>
      <use xlink:href="#DejaVuSans-75" x="365.185547"/>
      <use xlink:href="#DejaVuSans-67" x="428.564453"/>
      <use xlink:href="#DejaVuSans-68" x="492.041016"/>
      <use xlink:href="#DejaVuSans-74" x="555.419922"/>
      <use xlink:href="#DejaVuSans-2c" x="594.628906"/>
      <use xlink:href="#DejaVuSans-20" x="626.416016"/>
      <use xlink:href="#DejaVuSans-52" x="658.203125"/>
      <use xlink:href="#DejaVuSans-53" x="727.685547"/>
      <use xlink:href="#DejaVuSans-49" x="791.162109"/>
      <use xlink:href="#DejaVuSans-20" x="820.654297"/>
      <use xlink:href="#DejaVuSans-3e" x="852.441406"/>
      <use xlink:href="#DejaVuSans-3d" x="936.230469"/>
      <use xlink:href="#DejaVuSans-20" x="1020.019531"/>
      <use xlink:href="#DejaVuSans-37" x="1051.806641"/>
      <use xlink:href="#DejaVuSans-30" x="1115.429688"/>
     </g>
    </g>
    <g id="line2d_28">
     <path d="M 467.208625 87.955012 
L 481.208625 87.955012 
L 495.208625 87.955012 
" style="fill: none; stroke: #1e90ff"/>
    </g>
    <g id="text_17">
     <!-- Neutral -->
     <g transform="translate(506.408625 92.855012)scale(0.14 -0.14)">
      <defs>
       <path id="DejaVuSans-4e" d="M 628 4666 
L 1478 4666 
L 3547 763 
L 3547 4666 
L 4159 4666 
L 4159 0 
L 3309 0 
L 1241 3903 
L 1241 0 
L 628 0 
L 628 4666 
z
" transform="scale(0.015625)"/>
      </defs>
      <use xlink:href="#DejaVuSans-4e"/>
      <use xlink:href="#DejaVuSans-65" x="74.804688"/>
      <use xlink:href="#DejaVuSans-75" x="136.328125"/>
      <use xlink:href="#DejaVuSans-74" x="199.707031"/>
      <use xlink:href="#DejaVuSans-72" x="238.916016"/>
      <use xlink:href="#DejaVuSans-61" x="280.029297"/>
      <use xlink:href="#DejaVuSans-6c" x="341.308594"/>
     </g>
    </g>
   </g>
  </g>
 </g>
 <defs>
  <clipPath id="p1199ed65e1">
   <rect x="57.68175" y="28.51845" width="626.4" height="349.92"/>
  </clipPath>
 </defs>
</svg>
