<?xml version="1.0" encoding="utf-8" standalone="no"?>
<!DOCTYPE svg PUBLIC "-//W3C//DTD SVG 1.1//EN"
  "http://www.w3.org/Graphics/SVG/1.1/DTD/svg11.dtd">
<svg xmlns:xlink="http://www.w3.org/1999/xlink" width="612.165625pt" height="392.514375pt" viewBox="0 0 612.165625 392.514375" xmlns="http://www.w3.org/2000/svg" version="1.1">
 <metadata>
  <rdf:RDF xmlns:dc="http://purl.org/dc/elements/1.1/" xmlns:cc="http://creativecommons.org/ns#" xmlns:rdf="http://www.w3.org/1999/02/22-rdf-syntax-ns#">
   <cc:Work>
    <dc:type rdf:resource="http://purl.org/dc/dcmitype/StillImage"/>
    <dc:date>2023-04-24T21:55:15.453771</dc:date>
    <dc:format>image/svg+xml</dc:format>
    <dc:creator>
     <cc:Agent>
      <dc:title>Matplotlib v3.5.1, https://matplotlib.org/</dc:title>
     </cc:Agent>
    </dc:creator>
   </cc:Work>
  </rdf:RDF>
 </metadata>
 <defs>
  <style type="text/css">*{stroke-linejoin: round; stroke-linecap: butt}</style>
 </defs>
 <g id="figure_1">
  <g id="patch_1">
   <path d="M 0 392.514375 
L 612.165625 392.514375 
L 612.165625 0 
L 0 0 
z
" style="fill: #ffffff"/>
  </g>
  <g id="axes_1">
   <g id="patch_2">
    <path d="M 46.965625 354.958125 
L 604.965625 354.958125 
L 604.965625 22.318125 
L 46.965625 22.318125 
z
" style="fill: #ffffff"/>
   </g>
   <g id="matplotlib.axis_1">
    <g id="xtick_1">
     <g id="line2d_1">
      <defs>
       <path id="m511630029f" d="M 0 0 
L 0 3.5 
" style="stroke: #000000; stroke-width: 0.8"/>
      </defs>
      <g>
       <use xlink:href="#m511630029f" x="72.329261" y="354.958125" style="stroke: #000000; stroke-width: 0.8"/>
      </g>
     </g>
     <g id="text_1">
      <!-- 0 -->
      <g transform="translate(69.148011 369.556562)scale(0.1 -0.1)">
       <defs>
        <path id="DejaVuSans-30" d="M 2034 4250 
Q 1547 4250 1301 3770 
Q 1056 3291 1056 2328 
Q 1056 1369 1301 889 
Q 1547 409 2034 409 
Q 2525 409 2770 889 
Q 3016 1369 3016 2328 
Q 3016 3291 2770 3770 
Q 2525 4250 2034 4250 
z
M 2034 4750 
Q 2819 4750 3233 4129 
Q 3647 3509 3647 2328 
Q 3647 1150 3233 529 
Q 2819 -91 2034 -91 
Q 1250 -91 836 529 
Q 422 1150 422 2328 
Q 422 3509 836 4129 
Q 1250 4750 2034 4750 
z
" transform="scale(0.015625)"/>
       </defs>
       <use xlink:href="#DejaVuSans-30"/>
      </g>
     </g>
    </g>
    <g id="xtick_2">
     <g id="line2d_2">
      <g>
       <use xlink:href="#m511630029f" x="186.941265" y="354.958125" style="stroke: #000000; stroke-width: 0.8"/>
      </g>
     </g>
     <g id="text_2">
      <!-- 500 -->
      <g transform="translate(177.397515 369.556562)scale(0.1 -0.1)">
       <defs>
        <path id="DejaVuSans-35" d="M 691 4666 
L 3169 4666 
L 3169 4134 
L 1269 4134 
L 1269 2991 
Q 1406 3038 1543 3061 
Q 1681 3084 1819 3084 
Q 2600 3084 3056 2656 
Q 3513 2228 3513 1497 
Q 3513 744 3044 326 
Q 2575 -91 1722 -91 
Q 1428 -91 1123 -41 
Q 819 9 494 109 
L 494 744 
Q 775 591 1075 516 
Q 1375 441 1709 441 
Q 2250 441 2565 725 
Q 2881 1009 2881 1497 
Q 2881 1984 2565 2268 
Q 2250 2553 1709 2553 
Q 1456 2553 1204 2497 
Q 953 2441 691 2322 
L 691 4666 
z
" transform="scale(0.015625)"/>
       </defs>
       <use xlink:href="#DejaVuSans-35"/>
       <use xlink:href="#DejaVuSans-30" x="63.623047"/>
       <use xlink:href="#DejaVuSans-30" x="127.246094"/>
      </g>
     </g>
    </g>
    <g id="xtick_3">
     <g id="line2d_3">
      <g>
       <use xlink:href="#m511630029f" x="301.553268" y="354.958125" style="stroke: #000000; stroke-width: 0.8"/>
      </g>
     </g>
     <g id="text_3">
      <!-- 1000 -->
      <g transform="translate(288.828268 369.556562)scale(0.1 -0.1)">
       <defs>
        <path id="DejaVuSans-31" d="M 794 531 
L 1825 531 
L 1825 4091 
L 703 3866 
L 703 4441 
L 1819 4666 
L 2450 4666 
L 2450 531 
L 3481 531 
L 3481 0 
L 794 0 
L 794 531 
z
" transform="scale(0.015625)"/>
       </defs>
       <use xlink:href="#DejaVuSans-31"/>
       <use xlink:href="#DejaVuSans-30" x="63.623047"/>
       <use xlink:href="#DejaVuSans-30" x="127.246094"/>
       <use xlink:href="#DejaVuSans-30" x="190.869141"/>
      </g>
     </g>
    </g>
    <g id="xtick_4">
     <g id="line2d_4">
      <g>
       <use xlink:href="#m511630029f" x="416.165272" y="354.958125" style="stroke: #000000; stroke-width: 0.8"/>
      </g>
     </g>
     <g id="text_4">
      <!-- 1500 -->
      <g transform="translate(403.440272 369.556562)scale(0.1 -0.1)">
       <use xlink:href="#DejaVuSans-31"/>
       <use xlink:href="#DejaVuSans-35" x="63.623047"/>
       <use xlink:href="#DejaVuSans-30" x="127.246094"/>
       <use xlink:href="#DejaVuSans-30" x="190.869141"/>
      </g>
     </g>
    </g>
    <g id="xtick_5">
     <g id="line2d_5">
      <g>
       <use xlink:href="#m511630029f" x="530.777275" y="354.958125" style="stroke: #000000; stroke-width: 0.8"/>
      </g>
     </g>
     <g id="text_5">
      <!-- 2000 -->
      <g transform="translate(518.052275 369.556562)scale(0.1 -0.1)">
       <defs>
        <path id="DejaVuSans-32" d="M 1228 531 
L 3431 531 
L 3431 0 
L 469 0 
L 469 531 
Q 828 903 1448 1529 
Q 2069 2156 2228 2338 
Q 2531 2678 2651 2914 
Q 2772 3150 2772 3378 
Q 2772 3750 2511 3984 
Q 2250 4219 1831 4219 
Q 1534 4219 1204 4116 
Q 875 4013 500 3803 
L 500 4441 
Q 881 4594 1212 4672 
Q 1544 4750 1819 4750 
Q 2544 4750 2975 4387 
Q 3406 4025 3406 3419 
Q 3406 3131 3298 2873 
Q 3191 2616 2906 2266 
Q 2828 2175 2409 1742 
Q 1991 1309 1228 531 
z
" transform="scale(0.015625)"/>
       </defs>
       <use xlink:href="#DejaVuSans-32"/>
       <use xlink:href="#DejaVuSans-30" x="63.623047"/>
       <use xlink:href="#DejaVuSans-30" x="127.246094"/>
       <use xlink:href="#DejaVuSans-30" x="190.869141"/>
      </g>
     </g>
    </g>
    <g id="text_6">
     <!-- Date -->
     <g transform="translate(314.014844 383.234687)scale(0.1 -0.1)">
      <defs>
       <path id="DejaVuSans-44" d="M 1259 4147 
L 1259 519 
L 2022 519 
Q 2988 519 3436 956 
Q 3884 1394 3884 2338 
Q 3884 3275 3436 3711 
Q 2988 4147 2022 4147 
L 1259 4147 
z
M 628 4666 
L 1925 4666 
Q 3281 4666 3915 4102 
Q 4550 3538 4550 2338 
Q 4550 1131 3912 565 
Q 3275 0 1925 0 
L 628 0 
L 628 4666 
z
" transform="scale(0.015625)"/>
       <path id="DejaVuSans-61" d="M 2194 1759 
Q 1497 1759 1228 1600 
Q 959 1441 959 1056 
Q 959 750 1161 570 
Q 1363 391 1709 391 
Q 2188 391 2477 730 
Q 2766 1069 2766 1631 
L 2766 1759 
L 2194 1759 
z
M 3341 1997 
L 3341 0 
L 2766 0 
L 2766 531 
Q 2569 213 2275 61 
Q 1981 -91 1556 -91 
Q 1019 -91 701 211 
Q 384 513 384 1019 
Q 384 1609 779 1909 
Q 1175 2209 1959 2209 
L 2766 2209 
L 2766 2266 
Q 2766 2663 2505 2880 
Q 2244 3097 1772 3097 
Q 1472 3097 1187 3025 
Q 903 2953 641 2809 
L 641 3341 
Q 956 3463 1253 3523 
Q 1550 3584 1831 3584 
Q 2591 3584 2966 3190 
Q 3341 2797 3341 1997 
z
" transform="scale(0.015625)"/>
       <path id="DejaVuSans-74" d="M 1172 4494 
L 1172 3500 
L 2356 3500 
L 2356 3053 
L 1172 3053 
L 1172 1153 
Q 1172 725 1289 603 
Q 1406 481 1766 481 
L 2356 481 
L 2356 0 
L 1766 0 
Q 1100 0 847 248 
Q 594 497 594 1153 
L 594 3053 
L 172 3053 
L 172 3500 
L 594 3500 
L 594 4494 
L 1172 4494 
z
" transform="scale(0.015625)"/>
       <path id="DejaVuSans-65" d="M 3597 1894 
L 3597 1613 
L 953 1613 
Q 991 1019 1311 708 
Q 1631 397 2203 397 
Q 2534 397 2845 478 
Q 3156 559 3463 722 
L 3463 178 
Q 3153 47 2828 -22 
Q 2503 -91 2169 -91 
Q 1331 -91 842 396 
Q 353 884 353 1716 
Q 353 2575 817 3079 
Q 1281 3584 2069 3584 
Q 2775 3584 3186 3129 
Q 3597 2675 3597 1894 
z
M 3022 2063 
Q 3016 2534 2758 2815 
Q 2500 3097 2075 3097 
Q 1594 3097 1305 2825 
Q 1016 2553 972 2059 
L 3022 2063 
z
" transform="scale(0.015625)"/>
      </defs>
      <use xlink:href="#DejaVuSans-44"/>
      <use xlink:href="#DejaVuSans-61" x="77.001953"/>
      <use xlink:href="#DejaVuSans-74" x="138.28125"/>
      <use xlink:href="#DejaVuSans-65" x="177.490234"/>
     </g>
    </g>
   </g>
   <g id="matplotlib.axis_2">
    <g id="ytick_1">
     <g id="line2d_6">
      <path d="M 46.965625 322.724709 
L 604.965625 322.724709 
" clip-path="url(#p9c462f7825)" style="fill: none; stroke: #dcdcdc; stroke-width: 0.5; stroke-linecap: square"/>
     </g>
     <g id="line2d_7">
      <defs>
       <path id="m68d7269f6d" d="M 0 0 
L -3.5 0 
" style="stroke: #000000; stroke-width: 0.8"/>
      </defs>
      <g>
       <use xlink:href="#m68d7269f6d" x="46.965625" y="322.724709" style="stroke: #000000; stroke-width: 0.8"/>
      </g>
     </g>
     <g id="text_7">
      <!-- 50 -->
      <g transform="translate(27.240625 326.523928)scale(0.1 -0.1)">
       <use xlink:href="#DejaVuSans-35"/>
       <use xlink:href="#DejaVuSans-30" x="63.623047"/>
      </g>
     </g>
    </g>
    <g id="ytick_2">
     <g id="line2d_8">
      <path d="M 46.965625 255.242784 
L 604.965625 255.242784 
" clip-path="url(#p9c462f7825)" style="fill: none; stroke: #dcdcdc; stroke-width: 0.5; stroke-linecap: square"/>
     </g>
     <g id="line2d_9">
      <g>
       <use xlink:href="#m68d7269f6d" x="46.965625" y="255.242784" style="stroke: #000000; stroke-width: 0.8"/>
      </g>
     </g>
     <g id="text_8">
      <!-- 100 -->
      <g transform="translate(20.878125 259.042003)scale(0.1 -0.1)">
       <use xlink:href="#DejaVuSans-31"/>
       <use xlink:href="#DejaVuSans-30" x="63.623047"/>
       <use xlink:href="#DejaVuSans-30" x="127.246094"/>
      </g>
     </g>
    </g>
    <g id="ytick_3">
     <g id="line2d_10">
      <path d="M 46.965625 187.76086 
L 604.965625 187.76086 
" clip-path="url(#p9c462f7825)" style="fill: none; stroke: #dcdcdc; stroke-width: 0.5; stroke-linecap: square"/>
     </g>
     <g id="line2d_11">
      <g>
       <use xlink:href="#m68d7269f6d" x="46.965625" y="187.76086" style="stroke: #000000; stroke-width: 0.8"/>
      </g>
     </g>
     <g id="text_9">
      <!-- 150 -->
      <g transform="translate(20.878125 191.560079)scale(0.1 -0.1)">
       <use xlink:href="#DejaVuSans-31"/>
       <use xlink:href="#DejaVuSans-35" x="63.623047"/>
       <use xlink:href="#DejaVuSans-30" x="127.246094"/>
      </g>
     </g>
    </g>
    <g id="ytick_4">
     <g id="line2d_12">
      <path d="M 46.965625 120.278935 
L 604.965625 120.278935 
" clip-path="url(#p9c462f7825)" style="fill: none; stroke: #dcdcdc; stroke-width: 0.5; stroke-linecap: square"/>
     </g>
     <g id="line2d_13">
      <g>
       <use xlink:href="#m68d7269f6d" x="46.965625" y="120.278935" style="stroke: #000000; stroke-width: 0.8"/>
      </g>
     </g>
     <g id="text_10">
      <!-- 200 -->
      <g transform="translate(20.878125 124.078154)scale(0.1 -0.1)">
       <use xlink:href="#DejaVuSans-32"/>
       <use xlink:href="#DejaVuSans-30" x="63.623047"/>
       <use xlink:href="#DejaVuSans-30" x="127.246094"/>
      </g>
     </g>
    </g>
    <g id="ytick_5">
     <g id="line2d_14">
      <path d="M 46.965625 52.797011 
L 604.965625 52.797011 
" clip-path="url(#p9c462f7825)" style="fill: none; stroke: #dcdcdc; stroke-width: 0.5; stroke-linecap: square"/>
     </g>
     <g id="line2d_15">
      <g>
       <use xlink:href="#m68d7269f6d" x="46.965625" y="52.797011" style="stroke: #000000; stroke-width: 0.8"/>
      </g>
     </g>
     <g id="text_11">
      <!-- 250 -->
      <g transform="translate(20.878125 56.59623)scale(0.1 -0.1)">
       <use xlink:href="#DejaVuSans-32"/>
       <use xlink:href="#DejaVuSans-35" x="63.623047"/>
       <use xlink:href="#DejaVuSans-30" x="127.246094"/>
      </g>
     </g>
    </g>
    <g id="text_12">
     <!-- Price (USD) -->
     <g transform="translate(14.798437 217.01)rotate(-90)scale(0.1 -0.1)">
      <defs>
       <path id="DejaVuSans-50" d="M 1259 4147 
L 1259 2394 
L 2053 2394 
Q 2494 2394 2734 2622 
Q 2975 2850 2975 3272 
Q 2975 3691 2734 3919 
Q 2494 4147 2053 4147 
L 1259 4147 
z
M 628 4666 
L 2053 4666 
Q 2838 4666 3239 4311 
Q 3641 3956 3641 3272 
Q 3641 2581 3239 2228 
Q 2838 1875 2053 1875 
L 1259 1875 
L 1259 0 
L 628 0 
L 628 4666 
z
" transform="scale(0.015625)"/>
       <path id="DejaVuSans-72" d="M 2631 2963 
Q 2534 3019 2420 3045 
Q 2306 3072 2169 3072 
Q 1681 3072 1420 2755 
Q 1159 2438 1159 1844 
L 1159 0 
L 581 0 
L 581 3500 
L 1159 3500 
L 1159 2956 
Q 1341 3275 1631 3429 
Q 1922 3584 2338 3584 
Q 2397 3584 2469 3576 
Q 2541 3569 2628 3553 
L 2631 2963 
z
" transform="scale(0.015625)"/>
       <path id="DejaVuSans-69" d="M 603 3500 
L 1178 3500 
L 1178 0 
L 603 0 
L 603 3500 
z
M 603 4863 
L 1178 4863 
L 1178 4134 
L 603 4134 
L 603 4863 
z
" transform="scale(0.015625)"/>
       <path id="DejaVuSans-63" d="M 3122 3366 
L 3122 2828 
Q 2878 2963 2633 3030 
Q 2388 3097 2138 3097 
Q 1578 3097 1268 2742 
Q 959 2388 959 1747 
Q 959 1106 1268 751 
Q 1578 397 2138 397 
Q 2388 397 2633 464 
Q 2878 531 3122 666 
L 3122 134 
Q 2881 22 2623 -34 
Q 2366 -91 2075 -91 
Q 1284 -91 818 406 
Q 353 903 353 1747 
Q 353 2603 823 3093 
Q 1294 3584 2113 3584 
Q 2378 3584 2631 3529 
Q 2884 3475 3122 3366 
z
" transform="scale(0.015625)"/>
       <path id="DejaVuSans-20" transform="scale(0.015625)"/>
       <path id="DejaVuSans-28" d="M 1984 4856 
Q 1566 4138 1362 3434 
Q 1159 2731 1159 2009 
Q 1159 1288 1364 580 
Q 1569 -128 1984 -844 
L 1484 -844 
Q 1016 -109 783 600 
Q 550 1309 550 2009 
Q 550 2706 781 3412 
Q 1013 4119 1484 4856 
L 1984 4856 
z
" transform="scale(0.015625)"/>
       <path id="DejaVuSans-55" d="M 556 4666 
L 1191 4666 
L 1191 1831 
Q 1191 1081 1462 751 
Q 1734 422 2344 422 
Q 2950 422 3222 751 
Q 3494 1081 3494 1831 
L 3494 4666 
L 4128 4666 
L 4128 1753 
Q 4128 841 3676 375 
Q 3225 -91 2344 -91 
Q 1459 -91 1007 375 
Q 556 841 556 1753 
L 556 4666 
z
" transform="scale(0.015625)"/>
       <path id="DejaVuSans-53" d="M 3425 4513 
L 3425 3897 
Q 3066 4069 2747 4153 
Q 2428 4238 2131 4238 
Q 1616 4238 1336 4038 
Q 1056 3838 1056 3469 
Q 1056 3159 1242 3001 
Q 1428 2844 1947 2747 
L 2328 2669 
Q 3034 2534 3370 2195 
Q 3706 1856 3706 1288 
Q 3706 609 3251 259 
Q 2797 -91 1919 -91 
Q 1588 -91 1214 -16 
Q 841 59 441 206 
L 441 856 
Q 825 641 1194 531 
Q 1563 422 1919 422 
Q 2459 422 2753 634 
Q 3047 847 3047 1241 
Q 3047 1584 2836 1778 
Q 2625 1972 2144 2069 
L 1759 2144 
Q 1053 2284 737 2584 
Q 422 2884 422 3419 
Q 422 4038 858 4394 
Q 1294 4750 2059 4750 
Q 2388 4750 2728 4690 
Q 3069 4631 3425 4513 
z
" transform="scale(0.015625)"/>
       <path id="DejaVuSans-29" d="M 513 4856 
L 1013 4856 
Q 1481 4119 1714 3412 
Q 1947 2706 1947 2009 
Q 1947 1309 1714 600 
Q 1481 -109 1013 -844 
L 513 -844 
Q 928 -128 1133 580 
Q 1338 1288 1338 2009 
Q 1338 2731 1133 3434 
Q 928 4138 513 4856 
z
" transform="scale(0.015625)"/>
      </defs>
      <use xlink:href="#DejaVuSans-50"/>
      <use xlink:href="#DejaVuSans-72" x="58.552734"/>
      <use xlink:href="#DejaVuSans-69" x="99.666016"/>
      <use xlink:href="#DejaVuSans-63" x="127.449219"/>
      <use xlink:href="#DejaVuSans-65" x="182.429688"/>
      <use xlink:href="#DejaVuSans-20" x="243.953125"/>
      <use xlink:href="#DejaVuSans-28" x="275.740234"/>
      <use xlink:href="#DejaVuSans-55" x="314.753906"/>
      <use xlink:href="#DejaVuSans-53" x="387.947266"/>
      <use xlink:href="#DejaVuSans-44" x="451.423828"/>
      <use xlink:href="#DejaVuSans-29" x="528.425781"/>
     </g>
    </g>
   </g>
   <g id="line2d_16">
    <path d="M 76.684517 338.933867 
L 77.142966 339.838125 
L 77.37219 338.758414 
L 77.601414 339.338759 
L 77.830638 338.906874 
L 78.059862 339.311766 
L 78.289086 339.203795 
L 78.51831 339.325262 
L 78.747534 338.582961 
L 78.976758 338.353523 
L 79.205982 338.677436 
L 79.66443 336.774446 
M 87.228822 336.464029 
L 87.458046 336.828431 
L 87.68727 336.963395 
L 87.916494 336.882417 
L 88.374942 334.66901 
L 88.604166 335.006419 
L 88.83339 334.790477 
L 89.062614 333.022451 
L 89.291838 333.089933 
M 104.649846 327.407955 
L 104.87907 327.31348 
M 123.216991 329.607865 
L 123.446215 328.757593 
L 123.675439 327.340473 
L 123.904663 328.028788 
L 124.133887 327.961306 
L 124.363111 327.097538 
L 124.821559 327.259494 
L 125.050783 326.395726 
L 125.280007 326.868099 
M 139.262671 329.972268 
L 139.491895 328.987032 
L 139.721119 328.7306 
L 139.950343 328.771089 
M 143.617928 328.7306 
L 144.076376 328.906053 
L 144.3056 328.339205 
L 144.534824 328.339205 
M 150.953096 325.37 
L 151.18232 324.789656 
L 151.411544 325.626432 
L 151.640768 325.977338 
L 151.869992 325.545453 
L 152.099216 325.909856 
L 152.32844 325.289022 
L 152.557664 325.531957 
L 152.786888 323.102608 
L 153.016112 322.913658 
L 153.47456 322.927155 
L 153.703784 322.171357 
L 153.933008 322.724709 
L 154.162232 322.117372 
M 163.101968 319.391102 
L 163.331192 320.011936 
L 163.560416 321.091646 
L 163.78964 320.821719 
L 164.477312 316.529868 
L 164.706536 317.407133 
L 164.93576 316.030502 
L 165.164984 315.531136 
L 165.394208 315.342186 
L 165.623432 314.5459 
L 165.852656 314.883309 
L 166.08188 314.262476 
L 166.311104 313.007312 
L 166.540328 312.669902 
L 166.769552 312.926334 
L 166.998776 313.358218 
L 167.228 312.507946 
L 167.915672 311.927601 
L 168.144896 311.630681 
L 168.37412 311.104322 
L 168.603344 311.144811 
L 168.832568 310.726423 
L 169.061792 311.212293 
M 180.293769 298.755129 
L 180.522993 297.877864 
L 180.981441 294.827681 
M 181.669113 294.449783 
L 181.898337 293.356575 
M 207.112977 300.185746 
L 207.342201 300.604134 
M 208.029873 299.53792 
L 208.259097 299.726869 
L 208.717545 297.432484 
L 208.946769 297.270527 
M 218.344954 299.578409 
L 218.574178 300.091271 
L 218.803402 297.189549 
M 226.13857 295.610472 
L 226.367794 293.518532 
M 239.89201 304.639553 
L 240.121234 302.655585 
M 241.496578 298.56618 
L 241.725802 297.59444 
L 241.955026 297.486469 
L 242.18425 296.946614 
L 242.413474 299.065546 
L 242.642698 297.027592 
L 242.871922 296.96011 
L 243.330371 295.20558 
L 243.788819 294.395797 
L 244.247267 294.787192 
L 244.476491 292.870706 
L 245.164163 290.630306 
M 254.103899 288.808294 
L 254.333123 288.443891 
L 254.562347 288.97025 
M 260.292947 284.138545 
L 260.522171 284.489451 
M 261.209843 286.203491 
L 261.439067 287.202224 
M 282.069228 300.374696 
L 282.298452 300.334206 
L 282.527676 300.793083 
M 284.361468 299.753862 
L 285.04914 296.528226 
M 295.822668 291.575053 
L 296.051892 292.560289 
M 299.490252 287.904036 
L 299.9487 287.06726 
L 300.177924 289.834019 
M 305.908524 280.089629 
L 306.137748 280.04914 
L 306.596196 279.347328 
M 307.283868 279.71173 
L 307.513092 280.804937 
L 307.742316 279.603759 
L 307.97154 279.360824 
L 308.200764 279.549774 
L 308.429988 277.795244 
M 328.372477 291.669527 
L 328.601701 292.209383 
L 328.830925 291.21065 
M 329.289373 291.075686 
L 329.518597 290.454853 
L 329.747821 290.481845 
M 331.581613 285.123781 
L 331.810837 284.313998 
L 332.269285 285.380212 
L 332.498509 285.623147 
L 332.727733 285.056299 
L 333.186181 284.624414 
L 333.415405 283.126316 
M 340.750573 284.813364 
L 340.979797 284.82686 
L 341.209021 285.623147 
L 341.438245 285.569161 
L 341.667469 283.274776 
M 345.10583 278.996422 
L 345.335054 277.336367 
L 345.564278 274.677579 
L 345.793502 274.758557 
L 346.022726 275.500858 
L 346.25195 274.677579 
L 346.481174 274.704571 
L 347.627294 267.753933 
L 347.856518 267.1331 
L 348.085742 266.188353 
L 348.314966 265.891432 
L 348.54419 264.879203 
L 348.773414 264.771232 
L 349.002638 266.552755 
L 349.231862 266.0129 
L 349.461086 265.04116 
L 349.69031 262.341883 
L 349.919534 263.732011 
L 350.148758 262.598314 
L 350.377982 263.111177 
L 350.607206 260.992244 
M 368.257454 278.416077 
L 368.486678 276.526583 
L 368.715902 277.039446 
L 368.945126 276.499591 
L 369.17435 276.270152 
L 369.403574 275.392887 
M 369.862022 273.354933 
L 370.091246 274.556111 
L 370.32047 274.799046 
L 370.549694 274.853032 
L 371.008142 272.261726 
L 371.237366 274.475133 
M 376.967967 260.22295 
L 377.426415 261.221683 
L 377.655639 262.16643 
L 377.884863 261.909999 
M 382.698567 258.697859 
L 383.157015 258.279471 
L 383.386239 256.889343 
L 383.615463 256.767876 
L 383.844687 255.323763 
L 384.303135 259.170232 
L 384.532359 257.402206 
L 384.761583 259.521138 
L 384.990807 258.373946 
L 385.220031 257.969054 
L 385.678479 255.59369 
L 385.907703 247.79278 
M 386.366151 246.065243 
L 386.595375 245.835804 
L 386.824599 244.081274 
L 387.053823 243.527922 
L 387.283047 244.607633 
L 387.512271 243.433448 
M 387.970719 243.892325 
L 388.199943 242.583175 
M 404.933295 269.872866 
L 405.391743 274.191709 
M 409.517776 266.633733 
L 409.747 266.269331 
L 409.976224 266.30982 
L 410.205448 263.58355 
L 410.434672 264.487808 
L 410.663896 264.109909 
L 410.89312 260.978748 
L 411.122344 260.425396 
L 411.580792 258.117514 
L 411.810016 257.807098 
L 412.03924 259.035269 
L 412.268464 259.453657 
M 416.62372 254.284541 
L 416.852944 256.147042 
L 417.082168 254.702929 
L 417.540616 253.663707 
L 417.76984 254.149577 
L 417.999064 255.053835 
L 418.457512 250.586532 
L 418.686736 250.397582 
L 418.91596 246.67258 
L 419.145184 248.562074 
L 419.374408 247.104464 
L 419.603632 247.198939 
L 420.06208 243.94631 
M 429.460264 266.215345 
L 429.689488 264.379837 
L 429.918712 263.502572 
L 430.147936 264.312355 
L 430.37716 263.556558 
M 433.586296 254.109088 
L 433.81552 256.56543 
L 434.044744 257.645141 
M 441.379912 257.19976 
L 441.609136 260.533367 
L 441.83836 259.858548 
L 442.067584 263.893967 
L 442.296809 264.177391 
L 442.526033 263.448586 
L 442.755257 261.923495 
L 442.984481 258.117514 
M 459.717833 235.605544 
L 459.947057 234.377373 
L 460.176281 234.215417 
L 460.405505 233.27067 
M 460.863953 233.000742 
L 461.093177 231.408169 
M 476.221962 302.453139 
L 476.451186 295.907392 
L 476.68041 300.644623 
L 476.909634 298.701144 
L 477.138858 285.879578 
M 480.577218 262.881738 
L 480.806442 265.446051 
L 481.035666 259.156736 
L 481.494114 265.203117 
L 481.723338 262.058459 
L 481.952562 262.125941 
L 482.41101 252.583997 
L 482.640234 250.492057 
L 482.869458 246.929011 
L 483.098682 248.832002 
L 483.327906 249.223397 
L 483.786354 241.543954 
L 484.015578 242.259262 
L 484.474026 236.037429 
L 484.70325 237.171125 
L 484.932474 240.072848 
L 485.161698 241.166055 
L 485.390922 241.220041 
L 485.84937 232.663333 
L 486.307818 232.312427 
M 489.746178 222.932439 
L 489.975402 220.084702 
M 491.809194 212.081346 
L 492.038418 212.36477 
L 492.267642 215.549916 
L 492.496866 210.002902 
L 492.72609 207.843481 
L 492.955314 207.155165 
L 493.413762 206.979712 
L 493.642986 207.978445 
L 493.87221 206.993208 
L 494.101434 207.182158 
L 494.330658 204.725816 
L 494.559882 205.913498 
L 494.789106 201.176267 
L 495.247554 197.545739 
L 495.476778 195.332332 
L 495.706002 195.723727 
L 495.935226 194.509052 
M 496.393674 192.484595 
L 496.622898 191.769286 
M 497.081346 190.851532 
L 497.31057 189.501894 
L 497.539794 188.840571 
L 497.769018 189.231966 
L 497.998242 187.396458 
L 498.227466 188.206241 
L 498.45669 187.409954 
L 498.685914 186.15479 
L 499.144362 182.740205 
M 505.791858 174.80433 
L 506.021082 172.172535 
L 506.250306 176.140473 
L 506.47953 176.26194 
L 506.708754 174.871812 
L 506.937978 170.768911 
L 507.167202 171.214292 
M 515.419267 192.160681 
L 515.648491 188.300715 
M 517.253059 183.172089 
L 517.482283 185.318014 
L 517.711507 185.102072 
L 517.940731 187.76086 
L 518.169955 185.075079 
M 520.920643 170.984854 
L 521.149867 170.525976 
L 521.379091 171.511213 
L 521.608315 173.53567 
L 522.066763 173.576159 
L 522.295987 173.751612 
L 522.525211 173.022808 
M 530.548051 176.26194 
L 530.777275 174.601885 
L 531.006499 171.646176 
L 531.235723 170.148078 
L 531.694171 182.672723 
L 532.381843 166.180141 
L 532.840291 159.755861 
L 533.069515 158.676151 
L 533.298739 155.099609 
L 533.527963 153.574517 
L 533.757187 154.775695 
L 533.986411 154.195351 
L 534.444859 144.720889 
L 534.674083 146.73185 
L 534.903307 146.353951 
L 535.361755 131.602402 
L 535.590979 135.637822 
L 535.820203 133.748328 
L 536.049427 133.532385 
M 547.739852 134.234197 
L 548.1983 138.903947 
M 548.656748 137.986192 
L 548.885972 135.286916 
M 564.702428 112.950398 
L 564.931652 110.696502 
L 565.160876 116.418969 
L 565.619324 114.192066 
L 566.077772 114.880382 
L 566.306996 109.616791 
L 566.53622 111.965162 
L 566.765444 108.334635 
L 566.994668 107.052478 
L 567.223892 103.921317 
L 567.68234 94.419862 
L 567.911564 90.937795 
L 568.140788 89.358718 
M 569.516132 77.400921 
L 569.745356 77.414417 
L 569.97458 74.634162 
L 570.203804 77.427913 
L 570.662252 73.986335 
L 570.891476 69.289593 
M 572.496044 73.149559 
" clip-path="url(#p9c462f7825)" style="fill: none; stroke: #00ff7f; stroke-linecap: square"/>
   </g>
   <g id="line2d_17">
    <path d="M 110.609671 320.997172 
L 110.838895 320.092914 
M 119.549407 323.156593 
L 119.778631 324.533225 
L 120.007855 324.209311 
L 120.237079 325.032591 
M 129.864487 322.954147 
L 130.093711 323.291557 
M 191.067297 289.995976 
L 191.296521 289.118711 
M 232.327618 287.418166 
L 232.786066 287.040267 
L 233.01529 286.109017 
L 233.244514 286.473419 
M 266.481995 279.171875 
L 266.940443 279.117889 
L 267.169667 279.576766 
L 267.398891 279.509285 
L 267.628115 280.966894 
L 267.857339 279.914176 
L 268.086563 280.04914 
L 268.545011 280.912909 
L 268.774235 280.062636 
L 269.003459 279.914176 
L 269.232683 280.157111 
L 269.461907 280.238089 
M 270.149579 285.177766 
L 270.378803 285.893075 
L 270.608027 285.879578 
L 270.837251 286.338455 
L 271.066475 285.65014 
L 271.295699 286.419434 
L 271.524923 286.041535 
L 271.754147 286.878311 
L 271.983371 286.878311 
L 272.212595 287.040267 
L 272.441819 286.338455 
L 272.671043 287.620612 
M 278.630868 293.950416 
L 278.860092 294.247337 
L 279.089316 293.909927 
L 279.31854 295.758932 
M 287.570604 287.094253 
L 287.799828 288.659833 
L 288.029052 289.402135 
L 288.258276 289.64507 
M 289.63362 289.968983 
L 289.862844 290.076954 
M 310.493005 274.772053 
L 310.722229 274.947506 
L 310.951453 274.137723 
L 311.180677 274.137723 
L 311.409901 274.340169 
L 311.639125 274.056745 
M 312.326797 275.23093 
L 312.556021 275.001492 
L 312.785245 277.17441 
L 313.014469 276.769518 
L 313.243693 276.040714 
M 351.753326 248.562074 
L 351.98255 245.646855 
L 352.211774 245.646855 
L 352.440998 246.173214 
M 352.899446 245.25546 
L 353.12867 246.011257 
L 353.357894 248.251657 
L 353.587118 248.858994 
M 355.191686 259.062261 
L 355.42091 258.238982 
L 355.650134 260.56036 
L 355.879358 259.386175 
L 356.108582 259.953023 
L 356.337806 260.22295 
L 356.56703 261.113712 
L 356.796254 261.5321 
L 357.025478 259.44016 
L 357.254702 258.630377 
L 357.483926 258.603384 
L 357.71315 260.924763 
M 373.988054 254.945864 
L 374.217278 254.567965 
L 374.446502 254.567965 
L 374.675726 255.971589 
L 374.90495 256.376481 
M 390.033735 234.255906 
L 390.492183 232.703822 
L 390.721407 232.514872 
L 390.950631 234.984711 
L 391.179855 234.728279 
L 391.638303 235.673026 
L 391.867527 235.241142 
L 392.096751 236.253371 
L 392.555199 239.384532 
L 393.013647 242.097306 
L 393.242871 241.881363 
L 393.472095 242.8666 
L 393.930543 249.533814 
M 397.139679 261.694056 
L 397.368903 258.697859 
L 397.598127 259.534635 
M 422.812768 232.055995 
L 423.041992 232.258441 
L 423.271216 232.136974 
L 423.50044 236.698752 
L 423.729664 237.11714 
L 423.958888 236.968679 
L 424.188112 236.388335 
M 425.563456 238.898662 
L 425.79268 238.561253 
L 426.021904 239.924388 
L 426.251128 245.633358 
L 426.480352 246.159717 
M 427.855696 243.64939 
L 428.08492 243.069045 
L 428.314144 242.82611 
L 428.543368 240.261797 
M 436.795432 245.25546 
L 437.024656 244.486166 
L 437.712328 250.18164 
M 438.858448 252.476026 
L 439.087672 250.478561 
L 439.316896 249.898216 
L 439.54612 250.154647 
M 445.505945 236.064422 
L 445.735169 235.389602 
L 445.964393 235.281631 
L 446.193617 234.620308 
L 446.422841 237.036161 
L 446.652065 236.509802 
L 447.110513 238.19685 
L 447.339737 238.061886 
L 447.568961 238.237339 
L 447.798185 239.222576 
M 469.803689 226.212061 
L 470.032913 226.25255 
M 471.179033 220.934974 
L 471.408257 223.890682 
M 471.866705 219.38289 
L 472.095929 221.083434 
M 472.554377 230.24748 
L 473.012825 244.958539 
M 473.471273 240.342776 
L 473.700497 243.689879 
M 509.230219 157.083577 
L 509.459443 153.574517 
M 527.568139 153.979409 
L 527.797363 148.391905 
L 528.026587 150.267903 
L 528.255811 150.996708 
L 528.485035 153.034662 
L 528.714259 151.104679 
M 579.372765 42.580248 
L 579.601989 44.172821 
L 579.601989 44.172821 
" clip-path="url(#p9c462f7825)" style="fill: none; stroke: #ff4500; stroke-linecap: square"/>
   </g>
   <g id="line2d_18">
    <path d="M 72.329261 338.596458 
L 72.558485 338.367019 
L 72.787709 339.244284 
L 73.016933 339.149809 
L 73.246157 338.758414 
L 73.475381 338.62345 
L 73.704605 338.677436 
L 74.163053 339.568197 
L 74.392277 338.893378 
L 74.621501 339.095824 
L 74.850725 338.070099 
L 75.079949 338.394012 
L 75.309173 337.597725 
L 75.538397 337.746185 
L 75.767621 337.557236 
L 75.996845 337.786674 
L 76.226069 337.678703 
L 76.455293 339.041838 
M 80.352102 333.049443 
L 80.581326 333.832234 
L 80.81055 333.427342 
L 81.039774 333.400349 
L 81.268998 332.469099 
M 81.727446 332.496092 
L 81.95667 332.617559 
L 82.185894 333.008954 
L 82.415118 332.91448 
L 82.644342 332.212668 
L 82.873566 332.590566 
L 83.10279 332.658048 
L 83.561238 332.050711 
L 84.019686 333.373357 
L 84.24891 333.035947 
L 84.707358 336.760949 
L 85.165806 334.061672 
L 85.624254 335.019916 
L 85.853478 335.397814 
L 86.082702 334.62852 
L 86.311926 334.655513 
L 86.770374 334.250622 
L 86.999598 334.830966 
M 89.521062 332.469099 
L 89.750286 331.497359 
L 89.97951 331.078971 
L 90.208734 331.645819 
L 90.437958 331.672812 
L 90.667182 331.051978 
L 90.896406 331.15995 
L 91.12563 331.105964 
L 91.354854 330.471634 
L 91.813302 330.458137 
L 92.27175 329.337938 
L 92.500974 329.810311 
L 92.730198 330.647087 
L 92.959422 330.863029 
L 93.188646 331.578337 
L 93.876318 329.418916 
L 94.105542 329.486398 
L 94.334766 328.838571 
L 94.793214 330.417648 
L 95.022438 327.907321 
L 95.251662 328.555147 
L 95.480886 328.393191 
L 95.71011 327.94781 
L 96.168558 331.024986 
L 96.397782 330.876525 
L 96.627006 331.267921 
L 96.85623 330.714569 
L 97.314678 326.247265 
L 97.543902 326.800617 
L 97.773126 326.787121 
L 98.00235 328.123263 
L 98.231574 327.6104 
M 98.690022 328.366198 
L 98.919246 328.649622 
L 99.14847 328.163752 
L 99.377694 328.312212 
L 99.606918 328.663118 
L 99.836142 327.272991 
L 100.065366 326.571179 
L 100.29459 326.274258 
L 100.523814 326.787121 
L 100.753038 326.962574 
L 101.211486 326.97607 
L 101.669934 324.10134 
L 101.899158 325.639928 
L 102.128382 326.409222 
L 102.357606 325.37 
L 102.58683 326.04482 
L 102.816054 325.572446 
L 103.274502 325.950345 
L 103.503726 325.167555 
L 103.73295 324.870634 
L 103.962174 325.518461 
L 104.191398 325.235037 
L 104.420622 326.422718 
M 105.108294 325.666921 
L 105.337518 324.344275 
L 105.566742 324.236304 
L 105.795966 324.816649 
L 106.02519 324.789656 
L 106.254414 324.047355 
L 106.483638 325.882863 
L 106.942086 325.167555 
L 107.400534 322.130868 
L 107.629758 321.928422 
L 107.858982 322.576249 
L 108.088206 321.901429 
L 108.775878 323.831413 
L 109.234326 322.481774 
L 109.46355 322.765198 
L 109.692774 323.979873 
L 109.921998 324.452246 
L 110.151223 323.939384 
L 110.380447 322.562752 
M 111.068119 320.335849 
L 111.526567 322.130868 
L 111.755791 326.328244 
L 111.985015 325.154058 
L 112.443463 325.761396 
L 112.672687 325.41049 
L 112.901911 325.572446 
L 113.131135 326.125798 
L 113.589583 327.448444 
L 113.818807 326.962574 
L 114.048031 327.299983 
L 114.277255 325.450979 
L 114.506479 325.747899 
M 114.964927 326.355236 
L 115.194151 326.922085 
L 115.423375 326.625164 
L 115.652599 326.598171 
L 115.881823 327.245998 
L 116.111047 324.992102 
L 116.340271 324.897627 
L 116.569495 325.464475 
L 117.027943 324.479239 
L 117.257167 324.033858 
L 117.486391 324.303786 
L 117.944839 323.332046 
L 118.174063 323.480507 
L 118.632511 325.07308 
L 119.090959 324.681685 
L 119.320183 324.411757 
M 120.466303 325.181051 
L 120.695527 325.950345 
L 120.924751 325.666921 
L 121.153975 325.761396 
L 121.383199 325.22154 
L 121.612423 325.653424 
L 121.841647 325.423986 
L 122.300095 328.163752 
L 122.529319 327.448444 
L 122.758543 327.731868 
L 122.987767 328.663118 
M 125.509231 327.394458 
L 125.738455 327.232502 
L 125.967679 326.692646 
L 126.196903 326.476704 
L 126.426127 325.275526 
L 126.655351 321.752969 
L 126.884575 321.618005 
L 127.113799 322.68422 
L 127.343023 322.468278 
L 127.572247 321.874437 
M 128.489143 322.738205 
L 128.718367 323.453514 
L 128.947591 323.561485 
L 129.176815 324.465743 
L 129.635263 323.426521 
M 130.322935 323.332046 
L 130.552159 323.736938 
M 131.010607 324.938116 
L 131.239831 324.708678 
L 131.469055 324.695181 
L 131.698279 324.182319 
L 131.927503 324.209311 
L 132.156727 323.494003 
M 132.615175 324.006866 
L 132.844399 324.830145 
L 133.073623 327.084041 
L 133.302847 327.138027 
L 133.532071 326.04482 
L 133.990519 327.704875 
L 134.219743 327.259494 
L 134.907415 327.043552 
L 135.136639 327.205509 
L 135.365863 326.04482 
L 135.595087 327.826342 
L 135.824311 326.557682 
L 136.053535 327.6104 
L 136.511983 327.542918 
L 136.741207 328.24473 
L 137.199655 326.800617 
L 137.887327 329.324441 
L 138.116551 329.445909 
L 138.574999 327.745364 
L 139.033447 329.243463 
M 140.179567 328.91955 
L 140.408791 326.922085 
L 140.638015 326.692646 
M 141.096463 327.16502 
L 141.325687 326.760128 
L 141.554911 326.665653 
L 141.784135 326.760128 
L 142.013359 326.476704 
L 142.242583 326.544186 
L 142.471807 326.233769 
L 142.701031 325.734403 
L 142.930255 325.950345 
L 143.159479 325.977338 
L 143.388704 326.895092 
M 144.764048 328.258227 
L 145.222496 328.015292 
L 145.45172 327.434947 
L 145.680944 327.178516 
L 145.910168 326.503697 
L 146.139392 326.206776 
L 146.368616 325.437482 
L 146.59784 325.248533 
L 146.827064 325.262029 
L 147.056288 325.113569 
L 147.285512 325.140562 
L 147.514736 325.666921 
L 147.74396 325.612935 
L 147.973184 326.503697 
L 148.202408 326.179783 
L 148.431632 326.476704 
L 148.89008 325.882863 
L 149.119304 326.368733 
L 149.348528 325.680417 
L 149.577752 325.990834 
L 150.0362 325.545453 
L 150.265424 325.423986 
M 154.391456 320.673258 
L 154.62068 319.580051 
L 154.849904 319.121174 
L 155.079128 319.310124 
L 155.308352 319.080685 
L 155.7668 319.32362 
L 156.454472 319.202152 
L 156.683696 318.797261 
L 157.142144 317.177695 
L 157.600592 318.635304 
L 157.829816 318.149434 
L 158.05904 318.567822 
L 158.288264 318.716283 
L 158.517488 318.50034 
L 158.746712 317.731047 
L 158.975936 317.515104 
L 159.20516 317.123709 
L 159.434384 317.204688 
L 159.892832 318.513837 
L 160.122056 317.825521 
L 160.35128 318.581319 
L 160.809728 318.20342 
L 161.268176 319.215649 
L 161.726624 317.879507 
L 161.955848 317.86601 
L 162.185072 318.432859 
L 162.414296 316.867278 
L 162.872744 317.731047 
M 169.749464 304.828503 
L 169.978688 304.31564 
L 170.207912 305.246891 
L 170.437136 305.368358 
L 170.66636 304.059209 
L 170.895584 304.963466 
L 171.124808 303.870259 
L 171.81248 302.669081 
L 172.041704 301.009026 
L 172.270928 301.346435 
M 172.729376 301.454406 
L 172.9586 302.655585 
L 173.187824 302.048247 
L 173.417048 303.53285 
L 173.646272 301.197975 
L 173.875496 300.293717 
L 174.10472 299.915818 
L 174.333944 298.647158 
L 174.563168 298.512194 
L 174.792392 299.092539 
L 175.021616 299.106035 
L 175.25084 297.661922 
L 175.480064 297.688915 
L 175.709288 297.351505 
L 176.167736 301.022522 
L 176.39696 300.820076 
L 176.855409 296.217809 
L 177.084633 297.985835 
L 177.313857 298.633662 
L 177.543081 298.620166 
L 177.772305 299.254496 
L 178.001529 300.65812 
L 178.230753 298.444713 
L 178.459977 300.428681 
L 178.689201 299.34897 
L 178.918425 296.339276 
L 179.147649 296.123334 
L 179.376873 295.138098 
L 179.835321 296.784657 
L 180.064545 295.826414 
M 181.210665 293.747971 
L 181.439889 293.167626 
M 182.127561 293.801956 
L 182.356785 292.776231 
L 182.586009 292.96518 
L 182.815233 292.398332 
L 183.044457 292.33085 
L 183.273681 292.641267 
L 183.502905 290.927226 
L 183.732129 290.697788 
L 183.961353 289.45612 
L 184.649025 290.211918 
L 184.878249 288.862279 
L 185.107473 288.97025 
L 185.336697 290.306392 
L 185.565921 289.577588 
L 185.795145 290.994708 
L 186.024369 289.982479 
L 186.253593 291.602045 
L 186.482817 291.588549 
L 186.712041 289.064725 
L 186.941265 290.117443 
L 187.170489 288.389906 
L 187.399713 289.564091 
L 187.628937 289.631573 
L 187.858161 289.577588 
L 188.087385 288.67333 
L 188.545833 288.160467 
L 189.004281 291.871973 
L 189.462729 289.253674 
L 189.691953 289.807026 
L 189.921177 289.807026 
L 190.379625 288.902768 
L 190.608849 290.184925 
L 190.838073 289.240178 
M 191.525745 290.589817 
L 191.754969 290.360378 
L 191.984193 291.129672 
L 192.213417 290.225414 
L 192.442641 292.290361 
L 192.671865 292.18239 
L 192.901089 291.35911 
L 193.130313 291.588549 
L 193.359537 291.183657 
L 193.588761 291.467082 
L 193.817985 293.248604 
L 194.047209 293.383568 
L 194.505657 297.270527 
L 194.734881 294.787192 
L 194.964105 294.044891 
L 195.193329 295.151595 
L 195.422553 294.692718 
L 195.881001 291.332118 
L 196.110225 291.386103 
L 196.339449 290.778766 
L 196.568673 291.534563 
L 196.797897 292.681756 
L 197.027121 291.561556 
M 197.485569 293.262101 
L 197.714793 297.756397 
L 197.944017 297.459476 
L 198.173241 296.352773 
L 198.402465 296.298787 
L 198.631689 294.760199 
L 198.860913 295.124602 
L 199.090137 295.758932 
L 199.319361 295.54299 
L 199.548585 295.529493 
L 199.777809 294.854674 
L 200.236257 296.015363 
L 200.465481 297.513462 
L 200.694705 297.715908 
L 200.923929 296.852139 
L 201.153153 297.027592 
L 201.382377 297.041088 
M 201.840825 296.541722 
L 202.070049 296.17732 
L 202.299273 295.529493 
L 202.528497 295.745436 
L 202.986945 294.922156 
L 203.445393 296.190816 
L 204.133065 299.821344 
L 204.362289 299.456941 
L 204.820737 300.793083 
L 205.049961 299.281488 
L 205.279185 300.415185 
L 205.508409 299.753862 
L 205.966857 298.026325 
L 206.196081 297.904857 
L 206.654529 298.120799 
L 206.883753 299.065546 
M 207.571425 299.187014 
L 207.800649 298.836108 
M 209.175993 296.595708 
L 209.405217 297.203045 
L 209.863666 295.812917 
L 210.09289 296.66319 
L 210.322114 296.366269 
L 210.551338 296.312284 
L 210.780562 296.514729 
L 211.009786 297.122067 
L 211.23901 294.098877 
L 211.468234 292.884202 
L 211.926682 291.656031 
L 212.155906 289.834019 
L 212.38513 291.440089 
L 213.072802 299.794351 
L 213.302026 297.418987 
L 213.53125 297.000599 
L 213.760474 297.823879 
L 213.989698 296.852139 
L 214.218922 298.768626 
L 214.448146 297.027592 
L 214.67737 296.946614 
L 214.906594 298.701144 
L 215.135818 296.66319 
L 215.365042 298.282756 
L 215.594266 298.525691 
L 215.82349 297.580944 
L 216.052714 298.22877 
L 216.281938 296.487737 
L 216.740386 295.084113 
M 217.657282 297.44598 
L 217.886506 297.78339 
L 218.11573 297.499966 
M 219.032626 296.015363 
L 219.26185 295.421522 
L 219.491074 293.343079 
L 219.720298 294.125869 
L 219.949522 293.316086 
L 220.178746 291.453585 
L 220.40797 291.237643 
L 220.637194 290.589817 
L 221.095642 292.978677 
L 221.324866 292.155397 
L 221.55409 291.979944 
L 221.783314 291.102679 
L 222.012538 291.898966 
L 222.241762 292.060922 
L 222.470986 291.116176 
L 222.70021 290.940723 
M 223.158658 290.940723 
L 223.387882 290.306392 
L 223.617106 290.508838 
L 224.075554 290.643802 
L 224.304778 290.400867 
L 224.534002 291.54806 
L 224.763226 290.900233 
L 224.99245 291.494074 
L 225.221674 293.005669 
L 225.450898 291.224147 
L 225.680122 292.870706 
L 225.909346 292.074419 
M 226.597018 291.885469 
L 226.826242 291.035197 
L 227.055466 291.156665 
L 227.28469 287.944525 
L 227.743138 285.758111 
L 227.972362 285.46119 
L 228.201586 285.825593 
L 228.43081 286.824325 
L 228.660034 286.109017 
L 229.118482 288.82179 
L 229.347706 286.608383 
L 229.57693 287.026771 
L 229.806154 286.055031 
L 230.035378 287.472152 
L 230.264602 287.40467 
L 230.493826 288.97025 
L 230.72305 288.106482 
L 230.952274 289.118711 
L 231.181498 287.458655 
L 231.639946 290.481845 
L 231.86917 289.132207 
L 232.098394 288.767805 
M 233.473738 287.580123 
L 233.702962 288.605848 
L 233.932186 288.389906 
L 234.619858 294.544257 
L 234.849082 292.114908 
L 235.078306 291.318621 
L 235.30753 295.866903 
L 235.536754 295.853407 
L 235.765978 297.095074 
L 235.995202 296.460744 
L 236.224426 298.336741 
L 236.45365 296.649693 
M 236.912098 295.866903 
L 237.141322 295.731939 
L 237.59977 296.771161 
L 237.828994 293.491539 
L 238.058218 292.141901 
L 238.287442 293.208115 
L 238.516666 299.214006 
L 238.74589 298.485202 
L 239.204338 304.437107 
L 239.433562 303.627324 
L 239.662786 303.748792 
M 240.350458 299.20051 
L 240.579682 298.431216 
L 240.808906 298.809115 
L 241.267354 296.447248 
M 245.393387 290.306392 
L 245.622611 289.078221 
L 245.851835 288.686826 
L 246.081059 288.646337 
L 246.310283 289.280667 
L 246.539507 289.294164 
L 246.768731 288.997243 
L 247.227179 287.607115 
L 247.456403 287.971518 
L 247.685627 286.959289 
L 248.144075 287.809561 
L 248.373299 287.512641 
L 248.602523 288.511373 
L 248.831747 288.943258 
L 249.060971 288.781301 
L 249.290195 287.998511 
L 249.519419 286.743347 
L 249.748643 286.959289 
L 249.977867 285.866082 
L 250.207091 285.7986 
L 250.436315 287.080756 
L 250.665539 287.175231 
L 250.894763 287.863547 
L 251.353211 287.377677 
L 251.582435 287.202224 
L 251.811659 286.365448 
L 252.040883 288.457388 
L 252.270107 287.607115 
L 252.499331 287.445159 
L 252.728555 288.025503 
L 252.957779 287.863547 
L 253.187003 288.794797 
L 253.645451 287.85005 
L 253.874675 286.297966 
M 254.791571 286.28447 
L 255.020795 287.539634 
L 255.250019 284.125048 
L 255.479243 282.424504 
L 255.708467 282.478489 
L 255.937691 283.760646 
M 256.396139 282.316533 
L 256.854587 281.763181 
L 257.083811 282.060101 
L 257.313035 281.871152 
L 257.542259 281.209829 
L 257.771483 282.222058 
L 258.000707 284.327494 
L 258.229931 282.856388 
L 258.459155 283.747149 
L 258.688379 284.030573 
L 258.917603 284.516443 
L 259.146827 285.60965 
L 259.376051 287.526137 
L 259.834499 284.705393 
L 260.063723 284.367983 
M 260.751395 284.462458 
L 260.980619 284.165537 
M 261.668291 284.894342 
L 261.897515 285.258744 
L 262.126739 283.355754 
L 262.355963 282.77541 
L 262.585187 283.018345 
L 263.043635 281.587728 
L 263.272859 279.0774 
L 263.502083 278.456566 
L 263.731307 278.267617 
L 263.960531 280.008651 
L 264.189755 279.360824 
L 264.418979 279.981658 
L 264.648203 279.644248 
L 264.877427 280.319068 
L 265.106651 280.602492 
L 265.335875 282.033108 
L 265.794323 280.899412 
L 266.023547 280.804937 
L 266.252771 281.209829 
M 269.691131 286.446426 
L 269.920355 287.053764 
M 272.900267 288.389906 
L 273.129491 290.157932 
L 273.358715 293.343079 
L 273.587939 292.357843 
L 273.817163 294.27433 
L 274.046387 294.220344 
L 274.275611 293.963913 
L 274.504835 294.449783 
L 274.734059 293.963913 
L 274.963283 293.882934 
L 275.192507 292.96518 
L 275.421731 292.924691 
L 275.650955 292.560289 
L 275.880179 294.638732 
L 276.109403 293.707481 
L 276.797076 292.749238 
L 277.0263 292.776231 
L 277.255524 292.087915 
L 277.484748 292.695253 
M 277.943196 293.977409 
L 278.17242 294.42279 
L 278.401644 295.610472 
M 279.547764 295.408026 
L 279.776988 296.285291 
L 280.006212 295.880399 
L 280.235436 294.854674 
L 280.46466 294.409293 
L 280.693884 297.796886 
L 280.923108 299.281488 
L 281.61078 300.253228 
L 281.840004 301.629859 
M 282.7569 299.470438 
L 282.986124 300.037286 
L 283.215348 298.647158 
L 283.444572 296.460744 
L 283.90302 295.718443 
L 284.132244 297.014096 
M 285.278364 293.586014 
L 285.507588 293.343079 
L 285.736812 292.749238 
L 285.966036 294.112373 
L 286.19526 294.773696 
L 286.424484 294.989638 
L 286.653708 294.382301 
L 286.882932 292.614274 
L 287.112156 292.141901 
L 287.34138 292.411828 
M 288.4875 289.45612 
L 288.716724 290.927226 
L 288.945948 290.778766 
L 289.175172 291.737009 
L 289.404396 291.790995 
M 290.092068 291.669527 
L 290.321292 292.627771 
L 290.550516 292.722245 
L 290.77974 293.613007 
L 291.238188 294.220344 
M 291.696636 293.289093 
L 291.92586 294.287826 
L 292.155084 294.449783 
L 292.842756 294.031395 
L 293.07198 293.59951 
L 293.301204 292.830216 
L 293.530428 292.5198 
L 293.759652 293.869438 
L 294.2181 293.356575 
L 294.447324 292.249872 
L 294.676548 290.333385 
L 294.905772 291.602045 
M 295.36422 291.345614 
L 295.593444 290.91373 
M 296.281116 293.100144 
L 296.51034 291.291629 
M 297.885684 290.468349 
L 298.344132 286.405937 
L 298.573356 287.202224 
L 299.031804 285.94706 
L 299.261028 286.554397 
M 300.407148 280.278578 
L 300.636372 281.695699 
L 300.865596 279.968162 
L 301.09482 280.858923 
L 301.324044 281.101858 
L 301.553268 280.440535 
L 301.782492 280.656477 
L 302.011716 280.103125 
L 302.24094 280.103125 
L 302.470164 279.617256 
L 302.699388 277.822236 
L 302.928612 277.889718 
L 303.157836 277.47133 
L 303.38706 279.063904 
L 303.616284 279.644248 
L 303.845508 279.063904 
L 304.074732 278.92894 
L 304.303956 279.252853 
L 304.53318 280.130118 
L 304.762404 278.996422 
L 304.991628 279.252853 
L 305.220852 279.131386 
L 305.6793 279.482292 
M 306.82542 278.969429 
L 307.054644 278.982925 
M 308.659212 277.552309 
L 308.888436 276.607562 
L 309.11766 276.148685 
L 309.346884 275.176945 
L 309.576109 275.122959 
L 310.034557 276.297145 
L 310.263781 274.974499 
M 311.868349 275.892253 
L 312.097573 275.730297 
M 313.472917 276.769518 
L 313.931365 282.438 
L 314.160589 280.440535 
L 314.389813 281.007383 
L 314.619037 283.031841 
L 314.848261 283.89561 
L 315.077485 281.65521 
L 315.306709 281.938634 
L 315.994381 285.218255 
L 316.223605 285.420701 
L 316.452829 284.057566 
L 316.682053 283.544704 
L 317.140501 281.479757 
L 317.369725 281.709195 
L 317.598949 282.505482 
L 317.828173 280.777945 
L 318.057397 281.614721 
L 318.745069 287.539634 
L 318.974293 286.689361 
L 319.203517 287.188728 
L 319.432741 286.257477 
L 319.661965 286.824325 
L 320.120413 284.583925 
L 320.578861 286.837822 
L 320.808085 286.082024 
L 321.037309 286.392441 
L 321.266533 287.296699 
L 321.495757 287.337188 
L 321.724981 286.932296 
L 321.954205 287.55313 
L 322.183429 287.053764 
L 322.412653 287.688094 
L 322.641877 286.513908 
M 323.100325 290.549327 
L 323.329549 289.914997 
L 323.558773 288.052496 
L 323.787997 287.661101 
L 324.017221 286.28447 
L 324.246445 286.986282 
L 324.475669 285.744614 
L 324.704893 285.16427 
L 325.163341 285.056299 
L 325.392565 284.435465 
L 325.621789 284.502947 
L 325.851013 286.001046 
L 326.080237 284.475954 
L 326.309461 286.270973 
L 326.538685 285.933564 
L 326.767909 285.31273 
L 326.997133 289.928494 
L 327.226357 288.511373 
L 327.455581 290.171429 
M 327.914029 290.535831 
L 328.143253 287.877043 
M 329.977045 289.45612 
L 330.206269 288.065993 
L 330.435493 285.65014 
L 330.664717 285.366716 
L 330.893941 284.179034 
L 331.123165 285.60965 
L 331.352389 284.04407 
M 333.644629 283.193798 
L 333.873853 283.274776 
L 334.103077 282.977855 
L 334.332301 282.316533 
L 334.790749 280.413542 
L 335.019973 280.265082 
L 335.249197 279.185371 
L 335.478421 279.725227 
L 335.707645 279.887183 
L 335.936869 280.750952 
L 336.166093 280.602492 
L 336.395317 280.116622 
M 336.853765 280.615988 
L 337.082989 280.737456 
L 337.312213 281.223325 
L 337.541437 280.521513 
L 337.770661 282.181569 
L 337.999885 281.682202 
L 338.229109 280.669974 
L 338.458333 280.899412 
L 338.687557 280.170607 
L 339.146005 283.031841 
L 339.375229 282.303036 
L 339.604453 282.343525 
L 339.833677 286.756843 
L 340.062901 285.042802 
L 340.292125 285.731118 
L 340.521349 285.434197 
M 341.896693 284.435465 
L 342.584366 280.265082 
L 343.272038 283.26128 
L 343.501262 282.464993 
L 343.95971 277.781747 
L 344.188934 277.687273 
L 344.418158 276.526583 
L 344.647382 271.384461 
L 344.876606 273.719335 
M 350.83643 254.082095 
L 351.065654 253.933635 
L 351.294878 252.975392 
L 351.524102 253.407276 
M 353.816342 250.03318 
L 354.045566 253.218327 
L 354.27479 258.50891 
L 354.504014 254.945864 
M 357.942374 269.292521 
L 358.171598 271.492432 
L 358.400822 275.028485 
L 358.85927 272.626128 
L 359.088494 273.989263 
L 359.317718 273.921781 
L 359.546942 272.410186 
L 359.776166 271.870331 
L 360.00539 273.948774 
L 360.234614 273.624861 
L 360.463838 274.758557 
L 360.693062 272.788085 
L 360.922286 274.421147 
L 361.15151 274.502126 
L 361.380734 272.450675 
L 361.839182 277.147417 
L 362.068406 269.683916 
L 362.29763 274.191709 
L 362.526854 274.29968 
L 362.756078 271.775856 
L 362.985302 276.040714 
L 363.214526 274.880024 
L 363.44375 271.357468 
M 363.902198 271.114533 
L 364.131422 275.163449 
L 364.360646 272.599135 
L 364.58987 273.260458 
L 364.819094 272.734099 
L 365.048318 273.827306 
L 365.277542 274.056745 
L 365.506766 273.921781 
L 365.73599 273.584372 
L 366.194438 277.349863 
L 366.423662 276.364627 
L 366.88211 280.238089 
L 367.111334 277.80874 
L 367.340558 276.837 
L 367.569782 278.955933 
L 367.799006 278.240624 
L 368.02823 276.890986 
M 371.46659 262.409365 
L 371.695814 259.980016 
L 371.925038 259.710088 
L 372.154262 260.938259 
L 372.383486 258.724852 
M 372.841934 260.870777 
L 373.071158 258.495413 
L 373.300382 258.616881 
L 373.75883 256.228021 
M 375.134174 256.349488 
L 375.592622 257.726119 
L 375.821847 257.348221 
L 376.051071 256.511445 
L 376.280295 257.645141 
L 376.509519 259.494146 
L 376.738743 259.116247 
M 378.114087 261.289165 
L 378.572535 259.345685 
L 378.801759 256.578927 
L 379.260207 257.53717 
L 379.489431 255.809633 
L 379.718655 255.742151 
L 380.406327 253.366787 
L 380.635551 254.352023 
L 380.864775 253.677204 
L 381.323223 256.56543 
L 381.781671 257.942061 
L 382.010895 256.214524 
L 382.240119 256.133546 
L 382.469343 257.996047 
M 388.429167 242.299751 
L 388.887615 236.104911 
L 389.116839 235.888969 
L 389.346063 238.034894 
L 389.575287 236.496306 
L 389.804511 236.698752 
M 394.159767 248.008722 
L 394.388991 248.939973 
M 394.847439 251.949667 
L 395.076663 255.63418 
L 395.305887 255.796136 
L 395.535111 257.415702 
L 395.764335 257.780105 
L 395.993559 259.92603 
L 396.222783 258.009543 
L 396.452007 263.637536 
L 396.681231 264.879203 
L 396.910455 262.341883 
M 397.827351 259.197225 
L 398.056575 258.603384 
L 398.285799 254.433001 
L 398.515023 255.958093 
L 398.744247 259.534635 
L 398.973471 261.113712 
L 399.202695 261.19469 
L 399.431919 262.112444 
L 399.661143 263.7725 
L 399.890367 264.352844 
L 400.119591 266.917157 
L 400.348815 273.894788 
L 400.578039 270.93908 
L 400.807263 271.694878 
L 401.036487 269.67042 
L 401.494935 263.759003 
L 401.724159 264.420326 
L 401.953383 262.841249 
L 402.182607 262.94922 
L 402.411831 268.293789 
L 402.641055 267.457013 
L 402.870279 269.548952 
L 403.328727 269.440981 
L 403.787175 262.94922 
L 404.016399 264.204384 
L 404.245623 268.131832 
L 404.474847 266.768697 
L 404.704071 268.293789 
M 405.620967 267.335545 
L 405.850191 266.228842 
L 406.079415 266.215345 
L 406.308639 265.554023 
L 406.537863 265.67549 
L 406.767087 267.160092 
L 407.225535 261.113712 
L 407.454759 258.441428 
L 407.683983 259.251211 
L 407.913207 260.668331 
L 408.142431 258.886808 
L 408.371655 259.413167 
L 408.600879 262.112444 
L 408.830103 263.394601 
L 409.059328 265.97241 
L 409.288552 262.01797 
M 412.497688 259.062261 
L 412.726912 259.453657 
L 413.18536 253.272312 
L 413.414584 253.20483 
L 413.643808 249.520317 
L 414.102256 247.603831 
L 414.33148 247.79278 
L 414.560704 246.780551 
L 414.789928 248.481096 
L 415.019152 248.454103 
L 415.248376 244.958539 
L 415.4776 248.373125 
L 415.936048 250.937438 
L 416.165272 251.180373 
L 416.394496 252.08463 
M 420.291304 242.461708 
L 420.520528 243.190513 
L 420.749752 241.867867 
L 421.2082 237.2656 
L 421.437424 235.0252 
L 421.666648 233.931993 
L 421.895872 237.508535 
L 422.125096 236.671759 
L 422.583544 233.297663 
M 424.417336 236.887701 
L 424.64656 238.399296 
L 424.875784 238.750202 
L 425.105008 237.508535 
L 425.334232 240.801653 
M 427.168024 248.953469 
L 427.397248 247.482363 
L 427.626472 244.958539 
M 428.772592 258.02304 
L 429.001816 262.260905 
L 429.23104 261.491611 
M 430.606384 259.521138 
L 430.835608 260.303929 
L 431.064832 260.317425 
L 431.294056 259.615613 
L 431.52328 260.22295 
L 431.752504 260.168965 
M 432.210952 257.105286 
L 432.440176 255.742151 
L 432.6694 255.134813 
M 433.127848 256.956825 
L 433.357072 253.299305 
M 434.273968 256.26851 
L 434.503192 256.106553 
L 434.96164 252.27358 
L 435.420088 250.991423 
L 435.649312 249.54731 
L 435.878536 248.953469 
L 436.10776 248.683541 
L 436.336984 251.085898 
L 436.566208 248.670045 
M 437.941552 251.868688 
L 438.4 251.733724 
L 438.629224 251.463797 
M 439.775344 253.353291 
L 440.004568 255.9311 
L 440.233792 256.282006 
L 440.463016 259.237714 
L 440.921464 257.429199 
L 441.150688 254.608454 
M 443.213705 244.445677 
L 443.442929 244.229734 
M 444.359825 244.202742 
L 444.589049 238.250836 
L 444.818273 238.777195 
L 445.047497 240.153826 
L 445.276721 239.155094 
M 448.027409 240.450747 
L 448.485857 241.719407 
L 448.715081 240.734171 
L 448.944305 240.77466 
L 449.173529 242.367233 
L 449.402753 241.800385 
L 449.631977 242.394226 
M 450.090425 246.645587 
L 450.548873 244.13526 
M 451.007321 246.740062 
L 451.465769 240.653192 
L 451.694993 240.842142 
L 451.924217 238.480274 
L 452.153441 238.601742 
L 452.611889 237.913426 
L 452.841113 239.114605 
L 453.070337 238.412792 
L 453.528785 240.572214 
L 453.758009 239.613971 
L 453.987233 239.532992 
M 454.904129 237.764966 
L 455.362577 238.777195 
L 455.591801 238.142865 
L 455.821025 238.237339 
L 456.050249 236.347846 
L 456.279473 235.740508 
L 456.508697 235.915961 
L 456.737921 237.89993 
L 457.196369 234.296395 
L 457.425593 234.971214 
L 457.654817 237.157629 
L 457.884041 231.17873 
L 458.113265 232.271937 
L 458.342489 230.679364 
L 458.571713 232.29893 
L 459.030161 230.328458 
L 459.488609 233.648569 
M 461.322401 230.679364 
L 461.551625 230.274472 
L 461.780849 228.142044 
L 462.010073 229.167769 
L 462.239297 229.181265 
L 462.468521 227.966591 
L 462.697745 228.614417 
L 462.926969 228.803366 
L 463.156193 228.560432 
L 463.385417 228.614417 
L 463.614641 227.939598 
L 464.073089 228.573928 
L 464.302313 227.629181 
L 464.531537 228.78987 
L 464.760761 227.777641 
L 464.989985 228.749381 
L 465.219209 226.185068 
L 465.448433 225.483256 
L 465.677657 226.900376 
L 465.906881 226.832894 
L 466.365329 228.897841 
L 466.594553 229.235251 
L 466.823777 225.064868 
L 467.053001 226.994851 
L 467.511449 224.592494 
L 467.740673 227.939598 
L 467.969897 228.573928 
L 468.199121 226.69793 
L 468.657569 228.627913 
M 469.116017 232.055995 
L 469.574465 225.375285 
M 470.720585 221.461333 
L 470.949809 221.812239 
M 473.929721 237.306089 
L 474.158945 245.093503 
L 474.388169 248.076204 
L 474.617393 263.043695 
L 474.846617 249.817238 
L 475.075841 256.389977 
L 475.305065 268.84714 
L 475.53429 259.980016 
L 475.763514 292.236375 
L 475.992738 290.616809 
M 477.368082 277.214899 
L 477.597306 271.289986 
L 477.82653 272.815078 
L 478.055754 270.480203 
L 478.284978 274.070241 
L 478.514202 281.668706 
L 478.743426 278.375588 
M 479.201874 270.399225 
L 479.431098 267.443516 
L 479.660322 262.868242 
L 479.889546 261.572589 
L 480.11877 261.721049 
L 480.347994 256.497948 
M 486.537042 227.386246 
L 486.99549 223.404812 
L 487.224714 217.43941 
L 487.453938 217.29095 
L 487.683162 214.281256 
L 487.912386 215.671384 
L 488.14161 212.081346 
L 488.370834 210.920656 
L 488.600058 216.535153 
L 488.829282 213.44448 
L 489.058506 213.660423 
L 489.28773 215.333974 
L 489.516954 214.618666 
M 490.204626 217.817309 
L 490.663074 207.128172 
L 491.121522 209.584514 
L 491.350746 208.383336 
L 491.57997 208.977177 
M 499.373586 182.537759 
L 499.60281 178.812757 
M 500.061258 181.903429 
L 500.290482 176.4104 
L 500.519706 177.08522 
L 500.978154 176.180962 
L 501.436602 166.66601 
L 501.665826 166.274615 
L 501.89505 160.241731 
L 502.124274 165.748256 
L 502.582722 167.934671 
L 503.04117 160.106767 
L 503.499618 179.13667 
L 503.728842 182.713212 
L 503.958066 174.898805 
L 504.18729 176.518371 
L 504.874962 162.07724 
L 505.33341 169.162842 
L 505.562634 174.129511 
M 507.396426 166.355594 
L 507.62565 164.587567 
L 507.854874 165.505321 
L 508.084098 162.738562 
L 508.313322 167.529779 
L 508.771771 159.593905 
L 509.000995 156.408758 
M 509.688667 155.895895 
L 510.147115 150.375874 
L 510.376339 153.844445 
M 510.834787 154.694717 
L 511.064011 159.081042 
L 511.293235 157.879864 
L 511.980907 172.347988 
L 512.210131 173.252246 
L 512.439355 176.828788 
L 512.668579 173.954058 
L 513.127027 163.170447 
L 513.356251 161.780319 
L 513.585475 162.765555 
L 513.814699 183.104607 
L 514.273147 176.963752 
L 514.502371 176.990745 
L 514.731595 175.303697 
L 514.960819 171.700162 
L 515.190043 174.453424 
M 515.877715 187.855335 
L 516.106939 182.807687 
L 516.336163 181.066653 
L 516.565387 181.174624 
L 516.794611 181.458048 
L 517.023835 179.905964 
M 518.399179 186.087308 
L 518.628403 174.089022 
L 518.857627 173.967555 
L 519.086851 177.206687 
L 519.545299 169.770179 
L 519.774523 169.945632 
L 520.003747 169.486755 
L 520.232971 169.945632 
L 520.462195 168.42054 
L 520.691419 168.042642 
M 522.754435 170.121085 
L 522.983659 169.257316 
L 523.442107 165.73476 
L 523.671331 162.131225 
L 524.359003 158.959575 
L 524.588227 159.742365 
L 524.817451 157.542454 
L 525.046675 157.609936 
L 525.275899 157.528958 
L 525.505123 155.234572 
L 525.734347 155.774428 
L 525.963571 163.858762 
L 526.192795 157.609936 
L 526.651243 169.716193 
L 527.338915 156.678686 
M 528.943483 155.288558 
L 529.172707 151.145168 
L 529.401931 151.104679 
L 529.631155 150.591816 
L 530.318827 171.14681 
M 536.278651 131.993798 
L 536.507875 128.741169 
L 536.737099 128.106839 
L 536.966323 128.822147 
L 537.195547 128.093342 
L 537.424771 122.289897 
L 537.653995 119.40167 
L 537.883219 120.656834 
L 538.112443 118.227485 
L 538.570891 109.144418 
L 538.800115 114.866885 
L 539.029339 116.540437 
L 539.258563 115.001849 
L 539.487787 118.524405 
L 539.717011 119.023772 
L 539.946235 121.372143 
L 540.175459 121.561092 
L 540.404683 125.596511 
L 540.633907 122.384372 
L 540.863131 125.34008 
L 541.092355 121.358646 
L 541.321579 119.874044 
L 541.550803 120.278935 
L 541.780027 112.262083 
L 542.009252 108.941972 
M 542.4677 113.071866 
L 542.696924 126.298323 
M 543.155372 121.750041 
L 543.384596 128.201313 
L 543.843044 132.803581 
L 544.072268 129.173053 
L 544.301492 130.441713 
L 544.530716 132.884559 
L 544.75994 129.699412 
M 545.676836 131.278489 
L 545.90606 132.736099 
L 546.364508 133.896788 
L 546.593732 133.437911 
L 546.822956 131.885827 
L 547.05218 132.965537 
L 547.281404 135.421879 
L 547.510628 132.682113 
M 549.115196 131.453942 
L 549.34442 132.236733 
L 550.032092 129.442981 
L 550.261316 128.106839 
L 550.49054 128.417256 
L 550.719764 125.920424 
L 550.948988 126.068885 
L 551.178212 127.364538 
L 551.407436 125.839446 
L 551.63666 129.996333 
L 551.865884 126.581747 
L 552.095108 126.257834 
L 552.553556 130.077311 
L 552.78278 126.014899 
L 553.012004 125.48854 
L 553.241228 129.861369 
L 553.9289 124.638268 
L 554.158124 119.145239 
L 554.845796 130.549684 
L 555.07502 128.889629 
L 555.304244 130.144793 
L 555.533468 132.479667 
L 555.762692 128.444248 
L 555.991916 133.910284 
L 556.22114 132.857566 
L 556.450364 133.559378 
L 556.679588 136.488094 
L 556.908812 134.139723 
L 557.138036 127.674954 
L 557.596484 133.087005 
L 557.825708 129.078578 
M 558.284156 120.643338 
L 558.51338 116.783372 
L 558.742604 109.198403 
L 559.201052 115.703661 
L 559.430276 111.93817 
L 559.6595 112.653478 
L 559.888724 112.316068 
L 560.576396 115.649675 
L 560.80562 111.978659 
L 561.034844 112.208097 
L 561.493292 114.758914 
L 561.722516 116.216524 
L 562.180964 112.113623 
L 562.410188 114.650943 
L 562.639412 112.707464 
L 562.868636 108.834001 
L 563.09786 108.0917 
L 563.327084 113.166341 
L 563.556308 111.816702 
L 563.785532 108.280649 
L 564.014756 109.50882 
L 564.24398 109.657281 
L 564.473204 105.932278 
M 568.370012 86.524477 
L 569.057684 77.333439 
L 569.286908 78.345668 
M 571.579148 74.512694 
L 571.808372 76.348203 
M 572.725268 59.842124 
L 572.954492 58.559967 
L 573.41294 53.444837 
L 573.642164 49.625361 
L 573.871388 50.219201 
L 574.100612 49.247462 
L 574.329836 55.914676 
L 574.55906 54.713498 
L 574.788284 60.098555 
L 575.017508 59.086326 
L 575.246733 52.270652 
L 575.475957 54.565037 
L 575.705181 51.204438 
L 575.934405 43.471009 
L 576.163629 43.700448 
L 576.392853 41.797457 
L 576.622077 37.438125 
L 577.080525 49.4769 
L 577.309749 42.620737 
L 577.997421 58.708428 
L 578.226645 56.872919 
L 578.455869 53.201903 
L 578.685093 52.675544 
L 578.914317 47.803349 
L 579.143541 47.371464 
L 579.143541 47.371464 
" clip-path="url(#p9c462f7825)" style="fill: none; stroke: #1e90ff; stroke-linecap: square"/>
   </g>
   <g id="patch_3">
    <path d="M 46.965625 354.958125 
L 46.965625 22.318125 
" style="fill: none; stroke: #000000; stroke-width: 0.8; stroke-linejoin: miter; stroke-linecap: square"/>
   </g>
   <g id="patch_4">
    <path d="M 604.965625 354.958125 
L 604.965625 22.318125 
" style="fill: none; stroke: #000000; stroke-width: 0.8; stroke-linejoin: miter; stroke-linecap: square"/>
   </g>
   <g id="patch_5">
    <path d="M 46.965625 354.958125 
L 604.965625 354.958125 
" style="fill: none; stroke: #000000; stroke-width: 0.8; stroke-linejoin: miter; stroke-linecap: square"/>
   </g>
   <g id="patch_6">
    <path d="M 46.965625 22.318125 
L 604.965625 22.318125 
" style="fill: none; stroke: #000000; stroke-width: 0.8; stroke-linejoin: miter; stroke-linecap: square"/>
   </g>
   <g id="text_13">
    <!-- LOW, Relative Strength Index (RSI), LOW -->
    <g transform="translate(203.9575 16.318125)scale(0.12 -0.12)">
     <defs>
      <path id="DejaVuSans-4c" d="M 628 4666 
L 1259 4666 
L 1259 531 
L 3531 531 
L 3531 0 
L 628 0 
L 628 4666 
z
" transform="scale(0.015625)"/>
      <path id="DejaVuSans-4f" d="M 2522 4238 
Q 1834 4238 1429 3725 
Q 1025 3213 1025 2328 
Q 1025 1447 1429 934 
Q 1834 422 2522 422 
Q 3209 422 3611 934 
Q 4013 1447 4013 2328 
Q 4013 3213 3611 3725 
Q 3209 4238 2522 4238 
z
M 2522 4750 
Q 3503 4750 4090 4092 
Q 4678 3434 4678 2328 
Q 4678 1225 4090 567 
Q 3503 -91 2522 -91 
Q 1538 -91 948 565 
Q 359 1222 359 2328 
Q 359 3434 948 4092 
Q 1538 4750 2522 4750 
z
" transform="scale(0.015625)"/>
      <path id="DejaVuSans-57" d="M 213 4666 
L 850 4666 
L 1831 722 
L 2809 4666 
L 3519 4666 
L 4500 722 
L 5478 4666 
L 6119 4666 
L 4947 0 
L 4153 0 
L 3169 4050 
L 2175 0 
L 1381 0 
L 213 4666 
z
" transform="scale(0.015625)"/>
      <path id="DejaVuSans-2c" d="M 750 794 
L 1409 794 
L 1409 256 
L 897 -744 
L 494 -744 
L 750 256 
L 750 794 
z
" transform="scale(0.015625)"/>
      <path id="DejaVuSans-52" d="M 2841 2188 
Q 3044 2119 3236 1894 
Q 3428 1669 3622 1275 
L 4263 0 
L 3584 0 
L 2988 1197 
Q 2756 1666 2539 1819 
Q 2322 1972 1947 1972 
L 1259 1972 
L 1259 0 
L 628 0 
L 628 4666 
L 2053 4666 
Q 2853 4666 3247 4331 
Q 3641 3997 3641 3322 
Q 3641 2881 3436 2590 
Q 3231 2300 2841 2188 
z
M 1259 4147 
L 1259 2491 
L 2053 2491 
Q 2509 2491 2742 2702 
Q 2975 2913 2975 3322 
Q 2975 3731 2742 3939 
Q 2509 4147 2053 4147 
L 1259 4147 
z
" transform="scale(0.015625)"/>
      <path id="DejaVuSans-6c" d="M 603 4863 
L 1178 4863 
L 1178 0 
L 603 0 
L 603 4863 
z
" transform="scale(0.015625)"/>
      <path id="DejaVuSans-76" d="M 191 3500 
L 800 3500 
L 1894 563 
L 2988 3500 
L 3597 3500 
L 2284 0 
L 1503 0 
L 191 3500 
z
" transform="scale(0.015625)"/>
      <path id="DejaVuSans-6e" d="M 3513 2113 
L 3513 0 
L 2938 0 
L 2938 2094 
Q 2938 2591 2744 2837 
Q 2550 3084 2163 3084 
Q 1697 3084 1428 2787 
Q 1159 2491 1159 1978 
L 1159 0 
L 581 0 
L 581 3500 
L 1159 3500 
L 1159 2956 
Q 1366 3272 1645 3428 
Q 1925 3584 2291 3584 
Q 2894 3584 3203 3211 
Q 3513 2838 3513 2113 
z
" transform="scale(0.015625)"/>
      <path id="DejaVuSans-67" d="M 2906 1791 
Q 2906 2416 2648 2759 
Q 2391 3103 1925 3103 
Q 1463 3103 1205 2759 
Q 947 2416 947 1791 
Q 947 1169 1205 825 
Q 1463 481 1925 481 
Q 2391 481 2648 825 
Q 2906 1169 2906 1791 
z
M 3481 434 
Q 3481 -459 3084 -895 
Q 2688 -1331 1869 -1331 
Q 1566 -1331 1297 -1286 
Q 1028 -1241 775 -1147 
L 775 -588 
Q 1028 -725 1275 -790 
Q 1522 -856 1778 -856 
Q 2344 -856 2625 -561 
Q 2906 -266 2906 331 
L 2906 616 
Q 2728 306 2450 153 
Q 2172 0 1784 0 
Q 1141 0 747 490 
Q 353 981 353 1791 
Q 353 2603 747 3093 
Q 1141 3584 1784 3584 
Q 2172 3584 2450 3431 
Q 2728 3278 2906 2969 
L 2906 3500 
L 3481 3500 
L 3481 434 
z
" transform="scale(0.015625)"/>
      <path id="DejaVuSans-68" d="M 3513 2113 
L 3513 0 
L 2938 0 
L 2938 2094 
Q 2938 2591 2744 2837 
Q 2550 3084 2163 3084 
Q 1697 3084 1428 2787 
Q 1159 2491 1159 1978 
L 1159 0 
L 581 0 
L 581 4863 
L 1159 4863 
L 1159 2956 
Q 1366 3272 1645 3428 
Q 1925 3584 2291 3584 
Q 2894 3584 3203 3211 
Q 3513 2838 3513 2113 
z
" transform="scale(0.015625)"/>
      <path id="DejaVuSans-49" d="M 628 4666 
L 1259 4666 
L 1259 0 
L 628 0 
L 628 4666 
z
" transform="scale(0.015625)"/>
      <path id="DejaVuSans-64" d="M 2906 2969 
L 2906 4863 
L 3481 4863 
L 3481 0 
L 2906 0 
L 2906 525 
Q 2725 213 2448 61 
Q 2172 -91 1784 -91 
Q 1150 -91 751 415 
Q 353 922 353 1747 
Q 353 2572 751 3078 
Q 1150 3584 1784 3584 
Q 2172 3584 2448 3432 
Q 2725 3281 2906 2969 
z
M 947 1747 
Q 947 1113 1208 752 
Q 1469 391 1925 391 
Q 2381 391 2643 752 
Q 2906 1113 2906 1747 
Q 2906 2381 2643 2742 
Q 2381 3103 1925 3103 
Q 1469 3103 1208 2742 
Q 947 2381 947 1747 
z
" transform="scale(0.015625)"/>
      <path id="DejaVuSans-78" d="M 3513 3500 
L 2247 1797 
L 3578 0 
L 2900 0 
L 1881 1375 
L 863 0 
L 184 0 
L 1544 1831 
L 300 3500 
L 978 3500 
L 1906 2253 
L 2834 3500 
L 3513 3500 
z
" transform="scale(0.015625)"/>
     </defs>
     <use xlink:href="#DejaVuSans-4c"/>
     <use xlink:href="#DejaVuSans-4f" x="52.087891"/>
     <use xlink:href="#DejaVuSans-57" x="130.798828"/>
     <use xlink:href="#DejaVuSans-2c" x="229.675781"/>
     <use xlink:href="#DejaVuSans-20" x="261.462891"/>
     <use xlink:href="#DejaVuSans-52" x="293.25"/>
     <use xlink:href="#DejaVuSans-65" x="358.232422"/>
     <use xlink:href="#DejaVuSans-6c" x="419.755859"/>
     <use xlink:href="#DejaVuSans-61" x="447.539062"/>
     <use xlink:href="#DejaVuSans-74" x="508.818359"/>
     <use xlink:href="#DejaVuSans-69" x="548.027344"/>
     <use xlink:href="#DejaVuSans-76" x="575.810547"/>
     <use xlink:href="#DejaVuSans-65" x="634.990234"/>
     <use xlink:href="#DejaVuSans-20" x="696.513672"/>
     <use xlink:href="#DejaVuSans-53" x="728.300781"/>
     <use xlink:href="#DejaVuSans-74" x="791.777344"/>
     <use xlink:href="#DejaVuSans-72" x="830.986328"/>
     <use xlink:href="#DejaVuSans-65" x="869.849609"/>
     <use xlink:href="#DejaVuSans-6e" x="931.373047"/>
     <use xlink:href="#DejaVuSans-67" x="994.751953"/>
     <use xlink:href="#DejaVuSans-74" x="1058.228516"/>
     <use xlink:href="#DejaVuSans-68" x="1097.4375"/>
     <use xlink:href="#DejaVuSans-20" x="1160.816406"/>
     <use xlink:href="#DejaVuSans-49" x="1192.603516"/>
     <use xlink:href="#DejaVuSans-6e" x="1222.095703"/>
     <use xlink:href="#DejaVuSans-64" x="1285.474609"/>
     <use xlink:href="#DejaVuSans-65" x="1348.951172"/>
     <use xlink:href="#DejaVuSans-78" x="1408.724609"/>
     <use xlink:href="#DejaVuSans-20" x="1467.904297"/>
     <use xlink:href="#DejaVuSans-28" x="1499.691406"/>
     <use xlink:href="#DejaVuSans-52" x="1538.705078"/>
     <use xlink:href="#DejaVuSans-53" x="1608.1875"/>
     <use xlink:href="#DejaVuSans-49" x="1671.664062"/>
     <use xlink:href="#DejaVuSans-29" x="1701.15625"/>
     <use xlink:href="#DejaVuSans-2c" x="1740.169922"/>
     <use xlink:href="#DejaVuSans-20" x="1771.957031"/>
     <use xlink:href="#DejaVuSans-4c" x="1803.744141"/>
     <use xlink:href="#DejaVuSans-4f" x="1855.832031"/>
     <use xlink:href="#DejaVuSans-57" x="1934.542969"/>
    </g>
   </g>
   <g id="legend_1">
    <g id="patch_7">
     <path d="M 53.965625 74.3525 
L 203.875 74.3525 
Q 205.875 74.3525 205.875 72.3525 
L 205.875 29.318125 
Q 205.875 27.318125 203.875 27.318125 
L 53.965625 27.318125 
Q 51.965625 27.318125 51.965625 29.318125 
L 51.965625 72.3525 
Q 51.965625 74.3525 53.965625 74.3525 
z
" style="fill: #ffffff; opacity: 0.8; stroke: #cccccc; stroke-linejoin: miter"/>
    </g>
    <g id="line2d_19">
     <path d="M 55.965625 35.416562 
L 65.965625 35.416562 
L 75.965625 35.416562 
" style="fill: none; stroke: #00ff7f; stroke-linecap: square"/>
    </g>
    <g id="text_14">
     <!-- Oversold, RSI &lt;= 30 -->
     <g transform="translate(83.965625 38.916562)scale(0.1 -0.1)">
      <defs>
       <path id="DejaVuSans-73" d="M 2834 3397 
L 2834 2853 
Q 2591 2978 2328 3040 
Q 2066 3103 1784 3103 
Q 1356 3103 1142 2972 
Q 928 2841 928 2578 
Q 928 2378 1081 2264 
Q 1234 2150 1697 2047 
L 1894 2003 
Q 2506 1872 2764 1633 
Q 3022 1394 3022 966 
Q 3022 478 2636 193 
Q 2250 -91 1575 -91 
Q 1294 -91 989 -36 
Q 684 19 347 128 
L 347 722 
Q 666 556 975 473 
Q 1284 391 1588 391 
Q 1994 391 2212 530 
Q 2431 669 2431 922 
Q 2431 1156 2273 1281 
Q 2116 1406 1581 1522 
L 1381 1569 
Q 847 1681 609 1914 
Q 372 2147 372 2553 
Q 372 3047 722 3315 
Q 1072 3584 1716 3584 
Q 2034 3584 2315 3537 
Q 2597 3491 2834 3397 
z
" transform="scale(0.015625)"/>
       <path id="DejaVuSans-6f" d="M 1959 3097 
Q 1497 3097 1228 2736 
Q 959 2375 959 1747 
Q 959 1119 1226 758 
Q 1494 397 1959 397 
Q 2419 397 2687 759 
Q 2956 1122 2956 1747 
Q 2956 2369 2687 2733 
Q 2419 3097 1959 3097 
z
M 1959 3584 
Q 2709 3584 3137 3096 
Q 3566 2609 3566 1747 
Q 3566 888 3137 398 
Q 2709 -91 1959 -91 
Q 1206 -91 779 398 
Q 353 888 353 1747 
Q 353 2609 779 3096 
Q 1206 3584 1959 3584 
z
" transform="scale(0.015625)"/>
       <path id="DejaVuSans-3c" d="M 4684 3150 
L 1459 2003 
L 4684 863 
L 4684 294 
L 678 1747 
L 678 2266 
L 4684 3719 
L 4684 3150 
z
" transform="scale(0.015625)"/>
       <path id="DejaVuSans-3d" d="M 678 2906 
L 4684 2906 
L 4684 2381 
L 678 2381 
L 678 2906 
z
M 678 1631 
L 4684 1631 
L 4684 1100 
L 678 1100 
L 678 1631 
z
" transform="scale(0.015625)"/>
       <path id="DejaVuSans-33" d="M 2597 2516 
Q 3050 2419 3304 2112 
Q 3559 1806 3559 1356 
Q 3559 666 3084 287 
Q 2609 -91 1734 -91 
Q 1441 -91 1130 -33 
Q 819 25 488 141 
L 488 750 
Q 750 597 1062 519 
Q 1375 441 1716 441 
Q 2309 441 2620 675 
Q 2931 909 2931 1356 
Q 2931 1769 2642 2001 
Q 2353 2234 1838 2234 
L 1294 2234 
L 1294 2753 
L 1863 2753 
Q 2328 2753 2575 2939 
Q 2822 3125 2822 3475 
Q 2822 3834 2567 4026 
Q 2313 4219 1838 4219 
Q 1578 4219 1281 4162 
Q 984 4106 628 3988 
L 628 4550 
Q 988 4650 1302 4700 
Q 1616 4750 1894 4750 
Q 2613 4750 3031 4423 
Q 3450 4097 3450 3541 
Q 3450 3153 3228 2886 
Q 3006 2619 2597 2516 
z
" transform="scale(0.015625)"/>
      </defs>
      <use xlink:href="#DejaVuSans-4f"/>
      <use xlink:href="#DejaVuSans-76" x="78.710938"/>
      <use xlink:href="#DejaVuSans-65" x="137.890625"/>
      <use xlink:href="#DejaVuSans-72" x="199.414062"/>
      <use xlink:href="#DejaVuSans-73" x="240.527344"/>
      <use xlink:href="#DejaVuSans-6f" x="292.626953"/>
      <use xlink:href="#DejaVuSans-6c" x="353.808594"/>
      <use xlink:href="#DejaVuSans-64" x="381.591797"/>
      <use xlink:href="#DejaVuSans-2c" x="445.068359"/>
      <use xlink:href="#DejaVuSans-20" x="476.855469"/>
      <use xlink:href="#DejaVuSans-52" x="508.642578"/>
      <use xlink:href="#DejaVuSans-53" x="578.125"/>
      <use xlink:href="#DejaVuSans-49" x="641.601562"/>
      <use xlink:href="#DejaVuSans-20" x="671.09375"/>
      <use xlink:href="#DejaVuSans-3c" x="702.880859"/>
      <use xlink:href="#DejaVuSans-3d" x="786.669922"/>
      <use xlink:href="#DejaVuSans-20" x="870.458984"/>
      <use xlink:href="#DejaVuSans-33" x="902.246094"/>
      <use xlink:href="#DejaVuSans-30" x="965.869141"/>
     </g>
    </g>
    <g id="line2d_20">
     <path d="M 55.965625 50.094687 
L 65.965625 50.094687 
L 75.965625 50.094687 
" style="fill: none; stroke: #ff4500; stroke-linecap: square"/>
    </g>
    <g id="text_15">
     <!-- Overbought, RSI &gt;= 70 -->
     <g transform="translate(83.965625 53.594687)scale(0.1 -0.1)">
      <defs>
       <path id="DejaVuSans-62" d="M 3116 1747 
Q 3116 2381 2855 2742 
Q 2594 3103 2138 3103 
Q 1681 3103 1420 2742 
Q 1159 2381 1159 1747 
Q 1159 1113 1420 752 
Q 1681 391 2138 391 
Q 2594 391 2855 752 
Q 3116 1113 3116 1747 
z
M 1159 2969 
Q 1341 3281 1617 3432 
Q 1894 3584 2278 3584 
Q 2916 3584 3314 3078 
Q 3713 2572 3713 1747 
Q 3713 922 3314 415 
Q 2916 -91 2278 -91 
Q 1894 -91 1617 61 
Q 1341 213 1159 525 
L 1159 0 
L 581 0 
L 581 4863 
L 1159 4863 
L 1159 2969 
z
" transform="scale(0.015625)"/>
       <path id="DejaVuSans-75" d="M 544 1381 
L 544 3500 
L 1119 3500 
L 1119 1403 
Q 1119 906 1312 657 
Q 1506 409 1894 409 
Q 2359 409 2629 706 
Q 2900 1003 2900 1516 
L 2900 3500 
L 3475 3500 
L 3475 0 
L 2900 0 
L 2900 538 
Q 2691 219 2414 64 
Q 2138 -91 1772 -91 
Q 1169 -91 856 284 
Q 544 659 544 1381 
z
M 1991 3584 
L 1991 3584 
z
" transform="scale(0.015625)"/>
       <path id="DejaVuSans-3e" d="M 678 3150 
L 678 3719 
L 4684 2266 
L 4684 1747 
L 678 294 
L 678 863 
L 3897 2003 
L 678 3150 
z
" transform="scale(0.015625)"/>
       <path id="DejaVuSans-37" d="M 525 4666 
L 3525 4666 
L 3525 4397 
L 1831 0 
L 1172 0 
L 2766 4134 
L 525 4134 
L 525 4666 
z
" transform="scale(0.015625)"/>
      </defs>
      <use xlink:href="#DejaVuSans-4f"/>
      <use xlink:href="#DejaVuSans-76" x="78.710938"/>
      <use xlink:href="#DejaVuSans-65" x="137.890625"/>
      <use xlink:href="#DejaVuSans-72" x="199.414062"/>
      <use xlink:href="#DejaVuSans-62" x="240.527344"/>
      <use xlink:href="#DejaVuSans-6f" x="304.003906"/>
      <use xlink:href="#DejaVuSans-75" x="365.185547"/>
      <use xlink:href="#DejaVuSans-67" x="428.564453"/>
      <use xlink:href="#DejaVuSans-68" x="492.041016"/>
      <use xlink:href="#DejaVuSans-74" x="555.419922"/>
      <use xlink:href="#DejaVuSans-2c" x="594.628906"/>
      <use xlink:href="#DejaVuSans-20" x="626.416016"/>
      <use xlink:href="#DejaVuSans-52" x="658.203125"/>
      <use xlink:href="#DejaVuSans-53" x="727.685547"/>
      <use xlink:href="#DejaVuSans-49" x="791.162109"/>
      <use xlink:href="#DejaVuSans-20" x="820.654297"/>
      <use xlink:href="#DejaVuSans-3e" x="852.441406"/>
      <use xlink:href="#DejaVuSans-3d" x="936.230469"/>
      <use xlink:href="#DejaVuSans-20" x="1020.019531"/>
      <use xlink:href="#DejaVuSans-37" x="1051.806641"/>
      <use xlink:href="#DejaVuSans-30" x="1115.429688"/>
     </g>
    </g>
    <g id="line2d_21">
     <path d="M 55.965625 64.772812 
L 65.965625 64.772812 
L 75.965625 64.772812 
" style="fill: none; stroke: #1e90ff; stroke-linecap: square"/>
    </g>
    <g id="text_16">
     <!-- Neutral -->
     <g transform="translate(83.965625 68.272812)scale(0.1 -0.1)">
      <defs>
       <path id="DejaVuSans-4e" d="M 628 4666 
L 1478 4666 
L 3547 763 
L 3547 4666 
L 4159 4666 
L 4159 0 
L 3309 0 
L 1241 3903 
L 1241 0 
L 628 0 
L 628 4666 
z
" transform="scale(0.015625)"/>
      </defs>
      <use xlink:href="#DejaVuSans-4e"/>
      <use xlink:href="#DejaVuSans-65" x="74.804688"/>
      <use xlink:href="#DejaVuSans-75" x="136.328125"/>
      <use xlink:href="#DejaVuSans-74" x="199.707031"/>
      <use xlink:href="#DejaVuSans-72" x="238.916016"/>
      <use xlink:href="#DejaVuSans-61" x="280.029297"/>
      <use xlink:href="#DejaVuSans-6c" x="341.308594"/>
     </g>
    </g>
   </g>
  </g>
 </g>
 <defs>
  <clipPath id="p9c462f7825">
   <rect x="46.965625" y="22.318125" width="558" height="332.64"/>
  </clipPath>
 </defs>
</svg>
