<?xml version="1.0" encoding="utf-8" standalone="no"?>
<!DOCTYPE svg PUBLIC "-//W3C//DTD SVG 1.1//EN"
  "http://www.w3.org/Graphics/SVG/1.1/DTD/svg11.dtd">
<svg xmlns:xlink="http://www.w3.org/1999/xlink" width="612.165625pt" height="392.514375pt" viewBox="0 0 612.165625 392.514375" xmlns="http://www.w3.org/2000/svg" version="1.1">
 <metadata>
  <rdf:RDF xmlns:dc="http://purl.org/dc/elements/1.1/" xmlns:cc="http://creativecommons.org/ns#" xmlns:rdf="http://www.w3.org/1999/02/22-rdf-syntax-ns#">
   <cc:Work>
    <dc:type rdf:resource="http://purl.org/dc/dcmitype/StillImage"/>
    <dc:date>2023-04-24T15:33:47.851024</dc:date>
    <dc:format>image/svg+xml</dc:format>
    <dc:creator>
     <cc:Agent>
      <dc:title>Matplotlib v3.5.1, https://matplotlib.org/</dc:title>
     </cc:Agent>
    </dc:creator>
   </cc:Work>
  </rdf:RDF>
 </metadata>
 <defs>
  <style type="text/css">*{stroke-linejoin: round; stroke-linecap: butt}</style>
 </defs>
 <g id="figure_1">
  <g id="patch_1">
   <path d="M 0 392.514375 
L 612.165625 392.514375 
L 612.165625 0 
L 0 0 
z
" style="fill: #ffffff"/>
  </g>
  <g id="axes_1">
   <g id="patch_2">
    <path d="M 46.965625 354.958125 
L 604.965625 354.958125 
L 604.965625 22.318125 
L 46.965625 22.318125 
z
" style="fill: #ffffff"/>
   </g>
   <g id="matplotlib.axis_1">
    <g id="xtick_1">
     <g id="line2d_1">
      <defs>
       <path id="m6200f305ff" d="M 0 0 
L 0 3.5 
" style="stroke: #000000; stroke-width: 0.8"/>
      </defs>
      <g>
       <use xlink:href="#m6200f305ff" x="72.329261" y="354.958125" style="stroke: #000000; stroke-width: 0.8"/>
      </g>
     </g>
     <g id="text_1">
      <!-- 0 -->
      <g transform="translate(69.148011 369.556562)scale(0.1 -0.1)">
       <defs>
        <path id="DejaVuSans-30" d="M 2034 4250 
Q 1547 4250 1301 3770 
Q 1056 3291 1056 2328 
Q 1056 1369 1301 889 
Q 1547 409 2034 409 
Q 2525 409 2770 889 
Q 3016 1369 3016 2328 
Q 3016 3291 2770 3770 
Q 2525 4250 2034 4250 
z
M 2034 4750 
Q 2819 4750 3233 4129 
Q 3647 3509 3647 2328 
Q 3647 1150 3233 529 
Q 2819 -91 2034 -91 
Q 1250 -91 836 529 
Q 422 1150 422 2328 
Q 422 3509 836 4129 
Q 1250 4750 2034 4750 
z
" transform="scale(0.015625)"/>
       </defs>
       <use xlink:href="#DejaVuSans-30"/>
      </g>
     </g>
    </g>
    <g id="xtick_2">
     <g id="line2d_2">
      <g>
       <use xlink:href="#m6200f305ff" x="184.063342" y="354.958125" style="stroke: #000000; stroke-width: 0.8"/>
      </g>
     </g>
     <g id="text_2">
      <!-- 500 -->
      <g transform="translate(174.519592 369.556562)scale(0.1 -0.1)">
       <defs>
        <path id="DejaVuSans-35" d="M 691 4666 
L 3169 4666 
L 3169 4134 
L 1269 4134 
L 1269 2991 
Q 1406 3038 1543 3061 
Q 1681 3084 1819 3084 
Q 2600 3084 3056 2656 
Q 3513 2228 3513 1497 
Q 3513 744 3044 326 
Q 2575 -91 1722 -91 
Q 1428 -91 1123 -41 
Q 819 9 494 109 
L 494 744 
Q 775 591 1075 516 
Q 1375 441 1709 441 
Q 2250 441 2565 725 
Q 2881 1009 2881 1497 
Q 2881 1984 2565 2268 
Q 2250 2553 1709 2553 
Q 1456 2553 1204 2497 
Q 953 2441 691 2322 
L 691 4666 
z
" transform="scale(0.015625)"/>
       </defs>
       <use xlink:href="#DejaVuSans-35"/>
       <use xlink:href="#DejaVuSans-30" x="63.623047"/>
       <use xlink:href="#DejaVuSans-30" x="127.246094"/>
      </g>
     </g>
    </g>
    <g id="xtick_3">
     <g id="line2d_3">
      <g>
       <use xlink:href="#m6200f305ff" x="295.797423" y="354.958125" style="stroke: #000000; stroke-width: 0.8"/>
      </g>
     </g>
     <g id="text_3">
      <!-- 1000 -->
      <g transform="translate(283.072423 369.556562)scale(0.1 -0.1)">
       <defs>
        <path id="DejaVuSans-31" d="M 794 531 
L 1825 531 
L 1825 4091 
L 703 3866 
L 703 4441 
L 1819 4666 
L 2450 4666 
L 2450 531 
L 3481 531 
L 3481 0 
L 794 0 
L 794 531 
z
" transform="scale(0.015625)"/>
       </defs>
       <use xlink:href="#DejaVuSans-31"/>
       <use xlink:href="#DejaVuSans-30" x="63.623047"/>
       <use xlink:href="#DejaVuSans-30" x="127.246094"/>
       <use xlink:href="#DejaVuSans-30" x="190.869141"/>
      </g>
     </g>
    </g>
    <g id="xtick_4">
     <g id="line2d_4">
      <g>
       <use xlink:href="#m6200f305ff" x="407.531504" y="354.958125" style="stroke: #000000; stroke-width: 0.8"/>
      </g>
     </g>
     <g id="text_4">
      <!-- 1500 -->
      <g transform="translate(394.806504 369.556562)scale(0.1 -0.1)">
       <use xlink:href="#DejaVuSans-31"/>
       <use xlink:href="#DejaVuSans-35" x="63.623047"/>
       <use xlink:href="#DejaVuSans-30" x="127.246094"/>
       <use xlink:href="#DejaVuSans-30" x="190.869141"/>
      </g>
     </g>
    </g>
    <g id="xtick_5">
     <g id="line2d_5">
      <g>
       <use xlink:href="#m6200f305ff" x="519.265585" y="354.958125" style="stroke: #000000; stroke-width: 0.8"/>
      </g>
     </g>
     <g id="text_5">
      <!-- 2000 -->
      <g transform="translate(506.540585 369.556562)scale(0.1 -0.1)">
       <defs>
        <path id="DejaVuSans-32" d="M 1228 531 
L 3431 531 
L 3431 0 
L 469 0 
L 469 531 
Q 828 903 1448 1529 
Q 2069 2156 2228 2338 
Q 2531 2678 2651 2914 
Q 2772 3150 2772 3378 
Q 2772 3750 2511 3984 
Q 2250 4219 1831 4219 
Q 1534 4219 1204 4116 
Q 875 4013 500 3803 
L 500 4441 
Q 881 4594 1212 4672 
Q 1544 4750 1819 4750 
Q 2544 4750 2975 4387 
Q 3406 4025 3406 3419 
Q 3406 3131 3298 2873 
Q 3191 2616 2906 2266 
Q 2828 2175 2409 1742 
Q 1991 1309 1228 531 
z
" transform="scale(0.015625)"/>
       </defs>
       <use xlink:href="#DejaVuSans-32"/>
       <use xlink:href="#DejaVuSans-30" x="63.623047"/>
       <use xlink:href="#DejaVuSans-30" x="127.246094"/>
       <use xlink:href="#DejaVuSans-30" x="190.869141"/>
      </g>
     </g>
    </g>
    <g id="text_6">
     <!-- Date -->
     <g transform="translate(314.014844 383.234687)scale(0.1 -0.1)">
      <defs>
       <path id="DejaVuSans-44" d="M 1259 4147 
L 1259 519 
L 2022 519 
Q 2988 519 3436 956 
Q 3884 1394 3884 2338 
Q 3884 3275 3436 3711 
Q 2988 4147 2022 4147 
L 1259 4147 
z
M 628 4666 
L 1925 4666 
Q 3281 4666 3915 4102 
Q 4550 3538 4550 2338 
Q 4550 1131 3912 565 
Q 3275 0 1925 0 
L 628 0 
L 628 4666 
z
" transform="scale(0.015625)"/>
       <path id="DejaVuSans-61" d="M 2194 1759 
Q 1497 1759 1228 1600 
Q 959 1441 959 1056 
Q 959 750 1161 570 
Q 1363 391 1709 391 
Q 2188 391 2477 730 
Q 2766 1069 2766 1631 
L 2766 1759 
L 2194 1759 
z
M 3341 1997 
L 3341 0 
L 2766 0 
L 2766 531 
Q 2569 213 2275 61 
Q 1981 -91 1556 -91 
Q 1019 -91 701 211 
Q 384 513 384 1019 
Q 384 1609 779 1909 
Q 1175 2209 1959 2209 
L 2766 2209 
L 2766 2266 
Q 2766 2663 2505 2880 
Q 2244 3097 1772 3097 
Q 1472 3097 1187 3025 
Q 903 2953 641 2809 
L 641 3341 
Q 956 3463 1253 3523 
Q 1550 3584 1831 3584 
Q 2591 3584 2966 3190 
Q 3341 2797 3341 1997 
z
" transform="scale(0.015625)"/>
       <path id="DejaVuSans-74" d="M 1172 4494 
L 1172 3500 
L 2356 3500 
L 2356 3053 
L 1172 3053 
L 1172 1153 
Q 1172 725 1289 603 
Q 1406 481 1766 481 
L 2356 481 
L 2356 0 
L 1766 0 
Q 1100 0 847 248 
Q 594 497 594 1153 
L 594 3053 
L 172 3053 
L 172 3500 
L 594 3500 
L 594 4494 
L 1172 4494 
z
" transform="scale(0.015625)"/>
       <path id="DejaVuSans-65" d="M 3597 1894 
L 3597 1613 
L 953 1613 
Q 991 1019 1311 708 
Q 1631 397 2203 397 
Q 2534 397 2845 478 
Q 3156 559 3463 722 
L 3463 178 
Q 3153 47 2828 -22 
Q 2503 -91 2169 -91 
Q 1331 -91 842 396 
Q 353 884 353 1716 
Q 353 2575 817 3079 
Q 1281 3584 2069 3584 
Q 2775 3584 3186 3129 
Q 3597 2675 3597 1894 
z
M 3022 2063 
Q 3016 2534 2758 2815 
Q 2500 3097 2075 3097 
Q 1594 3097 1305 2825 
Q 1016 2553 972 2059 
L 3022 2063 
z
" transform="scale(0.015625)"/>
      </defs>
      <use xlink:href="#DejaVuSans-44"/>
      <use xlink:href="#DejaVuSans-61" x="77.001953"/>
      <use xlink:href="#DejaVuSans-74" x="138.28125"/>
      <use xlink:href="#DejaVuSans-65" x="177.490234"/>
     </g>
    </g>
   </g>
   <g id="matplotlib.axis_2">
    <g id="ytick_1">
     <g id="line2d_6">
      <path d="M 46.965625 322.724709 
L 604.965625 322.724709 
" clip-path="url(#pe4ec061951)" style="fill: none; stroke: #dcdcdc; stroke-width: 0.5; stroke-linecap: square"/>
     </g>
     <g id="line2d_7">
      <defs>
       <path id="m7f41bd0805" d="M 0 0 
L -3.5 0 
" style="stroke: #000000; stroke-width: 0.8"/>
      </defs>
      <g>
       <use xlink:href="#m7f41bd0805" x="46.965625" y="322.724709" style="stroke: #000000; stroke-width: 0.8"/>
      </g>
     </g>
     <g id="text_7">
      <!-- 50 -->
      <g transform="translate(27.240625 326.523928)scale(0.1 -0.1)">
       <use xlink:href="#DejaVuSans-35"/>
       <use xlink:href="#DejaVuSans-30" x="63.623047"/>
      </g>
     </g>
    </g>
    <g id="ytick_2">
     <g id="line2d_8">
      <path d="M 46.965625 255.242784 
L 604.965625 255.242784 
" clip-path="url(#pe4ec061951)" style="fill: none; stroke: #dcdcdc; stroke-width: 0.5; stroke-linecap: square"/>
     </g>
     <g id="line2d_9">
      <g>
       <use xlink:href="#m7f41bd0805" x="46.965625" y="255.242784" style="stroke: #000000; stroke-width: 0.8"/>
      </g>
     </g>
     <g id="text_8">
      <!-- 100 -->
      <g transform="translate(20.878125 259.042003)scale(0.1 -0.1)">
       <use xlink:href="#DejaVuSans-31"/>
       <use xlink:href="#DejaVuSans-30" x="63.623047"/>
       <use xlink:href="#DejaVuSans-30" x="127.246094"/>
      </g>
     </g>
    </g>
    <g id="ytick_3">
     <g id="line2d_10">
      <path d="M 46.965625 187.76086 
L 604.965625 187.76086 
" clip-path="url(#pe4ec061951)" style="fill: none; stroke: #dcdcdc; stroke-width: 0.5; stroke-linecap: square"/>
     </g>
     <g id="line2d_11">
      <g>
       <use xlink:href="#m7f41bd0805" x="46.965625" y="187.76086" style="stroke: #000000; stroke-width: 0.8"/>
      </g>
     </g>
     <g id="text_9">
      <!-- 150 -->
      <g transform="translate(20.878125 191.560079)scale(0.1 -0.1)">
       <use xlink:href="#DejaVuSans-31"/>
       <use xlink:href="#DejaVuSans-35" x="63.623047"/>
       <use xlink:href="#DejaVuSans-30" x="127.246094"/>
      </g>
     </g>
    </g>
    <g id="ytick_4">
     <g id="line2d_12">
      <path d="M 46.965625 120.278935 
L 604.965625 120.278935 
" clip-path="url(#pe4ec061951)" style="fill: none; stroke: #dcdcdc; stroke-width: 0.5; stroke-linecap: square"/>
     </g>
     <g id="line2d_13">
      <g>
       <use xlink:href="#m7f41bd0805" x="46.965625" y="120.278935" style="stroke: #000000; stroke-width: 0.8"/>
      </g>
     </g>
     <g id="text_10">
      <!-- 200 -->
      <g transform="translate(20.878125 124.078154)scale(0.1 -0.1)">
       <use xlink:href="#DejaVuSans-32"/>
       <use xlink:href="#DejaVuSans-30" x="63.623047"/>
       <use xlink:href="#DejaVuSans-30" x="127.246094"/>
      </g>
     </g>
    </g>
    <g id="ytick_5">
     <g id="line2d_14">
      <path d="M 46.965625 52.797011 
L 604.965625 52.797011 
" clip-path="url(#pe4ec061951)" style="fill: none; stroke: #dcdcdc; stroke-width: 0.5; stroke-linecap: square"/>
     </g>
     <g id="line2d_15">
      <g>
       <use xlink:href="#m7f41bd0805" x="46.965625" y="52.797011" style="stroke: #000000; stroke-width: 0.8"/>
      </g>
     </g>
     <g id="text_11">
      <!-- 250 -->
      <g transform="translate(20.878125 56.59623)scale(0.1 -0.1)">
       <use xlink:href="#DejaVuSans-32"/>
       <use xlink:href="#DejaVuSans-35" x="63.623047"/>
       <use xlink:href="#DejaVuSans-30" x="127.246094"/>
      </g>
     </g>
    </g>
    <g id="text_12">
     <!-- Price (USD) -->
     <g transform="translate(14.798437 217.01)rotate(-90)scale(0.1 -0.1)">
      <defs>
       <path id="DejaVuSans-50" d="M 1259 4147 
L 1259 2394 
L 2053 2394 
Q 2494 2394 2734 2622 
Q 2975 2850 2975 3272 
Q 2975 3691 2734 3919 
Q 2494 4147 2053 4147 
L 1259 4147 
z
M 628 4666 
L 2053 4666 
Q 2838 4666 3239 4311 
Q 3641 3956 3641 3272 
Q 3641 2581 3239 2228 
Q 2838 1875 2053 1875 
L 1259 1875 
L 1259 0 
L 628 0 
L 628 4666 
z
" transform="scale(0.015625)"/>
       <path id="DejaVuSans-72" d="M 2631 2963 
Q 2534 3019 2420 3045 
Q 2306 3072 2169 3072 
Q 1681 3072 1420 2755 
Q 1159 2438 1159 1844 
L 1159 0 
L 581 0 
L 581 3500 
L 1159 3500 
L 1159 2956 
Q 1341 3275 1631 3429 
Q 1922 3584 2338 3584 
Q 2397 3584 2469 3576 
Q 2541 3569 2628 3553 
L 2631 2963 
z
" transform="scale(0.015625)"/>
       <path id="DejaVuSans-69" d="M 603 3500 
L 1178 3500 
L 1178 0 
L 603 0 
L 603 3500 
z
M 603 4863 
L 1178 4863 
L 1178 4134 
L 603 4134 
L 603 4863 
z
" transform="scale(0.015625)"/>
       <path id="DejaVuSans-63" d="M 3122 3366 
L 3122 2828 
Q 2878 2963 2633 3030 
Q 2388 3097 2138 3097 
Q 1578 3097 1268 2742 
Q 959 2388 959 1747 
Q 959 1106 1268 751 
Q 1578 397 2138 397 
Q 2388 397 2633 464 
Q 2878 531 3122 666 
L 3122 134 
Q 2881 22 2623 -34 
Q 2366 -91 2075 -91 
Q 1284 -91 818 406 
Q 353 903 353 1747 
Q 353 2603 823 3093 
Q 1294 3584 2113 3584 
Q 2378 3584 2631 3529 
Q 2884 3475 3122 3366 
z
" transform="scale(0.015625)"/>
       <path id="DejaVuSans-20" transform="scale(0.015625)"/>
       <path id="DejaVuSans-28" d="M 1984 4856 
Q 1566 4138 1362 3434 
Q 1159 2731 1159 2009 
Q 1159 1288 1364 580 
Q 1569 -128 1984 -844 
L 1484 -844 
Q 1016 -109 783 600 
Q 550 1309 550 2009 
Q 550 2706 781 3412 
Q 1013 4119 1484 4856 
L 1984 4856 
z
" transform="scale(0.015625)"/>
       <path id="DejaVuSans-55" d="M 556 4666 
L 1191 4666 
L 1191 1831 
Q 1191 1081 1462 751 
Q 1734 422 2344 422 
Q 2950 422 3222 751 
Q 3494 1081 3494 1831 
L 3494 4666 
L 4128 4666 
L 4128 1753 
Q 4128 841 3676 375 
Q 3225 -91 2344 -91 
Q 1459 -91 1007 375 
Q 556 841 556 1753 
L 556 4666 
z
" transform="scale(0.015625)"/>
       <path id="DejaVuSans-53" d="M 3425 4513 
L 3425 3897 
Q 3066 4069 2747 4153 
Q 2428 4238 2131 4238 
Q 1616 4238 1336 4038 
Q 1056 3838 1056 3469 
Q 1056 3159 1242 3001 
Q 1428 2844 1947 2747 
L 2328 2669 
Q 3034 2534 3370 2195 
Q 3706 1856 3706 1288 
Q 3706 609 3251 259 
Q 2797 -91 1919 -91 
Q 1588 -91 1214 -16 
Q 841 59 441 206 
L 441 856 
Q 825 641 1194 531 
Q 1563 422 1919 422 
Q 2459 422 2753 634 
Q 3047 847 3047 1241 
Q 3047 1584 2836 1778 
Q 2625 1972 2144 2069 
L 1759 2144 
Q 1053 2284 737 2584 
Q 422 2884 422 3419 
Q 422 4038 858 4394 
Q 1294 4750 2059 4750 
Q 2388 4750 2728 4690 
Q 3069 4631 3425 4513 
z
" transform="scale(0.015625)"/>
       <path id="DejaVuSans-29" d="M 513 4856 
L 1013 4856 
Q 1481 4119 1714 3412 
Q 1947 2706 1947 2009 
Q 1947 1309 1714 600 
Q 1481 -109 1013 -844 
L 513 -844 
Q 928 -128 1133 580 
Q 1338 1288 1338 2009 
Q 1338 2731 1133 3434 
Q 928 4138 513 4856 
z
" transform="scale(0.015625)"/>
      </defs>
      <use xlink:href="#DejaVuSans-50"/>
      <use xlink:href="#DejaVuSans-72" x="58.552734"/>
      <use xlink:href="#DejaVuSans-69" x="99.666016"/>
      <use xlink:href="#DejaVuSans-63" x="127.449219"/>
      <use xlink:href="#DejaVuSans-65" x="182.429688"/>
      <use xlink:href="#DejaVuSans-20" x="243.953125"/>
      <use xlink:href="#DejaVuSans-28" x="275.740234"/>
      <use xlink:href="#DejaVuSans-55" x="314.753906"/>
      <use xlink:href="#DejaVuSans-53" x="387.947266"/>
      <use xlink:href="#DejaVuSans-44" x="451.423828"/>
      <use xlink:href="#DejaVuSans-29" x="528.425781"/>
     </g>
    </g>
   </g>
   <g id="line2d_16">
    <path d="M 76.575156 338.933867 
L 77.022093 339.838125 
L 77.245561 338.758414 
L 77.469029 339.338759 
L 77.692497 338.906874 
L 77.915965 339.311766 
L 78.139434 339.203795 
L 78.362902 339.325262 
L 78.58637 338.582961 
L 78.809838 338.353523 
L 79.033306 338.677436 
L 79.480243 336.774446 
M 86.854692 336.464029 
L 87.07816 336.828431 
L 87.301628 336.963395 
L 87.525096 336.882417 
L 87.972033 334.66901 
L 88.195501 335.006419 
L 88.418969 334.790477 
L 88.642437 333.022451 
L 88.865905 333.089933 
M 103.838272 327.407955 
L 104.06174 327.31348 
M 121.939193 329.607865 
L 122.162661 328.757593 
L 122.38613 327.340473 
L 122.609598 328.028788 
L 122.833066 327.961306 
L 123.056534 327.097538 
L 123.50347 327.259494 
L 123.726939 326.395726 
L 123.950407 326.868099 
M 137.581965 329.972268 
L 137.805433 328.987032 
L 138.028901 328.7306 
L 138.252369 328.771089 
M 141.82786 328.7306 
L 142.274796 328.906053 
L 142.498264 328.339205 
L 142.721732 328.339205 
M 148.978841 325.37 
L 149.202309 324.789656 
L 149.425777 325.626432 
L 149.649245 325.977338 
L 149.872714 325.545453 
L 150.096182 325.909856 
L 150.31965 325.289022 
L 150.543118 325.531957 
L 150.766586 323.102608 
L 150.990054 322.913658 
L 151.436991 322.927155 
L 151.660459 322.171357 
L 151.883927 322.724709 
L 152.107395 322.117372 
M 160.822653 319.391102 
L 161.046122 320.011936 
L 161.26959 321.091646 
L 161.493058 320.821719 
L 162.163462 316.529868 
L 162.386931 317.407133 
L 162.610399 316.030502 
L 162.833867 315.531136 
L 163.057335 315.342186 
L 163.280803 314.5459 
L 163.504271 314.883309 
L 163.72774 314.262476 
L 163.951208 313.007312 
L 164.174676 312.669902 
L 164.398144 312.926334 
L 164.621612 313.358218 
L 164.84508 312.507946 
L 165.515485 311.927601 
L 165.738953 311.630681 
L 165.962421 311.104322 
L 166.185889 311.144811 
L 166.409357 310.726423 
L 166.632826 311.212293 
M 177.582766 298.755129 
L 177.806234 297.877864 
L 178.25317 294.827681 
M 178.923575 294.449783 
L 179.147043 293.356575 
M 203.72854 300.185746 
L 203.952009 300.604134 
M 204.622413 299.53792 
L 204.845881 299.726869 
L 205.292818 297.432484 
L 205.516286 297.270527 
M 214.67848 299.578409 
L 214.901949 300.091271 
L 215.125417 297.189549 
M 222.276398 295.610472 
L 222.499866 293.518532 
M 235.684488 304.639553 
L 235.907956 302.655585 
M 237.248765 298.56618 
L 237.472233 297.59444 
L 237.695701 297.486469 
L 237.919169 296.946614 
L 238.142637 299.065546 
L 238.366106 297.027592 
L 238.589574 296.96011 
L 239.03651 295.20558 
L 239.483446 294.395797 
L 239.930383 294.787192 
L 240.153851 292.870706 
L 240.824255 290.630306 
M 249.539514 288.808294 
L 249.762982 288.443891 
L 249.98645 288.97025 
M 255.573154 284.138545 
L 255.796622 284.489451 
M 256.467027 286.203491 
L 256.690495 287.202224 
M 276.802629 300.374696 
L 277.026098 300.334206 
L 277.249566 300.793083 
M 279.037311 299.753862 
L 279.707716 296.528226 
M 290.210719 291.575053 
L 290.434187 292.560289 
M 293.78621 287.904036 
L 294.233146 287.06726 
L 294.456614 289.834019 
M 300.043318 280.089629 
L 300.266786 280.04914 
L 300.713723 279.347328 
M 301.384127 279.71173 
L 301.607595 280.804937 
L 301.831064 279.603759 
L 302.054532 279.360824 
L 302.278 279.549774 
L 302.501468 277.795244 
M 321.943198 291.669527 
L 322.166666 292.209383 
L 322.390134 291.21065 
M 322.837071 291.075686 
L 323.060539 290.454853 
L 323.284007 290.481845 
M 325.071752 285.123781 
L 325.295221 284.313998 
L 325.742157 285.380212 
L 325.965625 285.623147 
L 326.189093 285.056299 
L 326.636029 284.624414 
L 326.859498 283.126316 
M 334.010479 284.813364 
L 334.233947 284.82686 
L 334.457415 285.623147 
L 334.680883 285.569161 
L 334.904351 283.274776 
M 338.256374 278.996422 
L 338.479842 277.336367 
L 338.70331 274.677579 
L 338.926778 274.758557 
L 339.150247 275.500858 
L 339.373715 274.677579 
L 339.597183 274.704571 
L 340.714524 267.753933 
L 341.384928 265.891432 
L 341.608396 264.879203 
L 341.831864 264.771232 
L 342.055333 266.552755 
L 342.278801 266.0129 
L 342.502269 265.04116 
L 342.725737 262.341883 
L 342.949205 263.732011 
L 343.172673 262.598314 
L 343.396142 263.111177 
L 343.61961 260.992244 
M 360.826658 278.416077 
L 361.050126 276.526583 
L 361.273595 277.039446 
L 361.497063 276.499591 
L 361.720531 276.270152 
L 361.943999 275.392887 
M 362.390935 273.354933 
L 362.614404 274.556111 
L 362.837872 274.799046 
L 363.06134 274.853032 
L 363.508276 272.261726 
L 363.731744 274.475133 
M 369.318448 260.22295 
L 369.765385 261.221683 
L 369.988853 262.16643 
L 370.212321 261.909999 
M 374.905152 258.697859 
L 375.352089 258.279471 
L 375.575557 256.889343 
L 375.799025 256.767876 
L 376.022493 255.323763 
L 376.46943 259.170232 
L 376.692898 257.402206 
L 376.916366 259.521138 
L 377.139834 258.373946 
L 377.363302 257.969054 
L 377.810239 255.59369 
L 378.033707 247.79278 
M 378.480643 246.065243 
L 378.704111 245.835804 
L 378.927579 244.081274 
L 379.151048 243.527922 
L 379.374516 244.607633 
L 379.597984 243.433448 
M 380.04492 243.892325 
L 380.268388 242.583175 
M 396.581564 269.872866 
L 397.0285 274.191709 
M 401.050927 266.633733 
L 401.274396 266.269331 
L 401.497864 266.30982 
L 401.721332 263.58355 
L 401.9448 264.487808 
L 402.168268 264.109909 
L 402.391736 260.978748 
L 402.615204 260.425396 
L 403.062141 258.117514 
L 403.285609 257.807098 
L 403.509077 259.035269 
L 403.732545 259.453657 
M 407.97844 254.284541 
L 408.201909 256.147042 
L 408.425377 254.702929 
L 408.872313 253.663707 
L 409.095781 254.149577 
L 409.319249 255.053835 
L 409.766186 250.586532 
L 409.989654 250.397582 
L 410.213122 246.67258 
L 410.43659 248.562074 
L 410.660058 247.104464 
L 410.883526 247.198939 
L 411.330463 243.94631 
M 420.492657 266.215345 
L 420.716126 264.379837 
L 420.939594 263.502572 
L 421.163062 264.312355 
L 421.38653 263.556558 
M 424.515084 254.109088 
L 424.738553 256.56543 
L 424.962021 257.645141 
M 432.113002 257.19976 
L 432.33647 260.533367 
L 432.559938 259.858548 
L 432.783406 263.893967 
L 433.006874 264.177391 
L 433.230343 263.448586 
L 433.453811 261.923495 
L 433.677279 258.117514 
M 449.990455 235.605544 
L 450.213923 234.377373 
L 450.437391 234.215417 
L 450.660859 233.27067 
M 451.107796 233.000742 
L 451.331264 231.408169 
M 466.080162 302.453139 
L 466.303631 295.907392 
L 466.527099 300.644623 
L 466.750567 298.701144 
L 466.974035 285.879578 
M 470.326058 262.881738 
L 470.549526 265.446051 
L 470.772994 259.156736 
L 471.21993 265.203117 
L 471.443398 262.058459 
L 471.666866 262.125941 
L 472.113803 252.583997 
L 472.337271 250.492057 
L 472.560739 246.929011 
L 472.784207 248.832002 
L 473.007675 249.223397 
L 473.454612 241.543954 
L 473.67808 242.259262 
L 474.125016 236.037429 
L 474.348484 237.171125 
L 474.571953 240.072848 
L 474.795421 241.166055 
L 475.018889 241.220041 
L 475.465825 232.663333 
L 475.912762 232.312427 
M 479.264784 222.932439 
L 479.488252 220.084702 
M 481.275997 212.081346 
L 481.499466 212.36477 
L 481.722934 215.549916 
L 481.946402 210.002902 
L 482.16987 207.843481 
L 482.393338 207.155165 
L 482.840275 206.979712 
L 483.063743 207.978445 
L 483.287211 206.993208 
L 483.510679 207.182158 
L 483.734147 204.725816 
L 483.957615 205.913498 
L 484.181084 201.176267 
L 484.62802 197.545739 
L 484.851488 195.332332 
L 485.074956 195.723727 
L 485.298424 194.509052 
M 485.745361 192.484595 
L 485.968829 191.769286 
M 486.415765 190.851532 
L 486.639233 189.501894 
L 486.862701 188.840571 
L 487.08617 189.231966 
L 487.309638 187.396458 
L 487.533106 188.206241 
L 487.756574 187.409954 
L 487.980042 186.15479 
L 488.426979 182.740205 
M 494.907555 174.80433 
L 495.131023 172.172535 
L 495.354492 176.140473 
L 495.57796 176.26194 
L 495.801428 174.871812 
L 496.024896 170.768911 
L 496.248364 171.214292 
M 504.293218 192.160681 
L 504.516686 188.300715 
M 506.080963 183.172089 
L 506.304432 185.318014 
L 506.5279 185.102072 
L 506.751368 187.76086 
L 506.974836 185.075079 
M 509.656454 170.984854 
L 509.879922 170.525976 
L 510.10339 171.511213 
L 510.326858 173.53567 
L 510.773795 173.576159 
L 510.997263 173.751612 
L 511.220731 173.022808 
M 519.042117 176.26194 
L 519.265585 174.601885 
L 519.712521 170.148078 
L 520.159458 182.672723 
L 520.829862 166.180141 
L 521.276798 159.755861 
L 521.500267 158.676151 
L 521.723735 155.099609 
L 521.947203 153.574517 
L 522.170671 154.775695 
L 522.394139 154.195351 
L 522.841076 144.720889 
L 523.064544 146.73185 
L 523.288012 146.353951 
L 523.734948 131.602402 
L 523.958416 135.637822 
L 524.181885 133.748328 
L 524.405353 133.532385 
M 535.802229 134.234197 
L 536.249165 138.903947 
M 536.696102 137.986192 
L 536.91957 135.286916 
M 552.338873 112.950398 
L 552.562341 110.696502 
L 552.785809 116.418969 
L 553.232746 114.192066 
L 553.679682 114.880382 
L 553.90315 109.616791 
L 554.126618 111.965162 
L 554.350086 108.334635 
L 554.573555 107.052478 
L 554.797023 103.921317 
L 555.243959 94.419862 
L 555.467427 90.937795 
L 555.690895 89.358718 
M 557.031704 77.400921 
L 557.255172 77.414417 
L 557.478641 74.634162 
L 557.702109 77.427913 
L 558.149045 73.986335 
L 558.372513 69.289593 
M 575.132625 99.912891 
L 575.356094 102.180283 
L 575.579562 94.392869 
L 575.80303 91.855549 
L 575.80303 91.855549 
" clip-path="url(#pe4ec061951)" style="fill: none; stroke: #00ff7f; stroke-linecap: square"/>
   </g>
   <g id="line2d_17">
    <path d="M 109.648444 320.997172 
L 109.871913 320.092914 
M 118.363703 323.156593 
L 118.587171 324.533225 
L 118.810639 324.209311 
L 119.034107 325.032591 
M 128.41977 322.954147 
L 128.643238 323.291557 
M 188.085769 289.995976 
L 188.309237 289.118711 
M 228.310038 287.418166 
L 228.756975 287.040267 
L 228.980443 286.109017 
L 229.203911 286.473419 
M 261.606794 279.171875 
L 262.053731 279.117889 
L 262.277199 279.576766 
L 262.500667 279.509285 
L 262.724135 280.966894 
L 262.947603 279.914176 
L 263.171072 280.04914 
L 263.618008 280.912909 
L 263.841476 280.062636 
L 264.064944 279.914176 
L 264.511881 280.238089 
M 265.182285 285.177766 
L 265.405753 285.893075 
L 265.629221 285.879578 
L 265.852689 286.338455 
L 266.076158 285.65014 
L 266.299626 286.419434 
L 266.523094 286.041535 
L 266.746562 286.878311 
L 266.97003 286.878311 
L 267.193498 287.040267 
L 267.416967 286.338455 
L 267.640435 287.620612 
M 273.450607 293.950416 
L 273.674075 294.247337 
L 273.897543 293.909927 
L 274.121011 295.758932 
M 282.165865 287.094253 
L 282.389333 288.659833 
L 282.612802 289.402135 
L 282.83627 289.64507 
M 284.177079 289.968983 
L 284.400547 290.076954 
M 304.512681 274.772053 
L 304.73615 274.947506 
L 304.959618 274.137723 
L 305.183086 274.137723 
L 305.406554 274.340169 
L 305.630022 274.056745 
M 306.300427 275.23093 
L 306.523895 275.001492 
L 306.747363 277.17441 
L 306.970831 276.769518 
L 307.194299 276.040714 
M 344.736951 248.562074 
L 344.960419 245.646855 
L 345.183887 245.646855 
L 345.407355 246.173214 
M 345.854291 245.25546 
L 346.07776 246.011257 
L 346.301228 248.251657 
L 346.524696 248.858994 
M 348.088973 259.062261 
L 348.312441 258.238982 
L 348.535909 260.56036 
L 348.759378 259.386175 
L 349.65325 261.5321 
L 349.876718 259.44016 
L 350.100186 258.630377 
L 350.323655 258.603384 
L 350.547123 260.924763 
M 366.413362 254.945864 
L 366.63683 254.567965 
L 366.860299 254.567965 
L 367.083767 255.971589 
L 367.307235 256.376481 
M 382.056134 234.255906 
L 382.50307 232.703822 
L 382.726538 232.514872 
L 382.950006 234.984711 
L 383.173474 234.728279 
L 383.620411 235.673026 
L 383.843879 235.241142 
L 384.067347 236.253371 
L 384.514283 239.384532 
L 384.96122 242.097306 
L 385.184688 241.881363 
L 385.408156 242.8666 
L 385.855092 249.533814 
M 388.983647 261.694056 
L 389.207115 258.697859 
L 389.430583 259.534635 
M 414.012081 232.055995 
L 414.235549 232.258441 
L 414.459017 232.136974 
L 414.682485 236.698752 
L 414.905953 237.11714 
L 415.129422 236.968679 
L 415.35289 236.388335 
M 416.693699 238.898662 
L 416.917167 238.561253 
L 417.140635 239.924388 
L 417.364103 245.633358 
L 417.587571 246.159717 
M 418.92838 243.64939 
L 419.151848 243.069045 
L 419.375317 242.82611 
L 419.598785 240.261797 
M 427.643639 245.25546 
L 427.867107 244.486166 
L 428.537511 250.18164 
M 429.654852 252.476026 
L 429.87832 250.478561 
L 430.101788 249.898216 
L 430.325257 250.154647 
M 436.135429 236.064422 
L 436.358897 235.389602 
L 436.582365 235.281631 
L 436.805833 234.620308 
L 437.029301 237.036161 
L 437.25277 236.509802 
L 437.699706 238.19685 
L 437.923174 238.061886 
L 438.146642 238.237339 
L 438.37011 239.222576 
M 459.823054 226.212061 
L 460.046522 226.25255 
M 461.163863 220.934974 
L 461.387331 223.890682 
M 461.834267 219.38289 
L 462.057736 221.083434 
M 462.504672 230.24748 
L 462.951608 244.958539 
M 463.398545 240.342776 
L 463.622013 243.689879 
M 498.259578 157.083577 
L 498.483046 153.574517 
M 516.137031 153.979409 
L 516.360499 148.391905 
L 516.583967 150.267903 
L 516.807435 150.996708 
L 517.030903 153.034662 
L 517.254371 151.104679 
M 566.640835 42.580248 
L 566.864303 44.172821 
L 567.087772 41.352077 
M 567.534708 39.557057 
L 567.758176 46.386228 
L 567.981644 42.283327 
M 571.557135 69.869938 
L 572.004071 67.494574 
L 572.227539 74.242767 
M 578.037712 84.500019 
L 578.26118 78.345668 
L 578.484648 77.994762 
L 578.708116 73.878364 
L 578.931584 72.137331 
M 579.37852 81.854728 
" clip-path="url(#pe4ec061951)" style="fill: none; stroke: #ff4500; stroke-linecap: square"/>
   </g>
   <g id="line2d_18">
    <path d="M 72.329261 338.596458 
L 72.55273 338.367019 
L 72.776198 339.244284 
L 72.999666 339.149809 
L 73.223134 338.758414 
L 73.446602 338.62345 
L 73.67007 338.677436 
L 74.117007 339.568197 
L 74.340475 338.893378 
L 74.563943 339.095824 
L 74.787411 338.070099 
L 75.010879 338.394012 
L 75.234347 337.597725 
L 75.457816 337.746185 
L 75.681284 337.557236 
L 75.904752 337.786674 
L 76.12822 337.678703 
L 76.351688 339.041838 
M 80.150647 333.049443 
L 80.374115 333.832234 
L 80.597583 333.427342 
L 80.821052 333.400349 
L 81.04452 332.469099 
M 81.491456 332.496092 
L 81.714924 332.617559 
L 81.938392 333.008954 
L 82.16186 332.91448 
L 82.385329 332.212668 
L 82.608797 332.590566 
L 82.832265 332.658048 
L 83.279201 332.050711 
L 83.726138 333.373357 
L 83.949606 333.035947 
L 84.396542 336.760949 
L 84.843478 334.061672 
L 85.290415 335.019916 
L 85.513883 335.397814 
L 85.737351 334.62852 
L 85.960819 334.655513 
L 86.407756 334.250622 
L 86.631224 334.830966 
M 89.089373 332.469099 
L 89.312842 331.497359 
L 89.53631 331.078971 
L 89.759778 331.645819 
L 89.983246 331.672812 
L 90.206714 331.051978 
L 90.430182 331.15995 
L 90.653651 331.105964 
L 90.877119 330.471634 
L 91.324055 330.458137 
L 91.770991 329.337938 
L 91.99446 329.810311 
L 92.217928 330.647087 
L 92.441396 330.863029 
L 92.664864 331.578337 
L 93.335269 329.418916 
L 93.558737 329.486398 
L 93.782205 328.838571 
L 94.229141 330.417648 
L 94.452609 327.907321 
L 94.676078 328.555147 
L 94.899546 328.393191 
L 95.123014 327.94781 
L 95.56995 331.024986 
L 95.793418 330.876525 
L 96.016887 331.267921 
L 96.240355 330.714569 
L 96.687291 326.247265 
L 96.910759 326.800617 
L 97.134227 326.787121 
L 97.357695 328.123263 
L 97.581164 327.6104 
M 98.0281 328.366198 
L 98.251568 328.649622 
L 98.475036 328.163752 
L 98.698504 328.312212 
L 98.921973 328.663118 
L 99.368909 326.571179 
L 99.592377 326.274258 
L 99.815845 326.787121 
L 100.039313 326.962574 
L 100.48625 326.97607 
L 100.933186 324.10134 
L 101.380122 326.409222 
L 101.603591 325.37 
L 101.827059 326.04482 
L 102.050527 325.572446 
L 102.497463 325.950345 
L 102.720931 325.167555 
L 102.9444 324.870634 
L 103.167868 325.518461 
L 103.391336 325.235037 
L 103.614804 326.422718 
M 104.285209 325.666921 
L 104.508677 324.344275 
L 104.732145 324.236304 
L 104.955613 324.816649 
L 105.179081 324.789656 
L 105.402549 324.047355 
L 105.626017 325.882863 
L 106.072954 325.167555 
L 106.51989 322.130868 
L 106.743358 321.928422 
L 106.966826 322.576249 
L 107.190295 321.901429 
L 107.860699 323.831413 
L 108.307635 322.481774 
L 108.531104 322.765198 
L 108.754572 323.979873 
L 108.97804 324.452246 
L 109.201508 323.939384 
L 109.424976 322.562752 
M 110.095381 320.335849 
L 110.542317 322.130868 
L 110.765785 326.328244 
L 110.989253 325.154058 
L 111.43619 325.761396 
L 111.659658 325.41049 
L 111.883126 325.572446 
L 112.106594 326.125798 
L 112.55353 327.448444 
L 112.776999 326.962574 
L 113.000467 327.299983 
L 113.223935 325.450979 
L 113.447403 325.747899 
M 113.894339 326.355236 
L 114.117808 326.922085 
L 114.341276 326.625164 
L 114.564744 326.598171 
L 114.788212 327.245998 
L 115.01168 324.992102 
L 115.235148 324.897627 
L 115.458617 325.464475 
L 115.905553 324.479239 
L 116.129021 324.033858 
L 116.352489 324.303786 
L 116.799426 323.332046 
L 117.022894 323.480507 
L 117.46983 325.07308 
L 117.916766 324.681685 
L 118.140235 324.411757 
M 119.257575 325.181051 
L 119.481044 325.950345 
L 119.704512 325.666921 
L 119.92798 325.761396 
L 120.151448 325.22154 
L 120.374916 325.653424 
L 120.598384 325.423986 
L 121.045321 328.163752 
L 121.268789 327.448444 
L 121.492257 327.731868 
L 121.715725 328.663118 
M 124.173875 327.394458 
L 124.397343 327.232502 
L 124.620811 326.692646 
L 124.844279 326.476704 
L 125.067748 325.275526 
L 125.291216 321.752969 
L 125.514684 321.618005 
L 125.738152 322.68422 
L 125.96162 322.468278 
L 126.185088 321.874437 
M 127.078961 322.738205 
L 127.302429 323.453514 
L 127.525897 323.561485 
L 127.749365 324.465743 
L 128.196302 323.426521 
M 128.866706 323.332046 
L 129.090174 323.736938 
M 129.537111 324.938116 
L 129.760579 324.708678 
L 129.984047 324.695181 
L 130.207515 324.182319 
L 130.430983 324.209311 
L 130.654452 323.494003 
M 131.101388 324.006866 
L 131.324856 324.830145 
L 131.548324 327.084041 
L 131.771792 327.138027 
L 131.995261 326.04482 
L 132.442197 327.704875 
L 132.665665 327.259494 
L 133.33607 327.043552 
L 133.559538 327.205509 
L 133.783006 326.04482 
L 134.006474 327.826342 
L 134.229942 326.557682 
L 134.45341 327.6104 
L 134.900347 327.542918 
L 135.123815 328.24473 
L 135.570751 326.800617 
L 136.241156 329.324441 
L 136.464624 329.445909 
L 136.91156 327.745364 
L 137.358496 329.243463 
M 138.475837 328.91955 
L 138.699305 326.922085 
L 138.922774 326.692646 
M 139.36971 327.16502 
L 139.593178 326.760128 
L 139.816646 326.665653 
L 140.040114 326.760128 
L 140.263583 326.476704 
L 140.487051 326.544186 
L 140.933987 325.734403 
L 141.157455 325.950345 
L 141.380923 325.977338 
L 141.604392 326.895092 
M 142.9452 328.258227 
L 143.392137 328.015292 
L 143.615605 327.434947 
L 143.839073 327.178516 
L 144.062541 326.503697 
L 144.286009 326.206776 
L 144.509478 325.437482 
L 144.732946 325.248533 
L 144.956414 325.262029 
L 145.179882 325.113569 
L 145.40335 325.140562 
L 145.626818 325.666921 
L 145.850287 325.612935 
L 146.073755 326.503697 
L 146.297223 326.179783 
L 146.520691 326.476704 
L 146.967627 325.882863 
L 147.191096 326.368733 
L 147.414564 325.680417 
L 147.638032 325.990834 
L 148.084968 325.545453 
L 148.308436 325.423986 
M 152.330863 320.673258 
L 152.554331 319.580051 
L 152.7778 319.121174 
L 153.001268 319.310124 
L 153.224736 319.080685 
L 153.671672 319.32362 
L 154.342077 319.202152 
L 154.565545 318.797261 
L 155.012481 317.177695 
L 155.459418 318.635304 
L 155.682886 318.149434 
L 155.906354 318.567822 
L 156.129822 318.716283 
L 156.35329 318.50034 
L 156.576758 317.731047 
L 156.800227 317.515104 
L 157.023695 317.123709 
L 157.247163 317.204688 
L 157.694099 318.513837 
L 157.917567 317.825521 
L 158.141035 318.581319 
L 158.587972 318.20342 
L 159.034908 319.215649 
L 159.481844 317.879507 
L 159.705313 317.86601 
L 159.928781 318.432859 
L 160.152249 316.867278 
L 160.599185 317.731047 
M 167.30323 304.828503 
L 167.526698 304.31564 
L 167.750166 305.246891 
L 167.973635 305.368358 
L 168.197103 304.059209 
L 168.420571 304.963466 
L 168.644039 303.870259 
L 169.314444 302.669081 
L 169.537912 301.009026 
L 169.76138 301.346435 
M 170.208316 301.454406 
L 170.431784 302.655585 
L 170.655253 302.048247 
L 170.878721 303.53285 
L 171.102189 301.197975 
L 171.325657 300.293717 
L 171.549125 299.915818 
L 171.772593 298.647158 
L 171.996062 298.512194 
L 172.21953 299.092539 
L 172.442998 299.106035 
L 172.666466 297.661922 
L 172.889934 297.688915 
L 173.113402 297.351505 
L 173.560339 301.022522 
L 173.783807 300.820076 
L 174.230743 296.217809 
L 174.454211 297.985835 
L 174.677679 298.633662 
L 174.901148 298.620166 
L 175.124616 299.254496 
L 175.348084 300.65812 
L 175.571552 298.444713 
L 175.79502 300.428681 
L 176.018488 299.34897 
L 176.241957 296.339276 
L 176.465425 296.123334 
L 176.688893 295.138098 
L 177.135829 296.784657 
L 177.359297 295.826414 
M 178.476638 293.747971 
L 178.700106 293.167626 
M 179.370511 293.801956 
L 179.593979 292.776231 
L 179.817447 292.96518 
L 180.040915 292.398332 
L 180.264384 292.33085 
L 180.487852 292.641267 
L 180.71132 290.927226 
L 180.934788 290.697788 
L 181.158256 289.45612 
L 181.828661 290.211918 
L 182.052129 288.862279 
L 182.275597 288.97025 
L 182.499065 290.306392 
L 182.722533 289.577588 
L 182.946001 290.994708 
L 183.16947 289.982479 
L 183.392938 291.602045 
L 183.616406 291.588549 
L 183.839874 289.064725 
L 184.063342 290.117443 
L 184.28681 288.389906 
L 184.510279 289.564091 
L 184.733747 289.631573 
L 184.957215 289.577588 
L 185.180683 288.67333 
L 185.627619 288.160467 
L 186.074556 291.871973 
L 186.521492 289.253674 
L 186.74496 289.807026 
L 186.968428 289.807026 
L 187.415365 288.902768 
L 187.638833 290.184925 
L 187.862301 289.240178 
M 188.532705 290.589817 
L 188.756174 290.360378 
L 188.979642 291.129672 
L 189.20311 290.225414 
L 189.426578 292.290361 
L 189.650046 292.18239 
L 189.873514 291.35911 
L 190.096983 291.588549 
L 190.320451 291.183657 
L 190.543919 291.467082 
L 190.767387 293.248604 
L 190.990855 293.383568 
L 191.437792 297.270527 
L 191.66126 294.787192 
L 191.884728 294.044891 
L 192.108196 295.151595 
L 192.331664 294.692718 
L 192.778601 291.332118 
L 193.002069 291.386103 
L 193.225537 290.778766 
L 193.672473 292.681756 
L 193.895941 291.561556 
M 194.342878 293.262101 
L 194.566346 297.756397 
L 194.789814 297.459476 
L 195.013282 296.352773 
L 195.23675 296.298787 
L 195.460219 294.760199 
L 195.683687 295.124602 
L 195.907155 295.758932 
L 196.130623 295.54299 
L 196.354091 295.529493 
L 196.577559 294.854674 
L 197.024496 296.015363 
L 197.247964 297.513462 
L 197.471432 297.715908 
L 197.6949 296.852139 
L 197.918368 297.027592 
L 198.141836 297.041088 
M 198.588773 296.541722 
L 198.812241 296.17732 
L 199.035709 295.529493 
L 199.259177 295.745436 
L 199.706114 294.922156 
L 200.15305 296.190816 
L 200.823454 299.821344 
L 201.046923 299.456941 
L 201.493859 300.793083 
L 201.717327 299.281488 
L 201.940795 300.415185 
L 202.164263 299.753862 
L 202.6112 298.026325 
L 202.834668 297.904857 
L 203.281604 298.120799 
L 203.505072 299.065546 
M 204.175477 299.187014 
L 204.398945 298.836108 
M 205.739754 296.595708 
L 205.963222 297.203045 
L 206.410158 295.812917 
L 206.633627 296.66319 
L 206.857095 296.366269 
L 207.080563 296.312284 
L 207.304031 296.514729 
L 207.527499 297.122067 
L 207.750967 294.098877 
L 207.974436 292.884202 
L 208.421372 291.656031 
L 208.64484 289.834019 
L 208.868308 291.440089 
L 209.538713 299.794351 
L 209.762181 297.418987 
L 209.985649 297.000599 
L 210.209117 297.823879 
L 210.432585 296.852139 
L 210.656054 298.768626 
L 210.879522 297.027592 
L 211.10299 296.946614 
L 211.326458 298.701144 
L 211.549926 296.66319 
L 211.773394 298.282756 
L 211.996862 298.525691 
L 212.220331 297.580944 
L 212.443799 298.22877 
L 212.667267 296.487737 
L 213.114203 295.084113 
M 214.008076 297.44598 
L 214.231544 297.78339 
L 214.455012 297.499966 
M 215.348885 296.015363 
L 215.572353 295.421522 
L 215.795821 293.343079 
L 216.019289 294.125869 
L 216.242758 293.316086 
L 216.466226 291.453585 
L 216.689694 291.237643 
L 216.913162 290.589817 
L 217.360098 292.978677 
L 217.583567 292.155397 
L 217.807035 291.979944 
L 218.030503 291.102679 
L 218.253971 291.898966 
L 218.477439 292.060922 
L 218.700907 291.116176 
L 218.924376 290.940723 
M 219.371312 290.940723 
L 219.59478 290.306392 
L 220.041716 290.562824 
L 220.265184 290.643802 
L 220.488653 290.400867 
L 220.712121 291.54806 
L 220.935589 290.900233 
L 221.159057 291.494074 
L 221.382525 293.005669 
L 221.605993 291.224147 
L 221.829462 292.870706 
L 222.05293 292.074419 
M 222.723334 291.885469 
L 222.946802 291.035197 
L 223.170271 291.156665 
L 223.393739 287.944525 
L 223.840675 285.758111 
L 224.064143 285.46119 
L 224.287611 285.825593 
L 224.51108 286.824325 
L 224.734548 286.109017 
L 225.181484 288.82179 
L 225.404952 286.608383 
L 225.62842 287.026771 
L 225.851889 286.055031 
L 226.075357 287.472152 
L 226.298825 287.40467 
L 226.522293 288.97025 
L 226.745761 288.106482 
L 226.969229 289.118711 
L 227.192697 287.458655 
L 227.639634 290.481845 
L 227.863102 289.132207 
L 228.08657 288.767805 
M 229.427379 287.580123 
L 229.650847 288.605848 
L 229.874315 288.389906 
L 230.54472 294.544257 
L 230.768188 292.114908 
L 230.991656 291.318621 
L 231.215124 295.866903 
L 231.438593 295.853407 
L 231.662061 297.095074 
L 231.885529 296.460744 
L 232.108997 298.336741 
L 232.332465 296.649693 
M 232.779402 295.866903 
L 233.00287 295.731939 
L 233.449806 296.771161 
L 233.673274 293.491539 
L 233.896742 292.141901 
L 234.120211 293.208115 
L 234.343679 299.214006 
L 234.567147 298.485202 
L 235.014083 304.437107 
L 235.237551 303.627324 
L 235.461019 303.748792 
M 236.131424 299.20051 
L 236.354892 298.431216 
L 236.57836 298.809115 
L 237.025297 296.447248 
M 241.047724 290.306392 
L 241.271192 289.078221 
L 241.49466 288.686826 
L 241.718128 288.646337 
L 241.941596 289.280667 
L 242.165064 289.294164 
L 242.388532 288.997243 
L 242.835469 287.607115 
L 243.058937 287.971518 
L 243.282405 286.959289 
L 243.729341 287.809561 
L 243.95281 287.512641 
L 244.176278 288.511373 
L 244.399746 288.943258 
L 244.623214 288.781301 
L 244.846682 287.998511 
L 245.07015 286.743347 
L 245.293619 286.959289 
L 245.517087 285.866082 
L 245.740555 285.7986 
L 245.964023 287.080756 
L 246.187491 287.175231 
L 246.410959 287.863547 
L 246.857896 287.377677 
L 247.081364 287.202224 
L 247.304832 286.365448 
L 247.5283 288.457388 
L 247.751768 287.607115 
L 247.975237 287.445159 
L 248.198705 288.025503 
L 248.422173 287.863547 
L 248.645641 288.794797 
L 249.092577 287.85005 
L 249.316046 286.297966 
M 250.209918 286.28447 
L 250.433386 287.539634 
L 250.656854 284.125048 
L 250.880323 282.424504 
L 251.103791 282.478489 
L 251.327259 283.760646 
M 251.774195 282.316533 
L 252.221132 281.763181 
L 252.4446 282.060101 
L 252.668068 281.871152 
L 252.891536 281.209829 
L 253.115004 282.222058 
L 253.338472 284.327494 
L 253.561941 282.856388 
L 253.785409 283.747149 
L 254.008877 284.030573 
L 254.232345 284.516443 
L 254.455813 285.60965 
L 254.679281 287.526137 
L 255.126218 284.705393 
L 255.349686 284.367983 
M 256.02009 284.462458 
L 256.243559 284.165537 
M 256.913963 284.894342 
L 257.137431 285.258744 
L 257.360899 283.355754 
L 257.584367 282.77541 
L 257.807836 283.018345 
L 258.254772 281.587728 
L 258.47824 279.0774 
L 258.701708 278.456566 
L 258.925176 278.267617 
L 259.148645 280.008651 
L 259.372113 279.360824 
L 259.595581 279.981658 
L 259.819049 279.644248 
L 260.042517 280.319068 
L 260.265985 280.602492 
L 260.489454 282.033108 
L 260.93639 280.899412 
L 261.159858 280.804937 
L 261.383326 281.209829 
M 264.735349 286.446426 
L 264.958817 287.053764 
M 267.863903 288.389906 
L 268.087371 290.157932 
L 268.310839 293.343079 
L 268.534307 292.357843 
L 268.757776 294.27433 
L 268.981244 294.220344 
L 269.204712 293.963913 
L 269.42818 294.449783 
L 269.651648 293.963913 
L 269.875116 293.882934 
L 270.098585 292.96518 
L 270.322053 292.924691 
L 270.545521 292.560289 
L 270.768989 294.638732 
L 270.992457 293.707481 
L 271.662862 292.749238 
L 271.88633 292.776231 
L 272.109798 292.087915 
L 272.333266 292.695253 
M 272.780202 293.977409 
L 273.003671 294.42279 
L 273.227139 295.610472 
M 274.34448 295.408026 
L 274.567948 296.285291 
L 274.791416 295.880399 
L 275.014884 294.854674 
L 275.238352 294.409293 
L 275.46182 297.796886 
L 275.685289 299.281488 
L 276.355693 300.253228 
L 276.579161 301.629859 
M 277.473034 299.470438 
L 277.696502 300.037286 
L 277.91997 298.647158 
L 278.143438 296.460744 
L 278.590375 295.718443 
L 278.813843 297.014096 
M 279.931184 293.586014 
L 280.154652 293.343079 
L 280.37812 292.749238 
L 280.601588 294.112373 
L 280.825056 294.773696 
L 281.048524 294.989638 
L 281.271993 294.382301 
L 281.495461 292.614274 
L 281.718929 292.141901 
L 281.942397 292.411828 
M 283.059738 289.45612 
L 283.283206 290.927226 
L 283.506674 290.778766 
L 283.730142 291.737009 
L 283.953611 291.790995 
M 284.624015 291.669527 
L 284.847483 292.627771 
L 285.070951 292.722245 
L 285.29442 293.613007 
L 285.741356 294.220344 
M 286.188292 293.289093 
L 286.41176 294.287826 
L 286.635229 294.449783 
L 287.305633 294.031395 
L 287.529101 293.59951 
L 287.752569 292.830216 
L 287.976037 292.5198 
L 288.199506 293.869438 
L 288.646442 293.356575 
L 288.86991 292.249872 
L 289.093378 290.333385 
L 289.316846 291.602045 
M 289.763783 291.345614 
L 289.987251 290.91373 
M 290.657655 293.100144 
L 290.881124 291.291629 
M 292.221933 290.468349 
L 292.668869 286.405937 
L 292.892337 287.202224 
L 293.339273 285.94706 
L 293.562742 286.554397 
M 294.680082 280.278578 
L 294.903551 281.695699 
L 295.127019 279.968162 
L 295.350487 280.858923 
L 295.573955 281.101858 
L 295.797423 280.440535 
L 296.020891 280.656477 
L 296.244359 280.103125 
L 296.467828 280.103125 
L 296.691296 279.617256 
L 296.914764 277.822236 
L 297.138232 277.889718 
L 297.3617 277.47133 
L 297.585168 279.063904 
L 297.808637 279.644248 
L 298.032105 279.063904 
L 298.255573 278.92894 
L 298.479041 279.252853 
L 298.702509 280.130118 
L 298.925977 278.996422 
L 299.149446 279.252853 
L 299.372914 279.131386 
L 299.81985 279.482292 
M 300.937191 278.969429 
L 301.160659 278.982925 
M 302.724936 277.552309 
L 302.948404 276.607562 
L 303.171872 276.148685 
L 303.395341 275.176945 
L 303.618809 275.122959 
L 304.065745 276.297145 
L 304.289213 274.974499 
M 305.85349 275.892253 
L 306.076959 275.730297 
M 307.417768 276.769518 
L 307.864704 282.438 
L 308.088172 280.440535 
L 308.31164 281.007383 
L 308.535108 283.031841 
L 308.758577 283.89561 
L 308.982045 281.65521 
L 309.205513 281.938634 
L 309.875917 285.218255 
L 310.099386 285.420701 
L 310.322854 284.057566 
L 310.546322 283.544704 
L 310.993258 281.479757 
L 311.216726 281.709195 
L 311.440194 282.505482 
L 311.663663 280.777945 
L 311.887131 281.614721 
L 312.557535 287.539634 
L 312.781003 286.689361 
L 313.004472 287.188728 
L 313.22794 286.257477 
L 313.451408 286.824325 
L 313.898344 284.583925 
L 314.345281 286.837822 
L 314.568749 286.082024 
L 314.792217 286.392441 
L 315.015685 287.296699 
L 315.239153 287.337188 
L 315.462621 286.932296 
L 315.68609 287.55313 
L 315.909558 287.053764 
L 316.133026 287.688094 
L 316.356494 286.513908 
M 316.80343 290.549327 
L 317.026899 289.914997 
L 317.250367 288.052496 
L 317.473835 287.661101 
L 317.697303 286.28447 
L 317.920771 286.986282 
L 318.144239 285.744614 
L 318.367707 285.16427 
L 318.814644 285.056299 
L 319.038112 284.435465 
L 319.26158 284.502947 
L 319.485048 286.001046 
L 319.708516 284.475954 
L 319.931985 286.270973 
L 320.155453 285.933564 
L 320.378921 285.31273 
L 320.602389 289.928494 
L 320.825857 288.511373 
L 321.049325 290.171429 
M 321.496262 290.535831 
L 321.71973 287.877043 
M 323.507475 289.45612 
L 323.730943 288.065993 
L 323.954412 285.65014 
L 324.17788 285.366716 
L 324.401348 284.179034 
L 324.624816 285.60965 
L 324.848284 284.04407 
M 327.082966 283.193798 
L 327.306434 283.274776 
L 327.529902 282.977855 
L 327.75337 282.316533 
L 328.200307 280.413542 
L 328.423775 280.265082 
L 328.647243 279.185371 
L 328.870711 279.725227 
L 329.094179 279.887183 
L 329.317647 280.750952 
L 329.541116 280.602492 
L 329.764584 280.116622 
M 330.21152 280.615988 
L 330.434988 280.737456 
L 330.658456 281.223325 
L 330.881925 280.521513 
L 331.105393 282.181569 
L 331.328861 281.682202 
L 331.552329 280.669974 
L 331.775797 280.899412 
L 331.999265 280.170607 
L 332.446202 283.031841 
L 332.66967 282.303036 
L 332.893138 282.343525 
L 333.116606 286.756843 
L 333.340074 285.042802 
L 333.563543 285.731118 
L 333.787011 285.434197 
M 335.12782 284.435465 
L 335.798224 280.265082 
L 336.468629 283.26128 
L 336.692097 282.464993 
L 337.139033 277.781747 
L 337.362501 277.687273 
L 337.585969 276.526583 
L 337.809438 271.384461 
L 338.032906 273.719335 
M 343.843078 254.082095 
L 344.066546 253.933635 
L 344.290014 252.975392 
L 344.513482 253.407276 
M 346.748164 250.03318 
L 346.971632 253.218327 
L 347.1951 258.50891 
L 347.418569 254.945864 
M 350.770591 269.292521 
L 350.994059 271.492432 
L 351.217527 275.028485 
L 351.664464 272.626128 
L 351.887932 273.989263 
L 352.1114 273.921781 
L 352.334868 272.410186 
L 352.558336 271.870331 
L 352.781804 273.948774 
L 353.005273 273.624861 
L 353.228741 274.758557 
L 353.452209 272.788085 
L 353.675677 274.421147 
L 353.899145 274.502126 
L 354.122613 272.450675 
L 354.56955 277.147417 
L 354.793018 269.683916 
L 355.016486 274.191709 
L 355.239954 274.29968 
L 355.463422 271.775856 
L 355.686891 276.040714 
L 355.910359 274.880024 
L 356.133827 271.357468 
M 356.580763 271.114533 
L 356.804231 275.163449 
L 357.027699 272.599135 
L 357.251168 273.260458 
L 357.474636 272.734099 
L 357.698104 273.827306 
L 357.921572 274.056745 
L 358.14504 273.921781 
L 358.368508 273.584372 
L 358.815445 277.349863 
L 359.038913 276.364627 
L 359.485849 280.238089 
L 359.709317 277.80874 
L 359.932786 276.837 
L 360.156254 278.955933 
L 360.379722 278.240624 
L 360.60319 276.890986 
M 363.955213 262.409365 
L 364.178681 259.980016 
L 364.402149 259.710088 
L 364.625617 260.938259 
L 364.849085 258.724852 
M 365.296021 260.870777 
L 365.51949 258.495413 
L 365.742958 258.616881 
L 366.189894 256.228021 
M 367.530703 256.349488 
L 367.977639 257.726119 
L 368.201108 257.348221 
L 368.424576 256.511445 
L 368.648044 257.645141 
L 368.871512 259.494146 
L 369.09498 259.116247 
M 370.435789 261.289165 
L 370.882726 259.345685 
L 371.106194 256.578927 
L 371.55313 257.53717 
L 371.776598 255.809633 
L 372.000066 255.742151 
L 372.670471 253.366787 
L 372.893939 254.352023 
L 373.117407 253.677204 
L 373.564343 256.56543 
L 374.01128 257.942061 
L 374.234748 256.214524 
L 374.458216 256.133546 
L 374.681684 257.996047 
M 380.491856 242.299751 
L 380.938793 236.104911 
L 381.162261 235.888969 
L 381.385729 238.034894 
L 381.609197 236.496306 
L 381.832665 236.698752 
M 386.078561 248.008722 
L 386.302029 248.939973 
M 386.748965 251.949667 
L 386.972433 255.63418 
L 387.195901 255.796136 
L 387.419369 257.415702 
L 387.642838 257.780105 
L 387.866306 259.92603 
L 388.089774 258.009543 
L 388.313242 263.637536 
L 388.53671 264.879203 
L 388.760178 262.341883 
M 389.654051 259.197225 
L 389.877519 258.603384 
L 390.100987 254.433001 
L 390.324456 255.958093 
L 390.547924 259.534635 
L 390.771392 261.113712 
L 390.99486 261.19469 
L 391.218328 262.112444 
L 391.441796 263.7725 
L 391.665265 264.352844 
L 391.888733 266.917157 
L 392.112201 273.894788 
L 392.335669 270.93908 
L 392.559137 271.694878 
L 392.782605 269.67042 
L 393.229542 263.759003 
L 393.45301 264.420326 
L 393.676478 262.841249 
L 393.899946 262.94922 
L 394.123414 268.293789 
L 394.346883 267.457013 
L 394.570351 269.548952 
L 395.017287 269.440981 
L 395.464223 262.94922 
L 395.687691 264.204384 
L 395.91116 268.131832 
L 396.134628 266.768697 
L 396.358096 268.293789 
M 397.251969 267.335545 
L 397.475437 266.228842 
L 397.698905 266.215345 
L 397.922373 265.554023 
L 398.145841 265.67549 
L 398.369309 267.160092 
L 398.816246 261.113712 
L 399.039714 258.441428 
L 399.263182 259.251211 
L 399.48665 260.668331 
L 399.710118 258.886808 
L 399.933587 259.413167 
L 400.157055 262.112444 
L 400.380523 263.394601 
L 400.603991 265.97241 
L 400.827459 262.01797 
M 403.956013 259.062261 
L 404.179482 259.453657 
L 404.626418 253.272312 
L 404.849886 253.20483 
L 405.073354 249.520317 
L 405.520291 247.603831 
L 405.743759 247.79278 
L 405.967227 246.780551 
L 406.190695 248.481096 
L 406.414163 248.454103 
L 406.637631 244.958539 
L 406.8611 248.373125 
L 407.308036 250.937438 
L 407.531504 251.180373 
L 407.754972 252.08463 
M 411.553931 242.461708 
L 411.777399 243.190513 
L 412.000867 241.867867 
L 412.671272 235.0252 
L 412.89474 233.931993 
L 413.118208 237.508535 
L 413.341676 236.671759 
L 413.788613 233.297663 
M 415.576358 236.887701 
L 415.799826 238.399296 
L 416.023294 238.750202 
L 416.246762 237.508535 
L 416.470231 240.801653 
M 418.257976 248.953469 
L 418.481444 247.482363 
L 418.704912 244.958539 
M 419.822253 258.02304 
L 420.045721 262.260905 
L 420.269189 261.491611 
M 421.609998 259.521138 
L 421.833466 260.303929 
L 422.056935 260.317425 
L 422.280403 259.615613 
L 422.503871 260.22295 
L 422.727339 260.168965 
M 423.174275 257.105286 
L 423.397744 255.742151 
L 423.621212 255.134813 
M 424.068148 256.956825 
L 424.291616 253.299305 
M 425.185489 256.26851 
L 425.408957 256.106553 
L 425.855893 252.27358 
L 426.30283 250.991423 
L 426.526298 249.54731 
L 426.749766 248.953469 
L 426.973234 248.683541 
L 427.196702 251.085898 
L 427.42017 248.670045 
M 428.760979 251.868688 
L 429.207916 251.733724 
L 429.431384 251.463797 
M 430.548725 253.353291 
L 430.772193 255.9311 
L 430.995661 256.282006 
L 431.219129 259.237714 
L 431.666066 257.429199 
L 431.889534 254.608454 
M 433.900747 244.445677 
L 434.124215 244.229734 
M 435.018088 244.202742 
L 435.241556 238.250836 
L 435.465024 238.777195 
L 435.688492 240.153826 
L 435.911961 239.155094 
M 438.593579 240.450747 
L 439.040515 241.719407 
L 439.263983 240.734171 
L 439.487451 240.77466 
L 439.710919 242.367233 
L 439.934388 241.800385 
L 440.157856 242.394226 
M 440.604792 246.645587 
L 441.051728 244.13526 
M 441.498665 246.740062 
L 441.945601 240.653192 
L 442.169069 240.842142 
L 442.392537 238.480274 
L 442.616005 238.601742 
L 443.062942 237.913426 
L 443.28641 239.114605 
L 443.509878 238.412792 
L 443.956814 240.572214 
L 444.180283 239.613971 
L 444.403751 239.532992 
M 445.297623 237.764966 
L 445.74456 238.777195 
L 445.968028 238.142865 
L 446.191496 238.237339 
L 446.414964 236.347846 
L 446.638432 235.740508 
L 446.861901 235.915961 
L 447.085369 237.89993 
L 447.532305 234.296395 
L 447.755773 234.971214 
L 447.979241 237.157629 
L 448.20271 231.17873 
L 448.426178 232.271937 
L 448.649646 230.679364 
L 448.873114 232.29893 
L 449.32005 230.328458 
L 449.766987 233.648569 
M 451.554732 230.679364 
L 451.7782 230.274472 
L 452.001668 228.142044 
L 452.225136 229.167769 
L 452.448605 229.181265 
L 452.672073 227.966591 
L 452.895541 228.614417 
L 453.119009 228.803366 
L 453.342477 228.560432 
L 453.565945 228.614417 
L 453.789414 227.939598 
L 454.23635 228.573928 
L 454.459818 227.629181 
L 454.683286 228.78987 
L 454.906754 227.777641 
L 455.130223 228.749381 
L 455.353691 226.185068 
L 455.577159 225.483256 
L 455.800627 226.900376 
L 456.024095 226.832894 
L 456.471031 228.897841 
L 456.6945 229.235251 
L 456.917968 225.064868 
L 457.141436 226.994851 
L 457.588372 224.592494 
L 457.81184 227.939598 
L 458.035309 228.573928 
L 458.258777 226.69793 
L 458.705713 228.627913 
M 459.152649 232.055995 
L 459.599586 225.375285 
M 460.716927 221.461333 
L 460.940395 221.812239 
M 463.845481 237.306089 
L 464.068949 245.093503 
L 464.292417 248.076204 
L 464.515885 263.043695 
L 464.739353 249.817238 
L 464.962822 256.389977 
L 465.18629 268.84714 
L 465.409758 259.980016 
L 465.633226 292.236375 
L 465.856694 290.616809 
M 467.197503 277.214899 
L 467.420971 271.289986 
L 467.64444 272.815078 
L 467.867908 270.480203 
L 468.091376 274.070241 
L 468.314844 281.668706 
L 468.538312 278.375588 
M 468.985249 270.399225 
L 469.208717 267.443516 
L 469.432185 262.868242 
L 469.655653 261.572589 
L 469.879121 261.721049 
L 470.102589 256.497948 
M 476.13623 227.386246 
L 476.583166 223.404812 
L 476.806634 217.43941 
L 477.030102 217.29095 
L 477.253571 214.281256 
L 477.477039 215.671384 
L 477.700507 212.081346 
L 477.923975 210.920656 
L 478.147443 216.535153 
L 478.370911 213.44448 
L 478.59438 213.660423 
L 478.817848 215.333974 
L 479.041316 214.618666 
M 479.71172 217.817309 
L 480.158657 207.128172 
L 480.605593 209.584514 
L 480.829061 208.383336 
L 481.052529 208.977177 
M 488.650447 182.537759 
L 488.873915 178.812757 
M 489.320851 181.903429 
L 489.544319 176.4104 
L 489.767788 177.08522 
L 490.214724 176.180962 
L 490.66166 166.66601 
L 490.885128 166.274615 
L 491.108597 160.241731 
L 491.332065 165.748256 
L 491.779001 167.934671 
L 492.225937 160.106767 
L 492.672874 179.13667 
L 492.896342 182.713212 
L 493.11981 174.898805 
L 493.343278 176.518371 
L 494.013683 162.07724 
L 494.460619 169.162842 
L 494.684087 174.129511 
M 496.471832 166.355594 
L 496.695301 164.587567 
L 496.918769 165.505321 
L 497.142237 162.738562 
L 497.365705 167.529779 
L 497.812641 159.593905 
L 498.03611 156.408758 
M 498.706514 155.895895 
L 499.15345 150.375874 
L 499.376919 153.844445 
M 499.823855 154.694717 
L 500.047323 159.081042 
L 500.270791 157.879864 
L 500.941196 172.347988 
L 501.164664 173.252246 
L 501.388132 176.828788 
L 501.6116 173.954058 
L 502.058536 163.170447 
L 502.282005 161.780319 
L 502.505473 162.765555 
L 502.728941 183.104607 
L 503.175877 176.963752 
L 503.399345 176.990745 
L 503.622814 175.303697 
L 503.846282 171.700162 
L 504.06975 174.453424 
M 504.740154 187.855335 
L 504.963623 182.807687 
L 505.187091 181.066653 
L 505.410559 181.174624 
L 505.634027 181.458048 
L 505.857495 179.905964 
M 507.198304 186.087308 
L 507.421772 174.089022 
L 507.645241 173.967555 
L 507.868709 177.206687 
L 508.315645 169.770179 
L 508.539113 169.945632 
L 508.762581 169.486755 
L 508.98605 169.945632 
L 509.209518 168.42054 
L 509.432986 168.042642 
M 511.444199 170.121085 
L 511.667667 169.257316 
L 512.114604 165.73476 
L 512.338072 162.131225 
L 513.008476 158.959575 
L 513.231945 159.742365 
L 513.455413 157.542454 
L 513.678881 157.609936 
L 513.902349 157.528958 
L 514.125817 155.234572 
L 514.349285 155.774428 
L 514.572754 163.858762 
L 514.796222 157.609936 
L 515.243158 169.716193 
L 515.913563 156.678686 
M 517.47784 155.288558 
L 517.701308 151.145168 
L 517.924776 151.104679 
L 518.148244 150.591816 
L 518.818649 171.14681 
M 524.628821 131.993798 
L 524.852289 128.741169 
L 525.075757 128.106839 
L 525.299225 128.822147 
L 525.522693 128.093342 
L 525.746162 122.289897 
L 525.96963 119.40167 
L 526.193098 120.656834 
L 526.416566 118.227485 
L 526.863502 109.144418 
L 527.086971 114.866885 
L 527.310439 116.540437 
L 527.533907 115.001849 
L 527.757375 118.524405 
L 527.980843 119.023772 
L 528.204311 121.372143 
L 528.42778 121.561092 
L 528.651248 125.596511 
L 528.874716 122.384372 
L 529.098184 125.34008 
L 529.321652 121.358646 
L 529.54512 119.874044 
L 529.768589 120.278935 
L 529.992057 112.262083 
L 530.215525 108.941972 
M 530.662461 113.071866 
L 530.885929 126.298323 
M 531.332866 121.750041 
L 531.556334 128.201313 
L 532.00327 132.803581 
L 532.226738 129.173053 
L 532.450206 130.441713 
L 532.673675 132.884559 
L 532.897143 129.699412 
M 533.791015 131.278489 
L 534.014484 132.736099 
L 534.46142 133.896788 
L 534.684888 133.437911 
L 534.908356 131.885827 
L 535.131824 132.965537 
L 535.355293 135.421879 
L 535.578761 132.682113 
M 537.143038 131.453942 
L 537.366506 132.236733 
L 538.036911 129.442981 
L 538.260379 128.106839 
L 538.483847 128.417256 
L 538.707315 125.920424 
L 538.930783 126.068885 
L 539.154251 127.364538 
L 539.37772 125.839446 
L 539.601188 129.996333 
L 539.824656 126.581747 
L 540.048124 126.257834 
L 540.49506 130.077311 
L 540.718528 126.014899 
L 540.941997 125.48854 
L 541.165465 129.861369 
L 541.835869 124.638268 
L 542.059337 119.145239 
L 542.729742 130.549684 
L 542.95321 128.889629 
L 543.176678 130.144793 
L 543.400146 132.479667 
L 543.623615 128.444248 
L 543.847083 133.910284 
L 544.070551 132.857566 
L 544.294019 133.559378 
L 544.517487 136.488094 
L 544.740955 134.139723 
L 544.964424 127.674954 
L 545.41136 133.087005 
L 545.634828 129.078578 
M 546.081764 120.643338 
L 546.305233 116.783372 
L 546.528701 109.198403 
L 546.975637 115.703661 
L 547.199105 111.93817 
L 547.422573 112.653478 
L 547.646041 112.316068 
L 548.316446 115.649675 
L 548.539914 111.978659 
L 548.763382 112.208097 
L 549.210319 114.758914 
L 549.433787 116.216524 
L 549.880723 112.113623 
L 550.104191 114.650943 
L 550.327659 112.707464 
L 550.551128 108.834001 
L 550.774596 108.0917 
L 550.998064 113.166341 
L 551.221532 111.816702 
L 551.445 108.280649 
L 551.668468 109.50882 
L 551.891937 109.657281 
L 552.115405 105.932278 
M 555.914363 86.524477 
L 556.584768 77.333439 
L 556.808236 78.345668 
M 559.042918 74.512694 
L 559.266386 76.348203 
M 560.160259 59.842124 
L 560.383727 58.559967 
L 560.830663 53.444837 
L 561.054131 49.625361 
L 561.277599 50.219201 
L 561.501068 49.247462 
L 561.724536 55.914676 
L 561.948004 54.713498 
L 562.171472 60.098555 
L 562.39494 59.086326 
L 562.618408 52.270652 
L 562.841877 54.565037 
L 563.065345 51.204438 
L 563.288813 43.471009 
L 563.512281 43.700448 
L 563.735749 41.797457 
L 563.959217 37.438125 
L 564.406154 49.4769 
L 564.629622 42.620737 
L 565.300026 58.708428 
L 565.523494 56.872919 
L 565.746963 53.201903 
L 565.970431 52.675544 
L 566.193899 47.803349 
L 566.417367 47.371464 
M 568.205112 51.325905 
L 568.428581 55.914676 
L 568.875517 51.825271 
L 569.098985 51.852264 
L 569.545921 68.439321 
L 569.76939 73.44648 
L 569.992858 87.982086 
L 570.216326 86.51098 
L 570.439794 76.61813 
L 571.110198 85.282809 
L 571.333667 73.055085 
M 572.451007 81.044945 
L 572.674476 83.811704 
L 572.897944 77.414417 
L 573.121412 74.850104 
L 573.34488 83.298841 
L 573.568348 85.309802 
L 573.791816 85.255817 
L 574.015285 82.354094 
L 574.238753 83.8252 
L 574.462221 88.171036 
L 574.685689 89.655638 
L 574.909157 100.58771 
M 576.026498 91.261708 
L 576.249966 81.598296 
L 576.920371 90.235983 
L 577.143839 88.886344 
L 577.367307 85.350291 
L 577.814243 90.303465 
M 579.601989 92.044498 
" clip-path="url(#pe4ec061951)" style="fill: none; stroke: #1e90ff; stroke-linecap: square"/>
   </g>
   <g id="patch_3">
    <path d="M 46.965625 354.958125 
L 46.965625 22.318125 
" style="fill: none; stroke: #000000; stroke-width: 0.8; stroke-linejoin: miter; stroke-linecap: square"/>
   </g>
   <g id="patch_4">
    <path d="M 604.965625 354.958125 
L 604.965625 22.318125 
" style="fill: none; stroke: #000000; stroke-width: 0.8; stroke-linejoin: miter; stroke-linecap: square"/>
   </g>
   <g id="patch_5">
    <path d="M 46.965625 354.958125 
L 604.965625 354.958125 
" style="fill: none; stroke: #000000; stroke-width: 0.8; stroke-linejoin: miter; stroke-linecap: square"/>
   </g>
   <g id="patch_6">
    <path d="M 46.965625 22.318125 
L 604.965625 22.318125 
" style="fill: none; stroke: #000000; stroke-width: 0.8; stroke-linejoin: miter; stroke-linecap: square"/>
   </g>
   <g id="text_13">
    <!-- LOW, Relative Strength Index (RSI), LOW -->
    <g transform="translate(203.9575 16.318125)scale(0.12 -0.12)">
     <defs>
      <path id="DejaVuSans-4c" d="M 628 4666 
L 1259 4666 
L 1259 531 
L 3531 531 
L 3531 0 
L 628 0 
L 628 4666 
z
" transform="scale(0.015625)"/>
      <path id="DejaVuSans-4f" d="M 2522 4238 
Q 1834 4238 1429 3725 
Q 1025 3213 1025 2328 
Q 1025 1447 1429 934 
Q 1834 422 2522 422 
Q 3209 422 3611 934 
Q 4013 1447 4013 2328 
Q 4013 3213 3611 3725 
Q 3209 4238 2522 4238 
z
M 2522 4750 
Q 3503 4750 4090 4092 
Q 4678 3434 4678 2328 
Q 4678 1225 4090 567 
Q 3503 -91 2522 -91 
Q 1538 -91 948 565 
Q 359 1222 359 2328 
Q 359 3434 948 4092 
Q 1538 4750 2522 4750 
z
" transform="scale(0.015625)"/>
      <path id="DejaVuSans-57" d="M 213 4666 
L 850 4666 
L 1831 722 
L 2809 4666 
L 3519 4666 
L 4500 722 
L 5478 4666 
L 6119 4666 
L 4947 0 
L 4153 0 
L 3169 4050 
L 2175 0 
L 1381 0 
L 213 4666 
z
" transform="scale(0.015625)"/>
      <path id="DejaVuSans-2c" d="M 750 794 
L 1409 794 
L 1409 256 
L 897 -744 
L 494 -744 
L 750 256 
L 750 794 
z
" transform="scale(0.015625)"/>
      <path id="DejaVuSans-52" d="M 2841 2188 
Q 3044 2119 3236 1894 
Q 3428 1669 3622 1275 
L 4263 0 
L 3584 0 
L 2988 1197 
Q 2756 1666 2539 1819 
Q 2322 1972 1947 1972 
L 1259 1972 
L 1259 0 
L 628 0 
L 628 4666 
L 2053 4666 
Q 2853 4666 3247 4331 
Q 3641 3997 3641 3322 
Q 3641 2881 3436 2590 
Q 3231 2300 2841 2188 
z
M 1259 4147 
L 1259 2491 
L 2053 2491 
Q 2509 2491 2742 2702 
Q 2975 2913 2975 3322 
Q 2975 3731 2742 3939 
Q 2509 4147 2053 4147 
L 1259 4147 
z
" transform="scale(0.015625)"/>
      <path id="DejaVuSans-6c" d="M 603 4863 
L 1178 4863 
L 1178 0 
L 603 0 
L 603 4863 
z
" transform="scale(0.015625)"/>
      <path id="DejaVuSans-76" d="M 191 3500 
L 800 3500 
L 1894 563 
L 2988 3500 
L 3597 3500 
L 2284 0 
L 1503 0 
L 191 3500 
z
" transform="scale(0.015625)"/>
      <path id="DejaVuSans-6e" d="M 3513 2113 
L 3513 0 
L 2938 0 
L 2938 2094 
Q 2938 2591 2744 2837 
Q 2550 3084 2163 3084 
Q 1697 3084 1428 2787 
Q 1159 2491 1159 1978 
L 1159 0 
L 581 0 
L 581 3500 
L 1159 3500 
L 1159 2956 
Q 1366 3272 1645 3428 
Q 1925 3584 2291 3584 
Q 2894 3584 3203 3211 
Q 3513 2838 3513 2113 
z
" transform="scale(0.015625)"/>
      <path id="DejaVuSans-67" d="M 2906 1791 
Q 2906 2416 2648 2759 
Q 2391 3103 1925 3103 
Q 1463 3103 1205 2759 
Q 947 2416 947 1791 
Q 947 1169 1205 825 
Q 1463 481 1925 481 
Q 2391 481 2648 825 
Q 2906 1169 2906 1791 
z
M 3481 434 
Q 3481 -459 3084 -895 
Q 2688 -1331 1869 -1331 
Q 1566 -1331 1297 -1286 
Q 1028 -1241 775 -1147 
L 775 -588 
Q 1028 -725 1275 -790 
Q 1522 -856 1778 -856 
Q 2344 -856 2625 -561 
Q 2906 -266 2906 331 
L 2906 616 
Q 2728 306 2450 153 
Q 2172 0 1784 0 
Q 1141 0 747 490 
Q 353 981 353 1791 
Q 353 2603 747 3093 
Q 1141 3584 1784 3584 
Q 2172 3584 2450 3431 
Q 2728 3278 2906 2969 
L 2906 3500 
L 3481 3500 
L 3481 434 
z
" transform="scale(0.015625)"/>
      <path id="DejaVuSans-68" d="M 3513 2113 
L 3513 0 
L 2938 0 
L 2938 2094 
Q 2938 2591 2744 2837 
Q 2550 3084 2163 3084 
Q 1697 3084 1428 2787 
Q 1159 2491 1159 1978 
L 1159 0 
L 581 0 
L 581 4863 
L 1159 4863 
L 1159 2956 
Q 1366 3272 1645 3428 
Q 1925 3584 2291 3584 
Q 2894 3584 3203 3211 
Q 3513 2838 3513 2113 
z
" transform="scale(0.015625)"/>
      <path id="DejaVuSans-49" d="M 628 4666 
L 1259 4666 
L 1259 0 
L 628 0 
L 628 4666 
z
" transform="scale(0.015625)"/>
      <path id="DejaVuSans-64" d="M 2906 2969 
L 2906 4863 
L 3481 4863 
L 3481 0 
L 2906 0 
L 2906 525 
Q 2725 213 2448 61 
Q 2172 -91 1784 -91 
Q 1150 -91 751 415 
Q 353 922 353 1747 
Q 353 2572 751 3078 
Q 1150 3584 1784 3584 
Q 2172 3584 2448 3432 
Q 2725 3281 2906 2969 
z
M 947 1747 
Q 947 1113 1208 752 
Q 1469 391 1925 391 
Q 2381 391 2643 752 
Q 2906 1113 2906 1747 
Q 2906 2381 2643 2742 
Q 2381 3103 1925 3103 
Q 1469 3103 1208 2742 
Q 947 2381 947 1747 
z
" transform="scale(0.015625)"/>
      <path id="DejaVuSans-78" d="M 3513 3500 
L 2247 1797 
L 3578 0 
L 2900 0 
L 1881 1375 
L 863 0 
L 184 0 
L 1544 1831 
L 300 3500 
L 978 3500 
L 1906 2253 
L 2834 3500 
L 3513 3500 
z
" transform="scale(0.015625)"/>
     </defs>
     <use xlink:href="#DejaVuSans-4c"/>
     <use xlink:href="#DejaVuSans-4f" x="52.087891"/>
     <use xlink:href="#DejaVuSans-57" x="130.798828"/>
     <use xlink:href="#DejaVuSans-2c" x="229.675781"/>
     <use xlink:href="#DejaVuSans-20" x="261.462891"/>
     <use xlink:href="#DejaVuSans-52" x="293.25"/>
     <use xlink:href="#DejaVuSans-65" x="358.232422"/>
     <use xlink:href="#DejaVuSans-6c" x="419.755859"/>
     <use xlink:href="#DejaVuSans-61" x="447.539062"/>
     <use xlink:href="#DejaVuSans-74" x="508.818359"/>
     <use xlink:href="#DejaVuSans-69" x="548.027344"/>
     <use xlink:href="#DejaVuSans-76" x="575.810547"/>
     <use xlink:href="#DejaVuSans-65" x="634.990234"/>
     <use xlink:href="#DejaVuSans-20" x="696.513672"/>
     <use xlink:href="#DejaVuSans-53" x="728.300781"/>
     <use xlink:href="#DejaVuSans-74" x="791.777344"/>
     <use xlink:href="#DejaVuSans-72" x="830.986328"/>
     <use xlink:href="#DejaVuSans-65" x="869.849609"/>
     <use xlink:href="#DejaVuSans-6e" x="931.373047"/>
     <use xlink:href="#DejaVuSans-67" x="994.751953"/>
     <use xlink:href="#DejaVuSans-74" x="1058.228516"/>
     <use xlink:href="#DejaVuSans-68" x="1097.4375"/>
     <use xlink:href="#DejaVuSans-20" x="1160.816406"/>
     <use xlink:href="#DejaVuSans-49" x="1192.603516"/>
     <use xlink:href="#DejaVuSans-6e" x="1222.095703"/>
     <use xlink:href="#DejaVuSans-64" x="1285.474609"/>
     <use xlink:href="#DejaVuSans-65" x="1348.951172"/>
     <use xlink:href="#DejaVuSans-78" x="1408.724609"/>
     <use xlink:href="#DejaVuSans-20" x="1467.904297"/>
     <use xlink:href="#DejaVuSans-28" x="1499.691406"/>
     <use xlink:href="#DejaVuSans-52" x="1538.705078"/>
     <use xlink:href="#DejaVuSans-53" x="1608.1875"/>
     <use xlink:href="#DejaVuSans-49" x="1671.664062"/>
     <use xlink:href="#DejaVuSans-29" x="1701.15625"/>
     <use xlink:href="#DejaVuSans-2c" x="1740.169922"/>
     <use xlink:href="#DejaVuSans-20" x="1771.957031"/>
     <use xlink:href="#DejaVuSans-4c" x="1803.744141"/>
     <use xlink:href="#DejaVuSans-4f" x="1855.832031"/>
     <use xlink:href="#DejaVuSans-57" x="1934.542969"/>
    </g>
   </g>
   <g id="legend_1">
    <g id="patch_7">
     <path d="M 53.965625 74.3525 
L 203.875 74.3525 
Q 205.875 74.3525 205.875 72.3525 
L 205.875 29.318125 
Q 205.875 27.318125 203.875 27.318125 
L 53.965625 27.318125 
Q 51.965625 27.318125 51.965625 29.318125 
L 51.965625 72.3525 
Q 51.965625 74.3525 53.965625 74.3525 
z
" style="fill: #ffffff; opacity: 0.8; stroke: #cccccc; stroke-linejoin: miter"/>
    </g>
    <g id="line2d_19">
     <path d="M 55.965625 35.416562 
L 65.965625 35.416562 
L 75.965625 35.416562 
" style="fill: none; stroke: #00ff7f; stroke-linecap: square"/>
    </g>
    <g id="text_14">
     <!-- Oversold, RSI &lt;= 30 -->
     <g transform="translate(83.965625 38.916562)scale(0.1 -0.1)">
      <defs>
       <path id="DejaVuSans-73" d="M 2834 3397 
L 2834 2853 
Q 2591 2978 2328 3040 
Q 2066 3103 1784 3103 
Q 1356 3103 1142 2972 
Q 928 2841 928 2578 
Q 928 2378 1081 2264 
Q 1234 2150 1697 2047 
L 1894 2003 
Q 2506 1872 2764 1633 
Q 3022 1394 3022 966 
Q 3022 478 2636 193 
Q 2250 -91 1575 -91 
Q 1294 -91 989 -36 
Q 684 19 347 128 
L 347 722 
Q 666 556 975 473 
Q 1284 391 1588 391 
Q 1994 391 2212 530 
Q 2431 669 2431 922 
Q 2431 1156 2273 1281 
Q 2116 1406 1581 1522 
L 1381 1569 
Q 847 1681 609 1914 
Q 372 2147 372 2553 
Q 372 3047 722 3315 
Q 1072 3584 1716 3584 
Q 2034 3584 2315 3537 
Q 2597 3491 2834 3397 
z
" transform="scale(0.015625)"/>
       <path id="DejaVuSans-6f" d="M 1959 3097 
Q 1497 3097 1228 2736 
Q 959 2375 959 1747 
Q 959 1119 1226 758 
Q 1494 397 1959 397 
Q 2419 397 2687 759 
Q 2956 1122 2956 1747 
Q 2956 2369 2687 2733 
Q 2419 3097 1959 3097 
z
M 1959 3584 
Q 2709 3584 3137 3096 
Q 3566 2609 3566 1747 
Q 3566 888 3137 398 
Q 2709 -91 1959 -91 
Q 1206 -91 779 398 
Q 353 888 353 1747 
Q 353 2609 779 3096 
Q 1206 3584 1959 3584 
z
" transform="scale(0.015625)"/>
       <path id="DejaVuSans-3c" d="M 4684 3150 
L 1459 2003 
L 4684 863 
L 4684 294 
L 678 1747 
L 678 2266 
L 4684 3719 
L 4684 3150 
z
" transform="scale(0.015625)"/>
       <path id="DejaVuSans-3d" d="M 678 2906 
L 4684 2906 
L 4684 2381 
L 678 2381 
L 678 2906 
z
M 678 1631 
L 4684 1631 
L 4684 1100 
L 678 1100 
L 678 1631 
z
" transform="scale(0.015625)"/>
       <path id="DejaVuSans-33" d="M 2597 2516 
Q 3050 2419 3304 2112 
Q 3559 1806 3559 1356 
Q 3559 666 3084 287 
Q 2609 -91 1734 -91 
Q 1441 -91 1130 -33 
Q 819 25 488 141 
L 488 750 
Q 750 597 1062 519 
Q 1375 441 1716 441 
Q 2309 441 2620 675 
Q 2931 909 2931 1356 
Q 2931 1769 2642 2001 
Q 2353 2234 1838 2234 
L 1294 2234 
L 1294 2753 
L 1863 2753 
Q 2328 2753 2575 2939 
Q 2822 3125 2822 3475 
Q 2822 3834 2567 4026 
Q 2313 4219 1838 4219 
Q 1578 4219 1281 4162 
Q 984 4106 628 3988 
L 628 4550 
Q 988 4650 1302 4700 
Q 1616 4750 1894 4750 
Q 2613 4750 3031 4423 
Q 3450 4097 3450 3541 
Q 3450 3153 3228 2886 
Q 3006 2619 2597 2516 
z
" transform="scale(0.015625)"/>
      </defs>
      <use xlink:href="#DejaVuSans-4f"/>
      <use xlink:href="#DejaVuSans-76" x="78.710938"/>
      <use xlink:href="#DejaVuSans-65" x="137.890625"/>
      <use xlink:href="#DejaVuSans-72" x="199.414062"/>
      <use xlink:href="#DejaVuSans-73" x="240.527344"/>
      <use xlink:href="#DejaVuSans-6f" x="292.626953"/>
      <use xlink:href="#DejaVuSans-6c" x="353.808594"/>
      <use xlink:href="#DejaVuSans-64" x="381.591797"/>
      <use xlink:href="#DejaVuSans-2c" x="445.068359"/>
      <use xlink:href="#DejaVuSans-20" x="476.855469"/>
      <use xlink:href="#DejaVuSans-52" x="508.642578"/>
      <use xlink:href="#DejaVuSans-53" x="578.125"/>
      <use xlink:href="#DejaVuSans-49" x="641.601562"/>
      <use xlink:href="#DejaVuSans-20" x="671.09375"/>
      <use xlink:href="#DejaVuSans-3c" x="702.880859"/>
      <use xlink:href="#DejaVuSans-3d" x="786.669922"/>
      <use xlink:href="#DejaVuSans-20" x="870.458984"/>
      <use xlink:href="#DejaVuSans-33" x="902.246094"/>
      <use xlink:href="#DejaVuSans-30" x="965.869141"/>
     </g>
    </g>
    <g id="line2d_20">
     <path d="M 55.965625 50.094687 
L 65.965625 50.094687 
L 75.965625 50.094687 
" style="fill: none; stroke: #ff4500; stroke-linecap: square"/>
    </g>
    <g id="text_15">
     <!-- Overbought, RSI &gt;= 70 -->
     <g transform="translate(83.965625 53.594687)scale(0.1 -0.1)">
      <defs>
       <path id="DejaVuSans-62" d="M 3116 1747 
Q 3116 2381 2855 2742 
Q 2594 3103 2138 3103 
Q 1681 3103 1420 2742 
Q 1159 2381 1159 1747 
Q 1159 1113 1420 752 
Q 1681 391 2138 391 
Q 2594 391 2855 752 
Q 3116 1113 3116 1747 
z
M 1159 2969 
Q 1341 3281 1617 3432 
Q 1894 3584 2278 3584 
Q 2916 3584 3314 3078 
Q 3713 2572 3713 1747 
Q 3713 922 3314 415 
Q 2916 -91 2278 -91 
Q 1894 -91 1617 61 
Q 1341 213 1159 525 
L 1159 0 
L 581 0 
L 581 4863 
L 1159 4863 
L 1159 2969 
z
" transform="scale(0.015625)"/>
       <path id="DejaVuSans-75" d="M 544 1381 
L 544 3500 
L 1119 3500 
L 1119 1403 
Q 1119 906 1312 657 
Q 1506 409 1894 409 
Q 2359 409 2629 706 
Q 2900 1003 2900 1516 
L 2900 3500 
L 3475 3500 
L 3475 0 
L 2900 0 
L 2900 538 
Q 2691 219 2414 64 
Q 2138 -91 1772 -91 
Q 1169 -91 856 284 
Q 544 659 544 1381 
z
M 1991 3584 
L 1991 3584 
z
" transform="scale(0.015625)"/>
       <path id="DejaVuSans-3e" d="M 678 3150 
L 678 3719 
L 4684 2266 
L 4684 1747 
L 678 294 
L 678 863 
L 3897 2003 
L 678 3150 
z
" transform="scale(0.015625)"/>
       <path id="DejaVuSans-37" d="M 525 4666 
L 3525 4666 
L 3525 4397 
L 1831 0 
L 1172 0 
L 2766 4134 
L 525 4134 
L 525 4666 
z
" transform="scale(0.015625)"/>
      </defs>
      <use xlink:href="#DejaVuSans-4f"/>
      <use xlink:href="#DejaVuSans-76" x="78.710938"/>
      <use xlink:href="#DejaVuSans-65" x="137.890625"/>
      <use xlink:href="#DejaVuSans-72" x="199.414062"/>
      <use xlink:href="#DejaVuSans-62" x="240.527344"/>
      <use xlink:href="#DejaVuSans-6f" x="304.003906"/>
      <use xlink:href="#DejaVuSans-75" x="365.185547"/>
      <use xlink:href="#DejaVuSans-67" x="428.564453"/>
      <use xlink:href="#DejaVuSans-68" x="492.041016"/>
      <use xlink:href="#DejaVuSans-74" x="555.419922"/>
      <use xlink:href="#DejaVuSans-2c" x="594.628906"/>
      <use xlink:href="#DejaVuSans-20" x="626.416016"/>
      <use xlink:href="#DejaVuSans-52" x="658.203125"/>
      <use xlink:href="#DejaVuSans-53" x="727.685547"/>
      <use xlink:href="#DejaVuSans-49" x="791.162109"/>
      <use xlink:href="#DejaVuSans-20" x="820.654297"/>
      <use xlink:href="#DejaVuSans-3e" x="852.441406"/>
      <use xlink:href="#DejaVuSans-3d" x="936.230469"/>
      <use xlink:href="#DejaVuSans-20" x="1020.019531"/>
      <use xlink:href="#DejaVuSans-37" x="1051.806641"/>
      <use xlink:href="#DejaVuSans-30" x="1115.429688"/>
     </g>
    </g>
    <g id="line2d_21">
     <path d="M 55.965625 64.772812 
L 65.965625 64.772812 
L 75.965625 64.772812 
" style="fill: none; stroke: #1e90ff; stroke-linecap: square"/>
    </g>
    <g id="text_16">
     <!-- Neutral -->
     <g transform="translate(83.965625 68.272812)scale(0.1 -0.1)">
      <defs>
       <path id="DejaVuSans-4e" d="M 628 4666 
L 1478 4666 
L 3547 763 
L 3547 4666 
L 4159 4666 
L 4159 0 
L 3309 0 
L 1241 3903 
L 1241 0 
L 628 0 
L 628 4666 
z
" transform="scale(0.015625)"/>
      </defs>
      <use xlink:href="#DejaVuSans-4e"/>
      <use xlink:href="#DejaVuSans-65" x="74.804688"/>
      <use xlink:href="#DejaVuSans-75" x="136.328125"/>
      <use xlink:href="#DejaVuSans-74" x="199.707031"/>
      <use xlink:href="#DejaVuSans-72" x="238.916016"/>
      <use xlink:href="#DejaVuSans-61" x="280.029297"/>
      <use xlink:href="#DejaVuSans-6c" x="341.308594"/>
     </g>
    </g>
   </g>
  </g>
 </g>
 <defs>
  <clipPath id="pe4ec061951">
   <rect x="46.965625" y="22.318125" width="558" height="332.64"/>
  </clipPath>
 </defs>
</svg>
