<?xml version="1.0" encoding="utf-8" standalone="no"?>
<!DOCTYPE svg PUBLIC "-//W3C//DTD SVG 1.1//EN"
  "http://www.w3.org/Graphics/SVG/1.1/DTD/svg11.dtd">
<svg xmlns:xlink="http://www.w3.org/1999/xlink" width="691.28175pt" height="422.947075pt" viewBox="0 0 691.28175 422.947075" xmlns="http://www.w3.org/2000/svg" version="1.1">
 <metadata>
  <rdf:RDF xmlns:dc="http://purl.org/dc/elements/1.1/" xmlns:cc="http://creativecommons.org/ns#" xmlns:rdf="http://www.w3.org/1999/02/22-rdf-syntax-ns#">
   <cc:Work>
    <dc:type rdf:resource="http://purl.org/dc/dcmitype/StillImage"/>
    <dc:date>2023-04-23T14:47:36.327151</dc:date>
    <dc:format>image/svg+xml</dc:format>
    <dc:creator>
     <cc:Agent>
      <dc:title>Matplotlib v3.5.1, https://matplotlib.org/</dc:title>
     </cc:Agent>
    </dc:creator>
   </cc:Work>
  </rdf:RDF>
 </metadata>
 <defs>
  <style type="text/css">*{stroke-linejoin: round; stroke-linecap: butt}</style>
 </defs>
 <g id="figure_1">
  <g id="patch_1">
   <path d="M 0 422.947075 
L 691.28175 422.947075 
L 691.28175 0 
L 0 0 
z
" style="fill: #f0f0f0"/>
  </g>
  <g id="axes_1">
   <g id="patch_2">
    <path d="M 57.68175 378.43845 
L 684.08175 378.43845 
L 684.08175 28.51845 
L 57.68175 28.51845 
z
" style="fill: #f0f0f0"/>
   </g>
   <g id="matplotlib.axis_1">
    <g id="xtick_1">
     <g id="line2d_1">
      <path d="M 86.154477 378.43845 
L 86.154477 28.51845 
" clip-path="url(#pab48d45a58)" style="fill: none; stroke: #cbcbcb"/>
     </g>
     <g id="line2d_2"/>
     <g id="text_1">
      <!-- 0 -->
      <g transform="translate(81.700727 392.576263)scale(0.14 -0.14)">
       <defs>
        <path id="DejaVuSans-30" d="M 2034 4250 
Q 1547 4250 1301 3770 
Q 1056 3291 1056 2328 
Q 1056 1369 1301 889 
Q 1547 409 2034 409 
Q 2525 409 2770 889 
Q 3016 1369 3016 2328 
Q 3016 3291 2770 3770 
Q 2525 4250 2034 4250 
z
M 2034 4750 
Q 2819 4750 3233 4129 
Q 3647 3509 3647 2328 
Q 3647 1150 3233 529 
Q 2819 -91 2034 -91 
Q 1250 -91 836 529 
Q 422 1150 422 2328 
Q 422 3509 836 4129 
Q 1250 4750 2034 4750 
z
" transform="scale(0.015625)"/>
       </defs>
       <use xlink:href="#DejaVuSans-30"/>
      </g>
     </g>
    </g>
    <g id="xtick_2">
     <g id="line2d_3">
      <path d="M 207.573357 378.43845 
L 207.573357 28.51845 
" clip-path="url(#pab48d45a58)" style="fill: none; stroke: #cbcbcb"/>
     </g>
     <g id="line2d_4"/>
     <g id="text_2">
      <!-- 500 -->
      <g transform="translate(194.212107 392.576263)scale(0.14 -0.14)">
       <defs>
        <path id="DejaVuSans-35" d="M 691 4666 
L 3169 4666 
L 3169 4134 
L 1269 4134 
L 1269 2991 
Q 1406 3038 1543 3061 
Q 1681 3084 1819 3084 
Q 2600 3084 3056 2656 
Q 3513 2228 3513 1497 
Q 3513 744 3044 326 
Q 2575 -91 1722 -91 
Q 1428 -91 1123 -41 
Q 819 9 494 109 
L 494 744 
Q 775 591 1075 516 
Q 1375 441 1709 441 
Q 2250 441 2565 725 
Q 2881 1009 2881 1497 
Q 2881 1984 2565 2268 
Q 2250 2553 1709 2553 
Q 1456 2553 1204 2497 
Q 953 2441 691 2322 
L 691 4666 
z
" transform="scale(0.015625)"/>
       </defs>
       <use xlink:href="#DejaVuSans-35"/>
       <use xlink:href="#DejaVuSans-30" x="63.623047"/>
       <use xlink:href="#DejaVuSans-30" x="127.246094"/>
      </g>
     </g>
    </g>
    <g id="xtick_3">
     <g id="line2d_5">
      <path d="M 328.992237 378.43845 
L 328.992237 28.51845 
" clip-path="url(#pab48d45a58)" style="fill: none; stroke: #cbcbcb"/>
     </g>
     <g id="line2d_6"/>
     <g id="text_3">
      <!-- 1000 -->
      <g transform="translate(311.177237 392.576263)scale(0.14 -0.14)">
       <defs>
        <path id="DejaVuSans-31" d="M 794 531 
L 1825 531 
L 1825 4091 
L 703 3866 
L 703 4441 
L 1819 4666 
L 2450 4666 
L 2450 531 
L 3481 531 
L 3481 0 
L 794 0 
L 794 531 
z
" transform="scale(0.015625)"/>
       </defs>
       <use xlink:href="#DejaVuSans-31"/>
       <use xlink:href="#DejaVuSans-30" x="63.623047"/>
       <use xlink:href="#DejaVuSans-30" x="127.246094"/>
       <use xlink:href="#DejaVuSans-30" x="190.869141"/>
      </g>
     </g>
    </g>
    <g id="xtick_4">
     <g id="line2d_7">
      <path d="M 450.411116 378.43845 
L 450.411116 28.51845 
" clip-path="url(#pab48d45a58)" style="fill: none; stroke: #cbcbcb"/>
     </g>
     <g id="line2d_8"/>
     <g id="text_4">
      <!-- 1500 -->
      <g transform="translate(432.596116 392.576263)scale(0.14 -0.14)">
       <use xlink:href="#DejaVuSans-31"/>
       <use xlink:href="#DejaVuSans-35" x="63.623047"/>
       <use xlink:href="#DejaVuSans-30" x="127.246094"/>
       <use xlink:href="#DejaVuSans-30" x="190.869141"/>
      </g>
     </g>
    </g>
    <g id="xtick_5">
     <g id="line2d_9">
      <path d="M 571.829996 378.43845 
L 571.829996 28.51845 
" clip-path="url(#pab48d45a58)" style="fill: none; stroke: #cbcbcb"/>
     </g>
     <g id="line2d_10"/>
     <g id="text_5">
      <!-- 2000 -->
      <g transform="translate(554.014996 392.576263)scale(0.14 -0.14)">
       <defs>
        <path id="DejaVuSans-32" d="M 1228 531 
L 3431 531 
L 3431 0 
L 469 0 
L 469 531 
Q 828 903 1448 1529 
Q 2069 2156 2228 2338 
Q 2531 2678 2651 2914 
Q 2772 3150 2772 3378 
Q 2772 3750 2511 3984 
Q 2250 4219 1831 4219 
Q 1534 4219 1204 4116 
Q 875 4013 500 3803 
L 500 4441 
Q 881 4594 1212 4672 
Q 1544 4750 1819 4750 
Q 2544 4750 2975 4387 
Q 3406 4025 3406 3419 
Q 3406 3131 3298 2873 
Q 3191 2616 2906 2266 
Q 2828 2175 2409 1742 
Q 1991 1309 1228 531 
z
" transform="scale(0.015625)"/>
       </defs>
       <use xlink:href="#DejaVuSans-32"/>
       <use xlink:href="#DejaVuSans-30" x="63.623047"/>
       <use xlink:href="#DejaVuSans-30" x="127.246094"/>
       <use xlink:href="#DejaVuSans-30" x="190.869141"/>
      </g>
     </g>
    </g>
    <g id="text_6">
     <!-- Date -->
     <g transform="translate(350.804438 412.2532)scale(0.168 -0.168)">
      <defs>
       <path id="DejaVuSans-44" d="M 1259 4147 
L 1259 519 
L 2022 519 
Q 2988 519 3436 956 
Q 3884 1394 3884 2338 
Q 3884 3275 3436 3711 
Q 2988 4147 2022 4147 
L 1259 4147 
z
M 628 4666 
L 1925 4666 
Q 3281 4666 3915 4102 
Q 4550 3538 4550 2338 
Q 4550 1131 3912 565 
Q 3275 0 1925 0 
L 628 0 
L 628 4666 
z
" transform="scale(0.015625)"/>
       <path id="DejaVuSans-61" d="M 2194 1759 
Q 1497 1759 1228 1600 
Q 959 1441 959 1056 
Q 959 750 1161 570 
Q 1363 391 1709 391 
Q 2188 391 2477 730 
Q 2766 1069 2766 1631 
L 2766 1759 
L 2194 1759 
z
M 3341 1997 
L 3341 0 
L 2766 0 
L 2766 531 
Q 2569 213 2275 61 
Q 1981 -91 1556 -91 
Q 1019 -91 701 211 
Q 384 513 384 1019 
Q 384 1609 779 1909 
Q 1175 2209 1959 2209 
L 2766 2209 
L 2766 2266 
Q 2766 2663 2505 2880 
Q 2244 3097 1772 3097 
Q 1472 3097 1187 3025 
Q 903 2953 641 2809 
L 641 3341 
Q 956 3463 1253 3523 
Q 1550 3584 1831 3584 
Q 2591 3584 2966 3190 
Q 3341 2797 3341 1997 
z
" transform="scale(0.015625)"/>
       <path id="DejaVuSans-74" d="M 1172 4494 
L 1172 3500 
L 2356 3500 
L 2356 3053 
L 1172 3053 
L 1172 1153 
Q 1172 725 1289 603 
Q 1406 481 1766 481 
L 2356 481 
L 2356 0 
L 1766 0 
Q 1100 0 847 248 
Q 594 497 594 1153 
L 594 3053 
L 172 3053 
L 172 3500 
L 594 3500 
L 594 4494 
L 1172 4494 
z
" transform="scale(0.015625)"/>
       <path id="DejaVuSans-65" d="M 3597 1894 
L 3597 1613 
L 953 1613 
Q 991 1019 1311 708 
Q 1631 397 2203 397 
Q 2534 397 2845 478 
Q 3156 559 3463 722 
L 3463 178 
Q 3153 47 2828 -22 
Q 2503 -91 2169 -91 
Q 1331 -91 842 396 
Q 353 884 353 1716 
Q 353 2575 817 3079 
Q 1281 3584 2069 3584 
Q 2775 3584 3186 3129 
Q 3597 2675 3597 1894 
z
M 3022 2063 
Q 3016 2534 2758 2815 
Q 2500 3097 2075 3097 
Q 1594 3097 1305 2825 
Q 1016 2553 972 2059 
L 3022 2063 
z
" transform="scale(0.015625)"/>
      </defs>
      <use xlink:href="#DejaVuSans-44"/>
      <use xlink:href="#DejaVuSans-61" x="77.001953"/>
      <use xlink:href="#DejaVuSans-74" x="138.28125"/>
      <use xlink:href="#DejaVuSans-65" x="177.490234"/>
     </g>
    </g>
   </g>
   <g id="matplotlib.axis_2">
    <g id="ytick_1">
     <g id="line2d_11">
      <path d="M 57.68175 365.448824 
L 684.08175 365.448824 
" clip-path="url(#pab48d45a58)" style="fill: none; stroke: #dcdcdc; stroke-width: 0.5"/>
     </g>
     <g id="line2d_12"/>
     <g id="text_7">
      <!-- 0 -->
      <g transform="translate(45.27425 370.767731)scale(0.14 -0.14)">
       <use xlink:href="#DejaVuSans-30"/>
      </g>
     </g>
    </g>
    <g id="ytick_2">
     <g id="line2d_13">
      <path d="M 57.68175 317.356644 
L 684.08175 317.356644 
" clip-path="url(#pab48d45a58)" style="fill: none; stroke: #dcdcdc; stroke-width: 0.5"/>
     </g>
     <g id="line2d_14"/>
     <g id="text_8">
      <!-- 50 -->
      <g transform="translate(36.36675 322.675551)scale(0.14 -0.14)">
       <use xlink:href="#DejaVuSans-35"/>
       <use xlink:href="#DejaVuSans-30" x="63.623047"/>
      </g>
     </g>
    </g>
    <g id="ytick_3">
     <g id="line2d_15">
      <path d="M 57.68175 269.264464 
L 684.08175 269.264464 
" clip-path="url(#pab48d45a58)" style="fill: none; stroke: #dcdcdc; stroke-width: 0.5"/>
     </g>
     <g id="line2d_16"/>
     <g id="text_9">
      <!-- 100 -->
      <g transform="translate(27.45925 274.583371)scale(0.14 -0.14)">
       <use xlink:href="#DejaVuSans-31"/>
       <use xlink:href="#DejaVuSans-30" x="63.623047"/>
       <use xlink:href="#DejaVuSans-30" x="127.246094"/>
      </g>
     </g>
    </g>
    <g id="ytick_4">
     <g id="line2d_17">
      <path d="M 57.68175 221.172284 
L 684.08175 221.172284 
" clip-path="url(#pab48d45a58)" style="fill: none; stroke: #dcdcdc; stroke-width: 0.5"/>
     </g>
     <g id="line2d_18"/>
     <g id="text_10">
      <!-- 150 -->
      <g transform="translate(27.45925 226.491191)scale(0.14 -0.14)">
       <use xlink:href="#DejaVuSans-31"/>
       <use xlink:href="#DejaVuSans-35" x="63.623047"/>
       <use xlink:href="#DejaVuSans-30" x="127.246094"/>
      </g>
     </g>
    </g>
    <g id="ytick_5">
     <g id="line2d_19">
      <path d="M 57.68175 173.080104 
L 684.08175 173.080104 
" clip-path="url(#pab48d45a58)" style="fill: none; stroke: #dcdcdc; stroke-width: 0.5"/>
     </g>
     <g id="line2d_20"/>
     <g id="text_11">
      <!-- 200 -->
      <g transform="translate(27.45925 178.399011)scale(0.14 -0.14)">
       <use xlink:href="#DejaVuSans-32"/>
       <use xlink:href="#DejaVuSans-30" x="63.623047"/>
       <use xlink:href="#DejaVuSans-30" x="127.246094"/>
      </g>
     </g>
    </g>
    <g id="ytick_6">
     <g id="line2d_21">
      <path d="M 57.68175 124.987924 
L 684.08175 124.987924 
" clip-path="url(#pab48d45a58)" style="fill: none; stroke: #dcdcdc; stroke-width: 0.5"/>
     </g>
     <g id="line2d_22"/>
     <g id="text_12">
      <!-- 250 -->
      <g transform="translate(27.45925 130.306831)scale(0.14 -0.14)">
       <use xlink:href="#DejaVuSans-32"/>
       <use xlink:href="#DejaVuSans-35" x="63.623047"/>
       <use xlink:href="#DejaVuSans-30" x="127.246094"/>
      </g>
     </g>
    </g>
    <g id="ytick_7">
     <g id="line2d_23">
      <path d="M 57.68175 76.895744 
L 684.08175 76.895744 
" clip-path="url(#pab48d45a58)" style="fill: none; stroke: #dcdcdc; stroke-width: 0.5"/>
     </g>
     <g id="line2d_24"/>
     <g id="text_13">
      <!-- 300 -->
      <g transform="translate(27.45925 82.214651)scale(0.14 -0.14)">
       <defs>
        <path id="DejaVuSans-33" d="M 2597 2516 
Q 3050 2419 3304 2112 
Q 3559 1806 3559 1356 
Q 3559 666 3084 287 
Q 2609 -91 1734 -91 
Q 1441 -91 1130 -33 
Q 819 25 488 141 
L 488 750 
Q 750 597 1062 519 
Q 1375 441 1716 441 
Q 2309 441 2620 675 
Q 2931 909 2931 1356 
Q 2931 1769 2642 2001 
Q 2353 2234 1838 2234 
L 1294 2234 
L 1294 2753 
L 1863 2753 
Q 2328 2753 2575 2939 
Q 2822 3125 2822 3475 
Q 2822 3834 2567 4026 
Q 2313 4219 1838 4219 
Q 1578 4219 1281 4162 
Q 984 4106 628 3988 
L 628 4550 
Q 988 4650 1302 4700 
Q 1616 4750 1894 4750 
Q 2613 4750 3031 4423 
Q 3450 4097 3450 3541 
Q 3450 3153 3228 2886 
Q 3006 2619 2597 2516 
z
" transform="scale(0.015625)"/>
       </defs>
       <use xlink:href="#DejaVuSans-33"/>
       <use xlink:href="#DejaVuSans-30" x="63.623047"/>
       <use xlink:href="#DejaVuSans-30" x="127.246094"/>
      </g>
     </g>
    </g>
    <g id="ytick_8">
     <g id="line2d_25">
      <path d="M 57.68175 28.803564 
L 684.08175 28.803564 
" clip-path="url(#pab48d45a58)" style="fill: none; stroke: #dcdcdc; stroke-width: 0.5"/>
     </g>
     <g id="line2d_26"/>
     <g id="text_14">
      <!-- 350 -->
      <g transform="translate(27.45925 34.122471)scale(0.14 -0.14)">
       <use xlink:href="#DejaVuSans-33"/>
       <use xlink:href="#DejaVuSans-35" x="63.623047"/>
       <use xlink:href="#DejaVuSans-30" x="127.246094"/>
      </g>
     </g>
    </g>
    <g id="text_15">
     <!-- Price (USD) -->
     <g transform="translate(19.965375 251.1432)rotate(-90)scale(0.168 -0.168)">
      <defs>
       <path id="DejaVuSans-50" d="M 1259 4147 
L 1259 2394 
L 2053 2394 
Q 2494 2394 2734 2622 
Q 2975 2850 2975 3272 
Q 2975 3691 2734 3919 
Q 2494 4147 2053 4147 
L 1259 4147 
z
M 628 4666 
L 2053 4666 
Q 2838 4666 3239 4311 
Q 3641 3956 3641 3272 
Q 3641 2581 3239 2228 
Q 2838 1875 2053 1875 
L 1259 1875 
L 1259 0 
L 628 0 
L 628 4666 
z
" transform="scale(0.015625)"/>
       <path id="DejaVuSans-72" d="M 2631 2963 
Q 2534 3019 2420 3045 
Q 2306 3072 2169 3072 
Q 1681 3072 1420 2755 
Q 1159 2438 1159 1844 
L 1159 0 
L 581 0 
L 581 3500 
L 1159 3500 
L 1159 2956 
Q 1341 3275 1631 3429 
Q 1922 3584 2338 3584 
Q 2397 3584 2469 3576 
Q 2541 3569 2628 3553 
L 2631 2963 
z
" transform="scale(0.015625)"/>
       <path id="DejaVuSans-69" d="M 603 3500 
L 1178 3500 
L 1178 0 
L 603 0 
L 603 3500 
z
M 603 4863 
L 1178 4863 
L 1178 4134 
L 603 4134 
L 603 4863 
z
" transform="scale(0.015625)"/>
       <path id="DejaVuSans-63" d="M 3122 3366 
L 3122 2828 
Q 2878 2963 2633 3030 
Q 2388 3097 2138 3097 
Q 1578 3097 1268 2742 
Q 959 2388 959 1747 
Q 959 1106 1268 751 
Q 1578 397 2138 397 
Q 2388 397 2633 464 
Q 2878 531 3122 666 
L 3122 134 
Q 2881 22 2623 -34 
Q 2366 -91 2075 -91 
Q 1284 -91 818 406 
Q 353 903 353 1747 
Q 353 2603 823 3093 
Q 1294 3584 2113 3584 
Q 2378 3584 2631 3529 
Q 2884 3475 3122 3366 
z
" transform="scale(0.015625)"/>
       <path id="DejaVuSans-20" transform="scale(0.015625)"/>
       <path id="DejaVuSans-28" d="M 1984 4856 
Q 1566 4138 1362 3434 
Q 1159 2731 1159 2009 
Q 1159 1288 1364 580 
Q 1569 -128 1984 -844 
L 1484 -844 
Q 1016 -109 783 600 
Q 550 1309 550 2009 
Q 550 2706 781 3412 
Q 1013 4119 1484 4856 
L 1984 4856 
z
" transform="scale(0.015625)"/>
       <path id="DejaVuSans-55" d="M 556 4666 
L 1191 4666 
L 1191 1831 
Q 1191 1081 1462 751 
Q 1734 422 2344 422 
Q 2950 422 3222 751 
Q 3494 1081 3494 1831 
L 3494 4666 
L 4128 4666 
L 4128 1753 
Q 4128 841 3676 375 
Q 3225 -91 2344 -91 
Q 1459 -91 1007 375 
Q 556 841 556 1753 
L 556 4666 
z
" transform="scale(0.015625)"/>
       <path id="DejaVuSans-53" d="M 3425 4513 
L 3425 3897 
Q 3066 4069 2747 4153 
Q 2428 4238 2131 4238 
Q 1616 4238 1336 4038 
Q 1056 3838 1056 3469 
Q 1056 3159 1242 3001 
Q 1428 2844 1947 2747 
L 2328 2669 
Q 3034 2534 3370 2195 
Q 3706 1856 3706 1288 
Q 3706 609 3251 259 
Q 2797 -91 1919 -91 
Q 1588 -91 1214 -16 
Q 841 59 441 206 
L 441 856 
Q 825 641 1194 531 
Q 1563 422 1919 422 
Q 2459 422 2753 634 
Q 3047 847 3047 1241 
Q 3047 1584 2836 1778 
Q 2625 1972 2144 2069 
L 1759 2144 
Q 1053 2284 737 2584 
Q 422 2884 422 3419 
Q 422 4038 858 4394 
Q 1294 4750 2059 4750 
Q 2388 4750 2728 4690 
Q 3069 4631 3425 4513 
z
" transform="scale(0.015625)"/>
       <path id="DejaVuSans-29" d="M 513 4856 
L 1013 4856 
Q 1481 4119 1714 3412 
Q 1947 2706 1947 2009 
Q 1947 1309 1714 600 
Q 1481 -109 1013 -844 
L 513 -844 
Q 928 -128 1133 580 
Q 1338 1288 1338 2009 
Q 1338 2731 1133 3434 
Q 928 4138 513 4856 
z
" transform="scale(0.015625)"/>
      </defs>
      <use xlink:href="#DejaVuSans-50"/>
      <use xlink:href="#DejaVuSans-72" x="58.552734"/>
      <use xlink:href="#DejaVuSans-69" x="99.666016"/>
      <use xlink:href="#DejaVuSans-63" x="127.449219"/>
      <use xlink:href="#DejaVuSans-65" x="182.429688"/>
      <use xlink:href="#DejaVuSans-20" x="243.953125"/>
      <use xlink:href="#DejaVuSans-28" x="275.740234"/>
      <use xlink:href="#DejaVuSans-55" x="314.753906"/>
      <use xlink:href="#DejaVuSans-53" x="387.947266"/>
      <use xlink:href="#DejaVuSans-44" x="451.423828"/>
      <use xlink:href="#DejaVuSans-29" x="528.425781"/>
     </g>
    </g>
   </g>
   <g id="line2d_27">
    <path d="M 86.154477 220.383573 
L 86.397315 219.710282 
M 87.611504 225.760278 
L 87.854342 219.642953 
M 106.067174 160.287585 
L 106.310011 152.881389 
M 106.795687 144.090138 
L 107.038525 158.517792 
L 107.281362 160.075979 
M 127.922572 111.512496 
L 128.16541 117.033478 
L 128.408247 119.534271 
L 128.893923 130.268446 
L 129.136761 127.709942 
L 129.379598 142.628136 
L 129.622436 146.860248 
L 129.865274 147.187275 
L 130.108112 152.852534 
L 130.350949 151.053886 
L 130.593787 151.70794 
L 130.836625 155.170577 
L 131.079463 156.286315 
L 131.3223 164.048393 
L 131.565138 166.626134 
L 131.807976 166.395291 
L 132.050814 165.087184 
L 132.293652 162.740286 
L 132.779327 168.74219 
L 133.022165 175.657845 
M 140.550135 175.023028 
L 140.792973 182.313803 
L 141.278649 173.561026 
M 141.764324 173.993856 
L 142.007162 175.975254 
L 142.25 173.695684 
M 145.892566 186.430494 
L 146.135404 184.817001 
L 146.378242 190.768408 
M 151.477835 194.142075 
L 151.720672 194.351276 
L 151.96351 192.136631 
L 152.206348 193.997798 
L 152.449186 197.847577 
L 152.692023 198.489608 
L 152.934861 197.539787 
L 153.177699 195.981601 
L 153.420537 196.373552 
L 153.663374 202.22637 
L 153.906212 204.068301 
L 154.14905 209.009772 
L 154.391888 209.202141 
L 154.634725 216.478488 
L 154.877563 214.439379 
L 155.363239 215.285802 
L 155.848914 224.899428 
L 156.091752 230.158308 
L 156.33459 230.63923 
L 156.577427 229.198869 
L 156.820265 228.45344 
L 157.063103 234.010492 
L 157.305941 233.113573 
L 157.548778 227.845074 
L 157.791616 228.234621 
M 164.348236 237.059536 
L 164.591074 241.642721 
L 164.833911 240.90691 
L 165.076749 241.95532 
L 165.319587 244.879325 
L 165.562425 243.842938 
L 165.805262 239.728652 
L 166.0481 238.617723 
L 166.290938 241.8928 
L 166.533776 243.078272 
M 174.547422 240.507745 
L 174.790259 239.918616 
L 175.033097 241.200273 
L 175.275935 236.222732 
M 195.674307 246.680377 
L 195.917144 248.837311 
M 202.716602 255.385061 
L 202.959439 255.411512 
L 203.202277 261.088794 
L 203.445115 258.058986 
L 203.687953 257.72715 
L 203.930791 256.419043 
L 204.416466 257.45543 
L 204.659304 259.547439 
L 204.902142 263.351531 
L 205.144979 263.358745 
L 205.387817 264.787082 
L 205.630655 267.191691 
L 205.873493 265.210294 
L 206.11633 267.393679 
L 206.359168 268.016472 
M 207.330519 267.32635 
L 207.573357 267.96838 
M 210.48741 276.959213 
L 210.730248 277.392043 
M 211.944437 276.370084 
L 212.187274 276.786081 
L 212.430112 276.612949 
M 219.715245 294.81584 
L 219.958083 295.406123 
L 220.20092 297.451291 
L 220.686596 293.680864 
L 220.929434 295.388137 
M 235.499699 308.596654 
L 235.742537 306.341131 
L 235.985375 306.406055 
L 236.228212 305.821735 
L 236.47105 307.690116 
M 243.756183 313.187052 
L 244.241859 314.430235 
L 244.484696 314.430235 
L 244.727534 315.255016 
L 244.970372 315.091503 
L 245.21321 315.514714 
L 245.456047 315.132381 
L 245.698885 313.331329 
M 254.198207 321.437266 
L 254.441044 321.995135 
L 254.683882 322.831939 
L 254.92672 321.124667 
M 255.655233 323.83947 
L 255.898071 323.608628 
M 261.483339 326.681718 
L 261.726177 326.542251 
M 269.982661 326.960653 
L 270.225499 327.62192 
L 270.468337 327.645966 
M 270.954012 326.313813 
L 271.19685 326.438853 
M 275.082254 329.757213 
L 275.325092 330.461763 
M 276.296443 333.279965 
L 276.539281 332.875991 
M 287.952655 323.661529 
L 288.195493 322.767015 
M 289.166844 324.822955 
L 289.409682 324.616159 
L 289.65252 325.638118 
M 290.623871 329.225794 
L 290.866708 329.55763 
L 291.109546 328.886744 
M 291.838059 327.828717 
L 292.080897 328.355326 
L 292.323735 328.078796 
M 296.937652 332.411901 
L 297.18049 333.80417 
L 297.423328 332.262816 
M 301.065894 332.700454 
L 301.308732 334.672234 
M 302.037245 333.311225 
L 302.280083 333.907568 
M 323.892644 305.852995 
L 324.135481 306.579187 
M 337.977234 305.672649 
L 338.220071 305.506731 
L 338.462909 305.889064 
L 338.705747 305.925133 
L 338.948585 307.088964 
L 339.677098 305.884255 
L 339.919936 306.293038 
L 340.162773 306.401246 
M 343.562502 313.350566 
L 344.291015 310.453012 
L 344.533853 310.37366 
M 361.046821 311.66253 
L 361.289659 312.080932 
L 361.532496 312.066505 
L 361.775334 313.653546 
L 362.26101 314.358097 
L 362.503847 317.512944 
L 362.746685 318.91964 
L 362.989523 317.981843 
L 363.232361 318.037149 
L 363.475198 317.972224 
L 363.718036 318.494024 
L 364.203712 318.126119 
L 364.446549 318.292037 
L 364.689387 317.861612 
L 365.175063 320.61008 
L 365.4179 320.679814 
L 365.660738 319.559266 
M 374.888573 317.93856 
L 375.374249 317.854398 
L 375.859924 319.513579 
L 376.102762 319.53522 
L 376.3456 320.018547 
L 376.831275 321.853263 
L 377.074113 321.980707 
L 377.316951 321.956661 
L 377.559788 322.317353 
L 378.045464 322.461629 
L 378.288302 323.204653 
L 378.531139 323.19263 
L 378.773977 324.099168 
L 379.016815 324.33001 
L 379.259653 322.406323 
M 383.145057 325.609262 
L 383.387895 325.844914 
L 383.630732 325.77999 
L 383.87357 326.058924 
M 392.615729 330.947494 
L 392.858567 331.050893 
L 393.101405 331.945407 
L 393.344243 330.687797 
L 393.58708 330.17802 
M 400.629376 333.450692 
L 400.872213 334.737158 
M 401.843564 335.03052 
L 402.086402 336.283322 
L 402.32924 340.695779 
L 402.572078 340.736658 
L 402.814915 340.474555 
L 403.543429 340.56593 
L 403.786266 339.806074 
L 404.029104 340.368752 
L 404.271942 340.046535 
L 404.51478 340.436082 
L 404.757617 340.26295 
L 405.243293 340.99876 
L 405.486131 341.099754 
M 412.285588 341.61434 
L 412.528426 341.753807 
L 413.014101 341.705715 
L 413.256939 341.963008 
L 413.742615 341.643195 
M 420.542072 340.438486 
L 420.78491 340.161956 
L 421.270585 341.135823 
L 421.513423 340.577953 
L 421.756261 340.575549 
M 427.827205 342.992181 
L 428.070042 343.355277 
L 428.31288 344.180058 
L 428.555718 344.374831 
M 431.955446 349.152789 
L 432.441122 348.337627 
L 432.68396 348.311176 
L 432.926797 349.200881 
L 433.655311 348.844999 
L 433.898149 348.337627 
L 434.140986 348.481903 
L 434.383824 348.453048 
M 441.426119 350.338261 
L 441.668957 350.374331 
L 441.911795 350.924986 
L 442.154632 351.05243 
L 442.39747 350.840825 
L 442.640308 351.136592 
M 448.711252 351.687247 
L 448.95409 351.937326 
L 449.196927 351.973395 
L 449.682603 351.718507 
L 449.925441 351.939731 
L 450.168278 351.968586 
L 450.411116 351.831524 
L 451.139629 352.651495 
L 451.382467 352.411034 
L 451.868143 352.71161 
L 452.11098 352.776535 
M 452.839494 352.752489 
L 453.325169 353.221388 
L 453.810845 353.990862 
L 455.025034 354.411669 
L 455.267871 354.570373 
L 455.510709 354.452547 
L 455.753547 353.788875 
L 455.996385 354.091856 
L 456.239222 354.082238 
M 461.581653 354.976752 
L 461.824491 355.02244 
L 462.067329 355.282137 
L 462.310166 355.303779 
L 462.553004 355.594737 
L 462.795842 356.89563 
L 463.03868 356.777804 
L 463.281517 356.80185 
L 463.524355 356.965364 
L 464.010031 357.039907 
L 464.252868 357.090403 
L 464.738544 356.792232 
L 464.981382 356.905249 
L 465.467057 356.477228 
L 465.709895 356.676811 
M 470.56665 356.938913 
L 471.052326 357.157732 
L 471.295163 357.169756 
L 471.538001 357.309223 
L 472.023677 357.318841 
L 472.266514 357.556898 
L 472.509352 357.489569 
L 472.75219 357.720411 
L 473.237866 357.701174 
L 473.480703 357.831023 
L 473.966379 357.814191 
L 474.452054 357.621822 
M 477.366107 358.797676 
L 477.608945 358.958785 
L 477.851783 359.261765 
L 478.094621 359.365164 
L 478.580296 359.319476 
L 478.823134 359.3844 
L 479.065972 359.093443 
M 492.179211 358.138813 
L 492.422049 358.138813 
L 492.664886 358.28309 
L 493.150562 358.112362 
M 497.035966 358.771225 
L 497.278804 358.761607 
M 498.978668 359.155963 
L 499.707181 359.336308 
L 500.192857 359.636884 
L 500.435695 359.521463 
L 500.92137 359.846085 
L 501.407046 359.812421 
L 501.892721 359.944674 
L 502.135559 359.790779 
L 503.349748 359.992767 
M 503.835423 360.019217 
L 504.078261 360.103379 
M 510.877718 360.634797 
L 511.363394 360.704531 
L 511.606231 360.805524 
L 512.82042 360.711745 
M 524.476633 360.488116 
L 524.71947 360.441274 
M 532.004603 360.407513 
L 532.247441 360.389527 
M 539.775412 360.548231 
L 540.746763 360.613156 
L 541.232438 360.830821 
L 541.475276 360.692508 
L 541.718114 360.805524 
L 541.960951 360.728577 
M 553.617164 360.691257 
L 554.102839 360.725018 
M 557.745406 361.146979 
L 557.988244 361.043581 
L 558.231081 361.223926 
L 559.688108 361.398309 
M 569.15878 360.870449 
L 569.401618 360.928159 
M 570.615807 361.250377 
L 571.34432 361.204689 
L 571.829996 361.240759 
M 582.514857 360.89209 
L 583.000533 360.92335 
L 583.729046 361.062818 
L 583.971884 361.062818 
M 584.457559 361.130147 
L 584.700397 361.120528 
M 600.242014 361.401867 
L 600.727689 361.620687 
L 603.398904 361.707253 
M 609.469848 361.81546 
L 609.955524 361.837102 
M 626.711329 361.870766 
L 628.168356 361.890003 
L 629.625382 361.853934 
M 633.510787 362.041493 
L 633.753624 362.03428 
M 638.61038 362.079967 
L 639.338893 362.053516 
M 648.32389 362.166533 
L 648.809565 362.18577 
L 650.50943 362.433445 
L 651.237943 362.366116 
M 652.937807 362.504429 
" clip-path="url(#pab48d45a58)" style="fill: none; stroke: #00ff7f"/>
   </g>
   <g id="line2d_28">
    <path d="M 101.938932 130.691657 
L 102.424607 102.288415 
L 102.667445 108.521162 
L 103.395958 89.822922 
L 103.881634 99.095095 
L 104.124471 94.689851 
M 116.752035 103.375299 
L 116.994873 94.420535 
L 117.23771 99.941517 
L 117.480548 83.724834 
L 117.723386 75.731914 
L 117.966224 82.561003 
L 118.209061 80.877777 
L 118.937575 67.806322 
M 161.67702 212.395462 
L 161.919858 210.233718 
M 171.876206 217.995796 
L 172.119044 221.544999 
L 172.361882 218.760462 
M 192.517416 228.402944 
L 192.760254 228.616954 
M 267.068608 323.351335 
L 267.311446 323.757714 
L 267.554283 322.48808 
L 267.797121 323.209463 
M 279.210496 327.076074 
L 279.453334 326.48454 
L 279.696171 327.347795 
L 279.939009 324.854215 
L 280.181847 324.524784 
L 280.424685 323.627865 
L 280.667522 323.822638 
L 280.91036 322.201931 
L 281.153198 321.442075 
L 281.396036 321.398792 
L 281.638873 322.052846 
L 281.881711 321.925401 
L 282.367387 322.625143 
L 282.610225 320.504278 
L 282.853062 319.479914 
L 283.0959 319.600145 
L 283.581576 320.650959 
M 305.679812 327.386268 
L 305.922649 327.670012 
L 306.165487 324.560853 
L 306.408325 326.150299 
M 310.050891 315.916284 
L 310.293729 314.040689 
L 310.536567 314.697147 
L 310.779405 314.52642 
L 311.26508 313.001897 
L 311.750756 316.635262 
M 315.393322 301.596837 
L 315.63616 301.541531 
L 315.878998 300.558046 
L 316.364673 296.501471 
L 316.607511 296.561586 
L 316.850349 295.869058 
L 317.093186 297.874502 
M 336.277369 302.231654 
L 336.520207 301.690617 
L 337.005883 301.762755 
M 368.574791 313.278427 
L 368.817629 313.766563 
L 369.060467 313.497247 
M 370.031818 314.956845 
L 370.274656 313.946909 
L 370.517493 314.319623 
M 409.85721 339.606491 
L 410.100048 339.697867 
L 410.342886 339.462215 
M 416.899505 338.127657 
L 417.385181 336.927757 
L 417.628019 336.802717 
M 484.165565 357.867092 
L 484.408402 357.540065 
L 484.65124 357.665105 
L 485.379753 357.350101 
L 485.622591 357.47995 
L 486.593942 357.538815 
M 487.079618 357.592967 
L 487.322456 357.472736 
M 517.1915 360.346244 
L 517.677175 360.189944 
L 518.162851 360.259678 
L 518.405689 360.319793 
M 525.690822 360.012003 
L 525.933659 359.978339 
M 562.602161 360.899304 
L 563.087836 360.906518 
L 563.81635 360.843998 
L 564.059187 360.847557 
M 564.787701 360.781478 
L 565.030539 360.733386 
M 565.516214 360.690103 
L 566.00189 360.632393 
M 574.015536 361.014725 
L 574.258373 360.807929 
L 575.229724 360.868044 
M 598.299312 360.942587 
L 598.542149 360.901709 
M 619.426197 361.647137 
L 619.911872 361.697634 
M 624.52579 361.619436 
L 624.768627 361.601642 
M 625.497141 361.649542 
" clip-path="url(#pab48d45a58)" style="fill: none; stroke: #ff4500"/>
   </g>
   <g id="line2d_29">
    <path d="M 86.640153 213.112035 
L 86.882991 212.919666 
L 87.125828 219.921888 
L 87.368666 221.518548 
M 88.097179 215.959092 
L 88.340017 211.72698 
L 88.582855 203.195428 
L 88.825693 200.723489 
L 89.06853 209.3897 
L 89.311368 208.091211 
L 89.554206 206.109814 
L 89.797044 212.708061 
L 90.039881 215.391604 
L 90.282719 206.484933 
L 90.525557 213.131272 
L 90.768395 214.949156 
L 91.25407 191.855291 
L 91.496908 186.08423 
L 91.739746 183.410305 
L 91.982583 184.756886 
L 92.225421 185.391702 
M 92.711097 189.239077 
L 92.953935 185.853387 
L 93.196772 184.516425 
L 93.925286 210.072609 
L 94.168123 202.916493 
L 94.410961 204.878654 
L 94.653799 200.742726 
L 94.896637 202.531755 
L 95.139474 190.614513 
L 95.382312 199.396145 
L 95.62515 195.144797 
L 95.867988 209.870622 
L 96.110825 205.494234 
L 96.353663 196.212443 
L 96.596501 202.416334 
L 96.839339 185.824532 
L 97.082176 184.199016 
L 97.325014 169.867547 
L 97.567852 176.908242 
L 97.81069 177.571914 
L 98.053527 187.055692 
L 98.296365 175.176923 
L 98.539203 188.325325 
L 98.782041 184.737649 
L 99.024879 174.022711 
L 99.267716 177.745046 
L 99.510554 171.319931 
L 99.753392 158.825582 
M 100.239067 155.930433 
L 100.481905 160.980112 
L 100.724743 151.89069 
L 100.967581 158.613977 
L 101.210418 154.641563 
M 104.367309 118.889836 
L 104.610147 110.329428 
L 104.852985 108.309556 
L 105.095822 111.012337 
L 105.33866 127.238638 
L 105.581498 129.835616 
L 105.824336 144.484494 
M 107.5242 144.840376 
L 108.009876 132.490305 
L 108.252713 139.636802 
L 108.495551 130.903263 
L 108.738389 133.096266 
L 108.981227 137.030206 
L 109.224064 150.120898 
L 109.466902 140.473606 
L 109.70974 138.049761 
L 109.952578 129.729813 
L 110.195415 110.454468 
M 110.681091 132.038238 
L 110.923929 135.096901 
L 111.166766 117.062333 
L 111.409604 108.588491 
L 111.652442 123.949133 
L 112.380955 135.106519 
L 112.623793 122.660263 
L 112.866631 128.469798 
L 113.109469 129.931801 
L 113.595144 154.381865 
L 113.837982 146.4178 
L 114.08082 150.726859 
L 114.323657 140.646738 
L 114.566495 140.627501 
L 115.295008 116.302477 
L 115.537846 106.308922 
L 115.780684 109.838888 
L 116.023522 96.142235 
L 116.266359 97.89279 
L 116.509197 101.903678 
M 119.180413 80.358381 
L 119.666088 85.792798 
L 119.908926 98.835397 
L 120.151764 98.046685 
L 120.394601 92.410282 
L 120.637439 72.480882 
L 120.880277 92.891204 
L 121.123115 94.584048 
L 121.365952 74.991294 
L 121.60879 72.182711 
L 121.851628 59.33248 
L 122.094466 53.5518 
L 122.337303 76.539862 
L 122.580141 70.230168 
L 122.822979 56.44695 
L 123.065817 63.093289 
L 123.551492 44.423905 
L 123.79433 62.439235 
L 124.037168 51.176047 
L 124.280005 60.101955 
L 124.522843 58.082084 
L 124.765681 48.184713 
L 125.008519 60.784864 
L 125.251357 84.003769 
L 125.494194 74.943202 
L 125.737032 76.655284 
L 125.97987 73.144554 
L 126.222708 73.144554 
L 126.465545 82.099318 
L 126.708383 70.576432 
L 126.951221 69.162522 
L 127.194059 79.281117 
L 127.436896 78.809813 
L 127.679734 109.617664 
M 133.265003 165.943225 
L 133.50784 166.193304 
L 133.750678 168.107373 
L 133.993516 166.356818 
L 134.236354 157.113501 
L 134.722029 149.207146 
L 135.207705 161.095533 
L 135.450542 162.374785 
L 135.69338 154.805076 
L 135.936218 151.515571 
L 136.179056 150.563346 
M 136.664731 152.38123 
L 136.907569 149.24562 
L 137.150407 152.140769 
L 137.393244 150.582583 
L 137.87892 145.734891 
L 138.121758 150.034332 
L 138.364596 149.601502 
L 138.607433 150.140135 
M 139.093109 147.725907 
L 139.335947 153.189179 
L 139.578784 151.794506 
L 139.821622 155.834249 
L 140.06446 154.247207 
L 140.307298 165.231461 
M 142.492837 170.242666 
L 142.735675 169.559757 
L 142.978513 166.953161 
L 143.464188 174.859515 
L 143.707026 175.484713 
L 143.949864 177.898941 
L 144.192702 176.331136 
L 144.435539 177.860467 
L 144.678377 180.697906 
L 144.921215 179.87072 
L 145.164053 177.331453 
L 145.406891 176.985189 
L 145.649728 178.754982 
M 146.621079 183.023163 
L 146.863917 174.604627 
L 147.349593 168.150656 
L 147.59243 172.596778 
L 147.835268 174.015497 
L 148.320944 166.361627 
L 149.049457 173.056058 
L 149.292295 172.822811 
L 149.535132 173.224381 
L 149.77797 182.400369 
L 150.020808 180.721952 
L 150.506483 183.787828 
M 150.992159 186.1732 
L 151.234997 185.995259 
M 158.034454 222.978146 
L 158.277292 225.760278 
L 158.52013 226.380667 
L 158.762967 227.412245 
L 159.005805 222.742494 
L 159.248643 221.080909 
L 159.491481 218.048697 
L 159.734318 218.510382 
L 160.219994 216.574672 
M 160.705669 222.612645 
L 160.948507 217.704838 
L 161.191345 219.525127 
L 161.434183 217.692815 
M 162.162696 218.507978 
L 162.405534 214.636557 
L 162.648371 219.162031 
L 162.891209 226.943346 
L 163.134047 227.741676 
L 163.376885 229.410475 
L 163.619722 232.122874 
L 163.86256 230.910951 
L 164.105398 232.601391 
M 166.776613 237.126865 
L 167.019451 237.607787 
L 167.262289 238.569631 
L 167.505127 241.794211 
L 167.747964 240.471676 
L 167.990802 245.52376 
L 168.23364 245.023601 
L 168.476478 253.939891 
L 168.719315 245.588684 
L 168.962153 246.466366 
L 169.690666 232.312838 
L 169.933504 233.536784 
L 170.176342 237.451487 
L 170.41918 225.991121 
L 170.662017 229.424902 
L 170.904855 227.368962 
L 171.147693 221.879239 
L 171.390531 222.817037 
L 171.633369 222.076417 
M 172.60472 223.439831 
L 172.847557 228.258667 
L 173.090395 226.570632 
L 173.333233 234.724661 
L 173.576071 234.02011 
L 173.818908 235.306576 
L 174.061746 235.054092 
L 174.304584 238.129587 
M 176.004448 232.065163 
L 176.490124 240.166291 
L 176.732961 241.760547 
L 177.218637 235.294553 
L 177.461475 235.74662 
L 177.704313 234.431298 
L 177.94715 237.747254 
L 178.189988 237.100414 
L 178.432826 244.117063 
L 178.675664 236.516094 
L 178.918501 239.317464 
L 179.161339 239.880142 
L 179.404177 239.007269 
L 179.647015 240.955003 
L 179.889852 241.371 
L 180.13269 240.469272 
L 180.375528 240.320186 
L 180.618366 237.732827 
L 180.861203 237.213431 
L 181.104041 237.792942 
L 181.346879 237.126865 
L 181.589717 238.076686 
L 181.832554 236.94171 
L 182.075392 237.439464 
L 182.31823 240.281712 
L 182.803905 241.075233 
L 183.289581 234.57317 
L 183.532419 235.039664 
L 183.775256 236.600256 
L 184.018094 235.171918 
L 184.260932 236.657966 
L 184.50377 236.547354 
L 184.746608 237.89634 
L 184.989445 238.151229 
L 185.232283 240.815535 
L 185.475121 239.062575 
L 185.717959 239.565139 
L 185.960796 236.17464 
L 186.446472 236.347772 
L 186.68931 235.453257 
L 186.932147 237.552481 
L 187.174985 236.015936 
L 187.417823 236.38865 
L 187.660661 242.621397 
L 188.146336 225.385159 
L 188.632012 232.769714 
L 189.117687 244.441686 
L 189.360525 244.891348 
L 189.603363 240.178314 
L 189.8462 243.996833 
L 190.089038 236.593042 
L 190.331876 239.050552 
L 190.574714 234.731875 
L 190.817552 236.936901 
L 191.303227 234.200456 
L 191.546065 235.62158 
L 191.788903 232.603796 
L 192.274578 229.874564 
M 193.003091 233.072694 
L 193.245929 232.341693 
L 193.488767 231.136984 
L 193.731605 233.325178 
L 193.974442 234.229311 
L 194.21728 239.810409 
L 194.460118 234.498627 
L 194.702956 235.306576 
L 195.188631 240.072511 
L 195.431469 241.623484 
M 196.159982 243.893435 
L 196.40282 245.052456 
M 196.888495 245.569447 
L 197.131333 245.078907 
L 197.374171 240.495722 
L 197.617009 241.637912 
L 197.859847 248.44536 
L 198.102684 247.029045 
L 198.345522 243.150411 
L 198.58836 250.864396 
L 199.316873 227.457932 
L 199.802549 236.807052 
L 200.045386 238.988032 
L 200.288224 243.98481 
L 200.531062 242.592541 
L 201.016737 243.099914 
L 201.259575 243.453391 
L 201.502413 248.671393 
L 201.745251 248.695439 
L 202.230926 246.786179 
L 202.473764 254.22123 
M 206.602006 265.044376 
L 206.844844 266.104808 
L 207.087681 264.351848 
M 207.816195 267.078675 
L 208.059032 265.638314 
L 208.30187 268.761901 
L 208.544708 264.654829 
L 208.787546 264.36868 
L 209.273221 270.498029 
L 209.516059 270.810628 
L 209.758897 272.994013 
L 210.001734 273.785129 
L 210.244572 274.095324 
M 210.973086 274.169867 
L 211.215923 276.617759 
L 211.458761 274.554604 
L 211.701599 273.816389 
M 212.67295 278.224038 
L 212.915788 277.211697 
L 213.401463 280.842657 
L 213.644301 275.355339 
L 214.129976 280.758495 
L 214.372814 279.652375 
L 214.615652 281.128805 
L 214.85849 281.09995 
L 215.101327 280.563722 
L 215.344165 280.746472 
L 215.587003 280.080396 
L 215.829841 283.817158 
L 216.072678 283.449253 
L 216.315516 281.597704 
L 216.558354 278.630416 
L 216.801192 281.044644 
L 217.04403 279.171453 
L 217.286867 280.753686 
L 217.529705 281.285105 
L 217.772543 283.781089 
L 218.258218 290.617392 
L 218.501056 290.400977 
L 218.743894 287.871329 
L 219.229569 292.13951 
L 219.472407 293.841973 
M 221.172271 294.0127 
L 221.657947 297.155524 
L 221.900785 296.640938 
M 222.38646 296.424523 
L 222.629298 295.157294 
L 222.872136 294.584997 
L 223.114973 297.917785 
L 223.357811 297.169952 
L 223.600649 300.56045 
L 223.843487 302.219631 
L 224.086325 301.257787 
L 224.329162 303.162237 
L 224.572 300.909119 
L 224.814838 306.798006 
L 225.057676 304.018278 
L 225.300513 306.999993 
L 225.543351 302.063331 
L 225.786189 301.584814 
L 226.029027 304.677141 
L 226.271864 303.592662 
L 226.514702 306.386818 
L 226.75754 305.530777 
L 227.000378 314.305196 
L 227.243215 315.973994 
L 227.486053 314.237866 
L 227.728891 316.678545 
L 227.971729 313.203885 
L 228.214566 318.222304 
L 228.457404 307.536221 
L 228.700242 313.434727 
L 228.94308 306.182426 
L 229.185917 302.669293 
L 229.428755 306.430101 
L 229.671593 301.476607 
L 229.914431 299.733265 
L 230.157269 297.035294 
L 230.400106 301.512676 
L 230.642944 298.978218 
L 230.885782 300.507549 
L 231.12862 304.708401 
L 231.371457 301.089464 
L 231.614295 302.436046 
L 231.857133 299.73567 
L 232.342808 291.218545 
L 232.585646 289.775779 
L 232.828484 294.135335 
L 233.071322 295.76566 
L 233.314159 300.336822 
L 233.556997 299.913611 
L 234.042673 302.214821 
L 234.28551 304.951267 
L 234.528348 304.312795 
L 235.014024 306.023722 
L 235.256861 307.658856 
M 236.713888 305.218178 
L 236.956726 304.645881 
L 237.442401 305.828949 
L 237.685239 305.506731 
L 237.928077 305.590893 
L 238.170915 306.398841 
L 238.413752 305.987653 
L 238.65659 304.857487 
L 238.899428 306.699417 
L 239.142266 307.012016 
L 239.385103 307.646833 
L 239.627941 307.755041 
L 239.870779 308.445163 
M 240.356454 307.75985 
L 240.599292 308.868375 
M 241.084968 308.490851 
L 241.327805 307.932982 
L 241.570643 308.070044 
L 242.056319 307.889699 
L 242.299156 308.829901 
L 242.541994 310.260643 
L 242.784832 310.554005 
L 243.02767 311.309053 
L 243.270508 311.587987 
L 243.513345 311.56875 
M 245.941723 312.970638 
L 246.184561 313.268809 
L 246.427398 312.256469 
L 246.670236 314.738025 
L 246.913074 314.908752 
L 247.155912 314.668291 
L 247.398749 315.435362 
L 247.641587 314.403784 
L 247.884425 316.349113 
L 248.127263 315.002532 
L 248.3701 315.295894 
L 248.612938 315.045815 
L 248.855776 315.389674 
L 249.098614 315.485859 
L 249.341451 315.3512 
L 249.584289 315.521928 
L 249.827127 315.045815 
L 250.069965 314.831805 
L 250.312803 316.733851 
L 250.55564 317.111374 
L 250.798478 316.635262 
L 251.041316 316.654499 
L 251.284154 315.723915 
L 251.526991 316.264952 
L 251.769829 318.111692 
M 252.255505 318.412268 
L 252.498342 318.316083 
M 253.469693 318.229517 
L 253.712531 320.595653 
L 253.955369 320.725502 
M 255.169558 321.692154 
L 255.412395 321.850859 
M 256.626584 322.805488 
L 256.869422 322.591478 
L 257.11226 323.962105 
L 257.355098 323.406641 
L 257.597935 323.923632 
L 258.083611 322.170672 
L 258.326449 321.908569 
L 258.569286 322.115366 
L 259.054962 321.139094 
L 259.2978 321.124667 
L 259.540637 321.401197 
L 260.026313 322.490485 
L 260.269151 322.228382 
L 260.511988 324.868643 
L 260.754826 325.972358 
L 260.997664 325.169219 
L 261.240502 325.291854 
M 262.45469 324.214589 
L 262.697528 324.274704 
L 262.940366 325.082653 
L 263.183204 324.382912 
L 263.426042 327.080883 
M 263.911717 329.362857 
L 264.154555 327.924901 
L 264.397393 329.031021 
L 264.64023 328.374563 
L 264.883068 327.393482 
L 265.125906 328.444296 
L 265.611581 329.189725 
L 265.854419 326.688932 
L 266.340095 324.878261 
L 266.582932 323.259959 
L 266.82577 323.41145 
M 268.039959 324.253063 
L 268.282797 324.94559 
L 268.525634 324.527188 
L 268.768472 324.640205 
L 269.01131 325.272617 
L 269.496986 325.145173 
L 269.739823 325.464986 
M 271.439688 325.491437 
L 271.925363 326.198392 
L 272.168201 327.153021 
M 273.139552 328.3938 
L 273.38239 328.629451 
L 273.625227 328.687162 
L 273.868065 330.57478 
M 275.567929 330.875356 
L 275.810767 331.476508 
L 276.053605 331.062916 
M 276.782118 331.998309 
L 277.024956 331.702542 
L 277.510632 330.545925 
L 277.753469 330.024125 
L 278.239145 328.162957 
L 278.481983 328.958883 
L 278.967658 326.929393 
M 284.310089 321.035696 
L 284.552927 319.758849 
L 284.795764 319.390944 
L 285.038602 319.256285 
L 285.28144 319.939194 
L 285.524278 319.330828 
L 285.767115 319.532815 
L 286.009953 320.179655 
L 286.252791 320.093089 
L 286.495629 321.44448 
L 286.738466 321.617611 
L 287.224142 322.82713 
L 287.46698 323.007475 
L 287.709817 322.918505 
M 288.438331 321.218446 
L 288.681168 323.512443 
L 288.924006 323.19744 
M 289.895357 324.902307 
L 290.138195 326.369119 
L 290.381033 326.700955 
M 291.352384 327.811884 
L 291.595222 327.749364 
M 292.566573 327.672417 
L 292.80941 327.290084 
L 293.052248 327.169854 
L 293.295086 327.99223 
L 293.537924 327.323749 
L 293.780761 327.783029 
L 294.023599 327.614706 
L 294.509275 328.687162 
L 294.752112 329.09835 
L 294.99495 330.233326 
L 295.237788 329.819733 
L 295.480626 330.000078 
L 295.723464 328.658307 
L 295.966301 329.391712 
L 296.209139 329.576867 
M 297.666166 326.939011 
L 297.909003 327.494476 
L 298.151841 329.550417 
L 298.394679 329.675456 
L 298.637517 327.713295 
L 299.123192 329.658624 
L 299.608868 329.273887 
L 299.851705 329.661029 
L 300.337381 331.163909 
L 300.580219 331.825177 
L 300.823056 330.966731 
M 301.55157 332.693241 
L 301.794407 333.347294 
M 303.008596 334.292306 
L 303.73711 330.1155 
L 303.979947 330.923448 
L 304.465623 329.646601 
M 306.651163 327.609897 
L 306.894 326.958248 
L 307.136838 328.48277 
L 307.379676 328.646284 
L 307.622514 330.581994 
L 307.865351 330.651728 
L 308.108189 329.600913 
L 308.351027 330.654132 
L 308.593865 325.909839 
M 309.07954 318.032339 
L 309.322378 317.522562 
L 309.565216 319.871865 
L 309.808054 315.993231 
M 311.993593 320.814472 
L 312.479269 315.471431 
L 312.722107 317.498516 
L 312.964944 312.292538 
L 313.207782 309.849455 
L 313.45062 310.3424 
L 313.693458 307.851225 
L 314.179133 306.336321 
L 314.421971 308.849138 
L 314.664809 306.165594 
L 314.907646 308.909253 
L 315.150484 306.369986 
M 317.336024 301.14958 
L 317.578862 301.265001 
L 317.8217 300.906714 
L 318.307375 302.0994 
L 318.550213 301.418896 
L 318.793051 300.048269 
L 319.035888 300.279111 
L 319.521564 298.978218 
L 320.007239 300.957211 
L 320.250077 299.851091 
L 320.492915 299.387001 
L 320.735753 300.077124 
L 320.97859 299.870328 
L 321.464266 297.230067 
L 321.949942 298.646382 
L 322.192779 298.482868 
L 322.435617 299.471163 
L 322.678455 299.105662 
L 323.16413 301.284238 
L 323.406968 302.250891 
L 323.649806 304.535269 
M 324.378319 303.54457 
L 324.863995 302.585131 
L 325.106832 303.861979 
L 325.34967 304.181792 
L 325.835346 303.308919 
L 326.078183 303.662396 
L 326.563859 304.828631 
L 326.806697 305.184514 
L 327.049534 306.182426 
L 327.292372 306.569568 
L 327.53521 306.745105 
L 327.778048 304.847868 
L 328.020885 304.169769 
L 328.506561 305.643794 
L 328.749399 305.475471 
L 329.235074 304.845464 
L 329.477912 304.924816 
L 329.72075 304.446299 
L 329.963588 305.766429 
L 330.206425 305.497113 
L 330.449263 305.037832 
L 330.692101 305.927538 
L 330.934939 304.552101 
L 331.177776 305.513945 
L 331.420614 305.97563 
L 331.90629 308.498065 
L 332.149127 307.199576 
L 332.391965 308.483637 
L 332.634803 307.531412 
L 332.877641 308.767381 
L 333.120478 307.259691 
L 333.363316 307.949814 
L 333.606154 305.105162 
L 334.091829 302.373526 
L 334.334667 302.888112 
L 334.577505 301.705044 
L 334.820343 301.664166 
L 335.063181 301.267406 
L 335.306018 302.351884 
L 335.548856 302.308601 
M 337.24872 303.501287 
L 337.491558 304.80699 
L 337.734396 304.614621 
M 340.405611 304.044729 
L 340.648449 304.244311 
L 340.891287 302.89773 
L 341.6198 305.651008 
L 342.105476 309.423839 
L 342.348313 311.030118 
L 342.591151 310.830536 
L 342.833989 311.369168 
L 343.076827 311.025309 
L 343.319664 311.29222 
M 344.776691 308.611081 
L 345.019529 308.329742 
L 345.262366 309.784531 
L 345.505204 309.782126 
L 345.748042 309.036697 
L 345.99088 311.04695 
L 346.233717 310.645381 
L 346.476555 313.651142 
L 346.719393 313.930077 
L 347.205068 311.04695 
L 347.447906 311.260961 
L 347.690744 312.294942 
L 347.933582 309.760485 
L 348.17642 312.222804 
L 348.419257 311.220082 
L 348.662095 306.660944 
L 348.904933 309.428648 
L 349.390608 305.679863 
L 349.633446 305.434593 
L 349.876284 307.497747 
L 350.119122 305.218178 
L 350.847635 305.884255 
L 351.090473 305.39131 
L 351.576148 307.454464 
L 352.061824 307.218813 
L 352.304661 308.784213 
L 352.547499 308.570203 
L 352.790337 309.611399 
L 353.033175 307.257287 
L 353.276012 306.281015 
L 353.51885 306.155976 
L 353.761688 306.312275 
L 354.004526 307.221217 
L 354.247363 307.375112 
L 354.490201 305.554823 
L 354.733039 306.814838 
L 354.975877 306.175213 
L 355.218715 307.396754 
L 355.461552 309.510405 
L 355.70439 310.616525 
L 355.947228 309.642659 
L 356.190066 313.143769 
L 356.432903 310.43137 
L 356.675741 311.205655 
L 356.918579 314.06233 
L 357.161417 309.296395 
L 357.647092 306.343535 
L 357.88993 307.084155 
L 358.132768 306.091051 
L 358.375605 306.937474 
L 358.618443 308.615891 
L 358.861281 308.748144 
L 359.104119 308.000311 
L 359.832632 311.47978 
L 360.07547 311.412451 
L 360.318307 312.520976 
L 360.561145 311.830853 
L 360.803983 311.566346 
M 365.903576 318.640706 
L 366.146414 319.402967 
L 366.389251 319.282736 
L 366.874927 320.304695 
L 367.117765 320.564393 
L 367.360602 317.914514 
L 367.60344 317.185917 
L 367.846278 318.217494 
L 368.089116 314.781308 
L 368.331954 313.956527 
M 369.303305 313.970955 
L 369.546142 314.625009 
L 369.78898 314.564893 
M 370.760331 313.475605 
L 371.003169 316.077392 
L 371.488844 314.4639 
L 371.731682 315.041006 
L 371.97452 315.267039 
L 372.217358 315.928307 
L 372.460195 315.625326 
L 372.703033 315.719106 
L 373.188709 316.909387 
L 373.431546 318.393031 
M 374.402898 318.102073 
L 374.645735 317.885658 
M 379.50249 321.983112 
L 379.745328 320.761571 
L 379.988166 320.398475 
L 380.231004 320.350383 
L 380.716679 324.714748 
L 380.959517 324.481501 
L 381.445193 324.810932 
L 381.68803 326.08778 
L 381.930868 325.392848 
L 382.173706 325.578003 
L 382.416544 325.553956 
L 382.659381 324.459859 
L 382.902219 324.705129 
M 384.116408 325.727088 
L 384.359246 325.580407 
L 384.844921 327.179472 
L 385.087759 326.614389 
L 385.330597 326.621603 
L 385.573434 325.736707 
L 386.05911 324.955209 
L 386.301948 327.946542 
L 386.787623 324.063099 
L 387.030461 324.498333 
L 387.273299 324.005388 
L 387.516137 325.241357 
L 387.758974 325.416894 
L 388.001812 325.919457 
L 388.24465 325.895411 
L 388.487488 326.371523 
L 388.730325 325.919457 
L 388.973163 326.556678 
L 389.216001 325.229334 
L 389.458839 325.688615 
L 389.701676 325.496246 
L 389.944514 325.027347 
L 390.187352 325.171624 
L 390.43019 325.74873 
L 390.673027 325.541933 
L 390.915865 325.953122 
L 391.158703 325.784799 
L 391.401541 326.82359 
L 391.644378 326.371523 
L 391.887216 327.965779 
L 392.130054 328.489984 
L 392.372892 330.158783 
M 393.829918 328.958883 
L 394.072756 330.202066 
L 394.315594 328.862698 
L 394.558432 328.458724 
L 394.801269 327.367032 
L 395.044107 327.102525 
L 395.286945 327.674822 
L 395.529783 327.619516 
L 395.77262 328.990143 
L 396.015458 328.809797 
L 396.986809 329.475874 
L 397.229647 326.989508 
L 397.472485 329.591295 
L 397.715322 330.019315 
L 397.95816 329.858207 
L 398.200998 330.909021 
L 398.443836 330.735889 
L 398.686673 330.738293 
L 398.929511 330.613254 
L 399.415187 332.2027 
L 399.658024 332.128157 
L 399.900862 332.498467 
L 400.1437 332.048805 
L 400.386538 332.746142 
M 401.115051 332.551369 
L 401.357889 333.152521 
L 401.600727 334.69628 
M 405.728968 341.479682 
L 406.214644 341.587889 
M 406.700319 342.049574 
L 406.943157 341.854801 
M 407.428833 341.323382 
L 407.671671 341.219984 
L 407.914508 341.395521 
L 408.157346 341.215175 
L 408.400184 339.387672 
L 408.885859 339.142402 
L 409.128697 339.637751 
L 409.614373 339.418932 
M 411.071399 339.943137 
L 411.557075 340.789559 
L 411.799912 340.974714 
L 412.04275 340.957882 
M 414.471128 340.342302 
L 414.713966 341.051661 
L 414.956803 341.284908 
L 415.199641 338.815375 
L 415.442479 338.740832 
L 415.685317 339.664202 
L 415.928154 339.659393 
L 416.170992 339.238586 
L 416.656668 339.387672 
M 417.870856 337.240356 
L 418.113694 337.944907 
M 418.59937 338.048305 
L 418.842207 339.195303 
L 419.085045 338.993316 
L 419.327883 338.57251 
L 419.813558 339.529544 
L 420.056396 339.640156 
L 420.299234 340.178788 
M 421.999098 340.161956 
L 422.484774 339.652179 
L 422.727612 340.657306 
L 422.970449 340.984332 
L 423.213287 340.347111 
L 423.456125 340.919408 
L 423.9418 338.654266 
L 424.184638 339.178471 
L 424.427476 337.237952 
L 424.670314 339.051027 
L 424.913151 339.693057 
L 425.398827 340.159551 
L 425.641665 341.010783 
L 426.12734 341.712929 
L 426.370178 342.256371 
L 426.613016 343.526004 
L 426.855854 343.905932 
L 427.098691 343.369704 
M 428.798556 343.278329 
L 429.284231 342.819049 
L 429.769907 342.852714 
L 430.741258 343.232642 
L 430.984095 343.415392 
L 431.226933 344.723499 
L 431.469771 345.336675 
L 431.712609 344.295479 
M 434.626662 348.097166 
L 434.8695 348.166899 
M 435.355175 349.208095 
L 435.598013 349.162408 
L 435.840851 349.465388 
L 436.083688 349.431724 
L 436.326526 349.672185 
L 436.569364 349.58081 
L 436.812202 349.734705 
L 437.055039 349.475007 
M 437.540715 349.313898 
L 437.783553 349.374013 
M 438.269228 349.042177 
L 438.997741 348.972443 
L 439.483417 349.390845 
L 439.726255 349.448556 
L 439.969093 349.97757 
L 440.21193 349.830889 
L 440.697606 349.85253 
M 442.883146 350.386354 
L 443.125983 350.494561 
L 443.368821 350.270932 
L 443.611659 350.412804 
L 443.854497 350.263718 
L 444.097334 350.698953 
L 444.825848 350.533035 
L 445.068685 350.653265 
L 445.311523 350.554676 
L 445.554361 350.321429 
L 446.525712 350.74464 
L 446.76855 350.395972 
L 447.254225 350.290169 
L 447.497063 351.093309 
L 447.739901 351.379457 
L 447.982739 351.288082 
L 448.468414 351.454 
M 452.353818 352.627449 
L 452.596656 352.757298 
M 456.48206 354.012504 
L 456.724898 354.214491 
L 456.967736 354.014909 
L 457.696249 354.197659 
L 457.939087 354.339531 
L 458.181924 354.055787 
L 458.424762 354.34434 
L 459.881789 354.214491 
L 460.367464 354.471784 
L 460.610302 354.587205 
L 460.85314 354.541518 
L 461.095978 354.77236 
L 461.338815 354.789193 
M 465.952733 356.684025 
L 466.438408 356.693643 
L 467.166922 356.558985 
L 467.652597 356.590245 
L 467.895435 356.614291 
L 468.138273 356.830706 
L 468.623948 356.873989 
M 469.109624 356.840324 
L 469.595299 356.840324 
L 469.838137 356.756163 
L 470.080975 356.881202 
L 470.323812 356.849943 
M 474.694892 357.597776 
L 475.180568 357.57373 
M 475.666243 357.831023 
L 476.151919 357.797358 
L 476.637594 357.869497 
L 476.880432 358.129195 
L 477.12327 358.225379 
M 479.30881 358.665422 
L 479.794485 358.701491 
L 480.037323 358.40332 
L 480.280161 358.405725 
L 480.522998 358.703896 
L 481.008674 358.547596 
L 481.251512 358.614926 
M 481.737187 358.764011 
L 482.4657 358.929929 
L 482.708538 358.55481 
L 483.194214 358.191714 
L 483.679889 358.323968 
L 483.922727 358.167668 
M 487.565293 357.520828 
L 488.050969 357.63625 
L 488.293807 357.518424 
L 488.536644 357.583348 
L 488.779482 357.378957 
L 489.02232 357.487164 
L 489.265158 357.333269 
L 489.507995 357.650677 
L 489.993671 357.57373 
L 490.236509 357.821405 
L 490.965022 357.953658 
L 491.20786 358.013773 
L 491.450697 357.900757 
L 491.936373 357.987323 
M 493.3934 358.040224 
L 493.879075 357.862283 
M 494.364751 358.708705 
L 494.850426 358.547596 
L 495.336102 358.792867 
L 495.578939 358.55481 
L 496.064615 358.605307 
L 496.55029 358.619735 
L 496.793128 358.857791 
M 497.521641 358.749584 
L 498.007317 358.869814 
M 498.492992 359.11268 
L 498.73583 359.180009 
M 504.806774 360.09376 
L 505.049612 360.108188 
L 505.29245 360.264487 
L 505.535288 360.043263 
L 506.020963 360.007194 
L 506.263801 360.204372 
L 506.506639 360.572277 
L 506.992314 360.286129 
L 507.720827 359.898987 
L 508.206503 359.788375 
L 509.420692 359.923033 
L 509.663529 360.531399 
L 510.149205 360.550636 
L 510.63488 360.651629 
M 513.063258 360.622774 
L 513.306096 360.593919 
L 513.548934 360.699722 
L 514.277447 360.699722 
L 514.520285 360.781478 
L 515.734473 360.543422 
L 516.220149 360.610751 
L 516.705824 360.358267 
L 516.948662 360.396741 
M 518.648527 360.382313 
L 518.891364 360.372695 
L 519.134202 360.230823 
L 519.37704 360.286129 
M 519.862715 360.2188 
L 520.105553 360.096165 
L 520.834066 360.174363 
L 521.076904 360.067309 
L 521.805417 360.197158 
L 522.048255 360.46407 
L 523.748119 360.329412 
L 524.233795 360.440024 
M 524.962308 360.040859 
L 525.447984 360.151471 
M 526.176497 360.111747 
L 528.119199 360.137043 
L 529.819063 360.032491 
L 530.304739 360.192349 
L 531.27609 360.417132 
L 531.518928 360.286129 
L 531.761766 360.30777 
M 532.490279 360.0625 
L 533.218792 359.866476 
L 533.46163 359.949484 
L 533.704468 359.858108 
L 534.432981 359.997576 
L 534.918656 359.919378 
L 535.404332 360.026431 
L 535.64717 359.951888 
L 536.132845 360.115402 
L 536.375683 360.015658 
L 536.618521 360.144257 
L 537.832709 360.078082 
L 538.318385 360.129829 
L 538.804061 360.084142 
L 539.046898 360.086546 
M 542.203789 360.491771 
L 542.689465 360.483307 
L 543.660816 360.735791 
L 544.875005 360.673271 
L 545.117842 360.847557 
L 545.36068 360.83438 
L 545.846356 360.608346 
L 546.332031 360.550636 
L 547.060544 360.502544 
L 547.789058 360.538613 
L 548.274733 360.605942 
L 548.517571 360.797156 
L 550.703111 360.365481 
L 551.188786 360.500139 
L 551.674462 360.419633 
L 552.160137 360.500139 
L 553.374326 360.712899 
M 554.345677 360.692508 
L 554.588515 360.634797 
M 555.07419 360.586705 
L 556.045541 360.750218 
L 556.288379 360.95461 
L 556.774055 360.896899 
L 557.25973 361.005107 
L 557.502568 361.051949 
M 559.930946 361.14217 
L 560.173783 361.058008 
L 560.416621 361.138515 
L 561.63081 361.012321 
L 562.359323 360.997893 
M 564.302025 360.913732 
L 564.544863 360.851212 
M 566.244727 360.7154 
L 567.216078 360.824761 
L 567.458916 360.770706 
L 567.944592 360.86083 
L 568.915943 360.807929 
M 569.644456 360.877663 
L 570.372969 360.880067 
M 572.558509 361.187857 
L 573.287022 361.101291 
L 573.772698 360.988275 
M 575.958238 360.988275 
L 576.929589 360.940182 
L 577.415264 361.029153 
M 577.90094 360.973847 
L 578.143778 361.019535 
L 579.115129 360.738195 
M 579.600804 360.764646 
L 580.329317 360.783883 
L 581.057831 360.872853 
L 582.272019 360.880067 
M 584.943235 361.096482 
L 585.42891 360.981061 
L 585.671748 361.108505 
L 585.914586 361.000298 
L 586.400261 361.060413 
L 586.643099 360.969038 
L 587.371612 361.007512 
L 588.342963 360.817547 
L 590.285665 361.091673 
L 591.014179 360.913732 
L 591.257017 361.070031 
L 591.499854 361.084459 
L 591.742692 360.944992 
L 592.956881 361.171025 
L 594.17107 360.983465 
L 594.656745 361.062818 
L 595.142421 361.163811 
L 595.385258 361.183048 
L 595.628096 361.043581 
L 596.599447 361.029153 
L 597.085123 361.005107 
L 597.570798 361.029153 
L 598.056474 360.949801 
M 598.784987 360.966633 
L 599.027825 360.932969 
L 599.5135 361.144574 
L 599.756338 361.14217 
L 599.999176 361.274423 
M 603.641742 361.608664 
L 604.855931 361.599045 
L 605.827282 361.661565 
L 606.07012 361.514884 
L 607.041471 361.635114 
L 607.527146 361.608664 
L 608.012822 361.680802 
L 608.741335 361.677147 
L 609.227011 361.764963 
M 610.198362 361.81546 
L 610.684037 361.707253 
L 610.926875 361.792568 
L 611.655388 361.611068 
L 612.383902 361.697634 
L 613.112415 361.719276 
L 613.59809 361.762559 
L 614.083766 361.736108 
L 614.812279 361.548549 
L 615.78363 361.707253 
L 616.026468 361.951272 
L 616.512143 361.890003 
L 618.454846 361.749381 
L 619.183359 361.637519 
M 620.15471 361.743322 
L 620.883223 361.749381 
L 621.368899 361.731299 
L 621.854574 361.700039 
L 622.34025 361.712062 
L 624.282952 361.650696 
M 625.011465 361.635114 
L 625.254303 361.647137 
M 625.739978 361.673588 
L 626.225654 361.733703 
L 626.468492 361.811805 
M 629.86822 361.853934 
L 630.353896 361.811805 
L 630.596734 361.834697 
L 630.839571 361.981378 
L 632.05376 361.935691 
L 632.539436 361.899621 
L 633.267949 361.983783 
M 633.996462 362.019852 
L 634.967813 362.024661 
L 635.696326 361.916454 
L 638.367542 362.072753 
M 639.581731 361.982629 
L 641.038757 361.993401 
L 641.524433 362.041493 
L 642.010108 361.975319 
L 642.495784 362.043898 
L 642.981459 361.974164 
L 646.13835 361.974164 
L 646.381188 362.024661 
L 646.624026 361.952523 
L 646.866863 362.104013 
L 648.081052 362.128059 
M 651.480781 362.301191 
L 651.966456 362.363711 
L 652.69497 362.452682 
M 653.180645 362.532995 
L 654.394834 362.443063 
L 655.123347 362.4623 
L 655.609023 362.450277 
L 655.609023 362.450277 
" clip-path="url(#pab48d45a58)" style="fill: none; stroke: #1e90ff"/>
   </g>
   <g id="patch_3">
    <path d="M 57.68175 378.43845 
L 57.68175 28.51845 
" style="fill: none; stroke: #f0f0f0; stroke-width: 3; stroke-linejoin: miter; stroke-linecap: square"/>
   </g>
   <g id="patch_4">
    <path d="M 684.08175 378.43845 
L 684.08175 28.51845 
" style="fill: none; stroke: #f0f0f0; stroke-width: 3; stroke-linejoin: miter; stroke-linecap: square"/>
   </g>
   <g id="patch_5">
    <path d="M 57.68175 378.43845 
L 684.08175 378.43845 
" style="fill: none; stroke: #f0f0f0; stroke-width: 3; stroke-linejoin: miter; stroke-linecap: square"/>
   </g>
   <g id="patch_6">
    <path d="M 57.68175 28.51845 
L 684.08175 28.51845 
" style="fill: none; stroke: #f0f0f0; stroke-width: 3; stroke-linejoin: miter; stroke-linecap: square"/>
   </g>
   <g id="text_16">
    <!-- NVDA, Relative Strength Index (RSI), NVDA -->
    <g transform="translate(154.3791 22.51845)scale(0.2016 -0.2016)">
     <defs>
      <path id="DejaVuSans-4e" d="M 628 4666 
L 1478 4666 
L 3547 763 
L 3547 4666 
L 4159 4666 
L 4159 0 
L 3309 0 
L 1241 3903 
L 1241 0 
L 628 0 
L 628 4666 
z
" transform="scale(0.015625)"/>
      <path id="DejaVuSans-56" d="M 1831 0 
L 50 4666 
L 709 4666 
L 2188 738 
L 3669 4666 
L 4325 4666 
L 2547 0 
L 1831 0 
z
" transform="scale(0.015625)"/>
      <path id="DejaVuSans-41" d="M 2188 4044 
L 1331 1722 
L 3047 1722 
L 2188 4044 
z
M 1831 4666 
L 2547 4666 
L 4325 0 
L 3669 0 
L 3244 1197 
L 1141 1197 
L 716 0 
L 50 0 
L 1831 4666 
z
" transform="scale(0.015625)"/>
      <path id="DejaVuSans-2c" d="M 750 794 
L 1409 794 
L 1409 256 
L 897 -744 
L 494 -744 
L 750 256 
L 750 794 
z
" transform="scale(0.015625)"/>
      <path id="DejaVuSans-52" d="M 2841 2188 
Q 3044 2119 3236 1894 
Q 3428 1669 3622 1275 
L 4263 0 
L 3584 0 
L 2988 1197 
Q 2756 1666 2539 1819 
Q 2322 1972 1947 1972 
L 1259 1972 
L 1259 0 
L 628 0 
L 628 4666 
L 2053 4666 
Q 2853 4666 3247 4331 
Q 3641 3997 3641 3322 
Q 3641 2881 3436 2590 
Q 3231 2300 2841 2188 
z
M 1259 4147 
L 1259 2491 
L 2053 2491 
Q 2509 2491 2742 2702 
Q 2975 2913 2975 3322 
Q 2975 3731 2742 3939 
Q 2509 4147 2053 4147 
L 1259 4147 
z
" transform="scale(0.015625)"/>
      <path id="DejaVuSans-6c" d="M 603 4863 
L 1178 4863 
L 1178 0 
L 603 0 
L 603 4863 
z
" transform="scale(0.015625)"/>
      <path id="DejaVuSans-76" d="M 191 3500 
L 800 3500 
L 1894 563 
L 2988 3500 
L 3597 3500 
L 2284 0 
L 1503 0 
L 191 3500 
z
" transform="scale(0.015625)"/>
      <path id="DejaVuSans-6e" d="M 3513 2113 
L 3513 0 
L 2938 0 
L 2938 2094 
Q 2938 2591 2744 2837 
Q 2550 3084 2163 3084 
Q 1697 3084 1428 2787 
Q 1159 2491 1159 1978 
L 1159 0 
L 581 0 
L 581 3500 
L 1159 3500 
L 1159 2956 
Q 1366 3272 1645 3428 
Q 1925 3584 2291 3584 
Q 2894 3584 3203 3211 
Q 3513 2838 3513 2113 
z
" transform="scale(0.015625)"/>
      <path id="DejaVuSans-67" d="M 2906 1791 
Q 2906 2416 2648 2759 
Q 2391 3103 1925 3103 
Q 1463 3103 1205 2759 
Q 947 2416 947 1791 
Q 947 1169 1205 825 
Q 1463 481 1925 481 
Q 2391 481 2648 825 
Q 2906 1169 2906 1791 
z
M 3481 434 
Q 3481 -459 3084 -895 
Q 2688 -1331 1869 -1331 
Q 1566 -1331 1297 -1286 
Q 1028 -1241 775 -1147 
L 775 -588 
Q 1028 -725 1275 -790 
Q 1522 -856 1778 -856 
Q 2344 -856 2625 -561 
Q 2906 -266 2906 331 
L 2906 616 
Q 2728 306 2450 153 
Q 2172 0 1784 0 
Q 1141 0 747 490 
Q 353 981 353 1791 
Q 353 2603 747 3093 
Q 1141 3584 1784 3584 
Q 2172 3584 2450 3431 
Q 2728 3278 2906 2969 
L 2906 3500 
L 3481 3500 
L 3481 434 
z
" transform="scale(0.015625)"/>
      <path id="DejaVuSans-68" d="M 3513 2113 
L 3513 0 
L 2938 0 
L 2938 2094 
Q 2938 2591 2744 2837 
Q 2550 3084 2163 3084 
Q 1697 3084 1428 2787 
Q 1159 2491 1159 1978 
L 1159 0 
L 581 0 
L 581 4863 
L 1159 4863 
L 1159 2956 
Q 1366 3272 1645 3428 
Q 1925 3584 2291 3584 
Q 2894 3584 3203 3211 
Q 3513 2838 3513 2113 
z
" transform="scale(0.015625)"/>
      <path id="DejaVuSans-49" d="M 628 4666 
L 1259 4666 
L 1259 0 
L 628 0 
L 628 4666 
z
" transform="scale(0.015625)"/>
      <path id="DejaVuSans-64" d="M 2906 2969 
L 2906 4863 
L 3481 4863 
L 3481 0 
L 2906 0 
L 2906 525 
Q 2725 213 2448 61 
Q 2172 -91 1784 -91 
Q 1150 -91 751 415 
Q 353 922 353 1747 
Q 353 2572 751 3078 
Q 1150 3584 1784 3584 
Q 2172 3584 2448 3432 
Q 2725 3281 2906 2969 
z
M 947 1747 
Q 947 1113 1208 752 
Q 1469 391 1925 391 
Q 2381 391 2643 752 
Q 2906 1113 2906 1747 
Q 2906 2381 2643 2742 
Q 2381 3103 1925 3103 
Q 1469 3103 1208 2742 
Q 947 2381 947 1747 
z
" transform="scale(0.015625)"/>
      <path id="DejaVuSans-78" d="M 3513 3500 
L 2247 1797 
L 3578 0 
L 2900 0 
L 1881 1375 
L 863 0 
L 184 0 
L 1544 1831 
L 300 3500 
L 978 3500 
L 1906 2253 
L 2834 3500 
L 3513 3500 
z
" transform="scale(0.015625)"/>
     </defs>
     <use xlink:href="#DejaVuSans-4e"/>
     <use xlink:href="#DejaVuSans-56" x="74.804688"/>
     <use xlink:href="#DejaVuSans-44" x="143.212891"/>
     <use xlink:href="#DejaVuSans-41" x="218.464844"/>
     <use xlink:href="#DejaVuSans-2c" x="286.873047"/>
     <use xlink:href="#DejaVuSans-20" x="318.660156"/>
     <use xlink:href="#DejaVuSans-52" x="350.447266"/>
     <use xlink:href="#DejaVuSans-65" x="415.429688"/>
     <use xlink:href="#DejaVuSans-6c" x="476.953125"/>
     <use xlink:href="#DejaVuSans-61" x="504.736328"/>
     <use xlink:href="#DejaVuSans-74" x="566.015625"/>
     <use xlink:href="#DejaVuSans-69" x="605.224609"/>
     <use xlink:href="#DejaVuSans-76" x="633.007812"/>
     <use xlink:href="#DejaVuSans-65" x="692.1875"/>
     <use xlink:href="#DejaVuSans-20" x="753.710938"/>
     <use xlink:href="#DejaVuSans-53" x="785.498047"/>
     <use xlink:href="#DejaVuSans-74" x="848.974609"/>
     <use xlink:href="#DejaVuSans-72" x="888.183594"/>
     <use xlink:href="#DejaVuSans-65" x="927.046875"/>
     <use xlink:href="#DejaVuSans-6e" x="988.570312"/>
     <use xlink:href="#DejaVuSans-67" x="1051.949219"/>
     <use xlink:href="#DejaVuSans-74" x="1115.425781"/>
     <use xlink:href="#DejaVuSans-68" x="1154.634766"/>
     <use xlink:href="#DejaVuSans-20" x="1218.013672"/>
     <use xlink:href="#DejaVuSans-49" x="1249.800781"/>
     <use xlink:href="#DejaVuSans-6e" x="1279.292969"/>
     <use xlink:href="#DejaVuSans-64" x="1342.671875"/>
     <use xlink:href="#DejaVuSans-65" x="1406.148438"/>
     <use xlink:href="#DejaVuSans-78" x="1465.921875"/>
     <use xlink:href="#DejaVuSans-20" x="1525.101562"/>
     <use xlink:href="#DejaVuSans-28" x="1556.888672"/>
     <use xlink:href="#DejaVuSans-52" x="1595.902344"/>
     <use xlink:href="#DejaVuSans-53" x="1665.384766"/>
     <use xlink:href="#DejaVuSans-49" x="1728.861328"/>
     <use xlink:href="#DejaVuSans-29" x="1758.353516"/>
     <use xlink:href="#DejaVuSans-2c" x="1797.367188"/>
     <use xlink:href="#DejaVuSans-20" x="1829.154297"/>
     <use xlink:href="#DejaVuSans-4e" x="1860.941406"/>
     <use xlink:href="#DejaVuSans-56" x="1935.746094"/>
     <use xlink:href="#DejaVuSans-44" x="2004.154297"/>
     <use xlink:href="#DejaVuSans-41" x="2079.40625"/>
    </g>
   </g>
   <g id="legend_1">
    <g id="patch_7">
     <path d="M 464.408625 101.366575 
L 674.28175 101.366575 
Q 677.08175 101.366575 677.08175 98.566575 
L 677.08175 38.31845 
Q 677.08175 35.51845 674.28175 35.51845 
L 464.408625 35.51845 
Q 461.608625 35.51845 461.608625 38.31845 
L 461.608625 98.566575 
Q 461.608625 101.366575 464.408625 101.366575 
z
" style="fill: #f0f0f0; opacity: 0.8; stroke: #cccccc; stroke-width: 0.5; stroke-linejoin: miter"/>
    </g>
    <g id="line2d_30">
     <path d="M 467.208625 46.856262 
L 481.208625 46.856262 
L 495.208625 46.856262 
" style="fill: none; stroke: #00ff7f"/>
    </g>
    <g id="text_17">
     <!-- Oversold, RSI &lt;= 30 -->
     <g transform="translate(506.408625 51.756262)scale(0.14 -0.14)">
      <defs>
       <path id="DejaVuSans-4f" d="M 2522 4238 
Q 1834 4238 1429 3725 
Q 1025 3213 1025 2328 
Q 1025 1447 1429 934 
Q 1834 422 2522 422 
Q 3209 422 3611 934 
Q 4013 1447 4013 2328 
Q 4013 3213 3611 3725 
Q 3209 4238 2522 4238 
z
M 2522 4750 
Q 3503 4750 4090 4092 
Q 4678 3434 4678 2328 
Q 4678 1225 4090 567 
Q 3503 -91 2522 -91 
Q 1538 -91 948 565 
Q 359 1222 359 2328 
Q 359 3434 948 4092 
Q 1538 4750 2522 4750 
z
" transform="scale(0.015625)"/>
       <path id="DejaVuSans-73" d="M 2834 3397 
L 2834 2853 
Q 2591 2978 2328 3040 
Q 2066 3103 1784 3103 
Q 1356 3103 1142 2972 
Q 928 2841 928 2578 
Q 928 2378 1081 2264 
Q 1234 2150 1697 2047 
L 1894 2003 
Q 2506 1872 2764 1633 
Q 3022 1394 3022 966 
Q 3022 478 2636 193 
Q 2250 -91 1575 -91 
Q 1294 -91 989 -36 
Q 684 19 347 128 
L 347 722 
Q 666 556 975 473 
Q 1284 391 1588 391 
Q 1994 391 2212 530 
Q 2431 669 2431 922 
Q 2431 1156 2273 1281 
Q 2116 1406 1581 1522 
L 1381 1569 
Q 847 1681 609 1914 
Q 372 2147 372 2553 
Q 372 3047 722 3315 
Q 1072 3584 1716 3584 
Q 2034 3584 2315 3537 
Q 2597 3491 2834 3397 
z
" transform="scale(0.015625)"/>
       <path id="DejaVuSans-6f" d="M 1959 3097 
Q 1497 3097 1228 2736 
Q 959 2375 959 1747 
Q 959 1119 1226 758 
Q 1494 397 1959 397 
Q 2419 397 2687 759 
Q 2956 1122 2956 1747 
Q 2956 2369 2687 2733 
Q 2419 3097 1959 3097 
z
M 1959 3584 
Q 2709 3584 3137 3096 
Q 3566 2609 3566 1747 
Q 3566 888 3137 398 
Q 2709 -91 1959 -91 
Q 1206 -91 779 398 
Q 353 888 353 1747 
Q 353 2609 779 3096 
Q 1206 3584 1959 3584 
z
" transform="scale(0.015625)"/>
       <path id="DejaVuSans-3c" d="M 4684 3150 
L 1459 2003 
L 4684 863 
L 4684 294 
L 678 1747 
L 678 2266 
L 4684 3719 
L 4684 3150 
z
" transform="scale(0.015625)"/>
       <path id="DejaVuSans-3d" d="M 678 2906 
L 4684 2906 
L 4684 2381 
L 678 2381 
L 678 2906 
z
M 678 1631 
L 4684 1631 
L 4684 1100 
L 678 1100 
L 678 1631 
z
" transform="scale(0.015625)"/>
      </defs>
      <use xlink:href="#DejaVuSans-4f"/>
      <use xlink:href="#DejaVuSans-76" x="78.710938"/>
      <use xlink:href="#DejaVuSans-65" x="137.890625"/>
      <use xlink:href="#DejaVuSans-72" x="199.414062"/>
      <use xlink:href="#DejaVuSans-73" x="240.527344"/>
      <use xlink:href="#DejaVuSans-6f" x="292.626953"/>
      <use xlink:href="#DejaVuSans-6c" x="353.808594"/>
      <use xlink:href="#DejaVuSans-64" x="381.591797"/>
      <use xlink:href="#DejaVuSans-2c" x="445.068359"/>
      <use xlink:href="#DejaVuSans-20" x="476.855469"/>
      <use xlink:href="#DejaVuSans-52" x="508.642578"/>
      <use xlink:href="#DejaVuSans-53" x="578.125"/>
      <use xlink:href="#DejaVuSans-49" x="641.601562"/>
      <use xlink:href="#DejaVuSans-20" x="671.09375"/>
      <use xlink:href="#DejaVuSans-3c" x="702.880859"/>
      <use xlink:href="#DejaVuSans-3d" x="786.669922"/>
      <use xlink:href="#DejaVuSans-20" x="870.458984"/>
      <use xlink:href="#DejaVuSans-33" x="902.246094"/>
      <use xlink:href="#DejaVuSans-30" x="965.869141"/>
     </g>
    </g>
    <g id="line2d_31">
     <path d="M 467.208625 67.405637 
L 481.208625 67.405637 
L 495.208625 67.405637 
" style="fill: none; stroke: #ff4500"/>
    </g>
    <g id="text_18">
     <!-- Overbought, RSI &gt;= 70 -->
     <g transform="translate(506.408625 72.305637)scale(0.14 -0.14)">
      <defs>
       <path id="DejaVuSans-62" d="M 3116 1747 
Q 3116 2381 2855 2742 
Q 2594 3103 2138 3103 
Q 1681 3103 1420 2742 
Q 1159 2381 1159 1747 
Q 1159 1113 1420 752 
Q 1681 391 2138 391 
Q 2594 391 2855 752 
Q 3116 1113 3116 1747 
z
M 1159 2969 
Q 1341 3281 1617 3432 
Q 1894 3584 2278 3584 
Q 2916 3584 3314 3078 
Q 3713 2572 3713 1747 
Q 3713 922 3314 415 
Q 2916 -91 2278 -91 
Q 1894 -91 1617 61 
Q 1341 213 1159 525 
L 1159 0 
L 581 0 
L 581 4863 
L 1159 4863 
L 1159 2969 
z
" transform="scale(0.015625)"/>
       <path id="DejaVuSans-75" d="M 544 1381 
L 544 3500 
L 1119 3500 
L 1119 1403 
Q 1119 906 1312 657 
Q 1506 409 1894 409 
Q 2359 409 2629 706 
Q 2900 1003 2900 1516 
L 2900 3500 
L 3475 3500 
L 3475 0 
L 2900 0 
L 2900 538 
Q 2691 219 2414 64 
Q 2138 -91 1772 -91 
Q 1169 -91 856 284 
Q 544 659 544 1381 
z
M 1991 3584 
L 1991 3584 
z
" transform="scale(0.015625)"/>
       <path id="DejaVuSans-3e" d="M 678 3150 
L 678 3719 
L 4684 2266 
L 4684 1747 
L 678 294 
L 678 863 
L 3897 2003 
L 678 3150 
z
" transform="scale(0.015625)"/>
       <path id="DejaVuSans-37" d="M 525 4666 
L 3525 4666 
L 3525 4397 
L 1831 0 
L 1172 0 
L 2766 4134 
L 525 4134 
L 525 4666 
z
" transform="scale(0.015625)"/>
      </defs>
      <use xlink:href="#DejaVuSans-4f"/>
      <use xlink:href="#DejaVuSans-76" x="78.710938"/>
      <use xlink:href="#DejaVuSans-65" x="137.890625"/>
      <use xlink:href="#DejaVuSans-72" x="199.414062"/>
      <use xlink:href="#DejaVuSans-62" x="240.527344"/>
      <use xlink:href="#DejaVuSans-6f" x="304.003906"/>
      <use xlink:href="#DejaVuSans-75" x="365.185547"/>
      <use xlink:href="#DejaVuSans-67" x="428.564453"/>
      <use xlink:href="#DejaVuSans-68" x="492.041016"/>
      <use xlink:href="#DejaVuSans-74" x="555.419922"/>
      <use xlink:href="#DejaVuSans-2c" x="594.628906"/>
      <use xlink:href="#DejaVuSans-20" x="626.416016"/>
      <use xlink:href="#DejaVuSans-52" x="658.203125"/>
      <use xlink:href="#DejaVuSans-53" x="727.685547"/>
      <use xlink:href="#DejaVuSans-49" x="791.162109"/>
      <use xlink:href="#DejaVuSans-20" x="820.654297"/>
      <use xlink:href="#DejaVuSans-3e" x="852.441406"/>
      <use xlink:href="#DejaVuSans-3d" x="936.230469"/>
      <use xlink:href="#DejaVuSans-20" x="1020.019531"/>
      <use xlink:href="#DejaVuSans-37" x="1051.806641"/>
      <use xlink:href="#DejaVuSans-30" x="1115.429688"/>
     </g>
    </g>
    <g id="line2d_32">
     <path d="M 467.208625 87.955012 
L 481.208625 87.955012 
L 495.208625 87.955012 
" style="fill: none; stroke: #1e90ff"/>
    </g>
    <g id="text_19">
     <!-- Neutral -->
     <g transform="translate(506.408625 92.855012)scale(0.14 -0.14)">
      <use xlink:href="#DejaVuSans-4e"/>
      <use xlink:href="#DejaVuSans-65" x="74.804688"/>
      <use xlink:href="#DejaVuSans-75" x="136.328125"/>
      <use xlink:href="#DejaVuSans-74" x="199.707031"/>
      <use xlink:href="#DejaVuSans-72" x="238.916016"/>
      <use xlink:href="#DejaVuSans-61" x="280.029297"/>
      <use xlink:href="#DejaVuSans-6c" x="341.308594"/>
     </g>
    </g>
   </g>
  </g>
 </g>
 <defs>
  <clipPath id="pab48d45a58">
   <rect x="57.68175" y="28.51845" width="626.4" height="349.92"/>
  </clipPath>
 </defs>
</svg>
