<?xml version="1.0" encoding="utf-8" standalone="no"?>
<!DOCTYPE svg PUBLIC "-//W3C//DTD SVG 1.1//EN"
  "http://www.w3.org/Graphics/SVG/1.1/DTD/svg11.dtd">
<svg xmlns:xlink="http://www.w3.org/1999/xlink" width="612.165625pt" height="392.514375pt" viewBox="0 0 612.165625 392.514375" xmlns="http://www.w3.org/2000/svg" version="1.1">
 <metadata>
  <rdf:RDF xmlns:dc="http://purl.org/dc/elements/1.1/" xmlns:cc="http://creativecommons.org/ns#" xmlns:rdf="http://www.w3.org/1999/02/22-rdf-syntax-ns#">
   <cc:Work>
    <dc:type rdf:resource="http://purl.org/dc/dcmitype/StillImage"/>
    <dc:date>2023-04-24T21:55:14.507537</dc:date>
    <dc:format>image/svg+xml</dc:format>
    <dc:creator>
     <cc:Agent>
      <dc:title>Matplotlib v3.5.1, https://matplotlib.org/</dc:title>
     </cc:Agent>
    </dc:creator>
   </cc:Work>
  </rdf:RDF>
 </metadata>
 <defs>
  <style type="text/css">*{stroke-linejoin: round; stroke-linecap: butt}</style>
 </defs>
 <g id="figure_1">
  <g id="patch_1">
   <path d="M 0 392.514375 
L 612.165625 392.514375 
L 612.165625 0 
L 0 0 
z
" style="fill: #ffffff"/>
  </g>
  <g id="axes_1">
   <g id="patch_2">
    <path d="M 46.965625 354.958125 
L 604.965625 354.958125 
L 604.965625 22.318125 
L 46.965625 22.318125 
z
" style="fill: #ffffff"/>
   </g>
   <g id="matplotlib.axis_1">
    <g id="xtick_1">
     <g id="line2d_1">
      <defs>
       <path id="m99223f5f3a" d="M 0 0 
L 0 3.5 
" style="stroke: #000000; stroke-width: 0.8"/>
      </defs>
      <g>
       <use xlink:href="#m99223f5f3a" x="72.329261" y="354.958125" style="stroke: #000000; stroke-width: 0.8"/>
      </g>
     </g>
     <g id="text_1">
      <!-- 0 -->
      <g transform="translate(69.148011 369.556562)scale(0.1 -0.1)">
       <defs>
        <path id="DejaVuSans-30" d="M 2034 4250 
Q 1547 4250 1301 3770 
Q 1056 3291 1056 2328 
Q 1056 1369 1301 889 
Q 1547 409 2034 409 
Q 2525 409 2770 889 
Q 3016 1369 3016 2328 
Q 3016 3291 2770 3770 
Q 2525 4250 2034 4250 
z
M 2034 4750 
Q 2819 4750 3233 4129 
Q 3647 3509 3647 2328 
Q 3647 1150 3233 529 
Q 2819 -91 2034 -91 
Q 1250 -91 836 529 
Q 422 1150 422 2328 
Q 422 3509 836 4129 
Q 1250 4750 2034 4750 
z
" transform="scale(0.015625)"/>
       </defs>
       <use xlink:href="#DejaVuSans-30"/>
      </g>
     </g>
    </g>
    <g id="xtick_2">
     <g id="line2d_2">
      <g>
       <use xlink:href="#m99223f5f3a" x="189.15854" y="354.958125" style="stroke: #000000; stroke-width: 0.8"/>
      </g>
     </g>
     <g id="text_2">
      <!-- 500 -->
      <g transform="translate(179.61479 369.556562)scale(0.1 -0.1)">
       <defs>
        <path id="DejaVuSans-35" d="M 691 4666 
L 3169 4666 
L 3169 4134 
L 1269 4134 
L 1269 2991 
Q 1406 3038 1543 3061 
Q 1681 3084 1819 3084 
Q 2600 3084 3056 2656 
Q 3513 2228 3513 1497 
Q 3513 744 3044 326 
Q 2575 -91 1722 -91 
Q 1428 -91 1123 -41 
Q 819 9 494 109 
L 494 744 
Q 775 591 1075 516 
Q 1375 441 1709 441 
Q 2250 441 2565 725 
Q 2881 1009 2881 1497 
Q 2881 1984 2565 2268 
Q 2250 2553 1709 2553 
Q 1456 2553 1204 2497 
Q 953 2441 691 2322 
L 691 4666 
z
" transform="scale(0.015625)"/>
       </defs>
       <use xlink:href="#DejaVuSans-35"/>
       <use xlink:href="#DejaVuSans-30" x="63.623047"/>
       <use xlink:href="#DejaVuSans-30" x="127.246094"/>
      </g>
     </g>
    </g>
    <g id="xtick_3">
     <g id="line2d_3">
      <g>
       <use xlink:href="#m99223f5f3a" x="305.987818" y="354.958125" style="stroke: #000000; stroke-width: 0.8"/>
      </g>
     </g>
     <g id="text_3">
      <!-- 1000 -->
      <g transform="translate(293.262818 369.556562)scale(0.1 -0.1)">
       <defs>
        <path id="DejaVuSans-31" d="M 794 531 
L 1825 531 
L 1825 4091 
L 703 3866 
L 703 4441 
L 1819 4666 
L 2450 4666 
L 2450 531 
L 3481 531 
L 3481 0 
L 794 0 
L 794 531 
z
" transform="scale(0.015625)"/>
       </defs>
       <use xlink:href="#DejaVuSans-31"/>
       <use xlink:href="#DejaVuSans-30" x="63.623047"/>
       <use xlink:href="#DejaVuSans-30" x="127.246094"/>
       <use xlink:href="#DejaVuSans-30" x="190.869141"/>
      </g>
     </g>
    </g>
    <g id="xtick_4">
     <g id="line2d_4">
      <g>
       <use xlink:href="#m99223f5f3a" x="422.817097" y="354.958125" style="stroke: #000000; stroke-width: 0.8"/>
      </g>
     </g>
     <g id="text_4">
      <!-- 1500 -->
      <g transform="translate(410.092097 369.556562)scale(0.1 -0.1)">
       <use xlink:href="#DejaVuSans-31"/>
       <use xlink:href="#DejaVuSans-35" x="63.623047"/>
       <use xlink:href="#DejaVuSans-30" x="127.246094"/>
       <use xlink:href="#DejaVuSans-30" x="190.869141"/>
      </g>
     </g>
    </g>
    <g id="xtick_5">
     <g id="line2d_5">
      <g>
       <use xlink:href="#m99223f5f3a" x="539.646375" y="354.958125" style="stroke: #000000; stroke-width: 0.8"/>
      </g>
     </g>
     <g id="text_5">
      <!-- 2000 -->
      <g transform="translate(526.921375 369.556562)scale(0.1 -0.1)">
       <defs>
        <path id="DejaVuSans-32" d="M 1228 531 
L 3431 531 
L 3431 0 
L 469 0 
L 469 531 
Q 828 903 1448 1529 
Q 2069 2156 2228 2338 
Q 2531 2678 2651 2914 
Q 2772 3150 2772 3378 
Q 2772 3750 2511 3984 
Q 2250 4219 1831 4219 
Q 1534 4219 1204 4116 
Q 875 4013 500 3803 
L 500 4441 
Q 881 4594 1212 4672 
Q 1544 4750 1819 4750 
Q 2544 4750 2975 4387 
Q 3406 4025 3406 3419 
Q 3406 3131 3298 2873 
Q 3191 2616 2906 2266 
Q 2828 2175 2409 1742 
Q 1991 1309 1228 531 
z
" transform="scale(0.015625)"/>
       </defs>
       <use xlink:href="#DejaVuSans-32"/>
       <use xlink:href="#DejaVuSans-30" x="63.623047"/>
       <use xlink:href="#DejaVuSans-30" x="127.246094"/>
       <use xlink:href="#DejaVuSans-30" x="190.869141"/>
      </g>
     </g>
    </g>
    <g id="text_6">
     <!-- Date -->
     <g transform="translate(314.014844 383.234687)scale(0.1 -0.1)">
      <defs>
       <path id="DejaVuSans-44" d="M 1259 4147 
L 1259 519 
L 2022 519 
Q 2988 519 3436 956 
Q 3884 1394 3884 2338 
Q 3884 3275 3436 3711 
Q 2988 4147 2022 4147 
L 1259 4147 
z
M 628 4666 
L 1925 4666 
Q 3281 4666 3915 4102 
Q 4550 3538 4550 2338 
Q 4550 1131 3912 565 
Q 3275 0 1925 0 
L 628 0 
L 628 4666 
z
" transform="scale(0.015625)"/>
       <path id="DejaVuSans-61" d="M 2194 1759 
Q 1497 1759 1228 1600 
Q 959 1441 959 1056 
Q 959 750 1161 570 
Q 1363 391 1709 391 
Q 2188 391 2477 730 
Q 2766 1069 2766 1631 
L 2766 1759 
L 2194 1759 
z
M 3341 1997 
L 3341 0 
L 2766 0 
L 2766 531 
Q 2569 213 2275 61 
Q 1981 -91 1556 -91 
Q 1019 -91 701 211 
Q 384 513 384 1019 
Q 384 1609 779 1909 
Q 1175 2209 1959 2209 
L 2766 2209 
L 2766 2266 
Q 2766 2663 2505 2880 
Q 2244 3097 1772 3097 
Q 1472 3097 1187 3025 
Q 903 2953 641 2809 
L 641 3341 
Q 956 3463 1253 3523 
Q 1550 3584 1831 3584 
Q 2591 3584 2966 3190 
Q 3341 2797 3341 1997 
z
" transform="scale(0.015625)"/>
       <path id="DejaVuSans-74" d="M 1172 4494 
L 1172 3500 
L 2356 3500 
L 2356 3053 
L 1172 3053 
L 1172 1153 
Q 1172 725 1289 603 
Q 1406 481 1766 481 
L 2356 481 
L 2356 0 
L 1766 0 
Q 1100 0 847 248 
Q 594 497 594 1153 
L 594 3053 
L 172 3053 
L 172 3500 
L 594 3500 
L 594 4494 
L 1172 4494 
z
" transform="scale(0.015625)"/>
       <path id="DejaVuSans-65" d="M 3597 1894 
L 3597 1613 
L 953 1613 
Q 991 1019 1311 708 
Q 1631 397 2203 397 
Q 2534 397 2845 478 
Q 3156 559 3463 722 
L 3463 178 
Q 3153 47 2828 -22 
Q 2503 -91 2169 -91 
Q 1331 -91 842 396 
Q 353 884 353 1716 
Q 353 2575 817 3079 
Q 1281 3584 2069 3584 
Q 2775 3584 3186 3129 
Q 3597 2675 3597 1894 
z
M 3022 2063 
Q 3016 2534 2758 2815 
Q 2500 3097 2075 3097 
Q 1594 3097 1305 2825 
Q 1016 2553 972 2059 
L 3022 2063 
z
" transform="scale(0.015625)"/>
      </defs>
      <use xlink:href="#DejaVuSans-44"/>
      <use xlink:href="#DejaVuSans-61" x="77.001953"/>
      <use xlink:href="#DejaVuSans-74" x="138.28125"/>
      <use xlink:href="#DejaVuSans-65" x="177.490234"/>
     </g>
    </g>
   </g>
   <g id="matplotlib.axis_2">
    <g id="ytick_1">
     <g id="line2d_6">
      <path d="M 46.965625 343.324456 
L 604.965625 343.324456 
" clip-path="url(#pa24890beb3)" style="fill: none; stroke: #dcdcdc; stroke-width: 0.5; stroke-linecap: square"/>
     </g>
     <g id="line2d_7">
      <defs>
       <path id="mb72bd864f5" d="M 0 0 
L -3.5 0 
" style="stroke: #000000; stroke-width: 0.8"/>
      </defs>
      <g>
       <use xlink:href="#mb72bd864f5" x="46.965625" y="343.324456" style="stroke: #000000; stroke-width: 0.8"/>
      </g>
     </g>
     <g id="text_7">
      <!-- 0 -->
      <g transform="translate(33.603125 347.123675)scale(0.1 -0.1)">
       <use xlink:href="#DejaVuSans-30"/>
      </g>
     </g>
    </g>
    <g id="ytick_2">
     <g id="line2d_8">
      <path d="M 46.965625 285.822702 
L 604.965625 285.822702 
" clip-path="url(#pa24890beb3)" style="fill: none; stroke: #dcdcdc; stroke-width: 0.5; stroke-linecap: square"/>
     </g>
     <g id="line2d_9">
      <g>
       <use xlink:href="#mb72bd864f5" x="46.965625" y="285.822702" style="stroke: #000000; stroke-width: 0.8"/>
      </g>
     </g>
     <g id="text_8">
      <!-- 50 -->
      <g transform="translate(27.240625 289.621921)scale(0.1 -0.1)">
       <use xlink:href="#DejaVuSans-35"/>
       <use xlink:href="#DejaVuSans-30" x="63.623047"/>
      </g>
     </g>
    </g>
    <g id="ytick_3">
     <g id="line2d_10">
      <path d="M 46.965625 228.320948 
L 604.965625 228.320948 
" clip-path="url(#pa24890beb3)" style="fill: none; stroke: #dcdcdc; stroke-width: 0.5; stroke-linecap: square"/>
     </g>
     <g id="line2d_11">
      <g>
       <use xlink:href="#mb72bd864f5" x="46.965625" y="228.320948" style="stroke: #000000; stroke-width: 0.8"/>
      </g>
     </g>
     <g id="text_9">
      <!-- 100 -->
      <g transform="translate(20.878125 232.120167)scale(0.1 -0.1)">
       <use xlink:href="#DejaVuSans-31"/>
       <use xlink:href="#DejaVuSans-30" x="63.623047"/>
       <use xlink:href="#DejaVuSans-30" x="127.246094"/>
      </g>
     </g>
    </g>
    <g id="ytick_4">
     <g id="line2d_12">
      <path d="M 46.965625 170.819194 
L 604.965625 170.819194 
" clip-path="url(#pa24890beb3)" style="fill: none; stroke: #dcdcdc; stroke-width: 0.5; stroke-linecap: square"/>
     </g>
     <g id="line2d_13">
      <g>
       <use xlink:href="#mb72bd864f5" x="46.965625" y="170.819194" style="stroke: #000000; stroke-width: 0.8"/>
      </g>
     </g>
     <g id="text_10">
      <!-- 150 -->
      <g transform="translate(20.878125 174.618413)scale(0.1 -0.1)">
       <use xlink:href="#DejaVuSans-31"/>
       <use xlink:href="#DejaVuSans-35" x="63.623047"/>
       <use xlink:href="#DejaVuSans-30" x="127.246094"/>
      </g>
     </g>
    </g>
    <g id="ytick_5">
     <g id="line2d_14">
      <path d="M 46.965625 113.31744 
L 604.965625 113.31744 
" clip-path="url(#pa24890beb3)" style="fill: none; stroke: #dcdcdc; stroke-width: 0.5; stroke-linecap: square"/>
     </g>
     <g id="line2d_15">
      <g>
       <use xlink:href="#mb72bd864f5" x="46.965625" y="113.31744" style="stroke: #000000; stroke-width: 0.8"/>
      </g>
     </g>
     <g id="text_11">
      <!-- 200 -->
      <g transform="translate(20.878125 117.116659)scale(0.1 -0.1)">
       <use xlink:href="#DejaVuSans-32"/>
       <use xlink:href="#DejaVuSans-30" x="63.623047"/>
       <use xlink:href="#DejaVuSans-30" x="127.246094"/>
      </g>
     </g>
    </g>
    <g id="ytick_6">
     <g id="line2d_16">
      <path d="M 46.965625 55.815686 
L 604.965625 55.815686 
" clip-path="url(#pa24890beb3)" style="fill: none; stroke: #dcdcdc; stroke-width: 0.5; stroke-linecap: square"/>
     </g>
     <g id="line2d_17">
      <g>
       <use xlink:href="#mb72bd864f5" x="46.965625" y="55.815686" style="stroke: #000000; stroke-width: 0.8"/>
      </g>
     </g>
     <g id="text_12">
      <!-- 250 -->
      <g transform="translate(20.878125 59.614904)scale(0.1 -0.1)">
       <use xlink:href="#DejaVuSans-32"/>
       <use xlink:href="#DejaVuSans-35" x="63.623047"/>
       <use xlink:href="#DejaVuSans-30" x="127.246094"/>
      </g>
     </g>
    </g>
    <g id="text_13">
     <!-- Price (USD) -->
     <g transform="translate(14.798437 217.01)rotate(-90)scale(0.1 -0.1)">
      <defs>
       <path id="DejaVuSans-50" d="M 1259 4147 
L 1259 2394 
L 2053 2394 
Q 2494 2394 2734 2622 
Q 2975 2850 2975 3272 
Q 2975 3691 2734 3919 
Q 2494 4147 2053 4147 
L 1259 4147 
z
M 628 4666 
L 2053 4666 
Q 2838 4666 3239 4311 
Q 3641 3956 3641 3272 
Q 3641 2581 3239 2228 
Q 2838 1875 2053 1875 
L 1259 1875 
L 1259 0 
L 628 0 
L 628 4666 
z
" transform="scale(0.015625)"/>
       <path id="DejaVuSans-72" d="M 2631 2963 
Q 2534 3019 2420 3045 
Q 2306 3072 2169 3072 
Q 1681 3072 1420 2755 
Q 1159 2438 1159 1844 
L 1159 0 
L 581 0 
L 581 3500 
L 1159 3500 
L 1159 2956 
Q 1341 3275 1631 3429 
Q 1922 3584 2338 3584 
Q 2397 3584 2469 3576 
Q 2541 3569 2628 3553 
L 2631 2963 
z
" transform="scale(0.015625)"/>
       <path id="DejaVuSans-69" d="M 603 3500 
L 1178 3500 
L 1178 0 
L 603 0 
L 603 3500 
z
M 603 4863 
L 1178 4863 
L 1178 4134 
L 603 4134 
L 603 4863 
z
" transform="scale(0.015625)"/>
       <path id="DejaVuSans-63" d="M 3122 3366 
L 3122 2828 
Q 2878 2963 2633 3030 
Q 2388 3097 2138 3097 
Q 1578 3097 1268 2742 
Q 959 2388 959 1747 
Q 959 1106 1268 751 
Q 1578 397 2138 397 
Q 2388 397 2633 464 
Q 2878 531 3122 666 
L 3122 134 
Q 2881 22 2623 -34 
Q 2366 -91 2075 -91 
Q 1284 -91 818 406 
Q 353 903 353 1747 
Q 353 2603 823 3093 
Q 1294 3584 2113 3584 
Q 2378 3584 2631 3529 
Q 2884 3475 3122 3366 
z
" transform="scale(0.015625)"/>
       <path id="DejaVuSans-20" transform="scale(0.015625)"/>
       <path id="DejaVuSans-28" d="M 1984 4856 
Q 1566 4138 1362 3434 
Q 1159 2731 1159 2009 
Q 1159 1288 1364 580 
Q 1569 -128 1984 -844 
L 1484 -844 
Q 1016 -109 783 600 
Q 550 1309 550 2009 
Q 550 2706 781 3412 
Q 1013 4119 1484 4856 
L 1984 4856 
z
" transform="scale(0.015625)"/>
       <path id="DejaVuSans-55" d="M 556 4666 
L 1191 4666 
L 1191 1831 
Q 1191 1081 1462 751 
Q 1734 422 2344 422 
Q 2950 422 3222 751 
Q 3494 1081 3494 1831 
L 3494 4666 
L 4128 4666 
L 4128 1753 
Q 4128 841 3676 375 
Q 3225 -91 2344 -91 
Q 1459 -91 1007 375 
Q 556 841 556 1753 
L 556 4666 
z
" transform="scale(0.015625)"/>
       <path id="DejaVuSans-53" d="M 3425 4513 
L 3425 3897 
Q 3066 4069 2747 4153 
Q 2428 4238 2131 4238 
Q 1616 4238 1336 4038 
Q 1056 3838 1056 3469 
Q 1056 3159 1242 3001 
Q 1428 2844 1947 2747 
L 2328 2669 
Q 3034 2534 3370 2195 
Q 3706 1856 3706 1288 
Q 3706 609 3251 259 
Q 2797 -91 1919 -91 
Q 1588 -91 1214 -16 
Q 841 59 441 206 
L 441 856 
Q 825 641 1194 531 
Q 1563 422 1919 422 
Q 2459 422 2753 634 
Q 3047 847 3047 1241 
Q 3047 1584 2836 1778 
Q 2625 1972 2144 2069 
L 1759 2144 
Q 1053 2284 737 2584 
Q 422 2884 422 3419 
Q 422 4038 858 4394 
Q 1294 4750 2059 4750 
Q 2388 4750 2728 4690 
Q 3069 4631 3425 4513 
z
" transform="scale(0.015625)"/>
       <path id="DejaVuSans-29" d="M 513 4856 
L 1013 4856 
Q 1481 4119 1714 3412 
Q 1947 2706 1947 2009 
Q 1947 1309 1714 600 
Q 1481 -109 1013 -844 
L 513 -844 
Q 928 -128 1133 580 
Q 1338 1288 1338 2009 
Q 1338 2731 1133 3434 
Q 928 4138 513 4856 
z
" transform="scale(0.015625)"/>
      </defs>
      <use xlink:href="#DejaVuSans-50"/>
      <use xlink:href="#DejaVuSans-72" x="58.552734"/>
      <use xlink:href="#DejaVuSans-69" x="99.666016"/>
      <use xlink:href="#DejaVuSans-63" x="127.449219"/>
      <use xlink:href="#DejaVuSans-65" x="182.429688"/>
      <use xlink:href="#DejaVuSans-20" x="243.953125"/>
      <use xlink:href="#DejaVuSans-28" x="275.740234"/>
      <use xlink:href="#DejaVuSans-55" x="314.753906"/>
      <use xlink:href="#DejaVuSans-53" x="387.947266"/>
      <use xlink:href="#DejaVuSans-44" x="451.423828"/>
      <use xlink:href="#DejaVuSans-29" x="528.425781"/>
     </g>
    </g>
   </g>
   <g id="line2d_18">
    <path d="M 75.83414 339.638594 
L 76.301457 339.648599 
L 76.768774 339.710471 
L 77.236091 339.609843 
L 77.703408 339.451713 
L 78.170725 339.422962 
L 78.638042 339.399962 
M 87.283409 339.264833 
L 87.750726 339.259082 
L 87.984385 339.296458 
M 92.657556 339.241832 
L 92.891214 339.250457 
M 96.629751 339.0262 
L 98.49902 339.083702 
L 99.433654 339.046326 
M 115.556094 339.006075 
L 116.023412 338.980199 
M 121.864875 338.85082 
L 122.565851 338.879571 
L 123.033168 338.810569 
L 123.734144 338.885321 
L 124.902437 338.485684 
M 139.856584 338.149298 
L 140.090243 338.160799 
M 140.55756 338.080296 
L 141.258536 338.008419 
L 141.725853 337.86754 
L 141.959511 337.876165 
M 152.240488 338.293053 
L 152.707805 338.249927 
L 153.408781 338.304553 
M 154.577073 337.919291 
L 154.810732 337.850289 
M 163.923416 338.481429 
L 164.157074 338.498564 
L 164.624391 338.310303 
L 165.325367 338.272927 
L 165.559026 338.057296 
L 165.792684 338.180924 
M 169.297563 337.676404 
L 169.76488 337.636038 
M 180.98049 337.680659 
L 181.214149 337.772662 
L 181.447807 337.637533 
L 181.681466 337.802908 
L 182.6161 337.434897 
L 183.083417 337.465028 
M 190.326833 337.275272 
L 190.560491 337.296777 
M 197.570248 337.337144 
L 197.803906 337.39315 
M 209.019517 337.660534 
L 209.253176 337.634658 
L 209.486834 337.745291 
L 209.720493 337.674909 
L 210.18781 337.772662 
L 210.655127 337.582906 
L 210.888786 337.568531 
M 217.431225 336.933136 
L 217.664884 336.832508 
M 218.132201 336.800882 
L 219.066835 336.628377 
L 219.300494 336.559375 
L 219.534152 336.743381 
L 220.001469 336.585251 
L 220.235128 336.536374 
L 220.468787 336.625502 
L 220.702445 336.507623 
L 220.936104 336.237365 
L 221.169762 336.375369 
L 221.870738 335.921106 
L 222.338055 335.800352 
M 223.973665 335.328837 
L 224.207323 335.340338 
M 227.94586 334.552564 
L 228.179519 334.58419 
L 228.413177 334.756695 
L 228.646836 334.58419 
L 228.880495 334.58419 
M 241.498057 335.7256 
L 241.731715 336.073485 
L 242.199032 336.013108 
L 242.432691 336.050484 
L 242.666349 335.926856 
L 243.133667 335.371964 
M 245.937569 333.966046 
L 246.872203 334.216178 
L 247.339521 334.037923 
L 247.573179 334.083924 
L 247.806838 333.807916 
L 248.040496 333.888418 
L 248.274155 333.603785 
L 249.208789 333.411154 
L 249.676106 333.149521 
M 254.349277 332.836136 
L 254.582936 332.597504 
L 255.050253 333.10927 
L 255.283912 332.974141 
L 255.984887 333.270275 
L 256.919521 332.95689 
L 257.15318 333.097769 
L 257.386839 331.542347 
L 257.620497 331.194461 
L 257.854156 331.168586 
L 258.087814 330.858076 
L 258.321473 330.803449 
M 263.461961 329.733917 
L 263.69562 329.745417 
L 263.929278 329.383156 
L 264.162937 330.17668 
L 264.396595 330.31756 
L 265.097571 329.808669 
L 265.331229 329.909297 
L 266.032205 329.268153 
L 266.499522 328.36825 
L 266.733181 328.143993 
M 267.434156 328.172744 
L 267.901474 327.936987 
L 268.135132 327.735731 
L 268.368791 328.02324 
L 268.836108 327.315968 
L 269.069766 327.042835 
L 269.303425 327.206715 
L 269.537083 327.172214 
L 269.770742 326.907706 
L 270.471718 327.169339 
L 270.705376 326.870329 
M 276.54684 326.211934 
L 276.780499 325.858299 
L 277.014157 326.111306 
L 277.247816 325.958927 
L 277.481474 325.300532 
L 277.715133 325.257405 
M 284.491231 323.003336 
L 284.72489 323.037837 
L 284.958548 322.865332 
L 285.192207 323.471976 
L 285.425865 323.555353 
L 285.893182 323.897489 
L 286.126841 322.833706 
L 286.3605 322.865332 
L 286.594158 323.210343 
L 286.827817 323.839987 
M 290.099036 318.127188 
L 290.332695 317.894306 
L 290.566354 316.90815 
L 290.800012 316.474012 
M 296.641476 313.584549 
L 296.875135 313.587424 
L 297.108793 314.254445 
L 297.57611 313.090034 
L 297.809769 313.420669 
M 304.352208 314.861088 
L 304.819526 315.243475 
L 305.053184 314.93584 
L 305.520501 314.993342 
L 305.75416 314.826587 
M 312.296599 314.211318 
L 312.530258 314.090565 
L 312.997575 313.210788 
L 313.231234 313.417794 
L 313.464892 312.95203 
L 313.698551 313.337292 
L 313.932209 312.664521 
L 314.165868 313.573049 
L 314.399526 313.351667 
L 315.334161 313.728303 
L 315.567819 308.452518 
L 315.801478 306.954597 
M 316.736112 306.603836 
L 316.969771 305.065664 
M 323.745869 301.15267 
L 323.979527 301.762188 
L 324.213186 303.265859 
L 324.446844 302.196327 
L 324.680503 302.072698 
M 333.092211 296.227645 
L 333.32587 295.894134 
L 333.559528 295.971762 
L 333.793187 295.690003 
M 337.531724 291.860386 
L 337.765382 294.160457 
L 337.999041 293.884448 
L 338.232699 292.80054 
L 338.466358 292.814916 
L 338.700016 291.926513 
L 339.167333 291.754008 
L 339.400992 291.322745 
L 339.634651 291.351496 
L 339.868309 291.199116 
L 340.335626 289.005424 
L 340.569285 288.427532 
L 340.802943 288.401656 
L 341.27026 286.417845 
L 341.737578 286.518473 
M 350.616603 288.456283 
L 350.850261 289.796073 
L 351.08392 289.712696 
L 351.551237 286.426471 
L 351.784896 286.941111 
L 352.018554 286.74273 
L 352.485871 287.182619 
L 352.71953 286.558725 
L 352.953188 286.636352 
L 353.186847 286.570225 
L 353.420505 287.691509 
L 353.654164 286.009583 
L 353.887823 282.237468 
L 354.121481 281.915458 
L 354.35514 281.395067 
L 354.588798 279.497509 
L 354.822457 279.51476 
L 355.056115 279.014495 
M 370.944897 277.473448 
L 371.178556 277.568325 
L 371.645873 279.727516 
L 371.879531 281.032806 
M 375.150751 272.723803 
L 375.38441 272.594424 
L 375.618068 272.105659 
L 376.319044 273.546078 
L 376.552703 272.154535 
L 376.786361 272.111409 
L 377.02002 271.65427 
L 377.253678 271.852651 
M 390.572216 272.936559 
L 390.805875 272.068283 
M 411.601486 305.611931 
L 411.835145 304.898909 
M 412.53612 306.526209 
L 412.769779 304.168637 
M 416.274657 303.645371 
L 416.508316 305.488302 
L 416.741974 303.823626 
M 421.181487 298.642718 
L 421.415146 298.973353 
L 421.648804 298.343709 
M 422.34978 299.608748 
L 422.583438 300.410897 
L 422.817097 300.014135 
M 423.751731 295.724504 
L 423.98539 294.502592 
L 424.219048 294.74985 
M 425.153682 292.29165 
L 425.387341 293.361182 
M 436.369293 304.378518 
L 436.602952 304.861533 
M 437.537586 301.49193 
L 437.771245 300.64953 
M 441.509781 296.681908 
L 441.74344 296.532404 
M 442.210757 298.125203 
L 442.444416 298.096452 
L 442.678074 297.305803 
M 450.622465 296.805537 
L 450.856124 296.972292 
M 456.230271 293.29793 
L 456.463929 293.573939 
M 457.164905 290.327965 
L 457.398563 292.369277 
L 457.86588 290.701726 
M 466.04393 281.009805 
L 466.277588 283.163246 
L 466.511247 283.620385 
L 466.744906 283.11437 
L 466.978564 283.309876 
L 467.212223 282.32372 
L 467.445881 282.32372 
L 467.67954 281.80333 
L 467.913198 280.8373 
M 474.922955 274.26485 
L 475.156614 272.030906 
L 475.390272 272.729553 
L 475.623931 272.651925 
L 475.857589 275.348758 
M 489.877103 259.555901 
L 490.110761 257.514589 
L 490.34442 259.291393 
L 490.578078 262.022726 
L 490.811737 259.577407 
L 491.045396 258.87163 
M 498.055152 237.107216 
L 498.288811 237.314222 
L 498.522469 236.816832 
M 499.690762 238.038745 
L 499.924421 237.521229 
M 502.728323 226.771276 
L 502.961982 226.003627 
M 503.896616 226.828778 
L 504.130275 226.08413 
L 504.363933 223.47355 
L 504.597592 225.842622 
L 505.064909 221.259733 
L 505.298568 221.251107 
L 505.765885 214.201392 
L 506.233202 212.96223 
L 506.46686 214.526277 
L 506.700519 214.923039 
L 506.934177 218.54565 
L 507.167836 211.757568 
L 507.401495 211.725942 
M 513.943934 203.897078 
L 514.177593 201.318124 
M 533.804911 188.814368 
L 534.03857 194.765799 
L 534.272229 193.233378 
L 534.505887 193.937774 
M 542.21662 197.011243 
L 542.450278 195.593825 
L 542.683937 191.677955 
L 542.917595 193.006246 
L 543.151254 197.925521 
L 543.384912 199.164684 
L 543.618571 195.668577 
L 543.852229 194.415039 
L 544.085888 195.294816 
L 544.319547 189.814898 
M 550.628328 179.263327 
L 550.861986 178.797562 
L 551.095645 185.096879 
L 551.329303 186.169287 
L 551.562962 179.524959 
L 551.79662 180.416237 
L 552.030279 182.138414 
L 552.263937 181.563397 
L 552.964913 163.780979 
L 553.43223 162.768948 
L 553.665889 165.207023 
L 553.899547 156.507007 
L 554.133206 156.277 
L 554.366864 150.368695 
L 554.600523 148.166378 
L 554.834182 141.168414 
L 555.06784 140.699775 
L 555.535157 143.698492 
L 555.768816 142.930843 
L 556.002474 138.327828 
L 556.236133 136.10251 
L 556.469791 138.750466 
L 556.70345 138.500333 
M 561.61028 134.466585 
L 561.843938 127.350743 
L 562.077597 129.279927 
M 565.582475 114.053462 
L 565.816134 116.779045 
L 566.049792 114.409973 
M 566.517109 113.892457 
L 566.984427 124.357777 
L 567.218085 115.640511 
M 574.4615 116.399534 
L 574.695159 108.130782 
L 574.928817 105.267194 
L 575.162476 100.954563 
L 575.629793 105.324696 
L 575.863452 105.600704 
L 576.09711 102.51861 
L 576.330769 93.237827 
L 576.564427 91.903787 
L 576.798086 87.76366 
L 577.031745 86.981636 
L 577.265403 89.132202 
L 577.499062 82.358495 
L 577.73272 81.967483 
L 577.966379 76.907329 
L 578.200037 59.070285 
L 578.433696 62.129378 
L 579.36833 39.703694 
L 579.36833 39.703694 
" clip-path="url(#pa24890beb3)" style="fill: none; stroke: #00ff7f; stroke-linecap: square"/>
   </g>
   <g id="line2d_19">
    <path d="M 101.302922 338.724546 
L 101.536581 338.745822 
M 105.976094 338.83932 
L 106.443411 338.778943 
M 126.538047 337.887665 
L 126.771705 337.936542 
M 148.969268 337.847414 
L 149.436585 337.755411 
L 149.903902 337.775537 
L 150.137561 338.022795 
M 157.848293 337.565656 
L 158.31561 337.634658 
M 158.782927 337.686409 
L 159.016586 337.743911 
M 159.717562 337.822919 
L 160.652196 337.893416 
L 161.119513 337.88479 
M 196.401955 336.783632 
L 196.635614 336.823883 
M 203.64537 337.191894 
L 204.346346 337.03664 
L 204.580005 337.06401 
L 204.813663 337.22352 
M 233.553666 333.78779 
L 233.787324 333.931545 
M 234.254641 333.866798 
L 235.189276 333.796416 
L 235.422934 333.641161 
L 235.890251 333.848167 
L 236.12391 334.017797 
L 236.357568 333.868293 
L 236.591227 334.259305 
M 300.613672 309.073536 
L 300.84733 309.223041 
L 301.314647 310.65771 
M 307.623428 312.253384 
L 307.857087 312.535142 
L 308.090745 312.425889 
M 345.943432 282.191466 
L 346.17709 281.745828 
L 346.410749 282.953365 
M 347.345383 281.208186 
L 347.579042 281.530196 
L 347.8127 280.946553 
M 378.188312 267.177758 
L 378.65563 267.091506 
L 378.889288 267.738401 
M 397.348314 262.528742 
L 397.581973 260.130918 
L 397.815631 260.958944 
L 398.04929 260.887067 
L 398.750266 266.91325 
L 398.983924 266.979377 
M 402.488802 284.960176 
L 402.95612 280.615918 
L 403.423437 282.438724 
L 403.657095 282.642855 
L 403.890754 281.857956 
L 404.124412 284.100525 
M 407.629291 296.336898 
L 407.862949 294.436465 
L 408.096608 298.153953 
L 408.330266 297.814693 
M 429.593195 289.761572 
L 430.060512 288.505159 
L 430.294171 288.361405 
L 430.527829 289.586192 
L 430.761488 292.122019 
L 431.228805 291.285369 
L 431.462463 291.437749 
L 431.696122 290.655725 
L 431.929781 290.707476 
L 432.163439 291.616004 
L 432.397098 293.553813 
L 432.630756 293.320931 
L 432.864415 294.393339 
L 433.098073 294.787226 
L 433.331732 297.768692 
L 433.565391 296.736535 
L 433.799049 297.443807 
M 444.781001 292.820666 
L 445.01466 291.958139 
L 445.248318 293.476186 
L 445.481977 292.990296 
M 516.981495 179.720465 
L 517.215154 179.464583 
M 536.608814 167.935481 
L 536.842473 171.264833 
L 537.076131 167.021203 
M 546.656132 157.74042 
L 546.889791 160.325124 
M 571.190281 87.533653 
" clip-path="url(#pa24890beb3)" style="fill: none; stroke: #ff4500; stroke-linecap: square"/>
   </g>
   <g id="line2d_20">
    <path d="M 72.329261 339.736347 
L 73.030237 339.68747 
L 73.263896 339.635719 
L 73.731213 339.795229 
L 73.964871 339.838125 
M 74.432188 339.742097 
L 74.899505 339.693221 
L 75.600481 339.560967 
M 78.871701 339.35396 
L 81.208287 339.118203 
L 81.675604 339.057826 
L 81.909262 339.034825 
L 82.142921 339.18433 
L 82.610238 339.144079 
L 86.348775 339.18433 
L 86.582433 339.057826 
L 87.04975 339.180075 
M 88.218043 339.287833 
L 91.255604 339.141204 
L 91.722922 339.233207 
L 92.423897 339.224581 
M 93.124873 339.181455 
L 95.695117 339.0032 
L 96.396093 339.0262 
M 99.667313 338.975829 
L 100.368288 338.810569 
M 100.835605 338.778943 
L 101.069264 338.764567 
M 101.77024 338.783198 
L 102.237557 338.810569 
L 103.639508 338.85657 
L 104.106825 338.842195 
L 105.742435 338.893946 
M 106.677069 338.767442 
L 109.71463 339.142584 
L 109.948289 338.85082 
L 111.116582 338.67544 
L 111.817557 338.951448 
L 113.453167 338.796193 
L 114.387802 338.876696 
L 114.62146 338.952828 
L 114.855119 338.85082 
L 115.322436 338.980199 
M 116.25707 338.919822 
L 119.294631 338.620813 
L 119.52829 338.796193 
L 120.462924 338.721441 
L 121.631217 338.732941 
M 125.136095 338.333304 
L 125.369754 338.175174 
L 125.837071 338.109047 
L 126.070729 337.925042 
L 126.304388 337.965293 
M 127.005364 337.945167 
L 127.706339 338.065921 
L 128.173656 337.965293 
L 128.874632 338.123423 
L 129.341949 338.057296 
L 129.575608 338.224051 
L 130.276584 338.080296 
L 130.743901 337.985418 
L 131.444876 338.01992 
L 131.912193 338.209675 
L 132.379511 338.175174 
L 132.613169 337.962418 
L 133.547803 338.088922 
L 133.781462 337.902041 
L 134.01512 337.907791 
L 134.482438 338.114797 
L 135.417072 337.988294 
L 136.351706 337.787037 
L 136.819023 337.962418 
L 137.987316 337.968168 
L 138.454633 338.070291 
L 138.688292 338.005544 
L 138.92195 338.134923 
L 139.155609 337.982543 
L 139.622926 338.120548 
M 142.19317 337.86179 
L 143.361463 337.853164 
L 144.062438 337.746786 
L 144.763414 337.723786 
M 145.230731 337.69216 
L 145.698048 337.881915 
L 146.399024 337.973918 
M 146.866341 338.040045 
L 147.800975 337.904916 
L 148.268292 337.991169 
M 150.371219 337.991169 
L 151.072195 338.117673 
L 151.539512 338.229801 
M 153.642439 337.86179 
L 154.343415 337.858915 
M 155.044391 337.775537 
L 155.511708 337.789913 
L 155.979025 337.838789 
L 157.380976 337.719415 
L 157.614635 337.664904 
M 159.250245 337.827289 
L 159.483903 337.902041 
M 161.353172 338.002669 
L 162.287806 338.071671 
L 163.22244 338.170804 
L 163.456099 338.074546 
L 163.689757 338.175174 
M 166.026343 338.067301 
L 166.960977 337.917911 
L 167.194636 337.950917 
L 167.661953 337.611657 
L 168.12927 337.536905 
L 168.362928 337.511029 
M 168.830245 337.568531 
L 169.063904 337.637533 
M 169.998538 337.661914 
L 170.232197 337.525404 
L 170.465855 337.571406 
L 170.933172 337.443522 
L 171.867807 337.295397 
L 172.335124 337.398901 
L 172.568782 337.246521 
L 174.671709 337.762657 
L 174.905368 337.53403 
L 175.372685 337.453527 
L 175.606344 337.350024 
L 177.475612 337.634658 
L 177.709271 337.807163 
L 177.942929 337.822919 
L 178.176588 337.614532 
L 178.643905 337.663409 
L 179.34488 337.689284 
L 180.279515 337.3874 
L 180.746832 337.397521 
M 183.784393 336.913011 
L 186.821954 336.875635 
L 187.055613 336.752006 
L 187.52293 336.823883 
L 187.756589 336.713135 
L 188.457564 336.798007 
L 188.924881 336.639877 
L 189.15854 336.749131 
L 189.625857 336.576626 
L 190.093174 336.88426 
M 190.79415 337.177519 
L 191.027808 337.151643 
L 191.261467 337.308278 
L 191.728784 337.269522 
L 192.196101 337.039515 
L 192.663418 336.848379 
L 192.897077 336.780757 
L 193.364394 336.89576 
L 193.598052 336.818133 
L 194.766345 336.910136 
L 195.934638 336.959012 
L 196.168297 336.943142 
M 196.869272 336.990638 
L 197.336589 336.858384 
M 198.037565 337.335649 
L 199.205858 337.275272 
L 200.140492 337.3644 
L 200.374151 337.045265 
L 201.075126 336.89001 
L 201.542443 337.085516 
L 202.009761 336.924511 
L 202.243419 337.071141 
M 202.710736 337.151643 
L 202.944395 337.085516 
L 203.178053 337.255146 
L 203.411712 337.266647 
M 205.047322 337.283897 
L 205.28098 337.237896 
L 205.981956 337.542655 
L 206.449273 337.453527 
L 207.383907 337.743911 
L 207.851224 337.608782 
L 208.785859 337.554155 
M 211.122444 337.588656 
L 211.82342 337.407526 
L 212.057078 337.444902 
L 212.290737 336.717505 
L 212.524396 336.487498 
L 214.160005 336.71463 
L 214.860981 337.37015 
L 215.09464 337.493778 
L 215.561957 336.818133 
L 216.029274 336.861259 
L 216.262932 337.125767 
L 216.496591 336.938887 
L 216.73025 336.921636 
M 222.571714 335.829103 
L 222.805372 335.7486 
M 223.272689 335.458216 
L 223.740006 335.314462 
M 224.440982 335.443841 
L 224.674641 335.159207 
L 225.141958 335.141957 
L 225.609275 335.08158 
L 225.842933 335.366214 
L 226.31025 335.072955 
L 226.777568 335.265586 
M 227.244885 334.253555 
L 227.478543 334.293806 
L 227.712202 334.466311 
M 229.114153 334.403059 
L 230.749763 334.204678 
L 230.983422 333.908544 
L 231.450739 334.000547 
L 231.684397 333.621035 
L 231.918056 333.805041 
L 232.151714 333.675662 
L 232.385373 333.920044 
L 232.619031 333.842417 
L 232.85269 333.983296 
L 233.320007 333.845292 
M 236.824885 334.618691 
L 237.058544 334.805571 
L 237.292203 334.791196 
L 237.525861 334.647442 
L 238.226837 335.530094 
L 238.927813 335.331713 
M 239.39513 335.153457 
L 239.628788 335.072955 
L 240.096105 335.259835 
L 240.329764 334.903324 
L 240.563422 334.900449 
L 240.797081 335.25696 
L 241.264398 335.213834 
M 243.367325 334.687693 
L 243.600984 334.572689 
L 243.834642 334.26218 
L 244.769276 334.216178 
M 245.236594 333.908544 
L 245.470252 333.853917 
L 245.703911 333.937295 
M 249.909765 333.043143 
L 250.143423 333.080519 
L 250.377082 332.931014 
L 250.844399 333.046018 
L 251.078057 333.031642 
M 251.545375 333.071894 
L 252.012692 333.020142 
L 252.24635 332.761384 
L 252.947326 332.695257 
L 253.180984 332.885013 
L 253.648302 332.856262 
L 254.115619 332.844762 
M 258.555131 330.579193 
L 258.78879 330.559067 
L 259.022448 330.283059 
L 259.256107 330.337685 
L 260.4244 329.771293 
L 260.891717 330.030051 
L 261.359034 330.047301 
L 261.592693 329.702291 
L 261.826351 330.041551 
L 262.06001 329.871921 
L 262.293668 329.846045 
L 262.760985 329.653414 
L 262.994644 329.892047 
L 263.228302 329.650539 
M 266.966839 328.149743 
L 267.200498 327.994489 
M 270.939035 326.591446 
L 271.406352 326.393065 
L 271.64001 326.502318 
L 271.873669 326.160183 
L 272.107328 325.199903 
L 272.574645 325.326407 
L 272.808303 325.743295 
L 273.041962 325.470162 
L 273.742938 325.23728 
L 274.210255 325.634042 
L 274.443913 325.490287 
L 274.91123 325.605291 
L 275.144889 325.688668 
L 275.378547 325.168277 
L 275.612206 325.346533 
L 275.845865 325.176903 
L 276.079523 325.444286 
L 276.313182 325.314907 
M 278.416109 324.676637 
L 278.883426 324.650762 
L 279.117084 324.826142 
L 279.350743 324.193623 
L 279.81806 323.946365 
L 280.051719 323.624355 
L 280.752694 323.707733 
M 281.220011 324.104495 
L 281.45367 324.032618 
M 281.920987 324.225249 
L 282.154646 324.535758 
L 282.388304 324.351753 
L 282.621963 324.461006 
L 282.855621 324.173497 
L 283.08928 324.213748 
L 283.322938 323.851487 
L 283.556597 323.906114 
M 284.023914 322.661201 
L 284.257573 322.577823 
M 287.061475 318.03231 
L 287.295134 319.277223 
L 287.528792 318.544075 
L 287.762451 316.980028 
L 288.229768 316.482638 
L 288.463427 316.591891 
L 288.930744 316.307257 
L 289.398061 316.267006 
L 289.865378 316.816148 
M 291.500988 316.925401 
L 291.734646 317.566546 
L 291.968305 317.112282 
L 292.201964 315.594235 
L 292.669281 314.455701 
L 292.902939 314.10494 
L 293.136598 313.087159 
L 293.370256 312.897403 
L 293.603915 312.529392 
L 293.837573 311.761744 
L 294.071232 309.593927 
L 294.304891 311.914123 
L 294.538549 311.287354 
L 295.005866 313.995687 
L 295.239525 313.311416 
L 295.473183 314.073314 
L 295.706842 313.682302 
L 295.9405 312.480515 
L 296.407818 313.090034 
M 298.043427 313.11016 
L 298.277086 312.46614 
L 298.510745 312.333886 
L 298.978062 311.189601 
L 299.445379 311.934249 
L 299.679037 310.562832 
M 300.146354 310.439203 
L 300.380013 309.596802 
M 301.548306 312.164256 
L 302.015623 311.986 
L 302.249281 312.489141 
L 302.48294 312.494891 
L 302.716599 311.390857 
L 302.950257 311.479985 
L 303.183916 314.4327 
L 303.417574 314.153816 
L 303.651233 313.305666 
M 305.987818 314.041688 
L 306.221477 314.061814 
L 306.688794 313.478171 
L 306.922453 312.828401 
M 308.324404 312.201632 
L 308.791721 312.463265 
L 309.02538 311.870997 
L 309.492697 312.164256 
L 309.726355 314.349322 
L 309.960014 314.564954 
L 310.193672 314.355073 
L 310.427331 314.478701 
M 310.894648 315.114096 
L 311.128307 315.346978 
M 311.595624 314.794961 
L 312.062941 314.665582 
M 316.035136 306.55496 
L 316.268795 304.709153 
L 316.502453 303.990381 
M 317.203429 304.223264 
L 317.437088 303.389488 
L 317.670746 303.92713 
L 317.904405 303.484366 
L 318.138063 303.573494 
L 318.60538 301.673061 
L 318.839039 301.822565 
L 319.072698 301.81969 
L 319.306356 302.026697 
L 319.540015 300.770283 
L 319.773673 300.962914 
L 320.007332 300.451148 
L 320.24099 297.340304 
L 320.474649 300.313144 
L 320.708307 300.206766 
L 320.941966 299.795628 
L 321.409283 299.516745 
L 321.642942 299.732377 
L 321.8766 298.093577 
L 322.110259 298.159704 
L 322.343917 297.475433 
L 322.577576 297.791692 
L 322.811234 299.096982 
L 323.044893 299.579997 
L 323.278552 301.181421 
L 323.51221 299.695 
M 324.914161 301.129669 
L 325.14782 299.134358 
L 325.381479 298.507589 
L 325.615137 296.601406 
L 325.848796 297.141923 
L 326.082454 295.899885 
L 326.316113 296.101141 
L 326.549771 295.609501 
L 326.78343 295.856758 
L 327.017089 295.166737 
L 327.250747 294.994232 
L 327.484406 295.554874 
L 327.718064 295.784881 
L 327.951723 295.235739 
L 328.185381 296.822788 
L 328.41904 296.06089 
L 328.652698 296.601406 
L 328.886357 296.032139 
L 329.120016 296.06089 
L 329.353674 295.459996 
L 329.587333 295.250115 
L 329.820991 293.77232 
L 330.05465 294.361713 
L 330.288308 293.841322 
L 330.755625 298.484588 
L 330.989284 294.907979 
L 331.456601 295.842383 
L 331.69026 296.900415 
L 331.923918 296.89179 
L 332.157577 297.567435 
L 332.624894 295.655502 
L 332.858552 295.830883 
M 334.026845 294.60897 
L 334.260504 294.315711 
L 334.494162 295.623876 
L 334.727821 295.652627 
L 334.961479 295.431245 
L 335.195138 296.262146 
L 335.428797 294.735474 
L 335.896114 294.341587 
L 336.129772 294.620471 
L 336.597089 289.402186 
L 336.830748 289.459688 
L 337.064406 289.893826 
L 337.298065 291.354371 
M 341.971236 286.455222 
L 342.204895 286.713979 
M 343.139529 287.061865 
L 343.373187 285.287936 
L 344.074163 283.752639 
L 344.307822 284.1149 
L 344.54148 283.324251 
L 344.775139 283.053993 
L 345.008797 282.363972 
L 345.476115 284.293156 
L 345.709773 281.182311 
M 346.644407 282.484725 
L 346.878066 282.556603 
L 347.111724 281.774579 
M 348.046359 281.757328 
L 348.280017 282.743483 
L 348.513676 286.851984 
L 348.747334 285.618571 
L 348.980993 286.489723 
L 349.214651 289.658069 
L 349.681969 288.910546 
L 349.915627 288.125647 
L 350.149286 288.269402 
L 350.382944 287.357999 
M 355.289774 278.899491 
L 355.523432 279.215751 
L 355.757091 280.040901 
L 355.99075 278.715485 
L 356.224408 278.795988 
L 356.925384 274.635736 
L 357.159042 275.529888 
L 357.392701 275.371758 
L 357.626359 273.364947 
L 357.860018 272.352916 
L 358.093677 273.540328 
L 358.327335 272.654801 
L 358.794652 276.185408 
L 359.028311 281.883832 
L 359.261969 278.468228 
L 359.495628 277.54245 
L 359.729286 280.785549 
L 359.962945 276.599421 
L 360.196604 277.763831 
L 360.430262 276.441291 
L 360.897579 272.453544 
L 361.131238 273.218318 
L 361.364896 271.711772 
L 361.598555 273.888213 
L 361.832214 273.704208 
L 362.065872 272.617424 
L 362.299531 272.430544 
L 362.533189 272.580048 
L 362.766848 273.747334 
L 363.000506 276.562045 
L 363.234165 275.317132 
L 363.467823 275.573015 
L 363.701482 273.701332 
L 364.168799 273.983091 
L 364.636116 271.516266 
L 364.869775 272.105659 
L 365.57075 271.309259 
L 365.804409 274.034843 
L 366.038068 271.568017 
L 366.271726 271.861276 
L 366.739043 276.343538 
L 366.972702 273.034312 
L 367.20636 278.485478 
L 367.440019 279.68439 
L 367.673677 276.7403 
L 367.907336 279.770643 
L 368.140995 278.534355 
L 368.374653 278.278472 
L 368.84197 281.725702 
L 369.075629 281.392192 
L 369.309287 277.798332 
L 369.542946 278.278472 
L 369.776604 275.874899 
L 370.010263 276.766176 
L 370.243922 276.769051 
L 370.47758 275.029623 
L 370.711239 275.366008 
M 372.11319 278.571731 
L 372.346849 278.252596 
L 372.580507 278.663734 
L 372.814166 278.019714 
L 373.047824 278.258346 
L 373.982458 271.33226 
L 374.449776 268.5348 
L 374.683434 270.144849 
L 374.917093 269.906217 
M 377.487337 270.587612 
L 377.720995 270.817619 
L 377.954654 269.256447 
M 379.590264 267.830403 
L 379.823922 267.882155 
L 380.057581 266.58549 
L 380.29124 267.05988 
L 380.524898 267.108756 
L 380.758557 268.523299 
L 380.992215 267.908031 
L 381.459532 271.17413 
L 381.693191 274.575359 
L 381.926849 273.750209 
L 382.160508 275.552889 
L 382.394167 274.075094 
L 382.627825 275.213629 
L 382.861484 273.678332 
L 383.095142 275.230879 
L 383.562459 272.214912 
L 383.796118 271.662895 
L 384.029776 270.51286 
L 384.263435 272.15741 
L 384.497094 271.093628 
L 384.964411 271.964779 
L 385.198069 270.386356 
L 385.431728 270.958499 
L 385.665386 270.863621 
L 386.366362 271.81815 
L 386.833679 270.055721 
L 387.067338 270.866496 
L 387.300996 273.13494 
L 387.534655 272.925059 
L 387.768313 272.46217 
L 388.001972 271.269008 
L 388.469289 270.288603 
L 388.702948 269.449078 
L 388.936606 269.02644 
L 389.403923 270.070097 
L 389.637582 269.68771 
L 389.87124 268.161038 
L 390.338557 269.308198 
M 391.039533 270.492735 
L 391.273192 267.761401 
L 391.974167 264.000787 
L 392.207826 264.4378 
L 392.441484 263.256139 
L 392.675143 263.451645 
L 393.14246 261.758218 
L 393.609777 264.915064 
L 393.843436 265.162322 
L 394.077094 264.337172 
L 394.310753 264.892064 
L 394.544411 266.214604 
L 394.77807 265.311827 
L 395.011729 263.848407 
L 395.479046 265.403829 
L 395.712704 265.127821 
L 395.946363 266.766621 
L 396.180021 267.580271 
L 396.647338 266.154227 
L 396.880997 266.582615 
L 397.114656 266.444611 
M 399.217583 272.686426 
L 399.451241 275.722519 
L 399.6849 272.442044 
L 399.918558 275.650642 
L 400.152217 272.646175 
L 400.619534 274.457481 
L 400.853193 277.436071 
L 401.086851 276.846678 
L 401.32051 279.767767 
L 401.554168 285.992332 
L 401.787827 283.568633 
L 402.255144 289.957078 
M 404.358071 284.192527 
L 404.591729 288.830044 
L 404.825388 286.021083 
L 405.059047 286.630602 
M 405.526364 296.049389 
L 405.760022 301.721937 
L 405.993681 300.462649 
L 406.227339 301.719062 
L 406.460998 301.635685 
L 406.694656 299.321239 
L 406.928315 299.125733 
L 407.161974 297.302927 
L 407.395632 298.082076 
M 409.498559 300.517275 
L 409.965876 302.043947 
L 410.199535 301.077918 
L 410.433193 303.501617 
L 410.666852 304.482021 
L 410.90051 306.071945 
M 412.068803 304.942035 
L 412.302462 304.160012 
M 413.003437 302.095699 
L 413.237096 303.122105 
L 414.17173 300.071637 
L 414.639047 300.531651 
L 414.872706 299.703626 
L 415.106365 298.205705 
L 415.340023 300.551777 
L 415.573682 300.402272 
L 415.80734 297.944072 
L 416.040999 297.279927 
M 417.44295 300.433898 
L 417.676609 300.212516 
L 417.910267 299.335614 
L 418.143926 300.939913 
L 418.377584 300.724282 
L 418.611243 301.218797 
L 418.844901 299.861755 
L 419.312219 298.895726 
L 419.545877 298.087826 
L 419.779536 298.289083 
L 420.013194 297.739941 
L 420.246853 298.539215 
L 420.480511 297.555935 
L 420.71417 297.69969 
L 420.947828 298.156828 
M 421.882463 298.248831 
L 422.116121 298.323584 
M 423.050755 296.995293 
L 423.284414 296.598531 
L 423.518073 294.844727 
M 424.452707 292.80629 
L 424.686365 293.182927 
L 424.920024 290.440093 
M 425.621 292.47278 
L 425.854658 292.579158 
L 426.088317 292.363527 
L 426.555634 290.917358 
L 426.789292 290.710351 
L 427.022951 289.094552 
L 427.256609 289.198055 
L 427.490268 288.424657 
L 427.723927 288.183149 
L 427.957585 288.910546 
L 428.191244 288.094021 
L 428.424902 288.255026 
L 428.658561 288.694915 
L 428.892219 290.221586 
M 434.032708 297.268426 
L 434.500025 299.695 
L 434.733683 298.743346 
L 434.967342 299.565621 
L 435.201 300.968664 
L 436.135635 303.329111 
M 436.83661 302.210702 
L 437.070269 302.705217 
L 437.303927 301.986445 
M 438.939537 301.627059 
L 439.173196 299.370115 
L 439.406854 299.301113 
L 439.640513 299.019355 
M 440.575147 297.53581 
L 440.808806 296.3944 
L 441.042464 296.106891 
L 441.276123 295.549124 
M 442.911733 295.517498 
L 443.145391 295.135111 
L 443.612708 295.287491 
L 443.846367 294.531343 
L 444.080026 294.396214 
L 444.313684 294.896479 
L 444.547343 294.068454 
M 445.715635 293.062173 
L 445.949294 292.881043 
L 446.416611 295.90851 
L 446.65027 296.980918 
L 446.883928 299.971009 
L 447.351245 299.079732 
L 447.584904 297.823318 
L 448.052221 299.781253 
L 448.28588 298.458713 
L 448.519538 300.178015 
M 448.986855 297.449557 
L 449.220514 294.223708 
L 449.454172 295.060359 
L 449.687831 294.09433 
L 449.921489 294.022452 
M 451.089782 295.310492 
L 451.323441 295.163862 
L 451.557099 296.124141 
L 451.790758 294.804476 
L 452.024417 291.64763 
L 452.258075 291.961014 
L 452.959051 290.327965 
L 453.192709 290.345215 
L 453.660026 291.512501 
L 453.893685 291.265243 
L 454.127344 291.578628 
L 454.594661 293.674567 
L 454.828319 293.056423 
L 455.061978 293.720568 
L 455.295636 292.081768 
L 455.529295 292.337651 
M 456.697588 291.196241 
L 456.931246 291.006485 
M 458.099539 289.8507 
L 458.333198 289.695445 
L 458.566856 286.866359 
M 459.50149 286.969862 
L 459.735149 287.084866 
M 460.202466 286.72548 
L 460.436125 284.517412 
L 460.669783 283.870518 
L 460.903442 284.983177 
L 461.1371 284.960176 
L 461.370759 285.529443 
L 461.604417 285.078054 
L 461.838076 282.80386 
L 462.071734 283.059743 
L 462.305393 283.62901 
L 462.539052 283.424879 
L 462.77271 283.585884 
L 463.006369 283.47088 
L 463.240027 283.059743 
L 463.473686 283.358752 
L 463.707344 283.007991 
L 463.941003 284.61804 
L 464.174661 282.292095 
L 464.40832 283.525507 
L 464.641979 282.608354 
L 464.875637 282.895863 
L 465.109296 282.691732 
L 465.342954 279.724641 
L 465.576613 280.935053 
L 465.810271 280.578542 
M 468.146857 278.902366 
L 468.380515 278.925367 
L 468.614174 278.591857 
L 468.847833 277.689079 
L 469.081491 277.338318 
L 469.548808 274.503482 
L 470.016125 274.719113 
L 470.249784 274.555233 
L 470.483443 275.222254 
M 470.95076 275.673643 
L 471.184418 274.348227 
M 471.651735 275.167627 
L 471.885394 274.342477 
L 472.119052 274.213098 
L 472.352711 273.454075 
L 472.58637 273.080313 
L 472.820028 270.877996 
L 473.053687 272.229288 
L 473.287345 272.720928 
L 473.521004 271.754898 
L 473.754662 271.65427 
L 473.988321 272.039532 
L 474.455638 270.624989 
L 474.689297 271.309259 
M 476.091248 274.227473 
L 476.558565 271.228757 
L 476.792224 270.226731 
L 477.025882 270.990125 
L 477.259541 267.718275 
L 477.726858 264.966816 
L 477.960516 265.472831 
L 478.194175 260.00729 
L 478.427833 258.05798 
L 478.661492 252.845446 
L 478.895151 254.570499 
L 479.596126 267.982783 
L 479.829785 266.372734 
L 480.063443 270.699741 
L 480.297102 265.676963 
L 480.53076 263.848407 
L 480.764419 266.878749 
L 480.998078 261.525336 
L 481.465395 266.835623 
L 481.699053 272.758304 
L 481.932712 268.261666 
L 482.16637 272.46217 
L 482.400029 281.133434 
L 482.633687 274.080844 
L 482.867346 286.857734 
L 483.101005 280.857426 
L 483.334663 285.011927 
L 483.568322 282.093713 
L 483.80198 284.169527 
L 484.035639 282.174216 
L 484.269297 271.683021 
L 484.502956 272.706552 
L 484.736614 269.3657 
L 484.970273 270.662365 
L 485.203932 266.965002 
L 485.43759 267.537144 
L 485.671249 273.439699 
L 485.904907 269.874591 
L 486.138566 273.198192 
L 486.372224 266.157102 
L 486.605883 268.851059 
L 486.839542 266.57399 
L 487.0732 267.724025 
L 487.306859 265.740215 
L 487.540517 261.686341 
L 487.774176 262.580493 
L 488.007834 258.595622 
L 488.241493 259.279892 
L 488.475151 260.795064 
M 488.942469 261.053822 
L 489.176127 261.66909 
L 489.643444 257.911351 
M 491.279054 257.70722 
L 491.746371 253.477966 
L 491.98003 250.568377 
L 492.213688 253.592969 
L 492.447347 253.851727 
L 492.681005 250.970889 
L 493.148323 242.693512 
L 493.381981 242.058117 
L 493.61564 240.166309 
L 493.849298 242.406003 
L 494.082957 239.519415 
L 494.550274 245.28109 
L 494.783932 245.720979 
L 495.017591 241.253093 
L 495.25125 242.049492 
L 495.484908 241.830985 
L 495.718567 242.47213 
L 495.952225 242.506631 
L 496.185884 240.741327 
L 496.419542 242.063867 
L 496.886859 235.603545 
L 497.120518 242.164495 
L 497.354177 240.597573 
L 497.587835 237.823113 
L 497.821494 239.033525 
M 498.756128 233.763489 
L 498.989786 234.646141 
L 499.223445 237.112966 
L 499.457104 234.186127 
M 500.158079 234.096999 
L 500.391738 233.726113 
L 500.625396 232.780209 
L 500.859055 230.169629 
L 501.092713 229.795868 
L 501.560031 222.467269 
L 501.793689 222.809405 
L 502.027348 227.720055 
L 502.261006 223.985316 
L 502.494665 225.707493 
M 503.19564 222.447144 
L 503.429299 224.543083 
L 503.662958 223.275169 
M 507.635153 210.334399 
L 507.868812 201.444628 
L 508.10247 202.32153 
L 508.336129 203.727448 
L 508.569787 203.698697 
L 508.803446 197.459757 
L 509.270763 196.694983 
L 509.504422 196.430475 
L 509.73808 198.095151 
L 509.971739 192.120719 
L 510.205397 189.513014 
L 510.672714 178.334673 
L 510.906373 193.64164 
L 511.140031 198.161278 
L 511.37369 206.320777 
L 511.607349 197.097496 
L 511.841007 201.735012 
L 512.074666 203.428439 
L 512.308324 195.289065 
L 512.541983 193.923399 
L 512.775641 199.403316 
L 513.0093 199.989834 
M 513.476617 199.37169 
L 513.710276 197.985898 
M 514.411251 195.271815 
L 514.878568 191.223691 
L 515.112227 187.718959 
L 515.345885 186.75293 
L 515.579544 193.103999 
L 515.813203 186.43092 
L 516.046861 185.349887 
L 516.28052 182.733557 
L 516.747837 185.048003 
M 517.448812 181.224136 
L 517.91613 184.487361 
L 518.149788 188.095596 
L 518.383447 186.396419 
L 518.850764 189.668269 
L 519.084422 187.031813 
L 519.318081 192.195471 
L 519.551739 189.257131 
L 519.785398 198.109526 
L 520.019057 193.543887 
L 520.252715 199.179059 
L 520.486374 198.641418 
L 520.720032 193.595639 
L 520.953691 184.685742 
L 521.421008 175.856348 
L 521.888325 196.464976 
L 522.121984 189.012749 
L 522.355642 188.56711 
L 522.589301 190.404291 
L 522.822959 187.89434 
L 523.056618 188.963872 
L 523.523935 188.756866 
L 523.757594 192.81074 
L 523.991252 192.209846 
L 524.224911 194.305785 
L 524.458569 191.120188 
L 524.692228 190.815429 
L 524.925886 189.202505 
L 525.159545 189.334759 
L 525.393203 187.557955 
L 525.626862 189.265757 
L 525.860521 187.399825 
L 526.094179 186.842058 
L 526.327838 189.794773 
L 526.561496 194.616295 
L 527.028813 193.667516 
L 527.262472 190.269162 
L 527.49613 189.674019 
L 527.729789 191.03106 
L 527.963448 189.895401 
L 528.197106 190.6918 
L 528.430765 189.998904 
L 528.664423 190.619923 
L 528.898082 193.713517 
L 529.13174 193.891773 
L 529.365399 194.969931 
L 529.599057 194.47254 
L 529.832716 192.143719 
L 530.066375 193.187376 
L 530.300033 192.514606 
L 530.533692 189.165129 
L 530.76735 198.253281 
L 531.001009 189.863775 
L 531.234667 190.637173 
L 531.468326 186.672428 
L 531.701984 188.245101 
L 531.935643 187.704584 
L 532.40296 195.435695 
L 532.636619 193.529512 
L 533.103936 183.843341 
M 534.739546 191.094312 
L 534.973204 187.417075 
L 535.206863 187.718959 
L 535.440521 186.180788 
L 535.67418 187.023188 
L 535.907838 177.273766 
L 536.141497 179.292077 
L 536.375156 173.530402 
M 537.30979 171.900227 
L 537.543448 172.785754 
L 537.777107 171.66447 
L 538.010765 178.228295 
L 538.244424 180.686495 
L 538.478083 176.58087 
L 538.711741 190.283538 
L 538.9454 185.602895 
L 539.179058 184.139475 
L 539.880034 201.062242 
L 540.113693 200.012834 
L 540.347351 209.998014 
L 540.58101 199.337189 
L 540.814668 199.935207 
L 541.048327 193.894648 
L 541.281985 195.475946 
L 541.515644 191.620453 
L 541.749302 190.470418 
L 541.982961 189.895401 
M 544.553205 184.484486 
L 544.786864 182.463299 
L 545.020522 183.912343 
L 545.487839 178.673934 
L 545.721498 177.719404 
L 546.188815 163.004706 
L 546.422474 167.633597 
M 547.123449 166.658942 
L 547.357108 168.849759 
L 547.590766 166.673317 
L 547.824425 172.541371 
M 548.291742 165.322026 
L 548.759059 167.636472 
L 548.992718 167.084455 
L 549.693693 178.280047 
L 550.16101 176.304861 
L 550.394669 172.978385 
M 556.937109 128.759536 
L 557.170767 128.972292 
M 557.638084 126.120205 
L 558.105401 122.454469 
L 558.33906 124.46128 
L 558.572719 113.489945 
L 558.806377 113.009805 
L 559.040036 113.288689 
L 559.741011 105.284445 
L 560.208328 114.435849 
L 560.441987 112.739547 
L 560.675646 107.42351 
L 560.909304 110.442352 
L 561.142963 115.140245 
L 561.376621 125.205927 
M 562.311255 120.102647 
L 562.544914 117.986582 
L 562.778573 118.400595 
L 563.012231 121.436687 
L 563.24589 122.425718 
L 563.713207 117.204558 
L 563.946865 119.079116 
L 564.180524 116.192527 
L 564.414182 115.445005 
L 564.8815 105.991716 
L 565.115158 109.108311 
L 565.348817 109.924836 
M 567.451744 103.933153 
L 567.685402 90.799753 
L 567.919061 92.697311 
L 568.152719 87.867163 
L 568.386378 89.534714 
L 568.620036 83.002515 
M 569.087354 85.889103 
L 569.321012 85.245083 
L 569.554671 85.762599 
L 569.788329 80.621942 
L 570.021988 82.703506 
L 570.255646 86.418119 
L 570.489305 88.281176 
L 570.722963 84.81957 
L 570.956622 88.568685 
M 571.423939 86.395118 
L 571.657598 87.533653 
L 571.891256 91.466773 
L 572.124915 100.517549 
L 572.358573 98.988003 
L 572.82589 84.773569 
L 573.293208 94.226857 
L 573.526866 105.278695 
L 573.760525 107.371758 
L 573.994183 105.083189 
L 574.227842 104.784179 
M 579.601989 37.438125 
" clip-path="url(#pa24890beb3)" style="fill: none; stroke: #1e90ff; stroke-linecap: square"/>
   </g>
   <g id="patch_3">
    <path d="M 46.965625 354.958125 
L 46.965625 22.318125 
" style="fill: none; stroke: #000000; stroke-width: 0.8; stroke-linejoin: miter; stroke-linecap: square"/>
   </g>
   <g id="patch_4">
    <path d="M 604.965625 354.958125 
L 604.965625 22.318125 
" style="fill: none; stroke: #000000; stroke-width: 0.8; stroke-linejoin: miter; stroke-linecap: square"/>
   </g>
   <g id="patch_5">
    <path d="M 46.965625 354.958125 
L 604.965625 354.958125 
" style="fill: none; stroke: #000000; stroke-width: 0.8; stroke-linejoin: miter; stroke-linecap: square"/>
   </g>
   <g id="patch_6">
    <path d="M 46.965625 22.318125 
L 604.965625 22.318125 
" style="fill: none; stroke: #000000; stroke-width: 0.8; stroke-linejoin: miter; stroke-linecap: square"/>
   </g>
   <g id="text_14">
    <!-- NVDA, Relative Strength Index (RSI), NVDA -->
    <g transform="translate(197.095 16.318125)scale(0.12 -0.12)">
     <defs>
      <path id="DejaVuSans-4e" d="M 628 4666 
L 1478 4666 
L 3547 763 
L 3547 4666 
L 4159 4666 
L 4159 0 
L 3309 0 
L 1241 3903 
L 1241 0 
L 628 0 
L 628 4666 
z
" transform="scale(0.015625)"/>
      <path id="DejaVuSans-56" d="M 1831 0 
L 50 4666 
L 709 4666 
L 2188 738 
L 3669 4666 
L 4325 4666 
L 2547 0 
L 1831 0 
z
" transform="scale(0.015625)"/>
      <path id="DejaVuSans-41" d="M 2188 4044 
L 1331 1722 
L 3047 1722 
L 2188 4044 
z
M 1831 4666 
L 2547 4666 
L 4325 0 
L 3669 0 
L 3244 1197 
L 1141 1197 
L 716 0 
L 50 0 
L 1831 4666 
z
" transform="scale(0.015625)"/>
      <path id="DejaVuSans-2c" d="M 750 794 
L 1409 794 
L 1409 256 
L 897 -744 
L 494 -744 
L 750 256 
L 750 794 
z
" transform="scale(0.015625)"/>
      <path id="DejaVuSans-52" d="M 2841 2188 
Q 3044 2119 3236 1894 
Q 3428 1669 3622 1275 
L 4263 0 
L 3584 0 
L 2988 1197 
Q 2756 1666 2539 1819 
Q 2322 1972 1947 1972 
L 1259 1972 
L 1259 0 
L 628 0 
L 628 4666 
L 2053 4666 
Q 2853 4666 3247 4331 
Q 3641 3997 3641 3322 
Q 3641 2881 3436 2590 
Q 3231 2300 2841 2188 
z
M 1259 4147 
L 1259 2491 
L 2053 2491 
Q 2509 2491 2742 2702 
Q 2975 2913 2975 3322 
Q 2975 3731 2742 3939 
Q 2509 4147 2053 4147 
L 1259 4147 
z
" transform="scale(0.015625)"/>
      <path id="DejaVuSans-6c" d="M 603 4863 
L 1178 4863 
L 1178 0 
L 603 0 
L 603 4863 
z
" transform="scale(0.015625)"/>
      <path id="DejaVuSans-76" d="M 191 3500 
L 800 3500 
L 1894 563 
L 2988 3500 
L 3597 3500 
L 2284 0 
L 1503 0 
L 191 3500 
z
" transform="scale(0.015625)"/>
      <path id="DejaVuSans-6e" d="M 3513 2113 
L 3513 0 
L 2938 0 
L 2938 2094 
Q 2938 2591 2744 2837 
Q 2550 3084 2163 3084 
Q 1697 3084 1428 2787 
Q 1159 2491 1159 1978 
L 1159 0 
L 581 0 
L 581 3500 
L 1159 3500 
L 1159 2956 
Q 1366 3272 1645 3428 
Q 1925 3584 2291 3584 
Q 2894 3584 3203 3211 
Q 3513 2838 3513 2113 
z
" transform="scale(0.015625)"/>
      <path id="DejaVuSans-67" d="M 2906 1791 
Q 2906 2416 2648 2759 
Q 2391 3103 1925 3103 
Q 1463 3103 1205 2759 
Q 947 2416 947 1791 
Q 947 1169 1205 825 
Q 1463 481 1925 481 
Q 2391 481 2648 825 
Q 2906 1169 2906 1791 
z
M 3481 434 
Q 3481 -459 3084 -895 
Q 2688 -1331 1869 -1331 
Q 1566 -1331 1297 -1286 
Q 1028 -1241 775 -1147 
L 775 -588 
Q 1028 -725 1275 -790 
Q 1522 -856 1778 -856 
Q 2344 -856 2625 -561 
Q 2906 -266 2906 331 
L 2906 616 
Q 2728 306 2450 153 
Q 2172 0 1784 0 
Q 1141 0 747 490 
Q 353 981 353 1791 
Q 353 2603 747 3093 
Q 1141 3584 1784 3584 
Q 2172 3584 2450 3431 
Q 2728 3278 2906 2969 
L 2906 3500 
L 3481 3500 
L 3481 434 
z
" transform="scale(0.015625)"/>
      <path id="DejaVuSans-68" d="M 3513 2113 
L 3513 0 
L 2938 0 
L 2938 2094 
Q 2938 2591 2744 2837 
Q 2550 3084 2163 3084 
Q 1697 3084 1428 2787 
Q 1159 2491 1159 1978 
L 1159 0 
L 581 0 
L 581 4863 
L 1159 4863 
L 1159 2956 
Q 1366 3272 1645 3428 
Q 1925 3584 2291 3584 
Q 2894 3584 3203 3211 
Q 3513 2838 3513 2113 
z
" transform="scale(0.015625)"/>
      <path id="DejaVuSans-49" d="M 628 4666 
L 1259 4666 
L 1259 0 
L 628 0 
L 628 4666 
z
" transform="scale(0.015625)"/>
      <path id="DejaVuSans-64" d="M 2906 2969 
L 2906 4863 
L 3481 4863 
L 3481 0 
L 2906 0 
L 2906 525 
Q 2725 213 2448 61 
Q 2172 -91 1784 -91 
Q 1150 -91 751 415 
Q 353 922 353 1747 
Q 353 2572 751 3078 
Q 1150 3584 1784 3584 
Q 2172 3584 2448 3432 
Q 2725 3281 2906 2969 
z
M 947 1747 
Q 947 1113 1208 752 
Q 1469 391 1925 391 
Q 2381 391 2643 752 
Q 2906 1113 2906 1747 
Q 2906 2381 2643 2742 
Q 2381 3103 1925 3103 
Q 1469 3103 1208 2742 
Q 947 2381 947 1747 
z
" transform="scale(0.015625)"/>
      <path id="DejaVuSans-78" d="M 3513 3500 
L 2247 1797 
L 3578 0 
L 2900 0 
L 1881 1375 
L 863 0 
L 184 0 
L 1544 1831 
L 300 3500 
L 978 3500 
L 1906 2253 
L 2834 3500 
L 3513 3500 
z
" transform="scale(0.015625)"/>
     </defs>
     <use xlink:href="#DejaVuSans-4e"/>
     <use xlink:href="#DejaVuSans-56" x="74.804688"/>
     <use xlink:href="#DejaVuSans-44" x="143.212891"/>
     <use xlink:href="#DejaVuSans-41" x="218.464844"/>
     <use xlink:href="#DejaVuSans-2c" x="286.873047"/>
     <use xlink:href="#DejaVuSans-20" x="318.660156"/>
     <use xlink:href="#DejaVuSans-52" x="350.447266"/>
     <use xlink:href="#DejaVuSans-65" x="415.429688"/>
     <use xlink:href="#DejaVuSans-6c" x="476.953125"/>
     <use xlink:href="#DejaVuSans-61" x="504.736328"/>
     <use xlink:href="#DejaVuSans-74" x="566.015625"/>
     <use xlink:href="#DejaVuSans-69" x="605.224609"/>
     <use xlink:href="#DejaVuSans-76" x="633.007812"/>
     <use xlink:href="#DejaVuSans-65" x="692.1875"/>
     <use xlink:href="#DejaVuSans-20" x="753.710938"/>
     <use xlink:href="#DejaVuSans-53" x="785.498047"/>
     <use xlink:href="#DejaVuSans-74" x="848.974609"/>
     <use xlink:href="#DejaVuSans-72" x="888.183594"/>
     <use xlink:href="#DejaVuSans-65" x="927.046875"/>
     <use xlink:href="#DejaVuSans-6e" x="988.570312"/>
     <use xlink:href="#DejaVuSans-67" x="1051.949219"/>
     <use xlink:href="#DejaVuSans-74" x="1115.425781"/>
     <use xlink:href="#DejaVuSans-68" x="1154.634766"/>
     <use xlink:href="#DejaVuSans-20" x="1218.013672"/>
     <use xlink:href="#DejaVuSans-49" x="1249.800781"/>
     <use xlink:href="#DejaVuSans-6e" x="1279.292969"/>
     <use xlink:href="#DejaVuSans-64" x="1342.671875"/>
     <use xlink:href="#DejaVuSans-65" x="1406.148438"/>
     <use xlink:href="#DejaVuSans-78" x="1465.921875"/>
     <use xlink:href="#DejaVuSans-20" x="1525.101562"/>
     <use xlink:href="#DejaVuSans-28" x="1556.888672"/>
     <use xlink:href="#DejaVuSans-52" x="1595.902344"/>
     <use xlink:href="#DejaVuSans-53" x="1665.384766"/>
     <use xlink:href="#DejaVuSans-49" x="1728.861328"/>
     <use xlink:href="#DejaVuSans-29" x="1758.353516"/>
     <use xlink:href="#DejaVuSans-2c" x="1797.367188"/>
     <use xlink:href="#DejaVuSans-20" x="1829.154297"/>
     <use xlink:href="#DejaVuSans-4e" x="1860.941406"/>
     <use xlink:href="#DejaVuSans-56" x="1935.746094"/>
     <use xlink:href="#DejaVuSans-44" x="2004.154297"/>
     <use xlink:href="#DejaVuSans-41" x="2079.40625"/>
    </g>
   </g>
   <g id="legend_1">
    <g id="patch_7">
     <path d="M 53.965625 74.3525 
L 203.875 74.3525 
Q 205.875 74.3525 205.875 72.3525 
L 205.875 29.318125 
Q 205.875 27.318125 203.875 27.318125 
L 53.965625 27.318125 
Q 51.965625 27.318125 51.965625 29.318125 
L 51.965625 72.3525 
Q 51.965625 74.3525 53.965625 74.3525 
z
" style="fill: #ffffff; opacity: 0.8; stroke: #cccccc; stroke-linejoin: miter"/>
    </g>
    <g id="line2d_21">
     <path d="M 55.965625 35.416562 
L 65.965625 35.416562 
L 75.965625 35.416562 
" style="fill: none; stroke: #00ff7f; stroke-linecap: square"/>
    </g>
    <g id="text_15">
     <!-- Oversold, RSI &lt;= 30 -->
     <g transform="translate(83.965625 38.916562)scale(0.1 -0.1)">
      <defs>
       <path id="DejaVuSans-4f" d="M 2522 4238 
Q 1834 4238 1429 3725 
Q 1025 3213 1025 2328 
Q 1025 1447 1429 934 
Q 1834 422 2522 422 
Q 3209 422 3611 934 
Q 4013 1447 4013 2328 
Q 4013 3213 3611 3725 
Q 3209 4238 2522 4238 
z
M 2522 4750 
Q 3503 4750 4090 4092 
Q 4678 3434 4678 2328 
Q 4678 1225 4090 567 
Q 3503 -91 2522 -91 
Q 1538 -91 948 565 
Q 359 1222 359 2328 
Q 359 3434 948 4092 
Q 1538 4750 2522 4750 
z
" transform="scale(0.015625)"/>
       <path id="DejaVuSans-73" d="M 2834 3397 
L 2834 2853 
Q 2591 2978 2328 3040 
Q 2066 3103 1784 3103 
Q 1356 3103 1142 2972 
Q 928 2841 928 2578 
Q 928 2378 1081 2264 
Q 1234 2150 1697 2047 
L 1894 2003 
Q 2506 1872 2764 1633 
Q 3022 1394 3022 966 
Q 3022 478 2636 193 
Q 2250 -91 1575 -91 
Q 1294 -91 989 -36 
Q 684 19 347 128 
L 347 722 
Q 666 556 975 473 
Q 1284 391 1588 391 
Q 1994 391 2212 530 
Q 2431 669 2431 922 
Q 2431 1156 2273 1281 
Q 2116 1406 1581 1522 
L 1381 1569 
Q 847 1681 609 1914 
Q 372 2147 372 2553 
Q 372 3047 722 3315 
Q 1072 3584 1716 3584 
Q 2034 3584 2315 3537 
Q 2597 3491 2834 3397 
z
" transform="scale(0.015625)"/>
       <path id="DejaVuSans-6f" d="M 1959 3097 
Q 1497 3097 1228 2736 
Q 959 2375 959 1747 
Q 959 1119 1226 758 
Q 1494 397 1959 397 
Q 2419 397 2687 759 
Q 2956 1122 2956 1747 
Q 2956 2369 2687 2733 
Q 2419 3097 1959 3097 
z
M 1959 3584 
Q 2709 3584 3137 3096 
Q 3566 2609 3566 1747 
Q 3566 888 3137 398 
Q 2709 -91 1959 -91 
Q 1206 -91 779 398 
Q 353 888 353 1747 
Q 353 2609 779 3096 
Q 1206 3584 1959 3584 
z
" transform="scale(0.015625)"/>
       <path id="DejaVuSans-3c" d="M 4684 3150 
L 1459 2003 
L 4684 863 
L 4684 294 
L 678 1747 
L 678 2266 
L 4684 3719 
L 4684 3150 
z
" transform="scale(0.015625)"/>
       <path id="DejaVuSans-3d" d="M 678 2906 
L 4684 2906 
L 4684 2381 
L 678 2381 
L 678 2906 
z
M 678 1631 
L 4684 1631 
L 4684 1100 
L 678 1100 
L 678 1631 
z
" transform="scale(0.015625)"/>
       <path id="DejaVuSans-33" d="M 2597 2516 
Q 3050 2419 3304 2112 
Q 3559 1806 3559 1356 
Q 3559 666 3084 287 
Q 2609 -91 1734 -91 
Q 1441 -91 1130 -33 
Q 819 25 488 141 
L 488 750 
Q 750 597 1062 519 
Q 1375 441 1716 441 
Q 2309 441 2620 675 
Q 2931 909 2931 1356 
Q 2931 1769 2642 2001 
Q 2353 2234 1838 2234 
L 1294 2234 
L 1294 2753 
L 1863 2753 
Q 2328 2753 2575 2939 
Q 2822 3125 2822 3475 
Q 2822 3834 2567 4026 
Q 2313 4219 1838 4219 
Q 1578 4219 1281 4162 
Q 984 4106 628 3988 
L 628 4550 
Q 988 4650 1302 4700 
Q 1616 4750 1894 4750 
Q 2613 4750 3031 4423 
Q 3450 4097 3450 3541 
Q 3450 3153 3228 2886 
Q 3006 2619 2597 2516 
z
" transform="scale(0.015625)"/>
      </defs>
      <use xlink:href="#DejaVuSans-4f"/>
      <use xlink:href="#DejaVuSans-76" x="78.710938"/>
      <use xlink:href="#DejaVuSans-65" x="137.890625"/>
      <use xlink:href="#DejaVuSans-72" x="199.414062"/>
      <use xlink:href="#DejaVuSans-73" x="240.527344"/>
      <use xlink:href="#DejaVuSans-6f" x="292.626953"/>
      <use xlink:href="#DejaVuSans-6c" x="353.808594"/>
      <use xlink:href="#DejaVuSans-64" x="381.591797"/>
      <use xlink:href="#DejaVuSans-2c" x="445.068359"/>
      <use xlink:href="#DejaVuSans-20" x="476.855469"/>
      <use xlink:href="#DejaVuSans-52" x="508.642578"/>
      <use xlink:href="#DejaVuSans-53" x="578.125"/>
      <use xlink:href="#DejaVuSans-49" x="641.601562"/>
      <use xlink:href="#DejaVuSans-20" x="671.09375"/>
      <use xlink:href="#DejaVuSans-3c" x="702.880859"/>
      <use xlink:href="#DejaVuSans-3d" x="786.669922"/>
      <use xlink:href="#DejaVuSans-20" x="870.458984"/>
      <use xlink:href="#DejaVuSans-33" x="902.246094"/>
      <use xlink:href="#DejaVuSans-30" x="965.869141"/>
     </g>
    </g>
    <g id="line2d_22">
     <path d="M 55.965625 50.094687 
L 65.965625 50.094687 
L 75.965625 50.094687 
" style="fill: none; stroke: #ff4500; stroke-linecap: square"/>
    </g>
    <g id="text_16">
     <!-- Overbought, RSI &gt;= 70 -->
     <g transform="translate(83.965625 53.594687)scale(0.1 -0.1)">
      <defs>
       <path id="DejaVuSans-62" d="M 3116 1747 
Q 3116 2381 2855 2742 
Q 2594 3103 2138 3103 
Q 1681 3103 1420 2742 
Q 1159 2381 1159 1747 
Q 1159 1113 1420 752 
Q 1681 391 2138 391 
Q 2594 391 2855 752 
Q 3116 1113 3116 1747 
z
M 1159 2969 
Q 1341 3281 1617 3432 
Q 1894 3584 2278 3584 
Q 2916 3584 3314 3078 
Q 3713 2572 3713 1747 
Q 3713 922 3314 415 
Q 2916 -91 2278 -91 
Q 1894 -91 1617 61 
Q 1341 213 1159 525 
L 1159 0 
L 581 0 
L 581 4863 
L 1159 4863 
L 1159 2969 
z
" transform="scale(0.015625)"/>
       <path id="DejaVuSans-75" d="M 544 1381 
L 544 3500 
L 1119 3500 
L 1119 1403 
Q 1119 906 1312 657 
Q 1506 409 1894 409 
Q 2359 409 2629 706 
Q 2900 1003 2900 1516 
L 2900 3500 
L 3475 3500 
L 3475 0 
L 2900 0 
L 2900 538 
Q 2691 219 2414 64 
Q 2138 -91 1772 -91 
Q 1169 -91 856 284 
Q 544 659 544 1381 
z
M 1991 3584 
L 1991 3584 
z
" transform="scale(0.015625)"/>
       <path id="DejaVuSans-3e" d="M 678 3150 
L 678 3719 
L 4684 2266 
L 4684 1747 
L 678 294 
L 678 863 
L 3897 2003 
L 678 3150 
z
" transform="scale(0.015625)"/>
       <path id="DejaVuSans-37" d="M 525 4666 
L 3525 4666 
L 3525 4397 
L 1831 0 
L 1172 0 
L 2766 4134 
L 525 4134 
L 525 4666 
z
" transform="scale(0.015625)"/>
      </defs>
      <use xlink:href="#DejaVuSans-4f"/>
      <use xlink:href="#DejaVuSans-76" x="78.710938"/>
      <use xlink:href="#DejaVuSans-65" x="137.890625"/>
      <use xlink:href="#DejaVuSans-72" x="199.414062"/>
      <use xlink:href="#DejaVuSans-62" x="240.527344"/>
      <use xlink:href="#DejaVuSans-6f" x="304.003906"/>
      <use xlink:href="#DejaVuSans-75" x="365.185547"/>
      <use xlink:href="#DejaVuSans-67" x="428.564453"/>
      <use xlink:href="#DejaVuSans-68" x="492.041016"/>
      <use xlink:href="#DejaVuSans-74" x="555.419922"/>
      <use xlink:href="#DejaVuSans-2c" x="594.628906"/>
      <use xlink:href="#DejaVuSans-20" x="626.416016"/>
      <use xlink:href="#DejaVuSans-52" x="658.203125"/>
      <use xlink:href="#DejaVuSans-53" x="727.685547"/>
      <use xlink:href="#DejaVuSans-49" x="791.162109"/>
      <use xlink:href="#DejaVuSans-20" x="820.654297"/>
      <use xlink:href="#DejaVuSans-3e" x="852.441406"/>
      <use xlink:href="#DejaVuSans-3d" x="936.230469"/>
      <use xlink:href="#DejaVuSans-20" x="1020.019531"/>
      <use xlink:href="#DejaVuSans-37" x="1051.806641"/>
      <use xlink:href="#DejaVuSans-30" x="1115.429688"/>
     </g>
    </g>
    <g id="line2d_23">
     <path d="M 55.965625 64.772812 
L 65.965625 64.772812 
L 75.965625 64.772812 
" style="fill: none; stroke: #1e90ff; stroke-linecap: square"/>
    </g>
    <g id="text_17">
     <!-- Neutral -->
     <g transform="translate(83.965625 68.272812)scale(0.1 -0.1)">
      <use xlink:href="#DejaVuSans-4e"/>
      <use xlink:href="#DejaVuSans-65" x="74.804688"/>
      <use xlink:href="#DejaVuSans-75" x="136.328125"/>
      <use xlink:href="#DejaVuSans-74" x="199.707031"/>
      <use xlink:href="#DejaVuSans-72" x="238.916016"/>
      <use xlink:href="#DejaVuSans-61" x="280.029297"/>
      <use xlink:href="#DejaVuSans-6c" x="341.308594"/>
     </g>
    </g>
   </g>
  </g>
 </g>
 <defs>
  <clipPath id="pa24890beb3">
   <rect x="46.965625" y="22.318125" width="558" height="332.64"/>
  </clipPath>
 </defs>
</svg>
