<?xml version="1.0" encoding="utf-8" standalone="no"?>
<!DOCTYPE svg PUBLIC "-//W3C//DTD SVG 1.1//EN"
  "http://www.w3.org/Graphics/SVG/1.1/DTD/svg11.dtd">
<svg xmlns:xlink="http://www.w3.org/1999/xlink" width="612.165625pt" height="392.514375pt" viewBox="0 0 612.165625 392.514375" xmlns="http://www.w3.org/2000/svg" version="1.1">
 <metadata>
  <rdf:RDF xmlns:dc="http://purl.org/dc/elements/1.1/" xmlns:cc="http://creativecommons.org/ns#" xmlns:rdf="http://www.w3.org/1999/02/22-rdf-syntax-ns#">
   <cc:Work>
    <dc:type rdf:resource="http://purl.org/dc/dcmitype/StillImage"/>
    <dc:date>2023-04-23T16:54:52.326176</dc:date>
    <dc:format>image/svg+xml</dc:format>
    <dc:creator>
     <cc:Agent>
      <dc:title>Matplotlib v3.5.1, https://matplotlib.org/</dc:title>
     </cc:Agent>
    </dc:creator>
   </cc:Work>
  </rdf:RDF>
 </metadata>
 <defs>
  <style type="text/css">*{stroke-linejoin: round; stroke-linecap: butt}</style>
 </defs>
 <g id="figure_1">
  <g id="patch_1">
   <path d="M 0 392.514375 
L 612.165625 392.514375 
L 612.165625 0 
L 0 0 
z
" style="fill: #ffffff"/>
  </g>
  <g id="axes_1">
   <g id="patch_2">
    <path d="M 46.965625 354.958125 
L 604.965625 354.958125 
L 604.965625 22.318125 
L 46.965625 22.318125 
z
" style="fill: #ffffff"/>
   </g>
   <g id="matplotlib.axis_1">
    <g id="xtick_1">
     <g id="line2d_1">
      <defs>
       <path id="m9b78b3a71d" d="M 0 0 
L 0 3.5 
" style="stroke: #000000; stroke-width: 0.8"/>
      </defs>
      <g>
       <use xlink:href="#m9b78b3a71d" x="72.329261" y="354.958125" style="stroke: #000000; stroke-width: 0.8"/>
      </g>
     </g>
     <g id="text_1">
      <!-- 0 -->
      <g transform="translate(69.148011 369.556562)scale(0.1 -0.1)">
       <defs>
        <path id="DejaVuSans-30" d="M 2034 4250 
Q 1547 4250 1301 3770 
Q 1056 3291 1056 2328 
Q 1056 1369 1301 889 
Q 1547 409 2034 409 
Q 2525 409 2770 889 
Q 3016 1369 3016 2328 
Q 3016 3291 2770 3770 
Q 2525 4250 2034 4250 
z
M 2034 4750 
Q 2819 4750 3233 4129 
Q 3647 3509 3647 2328 
Q 3647 1150 3233 529 
Q 2819 -91 2034 -91 
Q 1250 -91 836 529 
Q 422 1150 422 2328 
Q 422 3509 836 4129 
Q 1250 4750 2034 4750 
z
" transform="scale(0.015625)"/>
       </defs>
       <use xlink:href="#DejaVuSans-30"/>
      </g>
     </g>
    </g>
    <g id="xtick_2">
     <g id="line2d_2">
      <g>
       <use xlink:href="#m9b78b3a71d" x="184.112586" y="354.958125" style="stroke: #000000; stroke-width: 0.8"/>
      </g>
     </g>
     <g id="text_2">
      <!-- 500 -->
      <g transform="translate(174.568836 369.556562)scale(0.1 -0.1)">
       <defs>
        <path id="DejaVuSans-35" d="M 691 4666 
L 3169 4666 
L 3169 4134 
L 1269 4134 
L 1269 2991 
Q 1406 3038 1543 3061 
Q 1681 3084 1819 3084 
Q 2600 3084 3056 2656 
Q 3513 2228 3513 1497 
Q 3513 744 3044 326 
Q 2575 -91 1722 -91 
Q 1428 -91 1123 -41 
Q 819 9 494 109 
L 494 744 
Q 775 591 1075 516 
Q 1375 441 1709 441 
Q 2250 441 2565 725 
Q 2881 1009 2881 1497 
Q 2881 1984 2565 2268 
Q 2250 2553 1709 2553 
Q 1456 2553 1204 2497 
Q 953 2441 691 2322 
L 691 4666 
z
" transform="scale(0.015625)"/>
       </defs>
       <use xlink:href="#DejaVuSans-35"/>
       <use xlink:href="#DejaVuSans-30" x="63.623047"/>
       <use xlink:href="#DejaVuSans-30" x="127.246094"/>
      </g>
     </g>
    </g>
    <g id="xtick_3">
     <g id="line2d_3">
      <g>
       <use xlink:href="#m9b78b3a71d" x="295.895911" y="354.958125" style="stroke: #000000; stroke-width: 0.8"/>
      </g>
     </g>
     <g id="text_3">
      <!-- 1000 -->
      <g transform="translate(283.170911 369.556562)scale(0.1 -0.1)">
       <defs>
        <path id="DejaVuSans-31" d="M 794 531 
L 1825 531 
L 1825 4091 
L 703 3866 
L 703 4441 
L 1819 4666 
L 2450 4666 
L 2450 531 
L 3481 531 
L 3481 0 
L 794 0 
L 794 531 
z
" transform="scale(0.015625)"/>
       </defs>
       <use xlink:href="#DejaVuSans-31"/>
       <use xlink:href="#DejaVuSans-30" x="63.623047"/>
       <use xlink:href="#DejaVuSans-30" x="127.246094"/>
       <use xlink:href="#DejaVuSans-30" x="190.869141"/>
      </g>
     </g>
    </g>
    <g id="xtick_4">
     <g id="line2d_4">
      <g>
       <use xlink:href="#m9b78b3a71d" x="407.679235" y="354.958125" style="stroke: #000000; stroke-width: 0.8"/>
      </g>
     </g>
     <g id="text_4">
      <!-- 1500 -->
      <g transform="translate(394.954235 369.556562)scale(0.1 -0.1)">
       <use xlink:href="#DejaVuSans-31"/>
       <use xlink:href="#DejaVuSans-35" x="63.623047"/>
       <use xlink:href="#DejaVuSans-30" x="127.246094"/>
       <use xlink:href="#DejaVuSans-30" x="190.869141"/>
      </g>
     </g>
    </g>
    <g id="xtick_5">
     <g id="line2d_5">
      <g>
       <use xlink:href="#m9b78b3a71d" x="519.46256" y="354.958125" style="stroke: #000000; stroke-width: 0.8"/>
      </g>
     </g>
     <g id="text_5">
      <!-- 2000 -->
      <g transform="translate(506.73756 369.556562)scale(0.1 -0.1)">
       <defs>
        <path id="DejaVuSans-32" d="M 1228 531 
L 3431 531 
L 3431 0 
L 469 0 
L 469 531 
Q 828 903 1448 1529 
Q 2069 2156 2228 2338 
Q 2531 2678 2651 2914 
Q 2772 3150 2772 3378 
Q 2772 3750 2511 3984 
Q 2250 4219 1831 4219 
Q 1534 4219 1204 4116 
Q 875 4013 500 3803 
L 500 4441 
Q 881 4594 1212 4672 
Q 1544 4750 1819 4750 
Q 2544 4750 2975 4387 
Q 3406 4025 3406 3419 
Q 3406 3131 3298 2873 
Q 3191 2616 2906 2266 
Q 2828 2175 2409 1742 
Q 1991 1309 1228 531 
z
" transform="scale(0.015625)"/>
       </defs>
       <use xlink:href="#DejaVuSans-32"/>
       <use xlink:href="#DejaVuSans-30" x="63.623047"/>
       <use xlink:href="#DejaVuSans-30" x="127.246094"/>
       <use xlink:href="#DejaVuSans-30" x="190.869141"/>
      </g>
     </g>
    </g>
    <g id="text_6">
     <!-- Date -->
     <g transform="translate(314.014844 383.234687)scale(0.1 -0.1)">
      <defs>
       <path id="DejaVuSans-44" d="M 1259 4147 
L 1259 519 
L 2022 519 
Q 2988 519 3436 956 
Q 3884 1394 3884 2338 
Q 3884 3275 3436 3711 
Q 2988 4147 2022 4147 
L 1259 4147 
z
M 628 4666 
L 1925 4666 
Q 3281 4666 3915 4102 
Q 4550 3538 4550 2338 
Q 4550 1131 3912 565 
Q 3275 0 1925 0 
L 628 0 
L 628 4666 
z
" transform="scale(0.015625)"/>
       <path id="DejaVuSans-61" d="M 2194 1759 
Q 1497 1759 1228 1600 
Q 959 1441 959 1056 
Q 959 750 1161 570 
Q 1363 391 1709 391 
Q 2188 391 2477 730 
Q 2766 1069 2766 1631 
L 2766 1759 
L 2194 1759 
z
M 3341 1997 
L 3341 0 
L 2766 0 
L 2766 531 
Q 2569 213 2275 61 
Q 1981 -91 1556 -91 
Q 1019 -91 701 211 
Q 384 513 384 1019 
Q 384 1609 779 1909 
Q 1175 2209 1959 2209 
L 2766 2209 
L 2766 2266 
Q 2766 2663 2505 2880 
Q 2244 3097 1772 3097 
Q 1472 3097 1187 3025 
Q 903 2953 641 2809 
L 641 3341 
Q 956 3463 1253 3523 
Q 1550 3584 1831 3584 
Q 2591 3584 2966 3190 
Q 3341 2797 3341 1997 
z
" transform="scale(0.015625)"/>
       <path id="DejaVuSans-74" d="M 1172 4494 
L 1172 3500 
L 2356 3500 
L 2356 3053 
L 1172 3053 
L 1172 1153 
Q 1172 725 1289 603 
Q 1406 481 1766 481 
L 2356 481 
L 2356 0 
L 1766 0 
Q 1100 0 847 248 
Q 594 497 594 1153 
L 594 3053 
L 172 3053 
L 172 3500 
L 594 3500 
L 594 4494 
L 1172 4494 
z
" transform="scale(0.015625)"/>
       <path id="DejaVuSans-65" d="M 3597 1894 
L 3597 1613 
L 953 1613 
Q 991 1019 1311 708 
Q 1631 397 2203 397 
Q 2534 397 2845 478 
Q 3156 559 3463 722 
L 3463 178 
Q 3153 47 2828 -22 
Q 2503 -91 2169 -91 
Q 1331 -91 842 396 
Q 353 884 353 1716 
Q 353 2575 817 3079 
Q 1281 3584 2069 3584 
Q 2775 3584 3186 3129 
Q 3597 2675 3597 1894 
z
M 3022 2063 
Q 3016 2534 2758 2815 
Q 2500 3097 2075 3097 
Q 1594 3097 1305 2825 
Q 1016 2553 972 2059 
L 3022 2063 
z
" transform="scale(0.015625)"/>
      </defs>
      <use xlink:href="#DejaVuSans-44"/>
      <use xlink:href="#DejaVuSans-61" x="77.001953"/>
      <use xlink:href="#DejaVuSans-74" x="138.28125"/>
      <use xlink:href="#DejaVuSans-65" x="177.490234"/>
     </g>
    </g>
   </g>
   <g id="matplotlib.axis_2">
    <g id="ytick_1">
     <g id="line2d_6">
      <path d="M 46.965625 342.609962 
L 604.965625 342.609962 
" clip-path="url(#pf29ae3e1c4)" style="fill: none; stroke: #dcdcdc; stroke-width: 0.5; stroke-linecap: square"/>
     </g>
     <g id="line2d_7">
      <defs>
       <path id="m6957c6b699" d="M 0 0 
L -3.5 0 
" style="stroke: #000000; stroke-width: 0.8"/>
      </defs>
      <g>
       <use xlink:href="#m6957c6b699" x="46.965625" y="342.609962" style="stroke: #000000; stroke-width: 0.8"/>
      </g>
     </g>
     <g id="text_7">
      <!-- 0 -->
      <g transform="translate(33.603125 346.409181)scale(0.1 -0.1)">
       <use xlink:href="#DejaVuSans-30"/>
      </g>
     </g>
    </g>
    <g id="ytick_2">
     <g id="line2d_8">
      <path d="M 46.965625 296.892705 
L 604.965625 296.892705 
" clip-path="url(#pf29ae3e1c4)" style="fill: none; stroke: #dcdcdc; stroke-width: 0.5; stroke-linecap: square"/>
     </g>
     <g id="line2d_9">
      <g>
       <use xlink:href="#m6957c6b699" x="46.965625" y="296.892705" style="stroke: #000000; stroke-width: 0.8"/>
      </g>
     </g>
     <g id="text_8">
      <!-- 50 -->
      <g transform="translate(27.240625 300.691924)scale(0.1 -0.1)">
       <use xlink:href="#DejaVuSans-35"/>
       <use xlink:href="#DejaVuSans-30" x="63.623047"/>
      </g>
     </g>
    </g>
    <g id="ytick_3">
     <g id="line2d_10">
      <path d="M 46.965625 251.175447 
L 604.965625 251.175447 
" clip-path="url(#pf29ae3e1c4)" style="fill: none; stroke: #dcdcdc; stroke-width: 0.5; stroke-linecap: square"/>
     </g>
     <g id="line2d_11">
      <g>
       <use xlink:href="#m6957c6b699" x="46.965625" y="251.175447" style="stroke: #000000; stroke-width: 0.8"/>
      </g>
     </g>
     <g id="text_9">
      <!-- 100 -->
      <g transform="translate(20.878125 254.974666)scale(0.1 -0.1)">
       <use xlink:href="#DejaVuSans-31"/>
       <use xlink:href="#DejaVuSans-30" x="63.623047"/>
       <use xlink:href="#DejaVuSans-30" x="127.246094"/>
      </g>
     </g>
    </g>
    <g id="ytick_4">
     <g id="line2d_12">
      <path d="M 46.965625 205.45819 
L 604.965625 205.45819 
" clip-path="url(#pf29ae3e1c4)" style="fill: none; stroke: #dcdcdc; stroke-width: 0.5; stroke-linecap: square"/>
     </g>
     <g id="line2d_13">
      <g>
       <use xlink:href="#m6957c6b699" x="46.965625" y="205.45819" style="stroke: #000000; stroke-width: 0.8"/>
      </g>
     </g>
     <g id="text_10">
      <!-- 150 -->
      <g transform="translate(20.878125 209.257409)scale(0.1 -0.1)">
       <use xlink:href="#DejaVuSans-31"/>
       <use xlink:href="#DejaVuSans-35" x="63.623047"/>
       <use xlink:href="#DejaVuSans-30" x="127.246094"/>
      </g>
     </g>
    </g>
    <g id="ytick_5">
     <g id="line2d_14">
      <path d="M 46.965625 159.740932 
L 604.965625 159.740932 
" clip-path="url(#pf29ae3e1c4)" style="fill: none; stroke: #dcdcdc; stroke-width: 0.5; stroke-linecap: square"/>
     </g>
     <g id="line2d_15">
      <g>
       <use xlink:href="#m6957c6b699" x="46.965625" y="159.740932" style="stroke: #000000; stroke-width: 0.8"/>
      </g>
     </g>
     <g id="text_11">
      <!-- 200 -->
      <g transform="translate(20.878125 163.540151)scale(0.1 -0.1)">
       <use xlink:href="#DejaVuSans-32"/>
       <use xlink:href="#DejaVuSans-30" x="63.623047"/>
       <use xlink:href="#DejaVuSans-30" x="127.246094"/>
      </g>
     </g>
    </g>
    <g id="ytick_6">
     <g id="line2d_16">
      <path d="M 46.965625 114.023675 
L 604.965625 114.023675 
" clip-path="url(#pf29ae3e1c4)" style="fill: none; stroke: #dcdcdc; stroke-width: 0.5; stroke-linecap: square"/>
     </g>
     <g id="line2d_17">
      <g>
       <use xlink:href="#m6957c6b699" x="46.965625" y="114.023675" style="stroke: #000000; stroke-width: 0.8"/>
      </g>
     </g>
     <g id="text_12">
      <!-- 250 -->
      <g transform="translate(20.878125 117.822894)scale(0.1 -0.1)">
       <use xlink:href="#DejaVuSans-32"/>
       <use xlink:href="#DejaVuSans-35" x="63.623047"/>
       <use xlink:href="#DejaVuSans-30" x="127.246094"/>
      </g>
     </g>
    </g>
    <g id="ytick_7">
     <g id="line2d_18">
      <path d="M 46.965625 68.306417 
L 604.965625 68.306417 
" clip-path="url(#pf29ae3e1c4)" style="fill: none; stroke: #dcdcdc; stroke-width: 0.5; stroke-linecap: square"/>
     </g>
     <g id="line2d_19">
      <g>
       <use xlink:href="#m6957c6b699" x="46.965625" y="68.306417" style="stroke: #000000; stroke-width: 0.8"/>
      </g>
     </g>
     <g id="text_13">
      <!-- 300 -->
      <g transform="translate(20.878125 72.105636)scale(0.1 -0.1)">
       <defs>
        <path id="DejaVuSans-33" d="M 2597 2516 
Q 3050 2419 3304 2112 
Q 3559 1806 3559 1356 
Q 3559 666 3084 287 
Q 2609 -91 1734 -91 
Q 1441 -91 1130 -33 
Q 819 25 488 141 
L 488 750 
Q 750 597 1062 519 
Q 1375 441 1716 441 
Q 2309 441 2620 675 
Q 2931 909 2931 1356 
Q 2931 1769 2642 2001 
Q 2353 2234 1838 2234 
L 1294 2234 
L 1294 2753 
L 1863 2753 
Q 2328 2753 2575 2939 
Q 2822 3125 2822 3475 
Q 2822 3834 2567 4026 
Q 2313 4219 1838 4219 
Q 1578 4219 1281 4162 
Q 984 4106 628 3988 
L 628 4550 
Q 988 4650 1302 4700 
Q 1616 4750 1894 4750 
Q 2613 4750 3031 4423 
Q 3450 4097 3450 3541 
Q 3450 3153 3228 2886 
Q 3006 2619 2597 2516 
z
" transform="scale(0.015625)"/>
       </defs>
       <use xlink:href="#DejaVuSans-33"/>
       <use xlink:href="#DejaVuSans-30" x="63.623047"/>
       <use xlink:href="#DejaVuSans-30" x="127.246094"/>
      </g>
     </g>
    </g>
    <g id="ytick_8">
     <g id="line2d_20">
      <path d="M 46.965625 22.58916 
L 604.965625 22.58916 
" clip-path="url(#pf29ae3e1c4)" style="fill: none; stroke: #dcdcdc; stroke-width: 0.5; stroke-linecap: square"/>
     </g>
     <g id="line2d_21">
      <g>
       <use xlink:href="#m6957c6b699" x="46.965625" y="22.58916" style="stroke: #000000; stroke-width: 0.8"/>
      </g>
     </g>
     <g id="text_14">
      <!-- 350 -->
      <g transform="translate(20.878125 26.388379)scale(0.1 -0.1)">
       <use xlink:href="#DejaVuSans-33"/>
       <use xlink:href="#DejaVuSans-35" x="63.623047"/>
       <use xlink:href="#DejaVuSans-30" x="127.246094"/>
      </g>
     </g>
    </g>
    <g id="text_15">
     <!-- Price (USD) -->
     <g transform="translate(14.798437 217.01)rotate(-90)scale(0.1 -0.1)">
      <defs>
       <path id="DejaVuSans-50" d="M 1259 4147 
L 1259 2394 
L 2053 2394 
Q 2494 2394 2734 2622 
Q 2975 2850 2975 3272 
Q 2975 3691 2734 3919 
Q 2494 4147 2053 4147 
L 1259 4147 
z
M 628 4666 
L 2053 4666 
Q 2838 4666 3239 4311 
Q 3641 3956 3641 3272 
Q 3641 2581 3239 2228 
Q 2838 1875 2053 1875 
L 1259 1875 
L 1259 0 
L 628 0 
L 628 4666 
z
" transform="scale(0.015625)"/>
       <path id="DejaVuSans-72" d="M 2631 2963 
Q 2534 3019 2420 3045 
Q 2306 3072 2169 3072 
Q 1681 3072 1420 2755 
Q 1159 2438 1159 1844 
L 1159 0 
L 581 0 
L 581 3500 
L 1159 3500 
L 1159 2956 
Q 1341 3275 1631 3429 
Q 1922 3584 2338 3584 
Q 2397 3584 2469 3576 
Q 2541 3569 2628 3553 
L 2631 2963 
z
" transform="scale(0.015625)"/>
       <path id="DejaVuSans-69" d="M 603 3500 
L 1178 3500 
L 1178 0 
L 603 0 
L 603 3500 
z
M 603 4863 
L 1178 4863 
L 1178 4134 
L 603 4134 
L 603 4863 
z
" transform="scale(0.015625)"/>
       <path id="DejaVuSans-63" d="M 3122 3366 
L 3122 2828 
Q 2878 2963 2633 3030 
Q 2388 3097 2138 3097 
Q 1578 3097 1268 2742 
Q 959 2388 959 1747 
Q 959 1106 1268 751 
Q 1578 397 2138 397 
Q 2388 397 2633 464 
Q 2878 531 3122 666 
L 3122 134 
Q 2881 22 2623 -34 
Q 2366 -91 2075 -91 
Q 1284 -91 818 406 
Q 353 903 353 1747 
Q 353 2603 823 3093 
Q 1294 3584 2113 3584 
Q 2378 3584 2631 3529 
Q 2884 3475 3122 3366 
z
" transform="scale(0.015625)"/>
       <path id="DejaVuSans-20" transform="scale(0.015625)"/>
       <path id="DejaVuSans-28" d="M 1984 4856 
Q 1566 4138 1362 3434 
Q 1159 2731 1159 2009 
Q 1159 1288 1364 580 
Q 1569 -128 1984 -844 
L 1484 -844 
Q 1016 -109 783 600 
Q 550 1309 550 2009 
Q 550 2706 781 3412 
Q 1013 4119 1484 4856 
L 1984 4856 
z
" transform="scale(0.015625)"/>
       <path id="DejaVuSans-55" d="M 556 4666 
L 1191 4666 
L 1191 1831 
Q 1191 1081 1462 751 
Q 1734 422 2344 422 
Q 2950 422 3222 751 
Q 3494 1081 3494 1831 
L 3494 4666 
L 4128 4666 
L 4128 1753 
Q 4128 841 3676 375 
Q 3225 -91 2344 -91 
Q 1459 -91 1007 375 
Q 556 841 556 1753 
L 556 4666 
z
" transform="scale(0.015625)"/>
       <path id="DejaVuSans-53" d="M 3425 4513 
L 3425 3897 
Q 3066 4069 2747 4153 
Q 2428 4238 2131 4238 
Q 1616 4238 1336 4038 
Q 1056 3838 1056 3469 
Q 1056 3159 1242 3001 
Q 1428 2844 1947 2747 
L 2328 2669 
Q 3034 2534 3370 2195 
Q 3706 1856 3706 1288 
Q 3706 609 3251 259 
Q 2797 -91 1919 -91 
Q 1588 -91 1214 -16 
Q 841 59 441 206 
L 441 856 
Q 825 641 1194 531 
Q 1563 422 1919 422 
Q 2459 422 2753 634 
Q 3047 847 3047 1241 
Q 3047 1584 2836 1778 
Q 2625 1972 2144 2069 
L 1759 2144 
Q 1053 2284 737 2584 
Q 422 2884 422 3419 
Q 422 4038 858 4394 
Q 1294 4750 2059 4750 
Q 2388 4750 2728 4690 
Q 3069 4631 3425 4513 
z
" transform="scale(0.015625)"/>
       <path id="DejaVuSans-29" d="M 513 4856 
L 1013 4856 
Q 1481 4119 1714 3412 
Q 1947 2706 1947 2009 
Q 1947 1309 1714 600 
Q 1481 -109 1013 -844 
L 513 -844 
Q 928 -128 1133 580 
Q 1338 1288 1338 2009 
Q 1338 2731 1133 3434 
Q 928 4138 513 4856 
z
" transform="scale(0.015625)"/>
      </defs>
      <use xlink:href="#DejaVuSans-50"/>
      <use xlink:href="#DejaVuSans-72" x="58.552734"/>
      <use xlink:href="#DejaVuSans-69" x="99.666016"/>
      <use xlink:href="#DejaVuSans-63" x="127.449219"/>
      <use xlink:href="#DejaVuSans-65" x="182.429688"/>
      <use xlink:href="#DejaVuSans-20" x="243.953125"/>
      <use xlink:href="#DejaVuSans-28" x="275.740234"/>
      <use xlink:href="#DejaVuSans-55" x="314.753906"/>
      <use xlink:href="#DejaVuSans-53" x="387.947266"/>
      <use xlink:href="#DejaVuSans-44" x="451.423828"/>
      <use xlink:href="#DejaVuSans-29" x="528.425781"/>
     </g>
    </g>
   </g>
   <g id="line2d_22">
    <path d="M 73.670661 147.580142 
L 73.894228 140.539684 
M 74.341361 132.182569 
L 74.564928 145.897747 
L 74.788495 147.378986 
M 93.79166 101.213699 
L 94.015226 106.46204 
L 94.238793 108.839338 
L 94.685926 119.04343 
L 94.909493 116.611272 
L 95.13306 130.792765 
L 95.356626 134.815883 
L 95.580193 135.126761 
L 95.80376 140.512254 
L 96.027326 138.802428 
L 96.250893 139.424183 
L 96.474459 142.715826 
L 96.698026 143.776466 
L 96.921593 151.155231 
L 97.145159 153.605676 
L 97.368726 153.386233 
L 97.592293 152.142724 
L 97.815859 149.911722 
L 98.262993 155.617236 
L 98.486559 162.191377 
M 105.417125 161.587909 
L 105.640692 168.518646 
L 106.087825 160.198105 
M 106.534959 160.60956 
L 106.758525 162.493111 
L 106.982092 160.326113 
M 110.335592 172.432043 
L 110.559158 170.898229 
L 110.782725 176.55574 
M 115.477625 179.762805 
L 115.701191 179.961675 
L 115.924758 177.856396 
L 116.148325 179.625653 
L 116.371891 183.28532 
L 116.595458 183.895645 
L 116.819025 182.992729 
L 117.042591 181.51149 
L 117.266158 181.884086 
L 117.489725 187.447876 
L 117.713291 189.198847 
L 117.936858 193.896295 
L 118.160424 194.079164 
L 118.383991 200.996185 
L 118.607558 199.057774 
L 119.054691 199.862397 
L 119.501824 209.001277 
L 119.725391 214.000459 
L 119.948958 214.457632 
L 120.396091 212.379783 
L 120.619658 217.662412 
L 120.843224 216.809785 
L 121.066791 211.801459 
L 121.290358 212.171769 
M 127.326657 220.560886 
L 127.550224 224.91774 
L 127.77379 224.218266 
L 127.997357 225.214903 
L 128.220924 227.994512 
L 128.44449 227.009305 
L 128.668057 223.098194 
L 128.891624 222.042125 
L 129.11519 225.15547 
L 129.338757 226.282401 
M 136.716456 223.838813 
L 136.940023 223.278777 
L 137.16359 224.497142 
L 137.387156 219.765406 
M 156.166755 229.706623 
L 156.390322 231.757042 
M 162.650188 237.981447 
L 162.873754 238.006591 
L 163.097321 243.403514 
L 163.320888 240.523326 
L 163.544454 240.207877 
L 163.768021 238.964368 
L 164.215154 239.949575 
L 164.438721 241.938275 
L 164.662288 245.55451 
L 164.885854 245.561368 
L 165.109421 246.919171 
L 165.332987 249.205034 
L 165.556554 247.321482 
L 165.780121 249.397046 
L 166.003687 249.989084 
M 166.897954 249.333042 
L 167.121521 249.943367 
M 169.80432 258.490209 
L 170.027887 258.901664 
M 171.14572 257.930172 
L 171.369287 258.325626 
L 171.592854 258.161044 
M 178.299853 275.465026 
L 178.52342 276.02616 
L 178.746986 277.970332 
L 179.19412 274.386099 
L 179.417686 276.009062 
M 192.831685 288.565306 
L 193.055252 286.421167 
L 193.278819 286.482885 
L 193.502385 285.927421 
L 193.725952 287.703536 
M 200.432951 292.929019 
L 200.880085 294.11081 
L 201.103651 294.11081 
L 201.327218 294.894861 
L 201.550785 294.739422 
L 201.774351 295.141734 
L 201.997918 294.778282 
L 202.221485 293.06617 
M 210.046317 300.771814 
L 210.493451 302.097615 
L 210.717017 300.474652 
M 211.387717 303.055391 
L 211.611284 302.835948 
M 216.753317 305.757281 
L 216.976883 305.624701 
M 224.57815 306.022441 
L 224.801716 306.651053 
L 225.025283 306.673912 
M 225.472416 305.407544 
L 225.695983 305.526409 
M 229.273049 308.6809 
L 229.496616 309.350657 
M 230.390882 312.029689 
L 230.614449 311.645664 
M 241.122082 302.886237 
L 241.345648 302.035896 
M 242.239915 303.990309 
L 242.463481 303.793725 
L 242.687048 304.765217 
M 243.581315 308.175724 
L 243.804881 308.491173 
L 244.028448 307.853417 
M 244.699148 306.847638 
L 244.922715 307.348242 
L 245.146281 307.085367 
M 249.394048 311.204492 
L 249.617614 312.528007 
L 249.841181 311.062769 
M 253.194681 311.478796 
L 253.418247 313.353203 
M 254.088947 312.059405 
L 254.312514 312.626299 
M 274.209946 285.957137 
L 274.433512 286.647467 
M 287.176811 285.785697 
L 287.400378 285.627973 
L 287.623945 285.991425 
L 287.847511 286.025713 
L 288.071078 287.13207 
L 288.741778 285.986853 
L 288.965345 286.37545 
L 289.188911 286.478314 
M 292.318844 293.084457 
L 292.989544 290.329992 
L 293.213111 290.254559 
M 308.415643 291.479782 
L 308.63921 291.877522 
L 308.862776 291.863806 
L 309.086343 293.372476 
L 309.533476 294.042234 
L 309.757043 297.041286 
L 309.98061 298.378516 
L 310.204176 297.487029 
L 310.427743 297.539604 
L 310.65131 297.477886 
L 310.874876 297.973918 
L 311.322009 297.624181 
L 311.545576 297.781905 
L 311.769143 297.372736 
L 312.216276 299.985477 
L 312.439843 300.051767 
L 312.663409 298.986555 
M 321.158942 297.445884 
L 321.606075 297.365878 
L 322.053209 298.943124 
L 322.276775 298.963697 
L 322.500342 299.423155 
L 322.947475 301.167268 
L 323.171042 301.288419 
L 323.394609 301.26556 
L 323.618175 301.60844 
L 324.065308 301.745592 
L 324.288875 302.451923 
L 324.512442 302.440494 
L 324.736008 303.302264 
L 324.959575 303.521707 
L 325.183142 301.693017 
M 328.760208 304.737786 
L 328.983775 304.961801 
L 329.207341 304.900082 
L 329.430908 305.165243 
M 337.479307 309.812402 
L 337.702874 309.910694 
L 337.926441 310.761035 
L 338.150007 309.565529 
L 338.373574 309.080926 
M 344.857007 312.191985 
L 345.080574 313.414922 
M 345.97484 313.693797 
L 346.198407 314.884732 
L 346.421973 319.07929 
L 346.64554 319.11815 
L 346.869107 318.86899 
L 347.539807 318.955853 
L 347.763373 318.233521 
L 347.98694 318.768413 
L 348.210507 318.462107 
L 348.434073 318.832417 
L 348.65764 318.667835 
L 349.104773 319.367309 
L 349.32834 319.463315 
M 355.588206 319.95249 
L 355.811773 320.08507 
L 356.258906 320.039352 
L 356.482473 320.28394 
L 356.929606 319.97992 
M 363.189472 318.834703 
L 363.413039 318.571828 
L 363.860172 319.497603 
L 364.083739 318.967283 
L 364.307305 318.964997 
M 369.896472 321.262289 
L 370.120038 321.607454 
L 370.343605 322.391505 
L 370.567172 322.57666 
M 373.697105 327.11867 
L 374.144238 326.343762 
L 374.367805 326.318618 
L 374.591371 327.164387 
L 375.262071 326.826079 
L 375.485638 326.343762 
L 375.709204 326.480914 
L 375.932771 326.453484 
M 382.416204 328.2456 
L 382.639771 328.279888 
L 382.863337 328.803351 
L 383.086904 328.924501 
L 383.310471 328.723345 
L 383.534037 329.004506 
M 389.123203 329.527969 
L 389.34677 329.765699 
L 389.570337 329.799987 
L 390.01747 329.557685 
L 390.241037 329.767985 
L 390.464603 329.795415 
L 390.68817 329.665121 
L 391.35887 330.4446 
L 391.582437 330.216014 
L 392.253137 330.563465 
M 392.923836 330.540606 
L 393.37097 330.98635 
L 393.818103 331.717826 
L 394.935936 332.117852 
L 395.159503 332.268719 
L 395.38307 332.156711 
L 395.606636 331.525813 
L 395.830203 331.813832 
L 396.05377 331.804689 
M 400.972236 332.65503 
L 401.195802 332.698461 
L 401.419369 332.945334 
L 401.642936 332.965907 
L 401.866502 333.242496 
L 402.090069 334.479148 
L 402.313636 334.367141 
L 402.537202 334.389999 
L 402.760769 334.545438 
L 403.207902 334.6163 
L 403.431469 334.664303 
L 403.878602 334.380856 
L 404.102169 334.488292 
L 404.549302 334.081408 
L 404.772869 334.271135 
M 409.244202 334.520294 
L 409.691335 334.728307 
L 409.914902 334.739736 
L 410.138468 334.872316 
L 410.585602 334.88146 
L 410.809168 335.10776 
L 411.032735 335.043756 
L 411.256302 335.263199 
L 411.703435 335.244912 
L 411.927002 335.368349 
L 412.374135 335.352348 
L 412.821268 335.169479 
M 415.504068 336.287266 
L 415.727635 336.440418 
L 415.951201 336.728437 
L 416.174768 336.826729 
L 416.845468 336.845016 
L 417.069035 336.568427 
M 429.141634 335.660939 
L 429.3652 335.660939 
L 429.588767 335.798091 
L 430.0359 335.635795 
M 433.612967 336.262121 
L 433.836533 336.252978 
M 435.4015 336.627859 
L 436.0722 336.799299 
L 436.519333 337.085032 
L 436.7429 336.97531 
L 437.190033 337.283902 
L 437.637166 337.2519 
L 438.0843 337.377622 
L 438.307866 337.231327 
L 439.4257 337.423339 
M 439.872833 337.448484 
L 440.096399 337.528489 
M 446.356266 338.033665 
L 446.803399 338.099955 
L 447.026966 338.195961 
L 448.144799 338.106812 
M 458.875998 337.894227 
L 459.099565 337.849699 
M 465.806564 337.817605 
L 466.030131 337.800507 
M 472.960697 337.951374 
L 473.854964 338.013092 
L 474.302097 338.220008 
L 474.525663 338.088526 
L 474.74923 338.195961 
L 474.972797 338.122813 
M 485.703996 338.087337 
L 486.151129 338.11943 
M 489.504629 338.520554 
L 489.728196 338.422262 
L 490.175329 338.627989 
L 490.846029 338.683947 
L 491.293162 338.759472 
M 500.012261 338.257679 
L 500.235828 338.31254 
M 501.353661 338.618846 
L 502.247928 338.566271 
L 502.471495 338.609702 
M 512.308427 338.278252 
L 512.75556 338.307968 
L 513.42626 338.440548 
L 513.649827 338.440548 
M 514.09696 338.504553 
L 514.320527 338.495409 
M 528.628793 338.762855 
L 529.075926 338.970869 
L 531.535159 339.05316 
M 537.124325 339.156024 
L 537.571459 339.176596 
M 552.997557 339.208598 
L 554.338957 339.226885 
L 555.680357 339.192597 
M 559.257424 339.370895 
L 559.48099 339.364037 
M 563.952323 339.407468 
L 564.623023 339.382324 
M 572.894989 339.489759 
L 573.342122 339.508046 
L 574.907089 339.74349 
L 575.577789 339.679486 
M 577.142755 339.810969 
" clip-path="url(#pf29ae3e1c4)" style="fill: none; stroke: #00ff7f; stroke-linecap: square"/>
   </g>
   <g id="line2d_23">
    <path d="M 83.507594 93.478339 
L 83.73116 84.965786 
L 83.954727 90.214127 
L 84.178294 74.798268 
L 84.40186 67.20006 
L 84.625427 73.69191 
L 84.848994 72.091806 
L 85.519694 59.665856 
M 124.867424 197.11479 
L 125.090991 195.0598 
M 134.257223 202.438565 
L 134.48079 205.812499 
L 134.704357 203.165469 
M 153.260388 212.331779 
L 153.483955 212.535221 
M 221.89535 302.591361 
L 222.118916 302.977672 
L 222.342483 301.770736 
L 222.56605 302.456495 
M 233.073682 306.132163 
L 233.297249 305.56984 
L 233.520816 306.390465 
L 233.744382 304.020025 
L 233.967949 303.706862 
L 234.191515 302.854235 
L 234.415082 303.03939 
L 234.638649 301.498719 
L 234.862215 300.776386 
L 235.085782 300.73524 
L 235.309349 301.356995 
L 235.532915 301.235844 
L 235.980049 301.90103 
L 236.203615 299.884899 
L 236.427182 298.911122 
L 236.650749 299.025415 
L 237.097882 300.024337 
M 257.442447 306.427039 
L 257.666014 306.696771 
L 257.88958 303.74115 
L 258.113147 305.252105 
M 261.466647 295.523473 
L 261.690213 293.7405 
L 261.91378 294.36454 
L 262.137347 294.202244 
L 262.58448 292.753007 
L 263.031613 296.206946 
M 266.385113 281.91116 
L 266.60868 281.858585 
L 266.832246 280.923667 
L 267.27938 277.067416 
L 267.502946 277.124563 
L 267.726513 276.466234 
L 267.95008 278.372644 
M 285.611845 282.514627 
L 285.835411 282.000308 
L 286.282545 282.068884 
M 315.346209 293.015881 
L 315.569776 293.479912 
L 315.793342 293.223895 
M 316.687609 294.611414 
L 316.911176 293.651351 
L 317.134742 294.00566 
M 353.35254 318.043794 
L 353.576106 318.130657 
L 353.799673 317.906642 
M 359.835972 316.637988 
L 360.283106 315.497343 
L 360.506672 315.378478 
M 421.763934 335.402637 
L 421.987501 335.091759 
L 422.211068 335.210624 
L 422.881767 334.911176 
L 423.105334 335.034613 
L 423.999601 335.090571 
M 424.446734 335.142048 
L 424.670301 335.027755 
M 452.168999 337.759361 
L 452.616132 337.61078 
L 453.063265 337.67707 
L 453.286832 337.734217 
M 459.993831 337.441626 
L 460.217398 337.409624 
M 493.975962 338.28511 
L 494.423095 338.291967 
L 495.093795 338.232535 
L 495.317362 338.235918 
M 495.988062 338.173102 
L 496.211628 338.127385 
M 496.658762 338.08624 
L 497.105895 338.031379 
M 504.483594 338.394831 
L 504.707161 338.198247 
L 505.601428 338.255394 
M 526.840259 338.326255 
L 527.063826 338.287396 
M 546.290558 338.996013 
L 546.737691 339.044016 
M 550.985458 338.96968 
L 551.209024 338.952765 
M 551.879724 338.998299 
" clip-path="url(#pf29ae3e1c4)" style="fill: none; stroke: #ff4500; stroke-linecap: square"/>
   </g>
   <g id="line2d_24">
    <path d="M 72.329261 100.089055 
L 72.552828 98.16893 
L 72.776395 100.73824 
L 72.999961 116.163242 
L 73.223528 118.631974 
L 73.447095 132.557451 
M 75.012061 132.895759 
L 75.459194 121.155567 
L 75.682761 127.949151 
L 75.906328 119.646897 
L 76.129894 121.731604 
L 76.353461 125.471276 
L 76.577028 137.915514 
L 76.800594 128.744632 
L 77.024161 126.440482 
L 77.247728 118.531396 
L 77.471294 100.20792 
M 77.918428 120.725825 
L 78.141994 123.633442 
L 78.365561 106.489471 
L 78.589128 98.43409 
L 78.812694 113.036182 
L 79.483394 123.642586 
L 79.706961 111.81096 
L 79.930527 117.333604 
L 80.154094 118.723409 
L 80.601227 141.966063 
L 80.824794 134.395285 
L 81.048361 138.491551 
L 81.271927 128.909214 
L 81.495494 128.890927 
L 82.166194 105.767138 
L 82.389761 96.267092 
L 82.613327 99.622739 
L 82.836894 86.602464 
L 83.060461 88.266572 
L 83.284027 92.079391 
M 85.74326 71.59806 
L 86.190394 76.76411 
L 86.41396 89.16263 
L 86.637527 88.412867 
L 86.861094 83.054805 
L 87.08466 64.109573 
L 87.308227 83.511977 
L 87.531794 85.121225 
L 87.75536 66.496014 
L 87.978927 63.826126 
L 88.202493 51.610475 
L 88.42606 46.11526 
L 88.649627 67.96811 
L 88.873193 61.970005 
L 89.09676 48.867439 
L 89.320327 55.185564 
L 89.76746 37.438125 
L 89.991027 54.56381 
L 90.214593 43.856828 
L 90.43816 52.341951 
L 90.661727 50.421826 
L 90.885293 41.013215 
L 91.10886 52.991136 
L 91.332427 75.063428 
L 91.555993 66.450297 
L 91.77956 68.077831 
L 92.003127 64.740471 
L 92.226693 64.740471 
L 92.45026 73.253025 
L 92.673826 62.29917 
L 92.897393 60.955082 
L 93.12096 70.573993 
L 93.344526 70.125964 
L 93.568093 99.412439 
M 98.710126 152.956491 
L 98.933693 153.194221 
L 99.157259 155.013768 
L 99.380826 153.34966 
L 99.604393 144.562803 
L 100.051526 137.046886 
L 100.722226 149.564271 
L 100.945792 142.368374 
L 101.169359 139.241314 
L 101.392926 138.336112 
M 101.840059 140.064225 
L 102.063626 137.083459 
L 102.287192 139.835638 
L 102.510759 138.354399 
L 102.957892 133.7461 
L 103.181459 137.833222 
L 103.405026 137.421767 
L 103.628592 137.9338 
M 104.075726 135.638794 
L 104.299292 140.832275 
L 104.522859 139.506474 
L 104.746426 143.346724 
L 104.969992 141.838054 
L 105.193559 152.279876 
M 107.205659 157.043614 
L 107.429225 156.394429 
L 107.652792 153.916554 
L 108.099925 161.432471 
L 108.323492 162.026795 
L 108.547059 164.321801 
L 108.770625 162.831419 
L 108.994192 164.285228 
L 109.217758 166.982546 
L 109.441325 166.196209 
L 109.664892 163.782338 
L 109.888458 163.453174 
L 110.112025 165.135569 
M 111.006292 169.192975 
L 111.229858 161.190169 
L 111.676992 155.054913 
L 111.900558 159.281474 
L 112.124125 160.630133 
L 112.571258 153.354231 
L 113.241958 159.718074 
L 113.465525 159.496345 
L 113.689091 159.878084 
L 113.912658 168.600937 
L 114.136225 167.005405 
L 114.583358 169.91988 
M 115.030491 172.187456 
L 115.254058 172.018302 
M 121.513924 207.174873 
L 121.737491 209.819616 
L 121.961058 210.409369 
L 122.184624 211.390004 
L 122.408191 206.950858 
L 122.631757 205.371327 
L 122.855324 202.488854 
L 123.078891 202.92774 
L 123.526024 201.08762 
M 123.973157 206.827422 
L 124.196724 202.161976 
L 124.420291 203.892374 
L 124.643857 202.150546 
M 125.314557 202.925454 
L 125.538124 199.245215 
L 125.761691 203.547208 
L 125.985257 210.944261 
L 126.208824 211.703167 
L 126.43239 213.289556 
L 126.655957 215.868009 
L 126.879524 214.715934 
L 127.10309 216.322896 
M 129.562324 220.62489 
L 129.78589 221.082063 
L 130.009457 221.996408 
L 130.233024 225.06175 
L 130.45659 223.804525 
L 130.680157 228.607123 
L 130.903723 228.131664 
L 131.12729 236.607643 
L 131.350857 228.668841 
L 131.574423 229.503181 
L 132.245123 216.048592 
L 132.46869 217.212097 
L 132.692257 220.933481 
L 132.915823 210.039059 
L 133.13939 213.303271 
L 133.362957 211.348858 
L 133.586523 206.130233 
L 133.81009 207.02172 
L 134.033657 206.317674 
M 134.927923 207.613758 
L 135.15149 212.194628 
L 135.375056 210.589952 
L 135.598623 218.341313 
L 135.82219 217.671555 
L 136.045756 218.894492 
L 136.269323 218.654476 
L 136.49289 221.578095 
M 138.057856 215.813149 
L 138.50499 223.514221 
L 138.728556 225.029748 
L 139.17569 218.883062 
L 139.399256 219.312805 
L 139.622823 218.062438 
L 139.846389 221.214643 
L 140.069956 220.599745 
L 140.293523 227.269893 
L 140.517089 220.044281 
L 140.740656 222.707311 
L 140.964223 223.242203 
L 141.187789 222.412435 
L 141.411356 224.263984 
L 141.634923 224.659438 
L 141.858489 223.802239 
L 142.082056 223.660516 
L 142.305623 221.200927 
L 142.529189 220.707181 
L 142.752756 221.258074 
L 142.976323 220.62489 
L 143.199889 221.527806 
L 143.423456 220.448879 
L 143.647022 220.922052 
L 143.870589 223.623942 
L 144.317722 224.378277 
L 144.764856 218.197304 
L 144.988422 218.640761 
L 145.211989 220.124286 
L 145.435556 218.766483 
L 145.659122 220.179147 
L 145.882689 220.073997 
L 146.106256 221.356366 
L 146.329822 221.598668 
L 146.553389 224.131404 
L 146.776956 222.46501 
L 147.000522 222.942755 
L 147.224089 219.719688 
L 147.671222 219.88427 
L 147.894789 219.033929 
L 148.118355 221.029488 
L 148.341922 219.568821 
L 148.565489 219.92313 
L 148.789055 225.848087 
L 149.236189 209.463022 
L 149.683322 216.482906 
L 150.130455 227.578485 
L 150.354022 228.005941 
L 150.577589 223.52565 
L 150.801155 227.1556 
L 151.024722 220.117428 
L 151.248289 222.45358 
L 151.471855 218.348171 
L 151.695422 220.444307 
L 152.142555 217.842995 
L 152.366122 219.19394 
L 152.813255 214.875945 
L 153.036822 213.730728 
M 153.707522 216.770925 
L 153.931088 216.076023 
L 154.154655 214.930806 
L 154.378222 217.010941 
L 154.601788 217.870425 
L 154.825355 223.175913 
L 155.048922 218.126442 
L 155.272488 218.894492 
L 155.719622 223.425072 
L 155.943188 224.899454 
M 156.613888 227.057308 
L 156.837455 228.159094 
M 157.284588 228.650555 
L 157.508155 228.184239 
L 157.731721 223.827384 
L 157.955288 224.913169 
L 158.178855 231.384447 
L 158.402421 230.038073 
L 158.625988 226.350976 
L 158.849555 233.684025 
L 159.520255 211.433435 
L 159.967388 220.32087 
L 160.190955 222.394148 
L 160.414521 227.144171 
L 160.638088 225.820656 
L 161.085221 226.302973 
L 161.308788 226.638995 
L 161.532354 231.599318 
L 161.755921 231.622176 
L 162.203054 229.807201 
L 162.426621 236.875089 
M 166.227254 247.163758 
L 166.450821 248.171823 
L 166.674387 246.505429 
M 167.345087 249.097598 
L 167.568654 247.728366 
L 167.792221 250.697702 
L 168.015787 246.793448 
L 168.239354 246.52143 
L 168.686487 252.348095 
L 168.910054 252.645257 
L 169.133621 254.720821 
L 169.357187 255.47287 
L 169.580754 255.767746 
M 170.251454 255.838608 
L 170.47502 258.165616 
L 170.698587 256.204346 
L 170.922154 255.502586 
M 171.81642 259.692572 
L 172.039987 258.730224 
L 172.48712 262.181877 
L 172.710687 256.965538 
L 173.15782 262.101872 
L 173.381387 261.050375 
L 173.604953 262.453895 
L 173.82852 262.426464 
L 174.052087 261.916717 
L 174.275653 262.090443 
L 174.49922 261.457259 
L 174.722787 265.009489 
L 174.946353 264.659752 
L 175.16992 262.899638 
L 175.393487 260.078883 
L 175.617053 262.37389 
L 175.84062 260.593202 
L 176.064187 262.0973 
L 176.287753 262.602476 
L 176.51132 264.975201 
L 176.958453 271.47391 
L 177.18202 271.268182 
L 177.405587 268.863454 
L 177.85272 272.920861 
L 178.076286 274.539252 
M 179.641253 274.701548 
L 180.088386 277.689171 
L 180.311953 277.199996 
M 180.759086 276.994268 
L 180.982653 275.789619 
L 181.20622 275.245583 
L 181.429786 278.413789 
L 181.653353 277.702886 
L 181.87692 280.925953 
L 182.100486 282.503198 
L 182.324053 281.588853 
L 182.547619 283.399256 
L 182.771186 281.257403 
L 182.994753 286.855481 
L 183.218319 284.213023 
L 183.441886 287.047493 
L 183.665453 282.354617 
L 183.889019 281.89973 
L 184.112586 284.83935 
L 184.336153 283.808426 
L 184.559719 286.464598 
L 184.783286 285.650831 
L 185.006853 293.991945 
L 185.230419 295.578334 
L 185.453986 293.927941 
L 185.677553 296.248091 
L 185.901119 292.94502 
L 186.124686 297.715615 
L 186.348253 287.557241 
L 186.571819 293.164462 
L 186.795386 286.2703 
L 187.018952 282.930654 
L 187.242519 286.505744 
L 187.466086 281.796866 
L 187.689652 280.139616 
L 187.913219 277.574878 
L 188.136786 281.831154 
L 188.360352 279.421855 
L 188.583919 280.875664 
L 188.807486 284.869066 
L 189.031052 281.428842 
L 189.254619 282.708926 
L 189.478186 280.141902 
L 189.925319 272.045375 
L 190.148886 270.673858 
L 190.372452 274.818127 
L 190.596019 276.367942 
L 190.819585 280.713367 
L 191.043152 280.311056 
L 191.490285 282.498626 
L 191.713852 285.099938 
L 191.937419 284.492996 
L 192.384552 286.119433 
L 192.608119 287.67382 
M 193.949519 285.353669 
L 194.173085 284.809634 
L 194.620219 285.934278 
L 194.843785 285.627973 
L 195.067352 285.707978 
L 195.290918 286.476028 
L 195.514485 286.085145 
L 195.738052 285.01079 
L 195.961618 286.761761 
L 196.185185 287.058923 
L 196.408752 287.662391 
L 196.632318 287.765254 
L 196.855885 288.421297 
M 197.303018 287.769826 
L 197.526585 288.823609 
M 197.973718 288.464728 
L 198.197285 287.934408 
L 198.420852 288.064702 
L 198.867985 287.893263 
L 199.091552 288.787035 
L 199.315118 290.147123 
L 199.538685 290.425999 
L 199.762251 291.14376 
L 199.985818 291.40892 
L 200.209385 291.390633 
M 202.445051 292.723291 
L 202.668618 293.006738 
L 202.892185 292.04439 
L 203.115751 294.4034 
L 203.339318 294.565696 
L 203.562885 294.33711 
L 203.786451 295.0663 
L 204.010018 294.085665 
L 204.233584 295.934928 
L 204.457151 294.654845 
L 204.680718 294.93372 
L 204.904284 294.695991 
L 205.127851 295.022869 
L 205.351418 295.114303 
L 205.574984 294.986295 
L 205.798551 295.148591 
L 206.245684 294.492549 
L 206.469251 296.300666 
L 206.692818 296.659547 
L 206.916384 296.206946 
L 207.139951 296.225233 
L 207.363518 295.340604 
L 207.587084 295.854923 
L 207.810651 297.610466 
M 208.257784 297.896199 
L 208.481351 297.804764 
M 209.375617 297.722473 
L 209.599184 299.971762 
L 209.822751 300.095199 
M 210.940584 301.014116 
L 211.164151 301.164983 
M 212.281984 302.07247 
L 212.50555 301.869028 
L 212.729117 303.17197 
L 212.952684 302.643936 
L 213.17625 303.135396 
L 213.623384 301.469002 
L 213.84695 301.219843 
L 214.070517 301.416427 
L 214.51765 300.488367 
L 214.741217 300.474652 
L 214.964784 300.737526 
L 215.411917 301.773022 
L 215.635484 301.523863 
L 215.85905 304.03374 
L 216.082617 305.082951 
L 216.306184 304.319473 
L 216.52975 304.436052 
M 217.647583 303.411986 
L 217.87115 303.469132 
L 218.094717 304.237182 
L 218.318283 303.571996 
L 218.54185 306.136734 
M 218.988983 308.306018 
L 219.21255 306.939072 
L 219.436117 307.990569 
L 219.88325 306.433896 
L 220.106817 307.432819 
L 220.55395 308.141436 
L 220.777517 305.764139 
L 221.22465 304.042884 
L 221.448216 302.504498 
L 221.671783 302.648508 
M 222.789616 303.44856 
L 223.013183 304.106888 
L 223.23675 303.709148 
L 223.460316 303.816583 
L 223.683883 304.417765 
L 224.131016 304.296615 
L 224.354583 304.600634 
M 225.919549 304.625779 
L 226.366683 305.297823 
L 226.590249 306.20531 
M 227.484516 307.384815 
L 227.708083 307.60883 
L 227.931649 307.663691 
L 228.155216 309.458093 
M 229.720182 309.743826 
L 229.943749 310.315292 
L 230.167316 309.922123 
M 230.838016 310.811324 
L 231.061582 310.530163 
L 231.508716 309.430663 
L 231.732282 308.93463 
L 232.179416 307.165373 
L 232.402982 307.921993 
L 232.850116 305.992725 
M 237.768582 300.390075 
L 237.992148 299.176282 
L 238.215715 298.826545 
L 238.439282 298.698536 
L 238.662848 299.347722 
L 238.886415 298.769398 
L 239.109982 298.961411 
L 239.333548 299.576308 
L 239.557115 299.494017 
L 239.780682 300.778672 
L 240.004248 300.943254 
L 240.451382 302.093043 
L 240.674948 302.264483 
L 240.898515 302.179906 
M 241.569215 300.563801 
L 241.792782 302.744514 
L 242.016348 302.445066 
M 242.910615 304.065743 
L 243.134181 305.460119 
L 243.357748 305.775568 
M 244.252015 306.831637 
L 244.475581 306.772204 
M 245.369848 306.699057 
L 245.593415 306.335604 
L 245.816981 306.221311 
L 246.040548 307.003076 
L 246.264115 306.367606 
L 246.487681 306.804206 
L 246.711248 306.644196 
L 247.158381 307.663691 
L 247.381948 308.054573 
L 247.605514 309.133501 
L 247.829081 308.740332 
L 248.052648 308.911772 
L 248.276214 307.63626 
L 248.499781 308.333449 
L 248.723348 308.50946 
M 250.064748 306.001868 
L 250.288314 306.529903 
L 250.511881 308.484315 
L 250.735448 308.60318 
L 250.959014 306.737916 
L 251.406147 308.587179 
L 251.853281 308.221441 
L 252.076847 308.589465 
L 252.747547 310.646742 
L 252.971114 309.830689 
M 253.641814 311.471938 
L 253.865381 312.093693 
M 254.983214 312.992037 
L 255.653914 309.021493 
L 255.87748 309.789543 
L 256.324614 308.57575 
M 258.336714 306.639624 
L 258.56028 306.020155 
L 258.783847 307.469392 
L 259.007414 307.624831 
L 259.23098 309.464951 
L 259.454547 309.531241 
L 259.678113 308.532319 
L 259.90168 309.533527 
L 260.125247 305.023519 
M 260.57238 297.535032 
L 260.795947 297.050429 
L 261.019513 299.283717 
L 261.24308 295.596621 
M 263.25518 300.179776 
L 263.702313 295.100588 
L 263.92588 297.027571 
L 264.149446 292.078678 
L 264.373013 289.756241 
L 264.59658 290.224843 
L 264.820146 287.856689 
L 265.26728 286.416595 
L 265.490846 288.805322 
L 265.714413 286.254299 
L 265.93798 288.862469 
L 266.161546 286.448597 
M 268.173646 281.485989 
L 268.397213 281.59571 
L 268.620779 281.255117 
L 269.067913 282.388905 
L 269.291479 281.742006 
L 269.515046 280.439064 
L 269.738613 280.658507 
L 270.185746 279.421855 
L 270.632879 281.30312 
L 270.856446 280.251623 
L 271.080013 279.810452 
L 271.303579 280.466494 
L 271.527146 280.26991 
L 271.974279 277.760033 
L 272.421412 279.106406 
L 272.644979 278.950967 
L 272.868546 279.890457 
L 273.092112 279.543006 
L 273.539246 281.613997 
L 273.762812 282.532914 
L 273.986379 284.704484 
M 274.657079 283.762708 
L 275.104212 282.850649 
L 275.327779 284.064442 
L 275.551346 284.368462 
L 275.998479 283.538694 
L 276.222046 283.874716 
L 276.669179 284.983359 
L 276.892745 285.321667 
L 277.116312 286.2703 
L 277.563445 286.805192 
L 277.787012 285.001646 
L 278.010579 284.357033 
L 278.457712 285.758267 
L 278.681279 285.598256 
L 279.128412 284.99936 
L 279.351979 285.074794 
L 279.575545 284.619907 
L 279.799112 285.874846 
L 280.022679 285.618829 
L 280.246245 285.182229 
L 280.469812 286.027999 
L 280.693379 284.720485 
L 280.916945 285.63483 
L 281.140512 286.073716 
L 281.587645 288.471586 
L 281.811212 287.23722 
L 282.034778 288.457871 
L 282.258345 287.552669 
L 282.481912 288.727603 
L 282.705478 287.294367 
L 282.929045 287.950409 
L 283.376178 283.838142 
L 283.599745 282.649493 
L 283.823312 283.138668 
L 284.046878 282.014023 
L 284.270445 281.975164 
L 284.494012 281.597996 
L 284.717578 282.62892 
L 284.941145 282.587775 
M 286.506111 283.721563 
L 286.729678 284.962786 
L 286.953245 284.779917 
M 289.412478 284.238168 
L 289.636044 284.427895 
L 289.859611 283.147811 
L 290.530311 285.765124 
L 290.977444 289.351643 
L 291.201011 290.8786 
L 291.424578 290.688873 
L 291.648144 291.200906 
L 291.871711 290.874028 
L 292.095278 291.127759 
M 293.436678 288.579022 
L 293.660244 288.311576 
L 293.883811 289.694523 
L 294.107377 289.692237 
L 294.330944 288.983619 
L 294.554511 290.894601 
L 294.778077 290.512862 
L 295.001644 293.37019 
L 295.225211 293.63535 
L 295.672344 290.894601 
L 295.895911 291.098042 
L 296.119477 292.080963 
L 296.343044 289.671664 
L 296.566611 292.012388 
L 296.790177 291.059183 
L 297.013744 286.725187 
L 297.237311 289.356215 
L 297.684444 285.792555 
L 297.908011 285.559397 
L 298.131577 287.520667 
L 298.355144 285.353669 
L 299.025844 285.986853 
L 299.24941 285.518251 
L 299.696544 287.479521 
L 300.143677 287.255507 
L 300.367244 288.743604 
L 300.59081 288.540162 
L 300.814377 289.52994 
L 301.037944 287.292081 
L 301.26151 286.36402 
L 301.485077 286.245156 
L 301.708644 286.393737 
L 301.93221 287.257793 
L 302.155777 287.404088 
L 302.379343 285.67369 
L 302.60291 286.871482 
L 302.826477 286.263442 
L 303.050043 287.424661 
L 303.497177 290.485431 
L 303.720743 289.559657 
L 303.94431 292.887873 
L 304.167877 290.30942 
L 304.391443 291.045468 
L 304.61501 293.761073 
L 304.838577 289.230492 
L 305.28571 286.423453 
L 305.509277 287.127499 
L 305.732843 286.183437 
L 305.95641 286.988061 
L 306.179977 288.583593 
L 306.403543 288.709316 
L 306.62711 287.998412 
L 307.29781 291.306056 
L 307.521376 291.242052 
L 307.744943 292.295835 
L 307.96851 291.639792 
L 308.192076 291.388347 
M 312.886976 298.113356 
L 313.110543 298.837974 
L 313.334109 298.723681 
L 313.781243 299.695173 
L 314.004809 299.942046 
L 314.228376 297.423025 
L 314.451943 296.730409 
L 314.675509 297.711044 
L 314.899076 294.444546 
L 315.122643 293.660495 
M 316.016909 293.67421 
L 316.240476 294.295965 
L 316.464042 294.238818 
M 317.358309 293.203322 
L 317.581876 295.676626 
L 318.029009 294.142812 
L 318.252576 294.691419 
L 318.476142 294.90629 
L 318.699709 295.534902 
L 318.923276 295.246884 
L 319.146842 295.336032 
L 319.593975 296.467534 
L 319.817542 297.877912 
M 320.711809 297.601322 
L 320.935375 297.395595 
M 325.406708 301.290705 
L 325.630275 300.129487 
L 325.853842 299.784321 
L 326.077408 299.738604 
L 326.524542 303.887445 
L 326.748108 303.665717 
L 327.195242 303.97888 
L 327.418808 305.192673 
L 327.642375 304.532059 
L 327.865942 304.70807 
L 328.089508 304.685211 
L 328.313075 303.645144 
L 328.536641 303.878302 
M 329.654475 304.849793 
L 329.878041 304.710356 
L 330.325175 306.230455 
L 330.548741 305.693277 
L 330.772308 305.700134 
L 331.219441 304.440624 
L 331.443008 304.116032 
L 331.666575 306.959645 
L 332.113708 303.267976 
L 332.337275 303.681718 
L 332.560841 303.213116 
L 332.784408 304.388049 
L 333.007974 304.554917 
L 333.231541 305.032663 
L 333.455108 305.009804 
L 333.678674 305.462405 
L 333.902241 305.032663 
L 334.125808 305.638416 
L 334.349374 304.37662 
L 334.572941 304.81322 
L 334.796508 304.630351 
L 335.020074 304.184607 
L 335.243641 304.321759 
L 335.467208 304.870366 
L 335.690774 304.673782 
L 335.914341 305.064665 
L 336.137908 304.904654 
L 336.361474 305.892147 
L 336.585041 305.462405 
L 336.808607 306.977932 
L 337.032174 307.47625 
L 337.255741 309.062639 
M 338.597141 307.921993 
L 338.820707 309.103784 
L 339.044274 307.830559 
L 339.267841 307.446534 
L 339.491407 306.408752 
L 339.714974 306.157307 
L 339.938541 306.701342 
L 340.162107 306.648768 
L 340.385674 307.951709 
L 340.609241 307.78027 
L 341.503507 308.413454 
L 341.727074 306.049871 
L 341.95064 308.523175 
L 342.174207 308.930059 
L 342.397774 308.776906 
L 342.62134 309.775828 
L 342.844907 309.611246 
L 343.068474 309.613532 
L 343.29204 309.494667 
L 343.739174 311.005622 
L 343.96274 310.93476 
L 344.186307 311.286783 
L 344.409874 310.859327 
L 344.63344 311.522227 
M 345.30414 311.337072 
L 345.527707 311.908538 
L 345.751273 313.376062 
M 349.551907 319.824481 
L 349.99904 319.927345 
M 350.446173 320.366231 
L 350.66974 320.181076 
M 351.116873 319.6759 
L 351.34044 319.577608 
L 351.564006 319.744476 
L 351.787573 319.573036 
L 352.01114 317.83578 
L 352.458273 317.602622 
L 352.68184 318.07351 
L 353.128973 317.865497 
M 354.470373 318.363815 
L 354.917506 319.168439 
L 355.141073 319.34445 
L 355.364639 319.328449 
M 357.600306 318.743268 
L 357.823873 319.417598 
L 358.047439 319.639326 
L 358.271006 317.291745 
L 358.494572 317.220883 
L 358.718139 318.098655 
L 358.941706 318.094083 
L 359.165272 317.694057 
L 359.612406 317.83578 
M 360.730239 315.794505 
L 360.953806 316.464263 
M 361.400939 316.562555 
L 361.624506 317.652911 
L 361.848072 317.460899 
L 362.071639 317.060873 
L 362.518772 317.970646 
L 362.742339 318.075796 
L 362.965905 318.587829 
M 364.530872 318.571828 
L 364.978005 318.087225 
L 365.201572 319.042716 
L 365.425139 319.353593 
L 365.648705 318.74784 
L 365.872272 319.291875 
L 366.319405 317.138592 
L 366.542972 317.63691 
L 366.766538 315.792219 
L 366.990105 317.51576 
L 367.437238 318.418676 
L 367.660805 318.569542 
L 367.884372 319.378738 
L 368.331505 320.04621 
L 368.555072 320.562815 
L 368.778638 321.76975 
L 369.002205 322.130917 
L 369.225772 321.621169 
M 370.790738 321.534307 
L 371.237871 321.097707 
L 371.685005 321.129709 
L 372.579271 321.490875 
L 372.802838 321.664601 
L 373.026405 322.90811 
L 373.249971 323.491005 
L 373.473538 322.501227 
M 376.156338 326.115176 
L 376.379904 326.181466 
M 376.827038 327.171244 
L 377.050604 327.127813 
L 377.274171 327.415832 
L 377.497738 327.38383 
L 377.721304 327.612416 
L 377.944871 327.525553 
L 378.168438 327.671848 
L 378.392004 327.424975 
M 378.839138 327.271822 
L 379.062704 327.328969 
M 379.509838 327.01352 
L 380.180537 326.94723 
L 380.627671 327.34497 
L 380.851237 327.399831 
L 381.074804 327.902721 
L 381.521937 327.747282 
L 381.745504 327.783856 
M 383.757604 328.291317 
L 383.98117 328.394181 
L 384.204737 328.181596 
L 384.428304 328.316462 
L 384.65187 328.174738 
L 384.875437 328.588479 
L 385.546137 328.430755 
L 385.769704 328.545048 
L 385.99327 328.451328 
L 386.216837 328.229599 
L 387.111104 328.631911 
L 387.33467 328.300461 
L 387.781804 328.199883 
L 388.00537 328.963361 
L 388.228937 329.235379 
L 388.452503 329.148516 
L 388.899637 329.30624 
M 392.476703 330.421741 
L 392.70027 330.545178 
M 396.277336 331.738398 
L 396.500903 331.930411 
L 396.72447 331.740684 
L 397.395169 331.91441 
L 397.618736 332.049276 
L 397.842303 331.779544 
L 398.065869 332.053848 
L 399.407269 331.930411 
L 399.854403 332.174998 
L 400.077969 332.28472 
L 400.301536 332.241288 
L 400.525103 332.460731 
L 400.748669 332.476732 
M 404.996436 334.277992 
L 405.443569 334.287136 
L 406.114269 334.159127 
L 406.561402 334.188843 
L 406.784969 334.211702 
L 407.008535 334.41743 
L 407.455669 334.458575 
M 407.902802 334.426573 
L 408.349935 334.426573 
L 408.573502 334.346568 
L 408.797069 334.465433 
L 409.020635 334.435717 
M 413.044835 335.14662 
L 413.491968 335.123761 
M 413.939102 335.368349 
L 414.386235 335.336347 
L 414.833368 335.404923 
L 415.280501 335.74323 
M 417.292601 336.161543 
L 417.739735 336.195831 
L 417.963301 335.912384 
L 418.186868 335.91467 
L 418.410434 336.198117 
L 418.857568 336.049536 
L 419.081134 336.11354 
M 419.528268 336.255264 
L 420.198968 336.412988 
L 420.422534 336.056393 
L 420.869668 335.711228 
L 421.316801 335.836951 
L 421.540368 335.68837 
M 424.893867 335.073472 
L 425.341001 335.183194 
L 425.564567 335.071187 
L 425.788134 335.132905 
L 426.011701 334.938607 
L 426.235267 335.04147 
L 426.458834 334.895175 
L 426.682401 335.196909 
L 427.129534 335.123761 
L 427.576667 335.434639 
L 428.247367 335.542074 
L 428.470934 335.434639 
L 428.918067 335.51693 
M 430.259467 335.567219 
L 430.7066 335.398065 
M 431.153733 336.202689 
L 431.600867 336.049536 
L 432.048 336.282694 
L 432.271567 336.056393 
L 432.7187 336.104397 
L 433.165833 336.118112 
L 433.3894 336.344412 
M 434.0601 336.241548 
L 434.507233 336.355841 
M 434.954367 336.586714 
L 435.177933 336.650718 
M 440.767099 337.519346 
L 440.990666 337.533061 
L 441.214233 337.681642 
L 441.437799 337.471343 
L 441.884933 337.437055 
L 442.108499 337.624495 
L 442.332066 337.974232 
L 442.779199 337.702215 
L 443.449899 337.334191 
L 444.120599 337.233613 
L 444.791299 337.17418 
L 445.014866 337.357049 
L 445.238432 337.935373 
L 445.685566 337.95366 
L 446.132699 338.049666 
M 448.368365 338.022236 
L 448.591932 337.994805 
L 448.815499 338.095383 
L 449.486199 338.095383 
L 449.709765 338.173102 
L 450.827599 337.946802 
L 451.274732 338.010806 
L 451.721865 337.770791 
L 451.945432 337.807364 
M 453.510398 337.793649 
L 453.733965 337.784506 
L 453.957532 337.64964 
L 454.181098 337.702215 
M 454.628232 337.638211 
L 454.851798 337.521632 
L 455.522498 337.595968 
L 455.746065 337.494201 
L 456.416765 337.617638 
L 456.640332 337.871369 
L 458.205298 337.74336 
L 458.652431 337.84851 
M 459.323131 337.469057 
L 459.770265 337.574206 
M 460.440965 337.536444 
L 462.229498 337.560491 
L 463.794464 337.461102 
L 464.241598 337.613066 
L 465.135864 337.826749 
L 465.359431 337.702215 
L 465.582997 337.722787 
M 466.253697 337.489629 
L 466.924397 337.303286 
L 467.147964 337.382194 
L 467.371531 337.295331 
L 468.042231 337.427911 
L 468.489364 337.353575 
L 468.936497 337.455342 
L 469.160064 337.38448 
L 469.607197 337.539918 
L 469.830764 337.445101 
L 470.05433 337.567349 
L 471.172164 337.504442 
L 471.619297 337.553634 
L 472.06643 337.510202 
L 472.289997 337.512488 
M 475.196363 337.897702 
L 475.643497 337.889655 
L 476.537763 338.129671 
L 477.655597 338.070239 
L 477.879163 338.235918 
L 478.10273 338.223391 
L 478.549863 338.00852 
L 478.996996 337.95366 
L 479.891263 337.889655 
L 480.338396 337.94223 
L 481.45623 338.122813 
L 481.679796 337.978804 
L 482.12693 337.871369 
L 483.244763 337.898799 
L 485.256863 337.999377 
L 485.480429 338.10791 
M 486.374696 338.088526 
L 486.598263 338.033665 
M 487.045396 337.987948 
L 487.939662 338.143386 
L 488.163229 338.337685 
L 488.610362 338.282824 
L 489.057496 338.385688 
L 489.281062 338.430216 
M 491.516729 338.515982 
L 491.740295 338.435977 
L 491.963862 338.512507 
L 493.081695 338.392545 
L 493.752395 338.37883 
M 495.540928 338.298825 
L 495.764495 338.239393 
M 497.329462 338.110287 
L 498.223728 338.214248 
L 498.447295 338.162862 
L 498.894428 338.248536 
L 499.788695 338.198247 
M 500.459395 338.264537 
L 501.130095 338.266823 
M 503.142195 338.559413 
L 504.260028 338.369687 
M 506.272128 338.369687 
L 507.166394 338.323969 
L 507.613528 338.408546 
M 508.060661 338.355972 
L 508.507794 338.333113 
L 509.178494 338.131957 
M 509.625627 338.157101 
L 510.296327 338.175388 
L 510.967027 338.259965 
L 512.084861 338.266823 
M 514.544094 338.472551 
L 514.991227 338.362829 
L 515.214794 338.48398 
L 515.43836 338.381116 
L 515.885494 338.438263 
L 516.10906 338.3514 
L 516.77976 338.387974 
L 517.897593 338.24625 
L 519.015427 338.392545 
L 519.686127 338.408546 
L 520.13326 338.298825 
L 520.356827 338.447406 
L 520.580393 338.461121 
L 520.80396 338.328541 
L 521.921793 338.543412 
L 523.039626 338.365115 
L 523.48676 338.440548 
L 523.933893 338.536555 
L 524.15746 338.554842 
L 524.381026 338.422262 
L 525.275293 338.408546 
L 525.722426 338.385688 
L 526.169559 338.408546 
L 526.616693 338.333113 
M 527.287393 338.349114 
L 527.510959 338.317112 
L 527.958093 338.518268 
L 528.181659 338.515982 
L 528.405226 338.641704 
M 531.758726 338.959439 
L 532.876559 338.950296 
L 533.770826 339.009728 
L 533.994392 338.870291 
L 534.888659 338.984584 
L 535.335792 338.959439 
L 536.006492 338.993727 
L 536.900759 339.10802 
M 537.795025 339.156024 
L 538.242159 339.05316 
L 538.465725 339.134262 
L 539.136425 338.961725 
L 539.807125 339.044016 
L 540.477825 339.064589 
L 540.924958 339.105735 
L 541.372092 339.08059 
L 542.042792 338.902293 
L 542.937058 339.05316 
L 543.160625 339.285129 
L 543.607758 339.226885 
L 545.396291 339.093208 
L 546.066991 338.98687 
M 546.961258 339.087448 
L 547.631958 339.093208 
L 548.079091 339.076018 
L 548.973358 339.057731 
L 550.761891 338.999396 
M 551.432591 338.984584 
L 551.656157 338.996013 
M 552.103291 339.021158 
L 552.550424 339.078304 
L 552.773991 339.152549 
M 555.903924 339.192597 
L 556.351057 339.152549 
L 556.574624 339.17431 
L 557.021757 339.325177 
L 558.363157 339.236029 
L 559.033857 339.316034 
M 559.704557 339.350322 
L 560.598823 339.354894 
L 561.269523 339.25203 
L 563.728757 339.400611 
M 564.84659 339.314937 
L 566.18799 339.325177 
L 566.635123 339.370895 
L 567.082256 339.307988 
L 567.52939 339.37318 
L 567.976523 339.30689 
L 570.882889 339.30689 
L 571.106456 339.354894 
L 571.330023 339.286318 
L 571.553589 339.430327 
L 572.671423 339.453186 
M 575.801356 339.617768 
L 576.472056 339.722918 
L 576.919189 339.761777 
M 577.366322 339.838125 
L 578.484155 339.752634 
L 579.601989 339.759491 
L 579.601989 339.759491 
" clip-path="url(#pf29ae3e1c4)" style="fill: none; stroke: #1e90ff; stroke-linecap: square"/>
   </g>
   <g id="patch_3">
    <path d="M 46.965625 354.958125 
L 46.965625 22.318125 
" style="fill: none; stroke: #000000; stroke-width: 0.8; stroke-linejoin: miter; stroke-linecap: square"/>
   </g>
   <g id="patch_4">
    <path d="M 604.965625 354.958125 
L 604.965625 22.318125 
" style="fill: none; stroke: #000000; stroke-width: 0.8; stroke-linejoin: miter; stroke-linecap: square"/>
   </g>
   <g id="patch_5">
    <path d="M 46.965625 354.958125 
L 604.965625 354.958125 
" style="fill: none; stroke: #000000; stroke-width: 0.8; stroke-linejoin: miter; stroke-linecap: square"/>
   </g>
   <g id="patch_6">
    <path d="M 46.965625 22.318125 
L 604.965625 22.318125 
" style="fill: none; stroke: #000000; stroke-width: 0.8; stroke-linejoin: miter; stroke-linecap: square"/>
   </g>
   <g id="text_16">
    <!-- NVDA, Relative Strength Index (RSI), NVDA -->
    <g transform="translate(197.095 16.318125)scale(0.12 -0.12)">
     <defs>
      <path id="DejaVuSans-4e" d="M 628 4666 
L 1478 4666 
L 3547 763 
L 3547 4666 
L 4159 4666 
L 4159 0 
L 3309 0 
L 1241 3903 
L 1241 0 
L 628 0 
L 628 4666 
z
" transform="scale(0.015625)"/>
      <path id="DejaVuSans-56" d="M 1831 0 
L 50 4666 
L 709 4666 
L 2188 738 
L 3669 4666 
L 4325 4666 
L 2547 0 
L 1831 0 
z
" transform="scale(0.015625)"/>
      <path id="DejaVuSans-41" d="M 2188 4044 
L 1331 1722 
L 3047 1722 
L 2188 4044 
z
M 1831 4666 
L 2547 4666 
L 4325 0 
L 3669 0 
L 3244 1197 
L 1141 1197 
L 716 0 
L 50 0 
L 1831 4666 
z
" transform="scale(0.015625)"/>
      <path id="DejaVuSans-2c" d="M 750 794 
L 1409 794 
L 1409 256 
L 897 -744 
L 494 -744 
L 750 256 
L 750 794 
z
" transform="scale(0.015625)"/>
      <path id="DejaVuSans-52" d="M 2841 2188 
Q 3044 2119 3236 1894 
Q 3428 1669 3622 1275 
L 4263 0 
L 3584 0 
L 2988 1197 
Q 2756 1666 2539 1819 
Q 2322 1972 1947 1972 
L 1259 1972 
L 1259 0 
L 628 0 
L 628 4666 
L 2053 4666 
Q 2853 4666 3247 4331 
Q 3641 3997 3641 3322 
Q 3641 2881 3436 2590 
Q 3231 2300 2841 2188 
z
M 1259 4147 
L 1259 2491 
L 2053 2491 
Q 2509 2491 2742 2702 
Q 2975 2913 2975 3322 
Q 2975 3731 2742 3939 
Q 2509 4147 2053 4147 
L 1259 4147 
z
" transform="scale(0.015625)"/>
      <path id="DejaVuSans-6c" d="M 603 4863 
L 1178 4863 
L 1178 0 
L 603 0 
L 603 4863 
z
" transform="scale(0.015625)"/>
      <path id="DejaVuSans-76" d="M 191 3500 
L 800 3500 
L 1894 563 
L 2988 3500 
L 3597 3500 
L 2284 0 
L 1503 0 
L 191 3500 
z
" transform="scale(0.015625)"/>
      <path id="DejaVuSans-6e" d="M 3513 2113 
L 3513 0 
L 2938 0 
L 2938 2094 
Q 2938 2591 2744 2837 
Q 2550 3084 2163 3084 
Q 1697 3084 1428 2787 
Q 1159 2491 1159 1978 
L 1159 0 
L 581 0 
L 581 3500 
L 1159 3500 
L 1159 2956 
Q 1366 3272 1645 3428 
Q 1925 3584 2291 3584 
Q 2894 3584 3203 3211 
Q 3513 2838 3513 2113 
z
" transform="scale(0.015625)"/>
      <path id="DejaVuSans-67" d="M 2906 1791 
Q 2906 2416 2648 2759 
Q 2391 3103 1925 3103 
Q 1463 3103 1205 2759 
Q 947 2416 947 1791 
Q 947 1169 1205 825 
Q 1463 481 1925 481 
Q 2391 481 2648 825 
Q 2906 1169 2906 1791 
z
M 3481 434 
Q 3481 -459 3084 -895 
Q 2688 -1331 1869 -1331 
Q 1566 -1331 1297 -1286 
Q 1028 -1241 775 -1147 
L 775 -588 
Q 1028 -725 1275 -790 
Q 1522 -856 1778 -856 
Q 2344 -856 2625 -561 
Q 2906 -266 2906 331 
L 2906 616 
Q 2728 306 2450 153 
Q 2172 0 1784 0 
Q 1141 0 747 490 
Q 353 981 353 1791 
Q 353 2603 747 3093 
Q 1141 3584 1784 3584 
Q 2172 3584 2450 3431 
Q 2728 3278 2906 2969 
L 2906 3500 
L 3481 3500 
L 3481 434 
z
" transform="scale(0.015625)"/>
      <path id="DejaVuSans-68" d="M 3513 2113 
L 3513 0 
L 2938 0 
L 2938 2094 
Q 2938 2591 2744 2837 
Q 2550 3084 2163 3084 
Q 1697 3084 1428 2787 
Q 1159 2491 1159 1978 
L 1159 0 
L 581 0 
L 581 4863 
L 1159 4863 
L 1159 2956 
Q 1366 3272 1645 3428 
Q 1925 3584 2291 3584 
Q 2894 3584 3203 3211 
Q 3513 2838 3513 2113 
z
" transform="scale(0.015625)"/>
      <path id="DejaVuSans-49" d="M 628 4666 
L 1259 4666 
L 1259 0 
L 628 0 
L 628 4666 
z
" transform="scale(0.015625)"/>
      <path id="DejaVuSans-64" d="M 2906 2969 
L 2906 4863 
L 3481 4863 
L 3481 0 
L 2906 0 
L 2906 525 
Q 2725 213 2448 61 
Q 2172 -91 1784 -91 
Q 1150 -91 751 415 
Q 353 922 353 1747 
Q 353 2572 751 3078 
Q 1150 3584 1784 3584 
Q 2172 3584 2448 3432 
Q 2725 3281 2906 2969 
z
M 947 1747 
Q 947 1113 1208 752 
Q 1469 391 1925 391 
Q 2381 391 2643 752 
Q 2906 1113 2906 1747 
Q 2906 2381 2643 2742 
Q 2381 3103 1925 3103 
Q 1469 3103 1208 2742 
Q 947 2381 947 1747 
z
" transform="scale(0.015625)"/>
      <path id="DejaVuSans-78" d="M 3513 3500 
L 2247 1797 
L 3578 0 
L 2900 0 
L 1881 1375 
L 863 0 
L 184 0 
L 1544 1831 
L 300 3500 
L 978 3500 
L 1906 2253 
L 2834 3500 
L 3513 3500 
z
" transform="scale(0.015625)"/>
     </defs>
     <use xlink:href="#DejaVuSans-4e"/>
     <use xlink:href="#DejaVuSans-56" x="74.804688"/>
     <use xlink:href="#DejaVuSans-44" x="143.212891"/>
     <use xlink:href="#DejaVuSans-41" x="218.464844"/>
     <use xlink:href="#DejaVuSans-2c" x="286.873047"/>
     <use xlink:href="#DejaVuSans-20" x="318.660156"/>
     <use xlink:href="#DejaVuSans-52" x="350.447266"/>
     <use xlink:href="#DejaVuSans-65" x="415.429688"/>
     <use xlink:href="#DejaVuSans-6c" x="476.953125"/>
     <use xlink:href="#DejaVuSans-61" x="504.736328"/>
     <use xlink:href="#DejaVuSans-74" x="566.015625"/>
     <use xlink:href="#DejaVuSans-69" x="605.224609"/>
     <use xlink:href="#DejaVuSans-76" x="633.007812"/>
     <use xlink:href="#DejaVuSans-65" x="692.1875"/>
     <use xlink:href="#DejaVuSans-20" x="753.710938"/>
     <use xlink:href="#DejaVuSans-53" x="785.498047"/>
     <use xlink:href="#DejaVuSans-74" x="848.974609"/>
     <use xlink:href="#DejaVuSans-72" x="888.183594"/>
     <use xlink:href="#DejaVuSans-65" x="927.046875"/>
     <use xlink:href="#DejaVuSans-6e" x="988.570312"/>
     <use xlink:href="#DejaVuSans-67" x="1051.949219"/>
     <use xlink:href="#DejaVuSans-74" x="1115.425781"/>
     <use xlink:href="#DejaVuSans-68" x="1154.634766"/>
     <use xlink:href="#DejaVuSans-20" x="1218.013672"/>
     <use xlink:href="#DejaVuSans-49" x="1249.800781"/>
     <use xlink:href="#DejaVuSans-6e" x="1279.292969"/>
     <use xlink:href="#DejaVuSans-64" x="1342.671875"/>
     <use xlink:href="#DejaVuSans-65" x="1406.148438"/>
     <use xlink:href="#DejaVuSans-78" x="1465.921875"/>
     <use xlink:href="#DejaVuSans-20" x="1525.101562"/>
     <use xlink:href="#DejaVuSans-28" x="1556.888672"/>
     <use xlink:href="#DejaVuSans-52" x="1595.902344"/>
     <use xlink:href="#DejaVuSans-53" x="1665.384766"/>
     <use xlink:href="#DejaVuSans-49" x="1728.861328"/>
     <use xlink:href="#DejaVuSans-29" x="1758.353516"/>
     <use xlink:href="#DejaVuSans-2c" x="1797.367188"/>
     <use xlink:href="#DejaVuSans-20" x="1829.154297"/>
     <use xlink:href="#DejaVuSans-4e" x="1860.941406"/>
     <use xlink:href="#DejaVuSans-56" x="1935.746094"/>
     <use xlink:href="#DejaVuSans-44" x="2004.154297"/>
     <use xlink:href="#DejaVuSans-41" x="2079.40625"/>
    </g>
   </g>
   <g id="legend_1">
    <g id="patch_7">
     <path d="M 448.05625 74.3525 
L 597.965625 74.3525 
Q 599.965625 74.3525 599.965625 72.3525 
L 599.965625 29.318125 
Q 599.965625 27.318125 597.965625 27.318125 
L 448.05625 27.318125 
Q 446.05625 27.318125 446.05625 29.318125 
L 446.05625 72.3525 
Q 446.05625 74.3525 448.05625 74.3525 
z
" style="fill: #ffffff; opacity: 0.8; stroke: #cccccc; stroke-linejoin: miter"/>
    </g>
    <g id="line2d_25">
     <path d="M 450.05625 35.416562 
L 460.05625 35.416562 
L 470.05625 35.416562 
" style="fill: none; stroke: #00ff7f; stroke-linecap: square"/>
    </g>
    <g id="text_17">
     <!-- Oversold, RSI &lt;= 30 -->
     <g transform="translate(478.05625 38.916562)scale(0.1 -0.1)">
      <defs>
       <path id="DejaVuSans-4f" d="M 2522 4238 
Q 1834 4238 1429 3725 
Q 1025 3213 1025 2328 
Q 1025 1447 1429 934 
Q 1834 422 2522 422 
Q 3209 422 3611 934 
Q 4013 1447 4013 2328 
Q 4013 3213 3611 3725 
Q 3209 4238 2522 4238 
z
M 2522 4750 
Q 3503 4750 4090 4092 
Q 4678 3434 4678 2328 
Q 4678 1225 4090 567 
Q 3503 -91 2522 -91 
Q 1538 -91 948 565 
Q 359 1222 359 2328 
Q 359 3434 948 4092 
Q 1538 4750 2522 4750 
z
" transform="scale(0.015625)"/>
       <path id="DejaVuSans-73" d="M 2834 3397 
L 2834 2853 
Q 2591 2978 2328 3040 
Q 2066 3103 1784 3103 
Q 1356 3103 1142 2972 
Q 928 2841 928 2578 
Q 928 2378 1081 2264 
Q 1234 2150 1697 2047 
L 1894 2003 
Q 2506 1872 2764 1633 
Q 3022 1394 3022 966 
Q 3022 478 2636 193 
Q 2250 -91 1575 -91 
Q 1294 -91 989 -36 
Q 684 19 347 128 
L 347 722 
Q 666 556 975 473 
Q 1284 391 1588 391 
Q 1994 391 2212 530 
Q 2431 669 2431 922 
Q 2431 1156 2273 1281 
Q 2116 1406 1581 1522 
L 1381 1569 
Q 847 1681 609 1914 
Q 372 2147 372 2553 
Q 372 3047 722 3315 
Q 1072 3584 1716 3584 
Q 2034 3584 2315 3537 
Q 2597 3491 2834 3397 
z
" transform="scale(0.015625)"/>
       <path id="DejaVuSans-6f" d="M 1959 3097 
Q 1497 3097 1228 2736 
Q 959 2375 959 1747 
Q 959 1119 1226 758 
Q 1494 397 1959 397 
Q 2419 397 2687 759 
Q 2956 1122 2956 1747 
Q 2956 2369 2687 2733 
Q 2419 3097 1959 3097 
z
M 1959 3584 
Q 2709 3584 3137 3096 
Q 3566 2609 3566 1747 
Q 3566 888 3137 398 
Q 2709 -91 1959 -91 
Q 1206 -91 779 398 
Q 353 888 353 1747 
Q 353 2609 779 3096 
Q 1206 3584 1959 3584 
z
" transform="scale(0.015625)"/>
       <path id="DejaVuSans-3c" d="M 4684 3150 
L 1459 2003 
L 4684 863 
L 4684 294 
L 678 1747 
L 678 2266 
L 4684 3719 
L 4684 3150 
z
" transform="scale(0.015625)"/>
       <path id="DejaVuSans-3d" d="M 678 2906 
L 4684 2906 
L 4684 2381 
L 678 2381 
L 678 2906 
z
M 678 1631 
L 4684 1631 
L 4684 1100 
L 678 1100 
L 678 1631 
z
" transform="scale(0.015625)"/>
      </defs>
      <use xlink:href="#DejaVuSans-4f"/>
      <use xlink:href="#DejaVuSans-76" x="78.710938"/>
      <use xlink:href="#DejaVuSans-65" x="137.890625"/>
      <use xlink:href="#DejaVuSans-72" x="199.414062"/>
      <use xlink:href="#DejaVuSans-73" x="240.527344"/>
      <use xlink:href="#DejaVuSans-6f" x="292.626953"/>
      <use xlink:href="#DejaVuSans-6c" x="353.808594"/>
      <use xlink:href="#DejaVuSans-64" x="381.591797"/>
      <use xlink:href="#DejaVuSans-2c" x="445.068359"/>
      <use xlink:href="#DejaVuSans-20" x="476.855469"/>
      <use xlink:href="#DejaVuSans-52" x="508.642578"/>
      <use xlink:href="#DejaVuSans-53" x="578.125"/>
      <use xlink:href="#DejaVuSans-49" x="641.601562"/>
      <use xlink:href="#DejaVuSans-20" x="671.09375"/>
      <use xlink:href="#DejaVuSans-3c" x="702.880859"/>
      <use xlink:href="#DejaVuSans-3d" x="786.669922"/>
      <use xlink:href="#DejaVuSans-20" x="870.458984"/>
      <use xlink:href="#DejaVuSans-33" x="902.246094"/>
      <use xlink:href="#DejaVuSans-30" x="965.869141"/>
     </g>
    </g>
    <g id="line2d_26">
     <path d="M 450.05625 50.094687 
L 460.05625 50.094687 
L 470.05625 50.094687 
" style="fill: none; stroke: #ff4500; stroke-linecap: square"/>
    </g>
    <g id="text_18">
     <!-- Overbought, RSI &gt;= 70 -->
     <g transform="translate(478.05625 53.594687)scale(0.1 -0.1)">
      <defs>
       <path id="DejaVuSans-62" d="M 3116 1747 
Q 3116 2381 2855 2742 
Q 2594 3103 2138 3103 
Q 1681 3103 1420 2742 
Q 1159 2381 1159 1747 
Q 1159 1113 1420 752 
Q 1681 391 2138 391 
Q 2594 391 2855 752 
Q 3116 1113 3116 1747 
z
M 1159 2969 
Q 1341 3281 1617 3432 
Q 1894 3584 2278 3584 
Q 2916 3584 3314 3078 
Q 3713 2572 3713 1747 
Q 3713 922 3314 415 
Q 2916 -91 2278 -91 
Q 1894 -91 1617 61 
Q 1341 213 1159 525 
L 1159 0 
L 581 0 
L 581 4863 
L 1159 4863 
L 1159 2969 
z
" transform="scale(0.015625)"/>
       <path id="DejaVuSans-75" d="M 544 1381 
L 544 3500 
L 1119 3500 
L 1119 1403 
Q 1119 906 1312 657 
Q 1506 409 1894 409 
Q 2359 409 2629 706 
Q 2900 1003 2900 1516 
L 2900 3500 
L 3475 3500 
L 3475 0 
L 2900 0 
L 2900 538 
Q 2691 219 2414 64 
Q 2138 -91 1772 -91 
Q 1169 -91 856 284 
Q 544 659 544 1381 
z
M 1991 3584 
L 1991 3584 
z
" transform="scale(0.015625)"/>
       <path id="DejaVuSans-3e" d="M 678 3150 
L 678 3719 
L 4684 2266 
L 4684 1747 
L 678 294 
L 678 863 
L 3897 2003 
L 678 3150 
z
" transform="scale(0.015625)"/>
       <path id="DejaVuSans-37" d="M 525 4666 
L 3525 4666 
L 3525 4397 
L 1831 0 
L 1172 0 
L 2766 4134 
L 525 4134 
L 525 4666 
z
" transform="scale(0.015625)"/>
      </defs>
      <use xlink:href="#DejaVuSans-4f"/>
      <use xlink:href="#DejaVuSans-76" x="78.710938"/>
      <use xlink:href="#DejaVuSans-65" x="137.890625"/>
      <use xlink:href="#DejaVuSans-72" x="199.414062"/>
      <use xlink:href="#DejaVuSans-62" x="240.527344"/>
      <use xlink:href="#DejaVuSans-6f" x="304.003906"/>
      <use xlink:href="#DejaVuSans-75" x="365.185547"/>
      <use xlink:href="#DejaVuSans-67" x="428.564453"/>
      <use xlink:href="#DejaVuSans-68" x="492.041016"/>
      <use xlink:href="#DejaVuSans-74" x="555.419922"/>
      <use xlink:href="#DejaVuSans-2c" x="594.628906"/>
      <use xlink:href="#DejaVuSans-20" x="626.416016"/>
      <use xlink:href="#DejaVuSans-52" x="658.203125"/>
      <use xlink:href="#DejaVuSans-53" x="727.685547"/>
      <use xlink:href="#DejaVuSans-49" x="791.162109"/>
      <use xlink:href="#DejaVuSans-20" x="820.654297"/>
      <use xlink:href="#DejaVuSans-3e" x="852.441406"/>
      <use xlink:href="#DejaVuSans-3d" x="936.230469"/>
      <use xlink:href="#DejaVuSans-20" x="1020.019531"/>
      <use xlink:href="#DejaVuSans-37" x="1051.806641"/>
      <use xlink:href="#DejaVuSans-30" x="1115.429688"/>
     </g>
    </g>
    <g id="line2d_27">
     <path d="M 450.05625 64.772812 
L 460.05625 64.772812 
L 470.05625 64.772812 
" style="fill: none; stroke: #1e90ff; stroke-linecap: square"/>
    </g>
    <g id="text_19">
     <!-- Neutral -->
     <g transform="translate(478.05625 68.272812)scale(0.1 -0.1)">
      <use xlink:href="#DejaVuSans-4e"/>
      <use xlink:href="#DejaVuSans-65" x="74.804688"/>
      <use xlink:href="#DejaVuSans-75" x="136.328125"/>
      <use xlink:href="#DejaVuSans-74" x="199.707031"/>
      <use xlink:href="#DejaVuSans-72" x="238.916016"/>
      <use xlink:href="#DejaVuSans-61" x="280.029297"/>
      <use xlink:href="#DejaVuSans-6c" x="341.308594"/>
     </g>
    </g>
   </g>
  </g>
 </g>
 <defs>
  <clipPath id="pf29ae3e1c4">
   <rect x="46.965625" y="22.318125" width="558" height="332.64"/>
  </clipPath>
 </defs>
</svg>
