<?xml version="1.0" encoding="utf-8" standalone="no"?>
<!DOCTYPE svg PUBLIC "-//W3C//DTD SVG 1.1//EN"
  "http://www.w3.org/Graphics/SVG/1.1/DTD/svg11.dtd">
<svg xmlns:xlink="http://www.w3.org/1999/xlink" width="612.165625pt" height="392.514375pt" viewBox="0 0 612.165625 392.514375" xmlns="http://www.w3.org/2000/svg" version="1.1">
 <metadata>
  <rdf:RDF xmlns:dc="http://purl.org/dc/elements/1.1/" xmlns:cc="http://creativecommons.org/ns#" xmlns:rdf="http://www.w3.org/1999/02/22-rdf-syntax-ns#">
   <cc:Work>
    <dc:type rdf:resource="http://purl.org/dc/dcmitype/StillImage"/>
    <dc:date>2023-04-24T17:59:47.361299</dc:date>
    <dc:format>image/svg+xml</dc:format>
    <dc:creator>
     <cc:Agent>
      <dc:title>Matplotlib v3.5.1, https://matplotlib.org/</dc:title>
     </cc:Agent>
    </dc:creator>
   </cc:Work>
  </rdf:RDF>
 </metadata>
 <defs>
  <style type="text/css">*{stroke-linejoin: round; stroke-linecap: butt}</style>
 </defs>
 <g id="figure_1">
  <g id="patch_1">
   <path d="M 0 392.514375 
L 612.165625 392.514375 
L 612.165625 0 
L 0 0 
z
" style="fill: #ffffff"/>
  </g>
  <g id="axes_1">
   <g id="patch_2">
    <path d="M 46.965625 354.958125 
L 604.965625 354.958125 
L 604.965625 22.318125 
L 46.965625 22.318125 
z
" style="fill: #ffffff"/>
   </g>
   <g id="matplotlib.axis_1">
    <g id="xtick_1">
     <g id="line2d_1">
      <defs>
       <path id="mf5fd381981" d="M 0 0 
L 0 3.5 
" style="stroke: #000000; stroke-width: 0.8"/>
      </defs>
      <g>
       <use xlink:href="#mf5fd381981" x="72.329261" y="354.958125" style="stroke: #000000; stroke-width: 0.8"/>
      </g>
     </g>
     <g id="text_1">
      <!-- 0 -->
      <g transform="translate(69.148011 369.556562)scale(0.1 -0.1)">
       <defs>
        <path id="DejaVuSans-30" d="M 2034 4250 
Q 1547 4250 1301 3770 
Q 1056 3291 1056 2328 
Q 1056 1369 1301 889 
Q 1547 409 2034 409 
Q 2525 409 2770 889 
Q 3016 1369 3016 2328 
Q 3016 3291 2770 3770 
Q 2525 4250 2034 4250 
z
M 2034 4750 
Q 2819 4750 3233 4129 
Q 3647 3509 3647 2328 
Q 3647 1150 3233 529 
Q 2819 -91 2034 -91 
Q 1250 -91 836 529 
Q 422 1150 422 2328 
Q 422 3509 836 4129 
Q 1250 4750 2034 4750 
z
" transform="scale(0.015625)"/>
       </defs>
       <use xlink:href="#DejaVuSans-30"/>
      </g>
     </g>
    </g>
    <g id="xtick_2">
     <g id="line2d_2">
      <g>
       <use xlink:href="#mf5fd381981" x="188.092093" y="354.958125" style="stroke: #000000; stroke-width: 0.8"/>
      </g>
     </g>
     <g id="text_2">
      <!-- 500 -->
      <g transform="translate(178.548343 369.556562)scale(0.1 -0.1)">
       <defs>
        <path id="DejaVuSans-35" d="M 691 4666 
L 3169 4666 
L 3169 4134 
L 1269 4134 
L 1269 2991 
Q 1406 3038 1543 3061 
Q 1681 3084 1819 3084 
Q 2600 3084 3056 2656 
Q 3513 2228 3513 1497 
Q 3513 744 3044 326 
Q 2575 -91 1722 -91 
Q 1428 -91 1123 -41 
Q 819 9 494 109 
L 494 744 
Q 775 591 1075 516 
Q 1375 441 1709 441 
Q 2250 441 2565 725 
Q 2881 1009 2881 1497 
Q 2881 1984 2565 2268 
Q 2250 2553 1709 2553 
Q 1456 2553 1204 2497 
Q 953 2441 691 2322 
L 691 4666 
z
" transform="scale(0.015625)"/>
       </defs>
       <use xlink:href="#DejaVuSans-35"/>
       <use xlink:href="#DejaVuSans-30" x="63.623047"/>
       <use xlink:href="#DejaVuSans-30" x="127.246094"/>
      </g>
     </g>
    </g>
    <g id="xtick_3">
     <g id="line2d_3">
      <g>
       <use xlink:href="#mf5fd381981" x="303.854924" y="354.958125" style="stroke: #000000; stroke-width: 0.8"/>
      </g>
     </g>
     <g id="text_3">
      <!-- 1000 -->
      <g transform="translate(291.129924 369.556562)scale(0.1 -0.1)">
       <defs>
        <path id="DejaVuSans-31" d="M 794 531 
L 1825 531 
L 1825 4091 
L 703 3866 
L 703 4441 
L 1819 4666 
L 2450 4666 
L 2450 531 
L 3481 531 
L 3481 0 
L 794 0 
L 794 531 
z
" transform="scale(0.015625)"/>
       </defs>
       <use xlink:href="#DejaVuSans-31"/>
       <use xlink:href="#DejaVuSans-30" x="63.623047"/>
       <use xlink:href="#DejaVuSans-30" x="127.246094"/>
       <use xlink:href="#DejaVuSans-30" x="190.869141"/>
      </g>
     </g>
    </g>
    <g id="xtick_4">
     <g id="line2d_4">
      <g>
       <use xlink:href="#mf5fd381981" x="419.617756" y="354.958125" style="stroke: #000000; stroke-width: 0.8"/>
      </g>
     </g>
     <g id="text_4">
      <!-- 1500 -->
      <g transform="translate(406.892756 369.556562)scale(0.1 -0.1)">
       <use xlink:href="#DejaVuSans-31"/>
       <use xlink:href="#DejaVuSans-35" x="63.623047"/>
       <use xlink:href="#DejaVuSans-30" x="127.246094"/>
       <use xlink:href="#DejaVuSans-30" x="190.869141"/>
      </g>
     </g>
    </g>
    <g id="xtick_5">
     <g id="line2d_5">
      <g>
       <use xlink:href="#mf5fd381981" x="535.380587" y="354.958125" style="stroke: #000000; stroke-width: 0.8"/>
      </g>
     </g>
     <g id="text_5">
      <!-- 2000 -->
      <g transform="translate(522.655587 369.556562)scale(0.1 -0.1)">
       <defs>
        <path id="DejaVuSans-32" d="M 1228 531 
L 3431 531 
L 3431 0 
L 469 0 
L 469 531 
Q 828 903 1448 1529 
Q 2069 2156 2228 2338 
Q 2531 2678 2651 2914 
Q 2772 3150 2772 3378 
Q 2772 3750 2511 3984 
Q 2250 4219 1831 4219 
Q 1534 4219 1204 4116 
Q 875 4013 500 3803 
L 500 4441 
Q 881 4594 1212 4672 
Q 1544 4750 1819 4750 
Q 2544 4750 2975 4387 
Q 3406 4025 3406 3419 
Q 3406 3131 3298 2873 
Q 3191 2616 2906 2266 
Q 2828 2175 2409 1742 
Q 1991 1309 1228 531 
z
" transform="scale(0.015625)"/>
       </defs>
       <use xlink:href="#DejaVuSans-32"/>
       <use xlink:href="#DejaVuSans-30" x="63.623047"/>
       <use xlink:href="#DejaVuSans-30" x="127.246094"/>
       <use xlink:href="#DejaVuSans-30" x="190.869141"/>
      </g>
     </g>
    </g>
    <g id="text_6">
     <!-- Date -->
     <g transform="translate(314.014844 383.234687)scale(0.1 -0.1)">
      <defs>
       <path id="DejaVuSans-44" d="M 1259 4147 
L 1259 519 
L 2022 519 
Q 2988 519 3436 956 
Q 3884 1394 3884 2338 
Q 3884 3275 3436 3711 
Q 2988 4147 2022 4147 
L 1259 4147 
z
M 628 4666 
L 1925 4666 
Q 3281 4666 3915 4102 
Q 4550 3538 4550 2338 
Q 4550 1131 3912 565 
Q 3275 0 1925 0 
L 628 0 
L 628 4666 
z
" transform="scale(0.015625)"/>
       <path id="DejaVuSans-61" d="M 2194 1759 
Q 1497 1759 1228 1600 
Q 959 1441 959 1056 
Q 959 750 1161 570 
Q 1363 391 1709 391 
Q 2188 391 2477 730 
Q 2766 1069 2766 1631 
L 2766 1759 
L 2194 1759 
z
M 3341 1997 
L 3341 0 
L 2766 0 
L 2766 531 
Q 2569 213 2275 61 
Q 1981 -91 1556 -91 
Q 1019 -91 701 211 
Q 384 513 384 1019 
Q 384 1609 779 1909 
Q 1175 2209 1959 2209 
L 2766 2209 
L 2766 2266 
Q 2766 2663 2505 2880 
Q 2244 3097 1772 3097 
Q 1472 3097 1187 3025 
Q 903 2953 641 2809 
L 641 3341 
Q 956 3463 1253 3523 
Q 1550 3584 1831 3584 
Q 2591 3584 2966 3190 
Q 3341 2797 3341 1997 
z
" transform="scale(0.015625)"/>
       <path id="DejaVuSans-74" d="M 1172 4494 
L 1172 3500 
L 2356 3500 
L 2356 3053 
L 1172 3053 
L 1172 1153 
Q 1172 725 1289 603 
Q 1406 481 1766 481 
L 2356 481 
L 2356 0 
L 1766 0 
Q 1100 0 847 248 
Q 594 497 594 1153 
L 594 3053 
L 172 3053 
L 172 3500 
L 594 3500 
L 594 4494 
L 1172 4494 
z
" transform="scale(0.015625)"/>
       <path id="DejaVuSans-65" d="M 3597 1894 
L 3597 1613 
L 953 1613 
Q 991 1019 1311 708 
Q 1631 397 2203 397 
Q 2534 397 2845 478 
Q 3156 559 3463 722 
L 3463 178 
Q 3153 47 2828 -22 
Q 2503 -91 2169 -91 
Q 1331 -91 842 396 
Q 353 884 353 1716 
Q 353 2575 817 3079 
Q 1281 3584 2069 3584 
Q 2775 3584 3186 3129 
Q 3597 2675 3597 1894 
z
M 3022 2063 
Q 3016 2534 2758 2815 
Q 2500 3097 2075 3097 
Q 1594 3097 1305 2825 
Q 1016 2553 972 2059 
L 3022 2063 
z
" transform="scale(0.015625)"/>
      </defs>
      <use xlink:href="#DejaVuSans-44"/>
      <use xlink:href="#DejaVuSans-61" x="77.001953"/>
      <use xlink:href="#DejaVuSans-74" x="138.28125"/>
      <use xlink:href="#DejaVuSans-65" x="177.490234"/>
     </g>
    </g>
   </g>
   <g id="matplotlib.axis_2">
    <g id="ytick_1">
     <g id="line2d_6">
      <path d="M 46.965625 342.609962 
L 604.965625 342.609962 
" clip-path="url(#p177713ab8a)" style="fill: none; stroke: #dcdcdc; stroke-width: 0.5; stroke-linecap: square"/>
     </g>
     <g id="line2d_7">
      <defs>
       <path id="mfe9747f6d4" d="M 0 0 
L -3.5 0 
" style="stroke: #000000; stroke-width: 0.8"/>
      </defs>
      <g>
       <use xlink:href="#mfe9747f6d4" x="46.965625" y="342.609962" style="stroke: #000000; stroke-width: 0.8"/>
      </g>
     </g>
     <g id="text_7">
      <!-- 0 -->
      <g transform="translate(33.603125 346.409181)scale(0.1 -0.1)">
       <use xlink:href="#DejaVuSans-30"/>
      </g>
     </g>
    </g>
    <g id="ytick_2">
     <g id="line2d_8">
      <path d="M 46.965625 296.892705 
L 604.965625 296.892705 
" clip-path="url(#p177713ab8a)" style="fill: none; stroke: #dcdcdc; stroke-width: 0.5; stroke-linecap: square"/>
     </g>
     <g id="line2d_9">
      <g>
       <use xlink:href="#mfe9747f6d4" x="46.965625" y="296.892705" style="stroke: #000000; stroke-width: 0.8"/>
      </g>
     </g>
     <g id="text_8">
      <!-- 50 -->
      <g transform="translate(27.240625 300.691924)scale(0.1 -0.1)">
       <use xlink:href="#DejaVuSans-35"/>
       <use xlink:href="#DejaVuSans-30" x="63.623047"/>
      </g>
     </g>
    </g>
    <g id="ytick_3">
     <g id="line2d_10">
      <path d="M 46.965625 251.175447 
L 604.965625 251.175447 
" clip-path="url(#p177713ab8a)" style="fill: none; stroke: #dcdcdc; stroke-width: 0.5; stroke-linecap: square"/>
     </g>
     <g id="line2d_11">
      <g>
       <use xlink:href="#mfe9747f6d4" x="46.965625" y="251.175447" style="stroke: #000000; stroke-width: 0.8"/>
      </g>
     </g>
     <g id="text_9">
      <!-- 100 -->
      <g transform="translate(20.878125 254.974666)scale(0.1 -0.1)">
       <use xlink:href="#DejaVuSans-31"/>
       <use xlink:href="#DejaVuSans-30" x="63.623047"/>
       <use xlink:href="#DejaVuSans-30" x="127.246094"/>
      </g>
     </g>
    </g>
    <g id="ytick_4">
     <g id="line2d_12">
      <path d="M 46.965625 205.45819 
L 604.965625 205.45819 
" clip-path="url(#p177713ab8a)" style="fill: none; stroke: #dcdcdc; stroke-width: 0.5; stroke-linecap: square"/>
     </g>
     <g id="line2d_13">
      <g>
       <use xlink:href="#mfe9747f6d4" x="46.965625" y="205.45819" style="stroke: #000000; stroke-width: 0.8"/>
      </g>
     </g>
     <g id="text_10">
      <!-- 150 -->
      <g transform="translate(20.878125 209.257409)scale(0.1 -0.1)">
       <use xlink:href="#DejaVuSans-31"/>
       <use xlink:href="#DejaVuSans-35" x="63.623047"/>
       <use xlink:href="#DejaVuSans-30" x="127.246094"/>
      </g>
     </g>
    </g>
    <g id="ytick_5">
     <g id="line2d_14">
      <path d="M 46.965625 159.740932 
L 604.965625 159.740932 
" clip-path="url(#p177713ab8a)" style="fill: none; stroke: #dcdcdc; stroke-width: 0.5; stroke-linecap: square"/>
     </g>
     <g id="line2d_15">
      <g>
       <use xlink:href="#mfe9747f6d4" x="46.965625" y="159.740932" style="stroke: #000000; stroke-width: 0.8"/>
      </g>
     </g>
     <g id="text_11">
      <!-- 200 -->
      <g transform="translate(20.878125 163.540151)scale(0.1 -0.1)">
       <use xlink:href="#DejaVuSans-32"/>
       <use xlink:href="#DejaVuSans-30" x="63.623047"/>
       <use xlink:href="#DejaVuSans-30" x="127.246094"/>
      </g>
     </g>
    </g>
    <g id="ytick_6">
     <g id="line2d_16">
      <path d="M 46.965625 114.023675 
L 604.965625 114.023675 
" clip-path="url(#p177713ab8a)" style="fill: none; stroke: #dcdcdc; stroke-width: 0.5; stroke-linecap: square"/>
     </g>
     <g id="line2d_17">
      <g>
       <use xlink:href="#mfe9747f6d4" x="46.965625" y="114.023675" style="stroke: #000000; stroke-width: 0.8"/>
      </g>
     </g>
     <g id="text_12">
      <!-- 250 -->
      <g transform="translate(20.878125 117.822894)scale(0.1 -0.1)">
       <use xlink:href="#DejaVuSans-32"/>
       <use xlink:href="#DejaVuSans-35" x="63.623047"/>
       <use xlink:href="#DejaVuSans-30" x="127.246094"/>
      </g>
     </g>
    </g>
    <g id="ytick_7">
     <g id="line2d_18">
      <path d="M 46.965625 68.306417 
L 604.965625 68.306417 
" clip-path="url(#p177713ab8a)" style="fill: none; stroke: #dcdcdc; stroke-width: 0.5; stroke-linecap: square"/>
     </g>
     <g id="line2d_19">
      <g>
       <use xlink:href="#mfe9747f6d4" x="46.965625" y="68.306417" style="stroke: #000000; stroke-width: 0.8"/>
      </g>
     </g>
     <g id="text_13">
      <!-- 300 -->
      <g transform="translate(20.878125 72.105636)scale(0.1 -0.1)">
       <defs>
        <path id="DejaVuSans-33" d="M 2597 2516 
Q 3050 2419 3304 2112 
Q 3559 1806 3559 1356 
Q 3559 666 3084 287 
Q 2609 -91 1734 -91 
Q 1441 -91 1130 -33 
Q 819 25 488 141 
L 488 750 
Q 750 597 1062 519 
Q 1375 441 1716 441 
Q 2309 441 2620 675 
Q 2931 909 2931 1356 
Q 2931 1769 2642 2001 
Q 2353 2234 1838 2234 
L 1294 2234 
L 1294 2753 
L 1863 2753 
Q 2328 2753 2575 2939 
Q 2822 3125 2822 3475 
Q 2822 3834 2567 4026 
Q 2313 4219 1838 4219 
Q 1578 4219 1281 4162 
Q 984 4106 628 3988 
L 628 4550 
Q 988 4650 1302 4700 
Q 1616 4750 1894 4750 
Q 2613 4750 3031 4423 
Q 3450 4097 3450 3541 
Q 3450 3153 3228 2886 
Q 3006 2619 2597 2516 
z
" transform="scale(0.015625)"/>
       </defs>
       <use xlink:href="#DejaVuSans-33"/>
       <use xlink:href="#DejaVuSans-30" x="63.623047"/>
       <use xlink:href="#DejaVuSans-30" x="127.246094"/>
      </g>
     </g>
    </g>
    <g id="ytick_8">
     <g id="line2d_20">
      <path d="M 46.965625 22.58916 
L 604.965625 22.58916 
" clip-path="url(#p177713ab8a)" style="fill: none; stroke: #dcdcdc; stroke-width: 0.5; stroke-linecap: square"/>
     </g>
     <g id="line2d_21">
      <g>
       <use xlink:href="#mfe9747f6d4" x="46.965625" y="22.58916" style="stroke: #000000; stroke-width: 0.8"/>
      </g>
     </g>
     <g id="text_14">
      <!-- 350 -->
      <g transform="translate(20.878125 26.388379)scale(0.1 -0.1)">
       <use xlink:href="#DejaVuSans-33"/>
       <use xlink:href="#DejaVuSans-35" x="63.623047"/>
       <use xlink:href="#DejaVuSans-30" x="127.246094"/>
      </g>
     </g>
    </g>
    <g id="text_15">
     <!-- Price (USD) -->
     <g transform="translate(14.798437 217.01)rotate(-90)scale(0.1 -0.1)">
      <defs>
       <path id="DejaVuSans-50" d="M 1259 4147 
L 1259 2394 
L 2053 2394 
Q 2494 2394 2734 2622 
Q 2975 2850 2975 3272 
Q 2975 3691 2734 3919 
Q 2494 4147 2053 4147 
L 1259 4147 
z
M 628 4666 
L 2053 4666 
Q 2838 4666 3239 4311 
Q 3641 3956 3641 3272 
Q 3641 2581 3239 2228 
Q 2838 1875 2053 1875 
L 1259 1875 
L 1259 0 
L 628 0 
L 628 4666 
z
" transform="scale(0.015625)"/>
       <path id="DejaVuSans-72" d="M 2631 2963 
Q 2534 3019 2420 3045 
Q 2306 3072 2169 3072 
Q 1681 3072 1420 2755 
Q 1159 2438 1159 1844 
L 1159 0 
L 581 0 
L 581 3500 
L 1159 3500 
L 1159 2956 
Q 1341 3275 1631 3429 
Q 1922 3584 2338 3584 
Q 2397 3584 2469 3576 
Q 2541 3569 2628 3553 
L 2631 2963 
z
" transform="scale(0.015625)"/>
       <path id="DejaVuSans-69" d="M 603 3500 
L 1178 3500 
L 1178 0 
L 603 0 
L 603 3500 
z
M 603 4863 
L 1178 4863 
L 1178 4134 
L 603 4134 
L 603 4863 
z
" transform="scale(0.015625)"/>
       <path id="DejaVuSans-63" d="M 3122 3366 
L 3122 2828 
Q 2878 2963 2633 3030 
Q 2388 3097 2138 3097 
Q 1578 3097 1268 2742 
Q 959 2388 959 1747 
Q 959 1106 1268 751 
Q 1578 397 2138 397 
Q 2388 397 2633 464 
Q 2878 531 3122 666 
L 3122 134 
Q 2881 22 2623 -34 
Q 2366 -91 2075 -91 
Q 1284 -91 818 406 
Q 353 903 353 1747 
Q 353 2603 823 3093 
Q 1294 3584 2113 3584 
Q 2378 3584 2631 3529 
Q 2884 3475 3122 3366 
z
" transform="scale(0.015625)"/>
       <path id="DejaVuSans-20" transform="scale(0.015625)"/>
       <path id="DejaVuSans-28" d="M 1984 4856 
Q 1566 4138 1362 3434 
Q 1159 2731 1159 2009 
Q 1159 1288 1364 580 
Q 1569 -128 1984 -844 
L 1484 -844 
Q 1016 -109 783 600 
Q 550 1309 550 2009 
Q 550 2706 781 3412 
Q 1013 4119 1484 4856 
L 1984 4856 
z
" transform="scale(0.015625)"/>
       <path id="DejaVuSans-55" d="M 556 4666 
L 1191 4666 
L 1191 1831 
Q 1191 1081 1462 751 
Q 1734 422 2344 422 
Q 2950 422 3222 751 
Q 3494 1081 3494 1831 
L 3494 4666 
L 4128 4666 
L 4128 1753 
Q 4128 841 3676 375 
Q 3225 -91 2344 -91 
Q 1459 -91 1007 375 
Q 556 841 556 1753 
L 556 4666 
z
" transform="scale(0.015625)"/>
       <path id="DejaVuSans-53" d="M 3425 4513 
L 3425 3897 
Q 3066 4069 2747 4153 
Q 2428 4238 2131 4238 
Q 1616 4238 1336 4038 
Q 1056 3838 1056 3469 
Q 1056 3159 1242 3001 
Q 1428 2844 1947 2747 
L 2328 2669 
Q 3034 2534 3370 2195 
Q 3706 1856 3706 1288 
Q 3706 609 3251 259 
Q 2797 -91 1919 -91 
Q 1588 -91 1214 -16 
Q 841 59 441 206 
L 441 856 
Q 825 641 1194 531 
Q 1563 422 1919 422 
Q 2459 422 2753 634 
Q 3047 847 3047 1241 
Q 3047 1584 2836 1778 
Q 2625 1972 2144 2069 
L 1759 2144 
Q 1053 2284 737 2584 
Q 422 2884 422 3419 
Q 422 4038 858 4394 
Q 1294 4750 2059 4750 
Q 2388 4750 2728 4690 
Q 3069 4631 3425 4513 
z
" transform="scale(0.015625)"/>
       <path id="DejaVuSans-29" d="M 513 4856 
L 1013 4856 
Q 1481 4119 1714 3412 
Q 1947 2706 1947 2009 
Q 1947 1309 1714 600 
Q 1481 -109 1013 -844 
L 513 -844 
Q 928 -128 1133 580 
Q 1338 1288 1338 2009 
Q 1338 2731 1133 3434 
Q 928 4138 513 4856 
z
" transform="scale(0.015625)"/>
      </defs>
      <use xlink:href="#DejaVuSans-50"/>
      <use xlink:href="#DejaVuSans-72" x="58.552734"/>
      <use xlink:href="#DejaVuSans-69" x="99.666016"/>
      <use xlink:href="#DejaVuSans-63" x="127.449219"/>
      <use xlink:href="#DejaVuSans-65" x="182.429688"/>
      <use xlink:href="#DejaVuSans-20" x="243.953125"/>
      <use xlink:href="#DejaVuSans-28" x="275.740234"/>
      <use xlink:href="#DejaVuSans-55" x="314.753906"/>
      <use xlink:href="#DejaVuSans-53" x="387.947266"/>
      <use xlink:href="#DejaVuSans-44" x="451.423828"/>
      <use xlink:href="#DejaVuSans-29" x="528.425781"/>
     </g>
    </g>
   </g>
   <g id="line2d_22">
    <path d="M 76.033672 339.679486 
L 76.496723 339.687441 
L 76.959775 339.736633 
L 77.422826 339.656627 
L 77.885877 339.530905 
L 78.81198 339.489759 
M 87.378429 339.382324 
L 88.073006 339.407468 
M 92.70352 339.364037 
L 92.935045 339.370895 
M 96.639456 339.192597 
L 98.723187 339.236029 
L 99.417764 339.208598 
M 115.393035 339.176596 
L 115.856086 339.156024 
M 121.644228 339.05316 
L 122.338805 339.076018 
L 122.801856 339.021158 
L 123.496433 339.08059 
L 124.654061 338.762855 
M 139.471704 338.495409 
L 139.703229 338.504553 
M 140.166281 338.440548 
L 140.860858 338.383402 
L 141.323909 338.271395 
L 141.555435 338.278252 
M 151.742564 338.609702 
L 152.437141 338.573128 
L 152.900192 338.618846 
M 154.05782 338.31254 
L 154.289346 338.257679 
M 163.318847 338.759472 
L 163.781898 338.683947 
L 164.24495 338.621132 
L 164.708001 338.593701 
L 164.939526 338.422262 
L 165.171052 338.520554 
M 168.643937 338.11943 
L 169.106988 338.087337 
M 180.22022 338.122813 
L 180.451746 338.195961 
L 180.683272 338.088526 
L 180.914797 338.220008 
L 181.8409 337.927418 
L 182.303951 337.951374 
M 189.481247 337.800507 
L 189.712772 337.817605 
M 196.658542 337.849699 
L 196.890068 337.894227 
M 208.0033 338.106812 
L 208.697877 338.118242 
L 209.160928 338.195961 
L 209.623979 338.045094 
L 209.855505 338.033665 
M 216.338224 337.528489 
L 216.569749 337.448484 
M 217.032801 337.423339 
L 218.190429 337.231327 
L 218.421955 337.377622 
L 219.579583 337.190181 
L 219.811109 336.97531 
L 220.042634 337.085032 
L 220.737211 336.723865 
L 221.200263 336.627859 
M 222.820942 336.252978 
L 223.052468 336.262121 
M 226.756878 335.635795 
L 226.988404 335.660939 
L 227.21993 335.798091 
L 227.451455 335.660939 
L 227.682981 335.660939 
M 240.185367 336.568427 
L 240.416893 336.845016 
L 240.879944 336.797013 
L 241.11147 336.826729 
L 241.342995 336.728437 
L 241.806047 336.287266 
M 244.584355 335.169479 
L 245.510457 335.368349 
L 245.973508 335.226625 
L 246.205034 335.263199 
L 246.43656 335.043756 
L 246.668085 335.10776 
L 246.899611 334.88146 
L 247.825714 334.728307 
L 248.288765 334.520294 
M 252.919278 334.271135 
L 253.150804 334.081408 
L 253.613855 334.488292 
L 253.845381 334.380856 
L 254.539958 334.6163 
L 255.466061 334.367141 
L 255.697586 334.479148 
L 255.929112 333.242496 
L 256.160638 332.965907 
L 256.392163 332.945334 
L 256.623689 332.698461 
L 256.855215 332.65503 
M 261.948779 331.804689 
L 262.180305 331.813832 
L 262.411831 331.525813 
L 262.643356 332.156711 
L 262.874882 332.268719 
L 263.569459 331.864121 
L 263.800985 331.944126 
L 264.495562 331.434379 
L 264.958613 330.718904 
L 265.190139 330.540606 
M 265.884715 330.563465 
L 266.347767 330.376024 
L 266.579292 330.216014 
L 266.810818 330.4446 
L 267.273869 329.882278 
L 267.505395 329.665121 
L 267.736921 329.795415 
L 267.968446 329.767985 
L 268.199972 329.557685 
L 268.894549 329.765699 
L 269.126075 329.527969 
M 274.914216 329.004506 
L 275.145742 328.723345 
L 275.377268 328.924501 
L 275.608793 328.803351 
L 275.840319 328.279888 
L 276.071845 328.2456 
M 282.786089 326.453484 
L 283.017615 326.480914 
L 283.24914 326.343762 
L 283.480666 326.826079 
L 283.712192 326.892369 
L 284.175243 327.164387 
L 284.406769 326.318618 
L 284.638294 326.343762 
L 284.86982 326.618066 
L 285.101346 327.11867 
M 288.342705 322.57666 
L 288.57423 322.391505 
L 288.805756 321.607454 
L 289.037282 321.262289 
M 294.825423 318.964997 
L 295.056949 318.967283 
L 295.288475 319.497603 
L 295.751526 318.571828 
L 295.983052 318.834703 
M 302.46577 319.97992 
L 302.928822 320.28394 
L 303.160347 320.039352 
L 303.623399 320.08507 
L 303.854924 319.95249 
M 310.337643 319.463315 
L 310.569168 319.367309 
L 311.03222 318.667835 
L 311.263745 318.832417 
L 311.495271 318.462107 
L 311.726797 318.768413 
L 311.958322 318.233521 
L 312.189848 318.955853 
L 312.421374 318.779842 
L 313.347476 319.07929 
L 313.579002 314.884732 
L 313.810528 313.693797 
M 314.73663 313.414922 
L 314.968156 312.191985 
M 321.6824 309.080926 
L 321.913926 309.565529 
L 322.145452 310.761035 
L 322.376977 309.910694 
L 322.608503 309.812402 
M 330.943427 305.165243 
L 331.174952 304.900082 
L 331.406478 304.961801 
L 331.638004 304.737786 
M 335.342414 301.693017 
L 335.57394 303.521707 
L 335.805466 303.302264 
L 336.036991 302.440494 
L 336.268517 302.451923 
L 336.500043 301.745592 
L 336.963094 301.60844 
L 337.19462 301.26556 
L 337.426145 301.288419 
L 337.657671 301.167268 
L 338.120722 299.423155 
L 338.352248 298.963697 
L 338.583774 298.943124 
L 339.046825 297.365878 
L 339.509876 297.445884 
M 348.307851 298.986555 
L 348.539377 300.051767 
L 348.770903 299.985477 
L 349.233954 297.372736 
L 349.46548 297.781905 
L 349.697005 297.624181 
L 350.160057 297.973918 
L 350.391582 297.477886 
L 350.854634 297.487029 
L 351.086159 298.378516 
L 351.317685 297.041286 
L 351.549211 294.042234 
L 352.012262 293.372476 
L 352.243788 291.863806 
L 352.475313 291.877522 
L 352.706839 291.479782 
M 368.450584 290.254559 
L 368.68211 290.329992 
L 369.145161 292.046676 
L 369.376687 293.084457 
M 372.618046 286.478314 
L 372.849572 286.37545 
L 373.081097 285.986853 
L 373.775674 287.13207 
L 374.0072 286.025713 
L 374.238726 285.991425 
L 374.470251 285.627973 
L 374.701777 285.785697 
M 387.89874 286.647467 
L 388.130265 285.957137 
M 408.736049 312.626299 
L 408.967575 312.059405 
M 409.662152 313.353203 
L 409.893678 311.478796 
M 413.366563 311.062769 
L 413.598088 312.528007 
L 413.829614 311.204492 
M 418.228602 307.085367 
L 418.460127 307.348242 
L 418.691653 306.847638 
M 419.38623 307.853417 
L 419.617756 308.491173 
L 419.849281 308.175724 
M 420.775384 304.765217 
L 421.00691 303.793725 
L 421.238435 303.990309 
M 422.164538 302.035896 
L 422.396064 302.886237 
M 433.27777 311.645664 
L 433.509295 312.029689 
M 434.435398 309.350657 
L 434.666924 308.6809 
M 438.371334 305.526409 
L 438.60286 305.407544 
M 439.065911 306.673912 
L 439.297437 306.651053 
L 439.528963 306.022441 
M 447.400835 305.624701 
L 447.632361 305.757281 
M 452.957451 302.835948 
L 453.188977 303.055391 
M 453.883554 300.474652 
L 454.115079 302.097615 
L 454.578131 300.771814 
M 462.681529 293.06617 
L 462.913055 294.778282 
L 463.14458 295.141734 
L 463.376106 294.739422 
L 463.607632 294.894861 
L 463.839157 294.11081 
L 464.070683 294.11081 
L 464.302209 293.697069 
L 464.533734 292.929019 
M 471.479504 287.703536 
L 471.71103 285.927421 
L 471.942555 286.482885 
L 472.174081 286.421167 
L 472.405607 288.565306 
M 486.297147 276.009062 
L 486.528672 274.386099 
L 486.760198 275.798762 
L 486.991724 277.970332 
L 487.223249 276.02616 
L 487.454775 275.465026 
M 494.400545 258.161044 
L 494.63207 258.325626 
L 494.863596 257.930172 
M 496.021224 258.901664 
L 496.25275 258.490209 
M 499.031058 249.943367 
L 499.262584 249.333042 
M 500.188686 249.989084 
L 500.420212 249.397046 
L 500.651738 247.321482 
L 500.883263 249.205034 
L 501.346315 245.561368 
L 501.57784 245.55451 
L 502.040892 239.949575 
L 502.503943 238.964368 
L 502.735469 240.207877 
L 502.966994 240.523326 
L 503.19852 243.403514 
L 503.430046 238.006591 
L 503.661571 237.981447 
M 510.14429 231.757042 
L 510.375815 229.706623 
M 529.823971 219.765406 
L 530.055497 224.497142 
L 530.287022 223.278777 
L 530.518548 223.838813 
M 538.158895 226.282401 
L 538.390421 225.15547 
L 538.621946 222.042125 
L 538.853472 223.098194 
L 539.084998 227.009305 
L 539.316523 227.994512 
L 539.548049 225.214903 
L 539.779575 224.218266 
L 540.0111 224.91774 
L 540.242626 220.560886 
M 546.493819 212.171769 
L 546.725345 211.801459 
L 546.95687 216.809785 
L 547.188396 217.662412 
L 547.419922 212.379783 
L 547.651447 213.0884 
L 547.882973 214.457632 
L 548.114498 214.000459 
L 548.809075 199.862397 
L 549.272127 199.057774 
L 549.503652 200.996185 
L 549.735178 194.079164 
L 549.966704 193.896295 
L 550.198229 189.198847 
L 550.429755 187.447876 
L 550.661281 181.884086 
L 550.892806 181.51149 
L 551.355858 183.895645 
L 551.587383 183.28532 
L 551.818909 179.625653 
L 552.050435 177.856396 
L 552.28196 179.961675 
L 552.513486 179.762805 
M 557.375525 176.55574 
L 557.607051 170.898229 
L 557.838576 172.432043 
M 561.311461 160.326113 
L 561.542987 162.493111 
L 561.774513 160.60956 
M 562.237564 160.198105 
L 562.700615 168.518646 
L 562.932141 161.587909 
M 570.109436 162.191377 
L 570.340962 155.617236 
L 570.572488 153.340516 
L 570.804013 149.911722 
L 571.267065 153.386233 
L 571.49859 153.605676 
L 571.730116 151.155231 
L 571.961642 143.776466 
L 572.193167 142.715826 
L 572.424693 139.424183 
L 572.656219 138.802428 
L 572.887744 140.512254 
L 573.11927 135.126761 
L 573.350796 134.815883 
L 573.582321 130.792765 
L 573.813847 116.611272 
L 574.045373 119.04343 
L 574.971475 101.213699 
L 574.971475 101.213699 
" clip-path="url(#p177713ab8a)" style="fill: none; stroke: #00ff7f; stroke-linecap: square"/>
   </g>
   <g id="line2d_23">
    <path d="M 101.269969 338.952765 
L 101.501495 338.96968 
M 105.900482 339.044016 
L 106.363534 338.996013 
M 126.274741 338.287396 
L 126.506266 338.326255 
M 148.501204 338.255394 
L 149.195781 338.186818 
L 149.427307 338.198247 
L 149.658833 338.394831 
M 157.29918 338.031379 
L 157.762231 338.08624 
M 158.225282 338.127385 
L 158.456808 338.173102 
M 159.151385 338.235918 
L 160.540539 338.28511 
M 195.500914 337.409624 
L 195.73244 337.441626 
M 202.67821 337.734217 
L 203.372787 337.61078 
L 203.835838 337.759361 
M 232.313494 335.027755 
L 232.54502 335.142048 
M 233.008071 335.090571 
L 233.934174 335.034613 
L 234.1657 334.911176 
L 235.091802 335.091759 
L 235.323328 335.402637 
M 298.76136 315.378478 
L 298.992885 315.497343 
L 299.455937 316.637988 
M 305.70713 317.906642 
L 305.938655 318.130657 
L 306.170181 318.043794 
M 343.677338 294.00566 
L 343.908864 293.651351 
L 344.14039 294.611414 
M 345.066492 293.223895 
L 345.298018 293.479912 
L 345.529544 293.015881 
M 375.62788 282.068884 
L 376.090931 282.000308 
L 376.322457 282.514627 
M 394.612984 278.372644 
L 394.84451 276.466234 
L 395.076035 277.124563 
L 395.307561 277.067416 
L 396.002138 281.858585 
L 396.233664 281.91116 
M 399.706549 296.206946 
L 400.1696 292.753007 
L 400.632651 294.202244 
L 400.864177 294.36454 
L 401.095703 293.7405 
L 401.327228 295.523473 
M 404.800113 305.252105 
L 405.031639 303.74115 
L 405.263165 306.696771 
L 405.49469 306.427039 
M 426.563526 300.024337 
L 427.026577 299.025415 
L 427.258102 298.911122 
L 427.489628 299.884899 
L 427.721154 301.90103 
L 428.184205 301.235844 
L 428.415731 301.356995 
L 428.647256 300.73524 
L 428.878782 300.776386 
L 429.110308 301.498719 
L 429.341833 303.03939 
L 429.573359 302.854235 
L 429.804885 303.706862 
L 430.03641 304.020025 
L 430.267936 306.390465 
L 430.499462 305.56984 
L 430.730987 306.132163 
M 441.612694 302.456495 
L 441.844219 301.770736 
L 442.075745 302.977672 
L 442.307271 302.591361 
M 513.154123 212.535221 
L 513.385649 212.331779 
M 532.602279 203.165469 
L 532.833805 205.812499 
L 533.06533 202.438565 
M 542.557883 195.0598 
L 542.789408 197.11479 
M 566.868077 139.241314 
" clip-path="url(#p177713ab8a)" style="fill: none; stroke: #ff4500; stroke-linecap: square"/>
   </g>
   <g id="line2d_24">
    <path d="M 72.329261 339.770921 
L 73.718415 339.773206 
L 74.181467 339.838125 
M 74.644518 339.761777 
L 75.570621 339.690915 
L 75.802146 339.617768 
M 79.043506 339.453186 
L 83.442493 339.265745 
L 84.600121 339.352608 
L 85.063173 339.309176 
L 85.526224 339.398325 
L 85.989275 339.329749 
L 86.915378 339.309176 
L 87.146904 339.314937 
M 88.304532 339.400611 
L 91.314366 339.284032 
L 91.777417 339.357179 
L 92.471994 339.350322 
M 93.166571 339.316034 
L 96.40793 339.192597 
M 99.64929 339.152549 
L 100.343867 339.021158 
M 100.806918 338.996013 
L 101.038444 338.984584 
M 101.733021 338.999396 
L 102.427598 339.015489 
L 105.668957 339.087448 
M 106.595059 338.98687 
L 109.604893 339.285129 
L 109.836419 339.05316 
L 110.994047 338.913722 
L 111.688624 339.133165 
L 113.772355 338.961725 
L 114.466932 339.134262 
L 114.929983 339.087448 
L 115.161509 339.156024 
M 116.087612 339.10802 
L 119.328971 339.009728 
L 121.412702 338.959439 
M 124.885587 338.641704 
L 125.117112 338.515982 
L 125.580164 338.463407 
L 125.811689 338.317112 
L 126.043215 338.349114 
M 126.737792 338.333113 
L 127.432369 338.429119 
L 128.126946 338.408546 
L 129.053049 338.422262 
L 129.284574 338.554842 
L 129.979151 338.440548 
L 130.442203 338.365115 
L 131.368305 338.488552 
L 131.831357 338.518268 
L 132.062882 338.515982 
L 132.294408 338.346828 
L 133.220511 338.447406 
L 133.452036 338.298825 
L 133.915088 338.408546 
L 134.378139 338.422262 
L 135.998819 338.20739 
L 136.46187 338.346828 
L 137.619498 338.3514 
L 138.08255 338.432594 
L 138.314075 338.381116 
L 138.545601 338.48398 
L 138.777127 338.362829 
L 139.240178 338.472551 
M 141.78696 338.266823 
L 143.176114 338.255394 
L 144.333743 338.157101 
M 144.796794 338.131957 
L 145.491371 338.333113 
L 145.954422 338.355972 
M 146.417473 338.408546 
L 147.575102 338.335399 
L 147.806627 338.369687 
M 149.890358 338.369687 
L 151.047987 338.559413 
M 153.131718 338.266823 
L 153.826295 338.264537 
M 154.520872 338.198247 
L 155.215449 338.250822 
L 156.836128 338.153627 
L 157.067654 338.110287 
M 158.688334 338.239393 
L 158.919859 338.298825 
M 160.772065 338.37883 
L 161.698167 338.433691 
L 163.087321 338.515982 
M 165.402578 338.430216 
L 166.32868 338.311443 
L 166.560206 338.337685 
L 167.023257 338.067953 
L 167.717834 337.987948 
M 168.180886 338.033665 
L 168.412411 338.088526 
M 169.338514 338.10791 
L 169.57004 337.999377 
L 170.033091 337.960517 
L 171.422245 337.905657 
L 171.653771 337.898799 
L 171.885296 337.777648 
L 173.969027 338.188006 
L 174.200553 338.006234 
L 176.052758 337.95366 
L 177.210387 338.235918 
L 177.441912 338.070239 
L 178.368015 338.097669 
L 178.599541 338.129671 
L 179.525643 337.889655 
L 179.988695 337.897702 
M 182.998528 337.512488 
L 186.702939 337.441626 
L 187.16599 337.379908 
L 187.629041 337.421054 
L 188.092093 337.295331 
L 188.323618 337.382194 
L 188.78667 337.245042 
L 189.249721 337.489629 
M 189.944298 337.722787 
L 190.175824 337.702215 
L 190.407349 337.826749 
L 191.101926 337.657686 
L 192.722606 337.437055 
L 194.343286 337.574206 
L 195.037863 337.549062 
L 195.269388 337.536444 
M 195.963965 337.574206 
L 196.427017 337.469057 
M 197.121594 337.84851 
L 198.279222 337.800507 
L 199.205325 337.871369 
L 199.43685 337.617638 
L 200.131427 337.494201 
L 200.594479 337.64964 
L 201.05753 337.521632 
L 201.289056 337.638211 
M 201.752107 337.702215 
L 201.983633 337.64964 
L 202.446684 337.793649 
M 204.067364 337.807364 
L 204.298889 337.770791 
L 204.993466 338.013092 
L 205.456517 337.94223 
L 206.38262 338.173102 
L 206.845671 338.065667 
L 207.771774 338.022236 
M 210.087031 338.049666 
L 210.781608 337.905657 
L 211.013133 337.935373 
L 211.244659 337.357049 
L 211.476185 337.17418 
L 213.096864 337.354764 
L 214.022967 337.974232 
L 214.486018 337.437055 
L 214.94907 337.471343 
L 215.180595 337.681642 
L 215.412121 337.533061 
L 215.643647 337.519346 
M 221.431788 336.650718 
L 221.663314 336.586714 
M 222.126365 336.355841 
L 222.589417 336.241548 
M 223.283994 336.344412 
L 223.515519 336.118112 
L 223.978571 336.104397 
L 224.441622 336.056393 
L 224.673148 336.282694 
L 225.136199 336.049536 
L 225.59925 336.202689 
M 226.062301 335.398065 
L 226.525353 335.567219 
M 227.914507 335.51693 
L 229.535186 335.359205 
L 229.766712 335.123761 
L 230.229763 335.196909 
L 230.461289 334.895175 
L 230.692815 335.04147 
L 230.92434 334.938607 
L 231.155866 335.132905 
L 231.387392 335.071187 
L 231.618917 335.183194 
L 232.081969 335.073472 
M 235.554854 335.68837 
L 235.786379 335.836951 
L 236.249431 335.711228 
L 236.944008 336.412988 
L 237.638585 336.255264 
M 238.101636 336.11354 
L 238.333162 336.049536 
L 238.796213 336.198117 
L 239.027739 335.91467 
L 239.259264 335.912384 
L 239.49079 336.195831 
L 239.953841 336.161543 
M 242.037572 335.74323 
L 242.269098 335.651796 
L 242.500624 335.404923 
L 243.426726 335.368349 
M 243.889778 335.123761 
L 244.352829 335.14662 
M 248.520291 334.435717 
L 248.751816 334.465433 
L 248.983342 334.346568 
L 249.446393 334.438003 
L 249.677919 334.426573 
M 250.14097 334.458575 
L 251.530124 334.159127 
L 251.76165 334.309994 
L 252.687753 334.277992 
M 257.08674 332.476732 
L 257.318266 332.460731 
L 257.549792 332.241288 
L 257.781317 332.28472 
L 258.938946 331.834405 
L 259.401997 332.040132 
L 259.865048 332.053848 
L 260.096574 331.779544 
L 260.3281 332.049276 
L 260.791151 331.893837 
L 261.254202 331.740684 
L 261.485728 331.930411 
L 261.717254 331.738398 
M 265.421664 330.545178 
L 265.65319 330.421741 
M 269.3576 329.30624 
L 269.820652 329.148516 
L 270.052177 329.235379 
L 270.283703 328.963361 
L 270.515229 328.199883 
L 270.97828 328.300461 
L 271.209806 328.631911 
L 271.441331 328.414754 
L 272.135908 328.229599 
L 272.59896 328.545048 
L 273.062011 328.439898 
L 273.525062 328.588479 
L 273.756588 328.174738 
L 273.988114 328.316462 
L 274.219639 328.181596 
L 274.451165 328.394181 
L 274.682691 328.291317 
M 276.766422 327.783856 
L 277.229473 327.763283 
L 277.460999 327.902721 
L 277.692524 327.399831 
L 278.155576 327.203247 
L 278.387101 326.94723 
L 279.081678 327.01352 
M 279.54473 327.328969 
L 279.776255 327.271822 
M 280.239307 327.424975 
L 280.470832 327.671848 
L 280.702358 327.525553 
L 280.933884 327.612416 
L 281.165409 327.38383 
L 281.396935 327.415832 
L 281.628461 327.127813 
L 281.859986 327.171244 
M 282.323038 326.181466 
L 282.554563 326.115176 
M 285.332871 322.501227 
L 285.564397 323.491005 
L 285.795922 322.90811 
L 286.027448 321.664601 
L 286.490499 321.269147 
L 286.722025 321.356009 
L 287.185076 321.129709 
L 287.648128 321.097707 
L 288.111179 321.534307 
M 289.731859 321.621169 
L 289.963384 322.130917 
L 290.19491 321.76975 
L 290.426436 320.562815 
L 290.889487 319.657613 
L 291.121013 319.378738 
L 291.352538 318.569542 
L 291.584064 318.418676 
L 291.81559 318.126085 
L 292.047115 317.51576 
L 292.278641 315.792219 
L 292.510167 317.63691 
L 292.741692 317.138592 
L 293.204744 319.291875 
L 293.436269 318.74784 
L 293.667795 319.353593 
L 293.899321 319.042716 
L 294.130846 318.087225 
L 294.593898 318.571828 
M 296.214577 318.587829 
L 296.446103 318.075796 
L 296.677629 317.970646 
L 297.14068 317.060873 
L 297.603731 317.652911 
L 297.835257 316.562555 
M 298.298308 316.464263 
L 298.529834 315.794505 
M 299.687462 317.83578 
L 300.150514 317.694057 
L 300.382039 318.094083 
L 300.613565 318.098655 
L 300.845091 317.220883 
L 301.076616 317.291745 
L 301.308142 319.639326 
L 301.539668 319.417598 
L 301.771193 318.743268 
M 304.08645 319.328449 
L 304.317976 319.34445 
L 304.781027 318.88042 
L 305.012553 318.363815 
M 306.401706 317.865497 
L 306.864758 318.07351 
L 307.096283 317.602622 
L 307.559335 317.83578 
L 307.79086 319.573036 
L 308.022386 319.744476 
L 308.253912 319.577608 
L 308.485437 319.6759 
M 308.948489 320.181076 
L 309.180014 320.366231 
M 309.643066 319.927345 
L 310.106117 319.824481 
M 314.042053 313.376062 
L 314.273579 311.908538 
L 314.505105 311.337072 
M 315.199682 311.522227 
L 315.431207 310.859327 
L 315.662733 311.286783 
L 315.894259 310.93476 
L 316.125784 311.005622 
L 316.588836 309.494667 
L 317.283413 309.775828 
L 317.514938 308.776906 
L 317.746464 308.930059 
L 317.97799 308.523175 
L 318.209515 306.049871 
L 318.441041 308.413454 
L 318.672567 308.328877 
L 318.904092 308.001998 
L 319.367144 307.78027 
L 319.598669 307.951709 
L 319.830195 306.648768 
L 320.061721 306.701342 
L 320.293246 306.157307 
L 320.524772 306.408752 
L 320.756298 307.446534 
L 320.987823 307.830559 
L 321.219349 309.103784 
L 321.450875 307.921993 
M 322.840029 309.062639 
L 323.071554 307.47625 
L 323.30308 306.977932 
L 323.534606 305.462405 
L 323.766131 305.892147 
L 323.997657 304.904654 
L 324.229183 305.064665 
L 324.460708 304.673782 
L 324.692234 304.870366 
L 324.92376 304.321759 
L 325.155285 304.184607 
L 325.386811 304.630351 
L 325.618337 304.81322 
L 325.849862 304.37662 
L 326.081388 305.638416 
L 326.312913 305.032663 
L 326.544439 305.462405 
L 326.775965 305.009804 
L 327.00749 305.032663 
L 327.239016 304.554917 
L 327.470542 304.388049 
L 327.702067 303.213116 
L 327.933593 303.681718 
L 328.165119 303.267976 
L 328.62817 306.959645 
L 328.859696 304.116032 
L 329.322747 304.858937 
L 329.554273 305.700134 
L 329.785798 305.693277 
L 330.017324 306.230455 
L 330.480375 304.710356 
L 330.711901 304.849793 
M 331.869529 303.878302 
L 332.101055 303.645144 
L 332.332581 304.685211 
L 332.564106 304.70807 
L 332.795632 304.532059 
L 333.027158 305.192673 
L 333.258683 303.97888 
L 333.721735 303.665717 
L 333.95326 303.887445 
L 334.416312 299.738604 
L 334.647837 299.784321 
L 334.879363 300.129487 
L 335.110889 301.290705 
M 339.741402 297.395595 
L 339.972928 297.601322 
M 340.89903 297.877912 
L 341.130556 296.467534 
L 341.825133 295.246884 
L 342.056659 295.534902 
L 342.288184 294.90629 
L 342.51971 294.691419 
L 342.751236 294.142812 
L 343.214287 295.676626 
L 343.445813 293.203322 
M 344.371915 294.238818 
L 344.603441 294.295965 
L 344.834967 293.67421 
M 345.761069 293.660495 
L 345.992595 294.444546 
L 346.22412 297.711044 
L 346.455646 296.730409 
L 346.687172 297.423025 
L 346.918697 299.942046 
L 347.381749 299.347722 
L 347.613274 298.723681 
L 347.8448 298.837974 
L 348.076326 298.113356 
M 352.938365 291.388347 
L 353.16989 291.639792 
L 353.401416 292.295835 
L 353.632942 291.242052 
L 353.864467 291.306056 
L 354.559044 287.998412 
L 354.79057 288.709316 
L 355.022096 288.583593 
L 355.253621 286.988061 
L 355.485147 286.183437 
L 355.716673 287.127499 
L 355.948198 286.423453 
L 356.41125 289.230492 
L 356.642775 293.761073 
L 356.874301 291.045468 
L 357.105827 290.30942 
L 357.337352 292.887873 
L 357.568878 289.559657 
L 357.800404 290.485431 
L 358.031929 289.433934 
L 358.494981 286.263442 
L 358.726506 286.871482 
L 358.958032 285.67369 
L 359.189558 287.404088 
L 359.421083 287.257793 
L 359.652609 286.393737 
L 359.884135 286.245156 
L 360.11566 286.36402 
L 360.347186 287.292081 
L 360.578712 289.52994 
L 360.810237 288.540162 
L 361.041763 288.743604 
L 361.273289 287.255507 
L 361.73634 287.479521 
L 362.199391 285.518251 
L 362.430917 285.986853 
L 363.125494 285.353669 
L 363.35702 287.520667 
L 363.588545 285.559397 
L 363.820071 285.792555 
L 364.283122 289.356215 
L 364.514648 286.725187 
L 364.746174 291.059183 
L 364.977699 292.012388 
L 365.209225 289.671664 
L 365.440751 292.080963 
L 365.672276 291.098042 
L 365.903802 290.894601 
L 366.366853 293.63535 
L 366.598379 293.37019 
L 366.829904 290.512862 
L 367.06143 290.894601 
L 367.292956 288.983619 
L 367.524481 289.692237 
L 367.756007 289.694523 
L 367.987533 288.311576 
L 368.219058 288.579022 
M 369.608212 291.127759 
L 369.839738 290.874028 
L 370.071264 291.200906 
L 370.302789 290.688873 
L 370.534315 290.8786 
L 371.460418 285.371956 
L 371.923469 283.147811 
L 372.154995 284.427895 
L 372.38652 284.238168 
M 374.933303 284.779917 
L 375.164828 284.962786 
L 375.396354 283.721563 
M 377.017034 282.587775 
L 377.248559 282.62892 
L 377.480085 281.597996 
L 377.711611 281.975164 
L 377.943136 282.014023 
L 378.174662 283.138668 
L 378.406188 282.649493 
L 378.869239 285.246233 
L 379.100765 287.950409 
L 379.33229 287.294367 
L 379.563816 288.727603 
L 379.795342 287.552669 
L 380.026867 288.457871 
L 380.258393 287.23722 
L 380.489919 288.471586 
L 380.95297 286.073716 
L 381.184496 285.63483 
L 381.416021 284.720485 
L 381.647547 286.027999 
L 381.879073 285.182229 
L 382.342124 285.874846 
L 382.57365 284.619907 
L 382.805175 285.074794 
L 383.036701 284.99936 
L 383.731278 285.758267 
L 384.194329 284.357033 
L 384.425855 285.001646 
L 384.657381 286.805192 
L 384.888906 286.638324 
L 385.120432 286.2703 
L 385.351958 285.321667 
L 385.815009 284.542188 
L 386.27806 283.538694 
L 386.741111 284.368462 
L 386.972637 284.064442 
L 387.204163 282.850649 
L 387.667214 283.762708 
M 388.361791 284.704484 
L 388.593317 282.532914 
L 389.287894 279.543006 
L 389.519419 279.890457 
L 389.750945 278.950967 
L 389.982471 279.106406 
L 390.445522 277.760033 
L 390.908573 280.26991 
L 391.140099 280.466494 
L 391.371625 279.810452 
L 391.60315 280.251623 
L 391.834676 281.30312 
L 392.066202 280.585359 
L 392.297727 279.421855 
L 392.760779 280.658507 
L 392.992304 280.439064 
L 393.22383 281.742006 
L 393.455356 282.388905 
L 393.918407 281.255117 
L 394.149933 281.59571 
L 394.381458 281.485989 
M 396.465189 286.448597 
L 396.696715 288.862469 
L 396.928241 286.254299 
L 397.159766 288.805322 
L 397.391292 286.416595 
L 397.854343 287.856689 
L 398.085869 290.224843 
L 398.317395 289.756241 
L 398.54892 292.078678 
L 398.780446 297.027571 
L 399.011972 295.100588 
L 399.475023 300.179776 
M 401.558754 295.596621 
L 401.79028 299.283717 
L 402.021805 297.050429 
L 402.253331 297.535032 
M 402.716382 305.023519 
L 402.947908 309.533527 
L 403.179434 308.532319 
L 403.410959 309.531241 
L 403.642485 309.464951 
L 403.874011 307.624831 
L 404.105536 307.469392 
L 404.337062 306.020155 
L 404.568588 306.639624 
M 406.652318 308.57575 
L 407.11537 309.789543 
L 407.346895 309.021493 
L 407.578421 310.948476 
L 407.809947 311.727955 
L 408.041472 312.992037 
M 409.199101 312.093693 
L 409.430626 311.471938 
M 410.125203 309.830689 
L 410.356729 310.646742 
L 411.282832 308.221441 
L 411.745883 308.587179 
L 411.977409 307.928851 
L 412.208934 306.737916 
L 412.44046 308.60318 
L 412.671986 308.484315 
L 412.903511 306.529903 
L 413.135037 306.001868 
M 414.524191 308.50946 
L 414.755717 308.333449 
L 414.987242 307.63626 
L 415.218768 308.911772 
L 415.450294 308.740332 
L 415.681819 309.133501 
L 415.913345 308.054573 
L 416.376396 307.286523 
L 416.607922 306.644196 
L 416.839448 306.804206 
L 417.070973 306.367606 
L 417.302499 307.003076 
L 417.534025 306.221311 
L 417.76555 306.335604 
L 417.997076 306.699057 
M 418.923179 306.772204 
L 419.154704 306.831637 
M 420.080807 305.775568 
L 420.312333 305.460119 
L 420.543858 304.065743 
M 421.469961 302.445066 
L 421.701487 302.744514 
L 421.933012 300.563801 
M 422.627589 302.179906 
L 422.859115 302.264483 
L 423.090641 302.093043 
L 423.785218 300.778672 
L 424.016743 299.494017 
L 424.248269 299.576308 
L 424.479795 298.961411 
L 424.71132 298.769398 
L 424.942846 299.347722 
L 425.174372 298.698536 
L 425.405897 298.826545 
L 425.637423 299.176282 
L 425.868949 300.390075 
M 430.962513 305.992725 
L 431.425564 307.921993 
L 431.65709 307.165373 
L 431.888616 307.819129 
L 432.120141 308.93463 
L 433.046244 310.811324 
M 433.740821 309.922123 
L 433.972347 310.315292 
L 434.203872 309.743826 
M 435.824552 309.458093 
L 436.056078 307.663691 
L 436.287603 307.60883 
L 436.519129 307.384815 
M 437.445232 306.20531 
L 437.676757 305.297823 
L 437.908283 305.069236 
L 438.139809 304.625779 
M 439.760488 304.600634 
L 439.992014 304.296615 
L 440.455065 304.417765 
L 440.686591 303.816583 
L 440.918117 303.709148 
L 441.149642 304.106888 
L 441.381168 303.44856 
M 442.538796 302.648508 
L 442.770322 302.504498 
L 443.233373 304.911512 
L 443.464899 305.764139 
L 443.696425 308.141436 
L 444.159476 307.432819 
L 444.391002 306.433896 
L 444.854053 307.990569 
L 445.085579 306.939072 
L 445.317104 308.306018 
M 445.780156 306.136734 
L 446.011681 303.571996 
L 446.243207 304.237182 
L 446.474733 303.469132 
L 446.706258 303.411986 
M 447.863886 304.436052 
L 448.095412 304.319473 
L 448.326938 305.082951 
L 448.558463 304.03374 
L 448.789989 301.523863 
L 449.021515 301.773022 
L 449.716092 300.474652 
L 449.947617 300.488367 
L 450.410669 301.416427 
L 450.642194 301.219843 
L 450.87372 301.469002 
L 451.336771 303.135396 
L 451.568297 302.643936 
L 451.799823 303.17197 
L 452.031348 301.869028 
L 452.262874 302.07247 
M 453.420502 301.164983 
L 453.652028 301.014116 
M 454.809656 300.095199 
L 455.041182 299.971762 
L 455.272708 297.722473 
M 456.19881 297.804764 
L 456.430336 297.896199 
M 456.893387 297.610466 
L 457.124913 295.854923 
L 457.356439 295.340604 
L 457.587964 296.225233 
L 457.81949 296.206946 
L 458.051016 296.659547 
L 458.282541 296.300666 
L 458.514067 294.492549 
L 458.745593 294.695991 
L 458.977118 295.148591 
L 459.208644 294.986295 
L 459.44017 295.114303 
L 459.671695 295.022869 
L 459.903221 294.695991 
L 460.134747 294.93372 
L 460.366272 294.654845 
L 460.597798 295.934928 
L 460.829324 294.085665 
L 461.060849 295.0663 
L 461.292375 294.33711 
L 461.523901 294.565696 
L 461.755426 294.4034 
L 461.986952 292.04439 
L 462.218478 293.006738 
L 462.450003 292.723291 
M 464.76526 291.390633 
L 464.996786 291.40892 
L 465.228311 291.14376 
L 465.459837 290.425999 
L 465.691363 290.147123 
L 466.154414 287.893263 
L 466.617465 288.064702 
L 466.848991 287.934408 
L 467.080516 288.464728 
M 467.543568 288.823609 
L 467.775093 287.769826 
M 468.238145 288.421297 
L 468.46967 287.765254 
L 468.701196 287.662391 
L 469.164247 286.761761 
L 469.395773 285.01079 
L 469.627299 286.085145 
L 469.858824 286.476028 
L 470.09035 285.707978 
L 470.321876 285.627973 
L 470.553401 285.934278 
L 471.016453 284.809634 
L 471.247978 285.353669 
M 472.637132 287.67382 
L 473.100184 285.289665 
L 473.331709 284.492996 
L 473.563235 285.099938 
L 473.794761 282.498626 
L 474.257812 280.311056 
L 474.489338 280.713367 
L 474.720863 276.367942 
L 474.952389 274.818127 
L 475.183915 270.673858 
L 475.41544 272.045375 
L 476.110017 282.708926 
L 476.341543 281.428842 
L 476.573069 284.869066 
L 476.804594 280.875664 
L 477.03612 279.421855 
L 477.267646 281.831154 
L 477.499171 277.574878 
L 477.962223 281.796866 
L 478.193748 286.505744 
L 478.425274 282.930654 
L 478.6568 286.2703 
L 478.888325 293.164462 
L 479.119851 287.557241 
L 479.351377 297.715615 
L 479.582902 292.94502 
L 479.814428 296.248091 
L 480.045954 293.927941 
L 480.277479 295.578334 
L 480.509005 293.991945 
L 480.740531 285.650831 
L 480.972056 286.464598 
L 481.203582 283.808426 
L 481.435108 284.83935 
L 481.666633 281.89973 
L 481.898159 282.354617 
L 482.129685 287.047493 
L 482.36121 284.213023 
L 482.592736 286.855481 
L 482.824262 281.257403 
L 483.055787 283.399256 
L 483.287313 281.588853 
L 483.518839 282.503198 
L 483.750364 280.925953 
L 483.98189 277.702886 
L 484.213416 278.413789 
L 484.444941 275.245583 
L 484.676467 275.789619 
L 484.907993 276.994268 
M 485.371044 277.199996 
L 485.60257 277.689171 
L 486.065621 274.701548 
M 487.6863 274.539252 
L 488.149352 271.176747 
L 488.380877 268.863454 
L 488.612403 271.268182 
L 488.843929 271.47391 
L 489.075454 269.183475 
L 489.538506 262.602476 
L 489.770031 262.0973 
L 490.001557 260.593202 
L 490.233083 262.37389 
L 490.464608 260.078883 
L 490.92766 264.659752 
L 491.159185 265.009489 
L 491.390711 261.457259 
L 491.622237 262.090443 
L 491.853762 261.916717 
L 492.085288 262.426464 
L 492.316814 262.453895 
L 492.548339 261.050375 
L 492.779865 262.101872 
L 493.242916 256.965538 
L 493.474442 262.181877 
L 493.705968 260.936082 
L 493.937493 258.730224 
L 494.169019 259.692572 
M 495.095122 255.502586 
L 495.326647 256.204346 
L 495.558173 258.165616 
L 495.789699 255.838608 
M 496.484276 255.767746 
L 496.715801 255.47287 
L 496.947327 254.720821 
L 497.178853 252.645257 
L 497.410378 252.348095 
L 497.87343 246.52143 
L 498.104955 246.793448 
L 498.336481 250.697702 
L 498.568007 247.728366 
L 498.799532 249.097598 
M 499.494109 246.505429 
L 499.725635 248.171823 
L 499.957161 247.163758 
M 503.893097 236.875089 
L 504.124623 229.807201 
L 504.356148 230.504389 
L 504.587674 231.622176 
L 504.8192 231.599318 
L 505.050725 226.638995 
L 505.745302 225.820656 
L 505.976828 227.144171 
L 506.208354 222.394148 
L 506.439879 220.32087 
L 506.902931 211.433435 
L 507.134456 223.603369 
L 507.365982 227.196746 
L 507.597507 233.684025 
L 507.829033 226.350976 
L 508.060559 230.038073 
L 508.292084 231.384447 
L 508.52361 224.913169 
L 508.755136 223.827384 
L 508.986661 228.184239 
L 509.218187 228.650555 
M 509.681238 228.159094 
L 509.912764 227.057308 
M 510.607341 224.899454 
L 511.070392 221.680959 
L 511.301918 218.894492 
L 511.533444 218.126442 
L 511.764969 223.175913 
L 511.996495 217.870425 
L 512.228021 217.010941 
L 512.459546 214.930806 
L 512.922598 216.770925 
M 513.617175 213.730728 
L 514.080226 216.325182 
L 514.311752 219.19394 
L 514.543277 217.842995 
L 515.006329 220.444307 
L 515.237854 218.348171 
L 515.46938 222.45358 
L 515.700906 220.117428 
L 515.932431 227.1556 
L 516.163957 223.52565 
L 516.395483 228.005941 
L 516.627008 227.578485 
L 516.858534 223.566795 
L 517.09006 216.482906 
L 517.553111 209.463022 
L 518.016162 225.848087 
L 518.247688 219.92313 
L 518.479214 219.568821 
L 518.710739 221.029488 
L 518.942265 219.033929 
L 519.173791 219.88427 
L 519.636842 219.719688 
L 519.868368 222.942755 
L 520.099893 222.46501 
L 520.331419 224.131404 
L 520.562945 221.598668 
L 520.79447 221.356366 
L 521.025996 220.073997 
L 521.257522 220.179147 
L 521.489047 218.766483 
L 521.720573 220.124286 
L 521.952099 218.640761 
L 522.183624 218.197304 
L 522.41515 220.544885 
L 522.646676 224.378277 
L 523.109727 223.623942 
L 523.341253 220.922052 
L 523.572778 220.448879 
L 523.804304 221.527806 
L 524.03583 220.62489 
L 524.267355 221.258074 
L 524.498881 220.707181 
L 524.730407 221.200927 
L 524.961932 223.660516 
L 525.193458 223.802239 
L 525.424984 224.659438 
L 525.656509 224.263984 
L 525.888035 222.412435 
L 526.119561 223.242203 
L 526.351086 222.707311 
L 526.582612 220.044281 
L 526.814138 227.269893 
L 527.045663 220.599745 
L 527.277189 221.214643 
L 527.508714 218.062438 
L 527.74024 219.312805 
L 527.971766 218.883062 
L 528.434817 225.029748 
L 528.666343 223.514221 
L 529.129394 215.813149 
M 530.750074 221.578095 
L 530.981599 218.654476 
L 531.213125 218.894492 
L 531.444651 217.671555 
L 531.676176 218.341313 
L 531.907702 210.589952 
L 532.139228 212.194628 
L 532.370753 207.613758 
M 533.296856 206.317674 
L 533.528382 207.02172 
L 533.759907 206.130233 
L 533.991433 211.348858 
L 534.222959 213.303271 
L 534.454484 210.039059 
L 534.68601 220.933481 
L 534.917536 217.212097 
L 535.149061 216.048592 
L 535.843638 229.503181 
L 536.075164 228.668841 
L 536.30669 236.607643 
L 536.538215 228.131664 
L 536.769741 228.607123 
L 537.001267 223.804525 
L 537.232792 225.06175 
L 537.464318 221.996408 
L 537.695844 221.082063 
L 537.927369 220.62489 
M 540.474152 216.322896 
L 540.705677 214.715934 
L 540.937203 215.868009 
L 541.400254 211.703167 
L 541.63178 210.944261 
L 542.094831 199.245215 
L 542.326357 202.925454 
M 543.020934 202.150546 
L 543.25246 203.892374 
L 543.483985 202.161976 
L 543.715511 206.827422 
M 544.178562 201.08762 
L 544.641614 202.92774 
L 544.873139 202.488854 
L 545.567716 211.390004 
L 546.030768 209.819616 
L 546.262293 207.174873 
M 552.745012 172.018302 
L 552.976537 172.187456 
M 553.439589 169.91988 
L 553.90264 167.005405 
L 554.134166 168.600937 
L 554.365691 159.878084 
L 554.597217 159.496345 
L 554.828743 159.718074 
L 555.52332 153.354231 
L 555.986371 160.630133 
L 556.217897 159.281474 
L 556.449422 155.054913 
L 556.680948 157.455069 
L 556.912474 161.190169 
L 557.143999 169.192975 
M 558.070102 165.135569 
L 558.301628 163.453174 
L 558.533153 163.782338 
L 558.764679 166.196209 
L 558.996205 166.982546 
L 559.459256 162.831419 
L 559.690782 164.321801 
L 559.922307 162.026795 
L 560.153833 161.432471 
L 560.616884 153.916554 
L 560.84841 156.394429 
L 561.079936 157.043614 
M 563.163667 152.279876 
L 563.395192 141.838054 
L 563.626718 143.346724 
L 563.858244 139.506474 
L 564.089769 140.832275 
L 564.321295 135.638794 
M 564.784346 137.9338 
L 565.015872 137.421767 
L 565.247398 137.833222 
L 565.478923 133.7461 
L 565.710449 135.401064 
L 565.941975 138.354399 
L 566.1735 139.835638 
L 566.405026 137.083459 
L 566.636552 140.064225 
M 567.099603 138.336112 
L 567.331129 139.241314 
L 567.562654 142.368374 
L 567.79418 149.564271 
L 568.025705 148.348192 
L 568.488757 137.046886 
L 568.951808 144.562803 
L 569.183334 153.34966 
L 569.414859 155.013768 
L 569.646385 153.194221 
L 569.877911 152.956491 
M 575.203001 99.412439 
L 575.434527 70.125964 
L 575.666052 70.573993 
L 575.897578 60.955082 
L 576.129104 62.29917 
L 576.360629 73.253025 
L 576.592155 64.740471 
L 576.823681 64.740471 
L 577.055206 68.077831 
L 577.286732 66.450297 
L 577.518258 75.063428 
L 577.981309 41.013215 
L 578.212835 50.421826 
L 578.44436 52.341951 
L 578.675886 43.856828 
L 578.907412 54.56381 
L 579.138937 37.438125 
L 579.370463 43.838541 
L 579.601989 55.185564 
L 579.601989 55.185564 
" clip-path="url(#p177713ab8a)" style="fill: none; stroke: #1e90ff; stroke-linecap: square"/>
   </g>
   <g id="patch_3">
    <path d="M 46.965625 354.958125 
L 46.965625 22.318125 
" style="fill: none; stroke: #000000; stroke-width: 0.8; stroke-linejoin: miter; stroke-linecap: square"/>
   </g>
   <g id="patch_4">
    <path d="M 604.965625 354.958125 
L 604.965625 22.318125 
" style="fill: none; stroke: #000000; stroke-width: 0.8; stroke-linejoin: miter; stroke-linecap: square"/>
   </g>
   <g id="patch_5">
    <path d="M 46.965625 354.958125 
L 604.965625 354.958125 
" style="fill: none; stroke: #000000; stroke-width: 0.8; stroke-linejoin: miter; stroke-linecap: square"/>
   </g>
   <g id="patch_6">
    <path d="M 46.965625 22.318125 
L 604.965625 22.318125 
" style="fill: none; stroke: #000000; stroke-width: 0.8; stroke-linejoin: miter; stroke-linecap: square"/>
   </g>
   <g id="text_16">
    <!-- NVDA, Relative Strength Index (RSI), NVDA -->
    <g transform="translate(197.095 16.318125)scale(0.12 -0.12)">
     <defs>
      <path id="DejaVuSans-4e" d="M 628 4666 
L 1478 4666 
L 3547 763 
L 3547 4666 
L 4159 4666 
L 4159 0 
L 3309 0 
L 1241 3903 
L 1241 0 
L 628 0 
L 628 4666 
z
" transform="scale(0.015625)"/>
      <path id="DejaVuSans-56" d="M 1831 0 
L 50 4666 
L 709 4666 
L 2188 738 
L 3669 4666 
L 4325 4666 
L 2547 0 
L 1831 0 
z
" transform="scale(0.015625)"/>
      <path id="DejaVuSans-41" d="M 2188 4044 
L 1331 1722 
L 3047 1722 
L 2188 4044 
z
M 1831 4666 
L 2547 4666 
L 4325 0 
L 3669 0 
L 3244 1197 
L 1141 1197 
L 716 0 
L 50 0 
L 1831 4666 
z
" transform="scale(0.015625)"/>
      <path id="DejaVuSans-2c" d="M 750 794 
L 1409 794 
L 1409 256 
L 897 -744 
L 494 -744 
L 750 256 
L 750 794 
z
" transform="scale(0.015625)"/>
      <path id="DejaVuSans-52" d="M 2841 2188 
Q 3044 2119 3236 1894 
Q 3428 1669 3622 1275 
L 4263 0 
L 3584 0 
L 2988 1197 
Q 2756 1666 2539 1819 
Q 2322 1972 1947 1972 
L 1259 1972 
L 1259 0 
L 628 0 
L 628 4666 
L 2053 4666 
Q 2853 4666 3247 4331 
Q 3641 3997 3641 3322 
Q 3641 2881 3436 2590 
Q 3231 2300 2841 2188 
z
M 1259 4147 
L 1259 2491 
L 2053 2491 
Q 2509 2491 2742 2702 
Q 2975 2913 2975 3322 
Q 2975 3731 2742 3939 
Q 2509 4147 2053 4147 
L 1259 4147 
z
" transform="scale(0.015625)"/>
      <path id="DejaVuSans-6c" d="M 603 4863 
L 1178 4863 
L 1178 0 
L 603 0 
L 603 4863 
z
" transform="scale(0.015625)"/>
      <path id="DejaVuSans-76" d="M 191 3500 
L 800 3500 
L 1894 563 
L 2988 3500 
L 3597 3500 
L 2284 0 
L 1503 0 
L 191 3500 
z
" transform="scale(0.015625)"/>
      <path id="DejaVuSans-6e" d="M 3513 2113 
L 3513 0 
L 2938 0 
L 2938 2094 
Q 2938 2591 2744 2837 
Q 2550 3084 2163 3084 
Q 1697 3084 1428 2787 
Q 1159 2491 1159 1978 
L 1159 0 
L 581 0 
L 581 3500 
L 1159 3500 
L 1159 2956 
Q 1366 3272 1645 3428 
Q 1925 3584 2291 3584 
Q 2894 3584 3203 3211 
Q 3513 2838 3513 2113 
z
" transform="scale(0.015625)"/>
      <path id="DejaVuSans-67" d="M 2906 1791 
Q 2906 2416 2648 2759 
Q 2391 3103 1925 3103 
Q 1463 3103 1205 2759 
Q 947 2416 947 1791 
Q 947 1169 1205 825 
Q 1463 481 1925 481 
Q 2391 481 2648 825 
Q 2906 1169 2906 1791 
z
M 3481 434 
Q 3481 -459 3084 -895 
Q 2688 -1331 1869 -1331 
Q 1566 -1331 1297 -1286 
Q 1028 -1241 775 -1147 
L 775 -588 
Q 1028 -725 1275 -790 
Q 1522 -856 1778 -856 
Q 2344 -856 2625 -561 
Q 2906 -266 2906 331 
L 2906 616 
Q 2728 306 2450 153 
Q 2172 0 1784 0 
Q 1141 0 747 490 
Q 353 981 353 1791 
Q 353 2603 747 3093 
Q 1141 3584 1784 3584 
Q 2172 3584 2450 3431 
Q 2728 3278 2906 2969 
L 2906 3500 
L 3481 3500 
L 3481 434 
z
" transform="scale(0.015625)"/>
      <path id="DejaVuSans-68" d="M 3513 2113 
L 3513 0 
L 2938 0 
L 2938 2094 
Q 2938 2591 2744 2837 
Q 2550 3084 2163 3084 
Q 1697 3084 1428 2787 
Q 1159 2491 1159 1978 
L 1159 0 
L 581 0 
L 581 4863 
L 1159 4863 
L 1159 2956 
Q 1366 3272 1645 3428 
Q 1925 3584 2291 3584 
Q 2894 3584 3203 3211 
Q 3513 2838 3513 2113 
z
" transform="scale(0.015625)"/>
      <path id="DejaVuSans-49" d="M 628 4666 
L 1259 4666 
L 1259 0 
L 628 0 
L 628 4666 
z
" transform="scale(0.015625)"/>
      <path id="DejaVuSans-64" d="M 2906 2969 
L 2906 4863 
L 3481 4863 
L 3481 0 
L 2906 0 
L 2906 525 
Q 2725 213 2448 61 
Q 2172 -91 1784 -91 
Q 1150 -91 751 415 
Q 353 922 353 1747 
Q 353 2572 751 3078 
Q 1150 3584 1784 3584 
Q 2172 3584 2448 3432 
Q 2725 3281 2906 2969 
z
M 947 1747 
Q 947 1113 1208 752 
Q 1469 391 1925 391 
Q 2381 391 2643 752 
Q 2906 1113 2906 1747 
Q 2906 2381 2643 2742 
Q 2381 3103 1925 3103 
Q 1469 3103 1208 2742 
Q 947 2381 947 1747 
z
" transform="scale(0.015625)"/>
      <path id="DejaVuSans-78" d="M 3513 3500 
L 2247 1797 
L 3578 0 
L 2900 0 
L 1881 1375 
L 863 0 
L 184 0 
L 1544 1831 
L 300 3500 
L 978 3500 
L 1906 2253 
L 2834 3500 
L 3513 3500 
z
" transform="scale(0.015625)"/>
     </defs>
     <use xlink:href="#DejaVuSans-4e"/>
     <use xlink:href="#DejaVuSans-56" x="74.804688"/>
     <use xlink:href="#DejaVuSans-44" x="143.212891"/>
     <use xlink:href="#DejaVuSans-41" x="218.464844"/>
     <use xlink:href="#DejaVuSans-2c" x="286.873047"/>
     <use xlink:href="#DejaVuSans-20" x="318.660156"/>
     <use xlink:href="#DejaVuSans-52" x="350.447266"/>
     <use xlink:href="#DejaVuSans-65" x="415.429688"/>
     <use xlink:href="#DejaVuSans-6c" x="476.953125"/>
     <use xlink:href="#DejaVuSans-61" x="504.736328"/>
     <use xlink:href="#DejaVuSans-74" x="566.015625"/>
     <use xlink:href="#DejaVuSans-69" x="605.224609"/>
     <use xlink:href="#DejaVuSans-76" x="633.007812"/>
     <use xlink:href="#DejaVuSans-65" x="692.1875"/>
     <use xlink:href="#DejaVuSans-20" x="753.710938"/>
     <use xlink:href="#DejaVuSans-53" x="785.498047"/>
     <use xlink:href="#DejaVuSans-74" x="848.974609"/>
     <use xlink:href="#DejaVuSans-72" x="888.183594"/>
     <use xlink:href="#DejaVuSans-65" x="927.046875"/>
     <use xlink:href="#DejaVuSans-6e" x="988.570312"/>
     <use xlink:href="#DejaVuSans-67" x="1051.949219"/>
     <use xlink:href="#DejaVuSans-74" x="1115.425781"/>
     <use xlink:href="#DejaVuSans-68" x="1154.634766"/>
     <use xlink:href="#DejaVuSans-20" x="1218.013672"/>
     <use xlink:href="#DejaVuSans-49" x="1249.800781"/>
     <use xlink:href="#DejaVuSans-6e" x="1279.292969"/>
     <use xlink:href="#DejaVuSans-64" x="1342.671875"/>
     <use xlink:href="#DejaVuSans-65" x="1406.148438"/>
     <use xlink:href="#DejaVuSans-78" x="1465.921875"/>
     <use xlink:href="#DejaVuSans-20" x="1525.101562"/>
     <use xlink:href="#DejaVuSans-28" x="1556.888672"/>
     <use xlink:href="#DejaVuSans-52" x="1595.902344"/>
     <use xlink:href="#DejaVuSans-53" x="1665.384766"/>
     <use xlink:href="#DejaVuSans-49" x="1728.861328"/>
     <use xlink:href="#DejaVuSans-29" x="1758.353516"/>
     <use xlink:href="#DejaVuSans-2c" x="1797.367188"/>
     <use xlink:href="#DejaVuSans-20" x="1829.154297"/>
     <use xlink:href="#DejaVuSans-4e" x="1860.941406"/>
     <use xlink:href="#DejaVuSans-56" x="1935.746094"/>
     <use xlink:href="#DejaVuSans-44" x="2004.154297"/>
     <use xlink:href="#DejaVuSans-41" x="2079.40625"/>
    </g>
   </g>
   <g id="legend_1">
    <g id="patch_7">
     <path d="M 53.965625 74.3525 
L 203.875 74.3525 
Q 205.875 74.3525 205.875 72.3525 
L 205.875 29.318125 
Q 205.875 27.318125 203.875 27.318125 
L 53.965625 27.318125 
Q 51.965625 27.318125 51.965625 29.318125 
L 51.965625 72.3525 
Q 51.965625 74.3525 53.965625 74.3525 
z
" style="fill: #ffffff; opacity: 0.8; stroke: #cccccc; stroke-linejoin: miter"/>
    </g>
    <g id="line2d_25">
     <path d="M 55.965625 35.416562 
L 65.965625 35.416562 
L 75.965625 35.416562 
" style="fill: none; stroke: #00ff7f; stroke-linecap: square"/>
    </g>
    <g id="text_17">
     <!-- Oversold, RSI &lt;= 30 -->
     <g transform="translate(83.965625 38.916562)scale(0.1 -0.1)">
      <defs>
       <path id="DejaVuSans-4f" d="M 2522 4238 
Q 1834 4238 1429 3725 
Q 1025 3213 1025 2328 
Q 1025 1447 1429 934 
Q 1834 422 2522 422 
Q 3209 422 3611 934 
Q 4013 1447 4013 2328 
Q 4013 3213 3611 3725 
Q 3209 4238 2522 4238 
z
M 2522 4750 
Q 3503 4750 4090 4092 
Q 4678 3434 4678 2328 
Q 4678 1225 4090 567 
Q 3503 -91 2522 -91 
Q 1538 -91 948 565 
Q 359 1222 359 2328 
Q 359 3434 948 4092 
Q 1538 4750 2522 4750 
z
" transform="scale(0.015625)"/>
       <path id="DejaVuSans-73" d="M 2834 3397 
L 2834 2853 
Q 2591 2978 2328 3040 
Q 2066 3103 1784 3103 
Q 1356 3103 1142 2972 
Q 928 2841 928 2578 
Q 928 2378 1081 2264 
Q 1234 2150 1697 2047 
L 1894 2003 
Q 2506 1872 2764 1633 
Q 3022 1394 3022 966 
Q 3022 478 2636 193 
Q 2250 -91 1575 -91 
Q 1294 -91 989 -36 
Q 684 19 347 128 
L 347 722 
Q 666 556 975 473 
Q 1284 391 1588 391 
Q 1994 391 2212 530 
Q 2431 669 2431 922 
Q 2431 1156 2273 1281 
Q 2116 1406 1581 1522 
L 1381 1569 
Q 847 1681 609 1914 
Q 372 2147 372 2553 
Q 372 3047 722 3315 
Q 1072 3584 1716 3584 
Q 2034 3584 2315 3537 
Q 2597 3491 2834 3397 
z
" transform="scale(0.015625)"/>
       <path id="DejaVuSans-6f" d="M 1959 3097 
Q 1497 3097 1228 2736 
Q 959 2375 959 1747 
Q 959 1119 1226 758 
Q 1494 397 1959 397 
Q 2419 397 2687 759 
Q 2956 1122 2956 1747 
Q 2956 2369 2687 2733 
Q 2419 3097 1959 3097 
z
M 1959 3584 
Q 2709 3584 3137 3096 
Q 3566 2609 3566 1747 
Q 3566 888 3137 398 
Q 2709 -91 1959 -91 
Q 1206 -91 779 398 
Q 353 888 353 1747 
Q 353 2609 779 3096 
Q 1206 3584 1959 3584 
z
" transform="scale(0.015625)"/>
       <path id="DejaVuSans-3c" d="M 4684 3150 
L 1459 2003 
L 4684 863 
L 4684 294 
L 678 1747 
L 678 2266 
L 4684 3719 
L 4684 3150 
z
" transform="scale(0.015625)"/>
       <path id="DejaVuSans-3d" d="M 678 2906 
L 4684 2906 
L 4684 2381 
L 678 2381 
L 678 2906 
z
M 678 1631 
L 4684 1631 
L 4684 1100 
L 678 1100 
L 678 1631 
z
" transform="scale(0.015625)"/>
      </defs>
      <use xlink:href="#DejaVuSans-4f"/>
      <use xlink:href="#DejaVuSans-76" x="78.710938"/>
      <use xlink:href="#DejaVuSans-65" x="137.890625"/>
      <use xlink:href="#DejaVuSans-72" x="199.414062"/>
      <use xlink:href="#DejaVuSans-73" x="240.527344"/>
      <use xlink:href="#DejaVuSans-6f" x="292.626953"/>
      <use xlink:href="#DejaVuSans-6c" x="353.808594"/>
      <use xlink:href="#DejaVuSans-64" x="381.591797"/>
      <use xlink:href="#DejaVuSans-2c" x="445.068359"/>
      <use xlink:href="#DejaVuSans-20" x="476.855469"/>
      <use xlink:href="#DejaVuSans-52" x="508.642578"/>
      <use xlink:href="#DejaVuSans-53" x="578.125"/>
      <use xlink:href="#DejaVuSans-49" x="641.601562"/>
      <use xlink:href="#DejaVuSans-20" x="671.09375"/>
      <use xlink:href="#DejaVuSans-3c" x="702.880859"/>
      <use xlink:href="#DejaVuSans-3d" x="786.669922"/>
      <use xlink:href="#DejaVuSans-20" x="870.458984"/>
      <use xlink:href="#DejaVuSans-33" x="902.246094"/>
      <use xlink:href="#DejaVuSans-30" x="965.869141"/>
     </g>
    </g>
    <g id="line2d_26">
     <path d="M 55.965625 50.094687 
L 65.965625 50.094687 
L 75.965625 50.094687 
" style="fill: none; stroke: #ff4500; stroke-linecap: square"/>
    </g>
    <g id="text_18">
     <!-- Overbought, RSI &gt;= 70 -->
     <g transform="translate(83.965625 53.594687)scale(0.1 -0.1)">
      <defs>
       <path id="DejaVuSans-62" d="M 3116 1747 
Q 3116 2381 2855 2742 
Q 2594 3103 2138 3103 
Q 1681 3103 1420 2742 
Q 1159 2381 1159 1747 
Q 1159 1113 1420 752 
Q 1681 391 2138 391 
Q 2594 391 2855 752 
Q 3116 1113 3116 1747 
z
M 1159 2969 
Q 1341 3281 1617 3432 
Q 1894 3584 2278 3584 
Q 2916 3584 3314 3078 
Q 3713 2572 3713 1747 
Q 3713 922 3314 415 
Q 2916 -91 2278 -91 
Q 1894 -91 1617 61 
Q 1341 213 1159 525 
L 1159 0 
L 581 0 
L 581 4863 
L 1159 4863 
L 1159 2969 
z
" transform="scale(0.015625)"/>
       <path id="DejaVuSans-75" d="M 544 1381 
L 544 3500 
L 1119 3500 
L 1119 1403 
Q 1119 906 1312 657 
Q 1506 409 1894 409 
Q 2359 409 2629 706 
Q 2900 1003 2900 1516 
L 2900 3500 
L 3475 3500 
L 3475 0 
L 2900 0 
L 2900 538 
Q 2691 219 2414 64 
Q 2138 -91 1772 -91 
Q 1169 -91 856 284 
Q 544 659 544 1381 
z
M 1991 3584 
L 1991 3584 
z
" transform="scale(0.015625)"/>
       <path id="DejaVuSans-3e" d="M 678 3150 
L 678 3719 
L 4684 2266 
L 4684 1747 
L 678 294 
L 678 863 
L 3897 2003 
L 678 3150 
z
" transform="scale(0.015625)"/>
       <path id="DejaVuSans-37" d="M 525 4666 
L 3525 4666 
L 3525 4397 
L 1831 0 
L 1172 0 
L 2766 4134 
L 525 4134 
L 525 4666 
z
" transform="scale(0.015625)"/>
      </defs>
      <use xlink:href="#DejaVuSans-4f"/>
      <use xlink:href="#DejaVuSans-76" x="78.710938"/>
      <use xlink:href="#DejaVuSans-65" x="137.890625"/>
      <use xlink:href="#DejaVuSans-72" x="199.414062"/>
      <use xlink:href="#DejaVuSans-62" x="240.527344"/>
      <use xlink:href="#DejaVuSans-6f" x="304.003906"/>
      <use xlink:href="#DejaVuSans-75" x="365.185547"/>
      <use xlink:href="#DejaVuSans-67" x="428.564453"/>
      <use xlink:href="#DejaVuSans-68" x="492.041016"/>
      <use xlink:href="#DejaVuSans-74" x="555.419922"/>
      <use xlink:href="#DejaVuSans-2c" x="594.628906"/>
      <use xlink:href="#DejaVuSans-20" x="626.416016"/>
      <use xlink:href="#DejaVuSans-52" x="658.203125"/>
      <use xlink:href="#DejaVuSans-53" x="727.685547"/>
      <use xlink:href="#DejaVuSans-49" x="791.162109"/>
      <use xlink:href="#DejaVuSans-20" x="820.654297"/>
      <use xlink:href="#DejaVuSans-3e" x="852.441406"/>
      <use xlink:href="#DejaVuSans-3d" x="936.230469"/>
      <use xlink:href="#DejaVuSans-20" x="1020.019531"/>
      <use xlink:href="#DejaVuSans-37" x="1051.806641"/>
      <use xlink:href="#DejaVuSans-30" x="1115.429688"/>
     </g>
    </g>
    <g id="line2d_27">
     <path d="M 55.965625 64.772812 
L 65.965625 64.772812 
L 75.965625 64.772812 
" style="fill: none; stroke: #1e90ff; stroke-linecap: square"/>
    </g>
    <g id="text_19">
     <!-- Neutral -->
     <g transform="translate(83.965625 68.272812)scale(0.1 -0.1)">
      <use xlink:href="#DejaVuSans-4e"/>
      <use xlink:href="#DejaVuSans-65" x="74.804688"/>
      <use xlink:href="#DejaVuSans-75" x="136.328125"/>
      <use xlink:href="#DejaVuSans-74" x="199.707031"/>
      <use xlink:href="#DejaVuSans-72" x="238.916016"/>
      <use xlink:href="#DejaVuSans-61" x="280.029297"/>
      <use xlink:href="#DejaVuSans-6c" x="341.308594"/>
     </g>
    </g>
   </g>
  </g>
 </g>
 <defs>
  <clipPath id="p177713ab8a">
   <rect x="46.965625" y="22.318125" width="558" height="332.64"/>
  </clipPath>
 </defs>
</svg>
