<?xml version="1.0" encoding="utf-8" standalone="no"?>
<!DOCTYPE svg PUBLIC "-//W3C//DTD SVG 1.1//EN"
  "http://www.w3.org/Graphics/SVG/1.1/DTD/svg11.dtd">
<svg xmlns:xlink="http://www.w3.org/1999/xlink" width="605.803125pt" height="378.83625pt" viewBox="0 0 605.803125 378.83625" xmlns="http://www.w3.org/2000/svg" version="1.1">
 <metadata>
  <rdf:RDF xmlns:dc="http://purl.org/dc/elements/1.1/" xmlns:cc="http://creativecommons.org/ns#" xmlns:rdf="http://www.w3.org/1999/02/22-rdf-syntax-ns#">
   <cc:Work>
    <dc:type rdf:resource="http://purl.org/dc/dcmitype/StillImage"/>
    <dc:date>2023-03-19T13:38:55.574209</dc:date>
    <dc:format>image/svg+xml</dc:format>
    <dc:creator>
     <cc:Agent>
      <dc:title>Matplotlib v3.5.1, https://matplotlib.org/</dc:title>
     </cc:Agent>
    </dc:creator>
   </cc:Work>
  </rdf:RDF>
 </metadata>
 <defs>
  <style type="text/css">*{stroke-linejoin: round; stroke-linecap: butt}</style>
 </defs>
 <g id="figure_1">
  <g id="patch_1">
   <path d="M 0 378.83625 
L 605.803125 378.83625 
L 605.803125 0 
L 0 0 
z
" style="fill: #ffffff"/>
  </g>
  <g id="axes_1">
   <g id="patch_2">
    <path d="M 40.603125 354.958125 
L 598.603125 354.958125 
L 598.603125 22.318125 
L 40.603125 22.318125 
z
" style="fill: #ffffff"/>
   </g>
   <g id="matplotlib.axis_1">
    <g id="xtick_1">
     <g id="line2d_1">
      <defs>
       <path id="mc085a02ecc" d="M 0 0 
L 0 3.5 
" style="stroke: #000000; stroke-width: 0.8"/>
      </defs>
      <g>
       <use xlink:href="#mc085a02ecc" x="55.265392" y="354.958125" style="stroke: #000000; stroke-width: 0.8"/>
      </g>
     </g>
     <g id="text_1">
      <!-- 2013 -->
      <g transform="translate(42.540392 369.556562)scale(0.1 -0.1)">
       <defs>
        <path id="DejaVuSans-32" d="M 1228 531 
L 3431 531 
L 3431 0 
L 469 0 
L 469 531 
Q 828 903 1448 1529 
Q 2069 2156 2228 2338 
Q 2531 2678 2651 2914 
Q 2772 3150 2772 3378 
Q 2772 3750 2511 3984 
Q 2250 4219 1831 4219 
Q 1534 4219 1204 4116 
Q 875 4013 500 3803 
L 500 4441 
Q 881 4594 1212 4672 
Q 1544 4750 1819 4750 
Q 2544 4750 2975 4387 
Q 3406 4025 3406 3419 
Q 3406 3131 3298 2873 
Q 3191 2616 2906 2266 
Q 2828 2175 2409 1742 
Q 1991 1309 1228 531 
z
" transform="scale(0.015625)"/>
        <path id="DejaVuSans-30" d="M 2034 4250 
Q 1547 4250 1301 3770 
Q 1056 3291 1056 2328 
Q 1056 1369 1301 889 
Q 1547 409 2034 409 
Q 2525 409 2770 889 
Q 3016 1369 3016 2328 
Q 3016 3291 2770 3770 
Q 2525 4250 2034 4250 
z
M 2034 4750 
Q 2819 4750 3233 4129 
Q 3647 3509 3647 2328 
Q 3647 1150 3233 529 
Q 2819 -91 2034 -91 
Q 1250 -91 836 529 
Q 422 1150 422 2328 
Q 422 3509 836 4129 
Q 1250 4750 2034 4750 
z
" transform="scale(0.015625)"/>
        <path id="DejaVuSans-31" d="M 794 531 
L 1825 531 
L 1825 4091 
L 703 3866 
L 703 4441 
L 1819 4666 
L 2450 4666 
L 2450 531 
L 3481 531 
L 3481 0 
L 794 0 
L 794 531 
z
" transform="scale(0.015625)"/>
        <path id="DejaVuSans-33" d="M 2597 2516 
Q 3050 2419 3304 2112 
Q 3559 1806 3559 1356 
Q 3559 666 3084 287 
Q 2609 -91 1734 -91 
Q 1441 -91 1130 -33 
Q 819 25 488 141 
L 488 750 
Q 750 597 1062 519 
Q 1375 441 1716 441 
Q 2309 441 2620 675 
Q 2931 909 2931 1356 
Q 2931 1769 2642 2001 
Q 2353 2234 1838 2234 
L 1294 2234 
L 1294 2753 
L 1863 2753 
Q 2328 2753 2575 2939 
Q 2822 3125 2822 3475 
Q 2822 3834 2567 4026 
Q 2313 4219 1838 4219 
Q 1578 4219 1281 4162 
Q 984 4106 628 3988 
L 628 4550 
Q 988 4650 1302 4700 
Q 1616 4750 1894 4750 
Q 2613 4750 3031 4423 
Q 3450 4097 3450 3541 
Q 3450 3153 3228 2886 
Q 3006 2619 2597 2516 
z
" transform="scale(0.015625)"/>
       </defs>
       <use xlink:href="#DejaVuSans-32"/>
       <use xlink:href="#DejaVuSans-30" x="63.623047"/>
       <use xlink:href="#DejaVuSans-31" x="127.246094"/>
       <use xlink:href="#DejaVuSans-33" x="190.869141"/>
      </g>
     </g>
    </g>
    <g id="xtick_2">
     <g id="line2d_2">
      <g>
       <use xlink:href="#mc085a02ecc" x="105.992664" y="354.958125" style="stroke: #000000; stroke-width: 0.8"/>
      </g>
     </g>
     <g id="text_2">
      <!-- 2014 -->
      <g transform="translate(93.267664 369.556562)scale(0.1 -0.1)">
       <defs>
        <path id="DejaVuSans-34" d="M 2419 4116 
L 825 1625 
L 2419 1625 
L 2419 4116 
z
M 2253 4666 
L 3047 4666 
L 3047 1625 
L 3713 1625 
L 3713 1100 
L 3047 1100 
L 3047 0 
L 2419 0 
L 2419 1100 
L 313 1100 
L 313 1709 
L 2253 4666 
z
" transform="scale(0.015625)"/>
       </defs>
       <use xlink:href="#DejaVuSans-32"/>
       <use xlink:href="#DejaVuSans-30" x="63.623047"/>
       <use xlink:href="#DejaVuSans-31" x="127.246094"/>
       <use xlink:href="#DejaVuSans-34" x="190.869141"/>
      </g>
     </g>
    </g>
    <g id="xtick_3">
     <g id="line2d_3">
      <g>
       <use xlink:href="#mc085a02ecc" x="156.719937" y="354.958125" style="stroke: #000000; stroke-width: 0.8"/>
      </g>
     </g>
     <g id="text_3">
      <!-- 2015 -->
      <g transform="translate(143.994937 369.556562)scale(0.1 -0.1)">
       <defs>
        <path id="DejaVuSans-35" d="M 691 4666 
L 3169 4666 
L 3169 4134 
L 1269 4134 
L 1269 2991 
Q 1406 3038 1543 3061 
Q 1681 3084 1819 3084 
Q 2600 3084 3056 2656 
Q 3513 2228 3513 1497 
Q 3513 744 3044 326 
Q 2575 -91 1722 -91 
Q 1428 -91 1123 -41 
Q 819 9 494 109 
L 494 744 
Q 775 591 1075 516 
Q 1375 441 1709 441 
Q 2250 441 2565 725 
Q 2881 1009 2881 1497 
Q 2881 1984 2565 2268 
Q 2250 2553 1709 2553 
Q 1456 2553 1204 2497 
Q 953 2441 691 2322 
L 691 4666 
z
" transform="scale(0.015625)"/>
       </defs>
       <use xlink:href="#DejaVuSans-32"/>
       <use xlink:href="#DejaVuSans-30" x="63.623047"/>
       <use xlink:href="#DejaVuSans-31" x="127.246094"/>
       <use xlink:href="#DejaVuSans-35" x="190.869141"/>
      </g>
     </g>
    </g>
    <g id="xtick_4">
     <g id="line2d_4">
      <g>
       <use xlink:href="#mc085a02ecc" x="207.44721" y="354.958125" style="stroke: #000000; stroke-width: 0.8"/>
      </g>
     </g>
     <g id="text_4">
      <!-- 2016 -->
      <g transform="translate(194.72221 369.556562)scale(0.1 -0.1)">
       <defs>
        <path id="DejaVuSans-36" d="M 2113 2584 
Q 1688 2584 1439 2293 
Q 1191 2003 1191 1497 
Q 1191 994 1439 701 
Q 1688 409 2113 409 
Q 2538 409 2786 701 
Q 3034 994 3034 1497 
Q 3034 2003 2786 2293 
Q 2538 2584 2113 2584 
z
M 3366 4563 
L 3366 3988 
Q 3128 4100 2886 4159 
Q 2644 4219 2406 4219 
Q 1781 4219 1451 3797 
Q 1122 3375 1075 2522 
Q 1259 2794 1537 2939 
Q 1816 3084 2150 3084 
Q 2853 3084 3261 2657 
Q 3669 2231 3669 1497 
Q 3669 778 3244 343 
Q 2819 -91 2113 -91 
Q 1303 -91 875 529 
Q 447 1150 447 2328 
Q 447 3434 972 4092 
Q 1497 4750 2381 4750 
Q 2619 4750 2861 4703 
Q 3103 4656 3366 4563 
z
" transform="scale(0.015625)"/>
       </defs>
       <use xlink:href="#DejaVuSans-32"/>
       <use xlink:href="#DejaVuSans-30" x="63.623047"/>
       <use xlink:href="#DejaVuSans-31" x="127.246094"/>
       <use xlink:href="#DejaVuSans-36" x="190.869141"/>
      </g>
     </g>
    </g>
    <g id="xtick_5">
     <g id="line2d_5">
      <g>
       <use xlink:href="#mc085a02ecc" x="258.313461" y="354.958125" style="stroke: #000000; stroke-width: 0.8"/>
      </g>
     </g>
     <g id="text_5">
      <!-- 2017 -->
      <g transform="translate(245.588461 369.556562)scale(0.1 -0.1)">
       <defs>
        <path id="DejaVuSans-37" d="M 525 4666 
L 3525 4666 
L 3525 4397 
L 1831 0 
L 1172 0 
L 2766 4134 
L 525 4134 
L 525 4666 
z
" transform="scale(0.015625)"/>
       </defs>
       <use xlink:href="#DejaVuSans-32"/>
       <use xlink:href="#DejaVuSans-30" x="63.623047"/>
       <use xlink:href="#DejaVuSans-31" x="127.246094"/>
       <use xlink:href="#DejaVuSans-37" x="190.869141"/>
      </g>
     </g>
    </g>
    <g id="xtick_6">
     <g id="line2d_6">
      <g>
       <use xlink:href="#mc085a02ecc" x="309.040734" y="354.958125" style="stroke: #000000; stroke-width: 0.8"/>
      </g>
     </g>
     <g id="text_6">
      <!-- 2018 -->
      <g transform="translate(296.315734 369.556562)scale(0.1 -0.1)">
       <defs>
        <path id="DejaVuSans-38" d="M 2034 2216 
Q 1584 2216 1326 1975 
Q 1069 1734 1069 1313 
Q 1069 891 1326 650 
Q 1584 409 2034 409 
Q 2484 409 2743 651 
Q 3003 894 3003 1313 
Q 3003 1734 2745 1975 
Q 2488 2216 2034 2216 
z
M 1403 2484 
Q 997 2584 770 2862 
Q 544 3141 544 3541 
Q 544 4100 942 4425 
Q 1341 4750 2034 4750 
Q 2731 4750 3128 4425 
Q 3525 4100 3525 3541 
Q 3525 3141 3298 2862 
Q 3072 2584 2669 2484 
Q 3125 2378 3379 2068 
Q 3634 1759 3634 1313 
Q 3634 634 3220 271 
Q 2806 -91 2034 -91 
Q 1263 -91 848 271 
Q 434 634 434 1313 
Q 434 1759 690 2068 
Q 947 2378 1403 2484 
z
M 1172 3481 
Q 1172 3119 1398 2916 
Q 1625 2713 2034 2713 
Q 2441 2713 2670 2916 
Q 2900 3119 2900 3481 
Q 2900 3844 2670 4047 
Q 2441 4250 2034 4250 
Q 1625 4250 1398 4047 
Q 1172 3844 1172 3481 
z
" transform="scale(0.015625)"/>
       </defs>
       <use xlink:href="#DejaVuSans-32"/>
       <use xlink:href="#DejaVuSans-30" x="63.623047"/>
       <use xlink:href="#DejaVuSans-31" x="127.246094"/>
       <use xlink:href="#DejaVuSans-38" x="190.869141"/>
      </g>
     </g>
    </g>
    <g id="xtick_7">
     <g id="line2d_7">
      <g>
       <use xlink:href="#mc085a02ecc" x="359.768007" y="354.958125" style="stroke: #000000; stroke-width: 0.8"/>
      </g>
     </g>
     <g id="text_7">
      <!-- 2019 -->
      <g transform="translate(347.043007 369.556562)scale(0.1 -0.1)">
       <defs>
        <path id="DejaVuSans-39" d="M 703 97 
L 703 672 
Q 941 559 1184 500 
Q 1428 441 1663 441 
Q 2288 441 2617 861 
Q 2947 1281 2994 2138 
Q 2813 1869 2534 1725 
Q 2256 1581 1919 1581 
Q 1219 1581 811 2004 
Q 403 2428 403 3163 
Q 403 3881 828 4315 
Q 1253 4750 1959 4750 
Q 2769 4750 3195 4129 
Q 3622 3509 3622 2328 
Q 3622 1225 3098 567 
Q 2575 -91 1691 -91 
Q 1453 -91 1209 -44 
Q 966 3 703 97 
z
M 1959 2075 
Q 2384 2075 2632 2365 
Q 2881 2656 2881 3163 
Q 2881 3666 2632 3958 
Q 2384 4250 1959 4250 
Q 1534 4250 1286 3958 
Q 1038 3666 1038 3163 
Q 1038 2656 1286 2365 
Q 1534 2075 1959 2075 
z
" transform="scale(0.015625)"/>
       </defs>
       <use xlink:href="#DejaVuSans-32"/>
       <use xlink:href="#DejaVuSans-30" x="63.623047"/>
       <use xlink:href="#DejaVuSans-31" x="127.246094"/>
       <use xlink:href="#DejaVuSans-39" x="190.869141"/>
      </g>
     </g>
    </g>
    <g id="xtick_8">
     <g id="line2d_8">
      <g>
       <use xlink:href="#mc085a02ecc" x="410.495279" y="354.958125" style="stroke: #000000; stroke-width: 0.8"/>
      </g>
     </g>
     <g id="text_8">
      <!-- 2020 -->
      <g transform="translate(397.770279 369.556562)scale(0.1 -0.1)">
       <use xlink:href="#DejaVuSans-32"/>
       <use xlink:href="#DejaVuSans-30" x="63.623047"/>
       <use xlink:href="#DejaVuSans-32" x="127.246094"/>
       <use xlink:href="#DejaVuSans-30" x="190.869141"/>
      </g>
     </g>
    </g>
    <g id="xtick_9">
     <g id="line2d_9">
      <g>
       <use xlink:href="#mc085a02ecc" x="461.361531" y="354.958125" style="stroke: #000000; stroke-width: 0.8"/>
      </g>
     </g>
     <g id="text_9">
      <!-- 2021 -->
      <g transform="translate(448.636531 369.556562)scale(0.1 -0.1)">
       <use xlink:href="#DejaVuSans-32"/>
       <use xlink:href="#DejaVuSans-30" x="63.623047"/>
       <use xlink:href="#DejaVuSans-32" x="127.246094"/>
       <use xlink:href="#DejaVuSans-31" x="190.869141"/>
      </g>
     </g>
    </g>
    <g id="xtick_10">
     <g id="line2d_10">
      <g>
       <use xlink:href="#mc085a02ecc" x="512.088804" y="354.958125" style="stroke: #000000; stroke-width: 0.8"/>
      </g>
     </g>
     <g id="text_10">
      <!-- 2022 -->
      <g transform="translate(499.363804 369.556562)scale(0.1 -0.1)">
       <use xlink:href="#DejaVuSans-32"/>
       <use xlink:href="#DejaVuSans-30" x="63.623047"/>
       <use xlink:href="#DejaVuSans-32" x="127.246094"/>
       <use xlink:href="#DejaVuSans-32" x="190.869141"/>
      </g>
     </g>
    </g>
    <g id="xtick_11">
     <g id="line2d_11">
      <g>
       <use xlink:href="#mc085a02ecc" x="562.816076" y="354.958125" style="stroke: #000000; stroke-width: 0.8"/>
      </g>
     </g>
     <g id="text_11">
      <!-- 2023 -->
      <g transform="translate(550.091076 369.556562)scale(0.1 -0.1)">
       <use xlink:href="#DejaVuSans-32"/>
       <use xlink:href="#DejaVuSans-30" x="63.623047"/>
       <use xlink:href="#DejaVuSans-32" x="127.246094"/>
       <use xlink:href="#DejaVuSans-33" x="190.869141"/>
      </g>
     </g>
    </g>
   </g>
   <g id="matplotlib.axis_2">
    <g id="ytick_1">
     <g id="line2d_12">
      <defs>
       <path id="mfd1cca43ee" d="M 0 0 
L -3.5 0 
" style="stroke: #000000; stroke-width: 0.8"/>
      </defs>
      <g>
       <use xlink:href="#mfd1cca43ee" x="40.603125" y="315.953727" style="stroke: #000000; stroke-width: 0.8"/>
      </g>
     </g>
     <g id="text_12">
      <!-- 10 -->
      <g transform="translate(20.878125 319.752946)scale(0.1 -0.1)">
       <use xlink:href="#DejaVuSans-31"/>
       <use xlink:href="#DejaVuSans-30" x="63.623047"/>
      </g>
     </g>
    </g>
    <g id="ytick_2">
     <g id="line2d_13">
      <g>
       <use xlink:href="#mfd1cca43ee" x="40.603125" y="270.718125" style="stroke: #000000; stroke-width: 0.8"/>
      </g>
     </g>
     <g id="text_13">
      <!-- 20 -->
      <g transform="translate(20.878125 274.517344)scale(0.1 -0.1)">
       <use xlink:href="#DejaVuSans-32"/>
       <use xlink:href="#DejaVuSans-30" x="63.623047"/>
      </g>
     </g>
    </g>
    <g id="ytick_3">
     <g id="line2d_14">
      <g>
       <use xlink:href="#mfd1cca43ee" x="40.603125" y="225.482523" style="stroke: #000000; stroke-width: 0.8"/>
      </g>
     </g>
     <g id="text_14">
      <!-- 30 -->
      <g transform="translate(20.878125 229.281742)scale(0.1 -0.1)">
       <use xlink:href="#DejaVuSans-33"/>
       <use xlink:href="#DejaVuSans-30" x="63.623047"/>
      </g>
     </g>
    </g>
    <g id="ytick_4">
     <g id="line2d_15">
      <g>
       <use xlink:href="#mfd1cca43ee" x="40.603125" y="180.246921" style="stroke: #000000; stroke-width: 0.8"/>
      </g>
     </g>
     <g id="text_15">
      <!-- 40 -->
      <g transform="translate(20.878125 184.04614)scale(0.1 -0.1)">
       <use xlink:href="#DejaVuSans-34"/>
       <use xlink:href="#DejaVuSans-30" x="63.623047"/>
      </g>
     </g>
    </g>
    <g id="ytick_5">
     <g id="line2d_16">
      <g>
       <use xlink:href="#mfd1cca43ee" x="40.603125" y="135.011319" style="stroke: #000000; stroke-width: 0.8"/>
      </g>
     </g>
     <g id="text_16">
      <!-- 50 -->
      <g transform="translate(20.878125 138.810537)scale(0.1 -0.1)">
       <use xlink:href="#DejaVuSans-35"/>
       <use xlink:href="#DejaVuSans-30" x="63.623047"/>
      </g>
     </g>
    </g>
    <g id="ytick_6">
     <g id="line2d_17">
      <g>
       <use xlink:href="#mfd1cca43ee" x="40.603125" y="89.775717" style="stroke: #000000; stroke-width: 0.8"/>
      </g>
     </g>
     <g id="text_17">
      <!-- 60 -->
      <g transform="translate(20.878125 93.574935)scale(0.1 -0.1)">
       <use xlink:href="#DejaVuSans-36"/>
       <use xlink:href="#DejaVuSans-30" x="63.623047"/>
      </g>
     </g>
    </g>
    <g id="ytick_7">
     <g id="line2d_18">
      <g>
       <use xlink:href="#mfd1cca43ee" x="40.603125" y="44.540115" style="stroke: #000000; stroke-width: 0.8"/>
      </g>
     </g>
     <g id="text_18">
      <!-- 70 -->
      <g transform="translate(20.878125 48.339333)scale(0.1 -0.1)">
       <use xlink:href="#DejaVuSans-37"/>
       <use xlink:href="#DejaVuSans-30" x="63.623047"/>
      </g>
     </g>
    </g>
    <g id="text_19">
     <!-- Price (US Dollars) -->
     <g transform="translate(14.798438 232.160781)rotate(-90)scale(0.1 -0.1)">
      <defs>
       <path id="DejaVuSans-50" d="M 1259 4147 
L 1259 2394 
L 2053 2394 
Q 2494 2394 2734 2622 
Q 2975 2850 2975 3272 
Q 2975 3691 2734 3919 
Q 2494 4147 2053 4147 
L 1259 4147 
z
M 628 4666 
L 2053 4666 
Q 2838 4666 3239 4311 
Q 3641 3956 3641 3272 
Q 3641 2581 3239 2228 
Q 2838 1875 2053 1875 
L 1259 1875 
L 1259 0 
L 628 0 
L 628 4666 
z
" transform="scale(0.015625)"/>
       <path id="DejaVuSans-72" d="M 2631 2963 
Q 2534 3019 2420 3045 
Q 2306 3072 2169 3072 
Q 1681 3072 1420 2755 
Q 1159 2438 1159 1844 
L 1159 0 
L 581 0 
L 581 3500 
L 1159 3500 
L 1159 2956 
Q 1341 3275 1631 3429 
Q 1922 3584 2338 3584 
Q 2397 3584 2469 3576 
Q 2541 3569 2628 3553 
L 2631 2963 
z
" transform="scale(0.015625)"/>
       <path id="DejaVuSans-69" d="M 603 3500 
L 1178 3500 
L 1178 0 
L 603 0 
L 603 3500 
z
M 603 4863 
L 1178 4863 
L 1178 4134 
L 603 4134 
L 603 4863 
z
" transform="scale(0.015625)"/>
       <path id="DejaVuSans-63" d="M 3122 3366 
L 3122 2828 
Q 2878 2963 2633 3030 
Q 2388 3097 2138 3097 
Q 1578 3097 1268 2742 
Q 959 2388 959 1747 
Q 959 1106 1268 751 
Q 1578 397 2138 397 
Q 2388 397 2633 464 
Q 2878 531 3122 666 
L 3122 134 
Q 2881 22 2623 -34 
Q 2366 -91 2075 -91 
Q 1284 -91 818 406 
Q 353 903 353 1747 
Q 353 2603 823 3093 
Q 1294 3584 2113 3584 
Q 2378 3584 2631 3529 
Q 2884 3475 3122 3366 
z
" transform="scale(0.015625)"/>
       <path id="DejaVuSans-65" d="M 3597 1894 
L 3597 1613 
L 953 1613 
Q 991 1019 1311 708 
Q 1631 397 2203 397 
Q 2534 397 2845 478 
Q 3156 559 3463 722 
L 3463 178 
Q 3153 47 2828 -22 
Q 2503 -91 2169 -91 
Q 1331 -91 842 396 
Q 353 884 353 1716 
Q 353 2575 817 3079 
Q 1281 3584 2069 3584 
Q 2775 3584 3186 3129 
Q 3597 2675 3597 1894 
z
M 3022 2063 
Q 3016 2534 2758 2815 
Q 2500 3097 2075 3097 
Q 1594 3097 1305 2825 
Q 1016 2553 972 2059 
L 3022 2063 
z
" transform="scale(0.015625)"/>
       <path id="DejaVuSans-20" transform="scale(0.015625)"/>
       <path id="DejaVuSans-28" d="M 1984 4856 
Q 1566 4138 1362 3434 
Q 1159 2731 1159 2009 
Q 1159 1288 1364 580 
Q 1569 -128 1984 -844 
L 1484 -844 
Q 1016 -109 783 600 
Q 550 1309 550 2009 
Q 550 2706 781 3412 
Q 1013 4119 1484 4856 
L 1984 4856 
z
" transform="scale(0.015625)"/>
       <path id="DejaVuSans-55" d="M 556 4666 
L 1191 4666 
L 1191 1831 
Q 1191 1081 1462 751 
Q 1734 422 2344 422 
Q 2950 422 3222 751 
Q 3494 1081 3494 1831 
L 3494 4666 
L 4128 4666 
L 4128 1753 
Q 4128 841 3676 375 
Q 3225 -91 2344 -91 
Q 1459 -91 1007 375 
Q 556 841 556 1753 
L 556 4666 
z
" transform="scale(0.015625)"/>
       <path id="DejaVuSans-53" d="M 3425 4513 
L 3425 3897 
Q 3066 4069 2747 4153 
Q 2428 4238 2131 4238 
Q 1616 4238 1336 4038 
Q 1056 3838 1056 3469 
Q 1056 3159 1242 3001 
Q 1428 2844 1947 2747 
L 2328 2669 
Q 3034 2534 3370 2195 
Q 3706 1856 3706 1288 
Q 3706 609 3251 259 
Q 2797 -91 1919 -91 
Q 1588 -91 1214 -16 
Q 841 59 441 206 
L 441 856 
Q 825 641 1194 531 
Q 1563 422 1919 422 
Q 2459 422 2753 634 
Q 3047 847 3047 1241 
Q 3047 1584 2836 1778 
Q 2625 1972 2144 2069 
L 1759 2144 
Q 1053 2284 737 2584 
Q 422 2884 422 3419 
Q 422 4038 858 4394 
Q 1294 4750 2059 4750 
Q 2388 4750 2728 4690 
Q 3069 4631 3425 4513 
z
" transform="scale(0.015625)"/>
       <path id="DejaVuSans-44" d="M 1259 4147 
L 1259 519 
L 2022 519 
Q 2988 519 3436 956 
Q 3884 1394 3884 2338 
Q 3884 3275 3436 3711 
Q 2988 4147 2022 4147 
L 1259 4147 
z
M 628 4666 
L 1925 4666 
Q 3281 4666 3915 4102 
Q 4550 3538 4550 2338 
Q 4550 1131 3912 565 
Q 3275 0 1925 0 
L 628 0 
L 628 4666 
z
" transform="scale(0.015625)"/>
       <path id="DejaVuSans-6f" d="M 1959 3097 
Q 1497 3097 1228 2736 
Q 959 2375 959 1747 
Q 959 1119 1226 758 
Q 1494 397 1959 397 
Q 2419 397 2687 759 
Q 2956 1122 2956 1747 
Q 2956 2369 2687 2733 
Q 2419 3097 1959 3097 
z
M 1959 3584 
Q 2709 3584 3137 3096 
Q 3566 2609 3566 1747 
Q 3566 888 3137 398 
Q 2709 -91 1959 -91 
Q 1206 -91 779 398 
Q 353 888 353 1747 
Q 353 2609 779 3096 
Q 1206 3584 1959 3584 
z
" transform="scale(0.015625)"/>
       <path id="DejaVuSans-6c" d="M 603 4863 
L 1178 4863 
L 1178 0 
L 603 0 
L 603 4863 
z
" transform="scale(0.015625)"/>
       <path id="DejaVuSans-61" d="M 2194 1759 
Q 1497 1759 1228 1600 
Q 959 1441 959 1056 
Q 959 750 1161 570 
Q 1363 391 1709 391 
Q 2188 391 2477 730 
Q 2766 1069 2766 1631 
L 2766 1759 
L 2194 1759 
z
M 3341 1997 
L 3341 0 
L 2766 0 
L 2766 531 
Q 2569 213 2275 61 
Q 1981 -91 1556 -91 
Q 1019 -91 701 211 
Q 384 513 384 1019 
Q 384 1609 779 1909 
Q 1175 2209 1959 2209 
L 2766 2209 
L 2766 2266 
Q 2766 2663 2505 2880 
Q 2244 3097 1772 3097 
Q 1472 3097 1187 3025 
Q 903 2953 641 2809 
L 641 3341 
Q 956 3463 1253 3523 
Q 1550 3584 1831 3584 
Q 2591 3584 2966 3190 
Q 3341 2797 3341 1997 
z
" transform="scale(0.015625)"/>
       <path id="DejaVuSans-73" d="M 2834 3397 
L 2834 2853 
Q 2591 2978 2328 3040 
Q 2066 3103 1784 3103 
Q 1356 3103 1142 2972 
Q 928 2841 928 2578 
Q 928 2378 1081 2264 
Q 1234 2150 1697 2047 
L 1894 2003 
Q 2506 1872 2764 1633 
Q 3022 1394 3022 966 
Q 3022 478 2636 193 
Q 2250 -91 1575 -91 
Q 1294 -91 989 -36 
Q 684 19 347 128 
L 347 722 
Q 666 556 975 473 
Q 1284 391 1588 391 
Q 1994 391 2212 530 
Q 2431 669 2431 922 
Q 2431 1156 2273 1281 
Q 2116 1406 1581 1522 
L 1381 1569 
Q 847 1681 609 1914 
Q 372 2147 372 2553 
Q 372 3047 722 3315 
Q 1072 3584 1716 3584 
Q 2034 3584 2315 3537 
Q 2597 3491 2834 3397 
z
" transform="scale(0.015625)"/>
       <path id="DejaVuSans-29" d="M 513 4856 
L 1013 4856 
Q 1481 4119 1714 3412 
Q 1947 2706 1947 2009 
Q 1947 1309 1714 600 
Q 1481 -109 1013 -844 
L 513 -844 
Q 928 -128 1133 580 
Q 1338 1288 1338 2009 
Q 1338 2731 1133 3434 
Q 928 4138 513 4856 
z
" transform="scale(0.015625)"/>
      </defs>
      <use xlink:href="#DejaVuSans-50"/>
      <use xlink:href="#DejaVuSans-72" x="58.552734"/>
      <use xlink:href="#DejaVuSans-69" x="99.666016"/>
      <use xlink:href="#DejaVuSans-63" x="127.449219"/>
      <use xlink:href="#DejaVuSans-65" x="182.429688"/>
      <use xlink:href="#DejaVuSans-20" x="243.953125"/>
      <use xlink:href="#DejaVuSans-28" x="275.740234"/>
      <use xlink:href="#DejaVuSans-55" x="314.753906"/>
      <use xlink:href="#DejaVuSans-53" x="387.947266"/>
      <use xlink:href="#DejaVuSans-20" x="451.423828"/>
      <use xlink:href="#DejaVuSans-44" x="483.210938"/>
      <use xlink:href="#DejaVuSans-6f" x="560.212891"/>
      <use xlink:href="#DejaVuSans-6c" x="621.394531"/>
      <use xlink:href="#DejaVuSans-6c" x="649.177734"/>
      <use xlink:href="#DejaVuSans-61" x="676.960938"/>
      <use xlink:href="#DejaVuSans-72" x="738.240234"/>
      <use xlink:href="#DejaVuSans-73" x="779.353516"/>
      <use xlink:href="#DejaVuSans-29" x="831.453125"/>
     </g>
    </g>
   </g>
   <g id="line2d_19">
    <path d="M 573.239489 287.410062 
L 572.961531 289.083779 
L 572.822552 287.771947 
L 572.683573 288.382628 
L 572.266637 287.749329 
L 572.127658 286.573204 
L 571.988679 286.957706 
L 571.8497 285.080429 
L 571.710722 285.419696 
L 571.293785 286.741932 
L 571.015827 290.350376 
L 570.73787 288.631423 
L 570.320933 289.355193 
L 570.181954 290.350376 
L 570.042976 290.486083 
L 569.903997 290.802732 
L 569.209103 290.078963 
L 569.070124 289.400429 
L 568.931145 289.626607 
L 568.792166 290.21467 
L 568.37523 290.395612 
L 568.236251 290.259905 
L 568.097272 290.667026 
L 567.958293 290.259905 
L 567.402378 290.576554 
L 567.12442 289.468282 
L 566.985441 289.219486 
L 566.846462 288.314774 
L 566.429526 288.224303 
L 566.151568 288.812366 
L 565.873611 289.28734 
L 565.317695 290.463465 
L 565.178717 288.902837 
L 565.039738 288.812366 
L 564.483822 289.129015 
L 564.344844 288.269539 
L 564.205865 289.038544 
L 564.066886 289.015926 
L 563.927907 287.952889 
L 563.510971 288.825484 
L 563.371992 289.717078 
L 563.094034 288.111214 
L 562.538119 287.093413 
L 562.39914 287.093413 
L 562.260161 286.595821 
L 562.121182 286.731528 
L 561.426288 288.902837 
L 561.009352 287.817183 
L 560.592415 287.8398 
L 560.453436 286.867235 
L 560.314458 286.957706 
L 560.175479 288.76713 
L 560.0365 288.721895 
L 559.619563 290.259905 
L 559.480585 291.277706 
L 559.341606 289.988491 
L 559.202627 291.074146 
L 559.063648 289.355193 
L 558.646712 289.807549 
L 558.507733 289.219486 
L 558.368754 290.169434 
L 558.229775 291.978858 
L 558.090796 292.046711 
L 557.67386 291.594355 
L 557.117944 292.793099 
L 556.701008 293.200219 
L 556.562029 294.692994 
L 556.42305 294.01446 
L 556.284071 294.127549 
L 556.145093 294.53467 
L 555.589177 292.793099 
L 555.450198 293.516868 
L 555.172241 291.594355 
L 554.755304 291.119382 
L 554.616325 292.046711 
L 554.477347 291.390795 
L 554.199389 292.205036 
L 553.782453 291.255088 
L 553.643474 290.599172 
L 553.226537 294.285874 
L 552.809601 295.235821 
L 552.670622 297.40713 
L 552.392664 296.095298 
L 552.253685 296.615507 
L 551.836749 295.86912 
L 551.69777 296.27624 
L 551.558791 295.733413 
L 551.419812 296.321476 
L 551.280834 293.200219 
L 550.863897 293.539486 
L 550.724918 293.019277 
L 550.585939 294.240638 
L 550.307982 301.52357 
L 549.891045 304.282942 
L 549.752066 302.925874 
L 549.613088 303.332994 
L 549.33513 301.252156 
L 548.918193 303.536554 
L 548.640236 300.618858 
L 548.501257 299.962942 
L 548.362278 300.256973 
L 547.945342 301.794984 
L 547.806363 301.301011 
L 547.667384 301.252156 
L 547.389426 300.686711 
L 546.97249 302.292575 
L 546.833511 302.224722 
L 546.555553 304.328177 
L 545.999638 303.604408 
L 545.72168 304.71268 
L 545.443723 303.875821 
L 544.887807 304.418649 
L 544.60985 307.358963 
L 544.470871 306.883989 
L 544.053934 306.137601 
L 543.636998 304.735298 
L 543.498019 304.871005 
L 542.942104 306.951842 
L 542.664146 309.620743 
L 542.525167 309.304094 
L 542.108231 310.593308 
L 541.969252 310.276659 
L 541.691294 311.113518 
L 541.135379 311.972994 
L 540.9964 311.384931 
L 540.857421 312.289643 
L 540.718443 312.072512 
L 540.579464 312.289643 
L 540.162527 312.47918 
L 540.023548 312.922942 
L 539.88457 312.334879 
L 539.745591 312.583675 
L 539.606612 313.782418 
L 539.189675 313.918125 
L 539.050697 315.863256 
L 538.911718 315.003779 
L 538.772739 314.89069 
L 538.63376 314.415717 
L 538.216824 314.551423 
L 538.077845 314.845455 
L 537.938866 315.727549 
L 537.799887 315.184722 
L 537.243972 314.822837 
L 537.104993 315.569224 
L 536.966014 315.229957 
L 536.827035 314.144303 
L 536.27112 314.596659 
L 536.132141 316.225141 
L 535.854184 315.501371 
L 535.159289 315.320429 
L 534.881332 313.55624 
L 534.325416 309.75645 
L 534.047459 305.753099 
L 533.769501 304.373413 
L 533.352565 304.147235 
L 533.213586 304.282942 
L 533.074607 305.549539 
L 532.935628 305.459067 
L 532.379713 305.323361 
L 532.101755 306.092366 
L 531.962776 306.363779 
L 531.823797 306.137601 
L 531.406861 306.182837 
L 530.989925 305.820952 
L 530.850946 307.404198 
L 530.434009 307.268491 
L 530.29503 306.816135 
L 530.156052 305.820952 
L 530.017073 306.04713 
L 529.878094 304.690062 
L 529.461157 303.78535 
L 529.322179 302.066397 
L 529.1832 302.24734 
L 529.044221 302.835402 
L 528.905242 303.921509 
L 528.488306 301.885455 
L 528.349327 302.24734 
L 527.93239 306.092366 
L 527.237496 304.147235 
L 527.098517 305.413832 
L 526.959538 305.006711 
L 526.403623 305.097183 
L 526.264644 302.948491 
L 526.125665 304.101999 
L 525.986687 303.287759 
L 525.56975 302.156868 
L 525.291792 306.228073 
L 525.152814 305.707863 
L 524.596898 305.617392 
L 524.45792 306.092366 
L 524.318941 305.911423 
L 524.179962 304.893622 
L 524.040983 306.454251 
L 523.624047 306.997078 
L 523.20711 308.30891 
L 523.068131 308.173204 
L 522.651195 307.517287 
L 522.512216 306.7709 
L 522.373237 306.816135 
L 522.095279 310.502837 
L 521.539364 311.746816 
L 521.400385 310.344512 
L 521.261406 311.746816 
L 521.122428 310.57069 
L 520.705491 309.711214 
L 520.566512 308.399382 
L 520.288555 309.349329 
L 520.149576 309.4398 
L 519.732639 309.417183 
L 519.59366 310.842104 
L 519.454682 309.711214 
L 519.315703 309.711214 
L 518.759788 308.421999 
L 518.48183 306.816135 
L 518.203872 310.027863 
L 517.786936 308.421999 
L 517.647957 305.956659 
L 517.508978 305.549539 
L 517.23102 305.979277 
L 516.814084 305.730481 
L 516.675105 305.459067 
L 516.397147 305.504303 
L 516.258169 303.17467 
L 515.841232 303.740115 
L 515.702253 304.282942 
L 515.563274 304.260324 
L 515.285317 305.911423 
L 514.86838 304.011528 
L 514.729401 302.24734 
L 514.590423 303.242523 
L 514.451444 301.52357 
L 513.895528 302.337811 
L 513.478592 305.323361 
L 513.339613 305.504303 
L 512.922677 305.323361 
L 512.783698 307.268491 
L 512.644719 304.961476 
L 512.50574 304.554355 
L 512.366761 305.526921 
L 511.949825 306.050749 
L 511.671867 306.657811 
L 511.532888 306.273308 
L 511.39391 306.883989 
L 510.837994 306.363779 
L 510.699015 306.544722 
L 510.560037 306.137601 
L 510.421058 306.861371 
L 510.004121 305.594774 
L 509.865142 304.803151 
L 509.726164 305.459067 
L 509.587185 304.787319 
L 509.448206 305.142418 
L 508.892291 303.943675 
L 508.614333 303.966293 
L 508.475354 304.192471 
L 508.058418 306.951842 
L 507.641481 305.255507 
L 507.502502 304.91624 
L 507.085566 305.64001 
L 506.807608 304.576973 
L 506.668629 305.020282 
L 506.529651 304.71268 
L 506.112714 304.91624 
L 505.973735 304.328177 
L 505.556799 305.097183 
L 505.139862 304.871005 
L 505.000883 304.644827 
L 504.861905 304.871005 
L 504.722926 305.956659 
L 504.583947 308.399382 
L 504.16701 307.630376 
L 503.889053 308.037497 
L 503.750074 308.693413 
L 503.194159 308.037497 
L 503.05518 308.30891 
L 502.916201 308.263675 
L 502.777222 307.856554 
L 502.638243 306.816135 
L 502.221307 307.17802 
L 501.80437 310.525455 
L 501.665392 310.932575 
L 501.248455 310.480219 
L 500.970497 312.877706 
L 500.831519 314.370481 
L 500.69254 313.443151 
L 500.275603 312.62891 
L 500.136624 312.877706 
L 499.858667 316.406083 
L 499.719688 316.428701 
L 499.163773 317.423884 
L 498.885815 315.81802 
L 498.746836 315.908491 
L 498.051942 315.863256 
L 497.912963 316.157287 
L 497.773984 316.994146 
L 497.218069 316.632261 
L 497.07909 315.998963 
L 496.940111 316.519172 
L 496.801132 316.247759 
L 496.384196 318.532156 
L 496.245217 318.532156 
L 495.967259 318.147654 
L 494.855429 319.52734 
L 494.299514 319.21069 
L 494.160535 319.255926 
L 494.021556 318.848806 
L 493.882577 318.984512 
L 493.465641 318.871423 
L 493.326662 320.115402 
L 493.187683 319.00713 
L 493.048704 319.753518 
L 492.909725 319.165455 
L 492.492789 319.120219 
L 492.35381 317.740533 
L 492.075852 319.255926 
L 491.936873 322.060533 
L 491.519937 322.467654 
L 491.380958 322.105769 
L 491.103 320.34158 
L 490.964022 319.843989 
L 490.408106 319.029748 
L 490.269127 319.255926 
L 490.130149 320.409434 
L 489.99117 319.52734 
L 489.574233 318.554774 
L 489.296276 317.175088 
L 489.157297 318.034565 
L 489.018318 317.084617 
L 488.601382 315.772785 
L 488.462403 315.837019 
L 488.323424 315.591842 
L 488.184445 314.641895 
L 488.045466 314.460952 
L 487.489551 314.144303 
L 487.350572 313.55624 
L 486.655678 313.872889 
L 486.37772 314.913308 
L 486.238741 314.302628 
L 486.099763 314.370481 
L 485.404868 315.365664 
L 485.26589 314.641895 
L 485.126911 314.732366 
L 484.570995 314.732366 
L 484.293038 312.877706 
L 484.154059 312.651528 
L 483.737123 313.646711 
L 483.598144 313.488387 
L 483.459165 314.325245 
L 483.320186 314.370481 
L 483.181207 313.872889 
L 482.625292 313.872889 
L 482.347334 315.003779 
L 481.791419 315.116868 
L 481.65244 315.591842 
L 481.513461 315.049015 
L 481.374482 313.375298 
L 481.235504 313.194355 
L 480.818567 313.918125 
L 480.679588 313.027436 
L 480.540609 312.922942 
L 480.401631 311.927759 
L 480.262652 311.746816 
L 479.845715 311.70158 
L 479.706736 312.877706 
L 479.567758 311.927759 
L 479.428779 311.792052 
L 479.2898 311.023046 
L 478.872863 310.796868 
L 478.733885 311.113518 
L 478.455927 309.168387 
L 478.316948 309.213622 
L 477.900012 309.982628 
L 477.761033 311.927759 
L 477.622054 312.289643 
L 477.483075 312.105987 
L 477.344096 311.29446 
L 476.92716 311.045664 
L 476.788181 310.208806 
L 476.649202 310.57069 
L 476.510223 310.095717 
L 476.371245 308.331528 
L 475.954308 307.042313 
L 475.815329 307.426816 
L 475.67635 307.463005 
L 475.398393 308.376764 
L 474.981456 308.806502 
L 474.842477 309.575507 
L 474.56452 308.444617 
L 474.425541 307.585141 
L 473.869626 307.811319 
L 473.730647 307.720848 
L 473.591668 308.716031 
L 473.452689 306.635193 
L 473.035753 306.544722 
L 472.757795 307.992261 
L 472.618816 310.57069 
L 472.479837 310.254041 
L 471.645964 307.404198 
L 471.506986 307.585141 
L 471.090049 308.62556 
L 470.95107 308.489853 
L 470.673113 309.4398 
L 470.534134 309.937392 
L 470.117197 311.927759 
L 469.83924 311.678963 
L 469.561282 310.819486 
L 469.144345 311.317078 
L 469.005367 308.783884 
L 468.866388 308.919591 
L 468.727409 309.4398 
L 468.58843 308.535088 
L 468.171494 307.132785 
L 468.032515 307.774678 
L 467.893536 307.766083 
L 467.754557 307.358963 
L 467.198642 306.861371 
L 467.059663 306.092818 
L 466.920684 306.409015 
L 466.781705 307.223256 
L 466.642726 307.268491 
L 466.22579 306.725664 
L 466.086811 306.7709 
L 465.947832 307.042313 
L 465.669875 308.263675 
L 465.252938 308.399382 
L 465.113959 308.761266 
L 464.974981 311.475402 
L 464.697023 307.856554 
L 464.280086 307.087549 
L 464.141108 305.775717 
L 464.002129 305.775717 
L 463.86315 305.504303 
L 463.307235 304.961476 
L 463.168256 306.001895 
L 462.751319 305.956659 
L 462.056425 304.871005 
L 461.917446 305.142418 
L 461.778467 304.50912 
L 461.222552 304.599591 
L 461.083573 305.232889 
L 460.805616 304.825769 
L 460.2497 304.373413 
L 460.110722 303.966293 
L 459.832764 305.606083 
L 459.415827 305.232889 
L 459.276849 305.413832 
L 459.13787 305.187654 
L 458.859912 306.499486 
L 458.442976 306.137601 
L 458.303997 304.644827 
L 458.165018 304.871005 
L 457.88706 304.328177 
L 457.331145 303.830586 
L 457.192166 303.807968 
L 456.914208 302.971109 
L 456.497272 302.790167 
L 456.219314 303.287759 
L 456.080335 302.835402 
L 455.941357 302.925874 
L 455.385441 303.559172 
L 455.246462 303.038963 
L 454.968505 308.127968 
L 454.41259 309.846921 
L 454.134632 313.782418 
L 453.995653 313.511005 
L 453.578717 315.229957 
L 453.439738 314.822837 
L 453.300759 315.383759 
L 453.022801 317.26556 
L 452.466886 316.677497 
L 452.188928 315.139486 
L 452.049949 314.460952 
L 451.633013 314.460952 
L 451.494034 313.465769 
L 451.216076 311.113518 
L 451.077098 312.01823 
L 450.660161 313.284827 
L 450.521182 313.284827 
L 450.382203 313.963361 
L 450.243225 313.838963 
L 449.687309 312.380115 
L 449.409352 314.28001 
L 449.270373 313.963361 
L 449.131394 315.953727 
L 448.714458 315.727549 
L 448.297521 318.034565 
L 448.158542 315.998963 
L 447.741606 315.772785 
L 447.602627 316.858439 
L 447.324669 316.406083 
L 447.18569 317.536973 
L 446.768754 316.724542 
L 446.629775 316.903675 
L 446.351817 316.044198 
L 446.212839 317.401266 
L 445.795902 319.979696 
L 445.656923 319.708282 
L 445.517944 319.074984 
L 445.378966 319.346397 
L 444.82305 319.21069 
L 444.545093 318.667863 
L 444.406114 319.052366 
L 444.267135 318.80357 
L 443.71122 319.414251 
L 443.572241 319.93446 
L 443.433262 319.595193 
L 443.294283 319.753518 
L 442.877347 320.024931 
L 442.599389 318.667863 
L 442.46041 318.758334 
L 441.765516 317.401266 
L 441.487558 319.436868 
L 441.34858 319.753518 
L 440.931643 319.663046 
L 440.792664 319.93446 
L 440.653685 319.93446 
L 440.375728 319.014368 
L 439.958791 318.554774 
L 439.819812 318.0798 
L 439.680834 319.504722 
L 439.541855 319.346397 
L 439.402876 317.853622 
L 438.985939 318.034565 
L 438.846961 317.808387 
L 438.569003 317.944094 
L 438.430024 318.554774 
L 437.874109 319.617811 
L 437.73513 318.215507 
L 437.457172 319.301162 
L 437.040236 319.911842 
L 436.901257 321.472471 
L 436.484321 317.491738 
L 435.928405 317.536973 
L 435.789426 320.070167 
L 435.511469 319.165455 
L 435.094532 315.659696 
L 434.955553 315.998963 
L 434.816575 315.953727 
L 434.677596 315.320429 
L 434.538617 312.787235 
L 433.843723 310.706397 
L 433.704744 310.208806 
L 433.565765 311.339696 
L 433.148829 309.530272 
L 432.592913 302.021162 
L 432.175977 300.845036 
L 432.036998 306.703046 
L 431.898019 306.318996 
L 431.620061 307.087549 
L 431.203125 306.092366 
L 430.925167 310.073099 
L 430.786189 306.635193 
L 430.230273 306.906607 
L 429.813337 303.830586 
L 429.118443 310.796868 
L 428.979464 310.796868 
L 428.701506 309.077916 
L 428.28457 308.580324 
L 428.145591 308.131587 
L 428.006612 306.363779 
L 427.867633 307.223256 
L 427.728654 310.615926 
L 427.311718 313.103884 
L 427.172739 312.741999 
L 427.03376 310.299277 
L 426.755802 312.199172 
L 426.338866 311.158753 
L 426.199887 310.299277 
L 425.921929 310.88734 
L 425.782951 309.840588 
L 425.366014 308.535088 
L 425.227035 308.896521 
L 424.949078 305.775717 
L 424.810099 307.313727 
L 424.254184 304.199256 
L 423.837247 321.427235 
L 423.420311 323.462837 
L 422.864395 315.682766 
L 422.447459 317.220324 
L 422.30848 314.777601 
L 422.169501 318.758334 
L 422.030522 319.120219 
L 421.891543 321.020115 
L 421.335628 323.824722 
L 421.05767 317.312152 
L 420.918692 315.953727 
L 420.501755 313.872889 
L 420.362776 311.837287 
L 420.223797 299.417853 
L 420.084819 298.311842 
L 419.94584 301.071214 
L 419.250946 290.712261 
L 419.111967 291.34556 
L 418.556052 287.952889 
L 418.278094 281.619905 
L 418.139115 281.438963 
L 418.000136 280.579486 
L 417.5832 279.991423 
L 417.444221 280.443779 
L 417.305242 281.846083 
L 417.166263 286.233937 
L 416.610348 285.057811 
L 416.193411 278.227235 
L 415.498517 283.11268 
L 415.359538 282.298439 
L 415.22056 282.207968 
L 415.081581 282.479382 
L 414.525665 293.200219 
L 414.386687 291.888387 
L 414.108729 296.366711 
L 413.691792 295.597706 
L 413.552814 297.180952 
L 413.413835 301.161685 
L 413.274856 299.397497 
L 412.718941 301.478334 
L 412.579962 302.518753 
L 412.440983 301.11645 
L 412.163025 308.716031 
L 411.746089 313.572525 
L 411.60711 313.511005 
L 411.468131 313.058649 
L 411.329152 312.153937 
L 411.190174 312.832471 
L 410.773237 312.01823 
L 410.634258 311.430167 
L 410.356301 311.158753 
L 410.217322 311.972994 
L 409.800385 312.42535 
L 409.661406 311.430167 
L 409.383449 311.113518 
L 409.24447 309.711214 
L 408.827533 311.249224 
L 408.549576 306.363779 
L 408.410597 310.842104 
L 408.271618 311.565874 
L 407.715703 305.775717 
L 407.576724 301.975926 
L 407.437745 303.287759 
L 407.298766 308.806502 
L 406.88183 315.049015 
L 406.742851 315.229957 
L 406.603872 312.561057 
L 406.325915 325.000848 
L 405.908978 326.810272 
L 405.63102 326.7198 
L 405.492042 326.810272 
L 405.353063 326.493622 
L 404.797147 327.398334 
L 404.658169 328.845874 
L 404.51919 329.117287 
L 404.380211 325.18179 
L 403.963274 327.330481 
L 403.824296 329.343465 
L 403.685317 326.945978 
L 403.546338 327.353099 
L 403.407359 331.786188 
L 402.990423 331.424755 
L 402.851444 330.021999 
L 402.573486 324.096135 
L 401.878592 333.233727 
L 401.739613 332.464722 
L 401.461656 339.838125 
L 401.044719 333.324198 
L 400.766761 323.869957 
L 400.488804 324.503256 
L 400.071867 324.729434 
L 399.932888 323.281895 
L 399.79391 325.091319 
L 399.654931 325.317497 
L 399.515952 324.503256 
L 399.099015 321.381999 
L 398.960037 323.055717 
L 398.821058 310.502837 
L 398.682079 308.806502 
L 398.5431 305.594774 
L 398.126164 311.565874 
L 397.987185 317.898858 
L 397.848206 317.084617 
L 397.709227 315.546607 
L 397.570248 315.297811 
L 397.153312 313.14912 
L 397.014333 309.982628 
L 396.875354 310.977811 
L 396.736375 305.051947 
L 396.597396 307.042313 
L 396.18046 308.399382 
L 396.041481 305.029329 
L 395.902502 306.228525 
L 395.763524 310.480219 
L 395.624545 309.665978 
L 395.207608 310.480219 
L 395.068629 311.977518 
L 394.790672 309.213622 
L 394.234756 313.330062 
L 394.095778 311.746816 
L 393.956799 312.606293 
L 393.81782 312.22179 
L 393.261905 312.651528 
L 392.705989 307.223256 
L 392.289053 308.127968 
L 392.011095 303.06158 
L 391.733137 308.896973 
L 391.038243 284.288806 
L 390.760286 279.539067 
L 390.20437 274.427444 
L 390.065392 278.634355 
L 389.787434 277.051109 
L 389.370497 276.191633 
L 389.09254 277.639172 
L 388.953561 275.105978 
L 388.814582 276.495616 
L 388.397646 276.508282 
L 388.119688 269.994808 
L 387.84173 280.443779 
L 387.285815 277.322523 
L 387.146836 275.694041 
L 387.007857 278.091528 
L 386.868878 274.246502 
L 386.451942 269.315821 
L 386.173984 260.223465 
L 386.035005 256.740776 
L 385.896027 262.394774 
L 385.47909 260.494879 
L 385.062154 254.9309 
L 384.923175 254.614251 
L 384.506238 252.082414 
L 384.367259 252.474607 
L 384.228281 262.078125 
L 384.089302 260.721057 
L 383.950323 255.790376 
L 383.533387 247.240848 
L 383.394408 253.302418 
L 383.11645 272.120429 
L 382.977471 274.834565 
L 382.421556 277.639172 
L 382.004619 266.194565 
L 381.587683 265.877916 
L 381.448704 265.018439 
L 381.309725 264.973204 
L 381.031768 280.262837 
L 380.614831 281.212785 
L 380.475852 276.508282 
L 380.336873 280.805664 
L 380.197895 275.455197 
L 379.641979 273.929853 
L 379.503 273.9294 
L 379.364022 274.110795 
L 379.086064 280.534251 
L 378.669127 279.086711 
L 378.530149 277.729643 
L 378.252191 277.887968 
L 378.113212 278.046293 
L 377.557297 269.677706 
L 377.14036 262.575717 
L 376.723424 263.435193 
L 376.584445 258.956868 
L 376.445466 258.685455 
L 376.167509 253.528596 
L 375.611593 256.06179 
L 375.472614 255.111842 
L 375.333636 262.666188 
L 375.194657 263.480429 
L 374.638741 262.892366 
L 374.221805 248.55268 
L 373.804868 256.152261 
L 373.66589 272.527549 
L 373.526911 274.336973 
L 373.248953 270.446711 
L 372.832017 273.319172 
L 372.693038 272.346607 
L 372.41508 277.86535 
L 372.276101 279.629539 
L 371.859165 280.624722 
L 371.720186 279.177183 
L 371.581207 279.787863 
L 371.30325 273.522732 
L 370.886313 273.070376 
L 370.747334 274.563151 
L 370.330398 271.622837 
L 369.913461 272.2109 
L 369.774482 272.708491 
L 369.635504 272.482313 
L 369.496525 272.889434 
L 369.357546 272.663256 
L 368.940609 273.432261 
L 368.801631 274.47268 
L 368.662652 274.336973 
L 368.384694 278.905769 
L 367.967758 278.543884 
L 367.828779 280.398544 
L 367.6898 275.920219 
L 367.550821 275.105978 
L 367.411842 276.01069 
L 366.994906 270.763361 
L 366.855927 270.944303 
L 366.716948 277.593937 
L 366.577969 277.45823 
L 366.022054 290.259905 
L 365.883075 290.847968 
L 365.744096 288.812366 
L 365.466139 294.873937 
L 365.049202 295.281057 
L 364.910223 297.180952 
L 364.771245 297.226188 
L 364.632266 296.728596 
L 364.493287 300.618858 
L 364.07635 301.252156 
L 363.659414 296.27624 
L 363.520435 297.180952 
L 363.103499 303.016345 
L 362.96452 295.597706 
L 362.825541 324.77467 
L 362.686562 323.281895 
L 362.130647 327.44357 
L 361.991668 323.553308 
L 361.852689 329.026816 
L 361.71371 328.619696 
L 361.018816 274.336973 
L 360.879837 273.658439 
L 360.740858 281.755612 
L 360.60188 269.813413 
L 360.184943 248.869329 
L 360.045964 251.719172 
L 359.906986 250.497811 
L 359.629028 251.583465 
L 359.212091 250.678753 
L 358.934134 255.564198 
L 358.656176 254.433308 
L 358.23924 251.402523 
L 358.100261 251.312052 
L 357.961282 252.375088 
L 357.266388 237.334251 
L 357.127409 239.369853 
L 356.98843 239.415088 
L 356.710472 243.757706 
L 356.293536 240.500743 
L 356.154557 240.63645 
L 355.876599 237.515193 
L 355.737621 237.6509 
L 355.320684 239.098439 
L 355.181705 236.361685 
L 355.042726 236.700952 
L 354.903748 239.053204 
L 354.764769 247.376554 
L 354.347832 252.261999 
L 354.069875 250.135926 
L 353.930896 250.769224 
L 353.791917 255.383256 
L 353.374981 245.793308 
L 353.236002 251.809643 
L 352.958044 210.735717 
L 352.819065 202.186188 
L 352.124171 137.634984 
L 351.985192 139.851528 
L 351.846213 140.258649 
L 351.290298 146.998753 
L 351.151319 146.526494 
L 351.01234 147.179696 
L 350.873362 147.043989 
L 350.317446 145.370272 
L 350.178467 144.510795 
L 350.039489 144.46556 
L 349.90051 140.168177 
L 349.205616 139.059905 
L 349.066637 139.82891 
L 348.927658 143.198963 
L 348.510722 146.817811 
L 348.093785 140.213413 
L 347.954806 142.972785 
L 347.53787 143.108491 
L 347.398891 147.677287 
L 347.259912 145.008387 
L 347.120933 146.139277 
L 346.981954 152.562732 
L 346.565018 152.698439 
L 346.426039 154.779277 
L 346.28706 154.507863 
L 346.009103 149.034355 
L 345.592166 142.429957 
L 345.453187 148.581999 
L 345.314208 147.677287 
L 345.17523 147.586816 
L 345.036251 147.360638 
L 344.619314 148.129643 
L 344.341357 150.685455 
L 344.202378 151.499696 
L 344.063399 151.024722 
L 343.646462 153.51268 
L 343.507484 147.722523 
L 343.368505 147.677287 
L 343.229526 140.937183 
L 342.673611 146.455926 
L 342.534632 143.651319 
L 342.395653 146.455926 
L 342.117695 162.650272 
L 341.700759 161.700324 
L 341.422801 155.955402 
L 341.283822 155.548282 
L 341.144844 154.417392 
L 340.727907 153.693622 
L 340.310971 165.590586 
L 340.171992 167.40001 
L 339.19914 158.03624 
L 338.643225 166.721476 
L 338.504246 166.540533 
L 338.365267 163.509748 
L 338.226288 164.323989 
L 337.670373 156.769643 
L 337.392415 165.635821 
L 337.253436 171.92357 
L 336.8365 170.023675 
L 336.697521 167.852366 
L 336.558542 168.304722 
L 336.419563 165.228701 
L 335.58569 162.5598 
L 335.307733 156.18158 
L 334.890796 150.934251 
L 334.751817 161.247968 
L 334.47386 160.433727 
L 334.334881 163.012156 
L 333.917944 166.902418 
L 333.778966 166.947654 
L 333.639987 167.40001 
L 333.501008 166.360496 
L 333.362029 166.766711 
L 332.945093 166.540533 
L 332.806114 175.361476 
L 332.667135 176.44713 
L 332.389177 179.613622 
L 331.972241 175.587654 
L 331.694283 180.382628 
L 331.555304 179.387444 
L 331.416325 180.020743 
L 330.86041 170.295088 
L 330.721431 170.181999 
L 330.582453 169.842732 
L 330.443474 167.173832 
L 330.026537 165.183465 
L 329.887558 163.102628 
L 329.74858 165.681057 
L 329.609601 162.785978 
L 329.053685 157.810062 
L 328.914707 162.5598 
L 328.775728 162.144085 
L 328.636749 162.921685 
L 328.49777 164.640638 
L 328.080834 167.264303 
L 327.941855 165.884617 
L 327.802876 166.156031 
L 327.524918 163.532366 
L 327.107982 163.464512 
L 326.830024 165.771528 
L 326.552066 157.267235 
L 326.13513 156.475612 
L 325.857172 150.436659 
L 325.718193 150.481895 
L 325.579215 148.853413 
L 325.162278 147.993937 
L 325.023299 151.431842 
L 324.884321 150.979486 
L 324.745342 139.987235 
L 324.606363 153.263884 
L 324.050448 149.351005 
L 323.911469 146.953518 
L 323.77249 148.581999 
L 323.633511 154.64357 
L 323.216575 154.779277 
L 323.077596 156.045874 
L 322.799638 158.986188 
L 322.660659 158.352889 
L 322.243723 159.936135 
L 321.965765 163.645455 
L 321.687807 161.926502 
L 321.131892 161.157497 
L 320.992913 161.293204 
L 320.853934 161.067026 
L 320.714956 164.41446 
L 320.298019 161.338439 
L 320.15904 159.212366 
L 320.020061 163.962104 
L 319.742104 156.90535 
L 319.325167 156.769643 
L 319.186189 158.895717 
L 319.04721 154.462628 
L 318.908231 154.553099 
L 318.769252 169.209434 
L 318.213337 172.059277 
L 318.074358 168.440881 
L 317.935379 168.169015 
L 317.7964 170.521266 
L 317.379464 173.099696 
L 317.240485 168.847549 
L 317.101506 173.687759 
L 316.823548 172.194984 
L 316.406612 174.863884 
L 316.267633 178.663675 
L 316.128654 177.417886 
L 315.989675 177.939905 
L 315.43376 177.713727 
L 315.294781 180.292156 
L 315.155802 180.427863 
L 315.016824 179.885036 
L 314.877845 182.124198 
L 314.460908 185.437254 
L 314.182951 178.686293 
L 314.043972 179.8398 
L 313.904993 172.579486 
L 313.488057 169.887968 
L 313.349078 148.581999 
L 313.210099 168.711842 
L 312.932141 164.537953 
L 312.515205 162.605036 
L 312.376226 162.5598 
L 312.237247 160.433727 
L 312.098268 161.383675 
L 311.959289 158.986188 
L 311.542353 158.646921 
L 311.125416 160.976554 
L 310.569501 161.881266 
L 310.291543 158.533832 
L 310.152565 156.679172 
L 310.013586 156.317287 
L 309.45767 161.700324 
L 309.318692 159.121895 
L 309.179713 159.755193 
L 308.484819 156.769643 
L 308.34584 157.493413 
L 308.206861 157.357706 
L 307.650946 157.221999 
L 307.511967 158.443361 
L 307.372988 123.973832 
L 307.234009 120.626397 
L 307.09503 121.259696 
L 306.678094 119.314565 
L 306.539115 120.626397 
L 306.400136 117.867026 
L 306.261157 117.459905 
L 306.122179 118.115821 
L 305.705242 119.3598 
L 305.566263 120.762104 
L 305.427284 117.41467 
L 305.288306 118.22891 
L 305.149327 115.017183 
L 304.73239 113.931528 
L 304.593411 111.149539 
L 304.454433 111.398334 
L 304.315454 110.810272 
L 304.176475 115.786188 
L 303.759538 116.464722 
L 303.481581 115.152889 
L 303.342602 116.826607 
L 303.203623 115.876659 
L 302.647708 109.407968 
L 302.508729 103.798753 
L 302.36975 103.843989 
L 302.230771 102.848806 
L 301.813835 103.255926 
L 301.674856 106.331947 
L 301.396898 103.346397 
L 301.25792 103.535482 
L 300.840983 103.301162 
L 300.702004 98.868525 
L 300.563025 100.270376 
L 300.424047 97.103884 
L 300.285068 100.767968 
L 299.868131 102.0798 
L 299.729152 101.808387 
L 299.590174 102.713099 
L 299.312216 99.546607 
L 298.895279 97.14912 
L 298.756301 100.858439 
L 298.617322 99.320429 
L 298.478343 92.037497 
L 298.339364 101.175088 
L 297.922428 71.410062 
L 297.783449 47.480429 
L 297.64447 46.032889 
L 297.366512 49.289853 
L 296.949576 49.289853 
L 296.810597 47.616135 
L 296.671618 48.136345 
L 296.532639 51.958753 
L 296.39366 51.189748 
L 295.837745 52.999172 
L 295.559788 47.480429 
L 295.003872 47.028073 
L 294.864893 47.525664 
L 294.447957 43.04734 
L 294.03102 42.821162 
L 293.892042 43.816345 
L 293.753063 43.816345 
L 293.614084 37.80001 
L 293.475105 37.438125 
L 292.780211 44.132994 
L 292.641232 43.997287 
L 292.085317 42.097392 
L 291.807359 43.04734 
L 291.66838 41.91645 
L 291.529401 42.549748 
L 291.112465 42.979486 
L 290.695528 46.032889 
L 290.55655 46.711423 
L 290.139613 46.84713 
L 290.000634 45.942418 
L 289.861656 45.987654 
L 289.722677 46.168596 
L 289.583698 47.797078 
L 289.166761 47.209015 
L 289.027783 47.661371 
L 288.888804 46.982837 
L 288.610846 49.154146 
L 288.19391 49.606502 
L 288.054931 49.10891 
L 287.776973 52.546816 
L 287.637994 54.175298 
L 287.221058 54.582418 
L 287.082079 52.772994 
L 286.9431 54.039591 
L 286.804121 53.768177 
L 286.665142 52.320638 
L 286.248206 52.365874 
L 285.692291 60.282104 
L 285.275354 58.608387 
L 285.136375 59.467863 
L 284.858418 65.484198 
L 284.719439 64.624722 
L 284.302502 64.466397 
L 284.163524 64.534251 
L 283.746587 59.829748 
L 283.329651 58.653622 
L 283.190672 61.164198 
L 283.051693 58.608387 
L 282.773735 50.692156 
L 282.356799 49.696973 
L 282.21782 47.231633 
L 282.078841 47.163779 
L 281.939862 47.661371 
L 281.383947 46.666188 
L 281.244968 47.97802 
L 280.96701 55.532366 
L 280.828032 52.003989 
L 280.411095 50.669539 
L 280.133137 48.204198 
L 279.994159 49.42556 
L 279.85518 48.882732 
L 279.438243 43.092575 
L 279.160286 51.415926 
L 279.021307 53.089643 
L 278.465392 54.966921 
L 278.326413 56.075193 
L 278.187434 60.395193 
L 278.048455 59.467863 
L 277.909476 61.910586 
L 277.49254 63.267654 
L 277.353561 62.001057 
L 277.214582 62.272471 
L 277.075603 59.648806 
L 276.936624 59.128596 
L 276.380709 61.232052 
L 276.24173 57.884617 
L 276.102751 57.74891 
L 275.963773 56.798963 
L 275.546836 56.437078 
L 275.407857 57.975088 
L 275.1299 56.437078 
L 274.990921 57.74891 
L 274.573984 56.753727 
L 274.435005 54.944303 
L 274.296027 55.034774 
L 274.018069 54.35624 
L 273.601132 55.336496 
L 273.462154 56.437078 
L 273.323175 54.763361 
L 273.184196 54.446711 
L 273.045217 55.894251 
L 272.489302 55.803779 
L 272.350323 55.622837 
L 272.211344 57.839382 
L 272.072365 57.522732 
L 271.655429 55.441895 
L 271.377471 55.622837 
L 271.099514 59.920219 
L 270.682577 59.015507 
L 270.543598 60.236868 
L 270.265641 56.301371 
L 270.126662 52.81823 
L 269.709725 52.275402 
L 269.570746 52.863465 
L 269.431768 52.456345 
L 269.15381 58.517916 
L 268.736873 58.201266 
L 268.597895 59.694041 
L 268.458916 57.522732 
L 268.319937 63.086711 
L 268.180958 63.448596 
L 267.764022 63.312889 
L 267.625043 64.579486 
L 267.486064 64.353308 
L 267.347085 60.802313 
L 267.208106 62.181999 
L 266.79117 61.45823 
L 266.652191 59.467863 
L 266.513212 60.01069 
L 266.374233 58.427444 
L 266.235255 60.960638 
L 265.818318 61.051109 
L 265.54036 67.474565 
L 264.845466 70.776764 
L 264.706487 71.907654 
L 264.567509 75.255088 
L 264.42853 72.586188 
L 264.289551 72.812366 
L 263.733636 74.395612 
L 263.594657 73.400429 
L 263.455678 80.954774 
L 263.316699 81.090481 
L 262.899763 80.411947 
L 262.760784 80.728596 
L 262.621805 82.764198 
L 262.482826 81.135717 
L 262.343847 85.614041 
L 261.926911 85.161685 
L 261.787932 83.895088 
L 261.648953 85.840219 
L 261.509974 84.890272 
L 261.370995 82.402313 
L 260.954059 82.583256 
L 260.676101 81.814251 
L 260.537123 81.542837 
L 259.981207 85.659277 
L 259.70325 84.845036 
L 259.564271 87.604408 
L 259.425292 83.329643 
L 259.008355 83.66891 
L 258.869377 83.487968 
L 258.591419 86.066397 
L 258.035504 84.211738 
L 257.896525 84.302209 
L 257.757546 86.473518 
L 257.618567 83.714146 
L 257.062652 82.899905 
L 256.923673 83.623675 
L 256.784694 82.832052 
L 256.645715 84.121266 
L 256.506736 83.126083 
L 256.0898 84.573622 
L 255.950821 89.323361 
L 255.811842 84.211738 
L 255.533885 89.866188 
L 255.116948 91.132785 
L 254.838991 93.801685 
L 254.700012 94.88734 
L 254.561033 97.103884 
L 254.144096 94.57069 
L 254.005118 96.515821 
L 253.72716 84.211738 
L 253.588181 85.071214 
L 253.171245 92.173204 
L 252.893287 93.077916 
L 252.754308 92.30891 
L 252.615329 93.304094 
L 252.198393 94.434984 
L 251.920435 92.30891 
L 251.781456 93.485036 
L 251.642477 96.968177 
L 251.086562 92.263675 
L 250.808604 79.688177 
L 250.669626 84.7998 
L 250.252689 81.859486 
L 250.11371 87.649643 
L 249.974731 85.433099 
L 249.696774 77.629957 
L 249.140858 86.111633 
L 249.00188 84.528387 
L 248.723922 86.609224 
L 248.306986 86.563989 
L 248.168007 84.076031 
L 248.029028 84.7998 
L 247.890049 84.709329 
L 247.75107 86.337811 
L 247.195155 87.423465 
L 247.056176 92.354146 
L 246.778218 91.630376 
L 246.361282 90.228073 
L 246.222303 93.258858 
L 246.083324 93.050774 
L 245.805367 84.935507 
L 245.38843 79.100115 
L 245.249451 78.73823 
L 245.110472 78.059696 
L 244.971494 69.917287 
L 244.832515 70.414879 
L 244.415578 69.89467 
L 244.276599 70.09823 
L 243.859663 76.657392 
L 243.442726 78.195402 
L 243.164769 82.809434 
L 243.02579 83.035612 
L 242.886811 81.995193 
L 242.330896 75.481266 
L 242.191917 76.069329 
L 242.052938 74.576554 
L 241.219065 80.502418 
L 241.080086 77.426397 
L 240.941108 77.516868 
L 240.385192 72.179067 
L 240.246213 72.450481 
L 240.107235 66.253204 
L 239.968256 65.868701 
L 239.551319 67.067444 
L 239.41234 66.343675 
L 239.134383 76.024094 
L 238.995404 70.143465 
L 238.578467 69.442313 
L 238.30051 72.721895 
L 238.161531 72.133832 
L 238.022552 70.686293 
L 237.605616 69.464931 
L 237.466637 65.393727 
L 237.188679 70.052994 
L 237.0497 70.595821 
L 236.632764 70.821999 
L 236.493785 71.274355 
L 236.354806 70.324408 
L 236.215827 67.11268 
L 236.076849 67.338858 
L 235.659912 67.067444 
L 235.520933 70.550586 
L 235.103997 67.044827 
L 234.68706 68.288806 
L 234.548081 69.283989 
L 234.409103 69.012575 
L 234.270124 69.419696 
L 234.131145 68.288806 
L 233.714208 67.83645 
L 233.436251 65.212785 
L 233.297272 67.022209 
L 232.741357 70.188701 
L 232.602378 71.907654 
L 232.32442 77.471633 
L 232.185441 74.576554 
L 231.768505 75.074146 
L 231.629526 79.371528 
L 231.351568 76.521685 
L 231.21259 76.114565 
L 230.656674 75.616973 
L 230.517695 76.069329 
L 230.378717 76.069329 
L 230.239738 74.237287 
L 229.822801 75.02891 
L 229.683822 76.069329 
L 229.544844 80.638125 
L 229.405865 81.542837 
L 229.266886 81.633308 
L 228.849949 81.452366 
L 228.571992 88.328177 
L 227.738119 92.489853 
L 227.59914 95.475402 
L 227.460161 95.746816 
L 227.321182 97.330062 
L 226.904246 99.139486 
L 226.765267 100.835821 
L 226.34833 93.575507 
L 225.792415 91.90179 
L 225.653436 92.444617 
L 225.514458 91.358963 
L 225.375479 92.30891 
L 224.958542 92.127968 
L 224.819563 91.585141 
L 224.680585 91.630376 
L 224.541606 93.801685 
L 224.402627 94.027863 
L 223.846712 98.551423 
L 223.707733 98.370481 
L 223.429775 102.80357 
L 223.012839 102.170272 
L 222.87386 98.189539 
L 222.734881 90.997078 
L 222.595902 90.544722 
L 222.456923 91.49467 
L 222.039987 91.947026 
L 221.901008 94.344512 
L 221.762029 92.761266 
L 221.62305 92.942209 
L 221.484071 91.585141 
L 221.067135 92.127968 
L 220.789177 95.746816 
L 220.51122 89.64001 
L 220.094283 89.368596 
L 219.816325 91.358963 
L 219.677347 93.123151 
L 219.538368 92.942209 
L 218.982453 93.801685 
L 218.843474 93.485036 
L 218.704495 93.665978 
L 218.565516 92.761266 
L 218.14858 92.037497 
L 218.009601 92.942209 
L 217.870622 98.325245 
L 217.592664 100.496554 
L 217.036749 100.587026 
L 216.89777 101.356031 
L 216.619812 103.979696 
L 216.202876 105.246293 
L 215.924918 106.331947 
L 215.785939 102.260743 
L 215.646961 102.577392 
L 215.230024 97.058649 
L 215.091045 96.741999 
L 214.813088 101.763151 
L 214.674109 105.562942 
L 214.257172 107.281895 
L 213.979215 105.517706 
L 213.840236 108.005664 
L 213.284321 109.724617 
L 213.145342 105.698649 
L 212.867384 105.110586 
L 212.728405 102.826188 
L 212.311469 105.743884 
L 212.033511 100.066816 
L 211.755553 109.996031 
L 211.338617 111.895926 
L 211.060659 122.526293 
L 210.92168 122.300115 
L 210.782702 123.928596 
L 210.365765 124.20001 
L 210.226786 126.145141 
L 209.948829 119.766921 
L 209.392913 120.535926 
L 209.253934 118.364617 
L 208.975977 123.023884 
L 208.836998 123.521476 
L 208.281083 122.797706 
L 208.003125 120.174041 
L 207.864146 121.259696 
L 207.169252 115.424303 
L 206.891294 116.736135 
L 206.335379 116.102837 
L 206.1964 116.464722 
L 206.057421 119.495507 
L 205.918443 118.590795 
L 205.501506 117.731319 
L 205.362527 115.152889 
L 205.223548 115.605245 
L 204.945591 124.426188 
L 204.528654 125.3309 
L 204.250697 119.472889 
L 204.111718 120.626397 
L 203.972739 120.716868 
L 203.555802 120.49069 
L 203.416824 124.969015 
L 203.138866 120.08357 
L 202.999887 120.151423 
L 202.582951 121.21446 
L 202.304993 122.842942 
L 202.166014 122.707235 
L 202.027035 118.54556 
L 201.610099 117.188491 
L 201.332141 122.458439 
L 201.193162 118.364617 
L 201.054184 119.405036 
L 200.637247 119.993099 
L 200.498268 116.374251 
L 200.220311 119.67645 
L 200.081332 122.797706 
L 199.664395 122.119172 
L 199.525416 115.198125 
L 199.386438 115.96713 
L 199.247459 118.319382 
L 199.10848 118.138439 
L 198.691543 118.002732 
L 198.552565 119.902628 
L 198.413586 116.464722 
L 198.274607 115.96713 
L 198.135628 117.324198 
L 197.440734 112.438753 
L 197.301755 113.162523 
L 197.162776 115.605245 
L 196.74584 115.333832 
L 196.606861 116.555193 
L 196.467882 120.128806 
L 196.328903 120.400219 
L 196.189925 119.631214 
L 195.634009 120.309748 
L 195.49503 120.219277 
L 195.356052 119.224094 
L 195.217073 119.178858 
L 194.800136 121.440638 
L 194.661157 121.440638 
L 194.522179 121.870376 
L 194.3832 125.149957 
L 194.244221 122.661999 
L 193.827284 118.771738 
L 193.549327 125.73802 
L 193.271369 128.904512 
L 192.715454 130.352052 
L 192.437496 139.489643 
L 192.298517 140.258649 
L 191.742602 142.6109 
L 191.603623 139.172994 
L 191.464644 140.484827 
L 190.908729 144.194146 
L 190.630771 140.439591 
L 190.491792 139.987235 
L 190.352814 132.613832 
L 189.935877 132.704303 
L 189.796898 133.201895 
L 189.65792 136.504094 
L 189.379962 123.792889 
L 188.824047 114.83624 
L 188.685068 115.152889 
L 188.40711 114.067235 
L 187.990174 116.464722 
L 187.712216 120.08357 
L 187.573237 121.21446 
L 187.434258 120.716868 
L 187.017322 121.440638 
L 186.739364 125.783256 
L 186.461406 121.847759 
L 186.04447 120.332366 
L 185.905491 123.747654 
L 185.766512 122.842942 
L 185.071618 132.387654 
L 184.79366 128.339067 
L 184.654682 129.763989 
L 184.098766 125.285664 
L 183.959788 124.494041 
L 183.820809 128.271214 
L 183.68183 127.683151 
L 183.542851 127.818858 
L 183.125915 127.140324 
L 182.986936 128.135507 
L 182.847957 127.004617 
L 182.708978 127.547444 
L 182.569999 134.558963 
L 182.014084 134.197078 
L 181.875105 137.409258 
L 181.736126 136.594565 
L 181.597147 133.428073 
L 181.180211 136.187444 
L 181.041232 134.785141 
L 180.763274 129.311633 
L 180.624296 128.452156 
L 180.06838 126.421078 
L 179.790423 134.37802 
L 179.651444 134.151842 
L 179.234507 132.704303 
L 179.095528 129.967549 
L 178.95655 131.075821 
L 178.817571 128.542628 
L 178.678592 128.814041 
L 178.261656 126.914146 
L 178.122677 125.466607 
L 177.70574 117.09802 
L 177.288804 117.731319 
L 176.871867 122.752471 
L 176.176973 120.581162 
L 176.037994 119.993099 
L 175.3431 124.991633 
L 175.204121 127.818858 
L 175.065142 125.104722 
L 174.926164 126.009434 
L 174.787185 121.712052 
L 174.370248 122.209643 
L 174.231269 124.561895 
L 174.092291 123.250062 
L 173.814333 115.469539 
L 173.397396 118.816973 
L 173.119439 116.6909 
L 172.98046 123.114355 
L 172.841481 121.440638 
L 172.424545 121.576345 
L 172.146587 124.878544 
L 172.007608 121.395402 
L 171.868629 121.712052 
L 171.451693 123.973832 
L 171.312714 125.873727 
L 171.173735 120.897811 
L 171.034756 123.159591 
L 170.895778 120.264512 
L 170.478841 121.078753 
L 170.200883 117.30158 
L 169.922926 113.795821 
L 169.228032 119.450272 
L 169.089053 119.405036 
L 168.533137 124.290481 
L 167.977222 113.343465 
L 167.560286 115.379067 
L 167.421307 113.524408 
L 167.282328 115.469086 
L 167.143349 119.224094 
L 167.00437 113.614879 
L 166.587434 124.742837 
L 166.448455 123.204827 
L 166.309476 126.235612 
L 166.170497 123.702418 
L 166.031519 124.154774 
L 165.475603 115.650481 
L 165.336624 117.912261 
L 165.197646 117.82179 
L 165.058667 116.917078 
L 164.64173 116.374251 
L 164.502751 115.514774 
L 164.224794 109.475821 
L 164.085815 110.945978 
L 163.668878 111.624512 
L 163.5299 109.136554 
L 163.390921 109.679382 
L 163.251942 113.750586 
L 162.696027 112.031633 
L 162.557048 109.950795 
L 162.418069 104.205874 
L 162.27909 103.798753 
L 162.140111 106.286711 
L 161.306238 94.593308 
L 161.167259 94.16357 
L 160.750323 89.097183 
L 160.611344 88.825769 
L 160.472365 89.368596 
L 160.194408 92.354146 
L 159.777471 93.846468 
L 159.499514 96.01823 
L 159.360535 95.972994 
L 158.804619 98.008596 
L 158.387683 102.0798 
L 158.248704 107.643779 
L 157.831768 107.372366 
L 157.55381 113.433937 
L 157.414831 109.679382 
L 157.275852 114.881476 
L 156.858916 117.867026 
L 156.303 111.624512 
L 155.886064 111.307863 
L 155.608106 114.248177 
L 155.330149 120.038334 
L 154.913212 117.505141 
L 154.635255 122.571528 
L 154.496276 122.119172 
L 154.357297 121.440638 
L 153.94036 121.62158 
L 153.801382 121.304931 
L 153.523424 125.692785 
L 153.384445 125.964198 
L 152.967509 130.623465 
L 152.82853 128.406921 
L 152.689551 127.9998 
L 152.550572 127.140324 
L 151.994657 131.347235 
L 151.716699 134.242313 
L 151.57772 137.680219 
L 151.438741 134.649434 
L 151.021805 132.161476 
L 150.882826 133.020952 
L 150.604868 131.663884 
L 150.46589 131.935298 
L 150.048953 135.011319 
L 149.909974 133.24713 
L 149.770995 133.111423 
L 149.632017 131.482942 
L 149.493038 131.528177 
L 148.937123 133.699486 
L 148.659165 128.406921 
L 148.520186 130.216345 
L 148.10325 133.382837 
L 147.825292 138.358753 
L 147.547334 147.179696 
L 147.130398 147.13446 
L 146.991419 150.436659 
L 146.85244 150.708073 
L 146.713461 155.36734 
L 146.574482 155.77446 
L 146.157546 157.764827 
L 145.740609 150.391423 
L 145.601631 152.969853 
L 144.767758 157.810062 
L 144.628779 154.191214 
L 144.211842 154.824512 
L 144.072863 155.819696 
L 143.933885 154.688806 
L 143.238991 160.29802 
L 143.100012 155.819696 
L 142.961033 155.593518 
L 142.683075 154.191214 
L 142.12716 151.838963 
L 141.710223 149.758125 
L 141.293287 147.903465 
L 141.154308 146.41069 
L 141.015329 147.54158 
L 140.87635 146.682104 
L 140.737372 143.922732 
L 140.320435 142.972785 
L 140.181456 147.632052 
L 140.042477 144.736973 
L 139.903499 145.053622 
L 139.069626 153.874565 
L 138.930647 152.427026 
L 138.791668 152.766293 
L 138.374731 153.150795 
L 138.235753 152.607968 
L 138.096774 152.630586 
L 137.818816 155.322104 
L 137.40188 155.77446 
L 137.123922 161.474146 
L 136.984943 161.247968 
L 136.845964 160.524198 
L 136.429028 161.564617 
L 136.290049 164.188282 
L 136.15107 163.012156 
L 135.873113 157.764827 
L 135.456176 156.633937 
L 135.03924 145.941597 
L 134.900261 146.00357 
L 134.483324 146.139277 
L 134.344345 146.455926 
L 134.205367 147.315402 
L 134.066388 146.863046 
L 133.927409 147.451109 
L 133.510472 147.089224 
L 133.232515 146.274984 
L 132.954557 147.043989 
L 132.398642 147.179696 
L 132.120684 149.215298 
L 131.981705 149.486711 
L 131.42579 150.210481 
L 131.008854 143.606083 
L 130.591917 145.460743 
L 130.452938 147.224931 
L 130.174981 143.877497 
L 130.036002 142.882313 
L 129.619065 141.163361 
L 129.341108 144.963151 
L 129.202129 148.740324 
L 129.06315 147.586816 
L 128.507235 150.753308 
L 128.368256 150.481895 
L 128.229277 151.793727 
L 128.090298 149.803361 
L 127.673362 148.129643 
L 127.256425 153.693622 
L 127.117446 153.467444 
L 126.70051 153.173413 
L 126.283573 157.357706 
L 125.588679 159.031423 
L 125.4497 160.162313 
L 125.310722 163.057392 
L 125.171743 162.87645 
L 124.754806 162.740743 
L 124.615827 161.926502 
L 124.476849 162.288387 
L 124.33787 165.319172 
L 124.198891 162.424094 
L 123.642976 158.081476 
L 123.503997 157.855298 
L 123.365018 158.126711 
L 123.226039 157.83268 
L 122.670124 153.376973 
L 122.531145 153.874565 
L 122.392166 152.607968 
L 122.253187 153.693622 
L 121.836251 155.276868 
L 121.697272 156.679172 
L 121.558293 156.407759 
L 121.419314 158.443361 
L 121.280335 157.041057 
L 120.585441 154.824512 
L 120.307484 158.669539 
L 119.751568 158.171947 
L 119.61259 159.438544 
L 119.473611 158.805245 
L 119.334632 159.8909 
L 118.917695 158.217183 
L 118.639738 165.092994 
L 118.500759 165.771528 
L 118.36178 164.459696 
L 117.944844 168.621371 
L 117.666886 157.991005 
L 117.527907 157.855298 
L 117.388928 158.307654 
L 116.971992 157.764827 
L 116.833013 160.682523 
L 116.694034 158.895717 
L 116.555055 158.76001 
L 116.416076 159.348073 
L 115.99914 159.664722 
L 115.443225 167.173832 
L 115.026288 167.173832 
L 114.609352 162.016973 
L 114.470373 161.564617 
L 114.053436 160.705141 
L 113.914458 163.147863 
L 113.497521 160.139696 
L 113.080585 161.044408 
L 112.941606 162.966921 
L 112.802627 163.102628 
L 112.663648 162.288387 
L 112.107733 161.971738 
L 111.968754 162.424094 
L 111.551817 170.204617 
L 111.134881 171.742628 
L 110.856923 174.18535 
L 110.717944 172.285455 
L 110.578966 168.304722 
L 110.162029 169.435612 
L 110.02305 171.245036 
L 109.884071 175.225769 
L 109.745093 175.31624 
L 109.606114 175.587654 
L 109.189177 174.094879 
L 108.91122 174.004408 
L 108.077347 177.125664 
L 107.938368 175.135298 
L 107.799389 177.758963 
L 107.66041 176.04001 
L 107.243474 175.678125 
L 106.965516 180.382628 
L 106.826537 179.885036 
L 106.687558 180.834984 
L 106.270622 180.925455 
L 106.131643 178.573204 
L 105.853685 178.120848 
L 105.714707 178.369643 
L 105.29777 177.736345 
L 105.158791 174.90912 
L 104.880834 174.682942 
L 104.741855 174.863884 
L 104.324918 175.994774 
L 104.185939 177.668491 
L 104.046961 175.678125 
L 103.769003 174.999591 
L 103.352066 178.007759 
L 103.213088 178.030376 
L 103.074109 177.668491 
L 102.796151 173.642523 
L 102.379215 174.682942 
L 102.240236 177.261371 
L 102.101257 176.130481 
L 101.823299 176.989957 
L 101.406363 177.487549 
L 101.128405 178.70891 
L 100.850448 175.904303 
L 100.433511 176.582837 
L 100.294532 176.582837 
L 100.016575 174.773865 
L 99.877596 174.592471 
L 99.460659 174.818649 
L 99.32168 174.18535 
L 99.043723 175.768596 
L 98.904744 171.787863 
L 98.487807 171.561685 
L 98.348829 166.902418 
L 97.931892 169.164198 
L 97.514956 168.847549 
L 97.375977 170.973622 
L 97.236998 169.164198 
L 97.098019 170.114146 
L 96.95904 169.707026 
L 96.542104 170.611738 
L 96.403125 172.64734 
L 96.264146 169.978439 
L 96.125167 170.837916 
L 95.986189 173.823465 
L 95.569252 173.099696 
L 95.430273 173.800848 
L 95.291294 176.854251 
L 95.013337 174.773413 
L 94.5964 173.416345 
L 94.457421 173.832512 
L 94.318443 173.642523 
L 94.040485 177.939905 
L 93.623548 177.541832 
L 93.48457 176.718544 
L 93.345591 174.434146 
L 93.206612 174.776579 
L 93.067633 175.542418 
L 92.650697 175.406711 
L 92.511718 173.280638 
L 92.372739 169.299905 
L 92.23376 169.797497 
L 92.094781 169.752261 
L 91.677845 171.018858 
L 91.538866 169.062418 
L 91.399887 170.249853 
L 91.260908 174.456764 
L 91.121929 170.023675 
L 90.566014 174.18535 
L 90.288057 173.823465 
L 90.149078 175.31624 
L 89.732141 174.094879 
L 89.593162 175.723361 
L 89.454184 175.5198 
L 89.315205 172.918753 
L 88.759289 172.828282 
L 88.620311 172.602104 
L 88.481332 171.51645 
L 88.342353 171.742628 
L 88.203374 172.556868 
L 87.786438 172.466397 
L 87.369501 165.816764 
L 87.230522 167.490481 
L 86.813586 165.54535 
L 86.25767 158.126711 
L 85.840734 155.141162 
L 85.701755 155.141162 
L 85.562776 154.914984 
L 85.423797 155.141162 
L 85.284819 153.060324 
L 84.728903 149.034355 
L 84.589925 151.952052 
L 84.450946 150.244408 
L 84.311967 151.296135 
L 83.89503 151.65802 
L 83.756052 154.711423 
L 83.617073 154.073601 
L 83.339115 155.819696 
L 82.644221 153.603151 
L 82.505242 147.213622 
L 82.366263 151.205664 
L 81.949327 155.095926 
L 81.810348 154.326921 
L 81.671369 156.000638 
L 81.53239 155.36734 
L 81.393411 155.593518 
L 80.976475 157.538649 
L 80.698517 157.402942 
L 80.559538 155.412575 
L 80.42056 151.703256 
L 80.003623 151.612785 
L 79.864644 156.49823 
L 79.725665 155.095926 
L 79.447708 159.529015 
L 79.030771 159.121895 
L 78.891792 160.343256 
L 78.752814 153.467444 
L 78.474856 154.055507 
L 78.05792 155.910167 
L 77.918941 157.900533 
L 77.779962 157.131528 
L 77.640983 157.267235 
L 77.502004 156.000638 
L 77.085068 155.683989 
L 76.80711 159.664722 
L 76.529152 156.90535 
L 75.973237 153.784094 
L 75.834258 153.603151 
L 75.695279 150.300952 
L 75.139364 151.169476 
L 75.000385 150.481895 
L 74.861406 143.967968 
L 74.722428 146.772575 
L 74.583449 147.315402 
L 74.027533 147.270167 
L 73.888555 145.234565 
L 73.610597 150.165245 
L 73.19366 150.300952 
L 73.054682 148.491528 
L 72.915703 145.189329 
L 72.776724 145.573832 
L 72.637745 147.315402 
L 72.220809 146.00357 
L 72.08183 144.691738 
L 71.942851 142.022837 
L 71.803872 141.796659 
L 71.664893 141.977601 
L 71.247957 143.244198 
L 71.108978 143.289434 
L 70.83102 146.048806 
L 70.692042 145.190686 
L 70.275105 145.098858 
L 69.997147 148.220115 
L 69.858169 147.677287 
L 69.71919 146.682104 
L 69.302253 147.13446 
L 68.885317 148.310586 
L 68.746338 149.305769 
L 68.329401 150.142628 
L 67.773486 158.488596 
L 67.217571 159.574251 
L 66.939613 163.012156 
L 66.800634 162.197916 
L 66.383698 162.378858 
L 66.244719 162.740743 
L 66.10574 162.062209 
L 65.966761 163.374041 
L 65.966761 163.374041 
" clip-path="url(#p7736ba4694)" style="fill: none; stroke: #000000; stroke-width: 0.25; stroke-linecap: square"/>
   </g>
   <g id="patch_3">
    <path d="M 40.603125 354.958125 
L 40.603125 22.318125 
" style="fill: none; stroke: #000000; stroke-width: 0.8; stroke-linejoin: miter; stroke-linecap: square"/>
   </g>
   <g id="patch_4">
    <path d="M 598.603125 354.958125 
L 598.603125 22.318125 
" style="fill: none; stroke: #000000; stroke-width: 0.8; stroke-linejoin: miter; stroke-linecap: square"/>
   </g>
   <g id="patch_5">
    <path d="M 40.603125 354.958125 
L 598.603125 354.958125 
" style="fill: none; stroke: #000000; stroke-width: 0.8; stroke-linejoin: miter; stroke-linecap: square"/>
   </g>
   <g id="patch_6">
    <path d="M 40.603125 22.318125 
L 598.603125 22.318125 
" style="fill: none; stroke: #000000; stroke-width: 0.8; stroke-linejoin: miter; stroke-linecap: square"/>
   </g>
   <g id="text_20">
    <!-- PCG, High Price (2013-2023) -->
    <g transform="translate(233.704687 16.318125)scale(0.12 -0.12)">
     <defs>
      <path id="DejaVuSans-43" d="M 4122 4306 
L 4122 3641 
Q 3803 3938 3442 4084 
Q 3081 4231 2675 4231 
Q 1875 4231 1450 3742 
Q 1025 3253 1025 2328 
Q 1025 1406 1450 917 
Q 1875 428 2675 428 
Q 3081 428 3442 575 
Q 3803 722 4122 1019 
L 4122 359 
Q 3791 134 3420 21 
Q 3050 -91 2638 -91 
Q 1578 -91 968 557 
Q 359 1206 359 2328 
Q 359 3453 968 4101 
Q 1578 4750 2638 4750 
Q 3056 4750 3426 4639 
Q 3797 4528 4122 4306 
z
" transform="scale(0.015625)"/>
      <path id="DejaVuSans-47" d="M 3809 666 
L 3809 1919 
L 2778 1919 
L 2778 2438 
L 4434 2438 
L 4434 434 
Q 4069 175 3628 42 
Q 3188 -91 2688 -91 
Q 1594 -91 976 548 
Q 359 1188 359 2328 
Q 359 3472 976 4111 
Q 1594 4750 2688 4750 
Q 3144 4750 3555 4637 
Q 3966 4525 4313 4306 
L 4313 3634 
Q 3963 3931 3569 4081 
Q 3175 4231 2741 4231 
Q 1884 4231 1454 3753 
Q 1025 3275 1025 2328 
Q 1025 1384 1454 906 
Q 1884 428 2741 428 
Q 3075 428 3337 486 
Q 3600 544 3809 666 
z
" transform="scale(0.015625)"/>
      <path id="DejaVuSans-2c" d="M 750 794 
L 1409 794 
L 1409 256 
L 897 -744 
L 494 -744 
L 750 256 
L 750 794 
z
" transform="scale(0.015625)"/>
      <path id="DejaVuSans-48" d="M 628 4666 
L 1259 4666 
L 1259 2753 
L 3553 2753 
L 3553 4666 
L 4184 4666 
L 4184 0 
L 3553 0 
L 3553 2222 
L 1259 2222 
L 1259 0 
L 628 0 
L 628 4666 
z
" transform="scale(0.015625)"/>
      <path id="DejaVuSans-67" d="M 2906 1791 
Q 2906 2416 2648 2759 
Q 2391 3103 1925 3103 
Q 1463 3103 1205 2759 
Q 947 2416 947 1791 
Q 947 1169 1205 825 
Q 1463 481 1925 481 
Q 2391 481 2648 825 
Q 2906 1169 2906 1791 
z
M 3481 434 
Q 3481 -459 3084 -895 
Q 2688 -1331 1869 -1331 
Q 1566 -1331 1297 -1286 
Q 1028 -1241 775 -1147 
L 775 -588 
Q 1028 -725 1275 -790 
Q 1522 -856 1778 -856 
Q 2344 -856 2625 -561 
Q 2906 -266 2906 331 
L 2906 616 
Q 2728 306 2450 153 
Q 2172 0 1784 0 
Q 1141 0 747 490 
Q 353 981 353 1791 
Q 353 2603 747 3093 
Q 1141 3584 1784 3584 
Q 2172 3584 2450 3431 
Q 2728 3278 2906 2969 
L 2906 3500 
L 3481 3500 
L 3481 434 
z
" transform="scale(0.015625)"/>
      <path id="DejaVuSans-68" d="M 3513 2113 
L 3513 0 
L 2938 0 
L 2938 2094 
Q 2938 2591 2744 2837 
Q 2550 3084 2163 3084 
Q 1697 3084 1428 2787 
Q 1159 2491 1159 1978 
L 1159 0 
L 581 0 
L 581 4863 
L 1159 4863 
L 1159 2956 
Q 1366 3272 1645 3428 
Q 1925 3584 2291 3584 
Q 2894 3584 3203 3211 
Q 3513 2838 3513 2113 
z
" transform="scale(0.015625)"/>
      <path id="DejaVuSans-2d" d="M 313 2009 
L 1997 2009 
L 1997 1497 
L 313 1497 
L 313 2009 
z
" transform="scale(0.015625)"/>
     </defs>
     <use xlink:href="#DejaVuSans-50"/>
     <use xlink:href="#DejaVuSans-43" x="60.302734"/>
     <use xlink:href="#DejaVuSans-47" x="130.126953"/>
     <use xlink:href="#DejaVuSans-2c" x="207.617188"/>
     <use xlink:href="#DejaVuSans-20" x="239.404297"/>
     <use xlink:href="#DejaVuSans-48" x="271.191406"/>
     <use xlink:href="#DejaVuSans-69" x="346.386719"/>
     <use xlink:href="#DejaVuSans-67" x="374.169922"/>
     <use xlink:href="#DejaVuSans-68" x="437.646484"/>
     <use xlink:href="#DejaVuSans-20" x="501.025391"/>
     <use xlink:href="#DejaVuSans-50" x="532.8125"/>
     <use xlink:href="#DejaVuSans-72" x="591.365234"/>
     <use xlink:href="#DejaVuSans-69" x="632.478516"/>
     <use xlink:href="#DejaVuSans-63" x="660.261719"/>
     <use xlink:href="#DejaVuSans-65" x="715.242188"/>
     <use xlink:href="#DejaVuSans-20" x="776.765625"/>
     <use xlink:href="#DejaVuSans-28" x="808.552734"/>
     <use xlink:href="#DejaVuSans-32" x="847.566406"/>
     <use xlink:href="#DejaVuSans-30" x="911.189453"/>
     <use xlink:href="#DejaVuSans-31" x="974.8125"/>
     <use xlink:href="#DejaVuSans-33" x="1038.435547"/>
     <use xlink:href="#DejaVuSans-2d" x="1102.058594"/>
     <use xlink:href="#DejaVuSans-32" x="1138.142578"/>
     <use xlink:href="#DejaVuSans-30" x="1201.765625"/>
     <use xlink:href="#DejaVuSans-32" x="1265.388672"/>
     <use xlink:href="#DejaVuSans-33" x="1329.011719"/>
     <use xlink:href="#DejaVuSans-29" x="1392.634766"/>
    </g>
   </g>
  </g>
 </g>
 <defs>
  <clipPath id="p7736ba4694">
   <rect x="40.603125" y="22.318125" width="558" height="332.64"/>
  </clipPath>
 </defs>
</svg>
