<?xml version="1.0" encoding="utf-8" standalone="no"?>
<!DOCTYPE svg PUBLIC "-//W3C//DTD SVG 1.1//EN"
  "http://www.w3.org/Graphics/SVG/1.1/DTD/svg11.dtd">
<svg xmlns:xlink="http://www.w3.org/1999/xlink" width="605.803125pt" height="392.514375pt" viewBox="0 0 605.803125 392.514375" xmlns="http://www.w3.org/2000/svg" version="1.1">
 <metadata>
  <rdf:RDF xmlns:dc="http://purl.org/dc/elements/1.1/" xmlns:cc="http://creativecommons.org/ns#" xmlns:rdf="http://www.w3.org/1999/02/22-rdf-syntax-ns#">
   <cc:Work>
    <dc:type rdf:resource="http://purl.org/dc/dcmitype/StillImage"/>
    <dc:date>2023-04-24T17:59:47.522524</dc:date>
    <dc:format>image/svg+xml</dc:format>
    <dc:creator>
     <cc:Agent>
      <dc:title>Matplotlib v3.5.1, https://matplotlib.org/</dc:title>
     </cc:Agent>
    </dc:creator>
   </cc:Work>
  </rdf:RDF>
 </metadata>
 <defs>
  <style type="text/css">*{stroke-linejoin: round; stroke-linecap: butt}</style>
 </defs>
 <g id="figure_1">
  <g id="patch_1">
   <path d="M 0 392.514375 
L 605.803125 392.514375 
L 605.803125 0 
L 0 0 
z
" style="fill: #ffffff"/>
  </g>
  <g id="axes_1">
   <g id="patch_2">
    <path d="M 40.603125 354.958125 
L 598.603125 354.958125 
L 598.603125 22.318125 
L 40.603125 22.318125 
z
" style="fill: #ffffff"/>
   </g>
   <g id="matplotlib.axis_1">
    <g id="xtick_1">
     <g id="line2d_1">
      <defs>
       <path id="mbc51e5c0d4" d="M 0 0 
L 0 3.5 
" style="stroke: #000000; stroke-width: 0.8"/>
      </defs>
      <g>
       <use xlink:href="#mbc51e5c0d4" x="65.966761" y="354.958125" style="stroke: #000000; stroke-width: 0.8"/>
      </g>
     </g>
     <g id="text_1">
      <!-- 0 -->
      <g transform="translate(62.785511 369.556562)scale(0.1 -0.1)">
       <defs>
        <path id="DejaVuSans-30" d="M 2034 4250 
Q 1547 4250 1301 3770 
Q 1056 3291 1056 2328 
Q 1056 1369 1301 889 
Q 1547 409 2034 409 
Q 2525 409 2770 889 
Q 3016 1369 3016 2328 
Q 3016 3291 2770 3770 
Q 2525 4250 2034 4250 
z
M 2034 4750 
Q 2819 4750 3233 4129 
Q 3647 3509 3647 2328 
Q 3647 1150 3233 529 
Q 2819 -91 2034 -91 
Q 1250 -91 836 529 
Q 422 1150 422 2328 
Q 422 3509 836 4129 
Q 1250 4750 2034 4750 
z
" transform="scale(0.015625)"/>
       </defs>
       <use xlink:href="#DejaVuSans-30"/>
      </g>
     </g>
    </g>
    <g id="xtick_2">
     <g id="line2d_2">
      <g>
       <use xlink:href="#mbc51e5c0d4" x="181.729593" y="354.958125" style="stroke: #000000; stroke-width: 0.8"/>
      </g>
     </g>
     <g id="text_2">
      <!-- 500 -->
      <g transform="translate(172.185843 369.556562)scale(0.1 -0.1)">
       <defs>
        <path id="DejaVuSans-35" d="M 691 4666 
L 3169 4666 
L 3169 4134 
L 1269 4134 
L 1269 2991 
Q 1406 3038 1543 3061 
Q 1681 3084 1819 3084 
Q 2600 3084 3056 2656 
Q 3513 2228 3513 1497 
Q 3513 744 3044 326 
Q 2575 -91 1722 -91 
Q 1428 -91 1123 -41 
Q 819 9 494 109 
L 494 744 
Q 775 591 1075 516 
Q 1375 441 1709 441 
Q 2250 441 2565 725 
Q 2881 1009 2881 1497 
Q 2881 1984 2565 2268 
Q 2250 2553 1709 2553 
Q 1456 2553 1204 2497 
Q 953 2441 691 2322 
L 691 4666 
z
" transform="scale(0.015625)"/>
       </defs>
       <use xlink:href="#DejaVuSans-35"/>
       <use xlink:href="#DejaVuSans-30" x="63.623047"/>
       <use xlink:href="#DejaVuSans-30" x="127.246094"/>
      </g>
     </g>
    </g>
    <g id="xtick_3">
     <g id="line2d_3">
      <g>
       <use xlink:href="#mbc51e5c0d4" x="297.492424" y="354.958125" style="stroke: #000000; stroke-width: 0.8"/>
      </g>
     </g>
     <g id="text_3">
      <!-- 1000 -->
      <g transform="translate(284.767424 369.556562)scale(0.1 -0.1)">
       <defs>
        <path id="DejaVuSans-31" d="M 794 531 
L 1825 531 
L 1825 4091 
L 703 3866 
L 703 4441 
L 1819 4666 
L 2450 4666 
L 2450 531 
L 3481 531 
L 3481 0 
L 794 0 
L 794 531 
z
" transform="scale(0.015625)"/>
       </defs>
       <use xlink:href="#DejaVuSans-31"/>
       <use xlink:href="#DejaVuSans-30" x="63.623047"/>
       <use xlink:href="#DejaVuSans-30" x="127.246094"/>
       <use xlink:href="#DejaVuSans-30" x="190.869141"/>
      </g>
     </g>
    </g>
    <g id="xtick_4">
     <g id="line2d_4">
      <g>
       <use xlink:href="#mbc51e5c0d4" x="413.255256" y="354.958125" style="stroke: #000000; stroke-width: 0.8"/>
      </g>
     </g>
     <g id="text_4">
      <!-- 1500 -->
      <g transform="translate(400.530256 369.556562)scale(0.1 -0.1)">
       <use xlink:href="#DejaVuSans-31"/>
       <use xlink:href="#DejaVuSans-35" x="63.623047"/>
       <use xlink:href="#DejaVuSans-30" x="127.246094"/>
       <use xlink:href="#DejaVuSans-30" x="190.869141"/>
      </g>
     </g>
    </g>
    <g id="xtick_5">
     <g id="line2d_5">
      <g>
       <use xlink:href="#mbc51e5c0d4" x="529.018087" y="354.958125" style="stroke: #000000; stroke-width: 0.8"/>
      </g>
     </g>
     <g id="text_5">
      <!-- 2000 -->
      <g transform="translate(516.293087 369.556562)scale(0.1 -0.1)">
       <defs>
        <path id="DejaVuSans-32" d="M 1228 531 
L 3431 531 
L 3431 0 
L 469 0 
L 469 531 
Q 828 903 1448 1529 
Q 2069 2156 2228 2338 
Q 2531 2678 2651 2914 
Q 2772 3150 2772 3378 
Q 2772 3750 2511 3984 
Q 2250 4219 1831 4219 
Q 1534 4219 1204 4116 
Q 875 4013 500 3803 
L 500 4441 
Q 881 4594 1212 4672 
Q 1544 4750 1819 4750 
Q 2544 4750 2975 4387 
Q 3406 4025 3406 3419 
Q 3406 3131 3298 2873 
Q 3191 2616 2906 2266 
Q 2828 2175 2409 1742 
Q 1991 1309 1228 531 
z
" transform="scale(0.015625)"/>
       </defs>
       <use xlink:href="#DejaVuSans-32"/>
       <use xlink:href="#DejaVuSans-30" x="63.623047"/>
       <use xlink:href="#DejaVuSans-30" x="127.246094"/>
       <use xlink:href="#DejaVuSans-30" x="190.869141"/>
      </g>
     </g>
    </g>
    <g id="text_6">
     <!-- Date -->
     <g transform="translate(307.652344 383.234687)scale(0.1 -0.1)">
      <defs>
       <path id="DejaVuSans-44" d="M 1259 4147 
L 1259 519 
L 2022 519 
Q 2988 519 3436 956 
Q 3884 1394 3884 2338 
Q 3884 3275 3436 3711 
Q 2988 4147 2022 4147 
L 1259 4147 
z
M 628 4666 
L 1925 4666 
Q 3281 4666 3915 4102 
Q 4550 3538 4550 2338 
Q 4550 1131 3912 565 
Q 3275 0 1925 0 
L 628 0 
L 628 4666 
z
" transform="scale(0.015625)"/>
       <path id="DejaVuSans-61" d="M 2194 1759 
Q 1497 1759 1228 1600 
Q 959 1441 959 1056 
Q 959 750 1161 570 
Q 1363 391 1709 391 
Q 2188 391 2477 730 
Q 2766 1069 2766 1631 
L 2766 1759 
L 2194 1759 
z
M 3341 1997 
L 3341 0 
L 2766 0 
L 2766 531 
Q 2569 213 2275 61 
Q 1981 -91 1556 -91 
Q 1019 -91 701 211 
Q 384 513 384 1019 
Q 384 1609 779 1909 
Q 1175 2209 1959 2209 
L 2766 2209 
L 2766 2266 
Q 2766 2663 2505 2880 
Q 2244 3097 1772 3097 
Q 1472 3097 1187 3025 
Q 903 2953 641 2809 
L 641 3341 
Q 956 3463 1253 3523 
Q 1550 3584 1831 3584 
Q 2591 3584 2966 3190 
Q 3341 2797 3341 1997 
z
" transform="scale(0.015625)"/>
       <path id="DejaVuSans-74" d="M 1172 4494 
L 1172 3500 
L 2356 3500 
L 2356 3053 
L 1172 3053 
L 1172 1153 
Q 1172 725 1289 603 
Q 1406 481 1766 481 
L 2356 481 
L 2356 0 
L 1766 0 
Q 1100 0 847 248 
Q 594 497 594 1153 
L 594 3053 
L 172 3053 
L 172 3500 
L 594 3500 
L 594 4494 
L 1172 4494 
z
" transform="scale(0.015625)"/>
       <path id="DejaVuSans-65" d="M 3597 1894 
L 3597 1613 
L 953 1613 
Q 991 1019 1311 708 
Q 1631 397 2203 397 
Q 2534 397 2845 478 
Q 3156 559 3463 722 
L 3463 178 
Q 3153 47 2828 -22 
Q 2503 -91 2169 -91 
Q 1331 -91 842 396 
Q 353 884 353 1716 
Q 353 2575 817 3079 
Q 1281 3584 2069 3584 
Q 2775 3584 3186 3129 
Q 3597 2675 3597 1894 
z
M 3022 2063 
Q 3016 2534 2758 2815 
Q 2500 3097 2075 3097 
Q 1594 3097 1305 2825 
Q 1016 2553 972 2059 
L 3022 2063 
z
" transform="scale(0.015625)"/>
      </defs>
      <use xlink:href="#DejaVuSans-44"/>
      <use xlink:href="#DejaVuSans-61" x="77.001953"/>
      <use xlink:href="#DejaVuSans-74" x="138.28125"/>
      <use xlink:href="#DejaVuSans-65" x="177.490234"/>
     </g>
    </g>
   </g>
   <g id="matplotlib.axis_2">
    <g id="ytick_1">
     <g id="line2d_6">
      <path d="M 40.603125 312.168704 
L 598.603125 312.168704 
" clip-path="url(#p4c4d8f6dae)" style="fill: none; stroke: #dcdcdc; stroke-width: 0.5; stroke-linecap: square"/>
     </g>
     <g id="line2d_7">
      <defs>
       <path id="m9be106aee3" d="M 0 0 
L -3.5 0 
" style="stroke: #000000; stroke-width: 0.8"/>
      </defs>
      <g>
       <use xlink:href="#m9be106aee3" x="40.603125" y="312.168704" style="stroke: #000000; stroke-width: 0.8"/>
      </g>
     </g>
     <g id="text_7">
      <!-- 10 -->
      <g transform="translate(20.878125 315.967922)scale(0.1 -0.1)">
       <use xlink:href="#DejaVuSans-31"/>
       <use xlink:href="#DejaVuSans-30" x="63.623047"/>
      </g>
     </g>
    </g>
    <g id="ytick_2">
     <g id="line2d_8">
      <path d="M 40.603125 267.540604 
L 598.603125 267.540604 
" clip-path="url(#p4c4d8f6dae)" style="fill: none; stroke: #dcdcdc; stroke-width: 0.5; stroke-linecap: square"/>
     </g>
     <g id="line2d_9">
      <g>
       <use xlink:href="#m9be106aee3" x="40.603125" y="267.540604" style="stroke: #000000; stroke-width: 0.8"/>
      </g>
     </g>
     <g id="text_8">
      <!-- 20 -->
      <g transform="translate(20.878125 271.339823)scale(0.1 -0.1)">
       <use xlink:href="#DejaVuSans-32"/>
       <use xlink:href="#DejaVuSans-30" x="63.623047"/>
      </g>
     </g>
    </g>
    <g id="ytick_3">
     <g id="line2d_10">
      <path d="M 40.603125 222.912505 
L 598.603125 222.912505 
" clip-path="url(#p4c4d8f6dae)" style="fill: none; stroke: #dcdcdc; stroke-width: 0.5; stroke-linecap: square"/>
     </g>
     <g id="line2d_11">
      <g>
       <use xlink:href="#m9be106aee3" x="40.603125" y="222.912505" style="stroke: #000000; stroke-width: 0.8"/>
      </g>
     </g>
     <g id="text_9">
      <!-- 30 -->
      <g transform="translate(20.878125 226.711724)scale(0.1 -0.1)">
       <defs>
        <path id="DejaVuSans-33" d="M 2597 2516 
Q 3050 2419 3304 2112 
Q 3559 1806 3559 1356 
Q 3559 666 3084 287 
Q 2609 -91 1734 -91 
Q 1441 -91 1130 -33 
Q 819 25 488 141 
L 488 750 
Q 750 597 1062 519 
Q 1375 441 1716 441 
Q 2309 441 2620 675 
Q 2931 909 2931 1356 
Q 2931 1769 2642 2001 
Q 2353 2234 1838 2234 
L 1294 2234 
L 1294 2753 
L 1863 2753 
Q 2328 2753 2575 2939 
Q 2822 3125 2822 3475 
Q 2822 3834 2567 4026 
Q 2313 4219 1838 4219 
Q 1578 4219 1281 4162 
Q 984 4106 628 3988 
L 628 4550 
Q 988 4650 1302 4700 
Q 1616 4750 1894 4750 
Q 2613 4750 3031 4423 
Q 3450 4097 3450 3541 
Q 3450 3153 3228 2886 
Q 3006 2619 2597 2516 
z
" transform="scale(0.015625)"/>
       </defs>
       <use xlink:href="#DejaVuSans-33"/>
       <use xlink:href="#DejaVuSans-30" x="63.623047"/>
      </g>
     </g>
    </g>
    <g id="ytick_4">
     <g id="line2d_12">
      <path d="M 40.603125 178.284406 
L 598.603125 178.284406 
" clip-path="url(#p4c4d8f6dae)" style="fill: none; stroke: #dcdcdc; stroke-width: 0.5; stroke-linecap: square"/>
     </g>
     <g id="line2d_13">
      <g>
       <use xlink:href="#m9be106aee3" x="40.603125" y="178.284406" style="stroke: #000000; stroke-width: 0.8"/>
      </g>
     </g>
     <g id="text_10">
      <!-- 40 -->
      <g transform="translate(20.878125 182.083625)scale(0.1 -0.1)">
       <defs>
        <path id="DejaVuSans-34" d="M 2419 4116 
L 825 1625 
L 2419 1625 
L 2419 4116 
z
M 2253 4666 
L 3047 4666 
L 3047 1625 
L 3713 1625 
L 3713 1100 
L 3047 1100 
L 3047 0 
L 2419 0 
L 2419 1100 
L 313 1100 
L 313 1709 
L 2253 4666 
z
" transform="scale(0.015625)"/>
       </defs>
       <use xlink:href="#DejaVuSans-34"/>
       <use xlink:href="#DejaVuSans-30" x="63.623047"/>
      </g>
     </g>
    </g>
    <g id="ytick_5">
     <g id="line2d_14">
      <path d="M 40.603125 133.656307 
L 598.603125 133.656307 
" clip-path="url(#p4c4d8f6dae)" style="fill: none; stroke: #dcdcdc; stroke-width: 0.5; stroke-linecap: square"/>
     </g>
     <g id="line2d_15">
      <g>
       <use xlink:href="#m9be106aee3" x="40.603125" y="133.656307" style="stroke: #000000; stroke-width: 0.8"/>
      </g>
     </g>
     <g id="text_11">
      <!-- 50 -->
      <g transform="translate(20.878125 137.455526)scale(0.1 -0.1)">
       <use xlink:href="#DejaVuSans-35"/>
       <use xlink:href="#DejaVuSans-30" x="63.623047"/>
      </g>
     </g>
    </g>
    <g id="ytick_6">
     <g id="line2d_16">
      <path d="M 40.603125 89.028208 
L 598.603125 89.028208 
" clip-path="url(#p4c4d8f6dae)" style="fill: none; stroke: #dcdcdc; stroke-width: 0.5; stroke-linecap: square"/>
     </g>
     <g id="line2d_17">
      <g>
       <use xlink:href="#m9be106aee3" x="40.603125" y="89.028208" style="stroke: #000000; stroke-width: 0.8"/>
      </g>
     </g>
     <g id="text_12">
      <!-- 60 -->
      <g transform="translate(20.878125 92.827426)scale(0.1 -0.1)">
       <defs>
        <path id="DejaVuSans-36" d="M 2113 2584 
Q 1688 2584 1439 2293 
Q 1191 2003 1191 1497 
Q 1191 994 1439 701 
Q 1688 409 2113 409 
Q 2538 409 2786 701 
Q 3034 994 3034 1497 
Q 3034 2003 2786 2293 
Q 2538 2584 2113 2584 
z
M 3366 4563 
L 3366 3988 
Q 3128 4100 2886 4159 
Q 2644 4219 2406 4219 
Q 1781 4219 1451 3797 
Q 1122 3375 1075 2522 
Q 1259 2794 1537 2939 
Q 1816 3084 2150 3084 
Q 2853 3084 3261 2657 
Q 3669 2231 3669 1497 
Q 3669 778 3244 343 
Q 2819 -91 2113 -91 
Q 1303 -91 875 529 
Q 447 1150 447 2328 
Q 447 3434 972 4092 
Q 1497 4750 2381 4750 
Q 2619 4750 2861 4703 
Q 3103 4656 3366 4563 
z
" transform="scale(0.015625)"/>
       </defs>
       <use xlink:href="#DejaVuSans-36"/>
       <use xlink:href="#DejaVuSans-30" x="63.623047"/>
      </g>
     </g>
    </g>
    <g id="ytick_7">
     <g id="line2d_18">
      <path d="M 40.603125 44.400108 
L 598.603125 44.400108 
" clip-path="url(#p4c4d8f6dae)" style="fill: none; stroke: #dcdcdc; stroke-width: 0.5; stroke-linecap: square"/>
     </g>
     <g id="line2d_19">
      <g>
       <use xlink:href="#m9be106aee3" x="40.603125" y="44.400108" style="stroke: #000000; stroke-width: 0.8"/>
      </g>
     </g>
     <g id="text_13">
      <!-- 70 -->
      <g transform="translate(20.878125 48.199327)scale(0.1 -0.1)">
       <defs>
        <path id="DejaVuSans-37" d="M 525 4666 
L 3525 4666 
L 3525 4397 
L 1831 0 
L 1172 0 
L 2766 4134 
L 525 4134 
L 525 4666 
z
" transform="scale(0.015625)"/>
       </defs>
       <use xlink:href="#DejaVuSans-37"/>
       <use xlink:href="#DejaVuSans-30" x="63.623047"/>
      </g>
     </g>
    </g>
    <g id="text_14">
     <!-- Price (USD) -->
     <g transform="translate(14.798437 217.01)rotate(-90)scale(0.1 -0.1)">
      <defs>
       <path id="DejaVuSans-50" d="M 1259 4147 
L 1259 2394 
L 2053 2394 
Q 2494 2394 2734 2622 
Q 2975 2850 2975 3272 
Q 2975 3691 2734 3919 
Q 2494 4147 2053 4147 
L 1259 4147 
z
M 628 4666 
L 2053 4666 
Q 2838 4666 3239 4311 
Q 3641 3956 3641 3272 
Q 3641 2581 3239 2228 
Q 2838 1875 2053 1875 
L 1259 1875 
L 1259 0 
L 628 0 
L 628 4666 
z
" transform="scale(0.015625)"/>
       <path id="DejaVuSans-72" d="M 2631 2963 
Q 2534 3019 2420 3045 
Q 2306 3072 2169 3072 
Q 1681 3072 1420 2755 
Q 1159 2438 1159 1844 
L 1159 0 
L 581 0 
L 581 3500 
L 1159 3500 
L 1159 2956 
Q 1341 3275 1631 3429 
Q 1922 3584 2338 3584 
Q 2397 3584 2469 3576 
Q 2541 3569 2628 3553 
L 2631 2963 
z
" transform="scale(0.015625)"/>
       <path id="DejaVuSans-69" d="M 603 3500 
L 1178 3500 
L 1178 0 
L 603 0 
L 603 3500 
z
M 603 4863 
L 1178 4863 
L 1178 4134 
L 603 4134 
L 603 4863 
z
" transform="scale(0.015625)"/>
       <path id="DejaVuSans-63" d="M 3122 3366 
L 3122 2828 
Q 2878 2963 2633 3030 
Q 2388 3097 2138 3097 
Q 1578 3097 1268 2742 
Q 959 2388 959 1747 
Q 959 1106 1268 751 
Q 1578 397 2138 397 
Q 2388 397 2633 464 
Q 2878 531 3122 666 
L 3122 134 
Q 2881 22 2623 -34 
Q 2366 -91 2075 -91 
Q 1284 -91 818 406 
Q 353 903 353 1747 
Q 353 2603 823 3093 
Q 1294 3584 2113 3584 
Q 2378 3584 2631 3529 
Q 2884 3475 3122 3366 
z
" transform="scale(0.015625)"/>
       <path id="DejaVuSans-20" transform="scale(0.015625)"/>
       <path id="DejaVuSans-28" d="M 1984 4856 
Q 1566 4138 1362 3434 
Q 1159 2731 1159 2009 
Q 1159 1288 1364 580 
Q 1569 -128 1984 -844 
L 1484 -844 
Q 1016 -109 783 600 
Q 550 1309 550 2009 
Q 550 2706 781 3412 
Q 1013 4119 1484 4856 
L 1984 4856 
z
" transform="scale(0.015625)"/>
       <path id="DejaVuSans-55" d="M 556 4666 
L 1191 4666 
L 1191 1831 
Q 1191 1081 1462 751 
Q 1734 422 2344 422 
Q 2950 422 3222 751 
Q 3494 1081 3494 1831 
L 3494 4666 
L 4128 4666 
L 4128 1753 
Q 4128 841 3676 375 
Q 3225 -91 2344 -91 
Q 1459 -91 1007 375 
Q 556 841 556 1753 
L 556 4666 
z
" transform="scale(0.015625)"/>
       <path id="DejaVuSans-53" d="M 3425 4513 
L 3425 3897 
Q 3066 4069 2747 4153 
Q 2428 4238 2131 4238 
Q 1616 4238 1336 4038 
Q 1056 3838 1056 3469 
Q 1056 3159 1242 3001 
Q 1428 2844 1947 2747 
L 2328 2669 
Q 3034 2534 3370 2195 
Q 3706 1856 3706 1288 
Q 3706 609 3251 259 
Q 2797 -91 1919 -91 
Q 1588 -91 1214 -16 
Q 841 59 441 206 
L 441 856 
Q 825 641 1194 531 
Q 1563 422 1919 422 
Q 2459 422 2753 634 
Q 3047 847 3047 1241 
Q 3047 1584 2836 1778 
Q 2625 1972 2144 2069 
L 1759 2144 
Q 1053 2284 737 2584 
Q 422 2884 422 3419 
Q 422 4038 858 4394 
Q 1294 4750 2059 4750 
Q 2388 4750 2728 4690 
Q 3069 4631 3425 4513 
z
" transform="scale(0.015625)"/>
       <path id="DejaVuSans-29" d="M 513 4856 
L 1013 4856 
Q 1481 4119 1714 3412 
Q 1947 2706 1947 2009 
Q 1947 1309 1714 600 
Q 1481 -109 1013 -844 
L 513 -844 
Q 928 -128 1133 580 
Q 1338 1288 1338 2009 
Q 1338 2731 1133 3434 
Q 928 4138 513 4856 
z
" transform="scale(0.015625)"/>
      </defs>
      <use xlink:href="#DejaVuSans-50"/>
      <use xlink:href="#DejaVuSans-72" x="58.552734"/>
      <use xlink:href="#DejaVuSans-69" x="99.666016"/>
      <use xlink:href="#DejaVuSans-63" x="127.449219"/>
      <use xlink:href="#DejaVuSans-65" x="182.429688"/>
      <use xlink:href="#DejaVuSans-20" x="243.953125"/>
      <use xlink:href="#DejaVuSans-28" x="275.740234"/>
      <use xlink:href="#DejaVuSans-55" x="314.753906"/>
      <use xlink:href="#DejaVuSans-53" x="387.947266"/>
      <use xlink:href="#DejaVuSans-44" x="451.423828"/>
      <use xlink:href="#DejaVuSans-29" x="528.425781"/>
     </g>
    </g>
   </g>
   <g id="line2d_20">
    <path d="M 65.966761 161.905894 
L 66.198287 161.325728 
L 66.429813 162.262918 
L 66.661338 161.638125 
L 67.818967 153.649695 
M 112.966471 177.972009 
L 113.197997 175.919117 
M 115.281728 174.624902 
L 115.744779 173.776968 
M 116.670882 171.500935 
L 117.133933 173.330687 
L 117.365459 172.259613 
L 117.596984 170.117464 
M 121.53292 163.914158 
L 121.764446 166.011679 
M 132.183101 162.262918 
L 132.414627 164.80672 
L 132.646152 164.003414 
L 132.877678 161.414985 
L 133.109204 162.084406 
L 133.340729 162.039778 
L 133.572255 162.575315 
L 133.803781 162.084406 
L 134.035306 159.138951 
L 134.266832 157.710852 
L 134.729883 156.952175 
L 135.192935 152.935646 
L 135.42446 152.087712 
L 135.655986 152.087712 
L 135.887512 153.114158 
L 136.119037 152.043084 
M 146.074641 161.638125 
L 146.306166 164.895976 
L 146.537692 163.646389 
L 146.769218 159.897629 
L 147.000743 160.745563 
L 147.232269 160.790191 
L 147.463795 160.12077 
L 147.69532 158.112505 
L 147.926846 155.077794 
L 148.158372 156.014985 
M 156.724821 158.112505 
L 156.956347 155.211679 
L 157.187873 154.319117 
L 157.419398 152.043084 
L 157.650924 152.712505 
L 157.88245 157.398456 
L 158.113975 157.309199 
L 158.345501 154.229861 
L 158.577026 153.78358 
L 158.808552 150.391844 
L 159.040078 150.659613 
M 164.596694 133.924075 
L 164.828219 131.424902 
M 165.754322 128.791844 
L 165.985848 129.416637 
L 166.217373 125.087712 
M 168.53263 119.286059 
L 168.764156 119.062918 
L 168.995681 113.752175 
L 169.227207 111.967051 
L 169.458733 111.431513 
L 169.690258 114.55548 
L 169.921784 119.196803 
L 170.15331 118.750522 
L 170.384835 114.733993 
L 170.616361 115.091018 
L 170.847887 113.172009 
L 171.310938 107.638125 
L 171.542464 109.423249 
M 202.335377 132.18358 
L 202.566902 132.094323 
L 202.798428 125.489365 
M 208.818095 143.117464 
L 209.049621 142.894323 
L 209.281147 141.243084 
L 209.512672 144.367051 
L 209.744198 139.100935 
L 209.975724 142.98358 
L 210.207249 143.92077 
L 210.438775 140.61829 
L 210.670301 140.39515 
L 210.901826 139.011679 
L 211.133352 136.86953 
L 211.596403 131.291018 
M 231.044559 127.899282 
L 231.276085 127.051348 
M 231.739136 126.471183 
L 231.970662 124.105894 
M 237.064226 104.960439 
L 237.295752 103.621596 
L 237.527278 105.942257 
L 237.758803 105.853001 
L 237.990329 105.585232 
L 238.221855 104.648042 
L 238.45338 104.781927 
L 238.916432 101.167051 
L 239.147957 102.238125 
L 239.611008 100.00672 
M 245.862201 104.112505 
L 246.093727 102.461265 
L 246.325253 101.970356 
L 246.556778 102.416637 
M 250.029663 99.515811 
L 250.261189 102.372009 
L 250.492715 100.00672 
L 250.72424 99.605067 
L 250.955766 99.694323 
L 251.187292 95.54391 
L 251.418817 95.945563 
L 251.650343 91.750522 
L 251.881869 91.170356 
L 252.113394 88.671183 
M 281.980205 97.775315 
L 282.21173 96.704241 
L 282.443256 96.25796 
L 282.674782 96.25796 
M 291.472757 85.056307 
L 291.704283 80.325728 
L 291.935808 81.93234 
L 292.167334 81.753827 
L 292.39886 80.861265 
M 292.861911 76.130687 
L 293.093437 74.077794 
M 307.448028 62.608373 
L 307.679553 60.778621 
L 307.911079 60.198456 
L 308.142605 64.259613 
L 308.37413 65.241431 
L 308.605656 63.902588 
L 308.837182 64.304241 
M 315.782952 63.947216 
L 316.246003 65.776968 
L 316.477529 65.286059 
L 316.709054 66.446389 
L 317.172106 66.535646 
L 317.403631 61.358786 
L 317.635157 60.689365 
M 318.098208 59.439778 
L 318.329734 57.342257 
M 323.423298 48.238125 
L 323.654824 47.300935 
M 358.152148 165.476142 
L 358.383674 160.700935 
L 358.615199 163.824902 
L 358.846725 160.745563 
M 370.423008 179.35548 
L 370.654534 181.453001 
L 370.886059 181.051348 
L 371.349111 177.391844 
L 371.580636 179.221596 
L 372.043688 178.284406 
M 387.787433 155.256307 
L 388.018958 154.765398 
M 405.151857 325.958786 
L 405.383383 325.423249 
L 405.614909 328.413332 
L 406.07796 322.433166 
L 406.309486 321.138951 
M 406.772537 304.26953 
L 407.004063 303.198456 
L 407.235588 294.362092 
L 407.467114 295.790191 
L 407.69864 298.780274 
L 407.930165 298.423249 
L 408.161691 297.486059 
L 408.393217 293.960439 
L 408.624742 295.790191 
M 409.087794 293.424902 
L 409.319319 292.844737 
M 410.013896 287.757133 
L 410.245422 287.712505 
M 412.097627 280.79515 
L 412.329153 276.867877 
L 412.560679 276.243084 
M 416.033564 275.529034 
L 416.496615 277.894323 
L 416.728141 279.813332 
M 426.91527 280.482753 
L 427.146795 276.957133 
M 453.772247 325.914158 
L 454.003772 326.895976 
L 454.235298 323.682753 
L 454.698349 326.271183 
L 454.929875 324.887712 
L 455.161401 325.512505 
L 455.392926 324.173662 
M 460.718016 310.205067 
L 460.949542 308.598456 
M 461.412593 308.375315 
L 461.875645 310.472836 
L 462.10717 309.580274 
L 462.338696 309.446389 
L 462.570222 311.008373 
L 462.801747 311.276142 
L 463.496324 299.895976 
L 463.72785 300.431513 
L 463.959376 298.423249 
L 464.190901 297.753827 
L 464.422427 300.833166 
L 464.653953 295.522423 
M 473.914979 324.575315 
L 474.378031 317.390191 
M 504.476367 314.623249 
L 504.707892 314.891018 
L 504.939418 314.891018 
M 509.10688 312.034819 
L 509.338406 312.570356 
L 509.569931 313.507546 
L 509.801457 313.329034 
L 510.032983 314.13234 
L 510.264508 313.730687 
L 510.496034 313.641431 
L 510.72756 311.900935 
L 510.959085 312.927381 
L 511.422137 310.294323 
L 511.653662 310.338951 
L 512.116714 307.259613 
M 563.052359 314.35548 
L 563.283885 313.953827 
L 563.515411 313.909199 
L 563.746936 312.972009 
L 563.978462 312.659613 
M 564.904565 311.499282 
L 565.13609 311.053001 
M 568.37745 305.876142 
" clip-path="url(#p4c4d8f6dae)" style="fill: none; stroke: #00ff7f; stroke-linecap: square"/>
   </g>
   <g id="line2d_21">
    <path d="M 74.533211 147.491018 
L 74.764737 146.01829 
M 75.690839 145.438125 
L 75.922365 148.071183 
M 86.34102 150.079447 
L 86.572545 150.436472 
L 86.804071 150.168704 
L 87.035597 151.998456 
L 87.267122 150.124075 
L 87.498648 150.704241 
L 87.961699 155.613332 
L 88.193225 154.586885 
L 88.424751 154.229861 
L 89.350853 160.745563 
L 90.04543 167.529034 
L 90.276956 165.922423 
M 103.010867 166.011679 
L 103.242393 169.135646 
L 103.473919 170.385232 
M 142.601756 145.750522 
L 142.833281 144.768704 
L 143.064807 147.624902 
L 143.296333 145.839778 
L 143.527858 146.464571 
L 143.759384 146.330687 
L 143.99091 146.419943 
L 144.222435 145.393497 
M 151.168205 142.26953 
L 151.631257 147.044737 
M 173.626195 91.705894 
L 173.85772 91.661265 
M 177.330605 108.887712 
L 177.562131 111.119117 
L 177.793657 111.431513 
L 178.025182 110.181927 
M 191.916722 120.223249 
L 192.148248 120.937299 
L 192.379773 119.598456 
L 192.611299 121.562092 
L 192.842825 121.695976 
L 193.07435 119.107546 
L 193.305876 118.661265 
M 205.576736 119.464571 
L 205.808262 118.661265 
L 206.039787 115.448042 
L 206.502839 113.975315 
L 206.96589 116.340604 
M 225.950994 114.778621 
L 226.18252 116.474489 
M 269.709345 78.228208 
L 269.94087 77.112505 
M 270.403922 72.471183 
L 270.866973 70.284406 
L 271.098499 71.623249 
M 312.773118 51.763745 
L 313.004644 48.59515 
L 313.236169 48.148869 
L 313.467695 48.729034 
L 313.699221 47.8811 
L 313.930746 48.059613 
L 314.162272 49.710852 
M 326.896183 37.438125 
L 327.127709 43.686059 
M 328.979914 49.309199 
L 329.21144 47.568704 
L 329.442966 48.684406 
L 329.674491 53.459613 
L 330.137543 52.924075 
L 330.369068 52.745563 
L 330.600594 51.942257 
L 330.83212 47.970356 
L 331.063645 48.550522 
L 331.526697 50.424902 
L 331.758222 48.014985 
L 331.989748 48.193497 
M 334.999582 101.211679 
L 335.231107 98.980274 
L 335.462633 101.345563 
M 339.630095 111.119117 
L 339.86162 111.074489 
L 340.093146 114.733993 
L 340.324672 115.224902 
L 340.556197 117.947216 
L 340.787723 117.590191 
L 341.019249 120.000108 
L 341.250774 120.446389 
L 341.4823 118.214985 
L 341.713826 117.099282 
L 342.176877 119.866224 
L 342.408403 121.517464 
L 342.639928 120.044737 
L 343.10298 124.507546 
L 343.334505 128.65796 
M 345.881288 154.94391 
L 346.344339 157.978621 
M 346.80739 161.236472 
L 347.501967 158.201761 
L 347.733493 158.69267 
L 347.965019 160.700935 
L 348.196544 161.147216 
L 348.659596 162.709199 
M 361.856558 149.499282 
L 362.088084 149.276142 
M 362.782661 150.168704 
L 363.014187 149.990191 
L 363.245712 150.213332 
L 363.477238 148.695976 
L 363.708764 151.061265 
L 363.940289 150.302588 
M 367.413174 162.084406 
L 367.6447 161.102588 
L 367.876226 161.191844 
L 368.107751 157.487712 
M 368.570803 164.494323 
L 368.802328 163.423249 
M 391.954895 143.563745 
L 392.18642 145.750522 
L 392.417946 145.973662 
L 392.649472 145.393497 
L 392.880997 150.213332 
L 393.112523 148.026555 
L 393.344049 147.357133 
L 393.575574 147.89267 
L 394.038626 145.0811 
L 394.270151 139.413332 
L 394.501677 139.993497 
L 394.733203 139.011679 
L 394.964728 143.474489 
M 397.743036 236.434819 
L 397.974562 234.248042 
M 398.437613 239.067877 
L 398.669139 235.810026 
L 398.900665 237.416637 
M 400.521344 240.719117 
L 400.984395 254.062918 
L 401.215921 250.805067 
L 401.447447 250.358786 
L 401.678972 255.267877 
L 401.910498 253.482753 
L 402.142024 252.679447 
L 402.605075 250.180274 
L 402.836601 250.805067 
L 403.068126 250.581927 
M 420.664077 260.712505 
L 420.895602 254.464571 
L 421.127128 253.750522 
L 421.358654 252.322423 
L 421.590179 252.277794 
L 422.053231 259.953827 
M 422.979333 263.077794 
L 423.210859 266.380274 
M 431.314257 249.912505 
L 431.545783 254.509199 
L 431.777309 252.590191 
L 432.008834 256.829861 
L 432.24036 256.963745 
L 432.471886 259.552175 
M 432.934937 259.105894 
L 433.166463 261.29267 
M 435.944771 273.342257 
L 436.407822 276.466224 
L 436.639348 275.886059 
L 436.870873 276.243084 
L 437.102399 273.788538 
L 437.333925 276.689365 
L 437.56545 275.439778 
L 437.796976 275.752175 
L 438.028502 274.190191 
L 438.260027 275.930687 
L 438.491553 282.044737 
L 438.723079 281.152175 
L 438.954604 285.704241 
L 439.18613 292.576968 
L 439.417656 293.067877 
M 447.289528 308.286059 
L 447.521054 305.474489 
L 447.752579 308.152175 
L 447.984105 307.79515 
M 467.432261 276.33234 
L 467.663786 276.912505 
M 468.589889 284.990191 
L 468.821415 278.653001 
L 469.05294 277.135646 
L 469.284466 276.823249 
L 469.515992 279.813332 
L 469.747517 278.385232 
L 469.979043 282.178621 
L 470.210569 283.919117 
L 470.67362 289.631513 
L 470.905146 290.702588 
M 485.259737 303.823249 
L 485.722788 304.001761 
L 485.954314 303.823249 
L 486.185839 300.922423 
L 486.417365 300.699282 
L 486.648891 304.091018 
L 486.880416 303.064571 
L 487.111942 307.705894 
L 487.343468 307.616637 
L 487.806519 307.929034 
L 488.038045 307.482753 
L 488.26957 308.598456 
M 506.560098 308.776968 
L 506.791623 310.160439 
M 513.505868 300.297629 
L 513.737393 300.119117 
M 520.220112 301.547216 
L 520.451638 301.547216 
M 525.082151 303.243084 
L 525.313676 303.867877 
M 526.008253 302.886059 
L 526.239779 303.243084 
M 538.742165 306.277794 
L 538.973691 305.786885 
M 548.697768 310.651348 
L 549.16082 309.937299 
L 549.392345 310.562092 
M 549.855397 310.517464 
L 550.086922 311.231513 
M 550.781499 312.302588 
L 551.013025 313.105894 
L 551.013025 313.105894 
" clip-path="url(#p4c4d8f6dae)" style="fill: none; stroke: #ff4500; stroke-linecap: square"/>
   </g>
   <g id="line2d_22">
    <path d="M 68.050492 150.882753 
L 68.513544 148.472836 
L 68.745069 148.695976 
L 68.976595 146.598456 
L 69.208121 147.000108 
L 69.439646 146.01829 
L 69.671172 148.071183 
L 69.902698 147.133993 
L 70.134223 147.000108 
L 70.365749 148.294323 
L 70.597275 143.608373 
L 70.8288 145.661265 
L 71.291852 143.697629 
L 71.754903 142.805067 
L 71.986429 141.019943 
L 72.217954 140.61829 
L 72.681006 146.01829 
L 72.912531 145.929034 
L 73.144057 149.276142 
L 73.375583 144.411679 
L 73.838634 151.239778 
L 74.07016 148.829861 
L 74.301685 149.186885 
M 74.996262 147.580274 
L 75.227788 146.01829 
L 75.459314 146.241431 
M 76.153891 149.32077 
L 76.385416 150.882753 
L 76.616942 151.239778 
L 76.848468 156.773662 
L 77.079993 155.791844 
L 77.311519 156.372009 
L 77.543045 156.238125 
L 77.77457 157.53234 
L 78.006096 160.34391 
L 78.237621 155.8811 
L 78.469147 154.631513 
L 79.163724 158.960439 
L 79.626775 155.211679 
L 79.858301 154.542257 
L 80.089827 152.712505 
L 80.552878 162.262918 
L 80.784404 158.960439 
L 81.015929 159.495976 
L 81.478981 154.497629 
L 81.710506 157.621596 
L 81.942032 152.712505 
L 82.173558 155.256307 
L 82.405083 156.014985 
L 82.636609 156.104241 
L 82.868135 157.487712 
L 83.09966 155.122423 
L 83.331186 154.319117 
L 83.562712 155.345563 
L 83.794237 153.738951 
L 84.025763 153.560439 
L 84.257289 150.659613 
L 84.488814 149.856307 
L 84.72034 155.345563 
L 84.951866 153.649695 
L 85.183391 155.970356 
L 85.414917 155.434819 
L 85.646443 153.649695 
L 85.877968 155.345563 
L 86.109494 153.248042 
M 90.508482 169.180274 
L 90.740007 171.902588 
L 90.971533 171.545563 
L 91.203059 171.724075 
L 91.434584 171.679447 
L 91.66611 170.474489 
L 91.897636 172.393497 
L 92.129161 172.214985 
L 92.360687 173.776968 
L 92.592213 174.267877 
L 92.823738 174.491018 
L 93.055264 174.357133 
L 93.28679 173.866224 
L 93.518315 171.991844 
L 93.981367 174.89267 
L 94.212892 172.348869 
L 94.444418 173.821596 
L 94.675944 173.509199 
L 94.907469 168.823249 
L 95.138995 169.403414 
L 95.370521 171.768704 
L 95.602046 168.778621 
L 95.833572 168.510852 
L 96.065098 169.938951 
L 96.296623 173.643084 
L 96.528149 174.803414 
L 96.759675 174.178621 
L 96.9912 174.401761 
L 97.222726 173.776968 
L 97.454252 176.900935 
L 97.685777 177.124075 
L 97.917303 177.972009 
L 98.148828 175.38358 
L 98.380354 174.178621 
L 98.61188 172.259613 
L 98.843405 172.259613 
L 99.074931 173.95548 
M 99.537982 174.937299 
L 99.769508 172.214985 
L 100.001034 172.839778 
L 100.232559 172.125728 
L 100.464085 169.49267 
L 100.695611 171.545563 
L 100.927136 171.590191 
L 101.158662 168.823249 
L 101.390188 169.135646 
L 101.621713 168.957133 
L 101.853239 169.894323 
L 102.084765 170.028208 
L 102.31629 167.930687 
L 102.547816 168.153827 
L 102.779342 169.314158 
M 103.705444 171.947216 
L 103.93697 176.097629 
L 104.168496 173.95548 
L 104.400021 173.776968 
L 104.631547 173.107546 
L 105.094598 174.133993 
L 105.326124 175.829861 
L 105.55765 175.963745 
L 105.789175 175.472836 
L 106.020701 175.740604 
L 106.252227 177.168704 
L 106.483752 177.124075 
L 106.946804 176.231513 
L 107.178329 174.714158 
L 107.409855 175.115811 
L 107.641381 176.677794 
L 107.872906 173.330687 
L 108.104432 173.107546 
L 108.335958 176.856307 
L 108.799009 177.391844 
L 109.030535 176.410026 
L 109.26206 173.910852 
L 109.493586 175.428208 
L 109.725112 174.044737 
L 109.956637 177.302588 
L 110.419689 173.910852 
L 110.651214 173.687712 
L 111.114266 177.034819 
L 111.577317 177.034819 
M 112.040368 180.06953 
L 112.271894 179.667877 
L 112.50342 178.239778 
L 112.734945 179.176968 
M 113.429522 176.990191 
L 113.661048 176.945563 
L 114.124099 175.38358 
L 114.355625 175.294323 
L 114.587151 172.616637 
L 114.818676 173.196803 
L 115.050202 172.527381 
M 115.976305 174.133993 
L 116.20783 169.537299 
L 116.439356 168.689365 
M 117.82851 168.466224 
L 118.060036 167.39515 
L 118.523087 160.834819 
L 118.754612 160.700935 
L 119.217664 163.86953 
L 119.680715 160.700935 
L 119.912241 160.34391 
L 120.606818 163.15548 
L 120.838343 160.165398 
L 121.069869 162.084406 
L 121.301395 160.834819 
M 121.995972 166.011679 
L 122.227497 166.234819 
L 122.459023 164.851348 
L 122.922074 160.254654 
L 123.385126 157.666224 
L 123.616651 158.157133 
L 123.848177 159.094323 
L 124.079703 159.049695 
L 124.311228 158.781927 
L 124.542754 157.175315 
L 124.77428 157.264571 
L 125.005805 159.18358 
L 125.237331 162.039778 
M 126.163434 163.333993 
L 126.394959 161.325728 
L 126.626485 158.335646 
M 127.089536 157.710852 
L 127.321062 158.69267 
L 127.552588 158.514158 
L 127.784113 157.53234 
L 128.015639 157.398456 
L 128.47869 153.203414 
L 128.710216 156.550522 
L 129.404793 157.844737 
L 129.636319 156.416637 
L 130.09937 152.266224 
L 130.330896 154.408373 
L 130.793947 152.623249 
L 131.025473 158.067877 
L 131.256998 156.59515 
L 131.488524 159.049695 
L 131.72005 157.264571 
L 131.951575 157.800108 
M 136.350563 149.276142 
L 136.582089 148.472836 
L 136.813614 150.882753 
M 137.276666 150.25796 
L 137.508191 150.079447 
L 137.971243 147.580274 
L 138.202768 147.580274 
L 138.665819 141.55548 
L 138.897345 141.733993 
L 139.128871 144.277794 
L 139.360396 143.786885 
L 139.823448 146.152175 
L 140.286499 142.49267 
L 140.74955 148.695976 
L 140.981076 151.373662 
L 141.444127 147.848042 
L 141.675653 147.66953 
L 141.907179 146.152175 
M 144.453961 146.598456 
L 144.685487 145.393497 
L 145.148538 152.846389 
L 145.380064 157.443084 
L 145.611589 156.416637 
L 145.843115 158.291018 
M 148.389897 152.667877 
L 148.621423 152.221596 
L 148.852949 152.176968 
L 149.084474 153.114158 
L 149.316 151.864571 
L 149.547526 154.140604 
L 150.242103 149.365398 
L 150.473628 145.750522 
L 150.705154 146.643084 
L 150.93668 146.152175 
M 152.325834 149.811679 
L 152.557359 149.990191 
L 152.788885 151.686059 
L 153.020411 150.838125 
L 153.251936 151.953827 
L 153.483462 152.221596 
L 153.714988 155.122423 
L 153.946513 154.586885 
L 154.178039 154.899282 
L 154.64109 159.005067 
L 154.872616 156.639778 
L 155.335667 155.122423 
L 155.567193 155.568704 
L 155.798719 153.738951 
L 156.030244 154.810026 
L 156.26177 158.737299 
L 156.493296 155.970356 
M 159.271603 146.286059 
L 159.503129 148.963745 
L 160.660757 129.461265 
L 161.123809 132.317464 
L 161.355334 136.601761 
L 161.58686 132.094323 
L 161.818386 130.219943 
L 162.049911 131.201761 
L 162.512963 134.682753 
L 162.744488 135.21829 
L 162.976014 131.067877 
L 163.20754 131.781927 
L 163.439065 132.897629 
M 165.059745 130.889365 
L 165.291271 126.828208 
L 165.522796 129.193497 
M 166.448899 125.444737 
L 166.680425 125.400108 
L 166.91195 120.580274 
L 167.143476 124.41829 
L 167.375002 123.213332 
L 167.606527 124.998456 
L 168.069579 118.259613 
L 168.301104 120.000108 
M 171.773989 104.603414 
L 172.005515 99.515811 
L 172.237041 99.694323 
L 172.468566 97.239778 
L 172.931618 95.856307 
L 173.163143 97.061265 
L 173.394669 94.071183 
M 174.552297 94.338951 
L 174.783823 95.142257 
L 175.015349 94.160439 
L 175.246874 98.35548 
M 175.709926 106.611679 
L 175.941451 107.905894 
M 176.404503 110.449695 
L 176.636028 110.449695 
L 176.867554 115.537299 
L 177.09908 114.064571 
M 178.256708 110.672836 
L 178.488234 115.314158 
L 178.951285 117.010026 
L 179.18281 118.482753 
L 179.414336 117.099282 
L 179.645862 117.456307 
L 179.877387 116.563745 
L 180.108913 123.838125 
L 180.340439 124.41829 
L 180.80349 127.497629 
L 181.035016 122.900935 
L 181.266541 125.623249 
L 181.498067 117.813332 
L 181.729593 120.044737 
L 181.961118 114.689365 
L 182.192644 117.545563 
L 182.42417 115.98358 
L 182.655695 113.61829 
L 183.118747 121.338951 
L 183.581798 124.686059 
L 183.813324 120.491018 
L 184.044849 119.95548 
L 184.276375 119.73234 
L 184.739426 114.600108 
L 184.970952 118.125728 
L 185.202478 117.545563 
L 185.434003 121.249695 
L 185.665529 120.089365 
L 185.897055 123.168704 
L 186.12858 123.391844 
L 186.360106 125.087712 
L 186.591632 125.087712 
L 186.823157 123.124075 
L 187.054683 122.142257 
L 187.286209 124.596803 
L 187.517734 125.400108 
L 187.74926 123.882753 
L 187.980786 121.428208 
L 188.212311 125.310852 
L 188.443837 122.053001 
L 188.675363 116.162092 
L 188.906888 120.624902 
L 189.138414 118.0811 
L 189.36994 117.277794 
L 189.601465 123.168704 
L 189.832991 125.043084 
L 190.064517 125.757133 
L 190.296042 122.945563 
L 190.759094 126.158786 
L 190.990619 129.461265 
L 191.685196 122.410026 
M 193.537402 118.170356 
L 193.768927 117.322423 
L 194.231979 124.864571 
L 194.463504 125.400108 
L 195.158081 132.18358 
L 195.389607 131.737299 
L 195.621133 130.889365 
L 196.084184 134.504241 
L 196.31571 133.165398 
L 196.778761 126.114158 
L 197.010287 128.836472 
L 197.241812 128.524075 
L 197.704864 134.325728 
M 198.167915 134.99515 
L 198.630966 137.672836 
L 199.325543 133.522423 
L 199.557069 127.408373 
L 199.788594 127.274489 
L 200.02012 130.53234 
L 200.251646 128.65796 
L 200.483171 128.211679 
L 200.714697 129.193497 
L 200.946223 127.319117 
L 201.177748 123.525728 
L 201.409274 127.72077 
L 201.6408 128.345563 
L 201.872325 130.978621 
L 202.103851 127.765398 
M 203.029954 123.4811 
L 203.261479 123.213332 
L 203.493005 123.927381 
L 203.724531 122.454654 
L 203.956056 121.874489 
L 204.187582 124.775315 
L 204.419108 125.489365 
L 204.650633 124.016637 
L 204.882159 120.758786 
L 205.113685 123.659613 
L 205.34521 121.919117 
M 207.197416 119.910852 
L 207.660467 138.297629 
L 207.891993 136.200108 
L 208.123518 132.138951 
L 208.355044 131.781927 
L 208.58657 135.530687 
M 211.827929 128.390191 
L 212.059455 127.185232 
L 212.754032 120.624902 
L 212.985557 124.686059 
L 213.217083 124.686059 
L 213.448609 121.160439 
L 213.680134 122.142257 
L 214.143186 118.214985 
L 214.606237 121.472836 
L 214.837763 119.866224 
L 215.069288 122.499282 
L 215.300814 120.267877 
L 215.53234 121.428208 
L 215.763865 121.294323 
L 215.995391 115.581927 
L 216.226917 115.671183 
L 216.458442 114.510852 
L 216.689968 114.33234 
L 216.921494 115.046389 
L 217.153019 113.573662 
L 217.384545 117.456307 
L 217.616071 116.742257 
L 217.847596 115.49267 
L 218.310648 123.168704 
L 218.542173 118.482753 
L 219.005224 117.456307 
L 219.23675 115.091018 
L 219.468276 117.054654 
L 219.699801 125.043084 
L 219.931327 122.499282 
L 220.162853 118.616637 
L 220.394378 117.277794 
L 220.85743 123.570356 
L 221.088955 118.304241 
L 221.320481 124.061265 
L 222.015058 117.679447 
L 222.246584 121.472836 
L 222.709635 123.124075 
L 222.941161 121.294323 
L 223.172686 121.472836 
L 223.404212 120.580274 
L 223.867263 125.578621 
L 224.098789 119.73234 
L 224.330315 119.643084 
L 224.56184 121.517464 
L 224.793366 122.186885 
L 225.024892 126.29267 
L 225.256417 126.024902 
L 225.719469 121.60672 
M 226.414046 119.776968 
L 226.645571 120.000108 
L 226.877097 119.330687 
L 227.108623 115.448042 
L 227.340148 116.072836 
L 227.571674 115.894323 
L 227.8032 116.653001 
L 228.034725 116.162092 
L 228.266251 119.419943 
L 228.497777 120.535646 
L 228.729302 120.178621 
L 229.423879 124.462918 
L 229.655405 123.704241 
L 229.886931 122.231513 
M 230.349982 118.438125 
L 230.581508 122.633166 
L 230.813033 120.357133 
M 232.202187 121.472836 
L 233.359816 100.363745 
L 233.591341 105.40672 
L 233.822867 105.808373 
L 234.054393 105.540604 
L 234.285918 107.236472 
L 234.517444 106.12077 
L 234.74897 110.628208 
L 234.980495 110.405067 
L 235.212021 107.99515 
L 235.443547 107.727381 
L 235.675072 106.879447 
L 235.906598 107.370356 
L 236.832701 96.436472 
M 239.842534 100.274489 
L 240.07406 97.686059 
L 240.305585 93.491018 
L 240.768637 95.365398 
L 241.000162 95.410026 
L 241.231688 93.66953 
L 241.463214 94.160439 
L 241.694739 95.633166 
L 241.926265 92.643084 
L 242.389316 90.277794 
M 242.852368 91.170356 
L 243.083893 96.927381 
L 243.315419 94.963745 
L 243.546945 94.60672 
L 243.77847 92.152175 
L 244.009996 93.937299 
L 244.241522 92.553827 
L 244.473047 94.249695 
L 244.704573 94.160439 
L 245.167624 91.036472 
L 245.39915 90.902588 
L 245.630676 96.168704 
M 246.788304 99.024902 
L 247.01983 99.024902 
L 247.714407 93.446389 
L 247.945932 92.866224 
L 248.177458 92.821596 
L 248.408984 93.491018 
L 248.872035 92.375315 
L 249.103561 92.866224 
L 249.335086 92.419943 
L 249.798138 93.044737 
M 252.34492 87.644737 
L 252.576446 86.350522 
L 252.807971 82.110852 
L 253.039497 83.226555 
L 253.502548 80.05796 
L 253.734074 75.729034 
L 253.9656 75.550522 
L 254.197125 77.424902 
L 254.428651 75.729034 
M 254.891702 75.862918 
L 255.123228 75.550522 
L 255.354754 77.558786 
L 255.586279 77.291018 
L 255.817805 79.433166 
L 256.049331 79.522423 
L 256.512382 74.8811 
L 256.743908 78.317464 
L 256.975433 77.514158 
L 257.206959 71.533993 
L 257.438485 71.043084 
L 257.901536 64.973662 
L 258.133062 69.391844 
L 258.364587 67.472836 
L 258.596113 67.919117 
L 258.827639 72.515811 
L 259.059164 68.677794 
L 259.29069 70.284406 
L 259.522215 68.410026 
L 259.985267 69.347216 
L 260.448318 70.462918 
L 260.679844 66.624902 
L 260.911369 67.026555 
L 261.142895 70.462918 
L 261.605946 72.29267 
L 262.532049 68.722423 
L 262.763575 68.900935 
L 263.226626 73.363745 
L 263.458152 73.586885 
L 263.689677 72.917464 
L 263.921203 70.819943 
L 264.152729 70.641431 
L 264.61578 77.246389 
L 265.078831 65.95548 
M 265.541883 68.097629 
L 265.773408 71.846389 
L 266.004934 72.560439 
L 266.23646 73.676142 
L 266.467985 79.656307 
L 266.699511 78.495976 
L 266.931037 80.682753 
L 267.162562 80.370356 
L 267.394088 80.950522 
L 267.857139 75.684406 
L 268.088665 76.086059 
L 268.320191 75.238125 
L 268.551716 85.324075 
L 268.783242 82.110852 
L 269.014768 85.368704 
L 269.477819 80.816637 
M 271.330024 76.309199 
L 271.793076 81.173662 
L 272.024601 83.80672 
L 272.487653 94.294323 
L 272.719178 94.60672 
L 273.413755 91.393497 
M 273.876807 92.107546 
L 274.108332 87.376968 
L 274.339858 89.92077 
L 274.802909 84.877794 
L 275.265961 85.279447 
L 275.497486 87.644737 
L 276.192063 84.922423 
L 276.423589 85.904241 
L 276.655115 84.610026 
L 276.88664 79.567051 
L 277.349692 87.867877 
L 277.581217 88.135646 
L 277.812743 89.786885 
L 278.275794 80.013332 
L 278.50732 91.661265 
L 278.738846 95.722423 
L 278.970371 95.811679 
L 279.201897 97.284406 
L 279.433422 93.044737 
L 279.664948 94.785232 
L 279.896474 94.963745 
L 280.127999 96.25796 
L 280.359525 92.776968 
L 280.591051 92.062918 
L 280.822576 94.785232 
L 281.054102 92.196803 
L 281.285628 85.725728 
L 281.517153 86.975315 
L 281.748679 94.38358 
M 282.906307 94.38358 
L 283.137833 92.643084 
L 283.369359 92.01829 
L 283.600884 89.831513 
L 283.83241 86.39515 
L 284.063936 91.259613 
L 284.295461 88.98358 
L 284.526987 84.386885 
L 284.758513 85.368704 
L 284.990038 83.985232 
L 285.221564 84.029861 
L 285.45309 83.315811 
L 285.684615 83.717464 
L 285.916141 83.762092 
L 286.147667 88.671183 
L 286.379192 84.163745 
L 286.842244 87.376968 
L 287.073769 86.39515 
L 287.305295 86.61829 
L 287.536821 83.58358 
L 287.768346 87.689365 
L 287.999872 88.715811 
L 288.231398 85.100935 
L 288.462923 86.305894 
L 288.694449 86.439778 
L 288.925975 81.084406 
L 289.389026 84.119117 
L 289.620552 82.958786 
L 289.852077 84.610026 
M 290.315129 85.279447 
L 290.546654 85.636472 
L 290.77818 86.261265 
M 293.788014 75.907546 
L 294.251065 71.533993 
L 294.482591 68.32077 
L 294.714116 67.785232 
L 295.177168 60.778621 
L 295.408693 61.715811 
L 295.640219 58.904241 
L 295.871745 62.92077 
L 296.10327 61.448042 
L 296.334796 61.938951 
L 296.566322 63.322423 
L 296.797847 61.091018 
L 297.029373 66.000108 
L 297.260899 66.133993 
L 297.492424 63.902588 
L 297.72395 63.367051 
L 297.955476 63.724075 
L 298.187001 58.368704 
L 298.418527 62.162092 
L 298.650053 59.61829 
L 298.881578 61.537299 
L 299.113104 56.405067 
L 299.576155 55.378621 
L 299.807681 53.950522 
L 300.039206 56.940604 
L 300.270732 56.271183 
L 300.502258 59.439778 
L 300.733783 60.644737 
L 300.965309 60.644737 
L 301.196835 59.841431 
L 301.659886 55.646389 
L 301.891412 56.181927 
L 302.122937 57.74391 
L 302.354463 57.476142 
L 302.585989 57.74391 
L 302.817514 55.467877 
L 303.04904 57.163745 
L 303.280566 55.646389 
L 303.512091 55.423249 
L 303.743617 55.378621 
L 303.975143 57.119117 
L 304.206668 56.315811 
L 304.438194 54.262918 
L 304.66972 54.843084 
L 304.901245 57.788538 
M 305.364297 57.565398 
L 305.595822 60.198456 
L 305.827348 58.725728 
L 306.058874 58.814985 
L 306.521925 57.163745 
L 306.984976 58.814985 
L 307.216502 60.064571 
M 309.068707 62.563745 
L 309.300233 61.537299 
L 309.531759 61.224902 
L 309.763284 56.494323 
L 309.99481 56.137299 
L 310.689387 49.353827 
L 310.920913 49.53234 
L 311.152438 50.112505 
L 311.383964 50.291018 
L 311.61549 48.773662 
L 311.847015 51.138951 
L 312.078541 51.495976 
L 312.310067 56.315811 
L 312.541592 55.735646 
M 314.393798 53.191844 
L 314.625323 52.790191 
L 315.088375 61.805067 
L 315.3199 61.805067 
L 315.551426 60.600108 
M 318.56126 54.93234 
L 318.792785 52.165398 
L 319.024311 53.772009 
M 319.950413 55.780274 
L 320.181939 54.709199 
L 320.413465 52.34391 
L 320.64499 51.585232 
L 320.876516 49.264571 
L 321.108042 50.871183 
L 321.571093 47.747216 
M 322.497196 48.104241 
L 322.960247 46.363745 
L 323.191773 48.952175 
M 323.88635 45.872836 
L 324.117875 44.846389 
L 324.349401 45.381927 
L 324.812452 43.016637 
L 325.043978 43.239778 
L 325.275504 43.909199 
L 325.507029 42.704241 
L 325.738555 44.980274 
L 325.970081 45.114158 
L 326.201606 45.828208 
L 326.664658 41.54391 
M 327.359235 46.408373 
L 327.59076 43.998456 
L 327.822286 43.150522 
L 328.285337 47.613332 
L 328.516863 48.639778 
L 328.748389 48.059613 
M 332.221274 68.945563 
L 332.684325 118.348869 
L 332.915851 100.453001 
L 333.147376 104.915811 
L 333.378902 102.416637 
M 333.841953 101.256307 
L 334.073479 101.925728 
L 334.305005 103.844737 
L 334.53653 103.576968 
L 334.768056 101.836472 
M 335.694159 103.978621 
L 335.925684 103.309199 
L 336.15721 103.443084 
L 336.620261 107.638125 
L 336.851787 107.102588 
L 337.083313 102.639778 
M 337.546364 104.157133 
L 337.77789 108.530687 
L 338.009415 110.672836 
L 338.472467 121.829861 
L 338.703992 117.010026 
L 339.398569 114.957133 
M 343.566031 158.201761 
L 343.797557 157.889365 
L 344.029082 158.424902 
L 344.492134 156.81829 
L 344.723659 156.729034 
L 344.955185 158.246389 
L 345.186711 161.459613 
L 345.418236 162.575315 
L 345.649762 159.138951 
M 348.891121 162.486059 
L 349.122647 164.985232 
L 349.354173 169.448042 
L 349.585698 167.439778 
L 349.817224 166.814985 
L 350.280275 176.945563 
L 350.743327 180.605067 
L 350.974852 186.138951 
L 351.206378 184.666224 
L 351.669429 179.043084 
L 351.900955 182.390191 
L 352.132481 178.462918 
L 352.364006 176.499282 
L 352.595532 178.239778 
M 353.058583 177.882753 
L 353.290109 173.196803 
L 353.521635 173.553827 
L 353.75316 177.25796 
L 353.984686 173.419943 
L 354.216212 172.661265 
L 354.447737 175.071183 
L 354.679263 169.581927 
L 354.910789 167.484406 
L 355.142314 173.286059 
L 355.37384 170.563745 
L 355.836891 167.484406 
L 356.068417 155.524075 
L 356.299943 159.674489 
L 356.531468 159.674489 
L 356.762994 155.613332 
L 356.99452 158.291018 
L 357.226045 162.887712 
L 357.457571 165.074489 
L 357.689097 159.853001 
L 357.920622 164.538951 
M 359.078251 163.423249 
L 359.309776 161.861265 
M 359.772828 160.299282 
L 360.004353 160.567051 
L 360.235879 158.514158 
L 360.467404 159.763745 
L 360.69893 156.862918 
L 360.930456 157.621596 
L 361.161981 154.453001 
L 361.393507 153.337299 
L 361.625033 147.937299 
M 362.31961 152.712505 
L 362.551135 153.426555 
M 364.171815 152.087712 
L 364.403341 158.781927 
L 364.634866 156.505894 
L 364.866392 157.666224 
L 365.097918 165.922423 
L 365.329443 166.725728 
L 365.560969 163.200108 
L 366.02402 163.86953 
L 366.487072 166.770356 
L 366.718597 168.376968 
L 367.181649 163.958786 
M 369.033854 168.153827 
L 369.26538 169.358786 
L 369.496905 169.448042 
L 369.728431 173.152175 
L 369.959957 170.831513 
L 370.191482 171.813332 
M 372.275213 175.919117 
L 372.506739 165.253001 
L 372.738265 168.064571 
L 372.96979 166.591844 
L 373.201316 167.261265 
L 373.432842 166.190191 
L 373.664367 166.859613 
M 374.127419 160.567051 
L 374.358944 159.629861 
L 374.59047 155.836472 
L 374.821996 155.568704 
L 375.053521 161.682753 
L 375.285047 161.99515 
L 375.516573 161.950522 
L 376.442675 168.733993 
L 376.674201 168.198456 
L 376.905727 171.85796 
L 377.137252 171.456307 
L 377.831829 157.309199 
L 378.063355 162.753827 
L 378.526406 164.538951 
L 378.757932 167.082753 
L 378.989458 167.975315 
L 379.220983 165.074489 
L 379.452509 157.844737 
L 379.684035 161.950522 
L 379.91556 160.031513 
L 380.147086 160.879447 
M 380.610137 165.833166 
L 380.841663 165.610026 
L 381.073188 162.798456 
L 381.304714 156.907546 
L 381.53624 154.854654 
L 381.767765 156.952175 
L 382.230817 157.75548 
L 382.462342 160.611679 
M 382.925394 162.173662 
L 383.388445 147.491018 
L 383.619971 146.95548 
L 383.851496 150.704241 
L 384.083022 147.000108 
L 384.314548 147.044737 
L 384.546073 153.605067 
L 384.777599 152.489365 
L 385.009125 150.391844 
L 385.24065 150.213332 
L 385.472176 151.909199 
L 385.935227 147.178621 
L 386.166753 147.848042 
L 386.398279 146.152175 
L 386.629804 148.338951 
L 386.86133 147.401761 
L 387.092856 147.981927 
L 387.555907 152.221596 
M 388.250484 151.462918 
L 388.48201 152.087712 
L 388.713535 145.170356 
L 389.176587 147.089365 
L 389.408112 142.805067 
L 389.639638 142.938951 
L 389.871164 140.127381 
L 390.334215 148.740604 
L 391.260318 138.297629 
L 391.491843 141.510852 
L 391.723369 138.788538 
M 395.196254 178.641431 
L 395.42778 209.613332 
L 395.659305 210.773662 
L 395.890831 242.593497 
M 396.353882 247.904241 
L 396.585408 252.991844 
L 396.816934 251.876142 
L 397.048459 248.350522 
L 397.279985 250.403414 
L 397.511511 244.691018 
M 399.13219 240.629861 
L 399.363716 241.700935 
L 399.595242 241.254654 
L 399.826767 240.495976 
L 400.058293 239.023249 
L 400.289818 238.487712 
M 403.762703 272.226555 
L 403.994229 278.429861 
L 404.225755 277.224902 
L 404.45728 277.537299 
L 404.688806 278.295976 
L 404.920332 319.398456 
M 409.550845 287.935646 
L 409.782371 288.917464 
M 410.476948 277.626555 
L 410.708473 275.529034 
L 410.939999 270.21829 
L 411.171525 273.029861 
L 411.634576 274.145563 
L 411.866102 277.358786 
M 412.792204 275.082753 
L 413.02373 274.859613 
L 413.255256 271.691018 
M 413.718307 270.307546 
L 413.949833 271.021596 
M 414.412884 269.727381 
L 414.64441 269.102588 
L 414.875935 270.084406 
L 415.107461 271.691018 
L 415.338987 271.646389 
L 415.570512 271.780274 
L 415.802038 270.129034 
M 416.959666 277.358786 
L 417.191192 276.421596 
L 417.422718 277.98358 
L 417.654243 274.368704 
L 418.34882 268.968704 
L 418.580346 272.80672 
L 418.811872 272.58358 
L 419.043397 271.423249 
L 419.274923 253.79515 
L 419.506449 250.938951 
L 419.737974 257.454654 
L 419.9695 259.284406 
L 420.201026 263.077794 
L 420.432551 261.29267 
M 422.284756 263.256307 
L 422.516282 260.891018 
L 422.747808 261.560439 
M 423.442385 270.441431 
L 423.67391 273.788538 
L 423.905436 275.439778 
L 424.136962 274.859613 
L 424.368487 276.198456 
L 424.600013 275.707546 
L 424.831539 280.839778 
L 425.526116 272.003414 
L 425.757641 272.048042 
L 425.989167 272.762092 
L 426.452218 280.348869 
L 426.683744 277.448042 
M 427.378321 273.163745 
L 427.609847 264.193497 
L 427.841372 263.211679 
L 428.304424 268.567051 
L 428.767475 275.39515 
L 428.999001 275.172009 
L 429.230526 274.324075 
L 429.693578 271.378621 
L 429.925103 265.175315 
L 430.156629 251.608373 
L 430.388155 254.330687 
M 430.851206 260.400108 
L 431.082732 259.864571 
M 433.397988 265.53234 
L 433.629514 270.21829 
L 433.86104 277.626555 
L 434.324091 274.45796 
L 434.555617 274.413332 
L 434.787142 277.403414 
L 435.018668 278.028208 
L 435.250194 272.494323 
L 435.481719 272.494323 
L 435.713245 274.904241 
M 439.649181 309.178621 
L 440.112233 302.127381 
L 440.575284 307.527381 
L 440.806809 304.135646 
L 441.269861 308.509199 
L 441.501386 310.249695 
L 441.732912 310.160439 
L 442.195963 309.089365 
L 442.427489 309.66953 
L 442.659015 311.32077 
L 442.89054 306.85796 
L 443.353592 309.133993 
L 443.585117 311.722423 
L 443.816643 306.902588 
L 444.048169 307.661265 
L 444.279694 306.991844 
L 444.742746 302.350522 
M 445.205797 305.295976 
L 445.437323 308.01829 
L 445.668848 308.73234 
L 445.900374 309.044737 
L 446.1319 311.633166 
L 446.594951 312.614985 
L 446.826477 316.810026 
L 447.058002 314.176968 
M 448.215631 322.031513 
L 448.447156 321.005067 
L 448.678682 322.567051 
L 448.910208 322.388538 
L 449.141733 321.629861 
L 449.604785 322.165398 
L 449.83631 320.915811 
L 450.067836 320.648042 
L 450.299362 320.201761 
L 450.530887 324.664571 
L 450.762413 334.482753 
M 451.225464 334.348869 
L 451.45699 329.39515 
L 451.688516 329.261265 
L 451.920041 328.100935 
L 452.383093 321.094323 
L 452.846144 329.930687 
L 453.07767 327.877794 
M 455.624452 323.772009 
L 456.087503 323.102588 
L 456.319029 323.504241 
L 456.550555 321.719117 
L 457.245132 313.150522 
L 457.476657 313.730687 
L 457.939709 301.814985 
L 458.171234 302.61829 
L 458.634286 306.634819 
L 458.865811 313.641431 
L 459.097337 308.107546 
M 459.560388 308.062918 
L 459.791914 307.750522 
L 460.02344 307.973662 
L 460.254965 307.929034 
L 460.486491 308.330687 
M 464.885478 293.112505 
L 465.117004 294.138951 
L 465.34853 290.077794 
L 465.580055 289.631513 
L 465.811581 290.256307 
L 466.043107 288.917464 
L 466.274632 279.724075 
L 466.506158 282.044737 
L 466.737684 281.419943 
L 466.969209 281.643084 
L 467.200735 279.367051 
M 467.895312 281.509199 
L 468.126838 282.000108 
L 468.358363 284.499282 
M 471.136671 289.274489 
L 471.368197 289.497629 
L 471.599723 293.112505 
L 471.831248 300.476142 
L 472.062774 294.763745 
L 472.2943 303.064571 
L 472.525825 316.363745 
L 472.757351 311.231513 
L 472.988877 316.854654 
L 473.220402 315.649695 
L 473.451928 324.352175 
L 473.683454 321.495976 
M 474.609556 315.515811 
L 474.841082 313.105894 
L 475.072608 313.953827 
L 475.304133 313.641431 
L 475.767185 319.219943 
L 475.99871 319.844737 
L 476.230236 321.40672 
L 476.461762 318.59515 
L 476.693287 318.550522 
L 476.924813 308.152175 
L 477.156339 303.287712 
L 477.387864 305.028208 
L 477.61939 303.421596 
L 477.850916 306.322423 
L 478.082441 307.125728 
L 478.313967 305.876142 
L 478.777018 308.419943 
L 479.008544 307.705894 
L 479.24007 307.705894 
L 479.471595 309.446389 
L 479.703121 310.026555 
L 479.934647 308.062918 
L 480.166172 309.89267 
L 480.397698 309.312505 
L 480.629224 311.54391 
L 481.092275 304.091018 
L 481.555326 307.0811 
L 481.786852 305.072836 
L 482.018377 306.367051 
L 482.481429 307.214985 
L 482.712954 307.259613 
L 482.94448 306.233166 
L 483.176006 302.038125 
L 483.407531 303.867877 
L 483.639057 303.243084 
L 484.102108 304.581927 
L 484.333634 307.348869 
L 484.56516 308.01829 
L 484.796685 304.671183 
L 485.028211 303.867877 
M 488.501096 311.186885 
L 488.732622 312.302588 
L 488.964147 312.570356 
L 489.427199 313.373662 
L 489.658724 316.051348 
L 489.89025 316.363745 
L 490.121776 317.211679 
L 490.353301 316.497629 
L 490.584827 314.623249 
L 491.047878 316.810026 
L 491.51093 318.461265 
L 491.742455 316.229861 
L 491.973981 316.363745 
L 492.205507 315.024902 
L 492.668558 316.542257 
L 493.131609 315.158786 
L 493.363135 314.444737 
L 493.594661 314.400108 
L 493.826186 314.533993 
L 494.057712 315.024902 
L 494.289238 316.408373 
L 494.520763 316.899282 
L 494.752289 315.738951 
L 495.21534 315.06953 
L 495.446866 316.185232 
L 495.678392 316.453001 
L 495.909917 317.167051 
L 496.141443 316.185232 
L 496.372969 316.185232 
L 496.604494 316.051348 
L 496.83602 316.229861 
L 497.067546 315.381927 
L 497.299071 313.864571 
L 497.762123 315.872836 
L 497.993648 315.024902 
L 498.225174 315.605067 
L 498.4567 316.94391 
L 498.688225 316.274489 
L 498.919751 316.051348 
L 499.151277 316.140604 
M 499.614328 315.872836 
L 499.845854 316.051348 
L 500.077379 315.471183 
M 500.540431 315.426555 
L 500.771956 315.917464 
L 501.235007 315.649695 
L 501.698059 316.631513 
L 501.929584 316.363745 
L 502.16111 313.775315 
L 502.392636 313.150522 
L 502.855687 313.150522 
L 503.318738 313.819943 
L 503.550264 312.838125 
L 503.78179 313.953827 
L 504.244841 312.168704 
M 505.170944 312.927381 
L 505.633995 312.436472 
L 506.328572 309.624902 
M 507.023149 310.740604 
L 507.254675 310.517464 
L 507.4862 309.89267 
L 507.717726 309.803414 
L 507.949252 308.509199 
L 508.180777 308.062918 
L 508.643829 311.142257 
L 508.875354 311.053001 
M 512.348239 305.92077 
L 512.811291 304.49267 
L 513.042816 300.342257 
L 513.274342 301.948869 
M 513.968919 299.58358 
L 514.200445 300.386885 
L 514.43197 299.985232 
L 514.895022 300.163745 
L 515.126547 300.877794 
L 515.358073 300.565398 
L 515.589599 301.056307 
L 515.821124 300.877794 
L 516.05265 301.814985 
L 516.284176 301.502588 
L 516.515701 303.153827 
L 516.978753 303.912505 
L 517.210278 302.350522 
L 517.441804 302.975315 
L 517.67333 302.172009 
L 517.904855 302.038125 
L 518.136381 302.082753 
L 518.367907 301.279447 
L 518.599432 300.967051 
L 519.062484 301.814985 
L 519.294009 303.421596 
L 519.525535 301.725728 
L 519.757061 301.190191 
L 519.988586 302.305894 
M 520.683163 301.859613 
L 521.146214 302.305894 
L 521.37774 302.439778 
L 521.609266 302.796803 
L 521.840791 304.001761 
L 522.072317 302.172009 
L 522.303843 303.109199 
L 522.535368 302.172009 
L 522.99842 304.49267 
L 523.461471 307.438125 
L 523.692997 308.643084 
L 523.924522 305.20672 
L 524.156048 305.786885 
L 524.387574 305.519117 
L 524.850625 303.376968 
M 525.545202 303.733993 
L 525.776728 304.314158 
M 526.471305 304.135646 
L 526.70283 304.135646 
L 526.934356 304.537299 
L 527.165882 304.314158 
L 527.397407 304.849695 
L 527.860459 306.679447 
L 528.091984 305.876142 
M 528.555036 309.89267 
L 528.786561 307.839778 
L 529.481138 308.910852 
L 529.712664 308.375315 
L 530.175715 306.188538 
L 530.407241 305.653001 
L 530.638767 305.697629 
L 530.870292 305.429861 
L 531.101818 303.912505 
L 531.333344 303.823249 
L 531.564869 304.046389 
L 531.796395 306.367051 
L 532.027921 306.545563 
L 532.490972 308.062918 
L 532.722498 306.322423 
L 532.954023 303.733993 
L 533.185549 302.930687 
L 533.417075 305.429861 
L 533.6486 305.519117 
L 533.880126 304.537299 
L 534.111652 305.474489 
L 534.343177 304.760439 
L 534.574703 305.742257 
L 535.037754 306.411679 
M 535.500806 305.117464 
L 535.732331 304.760439 
L 536.195383 303.823249 
L 536.658434 306.813332 
L 536.88996 306.813332 
L 537.121485 307.036472 
L 537.353011 307.750522 
L 537.584537 307.839778 
L 538.047588 309.312505 
L 538.279114 308.643084 
L 538.510639 308.643084 
M 540.131319 308.241431 
L 540.362845 308.196803 
L 540.59437 310.071183 
L 541.057422 308.553827 
L 541.288947 308.375315 
L 541.520473 308.73234 
L 541.983524 310.38358 
L 542.21505 310.919117 
L 542.446575 309.580274 
L 542.678101 311.900935 
L 542.909627 312.034819 
L 543.141152 312.525728 
L 543.372678 311.54391 
L 543.604204 311.499282 
L 543.835729 311.142257 
L 544.067255 310.249695 
L 544.530306 310.829861 
L 544.761832 311.142257 
L 544.993358 310.919117 
L 545.224883 309.981927 
L 545.456409 309.937299 
L 545.687935 309.267877 
L 545.91946 309.803414 
L 546.150986 311.142257 
L 546.382512 311.142257 
L 546.614037 311.276142 
L 546.845563 311.008373 
L 547.077089 311.677794 
L 547.54014 312.168704 
L 547.771666 311.410026 
M 548.234717 311.722423 
L 548.466243 311.410026 
M 550.318448 312.213332 
L 550.549974 312.525728 
M 551.244551 315.694323 
L 551.476076 314.757133 
L 551.707602 314.444737 
L 552.170653 315.649695 
L 552.402179 317.747216 
L 552.86523 315.962092 
L 553.096756 316.274489 
L 553.328282 317.568704 
L 553.559807 316.854654 
L 553.791333 316.676142 
L 554.254384 319.800108 
L 554.48591 318.729034 
L 554.717436 318.282753 
L 554.948961 315.738951 
L 555.180487 314.667877 
L 555.643538 316.095976 
L 555.875064 315.872836 
L 556.338115 316.095976 
L 556.569641 316.94391 
L 556.801167 315.381927 
M 557.264218 315.515811 
L 557.495744 315.471183 
L 557.727269 316.095976 
L 557.958795 316.095976 
L 558.190321 316.586885 
L 558.421846 315.872836 
L 558.884898 315.381927 
L 559.116423 315.962092 
L 559.347949 314.757133 
L 559.579475 315.203414 
L 559.811 315.024902 
L 560.042526 315.248042 
L 560.274052 312.927381 
L 560.505577 313.061265 
L 560.737103 312.793497 
L 560.968629 313.552175 
L 561.200154 312.882753 
M 561.663205 313.105894 
L 562.126257 312.302588 
L 562.357782 312.436472 
L 562.589308 312.302588 
L 562.820834 313.329034 
M 564.209988 311.32077 
L 564.673039 309.000108 
M 565.367616 309.937299 
L 565.599142 308.73234 
L 565.830667 306.813332 
L 566.062193 307.705894 
L 566.293719 306.902588 
L 566.525244 305.429861 
L 566.75677 304.805067 
L 566.988296 303.689365 
L 567.219821 304.760439 
M 567.682873 305.117464 
L 567.914398 304.671183 
L 568.145924 305.028208 
M 568.608975 306.188538 
L 568.840501 304.715811 
L 569.303552 304.805067 
L 569.535078 304.98358 
L 569.766604 302.439778 
L 569.998129 301.45796 
L 570.229655 301.6811 
L 570.461181 302.082753 
L 570.692706 301.547216 
L 570.924232 301.814985 
L 571.155758 301.145563 
L 571.387283 302.796803 
L 571.618809 301.547216 
L 571.850335 302.172009 
L 572.313386 301.190191 
L 572.544912 302.172009 
L 572.776437 301.547216 
L 573.007963 303.778621 
L 573.239489 304.358786 
L 573.239489 304.358786 
" clip-path="url(#p4c4d8f6dae)" style="fill: none; stroke: #1e90ff; stroke-linecap: square"/>
   </g>
   <g id="patch_3">
    <path d="M 40.603125 354.958125 
L 40.603125 22.318125 
" style="fill: none; stroke: #000000; stroke-width: 0.8; stroke-linejoin: miter; stroke-linecap: square"/>
   </g>
   <g id="patch_4">
    <path d="M 598.603125 354.958125 
L 598.603125 22.318125 
" style="fill: none; stroke: #000000; stroke-width: 0.8; stroke-linejoin: miter; stroke-linecap: square"/>
   </g>
   <g id="patch_5">
    <path d="M 40.603125 354.958125 
L 598.603125 354.958125 
" style="fill: none; stroke: #000000; stroke-width: 0.8; stroke-linejoin: miter; stroke-linecap: square"/>
   </g>
   <g id="patch_6">
    <path d="M 40.603125 22.318125 
L 598.603125 22.318125 
" style="fill: none; stroke: #000000; stroke-width: 0.8; stroke-linejoin: miter; stroke-linecap: square"/>
   </g>
   <g id="text_15">
    <!-- PCG, Relative Strength Index (RSI), PCG -->
    <g transform="translate(200.244375 16.318125)scale(0.12 -0.12)">
     <defs>
      <path id="DejaVuSans-43" d="M 4122 4306 
L 4122 3641 
Q 3803 3938 3442 4084 
Q 3081 4231 2675 4231 
Q 1875 4231 1450 3742 
Q 1025 3253 1025 2328 
Q 1025 1406 1450 917 
Q 1875 428 2675 428 
Q 3081 428 3442 575 
Q 3803 722 4122 1019 
L 4122 359 
Q 3791 134 3420 21 
Q 3050 -91 2638 -91 
Q 1578 -91 968 557 
Q 359 1206 359 2328 
Q 359 3453 968 4101 
Q 1578 4750 2638 4750 
Q 3056 4750 3426 4639 
Q 3797 4528 4122 4306 
z
" transform="scale(0.015625)"/>
      <path id="DejaVuSans-47" d="M 3809 666 
L 3809 1919 
L 2778 1919 
L 2778 2438 
L 4434 2438 
L 4434 434 
Q 4069 175 3628 42 
Q 3188 -91 2688 -91 
Q 1594 -91 976 548 
Q 359 1188 359 2328 
Q 359 3472 976 4111 
Q 1594 4750 2688 4750 
Q 3144 4750 3555 4637 
Q 3966 4525 4313 4306 
L 4313 3634 
Q 3963 3931 3569 4081 
Q 3175 4231 2741 4231 
Q 1884 4231 1454 3753 
Q 1025 3275 1025 2328 
Q 1025 1384 1454 906 
Q 1884 428 2741 428 
Q 3075 428 3337 486 
Q 3600 544 3809 666 
z
" transform="scale(0.015625)"/>
      <path id="DejaVuSans-2c" d="M 750 794 
L 1409 794 
L 1409 256 
L 897 -744 
L 494 -744 
L 750 256 
L 750 794 
z
" transform="scale(0.015625)"/>
      <path id="DejaVuSans-52" d="M 2841 2188 
Q 3044 2119 3236 1894 
Q 3428 1669 3622 1275 
L 4263 0 
L 3584 0 
L 2988 1197 
Q 2756 1666 2539 1819 
Q 2322 1972 1947 1972 
L 1259 1972 
L 1259 0 
L 628 0 
L 628 4666 
L 2053 4666 
Q 2853 4666 3247 4331 
Q 3641 3997 3641 3322 
Q 3641 2881 3436 2590 
Q 3231 2300 2841 2188 
z
M 1259 4147 
L 1259 2491 
L 2053 2491 
Q 2509 2491 2742 2702 
Q 2975 2913 2975 3322 
Q 2975 3731 2742 3939 
Q 2509 4147 2053 4147 
L 1259 4147 
z
" transform="scale(0.015625)"/>
      <path id="DejaVuSans-6c" d="M 603 4863 
L 1178 4863 
L 1178 0 
L 603 0 
L 603 4863 
z
" transform="scale(0.015625)"/>
      <path id="DejaVuSans-76" d="M 191 3500 
L 800 3500 
L 1894 563 
L 2988 3500 
L 3597 3500 
L 2284 0 
L 1503 0 
L 191 3500 
z
" transform="scale(0.015625)"/>
      <path id="DejaVuSans-6e" d="M 3513 2113 
L 3513 0 
L 2938 0 
L 2938 2094 
Q 2938 2591 2744 2837 
Q 2550 3084 2163 3084 
Q 1697 3084 1428 2787 
Q 1159 2491 1159 1978 
L 1159 0 
L 581 0 
L 581 3500 
L 1159 3500 
L 1159 2956 
Q 1366 3272 1645 3428 
Q 1925 3584 2291 3584 
Q 2894 3584 3203 3211 
Q 3513 2838 3513 2113 
z
" transform="scale(0.015625)"/>
      <path id="DejaVuSans-67" d="M 2906 1791 
Q 2906 2416 2648 2759 
Q 2391 3103 1925 3103 
Q 1463 3103 1205 2759 
Q 947 2416 947 1791 
Q 947 1169 1205 825 
Q 1463 481 1925 481 
Q 2391 481 2648 825 
Q 2906 1169 2906 1791 
z
M 3481 434 
Q 3481 -459 3084 -895 
Q 2688 -1331 1869 -1331 
Q 1566 -1331 1297 -1286 
Q 1028 -1241 775 -1147 
L 775 -588 
Q 1028 -725 1275 -790 
Q 1522 -856 1778 -856 
Q 2344 -856 2625 -561 
Q 2906 -266 2906 331 
L 2906 616 
Q 2728 306 2450 153 
Q 2172 0 1784 0 
Q 1141 0 747 490 
Q 353 981 353 1791 
Q 353 2603 747 3093 
Q 1141 3584 1784 3584 
Q 2172 3584 2450 3431 
Q 2728 3278 2906 2969 
L 2906 3500 
L 3481 3500 
L 3481 434 
z
" transform="scale(0.015625)"/>
      <path id="DejaVuSans-68" d="M 3513 2113 
L 3513 0 
L 2938 0 
L 2938 2094 
Q 2938 2591 2744 2837 
Q 2550 3084 2163 3084 
Q 1697 3084 1428 2787 
Q 1159 2491 1159 1978 
L 1159 0 
L 581 0 
L 581 4863 
L 1159 4863 
L 1159 2956 
Q 1366 3272 1645 3428 
Q 1925 3584 2291 3584 
Q 2894 3584 3203 3211 
Q 3513 2838 3513 2113 
z
" transform="scale(0.015625)"/>
      <path id="DejaVuSans-49" d="M 628 4666 
L 1259 4666 
L 1259 0 
L 628 0 
L 628 4666 
z
" transform="scale(0.015625)"/>
      <path id="DejaVuSans-64" d="M 2906 2969 
L 2906 4863 
L 3481 4863 
L 3481 0 
L 2906 0 
L 2906 525 
Q 2725 213 2448 61 
Q 2172 -91 1784 -91 
Q 1150 -91 751 415 
Q 353 922 353 1747 
Q 353 2572 751 3078 
Q 1150 3584 1784 3584 
Q 2172 3584 2448 3432 
Q 2725 3281 2906 2969 
z
M 947 1747 
Q 947 1113 1208 752 
Q 1469 391 1925 391 
Q 2381 391 2643 752 
Q 2906 1113 2906 1747 
Q 2906 2381 2643 2742 
Q 2381 3103 1925 3103 
Q 1469 3103 1208 2742 
Q 947 2381 947 1747 
z
" transform="scale(0.015625)"/>
      <path id="DejaVuSans-78" d="M 3513 3500 
L 2247 1797 
L 3578 0 
L 2900 0 
L 1881 1375 
L 863 0 
L 184 0 
L 1544 1831 
L 300 3500 
L 978 3500 
L 1906 2253 
L 2834 3500 
L 3513 3500 
z
" transform="scale(0.015625)"/>
     </defs>
     <use xlink:href="#DejaVuSans-50"/>
     <use xlink:href="#DejaVuSans-43" x="60.302734"/>
     <use xlink:href="#DejaVuSans-47" x="130.126953"/>
     <use xlink:href="#DejaVuSans-2c" x="207.617188"/>
     <use xlink:href="#DejaVuSans-20" x="239.404297"/>
     <use xlink:href="#DejaVuSans-52" x="271.191406"/>
     <use xlink:href="#DejaVuSans-65" x="336.173828"/>
     <use xlink:href="#DejaVuSans-6c" x="397.697266"/>
     <use xlink:href="#DejaVuSans-61" x="425.480469"/>
     <use xlink:href="#DejaVuSans-74" x="486.759766"/>
     <use xlink:href="#DejaVuSans-69" x="525.96875"/>
     <use xlink:href="#DejaVuSans-76" x="553.751953"/>
     <use xlink:href="#DejaVuSans-65" x="612.931641"/>
     <use xlink:href="#DejaVuSans-20" x="674.455078"/>
     <use xlink:href="#DejaVuSans-53" x="706.242188"/>
     <use xlink:href="#DejaVuSans-74" x="769.71875"/>
     <use xlink:href="#DejaVuSans-72" x="808.927734"/>
     <use xlink:href="#DejaVuSans-65" x="847.791016"/>
     <use xlink:href="#DejaVuSans-6e" x="909.314453"/>
     <use xlink:href="#DejaVuSans-67" x="972.693359"/>
     <use xlink:href="#DejaVuSans-74" x="1036.169922"/>
     <use xlink:href="#DejaVuSans-68" x="1075.378906"/>
     <use xlink:href="#DejaVuSans-20" x="1138.757812"/>
     <use xlink:href="#DejaVuSans-49" x="1170.544922"/>
     <use xlink:href="#DejaVuSans-6e" x="1200.037109"/>
     <use xlink:href="#DejaVuSans-64" x="1263.416016"/>
     <use xlink:href="#DejaVuSans-65" x="1326.892578"/>
     <use xlink:href="#DejaVuSans-78" x="1386.666016"/>
     <use xlink:href="#DejaVuSans-20" x="1445.845703"/>
     <use xlink:href="#DejaVuSans-28" x="1477.632812"/>
     <use xlink:href="#DejaVuSans-52" x="1516.646484"/>
     <use xlink:href="#DejaVuSans-53" x="1586.128906"/>
     <use xlink:href="#DejaVuSans-49" x="1649.605469"/>
     <use xlink:href="#DejaVuSans-29" x="1679.097656"/>
     <use xlink:href="#DejaVuSans-2c" x="1718.111328"/>
     <use xlink:href="#DejaVuSans-20" x="1749.898438"/>
     <use xlink:href="#DejaVuSans-50" x="1781.685547"/>
     <use xlink:href="#DejaVuSans-43" x="1841.988281"/>
     <use xlink:href="#DejaVuSans-47" x="1911.8125"/>
    </g>
   </g>
   <g id="legend_1">
    <g id="patch_7">
     <path d="M 441.69375 74.3525 
L 591.603125 74.3525 
Q 593.603125 74.3525 593.603125 72.3525 
L 593.603125 29.318125 
Q 593.603125 27.318125 591.603125 27.318125 
L 441.69375 27.318125 
Q 439.69375 27.318125 439.69375 29.318125 
L 439.69375 72.3525 
Q 439.69375 74.3525 441.69375 74.3525 
z
" style="fill: #ffffff; opacity: 0.8; stroke: #cccccc; stroke-linejoin: miter"/>
    </g>
    <g id="line2d_23">
     <path d="M 443.69375 35.416562 
L 453.69375 35.416562 
L 463.69375 35.416562 
" style="fill: none; stroke: #00ff7f; stroke-linecap: square"/>
    </g>
    <g id="text_16">
     <!-- Oversold, RSI &lt;= 30 -->
     <g transform="translate(471.69375 38.916562)scale(0.1 -0.1)">
      <defs>
       <path id="DejaVuSans-4f" d="M 2522 4238 
Q 1834 4238 1429 3725 
Q 1025 3213 1025 2328 
Q 1025 1447 1429 934 
Q 1834 422 2522 422 
Q 3209 422 3611 934 
Q 4013 1447 4013 2328 
Q 4013 3213 3611 3725 
Q 3209 4238 2522 4238 
z
M 2522 4750 
Q 3503 4750 4090 4092 
Q 4678 3434 4678 2328 
Q 4678 1225 4090 567 
Q 3503 -91 2522 -91 
Q 1538 -91 948 565 
Q 359 1222 359 2328 
Q 359 3434 948 4092 
Q 1538 4750 2522 4750 
z
" transform="scale(0.015625)"/>
       <path id="DejaVuSans-73" d="M 2834 3397 
L 2834 2853 
Q 2591 2978 2328 3040 
Q 2066 3103 1784 3103 
Q 1356 3103 1142 2972 
Q 928 2841 928 2578 
Q 928 2378 1081 2264 
Q 1234 2150 1697 2047 
L 1894 2003 
Q 2506 1872 2764 1633 
Q 3022 1394 3022 966 
Q 3022 478 2636 193 
Q 2250 -91 1575 -91 
Q 1294 -91 989 -36 
Q 684 19 347 128 
L 347 722 
Q 666 556 975 473 
Q 1284 391 1588 391 
Q 1994 391 2212 530 
Q 2431 669 2431 922 
Q 2431 1156 2273 1281 
Q 2116 1406 1581 1522 
L 1381 1569 
Q 847 1681 609 1914 
Q 372 2147 372 2553 
Q 372 3047 722 3315 
Q 1072 3584 1716 3584 
Q 2034 3584 2315 3537 
Q 2597 3491 2834 3397 
z
" transform="scale(0.015625)"/>
       <path id="DejaVuSans-6f" d="M 1959 3097 
Q 1497 3097 1228 2736 
Q 959 2375 959 1747 
Q 959 1119 1226 758 
Q 1494 397 1959 397 
Q 2419 397 2687 759 
Q 2956 1122 2956 1747 
Q 2956 2369 2687 2733 
Q 2419 3097 1959 3097 
z
M 1959 3584 
Q 2709 3584 3137 3096 
Q 3566 2609 3566 1747 
Q 3566 888 3137 398 
Q 2709 -91 1959 -91 
Q 1206 -91 779 398 
Q 353 888 353 1747 
Q 353 2609 779 3096 
Q 1206 3584 1959 3584 
z
" transform="scale(0.015625)"/>
       <path id="DejaVuSans-3c" d="M 4684 3150 
L 1459 2003 
L 4684 863 
L 4684 294 
L 678 1747 
L 678 2266 
L 4684 3719 
L 4684 3150 
z
" transform="scale(0.015625)"/>
       <path id="DejaVuSans-3d" d="M 678 2906 
L 4684 2906 
L 4684 2381 
L 678 2381 
L 678 2906 
z
M 678 1631 
L 4684 1631 
L 4684 1100 
L 678 1100 
L 678 1631 
z
" transform="scale(0.015625)"/>
      </defs>
      <use xlink:href="#DejaVuSans-4f"/>
      <use xlink:href="#DejaVuSans-76" x="78.710938"/>
      <use xlink:href="#DejaVuSans-65" x="137.890625"/>
      <use xlink:href="#DejaVuSans-72" x="199.414062"/>
      <use xlink:href="#DejaVuSans-73" x="240.527344"/>
      <use xlink:href="#DejaVuSans-6f" x="292.626953"/>
      <use xlink:href="#DejaVuSans-6c" x="353.808594"/>
      <use xlink:href="#DejaVuSans-64" x="381.591797"/>
      <use xlink:href="#DejaVuSans-2c" x="445.068359"/>
      <use xlink:href="#DejaVuSans-20" x="476.855469"/>
      <use xlink:href="#DejaVuSans-52" x="508.642578"/>
      <use xlink:href="#DejaVuSans-53" x="578.125"/>
      <use xlink:href="#DejaVuSans-49" x="641.601562"/>
      <use xlink:href="#DejaVuSans-20" x="671.09375"/>
      <use xlink:href="#DejaVuSans-3c" x="702.880859"/>
      <use xlink:href="#DejaVuSans-3d" x="786.669922"/>
      <use xlink:href="#DejaVuSans-20" x="870.458984"/>
      <use xlink:href="#DejaVuSans-33" x="902.246094"/>
      <use xlink:href="#DejaVuSans-30" x="965.869141"/>
     </g>
    </g>
    <g id="line2d_24">
     <path d="M 443.69375 50.094687 
L 453.69375 50.094687 
L 463.69375 50.094687 
" style="fill: none; stroke: #ff4500; stroke-linecap: square"/>
    </g>
    <g id="text_17">
     <!-- Overbought, RSI &gt;= 70 -->
     <g transform="translate(471.69375 53.594687)scale(0.1 -0.1)">
      <defs>
       <path id="DejaVuSans-62" d="M 3116 1747 
Q 3116 2381 2855 2742 
Q 2594 3103 2138 3103 
Q 1681 3103 1420 2742 
Q 1159 2381 1159 1747 
Q 1159 1113 1420 752 
Q 1681 391 2138 391 
Q 2594 391 2855 752 
Q 3116 1113 3116 1747 
z
M 1159 2969 
Q 1341 3281 1617 3432 
Q 1894 3584 2278 3584 
Q 2916 3584 3314 3078 
Q 3713 2572 3713 1747 
Q 3713 922 3314 415 
Q 2916 -91 2278 -91 
Q 1894 -91 1617 61 
Q 1341 213 1159 525 
L 1159 0 
L 581 0 
L 581 4863 
L 1159 4863 
L 1159 2969 
z
" transform="scale(0.015625)"/>
       <path id="DejaVuSans-75" d="M 544 1381 
L 544 3500 
L 1119 3500 
L 1119 1403 
Q 1119 906 1312 657 
Q 1506 409 1894 409 
Q 2359 409 2629 706 
Q 2900 1003 2900 1516 
L 2900 3500 
L 3475 3500 
L 3475 0 
L 2900 0 
L 2900 538 
Q 2691 219 2414 64 
Q 2138 -91 1772 -91 
Q 1169 -91 856 284 
Q 544 659 544 1381 
z
M 1991 3584 
L 1991 3584 
z
" transform="scale(0.015625)"/>
       <path id="DejaVuSans-3e" d="M 678 3150 
L 678 3719 
L 4684 2266 
L 4684 1747 
L 678 294 
L 678 863 
L 3897 2003 
L 678 3150 
z
" transform="scale(0.015625)"/>
      </defs>
      <use xlink:href="#DejaVuSans-4f"/>
      <use xlink:href="#DejaVuSans-76" x="78.710938"/>
      <use xlink:href="#DejaVuSans-65" x="137.890625"/>
      <use xlink:href="#DejaVuSans-72" x="199.414062"/>
      <use xlink:href="#DejaVuSans-62" x="240.527344"/>
      <use xlink:href="#DejaVuSans-6f" x="304.003906"/>
      <use xlink:href="#DejaVuSans-75" x="365.185547"/>
      <use xlink:href="#DejaVuSans-67" x="428.564453"/>
      <use xlink:href="#DejaVuSans-68" x="492.041016"/>
      <use xlink:href="#DejaVuSans-74" x="555.419922"/>
      <use xlink:href="#DejaVuSans-2c" x="594.628906"/>
      <use xlink:href="#DejaVuSans-20" x="626.416016"/>
      <use xlink:href="#DejaVuSans-52" x="658.203125"/>
      <use xlink:href="#DejaVuSans-53" x="727.685547"/>
      <use xlink:href="#DejaVuSans-49" x="791.162109"/>
      <use xlink:href="#DejaVuSans-20" x="820.654297"/>
      <use xlink:href="#DejaVuSans-3e" x="852.441406"/>
      <use xlink:href="#DejaVuSans-3d" x="936.230469"/>
      <use xlink:href="#DejaVuSans-20" x="1020.019531"/>
      <use xlink:href="#DejaVuSans-37" x="1051.806641"/>
      <use xlink:href="#DejaVuSans-30" x="1115.429688"/>
     </g>
    </g>
    <g id="line2d_25">
     <path d="M 443.69375 64.772812 
L 453.69375 64.772812 
L 463.69375 64.772812 
" style="fill: none; stroke: #1e90ff; stroke-linecap: square"/>
    </g>
    <g id="text_18">
     <!-- Neutral -->
     <g transform="translate(471.69375 68.272812)scale(0.1 -0.1)">
      <defs>
       <path id="DejaVuSans-4e" d="M 628 4666 
L 1478 4666 
L 3547 763 
L 3547 4666 
L 4159 4666 
L 4159 0 
L 3309 0 
L 1241 3903 
L 1241 0 
L 628 0 
L 628 4666 
z
" transform="scale(0.015625)"/>
      </defs>
      <use xlink:href="#DejaVuSans-4e"/>
      <use xlink:href="#DejaVuSans-65" x="74.804688"/>
      <use xlink:href="#DejaVuSans-75" x="136.328125"/>
      <use xlink:href="#DejaVuSans-74" x="199.707031"/>
      <use xlink:href="#DejaVuSans-72" x="238.916016"/>
      <use xlink:href="#DejaVuSans-61" x="280.029297"/>
      <use xlink:href="#DejaVuSans-6c" x="341.308594"/>
     </g>
    </g>
   </g>
  </g>
 </g>
 <defs>
  <clipPath id="p4c4d8f6dae">
   <rect x="40.603125" y="22.318125" width="558" height="332.64"/>
  </clipPath>
 </defs>
</svg>
