<?xml version="1.0" encoding="utf-8" standalone="no"?>
<!DOCTYPE svg PUBLIC "-//W3C//DTD SVG 1.1//EN"
  "http://www.w3.org/Graphics/SVG/1.1/DTD/svg11.dtd">
<svg xmlns:xlink="http://www.w3.org/1999/xlink" width="608.98125pt" height="392.514375pt" viewBox="0 0 608.98125 392.514375" xmlns="http://www.w3.org/2000/svg" version="1.1">
 <metadata>
  <rdf:RDF xmlns:dc="http://purl.org/dc/elements/1.1/" xmlns:cc="http://creativecommons.org/ns#" xmlns:rdf="http://www.w3.org/1999/02/22-rdf-syntax-ns#">
   <cc:Work>
    <dc:type rdf:resource="http://purl.org/dc/dcmitype/StillImage"/>
    <dc:date>2023-03-19T16:42:50.555204</dc:date>
    <dc:format>image/svg+xml</dc:format>
    <dc:creator>
     <cc:Agent>
      <dc:title>Matplotlib v3.5.1, https://matplotlib.org/</dc:title>
     </cc:Agent>
    </dc:creator>
   </cc:Work>
  </rdf:RDF>
 </metadata>
 <defs>
  <style type="text/css">*{stroke-linejoin: round; stroke-linecap: butt}</style>
 </defs>
 <g id="figure_1">
  <g id="patch_1">
   <path d="M 0 392.514375 
L 608.98125 392.514375 
L 608.98125 0 
L 0 0 
z
" style="fill: #ffffff"/>
  </g>
  <g id="axes_1">
   <g id="patch_2">
    <path d="M 43.78125 354.958125 
L 601.78125 354.958125 
L 601.78125 22.318125 
L 43.78125 22.318125 
z
" style="fill: #ffffff"/>
   </g>
   <g id="patch_3">
    <path d="M 82.814132 354.958125 
L 87.613474 354.958125 
L 87.613474 353.245693 
L 82.814132 353.245693 
z
" clip-path="url(#paf133bcf18)" style="fill: #1f77b4; opacity: 0.4"/>
   </g>
   <g id="patch_4">
    <path d="M 87.613474 354.958125 
L 92.412817 354.958125 
L 92.412817 354.958125 
L 87.613474 354.958125 
z
" clip-path="url(#paf133bcf18)" style="fill: #1f77b4; opacity: 0.4"/>
   </g>
   <g id="patch_5">
    <path d="M 92.412817 354.958125 
L 97.212159 354.958125 
L 97.212159 354.958125 
L 92.412817 354.958125 
z
" clip-path="url(#paf133bcf18)" style="fill: #1f77b4; opacity: 0.4"/>
   </g>
   <g id="patch_6">
    <path d="M 97.212159 354.958125 
L 102.011502 354.958125 
L 102.011502 354.958125 
L 97.212159 354.958125 
z
" clip-path="url(#paf133bcf18)" style="fill: #1f77b4; opacity: 0.4"/>
   </g>
   <g id="patch_7">
    <path d="M 102.011502 354.958125 
L 106.810844 354.958125 
L 106.810844 354.958125 
L 102.011502 354.958125 
z
" clip-path="url(#paf133bcf18)" style="fill: #1f77b4; opacity: 0.4"/>
   </g>
   <g id="patch_8">
    <path d="M 106.810844 354.958125 
L 111.610186 354.958125 
L 111.610186 354.958125 
L 106.810844 354.958125 
z
" clip-path="url(#paf133bcf18)" style="fill: #1f77b4; opacity: 0.4"/>
   </g>
   <g id="patch_9">
    <path d="M 111.610186 354.958125 
L 116.409529 354.958125 
L 116.409529 354.958125 
L 111.610186 354.958125 
z
" clip-path="url(#paf133bcf18)" style="fill: #1f77b4; opacity: 0.4"/>
   </g>
   <g id="patch_10">
    <path d="M 116.409529 354.958125 
L 121.208871 354.958125 
L 121.208871 354.958125 
L 116.409529 354.958125 
z
" clip-path="url(#paf133bcf18)" style="fill: #1f77b4; opacity: 0.4"/>
   </g>
   <g id="patch_11">
    <path d="M 121.208871 354.958125 
L 126.008213 354.958125 
L 126.008213 354.958125 
L 121.208871 354.958125 
z
" clip-path="url(#paf133bcf18)" style="fill: #1f77b4; opacity: 0.4"/>
   </g>
   <g id="patch_12">
    <path d="M 126.008213 354.958125 
L 130.807556 354.958125 
L 130.807556 354.958125 
L 126.008213 354.958125 
z
" clip-path="url(#paf133bcf18)" style="fill: #1f77b4; opacity: 0.4"/>
   </g>
   <g id="patch_13">
    <path d="M 130.807556 354.958125 
L 135.606898 354.958125 
L 135.606898 354.958125 
L 130.807556 354.958125 
z
" clip-path="url(#paf133bcf18)" style="fill: #1f77b4; opacity: 0.4"/>
   </g>
   <g id="patch_14">
    <path d="M 135.606898 354.958125 
L 140.40624 354.958125 
L 140.40624 354.958125 
L 135.606898 354.958125 
z
" clip-path="url(#paf133bcf18)" style="fill: #1f77b4; opacity: 0.4"/>
   </g>
   <g id="patch_15">
    <path d="M 140.40624 354.958125 
L 145.205583 354.958125 
L 145.205583 354.101909 
L 140.40624 354.101909 
z
" clip-path="url(#paf133bcf18)" style="fill: #1f77b4; opacity: 0.4"/>
   </g>
   <g id="patch_16">
    <path d="M 145.205583 354.958125 
L 150.004925 354.958125 
L 150.004925 354.101909 
L 145.205583 354.101909 
z
" clip-path="url(#paf133bcf18)" style="fill: #1f77b4; opacity: 0.4"/>
   </g>
   <g id="patch_17">
    <path d="M 150.004925 354.958125 
L 154.804267 354.958125 
L 154.804267 354.958125 
L 150.004925 354.958125 
z
" clip-path="url(#paf133bcf18)" style="fill: #1f77b4; opacity: 0.4"/>
   </g>
   <g id="patch_18">
    <path d="M 154.804267 354.958125 
L 159.60361 354.958125 
L 159.60361 354.958125 
L 154.804267 354.958125 
z
" clip-path="url(#paf133bcf18)" style="fill: #1f77b4; opacity: 0.4"/>
   </g>
   <g id="patch_19">
    <path d="M 159.60361 354.958125 
L 164.402952 354.958125 
L 164.402952 354.958125 
L 159.60361 354.958125 
z
" clip-path="url(#paf133bcf18)" style="fill: #1f77b4; opacity: 0.4"/>
   </g>
   <g id="patch_20">
    <path d="M 164.402952 354.958125 
L 169.202295 354.958125 
L 169.202295 354.958125 
L 164.402952 354.958125 
z
" clip-path="url(#paf133bcf18)" style="fill: #1f77b4; opacity: 0.4"/>
   </g>
   <g id="patch_21">
    <path d="M 169.202295 354.958125 
L 174.001637 354.958125 
L 174.001637 354.958125 
L 169.202295 354.958125 
z
" clip-path="url(#paf133bcf18)" style="fill: #1f77b4; opacity: 0.4"/>
   </g>
   <g id="patch_22">
    <path d="M 174.001637 354.958125 
L 178.800979 354.958125 
L 178.800979 354.101909 
L 174.001637 354.101909 
z
" clip-path="url(#paf133bcf18)" style="fill: #1f77b4; opacity: 0.4"/>
   </g>
   <g id="patch_23">
    <path d="M 178.800979 354.958125 
L 183.600322 354.958125 
L 183.600322 354.958125 
L 178.800979 354.958125 
z
" clip-path="url(#paf133bcf18)" style="fill: #1f77b4; opacity: 0.4"/>
   </g>
   <g id="patch_24">
    <path d="M 183.600322 354.958125 
L 188.399664 354.958125 
L 188.399664 354.958125 
L 183.600322 354.958125 
z
" clip-path="url(#paf133bcf18)" style="fill: #1f77b4; opacity: 0.4"/>
   </g>
   <g id="patch_25">
    <path d="M 188.399664 354.958125 
L 193.199006 354.958125 
L 193.199006 354.958125 
L 188.399664 354.958125 
z
" clip-path="url(#paf133bcf18)" style="fill: #1f77b4; opacity: 0.4"/>
   </g>
   <g id="patch_26">
    <path d="M 193.199006 354.958125 
L 197.998349 354.958125 
L 197.998349 354.958125 
L 193.199006 354.958125 
z
" clip-path="url(#paf133bcf18)" style="fill: #1f77b4; opacity: 0.4"/>
   </g>
   <g id="patch_27">
    <path d="M 197.998349 354.958125 
L 202.797691 354.958125 
L 202.797691 354.958125 
L 197.998349 354.958125 
z
" clip-path="url(#paf133bcf18)" style="fill: #1f77b4; opacity: 0.4"/>
   </g>
   <g id="patch_28">
    <path d="M 202.797691 354.958125 
L 207.597033 354.958125 
L 207.597033 354.958125 
L 202.797691 354.958125 
z
" clip-path="url(#paf133bcf18)" style="fill: #1f77b4; opacity: 0.4"/>
   </g>
   <g id="patch_29">
    <path d="M 207.597033 354.958125 
L 212.396376 354.958125 
L 212.396376 354.958125 
L 207.597033 354.958125 
z
" clip-path="url(#paf133bcf18)" style="fill: #1f77b4; opacity: 0.4"/>
   </g>
   <g id="patch_30">
    <path d="M 212.396376 354.958125 
L 217.195718 354.958125 
L 217.195718 354.958125 
L 212.396376 354.958125 
z
" clip-path="url(#paf133bcf18)" style="fill: #1f77b4; opacity: 0.4"/>
   </g>
   <g id="patch_31">
    <path d="M 217.195718 354.958125 
L 221.99506 354.958125 
L 221.99506 354.958125 
L 217.195718 354.958125 
z
" clip-path="url(#paf133bcf18)" style="fill: #1f77b4; opacity: 0.4"/>
   </g>
   <g id="patch_32">
    <path d="M 221.99506 354.958125 
L 226.794403 354.958125 
L 226.794403 354.958125 
L 221.99506 354.958125 
z
" clip-path="url(#paf133bcf18)" style="fill: #1f77b4; opacity: 0.4"/>
   </g>
   <g id="patch_33">
    <path d="M 226.794403 354.958125 
L 231.593745 354.958125 
L 231.593745 354.958125 
L 226.794403 354.958125 
z
" clip-path="url(#paf133bcf18)" style="fill: #1f77b4; opacity: 0.4"/>
   </g>
   <g id="patch_34">
    <path d="M 231.593745 354.958125 
L 236.393088 354.958125 
L 236.393088 354.958125 
L 231.593745 354.958125 
z
" clip-path="url(#paf133bcf18)" style="fill: #1f77b4; opacity: 0.4"/>
   </g>
   <g id="patch_35">
    <path d="M 236.393088 354.958125 
L 241.19243 354.958125 
L 241.19243 354.958125 
L 236.393088 354.958125 
z
" clip-path="url(#paf133bcf18)" style="fill: #1f77b4; opacity: 0.4"/>
   </g>
   <g id="patch_36">
    <path d="M 241.19243 354.958125 
L 245.991772 354.958125 
L 245.991772 354.101909 
L 241.19243 354.101909 
z
" clip-path="url(#paf133bcf18)" style="fill: #1f77b4; opacity: 0.4"/>
   </g>
   <g id="patch_37">
    <path d="M 245.991772 354.958125 
L 250.791115 354.958125 
L 250.791115 354.958125 
L 245.991772 354.958125 
z
" clip-path="url(#paf133bcf18)" style="fill: #1f77b4; opacity: 0.4"/>
   </g>
   <g id="patch_38">
    <path d="M 250.791115 354.958125 
L 255.590457 354.958125 
L 255.590457 354.101909 
L 250.791115 354.101909 
z
" clip-path="url(#paf133bcf18)" style="fill: #1f77b4; opacity: 0.4"/>
   </g>
   <g id="patch_39">
    <path d="M 255.590457 354.958125 
L 260.389799 354.958125 
L 260.389799 352.389476 
L 255.590457 352.389476 
z
" clip-path="url(#paf133bcf18)" style="fill: #1f77b4; opacity: 0.4"/>
   </g>
   <g id="patch_40">
    <path d="M 260.389799 354.958125 
L 265.189142 354.958125 
L 265.189142 350.677044 
L 260.389799 350.677044 
z
" clip-path="url(#paf133bcf18)" style="fill: #1f77b4; opacity: 0.4"/>
   </g>
   <g id="patch_41">
    <path d="M 265.189142 354.958125 
L 269.988484 354.958125 
L 269.988484 350.677044 
L 265.189142 350.677044 
z
" clip-path="url(#paf133bcf18)" style="fill: #1f77b4; opacity: 0.4"/>
   </g>
   <g id="patch_42">
    <path d="M 269.988484 354.958125 
L 274.787826 354.958125 
L 274.787826 348.964611 
L 269.988484 348.964611 
z
" clip-path="url(#paf133bcf18)" style="fill: #1f77b4; opacity: 0.4"/>
   </g>
   <g id="patch_43">
    <path d="M 274.787826 354.958125 
L 279.587169 354.958125 
L 279.587169 341.258666 
L 274.787826 341.258666 
z
" clip-path="url(#paf133bcf18)" style="fill: #1f77b4; opacity: 0.4"/>
   </g>
   <g id="patch_44">
    <path d="M 279.587169 354.958125 
L 284.386511 354.958125 
L 284.386511 339.546233 
L 279.587169 339.546233 
z
" clip-path="url(#paf133bcf18)" style="fill: #1f77b4; opacity: 0.4"/>
   </g>
   <g id="patch_45">
    <path d="M 284.386511 354.958125 
L 289.185853 354.958125 
L 289.185853 336.977584 
L 284.386511 336.977584 
z
" clip-path="url(#paf133bcf18)" style="fill: #1f77b4; opacity: 0.4"/>
   </g>
   <g id="patch_46">
    <path d="M 289.185853 354.958125 
L 293.985196 354.958125 
L 293.985196 319.85326 
L 289.185853 319.85326 
z
" clip-path="url(#paf133bcf18)" style="fill: #1f77b4; opacity: 0.4"/>
   </g>
   <g id="patch_47">
    <path d="M 293.985196 354.958125 
L 298.784538 354.958125 
L 298.784538 309.578666 
L 293.985196 309.578666 
z
" clip-path="url(#paf133bcf18)" style="fill: #1f77b4; opacity: 0.4"/>
   </g>
   <g id="patch_48">
    <path d="M 298.784538 354.958125 
L 303.583881 354.958125 
L 303.583881 313.00353 
L 298.784538 313.00353 
z
" clip-path="url(#paf133bcf18)" style="fill: #1f77b4; opacity: 0.4"/>
   </g>
   <g id="patch_49">
    <path d="M 303.583881 354.958125 
L 308.383223 354.958125 
L 308.383223 275.330017 
L 303.583881 275.330017 
z
" clip-path="url(#paf133bcf18)" style="fill: #1f77b4; opacity: 0.4"/>
   </g>
   <g id="patch_50">
    <path d="M 308.383223 354.958125 
L 313.182565 354.958125 
L 313.182565 231.66299 
L 308.383223 231.66299 
z
" clip-path="url(#paf133bcf18)" style="fill: #1f77b4; opacity: 0.4"/>
   </g>
   <g id="patch_51">
    <path d="M 313.182565 354.958125 
L 317.981908 354.958125 
L 317.981908 218.819747 
L 313.182565 218.819747 
z
" clip-path="url(#paf133bcf18)" style="fill: #1f77b4; opacity: 0.4"/>
   </g>
   <g id="patch_52">
    <path d="M 317.981908 354.958125 
L 322.78125 354.958125 
L 322.78125 123.779747 
L 317.981908 123.779747 
z
" clip-path="url(#paf133bcf18)" style="fill: #1f77b4; opacity: 0.4"/>
   </g>
   <g id="patch_53">
    <path d="M 322.78125 354.958125 
L 327.580592 354.958125 
L 327.580592 38.158125 
L 322.78125 38.158125 
z
" clip-path="url(#paf133bcf18)" style="fill: #1f77b4; opacity: 0.4"/>
   </g>
   <g id="patch_54">
    <path d="M 327.580592 354.958125 
L 332.379935 354.958125 
L 332.379935 75.831639 
L 327.580592 75.831639 
z
" clip-path="url(#paf133bcf18)" style="fill: #1f77b4; opacity: 0.4"/>
   </g>
   <g id="patch_55">
    <path d="M 332.379935 354.958125 
L 337.179277 354.958125 
L 337.179277 120.354882 
L 332.379935 120.354882 
z
" clip-path="url(#paf133bcf18)" style="fill: #1f77b4; opacity: 0.4"/>
   </g>
   <g id="patch_56">
    <path d="M 337.179277 354.958125 
L 341.978619 354.958125 
L 341.978619 183.714882 
L 337.179277 183.714882 
z
" clip-path="url(#paf133bcf18)" style="fill: #1f77b4; opacity: 0.4"/>
   </g>
   <g id="patch_57">
    <path d="M 341.978619 354.958125 
L 346.777962 354.958125 
L 346.777962 241.937584 
L 341.978619 241.937584 
z
" clip-path="url(#paf133bcf18)" style="fill: #1f77b4; opacity: 0.4"/>
   </g>
   <g id="patch_58">
    <path d="M 346.777962 354.958125 
L 351.577304 354.958125 
L 351.577304 268.480287 
L 346.777962 268.480287 
z
" clip-path="url(#paf133bcf18)" style="fill: #1f77b4; opacity: 0.4"/>
   </g>
   <g id="patch_59">
    <path d="M 351.577304 354.958125 
L 356.376647 354.958125 
L 356.376647 295.879206 
L 351.577304 295.879206 
z
" clip-path="url(#paf133bcf18)" style="fill: #1f77b4; opacity: 0.4"/>
   </g>
   <g id="patch_60">
    <path d="M 356.376647 354.958125 
L 361.175989 354.958125 
L 361.175989 313.00353 
L 356.376647 313.00353 
z
" clip-path="url(#paf133bcf18)" style="fill: #1f77b4; opacity: 0.4"/>
   </g>
   <g id="patch_61">
    <path d="M 361.175989 354.958125 
L 365.975331 354.958125 
L 365.975331 321.565693 
L 361.175989 321.565693 
z
" clip-path="url(#paf133bcf18)" style="fill: #1f77b4; opacity: 0.4"/>
   </g>
   <g id="patch_62">
    <path d="M 365.975331 354.958125 
L 370.774674 354.958125 
L 370.774674 330.984071 
L 365.975331 330.984071 
z
" clip-path="url(#paf133bcf18)" style="fill: #1f77b4; opacity: 0.4"/>
   </g>
   <g id="patch_63">
    <path d="M 370.774674 354.958125 
L 375.574016 354.958125 
L 375.574016 343.827314 
L 370.774674 343.827314 
z
" clip-path="url(#paf133bcf18)" style="fill: #1f77b4; opacity: 0.4"/>
   </g>
   <g id="patch_64">
    <path d="M 375.574016 354.958125 
L 380.373358 354.958125 
L 380.373358 353.245693 
L 375.574016 353.245693 
z
" clip-path="url(#paf133bcf18)" style="fill: #1f77b4; opacity: 0.4"/>
   </g>
   <g id="patch_65">
    <path d="M 380.373358 354.958125 
L 385.172701 354.958125 
L 385.172701 346.395963 
L 380.373358 346.395963 
z
" clip-path="url(#paf133bcf18)" style="fill: #1f77b4; opacity: 0.4"/>
   </g>
   <g id="patch_66">
    <path d="M 385.172701 354.958125 
L 389.972043 354.958125 
L 389.972043 351.53326 
L 385.172701 351.53326 
z
" clip-path="url(#paf133bcf18)" style="fill: #1f77b4; opacity: 0.4"/>
   </g>
   <g id="patch_67">
    <path d="M 389.972043 354.958125 
L 394.771385 354.958125 
L 394.771385 354.101909 
L 389.972043 354.101909 
z
" clip-path="url(#paf133bcf18)" style="fill: #1f77b4; opacity: 0.4"/>
   </g>
   <g id="patch_68">
    <path d="M 394.771385 354.958125 
L 399.570728 354.958125 
L 399.570728 354.958125 
L 394.771385 354.958125 
z
" clip-path="url(#paf133bcf18)" style="fill: #1f77b4; opacity: 0.4"/>
   </g>
   <g id="patch_69">
    <path d="M 399.570728 354.958125 
L 404.37007 354.958125 
L 404.37007 354.101909 
L 399.570728 354.101909 
z
" clip-path="url(#paf133bcf18)" style="fill: #1f77b4; opacity: 0.4"/>
   </g>
   <g id="patch_70">
    <path d="M 404.37007 354.958125 
L 409.169412 354.958125 
L 409.169412 353.245693 
L 404.37007 353.245693 
z
" clip-path="url(#paf133bcf18)" style="fill: #1f77b4; opacity: 0.4"/>
   </g>
   <g id="patch_71">
    <path d="M 409.169412 354.958125 
L 413.968755 354.958125 
L 413.968755 354.101909 
L 409.169412 354.101909 
z
" clip-path="url(#paf133bcf18)" style="fill: #1f77b4; opacity: 0.4"/>
   </g>
   <g id="patch_72">
    <path d="M 413.968755 354.958125 
L 418.768097 354.958125 
L 418.768097 354.958125 
L 413.968755 354.958125 
z
" clip-path="url(#paf133bcf18)" style="fill: #1f77b4; opacity: 0.4"/>
   </g>
   <g id="patch_73">
    <path d="M 418.768097 354.958125 
L 423.56744 354.958125 
L 423.56744 354.101909 
L 418.768097 354.101909 
z
" clip-path="url(#paf133bcf18)" style="fill: #1f77b4; opacity: 0.4"/>
   </g>
   <g id="patch_74">
    <path d="M 423.56744 354.958125 
L 428.366782 354.958125 
L 428.366782 353.245693 
L 423.56744 353.245693 
z
" clip-path="url(#paf133bcf18)" style="fill: #1f77b4; opacity: 0.4"/>
   </g>
   <g id="patch_75">
    <path d="M 428.366782 354.958125 
L 433.166124 354.958125 
L 433.166124 354.958125 
L 428.366782 354.958125 
z
" clip-path="url(#paf133bcf18)" style="fill: #1f77b4; opacity: 0.4"/>
   </g>
   <g id="patch_76">
    <path d="M 433.166124 354.958125 
L 437.965467 354.958125 
L 437.965467 354.958125 
L 433.166124 354.958125 
z
" clip-path="url(#paf133bcf18)" style="fill: #1f77b4; opacity: 0.4"/>
   </g>
   <g id="patch_77">
    <path d="M 437.965467 354.958125 
L 442.764809 354.958125 
L 442.764809 354.958125 
L 437.965467 354.958125 
z
" clip-path="url(#paf133bcf18)" style="fill: #1f77b4; opacity: 0.4"/>
   </g>
   <g id="patch_78">
    <path d="M 442.764809 354.958125 
L 447.564151 354.958125 
L 447.564151 354.958125 
L 442.764809 354.958125 
z
" clip-path="url(#paf133bcf18)" style="fill: #1f77b4; opacity: 0.4"/>
   </g>
   <g id="patch_79">
    <path d="M 447.564151 354.958125 
L 452.363494 354.958125 
L 452.363494 354.958125 
L 447.564151 354.958125 
z
" clip-path="url(#paf133bcf18)" style="fill: #1f77b4; opacity: 0.4"/>
   </g>
   <g id="patch_80">
    <path d="M 452.363494 354.958125 
L 457.162836 354.958125 
L 457.162836 354.958125 
L 452.363494 354.958125 
z
" clip-path="url(#paf133bcf18)" style="fill: #1f77b4; opacity: 0.4"/>
   </g>
   <g id="patch_81">
    <path d="M 457.162836 354.958125 
L 461.962178 354.958125 
L 461.962178 354.958125 
L 457.162836 354.958125 
z
" clip-path="url(#paf133bcf18)" style="fill: #1f77b4; opacity: 0.4"/>
   </g>
   <g id="patch_82">
    <path d="M 461.962178 354.958125 
L 466.761521 354.958125 
L 466.761521 354.958125 
L 461.962178 354.958125 
z
" clip-path="url(#paf133bcf18)" style="fill: #1f77b4; opacity: 0.4"/>
   </g>
   <g id="patch_83">
    <path d="M 466.761521 354.958125 
L 471.560863 354.958125 
L 471.560863 354.958125 
L 466.761521 354.958125 
z
" clip-path="url(#paf133bcf18)" style="fill: #1f77b4; opacity: 0.4"/>
   </g>
   <g id="patch_84">
    <path d="M 471.560863 354.958125 
L 476.360205 354.958125 
L 476.360205 354.958125 
L 471.560863 354.958125 
z
" clip-path="url(#paf133bcf18)" style="fill: #1f77b4; opacity: 0.4"/>
   </g>
   <g id="patch_85">
    <path d="M 476.360205 354.958125 
L 481.159548 354.958125 
L 481.159548 354.101909 
L 476.360205 354.101909 
z
" clip-path="url(#paf133bcf18)" style="fill: #1f77b4; opacity: 0.4"/>
   </g>
   <g id="patch_86">
    <path d="M 481.159548 354.958125 
L 485.95889 354.958125 
L 485.95889 354.958125 
L 481.159548 354.958125 
z
" clip-path="url(#paf133bcf18)" style="fill: #1f77b4; opacity: 0.4"/>
   </g>
   <g id="patch_87">
    <path d="M 485.95889 354.958125 
L 490.758233 354.958125 
L 490.758233 354.958125 
L 485.95889 354.958125 
z
" clip-path="url(#paf133bcf18)" style="fill: #1f77b4; opacity: 0.4"/>
   </g>
   <g id="patch_88">
    <path d="M 490.758233 354.958125 
L 495.557575 354.958125 
L 495.557575 354.958125 
L 490.758233 354.958125 
z
" clip-path="url(#paf133bcf18)" style="fill: #1f77b4; opacity: 0.4"/>
   </g>
   <g id="patch_89">
    <path d="M 495.557575 354.958125 
L 500.356917 354.958125 
L 500.356917 354.958125 
L 495.557575 354.958125 
z
" clip-path="url(#paf133bcf18)" style="fill: #1f77b4; opacity: 0.4"/>
   </g>
   <g id="patch_90">
    <path d="M 500.356917 354.958125 
L 505.15626 354.958125 
L 505.15626 354.958125 
L 500.356917 354.958125 
z
" clip-path="url(#paf133bcf18)" style="fill: #1f77b4; opacity: 0.4"/>
   </g>
   <g id="patch_91">
    <path d="M 505.15626 354.958125 
L 509.955602 354.958125 
L 509.955602 354.958125 
L 505.15626 354.958125 
z
" clip-path="url(#paf133bcf18)" style="fill: #1f77b4; opacity: 0.4"/>
   </g>
   <g id="patch_92">
    <path d="M 509.955602 354.958125 
L 514.754944 354.958125 
L 514.754944 354.958125 
L 509.955602 354.958125 
z
" clip-path="url(#paf133bcf18)" style="fill: #1f77b4; opacity: 0.4"/>
   </g>
   <g id="patch_93">
    <path d="M 514.754944 354.958125 
L 519.554287 354.958125 
L 519.554287 354.958125 
L 514.754944 354.958125 
z
" clip-path="url(#paf133bcf18)" style="fill: #1f77b4; opacity: 0.4"/>
   </g>
   <g id="patch_94">
    <path d="M 519.554287 354.958125 
L 524.353629 354.958125 
L 524.353629 354.958125 
L 519.554287 354.958125 
z
" clip-path="url(#paf133bcf18)" style="fill: #1f77b4; opacity: 0.4"/>
   </g>
   <g id="patch_95">
    <path d="M 524.353629 354.958125 
L 529.152971 354.958125 
L 529.152971 354.958125 
L 524.353629 354.958125 
z
" clip-path="url(#paf133bcf18)" style="fill: #1f77b4; opacity: 0.4"/>
   </g>
   <g id="patch_96">
    <path d="M 529.152971 354.958125 
L 533.952314 354.958125 
L 533.952314 354.958125 
L 529.152971 354.958125 
z
" clip-path="url(#paf133bcf18)" style="fill: #1f77b4; opacity: 0.4"/>
   </g>
   <g id="patch_97">
    <path d="M 533.952314 354.958125 
L 538.751656 354.958125 
L 538.751656 354.958125 
L 533.952314 354.958125 
z
" clip-path="url(#paf133bcf18)" style="fill: #1f77b4; opacity: 0.4"/>
   </g>
   <g id="patch_98">
    <path d="M 538.751656 354.958125 
L 543.550998 354.958125 
L 543.550998 354.958125 
L 538.751656 354.958125 
z
" clip-path="url(#paf133bcf18)" style="fill: #1f77b4; opacity: 0.4"/>
   </g>
   <g id="patch_99">
    <path d="M 543.550998 354.958125 
L 548.350341 354.958125 
L 548.350341 354.958125 
L 543.550998 354.958125 
z
" clip-path="url(#paf133bcf18)" style="fill: #1f77b4; opacity: 0.4"/>
   </g>
   <g id="patch_100">
    <path d="M 548.350341 354.958125 
L 553.149683 354.958125 
L 553.149683 354.958125 
L 548.350341 354.958125 
z
" clip-path="url(#paf133bcf18)" style="fill: #1f77b4; opacity: 0.4"/>
   </g>
   <g id="patch_101">
    <path d="M 553.149683 354.958125 
L 557.949026 354.958125 
L 557.949026 354.958125 
L 553.149683 354.958125 
z
" clip-path="url(#paf133bcf18)" style="fill: #1f77b4; opacity: 0.4"/>
   </g>
   <g id="patch_102">
    <path d="M 557.949026 354.958125 
L 562.748368 354.958125 
L 562.748368 354.101909 
L 557.949026 354.101909 
z
" clip-path="url(#paf133bcf18)" style="fill: #1f77b4; opacity: 0.4"/>
   </g>
   <g id="matplotlib.axis_1">
    <g id="xtick_1">
     <g id="line2d_1">
      <defs>
       <path id="m545c7ef8d9" d="M 0 0 
L 0 3.5 
" style="stroke: #000000; stroke-width: 0.8"/>
      </defs>
      <g>
       <use xlink:href="#m545c7ef8d9" x="93.332171" y="354.958125" style="stroke: #000000; stroke-width: 0.8"/>
      </g>
     </g>
     <g id="text_1">
      <!-- −6 -->
      <g transform="translate(85.961078 369.556562)scale(0.1 -0.1)">
       <defs>
        <path id="DejaVuSans-2212" d="M 678 2272 
L 4684 2272 
L 4684 1741 
L 678 1741 
L 678 2272 
z
" transform="scale(0.015625)"/>
        <path id="DejaVuSans-36" d="M 2113 2584 
Q 1688 2584 1439 2293 
Q 1191 2003 1191 1497 
Q 1191 994 1439 701 
Q 1688 409 2113 409 
Q 2538 409 2786 701 
Q 3034 994 3034 1497 
Q 3034 2003 2786 2293 
Q 2538 2584 2113 2584 
z
M 3366 4563 
L 3366 3988 
Q 3128 4100 2886 4159 
Q 2644 4219 2406 4219 
Q 1781 4219 1451 3797 
Q 1122 3375 1075 2522 
Q 1259 2794 1537 2939 
Q 1816 3084 2150 3084 
Q 2853 3084 3261 2657 
Q 3669 2231 3669 1497 
Q 3669 778 3244 343 
Q 2819 -91 2113 -91 
Q 1303 -91 875 529 
Q 447 1150 447 2328 
Q 447 3434 972 4092 
Q 1497 4750 2381 4750 
Q 2619 4750 2861 4703 
Q 3103 4656 3366 4563 
z
" transform="scale(0.015625)"/>
       </defs>
       <use xlink:href="#DejaVuSans-2212"/>
       <use xlink:href="#DejaVuSans-36" x="83.789062"/>
      </g>
     </g>
    </g>
    <g id="xtick_2">
     <g id="line2d_2">
      <g>
       <use xlink:href="#m545c7ef8d9" x="171.243573" y="354.958125" style="stroke: #000000; stroke-width: 0.8"/>
      </g>
     </g>
     <g id="text_2">
      <!-- −4 -->
      <g transform="translate(163.87248 369.556562)scale(0.1 -0.1)">
       <defs>
        <path id="DejaVuSans-34" d="M 2419 4116 
L 825 1625 
L 2419 1625 
L 2419 4116 
z
M 2253 4666 
L 3047 4666 
L 3047 1625 
L 3713 1625 
L 3713 1100 
L 3047 1100 
L 3047 0 
L 2419 0 
L 2419 1100 
L 313 1100 
L 313 1709 
L 2253 4666 
z
" transform="scale(0.015625)"/>
       </defs>
       <use xlink:href="#DejaVuSans-2212"/>
       <use xlink:href="#DejaVuSans-34" x="83.789062"/>
      </g>
     </g>
    </g>
    <g id="xtick_3">
     <g id="line2d_3">
      <g>
       <use xlink:href="#m545c7ef8d9" x="249.154975" y="354.958125" style="stroke: #000000; stroke-width: 0.8"/>
      </g>
     </g>
     <g id="text_3">
      <!-- −2 -->
      <g transform="translate(241.783881 369.556562)scale(0.1 -0.1)">
       <defs>
        <path id="DejaVuSans-32" d="M 1228 531 
L 3431 531 
L 3431 0 
L 469 0 
L 469 531 
Q 828 903 1448 1529 
Q 2069 2156 2228 2338 
Q 2531 2678 2651 2914 
Q 2772 3150 2772 3378 
Q 2772 3750 2511 3984 
Q 2250 4219 1831 4219 
Q 1534 4219 1204 4116 
Q 875 4013 500 3803 
L 500 4441 
Q 881 4594 1212 4672 
Q 1544 4750 1819 4750 
Q 2544 4750 2975 4387 
Q 3406 4025 3406 3419 
Q 3406 3131 3298 2873 
Q 3191 2616 2906 2266 
Q 2828 2175 2409 1742 
Q 1991 1309 1228 531 
z
" transform="scale(0.015625)"/>
       </defs>
       <use xlink:href="#DejaVuSans-2212"/>
       <use xlink:href="#DejaVuSans-32" x="83.789062"/>
      </g>
     </g>
    </g>
    <g id="xtick_4">
     <g id="line2d_4">
      <g>
       <use xlink:href="#m545c7ef8d9" x="327.066377" y="354.958125" style="stroke: #000000; stroke-width: 0.8"/>
      </g>
     </g>
     <g id="text_4">
      <!-- 0 -->
      <g transform="translate(323.885127 369.556562)scale(0.1 -0.1)">
       <defs>
        <path id="DejaVuSans-30" d="M 2034 4250 
Q 1547 4250 1301 3770 
Q 1056 3291 1056 2328 
Q 1056 1369 1301 889 
Q 1547 409 2034 409 
Q 2525 409 2770 889 
Q 3016 1369 3016 2328 
Q 3016 3291 2770 3770 
Q 2525 4250 2034 4250 
z
M 2034 4750 
Q 2819 4750 3233 4129 
Q 3647 3509 3647 2328 
Q 3647 1150 3233 529 
Q 2819 -91 2034 -91 
Q 1250 -91 836 529 
Q 422 1150 422 2328 
Q 422 3509 836 4129 
Q 1250 4750 2034 4750 
z
" transform="scale(0.015625)"/>
       </defs>
       <use xlink:href="#DejaVuSans-30"/>
      </g>
     </g>
    </g>
    <g id="xtick_5">
     <g id="line2d_5">
      <g>
       <use xlink:href="#m545c7ef8d9" x="404.977779" y="354.958125" style="stroke: #000000; stroke-width: 0.8"/>
      </g>
     </g>
     <g id="text_5">
      <!-- 2 -->
      <g transform="translate(401.796529 369.556562)scale(0.1 -0.1)">
       <use xlink:href="#DejaVuSans-32"/>
      </g>
     </g>
    </g>
    <g id="xtick_6">
     <g id="line2d_6">
      <g>
       <use xlink:href="#m545c7ef8d9" x="482.889181" y="354.958125" style="stroke: #000000; stroke-width: 0.8"/>
      </g>
     </g>
     <g id="text_6">
      <!-- 4 -->
      <g transform="translate(479.707931 369.556562)scale(0.1 -0.1)">
       <use xlink:href="#DejaVuSans-34"/>
      </g>
     </g>
    </g>
    <g id="xtick_7">
     <g id="line2d_7">
      <g>
       <use xlink:href="#m545c7ef8d9" x="560.800583" y="354.958125" style="stroke: #000000; stroke-width: 0.8"/>
      </g>
     </g>
     <g id="text_7">
      <!-- 6 -->
      <g transform="translate(557.619333 369.556562)scale(0.1 -0.1)">
       <use xlink:href="#DejaVuSans-36"/>
      </g>
     </g>
    </g>
    <g id="text_8">
     <!-- Returns (USD) -->
     <g transform="translate(287.410937 383.234687)scale(0.1 -0.1)">
      <defs>
       <path id="DejaVuSans-52" d="M 2841 2188 
Q 3044 2119 3236 1894 
Q 3428 1669 3622 1275 
L 4263 0 
L 3584 0 
L 2988 1197 
Q 2756 1666 2539 1819 
Q 2322 1972 1947 1972 
L 1259 1972 
L 1259 0 
L 628 0 
L 628 4666 
L 2053 4666 
Q 2853 4666 3247 4331 
Q 3641 3997 3641 3322 
Q 3641 2881 3436 2590 
Q 3231 2300 2841 2188 
z
M 1259 4147 
L 1259 2491 
L 2053 2491 
Q 2509 2491 2742 2702 
Q 2975 2913 2975 3322 
Q 2975 3731 2742 3939 
Q 2509 4147 2053 4147 
L 1259 4147 
z
" transform="scale(0.015625)"/>
       <path id="DejaVuSans-65" d="M 3597 1894 
L 3597 1613 
L 953 1613 
Q 991 1019 1311 708 
Q 1631 397 2203 397 
Q 2534 397 2845 478 
Q 3156 559 3463 722 
L 3463 178 
Q 3153 47 2828 -22 
Q 2503 -91 2169 -91 
Q 1331 -91 842 396 
Q 353 884 353 1716 
Q 353 2575 817 3079 
Q 1281 3584 2069 3584 
Q 2775 3584 3186 3129 
Q 3597 2675 3597 1894 
z
M 3022 2063 
Q 3016 2534 2758 2815 
Q 2500 3097 2075 3097 
Q 1594 3097 1305 2825 
Q 1016 2553 972 2059 
L 3022 2063 
z
" transform="scale(0.015625)"/>
       <path id="DejaVuSans-74" d="M 1172 4494 
L 1172 3500 
L 2356 3500 
L 2356 3053 
L 1172 3053 
L 1172 1153 
Q 1172 725 1289 603 
Q 1406 481 1766 481 
L 2356 481 
L 2356 0 
L 1766 0 
Q 1100 0 847 248 
Q 594 497 594 1153 
L 594 3053 
L 172 3053 
L 172 3500 
L 594 3500 
L 594 4494 
L 1172 4494 
z
" transform="scale(0.015625)"/>
       <path id="DejaVuSans-75" d="M 544 1381 
L 544 3500 
L 1119 3500 
L 1119 1403 
Q 1119 906 1312 657 
Q 1506 409 1894 409 
Q 2359 409 2629 706 
Q 2900 1003 2900 1516 
L 2900 3500 
L 3475 3500 
L 3475 0 
L 2900 0 
L 2900 538 
Q 2691 219 2414 64 
Q 2138 -91 1772 -91 
Q 1169 -91 856 284 
Q 544 659 544 1381 
z
M 1991 3584 
L 1991 3584 
z
" transform="scale(0.015625)"/>
       <path id="DejaVuSans-72" d="M 2631 2963 
Q 2534 3019 2420 3045 
Q 2306 3072 2169 3072 
Q 1681 3072 1420 2755 
Q 1159 2438 1159 1844 
L 1159 0 
L 581 0 
L 581 3500 
L 1159 3500 
L 1159 2956 
Q 1341 3275 1631 3429 
Q 1922 3584 2338 3584 
Q 2397 3584 2469 3576 
Q 2541 3569 2628 3553 
L 2631 2963 
z
" transform="scale(0.015625)"/>
       <path id="DejaVuSans-6e" d="M 3513 2113 
L 3513 0 
L 2938 0 
L 2938 2094 
Q 2938 2591 2744 2837 
Q 2550 3084 2163 3084 
Q 1697 3084 1428 2787 
Q 1159 2491 1159 1978 
L 1159 0 
L 581 0 
L 581 3500 
L 1159 3500 
L 1159 2956 
Q 1366 3272 1645 3428 
Q 1925 3584 2291 3584 
Q 2894 3584 3203 3211 
Q 3513 2838 3513 2113 
z
" transform="scale(0.015625)"/>
       <path id="DejaVuSans-73" d="M 2834 3397 
L 2834 2853 
Q 2591 2978 2328 3040 
Q 2066 3103 1784 3103 
Q 1356 3103 1142 2972 
Q 928 2841 928 2578 
Q 928 2378 1081 2264 
Q 1234 2150 1697 2047 
L 1894 2003 
Q 2506 1872 2764 1633 
Q 3022 1394 3022 966 
Q 3022 478 2636 193 
Q 2250 -91 1575 -91 
Q 1294 -91 989 -36 
Q 684 19 347 128 
L 347 722 
Q 666 556 975 473 
Q 1284 391 1588 391 
Q 1994 391 2212 530 
Q 2431 669 2431 922 
Q 2431 1156 2273 1281 
Q 2116 1406 1581 1522 
L 1381 1569 
Q 847 1681 609 1914 
Q 372 2147 372 2553 
Q 372 3047 722 3315 
Q 1072 3584 1716 3584 
Q 2034 3584 2315 3537 
Q 2597 3491 2834 3397 
z
" transform="scale(0.015625)"/>
       <path id="DejaVuSans-20" transform="scale(0.015625)"/>
       <path id="DejaVuSans-28" d="M 1984 4856 
Q 1566 4138 1362 3434 
Q 1159 2731 1159 2009 
Q 1159 1288 1364 580 
Q 1569 -128 1984 -844 
L 1484 -844 
Q 1016 -109 783 600 
Q 550 1309 550 2009 
Q 550 2706 781 3412 
Q 1013 4119 1484 4856 
L 1984 4856 
z
" transform="scale(0.015625)"/>
       <path id="DejaVuSans-55" d="M 556 4666 
L 1191 4666 
L 1191 1831 
Q 1191 1081 1462 751 
Q 1734 422 2344 422 
Q 2950 422 3222 751 
Q 3494 1081 3494 1831 
L 3494 4666 
L 4128 4666 
L 4128 1753 
Q 4128 841 3676 375 
Q 3225 -91 2344 -91 
Q 1459 -91 1007 375 
Q 556 841 556 1753 
L 556 4666 
z
" transform="scale(0.015625)"/>
       <path id="DejaVuSans-53" d="M 3425 4513 
L 3425 3897 
Q 3066 4069 2747 4153 
Q 2428 4238 2131 4238 
Q 1616 4238 1336 4038 
Q 1056 3838 1056 3469 
Q 1056 3159 1242 3001 
Q 1428 2844 1947 2747 
L 2328 2669 
Q 3034 2534 3370 2195 
Q 3706 1856 3706 1288 
Q 3706 609 3251 259 
Q 2797 -91 1919 -91 
Q 1588 -91 1214 -16 
Q 841 59 441 206 
L 441 856 
Q 825 641 1194 531 
Q 1563 422 1919 422 
Q 2459 422 2753 634 
Q 3047 847 3047 1241 
Q 3047 1584 2836 1778 
Q 2625 1972 2144 2069 
L 1759 2144 
Q 1053 2284 737 2584 
Q 422 2884 422 3419 
Q 422 4038 858 4394 
Q 1294 4750 2059 4750 
Q 2388 4750 2728 4690 
Q 3069 4631 3425 4513 
z
" transform="scale(0.015625)"/>
       <path id="DejaVuSans-44" d="M 1259 4147 
L 1259 519 
L 2022 519 
Q 2988 519 3436 956 
Q 3884 1394 3884 2338 
Q 3884 3275 3436 3711 
Q 2988 4147 2022 4147 
L 1259 4147 
z
M 628 4666 
L 1925 4666 
Q 3281 4666 3915 4102 
Q 4550 3538 4550 2338 
Q 4550 1131 3912 565 
Q 3275 0 1925 0 
L 628 0 
L 628 4666 
z
" transform="scale(0.015625)"/>
       <path id="DejaVuSans-29" d="M 513 4856 
L 1013 4856 
Q 1481 4119 1714 3412 
Q 1947 2706 1947 2009 
Q 1947 1309 1714 600 
Q 1481 -109 1013 -844 
L 513 -844 
Q 928 -128 1133 580 
Q 1338 1288 1338 2009 
Q 1338 2731 1133 3434 
Q 928 4138 513 4856 
z
" transform="scale(0.015625)"/>
      </defs>
      <use xlink:href="#DejaVuSans-52"/>
      <use xlink:href="#DejaVuSans-65" x="64.982422"/>
      <use xlink:href="#DejaVuSans-74" x="126.505859"/>
      <use xlink:href="#DejaVuSans-75" x="165.714844"/>
      <use xlink:href="#DejaVuSans-72" x="229.09375"/>
      <use xlink:href="#DejaVuSans-6e" x="268.457031"/>
      <use xlink:href="#DejaVuSans-73" x="331.835938"/>
      <use xlink:href="#DejaVuSans-20" x="383.935547"/>
      <use xlink:href="#DejaVuSans-28" x="415.722656"/>
      <use xlink:href="#DejaVuSans-55" x="454.736328"/>
      <use xlink:href="#DejaVuSans-53" x="527.929688"/>
      <use xlink:href="#DejaVuSans-44" x="591.40625"/>
      <use xlink:href="#DejaVuSans-29" x="668.408203"/>
     </g>
    </g>
   </g>
   <g id="matplotlib.axis_2">
    <g id="ytick_1">
     <g id="line2d_8">
      <defs>
       <path id="me79561a9f9" d="M 0 0 
L -3.5 0 
" style="stroke: #000000; stroke-width: 0.8"/>
      </defs>
      <g>
       <use xlink:href="#me79561a9f9" x="43.78125" y="354.958125" style="stroke: #000000; stroke-width: 0.8"/>
      </g>
     </g>
     <g id="text_9">
      <!-- 0.0 -->
      <g transform="translate(20.878125 358.757344)scale(0.1 -0.1)">
       <defs>
        <path id="DejaVuSans-2e" d="M 684 794 
L 1344 794 
L 1344 0 
L 684 0 
L 684 794 
z
" transform="scale(0.015625)"/>
       </defs>
       <use xlink:href="#DejaVuSans-30"/>
       <use xlink:href="#DejaVuSans-2e" x="63.623047"/>
       <use xlink:href="#DejaVuSans-30" x="95.410156"/>
      </g>
     </g>
    </g>
    <g id="ytick_2">
     <g id="line2d_9">
      <g>
       <use xlink:href="#me79561a9f9" x="43.78125" y="301.835457" style="stroke: #000000; stroke-width: 0.8"/>
      </g>
     </g>
     <g id="text_10">
      <!-- 0.2 -->
      <g transform="translate(20.878125 305.634676)scale(0.1 -0.1)">
       <use xlink:href="#DejaVuSans-30"/>
       <use xlink:href="#DejaVuSans-2e" x="63.623047"/>
       <use xlink:href="#DejaVuSans-32" x="95.410156"/>
      </g>
     </g>
    </g>
    <g id="ytick_3">
     <g id="line2d_10">
      <g>
       <use xlink:href="#me79561a9f9" x="43.78125" y="248.712789" style="stroke: #000000; stroke-width: 0.8"/>
      </g>
     </g>
     <g id="text_11">
      <!-- 0.4 -->
      <g transform="translate(20.878125 252.512008)scale(0.1 -0.1)">
       <use xlink:href="#DejaVuSans-30"/>
       <use xlink:href="#DejaVuSans-2e" x="63.623047"/>
       <use xlink:href="#DejaVuSans-34" x="95.410156"/>
      </g>
     </g>
    </g>
    <g id="ytick_4">
     <g id="line2d_11">
      <g>
       <use xlink:href="#me79561a9f9" x="43.78125" y="195.590121" style="stroke: #000000; stroke-width: 0.8"/>
      </g>
     </g>
     <g id="text_12">
      <!-- 0.6 -->
      <g transform="translate(20.878125 199.38934)scale(0.1 -0.1)">
       <use xlink:href="#DejaVuSans-30"/>
       <use xlink:href="#DejaVuSans-2e" x="63.623047"/>
       <use xlink:href="#DejaVuSans-36" x="95.410156"/>
      </g>
     </g>
    </g>
    <g id="ytick_5">
     <g id="line2d_12">
      <g>
       <use xlink:href="#me79561a9f9" x="43.78125" y="142.467453" style="stroke: #000000; stroke-width: 0.8"/>
      </g>
     </g>
     <g id="text_13">
      <!-- 0.8 -->
      <g transform="translate(20.878125 146.266672)scale(0.1 -0.1)">
       <defs>
        <path id="DejaVuSans-38" d="M 2034 2216 
Q 1584 2216 1326 1975 
Q 1069 1734 1069 1313 
Q 1069 891 1326 650 
Q 1584 409 2034 409 
Q 2484 409 2743 651 
Q 3003 894 3003 1313 
Q 3003 1734 2745 1975 
Q 2488 2216 2034 2216 
z
M 1403 2484 
Q 997 2584 770 2862 
Q 544 3141 544 3541 
Q 544 4100 942 4425 
Q 1341 4750 2034 4750 
Q 2731 4750 3128 4425 
Q 3525 4100 3525 3541 
Q 3525 3141 3298 2862 
Q 3072 2584 2669 2484 
Q 3125 2378 3379 2068 
Q 3634 1759 3634 1313 
Q 3634 634 3220 271 
Q 2806 -91 2034 -91 
Q 1263 -91 848 271 
Q 434 634 434 1313 
Q 434 1759 690 2068 
Q 947 2378 1403 2484 
z
M 1172 3481 
Q 1172 3119 1398 2916 
Q 1625 2713 2034 2713 
Q 2441 2713 2670 2916 
Q 2900 3119 2900 3481 
Q 2900 3844 2670 4047 
Q 2441 4250 2034 4250 
Q 1625 4250 1398 4047 
Q 1172 3844 1172 3481 
z
" transform="scale(0.015625)"/>
       </defs>
       <use xlink:href="#DejaVuSans-30"/>
       <use xlink:href="#DejaVuSans-2e" x="63.623047"/>
       <use xlink:href="#DejaVuSans-38" x="95.410156"/>
      </g>
     </g>
    </g>
    <g id="ytick_6">
     <g id="line2d_13">
      <g>
       <use xlink:href="#me79561a9f9" x="43.78125" y="89.344785" style="stroke: #000000; stroke-width: 0.8"/>
      </g>
     </g>
     <g id="text_14">
      <!-- 1.0 -->
      <g transform="translate(20.878125 93.144004)scale(0.1 -0.1)">
       <defs>
        <path id="DejaVuSans-31" d="M 794 531 
L 1825 531 
L 1825 4091 
L 703 3866 
L 703 4441 
L 1819 4666 
L 2450 4666 
L 2450 531 
L 3481 531 
L 3481 0 
L 794 0 
L 794 531 
z
" transform="scale(0.015625)"/>
       </defs>
       <use xlink:href="#DejaVuSans-31"/>
       <use xlink:href="#DejaVuSans-2e" x="63.623047"/>
       <use xlink:href="#DejaVuSans-30" x="95.410156"/>
      </g>
     </g>
    </g>
    <g id="ytick_7">
     <g id="line2d_14">
      <g>
       <use xlink:href="#me79561a9f9" x="43.78125" y="36.222117" style="stroke: #000000; stroke-width: 0.8"/>
      </g>
     </g>
     <g id="text_15">
      <!-- 1.2 -->
      <g transform="translate(20.878125 40.021336)scale(0.1 -0.1)">
       <use xlink:href="#DejaVuSans-31"/>
       <use xlink:href="#DejaVuSans-2e" x="63.623047"/>
       <use xlink:href="#DejaVuSans-32" x="95.410156"/>
      </g>
     </g>
    </g>
    <g id="text_16">
     <!-- Density -->
     <g transform="translate(14.798438 207.646719)rotate(-90)scale(0.1 -0.1)">
      <defs>
       <path id="DejaVuSans-69" d="M 603 3500 
L 1178 3500 
L 1178 0 
L 603 0 
L 603 3500 
z
M 603 4863 
L 1178 4863 
L 1178 4134 
L 603 4134 
L 603 4863 
z
" transform="scale(0.015625)"/>
       <path id="DejaVuSans-79" d="M 2059 -325 
Q 1816 -950 1584 -1140 
Q 1353 -1331 966 -1331 
L 506 -1331 
L 506 -850 
L 844 -850 
Q 1081 -850 1212 -737 
Q 1344 -625 1503 -206 
L 1606 56 
L 191 3500 
L 800 3500 
L 1894 763 
L 2988 3500 
L 3597 3500 
L 2059 -325 
z
" transform="scale(0.015625)"/>
      </defs>
      <use xlink:href="#DejaVuSans-44"/>
      <use xlink:href="#DejaVuSans-65" x="77.001953"/>
      <use xlink:href="#DejaVuSans-6e" x="138.525391"/>
      <use xlink:href="#DejaVuSans-73" x="201.904297"/>
      <use xlink:href="#DejaVuSans-69" x="254.003906"/>
      <use xlink:href="#DejaVuSans-74" x="281.787109"/>
      <use xlink:href="#DejaVuSans-79" x="320.996094"/>
     </g>
    </g>
   </g>
   <g id="line2d_15">
    <path d="M 69.144886 354.952777 
L 74.243105 354.866393 
L 79.341323 354.493456 
L 81.890432 354.295464 
L 84.439541 354.260759 
L 97.185087 354.948735 
L 127.774398 354.950697 
L 132.872616 354.867984 
L 143.069053 354.516557 
L 150.71638 354.583741 
L 160.912817 354.942434 
L 168.560144 354.895613 
L 178.756581 354.621696 
L 188.953018 354.94601 
L 219.542328 354.958125 
L 237.386092 354.848062 
L 250.131638 354.245514 
L 252.680747 353.953962 
L 255.229857 353.386529 
L 260.328075 351.821625 
L 265.426293 350.717188 
L 267.975403 349.866007 
L 270.524512 348.437987 
L 273.073621 346.471943 
L 280.720948 339.681967 
L 283.270058 336.987561 
L 285.819167 333.546375 
L 288.368276 329.315039 
L 290.917385 324.563013 
L 293.466494 319.517771 
L 296.015604 314.150663 
L 298.564713 307.976267 
L 301.113822 299.663694 
L 303.662931 287.589016 
L 306.21204 271.508832 
L 308.761149 252.914214 
L 311.310259 232.785713 
L 313.859368 209.59766 
L 316.408477 180.907424 
L 321.506695 113.497919 
L 324.055805 87.369115 
L 326.604914 75.081702 
L 329.154023 78.679248 
L 331.703132 95.532704 
L 334.252241 120.812032 
L 341.899569 208.693773 
L 344.448678 232.806237 
L 346.997787 252.557506 
L 349.546896 269.046461 
L 352.096006 283.295185 
L 354.645115 295.365202 
L 357.194224 305.003117 
L 359.743333 312.614893 
L 362.292442 319.13017 
L 364.841552 325.202758 
L 367.390661 330.948258 
L 369.93977 336.244925 
L 372.488879 340.905611 
L 375.037988 344.656925 
L 377.587097 347.271452 
L 380.136207 348.851514 
L 382.685316 349.856945 
L 392.881753 353.358105 
L 395.430862 353.972926 
L 397.979971 354.232118 
L 400.52908 354.153938 
L 405.627298 353.827392 
L 408.176408 353.912986 
L 413.274626 354.309303 
L 415.823735 354.401213 
L 418.372844 354.33019 
L 423.471063 353.957672 
L 426.020172 353.988798 
L 436.216609 354.893155 
L 443.863936 354.95765 
L 469.355028 354.919724 
L 482.100574 354.672967 
L 489.747901 354.935924 
L 507.591666 354.958125 
L 553.475631 354.912761 
L 563.672068 354.60565 
L 576.417614 354.954128 
L 576.417614 354.954128 
" clip-path="url(#paf133bcf18)" style="fill: none; stroke: #1f77b4; stroke-width: 1.5; stroke-linecap: square"/>
   </g>
   <g id="patch_103">
    <path d="M 43.78125 354.958125 
L 43.78125 22.318125 
" style="fill: none; stroke: #000000; stroke-width: 0.8; stroke-linejoin: miter; stroke-linecap: square"/>
   </g>
   <g id="patch_104">
    <path d="M 601.78125 354.958125 
L 601.78125 22.318125 
" style="fill: none; stroke: #000000; stroke-width: 0.8; stroke-linejoin: miter; stroke-linecap: square"/>
   </g>
   <g id="patch_105">
    <path d="M 43.78125 354.958125 
L 601.78125 354.958125 
" style="fill: none; stroke: #000000; stroke-width: 0.8; stroke-linejoin: miter; stroke-linecap: square"/>
   </g>
   <g id="patch_106">
    <path d="M 43.78125 22.318125 
L 601.78125 22.318125 
" style="fill: none; stroke: #000000; stroke-width: 0.8; stroke-linejoin: miter; stroke-linecap: square"/>
   </g>
   <g id="patch_107">
    <path d="M 108.625418 268.206584 
Q 98.645591 304.678651 88.665765 341.150719 
L 92.523935 342.206428 
Q 88.04693 347.201223 83.569926 352.196018 
Q 82.259675 345.61766 80.949424 339.039302 
L 84.807594 340.095011 
Q 94.787421 303.622943 104.767248 267.150875 
L 108.625418 268.206584 
z
" style="fill: #ff0000"/>
   </g>
   <g id="text_17">
    <!-- Worst Day: $-6.27 -->
    <g transform="translate(108 249.636875)scale(0.1 -0.1)">
     <defs>
      <path id="DejaVuSans-57" d="M 213 4666 
L 850 4666 
L 1831 722 
L 2809 4666 
L 3519 4666 
L 4500 722 
L 5478 4666 
L 6119 4666 
L 4947 0 
L 4153 0 
L 3169 4050 
L 2175 0 
L 1381 0 
L 213 4666 
z
" transform="scale(0.015625)"/>
      <path id="DejaVuSans-6f" d="M 1959 3097 
Q 1497 3097 1228 2736 
Q 959 2375 959 1747 
Q 959 1119 1226 758 
Q 1494 397 1959 397 
Q 2419 397 2687 759 
Q 2956 1122 2956 1747 
Q 2956 2369 2687 2733 
Q 2419 3097 1959 3097 
z
M 1959 3584 
Q 2709 3584 3137 3096 
Q 3566 2609 3566 1747 
Q 3566 888 3137 398 
Q 2709 -91 1959 -91 
Q 1206 -91 779 398 
Q 353 888 353 1747 
Q 353 2609 779 3096 
Q 1206 3584 1959 3584 
z
" transform="scale(0.015625)"/>
      <path id="DejaVuSans-61" d="M 2194 1759 
Q 1497 1759 1228 1600 
Q 959 1441 959 1056 
Q 959 750 1161 570 
Q 1363 391 1709 391 
Q 2188 391 2477 730 
Q 2766 1069 2766 1631 
L 2766 1759 
L 2194 1759 
z
M 3341 1997 
L 3341 0 
L 2766 0 
L 2766 531 
Q 2569 213 2275 61 
Q 1981 -91 1556 -91 
Q 1019 -91 701 211 
Q 384 513 384 1019 
Q 384 1609 779 1909 
Q 1175 2209 1959 2209 
L 2766 2209 
L 2766 2266 
Q 2766 2663 2505 2880 
Q 2244 3097 1772 3097 
Q 1472 3097 1187 3025 
Q 903 2953 641 2809 
L 641 3341 
Q 956 3463 1253 3523 
Q 1550 3584 1831 3584 
Q 2591 3584 2966 3190 
Q 3341 2797 3341 1997 
z
" transform="scale(0.015625)"/>
      <path id="DejaVuSans-3a" d="M 750 794 
L 1409 794 
L 1409 0 
L 750 0 
L 750 794 
z
M 750 3309 
L 1409 3309 
L 1409 2516 
L 750 2516 
L 750 3309 
z
" transform="scale(0.015625)"/>
      <path id="DejaVuSans-24" d="M 2163 -941 
L 1850 -941 
L 1847 0 
Q 1519 6 1191 76 
Q 863 147 531 288 
L 531 850 
Q 850 650 1176 548 
Q 1503 447 1850 444 
L 1850 1869 
Q 1159 1981 845 2250 
Q 531 2519 531 2988 
Q 531 3497 872 3790 
Q 1213 4084 1850 4128 
L 1850 4863 
L 2163 4863 
L 2163 4138 
Q 2453 4125 2725 4076 
Q 2997 4028 3256 3944 
L 3256 3397 
Q 2997 3528 2723 3600 
Q 2450 3672 2163 3684 
L 2163 2350 
Q 2872 2241 3206 1959 
Q 3541 1678 3541 1191 
Q 3541 663 3186 358 
Q 2831 53 2163 6 
L 2163 -941 
z
M 1850 2406 
L 1850 3688 
Q 1488 3647 1297 3481 
Q 1106 3316 1106 3041 
Q 1106 2772 1282 2622 
Q 1459 2472 1850 2406 
z
M 2163 1806 
L 2163 453 
Q 2559 506 2761 678 
Q 2963 850 2963 1131 
Q 2963 1406 2770 1568 
Q 2578 1731 2163 1806 
z
" transform="scale(0.015625)"/>
      <path id="DejaVuSans-2d" d="M 313 2009 
L 1997 2009 
L 1997 1497 
L 313 1497 
L 313 2009 
z
" transform="scale(0.015625)"/>
      <path id="DejaVuSans-37" d="M 525 4666 
L 3525 4666 
L 3525 4397 
L 1831 0 
L 1172 0 
L 2766 4134 
L 525 4134 
L 525 4666 
z
" transform="scale(0.015625)"/>
     </defs>
     <use xlink:href="#DejaVuSans-57"/>
     <use xlink:href="#DejaVuSans-6f" x="93.001953"/>
     <use xlink:href="#DejaVuSans-72" x="154.183594"/>
     <use xlink:href="#DejaVuSans-73" x="195.296875"/>
     <use xlink:href="#DejaVuSans-74" x="247.396484"/>
     <use xlink:href="#DejaVuSans-20" x="286.605469"/>
     <use xlink:href="#DejaVuSans-44" x="318.392578"/>
     <use xlink:href="#DejaVuSans-61" x="395.394531"/>
     <use xlink:href="#DejaVuSans-79" x="456.673828"/>
     <use xlink:href="#DejaVuSans-3a" x="508.603516"/>
     <use xlink:href="#DejaVuSans-20" x="542.294922"/>
     <use xlink:href="#DejaVuSans-24" x="574.082031"/>
     <use xlink:href="#DejaVuSans-2d" x="637.705078"/>
     <use xlink:href="#DejaVuSans-36" x="673.789062"/>
     <use xlink:href="#DejaVuSans-2e" x="737.412109"/>
     <use xlink:href="#DejaVuSans-32" x="769.199219"/>
     <use xlink:href="#DejaVuSans-37" x="832.822266"/>
    </g>
    <!-- 2018/11/15 -->
    <g transform="translate(108 260.834687)scale(0.1 -0.1)">
     <defs>
      <path id="DejaVuSans-2f" d="M 1625 4666 
L 2156 4666 
L 531 -594 
L 0 -594 
L 1625 4666 
z
" transform="scale(0.015625)"/>
      <path id="DejaVuSans-35" d="M 691 4666 
L 3169 4666 
L 3169 4134 
L 1269 4134 
L 1269 2991 
Q 1406 3038 1543 3061 
Q 1681 3084 1819 3084 
Q 2600 3084 3056 2656 
Q 3513 2228 3513 1497 
Q 3513 744 3044 326 
Q 2575 -91 1722 -91 
Q 1428 -91 1123 -41 
Q 819 9 494 109 
L 494 744 
Q 775 591 1075 516 
Q 1375 441 1709 441 
Q 2250 441 2565 725 
Q 2881 1009 2881 1497 
Q 2881 1984 2565 2268 
Q 2250 2553 1709 2553 
Q 1456 2553 1204 2497 
Q 953 2441 691 2322 
L 691 4666 
z
" transform="scale(0.015625)"/>
     </defs>
     <use xlink:href="#DejaVuSans-32"/>
     <use xlink:href="#DejaVuSans-30" x="63.623047"/>
     <use xlink:href="#DejaVuSans-31" x="127.246094"/>
     <use xlink:href="#DejaVuSans-38" x="190.869141"/>
     <use xlink:href="#DejaVuSans-2f" x="254.492188"/>
     <use xlink:href="#DejaVuSans-31" x="288.183594"/>
     <use xlink:href="#DejaVuSans-31" x="351.806641"/>
     <use xlink:href="#DejaVuSans-2f" x="415.429688"/>
     <use xlink:href="#DejaVuSans-31" x="449.121094"/>
     <use xlink:href="#DejaVuSans-35" x="512.744141"/>
    </g>
   </g>
   <g id="patch_108">
    <path d="M 515.918044 266.706077 
Q 536.520535 303.722369 557.123026 340.738662 
L 560.618135 338.793357 
Q 560.914586 345.494687 561.211037 352.196018 
Q 555.671922 348.412644 550.132807 344.629271 
L 553.627916 342.683966 
Q 533.025426 305.667674 512.422935 268.651382 
L 515.918044 266.706077 
z
" style="fill: #008000"/>
   </g>
   <g id="text_18">
    <!-- Best Day: $6.05 -->
    <g transform="translate(432 249.636875)scale(0.1 -0.1)">
     <defs>
      <path id="DejaVuSans-42" d="M 1259 2228 
L 1259 519 
L 2272 519 
Q 2781 519 3026 730 
Q 3272 941 3272 1375 
Q 3272 1813 3026 2020 
Q 2781 2228 2272 2228 
L 1259 2228 
z
M 1259 4147 
L 1259 2741 
L 2194 2741 
Q 2656 2741 2882 2914 
Q 3109 3088 3109 3444 
Q 3109 3797 2882 3972 
Q 2656 4147 2194 4147 
L 1259 4147 
z
M 628 4666 
L 2241 4666 
Q 2963 4666 3353 4366 
Q 3744 4066 3744 3513 
Q 3744 3084 3544 2831 
Q 3344 2578 2956 2516 
Q 3422 2416 3680 2098 
Q 3938 1781 3938 1306 
Q 3938 681 3513 340 
Q 3088 0 2303 0 
L 628 0 
L 628 4666 
z
" transform="scale(0.015625)"/>
     </defs>
     <use xlink:href="#DejaVuSans-42"/>
     <use xlink:href="#DejaVuSans-65" x="68.603516"/>
     <use xlink:href="#DejaVuSans-73" x="130.126953"/>
     <use xlink:href="#DejaVuSans-74" x="182.226562"/>
     <use xlink:href="#DejaVuSans-20" x="221.435547"/>
     <use xlink:href="#DejaVuSans-44" x="253.222656"/>
     <use xlink:href="#DejaVuSans-61" x="330.224609"/>
     <use xlink:href="#DejaVuSans-79" x="391.503906"/>
     <use xlink:href="#DejaVuSans-3a" x="443.433594"/>
     <use xlink:href="#DejaVuSans-20" x="477.125"/>
     <use xlink:href="#DejaVuSans-24" x="508.912109"/>
     <use xlink:href="#DejaVuSans-36" x="572.535156"/>
     <use xlink:href="#DejaVuSans-2e" x="636.158203"/>
     <use xlink:href="#DejaVuSans-30" x="667.945312"/>
     <use xlink:href="#DejaVuSans-35" x="731.568359"/>
    </g>
    <!-- 2019/01/24 -->
    <g transform="translate(432 260.834687)scale(0.1 -0.1)">
     <defs>
      <path id="DejaVuSans-39" d="M 703 97 
L 703 672 
Q 941 559 1184 500 
Q 1428 441 1663 441 
Q 2288 441 2617 861 
Q 2947 1281 2994 2138 
Q 2813 1869 2534 1725 
Q 2256 1581 1919 1581 
Q 1219 1581 811 2004 
Q 403 2428 403 3163 
Q 403 3881 828 4315 
Q 1253 4750 1959 4750 
Q 2769 4750 3195 4129 
Q 3622 3509 3622 2328 
Q 3622 1225 3098 567 
Q 2575 -91 1691 -91 
Q 1453 -91 1209 -44 
Q 966 3 703 97 
z
M 1959 2075 
Q 2384 2075 2632 2365 
Q 2881 2656 2881 3163 
Q 2881 3666 2632 3958 
Q 2384 4250 1959 4250 
Q 1534 4250 1286 3958 
Q 1038 3666 1038 3163 
Q 1038 2656 1286 2365 
Q 1534 2075 1959 2075 
z
" transform="scale(0.015625)"/>
     </defs>
     <use xlink:href="#DejaVuSans-32"/>
     <use xlink:href="#DejaVuSans-30" x="63.623047"/>
     <use xlink:href="#DejaVuSans-31" x="127.246094"/>
     <use xlink:href="#DejaVuSans-39" x="190.869141"/>
     <use xlink:href="#DejaVuSans-2f" x="254.492188"/>
     <use xlink:href="#DejaVuSans-30" x="288.183594"/>
     <use xlink:href="#DejaVuSans-31" x="351.806641"/>
     <use xlink:href="#DejaVuSans-2f" x="415.429688"/>
     <use xlink:href="#DejaVuSans-32" x="449.121094"/>
     <use xlink:href="#DejaVuSans-34" x="512.744141"/>
    </g>
   </g>
   <g id="text_19">
    <!-- PCG, Stock Price Daily Changes Distribution -->
    <g transform="translate(191.357812 16.318125)scale(0.12 -0.12)">
     <defs>
      <path id="DejaVuSans-50" d="M 1259 4147 
L 1259 2394 
L 2053 2394 
Q 2494 2394 2734 2622 
Q 2975 2850 2975 3272 
Q 2975 3691 2734 3919 
Q 2494 4147 2053 4147 
L 1259 4147 
z
M 628 4666 
L 2053 4666 
Q 2838 4666 3239 4311 
Q 3641 3956 3641 3272 
Q 3641 2581 3239 2228 
Q 2838 1875 2053 1875 
L 1259 1875 
L 1259 0 
L 628 0 
L 628 4666 
z
" transform="scale(0.015625)"/>
      <path id="DejaVuSans-43" d="M 4122 4306 
L 4122 3641 
Q 3803 3938 3442 4084 
Q 3081 4231 2675 4231 
Q 1875 4231 1450 3742 
Q 1025 3253 1025 2328 
Q 1025 1406 1450 917 
Q 1875 428 2675 428 
Q 3081 428 3442 575 
Q 3803 722 4122 1019 
L 4122 359 
Q 3791 134 3420 21 
Q 3050 -91 2638 -91 
Q 1578 -91 968 557 
Q 359 1206 359 2328 
Q 359 3453 968 4101 
Q 1578 4750 2638 4750 
Q 3056 4750 3426 4639 
Q 3797 4528 4122 4306 
z
" transform="scale(0.015625)"/>
      <path id="DejaVuSans-47" d="M 3809 666 
L 3809 1919 
L 2778 1919 
L 2778 2438 
L 4434 2438 
L 4434 434 
Q 4069 175 3628 42 
Q 3188 -91 2688 -91 
Q 1594 -91 976 548 
Q 359 1188 359 2328 
Q 359 3472 976 4111 
Q 1594 4750 2688 4750 
Q 3144 4750 3555 4637 
Q 3966 4525 4313 4306 
L 4313 3634 
Q 3963 3931 3569 4081 
Q 3175 4231 2741 4231 
Q 1884 4231 1454 3753 
Q 1025 3275 1025 2328 
Q 1025 1384 1454 906 
Q 1884 428 2741 428 
Q 3075 428 3337 486 
Q 3600 544 3809 666 
z
" transform="scale(0.015625)"/>
      <path id="DejaVuSans-2c" d="M 750 794 
L 1409 794 
L 1409 256 
L 897 -744 
L 494 -744 
L 750 256 
L 750 794 
z
" transform="scale(0.015625)"/>
      <path id="DejaVuSans-63" d="M 3122 3366 
L 3122 2828 
Q 2878 2963 2633 3030 
Q 2388 3097 2138 3097 
Q 1578 3097 1268 2742 
Q 959 2388 959 1747 
Q 959 1106 1268 751 
Q 1578 397 2138 397 
Q 2388 397 2633 464 
Q 2878 531 3122 666 
L 3122 134 
Q 2881 22 2623 -34 
Q 2366 -91 2075 -91 
Q 1284 -91 818 406 
Q 353 903 353 1747 
Q 353 2603 823 3093 
Q 1294 3584 2113 3584 
Q 2378 3584 2631 3529 
Q 2884 3475 3122 3366 
z
" transform="scale(0.015625)"/>
      <path id="DejaVuSans-6b" d="M 581 4863 
L 1159 4863 
L 1159 1991 
L 2875 3500 
L 3609 3500 
L 1753 1863 
L 3688 0 
L 2938 0 
L 1159 1709 
L 1159 0 
L 581 0 
L 581 4863 
z
" transform="scale(0.015625)"/>
      <path id="DejaVuSans-6c" d="M 603 4863 
L 1178 4863 
L 1178 0 
L 603 0 
L 603 4863 
z
" transform="scale(0.015625)"/>
      <path id="DejaVuSans-68" d="M 3513 2113 
L 3513 0 
L 2938 0 
L 2938 2094 
Q 2938 2591 2744 2837 
Q 2550 3084 2163 3084 
Q 1697 3084 1428 2787 
Q 1159 2491 1159 1978 
L 1159 0 
L 581 0 
L 581 4863 
L 1159 4863 
L 1159 2956 
Q 1366 3272 1645 3428 
Q 1925 3584 2291 3584 
Q 2894 3584 3203 3211 
Q 3513 2838 3513 2113 
z
" transform="scale(0.015625)"/>
      <path id="DejaVuSans-67" d="M 2906 1791 
Q 2906 2416 2648 2759 
Q 2391 3103 1925 3103 
Q 1463 3103 1205 2759 
Q 947 2416 947 1791 
Q 947 1169 1205 825 
Q 1463 481 1925 481 
Q 2391 481 2648 825 
Q 2906 1169 2906 1791 
z
M 3481 434 
Q 3481 -459 3084 -895 
Q 2688 -1331 1869 -1331 
Q 1566 -1331 1297 -1286 
Q 1028 -1241 775 -1147 
L 775 -588 
Q 1028 -725 1275 -790 
Q 1522 -856 1778 -856 
Q 2344 -856 2625 -561 
Q 2906 -266 2906 331 
L 2906 616 
Q 2728 306 2450 153 
Q 2172 0 1784 0 
Q 1141 0 747 490 
Q 353 981 353 1791 
Q 353 2603 747 3093 
Q 1141 3584 1784 3584 
Q 2172 3584 2450 3431 
Q 2728 3278 2906 2969 
L 2906 3500 
L 3481 3500 
L 3481 434 
z
" transform="scale(0.015625)"/>
      <path id="DejaVuSans-62" d="M 3116 1747 
Q 3116 2381 2855 2742 
Q 2594 3103 2138 3103 
Q 1681 3103 1420 2742 
Q 1159 2381 1159 1747 
Q 1159 1113 1420 752 
Q 1681 391 2138 391 
Q 2594 391 2855 752 
Q 3116 1113 3116 1747 
z
M 1159 2969 
Q 1341 3281 1617 3432 
Q 1894 3584 2278 3584 
Q 2916 3584 3314 3078 
Q 3713 2572 3713 1747 
Q 3713 922 3314 415 
Q 2916 -91 2278 -91 
Q 1894 -91 1617 61 
Q 1341 213 1159 525 
L 1159 0 
L 581 0 
L 581 4863 
L 1159 4863 
L 1159 2969 
z
" transform="scale(0.015625)"/>
     </defs>
     <use xlink:href="#DejaVuSans-50"/>
     <use xlink:href="#DejaVuSans-43" x="60.302734"/>
     <use xlink:href="#DejaVuSans-47" x="130.126953"/>
     <use xlink:href="#DejaVuSans-2c" x="207.617188"/>
     <use xlink:href="#DejaVuSans-20" x="239.404297"/>
     <use xlink:href="#DejaVuSans-53" x="271.191406"/>
     <use xlink:href="#DejaVuSans-74" x="334.667969"/>
     <use xlink:href="#DejaVuSans-6f" x="373.876953"/>
     <use xlink:href="#DejaVuSans-63" x="435.058594"/>
     <use xlink:href="#DejaVuSans-6b" x="490.039062"/>
     <use xlink:href="#DejaVuSans-20" x="547.949219"/>
     <use xlink:href="#DejaVuSans-50" x="579.736328"/>
     <use xlink:href="#DejaVuSans-72" x="638.289062"/>
     <use xlink:href="#DejaVuSans-69" x="679.402344"/>
     <use xlink:href="#DejaVuSans-63" x="707.185547"/>
     <use xlink:href="#DejaVuSans-65" x="762.166016"/>
     <use xlink:href="#DejaVuSans-20" x="823.689453"/>
     <use xlink:href="#DejaVuSans-44" x="855.476562"/>
     <use xlink:href="#DejaVuSans-61" x="932.478516"/>
     <use xlink:href="#DejaVuSans-69" x="993.757812"/>
     <use xlink:href="#DejaVuSans-6c" x="1021.541016"/>
     <use xlink:href="#DejaVuSans-79" x="1049.324219"/>
     <use xlink:href="#DejaVuSans-20" x="1108.503906"/>
     <use xlink:href="#DejaVuSans-43" x="1140.291016"/>
     <use xlink:href="#DejaVuSans-68" x="1210.115234"/>
     <use xlink:href="#DejaVuSans-61" x="1273.494141"/>
     <use xlink:href="#DejaVuSans-6e" x="1334.773438"/>
     <use xlink:href="#DejaVuSans-67" x="1398.152344"/>
     <use xlink:href="#DejaVuSans-65" x="1461.628906"/>
     <use xlink:href="#DejaVuSans-73" x="1523.152344"/>
     <use xlink:href="#DejaVuSans-20" x="1575.251953"/>
     <use xlink:href="#DejaVuSans-44" x="1607.039062"/>
     <use xlink:href="#DejaVuSans-69" x="1684.041016"/>
     <use xlink:href="#DejaVuSans-73" x="1711.824219"/>
     <use xlink:href="#DejaVuSans-74" x="1763.923828"/>
     <use xlink:href="#DejaVuSans-72" x="1803.132812"/>
     <use xlink:href="#DejaVuSans-69" x="1844.246094"/>
     <use xlink:href="#DejaVuSans-62" x="1872.029297"/>
     <use xlink:href="#DejaVuSans-75" x="1935.505859"/>
     <use xlink:href="#DejaVuSans-74" x="1998.884766"/>
     <use xlink:href="#DejaVuSans-69" x="2038.09375"/>
     <use xlink:href="#DejaVuSans-6f" x="2065.876953"/>
     <use xlink:href="#DejaVuSans-6e" x="2127.058594"/>
    </g>
   </g>
  </g>
 </g>
 <defs>
  <clipPath id="paf133bcf18">
   <rect x="43.78125" y="22.318125" width="558" height="332.64"/>
  </clipPath>
 </defs>
</svg>
