<?xml version="1.0" encoding="utf-8" standalone="no"?>
<!DOCTYPE svg PUBLIC "-//W3C//DTD SVG 1.1//EN"
  "http://www.w3.org/Graphics/SVG/1.1/DTD/svg11.dtd">
<svg xmlns:xlink="http://www.w3.org/1999/xlink" width="605.803125pt" height="392.514375pt" viewBox="0 0 605.803125 392.514375" xmlns="http://www.w3.org/2000/svg" version="1.1">
 <metadata>
  <rdf:RDF xmlns:dc="http://purl.org/dc/elements/1.1/" xmlns:cc="http://creativecommons.org/ns#" xmlns:rdf="http://www.w3.org/1999/02/22-rdf-syntax-ns#">
   <cc:Work>
    <dc:type rdf:resource="http://purl.org/dc/dcmitype/StillImage"/>
    <dc:date>2023-04-24T21:55:14.694144</dc:date>
    <dc:format>image/svg+xml</dc:format>
    <dc:creator>
     <cc:Agent>
      <dc:title>Matplotlib v3.5.1, https://matplotlib.org/</dc:title>
     </cc:Agent>
    </dc:creator>
   </cc:Work>
  </rdf:RDF>
 </metadata>
 <defs>
  <style type="text/css">*{stroke-linejoin: round; stroke-linecap: butt}</style>
 </defs>
 <g id="figure_1">
  <g id="patch_1">
   <path d="M 0 392.514375 
L 605.803125 392.514375 
L 605.803125 0 
L 0 0 
z
" style="fill: #ffffff"/>
  </g>
  <g id="axes_1">
   <g id="patch_2">
    <path d="M 40.603125 354.958125 
L 598.603125 354.958125 
L 598.603125 22.318125 
L 40.603125 22.318125 
z
" style="fill: #ffffff"/>
   </g>
   <g id="matplotlib.axis_1">
    <g id="xtick_1">
     <g id="line2d_1">
      <defs>
       <path id="mcc0eadd988" d="M 0 0 
L 0 3.5 
" style="stroke: #000000; stroke-width: 0.8"/>
      </defs>
      <g>
       <use xlink:href="#mcc0eadd988" x="65.966761" y="354.958125" style="stroke: #000000; stroke-width: 0.8"/>
      </g>
     </g>
     <g id="text_1">
      <!-- 0 -->
      <g transform="translate(62.785511 369.556562)scale(0.1 -0.1)">
       <defs>
        <path id="DejaVuSans-30" d="M 2034 4250 
Q 1547 4250 1301 3770 
Q 1056 3291 1056 2328 
Q 1056 1369 1301 889 
Q 1547 409 2034 409 
Q 2525 409 2770 889 
Q 3016 1369 3016 2328 
Q 3016 3291 2770 3770 
Q 2525 4250 2034 4250 
z
M 2034 4750 
Q 2819 4750 3233 4129 
Q 3647 3509 3647 2328 
Q 3647 1150 3233 529 
Q 2819 -91 2034 -91 
Q 1250 -91 836 529 
Q 422 1150 422 2328 
Q 422 3509 836 4129 
Q 1250 4750 2034 4750 
z
" transform="scale(0.015625)"/>
       </defs>
       <use xlink:href="#DejaVuSans-30"/>
      </g>
     </g>
    </g>
    <g id="xtick_2">
     <g id="line2d_2">
      <g>
       <use xlink:href="#mcc0eadd988" x="182.79604" y="354.958125" style="stroke: #000000; stroke-width: 0.8"/>
      </g>
     </g>
     <g id="text_2">
      <!-- 500 -->
      <g transform="translate(173.25229 369.556562)scale(0.1 -0.1)">
       <defs>
        <path id="DejaVuSans-35" d="M 691 4666 
L 3169 4666 
L 3169 4134 
L 1269 4134 
L 1269 2991 
Q 1406 3038 1543 3061 
Q 1681 3084 1819 3084 
Q 2600 3084 3056 2656 
Q 3513 2228 3513 1497 
Q 3513 744 3044 326 
Q 2575 -91 1722 -91 
Q 1428 -91 1123 -41 
Q 819 9 494 109 
L 494 744 
Q 775 591 1075 516 
Q 1375 441 1709 441 
Q 2250 441 2565 725 
Q 2881 1009 2881 1497 
Q 2881 1984 2565 2268 
Q 2250 2553 1709 2553 
Q 1456 2553 1204 2497 
Q 953 2441 691 2322 
L 691 4666 
z
" transform="scale(0.015625)"/>
       </defs>
       <use xlink:href="#DejaVuSans-35"/>
       <use xlink:href="#DejaVuSans-30" x="63.623047"/>
       <use xlink:href="#DejaVuSans-30" x="127.246094"/>
      </g>
     </g>
    </g>
    <g id="xtick_3">
     <g id="line2d_3">
      <g>
       <use xlink:href="#mcc0eadd988" x="299.625318" y="354.958125" style="stroke: #000000; stroke-width: 0.8"/>
      </g>
     </g>
     <g id="text_3">
      <!-- 1000 -->
      <g transform="translate(286.900318 369.556562)scale(0.1 -0.1)">
       <defs>
        <path id="DejaVuSans-31" d="M 794 531 
L 1825 531 
L 1825 4091 
L 703 3866 
L 703 4441 
L 1819 4666 
L 2450 4666 
L 2450 531 
L 3481 531 
L 3481 0 
L 794 0 
L 794 531 
z
" transform="scale(0.015625)"/>
       </defs>
       <use xlink:href="#DejaVuSans-31"/>
       <use xlink:href="#DejaVuSans-30" x="63.623047"/>
       <use xlink:href="#DejaVuSans-30" x="127.246094"/>
       <use xlink:href="#DejaVuSans-30" x="190.869141"/>
      </g>
     </g>
    </g>
    <g id="xtick_4">
     <g id="line2d_4">
      <g>
       <use xlink:href="#mcc0eadd988" x="416.454597" y="354.958125" style="stroke: #000000; stroke-width: 0.8"/>
      </g>
     </g>
     <g id="text_4">
      <!-- 1500 -->
      <g transform="translate(403.729597 369.556562)scale(0.1 -0.1)">
       <use xlink:href="#DejaVuSans-31"/>
       <use xlink:href="#DejaVuSans-35" x="63.623047"/>
       <use xlink:href="#DejaVuSans-30" x="127.246094"/>
       <use xlink:href="#DejaVuSans-30" x="190.869141"/>
      </g>
     </g>
    </g>
    <g id="xtick_5">
     <g id="line2d_5">
      <g>
       <use xlink:href="#mcc0eadd988" x="533.283875" y="354.958125" style="stroke: #000000; stroke-width: 0.8"/>
      </g>
     </g>
     <g id="text_5">
      <!-- 2000 -->
      <g transform="translate(520.558875 369.556562)scale(0.1 -0.1)">
       <defs>
        <path id="DejaVuSans-32" d="M 1228 531 
L 3431 531 
L 3431 0 
L 469 0 
L 469 531 
Q 828 903 1448 1529 
Q 2069 2156 2228 2338 
Q 2531 2678 2651 2914 
Q 2772 3150 2772 3378 
Q 2772 3750 2511 3984 
Q 2250 4219 1831 4219 
Q 1534 4219 1204 4116 
Q 875 4013 500 3803 
L 500 4441 
Q 881 4594 1212 4672 
Q 1544 4750 1819 4750 
Q 2544 4750 2975 4387 
Q 3406 4025 3406 3419 
Q 3406 3131 3298 2873 
Q 3191 2616 2906 2266 
Q 2828 2175 2409 1742 
Q 1991 1309 1228 531 
z
" transform="scale(0.015625)"/>
       </defs>
       <use xlink:href="#DejaVuSans-32"/>
       <use xlink:href="#DejaVuSans-30" x="63.623047"/>
       <use xlink:href="#DejaVuSans-30" x="127.246094"/>
       <use xlink:href="#DejaVuSans-30" x="190.869141"/>
      </g>
     </g>
    </g>
    <g id="text_6">
     <!-- Date -->
     <g transform="translate(307.652344 383.234687)scale(0.1 -0.1)">
      <defs>
       <path id="DejaVuSans-44" d="M 1259 4147 
L 1259 519 
L 2022 519 
Q 2988 519 3436 956 
Q 3884 1394 3884 2338 
Q 3884 3275 3436 3711 
Q 2988 4147 2022 4147 
L 1259 4147 
z
M 628 4666 
L 1925 4666 
Q 3281 4666 3915 4102 
Q 4550 3538 4550 2338 
Q 4550 1131 3912 565 
Q 3275 0 1925 0 
L 628 0 
L 628 4666 
z
" transform="scale(0.015625)"/>
       <path id="DejaVuSans-61" d="M 2194 1759 
Q 1497 1759 1228 1600 
Q 959 1441 959 1056 
Q 959 750 1161 570 
Q 1363 391 1709 391 
Q 2188 391 2477 730 
Q 2766 1069 2766 1631 
L 2766 1759 
L 2194 1759 
z
M 3341 1997 
L 3341 0 
L 2766 0 
L 2766 531 
Q 2569 213 2275 61 
Q 1981 -91 1556 -91 
Q 1019 -91 701 211 
Q 384 513 384 1019 
Q 384 1609 779 1909 
Q 1175 2209 1959 2209 
L 2766 2209 
L 2766 2266 
Q 2766 2663 2505 2880 
Q 2244 3097 1772 3097 
Q 1472 3097 1187 3025 
Q 903 2953 641 2809 
L 641 3341 
Q 956 3463 1253 3523 
Q 1550 3584 1831 3584 
Q 2591 3584 2966 3190 
Q 3341 2797 3341 1997 
z
" transform="scale(0.015625)"/>
       <path id="DejaVuSans-74" d="M 1172 4494 
L 1172 3500 
L 2356 3500 
L 2356 3053 
L 1172 3053 
L 1172 1153 
Q 1172 725 1289 603 
Q 1406 481 1766 481 
L 2356 481 
L 2356 0 
L 1766 0 
Q 1100 0 847 248 
Q 594 497 594 1153 
L 594 3053 
L 172 3053 
L 172 3500 
L 594 3500 
L 594 4494 
L 1172 4494 
z
" transform="scale(0.015625)"/>
       <path id="DejaVuSans-65" d="M 3597 1894 
L 3597 1613 
L 953 1613 
Q 991 1019 1311 708 
Q 1631 397 2203 397 
Q 2534 397 2845 478 
Q 3156 559 3463 722 
L 3463 178 
Q 3153 47 2828 -22 
Q 2503 -91 2169 -91 
Q 1331 -91 842 396 
Q 353 884 353 1716 
Q 353 2575 817 3079 
Q 1281 3584 2069 3584 
Q 2775 3584 3186 3129 
Q 3597 2675 3597 1894 
z
M 3022 2063 
Q 3016 2534 2758 2815 
Q 2500 3097 2075 3097 
Q 1594 3097 1305 2825 
Q 1016 2553 972 2059 
L 3022 2063 
z
" transform="scale(0.015625)"/>
      </defs>
      <use xlink:href="#DejaVuSans-44"/>
      <use xlink:href="#DejaVuSans-61" x="77.001953"/>
      <use xlink:href="#DejaVuSans-74" x="138.28125"/>
      <use xlink:href="#DejaVuSans-65" x="177.490234"/>
     </g>
    </g>
   </g>
   <g id="matplotlib.axis_2">
    <g id="ytick_1">
     <g id="line2d_6">
      <path d="M 40.603125 312.168704 
L 598.603125 312.168704 
" clip-path="url(#p486dd5f622)" style="fill: none; stroke: #dcdcdc; stroke-width: 0.5; stroke-linecap: square"/>
     </g>
     <g id="line2d_7">
      <defs>
       <path id="me8ff66dedd" d="M 0 0 
L -3.5 0 
" style="stroke: #000000; stroke-width: 0.8"/>
      </defs>
      <g>
       <use xlink:href="#me8ff66dedd" x="40.603125" y="312.168704" style="stroke: #000000; stroke-width: 0.8"/>
      </g>
     </g>
     <g id="text_7">
      <!-- 10 -->
      <g transform="translate(20.878125 315.967922)scale(0.1 -0.1)">
       <use xlink:href="#DejaVuSans-31"/>
       <use xlink:href="#DejaVuSans-30" x="63.623047"/>
      </g>
     </g>
    </g>
    <g id="ytick_2">
     <g id="line2d_8">
      <path d="M 40.603125 267.540604 
L 598.603125 267.540604 
" clip-path="url(#p486dd5f622)" style="fill: none; stroke: #dcdcdc; stroke-width: 0.5; stroke-linecap: square"/>
     </g>
     <g id="line2d_9">
      <g>
       <use xlink:href="#me8ff66dedd" x="40.603125" y="267.540604" style="stroke: #000000; stroke-width: 0.8"/>
      </g>
     </g>
     <g id="text_8">
      <!-- 20 -->
      <g transform="translate(20.878125 271.339823)scale(0.1 -0.1)">
       <use xlink:href="#DejaVuSans-32"/>
       <use xlink:href="#DejaVuSans-30" x="63.623047"/>
      </g>
     </g>
    </g>
    <g id="ytick_3">
     <g id="line2d_10">
      <path d="M 40.603125 222.912505 
L 598.603125 222.912505 
" clip-path="url(#p486dd5f622)" style="fill: none; stroke: #dcdcdc; stroke-width: 0.5; stroke-linecap: square"/>
     </g>
     <g id="line2d_11">
      <g>
       <use xlink:href="#me8ff66dedd" x="40.603125" y="222.912505" style="stroke: #000000; stroke-width: 0.8"/>
      </g>
     </g>
     <g id="text_9">
      <!-- 30 -->
      <g transform="translate(20.878125 226.711724)scale(0.1 -0.1)">
       <defs>
        <path id="DejaVuSans-33" d="M 2597 2516 
Q 3050 2419 3304 2112 
Q 3559 1806 3559 1356 
Q 3559 666 3084 287 
Q 2609 -91 1734 -91 
Q 1441 -91 1130 -33 
Q 819 25 488 141 
L 488 750 
Q 750 597 1062 519 
Q 1375 441 1716 441 
Q 2309 441 2620 675 
Q 2931 909 2931 1356 
Q 2931 1769 2642 2001 
Q 2353 2234 1838 2234 
L 1294 2234 
L 1294 2753 
L 1863 2753 
Q 2328 2753 2575 2939 
Q 2822 3125 2822 3475 
Q 2822 3834 2567 4026 
Q 2313 4219 1838 4219 
Q 1578 4219 1281 4162 
Q 984 4106 628 3988 
L 628 4550 
Q 988 4650 1302 4700 
Q 1616 4750 1894 4750 
Q 2613 4750 3031 4423 
Q 3450 4097 3450 3541 
Q 3450 3153 3228 2886 
Q 3006 2619 2597 2516 
z
" transform="scale(0.015625)"/>
       </defs>
       <use xlink:href="#DejaVuSans-33"/>
       <use xlink:href="#DejaVuSans-30" x="63.623047"/>
      </g>
     </g>
    </g>
    <g id="ytick_4">
     <g id="line2d_12">
      <path d="M 40.603125 178.284406 
L 598.603125 178.284406 
" clip-path="url(#p486dd5f622)" style="fill: none; stroke: #dcdcdc; stroke-width: 0.5; stroke-linecap: square"/>
     </g>
     <g id="line2d_13">
      <g>
       <use xlink:href="#me8ff66dedd" x="40.603125" y="178.284406" style="stroke: #000000; stroke-width: 0.8"/>
      </g>
     </g>
     <g id="text_10">
      <!-- 40 -->
      <g transform="translate(20.878125 182.083625)scale(0.1 -0.1)">
       <defs>
        <path id="DejaVuSans-34" d="M 2419 4116 
L 825 1625 
L 2419 1625 
L 2419 4116 
z
M 2253 4666 
L 3047 4666 
L 3047 1625 
L 3713 1625 
L 3713 1100 
L 3047 1100 
L 3047 0 
L 2419 0 
L 2419 1100 
L 313 1100 
L 313 1709 
L 2253 4666 
z
" transform="scale(0.015625)"/>
       </defs>
       <use xlink:href="#DejaVuSans-34"/>
       <use xlink:href="#DejaVuSans-30" x="63.623047"/>
      </g>
     </g>
    </g>
    <g id="ytick_5">
     <g id="line2d_14">
      <path d="M 40.603125 133.656307 
L 598.603125 133.656307 
" clip-path="url(#p486dd5f622)" style="fill: none; stroke: #dcdcdc; stroke-width: 0.5; stroke-linecap: square"/>
     </g>
     <g id="line2d_15">
      <g>
       <use xlink:href="#me8ff66dedd" x="40.603125" y="133.656307" style="stroke: #000000; stroke-width: 0.8"/>
      </g>
     </g>
     <g id="text_11">
      <!-- 50 -->
      <g transform="translate(20.878125 137.455526)scale(0.1 -0.1)">
       <use xlink:href="#DejaVuSans-35"/>
       <use xlink:href="#DejaVuSans-30" x="63.623047"/>
      </g>
     </g>
    </g>
    <g id="ytick_6">
     <g id="line2d_16">
      <path d="M 40.603125 89.028208 
L 598.603125 89.028208 
" clip-path="url(#p486dd5f622)" style="fill: none; stroke: #dcdcdc; stroke-width: 0.5; stroke-linecap: square"/>
     </g>
     <g id="line2d_17">
      <g>
       <use xlink:href="#me8ff66dedd" x="40.603125" y="89.028208" style="stroke: #000000; stroke-width: 0.8"/>
      </g>
     </g>
     <g id="text_12">
      <!-- 60 -->
      <g transform="translate(20.878125 92.827426)scale(0.1 -0.1)">
       <defs>
        <path id="DejaVuSans-36" d="M 2113 2584 
Q 1688 2584 1439 2293 
Q 1191 2003 1191 1497 
Q 1191 994 1439 701 
Q 1688 409 2113 409 
Q 2538 409 2786 701 
Q 3034 994 3034 1497 
Q 3034 2003 2786 2293 
Q 2538 2584 2113 2584 
z
M 3366 4563 
L 3366 3988 
Q 3128 4100 2886 4159 
Q 2644 4219 2406 4219 
Q 1781 4219 1451 3797 
Q 1122 3375 1075 2522 
Q 1259 2794 1537 2939 
Q 1816 3084 2150 3084 
Q 2853 3084 3261 2657 
Q 3669 2231 3669 1497 
Q 3669 778 3244 343 
Q 2819 -91 2113 -91 
Q 1303 -91 875 529 
Q 447 1150 447 2328 
Q 447 3434 972 4092 
Q 1497 4750 2381 4750 
Q 2619 4750 2861 4703 
Q 3103 4656 3366 4563 
z
" transform="scale(0.015625)"/>
       </defs>
       <use xlink:href="#DejaVuSans-36"/>
       <use xlink:href="#DejaVuSans-30" x="63.623047"/>
      </g>
     </g>
    </g>
    <g id="ytick_7">
     <g id="line2d_18">
      <path d="M 40.603125 44.400108 
L 598.603125 44.400108 
" clip-path="url(#p486dd5f622)" style="fill: none; stroke: #dcdcdc; stroke-width: 0.5; stroke-linecap: square"/>
     </g>
     <g id="line2d_19">
      <g>
       <use xlink:href="#me8ff66dedd" x="40.603125" y="44.400108" style="stroke: #000000; stroke-width: 0.8"/>
      </g>
     </g>
     <g id="text_13">
      <!-- 70 -->
      <g transform="translate(20.878125 48.199327)scale(0.1 -0.1)">
       <defs>
        <path id="DejaVuSans-37" d="M 525 4666 
L 3525 4666 
L 3525 4397 
L 1831 0 
L 1172 0 
L 2766 4134 
L 525 4134 
L 525 4666 
z
" transform="scale(0.015625)"/>
       </defs>
       <use xlink:href="#DejaVuSans-37"/>
       <use xlink:href="#DejaVuSans-30" x="63.623047"/>
      </g>
     </g>
    </g>
    <g id="text_14">
     <!-- Price (USD) -->
     <g transform="translate(14.798437 217.01)rotate(-90)scale(0.1 -0.1)">
      <defs>
       <path id="DejaVuSans-50" d="M 1259 4147 
L 1259 2394 
L 2053 2394 
Q 2494 2394 2734 2622 
Q 2975 2850 2975 3272 
Q 2975 3691 2734 3919 
Q 2494 4147 2053 4147 
L 1259 4147 
z
M 628 4666 
L 2053 4666 
Q 2838 4666 3239 4311 
Q 3641 3956 3641 3272 
Q 3641 2581 3239 2228 
Q 2838 1875 2053 1875 
L 1259 1875 
L 1259 0 
L 628 0 
L 628 4666 
z
" transform="scale(0.015625)"/>
       <path id="DejaVuSans-72" d="M 2631 2963 
Q 2534 3019 2420 3045 
Q 2306 3072 2169 3072 
Q 1681 3072 1420 2755 
Q 1159 2438 1159 1844 
L 1159 0 
L 581 0 
L 581 3500 
L 1159 3500 
L 1159 2956 
Q 1341 3275 1631 3429 
Q 1922 3584 2338 3584 
Q 2397 3584 2469 3576 
Q 2541 3569 2628 3553 
L 2631 2963 
z
" transform="scale(0.015625)"/>
       <path id="DejaVuSans-69" d="M 603 3500 
L 1178 3500 
L 1178 0 
L 603 0 
L 603 3500 
z
M 603 4863 
L 1178 4863 
L 1178 4134 
L 603 4134 
L 603 4863 
z
" transform="scale(0.015625)"/>
       <path id="DejaVuSans-63" d="M 3122 3366 
L 3122 2828 
Q 2878 2963 2633 3030 
Q 2388 3097 2138 3097 
Q 1578 3097 1268 2742 
Q 959 2388 959 1747 
Q 959 1106 1268 751 
Q 1578 397 2138 397 
Q 2388 397 2633 464 
Q 2878 531 3122 666 
L 3122 134 
Q 2881 22 2623 -34 
Q 2366 -91 2075 -91 
Q 1284 -91 818 406 
Q 353 903 353 1747 
Q 353 2603 823 3093 
Q 1294 3584 2113 3584 
Q 2378 3584 2631 3529 
Q 2884 3475 3122 3366 
z
" transform="scale(0.015625)"/>
       <path id="DejaVuSans-20" transform="scale(0.015625)"/>
       <path id="DejaVuSans-28" d="M 1984 4856 
Q 1566 4138 1362 3434 
Q 1159 2731 1159 2009 
Q 1159 1288 1364 580 
Q 1569 -128 1984 -844 
L 1484 -844 
Q 1016 -109 783 600 
Q 550 1309 550 2009 
Q 550 2706 781 3412 
Q 1013 4119 1484 4856 
L 1984 4856 
z
" transform="scale(0.015625)"/>
       <path id="DejaVuSans-55" d="M 556 4666 
L 1191 4666 
L 1191 1831 
Q 1191 1081 1462 751 
Q 1734 422 2344 422 
Q 2950 422 3222 751 
Q 3494 1081 3494 1831 
L 3494 4666 
L 4128 4666 
L 4128 1753 
Q 4128 841 3676 375 
Q 3225 -91 2344 -91 
Q 1459 -91 1007 375 
Q 556 841 556 1753 
L 556 4666 
z
" transform="scale(0.015625)"/>
       <path id="DejaVuSans-53" d="M 3425 4513 
L 3425 3897 
Q 3066 4069 2747 4153 
Q 2428 4238 2131 4238 
Q 1616 4238 1336 4038 
Q 1056 3838 1056 3469 
Q 1056 3159 1242 3001 
Q 1428 2844 1947 2747 
L 2328 2669 
Q 3034 2534 3370 2195 
Q 3706 1856 3706 1288 
Q 3706 609 3251 259 
Q 2797 -91 1919 -91 
Q 1588 -91 1214 -16 
Q 841 59 441 206 
L 441 856 
Q 825 641 1194 531 
Q 1563 422 1919 422 
Q 2459 422 2753 634 
Q 3047 847 3047 1241 
Q 3047 1584 2836 1778 
Q 2625 1972 2144 2069 
L 1759 2144 
Q 1053 2284 737 2584 
Q 422 2884 422 3419 
Q 422 4038 858 4394 
Q 1294 4750 2059 4750 
Q 2388 4750 2728 4690 
Q 3069 4631 3425 4513 
z
" transform="scale(0.015625)"/>
       <path id="DejaVuSans-29" d="M 513 4856 
L 1013 4856 
Q 1481 4119 1714 3412 
Q 1947 2706 1947 2009 
Q 1947 1309 1714 600 
Q 1481 -109 1013 -844 
L 513 -844 
Q 928 -128 1133 580 
Q 1338 1288 1338 2009 
Q 1338 2731 1133 3434 
Q 928 4138 513 4856 
z
" transform="scale(0.015625)"/>
      </defs>
      <use xlink:href="#DejaVuSans-50"/>
      <use xlink:href="#DejaVuSans-72" x="58.552734"/>
      <use xlink:href="#DejaVuSans-69" x="99.666016"/>
      <use xlink:href="#DejaVuSans-63" x="127.449219"/>
      <use xlink:href="#DejaVuSans-65" x="182.429688"/>
      <use xlink:href="#DejaVuSans-20" x="243.953125"/>
      <use xlink:href="#DejaVuSans-28" x="275.740234"/>
      <use xlink:href="#DejaVuSans-55" x="314.753906"/>
      <use xlink:href="#DejaVuSans-53" x="387.947266"/>
      <use xlink:href="#DejaVuSans-44" x="451.423828"/>
      <use xlink:href="#DejaVuSans-29" x="528.425781"/>
     </g>
    </g>
   </g>
   <g id="line2d_20">
    <path d="M 65.966761 161.325728 
L 66.20042 162.262918 
L 66.434078 161.638125 
L 67.602371 153.649695 
M 113.16579 177.972009 
L 113.399448 175.919117 
M 115.502375 174.624902 
L 115.969693 173.776968 
M 116.904327 171.500935 
L 117.371644 173.330687 
L 117.605302 172.259613 
L 117.838961 170.117464 
M 121.811156 163.914158 
L 122.044815 166.011679 
M 132.55945 162.262918 
L 132.793109 164.80672 
L 133.026767 164.003414 
L 133.260426 161.414985 
L 133.494084 162.084406 
L 133.727743 162.039778 
L 133.961401 162.575315 
L 134.19506 162.084406 
L 134.428719 159.138951 
L 134.662377 157.710852 
L 135.129694 156.952175 
L 135.597011 152.935646 
L 135.83067 152.087712 
L 136.064328 152.087712 
L 136.297987 153.114158 
L 136.531646 152.043084 
M 146.578964 161.638125 
L 146.812622 164.895976 
L 147.046281 163.646389 
L 147.279939 159.897629 
L 147.513598 160.745563 
L 147.747256 160.790191 
L 147.980915 160.12077 
L 148.214573 158.112505 
L 148.448232 155.077794 
L 148.681891 156.014985 
M 157.327257 158.112505 
L 157.560916 155.211679 
L 157.794574 154.319117 
L 158.028233 152.043084 
L 158.261891 152.712505 
L 158.49555 157.398456 
L 158.729208 157.309199 
L 158.962867 154.229861 
L 159.196526 153.78358 
L 159.430184 150.391844 
L 159.663843 150.659613 
M 165.271648 133.924075 
L 165.505307 131.424902 
M 166.439941 128.791844 
L 166.673599 129.416637 
L 166.907258 125.087712 
M 169.243844 119.286059 
L 169.477502 119.062918 
L 169.711161 113.752175 
L 169.944819 111.967051 
L 170.178478 111.431513 
L 170.412136 114.55548 
L 170.645795 119.196803 
L 170.879453 118.750522 
L 171.113112 114.733993 
L 171.346771 115.091018 
L 171.580429 113.172009 
L 172.047746 107.638125 
L 172.281405 109.423249 
M 203.357993 132.18358 
L 203.591651 132.094323 
L 203.82531 125.489365 
M 209.900432 143.117464 
L 210.134091 142.894323 
L 210.36775 141.243084 
L 210.601408 144.367051 
L 210.835067 139.100935 
L 211.068725 142.98358 
L 211.302384 143.92077 
L 211.536042 140.61829 
L 211.769701 140.39515 
L 212.003359 139.011679 
L 212.237018 136.86953 
L 212.704335 131.291018 
M 232.331654 127.899282 
L 232.565313 127.051348 
M 233.03263 126.471183 
L 233.266288 124.105894 
M 238.406776 104.960439 
L 238.640435 103.621596 
L 238.874094 105.942257 
L 239.107752 105.853001 
L 239.341411 105.585232 
L 239.575069 104.648042 
L 239.808728 104.781927 
L 240.276045 101.167051 
L 240.509703 102.238125 
L 240.977021 100.00672 
M 247.285802 104.112505 
L 247.51946 102.461265 
L 247.753119 101.970356 
L 247.986777 102.416637 
M 251.491656 99.515811 
L 251.725314 102.372009 
L 251.958973 100.00672 
L 252.192631 99.605067 
L 252.42629 99.694323 
L 252.659948 95.54391 
L 252.893607 95.945563 
L 253.127266 91.750522 
L 253.360924 91.170356 
L 253.594583 88.671183 
M 283.736536 97.775315 
L 283.970195 96.704241 
L 284.203854 96.25796 
L 284.437512 96.25796 
M 293.316537 85.056307 
L 293.550196 80.325728 
L 293.783854 81.93234 
L 294.017513 81.753827 
L 294.251172 80.861265 
M 294.718489 76.130687 
L 294.952147 74.077794 
M 309.438978 62.608373 
L 309.672636 60.778621 
L 309.906295 60.198456 
L 310.139953 64.259613 
L 310.373612 65.241431 
L 310.607271 63.902588 
L 310.840929 64.304241 
M 317.850686 63.947216 
L 318.318003 65.776968 
L 318.551661 65.286059 
L 318.78532 66.446389 
L 319.252637 66.535646 
L 319.486296 61.358786 
L 319.719954 60.689365 
M 320.187271 59.439778 
L 320.42093 57.342257 
M 325.561418 48.238125 
L 325.795077 47.300935 
M 360.610202 165.476142 
L 360.84386 160.700935 
L 361.077519 163.824902 
L 361.311177 160.745563 
M 372.994105 179.35548 
L 373.227764 181.453001 
L 373.461422 181.051348 
L 373.92874 177.391844 
L 374.162398 179.221596 
L 374.629715 178.284406 
M 390.518497 155.256307 
L 390.752156 154.765398 
M 408.042889 325.958786 
L 408.276547 325.423249 
L 408.510206 328.413332 
L 408.977523 322.433166 
L 409.211182 321.138951 
M 409.678499 304.26953 
L 409.912157 303.198456 
L 410.145816 294.362092 
L 410.379474 295.790191 
L 410.613133 298.780274 
L 410.846792 298.423249 
L 411.08045 297.486059 
L 411.314109 293.960439 
L 411.547767 295.790191 
M 412.015084 293.424902 
L 412.248743 292.844737 
M 412.949719 287.757133 
L 413.183377 287.712505 
M 415.052646 280.79515 
L 415.286304 276.867877 
L 415.519963 276.243084 
M 419.024841 275.529034 
L 419.492158 277.894323 
L 419.725817 279.813332 
M 430.006793 280.482753 
L 430.240452 276.957133 
M 457.111186 325.914158 
L 457.344844 326.895976 
L 457.578503 323.682753 
L 458.04582 326.271183 
L 458.279479 324.887712 
L 458.513137 325.512505 
L 458.746796 324.173662 
M 464.120943 310.205067 
L 464.354601 308.598456 
M 464.821918 308.375315 
L 465.289235 310.472836 
L 465.522894 309.580274 
L 465.756552 309.446389 
L 465.990211 311.008373 
L 466.22387 311.276142 
L 466.924845 299.895976 
L 467.158504 300.431513 
L 467.392162 298.423249 
L 467.625821 297.753827 
L 467.859479 300.833166 
L 468.093138 295.522423 
M 477.43948 324.575315 
L 477.906797 317.390191 
M 508.28241 314.623249 
L 508.516068 314.891018 
L 508.749727 314.891018 
M 512.955581 312.034819 
L 513.189239 312.570356 
L 513.422898 313.507546 
L 513.656557 313.329034 
L 513.890215 314.13234 
L 514.123874 313.730687 
L 514.357532 313.641431 
L 514.591191 311.900935 
L 514.824849 312.927381 
L 515.292166 310.294323 
L 515.525825 310.338951 
L 515.993142 307.259613 
M 567.398025 314.35548 
L 567.631683 313.953827 
L 567.865342 313.909199 
L 568.099 312.972009 
L 568.332659 312.659613 
M 569.267293 311.499282 
L 569.500952 311.053001 
M 572.772172 305.876142 
" clip-path="url(#p486dd5f622)" style="fill: none; stroke: #00ff7f; stroke-linecap: square"/>
   </g>
   <g id="line2d_21">
    <path d="M 74.378469 147.491018 
L 74.612128 146.01829 
M 75.546762 145.438125 
L 75.780421 148.071183 
M 86.295056 150.079447 
L 86.528714 150.436472 
L 86.762373 150.168704 
L 86.996031 151.998456 
L 87.22969 150.124075 
L 87.463349 150.704241 
L 87.930666 155.613332 
L 88.164324 154.586885 
L 88.397983 154.229861 
L 89.332617 160.745563 
L 90.033593 167.529034 
L 90.267251 165.922423 
M 103.118472 166.011679 
L 103.35213 169.135646 
L 103.585789 170.385232 
M 143.074085 145.750522 
L 143.307744 144.768704 
L 143.541402 147.624902 
L 143.775061 145.839778 
L 144.008719 146.464571 
L 144.242378 146.330687 
L 144.476037 146.419943 
L 144.709695 145.393497 
M 151.719452 142.26953 
L 152.186769 147.044737 
M 174.384332 91.705894 
L 174.61799 91.661265 
M 178.122869 108.887712 
L 178.356527 111.119117 
L 178.590186 111.431513 
L 178.823844 110.181927 
M 192.843358 120.223249 
L 193.077016 120.937299 
L 193.310675 119.598456 
L 193.544333 121.562092 
L 193.777992 121.695976 
L 194.011651 119.107546 
L 194.245309 118.661265 
M 206.629213 119.464571 
L 206.862871 118.661265 
L 207.09653 115.448042 
L 207.563847 113.975315 
L 208.031164 116.340604 
M 227.191166 114.778621 
L 227.424824 116.474489 
M 271.352633 78.228208 
L 271.586292 77.112505 
M 272.053609 72.471183 
L 272.520926 70.284406 
L 272.754584 71.623249 
M 314.813125 51.763745 
L 315.046783 48.59515 
L 315.280442 48.148869 
L 315.5141 48.729034 
L 315.747759 47.8811 
L 315.981417 48.059613 
L 316.215076 49.710852 
M 329.066297 37.438125 
L 329.299955 43.686059 
M 331.169224 49.309199 
L 331.402882 47.568704 
L 331.636541 48.684406 
L 331.870199 53.459613 
L 332.337516 52.924075 
L 332.571175 52.745563 
L 332.804833 51.942257 
L 333.038492 47.970356 
L 333.272151 48.550522 
L 333.739468 50.424902 
L 333.973126 48.014985 
L 334.206785 48.193497 
M 337.244346 101.211679 
L 337.478005 98.980274 
L 337.711663 101.345563 
M 341.917517 111.119117 
L 342.151176 111.074489 
L 342.384834 114.733993 
L 342.618493 115.224902 
L 342.852151 117.947216 
L 343.08581 117.590191 
L 343.319469 120.000108 
L 343.553127 120.446389 
L 343.786786 118.214985 
L 344.020444 117.099282 
L 344.487761 119.866224 
L 344.72142 121.517464 
L 344.955078 120.044737 
L 345.422396 124.507546 
L 345.656054 128.65796 
M 348.226298 154.94391 
L 348.693615 157.978621 
M 349.160932 161.236472 
L 349.861908 158.201761 
L 350.095567 158.69267 
L 350.329225 160.700935 
L 350.562884 161.147216 
L 351.030201 162.709199 
M 364.348739 149.499282 
L 364.582397 149.276142 
M 365.283373 150.168704 
L 365.517031 149.990191 
L 365.75069 150.213332 
L 365.984349 148.695976 
L 366.218007 151.061265 
L 366.451666 150.302588 
M 369.956544 162.084406 
L 370.190203 161.102588 
L 370.423861 161.191844 
L 370.65752 157.487712 
M 371.124837 164.494323 
L 371.358495 163.423249 
M 394.724351 143.563745 
L 394.95801 145.750522 
L 395.191668 145.973662 
L 395.425327 145.393497 
L 395.658985 150.213332 
L 395.892644 148.026555 
L 396.126302 147.357133 
L 396.359961 147.89267 
L 396.827278 145.0811 
L 397.060937 139.413332 
L 397.294595 139.993497 
L 397.528254 139.011679 
L 397.761912 143.474489 
M 400.565815 236.434819 
L 400.799474 234.248042 
M 401.266791 239.067877 
L 401.500449 235.810026 
L 401.734108 237.416637 
M 403.369718 240.719117 
L 403.837035 254.062918 
L 404.070693 250.805067 
L 404.304352 250.358786 
L 404.53801 255.267877 
L 404.771669 253.482753 
L 405.005328 252.679447 
L 405.472645 250.180274 
L 405.706303 250.805067 
L 405.939962 250.581927 
M 423.698012 260.712505 
L 423.931671 254.464571 
L 424.165329 253.750522 
L 424.398988 252.322423 
L 424.632646 252.277794 
L 425.099963 259.953827 
M 426.034598 263.077794 
L 426.268256 266.380274 
M 434.446306 249.912505 
L 434.679964 254.509199 
L 434.913623 252.590191 
L 435.147281 256.829861 
L 435.38094 256.963745 
L 435.614599 259.552175 
M 436.081916 259.105894 
L 436.315574 261.29267 
M 439.119477 273.342257 
L 439.586794 276.466224 
L 439.820453 275.886059 
L 440.054111 276.243084 
L 440.28777 273.788538 
L 440.521428 276.689365 
L 440.755087 275.439778 
L 440.988745 275.752175 
L 441.222404 274.190191 
L 441.456062 275.930687 
L 441.689721 282.044737 
L 441.92338 281.152175 
L 442.157038 285.704241 
L 442.390697 292.576968 
L 442.624355 293.067877 
M 450.568746 308.286059 
L 450.802405 305.474489 
L 451.036063 308.152175 
L 451.269722 307.79515 
M 470.897041 276.33234 
L 471.130699 276.912505 
M 472.065333 284.990191 
L 472.298992 278.653001 
L 472.532651 277.135646 
L 472.766309 276.823249 
L 472.999968 279.813332 
L 473.233626 278.385232 
L 473.467285 282.178621 
L 473.700943 283.919117 
L 474.16826 289.631513 
L 474.401919 290.702588 
M 488.88875 303.823249 
L 489.356067 304.001761 
L 489.589725 303.823249 
L 489.823384 300.922423 
L 490.057042 300.699282 
L 490.290701 304.091018 
L 490.524359 303.064571 
L 490.758018 307.705894 
L 490.991677 307.616637 
L 491.458994 307.929034 
L 491.692652 307.482753 
L 491.926311 308.598456 
M 510.385337 308.776968 
L 510.618995 310.160439 
M 517.395094 300.297629 
L 517.628752 300.119117 
M 524.171192 301.547216 
L 524.40485 301.547216 
M 529.078021 303.243084 
L 529.31168 303.867877 
M 530.012656 302.886059 
L 530.246314 303.243084 
M 542.863876 306.277794 
L 543.097535 305.786885 
M 552.911194 310.651348 
L 553.378511 309.937299 
L 553.61217 310.562092 
M 554.079487 310.517464 
L 554.313146 311.231513 
M 555.014121 312.302588 
L 555.24778 313.105894 
L 555.24778 313.105894 
" clip-path="url(#p486dd5f622)" style="fill: none; stroke: #ff4500; stroke-linecap: square"/>
   </g>
   <g id="line2d_22">
    <path d="M 67.83603 150.882753 
L 68.303347 148.472836 
L 68.537005 148.695976 
L 68.770664 146.598456 
L 69.004323 147.000108 
L 69.237981 146.01829 
L 69.47164 148.071183 
L 69.705298 147.133993 
L 69.938957 147.000108 
L 70.172615 148.294323 
L 70.406274 143.608373 
L 70.639933 145.661265 
L 71.10725 143.697629 
L 71.574567 142.805067 
L 71.808225 141.019943 
L 72.041884 140.61829 
L 72.509201 146.01829 
L 72.74286 145.929034 
L 72.976518 149.276142 
L 73.210177 144.411679 
L 73.677494 151.239778 
L 73.911152 148.829861 
L 74.144811 149.186885 
M 74.845787 147.580274 
L 75.079445 146.01829 
L 75.313104 146.241431 
M 76.014079 149.32077 
L 76.247738 150.882753 
L 76.481396 151.239778 
L 76.715055 156.773662 
L 76.948714 155.791844 
L 77.182372 156.372009 
L 77.416031 156.238125 
L 77.649689 157.53234 
L 77.883348 160.34391 
L 78.117006 155.8811 
L 78.350665 154.631513 
L 79.051641 158.960439 
L 79.518958 155.211679 
L 79.752616 154.542257 
L 79.986275 152.712505 
L 80.453592 162.262918 
L 80.68725 158.960439 
L 80.920909 159.495976 
L 81.388226 154.497629 
L 81.621885 157.621596 
L 81.855543 152.712505 
L 82.089202 155.256307 
L 82.32286 156.014985 
L 82.556519 156.104241 
L 82.790177 157.487712 
L 83.023836 155.122423 
L 83.257495 154.319117 
L 83.491153 155.345563 
L 83.724812 153.738951 
L 83.95847 153.560439 
L 84.192129 150.659613 
L 84.425787 149.856307 
L 84.659446 155.345563 
L 84.893104 153.649695 
L 85.126763 155.970356 
L 85.360422 155.434819 
L 85.59408 153.649695 
L 85.827739 155.345563 
L 86.061397 153.248042 
M 90.50091 169.180274 
L 90.734568 171.902588 
L 90.968227 171.545563 
L 91.201886 171.724075 
L 91.435544 171.679447 
L 91.669203 170.474489 
L 91.902861 172.393497 
L 92.13652 172.214985 
L 92.370178 173.776968 
L 92.603837 174.267877 
L 92.837495 174.491018 
L 93.071154 174.357133 
L 93.304813 173.866224 
L 93.538471 171.991844 
L 94.005788 174.89267 
L 94.239447 172.348869 
L 94.473105 173.821596 
L 94.706764 173.509199 
L 94.940422 168.823249 
L 95.174081 169.403414 
L 95.40774 171.768704 
L 95.641398 168.778621 
L 95.875057 168.510852 
L 96.108715 169.938951 
L 96.342374 173.643084 
L 96.576032 174.803414 
L 96.809691 174.178621 
L 97.043349 174.401761 
L 97.277008 173.776968 
L 97.510667 176.900935 
L 97.744325 177.124075 
L 97.977984 177.972009 
L 98.211642 175.38358 
L 98.445301 174.178621 
L 98.678959 172.259613 
L 98.912618 172.259613 
L 99.146276 173.95548 
M 99.613594 174.937299 
L 99.847252 172.214985 
L 100.080911 172.839778 
L 100.314569 172.125728 
L 100.548228 169.49267 
L 100.781886 171.545563 
L 101.015545 171.590191 
L 101.249203 168.823249 
L 101.482862 169.135646 
L 101.716521 168.957133 
L 101.950179 169.894323 
L 102.183838 170.028208 
L 102.417496 167.930687 
L 102.651155 168.153827 
L 102.884813 169.314158 
M 103.819448 171.947216 
L 104.053106 176.097629 
L 104.286765 173.95548 
L 104.520423 173.776968 
L 104.754082 173.107546 
L 105.221399 174.133993 
L 105.455057 175.829861 
L 105.688716 175.963745 
L 105.922375 175.472836 
L 106.156033 175.740604 
L 106.389692 177.168704 
L 106.62335 177.124075 
L 107.090667 176.231513 
L 107.324326 174.714158 
L 107.557985 175.115811 
L 107.791643 176.677794 
L 108.025302 173.330687 
L 108.25896 173.107546 
L 108.492619 176.856307 
L 108.959936 177.391844 
L 109.193594 176.410026 
L 109.427253 173.910852 
L 109.660912 175.428208 
L 109.89457 174.044737 
L 110.128229 177.302588 
L 110.595546 173.910852 
L 110.829204 173.687712 
L 111.296521 177.034819 
L 111.763839 177.034819 
M 112.231156 180.06953 
L 112.464814 179.667877 
L 112.698473 178.239778 
L 112.932131 179.176968 
M 113.633107 176.990191 
L 113.866766 176.945563 
L 114.334083 175.38358 
L 114.567741 175.294323 
L 114.8014 172.616637 
L 115.035058 173.196803 
L 115.268717 172.527381 
M 116.203351 174.133993 
L 116.43701 169.537299 
L 116.670668 168.689365 
M 118.07262 168.466224 
L 118.306278 167.39515 
L 118.773595 160.834819 
L 119.007254 160.700935 
L 119.474571 163.86953 
L 119.941888 160.700935 
L 120.175547 160.34391 
L 120.876522 163.15548 
L 121.110181 160.165398 
L 121.343839 162.084406 
L 121.577498 160.834819 
M 122.278474 166.011679 
L 122.512132 166.234819 
L 122.745791 164.851348 
L 123.213108 160.254654 
L 123.680425 157.666224 
L 123.914084 158.157133 
L 124.147742 159.094323 
L 124.381401 159.049695 
L 124.615059 158.781927 
L 124.848718 157.175315 
L 125.082376 157.264571 
L 125.316035 159.18358 
L 125.549693 162.039778 
M 126.484328 163.333993 
L 126.717986 161.325728 
L 126.951645 158.335646 
M 127.418962 157.710852 
L 127.65262 158.69267 
L 127.886279 158.514158 
L 128.119938 157.53234 
L 128.353596 157.398456 
L 128.820913 153.203414 
L 129.054572 156.550522 
L 129.755547 157.844737 
L 129.989206 156.416637 
L 130.456523 152.266224 
L 130.690182 154.408373 
L 131.157499 152.623249 
L 131.391157 158.067877 
L 131.624816 156.59515 
L 131.858474 159.049695 
L 132.092133 157.264571 
L 132.325792 157.800108 
M 136.765304 149.276142 
L 136.998963 148.472836 
L 137.232621 150.882753 
M 137.699938 150.25796 
L 137.933597 150.079447 
L 138.400914 147.580274 
L 138.634573 147.580274 
L 139.10189 141.55548 
L 139.335548 141.733993 
L 139.569207 144.277794 
L 139.802865 143.786885 
L 140.270182 146.152175 
L 140.503841 144.679447 
L 140.7375 142.49267 
L 141.204817 148.695976 
L 141.438475 151.373662 
L 141.905792 147.848042 
L 142.139451 147.66953 
L 142.37311 146.152175 
M 144.943354 146.598456 
L 145.177012 145.393497 
L 145.644329 152.846389 
L 145.877988 157.443084 
L 146.111646 156.416637 
L 146.345305 158.291018 
M 148.915549 152.667877 
L 149.149208 152.221596 
L 149.382866 152.176968 
L 149.616525 153.114158 
L 149.850183 151.864571 
L 150.083842 154.140604 
L 150.784818 149.365398 
L 151.018476 145.750522 
L 151.252135 146.643084 
L 151.485793 146.152175 
M 152.887745 149.811679 
L 153.121403 149.990191 
L 153.355062 151.686059 
L 153.58872 150.838125 
L 153.822379 151.953827 
L 154.056037 152.221596 
L 154.289696 155.122423 
L 154.523354 154.586885 
L 154.757013 154.899282 
L 155.22433 159.005067 
L 155.457989 156.639778 
L 155.925306 155.122423 
L 156.158964 155.568704 
L 156.392623 153.738951 
L 156.626281 154.810026 
L 156.85994 158.737299 
L 157.093599 155.970356 
M 159.897501 146.286059 
L 160.13116 148.963745 
L 161.299453 129.461265 
L 161.76677 132.317464 
L 162.000428 136.601761 
L 162.234087 132.094323 
L 162.467745 130.219943 
L 162.701404 131.201761 
L 163.168721 134.682753 
L 163.40238 135.21829 
L 163.636038 131.067877 
L 163.869697 131.781927 
L 164.103355 132.897629 
M 165.738965 130.889365 
L 165.972624 126.828208 
L 166.206282 129.193497 
M 167.140917 125.444737 
L 167.374575 125.400108 
L 167.608234 120.580274 
L 167.841892 124.41829 
L 168.075551 123.213332 
L 168.309209 124.998456 
L 168.776526 118.259613 
L 169.010185 120.000108 
M 172.515063 104.603414 
L 172.748722 99.515811 
L 172.98238 99.694323 
L 173.216039 97.239778 
L 173.683356 95.856307 
L 173.917015 97.061265 
L 174.150673 94.071183 
M 175.318966 94.338951 
L 175.552625 95.142257 
L 175.786283 94.160439 
L 176.019942 98.35548 
M 176.487259 106.611679 
L 176.720917 107.905894 
M 177.188235 110.449695 
L 177.421893 110.449695 
L 177.655552 115.537299 
L 177.88921 114.064571 
M 179.057503 110.672836 
L 179.291162 115.314158 
L 179.758479 117.010026 
L 179.992137 118.482753 
L 180.225796 117.099282 
L 180.459454 117.456307 
L 180.693113 116.563745 
L 180.926771 123.838125 
L 181.16043 124.41829 
L 181.627747 127.497629 
L 181.861406 122.900935 
L 182.095064 125.623249 
L 182.328723 117.813332 
L 182.562381 120.044737 
L 182.79604 114.689365 
L 183.029698 117.545563 
L 183.263357 115.98358 
L 183.497016 113.61829 
L 183.964333 121.338951 
L 184.43165 124.686059 
L 184.665308 120.491018 
L 184.898967 119.95548 
L 185.132625 119.73234 
L 185.599943 114.600108 
L 185.833601 118.125728 
L 186.06726 117.545563 
L 186.300918 121.249695 
L 186.534577 120.089365 
L 186.768235 123.168704 
L 187.001894 123.391844 
L 187.235552 125.087712 
L 187.469211 125.087712 
L 187.70287 123.124075 
L 187.936528 122.142257 
L 188.170187 124.596803 
L 188.403845 125.400108 
L 188.637504 123.882753 
L 188.871162 121.428208 
L 189.104821 125.310852 
L 189.338479 122.053001 
L 189.572138 116.162092 
L 189.805797 120.624902 
L 190.039455 118.0811 
L 190.273114 117.277794 
L 190.506772 123.168704 
L 190.740431 125.043084 
L 190.974089 125.757133 
L 191.207748 122.945563 
L 191.675065 126.158786 
L 191.908724 129.461265 
L 192.609699 122.410026 
M 194.478968 118.170356 
L 194.712626 117.322423 
L 195.179943 124.864571 
L 195.413602 125.400108 
L 196.114578 132.18358 
L 196.348236 131.737299 
L 196.581895 130.889365 
L 197.049212 134.504241 
L 197.28287 133.165398 
L 197.750188 126.114158 
L 197.983846 128.836472 
L 198.217505 128.524075 
L 198.684822 134.325728 
M 199.152139 134.99515 
L 199.619456 137.672836 
L 200.320432 133.522423 
L 200.55409 127.408373 
L 200.787749 127.274489 
L 201.021407 130.53234 
L 201.255066 128.65796 
L 201.488724 128.211679 
L 201.722383 129.193497 
L 201.956042 127.319117 
L 202.1897 123.525728 
L 202.423359 127.72077 
L 202.657017 128.345563 
L 202.890676 130.978621 
L 203.124334 127.765398 
M 204.058969 123.4811 
L 204.292627 123.213332 
L 204.526286 123.927381 
L 204.759944 122.454654 
L 204.993603 121.874489 
L 205.227261 124.775315 
L 205.46092 125.489365 
L 205.694578 124.016637 
L 205.928237 120.758786 
L 206.161896 123.659613 
L 206.395554 121.919117 
M 208.264823 119.910852 
L 208.73214 138.297629 
L 208.965798 136.200108 
L 209.199457 132.138951 
L 209.433115 131.781927 
L 209.666774 135.530687 
M 212.937994 128.390191 
L 213.171652 127.185232 
L 213.872628 120.624902 
L 214.106287 124.686059 
L 214.339945 124.686059 
L 214.573604 121.160439 
L 214.807262 122.142257 
L 215.274579 118.214985 
L 215.741896 121.472836 
L 215.975555 119.866224 
L 216.209214 122.499282 
L 216.442872 120.267877 
L 216.676531 121.428208 
L 216.910189 121.294323 
L 217.143848 115.581927 
L 217.377506 115.671183 
L 217.611165 114.510852 
L 217.844823 114.33234 
L 218.078482 115.046389 
L 218.312141 113.573662 
L 218.545799 117.456307 
L 218.779458 116.742257 
L 219.013116 115.49267 
L 219.480433 123.168704 
L 219.714092 118.482753 
L 220.181409 117.456307 
L 220.415068 115.091018 
L 220.648726 117.054654 
L 220.882385 125.043084 
L 221.116043 122.499282 
L 221.349702 118.616637 
L 221.58336 117.277794 
L 222.050677 123.570356 
L 222.284336 118.304241 
L 222.517995 124.061265 
L 223.21897 117.679447 
L 223.452629 121.472836 
L 223.919946 123.124075 
L 224.153604 121.294323 
L 224.387263 121.472836 
L 224.620922 120.580274 
L 225.088239 125.578621 
L 225.321897 119.73234 
L 225.555556 119.643084 
L 225.789214 121.517464 
L 226.022873 122.186885 
L 226.256531 126.29267 
L 226.49019 126.024902 
L 226.957507 121.60672 
M 227.658483 119.776968 
L 227.892141 120.000108 
L 228.1258 119.330687 
L 228.359458 115.448042 
L 228.593117 116.072836 
L 228.826776 115.894323 
L 229.060434 116.653001 
L 229.294093 116.162092 
L 229.527751 119.419943 
L 229.76141 120.535646 
L 229.995068 120.178621 
L 230.696044 124.462918 
L 230.929703 123.704241 
L 231.163361 122.231513 
M 231.630678 118.438125 
L 231.864337 122.633166 
L 232.097995 120.357133 
M 233.499947 121.472836 
L 234.66824 100.363745 
L 234.901898 105.40672 
L 235.135557 105.808373 
L 235.369215 105.540604 
L 235.602874 107.236472 
L 235.836532 106.12077 
L 236.070191 110.628208 
L 236.303849 110.405067 
L 236.537508 107.99515 
L 236.771167 107.727381 
L 237.004825 106.879447 
L 237.238484 107.370356 
L 238.173118 96.436472 
M 241.210679 100.274489 
L 241.444338 97.686059 
L 241.677996 93.491018 
L 242.145313 95.365398 
L 242.378972 95.410026 
L 242.61263 93.66953 
L 242.846289 94.160439 
L 243.079948 95.633166 
L 243.313606 92.643084 
L 243.780923 90.277794 
M 244.24824 91.170356 
L 244.481899 96.927381 
L 244.715557 94.963745 
L 244.949216 94.60672 
L 245.182875 92.152175 
L 245.416533 93.937299 
L 245.650192 92.553827 
L 245.88385 94.249695 
L 246.117509 94.160439 
L 246.584826 91.036472 
L 246.818484 90.902588 
L 247.052143 96.168704 
M 248.220436 99.024902 
L 248.454094 99.024902 
L 249.15507 93.446389 
L 249.388729 92.866224 
L 249.622387 92.821596 
L 249.856046 93.491018 
L 250.323363 92.375315 
L 250.557021 92.866224 
L 250.79068 92.419943 
L 251.257997 93.044737 
M 253.828241 87.644737 
L 254.0619 86.350522 
L 254.295558 82.110852 
L 254.529217 83.226555 
L 254.996534 80.05796 
L 255.230193 75.729034 
L 255.463851 75.550522 
L 255.69751 77.424902 
L 255.931168 75.729034 
M 256.398485 75.862918 
L 256.632144 75.550522 
L 256.865802 77.558786 
L 257.099461 77.291018 
L 257.33312 79.433166 
L 257.566778 79.522423 
L 258.034095 74.8811 
L 258.267754 78.317464 
L 258.501412 77.514158 
L 258.735071 71.533993 
L 258.968729 71.043084 
L 259.436047 64.973662 
L 259.669705 69.391844 
L 259.903364 67.472836 
L 260.137022 67.919117 
L 260.370681 72.515811 
L 260.604339 68.677794 
L 260.837998 70.284406 
L 261.071656 68.410026 
L 261.538974 69.347216 
L 262.006291 70.462918 
L 262.239949 66.624902 
L 262.473608 67.026555 
L 262.707266 70.462918 
L 263.174583 72.29267 
L 264.109218 68.722423 
L 264.342876 68.900935 
L 264.810193 73.363745 
L 265.043852 73.586885 
L 265.27751 72.917464 
L 265.511169 70.819943 
L 265.744828 70.641431 
L 266.212145 77.246389 
L 266.679462 65.95548 
M 267.146779 68.097629 
L 267.380438 71.846389 
L 267.614096 72.560439 
L 267.847755 73.676142 
L 268.081413 79.656307 
L 268.315072 78.495976 
L 268.54873 80.682753 
L 268.782389 80.370356 
L 269.016047 80.950522 
L 269.483365 75.684406 
L 269.717023 76.086059 
L 269.950682 75.238125 
L 270.18434 85.324075 
L 270.417999 82.110852 
L 270.651657 85.368704 
L 271.118974 80.816637 
M 272.988243 76.309199 
L 273.45556 81.173662 
L 273.689219 83.80672 
L 274.156536 94.294323 
L 274.390194 94.60672 
L 275.09117 91.393497 
M 275.558487 92.107546 
L 275.792146 87.376968 
L 276.025804 89.92077 
L 276.493121 84.877794 
L 276.960438 85.279447 
L 277.194097 87.644737 
L 277.895073 84.922423 
L 278.128731 85.904241 
L 278.36239 84.610026 
L 278.596048 79.567051 
L 279.063365 87.867877 
L 279.297024 88.135646 
L 279.530682 89.786885 
L 279.998 80.013332 
L 280.231658 91.661265 
L 280.465317 95.722423 
L 280.698975 95.811679 
L 280.932634 97.284406 
L 281.166292 93.044737 
L 281.399951 94.785232 
L 281.633609 94.963745 
L 281.867268 96.25796 
L 282.100927 92.776968 
L 282.334585 92.062918 
L 282.568244 94.785232 
L 282.801902 92.196803 
L 283.035561 85.725728 
L 283.269219 86.975315 
L 283.502878 94.38358 
M 284.671171 94.38358 
L 284.904829 92.643084 
L 285.138488 92.01829 
L 285.372146 89.831513 
L 285.605805 86.39515 
L 285.839464 91.259613 
L 286.073122 88.98358 
L 286.306781 84.386885 
L 286.540439 85.368704 
L 286.774098 83.985232 
L 287.007756 84.029861 
L 287.241415 83.315811 
L 287.475073 83.717464 
L 287.708732 83.762092 
L 287.942391 88.671183 
L 288.176049 84.163745 
L 288.643366 87.376968 
L 288.877025 86.39515 
L 289.110683 86.61829 
L 289.344342 83.58358 
L 289.578 87.689365 
L 289.811659 88.715811 
L 290.045318 85.100935 
L 290.278976 86.305894 
L 290.512635 86.439778 
L 290.746293 81.084406 
L 291.21361 84.119117 
L 291.447269 82.958786 
L 291.680927 84.610026 
M 292.148245 85.279447 
L 292.381903 85.636472 
L 292.615562 86.261265 
M 295.653123 75.907546 
L 296.12044 71.533993 
L 296.354099 68.32077 
L 296.587757 67.785232 
L 297.055074 60.778621 
L 297.288733 61.715811 
L 297.522391 58.904241 
L 297.75605 62.92077 
L 297.989708 61.448042 
L 298.223367 61.938951 
L 298.457026 63.322423 
L 298.690684 61.091018 
L 298.924343 66.000108 
L 299.158001 66.133993 
L 299.39166 63.902588 
L 299.625318 63.367051 
L 299.858977 63.724075 
L 300.092635 58.368704 
L 300.326294 62.162092 
L 300.559953 59.61829 
L 300.793611 61.537299 
L 301.02727 56.405067 
L 301.494587 55.378621 
L 301.728245 53.950522 
L 301.961904 56.940604 
L 302.195563 56.271183 
L 302.429221 59.439778 
L 302.66288 60.644737 
L 302.896538 60.644737 
L 303.130197 59.841431 
L 303.597514 55.646389 
L 303.831172 56.181927 
L 304.064831 57.74391 
L 304.29849 57.476142 
L 304.532148 57.74391 
L 304.765807 55.467877 
L 304.999465 57.163745 
L 305.233124 55.646389 
L 305.466782 55.423249 
L 305.700441 55.378621 
L 305.934099 57.119117 
L 306.167758 56.315811 
L 306.401417 54.262918 
L 306.635075 54.843084 
L 306.868734 57.788538 
M 307.336051 57.565398 
L 307.569709 60.198456 
L 307.803368 58.725728 
L 308.037026 58.814985 
L 308.504344 57.163745 
L 308.971661 58.814985 
L 309.205319 60.064571 
M 311.074588 62.563745 
L 311.308246 61.537299 
L 311.541905 61.224902 
L 311.775563 56.494323 
L 312.009222 56.137299 
L 312.710198 49.353827 
L 312.943856 49.53234 
L 313.177515 50.112505 
L 313.411173 50.291018 
L 313.644832 48.773662 
L 313.87849 51.138951 
L 314.112149 51.495976 
L 314.345807 56.315811 
L 314.579466 55.735646 
M 316.448734 53.191844 
L 316.682393 52.790191 
L 317.14971 61.805067 
L 317.383369 61.805067 
L 317.617027 60.600108 
M 320.654589 54.93234 
L 320.888247 52.165398 
L 321.121906 53.772009 
M 322.05654 55.780274 
L 322.290198 54.709199 
L 322.523857 52.34391 
L 322.757516 51.585232 
L 322.991174 49.264571 
L 323.224833 50.871183 
L 323.69215 47.747216 
M 324.626784 48.104241 
L 325.094101 46.363745 
L 325.32776 48.952175 
M 326.028735 45.872836 
L 326.262394 44.846389 
L 326.496052 45.381927 
L 326.96337 43.016637 
L 327.197028 43.239778 
L 327.430687 43.909199 
L 327.664345 42.704241 
L 327.898004 44.980274 
L 328.131662 45.114158 
L 328.365321 45.828208 
L 328.832638 41.54391 
M 329.533614 46.408373 
L 329.767272 43.998456 
L 330.000931 43.150522 
L 330.468248 47.613332 
L 330.701906 48.639778 
L 330.935565 48.059613 
M 334.440443 68.945563 
L 334.90776 118.348869 
L 335.141419 100.453001 
L 335.375078 104.915811 
L 335.608736 102.416637 
M 336.076053 101.256307 
L 336.309712 101.925728 
L 336.54337 103.844737 
L 336.777029 103.576968 
L 337.010687 101.836472 
M 337.945322 103.978621 
L 338.17898 103.309199 
L 338.412639 103.443084 
L 338.879956 107.638125 
L 339.113615 107.102588 
L 339.347273 102.639778 
M 339.81459 104.157133 
L 340.048249 108.530687 
L 340.281907 110.672836 
L 340.749224 121.829861 
L 340.982883 117.010026 
L 341.683859 114.957133 
M 345.889713 158.201761 
L 346.123371 157.889365 
L 346.35703 158.424902 
L 346.824347 156.81829 
L 347.058005 156.729034 
L 347.291664 158.246389 
L 347.525323 161.459613 
L 347.758981 162.575315 
L 347.99264 159.138951 
M 351.263859 162.486059 
L 351.497518 164.985232 
L 351.731177 169.448042 
L 351.964835 167.439778 
L 352.198494 166.814985 
L 352.665811 176.945563 
L 353.133128 180.605067 
L 353.366786 186.138951 
L 353.600445 184.666224 
L 354.067762 179.043084 
L 354.301421 182.390191 
L 354.535079 178.462918 
L 354.768738 176.499282 
L 355.002396 178.239778 
M 355.469714 177.882753 
L 355.703372 173.196803 
L 355.937031 173.553827 
L 356.170689 177.25796 
L 356.404348 173.419943 
L 356.638006 172.661265 
L 356.871665 175.071183 
L 357.105323 169.581927 
L 357.338982 167.484406 
L 357.572641 173.286059 
L 357.806299 170.563745 
L 358.273616 167.484406 
L 358.507275 155.524075 
L 358.740933 159.674489 
L 358.974592 159.674489 
L 359.20825 155.613332 
L 359.441909 158.291018 
L 359.675568 162.887712 
L 359.909226 165.074489 
L 360.142885 159.853001 
L 360.376543 164.538951 
M 361.544836 163.423249 
L 361.778495 161.861265 
M 362.245812 160.299282 
L 362.47947 160.567051 
L 362.713129 158.514158 
L 362.946787 159.763745 
L 363.180446 156.862918 
L 363.414104 157.621596 
L 363.647763 154.453001 
L 363.881422 153.337299 
L 364.11508 147.937299 
M 364.816056 152.712505 
L 365.049714 153.426555 
M 366.685324 152.087712 
L 366.918983 158.781927 
L 367.152641 156.505894 
L 367.3863 157.666224 
L 367.619958 165.922423 
L 367.853617 166.725728 
L 368.087276 163.200108 
L 368.554593 163.86953 
L 369.02191 166.770356 
L 369.255568 168.376968 
L 369.722885 163.958786 
M 371.592154 168.153827 
L 371.825812 169.358786 
L 372.059471 169.448042 
L 372.29313 173.152175 
L 372.526788 170.831513 
L 372.760447 171.813332 
M 374.863374 175.919117 
L 375.097032 165.253001 
L 375.330691 168.064571 
L 375.564349 166.591844 
L 375.798008 167.261265 
L 376.031667 166.190191 
L 376.265325 166.859613 
M 376.732642 160.567051 
L 376.966301 159.629861 
L 377.199959 155.836472 
L 377.433618 155.568704 
L 377.667276 161.682753 
L 377.900935 161.99515 
L 378.134594 161.950522 
L 379.069228 168.733993 
L 379.302886 168.198456 
L 379.536545 171.85796 
L 379.770203 171.456307 
L 380.003862 167.172009 
L 380.237521 164.940604 
L 380.471179 157.309199 
L 380.704838 162.753827 
L 381.172155 164.538951 
L 381.405813 167.082753 
L 381.639472 167.975315 
L 381.87313 165.074489 
L 382.106789 157.844737 
L 382.340448 161.950522 
L 382.574106 160.031513 
L 382.807765 160.879447 
M 383.275082 165.833166 
L 383.50874 165.610026 
L 383.742399 162.798456 
L 383.976057 156.907546 
L 384.209716 154.854654 
L 384.443375 156.952175 
L 384.910692 157.75548 
L 385.14435 160.611679 
M 385.611667 162.173662 
L 386.078984 147.491018 
L 386.312643 146.95548 
L 386.546302 150.704241 
L 386.77996 147.000108 
L 387.013619 147.044737 
L 387.247277 153.605067 
L 387.480936 152.489365 
L 387.714594 150.391844 
L 387.948253 150.213332 
L 388.181911 151.909199 
L 388.649229 147.178621 
L 388.882887 147.848042 
L 389.116546 146.152175 
L 389.350204 148.338951 
L 389.583863 147.401761 
L 389.817521 147.981927 
L 390.284838 152.221596 
M 390.985814 151.462918 
L 391.219473 152.087712 
L 391.453131 145.170356 
L 391.920448 147.089365 
L 392.154107 142.805067 
L 392.387766 142.938951 
L 392.621424 140.127381 
L 393.088741 148.740604 
L 394.023375 138.297629 
L 394.257034 141.510852 
L 394.490693 138.788538 
M 397.995571 178.641431 
L 398.229229 209.613332 
L 398.462888 210.773662 
L 398.696547 242.593497 
M 399.163864 247.904241 
L 399.397522 252.991844 
L 399.631181 251.876142 
L 399.864839 248.350522 
L 400.098498 250.403414 
L 400.332156 244.691018 
M 401.967766 240.629861 
L 402.201425 241.700935 
L 402.435083 241.254654 
L 402.668742 240.495976 
L 402.902401 239.023249 
L 403.136059 238.487712 
M 406.640937 272.226555 
L 406.874596 278.429861 
L 407.108255 277.224902 
L 407.341913 277.537299 
L 407.575572 278.295976 
L 407.80923 319.398456 
M 412.482401 287.935646 
L 412.71606 288.917464 
M 413.417036 277.626555 
L 413.650694 275.529034 
L 413.884353 270.21829 
L 414.118011 273.029861 
L 414.585328 274.145563 
L 414.818987 277.358786 
M 415.753621 275.082753 
L 415.98728 274.859613 
L 416.220938 271.691018 
M 416.688255 270.307546 
L 416.921914 271.021596 
M 417.389231 269.727381 
L 417.62289 269.102588 
L 417.856548 270.084406 
L 418.090207 271.691018 
L 418.323865 271.646389 
L 418.557524 271.780274 
L 418.791182 270.129034 
M 419.959475 277.358786 
L 420.193134 276.421596 
L 420.426792 277.98358 
L 420.660451 274.368704 
L 421.361427 268.968704 
L 421.595085 272.80672 
L 421.828744 272.58358 
L 422.062402 271.423249 
L 422.296061 253.79515 
L 422.529719 250.938951 
L 422.763378 257.454654 
L 422.997036 259.284406 
L 423.230695 263.077794 
L 423.464354 261.29267 
M 425.333622 263.256307 
L 425.567281 260.891018 
L 425.800939 261.560439 
M 426.501915 270.441431 
L 426.735573 273.788538 
L 426.969232 275.439778 
L 427.202891 274.859613 
L 427.436549 276.198456 
L 427.670208 275.707546 
L 427.903866 280.839778 
L 428.604842 272.003414 
L 428.8385 272.048042 
L 429.072159 272.762092 
L 429.539476 280.348869 
L 429.773135 277.448042 
M 430.47411 273.163745 
L 430.707769 264.193497 
L 430.941427 263.211679 
L 431.408745 268.567051 
L 431.876062 275.39515 
L 432.10972 275.172009 
L 432.343379 274.324075 
L 432.810696 271.378621 
L 433.044354 265.175315 
L 433.278013 251.608373 
L 433.511672 254.330687 
M 433.978989 260.400108 
L 434.212647 259.864571 
M 436.549233 265.53234 
L 436.782891 270.21829 
L 437.01655 277.626555 
L 437.483867 274.45796 
L 437.717526 274.413332 
L 437.951184 277.403414 
L 438.184843 278.028208 
L 438.418501 272.494323 
L 438.65216 272.494323 
L 438.885818 274.904241 
M 442.858014 309.178621 
L 443.325331 302.127381 
L 443.792648 307.527381 
L 444.026307 304.135646 
L 444.493624 308.509199 
L 444.727282 310.249695 
L 444.960941 310.160439 
L 445.428258 309.089365 
L 445.661917 309.66953 
L 445.895575 311.32077 
L 446.129234 306.85796 
L 446.596551 309.133993 
L 446.830209 311.722423 
L 447.063868 306.902588 
L 447.297526 307.661265 
L 447.531185 306.991844 
L 447.998502 302.350522 
M 448.465819 305.295976 
L 448.699478 308.01829 
L 448.933136 308.73234 
L 449.166795 309.044737 
L 449.400453 311.633166 
L 449.867771 312.614985 
L 450.101429 316.810026 
L 450.335088 314.176968 
M 451.50338 322.031513 
L 451.737039 321.005067 
L 451.970698 322.567051 
L 452.204356 322.388538 
L 452.438015 321.629861 
L 452.905332 322.165398 
L 453.13899 320.915811 
L 453.372649 320.648042 
L 453.606307 320.201761 
L 453.839966 324.664571 
L 454.073625 334.482753 
M 454.540942 334.348869 
L 454.7746 329.39515 
L 455.008259 329.261265 
L 455.241917 328.100935 
L 455.709234 321.094323 
L 456.176552 329.930687 
L 456.41021 327.877794 
M 458.980454 323.772009 
L 459.447771 323.102588 
L 459.68143 323.504241 
L 459.915088 321.719117 
L 460.616064 313.150522 
L 460.849723 313.730687 
L 461.31704 301.814985 
L 461.550698 302.61829 
L 462.018015 306.634819 
L 462.251674 313.641431 
L 462.485333 308.107546 
M 462.95265 308.062918 
L 463.186308 307.750522 
L 463.419967 307.973662 
L 463.653625 307.929034 
L 463.887284 308.330687 
M 468.326797 293.112505 
L 468.560455 294.138951 
L 468.794114 290.077794 
L 469.027772 289.631513 
L 469.261431 290.256307 
L 469.495089 288.917464 
L 469.728748 279.724075 
L 469.962406 282.044737 
L 470.196065 281.419943 
L 470.429724 281.643084 
L 470.663382 279.367051 
M 471.364358 281.509199 
L 471.598016 282.000108 
L 471.831675 284.499282 
M 474.635578 289.274489 
L 474.869236 289.497629 
L 475.102895 293.112505 
L 475.336553 300.476142 
L 475.570212 294.763745 
L 475.80387 303.064571 
L 476.037529 316.363745 
L 476.271187 311.231513 
L 476.504846 316.854654 
L 476.738505 315.649695 
L 476.972163 324.352175 
L 477.205822 321.495976 
M 478.140456 315.515811 
L 478.374114 313.105894 
L 478.607773 313.953827 
L 478.841432 313.641431 
L 479.308749 319.219943 
L 479.542407 319.844737 
L 479.776066 321.40672 
L 480.009724 318.59515 
L 480.243383 318.550522 
L 480.477042 308.152175 
L 480.7107 303.287712 
L 480.944359 305.028208 
L 481.178017 303.421596 
L 481.411676 306.322423 
L 481.645334 307.125728 
L 481.878993 305.876142 
L 482.34631 308.419943 
L 482.579969 307.705894 
L 482.813627 307.705894 
L 483.047286 309.446389 
L 483.280944 310.026555 
L 483.514603 308.062918 
L 483.748261 309.89267 
L 483.98192 309.312505 
L 484.215578 311.54391 
L 484.682896 304.091018 
L 485.150213 307.0811 
L 485.383871 305.072836 
L 485.61753 306.367051 
L 486.084847 307.214985 
L 486.318505 307.259613 
L 486.552164 306.233166 
L 486.785823 302.038125 
L 487.019481 303.867877 
L 487.25314 303.243084 
L 487.720457 304.581927 
L 487.954115 307.348869 
L 488.187774 308.01829 
L 488.421432 304.671183 
L 488.655091 303.867877 
M 492.159969 311.186885 
L 492.393628 312.302588 
L 492.627286 312.570356 
L 493.094604 313.373662 
L 493.328262 316.051348 
L 493.561921 316.363745 
L 493.795579 317.211679 
L 494.029238 316.497629 
L 494.262896 314.623249 
L 494.730213 316.810026 
L 495.197531 318.461265 
L 495.431189 316.229861 
L 495.664848 316.363745 
L 495.898506 315.024902 
L 496.365823 316.542257 
L 496.83314 315.158786 
L 497.066799 314.444737 
L 497.300458 314.400108 
L 497.534116 314.533993 
L 497.767775 315.024902 
L 498.001433 316.408373 
L 498.235092 316.899282 
L 498.46875 315.738951 
L 498.936068 315.06953 
L 499.169726 316.185232 
L 499.403385 316.453001 
L 499.637043 317.167051 
L 499.870702 316.185232 
L 500.10436 316.185232 
L 500.338019 316.051348 
L 500.571677 316.229861 
L 500.805336 315.381927 
L 501.038995 313.864571 
L 501.506312 315.872836 
L 501.73997 315.024902 
L 501.973629 315.605067 
L 502.207287 316.94391 
L 502.440946 316.274489 
L 502.674604 316.051348 
L 502.908263 316.140604 
M 503.37558 315.872836 
L 503.609239 316.051348 
L 503.842897 315.471183 
M 504.310214 315.426555 
L 504.543873 315.917464 
L 505.01119 315.649695 
L 505.478507 316.631513 
L 505.712166 316.363745 
L 505.945824 313.775315 
L 506.179483 313.150522 
L 506.6468 313.150522 
L 507.114117 313.819943 
L 507.347776 312.838125 
L 507.581434 313.953827 
L 508.048751 312.168704 
M 508.983385 312.927381 
L 509.450703 312.436472 
L 510.151678 309.624902 
M 510.852654 310.740604 
L 511.086312 310.517464 
L 511.319971 309.89267 
L 511.55363 309.803414 
L 511.787288 308.509199 
L 512.020947 308.062918 
L 512.488264 311.142257 
L 512.721922 311.053001 
M 516.226801 305.92077 
L 516.694118 304.49267 
L 516.927776 300.342257 
L 517.161435 301.948869 
M 517.862411 299.58358 
L 518.096069 300.386885 
L 518.329728 299.985232 
L 518.797045 300.163745 
L 519.030703 300.877794 
L 519.264362 300.565398 
L 519.498021 301.056307 
L 519.731679 300.877794 
L 519.965338 301.814985 
L 520.198996 301.502588 
L 520.432655 303.153827 
L 520.899972 303.912505 
L 521.13363 302.350522 
L 521.367289 302.975315 
L 521.600948 302.172009 
L 521.834606 302.038125 
L 522.068265 302.082753 
L 522.301923 301.279447 
L 522.535582 300.967051 
L 523.002899 301.814985 
L 523.236557 303.421596 
L 523.470216 301.725728 
L 523.703875 301.190191 
L 523.937533 302.305894 
M 524.638509 301.859613 
L 525.105826 302.305894 
L 525.339484 302.439778 
L 525.573143 302.796803 
L 525.806802 304.001761 
L 526.04046 302.172009 
L 526.274119 303.109199 
L 526.507777 302.172009 
L 526.975094 304.49267 
L 527.442411 307.438125 
L 527.67607 308.643084 
L 527.909729 305.20672 
L 528.143387 305.786885 
L 528.377046 305.519117 
L 528.844363 303.376968 
M 529.545338 303.733993 
L 529.778997 304.314158 
M 530.479973 304.135646 
L 530.713631 304.135646 
L 530.94729 304.537299 
L 531.180948 304.314158 
L 531.414607 304.849695 
L 531.881924 306.679447 
L 532.115583 305.876142 
M 532.5829 309.89267 
L 532.816558 307.839778 
L 533.517534 308.910852 
L 533.751193 308.375315 
L 534.21851 306.188538 
L 534.452168 305.653001 
L 534.685827 305.697629 
L 534.919485 305.429861 
L 535.153144 303.912505 
L 535.386802 303.823249 
L 535.620461 304.046389 
L 535.85412 306.367051 
L 536.087778 306.545563 
L 536.555095 308.062918 
L 536.788754 306.322423 
L 537.022412 303.733993 
L 537.256071 302.930687 
L 537.489729 305.429861 
L 537.723388 305.519117 
L 537.957047 304.537299 
L 538.190705 305.474489 
L 538.424364 304.760439 
L 538.658022 305.742257 
L 539.125339 306.411679 
M 539.592656 305.117464 
L 539.826315 304.760439 
L 540.293632 303.823249 
L 540.760949 306.813332 
L 540.994608 306.813332 
L 541.228266 307.036472 
L 541.461925 307.750522 
L 541.695583 307.839778 
L 542.162901 309.312505 
L 542.396559 308.643084 
L 542.630218 308.643084 
M 544.265828 308.241431 
L 544.499486 308.196803 
L 544.733145 310.071183 
L 545.200462 308.553827 
L 545.43412 308.375315 
L 545.667779 308.73234 
L 546.135096 310.38358 
L 546.368755 310.919117 
L 546.602413 309.580274 
L 546.836072 311.900935 
L 547.06973 312.034819 
L 547.303389 312.525728 
L 547.537047 311.54391 
L 547.770706 311.499282 
L 548.004364 311.142257 
L 548.238023 310.249695 
L 548.70534 310.829861 
L 548.938999 311.142257 
L 549.172657 310.919117 
L 549.406316 309.981927 
L 549.639974 309.937299 
L 549.873633 309.267877 
L 550.107291 309.803414 
L 550.34095 311.142257 
L 550.574609 311.142257 
L 550.808267 311.276142 
L 551.041926 311.008373 
L 551.275584 311.677794 
L 551.742901 312.168704 
L 551.97656 311.410026 
M 552.443877 311.722423 
L 552.677536 311.410026 
M 554.546804 312.213332 
L 554.780463 312.525728 
M 555.481438 315.694323 
L 555.715097 314.757133 
L 555.948755 314.444737 
L 556.416073 315.649695 
L 556.649731 317.747216 
L 557.117048 315.962092 
L 557.350707 316.274489 
L 557.584365 317.568704 
L 557.818024 316.854654 
L 558.051682 316.676142 
L 558.519 319.800108 
L 558.752658 318.729034 
L 558.986317 318.282753 
L 559.219975 315.738951 
L 559.453634 314.667877 
L 559.920951 316.095976 
L 560.154609 315.872836 
L 560.621927 316.095976 
L 560.855585 316.94391 
L 561.089244 315.381927 
M 561.556561 315.515811 
L 561.790219 315.471183 
L 562.023878 316.095976 
L 562.257536 316.095976 
L 562.491195 316.586885 
L 562.724854 315.872836 
L 563.192171 315.381927 
L 563.425829 315.962092 
L 563.659488 314.757133 
L 563.893146 315.203414 
L 564.126805 315.024902 
L 564.360463 315.248042 
L 564.594122 312.927381 
L 564.827781 313.061265 
L 565.061439 312.793497 
L 565.295098 313.552175 
L 565.528756 312.882753 
M 565.996073 313.105894 
L 566.46339 312.302588 
L 566.697049 312.436472 
L 566.930708 312.302588 
L 567.164366 313.329034 
M 568.566317 311.32077 
L 569.033635 309.000108 
M 569.73461 309.937299 
L 569.968269 308.73234 
L 570.201927 306.813332 
L 570.435586 307.705894 
L 570.669245 306.902588 
L 570.902903 305.429861 
L 571.136562 304.805067 
L 571.37022 303.689365 
L 571.603879 304.760439 
M 572.071196 305.117464 
L 572.304854 304.671183 
L 572.538513 305.028208 
M 573.00583 306.188538 
L 573.239489 304.715811 
L 573.239489 304.715811 
" clip-path="url(#p486dd5f622)" style="fill: none; stroke: #1e90ff; stroke-linecap: square"/>
   </g>
   <g id="patch_3">
    <path d="M 40.603125 354.958125 
L 40.603125 22.318125 
" style="fill: none; stroke: #000000; stroke-width: 0.8; stroke-linejoin: miter; stroke-linecap: square"/>
   </g>
   <g id="patch_4">
    <path d="M 598.603125 354.958125 
L 598.603125 22.318125 
" style="fill: none; stroke: #000000; stroke-width: 0.8; stroke-linejoin: miter; stroke-linecap: square"/>
   </g>
   <g id="patch_5">
    <path d="M 40.603125 354.958125 
L 598.603125 354.958125 
" style="fill: none; stroke: #000000; stroke-width: 0.8; stroke-linejoin: miter; stroke-linecap: square"/>
   </g>
   <g id="patch_6">
    <path d="M 40.603125 22.318125 
L 598.603125 22.318125 
" style="fill: none; stroke: #000000; stroke-width: 0.8; stroke-linejoin: miter; stroke-linecap: square"/>
   </g>
   <g id="text_15">
    <!-- PCG, Relative Strength Index (RSI), PCG -->
    <g transform="translate(200.244375 16.318125)scale(0.12 -0.12)">
     <defs>
      <path id="DejaVuSans-43" d="M 4122 4306 
L 4122 3641 
Q 3803 3938 3442 4084 
Q 3081 4231 2675 4231 
Q 1875 4231 1450 3742 
Q 1025 3253 1025 2328 
Q 1025 1406 1450 917 
Q 1875 428 2675 428 
Q 3081 428 3442 575 
Q 3803 722 4122 1019 
L 4122 359 
Q 3791 134 3420 21 
Q 3050 -91 2638 -91 
Q 1578 -91 968 557 
Q 359 1206 359 2328 
Q 359 3453 968 4101 
Q 1578 4750 2638 4750 
Q 3056 4750 3426 4639 
Q 3797 4528 4122 4306 
z
" transform="scale(0.015625)"/>
      <path id="DejaVuSans-47" d="M 3809 666 
L 3809 1919 
L 2778 1919 
L 2778 2438 
L 4434 2438 
L 4434 434 
Q 4069 175 3628 42 
Q 3188 -91 2688 -91 
Q 1594 -91 976 548 
Q 359 1188 359 2328 
Q 359 3472 976 4111 
Q 1594 4750 2688 4750 
Q 3144 4750 3555 4637 
Q 3966 4525 4313 4306 
L 4313 3634 
Q 3963 3931 3569 4081 
Q 3175 4231 2741 4231 
Q 1884 4231 1454 3753 
Q 1025 3275 1025 2328 
Q 1025 1384 1454 906 
Q 1884 428 2741 428 
Q 3075 428 3337 486 
Q 3600 544 3809 666 
z
" transform="scale(0.015625)"/>
      <path id="DejaVuSans-2c" d="M 750 794 
L 1409 794 
L 1409 256 
L 897 -744 
L 494 -744 
L 750 256 
L 750 794 
z
" transform="scale(0.015625)"/>
      <path id="DejaVuSans-52" d="M 2841 2188 
Q 3044 2119 3236 1894 
Q 3428 1669 3622 1275 
L 4263 0 
L 3584 0 
L 2988 1197 
Q 2756 1666 2539 1819 
Q 2322 1972 1947 1972 
L 1259 1972 
L 1259 0 
L 628 0 
L 628 4666 
L 2053 4666 
Q 2853 4666 3247 4331 
Q 3641 3997 3641 3322 
Q 3641 2881 3436 2590 
Q 3231 2300 2841 2188 
z
M 1259 4147 
L 1259 2491 
L 2053 2491 
Q 2509 2491 2742 2702 
Q 2975 2913 2975 3322 
Q 2975 3731 2742 3939 
Q 2509 4147 2053 4147 
L 1259 4147 
z
" transform="scale(0.015625)"/>
      <path id="DejaVuSans-6c" d="M 603 4863 
L 1178 4863 
L 1178 0 
L 603 0 
L 603 4863 
z
" transform="scale(0.015625)"/>
      <path id="DejaVuSans-76" d="M 191 3500 
L 800 3500 
L 1894 563 
L 2988 3500 
L 3597 3500 
L 2284 0 
L 1503 0 
L 191 3500 
z
" transform="scale(0.015625)"/>
      <path id="DejaVuSans-6e" d="M 3513 2113 
L 3513 0 
L 2938 0 
L 2938 2094 
Q 2938 2591 2744 2837 
Q 2550 3084 2163 3084 
Q 1697 3084 1428 2787 
Q 1159 2491 1159 1978 
L 1159 0 
L 581 0 
L 581 3500 
L 1159 3500 
L 1159 2956 
Q 1366 3272 1645 3428 
Q 1925 3584 2291 3584 
Q 2894 3584 3203 3211 
Q 3513 2838 3513 2113 
z
" transform="scale(0.015625)"/>
      <path id="DejaVuSans-67" d="M 2906 1791 
Q 2906 2416 2648 2759 
Q 2391 3103 1925 3103 
Q 1463 3103 1205 2759 
Q 947 2416 947 1791 
Q 947 1169 1205 825 
Q 1463 481 1925 481 
Q 2391 481 2648 825 
Q 2906 1169 2906 1791 
z
M 3481 434 
Q 3481 -459 3084 -895 
Q 2688 -1331 1869 -1331 
Q 1566 -1331 1297 -1286 
Q 1028 -1241 775 -1147 
L 775 -588 
Q 1028 -725 1275 -790 
Q 1522 -856 1778 -856 
Q 2344 -856 2625 -561 
Q 2906 -266 2906 331 
L 2906 616 
Q 2728 306 2450 153 
Q 2172 0 1784 0 
Q 1141 0 747 490 
Q 353 981 353 1791 
Q 353 2603 747 3093 
Q 1141 3584 1784 3584 
Q 2172 3584 2450 3431 
Q 2728 3278 2906 2969 
L 2906 3500 
L 3481 3500 
L 3481 434 
z
" transform="scale(0.015625)"/>
      <path id="DejaVuSans-68" d="M 3513 2113 
L 3513 0 
L 2938 0 
L 2938 2094 
Q 2938 2591 2744 2837 
Q 2550 3084 2163 3084 
Q 1697 3084 1428 2787 
Q 1159 2491 1159 1978 
L 1159 0 
L 581 0 
L 581 4863 
L 1159 4863 
L 1159 2956 
Q 1366 3272 1645 3428 
Q 1925 3584 2291 3584 
Q 2894 3584 3203 3211 
Q 3513 2838 3513 2113 
z
" transform="scale(0.015625)"/>
      <path id="DejaVuSans-49" d="M 628 4666 
L 1259 4666 
L 1259 0 
L 628 0 
L 628 4666 
z
" transform="scale(0.015625)"/>
      <path id="DejaVuSans-64" d="M 2906 2969 
L 2906 4863 
L 3481 4863 
L 3481 0 
L 2906 0 
L 2906 525 
Q 2725 213 2448 61 
Q 2172 -91 1784 -91 
Q 1150 -91 751 415 
Q 353 922 353 1747 
Q 353 2572 751 3078 
Q 1150 3584 1784 3584 
Q 2172 3584 2448 3432 
Q 2725 3281 2906 2969 
z
M 947 1747 
Q 947 1113 1208 752 
Q 1469 391 1925 391 
Q 2381 391 2643 752 
Q 2906 1113 2906 1747 
Q 2906 2381 2643 2742 
Q 2381 3103 1925 3103 
Q 1469 3103 1208 2742 
Q 947 2381 947 1747 
z
" transform="scale(0.015625)"/>
      <path id="DejaVuSans-78" d="M 3513 3500 
L 2247 1797 
L 3578 0 
L 2900 0 
L 1881 1375 
L 863 0 
L 184 0 
L 1544 1831 
L 300 3500 
L 978 3500 
L 1906 2253 
L 2834 3500 
L 3513 3500 
z
" transform="scale(0.015625)"/>
     </defs>
     <use xlink:href="#DejaVuSans-50"/>
     <use xlink:href="#DejaVuSans-43" x="60.302734"/>
     <use xlink:href="#DejaVuSans-47" x="130.126953"/>
     <use xlink:href="#DejaVuSans-2c" x="207.617188"/>
     <use xlink:href="#DejaVuSans-20" x="239.404297"/>
     <use xlink:href="#DejaVuSans-52" x="271.191406"/>
     <use xlink:href="#DejaVuSans-65" x="336.173828"/>
     <use xlink:href="#DejaVuSans-6c" x="397.697266"/>
     <use xlink:href="#DejaVuSans-61" x="425.480469"/>
     <use xlink:href="#DejaVuSans-74" x="486.759766"/>
     <use xlink:href="#DejaVuSans-69" x="525.96875"/>
     <use xlink:href="#DejaVuSans-76" x="553.751953"/>
     <use xlink:href="#DejaVuSans-65" x="612.931641"/>
     <use xlink:href="#DejaVuSans-20" x="674.455078"/>
     <use xlink:href="#DejaVuSans-53" x="706.242188"/>
     <use xlink:href="#DejaVuSans-74" x="769.71875"/>
     <use xlink:href="#DejaVuSans-72" x="808.927734"/>
     <use xlink:href="#DejaVuSans-65" x="847.791016"/>
     <use xlink:href="#DejaVuSans-6e" x="909.314453"/>
     <use xlink:href="#DejaVuSans-67" x="972.693359"/>
     <use xlink:href="#DejaVuSans-74" x="1036.169922"/>
     <use xlink:href="#DejaVuSans-68" x="1075.378906"/>
     <use xlink:href="#DejaVuSans-20" x="1138.757812"/>
     <use xlink:href="#DejaVuSans-49" x="1170.544922"/>
     <use xlink:href="#DejaVuSans-6e" x="1200.037109"/>
     <use xlink:href="#DejaVuSans-64" x="1263.416016"/>
     <use xlink:href="#DejaVuSans-65" x="1326.892578"/>
     <use xlink:href="#DejaVuSans-78" x="1386.666016"/>
     <use xlink:href="#DejaVuSans-20" x="1445.845703"/>
     <use xlink:href="#DejaVuSans-28" x="1477.632812"/>
     <use xlink:href="#DejaVuSans-52" x="1516.646484"/>
     <use xlink:href="#DejaVuSans-53" x="1586.128906"/>
     <use xlink:href="#DejaVuSans-49" x="1649.605469"/>
     <use xlink:href="#DejaVuSans-29" x="1679.097656"/>
     <use xlink:href="#DejaVuSans-2c" x="1718.111328"/>
     <use xlink:href="#DejaVuSans-20" x="1749.898438"/>
     <use xlink:href="#DejaVuSans-50" x="1781.685547"/>
     <use xlink:href="#DejaVuSans-43" x="1841.988281"/>
     <use xlink:href="#DejaVuSans-47" x="1911.8125"/>
    </g>
   </g>
   <g id="legend_1">
    <g id="patch_7">
     <path d="M 441.69375 74.3525 
L 591.603125 74.3525 
Q 593.603125 74.3525 593.603125 72.3525 
L 593.603125 29.318125 
Q 593.603125 27.318125 591.603125 27.318125 
L 441.69375 27.318125 
Q 439.69375 27.318125 439.69375 29.318125 
L 439.69375 72.3525 
Q 439.69375 74.3525 441.69375 74.3525 
z
" style="fill: #ffffff; opacity: 0.8; stroke: #cccccc; stroke-linejoin: miter"/>
    </g>
    <g id="line2d_23">
     <path d="M 443.69375 35.416562 
L 453.69375 35.416562 
L 463.69375 35.416562 
" style="fill: none; stroke: #00ff7f; stroke-linecap: square"/>
    </g>
    <g id="text_16">
     <!-- Oversold, RSI &lt;= 30 -->
     <g transform="translate(471.69375 38.916562)scale(0.1 -0.1)">
      <defs>
       <path id="DejaVuSans-4f" d="M 2522 4238 
Q 1834 4238 1429 3725 
Q 1025 3213 1025 2328 
Q 1025 1447 1429 934 
Q 1834 422 2522 422 
Q 3209 422 3611 934 
Q 4013 1447 4013 2328 
Q 4013 3213 3611 3725 
Q 3209 4238 2522 4238 
z
M 2522 4750 
Q 3503 4750 4090 4092 
Q 4678 3434 4678 2328 
Q 4678 1225 4090 567 
Q 3503 -91 2522 -91 
Q 1538 -91 948 565 
Q 359 1222 359 2328 
Q 359 3434 948 4092 
Q 1538 4750 2522 4750 
z
" transform="scale(0.015625)"/>
       <path id="DejaVuSans-73" d="M 2834 3397 
L 2834 2853 
Q 2591 2978 2328 3040 
Q 2066 3103 1784 3103 
Q 1356 3103 1142 2972 
Q 928 2841 928 2578 
Q 928 2378 1081 2264 
Q 1234 2150 1697 2047 
L 1894 2003 
Q 2506 1872 2764 1633 
Q 3022 1394 3022 966 
Q 3022 478 2636 193 
Q 2250 -91 1575 -91 
Q 1294 -91 989 -36 
Q 684 19 347 128 
L 347 722 
Q 666 556 975 473 
Q 1284 391 1588 391 
Q 1994 391 2212 530 
Q 2431 669 2431 922 
Q 2431 1156 2273 1281 
Q 2116 1406 1581 1522 
L 1381 1569 
Q 847 1681 609 1914 
Q 372 2147 372 2553 
Q 372 3047 722 3315 
Q 1072 3584 1716 3584 
Q 2034 3584 2315 3537 
Q 2597 3491 2834 3397 
z
" transform="scale(0.015625)"/>
       <path id="DejaVuSans-6f" d="M 1959 3097 
Q 1497 3097 1228 2736 
Q 959 2375 959 1747 
Q 959 1119 1226 758 
Q 1494 397 1959 397 
Q 2419 397 2687 759 
Q 2956 1122 2956 1747 
Q 2956 2369 2687 2733 
Q 2419 3097 1959 3097 
z
M 1959 3584 
Q 2709 3584 3137 3096 
Q 3566 2609 3566 1747 
Q 3566 888 3137 398 
Q 2709 -91 1959 -91 
Q 1206 -91 779 398 
Q 353 888 353 1747 
Q 353 2609 779 3096 
Q 1206 3584 1959 3584 
z
" transform="scale(0.015625)"/>
       <path id="DejaVuSans-3c" d="M 4684 3150 
L 1459 2003 
L 4684 863 
L 4684 294 
L 678 1747 
L 678 2266 
L 4684 3719 
L 4684 3150 
z
" transform="scale(0.015625)"/>
       <path id="DejaVuSans-3d" d="M 678 2906 
L 4684 2906 
L 4684 2381 
L 678 2381 
L 678 2906 
z
M 678 1631 
L 4684 1631 
L 4684 1100 
L 678 1100 
L 678 1631 
z
" transform="scale(0.015625)"/>
      </defs>
      <use xlink:href="#DejaVuSans-4f"/>
      <use xlink:href="#DejaVuSans-76" x="78.710938"/>
      <use xlink:href="#DejaVuSans-65" x="137.890625"/>
      <use xlink:href="#DejaVuSans-72" x="199.414062"/>
      <use xlink:href="#DejaVuSans-73" x="240.527344"/>
      <use xlink:href="#DejaVuSans-6f" x="292.626953"/>
      <use xlink:href="#DejaVuSans-6c" x="353.808594"/>
      <use xlink:href="#DejaVuSans-64" x="381.591797"/>
      <use xlink:href="#DejaVuSans-2c" x="445.068359"/>
      <use xlink:href="#DejaVuSans-20" x="476.855469"/>
      <use xlink:href="#DejaVuSans-52" x="508.642578"/>
      <use xlink:href="#DejaVuSans-53" x="578.125"/>
      <use xlink:href="#DejaVuSans-49" x="641.601562"/>
      <use xlink:href="#DejaVuSans-20" x="671.09375"/>
      <use xlink:href="#DejaVuSans-3c" x="702.880859"/>
      <use xlink:href="#DejaVuSans-3d" x="786.669922"/>
      <use xlink:href="#DejaVuSans-20" x="870.458984"/>
      <use xlink:href="#DejaVuSans-33" x="902.246094"/>
      <use xlink:href="#DejaVuSans-30" x="965.869141"/>
     </g>
    </g>
    <g id="line2d_24">
     <path d="M 443.69375 50.094687 
L 453.69375 50.094687 
L 463.69375 50.094687 
" style="fill: none; stroke: #ff4500; stroke-linecap: square"/>
    </g>
    <g id="text_17">
     <!-- Overbought, RSI &gt;= 70 -->
     <g transform="translate(471.69375 53.594687)scale(0.1 -0.1)">
      <defs>
       <path id="DejaVuSans-62" d="M 3116 1747 
Q 3116 2381 2855 2742 
Q 2594 3103 2138 3103 
Q 1681 3103 1420 2742 
Q 1159 2381 1159 1747 
Q 1159 1113 1420 752 
Q 1681 391 2138 391 
Q 2594 391 2855 752 
Q 3116 1113 3116 1747 
z
M 1159 2969 
Q 1341 3281 1617 3432 
Q 1894 3584 2278 3584 
Q 2916 3584 3314 3078 
Q 3713 2572 3713 1747 
Q 3713 922 3314 415 
Q 2916 -91 2278 -91 
Q 1894 -91 1617 61 
Q 1341 213 1159 525 
L 1159 0 
L 581 0 
L 581 4863 
L 1159 4863 
L 1159 2969 
z
" transform="scale(0.015625)"/>
       <path id="DejaVuSans-75" d="M 544 1381 
L 544 3500 
L 1119 3500 
L 1119 1403 
Q 1119 906 1312 657 
Q 1506 409 1894 409 
Q 2359 409 2629 706 
Q 2900 1003 2900 1516 
L 2900 3500 
L 3475 3500 
L 3475 0 
L 2900 0 
L 2900 538 
Q 2691 219 2414 64 
Q 2138 -91 1772 -91 
Q 1169 -91 856 284 
Q 544 659 544 1381 
z
M 1991 3584 
L 1991 3584 
z
" transform="scale(0.015625)"/>
       <path id="DejaVuSans-3e" d="M 678 3150 
L 678 3719 
L 4684 2266 
L 4684 1747 
L 678 294 
L 678 863 
L 3897 2003 
L 678 3150 
z
" transform="scale(0.015625)"/>
      </defs>
      <use xlink:href="#DejaVuSans-4f"/>
      <use xlink:href="#DejaVuSans-76" x="78.710938"/>
      <use xlink:href="#DejaVuSans-65" x="137.890625"/>
      <use xlink:href="#DejaVuSans-72" x="199.414062"/>
      <use xlink:href="#DejaVuSans-62" x="240.527344"/>
      <use xlink:href="#DejaVuSans-6f" x="304.003906"/>
      <use xlink:href="#DejaVuSans-75" x="365.185547"/>
      <use xlink:href="#DejaVuSans-67" x="428.564453"/>
      <use xlink:href="#DejaVuSans-68" x="492.041016"/>
      <use xlink:href="#DejaVuSans-74" x="555.419922"/>
      <use xlink:href="#DejaVuSans-2c" x="594.628906"/>
      <use xlink:href="#DejaVuSans-20" x="626.416016"/>
      <use xlink:href="#DejaVuSans-52" x="658.203125"/>
      <use xlink:href="#DejaVuSans-53" x="727.685547"/>
      <use xlink:href="#DejaVuSans-49" x="791.162109"/>
      <use xlink:href="#DejaVuSans-20" x="820.654297"/>
      <use xlink:href="#DejaVuSans-3e" x="852.441406"/>
      <use xlink:href="#DejaVuSans-3d" x="936.230469"/>
      <use xlink:href="#DejaVuSans-20" x="1020.019531"/>
      <use xlink:href="#DejaVuSans-37" x="1051.806641"/>
      <use xlink:href="#DejaVuSans-30" x="1115.429688"/>
     </g>
    </g>
    <g id="line2d_25">
     <path d="M 443.69375 64.772812 
L 453.69375 64.772812 
L 463.69375 64.772812 
" style="fill: none; stroke: #1e90ff; stroke-linecap: square"/>
    </g>
    <g id="text_18">
     <!-- Neutral -->
     <g transform="translate(471.69375 68.272812)scale(0.1 -0.1)">
      <defs>
       <path id="DejaVuSans-4e" d="M 628 4666 
L 1478 4666 
L 3547 763 
L 3547 4666 
L 4159 4666 
L 4159 0 
L 3309 0 
L 1241 3903 
L 1241 0 
L 628 0 
L 628 4666 
z
" transform="scale(0.015625)"/>
      </defs>
      <use xlink:href="#DejaVuSans-4e"/>
      <use xlink:href="#DejaVuSans-65" x="74.804688"/>
      <use xlink:href="#DejaVuSans-75" x="136.328125"/>
      <use xlink:href="#DejaVuSans-74" x="199.707031"/>
      <use xlink:href="#DejaVuSans-72" x="238.916016"/>
      <use xlink:href="#DejaVuSans-61" x="280.029297"/>
      <use xlink:href="#DejaVuSans-6c" x="341.308594"/>
     </g>
    </g>
   </g>
  </g>
 </g>
 <defs>
  <clipPath id="p486dd5f622">
   <rect x="40.603125" y="22.318125" width="558" height="332.64"/>
  </clipPath>
 </defs>
</svg>
