<?xml version="1.0" encoding="utf-8" standalone="no"?>
<!DOCTYPE svg PUBLIC "-//W3C//DTD SVG 1.1//EN"
  "http://www.w3.org/Graphics/SVG/1.1/DTD/svg11.dtd">
<svg xmlns:xlink="http://www.w3.org/1999/xlink" width="682.37425pt" height="422.947075pt" viewBox="0 0 682.37425 422.947075" xmlns="http://www.w3.org/2000/svg" version="1.1">
 <metadata>
  <rdf:RDF xmlns:dc="http://purl.org/dc/elements/1.1/" xmlns:cc="http://creativecommons.org/ns#" xmlns:rdf="http://www.w3.org/1999/02/22-rdf-syntax-ns#">
   <cc:Work>
    <dc:type rdf:resource="http://purl.org/dc/dcmitype/StillImage"/>
    <dc:date>2023-04-23T14:47:36.473662</dc:date>
    <dc:format>image/svg+xml</dc:format>
    <dc:creator>
     <cc:Agent>
      <dc:title>Matplotlib v3.5.1, https://matplotlib.org/</dc:title>
     </cc:Agent>
    </dc:creator>
   </cc:Work>
  </rdf:RDF>
 </metadata>
 <defs>
  <style type="text/css">*{stroke-linejoin: round; stroke-linecap: butt}</style>
 </defs>
 <g id="figure_1">
  <g id="patch_1">
   <path d="M 0 422.947075 
L 682.37425 422.947075 
L 682.37425 0 
L 0 0 
z
" style="fill: #f0f0f0"/>
  </g>
  <g id="axes_1">
   <g id="patch_2">
    <path d="M 48.77425 378.43845 
L 675.17425 378.43845 
L 675.17425 28.51845 
L 48.77425 28.51845 
z
" style="fill: #f0f0f0"/>
   </g>
   <g id="matplotlib.axis_1">
    <g id="xtick_1">
     <g id="line2d_1">
      <path d="M 77.246977 378.43845 
L 77.246977 28.51845 
" clip-path="url(#pa5d2304cbf)" style="fill: none; stroke: #cbcbcb"/>
     </g>
     <g id="line2d_2"/>
     <g id="text_1">
      <!-- 0 -->
      <g transform="translate(72.793227 392.576263)scale(0.14 -0.14)">
       <defs>
        <path id="DejaVuSans-30" d="M 2034 4250 
Q 1547 4250 1301 3770 
Q 1056 3291 1056 2328 
Q 1056 1369 1301 889 
Q 1547 409 2034 409 
Q 2525 409 2770 889 
Q 3016 1369 3016 2328 
Q 3016 3291 2770 3770 
Q 2525 4250 2034 4250 
z
M 2034 4750 
Q 2819 4750 3233 4129 
Q 3647 3509 3647 2328 
Q 3647 1150 3233 529 
Q 2819 -91 2034 -91 
Q 1250 -91 836 529 
Q 422 1150 422 2328 
Q 422 3509 836 4129 
Q 1250 4750 2034 4750 
z
" transform="scale(0.015625)"/>
       </defs>
       <use xlink:href="#DejaVuSans-30"/>
      </g>
     </g>
    </g>
    <g id="xtick_2">
     <g id="line2d_3">
      <path d="M 198.665857 378.43845 
L 198.665857 28.51845 
" clip-path="url(#pa5d2304cbf)" style="fill: none; stroke: #cbcbcb"/>
     </g>
     <g id="line2d_4"/>
     <g id="text_2">
      <!-- 500 -->
      <g transform="translate(185.304607 392.576263)scale(0.14 -0.14)">
       <defs>
        <path id="DejaVuSans-35" d="M 691 4666 
L 3169 4666 
L 3169 4134 
L 1269 4134 
L 1269 2991 
Q 1406 3038 1543 3061 
Q 1681 3084 1819 3084 
Q 2600 3084 3056 2656 
Q 3513 2228 3513 1497 
Q 3513 744 3044 326 
Q 2575 -91 1722 -91 
Q 1428 -91 1123 -41 
Q 819 9 494 109 
L 494 744 
Q 775 591 1075 516 
Q 1375 441 1709 441 
Q 2250 441 2565 725 
Q 2881 1009 2881 1497 
Q 2881 1984 2565 2268 
Q 2250 2553 1709 2553 
Q 1456 2553 1204 2497 
Q 953 2441 691 2322 
L 691 4666 
z
" transform="scale(0.015625)"/>
       </defs>
       <use xlink:href="#DejaVuSans-35"/>
       <use xlink:href="#DejaVuSans-30" x="63.623047"/>
       <use xlink:href="#DejaVuSans-30" x="127.246094"/>
      </g>
     </g>
    </g>
    <g id="xtick_3">
     <g id="line2d_5">
      <path d="M 320.084737 378.43845 
L 320.084737 28.51845 
" clip-path="url(#pa5d2304cbf)" style="fill: none; stroke: #cbcbcb"/>
     </g>
     <g id="line2d_6"/>
     <g id="text_3">
      <!-- 1000 -->
      <g transform="translate(302.269737 392.576263)scale(0.14 -0.14)">
       <defs>
        <path id="DejaVuSans-31" d="M 794 531 
L 1825 531 
L 1825 4091 
L 703 3866 
L 703 4441 
L 1819 4666 
L 2450 4666 
L 2450 531 
L 3481 531 
L 3481 0 
L 794 0 
L 794 531 
z
" transform="scale(0.015625)"/>
       </defs>
       <use xlink:href="#DejaVuSans-31"/>
       <use xlink:href="#DejaVuSans-30" x="63.623047"/>
       <use xlink:href="#DejaVuSans-30" x="127.246094"/>
       <use xlink:href="#DejaVuSans-30" x="190.869141"/>
      </g>
     </g>
    </g>
    <g id="xtick_4">
     <g id="line2d_7">
      <path d="M 441.503616 378.43845 
L 441.503616 28.51845 
" clip-path="url(#pa5d2304cbf)" style="fill: none; stroke: #cbcbcb"/>
     </g>
     <g id="line2d_8"/>
     <g id="text_4">
      <!-- 1500 -->
      <g transform="translate(423.688616 392.576263)scale(0.14 -0.14)">
       <use xlink:href="#DejaVuSans-31"/>
       <use xlink:href="#DejaVuSans-35" x="63.623047"/>
       <use xlink:href="#DejaVuSans-30" x="127.246094"/>
       <use xlink:href="#DejaVuSans-30" x="190.869141"/>
      </g>
     </g>
    </g>
    <g id="xtick_5">
     <g id="line2d_9">
      <path d="M 562.922496 378.43845 
L 562.922496 28.51845 
" clip-path="url(#pa5d2304cbf)" style="fill: none; stroke: #cbcbcb"/>
     </g>
     <g id="line2d_10"/>
     <g id="text_5">
      <!-- 2000 -->
      <g transform="translate(545.107496 392.576263)scale(0.14 -0.14)">
       <defs>
        <path id="DejaVuSans-32" d="M 1228 531 
L 3431 531 
L 3431 0 
L 469 0 
L 469 531 
Q 828 903 1448 1529 
Q 2069 2156 2228 2338 
Q 2531 2678 2651 2914 
Q 2772 3150 2772 3378 
Q 2772 3750 2511 3984 
Q 2250 4219 1831 4219 
Q 1534 4219 1204 4116 
Q 875 4013 500 3803 
L 500 4441 
Q 881 4594 1212 4672 
Q 1544 4750 1819 4750 
Q 2544 4750 2975 4387 
Q 3406 4025 3406 3419 
Q 3406 3131 3298 2873 
Q 3191 2616 2906 2266 
Q 2828 2175 2409 1742 
Q 1991 1309 1228 531 
z
" transform="scale(0.015625)"/>
       </defs>
       <use xlink:href="#DejaVuSans-32"/>
       <use xlink:href="#DejaVuSans-30" x="63.623047"/>
       <use xlink:href="#DejaVuSans-30" x="127.246094"/>
       <use xlink:href="#DejaVuSans-30" x="190.869141"/>
      </g>
     </g>
    </g>
    <g id="text_6">
     <!-- Date -->
     <g transform="translate(341.896937 412.2532)scale(0.168 -0.168)">
      <defs>
       <path id="DejaVuSans-44" d="M 1259 4147 
L 1259 519 
L 2022 519 
Q 2988 519 3436 956 
Q 3884 1394 3884 2338 
Q 3884 3275 3436 3711 
Q 2988 4147 2022 4147 
L 1259 4147 
z
M 628 4666 
L 1925 4666 
Q 3281 4666 3915 4102 
Q 4550 3538 4550 2338 
Q 4550 1131 3912 565 
Q 3275 0 1925 0 
L 628 0 
L 628 4666 
z
" transform="scale(0.015625)"/>
       <path id="DejaVuSans-61" d="M 2194 1759 
Q 1497 1759 1228 1600 
Q 959 1441 959 1056 
Q 959 750 1161 570 
Q 1363 391 1709 391 
Q 2188 391 2477 730 
Q 2766 1069 2766 1631 
L 2766 1759 
L 2194 1759 
z
M 3341 1997 
L 3341 0 
L 2766 0 
L 2766 531 
Q 2569 213 2275 61 
Q 1981 -91 1556 -91 
Q 1019 -91 701 211 
Q 384 513 384 1019 
Q 384 1609 779 1909 
Q 1175 2209 1959 2209 
L 2766 2209 
L 2766 2266 
Q 2766 2663 2505 2880 
Q 2244 3097 1772 3097 
Q 1472 3097 1187 3025 
Q 903 2953 641 2809 
L 641 3341 
Q 956 3463 1253 3523 
Q 1550 3584 1831 3584 
Q 2591 3584 2966 3190 
Q 3341 2797 3341 1997 
z
" transform="scale(0.015625)"/>
       <path id="DejaVuSans-74" d="M 1172 4494 
L 1172 3500 
L 2356 3500 
L 2356 3053 
L 1172 3053 
L 1172 1153 
Q 1172 725 1289 603 
Q 1406 481 1766 481 
L 2356 481 
L 2356 0 
L 1766 0 
Q 1100 0 847 248 
Q 594 497 594 1153 
L 594 3053 
L 172 3053 
L 172 3500 
L 594 3500 
L 594 4494 
L 1172 4494 
z
" transform="scale(0.015625)"/>
       <path id="DejaVuSans-65" d="M 3597 1894 
L 3597 1613 
L 953 1613 
Q 991 1019 1311 708 
Q 1631 397 2203 397 
Q 2534 397 2845 478 
Q 3156 559 3463 722 
L 3463 178 
Q 3153 47 2828 -22 
Q 2503 -91 2169 -91 
Q 1331 -91 842 396 
Q 353 884 353 1716 
Q 353 2575 817 3079 
Q 1281 3584 2069 3584 
Q 2775 3584 3186 3129 
Q 3597 2675 3597 1894 
z
M 3022 2063 
Q 3016 2534 2758 2815 
Q 2500 3097 2075 3097 
Q 1594 3097 1305 2825 
Q 1016 2553 972 2059 
L 3022 2063 
z
" transform="scale(0.015625)"/>
      </defs>
      <use xlink:href="#DejaVuSans-44"/>
      <use xlink:href="#DejaVuSans-61" x="77.001953"/>
      <use xlink:href="#DejaVuSans-74" x="138.28125"/>
      <use xlink:href="#DejaVuSans-65" x="177.490234"/>
     </g>
    </g>
   </g>
   <g id="matplotlib.axis_2">
    <g id="ytick_1">
     <g id="line2d_11">
      <path d="M 48.77425 333.426201 
L 675.17425 333.426201 
" clip-path="url(#pa5d2304cbf)" style="fill: none; stroke: #dcdcdc; stroke-width: 0.5"/>
     </g>
     <g id="line2d_12"/>
     <g id="text_7">
      <!-- 10 -->
      <g transform="translate(27.45925 338.745108)scale(0.14 -0.14)">
       <use xlink:href="#DejaVuSans-31"/>
       <use xlink:href="#DejaVuSans-30" x="63.623047"/>
      </g>
     </g>
    </g>
    <g id="ytick_2">
     <g id="line2d_13">
      <path d="M 48.77425 286.479759 
L 675.17425 286.479759 
" clip-path="url(#pa5d2304cbf)" style="fill: none; stroke: #dcdcdc; stroke-width: 0.5"/>
     </g>
     <g id="line2d_14"/>
     <g id="text_8">
      <!-- 20 -->
      <g transform="translate(27.45925 291.798666)scale(0.14 -0.14)">
       <use xlink:href="#DejaVuSans-32"/>
       <use xlink:href="#DejaVuSans-30" x="63.623047"/>
      </g>
     </g>
    </g>
    <g id="ytick_3">
     <g id="line2d_15">
      <path d="M 48.77425 239.533317 
L 675.17425 239.533317 
" clip-path="url(#pa5d2304cbf)" style="fill: none; stroke: #dcdcdc; stroke-width: 0.5"/>
     </g>
     <g id="line2d_16"/>
     <g id="text_9">
      <!-- 30 -->
      <g transform="translate(27.45925 244.852224)scale(0.14 -0.14)">
       <defs>
        <path id="DejaVuSans-33" d="M 2597 2516 
Q 3050 2419 3304 2112 
Q 3559 1806 3559 1356 
Q 3559 666 3084 287 
Q 2609 -91 1734 -91 
Q 1441 -91 1130 -33 
Q 819 25 488 141 
L 488 750 
Q 750 597 1062 519 
Q 1375 441 1716 441 
Q 2309 441 2620 675 
Q 2931 909 2931 1356 
Q 2931 1769 2642 2001 
Q 2353 2234 1838 2234 
L 1294 2234 
L 1294 2753 
L 1863 2753 
Q 2328 2753 2575 2939 
Q 2822 3125 2822 3475 
Q 2822 3834 2567 4026 
Q 2313 4219 1838 4219 
Q 1578 4219 1281 4162 
Q 984 4106 628 3988 
L 628 4550 
Q 988 4650 1302 4700 
Q 1616 4750 1894 4750 
Q 2613 4750 3031 4423 
Q 3450 4097 3450 3541 
Q 3450 3153 3228 2886 
Q 3006 2619 2597 2516 
z
" transform="scale(0.015625)"/>
       </defs>
       <use xlink:href="#DejaVuSans-33"/>
       <use xlink:href="#DejaVuSans-30" x="63.623047"/>
      </g>
     </g>
    </g>
    <g id="ytick_4">
     <g id="line2d_17">
      <path d="M 48.77425 192.586875 
L 675.17425 192.586875 
" clip-path="url(#pa5d2304cbf)" style="fill: none; stroke: #dcdcdc; stroke-width: 0.5"/>
     </g>
     <g id="line2d_18"/>
     <g id="text_10">
      <!-- 40 -->
      <g transform="translate(27.45925 197.905782)scale(0.14 -0.14)">
       <defs>
        <path id="DejaVuSans-34" d="M 2419 4116 
L 825 1625 
L 2419 1625 
L 2419 4116 
z
M 2253 4666 
L 3047 4666 
L 3047 1625 
L 3713 1625 
L 3713 1100 
L 3047 1100 
L 3047 0 
L 2419 0 
L 2419 1100 
L 313 1100 
L 313 1709 
L 2253 4666 
z
" transform="scale(0.015625)"/>
       </defs>
       <use xlink:href="#DejaVuSans-34"/>
       <use xlink:href="#DejaVuSans-30" x="63.623047"/>
      </g>
     </g>
    </g>
    <g id="ytick_5">
     <g id="line2d_19">
      <path d="M 48.77425 145.640433 
L 675.17425 145.640433 
" clip-path="url(#pa5d2304cbf)" style="fill: none; stroke: #dcdcdc; stroke-width: 0.5"/>
     </g>
     <g id="line2d_20"/>
     <g id="text_11">
      <!-- 50 -->
      <g transform="translate(27.45925 150.95934)scale(0.14 -0.14)">
       <use xlink:href="#DejaVuSans-35"/>
       <use xlink:href="#DejaVuSans-30" x="63.623047"/>
      </g>
     </g>
    </g>
    <g id="ytick_6">
     <g id="line2d_21">
      <path d="M 48.77425 98.693991 
L 675.17425 98.693991 
" clip-path="url(#pa5d2304cbf)" style="fill: none; stroke: #dcdcdc; stroke-width: 0.5"/>
     </g>
     <g id="line2d_22"/>
     <g id="text_12">
      <!-- 60 -->
      <g transform="translate(27.45925 104.012898)scale(0.14 -0.14)">
       <defs>
        <path id="DejaVuSans-36" d="M 2113 2584 
Q 1688 2584 1439 2293 
Q 1191 2003 1191 1497 
Q 1191 994 1439 701 
Q 1688 409 2113 409 
Q 2538 409 2786 701 
Q 3034 994 3034 1497 
Q 3034 2003 2786 2293 
Q 2538 2584 2113 2584 
z
M 3366 4563 
L 3366 3988 
Q 3128 4100 2886 4159 
Q 2644 4219 2406 4219 
Q 1781 4219 1451 3797 
Q 1122 3375 1075 2522 
Q 1259 2794 1537 2939 
Q 1816 3084 2150 3084 
Q 2853 3084 3261 2657 
Q 3669 2231 3669 1497 
Q 3669 778 3244 343 
Q 2819 -91 2113 -91 
Q 1303 -91 875 529 
Q 447 1150 447 2328 
Q 447 3434 972 4092 
Q 1497 4750 2381 4750 
Q 2619 4750 2861 4703 
Q 3103 4656 3366 4563 
z
" transform="scale(0.015625)"/>
       </defs>
       <use xlink:href="#DejaVuSans-36"/>
       <use xlink:href="#DejaVuSans-30" x="63.623047"/>
      </g>
     </g>
    </g>
    <g id="ytick_7">
     <g id="line2d_23">
      <path d="M 48.77425 51.747549 
L 675.17425 51.747549 
" clip-path="url(#pa5d2304cbf)" style="fill: none; stroke: #dcdcdc; stroke-width: 0.5"/>
     </g>
     <g id="line2d_24"/>
     <g id="text_13">
      <!-- 70 -->
      <g transform="translate(27.45925 57.066456)scale(0.14 -0.14)">
       <defs>
        <path id="DejaVuSans-37" d="M 525 4666 
L 3525 4666 
L 3525 4397 
L 1831 0 
L 1172 0 
L 2766 4134 
L 525 4134 
L 525 4666 
z
" transform="scale(0.015625)"/>
       </defs>
       <use xlink:href="#DejaVuSans-37"/>
       <use xlink:href="#DejaVuSans-30" x="63.623047"/>
      </g>
     </g>
    </g>
    <g id="text_14">
     <!-- Price (USD) -->
     <g transform="translate(19.965375 251.1432)rotate(-90)scale(0.168 -0.168)">
      <defs>
       <path id="DejaVuSans-50" d="M 1259 4147 
L 1259 2394 
L 2053 2394 
Q 2494 2394 2734 2622 
Q 2975 2850 2975 3272 
Q 2975 3691 2734 3919 
Q 2494 4147 2053 4147 
L 1259 4147 
z
M 628 4666 
L 2053 4666 
Q 2838 4666 3239 4311 
Q 3641 3956 3641 3272 
Q 3641 2581 3239 2228 
Q 2838 1875 2053 1875 
L 1259 1875 
L 1259 0 
L 628 0 
L 628 4666 
z
" transform="scale(0.015625)"/>
       <path id="DejaVuSans-72" d="M 2631 2963 
Q 2534 3019 2420 3045 
Q 2306 3072 2169 3072 
Q 1681 3072 1420 2755 
Q 1159 2438 1159 1844 
L 1159 0 
L 581 0 
L 581 3500 
L 1159 3500 
L 1159 2956 
Q 1341 3275 1631 3429 
Q 1922 3584 2338 3584 
Q 2397 3584 2469 3576 
Q 2541 3569 2628 3553 
L 2631 2963 
z
" transform="scale(0.015625)"/>
       <path id="DejaVuSans-69" d="M 603 3500 
L 1178 3500 
L 1178 0 
L 603 0 
L 603 3500 
z
M 603 4863 
L 1178 4863 
L 1178 4134 
L 603 4134 
L 603 4863 
z
" transform="scale(0.015625)"/>
       <path id="DejaVuSans-63" d="M 3122 3366 
L 3122 2828 
Q 2878 2963 2633 3030 
Q 2388 3097 2138 3097 
Q 1578 3097 1268 2742 
Q 959 2388 959 1747 
Q 959 1106 1268 751 
Q 1578 397 2138 397 
Q 2388 397 2633 464 
Q 2878 531 3122 666 
L 3122 134 
Q 2881 22 2623 -34 
Q 2366 -91 2075 -91 
Q 1284 -91 818 406 
Q 353 903 353 1747 
Q 353 2603 823 3093 
Q 1294 3584 2113 3584 
Q 2378 3584 2631 3529 
Q 2884 3475 3122 3366 
z
" transform="scale(0.015625)"/>
       <path id="DejaVuSans-20" transform="scale(0.015625)"/>
       <path id="DejaVuSans-28" d="M 1984 4856 
Q 1566 4138 1362 3434 
Q 1159 2731 1159 2009 
Q 1159 1288 1364 580 
Q 1569 -128 1984 -844 
L 1484 -844 
Q 1016 -109 783 600 
Q 550 1309 550 2009 
Q 550 2706 781 3412 
Q 1013 4119 1484 4856 
L 1984 4856 
z
" transform="scale(0.015625)"/>
       <path id="DejaVuSans-55" d="M 556 4666 
L 1191 4666 
L 1191 1831 
Q 1191 1081 1462 751 
Q 1734 422 2344 422 
Q 2950 422 3222 751 
Q 3494 1081 3494 1831 
L 3494 4666 
L 4128 4666 
L 4128 1753 
Q 4128 841 3676 375 
Q 3225 -91 2344 -91 
Q 1459 -91 1007 375 
Q 556 841 556 1753 
L 556 4666 
z
" transform="scale(0.015625)"/>
       <path id="DejaVuSans-53" d="M 3425 4513 
L 3425 3897 
Q 3066 4069 2747 4153 
Q 2428 4238 2131 4238 
Q 1616 4238 1336 4038 
Q 1056 3838 1056 3469 
Q 1056 3159 1242 3001 
Q 1428 2844 1947 2747 
L 2328 2669 
Q 3034 2534 3370 2195 
Q 3706 1856 3706 1288 
Q 3706 609 3251 259 
Q 2797 -91 1919 -91 
Q 1588 -91 1214 -16 
Q 841 59 441 206 
L 441 856 
Q 825 641 1194 531 
Q 1563 422 1919 422 
Q 2459 422 2753 634 
Q 3047 847 3047 1241 
Q 3047 1584 2836 1778 
Q 2625 1972 2144 2069 
L 1759 2144 
Q 1053 2284 737 2584 
Q 422 2884 422 3419 
Q 422 4038 858 4394 
Q 1294 4750 2059 4750 
Q 2388 4750 2728 4690 
Q 3069 4631 3425 4513 
z
" transform="scale(0.015625)"/>
       <path id="DejaVuSans-29" d="M 513 4856 
L 1013 4856 
Q 1481 4119 1714 3412 
Q 1947 2706 1947 2009 
Q 1947 1309 1714 600 
Q 1481 -109 1013 -844 
L 513 -844 
Q 928 -128 1133 580 
Q 1338 1288 1338 2009 
Q 1338 2731 1133 3434 
Q 928 4138 513 4856 
z
" transform="scale(0.015625)"/>
      </defs>
      <use xlink:href="#DejaVuSans-50"/>
      <use xlink:href="#DejaVuSans-72" x="58.552734"/>
      <use xlink:href="#DejaVuSans-69" x="99.666016"/>
      <use xlink:href="#DejaVuSans-63" x="127.449219"/>
      <use xlink:href="#DejaVuSans-65" x="182.429688"/>
      <use xlink:href="#DejaVuSans-20" x="243.953125"/>
      <use xlink:href="#DejaVuSans-28" x="275.740234"/>
      <use xlink:href="#DejaVuSans-55" x="314.753906"/>
      <use xlink:href="#DejaVuSans-53" x="387.947266"/>
      <use xlink:href="#DejaVuSans-44" x="451.423828"/>
      <use xlink:href="#DejaVuSans-29" x="528.425781"/>
     </g>
    </g>
   </g>
   <g id="line2d_25">
    <path d="M 77.246977 332.909791 
L 77.489815 332.862844 
M 78.218328 334.224291 
L 78.461166 334.177344 
M 122.657638 332.25254 
L 122.900476 332.722005 
M 123.871827 333.942612 
L 124.114665 334.271237 
L 124.357503 335.257113 
L 124.60034 335.304059 
L 124.843178 335.726577 
M 178.267485 328.262093 
L 178.753161 331.501397 
L 178.995998 331.454451 
L 179.481674 334.224291 
L 179.724512 333.144523 
L 179.967349 334.975434 
L 180.210187 335.069327 
L 180.453025 335.491845 
L 180.695863 334.646809 
L 180.9387 334.834595 
L 181.424376 333.285362 
M 185.795456 336.289934 
L 186.038293 336.289934 
L 186.281131 336.008256 
M 217.85004 338.918935 
L 218.335715 346.477312 
M 228.049226 315.915179 
L 228.292064 321.501805 
L 228.534901 318.262501 
L 228.777739 318.966697 
L 229.020577 321.079287 
L 229.263415 320.51593 
L 229.991928 332.487273 
L 230.234766 332.205594 
L 230.477603 330.562468 
L 230.720441 330.703308 
L 230.963279 331.642237 
L 231.448954 329.435754 
M 231.93463 329.670486 
L 232.177468 331.360558 
M 237.762736 346.054794 
L 238.005574 347.463188 
L 238.248412 346.805937 
L 238.491249 348.261277 
L 238.976925 345.538383 
L 239.219763 348.918527 
L 239.4626 347.885706 
M 267.388943 296.385459 
L 267.631781 300.094228 
M 278.316642 299.390031 
L 278.802317 296.10378 
L 279.045155 294.883173 
M 282.687722 295.634316 
L 282.930559 296.291566 
L 283.173397 300.422853 
M 285.116099 307.699551 
L 285.358937 307.746498 
M 286.08745 313.098392 
L 286.330288 313.708696 
M 286.815964 316.196857 
L 287.058801 314.272053 
L 287.301639 317.980822 
L 287.544477 318.966697 
L 287.787315 319.342269 
L 288.030152 316.196857 
L 288.27299 314.694571 
L 288.515828 323.989967 
L 288.758666 325.116681 
M 289.244341 342.862436 
L 289.487179 344.223883 
L 289.730017 346.430366 
L 289.972854 350.514706 
L 290.215692 347.369295 
L 290.45853 347.932652 
M 308.428524 167.846101 
L 308.671362 168.362511 
M 325.184329 192.586875 
L 325.670005 193.572751 
L 325.912843 191.647947 
L 326.155681 193.103286 
L 326.398518 195.497555 
L 326.641356 195.920073 
L 326.884194 193.71359 
M 339.026082 174.136924 
L 339.26892 177.376228 
L 339.511757 174.089977 
L 339.754595 179.113247 
M 375.937421 54.799068 
L 376.180259 55.784944 
M 381.52269 65.362018 
L 381.765527 67.5685 
M 382.251203 68.883001 
L 382.494041 69.587197 
L 382.736878 75.032985 
L 383.222554 74.939092 
L 383.465392 73.718484 
L 383.708229 74.234895 
L 384.193905 72.310091 
M 391.479038 72.685663 
L 391.721876 72.263145 
L 391.964713 73.671538 
L 392.207551 72.638716 
L 392.450389 68.36659 
L 392.693227 68.976894 
L 392.936064 70.901698 
M 407.992005 82.966933 
L 408.234843 85.12647 
M 408.720519 90.102793 
L 408.963356 91.041721 
L 409.206194 91.229507 
L 409.449032 89.539435 
L 409.69187 94.515758 
M 418.919705 106.299315 
L 419.162542 106.299315 
L 419.40538 106.76878 
L 419.648218 107.895494 
M 450.974289 98.31842 
L 451.217127 100.947421 
L 451.459964 101.557724 
L 451.702802 105.97069 
L 451.94564 105.548172 
L 452.188478 109.914191 
L 452.431315 109.820298 
L 452.674153 110.242816 
L 452.916991 112.730978 
L 453.159829 109.726405 
M 456.802395 112.777924 
L 457.045233 112.30846 
L 457.288071 112.824871 
L 457.530908 114.561889 
M 464.087528 110.242816 
L 464.573203 112.590138 
L 464.816041 111.463424 
L 465.301717 115.266086 
L 465.544554 115.125246 
L 465.787392 116.111121 
L 466.03023 116.3928 
L 466.273068 116.486693 
L 466.515905 114.045478 
L 466.758743 115.453871 
M 472.101174 135.593895 
L 472.344012 138.082056 
M 472.829687 138.69236 
L 473.072525 139.584342 
M 493.470897 143.152272 
L 493.713734 145.217915 
L 494.19941 151.274007 
L 494.442248 152.729346 
L 494.685085 152.964078 
L 494.927923 156.438115 
L 495.170761 155.45224 
L 495.413599 151.367899 
L 495.656436 156.90758 
L 495.899274 153.621329 
L 496.142112 155.358347 
L 496.38495 155.593079 
M 502.698731 137.049235 
L 502.941569 143.997308 
L 503.184407 144.091201 
M 535.481829 120.148515 
L 535.724667 118.270658 
L 536.45318 126.110714 
L 536.696018 125.735142 
L 536.938856 129.960322 
L 537.181693 130.429786 
L 537.667369 122.261105 
L 537.910207 122.824463 
L 538.153044 124.70232 
L 538.395882 130.288947 
L 538.63872 130.523679 
M 541.067097 136.626717 
L 541.309935 141.180521 
L 541.552773 140.523271 
M 542.524124 143.293111 
L 542.766962 145.922112 
M 548.595068 163.527028 
L 548.837906 163.245349 
L 549.080744 166.813279 
L 549.323581 167.282743 
L 549.566419 170.522048 
L 549.809257 170.615941 
L 550.052095 165.686564 
L 550.294932 164.982368 
L 550.53777 167.376636 
L 550.780608 168.315565 
L 551.023446 171.367084 
M 560.008443 169.160601 
L 560.25128 168.174726 
L 560.736956 173.479674 
L 560.979794 174.18387 
L 561.222631 174.136924 
L 561.465469 173.244941 
L 561.708307 177.188442 
L 561.951145 178.502943 
L 562.193983 175.075853 
M 572.636006 164.982368 
L 572.878844 166.109082 
L 573.121682 165.029314 
L 573.364519 165.029314 
L 573.607357 165.921296 
L 574.093033 170.146476 
L 574.33587 170.428155 
L 574.578708 170.944566 
L 574.821546 172.446852 
L 575.064384 175.545317 
L 575.307222 176.061728 
L 575.550059 175.498371 
L 575.792897 175.545317 
L 576.035735 174.84112 
L 576.278573 177.564014 
L 576.52141 178.40905 
L 576.764248 175.733103 
M 587.691947 179.676604 
L 587.934785 177.470121 
M 592.063027 183.995677 
L 592.305865 186.249106 
L 592.548702 187.37582 
L 593.034378 185.451016 
M 594.005729 187.845285 
L 594.491404 188.737267 
M 596.676944 190.098714 
L 596.919782 192.25825 
M 644.273145 166.672439 
L 644.515983 169.254494 
L 645.001658 171.320137 
L 645.487334 175.075853 
L 645.730172 175.733103 
L 645.973009 174.747228 
L 646.215847 175.357531 
L 646.458685 174.371656 
L 646.701523 175.733103 
L 646.701523 175.733103 
" clip-path="url(#pa5d2304cbf)" style="fill: none; stroke: #00ff7f"/>
   </g>
   <g id="line2d_26">
    <path d="M 82.34657 325.773931 
L 82.589408 323.849127 
L 82.832246 322.957145 
L 83.075083 323.051038 
L 83.560759 321.360966 
L 83.803597 322.863252 
L 84.046435 323.097984 
L 84.289272 322.393788 
L 84.53211 323.989967 
L 84.774948 323.28577 
L 85.017786 324.412485 
L 85.260623 323.708288 
M 137.470742 334.412077 
L 137.713579 333.567041 
M 138.442093 332.440326 
L 138.68493 331.689183 
M 139.170606 331.73613 
L 139.413444 331.078879 
L 139.899119 331.830022 
M 150.098305 326.71286 
L 150.341143 327.229271 
M 163.454382 324.036913 
L 163.69722 323.661341 
M 164.425733 324.694163 
L 164.668571 324.036913 
M 169.525326 322.252948 
L 169.768164 322.252948 
M 176.567621 320.750662 
L 176.810459 320.938448 
M 183.852754 331.313612 
L 184.095591 329.858272 
M 203.279774 329.670486 
L 203.522612 328.496825 
L 203.76545 328.966289 
L 204.251125 328.637664 
L 204.493963 328.731557 
L 204.736801 323.849127 
L 204.979639 324.928895 
L 205.222476 321.360966 
L 205.465314 321.595698 
L 205.708152 324.647217 
L 205.95099 324.835003 
L 206.436665 324.647217 
M 221.492606 310.844963 
L 221.735444 309.718248 
L 221.978282 307.605658 
L 222.22112 303.709104 
L 222.463957 301.878192 
L 222.706795 297.887745 
L 222.949633 299.390031 
L 223.192471 296.244619 
L 223.435308 296.573244 
L 223.678146 298.169423 
L 223.920984 304.835818 
M 224.892335 296.338512 
L 225.135173 295.728209 
M 245.533544 328.82545 
L 245.776382 329.201022 
L 246.01922 326.384235 
L 246.262058 329.341861 
M 254.518542 313.333124 
L 254.761379 312.816713 
L 255.247055 300.798424 
L 255.489893 301.737353 
L 255.73273 295.305691 
L 255.975568 293.474779 
L 256.218406 295.117905 
L 256.461244 294.78928 
L 256.704081 296.10378 
L 256.946919 293.052261 
L 257.189757 295.634316 
L 257.432595 295.258744 
L 257.675432 295.869048 
L 257.91827 294.554547 
L 258.161108 292.582797 
M 261.075161 279.907258 
L 261.317999 277.606882 
M 261.803674 278.076346 
L 262.046512 275.353453 
L 262.28935 275.212613 
L 262.532188 270.752701 
L 262.775025 272.771398 
L 263.017863 267.935915 
M 271.517185 285.259152 
L 271.760022 281.785115 
M 272.731373 278.498864 
L 273.217049 270.424076 
L 273.459887 270.471023 
L 273.702725 271.973309 
L 273.945562 272.724452 
L 274.1884 279.296954 
M 292.64407 268.640111 
L 292.886907 268.874844 
L 293.129745 268.217594 
L 294.101096 273.569488 
L 294.343934 268.405379 
L 294.586772 268.874844 
L 294.82961 272.301934 
L 295.315285 258.264948 
M 297.015149 254.790911 
L 297.257987 253.100839 
L 297.500825 256.527929 
M 297.9865 251.457714 
L 298.229338 253.758089 
M 301.143391 155.968651 
L 301.386229 151.274007 
L 301.629067 152.306828 
L 301.871905 151.696524 
L 302.114742 157.658723 
L 302.600418 160.616348 
L 302.843256 160.052991 
L 303.086093 160.757188 
L 303.328931 163.057563 
L 303.571769 157.987348 
L 303.814607 158.597651 
L 304.057444 158.362919 
L 304.300282 156.062544 
M 328.584058 176.95371 
L 328.826896 178.080425 
M 329.312571 170.709833 
L 329.555409 174.606388 
L 329.798247 174.512495 
L 330.041085 175.545317 
M 333.683651 163.151456 
L 333.926489 163.949546 
L 334.169327 161.461384 
L 334.412164 163.057563 
L 334.655002 162.822831 
L 334.89784 163.010617 
M 335.626353 162.071688 
L 335.869191 162.30642 
M 349.710943 176.202567 
L 350.196619 174.559442 
L 350.439456 174.089977 
L 350.682294 171.977387 
L 350.925132 171.460977 
L 351.410807 173.714406 
L 351.653645 174.653335 
M 352.139321 171.226244 
L 352.624996 168.033886 
M 355.296212 140.382432 
L 355.539049 136.016413 
L 356.024725 131.321769 
L 356.267563 132.871001 
L 356.996076 128.223303 
L 357.238914 129.396965 
L 357.481751 131.744287 
L 357.724589 131.274822 
L 357.967427 128.739714 
L 358.210265 129.115286 
L 358.453102 126.251553 
L 358.69594 125.735142 
L 358.938778 121.885534 
L 359.181616 121.93248 
M 363.552695 111.651209 
L 363.795533 109.163048 
L 364.038371 111.51037 
M 367.195262 55.737997 
L 367.4381 55.550211 
L 367.680937 58.085319 
L 368.409451 55.503265 
L 368.652288 59.681498 
L 368.895126 60.526534 
L 369.380802 60.902106 
L 369.623639 61.277677 
L 369.866477 56.254408 
L 370.109315 55.080747 
L 370.352153 56.911658 
M 372.294855 50.996406 
L 372.537693 44.423905 
M 385.893769 57.334176 
L 386.136607 55.597158 
L 386.379445 55.409372 
L 386.622283 56.301354 
L 386.86512 55.691051 
L 387.107958 56.160515 
L 387.350796 59.493712 
M 431.061593 80.384879 
L 431.30443 78.976486 
L 431.547268 79.821522 
L 431.790106 81.276862 
M 432.275781 86.159291 
L 432.518619 87.332953 
M 478.172118 127.566053 
L 478.414956 125.782089 
M 498.327652 127.425214 
L 498.813327 124.937053 
L 499.299003 126.486285 
L 499.541841 129.866429 
L 499.784678 130.711465 
M 512.65508 129.866429 
L 512.897917 130.335893 
L 513.140755 133.058787 
L 513.383593 132.917948 
L 513.626431 130.852304 
L 513.869268 132.260698 
L 514.112106 131.509554 
M 528.682372 120.946605 
L 528.925209 122.261105 
L 529.168047 121.93248 
L 529.410885 119.585158 
M 533.053451 101.463832 
L 533.296289 101.510778 
M 556.365876 159.724366 
L 556.851552 154.701097 
M 564.136685 157.987348 
L 564.379522 159.067116 
L 564.62236 158.973223 
L 564.865198 159.114062 
L 565.108036 158.456812 
L 565.350873 160.33467 
L 565.593711 157.330098 
L 565.836549 158.362919 
M 606.87613 184.277355 
L 607.118968 182.962855 
L 607.361806 179.676604 
M 620.717882 179.582711 
L 620.96072 181.272783 
L 621.203558 180.193015 
L 621.689234 174.136924 
L 621.932071 173.151048 
L 622.417747 169.019762 
L 622.660585 167.282743 
L 622.903422 167.658315 
L 623.14626 168.738083 
L 623.874773 162.963671 
L 624.117611 164.935421 
L 624.360449 163.010617 
L 624.603287 163.292296 
L 624.846124 162.916724 
M 635.773824 160.804134 
L 636.016661 158.034294 
M 636.988012 158.644598 
L 637.23085 160.19383 
L 637.23085 160.19383 
" clip-path="url(#pa5d2304cbf)" style="fill: none; stroke: #ff4500"/>
   </g>
   <g id="line2d_27">
    <path d="M 77.732653 332.158647 
L 77.975491 332.534219 
M 78.704004 332.299487 
L 78.946842 333.520094 
L 79.189679 333.613987 
L 79.675355 332.25254 
L 79.918193 332.25254 
L 80.16103 334.412077 
L 80.646706 333.426201 
L 80.889544 334.459023 
L 81.375219 332.111701 
L 81.618057 333.613987 
L 82.103732 328.82545 
M 85.503461 325.257521 
L 85.746299 323.379663 
L 85.989137 324.553324 
L 86.231974 323.567449 
L 86.474812 325.022788 
L 86.71765 325.351413 
L 86.960488 326.05561 
L 87.203325 323.896074 
L 87.446163 325.116681 
L 87.689001 323.614395 
L 87.931839 321.407912 
L 88.174676 321.17318 
L 88.417514 319.201429 
L 88.660352 320.656769 
L 88.90319 320.985394 
L 89.146027 320.985394 
L 89.388865 319.670894 
L 89.874541 322.957145 
L 90.117379 324.881949 
L 90.603054 322.299895 
L 90.845892 322.159055 
L 91.331567 323.191877 
L 91.574405 322.62852 
L 91.817243 320.046465 
L 92.302918 323.332716 
L 92.545756 320.093412 
L 92.788594 322.440734 
L 93.031432 323.614395 
L 93.274269 323.802181 
L 93.517107 323.708288 
L 93.759945 322.769359 
L 94.002783 324.318592 
L 94.24562 323.614395 
L 94.488458 323.989967 
L 94.731296 323.849127 
L 94.974134 324.130806 
L 95.216971 324.881949 
L 95.459809 326.008664 
L 95.702647 325.820878 
M 96.188322 326.008664 
L 96.673998 324.036913 
L 97.159674 327.839575 
L 97.402511 329.764379 
M 97.888187 328.684611 
L 98.131025 329.4827 
M 98.6167 327.792628 
L 98.859538 326.71286 
L 99.102376 326.572021 
L 99.345213 327.323164 
L 99.588051 326.994539 
L 99.830889 327.041485 
L 100.316564 329.388807 
L 100.559402 327.229271 
L 100.80224 326.806753 
L 101.287915 325.257521 
L 101.530753 326.8537 
L 101.773591 327.417057 
L 102.016429 327.51095 
L 102.259266 326.900646 
L 102.502104 322.62852 
L 102.744942 323.332716 
L 102.98778 323.332716 
L 103.473455 323.989967 
M 104.444806 320.797609 
L 104.687644 322.159055 
L 104.930482 322.62852 
L 105.17332 322.393788 
L 105.416157 323.238824 
L 105.658995 322.957145 
L 105.901833 321.501805 
L 106.387508 320.703716 
L 106.630346 319.295322 
L 107.358859 323.238824 
L 107.601697 322.957145 
L 107.844535 323.051038 
L 108.087373 324.881949 
L 108.33021 324.694163 
L 108.573048 321.97127 
L 108.815886 323.051038 
L 109.544399 324.083859 
L 109.787237 323.755234 
M 110.272913 324.036913 
L 110.51575 323.989967 
L 110.758588 323.708288 
L 111.001426 324.083859 
L 111.244264 323.94302 
L 111.487101 322.910198 
L 111.729939 322.816306 
L 111.972777 323.28577 
L 112.70129 321.736537 
M 113.672641 324.928895 
L 113.915479 324.036913 
L 114.158317 325.210574 
L 114.401154 324.60027 
L 114.643992 322.252948 
L 114.88683 322.910198 
L 115.129668 321.877377 
L 115.615343 322.910198 
L 115.858181 322.252948 
L 116.101019 323.567449 
L 116.343857 321.83043 
L 116.586694 322.534627 
L 116.829532 322.252948 
L 117.07237 322.816306 
L 117.558045 322.159055 
L 117.800883 323.191877 
L 118.043721 325.867824 
L 118.286559 325.680038 
L 118.772234 325.586146 
L 119.015072 327.135378 
M 119.500747 325.914771 
L 119.743585 325.539199 
L 119.986423 326.008664 
M 120.472098 325.633092 
L 120.714936 324.506377 
L 121.686287 328.731557 
L 121.929125 327.792628 
L 122.4148 331.078879 
M 123.143314 330.093004 
L 123.386152 330.984986 
L 123.628989 332.534219 
M 125.086016 334.646809 
L 125.328854 333.567041 
L 125.571691 333.70788 
L 125.814529 333.567041 
L 126.300205 334.412077 
M 126.78588 334.177344 
L 127.028718 334.881541 
L 127.271556 334.083452 
L 127.514393 334.36513 
L 127.757231 334.224291 
L 128.000069 336.665506 
L 128.242907 336.430774 
L 128.485744 336.618559 
L 128.728582 336.149095 
L 128.97142 337.416649 
L 129.214258 336.806345 
L 129.699933 337.322756 
L 129.942771 338.073899 
L 130.185609 337.557488 
L 130.428447 337.557488 
L 130.671284 336.900238 
L 130.914122 336.947185 
M 131.399798 336.806345 
L 131.642635 338.449471 
L 131.885473 337.557488 
L 132.128311 337.510542 
L 132.371149 337.322756 
L 132.613986 337.557488 
L 132.856824 336.994131 
L 133.099662 336.055202 
L 133.3425 337.181917 
L 133.585337 339.857864 
L 133.828175 340.327328 
L 134.071013 341.454043 
L 134.556688 338.167792 
L 134.799526 338.355578 
L 135.042364 339.106721 
L 135.285202 337.745274 
L 135.528039 337.416649 
L 135.770877 338.167792 
L 136.013715 339.294507 
L 136.256553 337.088024 
L 136.742228 335.82047 
L 136.985066 336.149095 
L 137.227904 337.13497 
M 137.956417 333.801773 
L 138.199255 333.473148 
M 140.141957 332.628112 
L 140.384795 332.956737 
M 140.87047 332.628112 
L 141.113308 333.426201 
L 141.598983 332.909791 
L 141.841821 332.205594 
L 142.084659 332.487273 
L 142.327497 332.346433 
L 142.570335 332.346433 
L 142.813172 330.93804 
L 143.05601 330.374683 
L 143.298848 331.078879 
L 143.541686 331.125826 
L 143.784523 332.111701 
L 144.027361 332.346433 
L 144.755874 331.407504 
L 144.998712 332.346433 
L 145.24155 332.722005 
L 145.484388 332.768951 
L 145.727225 333.801773 
L 145.970063 333.285362 
L 146.212901 333.144523 
L 146.455739 330.703308 
L 146.698576 332.111701 
L 147.184252 330.93804 
L 147.42709 329.811325 
L 147.669927 329.435754 
L 147.912765 329.62354 
L 148.398441 331.219719 
L 148.641278 329.247968 
L 148.884116 329.294915 
M 150.583981 329.717433 
L 150.826818 329.717433 
L 151.069656 330.421629 
L 151.555332 328.872397 
L 151.798169 328.778504 
L 152.041007 328.027361 
L 152.283845 327.792628 
L 152.526683 327.792628 
L 153.012358 324.647217 
L 153.255196 325.022788 
L 153.740871 326.008664 
M 154.226547 327.37011 
L 154.469385 327.135378 
L 154.712222 326.665914 
L 154.95506 325.633092 
L 155.197898 326.384235 
L 155.440736 325.39836 
L 155.683574 326.431182 
L 155.926411 326.337289 
L 156.169249 323.708288 
L 156.412087 324.553324 
L 156.897762 329.107129 
L 157.383438 327.51095 
L 157.626276 327.323164 
L 157.869113 324.881949 
L 158.111951 324.647217 
L 158.354789 324.74111 
L 158.597627 326.337289 
L 158.840464 326.618967 
L 159.083302 326.572021 
L 159.32614 327.135378 
L 159.568978 327.980414 
L 159.811815 329.435754 
L 160.054653 329.999111 
L 160.297491 329.905218 
L 160.783166 328.872397 
L 161.026004 331.031933 
M 161.51168 326.806753 
L 161.754517 327.651789 
L 162.483031 325.163628 
L 162.725869 325.39836 
L 162.968706 324.975842 
L 163.211544 324.975842 
M 163.940057 325.163628 
L 164.182895 324.553324 
M 164.911408 324.177752 
L 165.397084 326.431182 
L 165.639922 326.71286 
L 165.882759 326.102556 
L 166.125597 329.717433 
L 167.339786 322.910198 
L 167.582624 323.896074 
L 167.825461 322.910198 
L 168.068299 324.835003 
L 168.311137 323.567449 
L 168.553975 323.191877 
L 169.03965 322.910198 
L 169.282488 322.581573 
M 170.011001 323.051038 
L 170.253839 321.877377 
L 170.496677 322.440734 
L 170.739515 324.224699 
L 170.982352 322.534627 
L 171.22519 322.206002 
L 171.468028 321.642644 
L 171.710866 321.97127 
L 171.953703 322.816306 
L 172.196541 322.769359 
L 172.439379 322.910198 
L 172.682217 323.755234 
L 172.925054 323.097984 
L 173.167892 324.74111 
L 173.653568 323.94302 
L 173.896405 322.206002 
L 174.139243 322.534627 
L 174.382081 321.548752 
L 174.624919 321.736537 
L 174.867756 321.220127 
L 175.110594 321.548752 
L 175.353432 320.797609 
L 175.839108 320.609823 
L 176.081945 321.032341 
L 176.324783 320.187305 
M 177.053296 322.675466 
L 177.296134 320.985394 
L 177.538972 325.351413 
L 178.024647 326.8537 
M 181.667214 332.25254 
L 181.910052 332.346433 
L 182.395727 329.107129 
L 182.638565 329.576593 
L 182.881403 330.93804 
L 183.12424 331.031933 
L 183.367078 331.689183 
L 183.609916 331.923915 
M 184.338429 330.750254 
L 184.581267 332.205594 
L 184.824105 332.722005 
L 185.066942 333.70788 
L 185.30978 333.895666 
L 185.552618 334.224291 
M 186.523969 333.426201 
L 187.009644 335.304059 
L 187.252482 334.130398 
L 187.49532 335.16322 
L 187.980995 334.459023 
L 188.466671 334.459023 
L 188.709509 335.116273 
L 188.952347 337.839167 
L 189.195184 338.120846 
L 189.68086 337.088024 
L 190.166535 337.369703 
L 190.409373 336.853292 
M 190.895049 336.900238 
L 191.137886 337.510542 
L 191.380724 337.322756 
M 191.8664 337.604435 
L 192.109237 337.510542 
L 192.352075 337.745274 
L 192.594913 338.449471 
L 192.837751 337.041077 
L 193.080588 336.430774 
L 193.323426 337.322756 
L 193.809102 335.210166 
L 194.294777 337.698328 
L 194.537615 337.510542 
L 194.780453 337.651381 
L 195.023291 337.651381 
L 195.266128 338.684203 
L 195.508966 337.93306 
L 195.751804 337.651381 
L 195.994642 336.47772 
L 196.480317 337.181917 
L 196.723155 338.402524 
L 196.965993 337.886113 
L 197.20883 336.430774 
L 197.451668 335.914363 
L 197.694506 335.773524 
L 197.937344 335.82047 
L 198.665857 338.026953 
L 199.151532 336.430774 
L 199.39437 337.839167 
L 199.637208 337.698328 
L 199.880046 340.04565 
L 200.608559 337.416649 
L 200.851397 336.008256 
L 201.094234 337.980006 
L 201.337072 338.731149 
L 201.57991 337.839167 
L 201.822748 337.510542 
L 202.065586 334.693755 
L 202.308423 334.36513 
L 202.794099 333.567041 
L 203.036937 332.39338 
M 206.679503 324.694163 
L 206.922341 325.539199 
L 207.165178 329.060182 
L 207.408016 328.355986 
L 207.650854 325.445306 
L 208.13653 324.036913 
L 208.379367 324.694163 
L 208.622205 322.769359 
L 208.865043 327.182325 
L 209.107881 328.262093 
L 209.350718 328.215146 
L 209.836394 327.323164 
L 210.079232 325.961717 
L 210.322069 328.074307 
L 210.807745 324.928895 
L 211.29342 332.768951 
L 211.536258 330.421629 
L 211.779096 331.031933 
L 212.021934 329.107129 
L 212.264771 331.172772 
L 212.507609 330.562468 
L 212.750447 328.731557 
L 212.993285 328.731557 
L 213.236122 329.4827 
L 213.721798 326.806753 
L 213.964636 328.121253 
L 214.207473 327.276218 
L 214.450311 324.224699 
L 214.693149 325.914771 
L 214.935987 324.083859 
L 215.178825 329.201022 
L 215.421662 340.139543 
L 215.6645 340.186489 
L 215.907338 343.144115 
L 216.150176 341.500989 
L 216.393013 340.843739 
L 216.878689 334.975434 
L 217.121527 335.304059 
L 217.364364 334.412077 
L 217.607202 336.947185 
M 218.578553 343.238008 
L 218.821391 346.24258 
L 219.064229 337.088024 
L 219.307066 338.355578 
L 219.549904 332.440326 
L 219.792742 337.839167 
L 220.278417 315.117089 
L 220.521255 321.126234 
L 220.764093 313.380071 
L 221.006931 309.577409 
L 221.249769 309.342677 
M 224.163822 304.319407 
L 224.406659 301.690407 
L 224.649497 301.173996 
M 225.37801 298.920567 
L 225.620848 301.314835 
L 225.863686 301.080103 
L 226.106524 301.737353 
L 226.349361 299.296138 
L 226.592199 308.967105 
L 226.835037 310.375498 
L 227.077875 309.718248 
L 227.320712 310.187713 
L 227.56355 314.459839 
L 227.806388 313.380071 
M 232.420305 329.388807 
L 232.663143 328.966289 
L 232.905981 329.013236 
L 233.148819 328.778504 
L 233.391656 329.107129 
M 233.877332 329.154075 
L 234.12017 334.975434 
L 234.363008 327.604843 
L 234.848683 323.379663 
L 235.091521 322.534627 
L 235.577196 335.069327 
L 235.820034 334.459023 
L 236.062872 335.914363 
L 236.548547 343.47274 
L 236.791385 345.350598 
L 237.034223 344.92808 
L 237.519898 345.632276 
M 240.191114 349.951349 
L 240.433951 352.110885 
L 240.919627 342.81549 
L 241.405303 350.186081 
L 241.64814 351.406689 
L 241.890978 351.547528 
L 242.133816 356.758583 
M 242.619491 356.899422 
L 242.862329 346.571205 
L 243.105167 341.876561 
L 243.590842 342.627704 
L 243.83368 343.942204 
L 244.319356 343.378847 
L 244.562193 344.176937 
L 244.805031 344.364722 
L 245.047869 342.721597 
L 245.290707 343.801365 
M 246.504895 335.538791 
L 246.747733 338.308631 
L 246.990571 333.895666 
L 247.476247 332.862844 
L 247.719084 330.13995 
L 247.961922 329.811325 
L 248.20476 329.060182 
L 248.447598 326.196449 
M 248.933273 323.097984 
L 249.661786 328.684611 
L 249.904624 327.886521 
L 250.147462 332.956737 
L 250.3903 330.233843 
L 250.875975 327.839575 
L 251.118813 332.534219 
L 251.361651 330.797201 
L 251.604488 330.186897 
L 252.090164 331.313612 
L 252.333002 331.407504 
L 252.818677 327.698735 
L 253.061515 324.975842 
L 253.304353 328.543771 
L 253.790028 322.863252 
L 254.032866 325.633092 
L 254.275704 330.28079 
M 258.403946 294.225922 
L 258.646783 291.690814 
L 258.889621 291.690814 
L 259.132459 297.512173 
L 259.375297 296.854923 
L 259.618134 293.709512 
L 259.860972 293.756458 
L 260.346648 297.089655 
L 260.832323 284.36717 
M 263.260701 278.404971 
L 263.503539 278.968329 
M 263.989214 272.583613 
L 264.232052 269.71988 
L 264.47489 283.991598 
L 264.717727 290.517153 
L 264.960565 291.737761 
L 265.203403 293.615619 
L 265.446241 294.507601 
L 265.689078 294.742333 
L 266.417592 284.320223 
L 266.660429 281.925955 
L 266.903267 282.958776 
L 267.146105 292.395011 
M 267.874618 296.90187 
L 268.117456 299.953388 
L 268.360294 297.136602 
L 268.603132 291.972493 
L 268.845969 291.22135 
L 269.088807 291.174404 
L 269.574483 297.371334 
L 269.81732 300.469799 
L 270.060158 295.070958 
L 270.302996 295.587369 
L 270.545834 294.178976 
L 270.788671 294.78928 
L 271.031509 293.052261 
L 271.274347 289.531278 
M 272.00286 280.188936 
L 272.245698 279.48474 
L 272.488536 281.972901 
M 274.431238 279.907258 
L 274.674076 281.785115 
L 274.916913 277.794668 
L 275.159751 275.869864 
L 275.402589 269.015683 
L 275.645427 272.020255 
L 275.888264 290.5641 
L 276.131102 291.784707 
L 276.37394 292.01944 
L 276.616778 287.982046 
L 276.859615 289.437385 
L 277.588129 297.465227 
L 277.830966 295.822101 
L 278.073804 296.807977 
M 279.287993 289.202653 
L 279.530831 290.939671 
L 279.773668 290.798832 
L 280.016506 290.845779 
L 280.502182 288.122885 
L 280.74502 288.780135 
M 281.230695 290.141582 
L 281.473533 289.390439 
M 281.959208 290.845779 
L 282.202046 294.178976 
L 282.444884 294.413708 
M 283.416235 296.807977 
L 283.659073 293.427833 
L 284.144748 292.254172 
L 284.387586 289.296546 
L 284.630424 294.883173 
L 284.873261 297.089655 
M 285.601775 308.967105 
L 285.844612 307.934283 
M 290.701368 341.031525 
L 290.944205 297.793852 
L 291.187043 296.995762 
L 291.429881 296.667137 
L 291.672719 297.934691 
L 291.915556 291.409136 
M 295.558123 255.917626 
L 295.800961 256.480983 
L 296.043798 258.030216 
L 296.529474 259.29777 
L 296.772312 258.171055 
M 298.472176 262.443181 
L 298.715014 268.452326 
L 298.957851 266.292789 
L 299.200689 270.001558 
L 299.443527 271.175219 
L 299.686365 265.823325 
M 300.17204 260.236698 
L 300.414878 226.763885 
L 300.657716 225.543278 
L 300.900554 192.962447 
M 304.54312 151.039274 
L 304.785958 153.903007 
L 305.028795 150.522863 
L 305.271633 151.320953 
L 305.757309 158.456812 
L 306.000146 161.508331 
L 306.485822 152.447668 
L 306.72866 155.405293 
L 306.971498 155.264454 
L 307.214335 159.771313 
L 307.700011 157.752616 
L 307.942849 165.029314 
L 308.185686 164.372064 
M 308.9142 165.170153 
L 309.399875 160.710241 
L 309.642713 160.099938 
L 309.885551 161.085813 
L 310.128388 158.785437 
L 310.371226 160.569402 
L 310.614064 159.865205 
L 311.099739 164.841528 
L 311.342577 163.057563 
L 311.585415 163.245349 
L 311.828253 165.451832 
L 312.07109 166.625493 
L 312.313928 159.724366 
L 312.556766 159.67742 
L 312.799604 163.573974 
L 313.042442 159.630473 
L 313.285279 160.19383 
L 313.528117 165.968243 
L 313.770955 175.63921 
M 314.25663 173.996084 
L 314.499468 170.991512 
L 314.985144 170.146476 
L 315.227981 167.939993 
L 315.470819 170.09953 
L 315.713657 176.29646 
L 315.956495 179.254086 
L 316.199332 179.488818 
M 316.685008 174.277763 
L 316.927846 173.385781 
L 317.170683 175.404478 
L 317.413521 171.085405 
L 317.656359 178.690729 
L 317.899197 181.742247 
L 318.142034 180.803319 
L 318.384872 178.127371 
L 318.62771 177.470121 
L 318.870548 176.249514 
L 319.113385 170.522048 
L 319.356223 178.549889 
L 319.599061 180.897211 
L 319.841899 185.40407 
L 320.084737 185.826588 
L 320.327574 181.97698 
L 320.570412 182.540337 
L 321.298925 177.235389 
L 321.541763 175.404478 
L 321.784601 175.451424 
L 322.027439 175.122799 
L 322.270276 168.691136 
L 322.513114 168.972815 
L 322.755952 172.963263 
L 322.99879 173.949138 
M 323.484465 180.568586 
L 323.727303 179.86439 
L 323.970141 180.991104 
L 324.212978 180.286908 
L 324.455816 181.83614 
L 324.698654 178.878514 
L 324.941492 190.098714 
M 327.127032 185.779641 
L 327.369869 184.74682 
L 327.612707 187.188035 
L 327.855545 183.29148 
L 328.098383 183.197587 
L 328.34122 181.930033 
M 330.283922 177.517068 
L 330.769598 182.164765 
L 331.498111 177.423175 
L 331.983787 176.718978 
L 332.226624 180.427747 
L 332.469462 179.582711 
L 332.7123 170.897619 
L 332.955138 169.677012 
L 333.197976 172.07128 
L 333.440813 165.029314 
M 335.140678 166.437707 
L 335.383515 165.686564 
M 336.112029 160.663295 
L 336.354866 166.343814 
L 336.597704 167.517475 
L 336.840542 170.850673 
L 337.08338 170.052583 
L 337.326217 173.104102 
L 337.569055 171.789602 
L 337.811893 173.949138 
L 338.054731 173.667459 
M 338.540406 175.310585 
L 338.783244 176.95371 
M 339.997433 178.127371 
L 340.240271 173.197995 
L 340.483108 178.690729 
L 340.725946 176.390353 
L 341.211622 168.738083 
L 341.454459 173.010209 
L 341.697297 173.010209 
L 341.940135 168.64419 
L 342.182973 181.225836 
L 342.911486 187.328874 
L 343.154324 181.225836 
L 343.397161 183.432319 
L 343.639999 189.206732 
L 343.882837 186.671624 
L 344.125675 187.469713 
L 344.368512 191.507107 
L 344.61135 187.610553 
L 344.854188 187.234981 
L 345.097026 192.164357 
M 345.582701 192.539929 
L 345.825539 190.709018 
L 346.068377 192.774661 
L 346.311215 196.905948 
L 346.554052 193.384965 
L 346.79689 195.685341 
L 347.039728 199.300217 
L 347.282566 200.849449 
L 347.525403 195.02809 
L 348.011079 191.178482 
L 348.496754 180.52164 
L 348.739592 181.17889 
L 348.98243 183.29148 
L 349.468105 175.967835 
M 352.867834 172.446852 
L 353.110672 176.061728 
L 353.35351 174.888067 
L 353.596347 171.507923 
L 353.839185 169.911744 
L 354.082023 170.005637 
L 354.324861 170.615941 
L 354.567698 171.695709 
L 354.810536 171.132351 
L 355.053374 171.460977 
M 359.424454 125.969874 
L 359.910129 127.378268 
L 360.152967 128.129411 
L 360.395805 133.199626 
L 360.88148 121.463016 
L 361.124318 119.209587 
L 361.367156 114.608835 
M 361.852831 113.012656 
L 362.095669 117.7073 
L 362.338507 118.270658 
L 362.824182 113.857692 
L 363.06702 113.716853 
L 363.309858 114.42105 
M 364.281209 112.16762 
L 364.524046 113.998532 
L 364.766884 114.28021 
L 365.009722 112.261513 
L 365.25256 111.557317 
M 365.738235 112.777924 
L 365.981073 115.406925 
L 366.223911 110.712281 
L 366.466749 129.537804 
L 366.709586 109.39778 
L 366.952424 77.568093 
M 370.59499 55.597158 
L 370.837828 56.207461 
L 371.080666 55.127693 
L 371.323504 53.390675 
L 371.566341 50.433049 
L 371.809179 51.325032 
L 372.052017 53.860139 
M 372.78053 48.742977 
L 373.023368 50.29221 
L 373.266206 53.249836 
L 373.509044 52.498693 
L 373.751881 52.357853 
L 373.994719 49.963585 
L 374.237557 51.231139 
L 374.480395 50.526942 
L 374.723232 50.29221 
L 375.208908 52.780371 
L 375.451746 52.217014 
L 375.694583 53.296782 
M 376.423097 56.536087 
L 376.665934 53.813193 
L 377.15161 55.644104 
M 378.122961 55.268533 
L 378.608637 58.554784 
L 378.851474 56.864712 
L 379.094312 59.305927 
L 379.33715 60.104016 
L 379.579988 62.592178 
L 379.822825 63.718892 
M 380.794176 61.606302 
L 381.037014 59.91623 
L 381.279852 62.82691 
M 384.436743 68.789108 
L 384.67958 70.056662 
L 384.922418 70.056662 
L 385.408094 60.573481 
L 385.650932 60.995999 
M 387.593634 63.671946 
L 387.836471 64.28225 
L 388.079309 59.212034 
L 388.322147 58.836462 
L 388.564985 56.348301 
L 388.807822 57.94448 
L 389.05066 57.756694 
L 389.293498 57.14639 
L 389.536336 56.958605 
L 390.264849 64.094464 
L 390.507687 64.470035 
L 390.750524 69.446358 
L 390.993362 69.774983 
L 391.2362 70.854751 
M 393.178902 68.225751 
L 393.664578 65.972321 
L 393.907415 65.174232 
L 394.393091 66.91125 
L 394.635929 66.817357 
L 394.878766 68.36659 
L 395.121604 65.59675 
M 395.60728 65.831482 
L 395.850117 62.733017 
L 396.092955 62.122713 
L 396.335793 64.28225 
L 396.578631 65.127285 
L 396.821468 63.296374 
L 397.064306 63.343321 
L 397.307144 63.578053 
L 397.549982 65.174232 
L 397.792819 63.390267 
L 398.035657 65.784536 
L 398.278495 65.502857 
L 398.521333 65.784536 
L 398.764171 64.14141 
L 399.007008 63.578053 
L 399.492684 67.991018 
L 399.735522 68.836054 
L 399.978359 68.836054 
L 400.221197 67.5685 
L 400.464035 64.235303 
L 400.706873 64.9395 
L 400.94971 61.794088 
L 401.192548 63.296374 
L 401.435386 63.671946 
L 401.678224 64.376142 
L 401.921061 69.774983 
L 402.163899 67.756286 
L 402.406737 70.432233 
L 402.649575 66.441786 
L 402.892412 72.075359 
L 403.13525 71.699787 
L 403.378088 72.263145 
L 403.620926 74.610467 
L 403.863763 74.469627 
L 404.106601 69.305519 
L 404.349439 71.652841 
L 404.592277 70.197501 
L 404.835115 69.68109 
L 405.077952 71.230323 
L 405.32079 67.005143 
L 405.563628 69.962769 
L 405.806466 68.976894 
L 406.292141 76.347485 
L 406.534979 76.910842 
L 407.020654 82.779148 
L 407.263492 84.891738 
M 410.420383 95.783312 
L 410.906058 94.75049 
M 411.391734 94.046294 
L 411.634572 92.309275 
L 411.87741 93.529883 
L 412.363085 90.337525 
L 412.605923 95.971098 
L 412.848761 95.830259 
L 413.091598 94.562705 
L 413.334436 98.365366 
L 413.577274 97.285598 
L 413.820112 92.966526 
L 414.062949 96.158884 
L 414.305787 95.924151 
L 414.548625 96.956973 
L 415.0343 93.576829 
L 415.277138 98.31842 
L 415.519976 93.154311 
L 415.762814 93.107365 
L 416.005651 92.684847 
L 416.248489 93.43599 
L 416.491327 93.389044 
L 416.734165 94.844383 
L 416.977002 93.811562 
L 417.21984 98.647045 
L 417.462678 101.041314 
L 417.705516 95.924151 
L 418.191191 101.839403 
L 418.434029 102.496653 
L 418.676867 104.327565 
M 419.891056 104.327565 
L 420.133893 96.534455 
L 420.376731 95.219955 
L 420.619569 102.027189 
L 420.862407 104.750082 
L 421.105244 101.88635 
L 421.348082 102.637493 
L 421.59092 106.299315 
L 421.833758 104.937868 
L 422.076595 104.750082 
L 422.319433 102.919171 
L 422.562271 107.379083 
L 422.805109 105.829851 
L 423.047946 105.735958 
L 423.290784 101.463832 
L 423.533622 89.21081 
L 424.019297 99.492081 
L 424.262135 97.755063 
L 424.504973 97.473384 
L 424.990649 88.741346 
L 425.233486 94.046294 
L 425.476324 95.407741 
L 425.719162 94.374919 
L 425.962 94.985223 
L 426.447675 97.238652 
L 426.690513 94.75049 
L 427.176188 94.327972 
L 427.661864 99.63292 
L 427.904702 96.956973 
L 428.147539 101.933296 
M 428.633215 101.182153 
L 428.876053 101.88635 
L 429.361728 104.562297 
L 429.604566 104.233672 
L 430.090241 93.201258 
L 430.818755 85.314256 
M 432.761457 90.055846 
L 433.004295 91.98065 
L 433.247132 94.844383 
L 433.48997 91.417293 
L 433.732808 94.797437 
L 433.975646 84.187541 
L 434.218483 85.079523 
L 434.461321 84.657005 
L 434.946997 90.196685 
L 435.189834 89.586382 
L 435.432672 89.915007 
L 435.67551 87.614631 
L 435.918348 88.835239 
L 436.161185 82.544415 
L 436.646861 80.619611 
L 436.889699 76.67611 
M 437.375374 74.422681 
L 437.86105 86.300131 
L 438.346725 79.352057 
L 438.589563 79.539843 
L 438.832401 81.746326 
L 439.075239 82.450523 
L 439.318076 82.21579 
L 439.560914 80.384879 
L 439.803752 77.521146 
L 440.04659 77.33336 
L 441.017941 81.089076 
L 441.503616 79.164272 
L 441.746454 75.549396 
L 441.989292 75.126878 
L 442.232129 79.164272 
L 442.717805 77.990611 
L 443.20348 77.004735 
L 443.446318 78.976486 
L 443.689156 77.286414 
L 443.931994 81.323808 
L 444.174832 76.488324 
L 444.417669 76.01886 
L 444.660507 78.037557 
L 444.903345 73.389859 
L 445.146183 75.737181 
L 445.38902 79.774575 
L 445.631858 80.290986 
L 445.874696 86.581809 
L 446.117534 87.426845 
L 446.360371 83.811969 
L 446.846047 88.694399 
L 447.088885 88.600506 
L 447.331722 86.347077 
L 447.57456 86.628756 
L 447.817398 84.516166 
L 448.060236 84.844791 
M 448.545911 84.703952 
L 448.788749 86.487917 
L 449.031587 84.516166 
L 449.274424 84.703952 
L 449.517262 89.257757 
L 450.002938 92.590954 
L 450.245775 91.417293 
L 450.488613 95.877205 
L 450.731451 97.238652 
M 453.402666 102.919171 
L 453.888342 102.261921 
L 454.13118 102.731385 
L 454.374017 102.214975 
L 454.859693 103.388636 
L 455.102531 102.684439 
L 455.345368 102.731385 
L 455.588206 103.341689 
L 456.073882 107.144351 
L 456.316719 109.209994 
L 456.559557 109.209994 
M 457.773746 106.205422 
L 458.016584 100.665742 
L 458.259422 100.806581 
L 458.502259 102.074135 
L 458.745097 104.092832 
L 458.987935 104.186725 
L 459.230773 102.40276 
L 459.47361 103.8581 
L 459.716448 101.980242 
L 459.959286 104.562297 
L 460.202124 104.937868 
L 460.444961 107.003512 
L 460.687799 100.947421 
M 461.173475 100.008492 
L 461.65915 102.496653 
L 461.901988 105.642065 
L 462.144826 104.092832 
L 462.387663 103.576421 
L 462.630501 105.407333 
L 462.873339 105.360386 
L 463.116177 104.609243 
L 463.359014 103.388636 
L 463.84469 110.524495 
M 467.001581 106.487101 
L 467.244419 110.618388 
L 467.487256 111.745102 
L 467.972932 117.988979 
L 468.21577 117.472568 
L 468.458607 118.364551 
L 468.701445 118.646229 
L 468.944283 121.181337 
L 469.187121 121.416069 
L 469.429958 116.674479 
L 469.672796 117.84814 
L 469.915634 116.064175 
L 470.158472 116.345854 
L 470.40131 115.923336 
L 470.644147 110.618388 
L 470.886985 114.327157 
L 471.129823 120.007676 
L 471.372661 122.58973 
L 471.858336 132.824055 
M 473.315363 131.650394 
L 473.5582 134.044662 
L 473.801038 129.631697 
M 474.286714 133.622144 
L 474.529551 135.171377 
L 474.772389 135.969466 
L 475.258065 132.871001 
L 475.500902 131.462608 
L 475.74374 131.83818 
L 475.986578 130.664518 
L 476.229416 127.237428 
L 476.472253 127.753839 
L 476.715091 126.95575 
L 476.957929 127.143535 
L 477.200767 126.486285 
L 477.443605 130.570626 
L 477.686442 131.274822 
L 477.92928 131.04009 
M 478.657793 132.964894 
L 479.143469 137.612592 
L 479.386307 137.894271 
L 479.629144 133.575198 
L 479.871982 132.871001 
L 480.11482 130.899251 
L 480.357658 130.993144 
L 480.600495 137.143127 
L 480.843333 135.218323 
L 481.086171 131.885126 
L 481.329009 132.824055 
L 481.571846 132.636269 
L 481.814684 134.561073 
L 482.30036 132.824055 
L 482.543197 128.833607 
L 483.028873 133.105733 
L 483.271711 135.546948 
L 483.514549 129.490857 
L 483.757386 135.030538 
L 484.000224 132.542376 
L 484.243062 128.411089 
L 484.4859 129.819483 
L 484.971575 136.57977 
L 485.214413 128.176357 
L 485.457251 126.110714 
L 485.700088 128.598875 
L 485.942926 128.974447 
L 486.185764 129.678643 
L 486.428602 134.60802 
L 486.671439 131.791233 
L 486.914277 126.533232 
L 487.399953 128.598875 
L 487.64279 124.514535 
L 487.885628 126.063767 
L 488.128466 125.312624 
L 488.371304 125.50041 
L 488.614141 126.721017 
L 488.856979 126.627124 
L 489.099817 132.636269 
L 489.342655 132.777108 
L 489.585492 131.556501 
L 489.82833 133.903823 
L 490.071168 131.133983 
L 490.314006 132.824055 
L 490.799681 129.396965 
L 491.285357 133.528251 
L 491.528195 132.49543 
L 491.771032 136.204199 
L 492.01387 136.204199 
L 492.256708 131.932072 
L 493.228059 140.100753 
M 496.627788 147.612184 
L 496.870625 143.668683 
L 497.113463 144.044254 
L 497.356301 148.316381 
L 497.599139 150.522863 
L 497.841976 143.715629 
L 498.084814 131.180929 
M 500.027516 133.293519 
L 500.270354 135.12443 
L 500.513192 132.072912 
L 500.756029 135.500002 
L 500.998867 137.049235 
L 501.241705 136.298092 
L 501.484543 133.246573 
L 501.72738 133.856877 
L 501.970218 135.406109 
L 502.213056 134.654966 
L 502.455894 134.936645 
M 503.427245 139.443503 
L 503.670083 142.823647 
L 503.91292 140.053807 
L 504.155758 139.396557 
L 504.398596 134.983591 
L 504.641434 138.974039 
L 504.884271 140.945789 
L 505.127109 139.912968 
L 505.369947 140.382432 
L 505.612785 142.354183 
L 505.855622 138.927092 
L 506.09846 139.067932 
L 506.341298 145.499594 
L 506.584136 146.626309 
L 507.069811 149.865613 
L 507.312649 148.785845 
L 507.555487 147.048827 
M 508.041162 146.34463 
L 508.526838 140.241593 
L 508.769675 140.570218 
L 509.012513 137.706485 
L 509.498189 145.124023 
L 509.741027 146.532416 
L 510.226702 142.729754 
L 510.712378 144.091201 
L 511.683729 136.391984 
L 512.169404 128.458036 
L 512.412242 129.350018 
M 514.354944 133.80993 
L 515.083457 141.227468 
L 515.326295 137.753431 
L 515.81197 134.373287 
L 516.054808 137.330913 
L 516.297646 136.57977 
L 516.540484 134.60802 
L 516.783322 128.411089 
L 517.026159 129.256125 
L 517.268997 131.932072 
L 517.511835 127.237428 
L 517.99751 136.861449 
L 518.240348 132.777108 
L 518.726024 136.955342 
L 518.968861 136.110306 
L 519.211699 133.528251 
L 519.454537 134.561073 
L 519.697375 136.626717 
L 519.940212 136.626717 
L 520.18305 134.842752 
L 520.425888 134.60802 
L 520.668726 131.368715 
L 520.911563 132.589323 
L 521.154401 128.692768 
L 521.397239 129.303072 
L 521.640077 125.594303 
L 522.125752 130.993144 
L 522.36859 131.227876 
L 522.611428 131.791233 
L 522.854266 136.204199 
L 523.339941 132.683215 
L 523.582779 129.396965 
L 523.825617 124.561481 
L 524.311292 128.692768 
L 524.55413 125.688196 
L 524.796968 131.321769 
L 525.039805 128.974447 
L 525.282643 137.190074 
L 525.525481 134.326341 
L 525.768319 139.161824 
L 526.253994 135.92252 
L 526.496832 135.312216 
L 526.73967 127.659946 
L 526.982507 128.598875 
L 527.225345 128.223303 
L 527.468183 129.678643 
L 527.953858 127.237428 
L 528.196696 126.345446 
L 528.439534 121.463016 
M 529.653723 125.030945 
L 529.896561 126.580178 
L 530.139398 121.228284 
L 530.382236 121.228284 
M 530.867912 118.552336 
L 531.110749 117.19089 
M 531.596425 108.505798 
L 531.839263 104.092832 
L 532.0821 105.125654 
L 532.324938 104.280618 
M 533.539127 103.998939 
L 533.781965 107.144351 
L 534.024802 105.876797 
L 534.510478 107.332137 
L 534.753316 109.914191 
L 534.996153 109.726405 
L 535.238991 115.0783 
M 538.881558 131.274822 
L 539.124395 129.443911 
L 539.610071 136.532824 
L 539.852909 134.654966 
L 540.095746 135.92252 
L 540.338584 131.885126 
L 540.581422 136.955342 
L 540.82426 137.002288 
M 541.795611 140.945789 
L 542.038448 138.457628 
L 542.281286 142.729754 
M 543.981151 144.842344 
L 544.466826 142.91754 
L 544.709664 147.283559 
L 544.952502 146.720202 
L 545.681015 142.025557 
L 545.923853 143.997308 
L 546.16669 148.738899 
L 546.409528 144.23204 
L 546.895204 141.227468 
L 547.380879 146.34463 
L 547.866555 157.283151 
L 548.109392 161.743063 
L 548.35223 158.926277 
M 551.266283 169.113654 
L 551.509121 172.024334 
L 551.751959 167.893047 
L 551.994797 166.766332 
L 552.237634 168.691136 
L 552.480472 168.221672 
L 552.966148 169.817851 
L 553.208985 172.306013 
L 553.451823 170.615941 
L 553.694661 167.98694 
L 553.937499 167.658315 
L 554.180336 168.221672 
L 554.423174 165.170153 
L 554.666012 164.888475 
L 554.90885 163.714814 
L 555.151687 164.606796 
L 555.394525 162.822831 
L 555.637363 162.635045 
M 557.09439 158.785437 
L 557.337227 159.301848 
L 557.580065 158.362919 
L 557.822903 162.165581 
L 558.551416 167.18885 
L 558.794254 164.794582 
L 559.037092 166.109082 
L 559.279929 165.123207 
L 559.522767 165.170153 
L 559.765605 165.639618 
M 562.43682 171.554869 
L 562.679658 169.583119 
L 562.922496 170.662887 
L 563.651009 157.987348 
L 563.893847 159.254902 
M 566.565062 158.785437 
L 566.8079 160.381616 
L 567.050738 160.569402 
L 567.536413 164.278171 
L 568.264926 154.935829 
L 568.750602 158.785437 
L 569.236278 156.297276 
L 569.479115 156.813687 
L 569.721953 154.137739 
L 569.964791 153.949954 
L 570.207629 156.438115 
L 570.450466 160.287723 
L 570.693304 160.287723 
L 571.17898 162.916724 
L 571.421817 163.10451 
M 571.907493 163.76176 
L 572.150331 161.226652 
L 572.393168 162.071688 
M 577.007086 171.038459 
L 577.249924 170.475101 
L 577.492761 172.352959 
L 577.735599 169.770905 
L 577.978437 171.320137 
L 578.221275 165.592671 
L 578.70695 167.470529 
L 578.949788 165.2171 
L 579.192626 166.766332 
L 579.435463 169.583119 
L 579.678301 171.085405 
L 580.406814 169.723958 
L 580.649652 166.202975 
L 580.89249 167.846101 
L 581.135328 170.615941 
L 581.378165 170.75678 
L 581.621003 171.789602 
L 581.863841 171.977387 
L 582.106679 170.944566 
M 582.592354 171.601816 
L 583.07803 176.859817 
M 584.049381 175.498371 
L 584.535056 170.475101 
L 584.777894 170.381208 
L 585.020732 172.07128 
L 585.26357 172.352959 
L 585.506407 172.399905 
L 585.749245 171.41403 
L 585.992083 170.897619 
L 586.477758 173.620513 
L 587.206272 179.911336 
L 587.449109 179.676604 
M 588.177623 174.230817 
L 588.420461 175.545317 
L 588.663298 173.52662 
L 588.906136 176.672032 
L 589.148974 176.202567 
L 589.634649 173.714406 
L 589.877487 174.089977 
L 590.120325 175.404478 
L 590.363163 177.423175 
L 590.606 176.155621 
L 590.848838 174.089977 
L 591.091676 174.230817 
L 591.577351 181.131944 
L 591.820189 182.258658 
M 593.277216 182.49339 
L 593.520053 183.385373 
L 593.762891 188.220856 
M 594.734242 186.530784 
L 594.97708 187.234981 
L 595.219918 186.624677 
L 595.462756 189.441464 
L 595.705593 189.535357 
L 595.948431 190.192607 
L 596.191269 191.178482 
L 596.434107 191.225429 
M 597.16262 193.525804 
L 597.405458 192.539929 
L 597.648295 194.042215 
L 597.891133 194.464733 
M 598.376809 191.272375 
L 598.862484 191.272375 
L 599.105322 189.957875 
L 599.34816 187.751392 
L 599.590997 187.986124 
L 600.076673 191.554054 
L 600.319511 188.126963 
L 600.562348 189.582303 
L 600.805186 187.986124 
L 601.048024 190.615125 
L 601.290862 191.647947 
L 601.776537 191.084589 
L 602.019375 187.141088 
L 602.262213 187.37582 
L 602.505051 190.896804 
L 602.747888 189.253678 
L 602.990726 188.83116 
L 603.233564 190.427339 
L 603.719239 191.366268 
L 603.962077 191.413214 
L 604.204915 189.910928 
L 604.447753 189.62925 
L 604.69059 190.14566 
L 604.933428 190.004821 
L 605.176266 188.220856 
L 605.419104 187.798338 
L 605.661941 187.141088 
L 605.904779 187.845285 
L 606.147617 188.033071 
L 606.390455 190.2865 
L 606.633292 185.920481 
M 607.604643 183.150641 
L 607.847481 181.930033 
L 608.090319 181.695301 
L 608.333157 183.901784 
L 608.575995 183.760944 
L 608.818832 182.775069 
L 609.06167 182.962855 
L 609.304508 182.63423 
L 609.547346 185.544909 
L 609.790183 185.497963 
L 610.033021 183.338426 
L 610.275859 186.108266 
L 610.518697 186.85941 
L 610.761534 186.202159 
L 611.004372 189.065892 
M 611.490048 188.033071 
L 611.732885 186.249106 
L 611.975723 186.249106 
L 612.704236 192.25825 
L 612.947074 191.366268 
L 613.189912 191.131536 
L 613.43275 187.845285 
L 613.675587 188.502535 
L 613.918425 188.267803 
L 614.161263 188.925053 
L 614.404101 187.704445 
L 614.646939 183.807891 
L 614.889776 182.305605 
L 615.132614 182.587283 
L 615.375452 185.732695 
L 615.61829 183.244534 
L 615.861127 182.63423 
L 616.103965 187.563606 
L 616.346803 187.892231 
L 616.589641 186.342999 
L 616.832478 189.018946 
L 617.318154 185.967427 
L 617.560992 187.939178 
L 617.803829 188.455589 
L 618.046667 188.596428 
L 618.289505 188.361696 
L 618.532343 187.845285 
L 618.77518 186.202159 
L 619.018018 186.389945 
L 619.260856 184.371248 
L 619.503694 185.638802 
L 619.746531 185.685748 
L 619.989369 185.497963 
L 620.232207 185.873534 
L 620.475045 183.009801 
M 625.088962 166.249922 
L 625.3318 168.456404 
L 625.574638 166.672439 
L 625.817475 168.550297 
L 626.060313 169.113654 
L 626.303151 166.672439 
L 626.545989 168.456404 
L 626.788826 162.681992 
L 627.031664 163.527028 
L 627.274502 166.578547 
L 627.51734 166.766332 
L 627.760178 168.456404 
L 628.003015 167.376636 
L 628.245853 168.221672 
L 628.488691 170.709833 
L 628.731529 169.254494 
L 628.974366 169.160601 
L 629.217204 168.362511 
L 629.460042 165.686564 
L 629.70288 170.850673 
L 629.945717 167.564422 
L 630.431393 172.822423 
L 630.674231 172.259066 
L 630.917068 175.733103 
L 631.402744 165.686564 
L 631.645582 167.611368 
L 631.888419 168.315565 
L 632.131257 169.723958 
L 632.374095 172.259066 
L 632.616933 171.085405 
L 633.102608 167.705261 
L 633.345446 169.019762 
L 633.588284 173.714406 
L 633.831121 170.75678 
L 634.073959 169.395333 
L 634.316797 169.536172 
L 634.559635 168.925869 
L 634.802473 169.95869 
L 635.04531 164.137332 
L 635.288148 163.76176 
L 635.530986 162.118635 
M 636.259499 158.87933 
L 636.502337 158.644598 
L 636.745175 160.287723 
M 637.473688 161.977795 
L 637.716526 161.602224 
L 637.959363 164.137332 
L 638.445039 156.954526 
L 638.687877 162.071688 
L 638.930714 158.550705 
L 639.173552 158.644598 
L 639.41639 156.625901 
L 639.659228 152.964078 
L 639.902065 153.386596 
L 640.144903 155.264454 
L 640.387741 155.593079 
L 640.873417 157.095365 
L 641.116254 158.269026 
L 641.359092 156.10949 
L 641.60193 161.038866 
L 641.844768 159.67742 
L 642.087605 159.818259 
L 642.330443 160.804134 
L 642.573281 158.644598 
L 642.816119 159.67742 
L 643.058956 159.254902 
L 643.301794 161.461384 
L 643.544632 161.226652 
L 643.78747 162.118635 
L 644.030307 163.76176 
L 644.030307 163.76176 
" clip-path="url(#pa5d2304cbf)" style="fill: none; stroke: #1e90ff"/>
   </g>
   <g id="patch_3">
    <path d="M 48.77425 378.43845 
L 48.77425 28.51845 
" style="fill: none; stroke: #f0f0f0; stroke-width: 3; stroke-linejoin: miter; stroke-linecap: square"/>
   </g>
   <g id="patch_4">
    <path d="M 675.17425 378.43845 
L 675.17425 28.51845 
" style="fill: none; stroke: #f0f0f0; stroke-width: 3; stroke-linejoin: miter; stroke-linecap: square"/>
   </g>
   <g id="patch_5">
    <path d="M 48.77425 378.43845 
L 675.17425 378.43845 
" style="fill: none; stroke: #f0f0f0; stroke-width: 3; stroke-linejoin: miter; stroke-linecap: square"/>
   </g>
   <g id="patch_6">
    <path d="M 48.77425 28.51845 
L 675.17425 28.51845 
" style="fill: none; stroke: #f0f0f0; stroke-width: 3; stroke-linejoin: miter; stroke-linecap: square"/>
   </g>
   <g id="text_15">
    <!-- PCG, Relative Strength Index (RSI), PCG -->
    <g transform="translate(161.45155 22.51845)scale(0.2016 -0.2016)">
     <defs>
      <path id="DejaVuSans-43" d="M 4122 4306 
L 4122 3641 
Q 3803 3938 3442 4084 
Q 3081 4231 2675 4231 
Q 1875 4231 1450 3742 
Q 1025 3253 1025 2328 
Q 1025 1406 1450 917 
Q 1875 428 2675 428 
Q 3081 428 3442 575 
Q 3803 722 4122 1019 
L 4122 359 
Q 3791 134 3420 21 
Q 3050 -91 2638 -91 
Q 1578 -91 968 557 
Q 359 1206 359 2328 
Q 359 3453 968 4101 
Q 1578 4750 2638 4750 
Q 3056 4750 3426 4639 
Q 3797 4528 4122 4306 
z
" transform="scale(0.015625)"/>
      <path id="DejaVuSans-47" d="M 3809 666 
L 3809 1919 
L 2778 1919 
L 2778 2438 
L 4434 2438 
L 4434 434 
Q 4069 175 3628 42 
Q 3188 -91 2688 -91 
Q 1594 -91 976 548 
Q 359 1188 359 2328 
Q 359 3472 976 4111 
Q 1594 4750 2688 4750 
Q 3144 4750 3555 4637 
Q 3966 4525 4313 4306 
L 4313 3634 
Q 3963 3931 3569 4081 
Q 3175 4231 2741 4231 
Q 1884 4231 1454 3753 
Q 1025 3275 1025 2328 
Q 1025 1384 1454 906 
Q 1884 428 2741 428 
Q 3075 428 3337 486 
Q 3600 544 3809 666 
z
" transform="scale(0.015625)"/>
      <path id="DejaVuSans-2c" d="M 750 794 
L 1409 794 
L 1409 256 
L 897 -744 
L 494 -744 
L 750 256 
L 750 794 
z
" transform="scale(0.015625)"/>
      <path id="DejaVuSans-52" d="M 2841 2188 
Q 3044 2119 3236 1894 
Q 3428 1669 3622 1275 
L 4263 0 
L 3584 0 
L 2988 1197 
Q 2756 1666 2539 1819 
Q 2322 1972 1947 1972 
L 1259 1972 
L 1259 0 
L 628 0 
L 628 4666 
L 2053 4666 
Q 2853 4666 3247 4331 
Q 3641 3997 3641 3322 
Q 3641 2881 3436 2590 
Q 3231 2300 2841 2188 
z
M 1259 4147 
L 1259 2491 
L 2053 2491 
Q 2509 2491 2742 2702 
Q 2975 2913 2975 3322 
Q 2975 3731 2742 3939 
Q 2509 4147 2053 4147 
L 1259 4147 
z
" transform="scale(0.015625)"/>
      <path id="DejaVuSans-6c" d="M 603 4863 
L 1178 4863 
L 1178 0 
L 603 0 
L 603 4863 
z
" transform="scale(0.015625)"/>
      <path id="DejaVuSans-76" d="M 191 3500 
L 800 3500 
L 1894 563 
L 2988 3500 
L 3597 3500 
L 2284 0 
L 1503 0 
L 191 3500 
z
" transform="scale(0.015625)"/>
      <path id="DejaVuSans-6e" d="M 3513 2113 
L 3513 0 
L 2938 0 
L 2938 2094 
Q 2938 2591 2744 2837 
Q 2550 3084 2163 3084 
Q 1697 3084 1428 2787 
Q 1159 2491 1159 1978 
L 1159 0 
L 581 0 
L 581 3500 
L 1159 3500 
L 1159 2956 
Q 1366 3272 1645 3428 
Q 1925 3584 2291 3584 
Q 2894 3584 3203 3211 
Q 3513 2838 3513 2113 
z
" transform="scale(0.015625)"/>
      <path id="DejaVuSans-67" d="M 2906 1791 
Q 2906 2416 2648 2759 
Q 2391 3103 1925 3103 
Q 1463 3103 1205 2759 
Q 947 2416 947 1791 
Q 947 1169 1205 825 
Q 1463 481 1925 481 
Q 2391 481 2648 825 
Q 2906 1169 2906 1791 
z
M 3481 434 
Q 3481 -459 3084 -895 
Q 2688 -1331 1869 -1331 
Q 1566 -1331 1297 -1286 
Q 1028 -1241 775 -1147 
L 775 -588 
Q 1028 -725 1275 -790 
Q 1522 -856 1778 -856 
Q 2344 -856 2625 -561 
Q 2906 -266 2906 331 
L 2906 616 
Q 2728 306 2450 153 
Q 2172 0 1784 0 
Q 1141 0 747 490 
Q 353 981 353 1791 
Q 353 2603 747 3093 
Q 1141 3584 1784 3584 
Q 2172 3584 2450 3431 
Q 2728 3278 2906 2969 
L 2906 3500 
L 3481 3500 
L 3481 434 
z
" transform="scale(0.015625)"/>
      <path id="DejaVuSans-68" d="M 3513 2113 
L 3513 0 
L 2938 0 
L 2938 2094 
Q 2938 2591 2744 2837 
Q 2550 3084 2163 3084 
Q 1697 3084 1428 2787 
Q 1159 2491 1159 1978 
L 1159 0 
L 581 0 
L 581 4863 
L 1159 4863 
L 1159 2956 
Q 1366 3272 1645 3428 
Q 1925 3584 2291 3584 
Q 2894 3584 3203 3211 
Q 3513 2838 3513 2113 
z
" transform="scale(0.015625)"/>
      <path id="DejaVuSans-49" d="M 628 4666 
L 1259 4666 
L 1259 0 
L 628 0 
L 628 4666 
z
" transform="scale(0.015625)"/>
      <path id="DejaVuSans-64" d="M 2906 2969 
L 2906 4863 
L 3481 4863 
L 3481 0 
L 2906 0 
L 2906 525 
Q 2725 213 2448 61 
Q 2172 -91 1784 -91 
Q 1150 -91 751 415 
Q 353 922 353 1747 
Q 353 2572 751 3078 
Q 1150 3584 1784 3584 
Q 2172 3584 2448 3432 
Q 2725 3281 2906 2969 
z
M 947 1747 
Q 947 1113 1208 752 
Q 1469 391 1925 391 
Q 2381 391 2643 752 
Q 2906 1113 2906 1747 
Q 2906 2381 2643 2742 
Q 2381 3103 1925 3103 
Q 1469 3103 1208 2742 
Q 947 2381 947 1747 
z
" transform="scale(0.015625)"/>
      <path id="DejaVuSans-78" d="M 3513 3500 
L 2247 1797 
L 3578 0 
L 2900 0 
L 1881 1375 
L 863 0 
L 184 0 
L 1544 1831 
L 300 3500 
L 978 3500 
L 1906 2253 
L 2834 3500 
L 3513 3500 
z
" transform="scale(0.015625)"/>
     </defs>
     <use xlink:href="#DejaVuSans-50"/>
     <use xlink:href="#DejaVuSans-43" x="60.302734"/>
     <use xlink:href="#DejaVuSans-47" x="130.126953"/>
     <use xlink:href="#DejaVuSans-2c" x="207.617188"/>
     <use xlink:href="#DejaVuSans-20" x="239.404297"/>
     <use xlink:href="#DejaVuSans-52" x="271.191406"/>
     <use xlink:href="#DejaVuSans-65" x="336.173828"/>
     <use xlink:href="#DejaVuSans-6c" x="397.697266"/>
     <use xlink:href="#DejaVuSans-61" x="425.480469"/>
     <use xlink:href="#DejaVuSans-74" x="486.759766"/>
     <use xlink:href="#DejaVuSans-69" x="525.96875"/>
     <use xlink:href="#DejaVuSans-76" x="553.751953"/>
     <use xlink:href="#DejaVuSans-65" x="612.931641"/>
     <use xlink:href="#DejaVuSans-20" x="674.455078"/>
     <use xlink:href="#DejaVuSans-53" x="706.242188"/>
     <use xlink:href="#DejaVuSans-74" x="769.71875"/>
     <use xlink:href="#DejaVuSans-72" x="808.927734"/>
     <use xlink:href="#DejaVuSans-65" x="847.791016"/>
     <use xlink:href="#DejaVuSans-6e" x="909.314453"/>
     <use xlink:href="#DejaVuSans-67" x="972.693359"/>
     <use xlink:href="#DejaVuSans-74" x="1036.169922"/>
     <use xlink:href="#DejaVuSans-68" x="1075.378906"/>
     <use xlink:href="#DejaVuSans-20" x="1138.757812"/>
     <use xlink:href="#DejaVuSans-49" x="1170.544922"/>
     <use xlink:href="#DejaVuSans-6e" x="1200.037109"/>
     <use xlink:href="#DejaVuSans-64" x="1263.416016"/>
     <use xlink:href="#DejaVuSans-65" x="1326.892578"/>
     <use xlink:href="#DejaVuSans-78" x="1386.666016"/>
     <use xlink:href="#DejaVuSans-20" x="1445.845703"/>
     <use xlink:href="#DejaVuSans-28" x="1477.632812"/>
     <use xlink:href="#DejaVuSans-52" x="1516.646484"/>
     <use xlink:href="#DejaVuSans-53" x="1586.128906"/>
     <use xlink:href="#DejaVuSans-49" x="1649.605469"/>
     <use xlink:href="#DejaVuSans-29" x="1679.097656"/>
     <use xlink:href="#DejaVuSans-2c" x="1718.111328"/>
     <use xlink:href="#DejaVuSans-20" x="1749.898438"/>
     <use xlink:href="#DejaVuSans-50" x="1781.685547"/>
     <use xlink:href="#DejaVuSans-43" x="1841.988281"/>
     <use xlink:href="#DejaVuSans-47" x="1911.8125"/>
    </g>
   </g>
   <g id="legend_1">
    <g id="patch_7">
     <path d="M 58.57425 101.366575 
L 268.447375 101.366575 
Q 271.247375 101.366575 271.247375 98.566575 
L 271.247375 38.31845 
Q 271.247375 35.51845 268.447375 35.51845 
L 58.57425 35.51845 
Q 55.77425 35.51845 55.77425 38.31845 
L 55.77425 98.566575 
Q 55.77425 101.366575 58.57425 101.366575 
z
" style="fill: #f0f0f0; opacity: 0.8; stroke: #cccccc; stroke-width: 0.5; stroke-linejoin: miter"/>
    </g>
    <g id="line2d_28">
     <path d="M 61.37425 46.856262 
L 75.37425 46.856262 
L 89.37425 46.856262 
" style="fill: none; stroke: #00ff7f"/>
    </g>
    <g id="text_16">
     <!-- Oversold, RSI &lt;= 30 -->
     <g transform="translate(100.57425 51.756262)scale(0.14 -0.14)">
      <defs>
       <path id="DejaVuSans-4f" d="M 2522 4238 
Q 1834 4238 1429 3725 
Q 1025 3213 1025 2328 
Q 1025 1447 1429 934 
Q 1834 422 2522 422 
Q 3209 422 3611 934 
Q 4013 1447 4013 2328 
Q 4013 3213 3611 3725 
Q 3209 4238 2522 4238 
z
M 2522 4750 
Q 3503 4750 4090 4092 
Q 4678 3434 4678 2328 
Q 4678 1225 4090 567 
Q 3503 -91 2522 -91 
Q 1538 -91 948 565 
Q 359 1222 359 2328 
Q 359 3434 948 4092 
Q 1538 4750 2522 4750 
z
" transform="scale(0.015625)"/>
       <path id="DejaVuSans-73" d="M 2834 3397 
L 2834 2853 
Q 2591 2978 2328 3040 
Q 2066 3103 1784 3103 
Q 1356 3103 1142 2972 
Q 928 2841 928 2578 
Q 928 2378 1081 2264 
Q 1234 2150 1697 2047 
L 1894 2003 
Q 2506 1872 2764 1633 
Q 3022 1394 3022 966 
Q 3022 478 2636 193 
Q 2250 -91 1575 -91 
Q 1294 -91 989 -36 
Q 684 19 347 128 
L 347 722 
Q 666 556 975 473 
Q 1284 391 1588 391 
Q 1994 391 2212 530 
Q 2431 669 2431 922 
Q 2431 1156 2273 1281 
Q 2116 1406 1581 1522 
L 1381 1569 
Q 847 1681 609 1914 
Q 372 2147 372 2553 
Q 372 3047 722 3315 
Q 1072 3584 1716 3584 
Q 2034 3584 2315 3537 
Q 2597 3491 2834 3397 
z
" transform="scale(0.015625)"/>
       <path id="DejaVuSans-6f" d="M 1959 3097 
Q 1497 3097 1228 2736 
Q 959 2375 959 1747 
Q 959 1119 1226 758 
Q 1494 397 1959 397 
Q 2419 397 2687 759 
Q 2956 1122 2956 1747 
Q 2956 2369 2687 2733 
Q 2419 3097 1959 3097 
z
M 1959 3584 
Q 2709 3584 3137 3096 
Q 3566 2609 3566 1747 
Q 3566 888 3137 398 
Q 2709 -91 1959 -91 
Q 1206 -91 779 398 
Q 353 888 353 1747 
Q 353 2609 779 3096 
Q 1206 3584 1959 3584 
z
" transform="scale(0.015625)"/>
       <path id="DejaVuSans-3c" d="M 4684 3150 
L 1459 2003 
L 4684 863 
L 4684 294 
L 678 1747 
L 678 2266 
L 4684 3719 
L 4684 3150 
z
" transform="scale(0.015625)"/>
       <path id="DejaVuSans-3d" d="M 678 2906 
L 4684 2906 
L 4684 2381 
L 678 2381 
L 678 2906 
z
M 678 1631 
L 4684 1631 
L 4684 1100 
L 678 1100 
L 678 1631 
z
" transform="scale(0.015625)"/>
      </defs>
      <use xlink:href="#DejaVuSans-4f"/>
      <use xlink:href="#DejaVuSans-76" x="78.710938"/>
      <use xlink:href="#DejaVuSans-65" x="137.890625"/>
      <use xlink:href="#DejaVuSans-72" x="199.414062"/>
      <use xlink:href="#DejaVuSans-73" x="240.527344"/>
      <use xlink:href="#DejaVuSans-6f" x="292.626953"/>
      <use xlink:href="#DejaVuSans-6c" x="353.808594"/>
      <use xlink:href="#DejaVuSans-64" x="381.591797"/>
      <use xlink:href="#DejaVuSans-2c" x="445.068359"/>
      <use xlink:href="#DejaVuSans-20" x="476.855469"/>
      <use xlink:href="#DejaVuSans-52" x="508.642578"/>
      <use xlink:href="#DejaVuSans-53" x="578.125"/>
      <use xlink:href="#DejaVuSans-49" x="641.601562"/>
      <use xlink:href="#DejaVuSans-20" x="671.09375"/>
      <use xlink:href="#DejaVuSans-3c" x="702.880859"/>
      <use xlink:href="#DejaVuSans-3d" x="786.669922"/>
      <use xlink:href="#DejaVuSans-20" x="870.458984"/>
      <use xlink:href="#DejaVuSans-33" x="902.246094"/>
      <use xlink:href="#DejaVuSans-30" x="965.869141"/>
     </g>
    </g>
    <g id="line2d_29">
     <path d="M 61.37425 67.405637 
L 75.37425 67.405637 
L 89.37425 67.405637 
" style="fill: none; stroke: #ff4500"/>
    </g>
    <g id="text_17">
     <!-- Overbought, RSI &gt;= 70 -->
     <g transform="translate(100.57425 72.305637)scale(0.14 -0.14)">
      <defs>
       <path id="DejaVuSans-62" d="M 3116 1747 
Q 3116 2381 2855 2742 
Q 2594 3103 2138 3103 
Q 1681 3103 1420 2742 
Q 1159 2381 1159 1747 
Q 1159 1113 1420 752 
Q 1681 391 2138 391 
Q 2594 391 2855 752 
Q 3116 1113 3116 1747 
z
M 1159 2969 
Q 1341 3281 1617 3432 
Q 1894 3584 2278 3584 
Q 2916 3584 3314 3078 
Q 3713 2572 3713 1747 
Q 3713 922 3314 415 
Q 2916 -91 2278 -91 
Q 1894 -91 1617 61 
Q 1341 213 1159 525 
L 1159 0 
L 581 0 
L 581 4863 
L 1159 4863 
L 1159 2969 
z
" transform="scale(0.015625)"/>
       <path id="DejaVuSans-75" d="M 544 1381 
L 544 3500 
L 1119 3500 
L 1119 1403 
Q 1119 906 1312 657 
Q 1506 409 1894 409 
Q 2359 409 2629 706 
Q 2900 1003 2900 1516 
L 2900 3500 
L 3475 3500 
L 3475 0 
L 2900 0 
L 2900 538 
Q 2691 219 2414 64 
Q 2138 -91 1772 -91 
Q 1169 -91 856 284 
Q 544 659 544 1381 
z
M 1991 3584 
L 1991 3584 
z
" transform="scale(0.015625)"/>
       <path id="DejaVuSans-3e" d="M 678 3150 
L 678 3719 
L 4684 2266 
L 4684 1747 
L 678 294 
L 678 863 
L 3897 2003 
L 678 3150 
z
" transform="scale(0.015625)"/>
      </defs>
      <use xlink:href="#DejaVuSans-4f"/>
      <use xlink:href="#DejaVuSans-76" x="78.710938"/>
      <use xlink:href="#DejaVuSans-65" x="137.890625"/>
      <use xlink:href="#DejaVuSans-72" x="199.414062"/>
      <use xlink:href="#DejaVuSans-62" x="240.527344"/>
      <use xlink:href="#DejaVuSans-6f" x="304.003906"/>
      <use xlink:href="#DejaVuSans-75" x="365.185547"/>
      <use xlink:href="#DejaVuSans-67" x="428.564453"/>
      <use xlink:href="#DejaVuSans-68" x="492.041016"/>
      <use xlink:href="#DejaVuSans-74" x="555.419922"/>
      <use xlink:href="#DejaVuSans-2c" x="594.628906"/>
      <use xlink:href="#DejaVuSans-20" x="626.416016"/>
      <use xlink:href="#DejaVuSans-52" x="658.203125"/>
      <use xlink:href="#DejaVuSans-53" x="727.685547"/>
      <use xlink:href="#DejaVuSans-49" x="791.162109"/>
      <use xlink:href="#DejaVuSans-20" x="820.654297"/>
      <use xlink:href="#DejaVuSans-3e" x="852.441406"/>
      <use xlink:href="#DejaVuSans-3d" x="936.230469"/>
      <use xlink:href="#DejaVuSans-20" x="1020.019531"/>
      <use xlink:href="#DejaVuSans-37" x="1051.806641"/>
      <use xlink:href="#DejaVuSans-30" x="1115.429688"/>
     </g>
    </g>
    <g id="line2d_30">
     <path d="M 61.37425 87.955012 
L 75.37425 87.955012 
L 89.37425 87.955012 
" style="fill: none; stroke: #1e90ff"/>
    </g>
    <g id="text_18">
     <!-- Neutral -->
     <g transform="translate(100.57425 92.855012)scale(0.14 -0.14)">
      <defs>
       <path id="DejaVuSans-4e" d="M 628 4666 
L 1478 4666 
L 3547 763 
L 3547 4666 
L 4159 4666 
L 4159 0 
L 3309 0 
L 1241 3903 
L 1241 0 
L 628 0 
L 628 4666 
z
" transform="scale(0.015625)"/>
      </defs>
      <use xlink:href="#DejaVuSans-4e"/>
      <use xlink:href="#DejaVuSans-65" x="74.804688"/>
      <use xlink:href="#DejaVuSans-75" x="136.328125"/>
      <use xlink:href="#DejaVuSans-74" x="199.707031"/>
      <use xlink:href="#DejaVuSans-72" x="238.916016"/>
      <use xlink:href="#DejaVuSans-61" x="280.029297"/>
      <use xlink:href="#DejaVuSans-6c" x="341.308594"/>
     </g>
    </g>
   </g>
  </g>
 </g>
 <defs>
  <clipPath id="pa5d2304cbf">
   <rect x="48.77425" y="28.51845" width="626.4" height="349.92"/>
  </clipPath>
 </defs>
</svg>
