<?xml version="1.0" encoding="utf-8" standalone="no"?>
<!DOCTYPE svg PUBLIC "-//W3C//DTD SVG 1.1//EN"
  "http://www.w3.org/Graphics/SVG/1.1/DTD/svg11.dtd">
<svg xmlns:xlink="http://www.w3.org/1999/xlink" width="612.165625pt" height="378.83625pt" viewBox="0 0 612.165625 378.83625" xmlns="http://www.w3.org/2000/svg" version="1.1">
 <metadata>
  <rdf:RDF xmlns:dc="http://purl.org/dc/elements/1.1/" xmlns:cc="http://creativecommons.org/ns#" xmlns:rdf="http://www.w3.org/1999/02/22-rdf-syntax-ns#">
   <cc:Work>
    <dc:type rdf:resource="http://purl.org/dc/dcmitype/StillImage"/>
    <dc:date>2023-03-19T14:15:25.880479</dc:date>
    <dc:format>image/svg+xml</dc:format>
    <dc:creator>
     <cc:Agent>
      <dc:title>Matplotlib v3.5.1, https://matplotlib.org/</dc:title>
     </cc:Agent>
    </dc:creator>
   </cc:Work>
  </rdf:RDF>
 </metadata>
 <defs>
  <style type="text/css">*{stroke-linejoin: round; stroke-linecap: butt}</style>
 </defs>
 <g id="figure_1">
  <g id="patch_1">
   <path d="M 0 378.83625 
L 612.165625 378.83625 
L 612.165625 0 
L 0 0 
z
" style="fill: #ffffff"/>
  </g>
  <g id="axes_1">
   <g id="patch_2">
    <path d="M 46.965625 354.958125 
L 604.965625 354.958125 
L 604.965625 22.318125 
L 46.965625 22.318125 
z
" style="fill: #ffffff"/>
   </g>
   <g id="matplotlib.axis_1">
    <g id="xtick_1">
     <g id="line2d_1">
      <defs>
       <path id="meda70be9b6" d="M 0 0 
L 0 3.5 
" style="stroke: #000000; stroke-width: 0.8"/>
      </defs>
      <g>
       <use xlink:href="#meda70be9b6" x="61.627892" y="354.958125" style="stroke: #000000; stroke-width: 0.8"/>
      </g>
     </g>
     <g id="text_1">
      <!-- 2013 -->
      <g transform="translate(48.902892 369.556562)scale(0.1 -0.1)">
       <defs>
        <path id="DejaVuSans-32" d="M 1228 531 
L 3431 531 
L 3431 0 
L 469 0 
L 469 531 
Q 828 903 1448 1529 
Q 2069 2156 2228 2338 
Q 2531 2678 2651 2914 
Q 2772 3150 2772 3378 
Q 2772 3750 2511 3984 
Q 2250 4219 1831 4219 
Q 1534 4219 1204 4116 
Q 875 4013 500 3803 
L 500 4441 
Q 881 4594 1212 4672 
Q 1544 4750 1819 4750 
Q 2544 4750 2975 4387 
Q 3406 4025 3406 3419 
Q 3406 3131 3298 2873 
Q 3191 2616 2906 2266 
Q 2828 2175 2409 1742 
Q 1991 1309 1228 531 
z
" transform="scale(0.015625)"/>
        <path id="DejaVuSans-30" d="M 2034 4250 
Q 1547 4250 1301 3770 
Q 1056 3291 1056 2328 
Q 1056 1369 1301 889 
Q 1547 409 2034 409 
Q 2525 409 2770 889 
Q 3016 1369 3016 2328 
Q 3016 3291 2770 3770 
Q 2525 4250 2034 4250 
z
M 2034 4750 
Q 2819 4750 3233 4129 
Q 3647 3509 3647 2328 
Q 3647 1150 3233 529 
Q 2819 -91 2034 -91 
Q 1250 -91 836 529 
Q 422 1150 422 2328 
Q 422 3509 836 4129 
Q 1250 4750 2034 4750 
z
" transform="scale(0.015625)"/>
        <path id="DejaVuSans-31" d="M 794 531 
L 1825 531 
L 1825 4091 
L 703 3866 
L 703 4441 
L 1819 4666 
L 2450 4666 
L 2450 531 
L 3481 531 
L 3481 0 
L 794 0 
L 794 531 
z
" transform="scale(0.015625)"/>
        <path id="DejaVuSans-33" d="M 2597 2516 
Q 3050 2419 3304 2112 
Q 3559 1806 3559 1356 
Q 3559 666 3084 287 
Q 2609 -91 1734 -91 
Q 1441 -91 1130 -33 
Q 819 25 488 141 
L 488 750 
Q 750 597 1062 519 
Q 1375 441 1716 441 
Q 2309 441 2620 675 
Q 2931 909 2931 1356 
Q 2931 1769 2642 2001 
Q 2353 2234 1838 2234 
L 1294 2234 
L 1294 2753 
L 1863 2753 
Q 2328 2753 2575 2939 
Q 2822 3125 2822 3475 
Q 2822 3834 2567 4026 
Q 2313 4219 1838 4219 
Q 1578 4219 1281 4162 
Q 984 4106 628 3988 
L 628 4550 
Q 988 4650 1302 4700 
Q 1616 4750 1894 4750 
Q 2613 4750 3031 4423 
Q 3450 4097 3450 3541 
Q 3450 3153 3228 2886 
Q 3006 2619 2597 2516 
z
" transform="scale(0.015625)"/>
       </defs>
       <use xlink:href="#DejaVuSans-32"/>
       <use xlink:href="#DejaVuSans-30" x="63.623047"/>
       <use xlink:href="#DejaVuSans-31" x="127.246094"/>
       <use xlink:href="#DejaVuSans-33" x="190.869141"/>
      </g>
     </g>
    </g>
    <g id="xtick_2">
     <g id="line2d_2">
      <g>
       <use xlink:href="#meda70be9b6" x="112.355164" y="354.958125" style="stroke: #000000; stroke-width: 0.8"/>
      </g>
     </g>
     <g id="text_2">
      <!-- 2014 -->
      <g transform="translate(99.630164 369.556562)scale(0.1 -0.1)">
       <defs>
        <path id="DejaVuSans-34" d="M 2419 4116 
L 825 1625 
L 2419 1625 
L 2419 4116 
z
M 2253 4666 
L 3047 4666 
L 3047 1625 
L 3713 1625 
L 3713 1100 
L 3047 1100 
L 3047 0 
L 2419 0 
L 2419 1100 
L 313 1100 
L 313 1709 
L 2253 4666 
z
" transform="scale(0.015625)"/>
       </defs>
       <use xlink:href="#DejaVuSans-32"/>
       <use xlink:href="#DejaVuSans-30" x="63.623047"/>
       <use xlink:href="#DejaVuSans-31" x="127.246094"/>
       <use xlink:href="#DejaVuSans-34" x="190.869141"/>
      </g>
     </g>
    </g>
    <g id="xtick_3">
     <g id="line2d_3">
      <g>
       <use xlink:href="#meda70be9b6" x="163.082437" y="354.958125" style="stroke: #000000; stroke-width: 0.8"/>
      </g>
     </g>
     <g id="text_3">
      <!-- 2015 -->
      <g transform="translate(150.357437 369.556562)scale(0.1 -0.1)">
       <defs>
        <path id="DejaVuSans-35" d="M 691 4666 
L 3169 4666 
L 3169 4134 
L 1269 4134 
L 1269 2991 
Q 1406 3038 1543 3061 
Q 1681 3084 1819 3084 
Q 2600 3084 3056 2656 
Q 3513 2228 3513 1497 
Q 3513 744 3044 326 
Q 2575 -91 1722 -91 
Q 1428 -91 1123 -41 
Q 819 9 494 109 
L 494 744 
Q 775 591 1075 516 
Q 1375 441 1709 441 
Q 2250 441 2565 725 
Q 2881 1009 2881 1497 
Q 2881 1984 2565 2268 
Q 2250 2553 1709 2553 
Q 1456 2553 1204 2497 
Q 953 2441 691 2322 
L 691 4666 
z
" transform="scale(0.015625)"/>
       </defs>
       <use xlink:href="#DejaVuSans-32"/>
       <use xlink:href="#DejaVuSans-30" x="63.623047"/>
       <use xlink:href="#DejaVuSans-31" x="127.246094"/>
       <use xlink:href="#DejaVuSans-35" x="190.869141"/>
      </g>
     </g>
    </g>
    <g id="xtick_4">
     <g id="line2d_4">
      <g>
       <use xlink:href="#meda70be9b6" x="213.80971" y="354.958125" style="stroke: #000000; stroke-width: 0.8"/>
      </g>
     </g>
     <g id="text_4">
      <!-- 2016 -->
      <g transform="translate(201.08471 369.556562)scale(0.1 -0.1)">
       <defs>
        <path id="DejaVuSans-36" d="M 2113 2584 
Q 1688 2584 1439 2293 
Q 1191 2003 1191 1497 
Q 1191 994 1439 701 
Q 1688 409 2113 409 
Q 2538 409 2786 701 
Q 3034 994 3034 1497 
Q 3034 2003 2786 2293 
Q 2538 2584 2113 2584 
z
M 3366 4563 
L 3366 3988 
Q 3128 4100 2886 4159 
Q 2644 4219 2406 4219 
Q 1781 4219 1451 3797 
Q 1122 3375 1075 2522 
Q 1259 2794 1537 2939 
Q 1816 3084 2150 3084 
Q 2853 3084 3261 2657 
Q 3669 2231 3669 1497 
Q 3669 778 3244 343 
Q 2819 -91 2113 -91 
Q 1303 -91 875 529 
Q 447 1150 447 2328 
Q 447 3434 972 4092 
Q 1497 4750 2381 4750 
Q 2619 4750 2861 4703 
Q 3103 4656 3366 4563 
z
" transform="scale(0.015625)"/>
       </defs>
       <use xlink:href="#DejaVuSans-32"/>
       <use xlink:href="#DejaVuSans-30" x="63.623047"/>
       <use xlink:href="#DejaVuSans-31" x="127.246094"/>
       <use xlink:href="#DejaVuSans-36" x="190.869141"/>
      </g>
     </g>
    </g>
    <g id="xtick_5">
     <g id="line2d_5">
      <g>
       <use xlink:href="#meda70be9b6" x="264.675961" y="354.958125" style="stroke: #000000; stroke-width: 0.8"/>
      </g>
     </g>
     <g id="text_5">
      <!-- 2017 -->
      <g transform="translate(251.950961 369.556562)scale(0.1 -0.1)">
       <defs>
        <path id="DejaVuSans-37" d="M 525 4666 
L 3525 4666 
L 3525 4397 
L 1831 0 
L 1172 0 
L 2766 4134 
L 525 4134 
L 525 4666 
z
" transform="scale(0.015625)"/>
       </defs>
       <use xlink:href="#DejaVuSans-32"/>
       <use xlink:href="#DejaVuSans-30" x="63.623047"/>
       <use xlink:href="#DejaVuSans-31" x="127.246094"/>
       <use xlink:href="#DejaVuSans-37" x="190.869141"/>
      </g>
     </g>
    </g>
    <g id="xtick_6">
     <g id="line2d_6">
      <g>
       <use xlink:href="#meda70be9b6" x="315.403234" y="354.958125" style="stroke: #000000; stroke-width: 0.8"/>
      </g>
     </g>
     <g id="text_6">
      <!-- 2018 -->
      <g transform="translate(302.678234 369.556562)scale(0.1 -0.1)">
       <defs>
        <path id="DejaVuSans-38" d="M 2034 2216 
Q 1584 2216 1326 1975 
Q 1069 1734 1069 1313 
Q 1069 891 1326 650 
Q 1584 409 2034 409 
Q 2484 409 2743 651 
Q 3003 894 3003 1313 
Q 3003 1734 2745 1975 
Q 2488 2216 2034 2216 
z
M 1403 2484 
Q 997 2584 770 2862 
Q 544 3141 544 3541 
Q 544 4100 942 4425 
Q 1341 4750 2034 4750 
Q 2731 4750 3128 4425 
Q 3525 4100 3525 3541 
Q 3525 3141 3298 2862 
Q 3072 2584 2669 2484 
Q 3125 2378 3379 2068 
Q 3634 1759 3634 1313 
Q 3634 634 3220 271 
Q 2806 -91 2034 -91 
Q 1263 -91 848 271 
Q 434 634 434 1313 
Q 434 1759 690 2068 
Q 947 2378 1403 2484 
z
M 1172 3481 
Q 1172 3119 1398 2916 
Q 1625 2713 2034 2713 
Q 2441 2713 2670 2916 
Q 2900 3119 2900 3481 
Q 2900 3844 2670 4047 
Q 2441 4250 2034 4250 
Q 1625 4250 1398 4047 
Q 1172 3844 1172 3481 
z
" transform="scale(0.015625)"/>
       </defs>
       <use xlink:href="#DejaVuSans-32"/>
       <use xlink:href="#DejaVuSans-30" x="63.623047"/>
       <use xlink:href="#DejaVuSans-31" x="127.246094"/>
       <use xlink:href="#DejaVuSans-38" x="190.869141"/>
      </g>
     </g>
    </g>
    <g id="xtick_7">
     <g id="line2d_7">
      <g>
       <use xlink:href="#meda70be9b6" x="366.130507" y="354.958125" style="stroke: #000000; stroke-width: 0.8"/>
      </g>
     </g>
     <g id="text_7">
      <!-- 2019 -->
      <g transform="translate(353.405507 369.556562)scale(0.1 -0.1)">
       <defs>
        <path id="DejaVuSans-39" d="M 703 97 
L 703 672 
Q 941 559 1184 500 
Q 1428 441 1663 441 
Q 2288 441 2617 861 
Q 2947 1281 2994 2138 
Q 2813 1869 2534 1725 
Q 2256 1581 1919 1581 
Q 1219 1581 811 2004 
Q 403 2428 403 3163 
Q 403 3881 828 4315 
Q 1253 4750 1959 4750 
Q 2769 4750 3195 4129 
Q 3622 3509 3622 2328 
Q 3622 1225 3098 567 
Q 2575 -91 1691 -91 
Q 1453 -91 1209 -44 
Q 966 3 703 97 
z
M 1959 2075 
Q 2384 2075 2632 2365 
Q 2881 2656 2881 3163 
Q 2881 3666 2632 3958 
Q 2384 4250 1959 4250 
Q 1534 4250 1286 3958 
Q 1038 3666 1038 3163 
Q 1038 2656 1286 2365 
Q 1534 2075 1959 2075 
z
" transform="scale(0.015625)"/>
       </defs>
       <use xlink:href="#DejaVuSans-32"/>
       <use xlink:href="#DejaVuSans-30" x="63.623047"/>
       <use xlink:href="#DejaVuSans-31" x="127.246094"/>
       <use xlink:href="#DejaVuSans-39" x="190.869141"/>
      </g>
     </g>
    </g>
    <g id="xtick_8">
     <g id="line2d_8">
      <g>
       <use xlink:href="#meda70be9b6" x="416.857779" y="354.958125" style="stroke: #000000; stroke-width: 0.8"/>
      </g>
     </g>
     <g id="text_8">
      <!-- 2020 -->
      <g transform="translate(404.132779 369.556562)scale(0.1 -0.1)">
       <use xlink:href="#DejaVuSans-32"/>
       <use xlink:href="#DejaVuSans-30" x="63.623047"/>
       <use xlink:href="#DejaVuSans-32" x="127.246094"/>
       <use xlink:href="#DejaVuSans-30" x="190.869141"/>
      </g>
     </g>
    </g>
    <g id="xtick_9">
     <g id="line2d_9">
      <g>
       <use xlink:href="#meda70be9b6" x="467.724031" y="354.958125" style="stroke: #000000; stroke-width: 0.8"/>
      </g>
     </g>
     <g id="text_9">
      <!-- 2021 -->
      <g transform="translate(454.999031 369.556562)scale(0.1 -0.1)">
       <use xlink:href="#DejaVuSans-32"/>
       <use xlink:href="#DejaVuSans-30" x="63.623047"/>
       <use xlink:href="#DejaVuSans-32" x="127.246094"/>
       <use xlink:href="#DejaVuSans-31" x="190.869141"/>
      </g>
     </g>
    </g>
    <g id="xtick_10">
     <g id="line2d_10">
      <g>
       <use xlink:href="#meda70be9b6" x="518.451304" y="354.958125" style="stroke: #000000; stroke-width: 0.8"/>
      </g>
     </g>
     <g id="text_10">
      <!-- 2022 -->
      <g transform="translate(505.726304 369.556562)scale(0.1 -0.1)">
       <use xlink:href="#DejaVuSans-32"/>
       <use xlink:href="#DejaVuSans-30" x="63.623047"/>
       <use xlink:href="#DejaVuSans-32" x="127.246094"/>
       <use xlink:href="#DejaVuSans-32" x="190.869141"/>
      </g>
     </g>
    </g>
    <g id="xtick_11">
     <g id="line2d_11">
      <g>
       <use xlink:href="#meda70be9b6" x="569.178576" y="354.958125" style="stroke: #000000; stroke-width: 0.8"/>
      </g>
     </g>
     <g id="text_11">
      <!-- 2023 -->
      <g transform="translate(556.453576 369.556562)scale(0.1 -0.1)">
       <use xlink:href="#DejaVuSans-32"/>
       <use xlink:href="#DejaVuSans-30" x="63.623047"/>
       <use xlink:href="#DejaVuSans-32" x="127.246094"/>
       <use xlink:href="#DejaVuSans-33" x="190.869141"/>
      </g>
     </g>
    </g>
   </g>
   <g id="matplotlib.axis_2">
    <g id="ytick_1">
     <g id="line2d_12">
      <defs>
       <path id="m4387cb1bb3" d="M 0 0 
L -3.5 0 
" style="stroke: #000000; stroke-width: 0.8"/>
      </defs>
      <g>
       <use xlink:href="#m4387cb1bb3" x="46.965625" y="305.799788" style="stroke: #000000; stroke-width: 0.8"/>
      </g>
     </g>
     <g id="text_12">
      <!-- 40 -->
      <g transform="translate(27.240625 309.599007)scale(0.1 -0.1)">
       <use xlink:href="#DejaVuSans-34"/>
       <use xlink:href="#DejaVuSans-30" x="63.623047"/>
      </g>
     </g>
    </g>
    <g id="ytick_2">
     <g id="line2d_13">
      <g>
       <use xlink:href="#m4387cb1bb3" x="46.965625" y="248.831861" style="stroke: #000000; stroke-width: 0.8"/>
      </g>
     </g>
     <g id="text_13">
      <!-- 60 -->
      <g transform="translate(27.240625 252.63108)scale(0.1 -0.1)">
       <use xlink:href="#DejaVuSans-36"/>
       <use xlink:href="#DejaVuSans-30" x="63.623047"/>
      </g>
     </g>
    </g>
    <g id="ytick_3">
     <g id="line2d_14">
      <g>
       <use xlink:href="#m4387cb1bb3" x="46.965625" y="191.863934" style="stroke: #000000; stroke-width: 0.8"/>
      </g>
     </g>
     <g id="text_14">
      <!-- 80 -->
      <g transform="translate(27.240625 195.663153)scale(0.1 -0.1)">
       <use xlink:href="#DejaVuSans-38"/>
       <use xlink:href="#DejaVuSans-30" x="63.623047"/>
      </g>
     </g>
    </g>
    <g id="ytick_4">
     <g id="line2d_15">
      <g>
       <use xlink:href="#m4387cb1bb3" x="46.965625" y="134.896007" style="stroke: #000000; stroke-width: 0.8"/>
      </g>
     </g>
     <g id="text_15">
      <!-- 100 -->
      <g transform="translate(20.878125 138.695225)scale(0.1 -0.1)">
       <use xlink:href="#DejaVuSans-31"/>
       <use xlink:href="#DejaVuSans-30" x="63.623047"/>
       <use xlink:href="#DejaVuSans-30" x="127.246094"/>
      </g>
     </g>
    </g>
    <g id="ytick_5">
     <g id="line2d_16">
      <g>
       <use xlink:href="#m4387cb1bb3" x="46.965625" y="77.928079" style="stroke: #000000; stroke-width: 0.8"/>
      </g>
     </g>
     <g id="text_16">
      <!-- 120 -->
      <g transform="translate(20.878125 81.727298)scale(0.1 -0.1)">
       <use xlink:href="#DejaVuSans-31"/>
       <use xlink:href="#DejaVuSans-32" x="63.623047"/>
       <use xlink:href="#DejaVuSans-30" x="127.246094"/>
      </g>
     </g>
    </g>
    <g id="text_17">
     <!-- Price (US Dollars) -->
     <g transform="translate(14.798438 232.160781)rotate(-90)scale(0.1 -0.1)">
      <defs>
       <path id="DejaVuSans-50" d="M 1259 4147 
L 1259 2394 
L 2053 2394 
Q 2494 2394 2734 2622 
Q 2975 2850 2975 3272 
Q 2975 3691 2734 3919 
Q 2494 4147 2053 4147 
L 1259 4147 
z
M 628 4666 
L 2053 4666 
Q 2838 4666 3239 4311 
Q 3641 3956 3641 3272 
Q 3641 2581 3239 2228 
Q 2838 1875 2053 1875 
L 1259 1875 
L 1259 0 
L 628 0 
L 628 4666 
z
" transform="scale(0.015625)"/>
       <path id="DejaVuSans-72" d="M 2631 2963 
Q 2534 3019 2420 3045 
Q 2306 3072 2169 3072 
Q 1681 3072 1420 2755 
Q 1159 2438 1159 1844 
L 1159 0 
L 581 0 
L 581 3500 
L 1159 3500 
L 1159 2956 
Q 1341 3275 1631 3429 
Q 1922 3584 2338 3584 
Q 2397 3584 2469 3576 
Q 2541 3569 2628 3553 
L 2631 2963 
z
" transform="scale(0.015625)"/>
       <path id="DejaVuSans-69" d="M 603 3500 
L 1178 3500 
L 1178 0 
L 603 0 
L 603 3500 
z
M 603 4863 
L 1178 4863 
L 1178 4134 
L 603 4134 
L 603 4863 
z
" transform="scale(0.015625)"/>
       <path id="DejaVuSans-63" d="M 3122 3366 
L 3122 2828 
Q 2878 2963 2633 3030 
Q 2388 3097 2138 3097 
Q 1578 3097 1268 2742 
Q 959 2388 959 1747 
Q 959 1106 1268 751 
Q 1578 397 2138 397 
Q 2388 397 2633 464 
Q 2878 531 3122 666 
L 3122 134 
Q 2881 22 2623 -34 
Q 2366 -91 2075 -91 
Q 1284 -91 818 406 
Q 353 903 353 1747 
Q 353 2603 823 3093 
Q 1294 3584 2113 3584 
Q 2378 3584 2631 3529 
Q 2884 3475 3122 3366 
z
" transform="scale(0.015625)"/>
       <path id="DejaVuSans-65" d="M 3597 1894 
L 3597 1613 
L 953 1613 
Q 991 1019 1311 708 
Q 1631 397 2203 397 
Q 2534 397 2845 478 
Q 3156 559 3463 722 
L 3463 178 
Q 3153 47 2828 -22 
Q 2503 -91 2169 -91 
Q 1331 -91 842 396 
Q 353 884 353 1716 
Q 353 2575 817 3079 
Q 1281 3584 2069 3584 
Q 2775 3584 3186 3129 
Q 3597 2675 3597 1894 
z
M 3022 2063 
Q 3016 2534 2758 2815 
Q 2500 3097 2075 3097 
Q 1594 3097 1305 2825 
Q 1016 2553 972 2059 
L 3022 2063 
z
" transform="scale(0.015625)"/>
       <path id="DejaVuSans-20" transform="scale(0.015625)"/>
       <path id="DejaVuSans-28" d="M 1984 4856 
Q 1566 4138 1362 3434 
Q 1159 2731 1159 2009 
Q 1159 1288 1364 580 
Q 1569 -128 1984 -844 
L 1484 -844 
Q 1016 -109 783 600 
Q 550 1309 550 2009 
Q 550 2706 781 3412 
Q 1013 4119 1484 4856 
L 1984 4856 
z
" transform="scale(0.015625)"/>
       <path id="DejaVuSans-55" d="M 556 4666 
L 1191 4666 
L 1191 1831 
Q 1191 1081 1462 751 
Q 1734 422 2344 422 
Q 2950 422 3222 751 
Q 3494 1081 3494 1831 
L 3494 4666 
L 4128 4666 
L 4128 1753 
Q 4128 841 3676 375 
Q 3225 -91 2344 -91 
Q 1459 -91 1007 375 
Q 556 841 556 1753 
L 556 4666 
z
" transform="scale(0.015625)"/>
       <path id="DejaVuSans-53" d="M 3425 4513 
L 3425 3897 
Q 3066 4069 2747 4153 
Q 2428 4238 2131 4238 
Q 1616 4238 1336 4038 
Q 1056 3838 1056 3469 
Q 1056 3159 1242 3001 
Q 1428 2844 1947 2747 
L 2328 2669 
Q 3034 2534 3370 2195 
Q 3706 1856 3706 1288 
Q 3706 609 3251 259 
Q 2797 -91 1919 -91 
Q 1588 -91 1214 -16 
Q 841 59 441 206 
L 441 856 
Q 825 641 1194 531 
Q 1563 422 1919 422 
Q 2459 422 2753 634 
Q 3047 847 3047 1241 
Q 3047 1584 2836 1778 
Q 2625 1972 2144 2069 
L 1759 2144 
Q 1053 2284 737 2584 
Q 422 2884 422 3419 
Q 422 4038 858 4394 
Q 1294 4750 2059 4750 
Q 2388 4750 2728 4690 
Q 3069 4631 3425 4513 
z
" transform="scale(0.015625)"/>
       <path id="DejaVuSans-44" d="M 1259 4147 
L 1259 519 
L 2022 519 
Q 2988 519 3436 956 
Q 3884 1394 3884 2338 
Q 3884 3275 3436 3711 
Q 2988 4147 2022 4147 
L 1259 4147 
z
M 628 4666 
L 1925 4666 
Q 3281 4666 3915 4102 
Q 4550 3538 4550 2338 
Q 4550 1131 3912 565 
Q 3275 0 1925 0 
L 628 0 
L 628 4666 
z
" transform="scale(0.015625)"/>
       <path id="DejaVuSans-6f" d="M 1959 3097 
Q 1497 3097 1228 2736 
Q 959 2375 959 1747 
Q 959 1119 1226 758 
Q 1494 397 1959 397 
Q 2419 397 2687 759 
Q 2956 1122 2956 1747 
Q 2956 2369 2687 2733 
Q 2419 3097 1959 3097 
z
M 1959 3584 
Q 2709 3584 3137 3096 
Q 3566 2609 3566 1747 
Q 3566 888 3137 398 
Q 2709 -91 1959 -91 
Q 1206 -91 779 398 
Q 353 888 353 1747 
Q 353 2609 779 3096 
Q 1206 3584 1959 3584 
z
" transform="scale(0.015625)"/>
       <path id="DejaVuSans-6c" d="M 603 4863 
L 1178 4863 
L 1178 0 
L 603 0 
L 603 4863 
z
" transform="scale(0.015625)"/>
       <path id="DejaVuSans-61" d="M 2194 1759 
Q 1497 1759 1228 1600 
Q 959 1441 959 1056 
Q 959 750 1161 570 
Q 1363 391 1709 391 
Q 2188 391 2477 730 
Q 2766 1069 2766 1631 
L 2766 1759 
L 2194 1759 
z
M 3341 1997 
L 3341 0 
L 2766 0 
L 2766 531 
Q 2569 213 2275 61 
Q 1981 -91 1556 -91 
Q 1019 -91 701 211 
Q 384 513 384 1019 
Q 384 1609 779 1909 
Q 1175 2209 1959 2209 
L 2766 2209 
L 2766 2266 
Q 2766 2663 2505 2880 
Q 2244 3097 1772 3097 
Q 1472 3097 1187 3025 
Q 903 2953 641 2809 
L 641 3341 
Q 956 3463 1253 3523 
Q 1550 3584 1831 3584 
Q 2591 3584 2966 3190 
Q 3341 2797 3341 1997 
z
" transform="scale(0.015625)"/>
       <path id="DejaVuSans-73" d="M 2834 3397 
L 2834 2853 
Q 2591 2978 2328 3040 
Q 2066 3103 1784 3103 
Q 1356 3103 1142 2972 
Q 928 2841 928 2578 
Q 928 2378 1081 2264 
Q 1234 2150 1697 2047 
L 1894 2003 
Q 2506 1872 2764 1633 
Q 3022 1394 3022 966 
Q 3022 478 2636 193 
Q 2250 -91 1575 -91 
Q 1294 -91 989 -36 
Q 684 19 347 128 
L 347 722 
Q 666 556 975 473 
Q 1284 391 1588 391 
Q 1994 391 2212 530 
Q 2431 669 2431 922 
Q 2431 1156 2273 1281 
Q 2116 1406 1581 1522 
L 1381 1569 
Q 847 1681 609 1914 
Q 372 2147 372 2553 
Q 372 3047 722 3315 
Q 1072 3584 1716 3584 
Q 2034 3584 2315 3537 
Q 2597 3491 2834 3397 
z
" transform="scale(0.015625)"/>
       <path id="DejaVuSans-29" d="M 513 4856 
L 1013 4856 
Q 1481 4119 1714 3412 
Q 1947 2706 1947 2009 
Q 1947 1309 1714 600 
Q 1481 -109 1013 -844 
L 513 -844 
Q 928 -128 1133 580 
Q 1338 1288 1338 2009 
Q 1338 2731 1133 3434 
Q 928 4138 513 4856 
z
" transform="scale(0.015625)"/>
      </defs>
      <use xlink:href="#DejaVuSans-50"/>
      <use xlink:href="#DejaVuSans-72" x="58.552734"/>
      <use xlink:href="#DejaVuSans-69" x="99.666016"/>
      <use xlink:href="#DejaVuSans-63" x="127.449219"/>
      <use xlink:href="#DejaVuSans-65" x="182.429688"/>
      <use xlink:href="#DejaVuSans-20" x="243.953125"/>
      <use xlink:href="#DejaVuSans-28" x="275.740234"/>
      <use xlink:href="#DejaVuSans-55" x="314.753906"/>
      <use xlink:href="#DejaVuSans-53" x="387.947266"/>
      <use xlink:href="#DejaVuSans-20" x="451.423828"/>
      <use xlink:href="#DejaVuSans-44" x="483.210938"/>
      <use xlink:href="#DejaVuSans-6f" x="560.212891"/>
      <use xlink:href="#DejaVuSans-6c" x="621.394531"/>
      <use xlink:href="#DejaVuSans-6c" x="649.177734"/>
      <use xlink:href="#DejaVuSans-61" x="676.960938"/>
      <use xlink:href="#DejaVuSans-72" x="738.240234"/>
      <use xlink:href="#DejaVuSans-73" x="779.353516"/>
      <use xlink:href="#DejaVuSans-29" x="831.453125"/>
     </g>
    </g>
   </g>
   <g id="line2d_17">
    <path d="M 579.601989 127.547144 
L 579.46301 125.553267 
L 579.324031 126.065978 
L 579.185052 120.682509 
L 579.046073 121.067042 
L 578.629137 116.865658 
L 578.2122 98.564711 
L 578.073222 96.243268 
L 577.656285 99.291052 
L 577.517306 103.364259 
L 577.378327 104.133326 
L 577.10037 98.436533 
L 576.683433 101.14251 
L 576.544454 99.2056 
L 576.266497 92.312481 
L 575.571603 87.356271 
L 575.432624 85.761169 
L 575.293645 85.533298 
L 575.154666 85.903589 
L 574.73773 91.258574 
L 574.598751 86.359333 
L 574.459772 93.594259 
L 574.320793 92.839434 
L 574.181814 87.085674 
L 573.764878 88.42442 
L 573.625899 80.178312 
L 573.347941 79.466213 
L 572.792026 72.644304 
L 572.514068 77.301432 
L 572.236111 88.538356 
L 571.819174 88.467146 
L 571.680195 86.644172 
L 571.541217 77.50082 
L 571.402238 77.899595 
L 570.846322 77.557788 
L 570.707344 79.124406 
L 570.568365 77.159012 
L 570.429386 77.814143 
L 570.290407 74.367584 
L 569.873471 70.96375 
L 569.734492 80.861928 
L 569.595513 81.061315 
L 569.456534 86.131461 
L 568.900619 89.065309 
L 568.76164 87.925951 
L 568.622661 89.663472 
L 568.483682 88.066661 
L 567.927767 90.29012 
L 567.788788 94.306358 
L 567.649809 88.011402 
L 567.51083 91.37251 
L 567.371852 90.802831 
L 566.954915 93.679711 
L 566.537979 76.831447 
L 566.399 88.125338 
L 565.982063 87.270819 
L 565.843085 85.675717 
L 565.704106 86.815076 
L 565.565127 80.691024 
L 565.426148 83.340032 
L 565.009212 79.409245 
L 564.870233 83.140645 
L 564.731254 83.254581 
L 564.453296 85.989041 
L 564.03636 87.014464 
L 563.758402 85.661475 
L 563.619423 89.891344 
L 563.480444 98.322597 
L 563.063508 89.60508 
L 562.924529 140.735219 
L 562.78555 143.811487 
L 562.646571 139.538893 
L 562.507593 145.634461 
L 562.090656 139.254053 
L 561.951677 142.102449 
L 561.812698 154.834781 
L 561.67372 150.690364 
L 561.534741 150.391283 
L 561.117804 148.290591 
L 560.978825 152.38516 
L 560.839847 142.529709 
L 560.700868 142.415773 
L 560.561889 144.666006 
L 560.144953 146.830787 
L 560.005974 148.340437 
L 559.866995 147.542886 
L 559.728016 152.983324 
L 559.589037 171.013672 
L 559.172101 176.653497 
L 558.894143 177.451048 
L 558.755164 171.982127 
L 558.616185 177.849824 
L 558.199249 172.523323 
L 558.06027 174.80204 
L 557.643334 170.13067 
L 557.226397 169.70341 
L 557.087418 161.329125 
L 556.948439 162.212128 
L 556.809461 164.804168 
L 556.670482 170.529445 
L 556.253545 174.716588 
L 556.114566 174.346296 
L 555.975588 170.102186 
L 555.836609 176.226238 
L 555.69763 174.631136 
L 555.280693 174.631136 
L 555.002736 160.930349 
L 554.863757 163.835714 
L 554.724778 160.588542 
L 554.307842 161.300641 
L 554.168863 158.594664 
L 554.029884 161.556997 
L 553.751926 146.773819 
L 553.057032 155.461428 
L 552.918053 168.763439 
L 552.362138 165.544751 
L 552.223159 167.310757 
L 552.08418 171.967885 
L 551.945202 168.706471 
L 551.806223 168.307696 
L 551.250307 157.34137 
L 550.97235 165.373848 
L 550.416434 152.641516 
L 550.277456 156.515335 
L 550.138477 150.73309 
L 549.999498 150.889752 
L 549.860519 161.443061 
L 549.443583 162.753323 
L 549.304604 164.348425 
L 549.026646 176.738949 
L 548.887667 171.925159 
L 548.470731 178.818279 
L 548.192773 177.365596 
L 548.053794 183.746004 
L 547.914816 183.147841 
L 547.219921 190.297316 
L 547.080943 193.48752 
L 546.941964 182.236354 
L 546.525027 177.764372 
L 546.108091 187.44892 
L 545.969112 188.274954 
L 544.99626 204.396878 
L 544.440345 201.363336 
L 544.162387 208.413117 
L 543.606472 215.961367 
L 543.467493 215.847431 
L 543.328514 212.628743 
L 543.050557 196.763176 
L 542.63362 196.79166 
L 542.494641 208.171003 
L 542.355662 206.761047 
L 542.216684 202.374516 
L 541.660768 204.097796 
L 541.521789 207.658292 
L 541.382811 200.494575 
L 541.243832 204.05507 
L 541.104853 203.371455 
L 540.548938 189.357345 
L 540.409959 182.663614 
L 540.27098 187.847695 
L 540.132001 182.606646 
L 539.715065 180.5558 
L 539.576086 181.061391 
L 539.298128 173.491777 
L 538.742213 165.601719 
L 538.603234 171.027914 
L 538.325276 195.880173 
L 538.186297 192.433613 
L 537.769361 207.102854 
L 537.630382 150.077959 
L 537.491403 139.424957 
L 537.352425 154.407522 
L 537.213446 156.629271 
L 536.796509 157.113498 
L 536.65753 164.291457 
L 536.518552 161.984256 
L 536.240594 145.292653 
L 535.823657 137.117756 
L 535.5457 122.904258 
L 535.406721 130.110701 
L 535.267742 129.968281 
L 534.850806 125.553267 
L 534.711827 122.106707 
L 534.572848 126.436269 
L 534.29489 118.147436 
L 533.877954 116.637786 
L 533.738975 105.215716 
L 533.461017 112.550337 
L 533.322038 120.597057 
L 532.766123 121.537028 
L 532.349187 127.775016 
L 531.376335 153.296647 
L 530.959398 159.164344 
L 530.542462 146.474738 
L 530.403483 158.85102 
L 529.986547 158.99344 
L 529.847568 161.343367 
L 529.708589 160.332186 
L 529.430631 151.288528 
L 529.013695 153.496035 
L 528.735737 159.534635 
L 528.596758 167.438935 
L 528.457779 166.997434 
L 528.040843 160.246734 
L 527.762885 165.38809 
L 527.623906 166.96895 
L 526.929012 149.337376 
L 526.790033 141.703674 
L 526.651055 157.911049 
L 526.512076 157.768629 
L 526.095139 154.948717 
L 525.817182 162.496967 
L 525.678203 147.685306 
L 525.122288 151.402464 
L 524.84433 144.779942 
L 524.705351 144.62328 
L 524.566372 147.172595 
L 524.149436 143.355744 
L 524.010457 140.564315 
L 523.871478 140.706735 
L 523.59352 148.881633 
L 523.176584 149.50828 
L 522.898626 136.57656 
L 522.759647 137.359869 
L 522.620669 140.735219 
L 522.203732 146.773819 
L 521.925774 136.832916 
L 521.786796 140.749461 
L 521.647817 139.311021 
L 521.23088 138.65589 
L 521.091901 132.446386 
L 520.952923 132.246998 
L 520.813944 131.620351 
L 520.258028 123.103646 
L 519.980071 110.214652 
L 519.702113 122.306095 
L 519.146198 104.646037 
L 518.86824 93.138516 
L 518.729261 91.543414 
L 518.312325 91.885222 
L 518.173346 92.369449 
L 517.895388 96.727495 
L 517.75641 97.496562 
L 517.200494 104.076358 
L 516.783558 115.559953 
L 516.227642 102.053997 
L 516.088664 107.309288 
L 515.810706 97.98079 
L 515.393769 95.588137 
L 515.254791 96.015396 
L 515.115812 93.765163 
L 514.837854 94.619682 
L 514.420918 102.623676 
L 514.14296 100.85767 
L 514.003981 103.592131 
L 513.865002 98.408049 
L 513.448066 99.533166 
L 513.170108 90.517991 
L 513.031129 89.891344 
L 512.892151 93.864857 
L 512.475214 86.929012 
L 512.197256 68.357468 
L 512.058278 88.581082 
L 511.919299 83.710324 
L 511.502362 87.897467 
L 511.363383 84.707263 
L 511.224405 76.703269 
L 511.085426 77.842627 
L 510.946447 77.614756 
L 510.52951 76.219041 
L 510.251553 85.19149 
L 509.973595 91.771286 
L 509.556659 96.47114 
L 509.278701 94.790586 
L 509.139722 93.565775 
L 509.000743 97.168997 
L 508.444828 104.104842 
L 508.305849 104.30423 
L 508.027892 107.18111 
L 507.610955 107.18111 
L 507.194019 114.501489 
L 507.05504 110.940993 
L 506.638103 109.459827 
L 506.499124 107.779273 
L 506.360146 112.279739 
L 506.082188 99.464804 
L 505.665251 100.202539 
L 505.387294 87.854741 
L 505.248315 88.666534 
L 505.109336 81.830382 
L 504.6924 88.723502 
L 504.553421 85.134522 
L 504.275463 90.973735 
L 504.136484 93.708195 
L 503.719548 89.948312 
L 503.44159 97.752918 
L 503.302611 93.480323 
L 503.163632 93.394872 
L 502.746696 92.084609 
L 502.607717 89.036825 
L 502.468738 92.483385 
L 502.329759 91.79977 
L 501.773844 87.726563 
L 501.495887 81.488575 
L 501.356908 81.687963 
L 501.217929 78.86805 
L 500.800992 77.187496 
L 500.523035 65.452103 
L 500.384056 61.891608 
L 500.245077 61.635252 
L 499.828141 67.759304 
L 499.689162 58.38808 
L 499.411204 66.392074 
L 499.272225 63.942453 
L 498.855289 61.663736 
L 498.71631 57.02085 
L 498.577331 57.049334 
L 498.438352 59.698343 
L 498.299373 69.952569 
L 497.882437 68.898663 
L 497.743458 74.139712 
L 497.4655 72.031899 
L 497.326522 67.502949 
L 496.909585 62.746127 
L 496.631627 70.693153 
L 496.492649 68.642307 
L 496.35367 70.949508 
L 495.936733 70.465281 
L 495.797755 72.97187 
L 495.658776 72.601578 
L 495.380818 84.023648 
L 494.963882 65.024844 
L 494.824903 65.822395 
L 494.685924 62.233415 
L 494.546945 65.679975 
L 494.407966 64.740004 
L 493.99103 64.198809 
L 493.852051 68.499887 
L 493.713072 56.337235 
L 493.574093 58.67292 
L 493.018178 59.356535 
L 492.601241 69.838634 
L 492.045326 63.543678 
L 491.489411 79.380761 
L 491.072474 86.159945 
L 490.933495 79.893473 
L 490.655538 78.440791 
L 490.516559 74.937263 
L 490.099623 77.671724 
L 489.960644 77.700208 
L 489.682686 74.794843 
L 489.543707 78.72563 
L 488.987792 75.449974 
L 488.848813 69.098051 
L 488.709834 57.619013 
L 488.153919 57.448109 
L 488.01494 60.04015 
L 487.875961 60.154086 
L 487.736982 64.99636 
L 487.598004 64.85394 
L 487.042088 61.076966 
L 486.903109 62.204931 
L 486.764131 51.893737 
L 486.208215 45.940588 
L 486.069236 57.476593 
L 485.791279 48.931404 
L 485.6523 37.438125 
L 485.235363 39.98744 
L 485.096385 50.013795 
L 484.957406 40.955895 
L 484.818427 43.604903 
L 484.679448 40.414699 
L 484.262512 41.468606 
L 483.984554 50.611958 
L 483.845575 50.241667 
L 483.706596 52.20706 
L 483.150681 50.925282 
L 482.872723 58.758372 
L 482.733745 49.444116 
L 482.316808 49.216244 
L 482.177829 50.469538 
L 482.03885 56.194815 
L 481.760893 53.78792 
L 481.343956 53.517322 
L 481.204977 56.166331 
L 481.065999 65.509071 
L 480.92702 65.850879 
L 480.788041 69.155019 
L 480.232126 73.228225 
L 480.093147 70.636185 
L 479.954168 73.199741 
L 479.815189 69.012599 
L 479.398253 70.835572 
L 479.259274 79.437729 
L 479.120295 80.035893 
L 478.981316 72.231287 
L 478.842337 70.835572 
L 478.425401 70.294377 
L 478.286422 63.045208 
L 478.008464 65.964815 
L 477.869486 60.495894 
L 477.452549 69.66773 
L 477.31357 67.417497 
L 477.035613 57.761433 
L 476.896634 75.051199 
L 476.340718 99.746795 
L 475.923782 72.82945 
L 475.506845 77.956563 
L 475.367867 66.961753 
L 475.228888 66.819333 
L 474.95093 72.97187 
L 474.533994 75.421491 
L 474.395015 75.364523 
L 474.256036 78.098983 
L 473.561142 72.060383 
L 473.422163 68.200806 
L 473.283184 75.535426 
L 472.58829 76.105106 
L 472.449311 76.646301 
L 472.171354 86.84356 
L 472.032375 97.48232 
L 471.615438 97.952306 
L 471.476459 88.894405 
L 471.337481 103.278807 
L 471.198502 93.679711 
L 471.059523 94.96149 
L 470.642586 90.888283 
L 470.364629 86.729624 
L 470.22565 84.166067 
L 469.669735 85.419362 
L 469.391777 75.108167 
L 469.252798 71.020718 
L 469.113819 71.989173 
L 468.696883 67.104173 
L 468.557904 69.297438 
L 468.418925 68.984115 
L 468.279946 83.767292 
L 468.140967 68.699275 
L 467.585052 68.129596 
L 467.446073 68.485645 
L 467.307094 68.243532 
L 467.168116 69.38289 
L 466.6122 82.798837 
L 466.473222 81.004347 
L 466.334243 84.721505 
L 466.195264 83.881228 
L 465.778327 82.400062 
L 465.361391 96.47114 
L 465.222412 94.106971 
L 464.805476 98.009274 
L 464.527518 93.053064 
L 464.388539 95.929944 
L 464.24956 92.312481 
L 463.832624 91.258574 
L 463.554666 101.256446 
L 463.415687 100.71525 
L 463.276708 110.855541 
L 462.859772 100.943122 
L 462.581814 100.060119 
L 462.442835 96.32872 
L 462.303857 105.301168 
L 461.88692 92.170061 
L 461.747941 101.598253 
L 461.608962 90.347087 
L 461.469984 102.58095 
L 461.331005 103.649098 
L 460.914068 110.727363 
L 460.77509 119.343762 
L 460.636111 108.648034 
L 460.497132 106.725367 
L 460.358153 84.280003 
L 459.941217 148.682245 
L 459.802238 147.99863 
L 459.663259 150.761574 
L 459.385301 166.82653 
L 458.968365 172.352419 
L 458.829386 169.874314 
L 458.412449 150.163411 
L 457.995513 147.827726 
L 457.717555 155.233557 
L 457.578576 154.208134 
L 457.439598 147.258047 
L 456.883682 143.612099 
L 456.605725 135.551138 
L 456.466746 135.294782 
L 456.049809 135.864461 
L 455.771852 141.60398 
L 455.493894 142.600919 
L 455.076958 144.238747 
L 454.937979 145.520525 
L 454.660021 157.284402 
L 454.521042 155.764498 
L 454.104106 168.535568 
L 453.965127 168.791923 
L 453.826148 156.401399 
L 453.687169 159.477667 
L 453.54819 159.847959 
L 452.992275 149.36586 
L 452.853296 141.020059 
L 452.714317 150.562187 
L 452.575339 151.815481 
L 452.158402 159.449183 
L 452.019423 150.294722 
L 451.880444 151.217318 
L 451.741466 148.340437 
L 451.18555 149.166472 
L 451.046571 147.315015 
L 450.907593 149.166472 
L 450.768614 158.509212 
L 450.629635 153.467551 
L 450.212698 152.185773 
L 449.934741 158.936472 
L 449.795762 156.600787 
L 449.656783 165.31688 
L 449.239847 164.006617 
L 449.100868 164.206005 
L 448.961889 159.961895 
L 448.82291 143.526648 
L 448.683931 141.846094 
L 448.128016 152.100321 
L 447.850058 149.194956 
L 447.71108 154.151166 
L 447.155164 166.655626 
L 447.016185 164.519329 
L 446.877207 166.82653 
L 446.738228 164.206005 
L 446.321291 164.006617 
L 446.043334 166.342302 
L 445.904355 173.235422 
L 445.765376 174.075699 
L 445.209461 166.855014 
L 445.070482 166.769562 
L 444.931503 169.076763 
L 444.792524 174.545684 
L 444.375588 174.545684 
L 444.09763 178.661617 
L 443.958651 180.527316 
L 443.819672 169.717652 
L 443.402736 169.788862 
L 443.263757 174.146908 
L 443.124778 171.78274 
L 442.846821 160.36067 
L 442.290905 160.189766 
L 441.873969 176.140786 
L 441.318053 172.096063 
L 441.040096 154.379038 
L 440.901117 155.148105 
L 440.345202 145.207201 
L 440.206223 140.222508 
L 440.067244 140.45038 
L 439.928265 159.13586 
L 439.511329 144.047904 
L 439.37235 143.911181 
L 439.094392 126.607173 
L 438.955413 123.360001 
L 438.538477 120.853413 
L 438.399498 132.04761 
L 438.260519 132.845161 
L 438.12154 137.772887 
L 437.982561 137.431079 
L 437.565625 138.114694 
L 437.426646 133.186969 
L 437.287667 144.580554 
L 437.148689 142.956968 
L 436.592773 144.324199 
L 436.453794 136.605044 
L 436.314816 156.828659 
L 436.175837 158.794052 
L 436.036858 156.543819 
L 435.480943 178.504955 
L 435.341964 173.776617 
L 435.202985 159.918599 
L 435.064006 159.363731 
L 434.64707 158.822536 
L 434.508091 158.067711 
L 434.369112 162.568177 
L 434.230133 160.588542 
L 434.091154 166.798046 
L 433.674218 164.576297 
L 433.39626 138.598922 
L 433.257281 131.819739 
L 433.118302 160.246734 
L 432.562387 176.681981 
L 432.423408 174.830524 
L 432.284429 176.16927 
L 432.145451 162.01274 
L 431.728514 157.62621 
L 431.589535 166.741078 
L 431.450557 165.231428 
L 431.311578 159.506151 
L 431.172599 166.171399 
L 430.616684 155.874446 
L 430.477705 158.096195 
L 430.338726 146.375044 
L 430.199747 168.905859 
L 429.782811 194.057199 
L 429.365874 166.82653 
L 429.226895 176.197754 
L 428.809959 175.400203 
L 428.67098 172.409387 
L 428.532001 178.032121 
L 428.254043 230.516673 
L 427.837107 220.347898 
L 427.698128 222.256323 
L 427.559149 231.883903 
L 427.281192 179.501894 
L 426.864255 143.070904 
L 426.725276 144.97933 
L 426.447319 129.427086 
L 426.30834 141.105511 
L 425.891403 125.154491 
L 425.474467 94.124061 
L 425.335488 100.71525 
L 424.918552 104.551186 
L 424.640594 73.91184 
L 424.362636 68.870179 
L 423.806721 66.07875 
L 423.528763 69.359533 
L 422.972848 72.316738 
L 422.833869 75.791782 
L 422.69489 76.219041 
L 422.555911 78.127467 
L 422.416933 82.485513 
L 421.999996 83.53942 
L 421.861017 78.925018 
L 421.722038 80.548604 
L 421.444081 92.967612 
L 421.027144 94.904522 
L 420.610208 90.831315 
L 420.471229 90.745863 
L 419.915314 81.858866 
L 419.776335 82.200674 
L 419.637356 82.998225 
L 418.942462 81.004347 
L 418.664504 77.557788 
L 418.108589 71.163138 
L 417.96961 70.465281 
L 417.691652 81.118283 
L 417.552674 85.106038 
L 416.996758 86.929012 
L 416.718801 86.359333 
L 416.579822 86.444784 
L 415.745949 91.030703 
L 415.60697 90.660411 
L 415.190033 88.951373 
L 414.912076 94.591198 
L 414.773097 92.996096 
L 414.634118 87.812015 
L 414.217182 88.21079 
L 414.078203 87.071432 
L 413.939224 91.315542 
L 413.661266 91.087671 
L 413.24433 91.785528 
L 413.105351 94.163939 
L 412.827393 89.748924 
L 412.688415 84.821199 
L 412.271478 85.789653 
L 411.854542 89.236213 
L 411.715563 95.046941 
L 411.298626 95.331781 
L 411.159647 101.14251 
L 410.88169 95.132393 
L 410.742711 96.898399 
L 410.325774 95.948459 
L 410.047817 100.886154 
L 409.908838 99.547408 
L 409.769859 99.63286 
L 409.352923 97.69595 
L 409.213944 95.816008 
L 409.074965 99.234084 
L 408.935986 98.436533 
L 408.797007 100.658282 
L 408.380071 101.940061 
L 408.102113 105.301168 
L 407.963134 104.987845 
L 407.824156 103.221839 
L 407.407219 101.826125 
L 407.26824 104.446649 
L 406.990283 97.923822 
L 406.851304 97.240207 
L 406.434367 92.668531 
L 406.15641 98.792583 
L 406.017431 99.291052 
L 405.878452 98.322597 
L 405.461515 96.414172 
L 405.183558 108.035629 
L 405.044579 108.377436 
L 404.9056 109.345891 
L 404.488664 108.491372 
L 404.349685 114.273617 
L 404.071727 102.367605 
L 403.932748 105.301168 
L 403.376833 109.260439 
L 403.237854 108.890148 
L 403.098875 108.918632 
L 402.959896 114.074229 
L 402.54296 107.722305 
L 402.403981 107.437466 
L 402.265002 109.801635 
L 402.126024 109.331649 
L 401.987045 110.456766 
L 401.431129 103.905454 
L 401.292151 110.399798 
L 401.153172 110.143442 
L 401.014193 107.295046 
L 400.597256 104.503617 
L 400.458278 107.893209 
L 400.319299 117.805628 
L 400.18032 117.549273 
L 399.624405 110.741605 
L 399.485426 113.36213 
L 399.346447 121.166736 
L 399.207468 120.283733 
L 399.068489 121.33764 
L 398.651553 116.751722 
L 398.512574 112.279739 
L 398.234616 120.426153 
L 398.095637 119.514666 
L 397.539722 125.069039 
L 397.400743 121.964287 
L 397.261764 111.9949 
L 397.122786 119.372246 
L 396.56687 114.292701 
L 396.288913 124.613296 
L 396.149934 126.138612 
L 395.732997 122.220643 
L 395.594019 114.72936 
L 395.45504 114.843296 
L 395.316061 116.438398 
L 395.177082 115.185104 
L 394.760146 114.80057 
L 394.621167 117.834112 
L 394.482188 116.068107 
L 394.343209 116.011139 
L 394.20423 113.590002 
L 393.787294 111.539156 
L 393.648315 113.162742 
L 393.509336 112.308223 
L 393.231378 114.273617 
L 392.814442 115.583879 
L 392.675463 125.638718 
L 392.397505 127.604112 
L 392.258527 130.025249 
L 391.84159 132.303966 
L 391.424654 136.633528 
L 391.285675 129.427086 
L 390.868738 130.737348 
L 390.729759 133.101517 
L 390.590781 126.037494 
L 390.451802 126.094462 
L 390.312823 122.761838 
L 389.756908 119.771022 
L 389.617929 124.698748 
L 389.47895 123.929681 
L 389.339971 128.828922 
L 388.923035 130.096459 
L 388.506098 137.28866 
L 388.367119 133.756648 
L 387.950183 136.177785 
L 387.672225 147.286531 
L 387.394268 152.698484 
L 386.977331 154.094198 
L 386.838352 154.977201 
L 386.699373 158.452245 
L 386.560395 147.286531 
L 386.004479 151.986385 
L 385.8655 149.308892 
L 385.587543 141.162479 
L 385.448564 141.96003 
L 385.031627 142.330321 
L 384.892649 143.441196 
L 384.75367 149.479796 
L 384.614691 148.881633 
L 384.475712 144.936604 
L 384.058776 140.279476 
L 383.919797 141.96003 
L 383.780818 142.073965 
L 383.641839 144.124811 
L 383.50286 141.504286 
L 383.085924 142.757581 
L 382.946945 143.925423 
L 382.530009 135.43236 
L 382.113072 138.79831 
L 381.974093 138.527712 
L 381.835114 136.234753 
L 381.696136 139.567377 
L 381.557157 134.867523 
L 381.001241 132.716983 
L 380.584305 139.595861 
L 380.167368 139.510409 
L 380.02839 137.886823 
L 379.750432 139.367989 
L 379.611453 137.772887 
L 379.194517 137.943791 
L 379.055538 141.732158 
L 378.77758 151.30277 
L 378.638601 151.01793 
L 378.221665 153.382099 
L 377.943707 156.714723 
L 377.66575 161.500598 
L 376.831877 156.600787 
L 376.692898 159.591603 
L 376.275961 163.37997 
L 376.136982 162.069708 
L 375.998004 158.882352 
L 375.720046 160.702478 
L 375.303109 158.56618 
L 375.025152 144.865394 
L 374.886173 147.799242 
L 374.747194 147.528644 
L 374.330258 145.691429 
L 374.0523 148.511341 
L 373.913321 149.622216 
L 373.774342 148.539825 
L 373.218427 151.957901 
L 373.079448 150.989446 
L 372.940469 152.043353 
L 372.384554 150.020991 
L 372.245575 151.559125 
L 372.106596 148.739213 
L 371.967618 148.767697 
L 371.272723 155.660816 
L 370.994766 153.723907 
L 370.855787 156.714723 
L 370.299872 155.888688 
L 370.160893 155.375976 
L 370.021914 158.822536 
L 369.882935 156.971078 
L 369.465999 155.708669 
L 369.32702 158.138921 
L 369.188041 158.024985 
L 369.049062 155.461428 
L 368.493147 153.795116 
L 368.354168 160.873381 
L 368.215189 158.537696 
L 368.07621 159.392215 
L 367.937231 158.594664 
L 367.520295 157.498032 
L 367.381316 161.044285 
L 367.242337 157.959472 
L 367.103358 158.423761 
L 366.408464 179.558862 
L 365.991528 182.63513 
L 365.574591 183.802972 
L 365.435613 186.480465 
L 365.296634 186.366529 
L 365.018676 198.500697 
L 364.60174 191.721514 
L 364.462761 195.452913 
L 364.323782 189.642185 
L 364.045824 193.743875 
L 363.628888 187.135596 
L 363.489909 187.107112 
L 363.35093 184.486587 
L 363.072972 191.294255 
L 362.517057 187.221048 
L 362.239099 176.425626 
L 362.100121 166.313818 
L 361.683184 169.888556 
L 361.544205 172.72271 
L 361.405226 173.235422 
L 361.266248 184.059328 
L 361.127269 185.611989 
L 360.710332 187.819211 
L 360.432375 177.621952 
L 360.154417 147.258047 
L 359.737481 146.48898 
L 359.598502 142.102449 
L 359.459523 129.256182 
L 359.320544 128.487115 
L 359.181565 124.157552 
L 358.764629 124.898135 
L 358.62565 122.505482 
L 358.347692 130.0318 
L 357.791777 133.528776 
L 357.652798 135.608106 
L 357.513819 131.477931 
L 357.235862 133.899068 
L 356.818925 142.985452 
L 356.679946 142.586677 
L 356.540967 139.595861 
L 356.401989 144.865394 
L 356.26301 143.013936 
L 355.846073 143.868455 
L 355.568116 139.197085 
L 355.429137 139.083149 
L 355.290158 142.216385 
L 354.873222 145.064782 
L 354.595264 142.444257 
L 354.456285 140.421896 
L 354.317306 145.976268 
L 353.90037 145.007814 
L 353.622412 142.700613 
L 353.344454 133.528776 
L 352.927518 134.411779 
L 352.788539 135.921429 
L 352.64956 133.229695 
L 352.510581 139.197085 
L 352.371603 138.456502 
L 351.954666 140.963091 
L 351.815687 143.156356 
L 351.676708 142.330321 
L 351.53773 142.187901 
L 351.398751 142.9 
L 350.981814 143.18484 
L 350.703857 138.741342 
L 350.564878 138.598922 
L 350.425899 140.421896 
L 350.008962 141.618222 
L 349.869984 139.909184 
L 349.731005 140.051604 
L 349.036111 146.617158 
L 348.897132 145.207201 
L 348.758153 145.620219 
L 348.619174 150.106443 
L 348.480195 146.289592 
L 348.063259 141.020059 
L 347.785301 151.701545 
L 347.646322 151.673061 
L 347.507344 156.258979 
L 347.090407 157.05653 
L 346.951428 156.785933 
L 346.812449 157.141982 
L 346.673471 154.905991 
L 346.534492 158.252857 
L 345.978576 155.632332 
L 345.839598 157.153376 
L 345.56164 164.063585 
L 345.005725 163.792988 
L 344.866746 170.643381 
L 344.727767 169.361603 
L 344.588788 171.554868 
L 344.032873 165.231428 
L 343.893894 170.244605 
L 343.615936 168.905859 
L 343.199 169.931282 
L 343.060021 169.048279 
L 342.921042 171.611836 
L 342.782063 172.039095 
L 342.643085 175.855946 
L 342.226148 176.681981 
L 342.087169 176.397142 
L 341.94819 175.371719 
L 341.670233 172.039095 
L 341.253296 173.406325 
L 341.114317 175.457456 
L 340.83636 175.029911 
L 340.697381 178.761311 
L 340.280444 174.631136 
L 340.141466 175.713526 
L 340.002487 171.298512 
L 339.863508 175.88443 
L 339.724529 174.089941 
L 339.307593 172.039095 
L 339.029635 172.751194 
L 338.890656 176.852885 
L 338.751677 176.539561 
L 338.334741 176.596529 
L 338.056783 174.30357 
L 337.917804 174.859008 
L 337.778825 173.833585 
L 337.361889 174.915976 
L 337.22291 176.16927 
L 337.083931 178.90373 
L 336.944953 179.309627 
L 335.972101 197.902534 
L 335.416185 190.55652 
L 335.277207 181.566981 
L 335.138228 184.030844 
L 334.999249 181.609707 
L 334.86027 183.033905 
L 334.443334 183.033905 
L 334.165376 178.846762 
L 334.026397 183.746004 
L 333.887418 183.5751 
L 333.470482 184.913847 
L 332.914566 189.044021 
L 332.49763 188.702214 
L 332.358651 189.100989 
L 332.219672 190.46822 
L 332.080693 190.097928 
L 331.941715 183.85994 
L 331.524778 186.067447 
L 331.246821 195.680785 
L 331.107842 195.168074 
L 330.968863 196.449852 
L 330.551926 195.367461 
L 330.412948 194.683846 
L 330.273969 191.892418 
L 329.996011 197.959502 
L 329.440096 195.06838 
L 329.301117 196.193496 
L 329.162138 195.709269 
L 329.023159 196.421368 
L 328.467244 191.579094 
L 328.189286 201.206674 
L 328.050307 198.01647 
L 327.494392 196.848628 
L 327.355413 196.22198 
L 327.077456 198.984925 
L 326.660519 202.032709 
L 326.382561 195.538365 
L 326.243583 198.529181 
L 326.104604 198.529181 
L 325.687667 199.013409 
L 325.40971 198.757053 
L 325.270731 197.332855 
L 325.131752 199.981864 
L 324.714816 200.266703 
L 324.575837 200.608511 
L 324.436858 199.52612 
L 324.297879 189.955508 
L 324.1589 196.50682 
L 323.602985 193.829327 
L 323.325027 188.559794 
L 323.186048 191.806966 
L 322.769112 193.62994 
L 322.352175 192.091806 
L 321.79626 189.186441 
L 321.657281 190.069444 
L 321.379324 197.589211 
L 321.240345 197.133467 
L 320.823408 197.503759 
L 320.545451 193.743875 
L 320.406472 195.111106 
L 320.267493 191.066383 
L 319.850557 186.366529 
L 319.43362 177.052273 
L 319.294641 175.74201 
L 318.877705 176.16927 
L 318.738726 177.308628 
L 318.599747 176.710465 
L 318.460768 178.590407 
L 318.321789 178.878095 
L 317.904853 180.755188 
L 317.765874 184.856879 
L 317.626895 185.540494 
L 317.487916 179.729765 
L 316.932001 180.669736 
L 316.654043 188.417374 
L 316.515065 188.53131 
L 316.376086 185.825334 
L 315.959149 185.825334 
L 315.681192 189.983992 
L 315.542213 187.990115 
L 314.986297 187.648307 
L 314.847319 189.243409 
L 314.70834 188.331922 
L 314.569361 188.645246 
L 314.013446 190.382768 
L 313.874467 190.097928 
L 313.45753 198.443729 
L 313.040594 201.064254 
L 312.901615 199.041893 
L 312.762636 198.785537 
L 312.623657 199.867928 
L 312.484679 199.81096 
L 312.067742 200.095799 
L 311.789784 197.646179 
L 311.650806 195.338977 
L 311.511827 195.253526 
L 311.09489 202.317549 
L 310.955911 199.839444 
L 310.816933 202.317549 
L 310.538975 214.779283 
L 310.122038 212.685711 
L 309.844081 212.343904 
L 309.705102 211.804987 
L 309.566123 212.215726 
L 309.149187 209.125216 
L 309.010208 231.769967 
L 308.73225 234.846235 
L 308.593271 232.054807 
L 308.176335 232.311162 
L 307.898377 234.931687 
L 307.203483 235.871658 
L 307.064504 235.52985 
L 306.925525 237.096468 
L 306.786547 234.960171 
L 306.647568 238.606118 
L 306.230631 237.18192 
L 306.091652 235.415914 
L 305.952674 236.526789 
L 305.674716 234.846235 
L 305.257779 236.469821 
L 305.118801 238.534908 
L 304.979822 238.720054 
L 304.840843 238.577634 
L 304.701864 239.175797 
L 304.284928 238.563392 
L 304.00697 233.934748 
L 303.729012 231.855419 
L 303.312076 231.28574 
L 303.034118 233.507774 
L 302.75616 234.817751 
L 302.339224 233.991716 
L 302.200245 235.017139 
L 302.061266 233.73536 
L 301.783309 238.634602 
L 301.366372 245.784077 
L 301.088415 244.758654 
L 300.810457 246.011949 
L 300.39352 246.182853 
L 300.115563 243.419908 
L 299.976584 244.844106 
L 299.837605 250.597867 
L 299.420669 252.477809 
L 299.28169 249.914252 
L 299.142711 249.68638 
L 299.003732 250.626351 
L 298.447817 250.911191 
L 298.308838 252.050549 
L 298.169859 251.908129 
L 297.891901 250.127882 
L 297.474965 249.786074 
L 297.335986 246.553144 
L 297.197007 250.768771 
L 296.91905 251.281482 
L 296.502113 250.256059 
L 296.363134 264.896817 
L 296.224156 264.638182 
L 296.085177 263.785942 
L 295.946198 259.541831 
L 295.529261 260.39635 
L 295.390283 260.994514 
L 295.112325 258.489919 
L 294.973346 260.168479 
L 294.55641 260.39635 
L 294.417431 260.253931 
L 294.278452 260.510286 
L 294.000494 261.962968 
L 293.583558 262.076904 
L 293.444579 262.703551 
L 293.3056 264.754397 
L 293.166621 264.555009 
L 293.027642 265.35256 
L 292.471727 262.845971 
L 292.332748 263.84291 
L 291.637854 260.083027 
L 291.498875 264.177597 
L 291.220918 263.016875 
L 291.081939 259.826671 
L 290.665002 258.331263 
L 290.526024 257.37705 
L 290.387045 253.816555 
L 290.109087 253.13294 
L 289.553172 254.728042 
L 289.414193 254.272298 
L 289.275214 257.405534 
L 289.136235 256.607983 
L 288.719299 259.17154 
L 288.58032 257.547954 
L 288.441341 254.101394 
L 288.302362 247.065855 
L 288.163383 246.439208 
L 287.746447 248.17673 
L 287.468489 242.13813 
L 287.32951 242.337517 
L 287.190532 240.656964 
L 286.773595 242.907197 
L 286.634616 241.340579 
L 286.495637 241.696628 
L 286.21768 237.780083 
L 285.800743 237.751599 
L 285.661764 237.438276 
L 285.522786 237.609179 
L 285.383807 238.178859 
L 284.827892 238.321279 
L 284.688913 239.517605 
L 284.549934 241.682386 
L 284.410955 241.340579 
L 283.85504 237.580696 
L 283.716061 242.679325 
L 283.577082 241.910258 
L 283.438103 243.50536 
L 283.299124 238.520666 
L 282.743209 232.306605 
L 282.60423 230.231833 
L 282.326273 234.903203 
L 281.909336 234.888961 
L 281.770357 233.479005 
L 281.631378 233.963232 
L 281.4924 235.259252 
L 281.353421 233.365069 
L 280.936484 232.909325 
L 280.797505 232.054807 
L 280.519548 233.621425 
L 280.380569 232.596002 
L 279.963632 234.789267 
L 279.824654 234.586746 
L 279.546696 238.54915 
L 279.407717 238.463698 
L 278.712823 237.18192 
L 278.017929 238.634602 
L 277.87895 237.438276 
L 277.739971 237.950987 
L 277.462014 231.599063 
L 276.906098 229.946993 
L 276.767119 230.659092 
L 276.628141 232.140258 
L 276.489162 232.003535 
L 275.933246 230.032445 
L 275.794268 230.345769 
L 275.655289 229.599489 
L 275.51631 227.070113 
L 274.960395 226.18711 
L 274.682437 227.582824 
L 274.543458 228.323407 
L 274.126522 228.494311 
L 273.987543 229.377314 
L 273.709585 227.241017 
L 273.570606 227.354953 
L 273.15367 226.301046 
L 273.014691 224.9623 
L 272.875712 225.332591 
L 272.597755 222.085419 
L 272.180818 222.142387 
L 272.041839 223.395682 
L 271.763882 221.686644 
L 271.207966 224.364136 
L 271.068987 222.968422 
L 270.79103 223.993845 
L 270.652051 223.110842 
L 270.235114 223.31023 
L 269.957157 226.429224 
L 269.818178 229.804573 
L 269.679199 230.431221 
L 269.262263 230.089413 
L 269.123284 231.228772 
L 268.984305 230.829996 
L 268.845326 231.371191 
L 268.706347 232.644425 
L 268.289411 232.111775 
L 268.011453 230.320418 
L 267.733495 231.553489 
L 267.316559 230.488189 
L 266.899623 225.019268 
L 266.204728 229.776089 
L 266.06575 228.294923 
L 265.926771 228.323407 
L 265.787792 231.798451 
L 265.370855 231.784209 
L 265.092898 229.576702 
L 264.953919 228.978539 
L 264.398004 229.007022 
L 264.259025 228.494311 
L 263.981067 226.870725 
L 263.425152 227.241017 
L 263.286173 226.158626 
L 263.008215 223.196294 
L 262.869236 222.512679 
L 262.4523 221.686644 
L 262.313321 226.215594 
L 262.035363 224.079297 
L 261.896385 226.585886 
L 261.479448 226.671337 
L 261.340469 224.791396 
L 261.201491 225.190171 
L 261.062512 227.468888 
L 260.923533 226.272562 
L 260.506596 226.386498 
L 260.367618 226.18711 
L 260.228639 224.008087 
L 259.950681 223.196294 
L 259.533745 221.629676 
L 259.116808 220.889093 
L 258.977829 225.019268 
L 258.560893 223.652037 
L 258.282935 237.18192 
L 258.143956 237.409792 
L 258.004977 236.10665 
L 257.588041 237.723115 
L 257.449062 235.615302 
L 257.310083 240.286672 
L 257.171104 238.321279 
L 257.032126 240.62848 
L 256.615189 242.736293 
L 256.47621 242.024194 
L 256.337231 241.967226 
L 256.198253 241.168251 
L 256.059274 241.511483 
L 255.642337 241.56845 
L 255.36438 237.495244 
L 255.225401 239.346701 
L 255.086422 237.637663 
L 254.669486 239.090346 
L 254.252549 234.874719 
L 254.11357 234.44746 
L 253.696634 234.17971 
L 253.557655 235.074107 
L 253.418676 234.732299 
L 253.279697 236.982532 
L 253.140718 234.618363 
L 252.723782 233.763844 
L 252.584803 235.900142 
L 252.445824 233.450521 
L 252.306845 235.472882 
L 251.75093 235.928626 
L 251.611951 237.580696 
L 251.472972 235.996987 
L 251.333994 235.729238 
L 251.195015 236.697693 
L 250.778078 235.67227 
L 250.639099 236.640725 
L 250.361142 240.258188 
L 250.222163 240.827867 
L 249.805226 243.078101 
L 249.666248 242.878713 
L 249.527269 244.245943 
L 249.38829 243.135068 
L 249.249311 243.733232 
L 248.832375 241.938742 
L 248.693396 240.286672 
L 248.554417 240.20122 
L 248.415438 240.998771 
L 247.859523 240.742415 
L 247.581565 241.952984 
L 247.303608 238.54915 
L 246.747692 237.381308 
L 246.608713 236.555273 
L 246.330756 233.849296 
L 245.913819 230.943932 
L 245.635862 242.052678 
L 245.357904 238.520666 
L 244.940967 239.887897 
L 244.66301 245.043494 
L 244.385052 243.476876 
L 243.968116 242.736293 
L 243.690158 245.071978 
L 243.4122 243.078101 
L 242.995264 243.448392 
L 242.856285 243.989587 
L 242.717306 242.13813 
L 242.578327 243.078101 
L 242.439349 245.242882 
L 242.022412 248.290666 
L 241.883433 250.256059 
L 241.744454 250.256059 
L 241.605476 250.854223 
L 241.466497 250.626351 
L 240.910581 253.788071 
L 240.771603 253.075972 
L 240.493645 253.617167 
L 240.076708 253.902007 
L 239.93773 257.918246 
L 239.798751 257.94673 
L 239.659772 258.730039 
L 239.103857 256.721919 
L 238.547941 263.444135 
L 237.992026 263.130811 
L 237.853047 262.412445 
L 237.714068 263.130811 
L 237.57509 262.361744 
L 237.158153 264.526525 
L 236.880195 264.042298 
L 236.602238 266.349499 
L 236.185301 266.121627 
L 236.046322 264.497756 
L 235.768365 267.631277 
L 235.629386 267.787939 
L 235.212449 267.431889 
L 234.795513 264.668945 
L 234.239598 265.267108 
L 234.100619 264.668945 
L 233.683682 268.628216 
L 233.266746 266.064659 
L 233.127767 260.624222 
L 232.988788 263.928362 
L 232.849809 256.778887 
L 232.71083 260.424834 
L 232.293894 261.250869 
L 232.154915 262.076904 
L 232.015936 260.69942 
L 231.876958 253.104456 
L 231.737979 253.503231 
L 231.321042 257.120695 
L 231.182063 254.813494 
L 230.904106 255.411657 
L 230.765127 255.155301 
L 230.34819 257.092211 
L 230.209212 253.887765 
L 230.070233 253.659893 
L 229.792275 257.035243 
L 229.375339 256.266176 
L 229.23636 254.243814 
L 229.097381 255.482867 
L 228.958402 254.400476 
L 228.819423 254.813494 
L 228.124529 257.30584 
L 227.98555 258.829732 
L 227.846571 257.604922 
L 227.429635 257.94673 
L 227.290656 253.019289 
L 227.151677 252.278421 
L 227.012698 253.06173 
L 226.87372 251.666016 
L 226.178825 252.848385 
L 225.900868 254.557138 
L 225.344953 253.104456 
L 225.205974 253.360811 
L 224.928016 251.366934 
L 224.51108 249.743348 
L 224.233122 253.674135 
L 224.094143 253.104456 
L 223.955164 253.688377 
L 223.538228 254.243814 
L 223.399249 255.781948 
L 223.26027 256.038304 
L 223.121291 254.230142 
L 222.982312 250.426963 
L 222.565376 255.069849 
L 222.287418 251.908129 
L 222.148439 258.715797 
L 222.009461 258.601861 
L 221.592524 257.889762 
L 221.453545 258.032181 
L 220.619672 263.84291 
L 220.480693 262.760519 
L 220.202736 259.912123 
L 219.507842 267.033114 
L 219.368863 261.250869 
L 219.090905 267.061598 
L 218.673969 265.21014 
L 218.53499 263.672006 
L 218.396011 257.604922 
L 218.257032 256.835855 
L 218.118053 256.835855 
L 217.701117 259.31396 
L 217.562138 264.697429 
L 217.423159 263.572882 
L 217.145202 264.925585 
L 216.728265 265.153172 
L 216.589286 269.682123 
L 216.450307 269.254863 
L 216.311329 268.343376 
L 215.755413 269.539703 
L 215.338477 263.472618 
L 215.199498 269.140927 
L 214.782561 266.377983 
L 214.643583 262.760519 
L 214.504604 264.412589 
L 214.365625 262.589616 
L 214.226646 264.868333 
L 213.670731 264.384105 
L 213.392773 261.250869 
L 213.253794 264.213202 
L 212.697879 264.270169 
L 212.5589 263.84291 
L 212.419921 264.369863 
L 212.280943 265.6374 
L 211.864006 266.634338 
L 211.725027 261.678129 
L 211.586048 263.102327 
L 211.44707 262.133872 
L 211.308091 263.728974 
L 210.891154 265.836787 
L 210.613197 262.789003 
L 210.335239 265.722852 
L 209.918302 265.124688 
L 209.779324 267.033114 
L 209.640345 265.993449 
L 209.362387 269.254863 
L 208.945451 268.672081 
L 208.667493 268.642458 
L 208.528514 270.066656 
L 208.389535 273.755329 
L 207.972599 274.467428 
L 207.83362 286.914921 
L 207.694641 286.829469 
L 207.555662 284.949527 
L 207.416684 288.56699 
L 206.999747 287.285212 
L 206.721789 277.372793 
L 206.582811 277.344309 
L 206.443832 276.48979 
L 205.887916 271.875388 
L 205.748938 271.761452 
L 205.609959 272.074775 
L 205.47098 274.666816 
L 205.054043 274.55288 
L 204.915065 276.233434 
L 204.776086 276.20495 
L 204.637107 277.657632 
L 204.498128 276.746146 
L 204.081192 272.895114 
L 203.942213 273.071714 
L 203.664255 275.940904 
L 203.525276 275.877385 
L 203.10834 275.507093 
L 202.969361 278.626087 
L 202.691403 275.464367 
L 202.552425 275.321947 
L 202.135488 279.850898 
L 201.996509 280.021801 
L 201.85753 282.158099 
L 201.718552 279.736962 
L 201.579573 279.480606 
L 201.162636 280.87632 
L 201.023657 279.594542 
L 200.884679 280.648449 
L 200.7457 283.212005 
L 200.606721 278.540635 
L 200.189784 278.027924 
L 200.050806 279.993317 
L 199.911827 278.996379 
L 199.772848 280.135737 
L 199.633869 277.330067 
L 199.216933 277.059469 
L 199.077954 273.698361 
L 198.938975 277.814294 
L 198.799996 277.7146 
L 198.661017 276.746146 
L 198.244081 277.087953 
L 197.966123 276.318886 
L 197.827144 277.828536 
L 197.271229 280.933288 
L 196.993271 278.768507 
L 196.854292 282.414454 
L 196.715314 278.597603 
L 196.298377 277.173405 
L 196.159398 277.657632 
L 196.02042 280.363609 
L 195.742462 277.57218 
L 195.325525 270.764513 
L 195.186547 260.367866 
L 194.908589 258.288537 
L 194.76961 264.341379 
L 194.213695 265.551948 
L 194.074716 266.86221 
L 193.935737 265.694368 
L 193.796758 265.751336 
L 193.379822 267.175534 
L 193.240843 262.447196 
L 192.962885 267.659761 
L 192.823906 267.488857 
L 192.40697 268.143989 
L 192.267991 269.112443 
L 192.129012 269.197895 
L 191.990033 270.878449 
L 191.851055 269.653639 
L 191.434118 268.6567 
L 191.295139 267.545825 
L 191.15616 267.346438 
L 190.878203 268.970023 
L 190.461266 269.283347 
L 190.322288 268.770636 
L 189.905351 270.365738 
L 189.488415 274.467428 
L 189.349436 274.467428 
L 189.210457 275.492851 
L 189.071478 275.521335 
L 188.932499 276.945533 
L 188.376584 276.034046 
L 188.098626 279.3849 
L 187.959647 277.344309 
L 187.542711 275.692239 
L 187.403732 276.518274 
L 187.264753 275.321947 
L 187.125774 275.621029 
L 186.986796 275.094076 
L 186.569859 275.208011 
L 186.013944 280.933288 
L 185.597007 279.936349 
L 185.458028 279.22425 
L 185.180071 280.078769 
L 185.041092 279.409396 
L 184.624156 279.736962 
L 184.485177 279.380912 
L 184.346198 279.751204 
L 184.06824 281.260854 
L 183.373346 281.346306 
L 183.234367 280.847836 
L 182.678452 273.157166 
L 182.539473 274.453186 
L 182.400494 273.370796 
L 182.261515 270.536641 
L 182.122537 273.769571 
L 181.7056 276.307492 
L 181.427642 273.299586 
L 181.288664 273.342312 
L 181.149685 272.473551 
L 180.732748 272.473551 
L 180.454791 275.364673 
L 180.315812 275.05135 
L 180.176833 274.424702 
L 179.759896 274.638332 
L 179.620918 276.504032 
L 179.34296 272.986262 
L 179.203981 270.778755 
L 178.648066 270.109382 
L 178.509087 271.405402 
L 178.370108 271.633274 
L 178.231129 273.655635 
L 177.814193 273.157166 
L 177.536235 270.536641 
L 177.397256 270.337254 
L 177.258278 269.710607 
L 176.841341 271.576306 
L 176.702362 270.550883 
L 176.563383 270.550883 
L 176.424405 271.120563 
L 176.285426 270.436948 
L 175.72951 270.807239 
L 175.590532 269.796058 
L 175.451553 267.431889 
L 175.312574 268.51428 
L 174.756659 270.558004 
L 174.478701 264.626219 
L 174.339722 265.765578 
L 173.922786 265.680126 
L 173.644828 268.37186 
L 173.36687 266.835435 
L 172.949934 267.389163 
L 172.532997 269.610913 
L 172.394019 269.539703 
L 171.977082 269.169411 
L 171.560146 268.428828 
L 171.421167 267.374921 
L 171.00423 268.44307 
L 170.865251 277.743084 
L 170.726273 279.181524 
L 170.587294 277.387035 
L 170.448315 278.939411 
L 170.031378 280.164221 
L 169.753421 281.30358 
L 169.614442 281.203886 
L 169.058527 282.585358 
L 168.919548 283.382909 
L 168.780569 282.770789 
L 168.502611 284.151976 
L 167.946696 283.240489 
L 167.668738 284.978011 
L 167.529759 288.495781 
L 166.973844 284.992253 
L 166.834865 283.02686 
L 166.695887 284.82847 
L 166.556908 283.89562 
L 166.139971 284.194702 
L 166.000992 284.750139 
L 165.862014 288.210941 
L 165.723035 286.857953 
L 165.167119 287.256728 
L 165.028141 286.11737 
L 164.889162 286.815227 
L 164.750183 280.477545 
L 164.611204 282.855956 
L 164.194268 281.545693 
L 164.055289 281.645387 
L 163.777331 284.337122 
L 163.638352 285.519206 
L 162.943458 282.74202 
L 162.804479 285.420937 
L 162.6655 284.878317 
L 162.248564 286.031918 
L 161.970606 286.160096 
L 161.831627 285.034979 
L 161.692649 286.936284 
L 161.275712 286.872195 
L 161.136733 287.69823 
L 160.997755 290.29027 
L 160.858776 287.648383 
L 160.719797 288.182457 
L 160.30286 288.951809 
L 160.163882 288.595474 
L 159.885924 291.301451 
L 159.746945 289.991189 
L 159.330009 288.965766 
L 159.052051 290.033915 
L 158.913072 290.14785 
L 158.774093 289.635139 
L 158.357157 288.723652 
L 158.079199 291.557807 
L 157.801241 291.201757 
L 157.384305 292.184454 
L 157.106347 302.517012 
L 156.967368 303.563797 
L 156.82839 303.051086 
L 156.411453 303.207748 
L 156.272474 301.384774 
L 156.133495 301.484468 
L 155.855538 302.410197 
L 155.438601 302.979876 
L 155.299623 302.93715 
L 155.160644 304.247412 
L 154.882686 303.777712 
L 154.46575 302.951392 
L 154.187792 304.817092 
L 154.048813 304.931028 
L 153.909834 304.73164 
L 153.492898 305.044963 
L 153.353919 304.218928 
L 152.936982 307.96457 
L 152.520046 309.317558 
L 152.381067 310.157835 
L 152.103109 308.491523 
L 151.964131 308.220925 
L 151.547194 308.306377 
L 151.408215 310.200561 
L 151.269236 310.513884 
L 151.130258 311.955173 
L 150.991279 309.787543 
L 150.574342 309.573914 
L 150.296385 312.151712 
L 150.018427 311.496581 
L 149.601491 311.339919 
L 149.462512 312.194438 
L 149.323533 311.596275 
L 149.184554 313.184256 
L 149.045575 311.895357 
L 148.628639 311.240226 
L 148.350681 311.787402 
L 147.516808 312.165954 
L 147.23885 310.869934 
L 147.099872 310.286013 
L 146.682935 310.300255 
L 146.543956 310.029657 
L 146.265999 311.382645 
L 145.710083 311.980809 
L 145.571104 312.308374 
L 145.432126 312.165954 
L 145.154168 313.63886 
L 144.737231 313.71833 
L 144.598253 319.828141 
L 144.459274 320.056012 
L 144.320295 320.825079 
L 144.181316 324.684656 
L 143.76438 324.92677 
L 143.486422 325.952193 
L 143.347443 324.841318 
L 142.791528 324.100735 
L 142.652549 326.521872 
L 142.51357 326.407936 
L 142.235613 327.105793 
L 141.540718 327.362149 
L 141.262761 328.287878 
L 140.845824 328.943009 
L 140.706845 328.586959 
L 140.567867 329.868738 
L 140.289909 329.555414 
L 139.872972 329.199365 
L 139.733994 330.666289 
L 139.595015 327.034583 
L 139.317057 325.268578 
L 138.900121 324.812834 
L 138.761142 324.257397 
L 138.622163 323.189248 
L 138.483184 324.186187 
L 138.344205 323.958315 
L 137.78829 323.659234 
L 137.649311 323.986799 
L 137.510332 324.898286 
L 137.371354 324.869802 
L 136.954417 325.496449 
L 136.815438 325.197368 
L 136.398502 322.847441 
L 135.981565 322.078374 
L 135.703608 322.462907 
L 135.42565 324.129219 
L 134.869735 323.986799 
L 134.730756 323.34591 
L 134.452798 320.18419 
L 133.618925 322.320487 
L 133.479946 321.893228 
L 133.06301 321.921712 
L 132.924031 323.217732 
L 132.785052 322.220793 
L 132.646073 319.201493 
L 131.673222 322.853137 
L 131.534243 320.682659 
L 131.117306 320.654175 
L 130.978327 321.309307 
L 130.561391 319.89935 
L 130.144454 321.067193 
L 130.005476 321.052951 
L 129.866497 323.075312 
L 129.727518 322.875925 
L 129.588539 322.19231 
L 129.171603 320.924773 
L 128.893645 322.1211 
L 128.754666 321.591298 
L 128.615687 322.135342 
L 128.198751 322.149584 
L 127.781814 320.497514 
L 127.642835 320.355094 
L 126.669984 320.169948 
L 126.253047 320.597208 
L 125.97509 317.193374 
L 125.836111 317.463972 
L 125.697132 316.381581 
L 125.141217 313.946202 
L 125.002238 314.587091 
L 124.72428 316.338855 
L 124.307344 316.381581 
L 124.168365 317.592149 
L 124.029386 316.751872 
L 123.751428 313.761056 
L 123.334492 314.302252 
L 123.195513 315.65524 
L 122.917555 313.020473 
L 122.778576 314.14559 
L 122.36164 315.313432 
L 122.222661 316.381581 
L 122.083682 315.72645 
L 121.805725 316.481275 
L 121.249809 317.079438 
L 121.11083 315.071319 
L 120.832873 315.897354 
L 120.415936 314.487397 
L 119.860021 320.768111 
L 119.443085 322.249277 
L 119.304106 321.97868 
L 119.165127 321.992922 
L 119.026148 320.810837 
L 118.470233 320.39782 
L 118.192275 318.774234 
L 118.053296 320.04177 
L 117.914317 319.215735 
L 117.358402 320.946136 
L 117.219423 325.111916 
L 117.080444 324.670414 
L 116.941466 322.59963 
L 116.524529 322.263519 
L 116.246571 322.719263 
L 116.107593 321.409001 
L 115.551677 321.992922 
L 115.412698 321.366275 
L 115.134741 317.435488 
L 114.578825 317.122164 
L 114.439847 314.900415 
L 114.300868 314.985867 
L 114.161889 314.629817 
L 114.02291 313.832266 
L 113.605974 312.63594 
L 113.328016 314.373462 
L 113.189037 312.764118 
L 113.050058 312.63594 
L 112.633122 313.134409 
L 112.494143 312.42231 
L 112.216185 312.863811 
L 112.077207 313.412128 
L 111.66027 313.49758 
L 111.521291 313.348039 
L 111.243334 314.07438 
L 111.104355 313.632878 
L 110.687418 313.746814 
L 110.548439 315.021472 
L 110.409461 315.22798 
L 110.270482 316.224919 
L 110.131503 315.413126 
L 109.575588 318.147587 
L 109.29763 317.478214 
L 109.158651 316.88005 
L 108.741715 315.819023 
L 108.463757 315.86887 
L 108.185799 311.382645 
L 107.768863 310.079219 
L 107.490905 308.169654 
L 107.212948 311.183258 
L 106.796011 310.926902 
L 106.657032 303.592281 
L 106.240096 302.965634 
L 105.823159 303.435619 
L 105.68418 304.019541 
L 105.267244 307.736698 
L 104.850307 308.420313 
L 104.711329 307.864876 
L 104.57235 308.334861 
L 104.433371 307.138535 
L 104.294392 309.360284 
L 103.877456 307.907602 
L 103.738477 309.445736 
L 103.599498 309.004234 
L 103.32154 310.869934 
L 102.904604 311.639001 
L 102.765625 311.553549 
L 102.487667 312.06626 
L 102.348689 313.191377 
L 101.931752 313.572208 
L 101.792773 314.672543 
L 101.653794 314.444671 
L 101.514816 316.025531 
L 101.375837 315.598272 
L 100.819921 316.410065 
L 100.680943 317.357442 
L 100.402985 315.640998 
L 99.708091 314.273768 
L 99.569112 314.430429 
L 99.430133 315.769176 
L 99.013197 316.253403 
L 98.874218 316.054015 
L 98.457281 317.407004 
L 97.901366 315.997047 
L 97.762387 316.424307 
L 97.484429 318.553483 
L 97.067493 319.044832 
L 96.928514 318.895291 
L 96.789535 318.95938 
L 96.511578 321.159766 
L 95.955662 320.32661 
L 95.816684 320.696901 
L 95.677705 321.430363 
L 95.121789 322.918651 
L 94.982811 322.890167 
L 94.704853 322.037642 
L 94.565874 320.04177 
L 94.148938 318.81696 
L 94.009959 319.785415 
L 93.87098 322.989861 
L 93.732001 323.288942 
L 93.593022 325.581901 
L 93.176086 326.571719 
L 93.037107 325.738563 
L 92.759149 322.576843 
L 92.62017 323.089554 
L 92.203234 324.058009 
L 91.786297 322.206552 
L 91.647319 321.209613 
L 91.230382 321.209613 
L 91.091403 320.953257 
L 90.952425 322.975619 
L 90.813446 323.246216 
L 90.674467 324.015283 
L 90.25753 324.015283 
L 89.979573 323.70196 
L 89.701615 323.516814 
L 89.006721 324.485269 
L 88.728763 323.844379 
L 88.311827 323.217732 
L 88.033869 324.029525 
L 87.89489 323.801653 
L 87.338975 324.941012 
L 87.061017 326.322484 
L 86.922038 325.824015 
L 86.78306 325.838257 
L 86.366123 326.123097 
L 85.810208 328.800589 
L 85.393271 328.316362 
L 85.254292 328.772105 
L 85.115314 326.137338 
L 84.976335 326.521587 
L 84.837356 326.57884 
L 84.42042 325.809773 
L 84.281441 326.22279 
L 84.142462 328.060006 
L 84.003483 327.889102 
L 83.864504 326.877922 
L 83.447568 327.233971 
L 83.308589 328.359088 
L 83.030631 326.977615 
L 82.891652 327.419117 
L 82.474716 325.994919 
L 82.335737 326.15158 
L 82.057779 325.111916 
L 81.501864 325.496449 
L 81.362885 326.564598 
L 81.223906 325.054948 
L 81.084928 325.240094 
L 80.945949 326.450662 
L 80.529012 326.194306 
L 80.251055 325.425239 
L 80.112076 325.482207 
L 79.973097 325.994919 
L 79.55616 325.567659 
L 79.417182 324.884044 
L 79.278203 325.040706 
L 79.139224 325.026464 
L 79.000245 325.824015 
L 78.583309 325.752805 
L 78.44433 326.778228 
L 78.305351 325.581901 
L 78.166372 325.567659 
L 78.027393 325.774168 
L 77.471478 326.920647 
L 77.054542 329.683592 
L 76.637605 329.911464 
L 76.498626 329.612382 
L 76.359647 328.829073 
L 76.220669 328.786347 
L 76.08169 327.903344 
L 75.525774 327.162761 
L 75.386796 333.927703 
L 75.247817 334.326478 
L 75.108838 335.166755 
L 74.691901 334.896157 
L 74.552923 333.842251 
L 74.274965 334.084649 
L 74.135986 333.429233 
L 73.580071 333.315297 
L 73.163134 334.910399 
L 72.746198 334.853431 
L 72.329261 339.838125 
L 72.329261 339.838125 
" clip-path="url(#p606804f2e3)" style="fill: none; stroke: #000000; stroke-width: 0.4; stroke-linecap: square"/>
   </g>
   <g id="patch_3">
    <path d="M 46.965625 354.958125 
L 46.965625 22.318125 
" style="fill: none; stroke: #000000; stroke-width: 0.8; stroke-linejoin: miter; stroke-linecap: square"/>
   </g>
   <g id="patch_4">
    <path d="M 604.965625 354.958125 
L 604.965625 22.318125 
" style="fill: none; stroke: #000000; stroke-width: 0.8; stroke-linejoin: miter; stroke-linecap: square"/>
   </g>
   <g id="patch_5">
    <path d="M 46.965625 354.958125 
L 604.965625 354.958125 
" style="fill: none; stroke: #000000; stroke-width: 0.8; stroke-linejoin: miter; stroke-linecap: square"/>
   </g>
   <g id="patch_6">
    <path d="M 46.965625 22.318125 
L 604.965625 22.318125 
" style="fill: none; stroke: #000000; stroke-width: 0.8; stroke-linejoin: miter; stroke-linecap: square"/>
   </g>
   <g id="text_18">
    <!-- ROST, High Price (2013-2023) -->
    <g transform="translate(236.157813 16.318125)scale(0.12 -0.12)">
     <defs>
      <path id="DejaVuSans-52" d="M 2841 2188 
Q 3044 2119 3236 1894 
Q 3428 1669 3622 1275 
L 4263 0 
L 3584 0 
L 2988 1197 
Q 2756 1666 2539 1819 
Q 2322 1972 1947 1972 
L 1259 1972 
L 1259 0 
L 628 0 
L 628 4666 
L 2053 4666 
Q 2853 4666 3247 4331 
Q 3641 3997 3641 3322 
Q 3641 2881 3436 2590 
Q 3231 2300 2841 2188 
z
M 1259 4147 
L 1259 2491 
L 2053 2491 
Q 2509 2491 2742 2702 
Q 2975 2913 2975 3322 
Q 2975 3731 2742 3939 
Q 2509 4147 2053 4147 
L 1259 4147 
z
" transform="scale(0.015625)"/>
      <path id="DejaVuSans-4f" d="M 2522 4238 
Q 1834 4238 1429 3725 
Q 1025 3213 1025 2328 
Q 1025 1447 1429 934 
Q 1834 422 2522 422 
Q 3209 422 3611 934 
Q 4013 1447 4013 2328 
Q 4013 3213 3611 3725 
Q 3209 4238 2522 4238 
z
M 2522 4750 
Q 3503 4750 4090 4092 
Q 4678 3434 4678 2328 
Q 4678 1225 4090 567 
Q 3503 -91 2522 -91 
Q 1538 -91 948 565 
Q 359 1222 359 2328 
Q 359 3434 948 4092 
Q 1538 4750 2522 4750 
z
" transform="scale(0.015625)"/>
      <path id="DejaVuSans-54" d="M -19 4666 
L 3928 4666 
L 3928 4134 
L 2272 4134 
L 2272 0 
L 1638 0 
L 1638 4134 
L -19 4134 
L -19 4666 
z
" transform="scale(0.015625)"/>
      <path id="DejaVuSans-2c" d="M 750 794 
L 1409 794 
L 1409 256 
L 897 -744 
L 494 -744 
L 750 256 
L 750 794 
z
" transform="scale(0.015625)"/>
      <path id="DejaVuSans-48" d="M 628 4666 
L 1259 4666 
L 1259 2753 
L 3553 2753 
L 3553 4666 
L 4184 4666 
L 4184 0 
L 3553 0 
L 3553 2222 
L 1259 2222 
L 1259 0 
L 628 0 
L 628 4666 
z
" transform="scale(0.015625)"/>
      <path id="DejaVuSans-67" d="M 2906 1791 
Q 2906 2416 2648 2759 
Q 2391 3103 1925 3103 
Q 1463 3103 1205 2759 
Q 947 2416 947 1791 
Q 947 1169 1205 825 
Q 1463 481 1925 481 
Q 2391 481 2648 825 
Q 2906 1169 2906 1791 
z
M 3481 434 
Q 3481 -459 3084 -895 
Q 2688 -1331 1869 -1331 
Q 1566 -1331 1297 -1286 
Q 1028 -1241 775 -1147 
L 775 -588 
Q 1028 -725 1275 -790 
Q 1522 -856 1778 -856 
Q 2344 -856 2625 -561 
Q 2906 -266 2906 331 
L 2906 616 
Q 2728 306 2450 153 
Q 2172 0 1784 0 
Q 1141 0 747 490 
Q 353 981 353 1791 
Q 353 2603 747 3093 
Q 1141 3584 1784 3584 
Q 2172 3584 2450 3431 
Q 2728 3278 2906 2969 
L 2906 3500 
L 3481 3500 
L 3481 434 
z
" transform="scale(0.015625)"/>
      <path id="DejaVuSans-68" d="M 3513 2113 
L 3513 0 
L 2938 0 
L 2938 2094 
Q 2938 2591 2744 2837 
Q 2550 3084 2163 3084 
Q 1697 3084 1428 2787 
Q 1159 2491 1159 1978 
L 1159 0 
L 581 0 
L 581 4863 
L 1159 4863 
L 1159 2956 
Q 1366 3272 1645 3428 
Q 1925 3584 2291 3584 
Q 2894 3584 3203 3211 
Q 3513 2838 3513 2113 
z
" transform="scale(0.015625)"/>
      <path id="DejaVuSans-2d" d="M 313 2009 
L 1997 2009 
L 1997 1497 
L 313 1497 
L 313 2009 
z
" transform="scale(0.015625)"/>
     </defs>
     <use xlink:href="#DejaVuSans-52"/>
     <use xlink:href="#DejaVuSans-4f" x="69.482422"/>
     <use xlink:href="#DejaVuSans-53" x="148.193359"/>
     <use xlink:href="#DejaVuSans-54" x="211.669922"/>
     <use xlink:href="#DejaVuSans-2c" x="272.753906"/>
     <use xlink:href="#DejaVuSans-20" x="304.541016"/>
     <use xlink:href="#DejaVuSans-48" x="336.328125"/>
     <use xlink:href="#DejaVuSans-69" x="411.523438"/>
     <use xlink:href="#DejaVuSans-67" x="439.306641"/>
     <use xlink:href="#DejaVuSans-68" x="502.783203"/>
     <use xlink:href="#DejaVuSans-20" x="566.162109"/>
     <use xlink:href="#DejaVuSans-50" x="597.949219"/>
     <use xlink:href="#DejaVuSans-72" x="656.501953"/>
     <use xlink:href="#DejaVuSans-69" x="697.615234"/>
     <use xlink:href="#DejaVuSans-63" x="725.398438"/>
     <use xlink:href="#DejaVuSans-65" x="780.378906"/>
     <use xlink:href="#DejaVuSans-20" x="841.902344"/>
     <use xlink:href="#DejaVuSans-28" x="873.689453"/>
     <use xlink:href="#DejaVuSans-32" x="912.703125"/>
     <use xlink:href="#DejaVuSans-30" x="976.326172"/>
     <use xlink:href="#DejaVuSans-31" x="1039.949219"/>
     <use xlink:href="#DejaVuSans-33" x="1103.572266"/>
     <use xlink:href="#DejaVuSans-2d" x="1167.195312"/>
     <use xlink:href="#DejaVuSans-32" x="1203.279297"/>
     <use xlink:href="#DejaVuSans-30" x="1266.902344"/>
     <use xlink:href="#DejaVuSans-32" x="1330.525391"/>
     <use xlink:href="#DejaVuSans-33" x="1394.148438"/>
     <use xlink:href="#DejaVuSans-29" x="1457.771484"/>
    </g>
   </g>
  </g>
 </g>
 <defs>
  <clipPath id="p606804f2e3">
   <rect x="46.965625" y="22.318125" width="558" height="332.64"/>
  </clipPath>
 </defs>
</svg>
