<?xml version="1.0" encoding="utf-8" standalone="no"?>
<!DOCTYPE svg PUBLIC "-//W3C//DTD SVG 1.1//EN"
  "http://www.w3.org/Graphics/SVG/1.1/DTD/svg11.dtd">
<svg xmlns:xlink="http://www.w3.org/1999/xlink" width="691.28175pt" height="422.947075pt" viewBox="0 0 691.28175 422.947075" xmlns="http://www.w3.org/2000/svg" version="1.1">
 <metadata>
  <rdf:RDF xmlns:dc="http://purl.org/dc/elements/1.1/" xmlns:cc="http://creativecommons.org/ns#" xmlns:rdf="http://www.w3.org/1999/02/22-rdf-syntax-ns#">
   <cc:Work>
    <dc:type rdf:resource="http://purl.org/dc/dcmitype/StillImage"/>
    <dc:date>2023-04-23T14:47:36.613198</dc:date>
    <dc:format>image/svg+xml</dc:format>
    <dc:creator>
     <cc:Agent>
      <dc:title>Matplotlib v3.5.1, https://matplotlib.org/</dc:title>
     </cc:Agent>
    </dc:creator>
   </cc:Work>
  </rdf:RDF>
 </metadata>
 <defs>
  <style type="text/css">*{stroke-linejoin: round; stroke-linecap: butt}</style>
 </defs>
 <g id="figure_1">
  <g id="patch_1">
   <path d="M 0 422.947075 
L 691.28175 422.947075 
L 691.28175 0 
L 0 0 
z
" style="fill: #f0f0f0"/>
  </g>
  <g id="axes_1">
   <g id="patch_2">
    <path d="M 57.68175 378.43845 
L 684.08175 378.43845 
L 684.08175 28.51845 
L 57.68175 28.51845 
z
" style="fill: #f0f0f0"/>
   </g>
   <g id="matplotlib.axis_1">
    <g id="xtick_1">
     <g id="line2d_1">
      <path d="M 86.154477 378.43845 
L 86.154477 28.51845 
" clip-path="url(#p4fb72034c5)" style="fill: none; stroke: #cbcbcb"/>
     </g>
     <g id="line2d_2"/>
     <g id="text_1">
      <!-- 0 -->
      <g transform="translate(81.700727 392.576263)scale(0.14 -0.14)">
       <defs>
        <path id="DejaVuSans-30" d="M 2034 4250 
Q 1547 4250 1301 3770 
Q 1056 3291 1056 2328 
Q 1056 1369 1301 889 
Q 1547 409 2034 409 
Q 2525 409 2770 889 
Q 3016 1369 3016 2328 
Q 3016 3291 2770 3770 
Q 2525 4250 2034 4250 
z
M 2034 4750 
Q 2819 4750 3233 4129 
Q 3647 3509 3647 2328 
Q 3647 1150 3233 529 
Q 2819 -91 2034 -91 
Q 1250 -91 836 529 
Q 422 1150 422 2328 
Q 422 3509 836 4129 
Q 1250 4750 2034 4750 
z
" transform="scale(0.015625)"/>
       </defs>
       <use xlink:href="#DejaVuSans-30"/>
      </g>
     </g>
    </g>
    <g id="xtick_2">
     <g id="line2d_3">
      <path d="M 207.573357 378.43845 
L 207.573357 28.51845 
" clip-path="url(#p4fb72034c5)" style="fill: none; stroke: #cbcbcb"/>
     </g>
     <g id="line2d_4"/>
     <g id="text_2">
      <!-- 500 -->
      <g transform="translate(194.212107 392.576263)scale(0.14 -0.14)">
       <defs>
        <path id="DejaVuSans-35" d="M 691 4666 
L 3169 4666 
L 3169 4134 
L 1269 4134 
L 1269 2991 
Q 1406 3038 1543 3061 
Q 1681 3084 1819 3084 
Q 2600 3084 3056 2656 
Q 3513 2228 3513 1497 
Q 3513 744 3044 326 
Q 2575 -91 1722 -91 
Q 1428 -91 1123 -41 
Q 819 9 494 109 
L 494 744 
Q 775 591 1075 516 
Q 1375 441 1709 441 
Q 2250 441 2565 725 
Q 2881 1009 2881 1497 
Q 2881 1984 2565 2268 
Q 2250 2553 1709 2553 
Q 1456 2553 1204 2497 
Q 953 2441 691 2322 
L 691 4666 
z
" transform="scale(0.015625)"/>
       </defs>
       <use xlink:href="#DejaVuSans-35"/>
       <use xlink:href="#DejaVuSans-30" x="63.623047"/>
       <use xlink:href="#DejaVuSans-30" x="127.246094"/>
      </g>
     </g>
    </g>
    <g id="xtick_3">
     <g id="line2d_5">
      <path d="M 328.992237 378.43845 
L 328.992237 28.51845 
" clip-path="url(#p4fb72034c5)" style="fill: none; stroke: #cbcbcb"/>
     </g>
     <g id="line2d_6"/>
     <g id="text_3">
      <!-- 1000 -->
      <g transform="translate(311.177237 392.576263)scale(0.14 -0.14)">
       <defs>
        <path id="DejaVuSans-31" d="M 794 531 
L 1825 531 
L 1825 4091 
L 703 3866 
L 703 4441 
L 1819 4666 
L 2450 4666 
L 2450 531 
L 3481 531 
L 3481 0 
L 794 0 
L 794 531 
z
" transform="scale(0.015625)"/>
       </defs>
       <use xlink:href="#DejaVuSans-31"/>
       <use xlink:href="#DejaVuSans-30" x="63.623047"/>
       <use xlink:href="#DejaVuSans-30" x="127.246094"/>
       <use xlink:href="#DejaVuSans-30" x="190.869141"/>
      </g>
     </g>
    </g>
    <g id="xtick_4">
     <g id="line2d_7">
      <path d="M 450.411116 378.43845 
L 450.411116 28.51845 
" clip-path="url(#p4fb72034c5)" style="fill: none; stroke: #cbcbcb"/>
     </g>
     <g id="line2d_8"/>
     <g id="text_4">
      <!-- 1500 -->
      <g transform="translate(432.596116 392.576263)scale(0.14 -0.14)">
       <use xlink:href="#DejaVuSans-31"/>
       <use xlink:href="#DejaVuSans-35" x="63.623047"/>
       <use xlink:href="#DejaVuSans-30" x="127.246094"/>
       <use xlink:href="#DejaVuSans-30" x="190.869141"/>
      </g>
     </g>
    </g>
    <g id="xtick_5">
     <g id="line2d_9">
      <path d="M 571.829996 378.43845 
L 571.829996 28.51845 
" clip-path="url(#p4fb72034c5)" style="fill: none; stroke: #cbcbcb"/>
     </g>
     <g id="line2d_10"/>
     <g id="text_5">
      <!-- 2000 -->
      <g transform="translate(554.014996 392.576263)scale(0.14 -0.14)">
       <defs>
        <path id="DejaVuSans-32" d="M 1228 531 
L 3431 531 
L 3431 0 
L 469 0 
L 469 531 
Q 828 903 1448 1529 
Q 2069 2156 2228 2338 
Q 2531 2678 2651 2914 
Q 2772 3150 2772 3378 
Q 2772 3750 2511 3984 
Q 2250 4219 1831 4219 
Q 1534 4219 1204 4116 
Q 875 4013 500 3803 
L 500 4441 
Q 881 4594 1212 4672 
Q 1544 4750 1819 4750 
Q 2544 4750 2975 4387 
Q 3406 4025 3406 3419 
Q 3406 3131 3298 2873 
Q 3191 2616 2906 2266 
Q 2828 2175 2409 1742 
Q 1991 1309 1228 531 
z
" transform="scale(0.015625)"/>
       </defs>
       <use xlink:href="#DejaVuSans-32"/>
       <use xlink:href="#DejaVuSans-30" x="63.623047"/>
       <use xlink:href="#DejaVuSans-30" x="127.246094"/>
       <use xlink:href="#DejaVuSans-30" x="190.869141"/>
      </g>
     </g>
    </g>
    <g id="text_6">
     <!-- Date -->
     <g transform="translate(350.804438 412.2532)scale(0.168 -0.168)">
      <defs>
       <path id="DejaVuSans-44" d="M 1259 4147 
L 1259 519 
L 2022 519 
Q 2988 519 3436 956 
Q 3884 1394 3884 2338 
Q 3884 3275 3436 3711 
Q 2988 4147 2022 4147 
L 1259 4147 
z
M 628 4666 
L 1925 4666 
Q 3281 4666 3915 4102 
Q 4550 3538 4550 2338 
Q 4550 1131 3912 565 
Q 3275 0 1925 0 
L 628 0 
L 628 4666 
z
" transform="scale(0.015625)"/>
       <path id="DejaVuSans-61" d="M 2194 1759 
Q 1497 1759 1228 1600 
Q 959 1441 959 1056 
Q 959 750 1161 570 
Q 1363 391 1709 391 
Q 2188 391 2477 730 
Q 2766 1069 2766 1631 
L 2766 1759 
L 2194 1759 
z
M 3341 1997 
L 3341 0 
L 2766 0 
L 2766 531 
Q 2569 213 2275 61 
Q 1981 -91 1556 -91 
Q 1019 -91 701 211 
Q 384 513 384 1019 
Q 384 1609 779 1909 
Q 1175 2209 1959 2209 
L 2766 2209 
L 2766 2266 
Q 2766 2663 2505 2880 
Q 2244 3097 1772 3097 
Q 1472 3097 1187 3025 
Q 903 2953 641 2809 
L 641 3341 
Q 956 3463 1253 3523 
Q 1550 3584 1831 3584 
Q 2591 3584 2966 3190 
Q 3341 2797 3341 1997 
z
" transform="scale(0.015625)"/>
       <path id="DejaVuSans-74" d="M 1172 4494 
L 1172 3500 
L 2356 3500 
L 2356 3053 
L 1172 3053 
L 1172 1153 
Q 1172 725 1289 603 
Q 1406 481 1766 481 
L 2356 481 
L 2356 0 
L 1766 0 
Q 1100 0 847 248 
Q 594 497 594 1153 
L 594 3053 
L 172 3053 
L 172 3500 
L 594 3500 
L 594 4494 
L 1172 4494 
z
" transform="scale(0.015625)"/>
       <path id="DejaVuSans-65" d="M 3597 1894 
L 3597 1613 
L 953 1613 
Q 991 1019 1311 708 
Q 1631 397 2203 397 
Q 2534 397 2845 478 
Q 3156 559 3463 722 
L 3463 178 
Q 3153 47 2828 -22 
Q 2503 -91 2169 -91 
Q 1331 -91 842 396 
Q 353 884 353 1716 
Q 353 2575 817 3079 
Q 1281 3584 2069 3584 
Q 2775 3584 3186 3129 
Q 3597 2675 3597 1894 
z
M 3022 2063 
Q 3016 2534 2758 2815 
Q 2500 3097 2075 3097 
Q 1594 3097 1305 2825 
Q 1016 2553 972 2059 
L 3022 2063 
z
" transform="scale(0.015625)"/>
      </defs>
      <use xlink:href="#DejaVuSans-44"/>
      <use xlink:href="#DejaVuSans-61" x="77.001953"/>
      <use xlink:href="#DejaVuSans-74" x="138.28125"/>
      <use xlink:href="#DejaVuSans-65" x="177.490234"/>
     </g>
    </g>
   </g>
   <g id="matplotlib.axis_2">
    <g id="ytick_1">
     <g id="line2d_11">
      <path d="M 57.68175 325.440925 
L 684.08175 325.440925 
" clip-path="url(#p4fb72034c5)" style="fill: none; stroke: #dcdcdc; stroke-width: 0.5"/>
     </g>
     <g id="line2d_12"/>
     <g id="text_7">
      <!-- 40 -->
      <g transform="translate(36.36675 330.759832)scale(0.14 -0.14)">
       <defs>
        <path id="DejaVuSans-34" d="M 2419 4116 
L 825 1625 
L 2419 1625 
L 2419 4116 
z
M 2253 4666 
L 3047 4666 
L 3047 1625 
L 3713 1625 
L 3713 1100 
L 3047 1100 
L 3047 0 
L 2419 0 
L 2419 1100 
L 313 1100 
L 313 1709 
L 2253 4666 
z
" transform="scale(0.015625)"/>
       </defs>
       <use xlink:href="#DejaVuSans-34"/>
       <use xlink:href="#DejaVuSans-30" x="63.623047"/>
      </g>
     </g>
    </g>
    <g id="ytick_2">
     <g id="line2d_13">
      <path d="M 57.68175 264.981153 
L 684.08175 264.981153 
" clip-path="url(#p4fb72034c5)" style="fill: none; stroke: #dcdcdc; stroke-width: 0.5"/>
     </g>
     <g id="line2d_14"/>
     <g id="text_8">
      <!-- 60 -->
      <g transform="translate(36.36675 270.300059)scale(0.14 -0.14)">
       <defs>
        <path id="DejaVuSans-36" d="M 2113 2584 
Q 1688 2584 1439 2293 
Q 1191 2003 1191 1497 
Q 1191 994 1439 701 
Q 1688 409 2113 409 
Q 2538 409 2786 701 
Q 3034 994 3034 1497 
Q 3034 2003 2786 2293 
Q 2538 2584 2113 2584 
z
M 3366 4563 
L 3366 3988 
Q 3128 4100 2886 4159 
Q 2644 4219 2406 4219 
Q 1781 4219 1451 3797 
Q 1122 3375 1075 2522 
Q 1259 2794 1537 2939 
Q 1816 3084 2150 3084 
Q 2853 3084 3261 2657 
Q 3669 2231 3669 1497 
Q 3669 778 3244 343 
Q 2819 -91 2113 -91 
Q 1303 -91 875 529 
Q 447 1150 447 2328 
Q 447 3434 972 4092 
Q 1497 4750 2381 4750 
Q 2619 4750 2861 4703 
Q 3103 4656 3366 4563 
z
" transform="scale(0.015625)"/>
       </defs>
       <use xlink:href="#DejaVuSans-36"/>
       <use xlink:href="#DejaVuSans-30" x="63.623047"/>
      </g>
     </g>
    </g>
    <g id="ytick_3">
     <g id="line2d_15">
      <path d="M 57.68175 204.521381 
L 684.08175 204.521381 
" clip-path="url(#p4fb72034c5)" style="fill: none; stroke: #dcdcdc; stroke-width: 0.5"/>
     </g>
     <g id="line2d_16"/>
     <g id="text_9">
      <!-- 80 -->
      <g transform="translate(36.36675 209.840287)scale(0.14 -0.14)">
       <defs>
        <path id="DejaVuSans-38" d="M 2034 2216 
Q 1584 2216 1326 1975 
Q 1069 1734 1069 1313 
Q 1069 891 1326 650 
Q 1584 409 2034 409 
Q 2484 409 2743 651 
Q 3003 894 3003 1313 
Q 3003 1734 2745 1975 
Q 2488 2216 2034 2216 
z
M 1403 2484 
Q 997 2584 770 2862 
Q 544 3141 544 3541 
Q 544 4100 942 4425 
Q 1341 4750 2034 4750 
Q 2731 4750 3128 4425 
Q 3525 4100 3525 3541 
Q 3525 3141 3298 2862 
Q 3072 2584 2669 2484 
Q 3125 2378 3379 2068 
Q 3634 1759 3634 1313 
Q 3634 634 3220 271 
Q 2806 -91 2034 -91 
Q 1263 -91 848 271 
Q 434 634 434 1313 
Q 434 1759 690 2068 
Q 947 2378 1403 2484 
z
M 1172 3481 
Q 1172 3119 1398 2916 
Q 1625 2713 2034 2713 
Q 2441 2713 2670 2916 
Q 2900 3119 2900 3481 
Q 2900 3844 2670 4047 
Q 2441 4250 2034 4250 
Q 1625 4250 1398 4047 
Q 1172 3844 1172 3481 
z
" transform="scale(0.015625)"/>
       </defs>
       <use xlink:href="#DejaVuSans-38"/>
       <use xlink:href="#DejaVuSans-30" x="63.623047"/>
      </g>
     </g>
    </g>
    <g id="ytick_4">
     <g id="line2d_17">
      <path d="M 57.68175 144.061609 
L 684.08175 144.061609 
" clip-path="url(#p4fb72034c5)" style="fill: none; stroke: #dcdcdc; stroke-width: 0.5"/>
     </g>
     <g id="line2d_18"/>
     <g id="text_10">
      <!-- 100 -->
      <g transform="translate(27.45925 149.380515)scale(0.14 -0.14)">
       <use xlink:href="#DejaVuSans-31"/>
       <use xlink:href="#DejaVuSans-30" x="63.623047"/>
       <use xlink:href="#DejaVuSans-30" x="127.246094"/>
      </g>
     </g>
    </g>
    <g id="ytick_5">
     <g id="line2d_19">
      <path d="M 57.68175 83.601837 
L 684.08175 83.601837 
" clip-path="url(#p4fb72034c5)" style="fill: none; stroke: #dcdcdc; stroke-width: 0.5"/>
     </g>
     <g id="line2d_20"/>
     <g id="text_11">
      <!-- 120 -->
      <g transform="translate(27.45925 88.920743)scale(0.14 -0.14)">
       <use xlink:href="#DejaVuSans-31"/>
       <use xlink:href="#DejaVuSans-32" x="63.623047"/>
       <use xlink:href="#DejaVuSans-30" x="127.246094"/>
      </g>
     </g>
    </g>
    <g id="text_12">
     <!-- Price (USD) -->
     <g transform="translate(19.965375 251.1432)rotate(-90)scale(0.168 -0.168)">
      <defs>
       <path id="DejaVuSans-50" d="M 1259 4147 
L 1259 2394 
L 2053 2394 
Q 2494 2394 2734 2622 
Q 2975 2850 2975 3272 
Q 2975 3691 2734 3919 
Q 2494 4147 2053 4147 
L 1259 4147 
z
M 628 4666 
L 2053 4666 
Q 2838 4666 3239 4311 
Q 3641 3956 3641 3272 
Q 3641 2581 3239 2228 
Q 2838 1875 2053 1875 
L 1259 1875 
L 1259 0 
L 628 0 
L 628 4666 
z
" transform="scale(0.015625)"/>
       <path id="DejaVuSans-72" d="M 2631 2963 
Q 2534 3019 2420 3045 
Q 2306 3072 2169 3072 
Q 1681 3072 1420 2755 
Q 1159 2438 1159 1844 
L 1159 0 
L 581 0 
L 581 3500 
L 1159 3500 
L 1159 2956 
Q 1341 3275 1631 3429 
Q 1922 3584 2338 3584 
Q 2397 3584 2469 3576 
Q 2541 3569 2628 3553 
L 2631 2963 
z
" transform="scale(0.015625)"/>
       <path id="DejaVuSans-69" d="M 603 3500 
L 1178 3500 
L 1178 0 
L 603 0 
L 603 3500 
z
M 603 4863 
L 1178 4863 
L 1178 4134 
L 603 4134 
L 603 4863 
z
" transform="scale(0.015625)"/>
       <path id="DejaVuSans-63" d="M 3122 3366 
L 3122 2828 
Q 2878 2963 2633 3030 
Q 2388 3097 2138 3097 
Q 1578 3097 1268 2742 
Q 959 2388 959 1747 
Q 959 1106 1268 751 
Q 1578 397 2138 397 
Q 2388 397 2633 464 
Q 2878 531 3122 666 
L 3122 134 
Q 2881 22 2623 -34 
Q 2366 -91 2075 -91 
Q 1284 -91 818 406 
Q 353 903 353 1747 
Q 353 2603 823 3093 
Q 1294 3584 2113 3584 
Q 2378 3584 2631 3529 
Q 2884 3475 3122 3366 
z
" transform="scale(0.015625)"/>
       <path id="DejaVuSans-20" transform="scale(0.015625)"/>
       <path id="DejaVuSans-28" d="M 1984 4856 
Q 1566 4138 1362 3434 
Q 1159 2731 1159 2009 
Q 1159 1288 1364 580 
Q 1569 -128 1984 -844 
L 1484 -844 
Q 1016 -109 783 600 
Q 550 1309 550 2009 
Q 550 2706 781 3412 
Q 1013 4119 1484 4856 
L 1984 4856 
z
" transform="scale(0.015625)"/>
       <path id="DejaVuSans-55" d="M 556 4666 
L 1191 4666 
L 1191 1831 
Q 1191 1081 1462 751 
Q 1734 422 2344 422 
Q 2950 422 3222 751 
Q 3494 1081 3494 1831 
L 3494 4666 
L 4128 4666 
L 4128 1753 
Q 4128 841 3676 375 
Q 3225 -91 2344 -91 
Q 1459 -91 1007 375 
Q 556 841 556 1753 
L 556 4666 
z
" transform="scale(0.015625)"/>
       <path id="DejaVuSans-53" d="M 3425 4513 
L 3425 3897 
Q 3066 4069 2747 4153 
Q 2428 4238 2131 4238 
Q 1616 4238 1336 4038 
Q 1056 3838 1056 3469 
Q 1056 3159 1242 3001 
Q 1428 2844 1947 2747 
L 2328 2669 
Q 3034 2534 3370 2195 
Q 3706 1856 3706 1288 
Q 3706 609 3251 259 
Q 2797 -91 1919 -91 
Q 1588 -91 1214 -16 
Q 841 59 441 206 
L 441 856 
Q 825 641 1194 531 
Q 1563 422 1919 422 
Q 2459 422 2753 634 
Q 3047 847 3047 1241 
Q 3047 1584 2836 1778 
Q 2625 1972 2144 2069 
L 1759 2144 
Q 1053 2284 737 2584 
Q 422 2884 422 3419 
Q 422 4038 858 4394 
Q 1294 4750 2059 4750 
Q 2388 4750 2728 4690 
Q 3069 4631 3425 4513 
z
" transform="scale(0.015625)"/>
       <path id="DejaVuSans-29" d="M 513 4856 
L 1013 4856 
Q 1481 4119 1714 3412 
Q 1947 2706 1947 2009 
Q 1947 1309 1714 600 
Q 1481 -109 1013 -844 
L 513 -844 
Q 928 -128 1133 580 
Q 1338 1288 1338 2009 
Q 1338 2731 1133 3434 
Q 928 4138 513 4856 
z
" transform="scale(0.015625)"/>
      </defs>
      <use xlink:href="#DejaVuSans-50"/>
      <use xlink:href="#DejaVuSans-72" x="58.552734"/>
      <use xlink:href="#DejaVuSans-69" x="99.666016"/>
      <use xlink:href="#DejaVuSans-63" x="127.449219"/>
      <use xlink:href="#DejaVuSans-65" x="182.429688"/>
      <use xlink:href="#DejaVuSans-20" x="243.953125"/>
      <use xlink:href="#DejaVuSans-28" x="275.740234"/>
      <use xlink:href="#DejaVuSans-55" x="314.753906"/>
      <use xlink:href="#DejaVuSans-53" x="387.947266"/>
      <use xlink:href="#DejaVuSans-44" x="451.423828"/>
      <use xlink:href="#DejaVuSans-29" x="528.425781"/>
     </g>
    </g>
   </g>
   <g id="line2d_21">
    <path d="M 87.368666 223.203451 
L 87.611504 230.579543 
L 87.854342 234.05598 
L 88.340017 226.347359 
M 102.424607 164.708621 
L 102.667445 172.447472 
L 102.910283 172.90092 
L 103.395958 157.513908 
L 103.638796 169.575633 
L 103.881634 173.626438 
L 104.124471 173.02184 
L 104.367309 175.077472 
M 129.865274 111.685401 
L 130.108112 116.280344 
L 130.350949 117.882528 
L 130.593787 115.343217 
L 131.079463 119.454482 
L 131.3223 123.988965 
L 131.565138 125.31908 
L 131.807976 127.314252 
M 164.833911 83.511147 
L 165.076749 76.467584 
L 165.562425 97.265745 
L 165.805262 93.638159 
M 174.304584 106.54632 
L 174.547422 109.932068 
M 182.561068 103.795401 
L 182.803905 102.344366 
L 183.046743 103.341952 
L 183.289581 102.948964 
M 188.632012 167.64092 
L 188.874849 169.333794 
L 189.360525 188.89253 
L 189.603363 183.390691 
L 189.8462 188.560001 
M 195.431469 180.549081 
L 195.674307 184.327817 
L 195.917144 181.123449 
M 205.630655 186.746208 
L 205.873493 189.043679 
M 217.286867 174.624024 
L 217.529705 172.387012 
L 217.772543 188.469312 
L 218.258218 193.275863 
L 218.501056 184.509197 
M 235.256861 102.253677 
L 235.499699 107.211378 
L 235.742537 101.195631 
L 235.985375 100.923562 
L 236.228212 100.288734 
L 236.47105 99.170228 
M 242.299156 98.233102 
L 242.541994 103.281493 
L 242.784832 102.314136 
L 243.02767 100.560803 
M 269.982661 136.171609 
L 270.954012 144.061609 
L 271.19685 149.563448 
L 271.439688 147.145057 
L 271.682525 146.721839 
L 271.925363 142.429195 
M 275.567929 155.669885 
L 275.810767 159.206782 
L 276.053605 160.264828 
L 276.296443 168.124598 
L 276.539281 165.252759 
L 276.782118 165.524828 
L 277.024956 173.384598 
L 277.510632 165.887587 
M 286.981304 164.92023 
L 287.224142 168.517587 
L 287.46698 169.273334 
L 288.195493 175.7123 
L 288.438331 169.757012 
L 288.681168 169.726782 
L 288.924006 169.091955 
L 289.166844 170.875518 
L 289.409682 174.593794 
L 289.65252 176.588966 
M 301.065894 188.378622 
L 301.308732 195.210576 
L 301.55157 193.094484 
L 301.794407 194.847818 
L 302.037245 199.745059 
L 302.280083 198.959082 
L 302.522921 199.110231 
L 302.765759 215.706439 
L 303.008596 213.650807 
L 303.251434 213.106669 
L 303.494272 209.146554 
L 303.73711 207.876898 
L 303.979947 209.720921 
L 304.222785 206.909542 
M 312.964944 155.700115 
L 313.207782 154.128161 
L 313.45062 160.113678 
L 313.693458 156.365173 
M 323.649806 165.555058 
L 324.135481 168.638506 
L 324.378319 169.031495 
L 324.621157 170.754598 
M 326.321021 175.228621 
L 326.563859 177.163334 
M 337.24872 202.375059 
L 337.491558 207.907128 
L 337.734396 207.846669 
L 337.977234 212.86483 
L 338.220071 212.562531 
M 364.932225 216.734255 
L 365.175063 218.0946 
L 365.4179 213.681037 
L 365.660738 215.37391 
L 365.903576 214.315864 
M 366.389251 214.497243 
L 366.632089 214.225174 
L 366.874927 213.529887 
M 369.546142 227.949543 
L 369.78898 247.780348 
L 370.031818 251.045176 
L 370.274656 251.468394 
L 370.517493 250.138279 
L 370.760331 247.568739 
L 371.246007 253.282187 
L 371.488844 250.501038 
L 371.731682 252.46598 
L 371.97452 252.49621 
L 372.217358 251.800923 
L 372.460195 254.461153 
L 372.703033 254.430923 
L 372.945871 254.642532 
M 379.50249 262.230234 
L 379.745328 262.200004 
L 379.988166 261.504716 
L 380.231004 262.532532 
L 380.716679 263.16736 
L 380.959517 260.718739 
L 381.202355 262.955751 
L 381.445193 267.187935 
L 381.68803 269.455176 
L 381.930868 269.364487 
L 382.173706 267.550693 
L 382.416544 268.034372 
M 382.902219 269.666786 
L 383.145057 269.727245 
L 383.387895 268.941268 
M 385.330597 285.144487 
L 385.573434 282.000579 
L 385.816272 286.051384 
M 407.671671 254.551842 
L 407.914508 257.332992 
M 418.59937 247.20598 
L 418.842207 246.510693 
L 419.085045 248.687245 
L 419.327883 248.868624 
L 419.570721 248.143107 
L 419.813558 246.964141 
M 430.984095 253.312417 
L 431.226933 255.640118 
M 431.712609 253.977475 
L 432.198284 256.335406 
L 432.441122 256.365636 
L 432.68396 257.151613 
L 432.926797 260.748969 
L 433.169635 261.111728 
L 433.412473 258.602647 
L 433.655311 258.602647 
L 433.898149 257.302762 
L 434.140986 258.088739 
M 441.426119 259.146785 
L 441.668957 259.086325 
L 441.911795 261.051268 
L 442.154632 261.444257 
M 451.868143 268.155291 
L 452.11098 270.452763 
L 452.353818 270.966671 
L 452.596656 270.906211 
L 452.839494 271.329429 
L 453.325169 270.452763 
L 453.568007 275.380234 
L 453.810845 274.684947 
L 454.053683 275.984832 
L 454.29652 276.015062 
L 454.539358 274.987245 
L 454.782196 277.768395 
L 455.753547 282.907476 
L 456.239222 280.549544 
L 456.48206 282.514487 
L 456.724898 282.363338 
L 456.967736 281.8192 
L 457.210573 282.151728 
L 457.696249 284.50966 
L 457.939087 284.237591 
M 477.851783 283.874832 
L 478.094621 287.472188 
M 491.693535 306.698396 
L 491.936373 306.033338 
L 492.179211 306.365867 
L 492.422049 307.998281 
L 492.664886 310.90035 
M 510.877718 286.897821 
L 511.120556 286.776901 
L 511.363394 289.134832 
M 515.248798 295.619143 
L 515.491636 297.296901 
L 515.734473 297.055062 
L 515.977311 299.412993 
L 516.220149 299.609488 
M 520.591229 297.961959 
L 520.834066 299.775752 
L 521.076904 300.471039 
L 521.319742 300.244315 
M 536.861358 296.646959 
L 537.347034 298.128223 
L 537.589872 296.97193 
L 538.075547 299.866442 
L 538.318385 300.19897 
L 538.561223 299.972246 
L 539.289736 303.04058 
L 539.532574 302.254603 
L 539.775412 303.342879 
L 540.018249 302.798741 
L 540.261087 302.874315 
L 540.746763 303.388223 
L 540.9896 307.529718 
L 541.232438 307.741327 
M 548.274733 309.162132 
L 548.517571 310.371327 
M 552.645813 320.589029 
L 553.131488 323.506213 
L 553.617164 323.355063 
L 553.860002 321.5715 
L 554.102839 321.223856 
L 554.345677 322.523741 
L 554.588515 321.949373 
L 554.831353 323.309718 
L 555.07419 322.599316 
L 555.317028 324.277075 
L 555.559866 324.775868 
L 555.802704 323.566672 
M 558.231081 327.859316 
L 558.473919 329.688224 
L 558.959595 330.791615 
L 559.202432 328.705753 
L 559.44527 330.171902 
M 559.930946 331.229948 
L 560.173783 330.821845 
L 560.416621 332.847247 
L 560.659459 331.804316 
M 568.187429 341.689489 
L 568.430267 340.752363 
L 568.673105 341.598799 
L 568.915943 345.664719 
L 569.15878 347.282018 
L 569.401618 346.450696 
L 569.644456 347.508742 
L 569.887294 346.586731 
L 570.372969 345.468225 
L 570.615807 348.657478 
L 570.858645 348.204029 
L 571.101483 348.627248 
L 571.34432 348.279604 
L 571.829996 349.020236 
L 572.072834 348.460983 
M 573.287022 351.136328 
L 573.52986 351.740926 
L 573.772698 351.468857 
M 574.258373 352.360639 
L 574.501211 352.421099 
M 598.299312 340.495409 
L 598.542149 341.659259 
L 598.784987 344.410179 
L 599.270663 343.881156 
L 599.5135 343.095179 
M 601.456202 346.163512 
L 601.69904 346.934374 
M 610.198362 339.618742 
L 610.4412 339.966386 
L 610.684037 338.333972 
M 617.240657 329.446385 
L 617.483495 329.733569 
L 617.726332 330.338167 
L 617.96917 331.290408 
L 618.212008 331.683397 
L 618.454846 332.544948 
L 618.697683 331.970581 
L 618.940521 333.43673 
L 619.426197 334.056443 
L 619.669034 334.933109 
L 619.911872 334.7215 
L 620.15471 336.792247 
L 620.397548 336.051615 
L 620.640385 336.399259 
L 620.883223 336.988742 
L 621.126061 338.636271 
L 621.368899 338.364202 
L 621.611736 336.913167 
M 625.254303 339.210638 
L 625.497141 340.329144 
L 625.982816 339.558282 
L 626.468492 341.931328 
L 626.711329 342.430121 
M 627.439843 343.352133 
L 627.68268 344.697363 
L 627.925518 343.896271 
L 628.411194 343.98696 
M 638.124704 347.508742 
L 638.367542 348.400524 
L 638.61038 348.415639 
L 638.853217 350.048053 
L 639.096055 349.881788 
L 639.338893 350.697995 
L 639.581731 349.927133 
L 639.824568 350.531731 
L 640.067406 349.262075 
M 650.50943 351.876961 
L 650.752268 351.151443 
M 651.966456 355.31561 
L 652.209294 356.260294 
L 652.452132 356.698627 
L 652.69497 356.698627 
M 654.880509 356.864892 
L 655.123347 358.60311 
L 655.366185 361.459834 
L 655.609023 362.532995 
L 655.609023 362.532995 
" clip-path="url(#p4fb72034c5)" style="fill: none; stroke: #00ff7f"/>
   </g>
   <g id="line2d_22">
    <path d="M 92.468259 194.817588 
L 92.711097 196.480231 
L 93.196772 182.423334 
L 93.43961 183.390691 
M 97.325014 132.211494 
L 97.567852 142.701264 
L 97.81069 140.071264 
M 99.510554 122.356551 
L 99.753392 118.638275 
M 116.994873 115.524597 
L 117.23771 114.859539 
L 117.480548 104.279079 
L 117.723386 104.279079 
L 117.966224 100.893332 
L 118.209061 100.923562 
L 118.694737 107.302068 
L 118.937575 106.66724 
M 138.850271 88.19678 
L 139.335947 85.869078 
L 139.578784 71.570342 
L 139.821622 72.14471 
L 140.06446 70.149538 
L 140.307298 74.170112 
L 140.550135 63.710572 
L 140.792973 71.358733 
M 154.391888 64.28494 
L 154.634725 66.491721 
L 154.877563 65.040687 
M 156.577427 58.148273 
L 156.820265 51.860457 
M 192.760254 148.172873 
L 193.003091 148.868161 
L 193.245929 150.530805 
M 213.644301 143.940689 
L 214.129976 135.71816 
L 214.372814 136.564597 
M 230.157269 115.161838 
L 230.400106 116.189654 
L 230.642944 107.846205 
L 230.885782 117.519769 
L 231.12862 107.967125 
L 231.371457 86.020228 
L 231.614295 93.42655 
L 231.857133 78.704595 
L 232.099971 73.807354 
L 232.342808 72.08425 
L 232.585646 74.71425 
L 232.828484 76.074595 
L 233.071322 78.220917 
L 233.314159 81.788044 
M 238.65659 83.692527 
L 238.899428 81.425285 
L 239.142266 77.162871 
M 306.165487 190.162185 
L 306.408325 181.546668 
L 306.651163 186.564829 
L 306.894 185.083564 
M 308.593865 158.330115 
L 309.07954 150.409885 
L 309.565216 138.710919 
L 310.050891 133.995057 
L 310.293729 135.74839 
L 310.536567 139.587586 
L 310.779405 140.252643 
L 311.26508 148.837931 
L 311.750756 144.726666 
M 359.104119 190.676093 
L 359.346956 190.978392 
L 359.589794 193.154944 
M 392.858567 272.871153 
L 393.101405 270.331843 
L 393.58708 273.143222 
L 393.829918 271.692188 
M 397.472485 258.602647 
L 397.715322 259.418854 
L 397.95816 254.944831 
L 398.200998 253.675176 
L 398.443836 253.856555 
L 398.686673 253.131038 
M 404.029104 249.86621 
L 404.271942 248.233796 
M 411.071399 241.85529 
L 411.314237 242.883106 
L 411.557075 242.187819 
M 436.326526 251.710233 
L 436.812202 250.440578 
L 437.055039 250.168509 
M 445.311523 253.282187 
L 445.554361 251.982302 
L 445.797199 251.528854 
L 446.040036 249.684831 
M 577.658102 346.586731 
L 577.90094 346.103052 
M 580.814993 342.490581 
L 581.057831 341.946443 
M 590.771341 338.379317 
L 591.014179 338.061903 
M 591.499854 336.958512 
L 591.742692 335.386558 
L 591.98553 335.265638 
L 592.228368 336.172535 
M 604.855931 336.369029 
L 605.098769 335.719087 
L 605.341607 335.583052 
L 605.584444 333.52742 
L 605.827282 333.52742 
L 606.07012 334.963339 
L 606.312958 334.857535 
L 606.555795 334.237822 
L 606.798633 334.011098 
L 607.041471 334.101788 
L 607.284309 333.104201 
L 607.527146 333.980868 
M 613.355253 331.985696 
L 613.59809 325.047937 
L 613.840928 323.445753 
L 614.083766 324.005006 
L 614.326604 324.125925 
L 614.569441 322.962075 
L 614.812279 323.794908 
L 615.055117 325.350236 
L 615.055117 325.350236 
" clip-path="url(#p4fb72034c5)" style="fill: none; stroke: #ff4500"/>
   </g>
   <g id="line2d_23">
    <path d="M 86.154477 219.424715 
L 86.397315 220.84552 
L 86.882991 214.980922 
L 87.125828 222.689543 
M 88.582855 215.585519 
L 88.825693 211.988163 
L 89.06853 222.719772 
L 89.311368 226.256669 
L 89.554206 219.334025 
L 89.797044 220.361841 
L 90.039881 223.838278 
L 90.282719 216.613335 
L 90.525557 222.659313 
L 90.768395 220.150232 
L 91.496908 201.347243 
L 91.739746 202.979657 
L 91.982583 200.500806 
L 92.225421 196.298852 
M 93.682448 200.410117 
L 93.925286 211.746324 
L 94.168123 208.300117 
L 94.410961 229.098278 
L 94.653799 166.129426 
L 94.896637 165.827127 
L 95.139474 165.04115 
L 95.382312 168.819886 
L 95.62515 168.064138 
L 95.867988 176.951725 
L 96.110825 180.790921 
L 96.353663 175.440231 
L 97.082176 144.394138 
M 98.053527 144.756896 
L 98.296365 131.455746 
L 98.539203 140.282873 
L 99.024879 127.102643 
L 99.267716 133.602068 
M 99.99623 121.812413 
L 100.239067 130.48839 
L 100.481905 134.750804 
L 100.724743 135.204252 
L 100.967581 137.441264 
L 101.696094 158.118506 
L 102.181769 164.769081 
M 104.610147 169.212874 
L 104.852985 171.056897 
L 105.095822 164.224943 
L 105.581498 170.24069 
L 105.824336 181.969886 
L 106.067174 187.108967 
L 106.552849 175.50069 
L 106.795687 178.614369 
L 107.038525 186.806668 
L 107.281362 189.043679 
L 107.767038 163.620345 
L 108.009876 159.176552 
L 108.252713 175.65184 
L 108.738389 166.038736 
L 109.224064 180.277012 
L 109.466902 167.520001 
L 109.70974 163.801725 
L 109.952578 169.001265 
L 110.195415 157.06046 
L 110.438253 155.579196 
L 110.681091 161.383334 
L 110.923929 161.383334 
L 111.166766 154.43046 
L 111.409604 151.86092 
L 111.89528 164.164483 
L 112.138118 161.715862 
L 112.380955 161.050805 
L 112.623793 152.132989 
L 112.866631 148.475172 
L 113.109469 150.863333 
L 113.352306 156.848851 
L 113.595144 159.569541 
L 113.837982 159.902069 
L 114.323657 149.351839 
L 114.566495 157.876667 
L 115.052171 146.993908 
L 115.295008 146.44977 
L 115.537846 137.199425 
M 116.023522 127.616551 
L 116.266359 123.112298 
L 116.509197 134.629885 
L 116.752035 128.976896 
M 119.180413 113.348045 
L 119.42325 116.764022 
L 119.666088 118.215056 
L 119.908926 126.346896 
L 120.394601 116.038505 
L 120.637439 117.398849 
L 120.880277 115.040918 
L 121.123115 114.799079 
L 121.365952 105.185976 
L 121.60879 106.183562 
L 121.851628 104.369769 
L 122.094466 104.460458 
L 122.337303 105.730113 
L 122.580141 113.257355 
L 122.822979 112.138849 
L 123.065817 129.339654 
L 123.551492 108.813562 
L 123.79433 113.801493 
L 124.037168 97.175056 
L 124.280005 97.416895 
L 124.522843 110.294826 
L 124.765681 105.427815 
L 125.008519 85.052871 
L 125.251357 94.121837 
L 125.494194 98.65632 
L 125.737032 97.356435 
L 125.97987 97.205286 
L 126.222708 97.295975 
L 126.465545 87.622412 
L 126.708383 85.808619 
L 126.951221 87.773561 
L 127.194059 84.659883 
L 127.436896 90.887239 
L 127.679734 91.673216 
L 127.922572 100.107355 
L 128.16541 101.709539 
L 128.408247 104.158159 
L 128.651085 104.853447 
L 128.893923 111.83655 
L 129.136761 102.162987 
L 129.379598 104.399998 
L 129.622436 112.652757 
M 132.050814 120.270689 
L 132.293652 120.149769 
M 132.779327 118.910344 
L 133.022165 113.196895 
L 133.265003 110.536665 
L 133.50784 117.30816 
L 133.750678 98.80747 
L 133.993516 100.077125 
L 134.236354 93.879998 
L 134.722029 97.023906 
L 134.964867 101.165401 
L 135.207705 102.253677 
L 135.450542 104.369769 
L 135.69338 99.865516 
L 136.179056 105.034826 
L 136.421893 106.51609 
L 136.664731 103.100113 
L 136.907569 105.337125 
L 137.150407 100.923562 
L 137.393244 100.984021 
L 137.636082 100.167814 
L 137.87892 97.568044 
L 138.121758 92.791722 
L 138.364596 91.068619 
L 138.607433 88.438619 
M 141.035811 81.304366 
L 141.278649 69.091492 
L 141.521486 69.51471 
L 141.764324 67.187009 
L 142.007162 61.685169 
L 142.25 66.249882 
L 142.492837 79.188274 
L 142.735675 74.260802 
L 143.221351 87.531722 
L 143.464188 77.55586 
L 143.707026 80.548618 
L 143.949864 75.469998 
L 144.192702 75.802526 
L 144.435539 80.03471 
L 144.678377 78.674365 
L 144.921215 76.376894 
L 145.406891 79.974251 
L 145.649728 78.613906 
L 146.135404 97.084366 
L 146.621079 72.416779 
L 146.863917 68.819423 
L 147.106755 75.530457 
L 147.349593 71.207584 
L 147.59243 69.182181 
L 147.835268 78.553446 
L 148.320944 63.891951 
L 148.563781 64.708158 
L 149.535132 78.220917 
L 149.77797 72.809768 
L 150.020808 74.018963 
L 150.263646 80.941607 
L 150.506483 82.392641 
L 150.749321 85.3854 
M 151.234997 88.952527 
L 151.477835 86.685285 
M 151.96351 85.959768 
L 152.206348 83.359998 
L 152.449186 89.738504 
L 152.692023 83.329768 
L 152.934861 82.78563 
L 153.177699 85.959768 
L 153.420537 85.204021 
L 153.663374 85.173791 
L 154.14905 74.623561 
M 155.120401 71.902871 
L 155.606076 73.777124 
L 155.848914 76.104825 
L 156.091752 68.063675 
L 156.33459 69.061262 
M 157.063103 66.249882 
L 157.305941 71.237813 
L 157.548778 56.032181 
L 158.034454 44.423905 
L 158.277292 56.21356 
L 158.52013 57.241376 
L 158.762967 47.356203 
L 159.005805 46.932985 
L 159.248643 50.530342 
L 159.491481 49.804824 
L 159.734318 57.845974 
L 159.977156 55.881031 
L 160.219994 61.866549 
L 160.462832 56.939077 
L 160.705669 59.901606 
L 160.948507 61.322411 
L 161.191345 68.607813 
L 161.67702 53.64402 
L 161.919858 56.18333 
L 162.162696 62.833905 
L 162.405534 64.28494 
L 162.648371 59.417928 
L 162.891209 58.752871 
L 163.134047 61.080572 
L 163.376885 73.293446 
L 163.619722 73.021377 
L 163.86256 74.593331 
L 164.105398 82.060113 
L 164.348236 83.873906 
L 164.591074 82.453101 
M 166.0481 81.606664 
L 166.290938 79.641722 
L 166.533776 74.018963 
L 166.776613 72.477239 
L 167.019451 73.353905 
L 167.262289 67.670687 
L 167.747964 80.971837 
L 167.990802 78.855745 
L 168.23364 68.547354 
L 168.476478 82.483331 
L 168.719315 104.369769 
L 169.204991 110.657585 
L 169.447829 90.73609 
L 169.690666 81.878733 
L 169.933504 93.759079 
L 170.176342 87.320113 
L 170.41918 72.688848 
L 170.662017 82.81586 
L 170.904855 79.067354 
L 171.147693 86.775975 
L 171.390531 82.967009 
L 171.633369 85.204021 
L 171.876206 83.813446 
L 172.119044 86.352756 
L 172.361882 77.918618 
L 172.60472 82.7554 
L 172.847557 83.450687 
L 173.090395 81.606664 
L 173.333233 87.471262 
L 173.576071 87.380573 
L 174.061746 94.862469 
M 175.275935 108.813562 
L 175.518773 103.130343 
L 175.76161 103.765171 
L 176.004448 97.537814 
L 176.247286 98.535401 
L 176.490124 101.800228 
L 176.732961 92.761492 
L 176.975799 92.459193 
L 177.461475 80.09517 
L 177.704313 80.971837 
M 178.675664 92.156895 
L 178.918501 92.459193 
L 179.161339 75.107239 
L 179.404177 76.074595 
L 179.647015 79.188274 
L 179.889852 75.681607 
L 180.13269 89.587354 
L 180.375528 89.224596 
L 180.618366 93.45678 
L 180.861203 93.30563 
L 181.104041 90.67563 
L 181.346879 93.607929 
L 181.589717 103.462872 
L 181.832554 104.490688 
L 182.075392 112.169079 
L 182.31823 105.306895 
M 183.532419 97.991263 
L 184.018094 109.055401 
L 184.260932 109.17632 
M 184.746608 115.222298 
L 184.989445 111.050573 
L 185.232283 103.523332 
L 185.475121 119.333562 
L 185.717959 116.884941 
L 186.203634 109.901838 
L 186.446472 112.441148 
L 186.68931 111.292412 
L 187.174985 130.125631 
L 187.417823 131.425517 
L 187.660661 115.585056 
L 187.903498 120.421838 
L 188.146336 164.315633 
L 188.389174 159.357931 
M 190.089038 169.908162 
L 190.331876 169.333794 
L 190.574714 157.876667 
L 190.817552 164.738851 
L 191.060389 167.73161 
L 191.303227 167.70138 
L 191.546065 171.389426 
L 191.788903 158.813793 
L 192.03174 155.579196 
L 192.274578 155.276897 
L 192.517416 151.195862 
M 193.488767 152.707356 
L 193.731605 160.264828 
L 193.974442 152.888736 
L 194.21728 155.488506 
L 194.702956 164.255173 
L 194.945793 171.177817 
L 195.188631 167.459541 
M 196.159982 172.417242 
L 196.40282 173.02184 
L 197.131333 156.093104 
L 197.374171 162.44138 
L 197.617009 162.894828 
L 197.859847 173.626438 
L 198.102684 172.145173 
L 198.345522 163.801725 
L 198.58836 163.438966 
L 198.831198 164.255173 
L 199.074035 162.834368 
L 199.316873 160.506667 
L 199.559711 170.452299 
L 199.802549 171.026667 
L 200.045386 162.713449 
L 200.288224 171.691725 
L 200.531062 174.714713 
L 200.7739 170.512759 
L 201.259575 182.695403 
L 201.502413 181.969886 
L 202.230926 152.737586 
L 202.473764 162.018161 
L 202.716602 165.01092 
L 202.959439 161.987931 
L 203.202277 163.408736 
L 203.445115 166.703794 
L 203.930791 183.45115 
L 204.173628 178.28184 
L 204.416466 179.188737 
L 204.659304 180.700231 
L 204.902142 175.289081 
L 205.387817 179.037587 
M 206.11633 185.899771 
L 206.602006 177.979541 
L 207.087681 190.041266 
L 207.330519 187.018277 
L 207.816195 193.457243 
L 208.059032 204.007473 
L 208.30187 189.950576 
L 208.544708 183.995288 
L 208.787546 190.252875 
L 209.030383 186.32299 
L 209.273221 185.234714 
L 209.516059 173.868277 
L 210.244572 188.680921 
L 210.48741 188.680921 
L 210.730248 193.185174 
L 210.973086 191.61322 
L 211.215923 183.209311 
M 211.701599 172.235863 
L 211.944437 164.285403 
L 212.187274 167.096782 
L 212.430112 154.097931 
M 212.915788 170.27092 
L 213.158625 166.794483 
L 213.401463 161.081035 
M 214.615652 147.205517 
L 214.85849 143.638391 
L 215.344165 152.525977 
L 215.587003 153.251494 
L 215.829841 149.291379 
L 216.315516 160.385747 
L 216.558354 162.562299 
L 216.801192 153.523563 
L 217.04403 171.601035 
M 218.743894 172.024254 
L 218.986732 169.877932 
L 219.472407 177.737702 
L 219.715245 178.009771 
L 219.958083 179.158507 
L 220.20092 177.435403 
L 220.443758 170.180231 
L 220.686596 152.979425 
L 220.929434 166.613104 
L 221.172271 171.782414 
L 221.415109 187.925174 
L 221.657947 196.570921 
L 221.900785 192.822415 
L 222.143622 196.359312 
L 222.629298 169.091955 
L 222.872136 182.786093 
L 223.114973 178.644599 
L 223.357811 171.359196 
L 223.600649 183.360461 
L 223.843487 178.100461 
L 224.086325 177.163334 
L 224.329162 189.980806 
L 224.572 182.816323 
L 224.814838 220.392071 
L 225.057676 206.335174 
L 225.300513 201.226323 
L 225.543351 183.45115 
L 226.029027 196.81276 
L 226.271864 187.592645 
L 226.514702 200.621726 
L 227.000378 256.154026 
L 227.486053 249.86621 
L 227.728891 265.071843 
L 227.971729 236.081382 
L 228.214566 222.870922 
L 228.457404 165.736437 
L 228.700242 170.21046 
L 228.94308 148.414713 
L 229.185917 138.46908 
L 229.428755 159.75092 
L 229.671593 136.473908 
L 229.914431 138.952758 
M 233.556997 83.420458 
L 233.799835 84.508733 
L 234.28551 91.370918 
L 234.771186 87.410803 
L 235.014024 94.635745 
M 236.713888 96.419309 
L 236.956726 89.012986 
L 237.199564 91.431377 
L 237.442401 90.252412 
L 237.685239 90.61517 
L 237.928077 89.496665 
L 238.170915 90.343101 
L 238.413752 86.745745 
M 239.385103 86.171377 
L 239.627941 87.229423 
L 239.870779 91.370918 
L 240.113617 93.094021 
L 240.356454 93.184711 
L 240.599292 94.424136 
L 240.84213 94.182297 
L 241.084968 98.837699 
L 241.327805 97.779653 
L 241.570643 98.354021 
L 241.813481 101.135171 
L 242.056319 98.021493 
M 243.270508 97.235515 
L 243.513345 94.333446 
L 243.756183 99.170228 
L 244.241859 98.535401 
L 244.484696 102.011837 
L 244.727534 103.281493 
L 244.970372 101.28632 
L 245.21321 100.923562 
L 245.456047 95.693791 
L 245.941723 94.696205 
L 246.184561 97.719194 
L 246.670236 109.23678 
M 247.155912 112.501608 
L 247.398749 106.51609 
L 247.641587 107.211378 
L 247.884425 103.659366 
L 248.127263 105.246435 
L 248.3701 109.629769 
L 248.612938 110.899424 
L 248.855776 107.241608 
L 249.098614 108.329884 
L 249.341451 104.551148 
L 249.584289 106.999769 
L 250.069965 108.481033 
L 250.312803 110.838964 
L 250.55564 114.829309 
L 250.798478 112.864367 
L 251.041316 117.398849 
L 251.284154 115.675746 
L 251.526991 111.745861 
L 251.769829 112.501608 
L 252.012667 114.164252 
L 252.255505 108.088045 
L 252.498342 110.869194 
L 252.74118 101.34678 
L 253.226856 107.014884 
L 253.469693 107.967125 
L 253.712531 109.599539 
L 253.955369 106.395171 
L 254.683882 120.240459 
L 254.92672 119.454482 
L 255.169558 117.066321 
L 255.412395 123.112298 
L 255.655233 121.298505 
L 255.898071 115.947815 
L 256.140909 114.285171 
L 256.383747 116.703562 
L 256.626584 120.331148 
L 256.869422 119.152183 
L 257.355098 122.809999 
M 257.840773 118.033677 
L 258.083611 117.731378 
L 258.569286 121.117125 
L 258.812124 116.461723 
L 259.054962 115.766436 
L 259.2978 118.940574 
L 259.540637 119.394022 
L 259.783475 118.396436 
L 260.026313 116.310574 
L 260.269151 115.766436 
L 260.511988 126.014367 
L 260.754826 128.886206 
L 261.240502 122.56816 
L 261.726177 136.262298 
L 261.969015 130.276781 
L 262.211853 135.143793 
L 262.45469 121.691493 
L 262.940366 131.395287 
L 263.183204 131.697586 
L 263.426042 134.448505 
L 263.668879 139.799195 
L 263.911717 137.501724 
L 264.154555 124.593562 
L 264.397393 134.146206 
L 264.883068 122.779769 
L 265.125906 132.241724 
L 265.368744 133.843907 
L 265.611581 140.373563 
L 265.854419 133.511379 
L 266.097257 133.26954 
L 266.340095 125.832988 
L 267.068608 123.414597 
L 267.311446 127.374712 
L 267.554283 126.074827 
L 267.797121 125.591149 
L 268.039959 126.105057 
L 268.525634 122.779769 
L 268.768472 122.024022 
M 269.254148 124.865631 
L 269.496986 125.863218 
L 269.739823 135.294942 
M 272.168201 136.806436 
L 272.411039 139.496896 
L 272.896714 132.090574 
L 273.139552 130.246551 
L 273.868065 139.708505 
L 274.353741 142.429195 
L 274.596578 149.17046 
L 274.839416 148.686782 
L 275.082254 150.107586 
L 275.325092 146.600919 
M 277.753469 160.657816 
L 277.996307 160.597357 
L 278.239145 151.921379 
L 278.481983 154.128161 
L 278.72482 152.525977 
L 279.210496 160.688046 
L 279.453334 160.808966 
L 279.696171 163.862184 
L 279.939009 151.64931 
L 280.181847 153.100345 
L 280.424685 153.644483 
L 280.667522 156.879081 
L 280.91036 151.951609 
L 281.153198 152.737586 
L 281.638873 156.516322 
L 281.881711 151.135402 
L 282.124549 149.291379 
L 282.367387 148.444942 
L 282.610225 150.047126 
L 282.853062 148.414713 
L 283.0959 150.530805 
L 283.338738 150.772644 
L 283.581576 144.061609 
L 283.824413 144.303448 
L 284.310089 150.077356 
L 284.552927 152.012069 
L 284.795764 151.226092 
L 285.038602 149.07977 
L 285.28144 151.467931 
L 285.524278 148.082184 
L 285.767115 148.868161 
L 286.009953 151.67954 
L 286.252791 159.237012 
L 286.495629 162.925058 
L 286.738466 161.413564 
M 289.895357 172.205633 
L 290.138195 170.784828 
L 290.381033 172.054483 
L 290.623871 177.133104 
L 291.109546 160.899655 
L 291.352384 161.685633 
L 291.595222 163.408736 
L 291.838059 159.59977 
L 292.323735 159.841609 
L 292.80941 162.622759 
L 293.052248 161.081035 
L 293.295086 163.620345 
L 293.537924 162.29023 
L 293.780761 163.197127 
M 294.266437 164.345863 
L 294.509275 160.264828 
L 294.752112 159.902069 
L 294.99495 161.806552 
L 295.237788 165.373679 
L 295.480626 166.461955 
L 295.723464 166.250345 
L 295.966301 164.648161 
L 296.451977 169.061725 
L 296.694815 167.882759 
L 296.937652 167.368851 
L 297.18049 169.847702 
L 297.423328 169.636093 
L 297.666166 166.703794 
M 298.151841 169.726782 
L 298.394679 169.364024 
L 298.637517 165.192299 
L 298.880354 171.873104 
L 299.123192 173.535748 
L 299.36603 171.721955 
L 299.608868 172.387012 
L 299.851705 170.633679 
L 300.337381 173.263679 
L 300.580219 169.636093 
L 300.823056 177.526093 
M 304.465623 202.04253 
L 304.708461 201.800691 
L 304.951298 202.858737 
L 305.194136 204.491151 
L 305.436974 209.539542 
L 305.679812 199.745059 
L 305.922649 199.200921 
M 307.136838 196.268622 
L 307.379676 201.710002 
L 307.622514 203.433105 
L 308.108189 196.540691 
L 308.351027 170.694139 
M 311.993593 149.261149 
L 312.236431 153.946782 
L 312.479269 154.944368 
L 312.722107 157.937127 
M 313.936295 153.251494 
L 314.179133 149.14023 
L 314.421971 154.249081 
L 314.664809 156.546552 
L 314.907646 161.232184 
L 315.150484 159.116092 
L 315.393322 152.677126 
L 315.878998 160.295058 
L 316.121835 158.783563 
L 316.364673 153.916552 
L 316.607511 155.186207 
L 316.850349 148.354253 
L 317.336024 145.694023 
L 317.578862 146.57069 
L 317.8217 151.588851 
L 318.064537 152.253908 
L 318.307375 151.64931 
L 318.550213 154.853678 
L 318.793051 153.281724 
L 319.035888 153.311954 
L 319.278726 155.488506 
L 319.764402 152.828276 
L 320.007239 152.314368 
L 320.250077 148.717011 
L 320.492915 150.379655 
L 320.735753 154.49092 
L 320.97859 152.072529 
L 321.221428 151.74 
L 321.464266 151.044713 
L 321.707104 156.818621 
L 321.949942 159.448621 
L 322.192779 155.972184 
L 322.435617 160.355518 
L 322.678455 161.413564 
L 322.921293 158.904483 
L 323.16413 159.085862 
L 323.406968 163.983104 
M 324.863995 165.675977 
L 325.106832 171.238277 
L 325.592508 167.73161 
L 325.835346 168.759426 
L 326.078183 172.024254 
M 327.292372 182.060576 
L 327.53521 184.146438 
M 328.020885 180.186323 
L 328.263723 181.969886 
L 328.506561 184.902185 
L 328.749399 181.758277 
L 328.992237 184.599886 
L 329.235074 182.030346 
L 329.477912 183.300001 
L 329.72075 185.204484 
L 329.963588 188.98322 
L 330.206425 188.92276 
L 330.449263 189.950576 
L 330.692101 190.131955 
L 330.934939 186.625289 
L 331.177776 185.506783 
L 331.420614 185.416093 
L 331.663452 189.073909 
L 331.90629 188.92276 
L 332.149127 190.706323 
L 332.391965 190.162185 
L 332.634803 189.104139 
L 332.877641 189.799427 
L 333.120478 188.136783 
L 333.363316 188.620461 
L 333.848992 184.509197 
L 334.091829 184.539426 
L 334.334667 189.557587 
L 334.577505 189.557587 
L 334.820343 188.98322 
L 335.063181 190.917932 
L 335.306018 190.343565 
L 335.548856 187.260116 
L 335.791694 187.713564 
L 336.034532 186.867128 
L 337.005883 195.029197 
M 338.462909 195.573335 
L 339.191422 198.687013 
L 339.43426 197.054599 
L 339.677098 194.15253 
L 339.919936 194.333909 
L 340.162773 196.147703 
L 340.405611 196.480231 
L 340.891287 200.561266 
L 341.134124 198.928852 
L 341.6198 206.214255 
L 341.862638 202.375059 
L 342.105476 203.402875 
L 342.348313 205.398048 
L 342.591151 206.395634 
L 343.076827 199.44276 
L 343.319664 203.251726 
L 343.562502 209.690692 
L 343.80534 211.413795 
L 344.048178 210.14414 
L 344.291015 212.622991 
L 344.533853 208.300117 
L 344.776691 207.876898 
L 345.019529 208.239657 
L 345.505204 216.099427 
L 345.748042 210.11391 
L 345.99088 212.68345 
L 346.233717 210.2046 
L 346.476555 213.771726 
L 346.719393 212.230002 
L 346.962231 205.216668 
L 347.205068 208.662875 
L 347.447906 216.008738 
L 347.690744 217.308623 
L 347.933582 210.627818 
L 348.17642 216.129657 
L 348.419257 213.832186 
L 348.662095 212.622991 
L 348.904933 220.120002 
L 349.147771 219.515405 
L 349.390608 212.350922 
L 349.633446 212.65322 
L 350.119122 214.346094 
L 350.361959 214.134485 
L 350.604797 213.046209 
L 350.847635 213.590347 
L 351.090473 215.31345 
L 351.33331 213.560117 
L 351.576148 218.971267 
L 351.818986 218.427129 
L 352.061824 202.979657 
L 352.304661 210.627818 
L 352.547499 209.297703 
L 352.790337 210.718508 
L 353.033175 210.295289 
L 353.276012 211.957933 
L 353.51885 204.67253 
L 353.761688 207.937358 
L 354.004526 209.055864 
L 354.247363 210.930117 
L 354.490201 210.627818 
L 354.733039 204.007473 
L 354.975877 202.677358 
L 355.461552 211.111496 
L 355.70439 212.532301 
L 355.947228 212.622991 
L 356.190066 219.454945 
L 356.432903 210.597588 
L 356.675741 209.569772 
L 356.918579 213.892646 
L 357.404254 198.475404 
L 357.647092 197.296438 
L 358.375605 188.015863 
L 358.618443 191.250461 
L 358.861281 190.645863 
M 359.832632 199.53345 
L 360.318307 201.891381 
L 360.561145 193.699082 
L 360.803983 196.78253 
L 361.046821 202.465749 
L 361.289659 202.979657 
L 361.775334 198.566094 
L 362.018172 201.770461 
L 362.26101 203.161036 
L 362.503847 203.009887 
L 362.746685 203.765634 
L 362.989523 202.677358 
L 363.232361 202.314599 
L 363.475198 201.619312 
L 363.718036 203.191266 
M 364.203712 205.700347 
L 364.689387 211.897473 
M 367.60344 216.522646 
L 367.846278 216.764485 
M 368.331954 230.730692 
L 368.574791 230.760922 
M 369.060467 226.679888 
L 369.303305 226.468278 
M 373.188709 253.433337 
L 373.431546 252.072992 
L 373.674384 253.372877 
L 373.917222 251.861383 
L 374.16006 251.952072 
L 374.402898 252.193911 
L 374.645735 254.733222 
L 375.131411 255.18667 
L 375.374249 256.184256 
L 375.859924 255.065751 
L 376.102762 251.226555 
L 376.3456 250.349888 
L 376.588437 248.989543 
L 376.831275 246.873451 
L 377.316951 249.170923 
L 377.802626 250.803337 
L 378.045464 251.166095 
L 378.288302 250.470808 
L 378.531139 250.349888 
L 379.016815 256.335406 
L 379.259653 262.290693 
M 383.630732 267.943682 
L 383.87357 266.855406 
L 384.116408 270.029544 
L 384.359246 268.245981 
L 384.602083 267.429774 
L 384.844921 269.334257 
L 385.087759 267.943682 
M 386.05911 280.791384 
L 386.301948 278.403223 
L 386.544785 280.700694 
L 386.787623 276.952188 
L 387.030461 277.314947 
L 387.273299 278.886901 
L 387.516137 277.496326 
L 387.758974 280.489085 
L 388.001812 278.131154 
L 388.24465 278.282303 
L 388.487488 279.12874 
L 388.730325 280.489085 
L 388.973163 279.733338 
L 389.216001 283.240004 
L 389.458839 283.028395 
L 389.701676 285.930464 
L 389.944514 282.181958 
L 390.187352 281.154142 
L 390.43019 281.84943 
L 390.673027 282.121499 
L 390.915865 280.912303 
L 391.158703 280.821613 
L 391.644378 282.726096 
L 391.887216 282.091269 
L 392.130054 280.700694 
L 392.372892 276.649889 
L 392.615729 276.226671 
M 394.072756 275.470924 
L 394.315594 274.957016 
L 394.801269 277.163797 
L 395.286945 271.873567 
M 395.77262 264.739314 
L 396.015458 262.230234 
L 396.258296 261.655866 
L 396.501134 258.663107 
L 396.743971 259.358394 
M 399.415187 255.912187 
L 399.658024 259.086325 
L 399.900862 258.874716 
L 400.1437 257.574831 
L 400.386538 258.330578 
L 400.629376 261.746555 
L 400.872213 260.38621 
L 401.115051 260.44667 
L 401.600727 254.430923 
L 401.843564 249.170923 
L 402.086402 246.692072 
L 402.572078 250.984716 
L 402.814915 250.773107 
L 403.057753 251.166095 
L 403.300591 249.442992 
L 403.543429 250.712647 
L 403.786266 252.64736 
M 404.51478 249.715061 
L 404.757617 250.621957 
L 405.000455 249.684831 
L 405.486131 250.894026 
L 405.728968 253.705406 
L 405.971806 254.672762 
L 406.457482 255.30759 
L 406.700319 253.705406 
L 406.943157 253.161268 
L 407.428833 255.640118 
M 408.157346 253.917015 
L 408.400184 249.322072 
L 408.885859 244.999198 
L 409.128697 246.661842 
L 409.371535 247.538509 
L 409.614373 248.838394 
L 409.85721 246.480463 
L 410.100048 247.538509 
L 410.342886 245.785176 
L 410.585724 247.538509 
L 410.828561 245.452647 
M 411.799912 242.973796 
L 412.04275 243.971382 
L 412.285588 243.941152 
L 412.528426 244.878279 
L 412.771263 244.6969 
L 413.014101 244.213221 
L 413.256939 242.611037 
L 413.499777 243.608624 
L 413.742615 241.371612 
L 413.985452 244.424831 
L 414.22829 239.043911 
L 414.471128 237.320807 
L 414.713966 237.744026 
L 414.956803 241.88552 
L 415.199641 237.653336 
L 415.928154 240.011267 
L 416.170992 238.016095 
L 416.41383 238.681152 
L 416.656668 240.646095 
L 416.899505 238.409083 
L 417.385181 241.794831 
L 417.628019 245.754946 
L 417.870856 245.815405 
L 418.356532 247.931497 
M 420.542072 246.843222 
L 420.78491 246.964141 
L 421.027747 244.122532 
L 421.270585 243.457474 
L 421.513423 244.031842 
L 421.756261 245.059658 
L 421.999098 245.180578 
L 422.241936 244.51552 
L 422.484774 248.505865 
L 422.727612 248.929084 
L 422.970449 247.780348 
L 423.213287 245.180578 
L 423.456125 248.022187 
L 423.698963 248.052417 
L 423.9418 245.724716 
L 424.184638 245.271267 
L 424.427476 243.366785 
L 424.913151 243.487704 
L 425.155989 240.797244 
L 425.398827 239.497359 
L 425.641665 239.557819 
M 426.12734 243.004026 
L 426.370178 242.490118 
L 426.613016 239.981037 
L 426.855854 242.641267 
L 427.098691 241.94598 
L 427.341529 241.704141 
L 427.584367 240.011267 
L 427.827205 243.034256 
L 428.070042 243.366785 
L 428.31288 242.731957 
L 428.555718 242.671497 
L 428.798556 242.03667 
L 429.041393 239.074141 
L 429.284231 239.708968 
L 429.527069 237.653336 
L 429.769907 237.018509 
L 430.012744 237.955635 
L 430.255582 241.008854 
L 430.49842 240.797244 
L 430.741258 248.264026 
M 434.383824 257.998049 
L 434.626662 254.400693 
L 434.8695 255.519199 
L 435.112337 254.733222 
L 435.598013 254.672762 
L 435.840851 254.823911 
L 436.083688 254.249544 
M 437.297877 253.644946 
L 437.540715 252.284601 
L 438.269228 251.438164 
L 438.512066 252.103222 
L 438.754904 252.193911 
L 438.997741 251.982302 
L 439.240579 254.854141 
L 439.483417 254.612302 
L 439.726255 251.710233 
L 439.969093 253.614716 
L 440.21193 252.103222 
L 440.454768 252.949659 
L 440.940444 256.184256 
L 441.183281 257.332992 
M 442.39747 259.811843 
L 442.640308 262.623222 
L 442.883146 256.758624 
L 443.125983 256.335406 
L 443.368821 256.667935 
L 443.611659 256.728394 
L 443.854497 257.78644 
L 444.097334 258.209659 
L 444.340172 258.028279 
L 444.58301 255.579659 
L 445.068685 254.672762 
M 446.282874 256.274946 
L 446.76855 259.328164 
L 447.011388 255.24713 
L 447.254225 255.549429 
L 447.739901 261.776785 
L 447.982739 262.562762 
L 448.225576 260.41644 
L 448.468414 259.388624 
L 448.711252 260.4769 
L 448.95409 260.990808 
L 449.196927 262.925521 
L 449.439765 260.204831 
L 449.682603 259.449084 
L 449.925441 260.960578 
L 450.168278 260.779199 
L 450.411116 258.995636 
L 451.139629 267.339084 
L 451.382467 267.036785 
L 451.625305 267.369314 
M 458.181924 282.454027 
L 458.424762 284.781729 
L 458.6676 285.597935 
L 458.910438 288.137246 
L 459.396113 284.056211 
L 459.638951 285.235177 
L 459.881789 284.932878 
L 460.124627 283.360924 
L 460.367464 283.481843 
L 460.610302 284.902648 
L 460.85314 285.053798 
L 461.095978 287.955867 
L 461.338815 287.683798 
L 461.581653 278.524142 
L 461.824491 282.181958 
L 462.067329 281.547131 
L 462.310166 277.859085 
L 462.553004 282.151728 
L 462.795842 279.824027 
L 463.03868 281.78897 
L 463.281517 272.357245 
L 463.524355 270.543452 
L 464.010031 275.652303 
L 464.252868 272.115406 
L 464.495706 273.143222 
L 464.738544 272.266556 
L 464.981382 274.715176 
L 465.467057 270.392303 
L 465.952733 274.050119 
L 466.195571 275.047705 
L 466.438408 273.294372 
L 466.924084 272.447935 
L 467.166922 271.722418 
L 467.409759 274.201268 
L 467.652597 274.110579 
L 467.895435 274.201268 
L 468.38111 276.921958 
L 468.623948 275.470924 
L 468.866786 274.957016 
L 469.109624 269.545866 
L 469.352461 271.329429 
L 469.595299 269.062188 
L 469.838137 269.092418 
L 470.080975 271.329429 
L 470.323812 269.999314 
L 470.56665 270.755061 
L 470.809488 272.266556 
L 471.052326 272.810694 
L 471.295163 270.482992 
L 471.538001 270.664372 
L 471.780839 269.727245 
L 472.023677 267.097245 
L 472.509352 270.755061 
L 472.995028 270.513222 
L 473.237866 271.14805 
L 473.723541 275.319774 
L 473.966379 272.901383 
L 474.209217 272.447935 
L 474.452054 272.780464 
L 474.694892 271.480579 
L 474.93773 271.813107 
L 475.180568 276.37782 
M 475.666243 276.196441 
L 475.909081 275.440694 
L 476.151919 276.31736 
L 476.394756 279.03805 
L 476.637594 278.796211 
L 476.880432 281.033223 
L 477.12327 280.640234 
L 477.366107 279.884487 
L 477.608945 280.096096 
M 478.337458 283.602763 
L 478.580296 281.516901 
L 478.823134 285.144487 
L 479.065972 285.174717 
L 479.30881 281.66805 
L 479.551647 279.793797 
L 479.794485 275.501154 
L 480.037323 274.775636 
L 480.280161 276.287131 
L 480.522998 283.270234 
L 480.765836 283.784142 
L 481.008674 282.121499 
L 481.251512 284.26782 
L 481.494349 282.695866 
L 481.737187 288.469775 
L 481.980025 288.620924 
L 482.222863 287.411729 
L 482.4657 288.288395 
L 482.708538 286.686211 
L 482.951376 288.590694 
L 483.194214 281.75874 
L 483.437051 287.381499 
L 483.679889 288.862763 
L 483.922727 283.844602 
L 484.165565 283.451614 
L 484.408402 280.912303 
L 484.65124 282.000579 
L 484.894078 283.693453 
L 485.136916 281.456441 
L 485.379753 280.277476 
L 485.622591 281.940119 
L 485.865429 282.121499 
L 486.108267 282.091269 
L 486.351105 282.181958 
L 486.593942 283.693453 
L 486.83678 286.293223 
L 487.322456 280.307705 
L 487.565293 282.892361 
L 487.808131 281.879659 
L 488.050969 284.4492 
L 488.293807 282.665637 
L 488.536644 282.998165 
L 488.779482 281.66805 
L 489.02232 283.663223 
L 489.265158 282.635407 
L 489.507995 287.623338 
L 489.750833 284.570119 
L 489.993671 285.870004 
L 490.236509 289.134832 
L 490.479346 287.16989 
L 490.722184 286.92805 
L 490.965022 287.895407 
L 491.20786 291.795062 
L 491.450697 292.671729 
M 492.907724 300.924488 
L 493.150562 299.700177 
L 493.3934 295.392419 
L 493.636237 297.871269 
L 494.121913 290.555637 
L 494.607588 289.951039 
L 494.850426 293.215867 
L 495.093264 293.457706 
L 495.336102 294.666901 
L 495.578939 294.152993 
L 495.821777 297.508511 
M 496.307453 296.238855 
L 496.55029 292.067131 
L 496.793128 294.666901 
L 497.035966 294.183223 
L 497.278804 294.032074 
L 497.521641 294.304143 
L 497.764479 297.206212 
M 498.250155 296.873683 
L 498.492992 293.608855 
L 498.73583 298.113108 
L 498.978668 298.173568 
L 499.221506 300.803568 
L 499.464344 302.194143 
L 499.707181 297.78058 
L 499.950019 299.050235 
L 500.192857 301.680235 
L 500.435695 299.836212 
L 500.678532 302.587131 
L 500.92137 302.798741 
L 501.164208 297.992189 
L 501.407046 298.596786 
L 501.649883 297.931729 
L 501.892721 298.475867 
L 502.135559 296.903913 
L 502.378397 297.871269 
L 502.621234 293.729775 
L 502.864072 295.966786 
L 503.10691 296.964373 
L 503.349748 296.843453 
L 503.592585 295.02966 
L 503.835423 295.694717 
L 504.078261 297.085292 
L 504.321099 295.906327 
L 504.563936 299.926901 
L 504.806774 299.805982 
L 505.049612 299.896672 
L 505.29245 302.8592 
L 505.778125 297.024832 
L 506.020963 296.178396 
L 506.263801 298.445637 
L 506.506639 303.614948 
L 506.749476 300.25943 
L 506.992314 295.211039 
L 507.235152 279.340349 
L 507.47799 277.980004 
M 507.963665 281.60759 
L 508.206503 283.965522 
L 508.692178 284.4492 
L 508.935016 283.663223 
L 509.177854 283.935292 
L 509.420692 285.930464 
L 509.663529 284.41897 
M 510.149205 285.567706 
L 510.392043 286.051384 
L 510.63488 285.658395 
M 511.606231 288.923223 
L 511.849069 287.0792 
L 512.091907 286.474602 
L 512.334745 285.295637 
L 512.577583 286.565292 
L 512.82042 286.655981 
L 513.063258 288.348855 
L 513.306096 286.262993 
L 513.548934 288.197706 
L 513.791771 287.865177 
L 514.034609 287.925637 
L 514.277447 292.611269 
L 514.520285 294.243683 
L 514.763122 294.697131 
L 515.00596 293.487936 
M 516.948662 294.9692 
L 517.1915 293.578625 
L 517.434338 294.273913 
L 517.677175 293.790235 
L 517.920013 294.742476 
L 518.162851 296.934143 
L 518.405689 297.72012 
L 518.648527 299.171154 
L 518.891364 299.654832 
L 519.134202 298.445637 
L 519.37704 298.490982 
L 519.619878 298.989775 
L 520.105553 298.838626 
L 520.348391 298.445637 
M 521.56258 299.836212 
L 521.805417 300.425695 
L 522.048255 301.914516 
L 522.291093 299.700177 
L 522.533931 292.868223 
L 522.776768 293.80535 
M 523.262444 291.659028 
L 523.748119 296.178396 
L 523.990957 293.336786 
L 524.233795 292.082246 
L 524.476633 292.172936 
L 524.71947 291.356729 
L 524.962308 293.956499 
L 525.205146 293.397246 
L 525.447984 294.394832 
L 525.933659 292.641499 
L 526.176497 296.903913 
L 526.419335 295.573798 
L 526.662173 292.445005 
L 526.90501 291.470091 
L 527.147848 288.590694 
L 527.390686 288.3942 
L 527.633524 289.308654 
L 527.876361 289.73943 
L 528.362037 294.606441 
L 528.604875 289.981269 
L 528.847712 290.132418 
L 529.333388 288.877878 
L 529.576226 289.988826 
L 530.061901 289.165062 
L 530.304739 290.948625 
L 530.547577 289.240637 
L 530.790414 289.285982 
L 531.033252 289.134832 
L 531.27609 287.10943 
L 531.518928 286.535062 
L 531.761766 288.968568 
L 532.004603 289.512706 
L 532.247441 287.895407 
L 532.490279 285.174717 
L 532.733117 285.567706 
L 532.975954 283.935292 
L 533.46163 286.474602 
L 533.947305 284.857303 
L 534.190143 286.081614 
L 534.432981 285.718855 
L 534.675819 287.577993 
L 534.918656 287.774487 
L 535.161494 286.973395 
L 535.404332 288.560464 
L 535.64717 287.729142 
L 535.890007 287.472188 
L 536.375683 286.157188 
L 536.618521 286.429257 
M 541.475276 304.839258 
L 541.718114 304.793913 
L 542.203789 302.420867 
L 542.689465 303.894574 
L 542.932302 307.04604 
L 543.17514 307.597735 
L 543.417978 305.942649 
L 543.660816 308.602879 
L 543.903653 306.350752 
L 544.146491 302.98012 
L 544.389329 301.51397 
L 544.632167 302.466212 
L 544.875005 299.836212 
L 545.603518 304.793913 
L 545.846356 304.688108 
L 546.089193 303.887017 
L 546.332031 304.393367 
L 546.574869 304.128856 
L 547.060544 306.214718 
L 547.303382 305.307821 
L 547.54622 305.54966 
M 548.760409 307.227419 
L 549.003246 309.449316 
L 549.246084 309.094114 
L 549.488922 311.384028 
L 549.974597 310.008568 
L 550.460273 308.738913 
L 550.703111 309.041212 
L 550.945948 309.902764 
L 551.188786 310.084143 
L 551.431624 308.088971 
L 551.674462 310.673626 
L 552.160137 311.777017 
L 552.402975 311.384028 
M 556.045541 324.352649 
L 556.288379 324.186385 
L 556.531217 325.335121 
L 557.016892 324.503799 
L 557.25973 324.685178 
L 557.502568 325.320006 
L 557.745406 326.362937 
L 557.988244 326.075753 
M 560.902297 330.020753 
L 561.387972 333.013512 
L 561.63081 332.12173 
L 561.873648 332.303109 
L 562.116485 331.471788 
L 562.359323 333.255351 
L 562.602161 331.917678 
L 562.844999 334.260495 
L 563.087836 333.618109 
L 563.330674 332.24265 
L 563.573512 331.985696 
L 563.81635 332.257765 
L 564.059187 332.257765 
L 564.302025 333.073971 
L 564.787701 332.27288 
L 565.030539 332.544948 
L 565.273376 332.227535 
L 565.759052 330.217247 
L 566.00189 330.171902 
L 566.244727 331.320638 
L 566.973241 332.650753 
L 567.216078 332.771673 
L 567.701754 334.78196 
L 567.944592 333.950638 
M 572.315671 349.821328 
L 572.558509 349.700409 
L 572.801347 350.441041 
L 573.044185 350.184087 
M 574.744049 347.705236 
L 574.986887 348.02265 
L 575.472562 345.694949 
M 575.958238 345.196156 
L 576.201075 345.664719 
L 576.443913 344.848512 
L 576.686751 345.135696 
L 577.415264 346.904144 
M 578.143778 345.45311 
L 578.386615 343.609087 
L 578.872291 343.835811 
L 579.115129 343.382363 
L 579.357966 344.727593 
L 579.600804 345.165926 
L 579.843642 344.908972 
L 580.08648 345.42288 
L 580.329317 344.485753 
L 580.572155 344.062535 
M 581.300668 342.520811 
L 581.543506 342.64173 
L 581.786344 343.246328 
L 582.272019 342.898684 
L 582.514857 343.941616 
L 582.757695 344.364834 
L 583.24337 342.294087 
L 583.486208 343.427707 
L 583.729046 343.457937 
L 583.971884 344.924087 
L 584.214722 341.749949 
L 584.457559 341.266271 
L 584.700397 342.944029 
L 584.943235 342.052248 
L 585.186073 341.840638 
L 585.42891 341.069776 
L 585.671748 341.840638 
L 585.914586 341.991788 
L 586.157424 343.911386 
L 586.400261 344.10788 
L 586.885937 343.004489 
L 587.128775 342.777765 
L 587.371612 343.457937 
L 587.61445 342.73242 
L 587.857288 343.170753 
L 588.100126 343.926501 
L 588.342963 342.928914 
L 588.585801 342.777765 
L 588.828639 341.961558 
L 589.314314 342.082478 
L 589.557152 341.47788 
L 589.79999 341.855753 
L 590.042828 341.659259 
L 590.285665 341.991788 
L 590.528503 340.767477 
M 592.471205 338.182822 
L 592.714043 337.38173 
L 592.956881 338.424661 
L 593.199719 338.72696 
L 593.442556 338.031673 
L 593.685394 335.583052 
L 594.17107 336.369029 
L 594.413907 336.535293 
L 594.899583 334.373857 
L 595.142421 336.520179 
L 595.385258 337.079431 
L 595.628096 336.958512 
L 595.870934 337.155006 
L 596.113772 336.988742 
L 596.599447 337.910753 
L 596.842285 337.608454 
L 597.085123 336.852707 
L 597.327961 337.094546 
L 597.570798 336.323684 
L 598.056474 338.001443 
M 599.756338 341.432535 
L 599.999176 341.190696 
L 600.242014 341.825524 
L 600.484851 341.266271 
L 600.727689 341.870868 
L 600.970527 341.523225 
L 601.213365 341.598799 
M 601.941878 346.70765 
L 602.184716 343.714891 
L 602.427553 343.639317 
L 602.670391 344.092765 
L 602.913229 343.926501 
L 603.156067 343.155638 
L 603.398904 343.835811 
L 603.88458 341.674374 
L 604.370256 338.454891 
L 604.613093 337.41196 
M 607.769984 334.887765 
L 608.012822 333.754144 
L 608.25566 334.525006 
L 608.498497 334.585466 
L 608.741335 334.479661 
L 608.984173 335.537707 
L 609.227011 335.462132 
L 609.469848 337.578225 
L 609.712686 336.610868 
L 609.955524 337.925868 
M 610.926875 337.714259 
L 611.169713 337.32127 
L 611.412551 337.155006 
L 611.898226 335.643512 
L 612.383902 330.791615 
L 612.626739 330.459086 
M 615.297955 327.300063 
L 615.78363 328.327879 
L 616.026468 330.096328 
L 616.269306 328.856902 
L 616.754981 329.43127 
L 616.997819 329.023167 
M 621.854574 335.295868 
L 622.097412 335.779546 
L 622.34025 334.494776 
L 622.583087 334.90288 
L 622.825925 336.323684 
L 623.311601 336.988742 
L 623.554439 337.925868 
L 623.797276 338.122362 
L 624.040114 338.031673 
L 624.282952 338.167707 
L 624.52579 337.018972 
L 624.768627 337.200351 
L 625.011465 338.78742 
M 626.954167 341.220926 
L 627.197005 341.931328 
M 628.654031 341.976673 
L 628.896869 340.767477 
L 629.382545 344.243914 
L 629.625382 344.515983 
L 629.86822 347.841271 
L 630.111058 348.476098 
M 630.596734 345.634489 
L 630.839571 343.805581 
L 631.082409 344.002075 
L 631.325247 345.075236 
L 631.568085 344.893857 
L 631.810922 345.271731 
L 632.296598 342.354547 
L 632.539436 342.173167 
L 632.782273 341.765064 
L 633.025111 344.349719 
L 633.267949 344.818282 
L 633.510787 344.954317 
L 633.996462 344.833397 
L 634.2393 345.649604 
L 634.724975 344.349719 
L 634.967813 345.407765 
L 635.210651 345.740294 
L 635.453489 346.511156 
M 635.939164 345.574029 
L 636.42484 344.727593 
L 636.667678 345.090351 
L 636.910515 345.921673 
L 637.153353 345.846098 
L 637.396191 346.420466 
L 637.639029 347.523857 
L 637.881866 347.433167 
M 640.310244 347.644777 
L 640.553082 348.808627 
L 641.038757 347.599432 
L 641.281595 350.335236 
L 641.524433 349.866673 
L 641.76727 348.445869 
L 642.010108 348.309834 
L 642.252946 350.138742 
L 642.495784 349.700409 
L 642.738621 348.642363 
L 642.981459 348.400524 
L 643.224297 349.144179 
L 643.709973 347.916846 
L 643.95281 346.254202 
L 644.195648 346.843685 
L 644.438486 347.99242 
L 644.681324 347.811041 
L 644.924161 346.344891 
L 645.166999 347.93196 
L 645.409837 347.221558 
L 645.652675 348.294719 
L 645.895512 346.284432 
L 646.13835 347.009949 
L 646.381188 348.188915 
L 646.624026 346.82857 
L 646.866863 347.009949 
L 647.352539 345.846098 
L 647.595377 347.811041 
L 647.838214 347.049248 
L 648.081052 348.627248 
L 648.32389 348.128455 
L 648.566728 346.496041 
L 648.809565 347.025064 
L 649.052403 347.93196 
L 649.295241 348.067995 
L 649.538079 350.199202 
L 649.780917 350.078282 
L 650.023754 351.136328 
L 650.266592 351.347938 
M 650.995105 349.927133 
L 651.237943 351.030524 
L 651.480781 348.612133 
L 651.723619 349.927133 
M 652.937807 355.549892 
L 653.180645 356.789317 
L 653.423483 356.562593 
L 653.666321 355.927765 
L 653.909158 354.733685 
L 654.637672 357.121846 
L 654.637672 357.121846 
" clip-path="url(#p4fb72034c5)" style="fill: none; stroke: #1e90ff"/>
   </g>
   <g id="patch_3">
    <path d="M 57.68175 378.43845 
L 57.68175 28.51845 
" style="fill: none; stroke: #f0f0f0; stroke-width: 3; stroke-linejoin: miter; stroke-linecap: square"/>
   </g>
   <g id="patch_4">
    <path d="M 684.08175 378.43845 
L 684.08175 28.51845 
" style="fill: none; stroke: #f0f0f0; stroke-width: 3; stroke-linejoin: miter; stroke-linecap: square"/>
   </g>
   <g id="patch_5">
    <path d="M 57.68175 378.43845 
L 684.08175 378.43845 
" style="fill: none; stroke: #f0f0f0; stroke-width: 3; stroke-linejoin: miter; stroke-linecap: square"/>
   </g>
   <g id="patch_6">
    <path d="M 57.68175 28.51845 
L 684.08175 28.51845 
" style="fill: none; stroke: #f0f0f0; stroke-width: 3; stroke-linejoin: miter; stroke-linecap: square"/>
   </g>
   <g id="text_13">
    <!-- ROST, Relative Strength Index (RSI), ROST -->
    <g transform="translate(157.22355 22.51845)scale(0.2016 -0.2016)">
     <defs>
      <path id="DejaVuSans-52" d="M 2841 2188 
Q 3044 2119 3236 1894 
Q 3428 1669 3622 1275 
L 4263 0 
L 3584 0 
L 2988 1197 
Q 2756 1666 2539 1819 
Q 2322 1972 1947 1972 
L 1259 1972 
L 1259 0 
L 628 0 
L 628 4666 
L 2053 4666 
Q 2853 4666 3247 4331 
Q 3641 3997 3641 3322 
Q 3641 2881 3436 2590 
Q 3231 2300 2841 2188 
z
M 1259 4147 
L 1259 2491 
L 2053 2491 
Q 2509 2491 2742 2702 
Q 2975 2913 2975 3322 
Q 2975 3731 2742 3939 
Q 2509 4147 2053 4147 
L 1259 4147 
z
" transform="scale(0.015625)"/>
      <path id="DejaVuSans-4f" d="M 2522 4238 
Q 1834 4238 1429 3725 
Q 1025 3213 1025 2328 
Q 1025 1447 1429 934 
Q 1834 422 2522 422 
Q 3209 422 3611 934 
Q 4013 1447 4013 2328 
Q 4013 3213 3611 3725 
Q 3209 4238 2522 4238 
z
M 2522 4750 
Q 3503 4750 4090 4092 
Q 4678 3434 4678 2328 
Q 4678 1225 4090 567 
Q 3503 -91 2522 -91 
Q 1538 -91 948 565 
Q 359 1222 359 2328 
Q 359 3434 948 4092 
Q 1538 4750 2522 4750 
z
" transform="scale(0.015625)"/>
      <path id="DejaVuSans-54" d="M -19 4666 
L 3928 4666 
L 3928 4134 
L 2272 4134 
L 2272 0 
L 1638 0 
L 1638 4134 
L -19 4134 
L -19 4666 
z
" transform="scale(0.015625)"/>
      <path id="DejaVuSans-2c" d="M 750 794 
L 1409 794 
L 1409 256 
L 897 -744 
L 494 -744 
L 750 256 
L 750 794 
z
" transform="scale(0.015625)"/>
      <path id="DejaVuSans-6c" d="M 603 4863 
L 1178 4863 
L 1178 0 
L 603 0 
L 603 4863 
z
" transform="scale(0.015625)"/>
      <path id="DejaVuSans-76" d="M 191 3500 
L 800 3500 
L 1894 563 
L 2988 3500 
L 3597 3500 
L 2284 0 
L 1503 0 
L 191 3500 
z
" transform="scale(0.015625)"/>
      <path id="DejaVuSans-6e" d="M 3513 2113 
L 3513 0 
L 2938 0 
L 2938 2094 
Q 2938 2591 2744 2837 
Q 2550 3084 2163 3084 
Q 1697 3084 1428 2787 
Q 1159 2491 1159 1978 
L 1159 0 
L 581 0 
L 581 3500 
L 1159 3500 
L 1159 2956 
Q 1366 3272 1645 3428 
Q 1925 3584 2291 3584 
Q 2894 3584 3203 3211 
Q 3513 2838 3513 2113 
z
" transform="scale(0.015625)"/>
      <path id="DejaVuSans-67" d="M 2906 1791 
Q 2906 2416 2648 2759 
Q 2391 3103 1925 3103 
Q 1463 3103 1205 2759 
Q 947 2416 947 1791 
Q 947 1169 1205 825 
Q 1463 481 1925 481 
Q 2391 481 2648 825 
Q 2906 1169 2906 1791 
z
M 3481 434 
Q 3481 -459 3084 -895 
Q 2688 -1331 1869 -1331 
Q 1566 -1331 1297 -1286 
Q 1028 -1241 775 -1147 
L 775 -588 
Q 1028 -725 1275 -790 
Q 1522 -856 1778 -856 
Q 2344 -856 2625 -561 
Q 2906 -266 2906 331 
L 2906 616 
Q 2728 306 2450 153 
Q 2172 0 1784 0 
Q 1141 0 747 490 
Q 353 981 353 1791 
Q 353 2603 747 3093 
Q 1141 3584 1784 3584 
Q 2172 3584 2450 3431 
Q 2728 3278 2906 2969 
L 2906 3500 
L 3481 3500 
L 3481 434 
z
" transform="scale(0.015625)"/>
      <path id="DejaVuSans-68" d="M 3513 2113 
L 3513 0 
L 2938 0 
L 2938 2094 
Q 2938 2591 2744 2837 
Q 2550 3084 2163 3084 
Q 1697 3084 1428 2787 
Q 1159 2491 1159 1978 
L 1159 0 
L 581 0 
L 581 4863 
L 1159 4863 
L 1159 2956 
Q 1366 3272 1645 3428 
Q 1925 3584 2291 3584 
Q 2894 3584 3203 3211 
Q 3513 2838 3513 2113 
z
" transform="scale(0.015625)"/>
      <path id="DejaVuSans-49" d="M 628 4666 
L 1259 4666 
L 1259 0 
L 628 0 
L 628 4666 
z
" transform="scale(0.015625)"/>
      <path id="DejaVuSans-64" d="M 2906 2969 
L 2906 4863 
L 3481 4863 
L 3481 0 
L 2906 0 
L 2906 525 
Q 2725 213 2448 61 
Q 2172 -91 1784 -91 
Q 1150 -91 751 415 
Q 353 922 353 1747 
Q 353 2572 751 3078 
Q 1150 3584 1784 3584 
Q 2172 3584 2448 3432 
Q 2725 3281 2906 2969 
z
M 947 1747 
Q 947 1113 1208 752 
Q 1469 391 1925 391 
Q 2381 391 2643 752 
Q 2906 1113 2906 1747 
Q 2906 2381 2643 2742 
Q 2381 3103 1925 3103 
Q 1469 3103 1208 2742 
Q 947 2381 947 1747 
z
" transform="scale(0.015625)"/>
      <path id="DejaVuSans-78" d="M 3513 3500 
L 2247 1797 
L 3578 0 
L 2900 0 
L 1881 1375 
L 863 0 
L 184 0 
L 1544 1831 
L 300 3500 
L 978 3500 
L 1906 2253 
L 2834 3500 
L 3513 3500 
z
" transform="scale(0.015625)"/>
     </defs>
     <use xlink:href="#DejaVuSans-52"/>
     <use xlink:href="#DejaVuSans-4f" x="69.482422"/>
     <use xlink:href="#DejaVuSans-53" x="148.193359"/>
     <use xlink:href="#DejaVuSans-54" x="211.669922"/>
     <use xlink:href="#DejaVuSans-2c" x="272.753906"/>
     <use xlink:href="#DejaVuSans-20" x="304.541016"/>
     <use xlink:href="#DejaVuSans-52" x="336.328125"/>
     <use xlink:href="#DejaVuSans-65" x="401.310547"/>
     <use xlink:href="#DejaVuSans-6c" x="462.833984"/>
     <use xlink:href="#DejaVuSans-61" x="490.617188"/>
     <use xlink:href="#DejaVuSans-74" x="551.896484"/>
     <use xlink:href="#DejaVuSans-69" x="591.105469"/>
     <use xlink:href="#DejaVuSans-76" x="618.888672"/>
     <use xlink:href="#DejaVuSans-65" x="678.068359"/>
     <use xlink:href="#DejaVuSans-20" x="739.591797"/>
     <use xlink:href="#DejaVuSans-53" x="771.378906"/>
     <use xlink:href="#DejaVuSans-74" x="834.855469"/>
     <use xlink:href="#DejaVuSans-72" x="874.064453"/>
     <use xlink:href="#DejaVuSans-65" x="912.927734"/>
     <use xlink:href="#DejaVuSans-6e" x="974.451172"/>
     <use xlink:href="#DejaVuSans-67" x="1037.830078"/>
     <use xlink:href="#DejaVuSans-74" x="1101.306641"/>
     <use xlink:href="#DejaVuSans-68" x="1140.515625"/>
     <use xlink:href="#DejaVuSans-20" x="1203.894531"/>
     <use xlink:href="#DejaVuSans-49" x="1235.681641"/>
     <use xlink:href="#DejaVuSans-6e" x="1265.173828"/>
     <use xlink:href="#DejaVuSans-64" x="1328.552734"/>
     <use xlink:href="#DejaVuSans-65" x="1392.029297"/>
     <use xlink:href="#DejaVuSans-78" x="1451.802734"/>
     <use xlink:href="#DejaVuSans-20" x="1510.982422"/>
     <use xlink:href="#DejaVuSans-28" x="1542.769531"/>
     <use xlink:href="#DejaVuSans-52" x="1581.783203"/>
     <use xlink:href="#DejaVuSans-53" x="1651.265625"/>
     <use xlink:href="#DejaVuSans-49" x="1714.742188"/>
     <use xlink:href="#DejaVuSans-29" x="1744.234375"/>
     <use xlink:href="#DejaVuSans-2c" x="1783.248047"/>
     <use xlink:href="#DejaVuSans-20" x="1815.035156"/>
     <use xlink:href="#DejaVuSans-52" x="1846.822266"/>
     <use xlink:href="#DejaVuSans-4f" x="1916.304688"/>
     <use xlink:href="#DejaVuSans-53" x="1995.015625"/>
     <use xlink:href="#DejaVuSans-54" x="2058.492188"/>
    </g>
   </g>
   <g id="legend_1">
    <g id="patch_7">
     <path d="M 464.408625 101.366575 
L 674.28175 101.366575 
Q 677.08175 101.366575 677.08175 98.566575 
L 677.08175 38.31845 
Q 677.08175 35.51845 674.28175 35.51845 
L 464.408625 35.51845 
Q 461.608625 35.51845 461.608625 38.31845 
L 461.608625 98.566575 
Q 461.608625 101.366575 464.408625 101.366575 
z
" style="fill: #f0f0f0; opacity: 0.8; stroke: #cccccc; stroke-width: 0.5; stroke-linejoin: miter"/>
    </g>
    <g id="line2d_24">
     <path d="M 467.208625 46.856262 
L 481.208625 46.856262 
L 495.208625 46.856262 
" style="fill: none; stroke: #00ff7f"/>
    </g>
    <g id="text_14">
     <!-- Oversold, RSI &lt;= 30 -->
     <g transform="translate(506.408625 51.756262)scale(0.14 -0.14)">
      <defs>
       <path id="DejaVuSans-73" d="M 2834 3397 
L 2834 2853 
Q 2591 2978 2328 3040 
Q 2066 3103 1784 3103 
Q 1356 3103 1142 2972 
Q 928 2841 928 2578 
Q 928 2378 1081 2264 
Q 1234 2150 1697 2047 
L 1894 2003 
Q 2506 1872 2764 1633 
Q 3022 1394 3022 966 
Q 3022 478 2636 193 
Q 2250 -91 1575 -91 
Q 1294 -91 989 -36 
Q 684 19 347 128 
L 347 722 
Q 666 556 975 473 
Q 1284 391 1588 391 
Q 1994 391 2212 530 
Q 2431 669 2431 922 
Q 2431 1156 2273 1281 
Q 2116 1406 1581 1522 
L 1381 1569 
Q 847 1681 609 1914 
Q 372 2147 372 2553 
Q 372 3047 722 3315 
Q 1072 3584 1716 3584 
Q 2034 3584 2315 3537 
Q 2597 3491 2834 3397 
z
" transform="scale(0.015625)"/>
       <path id="DejaVuSans-6f" d="M 1959 3097 
Q 1497 3097 1228 2736 
Q 959 2375 959 1747 
Q 959 1119 1226 758 
Q 1494 397 1959 397 
Q 2419 397 2687 759 
Q 2956 1122 2956 1747 
Q 2956 2369 2687 2733 
Q 2419 3097 1959 3097 
z
M 1959 3584 
Q 2709 3584 3137 3096 
Q 3566 2609 3566 1747 
Q 3566 888 3137 398 
Q 2709 -91 1959 -91 
Q 1206 -91 779 398 
Q 353 888 353 1747 
Q 353 2609 779 3096 
Q 1206 3584 1959 3584 
z
" transform="scale(0.015625)"/>
       <path id="DejaVuSans-3c" d="M 4684 3150 
L 1459 2003 
L 4684 863 
L 4684 294 
L 678 1747 
L 678 2266 
L 4684 3719 
L 4684 3150 
z
" transform="scale(0.015625)"/>
       <path id="DejaVuSans-3d" d="M 678 2906 
L 4684 2906 
L 4684 2381 
L 678 2381 
L 678 2906 
z
M 678 1631 
L 4684 1631 
L 4684 1100 
L 678 1100 
L 678 1631 
z
" transform="scale(0.015625)"/>
       <path id="DejaVuSans-33" d="M 2597 2516 
Q 3050 2419 3304 2112 
Q 3559 1806 3559 1356 
Q 3559 666 3084 287 
Q 2609 -91 1734 -91 
Q 1441 -91 1130 -33 
Q 819 25 488 141 
L 488 750 
Q 750 597 1062 519 
Q 1375 441 1716 441 
Q 2309 441 2620 675 
Q 2931 909 2931 1356 
Q 2931 1769 2642 2001 
Q 2353 2234 1838 2234 
L 1294 2234 
L 1294 2753 
L 1863 2753 
Q 2328 2753 2575 2939 
Q 2822 3125 2822 3475 
Q 2822 3834 2567 4026 
Q 2313 4219 1838 4219 
Q 1578 4219 1281 4162 
Q 984 4106 628 3988 
L 628 4550 
Q 988 4650 1302 4700 
Q 1616 4750 1894 4750 
Q 2613 4750 3031 4423 
Q 3450 4097 3450 3541 
Q 3450 3153 3228 2886 
Q 3006 2619 2597 2516 
z
" transform="scale(0.015625)"/>
      </defs>
      <use xlink:href="#DejaVuSans-4f"/>
      <use xlink:href="#DejaVuSans-76" x="78.710938"/>
      <use xlink:href="#DejaVuSans-65" x="137.890625"/>
      <use xlink:href="#DejaVuSans-72" x="199.414062"/>
      <use xlink:href="#DejaVuSans-73" x="240.527344"/>
      <use xlink:href="#DejaVuSans-6f" x="292.626953"/>
      <use xlink:href="#DejaVuSans-6c" x="353.808594"/>
      <use xlink:href="#DejaVuSans-64" x="381.591797"/>
      <use xlink:href="#DejaVuSans-2c" x="445.068359"/>
      <use xlink:href="#DejaVuSans-20" x="476.855469"/>
      <use xlink:href="#DejaVuSans-52" x="508.642578"/>
      <use xlink:href="#DejaVuSans-53" x="578.125"/>
      <use xlink:href="#DejaVuSans-49" x="641.601562"/>
      <use xlink:href="#DejaVuSans-20" x="671.09375"/>
      <use xlink:href="#DejaVuSans-3c" x="702.880859"/>
      <use xlink:href="#DejaVuSans-3d" x="786.669922"/>
      <use xlink:href="#DejaVuSans-20" x="870.458984"/>
      <use xlink:href="#DejaVuSans-33" x="902.246094"/>
      <use xlink:href="#DejaVuSans-30" x="965.869141"/>
     </g>
    </g>
    <g id="line2d_25">
     <path d="M 467.208625 67.405637 
L 481.208625 67.405637 
L 495.208625 67.405637 
" style="fill: none; stroke: #ff4500"/>
    </g>
    <g id="text_15">
     <!-- Overbought, RSI &gt;= 70 -->
     <g transform="translate(506.408625 72.305637)scale(0.14 -0.14)">
      <defs>
       <path id="DejaVuSans-62" d="M 3116 1747 
Q 3116 2381 2855 2742 
Q 2594 3103 2138 3103 
Q 1681 3103 1420 2742 
Q 1159 2381 1159 1747 
Q 1159 1113 1420 752 
Q 1681 391 2138 391 
Q 2594 391 2855 752 
Q 3116 1113 3116 1747 
z
M 1159 2969 
Q 1341 3281 1617 3432 
Q 1894 3584 2278 3584 
Q 2916 3584 3314 3078 
Q 3713 2572 3713 1747 
Q 3713 922 3314 415 
Q 2916 -91 2278 -91 
Q 1894 -91 1617 61 
Q 1341 213 1159 525 
L 1159 0 
L 581 0 
L 581 4863 
L 1159 4863 
L 1159 2969 
z
" transform="scale(0.015625)"/>
       <path id="DejaVuSans-75" d="M 544 1381 
L 544 3500 
L 1119 3500 
L 1119 1403 
Q 1119 906 1312 657 
Q 1506 409 1894 409 
Q 2359 409 2629 706 
Q 2900 1003 2900 1516 
L 2900 3500 
L 3475 3500 
L 3475 0 
L 2900 0 
L 2900 538 
Q 2691 219 2414 64 
Q 2138 -91 1772 -91 
Q 1169 -91 856 284 
Q 544 659 544 1381 
z
M 1991 3584 
L 1991 3584 
z
" transform="scale(0.015625)"/>
       <path id="DejaVuSans-3e" d="M 678 3150 
L 678 3719 
L 4684 2266 
L 4684 1747 
L 678 294 
L 678 863 
L 3897 2003 
L 678 3150 
z
" transform="scale(0.015625)"/>
       <path id="DejaVuSans-37" d="M 525 4666 
L 3525 4666 
L 3525 4397 
L 1831 0 
L 1172 0 
L 2766 4134 
L 525 4134 
L 525 4666 
z
" transform="scale(0.015625)"/>
      </defs>
      <use xlink:href="#DejaVuSans-4f"/>
      <use xlink:href="#DejaVuSans-76" x="78.710938"/>
      <use xlink:href="#DejaVuSans-65" x="137.890625"/>
      <use xlink:href="#DejaVuSans-72" x="199.414062"/>
      <use xlink:href="#DejaVuSans-62" x="240.527344"/>
      <use xlink:href="#DejaVuSans-6f" x="304.003906"/>
      <use xlink:href="#DejaVuSans-75" x="365.185547"/>
      <use xlink:href="#DejaVuSans-67" x="428.564453"/>
      <use xlink:href="#DejaVuSans-68" x="492.041016"/>
      <use xlink:href="#DejaVuSans-74" x="555.419922"/>
      <use xlink:href="#DejaVuSans-2c" x="594.628906"/>
      <use xlink:href="#DejaVuSans-20" x="626.416016"/>
      <use xlink:href="#DejaVuSans-52" x="658.203125"/>
      <use xlink:href="#DejaVuSans-53" x="727.685547"/>
      <use xlink:href="#DejaVuSans-49" x="791.162109"/>
      <use xlink:href="#DejaVuSans-20" x="820.654297"/>
      <use xlink:href="#DejaVuSans-3e" x="852.441406"/>
      <use xlink:href="#DejaVuSans-3d" x="936.230469"/>
      <use xlink:href="#DejaVuSans-20" x="1020.019531"/>
      <use xlink:href="#DejaVuSans-37" x="1051.806641"/>
      <use xlink:href="#DejaVuSans-30" x="1115.429688"/>
     </g>
    </g>
    <g id="line2d_26">
     <path d="M 467.208625 87.955012 
L 481.208625 87.955012 
L 495.208625 87.955012 
" style="fill: none; stroke: #1e90ff"/>
    </g>
    <g id="text_16">
     <!-- Neutral -->
     <g transform="translate(506.408625 92.855012)scale(0.14 -0.14)">
      <defs>
       <path id="DejaVuSans-4e" d="M 628 4666 
L 1478 4666 
L 3547 763 
L 3547 4666 
L 4159 4666 
L 4159 0 
L 3309 0 
L 1241 3903 
L 1241 0 
L 628 0 
L 628 4666 
z
" transform="scale(0.015625)"/>
      </defs>
      <use xlink:href="#DejaVuSans-4e"/>
      <use xlink:href="#DejaVuSans-65" x="74.804688"/>
      <use xlink:href="#DejaVuSans-75" x="136.328125"/>
      <use xlink:href="#DejaVuSans-74" x="199.707031"/>
      <use xlink:href="#DejaVuSans-72" x="238.916016"/>
      <use xlink:href="#DejaVuSans-61" x="280.029297"/>
      <use xlink:href="#DejaVuSans-6c" x="341.308594"/>
     </g>
    </g>
   </g>
  </g>
 </g>
 <defs>
  <clipPath id="p4fb72034c5">
   <rect x="57.68175" y="28.51845" width="626.4" height="349.92"/>
  </clipPath>
 </defs>
</svg>
