<?xml version="1.0" encoding="utf-8" standalone="no"?>
<!DOCTYPE svg PUBLIC "-//W3C//DTD SVG 1.1//EN"
  "http://www.w3.org/Graphics/SVG/1.1/DTD/svg11.dtd">
<svg xmlns:xlink="http://www.w3.org/1999/xlink" width="612.165625pt" height="392.514375pt" viewBox="0 0 612.165625 392.514375" xmlns="http://www.w3.org/2000/svg" version="1.1">
 <metadata>
  <rdf:RDF xmlns:dc="http://purl.org/dc/elements/1.1/" xmlns:cc="http://creativecommons.org/ns#" xmlns:rdf="http://www.w3.org/1999/02/22-rdf-syntax-ns#">
   <cc:Work>
    <dc:type rdf:resource="http://purl.org/dc/dcmitype/StillImage"/>
    <dc:date>2023-04-24T17:59:47.685485</dc:date>
    <dc:format>image/svg+xml</dc:format>
    <dc:creator>
     <cc:Agent>
      <dc:title>Matplotlib v3.5.1, https://matplotlib.org/</dc:title>
     </cc:Agent>
    </dc:creator>
   </cc:Work>
  </rdf:RDF>
 </metadata>
 <defs>
  <style type="text/css">*{stroke-linejoin: round; stroke-linecap: butt}</style>
 </defs>
 <g id="figure_1">
  <g id="patch_1">
   <path d="M 0 392.514375 
L 612.165625 392.514375 
L 612.165625 0 
L 0 0 
z
" style="fill: #ffffff"/>
  </g>
  <g id="axes_1">
   <g id="patch_2">
    <path d="M 46.965625 354.958125 
L 604.965625 354.958125 
L 604.965625 22.318125 
L 46.965625 22.318125 
z
" style="fill: #ffffff"/>
   </g>
   <g id="matplotlib.axis_1">
    <g id="xtick_1">
     <g id="line2d_1">
      <defs>
       <path id="m19ea6e4884" d="M 0 0 
L 0 3.5 
" style="stroke: #000000; stroke-width: 0.8"/>
      </defs>
      <g>
       <use xlink:href="#m19ea6e4884" x="72.329261" y="354.958125" style="stroke: #000000; stroke-width: 0.8"/>
      </g>
     </g>
     <g id="text_1">
      <!-- 0 -->
      <g transform="translate(69.148011 369.556562)scale(0.1 -0.1)">
       <defs>
        <path id="DejaVuSans-30" d="M 2034 4250 
Q 1547 4250 1301 3770 
Q 1056 3291 1056 2328 
Q 1056 1369 1301 889 
Q 1547 409 2034 409 
Q 2525 409 2770 889 
Q 3016 1369 3016 2328 
Q 3016 3291 2770 3770 
Q 2525 4250 2034 4250 
z
M 2034 4750 
Q 2819 4750 3233 4129 
Q 3647 3509 3647 2328 
Q 3647 1150 3233 529 
Q 2819 -91 2034 -91 
Q 1250 -91 836 529 
Q 422 1150 422 2328 
Q 422 3509 836 4129 
Q 1250 4750 2034 4750 
z
" transform="scale(0.015625)"/>
       </defs>
       <use xlink:href="#DejaVuSans-30"/>
      </g>
     </g>
    </g>
    <g id="xtick_2">
     <g id="line2d_2">
      <g>
       <use xlink:href="#m19ea6e4884" x="188.092093" y="354.958125" style="stroke: #000000; stroke-width: 0.8"/>
      </g>
     </g>
     <g id="text_2">
      <!-- 500 -->
      <g transform="translate(178.548343 369.556562)scale(0.1 -0.1)">
       <defs>
        <path id="DejaVuSans-35" d="M 691 4666 
L 3169 4666 
L 3169 4134 
L 1269 4134 
L 1269 2991 
Q 1406 3038 1543 3061 
Q 1681 3084 1819 3084 
Q 2600 3084 3056 2656 
Q 3513 2228 3513 1497 
Q 3513 744 3044 326 
Q 2575 -91 1722 -91 
Q 1428 -91 1123 -41 
Q 819 9 494 109 
L 494 744 
Q 775 591 1075 516 
Q 1375 441 1709 441 
Q 2250 441 2565 725 
Q 2881 1009 2881 1497 
Q 2881 1984 2565 2268 
Q 2250 2553 1709 2553 
Q 1456 2553 1204 2497 
Q 953 2441 691 2322 
L 691 4666 
z
" transform="scale(0.015625)"/>
       </defs>
       <use xlink:href="#DejaVuSans-35"/>
       <use xlink:href="#DejaVuSans-30" x="63.623047"/>
       <use xlink:href="#DejaVuSans-30" x="127.246094"/>
      </g>
     </g>
    </g>
    <g id="xtick_3">
     <g id="line2d_3">
      <g>
       <use xlink:href="#m19ea6e4884" x="303.854924" y="354.958125" style="stroke: #000000; stroke-width: 0.8"/>
      </g>
     </g>
     <g id="text_3">
      <!-- 1000 -->
      <g transform="translate(291.129924 369.556562)scale(0.1 -0.1)">
       <defs>
        <path id="DejaVuSans-31" d="M 794 531 
L 1825 531 
L 1825 4091 
L 703 3866 
L 703 4441 
L 1819 4666 
L 2450 4666 
L 2450 531 
L 3481 531 
L 3481 0 
L 794 0 
L 794 531 
z
" transform="scale(0.015625)"/>
       </defs>
       <use xlink:href="#DejaVuSans-31"/>
       <use xlink:href="#DejaVuSans-30" x="63.623047"/>
       <use xlink:href="#DejaVuSans-30" x="127.246094"/>
       <use xlink:href="#DejaVuSans-30" x="190.869141"/>
      </g>
     </g>
    </g>
    <g id="xtick_4">
     <g id="line2d_4">
      <g>
       <use xlink:href="#m19ea6e4884" x="419.617756" y="354.958125" style="stroke: #000000; stroke-width: 0.8"/>
      </g>
     </g>
     <g id="text_4">
      <!-- 1500 -->
      <g transform="translate(406.892756 369.556562)scale(0.1 -0.1)">
       <use xlink:href="#DejaVuSans-31"/>
       <use xlink:href="#DejaVuSans-35" x="63.623047"/>
       <use xlink:href="#DejaVuSans-30" x="127.246094"/>
       <use xlink:href="#DejaVuSans-30" x="190.869141"/>
      </g>
     </g>
    </g>
    <g id="xtick_5">
     <g id="line2d_5">
      <g>
       <use xlink:href="#m19ea6e4884" x="535.380587" y="354.958125" style="stroke: #000000; stroke-width: 0.8"/>
      </g>
     </g>
     <g id="text_5">
      <!-- 2000 -->
      <g transform="translate(522.655587 369.556562)scale(0.1 -0.1)">
       <defs>
        <path id="DejaVuSans-32" d="M 1228 531 
L 3431 531 
L 3431 0 
L 469 0 
L 469 531 
Q 828 903 1448 1529 
Q 2069 2156 2228 2338 
Q 2531 2678 2651 2914 
Q 2772 3150 2772 3378 
Q 2772 3750 2511 3984 
Q 2250 4219 1831 4219 
Q 1534 4219 1204 4116 
Q 875 4013 500 3803 
L 500 4441 
Q 881 4594 1212 4672 
Q 1544 4750 1819 4750 
Q 2544 4750 2975 4387 
Q 3406 4025 3406 3419 
Q 3406 3131 3298 2873 
Q 3191 2616 2906 2266 
Q 2828 2175 2409 1742 
Q 1991 1309 1228 531 
z
" transform="scale(0.015625)"/>
       </defs>
       <use xlink:href="#DejaVuSans-32"/>
       <use xlink:href="#DejaVuSans-30" x="63.623047"/>
       <use xlink:href="#DejaVuSans-30" x="127.246094"/>
       <use xlink:href="#DejaVuSans-30" x="190.869141"/>
      </g>
     </g>
    </g>
    <g id="text_6">
     <!-- Date -->
     <g transform="translate(314.014844 383.234687)scale(0.1 -0.1)">
      <defs>
       <path id="DejaVuSans-44" d="M 1259 4147 
L 1259 519 
L 2022 519 
Q 2988 519 3436 956 
Q 3884 1394 3884 2338 
Q 3884 3275 3436 3711 
Q 2988 4147 2022 4147 
L 1259 4147 
z
M 628 4666 
L 1925 4666 
Q 3281 4666 3915 4102 
Q 4550 3538 4550 2338 
Q 4550 1131 3912 565 
Q 3275 0 1925 0 
L 628 0 
L 628 4666 
z
" transform="scale(0.015625)"/>
       <path id="DejaVuSans-61" d="M 2194 1759 
Q 1497 1759 1228 1600 
Q 959 1441 959 1056 
Q 959 750 1161 570 
Q 1363 391 1709 391 
Q 2188 391 2477 730 
Q 2766 1069 2766 1631 
L 2766 1759 
L 2194 1759 
z
M 3341 1997 
L 3341 0 
L 2766 0 
L 2766 531 
Q 2569 213 2275 61 
Q 1981 -91 1556 -91 
Q 1019 -91 701 211 
Q 384 513 384 1019 
Q 384 1609 779 1909 
Q 1175 2209 1959 2209 
L 2766 2209 
L 2766 2266 
Q 2766 2663 2505 2880 
Q 2244 3097 1772 3097 
Q 1472 3097 1187 3025 
Q 903 2953 641 2809 
L 641 3341 
Q 956 3463 1253 3523 
Q 1550 3584 1831 3584 
Q 2591 3584 2966 3190 
Q 3341 2797 3341 1997 
z
" transform="scale(0.015625)"/>
       <path id="DejaVuSans-74" d="M 1172 4494 
L 1172 3500 
L 2356 3500 
L 2356 3053 
L 1172 3053 
L 1172 1153 
Q 1172 725 1289 603 
Q 1406 481 1766 481 
L 2356 481 
L 2356 0 
L 1766 0 
Q 1100 0 847 248 
Q 594 497 594 1153 
L 594 3053 
L 172 3053 
L 172 3500 
L 594 3500 
L 594 4494 
L 1172 4494 
z
" transform="scale(0.015625)"/>
       <path id="DejaVuSans-65" d="M 3597 1894 
L 3597 1613 
L 953 1613 
Q 991 1019 1311 708 
Q 1631 397 2203 397 
Q 2534 397 2845 478 
Q 3156 559 3463 722 
L 3463 178 
Q 3153 47 2828 -22 
Q 2503 -91 2169 -91 
Q 1331 -91 842 396 
Q 353 884 353 1716 
Q 353 2575 817 3079 
Q 1281 3584 2069 3584 
Q 2775 3584 3186 3129 
Q 3597 2675 3597 1894 
z
M 3022 2063 
Q 3016 2534 2758 2815 
Q 2500 3097 2075 3097 
Q 1594 3097 1305 2825 
Q 1016 2553 972 2059 
L 3022 2063 
z
" transform="scale(0.015625)"/>
      </defs>
      <use xlink:href="#DejaVuSans-44"/>
      <use xlink:href="#DejaVuSans-61" x="77.001953"/>
      <use xlink:href="#DejaVuSans-74" x="138.28125"/>
      <use xlink:href="#DejaVuSans-65" x="177.490234"/>
     </g>
    </g>
   </g>
   <g id="matplotlib.axis_2">
    <g id="ytick_1">
     <g id="line2d_6">
      <path d="M 46.965625 307.919257 
L 604.965625 307.919257 
" clip-path="url(#pe2407fdb99)" style="fill: none; stroke: #dcdcdc; stroke-width: 0.5; stroke-linecap: square"/>
     </g>
     <g id="line2d_7">
      <defs>
       <path id="mb34bfeeefe" d="M 0 0 
L -3.5 0 
" style="stroke: #000000; stroke-width: 0.8"/>
      </defs>
      <g>
       <use xlink:href="#mb34bfeeefe" x="46.965625" y="307.919257" style="stroke: #000000; stroke-width: 0.8"/>
      </g>
     </g>
     <g id="text_7">
      <!-- 40 -->
      <g transform="translate(27.240625 311.718475)scale(0.1 -0.1)">
       <defs>
        <path id="DejaVuSans-34" d="M 2419 4116 
L 825 1625 
L 2419 1625 
L 2419 4116 
z
M 2253 4666 
L 3047 4666 
L 3047 1625 
L 3713 1625 
L 3713 1100 
L 3047 1100 
L 3047 0 
L 2419 0 
L 2419 1100 
L 313 1100 
L 313 1709 
L 2253 4666 
z
" transform="scale(0.015625)"/>
       </defs>
       <use xlink:href="#DejaVuSans-34"/>
       <use xlink:href="#DejaVuSans-30" x="63.623047"/>
      </g>
     </g>
    </g>
    <g id="ytick_2">
     <g id="line2d_8">
      <path d="M 46.965625 249.726242 
L 604.965625 249.726242 
" clip-path="url(#pe2407fdb99)" style="fill: none; stroke: #dcdcdc; stroke-width: 0.5; stroke-linecap: square"/>
     </g>
     <g id="line2d_9">
      <g>
       <use xlink:href="#mb34bfeeefe" x="46.965625" y="249.726242" style="stroke: #000000; stroke-width: 0.8"/>
      </g>
     </g>
     <g id="text_8">
      <!-- 60 -->
      <g transform="translate(27.240625 253.525461)scale(0.1 -0.1)">
       <defs>
        <path id="DejaVuSans-36" d="M 2113 2584 
Q 1688 2584 1439 2293 
Q 1191 2003 1191 1497 
Q 1191 994 1439 701 
Q 1688 409 2113 409 
Q 2538 409 2786 701 
Q 3034 994 3034 1497 
Q 3034 2003 2786 2293 
Q 2538 2584 2113 2584 
z
M 3366 4563 
L 3366 3988 
Q 3128 4100 2886 4159 
Q 2644 4219 2406 4219 
Q 1781 4219 1451 3797 
Q 1122 3375 1075 2522 
Q 1259 2794 1537 2939 
Q 1816 3084 2150 3084 
Q 2853 3084 3261 2657 
Q 3669 2231 3669 1497 
Q 3669 778 3244 343 
Q 2819 -91 2113 -91 
Q 1303 -91 875 529 
Q 447 1150 447 2328 
Q 447 3434 972 4092 
Q 1497 4750 2381 4750 
Q 2619 4750 2861 4703 
Q 3103 4656 3366 4563 
z
" transform="scale(0.015625)"/>
       </defs>
       <use xlink:href="#DejaVuSans-36"/>
       <use xlink:href="#DejaVuSans-30" x="63.623047"/>
      </g>
     </g>
    </g>
    <g id="ytick_3">
     <g id="line2d_10">
      <path d="M 46.965625 191.533227 
L 604.965625 191.533227 
" clip-path="url(#pe2407fdb99)" style="fill: none; stroke: #dcdcdc; stroke-width: 0.5; stroke-linecap: square"/>
     </g>
     <g id="line2d_11">
      <g>
       <use xlink:href="#mb34bfeeefe" x="46.965625" y="191.533227" style="stroke: #000000; stroke-width: 0.8"/>
      </g>
     </g>
     <g id="text_9">
      <!-- 80 -->
      <g transform="translate(27.240625 195.332446)scale(0.1 -0.1)">
       <defs>
        <path id="DejaVuSans-38" d="M 2034 2216 
Q 1584 2216 1326 1975 
Q 1069 1734 1069 1313 
Q 1069 891 1326 650 
Q 1584 409 2034 409 
Q 2484 409 2743 651 
Q 3003 894 3003 1313 
Q 3003 1734 2745 1975 
Q 2488 2216 2034 2216 
z
M 1403 2484 
Q 997 2584 770 2862 
Q 544 3141 544 3541 
Q 544 4100 942 4425 
Q 1341 4750 2034 4750 
Q 2731 4750 3128 4425 
Q 3525 4100 3525 3541 
Q 3525 3141 3298 2862 
Q 3072 2584 2669 2484 
Q 3125 2378 3379 2068 
Q 3634 1759 3634 1313 
Q 3634 634 3220 271 
Q 2806 -91 2034 -91 
Q 1263 -91 848 271 
Q 434 634 434 1313 
Q 434 1759 690 2068 
Q 947 2378 1403 2484 
z
M 1172 3481 
Q 1172 3119 1398 2916 
Q 1625 2713 2034 2713 
Q 2441 2713 2670 2916 
Q 2900 3119 2900 3481 
Q 2900 3844 2670 4047 
Q 2441 4250 2034 4250 
Q 1625 4250 1398 4047 
Q 1172 3844 1172 3481 
z
" transform="scale(0.015625)"/>
       </defs>
       <use xlink:href="#DejaVuSans-38"/>
       <use xlink:href="#DejaVuSans-30" x="63.623047"/>
      </g>
     </g>
    </g>
    <g id="ytick_4">
     <g id="line2d_12">
      <path d="M 46.965625 133.340213 
L 604.965625 133.340213 
" clip-path="url(#pe2407fdb99)" style="fill: none; stroke: #dcdcdc; stroke-width: 0.5; stroke-linecap: square"/>
     </g>
     <g id="line2d_13">
      <g>
       <use xlink:href="#mb34bfeeefe" x="46.965625" y="133.340213" style="stroke: #000000; stroke-width: 0.8"/>
      </g>
     </g>
     <g id="text_10">
      <!-- 100 -->
      <g transform="translate(20.878125 137.139432)scale(0.1 -0.1)">
       <use xlink:href="#DejaVuSans-31"/>
       <use xlink:href="#DejaVuSans-30" x="63.623047"/>
       <use xlink:href="#DejaVuSans-30" x="127.246094"/>
      </g>
     </g>
    </g>
    <g id="ytick_5">
     <g id="line2d_14">
      <path d="M 46.965625 75.147198 
L 604.965625 75.147198 
" clip-path="url(#pe2407fdb99)" style="fill: none; stroke: #dcdcdc; stroke-width: 0.5; stroke-linecap: square"/>
     </g>
     <g id="line2d_15">
      <g>
       <use xlink:href="#mb34bfeeefe" x="46.965625" y="75.147198" style="stroke: #000000; stroke-width: 0.8"/>
      </g>
     </g>
     <g id="text_11">
      <!-- 120 -->
      <g transform="translate(20.878125 78.946417)scale(0.1 -0.1)">
       <use xlink:href="#DejaVuSans-31"/>
       <use xlink:href="#DejaVuSans-32" x="63.623047"/>
       <use xlink:href="#DejaVuSans-30" x="127.246094"/>
      </g>
     </g>
    </g>
    <g id="text_12">
     <!-- Price (USD) -->
     <g transform="translate(14.798437 217.01)rotate(-90)scale(0.1 -0.1)">
      <defs>
       <path id="DejaVuSans-50" d="M 1259 4147 
L 1259 2394 
L 2053 2394 
Q 2494 2394 2734 2622 
Q 2975 2850 2975 3272 
Q 2975 3691 2734 3919 
Q 2494 4147 2053 4147 
L 1259 4147 
z
M 628 4666 
L 2053 4666 
Q 2838 4666 3239 4311 
Q 3641 3956 3641 3272 
Q 3641 2581 3239 2228 
Q 2838 1875 2053 1875 
L 1259 1875 
L 1259 0 
L 628 0 
L 628 4666 
z
" transform="scale(0.015625)"/>
       <path id="DejaVuSans-72" d="M 2631 2963 
Q 2534 3019 2420 3045 
Q 2306 3072 2169 3072 
Q 1681 3072 1420 2755 
Q 1159 2438 1159 1844 
L 1159 0 
L 581 0 
L 581 3500 
L 1159 3500 
L 1159 2956 
Q 1341 3275 1631 3429 
Q 1922 3584 2338 3584 
Q 2397 3584 2469 3576 
Q 2541 3569 2628 3553 
L 2631 2963 
z
" transform="scale(0.015625)"/>
       <path id="DejaVuSans-69" d="M 603 3500 
L 1178 3500 
L 1178 0 
L 603 0 
L 603 3500 
z
M 603 4863 
L 1178 4863 
L 1178 4134 
L 603 4134 
L 603 4863 
z
" transform="scale(0.015625)"/>
       <path id="DejaVuSans-63" d="M 3122 3366 
L 3122 2828 
Q 2878 2963 2633 3030 
Q 2388 3097 2138 3097 
Q 1578 3097 1268 2742 
Q 959 2388 959 1747 
Q 959 1106 1268 751 
Q 1578 397 2138 397 
Q 2388 397 2633 464 
Q 2878 531 3122 666 
L 3122 134 
Q 2881 22 2623 -34 
Q 2366 -91 2075 -91 
Q 1284 -91 818 406 
Q 353 903 353 1747 
Q 353 2603 823 3093 
Q 1294 3584 2113 3584 
Q 2378 3584 2631 3529 
Q 2884 3475 3122 3366 
z
" transform="scale(0.015625)"/>
       <path id="DejaVuSans-20" transform="scale(0.015625)"/>
       <path id="DejaVuSans-28" d="M 1984 4856 
Q 1566 4138 1362 3434 
Q 1159 2731 1159 2009 
Q 1159 1288 1364 580 
Q 1569 -128 1984 -844 
L 1484 -844 
Q 1016 -109 783 600 
Q 550 1309 550 2009 
Q 550 2706 781 3412 
Q 1013 4119 1484 4856 
L 1984 4856 
z
" transform="scale(0.015625)"/>
       <path id="DejaVuSans-55" d="M 556 4666 
L 1191 4666 
L 1191 1831 
Q 1191 1081 1462 751 
Q 1734 422 2344 422 
Q 2950 422 3222 751 
Q 3494 1081 3494 1831 
L 3494 4666 
L 4128 4666 
L 4128 1753 
Q 4128 841 3676 375 
Q 3225 -91 2344 -91 
Q 1459 -91 1007 375 
Q 556 841 556 1753 
L 556 4666 
z
" transform="scale(0.015625)"/>
       <path id="DejaVuSans-53" d="M 3425 4513 
L 3425 3897 
Q 3066 4069 2747 4153 
Q 2428 4238 2131 4238 
Q 1616 4238 1336 4038 
Q 1056 3838 1056 3469 
Q 1056 3159 1242 3001 
Q 1428 2844 1947 2747 
L 2328 2669 
Q 3034 2534 3370 2195 
Q 3706 1856 3706 1288 
Q 3706 609 3251 259 
Q 2797 -91 1919 -91 
Q 1588 -91 1214 -16 
Q 841 59 441 206 
L 441 856 
Q 825 641 1194 531 
Q 1563 422 1919 422 
Q 2459 422 2753 634 
Q 3047 847 3047 1241 
Q 3047 1584 2836 1778 
Q 2625 1972 2144 2069 
L 1759 2144 
Q 1053 2284 737 2584 
Q 422 2884 422 3419 
Q 422 4038 858 4394 
Q 1294 4750 2059 4750 
Q 2388 4750 2728 4690 
Q 3069 4631 3425 4513 
z
" transform="scale(0.015625)"/>
       <path id="DejaVuSans-29" d="M 513 4856 
L 1013 4856 
Q 1481 4119 1714 3412 
Q 1947 2706 1947 2009 
Q 1947 1309 1714 600 
Q 1481 -109 1013 -844 
L 513 -844 
Q 928 -128 1133 580 
Q 1338 1288 1338 2009 
Q 1338 2731 1133 3434 
Q 928 4138 513 4856 
z
" transform="scale(0.015625)"/>
      </defs>
      <use xlink:href="#DejaVuSans-50"/>
      <use xlink:href="#DejaVuSans-72" x="58.552734"/>
      <use xlink:href="#DejaVuSans-69" x="99.666016"/>
      <use xlink:href="#DejaVuSans-63" x="127.449219"/>
      <use xlink:href="#DejaVuSans-65" x="182.429688"/>
      <use xlink:href="#DejaVuSans-20" x="243.953125"/>
      <use xlink:href="#DejaVuSans-28" x="275.740234"/>
      <use xlink:href="#DejaVuSans-55" x="314.753906"/>
      <use xlink:href="#DejaVuSans-53" x="387.947266"/>
      <use xlink:href="#DejaVuSans-44" x="451.423828"/>
      <use xlink:href="#DejaVuSans-29" x="528.425781"/>
     </g>
    </g>
   </g>
   <g id="line2d_16">
    <path d="M 72.329261 339.838125 
L 72.560787 338.165076 
M 74.644518 338.005045 
L 74.876044 338.005045 
L 75.107569 337.583146 
L 75.339095 336.67388 
M 76.496723 332.665836 
L 76.728249 333.364152 
M 86.683852 330.847304 
L 86.915378 332.069358 
L 87.146904 331.487427 
L 87.378429 332.229388 
L 87.609955 331.443783 
L 87.841481 331.603813 
L 88.073006 330.032602 
L 88.304532 330.018054 
L 88.536058 329.159707 
M 97.797084 325.769964 
L 98.260136 325.682674 
L 98.491661 326.453732 
L 98.723187 325.158937 
M 99.417764 324.271494 
L 99.64929 323.791401 
L 100.112341 321.507325 
L 100.575392 322.249286 
L 100.806918 321.172716 
M 104.279803 318.961381 
L 104.511328 320.358013 
L 104.742854 320.619882 
L 104.97438 319.034122 
L 105.437431 318.132131 
L 105.668957 318.844995 
L 105.900482 316.851884 
L 106.132008 317.05556 
L 106.363534 316.211761 
L 106.826585 315.615283 
L 107.058111 314.204102 
L 107.289636 314.756936 
L 107.521162 313.927685 
L 107.752688 313.549431 
L 108.215739 312.050961 
L 108.447265 311.774544 
M 114.698458 320.328917 
L 114.929983 321.900128 
L 115.161509 321.565518 
M 123.264907 328.606873 
L 123.496433 327.864912 
M 125.348638 324.911617 
L 125.580164 325.668126 
L 126.043215 326.177315 
L 126.274741 323.529533 
L 126.506266 322.409317 
M 149.195781 333.887889 
L 149.427307 333.829696 
M 149.890358 332.971349 
L 150.121884 333.233218 
L 150.35341 332.651288 
M 151.511038 330.076247 
L 151.742564 330.614532 
L 152.205615 329.901668 
L 152.437141 330.236278 
L 152.668666 329.828927 
L 152.900192 330.265374 
L 153.131718 327.195693 
L 153.826295 329.159707 
L 154.05782 328.141329 
L 154.289346 328.941483 
L 154.520872 327.38482 
L 154.752397 323.47134 
L 154.983923 322.656637 
L 155.215449 323.558629 
M 162.392744 314.044071 
L 162.62427 315.047901 
L 162.855796 313.098435 
L 163.087321 313.491238 
M 163.550373 312.47286 
L 163.781898 311.061679 
L 164.013424 313.069338 
L 164.24495 312.691084 
L 164.476475 312.007316 
L 164.708001 310.246977 
M 167.023257 306.115273 
L 167.254783 307.279133 
L 167.486309 306.799041 
L 167.717834 305.184185 
L 167.94936 305.867953 
L 168.180886 304.55861 
L 168.412411 305.111444 
L 168.643937 303.860294 
L 168.875463 304.194904 
L 169.106988 305.911598 
L 169.57004 306.05708 
L 170.033091 303.249267 
M 173.969027 293.414648 
L 174.200553 292.250787 
M 180.914797 290.883252 
L 181.146323 290.679576 
L 181.377849 286.693354 
L 182.072426 286.125973 
L 182.303951 286.64971 
L 182.535477 285.602235 
L 182.767003 286.358745 
L 183.230054 284.380182 
L 183.46158 283.405449 
L 183.693105 283.623673 
L 183.924631 283.303611 
L 184.387682 280.517621 
L 184.619208 281.630562 
L 185.082259 280.204833 
M 199.899902 283.667318 
L 200.131427 283.885542 
L 200.362953 283.216322 
L 200.594479 281.470531 
M 204.761941 283.056291 
L 204.993466 282.867164 
L 205.224992 280.597636 
L 205.456517 280.830408 
L 205.688043 279.215552 
M 209.392454 272.974351 
L 209.623979 270.704824 
L 209.855505 270.82121 
M 227.21993 293.923837 
L 227.682981 289.55936 
L 227.914507 289.239299 
L 228.146032 289.879422 
M 241.11147 271.374043 
L 241.342995 267.911559 
M 260.3281 268.260717 
L 260.559625 268.522586 
L 261.254202 265.932997 
L 261.485728 266.456734 
L 261.717254 266.602216 
L 261.948779 264.710943 
L 262.411831 266.980471 
L 262.874882 265.001908 
L 263.569459 259.357186 
L 263.800985 260.346467 
L 264.03251 260.317371 
L 264.264036 259.066221 
L 264.495562 259.735441 
L 264.727087 254.99271 
L 265.190139 255.836509 
L 265.421664 255.429157 
L 265.65319 255.48735 
L 265.884715 254.99271 
L 266.116241 252.781375 
M 275.377268 246.321951 
L 275.608793 245.943696 
L 275.840319 244.052423 
L 276.071845 244.110616 
M 283.017615 243.092238 
L 283.24914 242.335729 
L 283.480666 243.586879 
L 283.712192 243.586879 
L 283.943717 246.001889 
L 284.175243 245.652731 
L 284.406769 242.190247 
L 284.638294 241.433737 
L 284.86982 241.404641 
L 285.332871 239.135113 
M 285.795922 240.735421 
L 286.027448 238.49499 
M 296.677629 232.384724 
L 297.14068 234.217804 
L 297.372206 234.043225 
L 297.603731 231.948276 
L 297.835257 232.617496 
M 308.022386 242.364826 
L 308.253912 239.687947 
M 329.091221 270.006508 
L 329.322747 266.107576 
L 329.554273 269.133612 
M 331.406478 253.537884 
L 331.638004 254.294394 
L 331.869529 254.236201 
M 332.332581 252.664989 
L 332.564106 252.199445 
L 332.795632 253.945236 
L 333.027158 254.032525 
L 333.258683 251.850287 
L 333.721735 245.623634 
L 333.95326 247.980452 
L 334.416312 247.369425 
L 334.647837 246.380144 
L 334.879363 247.049363 
L 335.110889 247.07846 
M 341.362082 239.775237 
L 341.593607 239.571561 
L 341.825133 239.600657 
L 342.056659 237.040165 
L 342.288184 237.709385 
L 342.51971 237.680288 
L 342.751236 235.789015 
L 342.982761 238.465894 
L 343.214287 236.429138 
L 343.445813 232.966654 
L 343.677338 235.439857 
L 343.908864 236.720103 
L 344.14039 236.312752 
L 344.371915 233.170329 
L 344.603441 214.083021 
M 347.150223 200.203987 
L 347.381749 200.873206 
L 347.613274 201.135075 
M 348.076326 200.960496 
L 348.307851 201.978874 
L 348.539377 200.349469 
L 348.770903 204.597559 
L 349.002428 203.288216 
M 374.470251 199.272898 
L 374.701777 199.563863 
L 374.933303 194.733843 
L 375.164828 194.792036 
L 375.396354 189.467375 
M 385.583483 165.200888 
L 385.815009 163.338712 
M 387.435688 159.032429 
L 387.667214 157.373928 
L 387.89874 156.995673 
L 388.361791 154.02783 
M 397.854343 145.182491 
L 398.085869 148.790458 
L 398.317395 143.02935 
L 398.54892 144.542368 
M 406.883844 193.831852 
L 407.11537 196.537827 
L 407.346895 194.76294 
L 407.578421 195.984993 
L 407.809947 199.796636 
L 408.041472 200.320373 
L 408.272998 202.298935 
L 408.504524 186.324953 
L 408.736049 186.17947 
L 408.967575 186.935979 
L 409.199101 182.222345 
L 409.430626 180.534748 
L 409.662152 182.571503 
L 409.893678 175.995693 
M 420.775384 164.648055 
L 421.00691 162.727685 
L 421.238435 159.148815 
L 421.469961 157.432121 
L 421.701487 158.043148 
L 421.933012 158.072244 
L 422.164538 163.804256 
L 422.396064 163.01865 
L 422.859115 157.6067 
L 423.090641 156.879287 
L 423.322166 153.416803 
M 432.351667 154.347891 
L 432.814718 161.563825 
L 433.046244 153.998733 
L 433.27777 153.736865 
L 433.509295 156.501033 
L 433.740821 148.935941 
L 433.972347 147.917563 
L 434.203872 144.513272 
M 437.676757 131.769002 
L 437.908283 135.900706 
L 438.139809 136.308057 
L 438.371334 138.635777 
L 438.60286 133.340213 
L 439.065911 128.742965 
L 439.297437 127.579105 
L 439.528963 125.746025 
M 465.228311 91.470339 
L 465.691363 94.089025 
L 465.922888 89.229908 
M 471.479504 90.1319 
L 471.942555 91.819497 
L 472.174081 92.081366 
L 472.405607 97.871571 
L 472.637132 93.099743 
M 488.612403 172.27134 
L 488.843929 180.709327 
L 489.30698 176.082982 
L 489.538506 160.60364 
L 489.770031 162.756782 
M 500.651738 176.635816 
L 500.883263 174.424481 
M 510.14429 169.012531 
L 510.375815 172.096761 
L 510.607341 168.459697 
M 515.932431 176.170272 
L 516.163957 171.194769 
L 516.395483 176.490333 
L 516.858534 157.664893 
L 517.09006 156.035489 
M 522.183624 93.768963 
L 522.41515 94.147218 
L 522.646676 93.187033 
L 522.878201 94.583665 
M 530.518548 100.490256 
L 530.750074 97.231447 
M 538.853472 84.807239 
L 539.084998 88.29882 
L 539.548049 68.280423 
L 539.779575 75.059909 
M 571.267065 117.220748 
L 571.730116 114.020132 
L 571.961642 109.655656 
L 572.424693 105.698531 
L 572.656219 108.142638 
L 572.887744 106.600523 
L 573.11927 102.177854 
L 573.11927 102.177854 
" clip-path="url(#pe2407fdb99)" style="fill: none; stroke: #00ff7f; stroke-linecap: square"/>
   </g>
   <g id="line2d_17">
    <path d="M 110.530996 307.831967 
L 110.994047 305.533343 
L 111.225573 306.653558 
L 111.457098 306.537172 
L 111.688624 305.998887 
L 111.92015 307.541002 
L 112.151675 314.21865 
M 117.708291 316.13902 
L 117.939817 315.295221 
L 118.171343 316.255406 
L 118.402868 316.168116 
L 118.634394 316.38634 
L 118.86592 316.982819 
L 119.097445 317.084656 
L 119.328971 315.702572 
L 119.560497 315.702572 
L 119.792022 317.681135 
L 120.023548 317.812069 
L 120.255074 318.437644 
M 132.294408 318.248517 
L 132.525934 317.375621 
L 132.757459 317.492007 
L 132.988985 319.005026 
M 133.452036 320.067048 
L 133.683562 320.372562 
M 142.944589 323.805949 
L 143.176114 324.329687 
M 145.954422 327.806719 
L 146.185948 328.272263 
M 271.672857 235.003409 
L 271.904383 236.778296 
L 272.135908 237.214744 
L 272.367434 238.465894 
M 280.239307 235.468953 
L 280.470832 235.730822 
L 280.702358 236.16727 
L 280.933884 236.952875 
M 304.549501 227.787476 
L 304.781027 228.456695 
L 305.012553 227.467414 
M 311.495271 233.606777 
L 311.726797 235.177988 
M 316.820361 238.320411 
L 317.051887 239.018727 
L 317.283413 238.844148 
L 317.514938 240.066202 
L 317.746464 244.372485 
L 317.97799 243.586879 
M 321.450875 256.185667 
L 321.6824 257.582299 
L 322.145452 254.876324 
L 322.376977 257.32043 
M 354.095993 180.592941 
L 354.327519 178.497992 
L 354.559044 178.207027 
M 399.706549 133.980336 
L 400.1696 137.937461 
L 400.632651 129.674053 
L 400.864177 129.03393 
L 401.095703 125.338673 
L 401.327228 123.651076 
L 401.558754 125.309577 
L 401.79028 128.190131 
L 402.021805 132.6128 
L 402.484857 143.582184 
L 402.716382 147.073764 
M 404.337062 172.824173 
L 404.568588 174.249902 
L 404.800113 169.419882 
L 405.031639 177.712387 
M 468.932722 68.949642 
L 469.395773 75.234488 
M 474.489338 73.401408 
L 474.952389 67.902168 
L 475.183915 66.592825 
L 475.41544 64.061429 
L 475.646966 65.71993 
L 475.878492 70.433564 
L 476.110017 84.603563 
L 476.341543 77.474919 
L 476.573069 98.598983 
L 476.804594 107.79348 
L 477.03612 98.482597 
L 477.267646 106.513233 
L 477.499171 105.523952 
M 492.548339 126.124279 
L 492.779865 125.309577 
L 493.242916 133.223827 
M 512.691072 139.566865 
L 512.922598 137.966558 
L 513.154123 137.297338 
M 547.419922 44.595866 
L 547.651447 50.647939 
M 549.272127 57.281943 
L 549.503652 58.678575 
L 549.735178 56.55453 
M 562.700615 63.363113 
L 562.932141 56.001697 
L 563.163667 66.069088 
L 563.395192 62.199253 
L 563.626718 64.119622 
L 563.858244 63.566789 
L 564.089769 77.329436 
L 564.552821 79.569868 
L 564.552821 79.569868 
" clip-path="url(#pe2407fdb99)" style="fill: none; stroke: #ff4500; stroke-linecap: square"/>
   </g>
   <g id="line2d_18">
    <path d="M 72.792313 338.412396 
L 73.023838 337.845014 
L 73.48689 336.113772 
L 73.949941 337.874111 
L 74.181467 338.092335 
L 74.412992 336.899378 
M 75.570621 331.487427 
L 75.802146 330.221729 
L 76.033672 332.54945 
L 76.265198 331.487427 
M 76.959775 332.854963 
L 77.1913 332.651288 
L 77.422826 331.63291 
L 77.654352 331.749296 
L 77.885877 329.697992 
L 78.117403 329.567058 
L 78.580454 328.184974 
L 78.81198 329.756185 
L 79.043506 330.236278 
L 79.275031 328.71744 
L 79.506557 329.450672 
L 79.738083 327.559399 
L 80.201134 328.679614 
L 80.43266 328.505035 
L 80.664185 329.814378 
L 81.127237 327.981298 
L 81.358762 329.916216 
L 81.590288 328.88329 
L 81.821814 329.567058 
L 82.053339 328.039491 
L 82.284865 329.450672 
L 82.516391 329.625251 
L 82.979442 327.952202 
L 83.210968 329.55251 
L 83.674019 330.733828 
L 83.905545 330.018054 
L 84.13707 330.250826 
L 84.368596 331.269204 
L 84.600121 331.691103 
L 84.831647 329.930764 
L 85.063173 330.061699 
L 85.294698 331.429234 
L 85.526224 331.88023 
L 85.75775 329.246996 
L 86.220801 330.410857 
L 86.452327 329.290641 
M 88.767583 329.086966 
L 88.999109 329.174255 
L 89.46216 327.559399 
L 89.693686 327.63214 
L 89.925212 326.831986 
L 90.156737 326.482828 
L 90.388263 326.759245 
L 90.619789 327.29753 
M 91.08284 328.199522 
L 91.314366 327.457561 
L 91.545891 327.1375 
L 91.777417 326.119122 
L 92.240468 327.370272 
L 92.471994 326.584666 
L 92.935045 326.701052 
L 93.166571 326.570118 
L 93.398097 326.119122 
L 93.629622 323.63137 
L 94.092674 324.198752 
L 94.555725 327.006565 
L 94.787251 326.642859 
L 95.018776 326.817438 
L 95.250302 325.784512 
L 95.481828 325.595385 
L 95.713353 327.355723 
M 96.176405 330.090795 
L 96.40793 329.479768 
L 96.639456 326.279153 
L 96.870982 326.017284 
L 97.334033 322.671186 
L 97.565559 323.835046 
M 98.954713 323.791401 
L 99.186238 323.107633 
M 101.038444 320.765364 
L 101.269969 319.237798 
L 101.501495 319.063219 
L 101.733021 320.168886 
L 101.964546 320.037952 
L 102.196072 320.125241 
L 102.427598 319.936114 
L 102.659123 319.034122 
L 103.122175 318.393999 
L 103.3537 317.026463 
L 103.585226 316.63366 
L 103.816752 317.870262 
L 104.048277 317.404718 
M 108.67879 311.367193 
L 108.910316 311.759995 
L 109.373367 311.207162 
L 109.604893 312.400119 
L 109.836419 310.697973 
L 110.29947 309.708692 
M 112.846252 312.749277 
L 113.077778 313.069338 
L 113.540829 317.739328 
L 114.003881 319.194153 
L 114.235406 319.354184 
L 114.466932 319.732438 
M 115.393035 319.936114 
L 115.62456 318.670416 
L 115.856086 319.601504 
L 116.087612 317.564749 
L 116.319137 317.63749 
L 116.550663 316.619112 
L 116.782189 316.72095 
L 117.013714 316.662757 
L 117.24524 315.920796 
L 117.476766 317.011915 
M 120.486599 319.441473 
L 120.949651 321.856484 
L 121.412702 324.664296 
L 121.644228 325.624481 
L 121.875753 324.96981 
L 122.107279 325.711771 
L 122.338805 325.871802 
L 122.57033 325.435354 
L 122.801856 325.508095 
L 123.033382 328.388649 
M 123.727959 323.47134 
L 123.959484 323.398598 
L 124.19101 323.733208 
L 124.422536 323.151278 
L 124.654061 323.689563 
L 124.885587 323.078537 
L 125.117112 323.311309 
M 126.737792 320.008855 
L 127.200843 318.393999 
L 127.432369 319.13596 
L 127.663895 318.903188 
L 127.89542 319.630601 
L 128.126946 319.921566 
L 128.589997 319.034122 
L 128.821523 319.194153 
L 129.053049 319.005026 
L 129.284574 319.121412 
L 129.5161 318.583126 
L 129.747626 316.517274 
L 130.210677 318.597675 
L 130.673728 318.146679 
L 130.905254 317.681135 
L 131.13678 320.037952 
L 131.368305 320.707171 
L 131.599831 320.416206 
L 131.831357 319.412377 
L 132.062882 320.183434 
M 133.915088 322.671186 
L 134.146613 323.849594 
L 134.378139 323.529533 
L 134.609665 323.71866 
L 134.84119 323.354954 
L 135.072716 323.936884 
L 135.535767 323.820498 
L 135.767293 324.606103 
L 135.998819 324.751586 
L 136.230344 325.711771 
L 136.693396 324.562459 
L 136.924921 325.260775 
L 137.156447 324.606103 
L 137.387973 324.824327 
L 137.851024 325.88635 
L 138.08255 325.697222 
L 138.314075 323.849594 
L 138.545601 323.704112 
L 138.777127 322.962151 
L 139.008652 323.704112 
L 139.240178 323.907787 
L 139.471704 324.766134 
L 139.703229 323.151278 
L 139.934755 323.616822 
L 140.166281 326.671955 
L 140.397806 325.260775 
L 140.629332 325.231678 
L 140.860858 324.140559 
L 141.323909 326.13367 
L 141.555435 325.726319 
L 141.78696 324.722489 
L 142.250012 325.057099 
L 142.481537 324.475169 
L 142.713063 324.358783 
M 143.40764 325.842705 
L 143.639166 326.250056 
L 143.870691 327.152048 
L 144.102217 326.657407 
L 144.333743 326.904728 
L 144.565268 326.482828 
L 144.796794 325.188034 
L 145.028319 325.624481 
L 145.491371 325.406257 
L 145.722896 327.181144 
M 146.417473 328.577777 
L 146.880525 327.530302 
L 147.11205 326.875631 
L 147.343576 326.599214 
L 147.575102 327.38482 
L 147.806627 326.933824 
M 148.269679 327.413916 
L 148.73273 329.654347 
L 148.964256 329.348834 
M 150.584935 331.734748 
L 150.816461 331.982068 
L 151.047987 331.269204 
L 151.279512 331.38559 
M 155.446974 316.109923 
L 155.6785 316.910077 
L 155.910026 316.13902 
L 156.141551 314.97516 
L 156.373077 314.858774 
L 156.604603 314.582357 
L 157.067654 313.578527 
L 157.29918 312.47286 
L 157.530705 312.516505 
L 158.225282 314.756936 
L 158.456808 314.495067 
L 158.919859 315.266125 
L 159.151385 314.480519 
L 159.382911 314.480519 
L 159.614436 314.21865 
L 159.845962 314.465971 
L 160.077488 315.789862 
L 160.309013 316.408163 
L 160.540539 314.153183 
L 160.772065 315.440704 
L 161.00359 313.72401 
L 161.235116 314.524164 
L 161.466642 314.349585 
L 161.698167 315.207932 
L 162.161219 312.327377 
M 164.939526 308.530283 
L 165.171052 308.8067 
L 165.634103 307.191844 
L 165.865629 307.017265 
L 166.32868 307.817419 
L 166.560206 306.711751 
L 166.791732 306.871782 
M 170.264617 294.389381 
L 170.496142 294.767635 
L 170.727668 294.403929 
L 170.959194 293.705613 
L 171.190719 291.217861 
L 171.422245 293.138231 
L 171.653771 292.963652 
L 171.885296 292.134401 
L 172.116822 291.843436 
L 172.811399 293.574678 
L 173.042925 294.389381 
L 173.27445 292.18532 
L 173.505976 292.527204 
L 173.737502 290.388611 
M 174.89513 288.773755 
L 175.126656 288.540983 
L 175.358181 289.413878 
L 175.821233 287.406219 
L 176.052758 287.660813 
L 176.284284 287.173447 
L 176.51581 287.944504 
L 176.747335 288.046342 
L 176.978861 287.791748 
L 177.441912 283.274515 
L 177.673438 285.805911 
L 177.904964 284.889371 
L 178.136489 286.300552 
L 178.599541 291.712502 
L 178.831066 289.152009 
L 179.062592 290.745043 
L 179.294118 290.214032 
L 179.525643 287.180721 
L 179.988695 285.762266 
L 180.451746 288.046342 
L 180.683272 288.089987 
M 185.313785 270.370214 
L 185.54531 270.108345 
L 186.008362 271.374043 
L 186.239887 271.621364 
L 186.471413 272.421518 
L 186.702939 270.893951 
L 186.934464 271.665008 
L 187.16599 271.475881 
L 187.397516 269.686446 
L 187.629041 270.035604 
L 187.860567 268.857196 
L 188.323618 270.413859 
L 188.78667 267.969752 
L 189.018195 269.540963 
L 189.249721 269.162709 
L 189.712772 273.338058 
L 189.944298 272.814321 
L 190.175824 270.472052 
L 190.407349 271.024885 
L 190.638875 272.974351 
L 190.870401 273.119834 
L 191.101926 273.076189 
L 191.333452 274.720142 
L 191.564978 273.003448 
L 192.028029 273.796328 
L 192.259555 272.727031 
L 192.722606 273.934536 
L 192.954132 273.789054 
L 193.185657 278.240819 
L 193.648709 273.556281 
L 193.880234 273.141656 
L 194.11176 272.261487 
L 194.343286 272.450614 
L 194.574811 275.222056 
L 194.806337 276.160419 
L 195.037863 279.171907 
L 195.269388 280.452154 
L 195.500914 276.349546 
L 195.73244 276.960573 
L 195.963965 278.037144 
L 196.195491 277.076959 
L 196.427017 277.615244 
L 196.658542 275.112945 
L 196.890068 275.89855 
L 197.121594 275.811261 
L 197.353119 277.018766 
L 197.584645 279.753837 
L 197.816171 278.124433 
L 198.047696 275.40391 
M 198.510748 277.469762 
L 198.742273 276.56777 
L 198.973799 283.143581 
L 199.205325 285.2749 
L 199.43685 283.841897 
L 199.668376 283.274515 
M 200.826004 281.936076 
L 201.05753 282.31433 
L 201.520581 282.459813 
L 201.752107 281.97972 
L 201.983633 281.936076 
L 202.215158 283.099936 
L 202.446684 282.634392 
L 203.372787 277.455213 
L 203.604312 277.920758 
L 203.835838 277.251538 
L 204.067364 278.589977 
M 205.919569 277.164248 
L 206.151094 278.328109 
L 206.38262 277.891661 
L 206.614146 276.32045 
L 206.845671 271.810491 
L 207.077197 271.752298 
L 207.308723 272.07236 
L 207.540248 270.210183 
L 207.771774 272.217842 
L 208.0033 270.588438 
L 208.234825 270.501148 
L 208.466351 269.279095 
L 209.160928 272.770676 
M 210.087031 269.628253 
L 210.318556 270.006508 
L 210.550082 269.540963 
M 211.013133 268.435296 
L 211.244659 269.890122 
L 211.476185 267.969752 
L 211.70771 267.707883 
L 211.939236 268.464393 
L 212.402287 267.998849 
L 212.633813 265.729321 
M 213.096864 262.23774 
L 213.32839 263.547083 
L 213.559916 278.822749 
L 214.022967 286.911578 
L 214.254493 281.936076 
L 214.486018 279.753837 
L 214.717544 280.56854 
L 215.180595 286.184166 
L 215.412121 283.332708 
L 215.643647 283.245418 
L 215.875172 283.361804 
L 216.106698 279.491969 
L 216.338224 280.626733 
L 216.569749 279.288293 
L 216.801275 278.64817 
L 217.032801 280.393961 
L 217.264326 280.510347 
L 217.495852 279.550162 
L 217.727378 277.39702 
L 217.958903 281.383242 
L 218.190429 280.452154 
L 218.421955 281.965172 
L 218.65348 281.441435 
L 218.885006 282.081558 
L 219.116532 281.499628 
L 219.348057 286.125973 
L 219.579583 285.922297 
L 219.811109 283.274515 
L 220.042634 285.049402 
L 220.27416 282.518006 
L 220.505686 281.295952 
L 220.737211 285.544042 
L 220.968737 284.205603 
L 221.200263 281.674207 
L 221.431788 281.616014 
L 221.663314 277.280634 
L 221.89484 280.423057 
M 222.357891 280.743119 
L 222.589417 277.949854 
L 222.820942 277.687985 
L 223.052468 277.833468 
L 223.283994 278.299012 
L 223.515519 275.796713 
L 223.747045 279.812031 
M 224.210096 281.034084 
L 224.441622 277.804372 
L 224.673148 278.299012 
L 224.904673 277.135152 
L 225.136199 276.90238 
L 225.367724 273.759957 
L 225.830776 274.341887 
L 226.293827 281.383242 
L 226.525353 278.997328 
L 226.756878 283.143581 
L 226.988404 284.321989 
M 228.377558 276.378643 
L 228.609084 275.534844 
L 228.840609 271.781395 
L 229.072135 270.850306 
L 229.303661 271.083078 
L 229.535186 272.974351 
L 229.766712 269.831929 
L 229.998238 268.580779 
L 230.229763 271.519526 
L 230.461289 266.718602 
L 230.692815 267.707883 
L 230.92434 265.787514 
L 231.155866 267.06776 
L 231.387392 266.747699 
L 231.618917 268.464393 
L 231.850443 265.99119 
L 232.081969 266.965923 
L 232.313494 264.478171 
L 232.776546 270.23928 
L 233.239597 266.282155 
L 233.934174 266.049383 
L 234.1657 264.449075 
L 234.397225 265.583838 
L 234.628751 267.73698 
L 235.091802 265.060101 
L 235.323328 267.504208 
L 235.554854 267.882463 
L 235.786379 272.712483 
L 236.017905 271.286754 
L 236.249431 265.874804 
L 236.480956 272.450614 
L 236.712482 270.617534 
L 236.944008 272.159649 
L 237.175533 271.31585 
L 237.407059 272.479711 
L 237.638585 272.334228 
L 237.87011 266.776795 
L 238.101636 268.289814 
L 238.333162 266.223962 
L 238.564687 267.82427 
L 238.796213 267.329629 
L 239.027739 260.608336 
L 239.259264 259.15351 
L 239.49079 259.851827 
L 239.722316 263.983531 
L 239.953841 265.787514 
L 240.185367 269.162709 
L 240.416893 269.133612 
L 240.648418 265.642031 
L 240.879944 267.64969 
M 241.574521 264.274496 
L 241.806047 264.07082 
L 242.269098 265.176487 
L 242.500624 263.023346 
L 242.732149 263.256118 
L 242.963675 260.637432 
L 243.195201 259.793634 
L 243.426726 260.521046 
M 243.889778 260.695625 
L 244.121303 256.302053 
L 244.352829 255.981991 
L 244.584355 257.233141 
L 244.81588 256.913079 
L 245.047406 257.349527 
L 245.278932 259.677247 
L 245.973508 255.050903 
L 246.43656 255.283675 
L 246.668085 254.003429 
L 246.899611 251.762998 
L 247.131137 254.294394 
L 247.362662 255.196385 
L 247.594188 255.021806 
L 247.825714 257.262237 
L 248.057239 256.7385 
L 248.288765 255.283675 
L 248.520291 254.556262 
L 248.751816 255.836509 
L 248.983342 253.683367 
L 249.214868 253.65427 
L 249.446393 255.836509 
L 249.677919 254.119815 
L 249.909445 259.328089 
L 250.14097 259.82273 
L 250.372496 261.219362 
L 250.604022 260.171888 
L 250.835547 258.600677 
L 251.067073 258.513387 
L 251.298599 258.600677 
L 251.530124 256.214763 
L 251.993176 257.32043 
L 252.224701 257.727781 
L 252.456227 259.415379 
L 252.687753 258.455194 
L 253.150804 254.934517 
L 253.613855 259.095317 
L 253.845381 256.7385 
L 254.076907 257.582299 
L 254.308432 256.593018 
L 254.539958 259.997309 
L 254.771484 258.251519 
L 255.003009 255.079999 
L 255.234535 256.82579 
L 255.466061 265.9039 
L 255.697586 264.012627 
L 255.929112 266.253058 
L 256.160638 262.121354 
L 256.392163 265.671128 
L 256.623689 266.282155 
L 256.855215 262.761477 
L 257.08674 271.577719 
L 257.318266 271.839588 
L 257.549792 269.046323 
L 257.781317 268.90084 
L 258.012843 267.533304 
L 258.244369 267.416918 
L 258.475894 268.929937 
L 258.70742 269.220902 
L 258.938946 268.086138 
L 259.401997 272.014167 
L 259.633523 269.57006 
L 259.865048 268.784454 
L 260.096574 266.544023 
M 266.347767 252.024866 
L 266.579292 251.704804 
L 266.810818 251.99577 
L 267.042344 249.813532 
L 267.505395 243.965134 
L 267.736921 245.681827 
L 267.968446 245.856407 
L 268.199972 244.401581 
L 268.431498 245.128994 
L 268.663023 247.74768 
L 268.894549 245.885503 
L 269.126075 245.390862 
L 269.3576 244.343388 
L 269.589126 245.332669 
L 269.820652 247.398521 
L 270.052177 246.642012 
L 270.515229 240.648132 
L 270.746754 240.357167 
L 270.97828 244.285195 
L 271.441331 241.346448 
M 272.59896 239.804333 
L 273.062011 240.677228 
L 273.293537 243.034045 
L 273.525062 243.208624 
L 273.756588 242.801273 
L 273.988114 241.782896 
L 274.219639 241.724703 
L 274.451165 241.404641 
L 274.682691 241.811992 
L 274.914216 247.456714 
L 275.145742 244.750739 
M 276.30337 242.364826 
L 276.766422 239.978912 
L 276.997947 238.145832 
L 277.229473 237.33113 
L 277.460999 238.785955 
L 277.692524 236.952875 
L 277.92405 239.74614 
L 278.155576 239.978912 
L 278.387101 237.214744 
L 278.618627 237.418419 
L 278.850153 237.33113 
L 279.081678 236.691007 
L 279.776255 237.505709 
L 280.007781 238.815052 
M 281.165409 239.396982 
L 281.396935 239.949816 
L 281.628461 239.804333 
L 282.091512 239.862526 
L 282.323038 240.619035 
L 282.554563 239.542464 
L 282.786089 243.004949 
M 286.258974 233.635873 
L 286.490499 226.449036 
L 286.722025 226.652712 
L 286.953551 223.713965 
L 287.185076 222.811973 
L 287.416602 223.422999 
L 287.648128 225.401562 
L 287.879653 224.790535 
L 288.111179 227.641993 
L 288.342705 228.25302 
L 288.57423 228.311213 
L 288.805756 228.922239 
L 289.037282 228.602178 
L 289.268807 225.692527 
L 289.500333 227.321931 
L 289.731859 227.554703 
L 289.963384 228.223923 
L 290.19491 225.66343 
L 290.426436 228.078441 
L 290.657961 228.573081 
M 291.121013 225.256079 
L 291.352538 225.197886 
L 291.584064 226.449036 
L 291.81559 229.038625 
L 292.047115 229.038625 
L 292.278641 228.922239 
L 292.510167 230.755319 
L 292.741692 231.191767 
L 292.973218 233.432198 
L 293.204744 233.403101 
L 293.436269 230.66803 
L 293.667795 233.170329 
L 293.899321 234.275997 
L 294.130846 233.868646 
L 294.362372 230.027907 
L 294.593898 230.66803 
L 294.825423 230.551644 
L 295.288475 229.009529 
L 295.52 229.649652 
L 295.751526 232.384724 
L 295.983052 232.268338 
M 298.066783 233.315812 
L 298.529834 231.279056 
L 298.76136 231.220863 
L 298.992885 227.409221 
L 299.455937 224.150412 
L 299.687462 226.303554 
L 299.918988 224.412281 
L 300.150514 223.772158 
L 300.382039 225.692527 
L 301.076616 223.422999 
L 301.308142 227.49651 
L 301.539668 223.510289 
L 301.771193 223.102938 
L 302.002719 224.761439 
L 302.234245 229.940617 
L 302.46577 227.00187 
L 302.697296 229.155011 
L 302.928822 228.194827 
L 303.160347 229.736942 
L 303.391873 230.202486 
L 303.623399 230.377065 
L 303.854924 229.475073 
L 304.08645 229.504169 
L 304.317976 228.543985 
M 305.244078 230.929898 
L 305.475604 232.937557 
L 305.70713 231.24996 
L 305.938655 232.937557 
L 306.170181 231.91918 
L 306.401706 234.188707 
L 307.096283 230.493451 
L 307.559335 234.654251 
L 307.79086 239.07692 
M 308.485437 240.735421 
L 308.948489 238.349508 
L 309.180014 238.873245 
L 309.41154 240.41536 
L 309.874591 239.804333 
L 310.106117 238.873245 
L 310.337643 236.16727 
L 310.800694 235.003409 
L 311.03222 235.905401 
L 311.263745 235.032506 
M 311.958322 237.854867 
L 312.421374 234.770637 
L 312.652899 236.429138 
L 312.884425 236.050884 
L 313.115951 236.254559 
L 313.579002 232.122855 
L 313.810528 234.508769 
L 314.273579 242.888563 
L 314.505105 245.361766 
L 314.73663 245.303573 
L 314.968156 246.612916 
L 315.199682 243.32501 
L 315.431207 242.597598 
L 315.662733 243.848748 
L 315.894259 244.052423 
L 316.125784 240.99729 
M 318.672567 244.314292 
L 318.904092 243.645072 
L 319.135618 246.525626 
L 319.367144 247.07846 
L 319.598669 249.49347 
M 320.061721 256.360246 
L 320.524772 261.452134 
L 320.987823 259.328089 
L 321.219349 259.82273 
M 322.608503 260.550143 
L 322.840029 260.957494 
L 323.071554 264.856426 
L 323.30308 266.194865 
L 323.534606 266.805892 
L 323.997657 264.972812 
L 324.229183 265.060101 
L 324.460708 266.223962 
L 324.692234 265.962093 
L 324.92376 265.292873 
L 325.155285 266.282155 
L 325.386811 269.890122 
L 325.618337 267.096857 
L 325.849862 267.300532 
L 326.081388 263.925338 
L 326.312913 264.65275 
L 326.775965 262.528705 
L 327.00749 262.383223 
L 327.239016 264.65275 
L 327.470542 261.772196 
L 327.702067 263.110635 
L 327.933593 261.597617 
L 328.165119 261.248459 
L 328.396644 264.856426 
L 328.62817 262.645091 
L 328.859696 264.943715 
M 329.785798 252.5777 
L 330.017324 253.916139 
L 330.24885 252.083059 
L 330.480375 252.868665 
L 330.711901 254.585359 
L 330.943427 251.530225 
L 331.174952 252.5777 
M 335.342414 247.136653 
L 335.57394 241.404641 
L 336.036991 235.643532 
L 336.268517 235.759919 
L 336.500043 236.429138 
L 336.731568 236.07998 
L 337.19462 234.508769 
L 337.426145 233.635873 
L 337.657671 232.297434 
L 338.120722 235.643532 
L 338.352248 236.487331 
L 338.583774 240.182588 
L 339.046825 241.259158 
L 339.278351 240.298974 
L 339.741402 239.862526 
L 339.972928 237.418419 
L 340.435979 237.098358 
L 340.667505 238.553183 
L 340.89903 237.302033 
L 341.130556 238.611376 
M 344.834967 212.657292 
L 345.066492 212.860967 
M 345.529544 216.788996 
L 345.761069 216.759899 
M 346.22412 203.317313 
L 346.455646 203.084541 
M 349.233954 198.632775 
L 349.697005 192.667991 
M 350.160057 190.252981 
L 350.391582 188.739963 
L 351.086159 190.805815 
L 351.317685 190.078402 
L 351.549211 190.223885 
L 351.780736 188.885445 
L 352.012262 185.801216 
L 352.475313 190.049306 
L 352.706839 189.554665 
L 353.16989 181.116678 
L 353.401416 189.001831 
L 353.864467 186.732304 
M 354.79057 178.177931 
L 355.022096 178.759861 
L 355.253621 175.646535 
L 356.179724 185.713926 
L 356.642775 200.553145 
L 356.874301 196.392344 
L 357.105827 197.381625 
L 357.337352 205.906902 
L 357.568878 199.331091 
L 357.800404 199.243802 
L 358.031929 197.876266 
L 358.263455 194.646554 
L 358.494981 189.758341 
L 358.726506 191.038587 
L 358.958032 197.410722 
L 359.189558 197.701687 
L 359.884135 191.67871 
L 360.11566 198.690968 
L 360.347186 197.09066 
L 360.578712 197.498011 
L 360.810237 196.130476 
L 361.041763 197.410722 
L 361.273289 190.049306 
L 361.504814 204.917621 
L 361.73634 205.441358 
L 361.967866 200.233083 
L 362.199391 201.920681 
L 362.430917 200.26218 
L 362.662443 199.738443 
L 362.893968 200.785917 
L 363.125494 200.989592 
L 363.588545 199.360188 
L 363.820071 199.069223 
L 364.051597 205.965095 
L 364.283122 206.547025 
L 364.514648 199.331091 
L 364.746174 200.494952 
L 364.977699 202.706286 
L 365.209225 197.410722 
L 365.440751 203.84105 
L 365.672276 202.5899 
L 365.903802 195.519449 
L 366.135328 192.202447 
L 366.366853 198.952837 
L 366.598379 200.436759 
L 366.829904 197.003371 
L 367.06143 199.389284 
L 367.292956 196.916081 
L 367.524481 202.67719 
L 367.987533 195.112098 
L 368.219058 194.76294 
L 368.450584 195.170291 
L 368.68211 199.331091 
L 368.913635 196.945178 
L 369.145161 198.167231 
L 369.376687 196.50873 
L 369.839738 186.645014 
L 370.071264 189.060024 
L 370.302789 193.337211 
L 370.534315 192.377026 
L 370.765841 190.456657 
L 370.997366 189.467375 
L 371.228892 193.162632 
L 371.691943 186.150374 
L 371.923469 187.721585 
L 372.38652 183.793557 
L 372.618046 183.473495 
L 372.849572 181.727705 
L 373.081097 181.553125 
L 373.544149 185.917602 
L 374.238726 182.920661 
M 375.62788 182.396924 
L 376.553982 174.540867 
L 376.785508 175.355569 
L 377.017034 174.919122 
L 377.248559 177.886966 
L 377.480085 178.439799 
L 377.711611 176.577623 
L 377.943136 177.130456 
L 378.174662 177.130456 
L 378.406188 172.300436 
L 378.637713 172.27134 
L 379.100765 176.228465 
L 379.33229 175.762921 
L 379.563816 177.363228 
L 379.795342 176.694009 
L 380.258393 178.236124 
L 380.489919 176.51943 
L 380.721444 176.664912 
L 380.95297 173.144235 
L 381.184496 173.231524 
L 381.416021 174.308095 
L 381.647547 177.68329 
L 381.879073 177.508711 
L 382.110598 176.51943 
L 382.342124 176.577623 
L 382.57365 172.940559 
L 383.036701 169.885426 
L 383.268227 172.358629 
L 383.499752 169.623558 
L 383.731278 172.649594 
L 384.194329 168.110539 
M 384.657381 171.922182 
L 384.888906 169.914523 
M 386.046535 160.254482 
L 386.27806 157.112059 
L 386.509586 156.122778 
L 386.972637 159.497973 
L 387.204163 154.144216 
M 388.593317 152.514811 
L 388.824842 147.801177 
L 389.056368 147.626598 
L 389.287894 150.041608 
L 389.519419 149.02323 
L 389.750945 144.804237 
L 389.982471 148.150335 
L 390.213996 145.618939 
L 390.445522 140.061506 
L 390.677048 140.730726 
L 390.908573 141.050787 
L 391.140099 143.378508 
L 391.371625 139.421383 
L 391.60315 137.821075 
L 391.834676 141.283559 
L 392.066202 141.7782 
L 392.297727 142.680192 
L 392.529253 144.338693 
L 392.760779 142.243744 
L 392.992304 142.214648 
L 393.22383 143.727666 
L 393.455356 140.643436 
L 393.686881 141.225366 
L 393.918407 140.585243 
L 394.149933 135.755223 
L 394.381458 134.911424 
L 394.84451 137.471917 
L 395.076035 144.047728 
L 395.307561 142.825674 
L 395.539087 147.510212 
L 395.770612 148.965037 
L 396.233664 141.632718 
L 396.465189 147.830274 
L 396.696715 149.867029 
L 396.928241 145.35707 
L 397.159766 143.145736 
L 397.391292 138.228426 
L 397.622818 142.185551 
M 398.780446 146.69551 
L 399.011972 143.814956 
L 399.243497 142.854771 
L 399.475023 138.344812 
M 402.947908 158.974236 
L 403.179434 183.85175 
L 403.642485 190.485753 
L 403.874011 188.827252 
L 404.105536 183.589881 
M 405.263165 186.412242 
L 405.49469 186.935979 
L 405.726216 196.363248 
L 405.957742 191.504131 
L 406.420793 188.914542 
L 406.652318 189.147314 
M 410.125203 165.550046 
L 410.356729 157.955858 
L 410.588255 161.447439 
L 411.051306 158.916043 
L 411.282832 160.60364 
L 411.514357 159.963517 
L 411.745883 161.709308 
L 411.977409 160.109 
L 412.208934 153.678672 
L 412.44046 157.69399 
L 412.671986 158.043148 
M 413.135037 155.133497 
L 413.366563 157.955858 
L 413.598088 158.159534 
L 413.829614 155.77362 
L 414.06114 156.268261 
L 414.292665 157.403024 
L 414.755717 153.154934 
L 414.987242 154.697049 
L 415.218768 154.900725 
L 415.450294 153.853251 
L 415.913345 148.586783 
L 416.144871 148.935941 
L 416.376396 152.863969 
M 416.839448 151.758302 
L 417.070973 150.885407 
L 417.302499 152.165653 
L 417.534025 149.721547 
L 417.76555 151.205468 
L 418.228602 148.52859 
L 418.691653 148.295818 
L 418.923179 151.961978 
L 419.154704 150.303477 
L 419.38623 149.546967 
L 419.617756 155.424462 
L 419.849281 165.171792 
L 420.080807 160.283579 
L 420.312333 159.061525 
L 420.543858 160.429061 
M 423.553692 150.041608 
L 423.785218 151.496433 
L 424.016743 147.94666 
L 424.248269 140.672533 
L 424.479795 137.966558 
L 424.71132 137.210048 
L 424.942846 140.468857 
L 425.174372 138.170233 
L 425.405897 140.236085 
L 425.637423 140.992594 
L 426.100474 136.599022 
L 426.332 133.572985 
L 426.563526 133.340213 
L 426.795051 139.799638 
L 427.026577 139.566865 
L 427.258102 137.53011 
L 427.489628 139.101321 
L 427.721154 137.559206 
L 427.952679 138.373909 
L 428.184205 140.148796 
L 428.415731 145.327974 
L 428.647256 143.931342 
L 428.878782 141.690911 
L 429.110308 140.934401 
L 429.341833 145.677132 
L 429.573359 142.563806 
L 429.804885 142.040069 
L 430.03641 140.643436 
L 430.267936 152.398425 
L 430.499462 149.459678 
L 430.730987 149.343292 
L 431.194039 141.487235 
L 431.425564 143.02935 
L 431.65709 140.905305 
L 431.888616 149.256002 
L 432.120141 149.314195 
M 434.435398 135.78432 
L 434.666924 139.159514 
L 434.898449 137.791979 
L 435.129975 138.257523 
L 435.361501 131.769002 
L 435.824552 129.150316 
L 436.519129 120.043109 
L 436.750655 121.817996 
L 437.213706 128.94664 
L 437.445232 126.357051 
M 439.760488 124.902226 
L 439.992014 115.824116 
L 440.22354 114.863931 
M 440.686591 112.128859 
L 440.918117 112.856272 
L 441.149642 114.107422 
L 441.381168 116.056888 
L 441.612694 115.562247 
L 441.844219 116.027791 
L 442.075745 117.278941 
L 442.307271 113.467298 
L 442.770322 114.893027 
L 443.001848 115.795019 
L 443.233373 122.95276 
L 443.464899 123.185532 
L 443.696425 129.790439 
L 443.92795 123.505593 
L 444.159476 121.963479 
L 444.391002 112.856272 
L 444.854053 123.796559 
L 445.085579 114.602062 
L 445.317104 127.026271 
L 445.54863 129.237605 
L 445.780156 124.087524 
L 446.011681 121.439741 
L 446.243207 121.148776 
L 446.706258 111.808798 
L 446.937784 124.756743 
L 447.169309 120.072206 
L 447.400835 125.833314 
L 447.863886 112.652596 
L 448.326938 118.733766 
L 448.558463 115.969598 
L 448.789989 106.105882 
L 449.021515 106.629619 
L 449.25304 108.637278 
L 449.484566 109.597463 
L 449.716092 109.161015 
L 449.947617 106.105882 
L 450.179143 106.775102 
L 450.410669 111.255964 
L 450.87372 107.997155 
L 451.105246 108.28812 
M 451.568297 112.885368 
L 452.031348 109.364691 
L 452.262874 110.499455 
L 452.725925 104.680153 
L 452.957451 106.280461 
L 453.188977 111.430543 
L 453.420502 113.176333 
L 453.652028 107.357032 
L 453.883554 109.655656 
L 454.115079 110.412165 
L 454.578131 101.304958 
L 454.809656 97.085965 
L 455.041182 100.170195 
L 455.735759 95.427464 
L 455.967285 92.226848 
L 456.19881 101.392248 
L 456.430336 98.715369 
L 456.661862 104.563767 
L 456.893387 102.963459 
L 457.124913 102.236047 
L 457.356439 106.018593 
L 457.587964 107.677094 
L 457.81949 103.312617 
L 458.051016 105.20389 
L 458.514067 99.093624 
L 458.977118 97.667895 
L 459.208644 95.311078 
L 459.44017 98.948141 
L 459.671695 97.900667 
L 459.903221 101.421344 
L 460.134747 100.199291 
L 460.366272 95.980298 
L 460.597798 94.452731 
L 460.829324 97.871571 
L 461.060849 97.202351 
L 461.292375 102.963459 
M 461.755426 99.821037 
L 462.450003 85.825617 
L 462.913055 86.785801 
L 463.14458 91.819497 
L 463.376106 92.168655 
L 463.607632 94.089025 
L 463.839157 92.866971 
L 464.070683 89.520873 
L 464.533734 90.1319 
L 464.76526 85.476458 
L 464.996786 88.269723 
M 466.154414 89.026232 
L 466.38594 92.023173 
L 466.617465 89.346294 
L 466.848991 88.79346 
L 467.080516 89.811838 
L 467.312042 85.330976 
L 467.543568 85.563748 
L 467.775093 84.370791 
L 468.006619 84.283502 
L 468.238145 82.625001 
L 468.46967 78.638779 
L 468.701196 77.620402 
M 469.627299 78.173235 
L 469.858824 81.63572 
L 470.09035 80.821017 
L 470.321876 81.897588 
L 470.553401 81.54843 
L 470.784927 82.683194 
L 471.016453 80.355473 
L 471.247978 87.484117 
M 472.868658 85.767424 
L 473.100184 78.813358 
L 473.563235 82.625001 
L 473.794761 80.209991 
L 474.026286 76.020094 
L 474.257812 74.972619 
M 477.730697 128.422903 
L 477.962223 126.03699 
L 478.193748 148.4413 
L 478.425274 127.957359 
L 478.6568 137.53011 
L 478.888325 158.508692 
L 479.119851 154.202409 
L 479.351377 209.194807 
L 479.582902 221.909981 
L 479.814428 249.813532 
L 480.045954 235.177988 
L 480.509005 241.230062 
L 481.203582 175.239183 
L 481.435108 184.113618 
L 481.898159 171.252962 
L 482.129685 188.361708 
L 482.36121 193.279018 
L 482.592736 206.808894 
L 482.824262 170.641935 
L 483.055787 177.537807 
L 483.287313 165.200888 
L 483.518839 166.10288 
L 483.750364 171.165672 
L 483.98189 159.614359 
L 484.444941 170.612839 
L 484.676467 157.432121 
L 485.139518 183.677171 
L 485.371044 180.272879 
L 485.60257 183.880846 
L 485.834095 175.559245 
L 486.065621 160.02171 
L 486.297147 155.046207 
L 486.528672 141.923683 
L 486.760198 158.479595 
L 486.991724 165.462757 
L 487.223249 167.121258 
L 487.454775 166.015591 
L 487.6863 165.753722 
L 487.917826 162.873168 
L 488.149352 158.18863 
L 488.380877 160.254482 
M 490.001557 159.847131 
L 490.233083 142.44742 
L 490.464608 151.147275 
L 490.696134 149.052327 
L 491.159185 138.373909 
L 491.390711 142.185551 
L 491.622237 141.487235 
L 492.085288 132.932862 
L 492.316814 136.36625 
M 493.474442 149.721547 
L 493.937493 158.566885 
M 494.400545 143.000253 
L 494.63207 155.511751 
L 494.863596 152.805776 
L 495.095122 160.458158 
M 495.558173 171.02019 
L 495.789699 179.109019 
L 496.021224 180.622037 
L 496.25275 176.286658 
L 496.484276 176.286658 
L 496.947327 166.568424 
L 497.178853 162.029369 
L 497.410378 172.969656 
L 497.641904 174.01713 
L 497.87343 177.799676 
L 498.104955 171.776699 
L 498.336481 177.508711 
L 498.568007 191.038587 
L 498.799532 180.883906 
L 499.262584 174.68635 
L 499.494109 177.596 
L 499.957161 165.986494 
L 500.188686 169.012531 
L 500.420212 173.609779 
M 501.114789 167.004872 
L 501.57784 163.396905 
L 501.809366 168.60518 
L 502.272417 166.277459 
L 502.503943 171.252962 
L 503.19852 151.961978 
L 503.430046 150.594442 
L 503.661571 153.504092 
L 503.893097 150.623538 
L 504.124623 141.690911 
L 504.8192 169.827233 
L 505.050725 170.525549 
L 505.513777 158.799657 
L 505.745302 162.844071 
L 505.976828 159.934421 
L 506.208354 151.292758 
L 506.439879 159.294297 
L 506.671405 158.741464 
L 506.902931 149.168713 
L 507.365982 152.77668 
L 507.597507 151.991074 
L 507.829033 152.340232 
L 508.060559 160.370868 
L 508.292084 161.796597 
L 508.52361 151.467337 
L 508.755136 151.030889 
L 508.986661 144.920623 
L 509.681238 161.214667 
L 509.912764 160.632737 
M 510.838867 155.86091 
L 511.070392 159.43978 
L 511.533444 148.383107 
L 511.996495 141.836393 
L 512.228021 148.935941 
L 512.459546 141.661814 
M 513.385649 140.206989 
L 513.617175 144.135017 
L 513.8487 144.425982 
L 514.080226 147.539308 
L 514.311752 159.643456 
L 514.543277 156.093682 
L 514.774803 156.122778 
L 515.006329 153.242224 
L 515.237854 146.637317 
L 515.46938 157.664893 
L 515.700906 158.217727 
M 517.321585 148.063046 
L 517.553111 152.834873 
L 517.784637 110.586744 
L 518.016162 105.931303 
L 518.247688 121.177873 
L 518.479214 119.926723 
L 518.942265 101.799599 
L 519.173791 102.905266 
L 519.405316 100.46116 
L 520.099893 109.53927 
L 520.331419 94.321797 
L 520.79447 105.582145 
M 521.257522 99.762844 
L 521.489047 99.646458 
L 521.952099 88.997136 
M 523.109727 96.038491 
L 523.341253 102.643398 
L 523.572778 95.252885 
L 523.804304 94.263604 
L 524.03583 84.778142 
L 524.267355 81.955781 
L 524.498881 84.487177 
L 524.730407 84.63266 
L 524.961932 80.559149 
L 525.193458 80.908307 
L 525.424984 67.523914 
L 525.656509 70.899108 
L 525.888035 67.902168 
L 526.119561 66.97108 
L 526.351086 83.672475 
L 526.582612 83.38151 
M 527.508714 72.615802 
L 527.74024 71.772004 
L 528.203291 83.672475 
L 528.434817 83.96344 
L 528.666343 92.663296 
L 528.897868 89.520873 
L 529.129394 88.560688 
L 529.36092 94.554569 
L 529.592445 93.943542 
L 529.823971 99.413685 
M 530.981599 85.985647 
L 531.444651 78.784262 
L 531.676176 78.871551 
L 531.907702 73.226829 
L 532.139228 75.001716 
L 532.370753 74.332496 
L 532.602279 69.677055 
L 532.833805 77.794981 
L 533.06533 75.350874 
L 533.296856 76.689313 
L 533.528382 74.536172 
L 533.759907 78.202332 
L 533.991433 70.782722 
L 534.222959 74.390689 
L 534.454484 64.643359 
L 534.68601 78.726069 
L 534.917536 84.923625 
L 535.149061 73.488698 
L 535.380587 82.013974 
L 535.612113 101.188572 
L 536.075164 95.136499 
L 536.538215 60.657138 
L 536.769741 70.579047 
L 537.001267 72.615802 
L 537.232792 67.523914 
L 537.464318 59.813339 
L 537.695844 65.283482 
L 537.927369 64.439684 
L 538.158895 65.923606 
L 538.390421 71.335556 
L 538.621946 73.226829 
M 540.0111 74.041531 
L 540.242626 75.409067 
L 540.474152 73.663277 
L 540.705677 66.476439 
L 540.937203 64.963421 
L 541.168729 65.225289 
L 541.400254 53.470301 
L 541.63178 51.229869 
L 541.863306 51.869993 
L 542.094831 56.55453 
L 542.326357 55.157898 
L 542.557883 48.756666 
L 542.789408 46.31256 
L 543.25246 60.715331 
L 543.483985 53.703073 
L 543.715511 52.335537 
L 543.947037 49.484079 
L 544.178562 54.22681 
L 544.410088 48.465701 
L 544.641614 50.356974 
L 544.873139 42.617303 
L 545.104665 43.315619 
L 545.336191 39.853135 
L 545.567716 40.260486 
L 545.799242 49.775044 
L 546.030768 48.785763 
L 546.262293 37.438125 
L 546.725345 48.611184 
L 546.95687 63.246727 
L 547.188396 58.445803 
M 547.882973 61.151778 
L 548.114498 60.191594 
L 548.346024 67.931265 
L 548.57755 65.690834 
L 549.040601 63.88685 
M 549.966704 66.505536 
L 550.429755 76.660217 
L 550.661281 76.689313 
L 550.892806 77.416726 
L 551.124332 74.361593 
L 551.355858 74.88533 
L 551.587383 81.053789 
L 551.818909 74.914426 
L 552.050435 77.416726 
M 552.513486 78.115042 
L 552.745012 80.29728 
M 553.208063 76.863892 
L 553.439589 73.983338 
L 553.671114 72.586706 
L 553.90264 65.923606 
L 554.134166 64.759745 
L 554.365691 69.96802 
L 554.597217 68.862353 
L 555.060268 60.628041 
L 555.291794 56.961881 
L 555.52332 56.176276 
L 555.986371 70.288082 
L 556.217897 61.268164 
L 556.449422 63.21763 
L 556.680948 67.378431 
L 556.912474 60.919006 
L 557.143999 64.381491 
L 557.607051 88.124241 
L 558.070102 70.346275 
L 558.301628 71.655618 
L 558.764679 68.193133 
L 559.22773 71.713811 
L 559.459256 67.6403 
L 559.690782 67.320238 
L 559.922307 72.208451 
L 560.153833 69.327897 
L 560.385359 78.929744 
L 560.84841 66.156378 
L 561.079936 70.899108 
L 561.311461 58.445803 
L 561.542987 54.052231 
L 561.774513 59.347795 
L 562.006038 61.588226 
L 562.237564 61.180875 
L 562.46909 72.935864 
M 564.784346 79.80264 
L 565.941975 91.87769 
L 566.1735 91.819497 
L 566.405026 96.067587 
L 566.636552 93.914446 
L 566.868077 97.202351 
L 567.099603 95.776622 
L 567.562654 90.801119 
L 567.79418 95.136499 
L 568.025705 93.099743 
L 568.257231 92.052269 
L 568.488757 88.066048 
L 568.951808 85.040011 
L 569.183334 91.004795 
L 569.414859 89.782742 
L 569.646385 107.589804 
L 569.877911 101.072186 
L 570.109436 103.632679 
L 570.340962 109.131919 
M 570.804013 110.324876 
L 571.035539 110.441262 
M 573.350796 103.108942 
L 573.582321 95.165595 
L 573.813847 93.012454 
L 574.045373 102.323336 
L 574.276898 95.602043 
L 574.508424 94.932823 
L 574.971475 91.033891 
L 575.203001 82.915966 
L 575.434527 82.159457 
L 575.666052 76.165576 
L 575.897578 79.162516 
L 576.129104 77.271243 
L 576.360629 79.017034 
L 576.592155 88.327916 
L 576.823681 88.240627 
L 577.055206 88.386109 
L 577.286732 89.637259 
L 577.518258 85.272783 
L 577.749783 76.543831 
L 577.981309 96.154877 
L 578.212835 100.839414 
L 578.44436 88.444302 
L 578.675886 88.21153 
L 578.907412 104.214609 
L 579.138937 99.413685 
L 579.370463 106.891488 
L 579.601989 119.170214 
L 579.601989 119.170214 
" clip-path="url(#pe2407fdb99)" style="fill: none; stroke: #1e90ff; stroke-linecap: square"/>
   </g>
   <g id="patch_3">
    <path d="M 46.965625 354.958125 
L 46.965625 22.318125 
" style="fill: none; stroke: #000000; stroke-width: 0.8; stroke-linejoin: miter; stroke-linecap: square"/>
   </g>
   <g id="patch_4">
    <path d="M 604.965625 354.958125 
L 604.965625 22.318125 
" style="fill: none; stroke: #000000; stroke-width: 0.8; stroke-linejoin: miter; stroke-linecap: square"/>
   </g>
   <g id="patch_5">
    <path d="M 46.965625 354.958125 
L 604.965625 354.958125 
" style="fill: none; stroke: #000000; stroke-width: 0.8; stroke-linejoin: miter; stroke-linecap: square"/>
   </g>
   <g id="patch_6">
    <path d="M 46.965625 22.318125 
L 604.965625 22.318125 
" style="fill: none; stroke: #000000; stroke-width: 0.8; stroke-linejoin: miter; stroke-linecap: square"/>
   </g>
   <g id="text_13">
    <!-- ROST, Relative Strength Index (RSI), ROST -->
    <g transform="translate(198.788125 16.318125)scale(0.12 -0.12)">
     <defs>
      <path id="DejaVuSans-52" d="M 2841 2188 
Q 3044 2119 3236 1894 
Q 3428 1669 3622 1275 
L 4263 0 
L 3584 0 
L 2988 1197 
Q 2756 1666 2539 1819 
Q 2322 1972 1947 1972 
L 1259 1972 
L 1259 0 
L 628 0 
L 628 4666 
L 2053 4666 
Q 2853 4666 3247 4331 
Q 3641 3997 3641 3322 
Q 3641 2881 3436 2590 
Q 3231 2300 2841 2188 
z
M 1259 4147 
L 1259 2491 
L 2053 2491 
Q 2509 2491 2742 2702 
Q 2975 2913 2975 3322 
Q 2975 3731 2742 3939 
Q 2509 4147 2053 4147 
L 1259 4147 
z
" transform="scale(0.015625)"/>
      <path id="DejaVuSans-4f" d="M 2522 4238 
Q 1834 4238 1429 3725 
Q 1025 3213 1025 2328 
Q 1025 1447 1429 934 
Q 1834 422 2522 422 
Q 3209 422 3611 934 
Q 4013 1447 4013 2328 
Q 4013 3213 3611 3725 
Q 3209 4238 2522 4238 
z
M 2522 4750 
Q 3503 4750 4090 4092 
Q 4678 3434 4678 2328 
Q 4678 1225 4090 567 
Q 3503 -91 2522 -91 
Q 1538 -91 948 565 
Q 359 1222 359 2328 
Q 359 3434 948 4092 
Q 1538 4750 2522 4750 
z
" transform="scale(0.015625)"/>
      <path id="DejaVuSans-54" d="M -19 4666 
L 3928 4666 
L 3928 4134 
L 2272 4134 
L 2272 0 
L 1638 0 
L 1638 4134 
L -19 4134 
L -19 4666 
z
" transform="scale(0.015625)"/>
      <path id="DejaVuSans-2c" d="M 750 794 
L 1409 794 
L 1409 256 
L 897 -744 
L 494 -744 
L 750 256 
L 750 794 
z
" transform="scale(0.015625)"/>
      <path id="DejaVuSans-6c" d="M 603 4863 
L 1178 4863 
L 1178 0 
L 603 0 
L 603 4863 
z
" transform="scale(0.015625)"/>
      <path id="DejaVuSans-76" d="M 191 3500 
L 800 3500 
L 1894 563 
L 2988 3500 
L 3597 3500 
L 2284 0 
L 1503 0 
L 191 3500 
z
" transform="scale(0.015625)"/>
      <path id="DejaVuSans-6e" d="M 3513 2113 
L 3513 0 
L 2938 0 
L 2938 2094 
Q 2938 2591 2744 2837 
Q 2550 3084 2163 3084 
Q 1697 3084 1428 2787 
Q 1159 2491 1159 1978 
L 1159 0 
L 581 0 
L 581 3500 
L 1159 3500 
L 1159 2956 
Q 1366 3272 1645 3428 
Q 1925 3584 2291 3584 
Q 2894 3584 3203 3211 
Q 3513 2838 3513 2113 
z
" transform="scale(0.015625)"/>
      <path id="DejaVuSans-67" d="M 2906 1791 
Q 2906 2416 2648 2759 
Q 2391 3103 1925 3103 
Q 1463 3103 1205 2759 
Q 947 2416 947 1791 
Q 947 1169 1205 825 
Q 1463 481 1925 481 
Q 2391 481 2648 825 
Q 2906 1169 2906 1791 
z
M 3481 434 
Q 3481 -459 3084 -895 
Q 2688 -1331 1869 -1331 
Q 1566 -1331 1297 -1286 
Q 1028 -1241 775 -1147 
L 775 -588 
Q 1028 -725 1275 -790 
Q 1522 -856 1778 -856 
Q 2344 -856 2625 -561 
Q 2906 -266 2906 331 
L 2906 616 
Q 2728 306 2450 153 
Q 2172 0 1784 0 
Q 1141 0 747 490 
Q 353 981 353 1791 
Q 353 2603 747 3093 
Q 1141 3584 1784 3584 
Q 2172 3584 2450 3431 
Q 2728 3278 2906 2969 
L 2906 3500 
L 3481 3500 
L 3481 434 
z
" transform="scale(0.015625)"/>
      <path id="DejaVuSans-68" d="M 3513 2113 
L 3513 0 
L 2938 0 
L 2938 2094 
Q 2938 2591 2744 2837 
Q 2550 3084 2163 3084 
Q 1697 3084 1428 2787 
Q 1159 2491 1159 1978 
L 1159 0 
L 581 0 
L 581 4863 
L 1159 4863 
L 1159 2956 
Q 1366 3272 1645 3428 
Q 1925 3584 2291 3584 
Q 2894 3584 3203 3211 
Q 3513 2838 3513 2113 
z
" transform="scale(0.015625)"/>
      <path id="DejaVuSans-49" d="M 628 4666 
L 1259 4666 
L 1259 0 
L 628 0 
L 628 4666 
z
" transform="scale(0.015625)"/>
      <path id="DejaVuSans-64" d="M 2906 2969 
L 2906 4863 
L 3481 4863 
L 3481 0 
L 2906 0 
L 2906 525 
Q 2725 213 2448 61 
Q 2172 -91 1784 -91 
Q 1150 -91 751 415 
Q 353 922 353 1747 
Q 353 2572 751 3078 
Q 1150 3584 1784 3584 
Q 2172 3584 2448 3432 
Q 2725 3281 2906 2969 
z
M 947 1747 
Q 947 1113 1208 752 
Q 1469 391 1925 391 
Q 2381 391 2643 752 
Q 2906 1113 2906 1747 
Q 2906 2381 2643 2742 
Q 2381 3103 1925 3103 
Q 1469 3103 1208 2742 
Q 947 2381 947 1747 
z
" transform="scale(0.015625)"/>
      <path id="DejaVuSans-78" d="M 3513 3500 
L 2247 1797 
L 3578 0 
L 2900 0 
L 1881 1375 
L 863 0 
L 184 0 
L 1544 1831 
L 300 3500 
L 978 3500 
L 1906 2253 
L 2834 3500 
L 3513 3500 
z
" transform="scale(0.015625)"/>
     </defs>
     <use xlink:href="#DejaVuSans-52"/>
     <use xlink:href="#DejaVuSans-4f" x="69.482422"/>
     <use xlink:href="#DejaVuSans-53" x="148.193359"/>
     <use xlink:href="#DejaVuSans-54" x="211.669922"/>
     <use xlink:href="#DejaVuSans-2c" x="272.753906"/>
     <use xlink:href="#DejaVuSans-20" x="304.541016"/>
     <use xlink:href="#DejaVuSans-52" x="336.328125"/>
     <use xlink:href="#DejaVuSans-65" x="401.310547"/>
     <use xlink:href="#DejaVuSans-6c" x="462.833984"/>
     <use xlink:href="#DejaVuSans-61" x="490.617188"/>
     <use xlink:href="#DejaVuSans-74" x="551.896484"/>
     <use xlink:href="#DejaVuSans-69" x="591.105469"/>
     <use xlink:href="#DejaVuSans-76" x="618.888672"/>
     <use xlink:href="#DejaVuSans-65" x="678.068359"/>
     <use xlink:href="#DejaVuSans-20" x="739.591797"/>
     <use xlink:href="#DejaVuSans-53" x="771.378906"/>
     <use xlink:href="#DejaVuSans-74" x="834.855469"/>
     <use xlink:href="#DejaVuSans-72" x="874.064453"/>
     <use xlink:href="#DejaVuSans-65" x="912.927734"/>
     <use xlink:href="#DejaVuSans-6e" x="974.451172"/>
     <use xlink:href="#DejaVuSans-67" x="1037.830078"/>
     <use xlink:href="#DejaVuSans-74" x="1101.306641"/>
     <use xlink:href="#DejaVuSans-68" x="1140.515625"/>
     <use xlink:href="#DejaVuSans-20" x="1203.894531"/>
     <use xlink:href="#DejaVuSans-49" x="1235.681641"/>
     <use xlink:href="#DejaVuSans-6e" x="1265.173828"/>
     <use xlink:href="#DejaVuSans-64" x="1328.552734"/>
     <use xlink:href="#DejaVuSans-65" x="1392.029297"/>
     <use xlink:href="#DejaVuSans-78" x="1451.802734"/>
     <use xlink:href="#DejaVuSans-20" x="1510.982422"/>
     <use xlink:href="#DejaVuSans-28" x="1542.769531"/>
     <use xlink:href="#DejaVuSans-52" x="1581.783203"/>
     <use xlink:href="#DejaVuSans-53" x="1651.265625"/>
     <use xlink:href="#DejaVuSans-49" x="1714.742188"/>
     <use xlink:href="#DejaVuSans-29" x="1744.234375"/>
     <use xlink:href="#DejaVuSans-2c" x="1783.248047"/>
     <use xlink:href="#DejaVuSans-20" x="1815.035156"/>
     <use xlink:href="#DejaVuSans-52" x="1846.822266"/>
     <use xlink:href="#DejaVuSans-4f" x="1916.304688"/>
     <use xlink:href="#DejaVuSans-53" x="1995.015625"/>
     <use xlink:href="#DejaVuSans-54" x="2058.492188"/>
    </g>
   </g>
   <g id="legend_1">
    <g id="patch_7">
     <path d="M 53.965625 74.3525 
L 203.875 74.3525 
Q 205.875 74.3525 205.875 72.3525 
L 205.875 29.318125 
Q 205.875 27.318125 203.875 27.318125 
L 53.965625 27.318125 
Q 51.965625 27.318125 51.965625 29.318125 
L 51.965625 72.3525 
Q 51.965625 74.3525 53.965625 74.3525 
z
" style="fill: #ffffff; opacity: 0.8; stroke: #cccccc; stroke-linejoin: miter"/>
    </g>
    <g id="line2d_19">
     <path d="M 55.965625 35.416562 
L 65.965625 35.416562 
L 75.965625 35.416562 
" style="fill: none; stroke: #00ff7f; stroke-linecap: square"/>
    </g>
    <g id="text_14">
     <!-- Oversold, RSI &lt;= 30 -->
     <g transform="translate(83.965625 38.916562)scale(0.1 -0.1)">
      <defs>
       <path id="DejaVuSans-73" d="M 2834 3397 
L 2834 2853 
Q 2591 2978 2328 3040 
Q 2066 3103 1784 3103 
Q 1356 3103 1142 2972 
Q 928 2841 928 2578 
Q 928 2378 1081 2264 
Q 1234 2150 1697 2047 
L 1894 2003 
Q 2506 1872 2764 1633 
Q 3022 1394 3022 966 
Q 3022 478 2636 193 
Q 2250 -91 1575 -91 
Q 1294 -91 989 -36 
Q 684 19 347 128 
L 347 722 
Q 666 556 975 473 
Q 1284 391 1588 391 
Q 1994 391 2212 530 
Q 2431 669 2431 922 
Q 2431 1156 2273 1281 
Q 2116 1406 1581 1522 
L 1381 1569 
Q 847 1681 609 1914 
Q 372 2147 372 2553 
Q 372 3047 722 3315 
Q 1072 3584 1716 3584 
Q 2034 3584 2315 3537 
Q 2597 3491 2834 3397 
z
" transform="scale(0.015625)"/>
       <path id="DejaVuSans-6f" d="M 1959 3097 
Q 1497 3097 1228 2736 
Q 959 2375 959 1747 
Q 959 1119 1226 758 
Q 1494 397 1959 397 
Q 2419 397 2687 759 
Q 2956 1122 2956 1747 
Q 2956 2369 2687 2733 
Q 2419 3097 1959 3097 
z
M 1959 3584 
Q 2709 3584 3137 3096 
Q 3566 2609 3566 1747 
Q 3566 888 3137 398 
Q 2709 -91 1959 -91 
Q 1206 -91 779 398 
Q 353 888 353 1747 
Q 353 2609 779 3096 
Q 1206 3584 1959 3584 
z
" transform="scale(0.015625)"/>
       <path id="DejaVuSans-3c" d="M 4684 3150 
L 1459 2003 
L 4684 863 
L 4684 294 
L 678 1747 
L 678 2266 
L 4684 3719 
L 4684 3150 
z
" transform="scale(0.015625)"/>
       <path id="DejaVuSans-3d" d="M 678 2906 
L 4684 2906 
L 4684 2381 
L 678 2381 
L 678 2906 
z
M 678 1631 
L 4684 1631 
L 4684 1100 
L 678 1100 
L 678 1631 
z
" transform="scale(0.015625)"/>
       <path id="DejaVuSans-33" d="M 2597 2516 
Q 3050 2419 3304 2112 
Q 3559 1806 3559 1356 
Q 3559 666 3084 287 
Q 2609 -91 1734 -91 
Q 1441 -91 1130 -33 
Q 819 25 488 141 
L 488 750 
Q 750 597 1062 519 
Q 1375 441 1716 441 
Q 2309 441 2620 675 
Q 2931 909 2931 1356 
Q 2931 1769 2642 2001 
Q 2353 2234 1838 2234 
L 1294 2234 
L 1294 2753 
L 1863 2753 
Q 2328 2753 2575 2939 
Q 2822 3125 2822 3475 
Q 2822 3834 2567 4026 
Q 2313 4219 1838 4219 
Q 1578 4219 1281 4162 
Q 984 4106 628 3988 
L 628 4550 
Q 988 4650 1302 4700 
Q 1616 4750 1894 4750 
Q 2613 4750 3031 4423 
Q 3450 4097 3450 3541 
Q 3450 3153 3228 2886 
Q 3006 2619 2597 2516 
z
" transform="scale(0.015625)"/>
      </defs>
      <use xlink:href="#DejaVuSans-4f"/>
      <use xlink:href="#DejaVuSans-76" x="78.710938"/>
      <use xlink:href="#DejaVuSans-65" x="137.890625"/>
      <use xlink:href="#DejaVuSans-72" x="199.414062"/>
      <use xlink:href="#DejaVuSans-73" x="240.527344"/>
      <use xlink:href="#DejaVuSans-6f" x="292.626953"/>
      <use xlink:href="#DejaVuSans-6c" x="353.808594"/>
      <use xlink:href="#DejaVuSans-64" x="381.591797"/>
      <use xlink:href="#DejaVuSans-2c" x="445.068359"/>
      <use xlink:href="#DejaVuSans-20" x="476.855469"/>
      <use xlink:href="#DejaVuSans-52" x="508.642578"/>
      <use xlink:href="#DejaVuSans-53" x="578.125"/>
      <use xlink:href="#DejaVuSans-49" x="641.601562"/>
      <use xlink:href="#DejaVuSans-20" x="671.09375"/>
      <use xlink:href="#DejaVuSans-3c" x="702.880859"/>
      <use xlink:href="#DejaVuSans-3d" x="786.669922"/>
      <use xlink:href="#DejaVuSans-20" x="870.458984"/>
      <use xlink:href="#DejaVuSans-33" x="902.246094"/>
      <use xlink:href="#DejaVuSans-30" x="965.869141"/>
     </g>
    </g>
    <g id="line2d_20">
     <path d="M 55.965625 50.094687 
L 65.965625 50.094687 
L 75.965625 50.094687 
" style="fill: none; stroke: #ff4500; stroke-linecap: square"/>
    </g>
    <g id="text_15">
     <!-- Overbought, RSI &gt;= 70 -->
     <g transform="translate(83.965625 53.594687)scale(0.1 -0.1)">
      <defs>
       <path id="DejaVuSans-62" d="M 3116 1747 
Q 3116 2381 2855 2742 
Q 2594 3103 2138 3103 
Q 1681 3103 1420 2742 
Q 1159 2381 1159 1747 
Q 1159 1113 1420 752 
Q 1681 391 2138 391 
Q 2594 391 2855 752 
Q 3116 1113 3116 1747 
z
M 1159 2969 
Q 1341 3281 1617 3432 
Q 1894 3584 2278 3584 
Q 2916 3584 3314 3078 
Q 3713 2572 3713 1747 
Q 3713 922 3314 415 
Q 2916 -91 2278 -91 
Q 1894 -91 1617 61 
Q 1341 213 1159 525 
L 1159 0 
L 581 0 
L 581 4863 
L 1159 4863 
L 1159 2969 
z
" transform="scale(0.015625)"/>
       <path id="DejaVuSans-75" d="M 544 1381 
L 544 3500 
L 1119 3500 
L 1119 1403 
Q 1119 906 1312 657 
Q 1506 409 1894 409 
Q 2359 409 2629 706 
Q 2900 1003 2900 1516 
L 2900 3500 
L 3475 3500 
L 3475 0 
L 2900 0 
L 2900 538 
Q 2691 219 2414 64 
Q 2138 -91 1772 -91 
Q 1169 -91 856 284 
Q 544 659 544 1381 
z
M 1991 3584 
L 1991 3584 
z
" transform="scale(0.015625)"/>
       <path id="DejaVuSans-3e" d="M 678 3150 
L 678 3719 
L 4684 2266 
L 4684 1747 
L 678 294 
L 678 863 
L 3897 2003 
L 678 3150 
z
" transform="scale(0.015625)"/>
       <path id="DejaVuSans-37" d="M 525 4666 
L 3525 4666 
L 3525 4397 
L 1831 0 
L 1172 0 
L 2766 4134 
L 525 4134 
L 525 4666 
z
" transform="scale(0.015625)"/>
      </defs>
      <use xlink:href="#DejaVuSans-4f"/>
      <use xlink:href="#DejaVuSans-76" x="78.710938"/>
      <use xlink:href="#DejaVuSans-65" x="137.890625"/>
      <use xlink:href="#DejaVuSans-72" x="199.414062"/>
      <use xlink:href="#DejaVuSans-62" x="240.527344"/>
      <use xlink:href="#DejaVuSans-6f" x="304.003906"/>
      <use xlink:href="#DejaVuSans-75" x="365.185547"/>
      <use xlink:href="#DejaVuSans-67" x="428.564453"/>
      <use xlink:href="#DejaVuSans-68" x="492.041016"/>
      <use xlink:href="#DejaVuSans-74" x="555.419922"/>
      <use xlink:href="#DejaVuSans-2c" x="594.628906"/>
      <use xlink:href="#DejaVuSans-20" x="626.416016"/>
      <use xlink:href="#DejaVuSans-52" x="658.203125"/>
      <use xlink:href="#DejaVuSans-53" x="727.685547"/>
      <use xlink:href="#DejaVuSans-49" x="791.162109"/>
      <use xlink:href="#DejaVuSans-20" x="820.654297"/>
      <use xlink:href="#DejaVuSans-3e" x="852.441406"/>
      <use xlink:href="#DejaVuSans-3d" x="936.230469"/>
      <use xlink:href="#DejaVuSans-20" x="1020.019531"/>
      <use xlink:href="#DejaVuSans-37" x="1051.806641"/>
      <use xlink:href="#DejaVuSans-30" x="1115.429688"/>
     </g>
    </g>
    <g id="line2d_21">
     <path d="M 55.965625 64.772812 
L 65.965625 64.772812 
L 75.965625 64.772812 
" style="fill: none; stroke: #1e90ff; stroke-linecap: square"/>
    </g>
    <g id="text_16">
     <!-- Neutral -->
     <g transform="translate(83.965625 68.272812)scale(0.1 -0.1)">
      <defs>
       <path id="DejaVuSans-4e" d="M 628 4666 
L 1478 4666 
L 3547 763 
L 3547 4666 
L 4159 4666 
L 4159 0 
L 3309 0 
L 1241 3903 
L 1241 0 
L 628 0 
L 628 4666 
z
" transform="scale(0.015625)"/>
      </defs>
      <use xlink:href="#DejaVuSans-4e"/>
      <use xlink:href="#DejaVuSans-65" x="74.804688"/>
      <use xlink:href="#DejaVuSans-75" x="136.328125"/>
      <use xlink:href="#DejaVuSans-74" x="199.707031"/>
      <use xlink:href="#DejaVuSans-72" x="238.916016"/>
      <use xlink:href="#DejaVuSans-61" x="280.029297"/>
      <use xlink:href="#DejaVuSans-6c" x="341.308594"/>
     </g>
    </g>
   </g>
  </g>
 </g>
 <defs>
  <clipPath id="pe2407fdb99">
   <rect x="46.965625" y="22.318125" width="558" height="332.64"/>
  </clipPath>
 </defs>
</svg>
