<?xml version="1.0" encoding="utf-8" standalone="no"?>
<!DOCTYPE svg PUBLIC "-//W3C//DTD SVG 1.1//EN"
  "http://www.w3.org/Graphics/SVG/1.1/DTD/svg11.dtd">
<svg xmlns:xlink="http://www.w3.org/1999/xlink" width="612.165625pt" height="392.514375pt" viewBox="0 0 612.165625 392.514375" xmlns="http://www.w3.org/2000/svg" version="1.1">
 <metadata>
  <rdf:RDF xmlns:dc="http://purl.org/dc/elements/1.1/" xmlns:cc="http://creativecommons.org/ns#" xmlns:rdf="http://www.w3.org/1999/02/22-rdf-syntax-ns#">
   <cc:Work>
    <dc:type rdf:resource="http://purl.org/dc/dcmitype/StillImage"/>
    <dc:date>2023-04-24T17:59:48.346276</dc:date>
    <dc:format>image/svg+xml</dc:format>
    <dc:creator>
     <cc:Agent>
      <dc:title>Matplotlib v3.5.1, https://matplotlib.org/</dc:title>
     </cc:Agent>
    </dc:creator>
   </cc:Work>
  </rdf:RDF>
 </metadata>
 <defs>
  <style type="text/css">*{stroke-linejoin: round; stroke-linecap: butt}</style>
 </defs>
 <g id="figure_1">
  <g id="patch_1">
   <path d="M 0 392.514375 
L 612.165625 392.514375 
L 612.165625 0 
L 0 0 
z
" style="fill: #ffffff"/>
  </g>
  <g id="axes_1">
   <g id="patch_2">
    <path d="M 46.965625 354.958125 
L 604.965625 354.958125 
L 604.965625 22.318125 
L 46.965625 22.318125 
z
" style="fill: #ffffff"/>
   </g>
   <g id="matplotlib.axis_1">
    <g id="xtick_1">
     <g id="line2d_1">
      <defs>
       <path id="m4c887556ad" d="M 0 0 
L 0 3.5 
" style="stroke: #000000; stroke-width: 0.8"/>
      </defs>
      <g>
       <use xlink:href="#m4c887556ad" x="72.329261" y="354.958125" style="stroke: #000000; stroke-width: 0.8"/>
      </g>
     </g>
     <g id="text_1">
      <!-- 0 -->
      <g transform="translate(69.148011 369.556562)scale(0.1 -0.1)">
       <defs>
        <path id="DejaVuSans-30" d="M 2034 4250 
Q 1547 4250 1301 3770 
Q 1056 3291 1056 2328 
Q 1056 1369 1301 889 
Q 1547 409 2034 409 
Q 2525 409 2770 889 
Q 3016 1369 3016 2328 
Q 3016 3291 2770 3770 
Q 2525 4250 2034 4250 
z
M 2034 4750 
Q 2819 4750 3233 4129 
Q 3647 3509 3647 2328 
Q 3647 1150 3233 529 
Q 2819 -91 2034 -91 
Q 1250 -91 836 529 
Q 422 1150 422 2328 
Q 422 3509 836 4129 
Q 1250 4750 2034 4750 
z
" transform="scale(0.015625)"/>
       </defs>
       <use xlink:href="#DejaVuSans-30"/>
      </g>
     </g>
    </g>
    <g id="xtick_2">
     <g id="line2d_2">
      <g>
       <use xlink:href="#m4c887556ad" x="185.965625" y="354.958125" style="stroke: #000000; stroke-width: 0.8"/>
      </g>
     </g>
     <g id="text_2">
      <!-- 500 -->
      <g transform="translate(176.421875 369.556562)scale(0.1 -0.1)">
       <defs>
        <path id="DejaVuSans-35" d="M 691 4666 
L 3169 4666 
L 3169 4134 
L 1269 4134 
L 1269 2991 
Q 1406 3038 1543 3061 
Q 1681 3084 1819 3084 
Q 2600 3084 3056 2656 
Q 3513 2228 3513 1497 
Q 3513 744 3044 326 
Q 2575 -91 1722 -91 
Q 1428 -91 1123 -41 
Q 819 9 494 109 
L 494 744 
Q 775 591 1075 516 
Q 1375 441 1709 441 
Q 2250 441 2565 725 
Q 2881 1009 2881 1497 
Q 2881 1984 2565 2268 
Q 2250 2553 1709 2553 
Q 1456 2553 1204 2497 
Q 953 2441 691 2322 
L 691 4666 
z
" transform="scale(0.015625)"/>
       </defs>
       <use xlink:href="#DejaVuSans-35"/>
       <use xlink:href="#DejaVuSans-30" x="63.623047"/>
       <use xlink:href="#DejaVuSans-30" x="127.246094"/>
      </g>
     </g>
    </g>
    <g id="xtick_3">
     <g id="line2d_3">
      <g>
       <use xlink:href="#m4c887556ad" x="299.601989" y="354.958125" style="stroke: #000000; stroke-width: 0.8"/>
      </g>
     </g>
     <g id="text_3">
      <!-- 1000 -->
      <g transform="translate(286.876989 369.556562)scale(0.1 -0.1)">
       <defs>
        <path id="DejaVuSans-31" d="M 794 531 
L 1825 531 
L 1825 4091 
L 703 3866 
L 703 4441 
L 1819 4666 
L 2450 4666 
L 2450 531 
L 3481 531 
L 3481 0 
L 794 0 
L 794 531 
z
" transform="scale(0.015625)"/>
       </defs>
       <use xlink:href="#DejaVuSans-31"/>
       <use xlink:href="#DejaVuSans-30" x="63.623047"/>
       <use xlink:href="#DejaVuSans-30" x="127.246094"/>
       <use xlink:href="#DejaVuSans-30" x="190.869141"/>
      </g>
     </g>
    </g>
    <g id="xtick_4">
     <g id="line2d_4">
      <g>
       <use xlink:href="#m4c887556ad" x="413.238352" y="354.958125" style="stroke: #000000; stroke-width: 0.8"/>
      </g>
     </g>
     <g id="text_4">
      <!-- 1500 -->
      <g transform="translate(400.513352 369.556562)scale(0.1 -0.1)">
       <use xlink:href="#DejaVuSans-31"/>
       <use xlink:href="#DejaVuSans-35" x="63.623047"/>
       <use xlink:href="#DejaVuSans-30" x="127.246094"/>
       <use xlink:href="#DejaVuSans-30" x="190.869141"/>
      </g>
     </g>
    </g>
    <g id="xtick_5">
     <g id="line2d_5">
      <g>
       <use xlink:href="#m4c887556ad" x="526.874716" y="354.958125" style="stroke: #000000; stroke-width: 0.8"/>
      </g>
     </g>
     <g id="text_5">
      <!-- 2000 -->
      <g transform="translate(514.149716 369.556562)scale(0.1 -0.1)">
       <defs>
        <path id="DejaVuSans-32" d="M 1228 531 
L 3431 531 
L 3431 0 
L 469 0 
L 469 531 
Q 828 903 1448 1529 
Q 2069 2156 2228 2338 
Q 2531 2678 2651 2914 
Q 2772 3150 2772 3378 
Q 2772 3750 2511 3984 
Q 2250 4219 1831 4219 
Q 1534 4219 1204 4116 
Q 875 4013 500 3803 
L 500 4441 
Q 881 4594 1212 4672 
Q 1544 4750 1819 4750 
Q 2544 4750 2975 4387 
Q 3406 4025 3406 3419 
Q 3406 3131 3298 2873 
Q 3191 2616 2906 2266 
Q 2828 2175 2409 1742 
Q 1991 1309 1228 531 
z
" transform="scale(0.015625)"/>
       </defs>
       <use xlink:href="#DejaVuSans-32"/>
       <use xlink:href="#DejaVuSans-30" x="63.623047"/>
       <use xlink:href="#DejaVuSans-30" x="127.246094"/>
       <use xlink:href="#DejaVuSans-30" x="190.869141"/>
      </g>
     </g>
    </g>
    <g id="text_6">
     <!-- Date -->
     <g transform="translate(314.014844 383.234687)scale(0.1 -0.1)">
      <defs>
       <path id="DejaVuSans-44" d="M 1259 4147 
L 1259 519 
L 2022 519 
Q 2988 519 3436 956 
Q 3884 1394 3884 2338 
Q 3884 3275 3436 3711 
Q 2988 4147 2022 4147 
L 1259 4147 
z
M 628 4666 
L 1925 4666 
Q 3281 4666 3915 4102 
Q 4550 3538 4550 2338 
Q 4550 1131 3912 565 
Q 3275 0 1925 0 
L 628 0 
L 628 4666 
z
" transform="scale(0.015625)"/>
       <path id="DejaVuSans-61" d="M 2194 1759 
Q 1497 1759 1228 1600 
Q 959 1441 959 1056 
Q 959 750 1161 570 
Q 1363 391 1709 391 
Q 2188 391 2477 730 
Q 2766 1069 2766 1631 
L 2766 1759 
L 2194 1759 
z
M 3341 1997 
L 3341 0 
L 2766 0 
L 2766 531 
Q 2569 213 2275 61 
Q 1981 -91 1556 -91 
Q 1019 -91 701 211 
Q 384 513 384 1019 
Q 384 1609 779 1909 
Q 1175 2209 1959 2209 
L 2766 2209 
L 2766 2266 
Q 2766 2663 2505 2880 
Q 2244 3097 1772 3097 
Q 1472 3097 1187 3025 
Q 903 2953 641 2809 
L 641 3341 
Q 956 3463 1253 3523 
Q 1550 3584 1831 3584 
Q 2591 3584 2966 3190 
Q 3341 2797 3341 1997 
z
" transform="scale(0.015625)"/>
       <path id="DejaVuSans-74" d="M 1172 4494 
L 1172 3500 
L 2356 3500 
L 2356 3053 
L 1172 3053 
L 1172 1153 
Q 1172 725 1289 603 
Q 1406 481 1766 481 
L 2356 481 
L 2356 0 
L 1766 0 
Q 1100 0 847 248 
Q 594 497 594 1153 
L 594 3053 
L 172 3053 
L 172 3500 
L 594 3500 
L 594 4494 
L 1172 4494 
z
" transform="scale(0.015625)"/>
       <path id="DejaVuSans-65" d="M 3597 1894 
L 3597 1613 
L 953 1613 
Q 991 1019 1311 708 
Q 1631 397 2203 397 
Q 2534 397 2845 478 
Q 3156 559 3463 722 
L 3463 178 
Q 3153 47 2828 -22 
Q 2503 -91 2169 -91 
Q 1331 -91 842 396 
Q 353 884 353 1716 
Q 353 2575 817 3079 
Q 1281 3584 2069 3584 
Q 2775 3584 3186 3129 
Q 3597 2675 3597 1894 
z
M 3022 2063 
Q 3016 2534 2758 2815 
Q 2500 3097 2075 3097 
Q 1594 3097 1305 2825 
Q 1016 2553 972 2059 
L 3022 2063 
z
" transform="scale(0.015625)"/>
      </defs>
      <use xlink:href="#DejaVuSans-44"/>
      <use xlink:href="#DejaVuSans-61" x="77.001953"/>
      <use xlink:href="#DejaVuSans-74" x="138.28125"/>
      <use xlink:href="#DejaVuSans-65" x="177.490234"/>
     </g>
    </g>
   </g>
   <g id="matplotlib.axis_2">
    <g id="ytick_1">
     <g id="line2d_6">
      <path d="M 46.965625 341.573082 
L 604.965625 341.573082 
" clip-path="url(#pb571292283)" style="fill: none; stroke: #dcdcdc; stroke-width: 0.5; stroke-linecap: square"/>
     </g>
     <g id="line2d_7">
      <defs>
       <path id="m6aac911e95" d="M 0 0 
L -3.5 0 
" style="stroke: #000000; stroke-width: 0.8"/>
      </defs>
      <g>
       <use xlink:href="#m6aac911e95" x="46.965625" y="341.573082" style="stroke: #000000; stroke-width: 0.8"/>
      </g>
     </g>
     <g id="text_7">
      <!-- 0 -->
      <g transform="translate(33.603125 345.372301)scale(0.1 -0.1)">
       <use xlink:href="#DejaVuSans-30"/>
      </g>
     </g>
    </g>
    <g id="ytick_2">
     <g id="line2d_8">
      <path d="M 46.965625 304.480739 
L 604.965625 304.480739 
" clip-path="url(#pb571292283)" style="fill: none; stroke: #dcdcdc; stroke-width: 0.5; stroke-linecap: square"/>
     </g>
     <g id="line2d_9">
      <g>
       <use xlink:href="#m6aac911e95" x="46.965625" y="304.480739" style="stroke: #000000; stroke-width: 0.8"/>
      </g>
     </g>
     <g id="text_8">
      <!-- 50 -->
      <g transform="translate(27.240625 308.279958)scale(0.1 -0.1)">
       <use xlink:href="#DejaVuSans-35"/>
       <use xlink:href="#DejaVuSans-30" x="63.623047"/>
      </g>
     </g>
    </g>
    <g id="ytick_3">
     <g id="line2d_10">
      <path d="M 46.965625 267.388396 
L 604.965625 267.388396 
" clip-path="url(#pb571292283)" style="fill: none; stroke: #dcdcdc; stroke-width: 0.5; stroke-linecap: square"/>
     </g>
     <g id="line2d_11">
      <g>
       <use xlink:href="#m6aac911e95" x="46.965625" y="267.388396" style="stroke: #000000; stroke-width: 0.8"/>
      </g>
     </g>
     <g id="text_9">
      <!-- 100 -->
      <g transform="translate(20.878125 271.187615)scale(0.1 -0.1)">
       <use xlink:href="#DejaVuSans-31"/>
       <use xlink:href="#DejaVuSans-30" x="63.623047"/>
       <use xlink:href="#DejaVuSans-30" x="127.246094"/>
      </g>
     </g>
    </g>
    <g id="ytick_4">
     <g id="line2d_12">
      <path d="M 46.965625 230.296053 
L 604.965625 230.296053 
" clip-path="url(#pb571292283)" style="fill: none; stroke: #dcdcdc; stroke-width: 0.5; stroke-linecap: square"/>
     </g>
     <g id="line2d_13">
      <g>
       <use xlink:href="#m6aac911e95" x="46.965625" y="230.296053" style="stroke: #000000; stroke-width: 0.8"/>
      </g>
     </g>
     <g id="text_10">
      <!-- 150 -->
      <g transform="translate(20.878125 234.095272)scale(0.1 -0.1)">
       <use xlink:href="#DejaVuSans-31"/>
       <use xlink:href="#DejaVuSans-35" x="63.623047"/>
       <use xlink:href="#DejaVuSans-30" x="127.246094"/>
      </g>
     </g>
    </g>
    <g id="ytick_5">
     <g id="line2d_14">
      <path d="M 46.965625 193.20371 
L 604.965625 193.20371 
" clip-path="url(#pb571292283)" style="fill: none; stroke: #dcdcdc; stroke-width: 0.5; stroke-linecap: square"/>
     </g>
     <g id="line2d_15">
      <g>
       <use xlink:href="#m6aac911e95" x="46.965625" y="193.20371" style="stroke: #000000; stroke-width: 0.8"/>
      </g>
     </g>
     <g id="text_11">
      <!-- 200 -->
      <g transform="translate(20.878125 197.002929)scale(0.1 -0.1)">
       <use xlink:href="#DejaVuSans-32"/>
       <use xlink:href="#DejaVuSans-30" x="63.623047"/>
       <use xlink:href="#DejaVuSans-30" x="127.246094"/>
      </g>
     </g>
    </g>
    <g id="ytick_6">
     <g id="line2d_16">
      <path d="M 46.965625 156.111367 
L 604.965625 156.111367 
" clip-path="url(#pb571292283)" style="fill: none; stroke: #dcdcdc; stroke-width: 0.5; stroke-linecap: square"/>
     </g>
     <g id="line2d_17">
      <g>
       <use xlink:href="#m6aac911e95" x="46.965625" y="156.111367" style="stroke: #000000; stroke-width: 0.8"/>
      </g>
     </g>
     <g id="text_12">
      <!-- 250 -->
      <g transform="translate(20.878125 159.910586)scale(0.1 -0.1)">
       <use xlink:href="#DejaVuSans-32"/>
       <use xlink:href="#DejaVuSans-35" x="63.623047"/>
       <use xlink:href="#DejaVuSans-30" x="127.246094"/>
      </g>
     </g>
    </g>
    <g id="ytick_7">
     <g id="line2d_18">
      <path d="M 46.965625 119.019024 
L 604.965625 119.019024 
" clip-path="url(#pb571292283)" style="fill: none; stroke: #dcdcdc; stroke-width: 0.5; stroke-linecap: square"/>
     </g>
     <g id="line2d_19">
      <g>
       <use xlink:href="#m6aac911e95" x="46.965625" y="119.019024" style="stroke: #000000; stroke-width: 0.8"/>
      </g>
     </g>
     <g id="text_13">
      <!-- 300 -->
      <g transform="translate(20.878125 122.818243)scale(0.1 -0.1)">
       <defs>
        <path id="DejaVuSans-33" d="M 2597 2516 
Q 3050 2419 3304 2112 
Q 3559 1806 3559 1356 
Q 3559 666 3084 287 
Q 2609 -91 1734 -91 
Q 1441 -91 1130 -33 
Q 819 25 488 141 
L 488 750 
Q 750 597 1062 519 
Q 1375 441 1716 441 
Q 2309 441 2620 675 
Q 2931 909 2931 1356 
Q 2931 1769 2642 2001 
Q 2353 2234 1838 2234 
L 1294 2234 
L 1294 2753 
L 1863 2753 
Q 2328 2753 2575 2939 
Q 2822 3125 2822 3475 
Q 2822 3834 2567 4026 
Q 2313 4219 1838 4219 
Q 1578 4219 1281 4162 
Q 984 4106 628 3988 
L 628 4550 
Q 988 4650 1302 4700 
Q 1616 4750 1894 4750 
Q 2613 4750 3031 4423 
Q 3450 4097 3450 3541 
Q 3450 3153 3228 2886 
Q 3006 2619 2597 2516 
z
" transform="scale(0.015625)"/>
       </defs>
       <use xlink:href="#DejaVuSans-33"/>
       <use xlink:href="#DejaVuSans-30" x="63.623047"/>
       <use xlink:href="#DejaVuSans-30" x="127.246094"/>
      </g>
     </g>
    </g>
    <g id="ytick_8">
     <g id="line2d_20">
      <path d="M 46.965625 81.926681 
L 604.965625 81.926681 
" clip-path="url(#pb571292283)" style="fill: none; stroke: #dcdcdc; stroke-width: 0.5; stroke-linecap: square"/>
     </g>
     <g id="line2d_21">
      <g>
       <use xlink:href="#m6aac911e95" x="46.965625" y="81.926681" style="stroke: #000000; stroke-width: 0.8"/>
      </g>
     </g>
     <g id="text_14">
      <!-- 350 -->
      <g transform="translate(20.878125 85.7259)scale(0.1 -0.1)">
       <use xlink:href="#DejaVuSans-33"/>
       <use xlink:href="#DejaVuSans-35" x="63.623047"/>
       <use xlink:href="#DejaVuSans-30" x="127.246094"/>
      </g>
     </g>
    </g>
    <g id="ytick_9">
     <g id="line2d_22">
      <path d="M 46.965625 44.834338 
L 604.965625 44.834338 
" clip-path="url(#pb571292283)" style="fill: none; stroke: #dcdcdc; stroke-width: 0.5; stroke-linecap: square"/>
     </g>
     <g id="line2d_23">
      <g>
       <use xlink:href="#m6aac911e95" x="46.965625" y="44.834338" style="stroke: #000000; stroke-width: 0.8"/>
      </g>
     </g>
     <g id="text_15">
      <!-- 400 -->
      <g transform="translate(20.878125 48.633557)scale(0.1 -0.1)">
       <defs>
        <path id="DejaVuSans-34" d="M 2419 4116 
L 825 1625 
L 2419 1625 
L 2419 4116 
z
M 2253 4666 
L 3047 4666 
L 3047 1625 
L 3713 1625 
L 3713 1100 
L 3047 1100 
L 3047 0 
L 2419 0 
L 2419 1100 
L 313 1100 
L 313 1709 
L 2253 4666 
z
" transform="scale(0.015625)"/>
       </defs>
       <use xlink:href="#DejaVuSans-34"/>
       <use xlink:href="#DejaVuSans-30" x="63.623047"/>
       <use xlink:href="#DejaVuSans-30" x="127.246094"/>
      </g>
     </g>
    </g>
    <g id="text_16">
     <!-- Price (USD) -->
     <g transform="translate(14.798437 217.01)rotate(-90)scale(0.1 -0.1)">
      <defs>
       <path id="DejaVuSans-50" d="M 1259 4147 
L 1259 2394 
L 2053 2394 
Q 2494 2394 2734 2622 
Q 2975 2850 2975 3272 
Q 2975 3691 2734 3919 
Q 2494 4147 2053 4147 
L 1259 4147 
z
M 628 4666 
L 2053 4666 
Q 2838 4666 3239 4311 
Q 3641 3956 3641 3272 
Q 3641 2581 3239 2228 
Q 2838 1875 2053 1875 
L 1259 1875 
L 1259 0 
L 628 0 
L 628 4666 
z
" transform="scale(0.015625)"/>
       <path id="DejaVuSans-72" d="M 2631 2963 
Q 2534 3019 2420 3045 
Q 2306 3072 2169 3072 
Q 1681 3072 1420 2755 
Q 1159 2438 1159 1844 
L 1159 0 
L 581 0 
L 581 3500 
L 1159 3500 
L 1159 2956 
Q 1341 3275 1631 3429 
Q 1922 3584 2338 3584 
Q 2397 3584 2469 3576 
Q 2541 3569 2628 3553 
L 2631 2963 
z
" transform="scale(0.015625)"/>
       <path id="DejaVuSans-69" d="M 603 3500 
L 1178 3500 
L 1178 0 
L 603 0 
L 603 3500 
z
M 603 4863 
L 1178 4863 
L 1178 4134 
L 603 4134 
L 603 4863 
z
" transform="scale(0.015625)"/>
       <path id="DejaVuSans-63" d="M 3122 3366 
L 3122 2828 
Q 2878 2963 2633 3030 
Q 2388 3097 2138 3097 
Q 1578 3097 1268 2742 
Q 959 2388 959 1747 
Q 959 1106 1268 751 
Q 1578 397 2138 397 
Q 2388 397 2633 464 
Q 2878 531 3122 666 
L 3122 134 
Q 2881 22 2623 -34 
Q 2366 -91 2075 -91 
Q 1284 -91 818 406 
Q 353 903 353 1747 
Q 353 2603 823 3093 
Q 1294 3584 2113 3584 
Q 2378 3584 2631 3529 
Q 2884 3475 3122 3366 
z
" transform="scale(0.015625)"/>
       <path id="DejaVuSans-20" transform="scale(0.015625)"/>
       <path id="DejaVuSans-28" d="M 1984 4856 
Q 1566 4138 1362 3434 
Q 1159 2731 1159 2009 
Q 1159 1288 1364 580 
Q 1569 -128 1984 -844 
L 1484 -844 
Q 1016 -109 783 600 
Q 550 1309 550 2009 
Q 550 2706 781 3412 
Q 1013 4119 1484 4856 
L 1984 4856 
z
" transform="scale(0.015625)"/>
       <path id="DejaVuSans-55" d="M 556 4666 
L 1191 4666 
L 1191 1831 
Q 1191 1081 1462 751 
Q 1734 422 2344 422 
Q 2950 422 3222 751 
Q 3494 1081 3494 1831 
L 3494 4666 
L 4128 4666 
L 4128 1753 
Q 4128 841 3676 375 
Q 3225 -91 2344 -91 
Q 1459 -91 1007 375 
Q 556 841 556 1753 
L 556 4666 
z
" transform="scale(0.015625)"/>
       <path id="DejaVuSans-53" d="M 3425 4513 
L 3425 3897 
Q 3066 4069 2747 4153 
Q 2428 4238 2131 4238 
Q 1616 4238 1336 4038 
Q 1056 3838 1056 3469 
Q 1056 3159 1242 3001 
Q 1428 2844 1947 2747 
L 2328 2669 
Q 3034 2534 3370 2195 
Q 3706 1856 3706 1288 
Q 3706 609 3251 259 
Q 2797 -91 1919 -91 
Q 1588 -91 1214 -16 
Q 841 59 441 206 
L 441 856 
Q 825 641 1194 531 
Q 1563 422 1919 422 
Q 2459 422 2753 634 
Q 3047 847 3047 1241 
Q 3047 1584 2836 1778 
Q 2625 1972 2144 2069 
L 1759 2144 
Q 1053 2284 737 2584 
Q 422 2884 422 3419 
Q 422 4038 858 4394 
Q 1294 4750 2059 4750 
Q 2388 4750 2728 4690 
Q 3069 4631 3425 4513 
z
" transform="scale(0.015625)"/>
       <path id="DejaVuSans-29" d="M 513 4856 
L 1013 4856 
Q 1481 4119 1714 3412 
Q 1947 2706 1947 2009 
Q 1947 1309 1714 600 
Q 1481 -109 1013 -844 
L 513 -844 
Q 928 -128 1133 580 
Q 1338 1288 1338 2009 
Q 1338 2731 1133 3434 
Q 928 4138 513 4856 
z
" transform="scale(0.015625)"/>
      </defs>
      <use xlink:href="#DejaVuSans-50"/>
      <use xlink:href="#DejaVuSans-72" x="58.552734"/>
      <use xlink:href="#DejaVuSans-69" x="99.666016"/>
      <use xlink:href="#DejaVuSans-63" x="127.449219"/>
      <use xlink:href="#DejaVuSans-65" x="182.429688"/>
      <use xlink:href="#DejaVuSans-20" x="243.953125"/>
      <use xlink:href="#DejaVuSans-28" x="275.740234"/>
      <use xlink:href="#DejaVuSans-55" x="314.753906"/>
      <use xlink:href="#DejaVuSans-53" x="387.947266"/>
      <use xlink:href="#DejaVuSans-44" x="451.423828"/>
      <use xlink:href="#DejaVuSans-29" x="528.425781"/>
     </g>
    </g>
   </g>
   <g id="line2d_24">
    <path d="M 74.601989 339.540422 
L 75.283807 339.504294 
L 75.51108 339.570096 
L 76.192898 339.409338 
L 76.42017 339.431593 
L 76.874716 339.325286 
M 77.329261 339.207555 
L 77.783807 339.050284 
L 78.465625 339.040936 
L 78.692898 338.85592 
L 79.374716 338.897018 
L 79.601989 338.875208 
L 79.829261 338.630398 
L 80.056534 338.82773 
L 80.283807 338.81408 
L 80.51108 338.140779 
M 85.51108 336.900931 
L 85.738352 336.739727 
L 86.192898 336.612575 
L 86.874716 336.395956 
L 87.329261 336.649667 
L 87.556534 336.553746 
M 90.965625 336.179856 
L 91.192898 335.625919 
M 91.647443 335.654109 
L 91.874716 335.518128 
M 95.283807 334.284214 
L 95.51108 334.380654 
L 95.738352 334.680806 
L 96.192898 334.550241 
M 99.374716 333.315362 
L 99.601989 333.625454 
L 99.829261 333.345036 
L 100.056534 333.485987 
M 111.647443 335.534449 
L 112.329261 335.613604 
M 117.556534 334.133397 
L 117.783807 334.149643 
M 118.92017 334.276796 
L 119.147443 334.366263 
L 119.374716 334.681844 
M 121.42017 333.184278 
L 121.647443 332.751039 
M 122.556534 332.813874 
L 122.783807 332.733754 
L 123.01108 332.946887 
L 123.238352 332.751039 
L 123.692898 331.851921 
L 124.147443 331.913272 
L 124.374716 331.700065 
L 124.601989 331.769353 
M 137.556534 332.740654 
L 138.238352 332.168467 
M 138.692898 332.246064 
L 138.92017 332.099179 
M 141.192898 331.449321 
L 141.874716 331.340566 
L 142.101989 331.277657 
L 142.556534 331.568016 
L 142.783807 331.460745 
M 148.01108 330.713409 
L 148.465625 330.920161 
L 148.692898 330.691673 
L 150.283807 330.44486 
L 150.51108 330.251535 
L 150.738352 330.529431 
L 151.192898 329.776753 
L 151.42017 329.778236 
M 152.556534 328.716357 
L 153.01108 328.646178 
M 153.92017 328.926596 
L 154.147443 328.994327 
M 176.874716 332.043317 
L 177.556534 332.080929 
L 177.783807 331.851402 
M 188.238352 332.423662 
L 188.465625 332.14814 
L 188.92017 332.295545 
L 189.147443 332.126924 
L 189.374716 331.528476 
L 189.601989 331.521057 
L 190.056534 331.182775 
M 190.738352 331.312821 
L 191.42017 331.345981 
L 191.647443 331.421131 
L 191.874716 331.216381 
L 192.101989 330.720382 
L 192.556534 330.770531 
L 192.783807 330.121415 
L 193.01108 330.174383 
M 193.465625 330.39345 
L 193.692898 330.394414 
L 194.147443 330.052201 
L 194.374716 330.176831 
L 194.601989 329.861768 
L 194.829261 329.87119 
M 198.692898 329.258944 
L 198.92017 329.410726 
L 199.147443 329.251525 
M 199.829261 329.174373 
L 200.283807 329.174818 
L 200.51108 329.190174 
M 211.647443 330.748572 
L 211.874716 330.691153 
L 212.101989 330.453317 
M 237.783807 334.254021 
L 238.01108 334.241187 
L 238.238352 334.467673 
L 238.465625 334.131394 
L 238.692898 334.103204 
L 238.92017 333.898899 
L 239.147443 333.230792 
L 239.601989 333.33465 
L 239.829261 332.782716 
L 240.056534 332.808903 
L 240.283807 332.720401 
L 240.51108 332.303483 
L 240.965625 332.080929 
L 241.192898 332.356896 
L 241.42017 332.258453 
M 243.01108 331.310892 
L 243.238352 330.93255 
L 243.692898 330.597235 
M 253.465625 331.451324 
L 253.692898 331.129362 
M 259.147443 331.846951 
L 259.374716 331.859859 
L 259.601989 332.020543 
L 260.283807 331.177805 
M 284.601989 332.206005 
L 284.829261 332.577967 
L 285.056534 332.598219 
L 285.283807 332.334641 
L 285.51108 332.3816 
L 285.738352 332.020543 
L 286.42017 332.056151 
L 286.647443 331.773285 
L 287.101989 331.801475 
L 287.329261 331.558669 
L 287.556534 331.546799 
L 287.783807 331.247093 
L 288.238352 331.263859 
L 288.692898 330.715931 
L 288.92017 330.705545 
L 289.147443 330.95577 
L 289.374716 331.004732 
L 289.601989 330.841526 
L 289.829261 330.346936 
L 290.056534 330.358806 
L 290.51108 330.134768 
L 290.965625 330.211475 
L 291.192898 330.218374 
L 291.42017 329.81481 
L 291.647443 329.922155 
L 292.556534 329.262356 
L 292.783807 328.980974 
L 293.238352 329.084832 
M 293.692898 329.177786 
L 293.92017 329.113542 
L 294.147443 329.246555 
M 299.601989 329.363767 
L 300.056534 329.521038 
L 300.283807 329.398411 
L 300.51108 328.813316 
L 300.738352 328.925558 
L 300.965625 328.613018 
L 301.42017 328.619472 
L 301.647443 329.175338 
L 301.874716 328.961166 
L 302.101989 328.972591 
L 302.329261 328.558121 
M 310.283807 325.950752 
L 310.51108 325.894891 
L 310.738352 326.433991 
L 310.965625 326.090219 
L 311.42017 326.224271 
L 311.647443 326.545268 
L 312.329261 325.49281 
L 312.556534 325.000223 
M 313.01108 324.739613 
L 313.238352 324.76528 
L 313.465625 324.395841 
M 326.647443 324.359787 
L 326.874716 324.477963 
M 345.738352 325.881018 
L 345.965625 326.160472 
L 346.192898 325.976494 
L 346.42017 326.17479 
L 346.647443 325.720779 
L 346.874716 325.883021 
M 368.238352 327.882521 
L 368.465625 327.503215 
L 368.692898 327.972062 
L 368.92017 327.771244 
L 369.374716 327.782149 
L 369.829261 327.145645 
L 370.056534 327.491345 
M 390.51108 329.181272 
L 390.738352 328.575925 
L 391.192898 329.098705 
L 391.42017 328.77474 
L 391.647443 328.73468 
L 391.874716 327.893945 
L 392.556534 328.714428 
L 392.783807 328.667395 
M 397.783807 324.847403 
L 398.01108 325.458685 
M 426.42017 332.240649 
L 426.647443 332.183304 
L 427.101989 332.415725 
L 427.329261 332.721885 
L 427.556534 331.998287 
M 430.283807 330.71148 
L 430.738352 330.512665 
L 430.965625 330.704506 
L 431.192898 330.728765 
L 431.42017 330.552205 
L 431.647443 330.521567 
L 431.874716 330.338034 
L 432.101989 330.467635 
L 432.329261 329.95576 
M 440.51108 331.118012 
L 440.738352 330.939969 
L 440.965625 330.985444 
L 441.192898 330.91074 
L 441.42017 330.608066 
M 445.283807 330.533882 
L 445.51108 330.262366 
M 446.874716 330.048269 
L 447.101989 330.12735 
L 447.329261 329.816293 
L 448.238352 329.313321 
L 448.465625 328.864726 
L 449.147443 328.616949 
L 449.601989 329.03587 
L 449.829261 328.932976 
L 450.056534 328.977487 
L 450.283807 326.751946 
M 450.965625 325.933986 
L 451.647443 326.077904 
M 455.056534 325.102079 
L 455.283807 324.938873 
L 455.51108 325.305864 
L 455.738352 325.188652 
L 455.965625 325.255419 
L 456.192898 325.011574 
L 456.42017 324.945846 
L 456.874716 325.234128 
L 458.01108 323.784559 
L 458.238352 323.848358 
L 458.465625 322.705469 
L 458.692898 322.829579 
L 459.147443 321.590695 
L 459.374716 321.514062 
L 459.601989 320.839946 
L 460.056534 320.260341 
L 460.283807 320.288012 
L 460.51108 321.063465 
L 460.738352 320.883938 
L 461.647443 318.375012 
L 461.874716 317.233606 
L 462.101989 317.767736 
L 462.329261 317.925452 
L 462.556534 315.615341 
L 462.783807 314.969415 
M 463.238352 316.177661 
L 463.465625 316.325511 
L 463.692898 314.510509 
M 464.374716 313.639061 
L 464.601989 313.97534 
L 464.829261 313.536167 
L 465.056534 312.83935 
L 465.283807 309.880865 
L 465.51108 309.398145 
M 473.238352 320.428963 
L 473.465625 320.094613 
L 473.692898 316.597547 
L 473.92017 314.903688 
L 474.601989 316.739462 
M 475.056534 317.756831 
L 475.283807 319.096606 
L 475.738352 316.041681 
L 475.965625 314.597008 
L 476.192898 314.429351 
L 476.42017 313.234532 
M 482.329261 301.333825 
L 482.556534 301.611721 
L 482.783807 301.238349 
M 486.42017 295.317447 
L 486.647443 292.566679 
L 486.874716 293.000362 
L 487.329261 291.920753 
L 487.556534 292.072089 
L 487.783807 292.397538 
L 488.01108 292.028543 
L 488.238352 294.05282 
L 488.465625 292.810004 
L 488.692898 294.107717 
L 489.374716 286.200149 
M 493.465625 268.551093 
L 493.692898 267.432388 
L 493.92017 268.007097 
L 494.147443 270.812761 
L 494.374716 268.130243 
L 494.601989 268.031281 
L 494.829261 268.129205 
L 495.056534 267.903683 
L 495.738352 273.600622 
L 495.965625 264.680136 
L 496.192898 261.40414 
M 502.556534 247.516767 
L 502.783807 245.679509 
M 508.692898 245.617639 
L 508.92017 242.534078 
L 509.147443 236.750121 
L 509.374716 237.47216 
L 509.601989 233.241185 
L 510.283807 240.098298 
L 510.51108 238.424247 
L 510.965625 240.558243 
L 511.192898 240.659654 
L 511.42017 232.370776 
M 515.738352 184.981599 
L 515.965625 187.573093 
L 516.192898 179.380655 
M 516.647443 180.874215 
L 516.874716 183.228392 
L 517.101989 181.83372 
L 517.329261 177.929083 
L 517.783807 176.885602 
L 518.01108 169.76632 
L 518.238352 167.073416 
L 518.465625 161.113937 
L 518.692898 159.79345 
M 542.101989 199.919947 
L 542.329261 193.438653 
L 542.556534 191.935152 
L 542.783807 192.316016 
L 543.01108 193.505419 
L 543.238352 190.701238 
L 543.465625 190.758138 
L 543.692898 188.829336 
L 543.92017 193.36202 
M 548.465625 180.003806 
L 548.692898 180.691276 
L 548.92017 182.268888 
M 549.829261 181.022585 
L 550.056534 182.476605 
L 550.283807 178.955354 
M 553.92017 176.954816 
L 554.147443 171.198084 
L 554.374716 175.035881 
L 554.601989 173.356859 
M 555.283807 165.705969 
L 555.51108 168.188634 
L 555.738352 165.527926 
M 559.147443 161.014975 
L 559.829261 155.211284 
L 560.283807 145.883821 
L 560.51108 149.296317 
L 560.738352 148.369008 
L 560.965625 149.810639 
L 561.192898 149.874957 
L 561.42017 148.314557 
L 561.647443 148.547052 
L 561.874716 148.012922 
L 562.101989 145.327436 
L 562.329261 147.335319 
L 562.556534 145.740348 
L 562.783807 142.332823 
L 563.238352 139.217066 
L 563.692898 126.410341 
L 563.92017 127.85442 
M 572.556534 102.597057 
" clip-path="url(#pb571292283)" style="fill: none; stroke: #00ff7f; stroke-linecap: square"/>
   </g>
   <g id="line2d_25">
    <path d="M 108.238352 333.662992 
L 108.465625 333.552753 
L 108.692898 332.908311 
L 108.92017 332.828711 
L 109.147443 334.097269 
M 127.101989 328.969623 
L 127.783807 329.396408 
M 155.738352 327.521538 
L 155.965625 327.666421 
L 156.192898 327.426582 
L 156.42017 327.854331 
L 156.647443 327.620946 
L 156.874716 327.800473 
L 157.101989 327.670872 
L 157.329261 327.709967 
M 161.192898 328.683716 
L 161.42017 328.735645 
M 167.556534 329.124892 
L 167.783807 328.779711 
L 168.01108 329.012131 
L 168.238352 328.828153 
L 168.465625 329.32074 
L 168.692898 329.272742 
L 168.92017 329.566068 
L 169.374716 329.303454 
L 169.601989 329.286095 
M 173.238352 330.7278 
L 173.465625 330.564075 
L 173.692898 330.644714 
L 173.92017 330.580915 
L 174.147443 330.305912 
L 174.829261 330.573496 
M 182.556534 330.835591 
L 182.783807 331.319052 
M 208.465625 328.403817 
L 208.692898 328.213385 
M 215.283807 328.603151 
L 215.738352 328.683716 
L 215.965625 328.506711 
L 216.192898 328.667914 
L 216.647443 328.560124 
L 216.874716 328.867249 
M 218.01108 329.329122 
L 218.238352 329.399375 
M 229.829261 329.975048 
L 230.738352 330.20057 
M 231.647443 329.84248 
L 232.101989 329.703013 
L 232.329261 330.524015 
L 232.556534 330.523051 
L 233.01108 330.907772 
M 233.692898 331.18871 
L 233.92017 331.666459 
L 234.147443 331.376175 
L 234.601989 331.448356 
L 234.829261 331.746059 
L 235.283807 331.555702 
L 235.738352 332.00029 
M 248.01108 328.984905 
L 248.238352 329.116954 
L 248.465625 328.985944 
L 248.692898 329.017102 
L 248.92017 329.339063 
L 249.147443 329.210427 
L 249.374716 329.293514 
L 249.601989 329.023481 
L 249.829261 329.118957 
L 250.056534 329.024001 
L 250.51108 329.322223 
L 250.738352 329.665921 
M 256.647443 330.082394 
L 256.874716 329.925122 
M 266.647443 330.243597 
L 267.101989 330.44983 
L 267.556534 330.416225 
L 268.01108 330.532398 
L 269.147443 330.56311 
L 269.374716 330.645159 
M 295.965625 327.695576 
L 296.42017 327.737119 
L 296.647443 328.271768 
L 297.101989 327.854331 
M 315.056534 322.747012 
L 315.51108 323.204954 
L 315.738352 323.284109 
M 316.42017 322.650572 
L 316.647443 322.609028 
L 316.874716 322.903764 
M 330.056534 322.532321 
L 330.283807 323.02194 
M 334.147443 323.98241 
L 334.374716 323.987825 
L 334.601989 324.233673 
L 335.056534 323.786043 
L 335.738352 324.905267 
M 355.056534 323.896355 
L 355.283807 324.214385 
M 356.647443 325.138726 
L 357.101989 325.392438 
L 357.329261 324.485382 
L 357.556534 324.666912 
M 380.738352 322.80087 
L 380.965625 323.257403 
L 381.192898 324.142129 
L 381.647443 323.946282 
L 382.101989 324.822699 
L 382.329261 324.982938 
L 382.556534 326.46411 
M 412.329261 326.007132 
L 412.556534 325.752975 
M 418.465625 327.97451 
L 418.92017 328.105594 
L 419.147443 327.920133 
M 422.556534 329.500786 
L 422.783807 328.960202 
L 423.01108 328.944846 
L 423.238352 329.354345 
L 423.92017 329.727272 
L 424.147443 330.345972 
L 424.374716 330.083877 
L 424.601989 330.101682 
M 468.01108 299.119635 
L 468.238352 296.20069 
L 468.465625 297.091425 
L 468.692898 297.012789 
L 468.92017 300.336783 
L 469.374716 303.056393 
L 469.601989 307.992123 
M 470.056534 304.796247 
L 470.51108 304.505443 
M 522.783807 133.902995 
L 523.01108 125.747575 
L 523.238352 130.223434 
L 523.465625 131.385611 
L 523.692898 130.831749 
L 523.92017 128.06466 
L 524.147443 131.516696 
L 524.374716 142.555377 
L 524.829261 139.761062 
L 525.056534 144.682029 
M 535.283807 157.565387 
L 535.51108 163.606543 
L 535.965625 159.029348 
L 536.192898 167.303388 
L 536.42017 169.860312 
L 536.647443 174.163024 
L 536.874716 166.141137 
L 537.101989 172.209444 
M 570.283807 60.415645 
L 570.51108 58.494261 
M 575.738352 44.88879 
L 575.965625 57.299888 
M 576.42017 78.291632 
L 576.647443 87.624065 
M 577.329261 68.024471 
" clip-path="url(#pb571292283)" style="fill: none; stroke: #ff4500; stroke-linecap: square"/>
   </g>
   <g id="line2d_26">
    <path d="M 72.329261 339.838125 
L 72.556534 339.795098 
M 73.01108 339.762012 
L 73.692898 339.685824 
M 74.147443 339.400435 
L 74.374716 339.380183 
M 80.738352 337.776607 
L 80.965625 337.23083 
L 81.192898 337.456351 
L 81.42017 337.377122 
L 81.647443 337.010798 
L 82.101989 337.124968 
L 82.556534 337.258501 
L 83.01108 336.771849 
L 83.238352 336.116353 
L 83.465625 336.398478 
L 83.692898 336.382602 
L 84.147443 336.993884 
L 85.056534 336.526521 
L 85.283807 336.624964 
M 87.783807 336.508716 
L 88.238352 336.169989 
L 88.465625 336.263462 
L 88.692898 335.777849 
L 88.92017 335.746098 
L 89.147443 335.873695 
L 89.374716 335.633856 
L 89.829261 335.467683 
L 90.056534 335.526066 
L 90.51108 335.148688 
L 90.738352 335.279253 
M 92.101989 335.502772 
L 92.329261 335.554256 
L 92.556534 335.437044 
L 93.01108 334.915229 
L 93.238352 335.057664 
L 93.92017 334.748091 
L 94.147443 334.417747 
L 94.374716 334.542822 
M 94.829261 333.982505 
L 95.056534 334.006244 
M 96.42017 334.406842 
L 96.647443 334.175385 
L 96.874716 334.260475 
L 97.329261 333.569074 
L 97.783807 333.313359 
L 98.238352 333.360318 
L 98.465625 333.214916 
L 99.147443 333.168922 
M 100.283807 333.416253 
L 101.192898 333.352529 
L 101.42017 332.773814 
L 101.647443 332.503263 
L 101.874716 332.616023 
L 102.329261 332.411867 
L 103.01108 332.009712 
L 103.238352 332.027961 
L 103.692898 333.001784 
L 103.92017 332.622477 
L 104.147443 332.519064 
L 104.601989 333.225821 
L 105.51108 332.476037 
L 105.965625 332.532343 
M 106.42017 333.036873 
L 106.647443 333.089322 
L 106.874716 333.43747 
L 107.101989 333.009721 
L 107.329261 333.182275 
L 107.556534 333.518628 
M 109.374716 334.660479 
L 109.601989 334.750539 
M 110.056534 334.757958 
L 110.51108 334.767898 
L 110.738352 334.874205 
L 110.965625 335.560191 
L 111.192898 335.337118 
L 111.42017 335.583411 
M 112.556534 335.295055 
L 112.783807 335.278289 
L 113.01108 335.432074 
L 113.238352 334.416708 
L 113.465625 334.701132 
L 113.692898 334.625464 
L 113.92017 334.779768 
L 114.147443 334.570048 
L 114.374716 334.540893 
L 114.601989 334.666488 
L 114.829261 334.279763 
L 115.283807 334.256469 
L 115.51108 334.032951 
L 115.965625 334.613594 
L 116.42017 334.473608 
L 116.874716 333.882578 
L 117.101989 334.099198 
L 117.329261 334.033915 
M 118.01108 334.17635 
L 118.238352 334.302983 
L 118.692898 334.091334 
M 119.601989 333.597264 
L 119.829261 333.455794 
L 120.056534 333.117512 
L 120.283807 333.16499 
L 120.51108 332.835091 
L 120.965625 332.596735 
L 121.192898 332.937985 
M 121.874716 332.906827 
L 122.101989 332.530488 
L 122.329261 332.601186 
M 125.283807 331.18871 
L 125.51108 331.207034 
L 125.738352 330.808884 
L 125.965625 329.307906 
L 126.192898 329.060574 
L 126.42017 329.083349 
L 126.647443 329.465622 
L 126.874716 329.181272 
M 128.01108 329.760877 
L 128.238352 329.980019 
L 128.465625 329.629867 
L 128.692898 329.812807 
L 128.92017 330.150124 
L 129.147443 330.001236 
L 129.374716 329.70153 
L 129.601989 329.909247 
L 129.829261 329.955241 
L 130.965625 331.319794 
L 131.192898 331.070014 
L 131.42017 331.263859 
L 131.647443 330.84249 
L 131.874716 330.18373 
L 132.101989 330.425572 
L 132.329261 331.07721 
L 132.556534 331.309853 
L 132.783807 330.917194 
L 133.01108 330.844493 
L 133.238352 331.474543 
L 133.465625 331.49487 
L 133.92017 331.983005 
L 134.147443 331.725807 
L 134.374716 331.774769 
L 134.601989 331.465196 
M 135.056534 331.286634 
L 135.283807 331.293088 
L 135.51108 331.689234 
L 135.738352 331.755481 
L 135.965625 331.339527 
L 136.647443 331.142196 
L 136.874716 330.860294 
L 137.329261 331.615049 
M 139.147443 331.875141 
L 139.374716 331.914236 
L 140.283807 331.110074 
M 140.738352 331.175357 
L 140.965625 331.297539 
M 143.01108 331.507704 
L 143.238352 331.364305 
L 143.465625 330.464667 
L 143.692898 330.11548 
L 143.92017 330.340556 
L 144.374716 330.218374 
L 144.601989 329.840997 
L 144.829261 330.074456 
L 145.056534 329.857317 
L 145.283807 329.921116 
L 145.738352 329.700565 
L 145.965625 329.717405 
L 146.192898 330.226535 
L 146.42017 330.235214 
L 146.874716 330.738631 
L 147.101989 330.5413 
L 147.556534 330.785145 
L 147.783807 330.361328 
M 151.647443 329.261911 
L 151.874716 329.090767 
M 153.238352 328.615021 
L 153.692898 328.874667 
M 154.374716 328.873628 
L 154.601989 328.588314 
L 154.829261 328.628374 
L 155.283807 328.523477 
L 155.51108 328.234676 
M 157.556534 327.764864 
L 157.783807 329.018066 
L 158.01108 328.677781 
L 158.465625 328.52548 
L 158.692898 328.748034 
L 158.92017 329.207459 
L 159.374716 329.103156 
L 159.601989 329.359835 
L 160.056534 329.443367 
L 160.51108 329.691663 
L 160.738352 329.138764 
L 160.965625 328.9513 
M 161.647443 328.750037 
L 161.874716 328.862278 
L 162.329261 330.465632 
L 162.783807 330.212959 
L 163.01108 330.378613 
L 163.465625 330.174828 
L 163.692898 329.934024 
L 163.92017 330.14367 
L 164.147443 329.936472 
L 164.374716 329.93892 
M 164.829261 329.566513 
L 165.056534 329.797524 
L 165.283807 329.769779 
L 165.738352 329.575416 
L 165.965625 329.756426 
L 166.192898 330.150124 
L 166.42017 329.64322 
L 166.647443 329.693666 
L 166.874716 329.608057 
L 167.101989 329.15553 
L 167.329261 329.253454 
M 169.829261 329.480014 
L 170.056534 330.116964 
L 170.51108 330.232692 
L 170.738352 330.283137 
L 170.965625 330.509178 
L 171.192898 330.971571 
L 171.42017 330.846496 
L 171.647443 331.195164 
L 172.101989 331.335596 
L 172.329261 331.481962 
L 172.556534 331.790125 
L 173.01108 330.778691 
M 175.056534 330.726762 
L 175.283807 331.182775 
L 175.738352 331.140267 
L 175.965625 331.15681 
L 176.42017 331.572467 
L 176.647443 331.471576 
M 178.01108 331.601696 
L 178.238352 331.618017 
L 178.465625 331.357851 
L 178.692898 331.386041 
L 178.92017 331.712973 
L 179.147443 331.424617 
L 179.374716 331.503772 
L 179.829261 330.773795 
L 180.056534 330.764373 
L 180.283807 330.643675 
L 180.51108 330.823202 
L 180.965625 330.87617 
L 181.192898 331.048723 
L 181.42017 331.539381 
L 182.101989 331.46119 
L 182.329261 331.102878 
M 183.01108 331.478549 
L 183.238352 331.495835 
L 183.465625 331.326174 
L 183.92017 331.814087 
L 184.374716 331.56134 
L 184.601989 331.650658 
L 185.056534 332.132858 
L 185.283807 332.160529 
L 185.51108 331.991388 
L 185.965625 332.241613 
L 186.192898 331.894429 
L 186.42017 331.942426 
L 186.647443 331.646652 
L 186.874716 331.896951 
L 187.556534 331.596726 
L 188.01108 332.156301 
M 190.283807 331.142715 
L 190.51108 331.198131 
M 195.056534 329.728755 
L 195.283807 329.469109 
L 195.51108 329.546261 
L 195.738352 329.500786 
L 195.965625 329.266362 
L 196.42017 329.350413 
L 196.647443 329.488397 
L 198.01108 329.169403 
L 198.465625 329.290546 
M 199.374716 328.897887 
L 199.601989 328.912204 
M 200.738352 329.054639 
L 200.965625 328.694101 
L 201.42017 328.590243 
L 201.647443 328.724814 
L 201.874716 328.335048 
L 202.101989 328.458713 
L 202.329261 328.279706 
L 202.556534 328.363757 
L 202.783807 328.614501 
L 203.01108 328.305893 
L 203.238352 328.261901 
L 203.465625 327.724285 
L 203.692898 327.739122 
L 204.147443 328.963689 
L 205.056534 328.434974 
L 205.283807 328.559085 
L 205.51108 328.384009 
L 205.738352 327.989347 
M 206.192898 328.379558 
L 206.647443 328.358342 
L 206.874716 328.446844 
L 207.101989 329.060129 
L 207.329261 328.475998 
L 207.556534 328.52548 
L 207.783807 328.378594 
L 208.01108 328.410271 
L 208.238352 328.714873 
M 208.92017 329.40034 
L 209.601989 329.833578 
L 209.829261 329.794038 
L 210.056534 329.579422 
L 210.283807 329.547745 
L 210.738352 328.678819 
L 210.965625 328.949297 
L 211.42017 330.159991 
M 212.329261 329.555682 
L 212.556534 329.284166 
L 212.783807 329.255457 
M 213.692898 329.608057 
L 213.92017 329.299449 
L 215.056534 329.032384 
M 217.101989 329.286615 
L 217.329261 329.374672 
M 218.465625 329.631351 
L 218.92017 330.36029 
L 219.374716 330.911259 
L 219.601989 330.729729 
L 219.829261 330.846941 
L 220.51108 330.29204 
L 220.738352 331.037373 
L 220.965625 331.182775 
L 221.192898 331.102136 
L 221.42017 331.232256 
L 221.647443 330.927061 
L 221.874716 331.169941 
L 222.101989 331.04086 
L 222.329261 331.106587 
L 222.556534 331.339082 
L 222.783807 330.999762 
L 223.01108 331.268829 
L 223.238352 330.117483 
L 223.692898 330.081355 
L 224.147443 330.865784 
L 224.374716 330.738186 
L 224.601989 331.041824 
M 225.056534 330.974094 
L 225.283807 330.989376 
L 225.51108 330.639743 
L 225.738352 330.603615 
L 226.42017 330.77921 
L 226.647443 330.215926 
L 226.874716 330.118447 
L 227.101989 330.185214 
L 227.329261 329.84248 
L 227.556534 330.099679 
L 227.783807 330.06407 
L 228.01108 330.179279 
L 228.238352 330.142187 
L 228.692898 330.469118 
L 228.92017 330.343004 
L 229.147443 330.840042 
L 229.601989 330.638779 
M 233.238352 331.137745 
L 233.465625 331.293533 
M 235.965625 332.271806 
L 236.42017 332.116983 
L 236.647443 331.833152 
L 237.101989 332.993401 
L 237.329261 332.901857 
L 237.556534 333.531462 
M 241.647443 331.8925 
L 242.101989 331.420166 
M 242.556534 331.250506 
L 242.783807 331.425582 
M 243.92017 330.377129 
L 244.374716 329.786619 
L 244.601989 329.988402 
M 245.056534 330.309399 
L 245.283807 330.185214 
L 245.51108 330.191668 
L 245.738352 330.351907 
L 245.965625 330.209472 
L 246.874716 328.446325 
L 247.329261 329.205531 
L 247.783807 329.316808 
M 250.965625 329.614511 
L 251.647443 331.111558 
L 251.874716 330.943381 
L 252.101989 331.240639 
L 253.238352 331.271797 
M 253.92017 330.929583 
L 254.147443 330.678839 
L 254.374716 330.879582 
L 254.829261 330.713409 
L 255.056534 330.439445 
L 255.965625 330.744121 
L 256.42017 330.659031 
M 257.101989 330.229724 
L 257.329261 330.752504 
L 258.01108 330.806436 
L 258.238352 330.795012 
L 258.465625 330.916675 
L 258.692898 330.707474 
L 258.92017 330.711925 
M 260.51108 331.074465 
L 260.738352 330.865784 
L 260.965625 330.990414 
L 261.647443 330.851911 
L 261.874716 330.456284 
L 262.329261 330.567562 
L 262.783807 330.672904 
L 263.01108 330.383584 
L 263.238352 330.432545 
L 263.465625 330.279206 
L 263.692898 330.667933 
L 263.92017 330.580395 
L 264.147443 330.197602 
L 264.829261 330.167929 
L 265.056534 329.961176 
L 265.51108 330.33655 
L 265.738352 330.406284 
L 265.965625 330.167929 
L 266.192898 330.196638 
L 266.42017 330.388035 
M 269.601989 330.693156 
L 270.056534 331.120979 
L 270.283807 331.087819 
L 270.51108 331.643685 
L 270.738352 331.791609 
L 270.965625 331.541829 
L 271.192898 331.597245 
L 271.647443 331.95526 
L 271.874716 331.765867 
M 272.329261 331.859339 
L 273.01108 331.368237 
L 273.465625 331.423653 
L 274.147443 331.237153 
L 274.374716 331.394424 
L 274.601989 331.371724 
L 274.829261 331.647171 
L 275.056534 331.482481 
L 275.283807 331.004213 
L 275.738352 331.263414 
L 276.192898 331.849473 
L 276.42017 331.634782 
L 277.329261 331.854369 
L 277.556534 331.980483 
L 278.01108 331.505701 
L 278.238352 331.726326 
L 278.692898 331.545316 
M 279.601989 331.683299 
L 279.829261 331.794057 
L 280.056534 332.137309 
L 280.51108 332.303928 
L 281.192898 331.93204 
L 281.647443 332.406303 
L 281.874716 332.247548 
L 282.101989 332.599183 
L 282.783807 332.242652 
L 283.01108 332.422624 
L 283.238352 332.447401 
L 283.465625 332.118467 
L 284.147443 331.873657 
L 284.374716 332.197622 
M 294.374716 329.13231 
L 294.601989 329.143216 
L 294.829261 328.824667 
L 295.056534 328.839058 
L 295.738352 328.257896 
M 297.329261 328.046247 
L 297.556534 328.912724 
L 297.783807 328.862797 
M 298.238352 329.209462 
L 299.374716 329.278677 
M 302.556534 328.208934 
L 302.783807 327.851363 
L 303.465625 327.809375 
L 303.692898 326.809365 
L 303.92017 326.553131 
L 304.147443 326.983403 
L 304.601989 326.61055 
L 304.829261 326.12338 
L 305.056534 326.305355 
L 305.283807 326.892452 
L 305.51108 326.538294 
L 305.965625 326.723756 
L 306.192898 326.463145 
L 306.42017 326.612034 
L 307.101989 326.054165 
L 307.556534 326.309361 
L 308.01108 325.607054 
L 308.238352 325.801937 
L 308.465625 326.19111 
L 308.692898 326.960702 
L 308.92017 326.323159 
L 309.147443 326.380578 
L 309.374716 325.684725 
L 309.601989 325.488878 
L 309.829261 325.593701 
L 310.056534 325.50913 
M 313.692898 324.122396 
L 314.147443 323.274168 
L 314.374716 323.901326 
L 314.601989 323.81772 
L 314.829261 322.979952 
M 315.965625 323.163411 
L 316.192898 322.957696 
M 317.101989 323.651546 
L 317.329261 323.212892 
L 317.556534 323.731665 
L 317.783807 323.689157 
L 318.01108 324.133746 
L 318.238352 325.39637 
M 318.692898 326.082355 
L 318.92017 325.942369 
L 319.147443 325.389916 
L 319.374716 325.27619 
L 319.601989 325.578345 
L 319.829261 325.362245 
L 320.056534 325.768257 
L 320.283807 325.33947 
L 320.51108 325.486875 
L 320.738352 325.256383 
L 320.965625 325.331606 
L 321.192898 324.633232 
L 321.42017 324.777669 
L 321.647443 324.567504 
L 321.874716 325.0319 
L 322.101989 325.001707 
L 322.329261 325.575377 
L 322.556534 325.768257 
L 322.783807 325.455717 
L 323.01108 324.407265 
L 323.238352 323.921578 
L 323.465625 324.007632 
L 323.692898 323.510595 
L 323.92017 323.594201 
L 324.147443 323.996282 
L 324.374716 323.8741 
L 324.601989 323.580848 
L 325.056534 323.624839 
L 325.283807 324.168391 
L 325.51108 324.388942 
L 325.738352 324.863724 
L 325.965625 324.691096 
L 326.192898 324.126328 
L 326.42017 324.11839 
M 327.101989 324.393912 
L 327.556534 323.971504 
L 327.783807 323.996282 
L 328.238352 324.533824 
L 328.465625 324.233154 
L 328.692898 324.58976 
L 328.92017 323.586263 
L 329.147443 323.632777 
L 329.374716 323.460669 
L 329.601989 322.896346 
L 329.829261 322.789 
M 330.51108 323.080843 
L 330.738352 323.44828 
L 330.965625 324.209415 
L 331.192898 324.511124 
L 331.42017 324.498216 
L 331.874716 324.777669 
L 332.329261 324.682194 
L 332.783807 324.01557 
L 333.238352 323.923062 
L 333.465625 324.61246 
M 335.965625 324.889466 
L 336.192898 325.458165 
L 336.42017 325.441845 
L 336.647443 325.704014 
L 336.874716 325.743035 
L 337.101989 325.176783 
L 337.329261 325.693628 
L 337.556534 326.772718 
L 337.783807 326.434955 
L 338.01108 326.598681 
L 338.238352 326.436958 
L 338.92017 326.588295 
L 339.147443 325.974491 
L 339.374716 326.305874 
L 340.056534 325.99185 
L 340.283807 326.303871 
L 340.51108 325.85535 
M 340.965625 325.967072 
L 341.42017 325.868184 
L 341.647443 326.363219 
L 341.874716 326.298455 
L 342.556534 326.553131 
L 342.783807 326.080352 
L 343.01108 326.180279 
L 343.238352 325.987844 
L 343.692898 324.706971 
L 344.147443 324.86224 
L 344.374716 324.587237 
L 344.601989 324.813797 
L 344.829261 325.198074 
L 345.056534 325.302897 
L 345.283807 325.170329 
L 345.51108 325.489842 
M 347.101989 326.013067 
L 347.329261 325.916182 
L 347.556534 324.93546 
L 347.783807 325.069957 
L 348.692898 324.754895 
L 348.92017 324.403779 
L 349.147443 324.531895 
L 349.374716 324.262308 
L 349.829261 324.125363 
L 350.283807 324.874629 
L 350.738352 324.286567 
L 350.965625 324.470025 
L 351.192898 324.05014 
L 351.647443 324.5724 
L 351.874716 325.097628 
L 352.101989 325.056084 
L 352.329261 324.510604 
L 352.556534 325.982948 
L 352.783807 326.220784 
L 353.238352 325.56603 
L 353.465625 325.632796 
L 353.692898 325.051411 
L 354.147443 325.016544 
L 354.374716 325.089245 
L 354.601989 324.45274 
L 354.829261 324.161936 
M 355.51108 324.606525 
L 355.738352 325.206457 
L 355.965625 324.999259 
L 356.192898 325.086797 
L 356.42017 325.341473 
M 357.783807 325.419144 
L 358.01108 325.470035 
L 358.238352 325.680274 
L 358.465625 326.065515 
L 358.692898 326.214404 
L 358.92017 325.91863 
L 359.374716 326.659957 
L 359.601989 326.529392 
L 360.056534 328.824221 
L 360.283807 328.411235 
L 360.51108 329.086316 
L 360.965625 327.382071 
L 361.192898 326.453279 
L 361.647443 327.2475 
L 361.874716 326.503724 
L 362.101989 326.690151 
L 362.329261 327.028952 
L 362.556534 326.719305 
L 362.783807 327.170867 
L 363.01108 327.344979 
L 363.465625 326.732213 
L 363.92017 327.558631 
L 364.147443 327.55418 
L 364.374716 327.691125 
L 364.601989 327.454253 
L 364.829261 327.029175 
L 365.056534 327.037854 
L 365.283807 326.740077 
L 365.51108 326.679245 
L 365.738352 327.505218 
L 366.192898 326.599126 
L 366.42017 326.638741 
L 366.647443 326.397344 
L 367.101989 326.683696 
L 367.556534 327.518571 
L 367.783807 327.404772 
L 368.01108 327.500767 
M 370.283807 327.140674 
L 370.51108 326.897348 
L 370.738352 327.174799 
L 370.965625 325.771744 
L 371.192898 325.940366 
L 371.42017 325.862769 
L 371.874716 324.620917 
L 372.101989 324.52151 
L 372.329261 323.881518 
L 372.556534 323.859263 
M 373.465625 324.386493 
L 373.692898 325.072924 
L 373.92017 325.103563 
L 374.147443 324.658974 
L 374.374716 324.535308 
L 374.601989 324.266759 
L 375.056534 325.001707 
L 375.283807 326.199048 
L 375.738352 326.296007 
L 375.965625 325.820706 
L 376.192898 325.624858 
L 376.647443 325.909728 
L 376.874716 325.802902 
L 377.101989 326.23666 
L 377.329261 325.613953 
L 377.556534 325.556609 
L 377.783807 325.735616 
L 378.465625 326.863223 
L 378.692898 326.303871 
L 378.92017 326.407284 
L 379.374716 327.222277 
L 379.601989 326.828134 
L 379.829261 326.694602 
L 380.056534 324.286047 
L 380.283807 324.353852 
L 380.51108 324.659493 
M 383.238352 325.665883 
L 383.465625 325.74207 
L 383.692898 325.607573 
L 383.92017 325.783094 
L 384.374716 326.488368 
L 384.829261 326.654023 
L 385.283807 327.688676 
L 385.51108 327.678291 
M 385.965625 327.453288 
L 386.192898 327.752995 
L 386.42017 327.204028 
L 386.647443 327.257441 
L 386.874716 326.973536 
L 387.101989 326.99134 
L 387.329261 327.479995 
L 387.556534 326.784588 
L 388.01108 326.780656 
L 388.465625 326.687183 
L 388.692898 326.262327 
L 388.92017 326.364257 
L 389.147443 328.478521 
M 389.601989 326.685699 
L 389.829261 326.993343 
L 390.056534 327.634744 
L 390.283807 328.617988 
M 393.465625 326.001197 
L 393.692898 325.207941 
L 393.92017 325.012612 
L 394.147443 325.257422 
L 394.601989 324.546213 
L 394.829261 324.440871 
L 395.056534 324.688648 
L 395.283807 324.705488 
L 395.738352 324.194058 
L 395.965625 324.238124 
L 396.192898 325.189172 
L 396.647443 324.560086 
L 397.101989 324.05014 
L 397.329261 324.091684 
L 397.556534 324.387458 
M 398.238352 324.461123 
L 398.465625 324.564017 
L 398.692898 324.368689 
L 398.92017 324.699998 
L 399.147443 324.239608 
M 399.601989 323.783595 
L 399.829261 323.617421 
L 400.056534 323.869426 
L 400.283807 323.514082 
L 400.738352 323.442345 
L 400.965625 322.938408 
L 401.192898 323.486337 
L 401.647443 324.904748 
L 401.874716 325.105566 
L 402.101989 325.975529 
L 402.329261 325.758391 
L 402.556534 326.964115 
L 402.783807 325.445851 
L 403.01108 325.938437 
L 403.238352 325.061055 
L 403.465625 325.113949 
L 403.692898 326.235621 
L 403.92017 326.718341 
L 404.374716 325.007123 
L 404.601989 324.987835 
L 404.829261 324.830563 
L 405.056534 324.512088 
L 405.283807 324.398808 
L 405.51108 325.034868 
L 405.738352 324.538795 
L 406.192898 324.39636 
L 406.42017 326.624349 
L 406.647443 326.789558 
L 406.874716 327.349875 
L 407.329261 326.882511 
L 407.783807 326.86174 
L 408.01108 326.302387 
L 408.238352 326.388961 
L 408.465625 326.132282 
L 408.692898 326.098676 
L 408.92017 325.680274 
L 409.147443 325.884505 
L 409.374716 326.364702 
L 409.601989 326.449273 
L 409.829261 326.101124 
L 410.056534 326.152089 
L 410.51108 326.549719 
L 410.738352 326.346453 
L 411.192898 326.609512 
L 411.42017 327.169903 
L 411.874716 326.796976 
L 412.101989 326.842007 
M 412.783807 326.993788 
L 413.238352 327.896394 
L 413.692898 327.893945 
L 414.147443 327.185185 
L 414.374716 327.559076 
L 414.601989 327.282144 
L 414.829261 327.232663 
L 415.056534 327.95129 
L 415.283807 328.245062 
L 415.51108 328.344988 
L 415.738352 328.041796 
L 415.965625 328.021024 
L 416.192898 328.49039 
L 416.42017 328.693656 
L 417.101989 327.793499 
L 417.329261 327.732223 
L 417.556534 327.271239 
L 417.783807 327.434445 
M 419.374716 328.297955 
L 419.829261 328.398846 
L 420.056534 328.053665 
L 420.283807 328.159007 
L 420.51108 328.058635 
L 420.738352 328.578373 
M 421.192898 328.780675 
L 421.647443 329.943891 
L 421.874716 329.630831 
L 422.329261 329.999752 
M 424.829261 330.280689 
L 425.056534 331.136261 
L 425.283807 331.416679 
L 425.51108 331.430552 
L 425.738352 332.041314 
L 425.965625 331.904815 
L 426.192898 332.145173 
M 427.783807 331.850437 
L 428.01108 331.387525 
L 428.238352 331.459261 
L 428.692898 330.83611 
L 428.92017 331.223799 
M 429.374716 330.9439 
L 429.601989 330.443896 
L 430.056534 330.374681 
M 432.556534 330.044782 
L 433.01108 330.195154 
L 433.238352 329.756945 
L 433.465625 329.772747 
L 433.92017 329.03587 
L 434.147443 329.091286 
L 434.374716 328.968585 
L 434.601989 329.033867 
L 434.829261 328.804414 
L 435.056534 328.92808 
L 435.51108 328.473031 
L 435.738352 330.256431 
L 435.965625 330.295007 
L 436.42017 329.591736 
L 436.647443 329.623932 
L 436.874716 330.00769 
L 437.101989 329.983431 
L 437.329261 330.281209 
L 437.783807 330.028981 
L 438.01108 329.787584 
L 438.465625 330.247084 
L 438.692898 329.95079 
L 438.92017 330.71148 
L 439.147443 330.908292 
L 439.829261 330.402872 
M 441.647443 330.415186 
L 441.874716 330.44486 
L 442.101989 330.659031 
L 442.329261 330.218894 
L 442.556534 330.324236 
L 443.01108 329.924084 
L 443.238352 329.352416 
L 443.92017 329.564585 
L 444.147443 329.466661 
L 444.374716 329.530905 
L 444.601989 329.37712 
L 444.829261 329.672894 
L 445.056534 329.642701 
M 446.192898 329.660505 
L 446.42017 329.471557 
L 446.647443 329.548709 
M 450.51108 325.34496 
L 450.738352 325.365731 
M 451.874716 325.872116 
L 452.101989 325.884505 
L 452.556534 324.978487 
L 452.783807 324.899332 
L 453.238352 324.266759 
L 453.465625 324.455708 
L 453.92017 324.156002 
L 454.147443 324.263792 
L 454.374716 323.792497 
L 454.601989 324.153554 
L 454.829261 324.024472 
M 463.92017 313.404638 
L 464.147443 313.274073 
M 465.738352 302.997046 
L 465.965625 297.702188 
L 466.192898 305.237423 
L 466.42017 304.532149 
L 466.647443 304.576141 
L 466.874716 303.428281 
L 467.101989 303.274941 
L 467.329261 303.625612 
L 467.556534 301.810091 
L 467.783807 302.006383 
M 470.738352 305.739876 
L 470.965625 306.781429 
L 471.192898 311.503507 
L 471.42017 309.657347 
L 471.647443 310.206313 
L 471.874716 313.850265 
L 472.101989 314.539144 
L 472.329261 319.561522 
L 472.556534 320.296914 
M 476.647443 309.379377 
L 476.874716 306.464438 
L 477.329261 304.717611 
L 477.556534 304.288304 
L 477.783807 304.660711 
L 478.01108 307.610294 
L 478.238352 305.365466 
L 478.465625 306.675122 
L 478.692898 305.709683 
L 478.92017 302.069737 
L 479.147443 303.535107 
L 479.374716 301.982644 
L 479.601989 302.904018 
M 480.056534 303.927321 
L 480.283807 303.580137 
L 480.51108 302.869448 
L 480.738352 302.995043 
L 480.965625 301.047472 
M 481.874716 301.843177 
L 482.101989 302.048965 
M 483.01108 300.642869 
L 483.238352 301.173067 
L 483.692898 301.007412 
L 483.92017 301.72055 
L 484.147443 300.276916 
L 484.374716 297.156188 
L 484.601989 297.974223 
L 484.829261 297.905009 
L 485.056534 298.82386 
L 485.283807 297.771476 
L 485.51108 294.593404 
L 485.738352 295.050827 
L 485.965625 290.877716 
L 486.192898 293.459862 
M 489.601989 281.796991 
L 489.829261 273.73957 
L 490.056534 272.835481 
L 490.283807 274.021472 
L 490.51108 272.616933 
L 490.738352 265.180141 
L 490.965625 267.533798 
L 491.42017 265.112855 
L 491.647443 267.356719 
L 491.874716 267.346779 
L 492.101989 260.316073 
L 492.329261 264.007503 
L 492.556534 262.822032 
L 493.01108 271.493257 
L 493.238352 265.429846 
M 496.42017 259.934764 
L 496.647443 250.788757 
L 496.874716 248.244222 
L 497.101989 248.667594 
L 497.329261 242.569613 
L 497.556534 240.188284 
L 497.783807 241.957812 
L 498.01108 241.505804 
L 498.465625 230.852364 
L 498.692898 232.106085 
L 498.92017 218.347348 
L 499.374716 230.94643 
L 499.601989 240.929167 
L 499.829261 238.129956 
L 500.056534 259.917998 
L 500.283807 250.998551 
L 500.51108 249.747278 
L 500.738352 249.406028 
L 501.192898 230.355401 
L 501.42017 232.333684 
L 501.647443 236.866368 
L 501.874716 232.237244 
L 502.101989 230.446871 
L 502.329261 236.668518 
M 503.01108 240.845116 
L 503.238352 237.417783 
L 503.465625 237.944494 
L 503.692898 235.486533 
L 503.92017 230.751028 
L 504.147443 238.928703 
L 504.374716 236.309983 
L 504.601989 239.203186 
L 504.829261 236.403901 
L 505.056534 236.250635 
L 505.283807 234.252545 
M 505.738352 231.124474 
L 505.965625 227.501739 
L 506.42017 232.850455 
L 506.874716 237.234769 
L 507.101989 237.061697 
L 507.329261 236.282757 
L 507.556534 237.558734 
L 507.783807 237.645308 
L 508.01108 236.557241 
L 508.238352 241.171528 
L 508.465625 239.982125 
M 512.101989 220.501227 
L 512.783807 199.633074 
L 513.01108 196.725035 
M 513.465625 196.972292 
L 513.692898 200.914021 
L 513.92017 194.840744 
L 514.147443 193.441101 
L 514.374716 182.877202 
L 514.601989 180.869319 
L 514.829261 192.09591 
L 515.056534 186.509803 
M 518.92017 154.632644 
L 519.374716 123.959724 
L 519.601989 140.980214 
L 519.829261 131.521666 
L 520.056534 130.292648 
L 520.283807 132.619599 
L 520.51108 137.278398 
L 520.738352 132.730876 
L 520.965625 131.271886 
L 521.192898 132.622048 
L 521.42017 132.214032 
L 521.647443 123.766844 
L 521.874716 123.200592 
L 522.101989 127.881646 
L 522.556534 145.347169 
M 525.283807 144.204725 
L 525.738352 148.371456 
L 525.965625 164.889938 
L 526.192898 168.762378 
L 526.42017 158.08468 
L 526.647443 172.87221 
L 526.874716 174.533947 
L 527.101989 163.918118 
L 528.238352 202.353204 
L 528.465625 175.008729 
L 528.692898 176.373727 
L 528.92017 168.574394 
L 529.147443 170.025966 
L 529.374716 166.51206 
L 529.601989 174.192697 
L 529.829261 168.02795 
L 530.056534 180.058184 
L 530.283807 179.635331 
L 530.51108 175.893975 
L 530.738352 177.832643 
L 530.965625 185.718475 
L 531.192898 183.216003 
M 531.647443 190.411918 
L 532.101989 176.405849 
L 532.329261 177.934054 
L 532.556534 170.688658 
L 532.783807 170.547707 
L 533.01108 175.654136 
L 533.238352 172.481479 
L 533.465625 174.158053 
L 533.692898 167.985887 
L 533.92017 153.064899 
L 534.147443 160.505623 
L 534.374716 158.868589 
L 534.601989 158.638617 
L 534.829261 164.857742 
L 535.056534 163.779616 
M 537.329261 175.003759 
L 537.556534 175.661554 
L 537.783807 177.491394 
L 538.01108 175.307916 
L 538.238352 186.022633 
L 538.465625 188.95048 
L 538.92017 200.204296 
L 539.147443 195.740826 
L 539.374716 198.93329 
L 539.601989 198.676092 
L 539.829261 202.239405 
L 540.056534 196.472807 
L 540.283807 197.931797 
L 540.51108 191.611262 
L 540.738352 192.043981 
L 541.192898 185.575076 
L 541.42017 186.9673 
L 541.647443 187.293713 
L 541.874716 191.937674 
M 544.147443 191.99947 
L 544.601989 187.43956 
L 544.829261 188.052845 
L 545.056534 187.340672 
L 545.51108 173.465688 
L 545.738352 175.431582 
L 545.965625 171.26485 
L 546.192898 173.233193 
L 546.42017 173.495361 
L 546.647443 173.935499 
L 546.874716 173.693138 
L 547.329261 182.162581 
L 547.556534 180.144757 
L 547.783807 179.121009 
L 548.01108 172.011668 
L 548.238352 176.255032 
M 549.147443 181.774372 
L 549.374716 178.243181 
L 549.601989 179.531473 
M 550.51108 182.130459 
L 550.738352 181.586388 
L 550.965625 174.07645 
L 551.192898 171.640744 
L 551.42017 166.084311 
L 551.647443 166.066952 
L 551.874716 165.775184 
L 552.101989 164.857742 
L 552.329261 168.69806 
L 552.556534 165.072877 
L 553.01108 166.541734 
L 553.238352 162.973451 
L 553.465625 164.229694 
L 553.692898 171.89542 
M 554.829261 166.917628 
L 555.056534 166.37608 
M 555.965625 160.832036 
L 556.192898 159.642558 
L 556.647443 160.466008 
L 556.874716 160.17424 
L 557.101989 155.389328 
L 557.556534 154.909575 
L 557.783807 159.506578 
L 558.01108 157.842393 
L 558.238352 157.473917 
L 558.465625 154.669736 
L 558.692898 154.382864 
L 558.92017 153.764683 
M 564.147443 127.476078 
L 564.601989 116.625381 
L 564.829261 88.143358 
L 565.056534 89.733432 
L 565.283807 84.928713 
L 565.738352 66.10064 
L 565.965625 42.710208 
L 566.192898 51.758292 
L 566.42017 41.407006 
L 566.647443 37.438125 
L 566.874716 39.371897 
L 567.101989 53.998669 
L 567.329261 88.479711 
L 567.556534 77.487989 
L 567.783807 78.585922 
L 568.238352 90.979735 
L 568.692898 72.280224 
L 568.92017 70.457729 
L 569.147443 60.398285 
L 569.374716 55.499648 
L 569.601989 67.329657 
L 569.829261 65.60605 
L 570.056534 74.033431 
M 570.738352 70.798978 
L 570.965625 73.370739 
L 571.192898 90.589004 
L 571.42017 92.062832 
L 571.647443 81.493962 
L 571.874716 77.238209 
L 572.101989 93.351123 
L 572.329261 90.079578 
M 572.783807 104.550562 
L 573.01108 100.228043 
L 573.238352 112.36221 
L 573.465625 110.96509 
L 573.692898 119.033861 
L 573.92017 109.491262 
L 574.374716 77.722932 
L 574.601989 71.061147 
L 574.829261 72.413756 
L 575.056534 72.97756 
L 575.51108 80.250107 
M 576.874716 79.918798 
L 577.101989 78.365816 
M 577.556534 86.486591 
L 577.783807 82.023121 
L 578.01108 86.746238 
L 578.238352 95.366498 
L 578.465625 95.213158 
L 578.692898 108.163357 
L 579.147443 114.469055 
L 579.374716 109.768194 
L 579.601989 136.551388 
L 579.601989 136.551388 
" clip-path="url(#pb571292283)" style="fill: none; stroke: #1e90ff; stroke-linecap: square"/>
   </g>
   <g id="patch_3">
    <path d="M 46.965625 354.958125 
L 46.965625 22.318125 
" style="fill: none; stroke: #000000; stroke-width: 0.8; stroke-linejoin: miter; stroke-linecap: square"/>
   </g>
   <g id="patch_4">
    <path d="M 604.965625 354.958125 
L 604.965625 22.318125 
" style="fill: none; stroke: #000000; stroke-width: 0.8; stroke-linejoin: miter; stroke-linecap: square"/>
   </g>
   <g id="patch_5">
    <path d="M 46.965625 354.958125 
L 604.965625 354.958125 
" style="fill: none; stroke: #000000; stroke-width: 0.8; stroke-linejoin: miter; stroke-linecap: square"/>
   </g>
   <g id="patch_6">
    <path d="M 46.965625 22.318125 
L 604.965625 22.318125 
" style="fill: none; stroke: #000000; stroke-width: 0.8; stroke-linejoin: miter; stroke-linecap: square"/>
   </g>
   <g id="text_17">
    <!-- TSLA, Relative Strength Index (RSI), TSLA -->
    <g transform="translate(201.4075 16.318125)scale(0.12 -0.12)">
     <defs>
      <path id="DejaVuSans-54" d="M -19 4666 
L 3928 4666 
L 3928 4134 
L 2272 4134 
L 2272 0 
L 1638 0 
L 1638 4134 
L -19 4134 
L -19 4666 
z
" transform="scale(0.015625)"/>
      <path id="DejaVuSans-4c" d="M 628 4666 
L 1259 4666 
L 1259 531 
L 3531 531 
L 3531 0 
L 628 0 
L 628 4666 
z
" transform="scale(0.015625)"/>
      <path id="DejaVuSans-41" d="M 2188 4044 
L 1331 1722 
L 3047 1722 
L 2188 4044 
z
M 1831 4666 
L 2547 4666 
L 4325 0 
L 3669 0 
L 3244 1197 
L 1141 1197 
L 716 0 
L 50 0 
L 1831 4666 
z
" transform="scale(0.015625)"/>
      <path id="DejaVuSans-2c" d="M 750 794 
L 1409 794 
L 1409 256 
L 897 -744 
L 494 -744 
L 750 256 
L 750 794 
z
" transform="scale(0.015625)"/>
      <path id="DejaVuSans-52" d="M 2841 2188 
Q 3044 2119 3236 1894 
Q 3428 1669 3622 1275 
L 4263 0 
L 3584 0 
L 2988 1197 
Q 2756 1666 2539 1819 
Q 2322 1972 1947 1972 
L 1259 1972 
L 1259 0 
L 628 0 
L 628 4666 
L 2053 4666 
Q 2853 4666 3247 4331 
Q 3641 3997 3641 3322 
Q 3641 2881 3436 2590 
Q 3231 2300 2841 2188 
z
M 1259 4147 
L 1259 2491 
L 2053 2491 
Q 2509 2491 2742 2702 
Q 2975 2913 2975 3322 
Q 2975 3731 2742 3939 
Q 2509 4147 2053 4147 
L 1259 4147 
z
" transform="scale(0.015625)"/>
      <path id="DejaVuSans-6c" d="M 603 4863 
L 1178 4863 
L 1178 0 
L 603 0 
L 603 4863 
z
" transform="scale(0.015625)"/>
      <path id="DejaVuSans-76" d="M 191 3500 
L 800 3500 
L 1894 563 
L 2988 3500 
L 3597 3500 
L 2284 0 
L 1503 0 
L 191 3500 
z
" transform="scale(0.015625)"/>
      <path id="DejaVuSans-6e" d="M 3513 2113 
L 3513 0 
L 2938 0 
L 2938 2094 
Q 2938 2591 2744 2837 
Q 2550 3084 2163 3084 
Q 1697 3084 1428 2787 
Q 1159 2491 1159 1978 
L 1159 0 
L 581 0 
L 581 3500 
L 1159 3500 
L 1159 2956 
Q 1366 3272 1645 3428 
Q 1925 3584 2291 3584 
Q 2894 3584 3203 3211 
Q 3513 2838 3513 2113 
z
" transform="scale(0.015625)"/>
      <path id="DejaVuSans-67" d="M 2906 1791 
Q 2906 2416 2648 2759 
Q 2391 3103 1925 3103 
Q 1463 3103 1205 2759 
Q 947 2416 947 1791 
Q 947 1169 1205 825 
Q 1463 481 1925 481 
Q 2391 481 2648 825 
Q 2906 1169 2906 1791 
z
M 3481 434 
Q 3481 -459 3084 -895 
Q 2688 -1331 1869 -1331 
Q 1566 -1331 1297 -1286 
Q 1028 -1241 775 -1147 
L 775 -588 
Q 1028 -725 1275 -790 
Q 1522 -856 1778 -856 
Q 2344 -856 2625 -561 
Q 2906 -266 2906 331 
L 2906 616 
Q 2728 306 2450 153 
Q 2172 0 1784 0 
Q 1141 0 747 490 
Q 353 981 353 1791 
Q 353 2603 747 3093 
Q 1141 3584 1784 3584 
Q 2172 3584 2450 3431 
Q 2728 3278 2906 2969 
L 2906 3500 
L 3481 3500 
L 3481 434 
z
" transform="scale(0.015625)"/>
      <path id="DejaVuSans-68" d="M 3513 2113 
L 3513 0 
L 2938 0 
L 2938 2094 
Q 2938 2591 2744 2837 
Q 2550 3084 2163 3084 
Q 1697 3084 1428 2787 
Q 1159 2491 1159 1978 
L 1159 0 
L 581 0 
L 581 4863 
L 1159 4863 
L 1159 2956 
Q 1366 3272 1645 3428 
Q 1925 3584 2291 3584 
Q 2894 3584 3203 3211 
Q 3513 2838 3513 2113 
z
" transform="scale(0.015625)"/>
      <path id="DejaVuSans-49" d="M 628 4666 
L 1259 4666 
L 1259 0 
L 628 0 
L 628 4666 
z
" transform="scale(0.015625)"/>
      <path id="DejaVuSans-64" d="M 2906 2969 
L 2906 4863 
L 3481 4863 
L 3481 0 
L 2906 0 
L 2906 525 
Q 2725 213 2448 61 
Q 2172 -91 1784 -91 
Q 1150 -91 751 415 
Q 353 922 353 1747 
Q 353 2572 751 3078 
Q 1150 3584 1784 3584 
Q 2172 3584 2448 3432 
Q 2725 3281 2906 2969 
z
M 947 1747 
Q 947 1113 1208 752 
Q 1469 391 1925 391 
Q 2381 391 2643 752 
Q 2906 1113 2906 1747 
Q 2906 2381 2643 2742 
Q 2381 3103 1925 3103 
Q 1469 3103 1208 2742 
Q 947 2381 947 1747 
z
" transform="scale(0.015625)"/>
      <path id="DejaVuSans-78" d="M 3513 3500 
L 2247 1797 
L 3578 0 
L 2900 0 
L 1881 1375 
L 863 0 
L 184 0 
L 1544 1831 
L 300 3500 
L 978 3500 
L 1906 2253 
L 2834 3500 
L 3513 3500 
z
" transform="scale(0.015625)"/>
     </defs>
     <use xlink:href="#DejaVuSans-54"/>
     <use xlink:href="#DejaVuSans-53" x="61.083984"/>
     <use xlink:href="#DejaVuSans-4c" x="124.560547"/>
     <use xlink:href="#DejaVuSans-41" x="182.523438"/>
     <use xlink:href="#DejaVuSans-2c" x="250.931641"/>
     <use xlink:href="#DejaVuSans-20" x="282.71875"/>
     <use xlink:href="#DejaVuSans-52" x="314.505859"/>
     <use xlink:href="#DejaVuSans-65" x="379.488281"/>
     <use xlink:href="#DejaVuSans-6c" x="441.011719"/>
     <use xlink:href="#DejaVuSans-61" x="468.794922"/>
     <use xlink:href="#DejaVuSans-74" x="530.074219"/>
     <use xlink:href="#DejaVuSans-69" x="569.283203"/>
     <use xlink:href="#DejaVuSans-76" x="597.066406"/>
     <use xlink:href="#DejaVuSans-65" x="656.246094"/>
     <use xlink:href="#DejaVuSans-20" x="717.769531"/>
     <use xlink:href="#DejaVuSans-53" x="749.556641"/>
     <use xlink:href="#DejaVuSans-74" x="813.033203"/>
     <use xlink:href="#DejaVuSans-72" x="852.242188"/>
     <use xlink:href="#DejaVuSans-65" x="891.105469"/>
     <use xlink:href="#DejaVuSans-6e" x="952.628906"/>
     <use xlink:href="#DejaVuSans-67" x="1016.007812"/>
     <use xlink:href="#DejaVuSans-74" x="1079.484375"/>
     <use xlink:href="#DejaVuSans-68" x="1118.693359"/>
     <use xlink:href="#DejaVuSans-20" x="1182.072266"/>
     <use xlink:href="#DejaVuSans-49" x="1213.859375"/>
     <use xlink:href="#DejaVuSans-6e" x="1243.351562"/>
     <use xlink:href="#DejaVuSans-64" x="1306.730469"/>
     <use xlink:href="#DejaVuSans-65" x="1370.207031"/>
     <use xlink:href="#DejaVuSans-78" x="1429.980469"/>
     <use xlink:href="#DejaVuSans-20" x="1489.160156"/>
     <use xlink:href="#DejaVuSans-28" x="1520.947266"/>
     <use xlink:href="#DejaVuSans-52" x="1559.960938"/>
     <use xlink:href="#DejaVuSans-53" x="1629.443359"/>
     <use xlink:href="#DejaVuSans-49" x="1692.919922"/>
     <use xlink:href="#DejaVuSans-29" x="1722.412109"/>
     <use xlink:href="#DejaVuSans-2c" x="1761.425781"/>
     <use xlink:href="#DejaVuSans-20" x="1793.212891"/>
     <use xlink:href="#DejaVuSans-54" x="1825"/>
     <use xlink:href="#DejaVuSans-53" x="1886.083984"/>
     <use xlink:href="#DejaVuSans-4c" x="1949.560547"/>
     <use xlink:href="#DejaVuSans-41" x="2007.523438"/>
    </g>
   </g>
   <g id="legend_1">
    <g id="patch_7">
     <path d="M 53.965625 74.3525 
L 203.875 74.3525 
Q 205.875 74.3525 205.875 72.3525 
L 205.875 29.318125 
Q 205.875 27.318125 203.875 27.318125 
L 53.965625 27.318125 
Q 51.965625 27.318125 51.965625 29.318125 
L 51.965625 72.3525 
Q 51.965625 74.3525 53.965625 74.3525 
z
" style="fill: #ffffff; opacity: 0.8; stroke: #cccccc; stroke-linejoin: miter"/>
    </g>
    <g id="line2d_27">
     <path d="M 55.965625 35.416562 
L 65.965625 35.416562 
L 75.965625 35.416562 
" style="fill: none; stroke: #00ff7f; stroke-linecap: square"/>
    </g>
    <g id="text_18">
     <!-- Oversold, RSI &lt;= 30 -->
     <g transform="translate(83.965625 38.916562)scale(0.1 -0.1)">
      <defs>
       <path id="DejaVuSans-4f" d="M 2522 4238 
Q 1834 4238 1429 3725 
Q 1025 3213 1025 2328 
Q 1025 1447 1429 934 
Q 1834 422 2522 422 
Q 3209 422 3611 934 
Q 4013 1447 4013 2328 
Q 4013 3213 3611 3725 
Q 3209 4238 2522 4238 
z
M 2522 4750 
Q 3503 4750 4090 4092 
Q 4678 3434 4678 2328 
Q 4678 1225 4090 567 
Q 3503 -91 2522 -91 
Q 1538 -91 948 565 
Q 359 1222 359 2328 
Q 359 3434 948 4092 
Q 1538 4750 2522 4750 
z
" transform="scale(0.015625)"/>
       <path id="DejaVuSans-73" d="M 2834 3397 
L 2834 2853 
Q 2591 2978 2328 3040 
Q 2066 3103 1784 3103 
Q 1356 3103 1142 2972 
Q 928 2841 928 2578 
Q 928 2378 1081 2264 
Q 1234 2150 1697 2047 
L 1894 2003 
Q 2506 1872 2764 1633 
Q 3022 1394 3022 966 
Q 3022 478 2636 193 
Q 2250 -91 1575 -91 
Q 1294 -91 989 -36 
Q 684 19 347 128 
L 347 722 
Q 666 556 975 473 
Q 1284 391 1588 391 
Q 1994 391 2212 530 
Q 2431 669 2431 922 
Q 2431 1156 2273 1281 
Q 2116 1406 1581 1522 
L 1381 1569 
Q 847 1681 609 1914 
Q 372 2147 372 2553 
Q 372 3047 722 3315 
Q 1072 3584 1716 3584 
Q 2034 3584 2315 3537 
Q 2597 3491 2834 3397 
z
" transform="scale(0.015625)"/>
       <path id="DejaVuSans-6f" d="M 1959 3097 
Q 1497 3097 1228 2736 
Q 959 2375 959 1747 
Q 959 1119 1226 758 
Q 1494 397 1959 397 
Q 2419 397 2687 759 
Q 2956 1122 2956 1747 
Q 2956 2369 2687 2733 
Q 2419 3097 1959 3097 
z
M 1959 3584 
Q 2709 3584 3137 3096 
Q 3566 2609 3566 1747 
Q 3566 888 3137 398 
Q 2709 -91 1959 -91 
Q 1206 -91 779 398 
Q 353 888 353 1747 
Q 353 2609 779 3096 
Q 1206 3584 1959 3584 
z
" transform="scale(0.015625)"/>
       <path id="DejaVuSans-3c" d="M 4684 3150 
L 1459 2003 
L 4684 863 
L 4684 294 
L 678 1747 
L 678 2266 
L 4684 3719 
L 4684 3150 
z
" transform="scale(0.015625)"/>
       <path id="DejaVuSans-3d" d="M 678 2906 
L 4684 2906 
L 4684 2381 
L 678 2381 
L 678 2906 
z
M 678 1631 
L 4684 1631 
L 4684 1100 
L 678 1100 
L 678 1631 
z
" transform="scale(0.015625)"/>
      </defs>
      <use xlink:href="#DejaVuSans-4f"/>
      <use xlink:href="#DejaVuSans-76" x="78.710938"/>
      <use xlink:href="#DejaVuSans-65" x="137.890625"/>
      <use xlink:href="#DejaVuSans-72" x="199.414062"/>
      <use xlink:href="#DejaVuSans-73" x="240.527344"/>
      <use xlink:href="#DejaVuSans-6f" x="292.626953"/>
      <use xlink:href="#DejaVuSans-6c" x="353.808594"/>
      <use xlink:href="#DejaVuSans-64" x="381.591797"/>
      <use xlink:href="#DejaVuSans-2c" x="445.068359"/>
      <use xlink:href="#DejaVuSans-20" x="476.855469"/>
      <use xlink:href="#DejaVuSans-52" x="508.642578"/>
      <use xlink:href="#DejaVuSans-53" x="578.125"/>
      <use xlink:href="#DejaVuSans-49" x="641.601562"/>
      <use xlink:href="#DejaVuSans-20" x="671.09375"/>
      <use xlink:href="#DejaVuSans-3c" x="702.880859"/>
      <use xlink:href="#DejaVuSans-3d" x="786.669922"/>
      <use xlink:href="#DejaVuSans-20" x="870.458984"/>
      <use xlink:href="#DejaVuSans-33" x="902.246094"/>
      <use xlink:href="#DejaVuSans-30" x="965.869141"/>
     </g>
    </g>
    <g id="line2d_28">
     <path d="M 55.965625 50.094687 
L 65.965625 50.094687 
L 75.965625 50.094687 
" style="fill: none; stroke: #ff4500; stroke-linecap: square"/>
    </g>
    <g id="text_19">
     <!-- Overbought, RSI &gt;= 70 -->
     <g transform="translate(83.965625 53.594687)scale(0.1 -0.1)">
      <defs>
       <path id="DejaVuSans-62" d="M 3116 1747 
Q 3116 2381 2855 2742 
Q 2594 3103 2138 3103 
Q 1681 3103 1420 2742 
Q 1159 2381 1159 1747 
Q 1159 1113 1420 752 
Q 1681 391 2138 391 
Q 2594 391 2855 752 
Q 3116 1113 3116 1747 
z
M 1159 2969 
Q 1341 3281 1617 3432 
Q 1894 3584 2278 3584 
Q 2916 3584 3314 3078 
Q 3713 2572 3713 1747 
Q 3713 922 3314 415 
Q 2916 -91 2278 -91 
Q 1894 -91 1617 61 
Q 1341 213 1159 525 
L 1159 0 
L 581 0 
L 581 4863 
L 1159 4863 
L 1159 2969 
z
" transform="scale(0.015625)"/>
       <path id="DejaVuSans-75" d="M 544 1381 
L 544 3500 
L 1119 3500 
L 1119 1403 
Q 1119 906 1312 657 
Q 1506 409 1894 409 
Q 2359 409 2629 706 
Q 2900 1003 2900 1516 
L 2900 3500 
L 3475 3500 
L 3475 0 
L 2900 0 
L 2900 538 
Q 2691 219 2414 64 
Q 2138 -91 1772 -91 
Q 1169 -91 856 284 
Q 544 659 544 1381 
z
M 1991 3584 
L 1991 3584 
z
" transform="scale(0.015625)"/>
       <path id="DejaVuSans-3e" d="M 678 3150 
L 678 3719 
L 4684 2266 
L 4684 1747 
L 678 294 
L 678 863 
L 3897 2003 
L 678 3150 
z
" transform="scale(0.015625)"/>
       <path id="DejaVuSans-37" d="M 525 4666 
L 3525 4666 
L 3525 4397 
L 1831 0 
L 1172 0 
L 2766 4134 
L 525 4134 
L 525 4666 
z
" transform="scale(0.015625)"/>
      </defs>
      <use xlink:href="#DejaVuSans-4f"/>
      <use xlink:href="#DejaVuSans-76" x="78.710938"/>
      <use xlink:href="#DejaVuSans-65" x="137.890625"/>
      <use xlink:href="#DejaVuSans-72" x="199.414062"/>
      <use xlink:href="#DejaVuSans-62" x="240.527344"/>
      <use xlink:href="#DejaVuSans-6f" x="304.003906"/>
      <use xlink:href="#DejaVuSans-75" x="365.185547"/>
      <use xlink:href="#DejaVuSans-67" x="428.564453"/>
      <use xlink:href="#DejaVuSans-68" x="492.041016"/>
      <use xlink:href="#DejaVuSans-74" x="555.419922"/>
      <use xlink:href="#DejaVuSans-2c" x="594.628906"/>
      <use xlink:href="#DejaVuSans-20" x="626.416016"/>
      <use xlink:href="#DejaVuSans-52" x="658.203125"/>
      <use xlink:href="#DejaVuSans-53" x="727.685547"/>
      <use xlink:href="#DejaVuSans-49" x="791.162109"/>
      <use xlink:href="#DejaVuSans-20" x="820.654297"/>
      <use xlink:href="#DejaVuSans-3e" x="852.441406"/>
      <use xlink:href="#DejaVuSans-3d" x="936.230469"/>
      <use xlink:href="#DejaVuSans-20" x="1020.019531"/>
      <use xlink:href="#DejaVuSans-37" x="1051.806641"/>
      <use xlink:href="#DejaVuSans-30" x="1115.429688"/>
     </g>
    </g>
    <g id="line2d_29">
     <path d="M 55.965625 64.772812 
L 65.965625 64.772812 
L 75.965625 64.772812 
" style="fill: none; stroke: #1e90ff; stroke-linecap: square"/>
    </g>
    <g id="text_20">
     <!-- Neutral -->
     <g transform="translate(83.965625 68.272812)scale(0.1 -0.1)">
      <defs>
       <path id="DejaVuSans-4e" d="M 628 4666 
L 1478 4666 
L 3547 763 
L 3547 4666 
L 4159 4666 
L 4159 0 
L 3309 0 
L 1241 3903 
L 1241 0 
L 628 0 
L 628 4666 
z
" transform="scale(0.015625)"/>
      </defs>
      <use xlink:href="#DejaVuSans-4e"/>
      <use xlink:href="#DejaVuSans-65" x="74.804688"/>
      <use xlink:href="#DejaVuSans-75" x="136.328125"/>
      <use xlink:href="#DejaVuSans-74" x="199.707031"/>
      <use xlink:href="#DejaVuSans-72" x="238.916016"/>
      <use xlink:href="#DejaVuSans-61" x="280.029297"/>
      <use xlink:href="#DejaVuSans-6c" x="341.308594"/>
     </g>
    </g>
   </g>
  </g>
 </g>
 <defs>
  <clipPath id="pb571292283">
   <rect x="46.965625" y="22.318125" width="558" height="332.64"/>
  </clipPath>
 </defs>
</svg>
