<?xml version="1.0" encoding="utf-8" standalone="no"?>
<!DOCTYPE svg PUBLIC "-//W3C//DTD SVG 1.1//EN"
  "http://www.w3.org/Graphics/SVG/1.1/DTD/svg11.dtd">
<svg xmlns:xlink="http://www.w3.org/1999/xlink" width="708.332381pt" height="422.947075pt" viewBox="0 0 708.332381 422.947075" xmlns="http://www.w3.org/2000/svg" version="1.1">
 <metadata>
  <rdf:RDF xmlns:dc="http://purl.org/dc/elements/1.1/" xmlns:cc="http://creativecommons.org/ns#" xmlns:rdf="http://www.w3.org/1999/02/22-rdf-syntax-ns#">
   <cc:Work>
    <dc:type rdf:resource="http://purl.org/dc/dcmitype/StillImage"/>
    <dc:date>2023-04-23T14:47:37.178027</dc:date>
    <dc:format>image/svg+xml</dc:format>
    <dc:creator>
     <cc:Agent>
      <dc:title>Matplotlib v3.5.1, https://matplotlib.org/</dc:title>
     </cc:Agent>
    </dc:creator>
   </cc:Work>
  </rdf:RDF>
 </metadata>
 <defs>
  <style type="text/css">*{stroke-linejoin: round; stroke-linecap: butt}</style>
 </defs>
 <g id="figure_1">
  <g id="patch_1">
   <path d="M 0 422.947075 
L 708.332381 422.947075 
L 708.332381 0 
L 0 0 
z
" style="fill: #f0f0f0"/>
  </g>
  <g id="axes_1">
   <g id="patch_2">
    <path d="M 57.68175 378.43845 
L 684.08175 378.43845 
L 684.08175 28.51845 
L 57.68175 28.51845 
z
" style="fill: #f0f0f0"/>
   </g>
   <g id="matplotlib.axis_1">
    <g id="xtick_1">
     <g id="line2d_1">
      <path d="M 86.154477 378.43845 
L 86.154477 28.51845 
" clip-path="url(#pd7ed4c9e36)" style="fill: none; stroke: #cbcbcb"/>
     </g>
     <g id="line2d_2"/>
     <g id="text_1">
      <!-- 0 -->
      <g transform="translate(81.700727 392.576263)scale(0.14 -0.14)">
       <defs>
        <path id="DejaVuSans-30" d="M 2034 4250 
Q 1547 4250 1301 3770 
Q 1056 3291 1056 2328 
Q 1056 1369 1301 889 
Q 1547 409 2034 409 
Q 2525 409 2770 889 
Q 3016 1369 3016 2328 
Q 3016 3291 2770 3770 
Q 2525 4250 2034 4250 
z
M 2034 4750 
Q 2819 4750 3233 4129 
Q 3647 3509 3647 2328 
Q 3647 1150 3233 529 
Q 2819 -91 2034 -91 
Q 1250 -91 836 529 
Q 422 1150 422 2328 
Q 422 3509 836 4129 
Q 1250 4750 2034 4750 
z
" transform="scale(0.015625)"/>
       </defs>
       <use xlink:href="#DejaVuSans-30"/>
      </g>
     </g>
    </g>
    <g id="xtick_2">
     <g id="line2d_3">
      <path d="M 205.587058 378.43845 
L 205.587058 28.51845 
" clip-path="url(#pd7ed4c9e36)" style="fill: none; stroke: #cbcbcb"/>
     </g>
     <g id="line2d_4"/>
     <g id="text_2">
      <!-- 500 -->
      <g transform="translate(192.225808 392.576263)scale(0.14 -0.14)">
       <defs>
        <path id="DejaVuSans-35" d="M 691 4666 
L 3169 4666 
L 3169 4134 
L 1269 4134 
L 1269 2991 
Q 1406 3038 1543 3061 
Q 1681 3084 1819 3084 
Q 2600 3084 3056 2656 
Q 3513 2228 3513 1497 
Q 3513 744 3044 326 
Q 2575 -91 1722 -91 
Q 1428 -91 1123 -41 
Q 819 9 494 109 
L 494 744 
Q 775 591 1075 516 
Q 1375 441 1709 441 
Q 2250 441 2565 725 
Q 2881 1009 2881 1497 
Q 2881 1984 2565 2268 
Q 2250 2553 1709 2553 
Q 1456 2553 1204 2497 
Q 953 2441 691 2322 
L 691 4666 
z
" transform="scale(0.015625)"/>
       </defs>
       <use xlink:href="#DejaVuSans-35"/>
       <use xlink:href="#DejaVuSans-30" x="63.623047"/>
       <use xlink:href="#DejaVuSans-30" x="127.246094"/>
      </g>
     </g>
    </g>
    <g id="xtick_3">
     <g id="line2d_5">
      <path d="M 325.019639 378.43845 
L 325.019639 28.51845 
" clip-path="url(#pd7ed4c9e36)" style="fill: none; stroke: #cbcbcb"/>
     </g>
     <g id="line2d_6"/>
     <g id="text_3">
      <!-- 1000 -->
      <g transform="translate(307.204639 392.576263)scale(0.14 -0.14)">
       <defs>
        <path id="DejaVuSans-31" d="M 794 531 
L 1825 531 
L 1825 4091 
L 703 3866 
L 703 4441 
L 1819 4666 
L 2450 4666 
L 2450 531 
L 3481 531 
L 3481 0 
L 794 0 
L 794 531 
z
" transform="scale(0.015625)"/>
       </defs>
       <use xlink:href="#DejaVuSans-31"/>
       <use xlink:href="#DejaVuSans-30" x="63.623047"/>
       <use xlink:href="#DejaVuSans-30" x="127.246094"/>
       <use xlink:href="#DejaVuSans-30" x="190.869141"/>
      </g>
     </g>
    </g>
    <g id="xtick_4">
     <g id="line2d_7">
      <path d="M 444.45222 378.43845 
L 444.45222 28.51845 
" clip-path="url(#pd7ed4c9e36)" style="fill: none; stroke: #cbcbcb"/>
     </g>
     <g id="line2d_8"/>
     <g id="text_4">
      <!-- 1500 -->
      <g transform="translate(426.63722 392.576263)scale(0.14 -0.14)">
       <use xlink:href="#DejaVuSans-31"/>
       <use xlink:href="#DejaVuSans-35" x="63.623047"/>
       <use xlink:href="#DejaVuSans-30" x="127.246094"/>
       <use xlink:href="#DejaVuSans-30" x="190.869141"/>
      </g>
     </g>
    </g>
    <g id="xtick_5">
     <g id="line2d_9">
      <path d="M 563.884801 378.43845 
L 563.884801 28.51845 
" clip-path="url(#pd7ed4c9e36)" style="fill: none; stroke: #cbcbcb"/>
     </g>
     <g id="line2d_10"/>
     <g id="text_5">
      <!-- 2000 -->
      <g transform="translate(546.069801 392.576263)scale(0.14 -0.14)">
       <defs>
        <path id="DejaVuSans-32" d="M 1228 531 
L 3431 531 
L 3431 0 
L 469 0 
L 469 531 
Q 828 903 1448 1529 
Q 2069 2156 2228 2338 
Q 2531 2678 2651 2914 
Q 2772 3150 2772 3378 
Q 2772 3750 2511 3984 
Q 2250 4219 1831 4219 
Q 1534 4219 1204 4116 
Q 875 4013 500 3803 
L 500 4441 
Q 881 4594 1212 4672 
Q 1544 4750 1819 4750 
Q 2544 4750 2975 4387 
Q 3406 4025 3406 3419 
Q 3406 3131 3298 2873 
Q 3191 2616 2906 2266 
Q 2828 2175 2409 1742 
Q 1991 1309 1228 531 
z
" transform="scale(0.015625)"/>
       </defs>
       <use xlink:href="#DejaVuSans-32"/>
       <use xlink:href="#DejaVuSans-30" x="63.623047"/>
       <use xlink:href="#DejaVuSans-30" x="127.246094"/>
       <use xlink:href="#DejaVuSans-30" x="190.869141"/>
      </g>
     </g>
    </g>
    <g id="xtick_6">
     <g id="line2d_11">
      <path d="M 683.317381 378.43845 
L 683.317381 28.51845 
" clip-path="url(#pd7ed4c9e36)" style="fill: none; stroke: #cbcbcb"/>
     </g>
     <g id="line2d_12"/>
     <g id="text_6">
      <!-- 2500 -->
      <g transform="translate(665.502381 392.576263)scale(0.14 -0.14)">
       <use xlink:href="#DejaVuSans-32"/>
       <use xlink:href="#DejaVuSans-35" x="63.623047"/>
       <use xlink:href="#DejaVuSans-30" x="127.246094"/>
       <use xlink:href="#DejaVuSans-30" x="190.869141"/>
      </g>
     </g>
    </g>
    <g id="text_7">
     <!-- Date -->
     <g transform="translate(350.804438 412.2532)scale(0.168 -0.168)">
      <defs>
       <path id="DejaVuSans-44" d="M 1259 4147 
L 1259 519 
L 2022 519 
Q 2988 519 3436 956 
Q 3884 1394 3884 2338 
Q 3884 3275 3436 3711 
Q 2988 4147 2022 4147 
L 1259 4147 
z
M 628 4666 
L 1925 4666 
Q 3281 4666 3915 4102 
Q 4550 3538 4550 2338 
Q 4550 1131 3912 565 
Q 3275 0 1925 0 
L 628 0 
L 628 4666 
z
" transform="scale(0.015625)"/>
       <path id="DejaVuSans-61" d="M 2194 1759 
Q 1497 1759 1228 1600 
Q 959 1441 959 1056 
Q 959 750 1161 570 
Q 1363 391 1709 391 
Q 2188 391 2477 730 
Q 2766 1069 2766 1631 
L 2766 1759 
L 2194 1759 
z
M 3341 1997 
L 3341 0 
L 2766 0 
L 2766 531 
Q 2569 213 2275 61 
Q 1981 -91 1556 -91 
Q 1019 -91 701 211 
Q 384 513 384 1019 
Q 384 1609 779 1909 
Q 1175 2209 1959 2209 
L 2766 2209 
L 2766 2266 
Q 2766 2663 2505 2880 
Q 2244 3097 1772 3097 
Q 1472 3097 1187 3025 
Q 903 2953 641 2809 
L 641 3341 
Q 956 3463 1253 3523 
Q 1550 3584 1831 3584 
Q 2591 3584 2966 3190 
Q 3341 2797 3341 1997 
z
" transform="scale(0.015625)"/>
       <path id="DejaVuSans-74" d="M 1172 4494 
L 1172 3500 
L 2356 3500 
L 2356 3053 
L 1172 3053 
L 1172 1153 
Q 1172 725 1289 603 
Q 1406 481 1766 481 
L 2356 481 
L 2356 0 
L 1766 0 
Q 1100 0 847 248 
Q 594 497 594 1153 
L 594 3053 
L 172 3053 
L 172 3500 
L 594 3500 
L 594 4494 
L 1172 4494 
z
" transform="scale(0.015625)"/>
       <path id="DejaVuSans-65" d="M 3597 1894 
L 3597 1613 
L 953 1613 
Q 991 1019 1311 708 
Q 1631 397 2203 397 
Q 2534 397 2845 478 
Q 3156 559 3463 722 
L 3463 178 
Q 3153 47 2828 -22 
Q 2503 -91 2169 -91 
Q 1331 -91 842 396 
Q 353 884 353 1716 
Q 353 2575 817 3079 
Q 1281 3584 2069 3584 
Q 2775 3584 3186 3129 
Q 3597 2675 3597 1894 
z
M 3022 2063 
Q 3016 2534 2758 2815 
Q 2500 3097 2075 3097 
Q 1594 3097 1305 2825 
Q 1016 2553 972 2059 
L 3022 2063 
z
" transform="scale(0.015625)"/>
      </defs>
      <use xlink:href="#DejaVuSans-44"/>
      <use xlink:href="#DejaVuSans-61" x="77.001953"/>
      <use xlink:href="#DejaVuSans-74" x="138.28125"/>
      <use xlink:href="#DejaVuSans-65" x="177.490234"/>
     </g>
    </g>
   </g>
   <g id="matplotlib.axis_2">
    <g id="ytick_1">
     <g id="line2d_13">
      <path d="M 57.68175 364.35808 
L 684.08175 364.35808 
" clip-path="url(#pd7ed4c9e36)" style="fill: none; stroke: #dcdcdc; stroke-width: 0.5"/>
     </g>
     <g id="line2d_14"/>
     <g id="text_8">
      <!-- 0 -->
      <g transform="translate(45.27425 369.676987)scale(0.14 -0.14)">
       <use xlink:href="#DejaVuSans-30"/>
      </g>
     </g>
    </g>
    <g id="ytick_2">
     <g id="line2d_15">
      <path d="M 57.68175 325.338862 
L 684.08175 325.338862 
" clip-path="url(#pd7ed4c9e36)" style="fill: none; stroke: #dcdcdc; stroke-width: 0.5"/>
     </g>
     <g id="line2d_16"/>
     <g id="text_9">
      <!-- 50 -->
      <g transform="translate(36.36675 330.657769)scale(0.14 -0.14)">
       <use xlink:href="#DejaVuSans-35"/>
       <use xlink:href="#DejaVuSans-30" x="63.623047"/>
      </g>
     </g>
    </g>
    <g id="ytick_3">
     <g id="line2d_17">
      <path d="M 57.68175 286.319644 
L 684.08175 286.319644 
" clip-path="url(#pd7ed4c9e36)" style="fill: none; stroke: #dcdcdc; stroke-width: 0.5"/>
     </g>
     <g id="line2d_18"/>
     <g id="text_10">
      <!-- 100 -->
      <g transform="translate(27.45925 291.638551)scale(0.14 -0.14)">
       <use xlink:href="#DejaVuSans-31"/>
       <use xlink:href="#DejaVuSans-30" x="63.623047"/>
       <use xlink:href="#DejaVuSans-30" x="127.246094"/>
      </g>
     </g>
    </g>
    <g id="ytick_4">
     <g id="line2d_19">
      <path d="M 57.68175 247.300426 
L 684.08175 247.300426 
" clip-path="url(#pd7ed4c9e36)" style="fill: none; stroke: #dcdcdc; stroke-width: 0.5"/>
     </g>
     <g id="line2d_20"/>
     <g id="text_11">
      <!-- 150 -->
      <g transform="translate(27.45925 252.619333)scale(0.14 -0.14)">
       <use xlink:href="#DejaVuSans-31"/>
       <use xlink:href="#DejaVuSans-35" x="63.623047"/>
       <use xlink:href="#DejaVuSans-30" x="127.246094"/>
      </g>
     </g>
    </g>
    <g id="ytick_5">
     <g id="line2d_21">
      <path d="M 57.68175 208.281208 
L 684.08175 208.281208 
" clip-path="url(#pd7ed4c9e36)" style="fill: none; stroke: #dcdcdc; stroke-width: 0.5"/>
     </g>
     <g id="line2d_22"/>
     <g id="text_12">
      <!-- 200 -->
      <g transform="translate(27.45925 213.600115)scale(0.14 -0.14)">
       <use xlink:href="#DejaVuSans-32"/>
       <use xlink:href="#DejaVuSans-30" x="63.623047"/>
       <use xlink:href="#DejaVuSans-30" x="127.246094"/>
      </g>
     </g>
    </g>
    <g id="ytick_6">
     <g id="line2d_23">
      <path d="M 57.68175 169.261991 
L 684.08175 169.261991 
" clip-path="url(#pd7ed4c9e36)" style="fill: none; stroke: #dcdcdc; stroke-width: 0.5"/>
     </g>
     <g id="line2d_24"/>
     <g id="text_13">
      <!-- 250 -->
      <g transform="translate(27.45925 174.580897)scale(0.14 -0.14)">
       <use xlink:href="#DejaVuSans-32"/>
       <use xlink:href="#DejaVuSans-35" x="63.623047"/>
       <use xlink:href="#DejaVuSans-30" x="127.246094"/>
      </g>
     </g>
    </g>
    <g id="ytick_7">
     <g id="line2d_25">
      <path d="M 57.68175 130.242773 
L 684.08175 130.242773 
" clip-path="url(#pd7ed4c9e36)" style="fill: none; stroke: #dcdcdc; stroke-width: 0.5"/>
     </g>
     <g id="line2d_26"/>
     <g id="text_14">
      <!-- 300 -->
      <g transform="translate(27.45925 135.561679)scale(0.14 -0.14)">
       <defs>
        <path id="DejaVuSans-33" d="M 2597 2516 
Q 3050 2419 3304 2112 
Q 3559 1806 3559 1356 
Q 3559 666 3084 287 
Q 2609 -91 1734 -91 
Q 1441 -91 1130 -33 
Q 819 25 488 141 
L 488 750 
Q 750 597 1062 519 
Q 1375 441 1716 441 
Q 2309 441 2620 675 
Q 2931 909 2931 1356 
Q 2931 1769 2642 2001 
Q 2353 2234 1838 2234 
L 1294 2234 
L 1294 2753 
L 1863 2753 
Q 2328 2753 2575 2939 
Q 2822 3125 2822 3475 
Q 2822 3834 2567 4026 
Q 2313 4219 1838 4219 
Q 1578 4219 1281 4162 
Q 984 4106 628 3988 
L 628 4550 
Q 988 4650 1302 4700 
Q 1616 4750 1894 4750 
Q 2613 4750 3031 4423 
Q 3450 4097 3450 3541 
Q 3450 3153 3228 2886 
Q 3006 2619 2597 2516 
z
" transform="scale(0.015625)"/>
       </defs>
       <use xlink:href="#DejaVuSans-33"/>
       <use xlink:href="#DejaVuSans-30" x="63.623047"/>
       <use xlink:href="#DejaVuSans-30" x="127.246094"/>
      </g>
     </g>
    </g>
    <g id="ytick_8">
     <g id="line2d_27">
      <path d="M 57.68175 91.223555 
L 684.08175 91.223555 
" clip-path="url(#pd7ed4c9e36)" style="fill: none; stroke: #dcdcdc; stroke-width: 0.5"/>
     </g>
     <g id="line2d_28"/>
     <g id="text_15">
      <!-- 350 -->
      <g transform="translate(27.45925 96.542461)scale(0.14 -0.14)">
       <use xlink:href="#DejaVuSans-33"/>
       <use xlink:href="#DejaVuSans-35" x="63.623047"/>
       <use xlink:href="#DejaVuSans-30" x="127.246094"/>
      </g>
     </g>
    </g>
    <g id="ytick_9">
     <g id="line2d_29">
      <path d="M 57.68175 52.204337 
L 684.08175 52.204337 
" clip-path="url(#pd7ed4c9e36)" style="fill: none; stroke: #dcdcdc; stroke-width: 0.5"/>
     </g>
     <g id="line2d_30"/>
     <g id="text_16">
      <!-- 400 -->
      <g transform="translate(27.45925 57.523243)scale(0.14 -0.14)">
       <defs>
        <path id="DejaVuSans-34" d="M 2419 4116 
L 825 1625 
L 2419 1625 
L 2419 4116 
z
M 2253 4666 
L 3047 4666 
L 3047 1625 
L 3713 1625 
L 3713 1100 
L 3047 1100 
L 3047 0 
L 2419 0 
L 2419 1100 
L 313 1100 
L 313 1709 
L 2253 4666 
z
" transform="scale(0.015625)"/>
       </defs>
       <use xlink:href="#DejaVuSans-34"/>
       <use xlink:href="#DejaVuSans-30" x="63.623047"/>
       <use xlink:href="#DejaVuSans-30" x="127.246094"/>
      </g>
     </g>
    </g>
    <g id="text_17">
     <!-- Price (USD) -->
     <g transform="translate(19.965375 251.1432)rotate(-90)scale(0.168 -0.168)">
      <defs>
       <path id="DejaVuSans-50" d="M 1259 4147 
L 1259 2394 
L 2053 2394 
Q 2494 2394 2734 2622 
Q 2975 2850 2975 3272 
Q 2975 3691 2734 3919 
Q 2494 4147 2053 4147 
L 1259 4147 
z
M 628 4666 
L 2053 4666 
Q 2838 4666 3239 4311 
Q 3641 3956 3641 3272 
Q 3641 2581 3239 2228 
Q 2838 1875 2053 1875 
L 1259 1875 
L 1259 0 
L 628 0 
L 628 4666 
z
" transform="scale(0.015625)"/>
       <path id="DejaVuSans-72" d="M 2631 2963 
Q 2534 3019 2420 3045 
Q 2306 3072 2169 3072 
Q 1681 3072 1420 2755 
Q 1159 2438 1159 1844 
L 1159 0 
L 581 0 
L 581 3500 
L 1159 3500 
L 1159 2956 
Q 1341 3275 1631 3429 
Q 1922 3584 2338 3584 
Q 2397 3584 2469 3576 
Q 2541 3569 2628 3553 
L 2631 2963 
z
" transform="scale(0.015625)"/>
       <path id="DejaVuSans-69" d="M 603 3500 
L 1178 3500 
L 1178 0 
L 603 0 
L 603 3500 
z
M 603 4863 
L 1178 4863 
L 1178 4134 
L 603 4134 
L 603 4863 
z
" transform="scale(0.015625)"/>
       <path id="DejaVuSans-63" d="M 3122 3366 
L 3122 2828 
Q 2878 2963 2633 3030 
Q 2388 3097 2138 3097 
Q 1578 3097 1268 2742 
Q 959 2388 959 1747 
Q 959 1106 1268 751 
Q 1578 397 2138 397 
Q 2388 397 2633 464 
Q 2878 531 3122 666 
L 3122 134 
Q 2881 22 2623 -34 
Q 2366 -91 2075 -91 
Q 1284 -91 818 406 
Q 353 903 353 1747 
Q 353 2603 823 3093 
Q 1294 3584 2113 3584 
Q 2378 3584 2631 3529 
Q 2884 3475 3122 3366 
z
" transform="scale(0.015625)"/>
       <path id="DejaVuSans-20" transform="scale(0.015625)"/>
       <path id="DejaVuSans-28" d="M 1984 4856 
Q 1566 4138 1362 3434 
Q 1159 2731 1159 2009 
Q 1159 1288 1364 580 
Q 1569 -128 1984 -844 
L 1484 -844 
Q 1016 -109 783 600 
Q 550 1309 550 2009 
Q 550 2706 781 3412 
Q 1013 4119 1484 4856 
L 1984 4856 
z
" transform="scale(0.015625)"/>
       <path id="DejaVuSans-55" d="M 556 4666 
L 1191 4666 
L 1191 1831 
Q 1191 1081 1462 751 
Q 1734 422 2344 422 
Q 2950 422 3222 751 
Q 3494 1081 3494 1831 
L 3494 4666 
L 4128 4666 
L 4128 1753 
Q 4128 841 3676 375 
Q 3225 -91 2344 -91 
Q 1459 -91 1007 375 
Q 556 841 556 1753 
L 556 4666 
z
" transform="scale(0.015625)"/>
       <path id="DejaVuSans-53" d="M 3425 4513 
L 3425 3897 
Q 3066 4069 2747 4153 
Q 2428 4238 2131 4238 
Q 1616 4238 1336 4038 
Q 1056 3838 1056 3469 
Q 1056 3159 1242 3001 
Q 1428 2844 1947 2747 
L 2328 2669 
Q 3034 2534 3370 2195 
Q 3706 1856 3706 1288 
Q 3706 609 3251 259 
Q 2797 -91 1919 -91 
Q 1588 -91 1214 -16 
Q 841 59 441 206 
L 441 856 
Q 825 641 1194 531 
Q 1563 422 1919 422 
Q 2459 422 2753 634 
Q 3047 847 3047 1241 
Q 3047 1584 2836 1778 
Q 2625 1972 2144 2069 
L 1759 2144 
Q 1053 2284 737 2584 
Q 422 2884 422 3419 
Q 422 4038 858 4394 
Q 1294 4750 2059 4750 
Q 2388 4750 2728 4690 
Q 3069 4631 3425 4513 
z
" transform="scale(0.015625)"/>
       <path id="DejaVuSans-29" d="M 513 4856 
L 1013 4856 
Q 1481 4119 1714 3412 
Q 1947 2706 1947 2009 
Q 1947 1309 1714 600 
Q 1481 -109 1013 -844 
L 513 -844 
Q 928 -128 1133 580 
Q 1338 1288 1338 2009 
Q 1338 2731 1133 3434 
Q 928 4138 513 4856 
z
" transform="scale(0.015625)"/>
      </defs>
      <use xlink:href="#DejaVuSans-50"/>
      <use xlink:href="#DejaVuSans-72" x="58.552734"/>
      <use xlink:href="#DejaVuSans-69" x="99.666016"/>
      <use xlink:href="#DejaVuSans-63" x="127.449219"/>
      <use xlink:href="#DejaVuSans-65" x="182.429688"/>
      <use xlink:href="#DejaVuSans-20" x="243.953125"/>
      <use xlink:href="#DejaVuSans-28" x="275.740234"/>
      <use xlink:href="#DejaVuSans-55" x="314.753906"/>
      <use xlink:href="#DejaVuSans-53" x="387.947266"/>
      <use xlink:href="#DejaVuSans-44" x="451.423828"/>
      <use xlink:href="#DejaVuSans-29" x="528.425781"/>
     </g>
    </g>
   </g>
   <g id="line2d_31">
    <path d="M 94.514758 176.639276 
L 94.753623 177.013861 
L 95.231353 179.375772 
L 95.470219 182.473898 
L 95.709084 181.480234 
M 96.664544 182.476551 
L 96.90341 187.005356 
L 97.142275 189.182628 
M 114.340566 137.630437 
L 115.057162 165.003745 
L 115.296027 157.465232 
L 115.534892 146.292704 
L 115.773757 140.915855 
L 116.251488 155.064224 
L 116.490353 146.295279 
M 138.943678 139.53715 
L 139.182543 138.018054 
L 139.660273 151.490063 
L 140.138004 154.767678 
L 140.376869 158.352217 
L 140.615734 160.030044 
L 140.854599 157.917855 
L 141.093464 160.742847 
L 141.33233 161.304723 
L 141.571195 161.060151 
L 141.81006 162.701611 
L 142.048925 162.633952 
L 142.28779 161.117431 
L 142.526655 162.092912 
L 142.765521 158.503144 
L 143.243251 168.31515 
L 143.482116 168.757394 
L 143.959846 174.420331 
M 147.542824 179.167721 
L 147.781689 181.966648 
L 148.020554 179.355014 
M 148.73715 187.403352 
L 148.976015 189.169596 
L 149.21488 185.132433 
L 149.453745 191.188216 
M 153.275588 193.292678 
L 153.514453 196.996851 
L 153.753318 195.467297 
M 154.708779 196.778343 
L 154.947644 195.118778 
L 155.186509 194.395595 
M 159.963812 208.447743 
L 160.202677 203.679594 
L 160.441543 205.708593 
L 160.680408 205.648738 
L 160.919273 208.598591 
L 161.158138 207.347401 
L 161.397003 206.946751 
L 161.635868 208.528356 
L 161.874734 215.34634 
M 186.477845 173.13535 
L 186.71671 174.524434 
L 186.955576 180.793496 
L 187.194441 183.626291 
L 187.433306 191.115406 
L 187.911036 192.213095 
L 188.149901 196.32057 
L 188.388766 197.787692 
L 188.627632 195.31122 
M 189.105362 193.740073 
L 189.344227 202.358091 
L 189.583092 199.631975 
M 194.12153 249.482927 
L 194.360396 258.202396 
L 194.599261 258.095717 
L 194.838126 257.247752 
L 195.076991 255.850864 
L 195.315856 257.611879 
L 196.032452 250.398552 
L 196.271317 254.849318 
L 196.510182 254.08977 
L 196.749047 260.174193 
L 196.987912 263.417939 
M 203.198406 263.483023 
L 203.437272 265.415723 
M 210.125496 280.024518 
L 210.364361 283.470695 
L 210.603227 292.854583 
L 211.319822 286.861699 
L 211.558687 287.098936 
L 211.797552 286.995926 
L 212.036417 287.100029 
L 212.275283 289.921899 
L 212.514148 286.970485 
L 212.753013 286.365921 
L 212.991878 287.542741 
M 217.291451 306.108631 
L 217.530316 308.180239 
L 218.008047 314.426982 
L 218.246912 313.061856 
L 218.485777 314.369234 
L 218.724642 312.239799 
L 218.963507 312.627962 
L 219.441237 312.126409 
L 219.918968 313.262102 
L 220.157833 312.80589 
L 220.396698 315.699555 
M 224.218541 321.928036 
L 224.457406 322.320804 
L 224.696271 322.028472 
M 230.906765 334.547398 
L 231.14563 335.804285 
L 231.384496 335.980652 
L 232.101091 340.713995 
L 232.339956 339.304621 
M 232.817687 338.234402 
L 233.534282 336.303263 
L 233.773147 338.085114 
L 234.012012 341.763846 
L 234.250878 342.115565 
M 242.372293 330.511718 
L 242.611158 331.019514 
L 242.850023 334.131687 
L 243.327754 335.32669 
L 243.566619 334.972941 
M 244.283214 335.889659 
L 244.522079 337.798947 
L 244.760945 337.643417 
M 245.238675 336.372405 
L 245.47754 337.051885 
L 245.716405 339.482002 
L 245.95527 339.316093 
L 246.194136 338.754216 
L 246.671866 340.866404 
L 247.149596 341.973535 
L 247.388461 342.594175 
L 247.627327 342.783028 
L 247.866192 341.967292 
L 248.105057 341.938184 
L 248.582787 342.547898 
L 248.821652 343.257034 
L 249.060518 343.337647 
L 249.538248 344.640889 
L 249.777113 344.510331 
L 250.015978 345.712591 
L 250.254843 345.645478 
L 250.971439 346.693846 
L 251.449169 347.170349 
L 251.926899 346.867092 
L 252.165765 346.936234 
L 252.40463 347.192746 
L 252.643495 347.122511 
L 252.88236 347.245812 
L 253.121225 346.859756 
L 253.36009 347.031441 
M 256.943068 348.057958 
L 257.659663 347.906564 
M 258.376259 348.767015 
L 258.615124 351.108168 
L 258.853989 351.061345 
L 259.092854 351.169585 
L 259.570585 350.728902 
L 260.28718 350.98955 
L 260.526045 351.461448 
L 260.76491 351.625329 
L 261.003776 351.636255 
L 261.720371 352.317764 
L 261.959236 352.234575 
M 263.392427 352.459794 
L 263.631292 352.745415 
M 267.692 352.823453 
L 267.930865 353.14185 
L 268.16973 353.220435 
L 268.408596 353.172597 
L 268.647461 353.359889 
M 277.246607 352.137261 
L 277.485472 352.675726 
L 277.724337 352.539393 
L 277.963202 352.73246 
L 278.202067 352.76469 
L 278.440932 352.950422 
L 278.679798 352.924903 
L 278.918663 352.723096 
L 279.396393 352.932239 
M 282.262775 354.285894 
L 282.50164 355.04708 
L 282.979371 354.565817 
L 283.218236 354.480521 
L 283.457101 354.540845 
M 313.315246 347.406571 
L 313.554111 346.763535 
M 318.809145 350.781968 
L 319.04801 350.831444 
L 319.286875 350.627998 
L 319.764605 349.968339 
L 320.003471 350.852749 
L 320.242336 350.894889 
L 320.481201 351.235683 
L 320.958931 350.685746 
L 321.197796 351.32254 
M 342.695661 349.544824 
L 342.934526 349.181165 
L 343.412256 349.850735 
L 343.651122 349.902787 
L 343.889987 349.839263 
L 344.128852 350.050514 
L 344.367717 349.557311 
L 344.606582 349.956321 
M 367.059907 347.852951 
L 367.298773 347.682281 
L 367.537638 348.159876 
L 367.776503 347.95128 
L 368.015368 348.144815 
L 368.254233 347.850844 
M 388.080042 346.374903 
L 388.318907 346.250588 
M 402.173086 346.288515 
L 402.411951 346.677146 
L 402.650817 346.650145 
M 403.128547 346.924294 
L 403.845142 348.218717 
L 404.084007 348.5496 
L 404.322873 348.211928 
L 404.800603 348.070913 
L 405.039468 348.432543 
L 405.278333 347.865437 
L 405.517198 347.9242 
M 413.877479 350.667017 
L 414.116344 351.103018 
L 414.355209 351.091 
L 414.594075 351.316297 
L 414.83294 350.731555 
L 415.31067 350.724766 
L 415.549535 351.053542 
L 415.7884 350.935469 
L 416.027266 351.550959 
L 416.266131 351.679956 
L 416.743861 351.514515 
M 422.476625 351.391214 
L 422.71549 351.251291 
L 422.954355 351.318872 
M 423.432086 351.22109 
L 423.909816 351.111836 
L 424.387546 351.625875 
L 424.626411 351.676288 
L 425.104142 352.10191 
L 425.343007 351.988988 
L 425.581872 352.413517 
L 426.537333 352.443718 
L 426.776198 352.561244 
L 427.015063 352.548758 
L 427.253928 353.06904 
L 427.492793 353.240725 
L 427.731658 353.189219 
L 427.970524 352.925996 
L 428.209389 352.936921 
L 428.687119 353.513313 
L 429.164849 353.495676 
L 429.403715 353.810952 
L 429.64258 353.823438 
L 429.881445 354.078858 
L 430.359175 354.049203 
L 430.59804 354.346764 
L 431.314636 354.309305 
L 431.553501 354.689118 
L 431.792366 354.63972 
L 432.031231 354.91699 
L 432.270097 354.895686 
L 432.508962 354.504401 
M 458.067534 353.422788 
L 458.306399 353.859804 
L 458.784129 354.309305 
L 459.022995 354.140274 
L 459.26186 354.126695 
M 464.994624 353.371829 
L 465.233489 353.710516 
M 475.504691 352.81206 
L 475.982421 353.164793 
L 476.221286 353.562789 
M 477.893342 354.559574 
L 478.132208 354.663131 
L 478.371073 354.372828 
L 478.848803 354.606944 
L 479.087668 355.04552 
L 479.326533 355.13862 
L 479.565399 355.111072 
L 479.804264 355.691678 
L 480.281994 355.582424 
L 480.520859 356.285238 
L 480.759724 356.500156 
L 480.99859 356.529811 
L 481.237455 356.883559 
L 481.47632 356.645308 
L 481.715185 356.658808 
M 508.706948 352.660665 
L 508.945813 352.910856 
L 509.184679 352.971258 
M 520.889072 351.331905 
L 521.605667 351.315282 
M 522.322263 351.396442 
L 522.561128 351.563913 
L 522.799993 351.404246 
M 526.860701 352.048297 
L 527.099566 352.038387 
L 527.338431 352.369816 
L 527.577296 352.238711 
L 528.293892 352.597688 
M 528.771622 352.367241 
L 529.010487 352.311521 
L 529.249352 352.994357 
L 529.727083 352.941603 
L 529.965948 353.463368 
L 530.204813 353.678755 
L 530.921408 353.545621 
L 531.160273 353.564818 
M 531.876869 353.428017 
L 532.593464 353.791676 
L 532.83233 354.421212 
L 533.071195 354.598594 
L 533.548925 354.443531 
L 533.78779 354.733366 
M 544.775588 354.131377 
L 545.014453 354.372828 
L 545.253318 354.313519 
L 545.731048 354.333263 
M 569.617565 351.125883 
L 569.85643 351.054634 
M 570.81189 350.759649 
L 571.289621 350.833473 
M 572.483946 351.950515 
L 572.722812 351.948955 
L 572.961677 352.222089 
L 573.200542 352.740733 
L 573.439407 352.448401 
L 573.678272 352.651769 
L 574.633733 352.782873 
L 574.872598 352.934268 
L 575.350328 352.911403 
L 575.589194 353.151761 
L 576.066924 352.934268 
M 581.560823 353.720427 
L 581.799688 353.833271 
L 582.277418 353.527828 
L 583.232879 353.708409 
M 585.62153 354.392026 
L 585.860396 354.546542 
M 586.338126 354.464914 
L 586.815856 354.875864 
L 587.054721 355.066824 
M 600.670036 354.045067 
L 600.908901 353.972179 
L 601.147766 354.196461 
L 601.625496 354.131924 
L 602.103227 355.07775 
L 602.342092 355.283771 
L 602.580957 355.059567 
L 602.819822 355.143848 
M 603.775283 355.07775 
L 604.014148 355.533494 
M 606.163934 357.108856 
L 606.402799 356.77688 
L 606.641665 356.682766 
M 607.83599 356.549008 
L 608.074856 356.531918 
M 613.568754 358.089019 
L 614.28535 358.005752 
M 626.467473 355.850876 
L 626.706338 355.702603 
L 626.945203 355.997589 
L 627.184068 355.671388 
M 630.528181 356.970416 
L 631.005911 357.107763 
L 631.244776 356.79202 
L 631.483641 356.69057 
M 635.066619 357.988583 
L 635.305484 358.131628 
M 635.783214 358.101973 
L 636.022079 358.684686 
M 639.605057 359.078 
L 639.843922 359.178903 
L 640.082787 359.121701 
L 640.321652 358.912012 
L 641.515978 359.273642 
L 641.754843 359.44322 
M 647.009877 360.747476 
L 647.248742 361.455753 
L 647.487607 361.470112 
L 647.726472 361.26253 
L 647.965338 361.520057 
L 648.681933 361.549243 
L 648.920798 361.499767 
L 649.159663 361.694394 
L 649.398529 361.652722 
L 649.876259 361.704227 
L 650.353989 361.869669 
M 650.831719 361.993516 
L 651.070585 361.986258 
L 651.30945 362.105345 
L 651.78718 362.090283 
L 652.26491 362.251043 
L 652.742641 362.20578 
L 653.220371 362.219827 
M 655.131292 362.484612 
" clip-path="url(#pd7ed4c9e36)" style="fill: none; stroke: #00ff7f"/>
   </g>
   <g id="line2d_32">
    <path d="M 89.49859 125.120876 
L 89.737455 122.96959 
M 106.219151 137.193422 
L 106.458016 116.554831 
L 106.696881 127.836613 
L 106.935746 129.477996 
M 108.130072 104.74504 
L 108.368937 102.916366 
L 108.607802 101.946036 
L 108.846668 110.160908 
L 109.085533 96.907406 
M 125.567229 97.216906 
L 125.806094 87.399671 
M 126.283824 65.317447 
L 126.52269 52.261617 
M 132.016588 66.573866 
L 132.255453 68.595061 
M 167.129767 186.196331 
L 167.368632 179.812787 
L 167.607497 188.251395 
L 168.085228 181.035415 
L 168.324093 172.331554 
L 168.801823 177.146526 
L 169.040688 170.791544 
M 179.789621 157.238921 
L 180.028486 152.062319 
L 180.267351 153.222517 
L 180.506216 155.001793 
L 180.745081 143.389674 
L 180.983946 139.758311 
L 181.222812 142.669145 
L 181.461677 143.25178 
L 181.700542 142.02923 
L 181.939407 137.320859 
L 182.178272 145.899936 
M 237.117259 325.364849 
L 237.59499 325.67076 
M 238.07272 329.032656 
L 238.311585 323.840524 
L 238.55045 322.742211 
L 238.789316 320.979635 
L 239.028181 317.482967 
L 239.267046 317.565688 
L 239.505911 316.62868 
L 239.744776 319.699259 
M 285.368022 352.290763 
L 285.606887 352.272034 
L 285.845752 352.547743 
L 286.084618 351.896903 
L 286.801213 351.504604 
L 287.040078 351.073832 
L 287.278943 351.089985 
L 287.517809 351.658652 
M 291.100786 349.995887 
L 291.339651 350.190983 
L 291.817381 350.053089 
M 298.027876 347.71615 
L 298.266741 347.983509 
M 329.558077 348.464226 
L 329.796942 346.906111 
L 330.035807 346.737548 
L 330.513538 345.815602 
L 330.991268 346.021623 
L 331.230133 345.090937 
L 331.468998 344.610688 
M 355.833245 346.573667 
L 356.07211 346.382707 
L 356.310975 347.336883 
L 356.788705 347.069992 
M 358.221896 346.097633 
L 358.460762 345.763082 
M 378.7643 346.824405 
L 379.480896 345.647039 
L 379.958626 346.117923 
L 380.197491 345.859303 
L 380.436356 345.853606 
M 384.497064 344.843243 
L 384.735929 344.328189 
M 398.590109 344.718928 
L 398.828974 344.408881 
L 399.067839 344.452582 
M 399.784435 345.119031 
L 400.0233 345.035764 
L 400.50103 344.554032 
M 419.371378 349.926667 
L 419.849108 350.365789 
L 420.087973 349.803366 
L 420.565704 349.759664 
M 448.512928 352.862472 
L 448.990658 352.660665 
L 449.229523 352.760008 
L 449.468388 352.652315 
L 449.946119 352.743854 
L 451.140444 352.618524 
L 451.379309 352.44005 
M 461.650511 352.105031 
L 461.889377 352.270473 
M 468.099871 351.832365 
L 468.577601 351.275171 
L 468.816466 351.157099 
L 469.055331 351.256988 
L 469.294197 351.156552 
L 469.533062 351.440612 
L 469.771927 351.353209 
L 470.010792 351.488528 
L 470.249657 351.149841 
L 470.488522 351.117065 
L 470.727388 351.254881 
L 470.966253 351.115972 
M 483.864971 354.288001 
L 484.103837 354.141288 
L 484.342702 353.820316 
L 484.820432 354.020563 
L 485.059297 353.707395 
L 485.537028 353.631463 
L 485.775893 353.936828 
L 486.014758 353.43426 
M 486.731353 353.138729 
L 487.447949 352.735036 
L 487.686814 351.871384 
L 488.164544 352.018097 
M 489.120005 352.394788 
L 489.35887 352.259001 
L 489.597735 352.368255 
L 490.075466 352.157551 
M 502.257589 351.551973 
L 502.496454 351.478071 
M 503.69078 350.992203 
L 503.929645 350.669124 
L 504.407375 350.782514 
L 504.646241 350.612937 
L 504.885106 350.799136 
L 505.362836 350.714386 
M 512.289926 350.304373 
L 512.528791 350.504697 
M 539.520554 353.571374 
L 539.759419 353.062797 
M 547.880835 352.787087 
L 548.1197 352.796452 
L 548.59743 352.505603 
L 548.836295 352.794891 
L 549.075161 352.862004 
L 549.314026 352.777176 
L 549.552891 352.949407 
M 553.374734 351.432808 
L 553.852464 351.522318 
L 554.091329 351.727325 
L 554.330194 351.418761 
L 554.569059 351.469252 
L 554.807924 350.951077 
L 555.04679 351.144612 
L 555.285655 350.900118 
L 555.52452 351.263231 
M 561.973879 350.853763 
L 562.212745 350.799136 
M 566.273452 349.774804 
L 566.512317 349.733677 
L 566.751183 349.870011 
L 566.990048 349.681158 
L 567.228913 349.926667 
L 567.467778 349.476697 
L 567.706643 349.728995 
L 567.945508 349.576586 
M 597.325923 351.548851 
L 597.564788 351.198693 
L 597.803654 351.213286 
L 598.042519 351.099896 
M 616.912867 356.493913 
L 617.151732 355.159456 
L 617.390597 355.243191 
L 617.629462 355.921111 
L 617.868327 356.037076 
M 620.018114 354.816555 
" clip-path="url(#pd7ed4c9e36)" style="fill: none; stroke: #ff4500"/>
   </g>
   <g id="line2d_33">
    <path d="M 86.154477 150.205004 
L 86.393342 153.490423 
L 86.632208 148.066751 
L 86.871073 149.276347 
M 87.348803 142.089007 
L 87.587668 139.53715 
L 87.826533 133.309683 
L 88.065399 132.50854 
L 88.304264 133.010562 
L 88.543129 138.114275 
L 89.020859 128.003069 
L 89.259724 127.123888 
M 89.97632 130.219361 
L 90.215185 140.676511 
L 90.45405 134.646794 
L 90.692915 143.249205 
L 90.931781 137.716279 
L 91.170646 139.47472 
L 91.409511 123.50548 
L 91.648376 124.470582 
L 91.887241 129.784999 
L 92.126106 132.368071 
L 92.364971 132.466868 
L 92.603837 145.148114 
L 92.842702 149.892851 
M 93.320432 154.876932 
L 93.559297 151.903667 
L 93.798162 152.322499 
L 94.037028 171.212951 
L 94.275893 172.750309 
M 95.947949 168.666323 
L 96.186814 173.520314 
L 96.425679 183.517037 
M 97.38114 186.048058 
L 97.620005 182.79128 
L 97.85887 173.226343 
L 98.097735 172.612493 
L 98.336601 180.913129 
L 98.814331 179.378425 
L 99.053196 195.201967 
M 99.530926 182.528525 
L 99.769791 191.978979 
L 100.008657 196.000612 
L 100.247522 183.129421 
L 100.486387 177.294799 
L 100.725252 175.609169 
L 100.964117 177.934714 
L 101.202982 178.408095 
L 101.441848 181.344994 
L 101.680713 162.758814 
L 101.919578 171.767024 
L 102.158443 167.113358 
L 102.397308 166.756957 
L 102.875039 192.985675 
L 103.113904 200.956053 
L 103.352769 188.797664 
L 103.591634 191.659022 
L 103.830499 179.818016 
L 104.069364 179.716566 
L 104.30823 166.241903 
L 104.547095 175.929126 
L 104.78596 164.166081 
L 105.024825 174.984861 
L 105.26369 173.424092 
L 105.502555 156.245179 
L 105.741421 159.608636 
L 105.980286 139.178173 
M 107.174612 137.848945 
L 107.652342 135.052594 
L 107.891207 136.376594 
M 109.324398 103.114037 
L 109.563263 108.131908 
L 109.802128 98.410895 
L 110.040993 107.624659 
L 110.279859 110.491244 
L 110.518724 97.599295 
M 111.474184 66.394378 
L 111.71305 82.225723 
L 111.951915 84.044018 
L 112.19078 79.780545 
L 112.429645 78.32903 
L 112.66851 80.339846 
L 112.907375 101.462197 
L 113.146241 100.609003 
L 113.385106 104.461527 
L 113.623971 105.795984 
L 113.862836 124.738488 
L 114.101701 128.840734 
M 116.729218 146.035177 
L 116.968083 135.474001 
L 117.206948 139.511163 
L 117.445813 137.934787 
L 117.684679 153.688172 
L 117.923544 156.055312 
L 118.162409 165.609792 
L 118.640139 141.433484 
L 118.879004 136.394855 
L 119.11787 124.158428 
L 119.356735 124.408151 
L 119.5956 136.548278 
L 119.834465 140.647949 
L 120.312195 121.918725 
L 120.789926 128.333484 
L 121.028791 124.176611 
L 121.267656 132.54756 
L 121.506521 128.770499 
L 121.745386 122.113821 
L 121.984252 120.690868 
L 122.223117 144.198698 
L 122.461982 148.685908 
L 122.700847 120.51138 
L 122.939712 125.456441 
L 123.417442 118.823174 
L 123.656308 105.200238 
L 123.895173 105.361544 
L 124.372903 91.325005 
L 124.611768 96.020343 
M 125.089499 87.47771 
L 125.328364 89.111366 
M 126.761555 89.459886 
L 127.239285 81.809544 
L 127.47815 81.216452 
L 127.717015 79.793577 
L 127.955881 86.801429 
L 128.672476 130.25838 
L 128.911341 121.770452 
L 129.150206 123.24015 
L 129.389072 110.475637 
L 129.627937 115.022702 
M 130.105667 99.799979 
L 130.344532 103.241474 
L 130.583397 86.291525 
L 130.822263 90.768356 
L 131.061128 101.886258 
L 131.299993 100.335869 
L 131.538858 82.223148 
L 131.777723 79.517789 
M 132.494319 82.920265 
L 132.733184 74.055099 
L 132.972049 75.868244 
L 133.210914 63.423688 
L 133.449779 68.5768 
L 133.688644 79.158812 
L 133.92751 81.075983 
L 134.40524 100.746897 
L 134.644105 95.536505 
L 134.88297 87.70925 
L 135.121835 86.554281 
L 135.360701 98.117002 
L 135.599566 61.844737 
L 135.838431 46.458132 
L 136.077296 44.423905 
L 136.316161 48.598961 
L 136.555026 59.487976 
L 136.793892 49.969862 
L 137.032757 74.575381 
L 137.749352 99.435851 
L 137.988217 97.763176 
L 138.227083 127.724784 
L 138.465948 131.803541 
L 138.704813 139.139154 
M 144.198712 166.793401 
L 144.437577 167.443695 
L 144.676442 167.74547 
L 144.915307 170.695322 
L 145.154172 171.082939 
L 145.393037 172.833576 
L 145.631903 167.997768 
L 146.109633 168.502442 
L 146.348498 173.535922 
L 146.587363 173.842847 
L 147.065094 172.97662 
L 147.303959 174.227888 
M 148.259419 180.059935 
L 148.498284 180.629615 
M 149.69261 185.865994 
L 149.931475 177.802049 
L 150.170341 176.480546 
L 150.409206 180.234195 
L 150.648071 179.669743 
L 150.886936 178.689034 
L 151.125801 182.502538 
L 151.364666 178.462722 
L 151.603532 179.427823 
L 151.842397 179.734749 
L 152.081262 179.75301 
L 152.320127 185.598088 
L 152.558992 188.160324 
L 152.797857 196.060389 
L 153.036723 196.632723 
M 153.992183 193.898725 
L 154.231048 192.543509 
L 154.469914 196.258139 
M 155.425374 190.452079 
L 155.664239 185.988281 
L 155.903104 193.466938 
L 156.14197 194.543868 
L 156.380835 196.666514 
L 156.858565 187.7571 
L 157.09743 188.012051 
L 157.575161 187.273262 
L 157.814026 185.202668 
L 158.052891 189.585853 
L 158.291756 187.517834 
L 159.008352 202.862766 
L 159.247217 202.217622 
L 159.486082 203.963108 
L 159.724947 207.014411 
M 162.113599 206.949405 
L 162.352464 202.064198 
L 162.591329 201.720829 
L 162.830194 200.256282 
L 163.307924 207.061234 
L 163.54679 206.606035 
L 163.785655 213.25491 
L 164.02452 211.720128 
L 164.263385 217.78629 
L 164.50225 214.03787 
L 164.741115 214.308429 
L 164.979981 210.950123 
L 165.218846 215.645462 
L 165.457711 210.911104 
L 165.696576 203.807031 
L 165.935441 200.727088 
L 166.174306 189.455762 
L 166.413172 191.752668 
L 166.652037 189.827772 
L 166.890902 189.135805 
M 169.279554 177.32859 
L 169.518419 178.462722 
L 169.757284 171.920526 
L 169.996149 172.162445 
L 170.235014 173.884519 
L 170.473879 166.057264 
L 170.712745 181.753369 
L 170.95161 188.246167 
L 171.190475 186.482498 
L 171.42934 189.819968 
L 171.668205 184.44827 
L 171.90707 184.596543 
L 172.145935 192.218323 
L 172.384801 190.610731 
L 172.862531 205.344388 
M 173.340261 197.77466 
L 173.579126 200.40713 
L 173.817992 192.111645 
L 174.056857 190.072266 
L 174.295722 194.007979 
L 174.534587 194.452798 
L 174.773452 181.797617 
L 175.012317 188.282611 
L 175.251183 180.202979 
L 175.490048 183.899426 
L 175.728913 182.372448 
L 175.967778 190.576941 
L 176.206643 189.141033 
L 176.445508 217.906001 
L 177.162104 194.442419 
L 177.639834 177.474287 
L 177.878699 188.641587 
L 178.117565 186.893526 
L 178.35643 171.337813 
L 178.595295 182.570197 
L 178.83416 178.496591 
L 179.073025 161.120006 
L 179.31189 159.538401 
L 179.550755 156.736822 
M 182.417137 157.938613 
L 182.894868 139.56579 
L 183.133733 134.641565 
L 183.372598 135.237232 
L 183.611463 144.123235 
L 183.850328 144.552446 
L 184.089194 143.132147 
L 184.328059 144.666929 
L 184.566924 149.450685 
L 184.805789 144.549871 
L 185.044654 142.10204 
L 185.283519 143.394902 
L 185.522385 153.344803 
L 185.76125 135.440132 
L 186.23898 167.70645 
M 190.299688 201.239566 
L 190.538553 207.115861 
L 190.777418 195.30607 
L 191.016283 197.418258 
L 191.255148 208.530931 
L 191.494014 210.003283 
L 191.732879 216.392055 
L 191.971744 212.245561 
M 192.449474 211.985459 
L 192.688339 215.044566 
L 192.927205 219.888177 
L 193.404935 236.996778 
M 197.226777 257.489671 
L 197.465643 258.740861 
L 197.704508 253.88687 
L 197.943373 255.03146 
L 198.182238 254.940389 
L 198.421103 253.598128 
L 198.659968 254.417532 
L 198.898834 254.599595 
L 199.854294 244.360953 
L 200.093159 248.171882 
M 200.57089 251.46245 
L 200.809755 253.564338 
L 201.04862 253.725565 
L 201.287485 256.670267 
L 201.52635 253.626768 
L 201.765216 256.381525 
L 202.004081 247.779036 
L 202.242946 252.760542 
L 202.481811 255.346189 
L 202.720676 254.792116 
L 202.959541 258.397492 
M 203.676137 254.003928 
L 203.915002 247.459079 
L 204.153867 249.342458 
L 204.392732 254.212057 
L 204.631597 249.443908 
L 204.870463 247.362857 
L 205.109328 255.203145 
L 205.348193 267.403128 
L 205.587058 267.762104 
L 205.825923 269.078379 
L 206.064788 278.461174 
L 206.303654 255.541285 
L 206.542519 258.48591 
L 207.020249 240.784217 
L 207.259114 234.73101 
L 207.497979 249.204486 
L 207.736845 247.885637 
L 207.97571 252.338042 
L 208.214575 259.092502 
L 208.45344 259.567991 
L 208.692305 257.70654 
L 208.93117 260.211574 
L 209.170036 266.626333 
L 209.408901 266.180968 
L 209.647766 268.857686 
L 209.886631 278.478811 
M 213.230743 284.259352 
L 213.469608 290.637745 
L 213.947339 281.516067 
L 214.186204 282.763121 
L 214.425069 278.879928 
L 214.663934 286.275865 
L 214.902799 286.286322 
L 215.141665 283.925893 
L 215.619395 286.4726 
L 215.85826 283.996674 
L 216.097125 291.819793 
L 216.33599 293.297295 
L 216.574856 292.049695 
L 216.813721 293.000749 
L 217.052586 301.476738 
M 220.635563 313.745472 
L 220.874428 311.029189 
L 221.113294 315.419085 
L 221.352159 314.9379 
L 221.591024 318.281066 
L 221.829889 319.388119 
L 222.068754 318.421535 
L 222.307619 318.494345 
L 222.546485 317.633815 
L 222.78535 320.916658 
L 223.024215 322.435286 
L 223.26308 321.685103 
L 223.74081 321.859363 
L 223.979676 321.301622 
M 224.935136 322.780762 
L 225.174001 322.564284 
M 226.129462 321.727244 
L 226.368327 323.775987 
L 226.607192 323.643868 
L 226.846058 324.391476 
L 227.084923 324.756696 
M 227.562653 323.680233 
L 227.801518 322.710996 
L 228.040383 324.344106 
L 228.279248 322.802613 
L 228.518114 326.631647 
L 228.756979 327.647239 
L 228.995844 326.269549 
L 229.234709 328.630992 
L 229.473574 325.528184 
L 229.712439 325.136431 
L 229.951305 325.588039 
L 230.429035 327.42561 
L 230.6679 330.491974 
M 234.967473 341.976657 
L 235.206338 341.203062 
L 235.445203 335.919782 
L 235.684068 335.195117 
L 235.922934 331.361869 
L 236.161799 330.784384 
L 236.400664 332.726449 
L 236.639529 327.759068 
L 236.878394 326.663409 
M 239.983641 322.735968 
L 240.222507 322.529479 
L 240.461372 324.439313 
L 240.700237 324.070426 
L 240.939102 324.231731 
L 241.177967 325.43922 
L 241.416832 325.392943 
L 241.655698 326.134854 
L 241.894563 318.208178 
L 242.133428 323.778094 
M 243.805484 334.588992 
L 244.044349 334.72634 
M 253.598956 345.897854 
L 253.837821 346.033641 
L 254.076686 345.653828 
L 254.315551 346.149606 
L 254.554416 346.036216 
L 255.032147 346.351492 
L 255.271012 346.152728 
L 255.509877 346.404558 
L 255.748742 346.818161 
L 255.987607 346.901429 
L 256.465338 347.854512 
L 256.704203 347.84148 
M 257.898529 347.308789 
L 258.137394 347.286938 
M 262.198101 351.709064 
L 262.436967 351.627904 
L 262.675832 351.826668 
M 263.870158 351.807939 
L 264.109023 351.839701 
L 264.347888 351.528561 
L 264.586753 351.690335 
L 264.825618 351.622754 
L 265.064483 351.725765 
L 265.542214 351.566566 
L 265.781079 351.502575 
L 266.019944 352.103939 
L 266.497674 352.524878 
L 266.73654 352.414064 
L 266.975405 352.877066 
L 267.21427 352.651769 
L 267.453135 352.620553 
M 269.364056 352.607599 
L 269.602921 352.557108 
L 270.080652 353.139275 
L 270.319517 352.932239 
L 270.558382 352.132033 
L 270.797247 352.443718 
L 271.274978 351.960348 
L 271.752708 352.353194 
L 271.991573 352.479616 
L 272.230438 352.16637 
L 272.469303 352.191888 
L 272.708169 351.788195 
L 272.947034 351.754327 
L 273.424764 352.494131 
L 273.663629 352.453551 
L 273.902494 350.577507 
L 274.380225 351.056195 
L 274.61909 350.926105 
L 274.857955 351.167478 
L 275.09682 351.098804 
L 275.335685 351.227879 
L 275.57455 351.169585 
L 276.052281 351.94474 
L 276.291146 351.928118 
L 276.530011 352.389091 
L 276.768876 352.374498 
L 277.007741 352.230907 
M 279.635258 352.577944 
L 280.112989 352.650754 
L 280.351854 353.176733 
M 280.829584 353.471172 
L 281.068449 353.063343 
L 281.307314 353.282866 
L 281.54618 353.718866 
L 281.785045 353.643403 
L 282.02391 354.130363 
M 283.695966 354.44041 
L 283.934831 354.187565 
L 284.173696 354.331156 
L 284.412561 353.688665 
L 284.651427 353.674072 
L 284.890292 353.379087 
L 285.129157 352.47907 
M 287.756674 352.183538 
L 288.234404 351.795453 
L 288.473269 352.124775 
L 288.951 350.901132 
M 289.42873 350.688322 
L 289.667595 350.141584 
L 289.90646 350.24717 
L 290.145325 350.136356 
L 290.384191 350.499469 
L 290.861921 350.393336 
M 292.533977 349.484969 
L 292.772842 349.313284 
L 293.011707 349.798215 
L 293.250572 349.862675 
L 293.489438 350.059878 
L 293.967168 350.809593 
L 294.206033 350.595768 
L 294.444898 350.102019 
L 294.683763 350.12387 
L 294.922629 350.442813 
L 295.161494 350.337695 
L 295.400359 350.028663 
L 295.639224 349.272704 
L 295.878089 349.324756 
L 296.116954 349.616074 
L 296.35582 349.22276 
L 296.83355 349.968339 
L 297.31128 349.970914 
L 297.789011 349.021421 
M 298.505606 348.861754 
L 298.744471 348.814385 
L 299.222201 349.206684 
L 299.461067 348.617182 
L 299.938797 348.340457 
L 300.177662 348.554283 
L 300.655392 348.135997 
L 300.894258 348.082384 
L 301.133123 348.448619 
L 301.371988 348.359655 
L 301.610853 347.854512 
L 301.849718 347.639672 
L 302.088583 348.079809 
L 302.327449 348.11516 
L 302.566314 348.385173 
L 302.805179 348.294102 
L 303.044044 348.882512 
L 303.521774 348.904363 
L 303.999505 349.396005 
L 304.23837 348.806581 
L 304.477235 348.632789 
L 304.7161 346.289061 
L 305.193831 346.438895 
L 305.432696 346.960738 
L 305.671561 346.291636 
L 305.910426 346.410801 
L 306.388156 346.911261 
L 306.627022 346.931551 
L 307.104752 348.731664 
L 307.343617 348.223868 
L 307.582482 347.043927 
L 307.821347 346.988285 
L 308.060212 347.911246 
L 308.299078 347.393071 
L 308.537943 348.990205 
L 308.776808 347.721847 
L 309.015673 347.950265 
L 309.254538 347.035108 
L 309.493403 346.823858 
L 309.732269 346.231312 
L 310.209999 344.755372 
L 310.448864 345.285487 
L 310.926594 345.36095 
L 311.16546 345.734754 
L 311.404325 345.469657 
L 311.64319 345.644463 
M 312.12092 346.124166 
L 312.359785 346.608472 
L 312.598651 346.259953 
L 312.837516 346.465428 
L 313.076381 346.357188 
M 313.792976 346.279696 
L 314.031842 345.968557 
L 314.270707 345.924856 
L 315.226167 347.123058 
L 315.465032 346.122605 
L 315.703898 346.07625 
L 315.942763 346.244813 
L 316.181628 346.614247 
L 316.420493 346.596532 
L 316.659358 346.335884 
L 316.898223 346.446699 
L 317.375954 347.194853 
L 317.614819 346.937326 
L 317.853684 347.142801 
L 318.092549 347.977266 
M 321.436662 350.729994 
L 321.914392 349.020952 
L 322.153257 348.697327 
M 322.630987 350.583282 
L 322.869853 348.359186 
L 323.108718 348.251962 
L 323.347583 348.698888 
L 324.064178 348.83725 
L 324.303043 348.801352 
L 324.541909 349.532885 
L 324.780774 349.018845 
L 325.019639 349.000116 
L 325.258504 349.298769 
L 325.497369 349.242582 
L 325.736234 349.820066 
L 325.9751 349.504791 
M 326.45283 349.741481 
L 326.691695 349.752407 
L 326.93056 349.325302 
L 327.169425 348.664005 
L 327.647156 348.489745 
L 328.363751 347.563194 
L 328.602616 347.704678 
L 328.841482 347.624533 
M 331.707863 346.565863 
L 331.946729 346.244345 
L 332.185594 346.173018 
L 332.424459 348.706692 
L 332.663324 348.847161 
L 332.902189 349.261779 
L 333.618785 348.295663 
L 333.85765 348.884073 
L 334.096515 348.583937 
L 334.574245 347.697889 
L 334.813111 347.509582 
L 335.051976 347.569906 
L 335.290841 348.22496 
L 335.529706 347.76867 
L 335.768571 347.881045 
L 336.246302 347.581377 
L 336.485167 347.787399 
L 336.724032 348.287391 
L 337.201762 348.185395 
L 337.440627 346.925855 
L 337.918358 346.152728 
L 338.634953 347.033001 
L 338.873818 347.000771 
L 339.112683 346.278682 
M 340.068144 345.724063 
L 340.307009 345.747474 
L 340.545874 346.420712 
L 340.78474 346.525283 
L 341.501335 347.913275 
L 341.7402 347.735894 
L 341.979065 349.211834 
L 342.217931 348.919971 
L 342.456796 349.175937 
M 344.845447 349.554735 
L 345.084313 349.453754 
L 345.323178 349.573465 
L 346.039773 348.489199 
L 346.278638 348.393992 
L 346.517504 348.647929 
L 346.756369 348.606256 
L 347.234099 349.559418 
L 347.472964 348.690538 
L 347.711829 348.754529 
L 347.950694 349.067775 
L 348.18956 349.058645 
L 348.66729 349.754982 
L 348.906155 349.610923 
L 349.14502 349.615605 
L 349.622751 348.746257 
L 350.100481 349.390855 
L 350.339346 349.207698 
L 350.578211 348.732678 
L 350.817076 349.058411 
L 351.294807 348.505899 
L 351.533672 349.288312 
L 352.011402 348.452833 
L 352.727998 351.222651 
L 352.966863 350.512501 
L 353.205728 350.946941 
L 353.683458 348.5329 
L 353.922324 348.670248 
L 354.400054 347.89041 
L 354.638919 348.201549 
L 354.877784 348.044926 
L 355.355514 347.418511 
L 355.59438 347.364977 
M 357.027571 347.283271 
L 357.266436 347.015365 
L 357.505301 346.923279 
L 357.744166 347.141241 
L 357.983031 346.510144 
M 358.699627 346.042459 
L 358.938492 346.34837 
L 359.177357 347.01794 
L 359.655087 346.904004 
L 359.893953 346.97814 
L 360.132818 347.589728 
L 360.371683 347.519493 
L 360.849413 348.20826 
L 361.088278 347.958069 
L 361.327144 346.40924 
L 361.566009 346.983057 
L 361.804874 347.026758 
L 362.282604 346.188157 
L 362.521469 345.924856 
L 362.760335 346.366553 
L 362.9992 346.173564 
L 363.47693 346.792175 
L 363.95466 346.003986 
L 364.432391 346.148045 
L 364.671256 346.431637 
L 364.910121 346.296865 
L 365.387851 346.865999 
L 365.626716 346.776021 
L 366.104447 346.99765 
L 366.343312 346.856166 
L 366.582177 347.887834 
L 366.821042 347.989753 
M 368.493098 347.439347 
L 368.731964 347.103236 
L 368.970829 347.242691 
L 369.209694 347.132422 
L 369.687424 346.489854 
L 369.926289 346.779142 
L 370.40402 346.615808 
L 370.88175 347.963219 
L 371.120615 348.165651 
L 371.35948 348.060533 
L 371.598345 348.557872 
L 372.553806 348.358094 
L 372.792671 347.837343 
L 373.270402 347.941369 
M 373.748132 347.823843 
L 373.986997 348.295663 
L 374.225862 347.967434 
L 374.942458 348.29777 
L 375.181323 347.949173 
L 375.420188 348.594863 
L 375.897918 348.521975 
L 376.136784 348.435664 
L 376.375649 348.605788 
L 376.614514 348.433557 
L 376.853379 348.788866 
L 377.092244 347.653719 
L 377.331109 347.110025 
L 377.569975 347.705693 
L 377.80884 347.664644 
L 378.047705 347.388857 
L 378.28657 347.406025 
L 378.525435 346.807782 
M 381.152952 346.516387 
L 381.391817 345.791176 
L 381.869547 345.88849 
L 382.347278 346.589743 
L 383.063873 346.618929 
L 383.302738 346.396208 
L 383.541604 346.409786 
L 383.780469 346.092404 
L 384.019334 345.29173 
L 384.258199 344.905205 
M 384.974795 344.598202 
L 385.21366 344.711124 
L 385.452525 345.304762 
L 385.69139 345.485811 
L 385.930255 345.436881 
L 386.16912 346.492507 
L 386.407986 346.117376 
L 386.646851 346.433666 
L 387.124581 345.8682 
L 387.363446 345.842135 
L 387.602311 345.983696 
L 387.841176 346.286486 
M 388.557772 345.996651 
L 388.796637 346.005001 
L 389.035502 346.599108 
L 389.274367 346.780703 
L 389.513233 346.281257 
L 389.752098 346.049249 
L 389.990963 345.477461 
L 390.468693 345.431184 
L 390.946424 345.8682 
L 391.185289 345.445231 
L 391.424154 345.357282 
L 391.663019 345.880139 
L 391.901884 345.789615 
L 392.140749 346.300533 
L 392.379615 347.40345 
L 392.61848 347.732226 
L 392.857345 347.529326 
L 393.09621 346.925855 
L 393.335075 346.957616 
L 393.57394 346.469096 
L 393.812806 346.690178 
L 394.051671 346.538238 
L 394.290536 347.272891 
L 394.529401 347.19376 
L 394.768266 347.436226 
L 395.007131 347.281164 
L 395.245996 347.732226 
L 395.484862 347.305121 
L 395.723727 347.532447 
L 395.962592 347.214597 
L 396.201457 347.33423 
L 396.440322 347.915382 
L 396.679187 348.06264 
M 397.156918 347.341019 
L 397.395783 346.012805 
L 397.634648 345.54512 
L 397.873513 345.589837 
L 398.112378 345.044114 
L 398.351244 345.505555 
M 399.306704 344.775662 
L 399.545569 344.992062 
M 400.739895 344.799073 
L 400.97876 345.680361 
L 401.217626 345.76831 
L 401.456491 345.108573 
L 401.934221 346.000865 
M 405.756064 347.459637 
L 405.994929 347.548601 
L 406.233794 347.438333 
L 406.472659 347.644354 
L 406.711524 348.376355 
L 406.950389 348.315953 
L 407.189255 348.986616 
L 407.42812 348.177045 
L 407.90585 347.562648 
L 408.38358 348.301438 
L 408.861311 348.032986 
L 409.339041 348.459076 
L 409.577906 348.619835 
L 409.816771 348.463212 
L 410.055637 348.737361 
L 410.533367 348.542265 
L 410.772232 348.91482 
L 411.011097 348.297224 
L 411.249962 348.105796 
L 411.488827 348.618274 
L 411.966558 349.010495 
L 412.205423 348.557872 
L 412.444288 348.827417 
L 412.683153 349.879375 
L 413.399749 349.923545 
L 413.638614 350.29969 
M 416.982726 351.425004 
L 417.460457 351.27002 
L 418.177052 351.352195 
M 418.654782 350.987521 
L 418.893647 351.040041 
L 419.132513 350.128552 
M 420.804569 350.351196 
L 421.043434 350.352756 
L 421.521164 350.962549 
L 421.760029 350.947409 
L 421.998895 351.282506 
L 422.23776 351.271035 
M 432.747827 354.495583 
L 432.986692 354.154789 
L 433.225557 354.127241 
L 434.181018 354.732273 
L 434.419883 354.542952 
L 434.658748 354.789007 
L 434.897613 354.797357 
L 435.136478 354.918005 
L 435.375344 354.548103 
L 435.614209 354.715105 
L 436.091939 354.216205 
L 436.569669 354.444077 
L 436.808535 354.607412 
L 437.0474 354.576197 
L 437.286265 354.432138 
L 437.52513 354.071054 
L 437.763995 353.954542 
M 438.719456 353.809391 
L 439.197186 353.999805 
L 439.436051 353.767718 
L 439.913782 354.267164 
L 440.630377 353.874397 
L 440.869242 353.947753 
L 441.108108 353.903505 
L 441.346973 354.129348 
L 441.585838 353.90093 
L 441.824703 353.512845 
L 442.302433 353.240179 
L 442.541299 353.743292 
L 442.780164 353.916538 
L 443.019029 353.626781 
L 443.257894 353.650661 
L 443.496759 353.485219 
L 444.45222 353.711531 
L 444.691085 353.623113 
L 444.92995 353.672043 
L 445.40768 354.139728 
M 445.885411 354.041399 
L 446.124276 354.240631 
L 446.840871 353.805723 
L 447.079737 354.068478 
L 447.318602 353.91287 
L 447.557467 353.328128 
L 447.796332 353.363011 
L 448.274062 352.912963 
M 451.618175 352.591991 
L 451.85704 352.390652 
L 452.095905 352.360451 
L 452.33477 352.611189 
L 452.8125 352.391667 
L 453.051366 352.142958 
L 453.529096 352.47072 
L 454.006826 352.391667 
L 454.245691 352.794345 
L 454.484557 352.88643 
L 454.723422 352.477509 
L 454.962287 352.638814 
L 455.201152 352.587309 
L 455.440017 352.891659 
L 456.395478 352.663787 
L 456.634343 353.079966 
L 457.350939 353.225663 
L 457.589804 353.094559 
L 457.828669 353.314081 
M 459.500725 352.932707 
L 459.73959 352.928025 
L 459.978455 353.148093 
L 460.21732 353.02011 
L 460.456186 353.032128 
L 460.695051 353.174626 
L 461.172781 352.975394 
L 461.411646 352.425457 
M 462.128242 352.877066 
L 462.605972 352.966576 
L 462.844837 352.93536 
L 463.083702 352.7444 
L 463.322568 352.754311 
L 463.561433 352.646072 
L 463.800298 352.934268 
L 464.278028 353.109074 
L 464.516893 352.897902 
L 464.755759 353.161672 
M 465.472354 353.521663 
L 465.950084 353.574183 
L 466.427815 353.500827 
L 466.66668 353.488887 
L 466.905545 353.176187 
L 467.14441 353.3531 
L 467.861006 351.778284 
M 471.205118 351.465116 
L 471.682848 351.348059 
L 472.160579 350.549413 
L 473.116039 352.404153 
L 473.354904 352.553987 
L 473.59377 352.385424 
L 473.832635 352.378634 
L 474.0715 352.509271 
M 474.54923 352.171598 
L 474.788095 351.959334 
L 475.265826 352.58052 
M 476.460151 353.683437 
L 476.699017 353.499266 
M 477.176747 353.67774 
L 477.654477 354.174611 
M 481.95405 355.898714 
L 482.192915 355.236402 
L 482.431781 355.332701 
L 482.670646 354.848863 
L 482.909511 354.11218 
L 483.148376 354.410755 
L 483.626106 354.573621 
M 486.253623 353.544528 
L 486.492488 353.380648 
M 490.314331 352.855761 
L 490.792061 353.067479 
L 491.030926 352.544622 
L 491.269791 352.677287 
L 492.225252 352.251197 
L 492.464117 352.288656 
L 492.702982 352.018097 
L 492.941848 352.378634 
L 493.180713 352.3084 
L 493.419578 352.410942 
L 493.658443 353.003488 
L 493.897308 353.029475 
L 494.375039 352.818771 
L 494.613904 352.856776 
L 494.852769 353.224571 
L 495.091634 353.208495 
M 495.569364 353.279744 
L 495.80823 352.960333 
L 496.047095 353.094559 
L 496.524825 352.26938 
L 497.002555 352.307385 
L 497.241421 353.518542 
L 497.480286 353.235496 
L 497.719151 353.592444 
L 497.958016 353.347872 
L 498.196881 353.278729 
L 498.435746 353.414516 
L 498.674612 353.159019 
L 498.913477 353.480069 
L 499.152342 353.343189 
L 499.391207 353.428017 
L 499.630072 353.275062 
L 499.868937 352.49101 
L 500.107802 352.547743 
L 500.585533 353.074737 
L 500.824398 352.951436 
L 501.063263 353.142396 
L 501.779859 352.290217 
L 502.018724 351.795999 
M 503.21305 351.525986 
L 503.451915 351.433355 
M 505.601701 351.165917 
L 505.840566 351.185739 
L 506.318297 351.430779 
L 506.796027 351.446855 
L 507.034892 351.771495 
M 507.990353 351.400578 
L 508.229218 351.430779 
L 508.468083 351.7164 
M 509.423544 352.352101 
L 510.140139 350.793986 
L 510.379004 351.092093 
L 510.61787 351.70805 
L 510.856735 351.741372 
L 511.0956 351.967137 
L 511.334465 352.008732 
L 512.051061 351.552988 
M 512.767656 350.831912 
L 513.006521 350.511487 
L 513.245386 350.478164 
L 513.484252 350.63268 
L 513.723117 350.580629 
L 513.961982 351.195103 
L 514.200847 350.54996 
L 514.678577 350.421976 
L 514.917442 350.479179 
M 515.395173 350.068696 
L 515.634038 350.483861 
L 515.872903 350.668032 
L 516.111768 350.537473 
L 516.589499 350.875614 
L 517.067229 351.093653 
L 517.544959 349.805473 
L 517.783824 349.789865 
L 518.02269 350.35541 
L 518.261555 350.401686 
L 518.50042 350.726326 
L 518.739285 350.462556 
L 518.97815 350.374139 
L 519.217015 350.562446 
L 519.455881 350.432356 
L 519.694746 350.84237 
L 519.933611 350.700808 
L 520.411341 350.810062 
L 520.650206 351.189328 
M 521.844532 351.039495 
L 522.083397 351.024433 
M 523.038858 351.437491 
L 523.755453 351.276263 
L 523.994319 351.485406 
L 524.710914 351.579521 
L 524.949779 351.645619 
L 525.42751 351.416732 
L 525.666375 351.41205 
L 525.90524 351.658652 
L 526.144105 351.706489 
L 526.38297 351.625329 
L 526.621835 351.898464 
M 531.399139 353.444171 
L 531.638004 353.385876 
M 534.026655 354.452115 
L 534.265521 354.249528 
L 534.504386 353.863471 
L 535.220981 354.179293 
L 535.459846 353.915991 
L 535.698712 354.227131 
L 535.937577 354.17664 
L 536.176442 354.54186 
L 536.654172 354.278636 
L 536.893037 354.456564 
L 537.131903 354.427455 
L 537.370768 354.271378 
L 537.609633 353.920205 
L 537.848498 353.826247 
L 538.326228 354.092124 
L 538.803959 353.578865 
L 539.042824 353.757339 
L 539.281689 353.739156 
M 539.998284 353.34397 
L 540.23715 353.720895 
L 540.953745 353.803148 
L 541.19261 353.287002 
L 541.670341 353.043522 
L 541.909206 353.049765 
L 542.148071 352.860912 
L 542.625801 352.997791 
L 543.103532 353.765689 
L 543.342397 353.682422 
L 543.581262 353.985758 
L 543.820127 353.641842 
L 544.058992 353.612188 
L 544.297857 353.885869 
L 544.536723 353.8687 
M 545.969914 353.731821 
L 546.208779 353.837953 
L 546.686509 353.400704 
L 547.403104 353.428017 
L 547.64197 352.948315 
M 549.791756 353.002942 
L 550.269486 354.066918 
L 550.747217 353.588776 
L 551.224947 353.441049 
L 551.463812 353.074269 
L 551.702677 353.205842 
L 552.180408 352.481645 
L 552.897003 352.306839 
L 553.135868 351.636801 
M 555.763385 351.398471 
L 556.00225 351.295461 
L 556.241115 351.771495 
L 556.479981 351.861551 
L 556.718846 351.808485 
L 556.957711 352.341722 
L 557.196576 351.927572 
L 557.435441 351.737158 
L 558.152037 351.970805 
L 558.390902 351.727794 
M 558.868632 352.119547 
L 559.107497 352.116971 
L 559.346363 352.334933 
L 559.585228 352.114396 
L 560.062958 352.523317 
L 560.301823 352.58208 
L 560.540688 352.407821 
L 561.018419 352.673619 
L 561.257284 352.03269 
L 561.496149 350.986975 
L 561.735014 350.868903 
M 562.45161 351.080621 
L 562.690475 351.277824 
L 562.92934 351.859444 
L 563.645935 351.528561 
L 563.884801 351.510379 
L 564.123666 351.240366 
L 564.601396 351.350088 
L 565.079126 350.63268 
L 565.556857 350.792893 
L 565.795722 351.150855 
L 566.034587 349.832552 
M 568.184374 350.32677 
L 568.423239 350.630573 
L 569.139834 350.698779 
L 569.378699 350.998915 
M 570.095295 351.000007 
L 570.573025 350.726873 
M 572.006216 351.227333 
L 572.245081 351.407368 
M 576.305789 352.563897 
L 576.544654 353.009731 
L 576.783519 352.940511 
L 577.022385 352.753219 
L 577.26125 352.960801 
L 577.500115 352.774055 
L 577.73898 352.431232 
L 577.977845 352.422102 
L 578.21671 351.886524 
L 578.694441 351.920861 
L 578.933306 352.100817 
L 579.172171 352.033704 
L 579.411036 352.262123 
L 579.649901 352.016536 
L 579.888766 352.413517 
L 580.366497 352.542047 
L 580.605362 352.305278 
L 580.844227 352.672605 
L 581.083092 353.618977 
L 581.321957 353.769825 
M 583.471744 353.548742 
L 583.710609 353.420213 
M 584.188339 353.351539 
L 585.1438 354.197476 
L 585.382665 354.15635 
M 587.293586 353.882747 
L 587.771317 353.088784 
L 588.249047 353.550771 
L 588.726777 353.592912 
L 588.965643 354.030474 
L 589.204508 353.960785 
L 589.443373 353.54406 
L 589.682238 353.537271 
M 590.159968 353.725109 
L 590.398834 354.050764 
L 590.637699 353.999258 
L 590.876564 354.269818 
L 591.593159 353.734942 
L 591.832025 353.072162 
L 592.07089 353.148639 
L 592.309755 353.561697 
L 592.54862 353.316968 
L 592.787485 352.631479 
L 593.02635 352.377073 
L 593.504081 353.513313 
L 593.742946 353.309399 
L 593.981811 353.572154 
L 594.459541 352.889552 
L 594.698406 352.903599 
L 595.176137 352.136715 
L 595.415002 352.088331 
L 595.653867 351.869824 
L 596.131597 352.341722 
L 596.609328 351.794438 
L 596.848193 352.16278 
L 597.087058 351.932254 
M 598.281384 351.32254 
L 598.520249 351.621661 
L 598.759114 351.219529 
L 598.997979 351.195571 
L 599.236845 351.455752 
L 599.47571 353.034703 
L 599.714575 353.453536 
L 599.95344 353.43426 
M 603.058687 354.920112 
L 603.297552 354.845741 
L 603.536417 355.24163 
M 604.253013 355.274406 
L 604.491878 354.91543 
L 604.969608 355.166167 
L 605.208474 355.513204 
L 605.447339 355.463259 
L 605.686204 355.819115 
L 605.925069 355.967934 
M 606.88053 356.48767 
L 607.35826 356.710314 
L 607.597125 356.577102 
M 608.313721 356.427268 
L 608.552586 356.495942 
L 608.791451 356.26807 
L 609.030316 356.480881 
L 609.269181 356.889802 
L 609.508047 356.905956 
L 609.746912 357.037061 
L 610.224642 356.426254 
L 610.463507 356.661384 
L 610.941237 356.685888 
L 611.180103 357.092702 
L 611.418968 356.960583 
L 611.657833 356.991252 
L 611.896698 357.211867 
L 612.135563 357.049547 
L 612.374428 357.129146 
L 612.613294 356.829947 
L 612.852159 357.898059 
L 613.091024 357.736285 
L 613.329889 357.753922 
M 614.524215 358.057257 
L 614.76308 357.798169 
L 615.001945 358.032831 
L 615.24081 357.31121 
L 615.718541 357.1421 
L 615.957406 357.188923 
M 616.435136 357.18112 
L 616.674001 357.086381 
M 618.584923 355.885213 
L 619.062653 355.34987 
L 619.301518 355.799839 
L 619.540383 355.433605 
L 619.779248 355.378432 
M 620.256979 354.847692 
L 620.734709 354.788461 
L 620.973574 355.008061 
L 621.212439 355.061127 
L 621.69017 355.577196 
L 622.1679 354.833723 
L 622.406765 354.942509 
L 622.64563 355.341519 
L 622.884496 354.94407 
L 623.123361 354.317109 
L 623.362226 354.297911 
L 624.556552 354.93572 
L 624.795417 354.817101 
L 625.034282 355.101707 
L 625.273147 355.710485 
L 626.228608 355.77752 
M 627.422934 355.51734 
L 627.661799 355.481364 
L 628.378394 355.718679 
L 628.856125 355.669281 
L 629.57272 356.184881 
L 629.811585 356.665598 
L 630.05045 356.576088 
L 630.289316 356.819567 
M 631.722507 356.39816 
L 631.961372 356.373188 
M 632.439102 356.962612 
L 632.677967 356.831039 
L 632.916832 357.178544 
L 633.633428 357.504199 
L 633.872293 357.354365 
L 634.588888 358.026588 
L 634.827754 357.972429 
M 636.260945 357.737299 
L 636.49981 357.599952 
L 636.97754 357.996933 
L 637.216405 357.935517 
L 637.694136 358.110323 
L 637.933001 358.362621 
L 638.171866 358.228395 
L 638.410731 358.261796 
L 638.649596 358.772635 
L 638.888461 358.674307 
L 639.366192 359.03063 
M 641.993709 359.152917 
L 642.232574 359.04936 
L 642.710304 359.396397 
L 643.188034 359.541002 
L 643.665765 358.897965 
L 643.90463 358.914665 
L 644.143495 358.617885 
L 644.38236 359.307433 
L 644.86009 359.819365 
L 645.337821 359.678896 
L 645.815551 359.558795 
L 646.054416 359.944148 
L 646.293281 360.027493 
L 646.532147 359.790257 
L 646.771012 360.364385 
M 653.459236 362.051264 
L 653.698101 362.072569 
M 654.175832 362.372783 
L 654.892427 362.452928 
M 655.370158 362.487733 
L 655.609023 362.532995 
L 655.609023 362.532995 
" clip-path="url(#pd7ed4c9e36)" style="fill: none; stroke: #1e90ff"/>
   </g>
   <g id="patch_3">
    <path d="M 57.68175 378.43845 
L 57.68175 28.51845 
" style="fill: none; stroke: #f0f0f0; stroke-width: 3; stroke-linejoin: miter; stroke-linecap: square"/>
   </g>
   <g id="patch_4">
    <path d="M 684.08175 378.43845 
L 684.08175 28.51845 
" style="fill: none; stroke: #f0f0f0; stroke-width: 3; stroke-linejoin: miter; stroke-linecap: square"/>
   </g>
   <g id="patch_5">
    <path d="M 57.68175 378.43845 
L 684.08175 378.43845 
" style="fill: none; stroke: #f0f0f0; stroke-width: 3; stroke-linejoin: miter; stroke-linecap: square"/>
   </g>
   <g id="patch_6">
    <path d="M 57.68175 28.51845 
L 684.08175 28.51845 
" style="fill: none; stroke: #f0f0f0; stroke-width: 3; stroke-linejoin: miter; stroke-linecap: square"/>
   </g>
   <g id="text_18">
    <!-- TSLA, Relative Strength Index (RSI), TSLA -->
    <g transform="translate(161.6241 22.51845)scale(0.2016 -0.2016)">
     <defs>
      <path id="DejaVuSans-54" d="M -19 4666 
L 3928 4666 
L 3928 4134 
L 2272 4134 
L 2272 0 
L 1638 0 
L 1638 4134 
L -19 4134 
L -19 4666 
z
" transform="scale(0.015625)"/>
      <path id="DejaVuSans-4c" d="M 628 4666 
L 1259 4666 
L 1259 531 
L 3531 531 
L 3531 0 
L 628 0 
L 628 4666 
z
" transform="scale(0.015625)"/>
      <path id="DejaVuSans-41" d="M 2188 4044 
L 1331 1722 
L 3047 1722 
L 2188 4044 
z
M 1831 4666 
L 2547 4666 
L 4325 0 
L 3669 0 
L 3244 1197 
L 1141 1197 
L 716 0 
L 50 0 
L 1831 4666 
z
" transform="scale(0.015625)"/>
      <path id="DejaVuSans-2c" d="M 750 794 
L 1409 794 
L 1409 256 
L 897 -744 
L 494 -744 
L 750 256 
L 750 794 
z
" transform="scale(0.015625)"/>
      <path id="DejaVuSans-52" d="M 2841 2188 
Q 3044 2119 3236 1894 
Q 3428 1669 3622 1275 
L 4263 0 
L 3584 0 
L 2988 1197 
Q 2756 1666 2539 1819 
Q 2322 1972 1947 1972 
L 1259 1972 
L 1259 0 
L 628 0 
L 628 4666 
L 2053 4666 
Q 2853 4666 3247 4331 
Q 3641 3997 3641 3322 
Q 3641 2881 3436 2590 
Q 3231 2300 2841 2188 
z
M 1259 4147 
L 1259 2491 
L 2053 2491 
Q 2509 2491 2742 2702 
Q 2975 2913 2975 3322 
Q 2975 3731 2742 3939 
Q 2509 4147 2053 4147 
L 1259 4147 
z
" transform="scale(0.015625)"/>
      <path id="DejaVuSans-6c" d="M 603 4863 
L 1178 4863 
L 1178 0 
L 603 0 
L 603 4863 
z
" transform="scale(0.015625)"/>
      <path id="DejaVuSans-76" d="M 191 3500 
L 800 3500 
L 1894 563 
L 2988 3500 
L 3597 3500 
L 2284 0 
L 1503 0 
L 191 3500 
z
" transform="scale(0.015625)"/>
      <path id="DejaVuSans-6e" d="M 3513 2113 
L 3513 0 
L 2938 0 
L 2938 2094 
Q 2938 2591 2744 2837 
Q 2550 3084 2163 3084 
Q 1697 3084 1428 2787 
Q 1159 2491 1159 1978 
L 1159 0 
L 581 0 
L 581 3500 
L 1159 3500 
L 1159 2956 
Q 1366 3272 1645 3428 
Q 1925 3584 2291 3584 
Q 2894 3584 3203 3211 
Q 3513 2838 3513 2113 
z
" transform="scale(0.015625)"/>
      <path id="DejaVuSans-67" d="M 2906 1791 
Q 2906 2416 2648 2759 
Q 2391 3103 1925 3103 
Q 1463 3103 1205 2759 
Q 947 2416 947 1791 
Q 947 1169 1205 825 
Q 1463 481 1925 481 
Q 2391 481 2648 825 
Q 2906 1169 2906 1791 
z
M 3481 434 
Q 3481 -459 3084 -895 
Q 2688 -1331 1869 -1331 
Q 1566 -1331 1297 -1286 
Q 1028 -1241 775 -1147 
L 775 -588 
Q 1028 -725 1275 -790 
Q 1522 -856 1778 -856 
Q 2344 -856 2625 -561 
Q 2906 -266 2906 331 
L 2906 616 
Q 2728 306 2450 153 
Q 2172 0 1784 0 
Q 1141 0 747 490 
Q 353 981 353 1791 
Q 353 2603 747 3093 
Q 1141 3584 1784 3584 
Q 2172 3584 2450 3431 
Q 2728 3278 2906 2969 
L 2906 3500 
L 3481 3500 
L 3481 434 
z
" transform="scale(0.015625)"/>
      <path id="DejaVuSans-68" d="M 3513 2113 
L 3513 0 
L 2938 0 
L 2938 2094 
Q 2938 2591 2744 2837 
Q 2550 3084 2163 3084 
Q 1697 3084 1428 2787 
Q 1159 2491 1159 1978 
L 1159 0 
L 581 0 
L 581 4863 
L 1159 4863 
L 1159 2956 
Q 1366 3272 1645 3428 
Q 1925 3584 2291 3584 
Q 2894 3584 3203 3211 
Q 3513 2838 3513 2113 
z
" transform="scale(0.015625)"/>
      <path id="DejaVuSans-49" d="M 628 4666 
L 1259 4666 
L 1259 0 
L 628 0 
L 628 4666 
z
" transform="scale(0.015625)"/>
      <path id="DejaVuSans-64" d="M 2906 2969 
L 2906 4863 
L 3481 4863 
L 3481 0 
L 2906 0 
L 2906 525 
Q 2725 213 2448 61 
Q 2172 -91 1784 -91 
Q 1150 -91 751 415 
Q 353 922 353 1747 
Q 353 2572 751 3078 
Q 1150 3584 1784 3584 
Q 2172 3584 2448 3432 
Q 2725 3281 2906 2969 
z
M 947 1747 
Q 947 1113 1208 752 
Q 1469 391 1925 391 
Q 2381 391 2643 752 
Q 2906 1113 2906 1747 
Q 2906 2381 2643 2742 
Q 2381 3103 1925 3103 
Q 1469 3103 1208 2742 
Q 947 2381 947 1747 
z
" transform="scale(0.015625)"/>
      <path id="DejaVuSans-78" d="M 3513 3500 
L 2247 1797 
L 3578 0 
L 2900 0 
L 1881 1375 
L 863 0 
L 184 0 
L 1544 1831 
L 300 3500 
L 978 3500 
L 1906 2253 
L 2834 3500 
L 3513 3500 
z
" transform="scale(0.015625)"/>
     </defs>
     <use xlink:href="#DejaVuSans-54"/>
     <use xlink:href="#DejaVuSans-53" x="61.083984"/>
     <use xlink:href="#DejaVuSans-4c" x="124.560547"/>
     <use xlink:href="#DejaVuSans-41" x="182.523438"/>
     <use xlink:href="#DejaVuSans-2c" x="250.931641"/>
     <use xlink:href="#DejaVuSans-20" x="282.71875"/>
     <use xlink:href="#DejaVuSans-52" x="314.505859"/>
     <use xlink:href="#DejaVuSans-65" x="379.488281"/>
     <use xlink:href="#DejaVuSans-6c" x="441.011719"/>
     <use xlink:href="#DejaVuSans-61" x="468.794922"/>
     <use xlink:href="#DejaVuSans-74" x="530.074219"/>
     <use xlink:href="#DejaVuSans-69" x="569.283203"/>
     <use xlink:href="#DejaVuSans-76" x="597.066406"/>
     <use xlink:href="#DejaVuSans-65" x="656.246094"/>
     <use xlink:href="#DejaVuSans-20" x="717.769531"/>
     <use xlink:href="#DejaVuSans-53" x="749.556641"/>
     <use xlink:href="#DejaVuSans-74" x="813.033203"/>
     <use xlink:href="#DejaVuSans-72" x="852.242188"/>
     <use xlink:href="#DejaVuSans-65" x="891.105469"/>
     <use xlink:href="#DejaVuSans-6e" x="952.628906"/>
     <use xlink:href="#DejaVuSans-67" x="1016.007812"/>
     <use xlink:href="#DejaVuSans-74" x="1079.484375"/>
     <use xlink:href="#DejaVuSans-68" x="1118.693359"/>
     <use xlink:href="#DejaVuSans-20" x="1182.072266"/>
     <use xlink:href="#DejaVuSans-49" x="1213.859375"/>
     <use xlink:href="#DejaVuSans-6e" x="1243.351562"/>
     <use xlink:href="#DejaVuSans-64" x="1306.730469"/>
     <use xlink:href="#DejaVuSans-65" x="1370.207031"/>
     <use xlink:href="#DejaVuSans-78" x="1429.980469"/>
     <use xlink:href="#DejaVuSans-20" x="1489.160156"/>
     <use xlink:href="#DejaVuSans-28" x="1520.947266"/>
     <use xlink:href="#DejaVuSans-52" x="1559.960938"/>
     <use xlink:href="#DejaVuSans-53" x="1629.443359"/>
     <use xlink:href="#DejaVuSans-49" x="1692.919922"/>
     <use xlink:href="#DejaVuSans-29" x="1722.412109"/>
     <use xlink:href="#DejaVuSans-2c" x="1761.425781"/>
     <use xlink:href="#DejaVuSans-20" x="1793.212891"/>
     <use xlink:href="#DejaVuSans-54" x="1825"/>
     <use xlink:href="#DejaVuSans-53" x="1886.083984"/>
     <use xlink:href="#DejaVuSans-4c" x="1949.560547"/>
     <use xlink:href="#DejaVuSans-41" x="2007.523438"/>
    </g>
   </g>
   <g id="legend_1">
    <g id="patch_7">
     <path d="M 464.408625 101.366575 
L 674.28175 101.366575 
Q 677.08175 101.366575 677.08175 98.566575 
L 677.08175 38.31845 
Q 677.08175 35.51845 674.28175 35.51845 
L 464.408625 35.51845 
Q 461.608625 35.51845 461.608625 38.31845 
L 461.608625 98.566575 
Q 461.608625 101.366575 464.408625 101.366575 
z
" style="fill: #f0f0f0; opacity: 0.8; stroke: #cccccc; stroke-width: 0.5; stroke-linejoin: miter"/>
    </g>
    <g id="line2d_34">
     <path d="M 467.208625 46.856262 
L 481.208625 46.856262 
L 495.208625 46.856262 
" style="fill: none; stroke: #00ff7f"/>
    </g>
    <g id="text_19">
     <!-- Oversold, RSI &lt;= 30 -->
     <g transform="translate(506.408625 51.756262)scale(0.14 -0.14)">
      <defs>
       <path id="DejaVuSans-4f" d="M 2522 4238 
Q 1834 4238 1429 3725 
Q 1025 3213 1025 2328 
Q 1025 1447 1429 934 
Q 1834 422 2522 422 
Q 3209 422 3611 934 
Q 4013 1447 4013 2328 
Q 4013 3213 3611 3725 
Q 3209 4238 2522 4238 
z
M 2522 4750 
Q 3503 4750 4090 4092 
Q 4678 3434 4678 2328 
Q 4678 1225 4090 567 
Q 3503 -91 2522 -91 
Q 1538 -91 948 565 
Q 359 1222 359 2328 
Q 359 3434 948 4092 
Q 1538 4750 2522 4750 
z
" transform="scale(0.015625)"/>
       <path id="DejaVuSans-73" d="M 2834 3397 
L 2834 2853 
Q 2591 2978 2328 3040 
Q 2066 3103 1784 3103 
Q 1356 3103 1142 2972 
Q 928 2841 928 2578 
Q 928 2378 1081 2264 
Q 1234 2150 1697 2047 
L 1894 2003 
Q 2506 1872 2764 1633 
Q 3022 1394 3022 966 
Q 3022 478 2636 193 
Q 2250 -91 1575 -91 
Q 1294 -91 989 -36 
Q 684 19 347 128 
L 347 722 
Q 666 556 975 473 
Q 1284 391 1588 391 
Q 1994 391 2212 530 
Q 2431 669 2431 922 
Q 2431 1156 2273 1281 
Q 2116 1406 1581 1522 
L 1381 1569 
Q 847 1681 609 1914 
Q 372 2147 372 2553 
Q 372 3047 722 3315 
Q 1072 3584 1716 3584 
Q 2034 3584 2315 3537 
Q 2597 3491 2834 3397 
z
" transform="scale(0.015625)"/>
       <path id="DejaVuSans-6f" d="M 1959 3097 
Q 1497 3097 1228 2736 
Q 959 2375 959 1747 
Q 959 1119 1226 758 
Q 1494 397 1959 397 
Q 2419 397 2687 759 
Q 2956 1122 2956 1747 
Q 2956 2369 2687 2733 
Q 2419 3097 1959 3097 
z
M 1959 3584 
Q 2709 3584 3137 3096 
Q 3566 2609 3566 1747 
Q 3566 888 3137 398 
Q 2709 -91 1959 -91 
Q 1206 -91 779 398 
Q 353 888 353 1747 
Q 353 2609 779 3096 
Q 1206 3584 1959 3584 
z
" transform="scale(0.015625)"/>
       <path id="DejaVuSans-3c" d="M 4684 3150 
L 1459 2003 
L 4684 863 
L 4684 294 
L 678 1747 
L 678 2266 
L 4684 3719 
L 4684 3150 
z
" transform="scale(0.015625)"/>
       <path id="DejaVuSans-3d" d="M 678 2906 
L 4684 2906 
L 4684 2381 
L 678 2381 
L 678 2906 
z
M 678 1631 
L 4684 1631 
L 4684 1100 
L 678 1100 
L 678 1631 
z
" transform="scale(0.015625)"/>
      </defs>
      <use xlink:href="#DejaVuSans-4f"/>
      <use xlink:href="#DejaVuSans-76" x="78.710938"/>
      <use xlink:href="#DejaVuSans-65" x="137.890625"/>
      <use xlink:href="#DejaVuSans-72" x="199.414062"/>
      <use xlink:href="#DejaVuSans-73" x="240.527344"/>
      <use xlink:href="#DejaVuSans-6f" x="292.626953"/>
      <use xlink:href="#DejaVuSans-6c" x="353.808594"/>
      <use xlink:href="#DejaVuSans-64" x="381.591797"/>
      <use xlink:href="#DejaVuSans-2c" x="445.068359"/>
      <use xlink:href="#DejaVuSans-20" x="476.855469"/>
      <use xlink:href="#DejaVuSans-52" x="508.642578"/>
      <use xlink:href="#DejaVuSans-53" x="578.125"/>
      <use xlink:href="#DejaVuSans-49" x="641.601562"/>
      <use xlink:href="#DejaVuSans-20" x="671.09375"/>
      <use xlink:href="#DejaVuSans-3c" x="702.880859"/>
      <use xlink:href="#DejaVuSans-3d" x="786.669922"/>
      <use xlink:href="#DejaVuSans-20" x="870.458984"/>
      <use xlink:href="#DejaVuSans-33" x="902.246094"/>
      <use xlink:href="#DejaVuSans-30" x="965.869141"/>
     </g>
    </g>
    <g id="line2d_35">
     <path d="M 467.208625 67.405637 
L 481.208625 67.405637 
L 495.208625 67.405637 
" style="fill: none; stroke: #ff4500"/>
    </g>
    <g id="text_20">
     <!-- Overbought, RSI &gt;= 70 -->
     <g transform="translate(506.408625 72.305637)scale(0.14 -0.14)">
      <defs>
       <path id="DejaVuSans-62" d="M 3116 1747 
Q 3116 2381 2855 2742 
Q 2594 3103 2138 3103 
Q 1681 3103 1420 2742 
Q 1159 2381 1159 1747 
Q 1159 1113 1420 752 
Q 1681 391 2138 391 
Q 2594 391 2855 752 
Q 3116 1113 3116 1747 
z
M 1159 2969 
Q 1341 3281 1617 3432 
Q 1894 3584 2278 3584 
Q 2916 3584 3314 3078 
Q 3713 2572 3713 1747 
Q 3713 922 3314 415 
Q 2916 -91 2278 -91 
Q 1894 -91 1617 61 
Q 1341 213 1159 525 
L 1159 0 
L 581 0 
L 581 4863 
L 1159 4863 
L 1159 2969 
z
" transform="scale(0.015625)"/>
       <path id="DejaVuSans-75" d="M 544 1381 
L 544 3500 
L 1119 3500 
L 1119 1403 
Q 1119 906 1312 657 
Q 1506 409 1894 409 
Q 2359 409 2629 706 
Q 2900 1003 2900 1516 
L 2900 3500 
L 3475 3500 
L 3475 0 
L 2900 0 
L 2900 538 
Q 2691 219 2414 64 
Q 2138 -91 1772 -91 
Q 1169 -91 856 284 
Q 544 659 544 1381 
z
M 1991 3584 
L 1991 3584 
z
" transform="scale(0.015625)"/>
       <path id="DejaVuSans-3e" d="M 678 3150 
L 678 3719 
L 4684 2266 
L 4684 1747 
L 678 294 
L 678 863 
L 3897 2003 
L 678 3150 
z
" transform="scale(0.015625)"/>
       <path id="DejaVuSans-37" d="M 525 4666 
L 3525 4666 
L 3525 4397 
L 1831 0 
L 1172 0 
L 2766 4134 
L 525 4134 
L 525 4666 
z
" transform="scale(0.015625)"/>
      </defs>
      <use xlink:href="#DejaVuSans-4f"/>
      <use xlink:href="#DejaVuSans-76" x="78.710938"/>
      <use xlink:href="#DejaVuSans-65" x="137.890625"/>
      <use xlink:href="#DejaVuSans-72" x="199.414062"/>
      <use xlink:href="#DejaVuSans-62" x="240.527344"/>
      <use xlink:href="#DejaVuSans-6f" x="304.003906"/>
      <use xlink:href="#DejaVuSans-75" x="365.185547"/>
      <use xlink:href="#DejaVuSans-67" x="428.564453"/>
      <use xlink:href="#DejaVuSans-68" x="492.041016"/>
      <use xlink:href="#DejaVuSans-74" x="555.419922"/>
      <use xlink:href="#DejaVuSans-2c" x="594.628906"/>
      <use xlink:href="#DejaVuSans-20" x="626.416016"/>
      <use xlink:href="#DejaVuSans-52" x="658.203125"/>
      <use xlink:href="#DejaVuSans-53" x="727.685547"/>
      <use xlink:href="#DejaVuSans-49" x="791.162109"/>
      <use xlink:href="#DejaVuSans-20" x="820.654297"/>
      <use xlink:href="#DejaVuSans-3e" x="852.441406"/>
      <use xlink:href="#DejaVuSans-3d" x="936.230469"/>
      <use xlink:href="#DejaVuSans-20" x="1020.019531"/>
      <use xlink:href="#DejaVuSans-37" x="1051.806641"/>
      <use xlink:href="#DejaVuSans-30" x="1115.429688"/>
     </g>
    </g>
    <g id="line2d_36">
     <path d="M 467.208625 87.955012 
L 481.208625 87.955012 
L 495.208625 87.955012 
" style="fill: none; stroke: #1e90ff"/>
    </g>
    <g id="text_21">
     <!-- Neutral -->
     <g transform="translate(506.408625 92.855012)scale(0.14 -0.14)">
      <defs>
       <path id="DejaVuSans-4e" d="M 628 4666 
L 1478 4666 
L 3547 763 
L 3547 4666 
L 4159 4666 
L 4159 0 
L 3309 0 
L 1241 3903 
L 1241 0 
L 628 0 
L 628 4666 
z
" transform="scale(0.015625)"/>
      </defs>
      <use xlink:href="#DejaVuSans-4e"/>
      <use xlink:href="#DejaVuSans-65" x="74.804688"/>
      <use xlink:href="#DejaVuSans-75" x="136.328125"/>
      <use xlink:href="#DejaVuSans-74" x="199.707031"/>
      <use xlink:href="#DejaVuSans-72" x="238.916016"/>
      <use xlink:href="#DejaVuSans-61" x="280.029297"/>
      <use xlink:href="#DejaVuSans-6c" x="341.308594"/>
     </g>
    </g>
   </g>
  </g>
 </g>
 <defs>
  <clipPath id="pd7ed4c9e36">
   <rect x="57.68175" y="28.51845" width="626.4" height="349.92"/>
  </clipPath>
 </defs>
</svg>
