<?xml version="1.0" encoding="utf-8" standalone="no"?>
<!DOCTYPE svg PUBLIC "-//W3C//DTD SVG 1.1//EN"
  "http://www.w3.org/Graphics/SVG/1.1/DTD/svg11.dtd">
<svg xmlns:xlink="http://www.w3.org/1999/xlink" width="612.165625pt" height="392.514375pt" viewBox="0 0 612.165625 392.514375" xmlns="http://www.w3.org/2000/svg" version="1.1">
 <metadata>
  <rdf:RDF xmlns:dc="http://purl.org/dc/elements/1.1/" xmlns:cc="http://creativecommons.org/ns#" xmlns:rdf="http://www.w3.org/1999/02/22-rdf-syntax-ns#">
   <cc:Work>
    <dc:type rdf:resource="http://purl.org/dc/dcmitype/StillImage"/>
    <dc:date>2023-04-24T15:33:48.021454</dc:date>
    <dc:format>image/svg+xml</dc:format>
    <dc:creator>
     <cc:Agent>
      <dc:title>Matplotlib v3.5.1, https://matplotlib.org/</dc:title>
     </cc:Agent>
    </dc:creator>
   </cc:Work>
  </rdf:RDF>
 </metadata>
 <defs>
  <style type="text/css">*{stroke-linejoin: round; stroke-linecap: butt}</style>
 </defs>
 <g id="figure_1">
  <g id="patch_1">
   <path d="M 0 392.514375 
L 612.165625 392.514375 
L 612.165625 0 
L 0 0 
z
" style="fill: #ffffff"/>
  </g>
  <g id="axes_1">
   <g id="patch_2">
    <path d="M 46.965625 354.958125 
L 604.965625 354.958125 
L 604.965625 22.318125 
L 46.965625 22.318125 
z
" style="fill: #ffffff"/>
   </g>
   <g id="matplotlib.axis_1">
    <g id="xtick_1">
     <g id="line2d_1">
      <defs>
       <path id="m4e01e5ecad" d="M 0 0 
L 0 3.5 
" style="stroke: #000000; stroke-width: 0.8"/>
      </defs>
      <g>
       <use xlink:href="#m4e01e5ecad" x="72.329261" y="354.958125" style="stroke: #000000; stroke-width: 0.8"/>
      </g>
     </g>
     <g id="text_1">
      <!-- 0 -->
      <g transform="translate(69.148011 369.556562)scale(0.1 -0.1)">
       <defs>
        <path id="DejaVuSans-30" d="M 2034 4250 
Q 1547 4250 1301 3770 
Q 1056 3291 1056 2328 
Q 1056 1369 1301 889 
Q 1547 409 2034 409 
Q 2525 409 2770 889 
Q 3016 1369 3016 2328 
Q 3016 3291 2770 3770 
Q 2525 4250 2034 4250 
z
M 2034 4750 
Q 2819 4750 3233 4129 
Q 3647 3509 3647 2328 
Q 3647 1150 3233 529 
Q 2819 -91 2034 -91 
Q 1250 -91 836 529 
Q 422 1150 422 2328 
Q 422 3509 836 4129 
Q 1250 4750 2034 4750 
z
" transform="scale(0.015625)"/>
       </defs>
       <use xlink:href="#DejaVuSans-30"/>
      </g>
     </g>
    </g>
    <g id="xtick_2">
     <g id="line2d_2">
      <g>
       <use xlink:href="#m4e01e5ecad" x="184.063342" y="354.958125" style="stroke: #000000; stroke-width: 0.8"/>
      </g>
     </g>
     <g id="text_2">
      <!-- 500 -->
      <g transform="translate(174.519592 369.556562)scale(0.1 -0.1)">
       <defs>
        <path id="DejaVuSans-35" d="M 691 4666 
L 3169 4666 
L 3169 4134 
L 1269 4134 
L 1269 2991 
Q 1406 3038 1543 3061 
Q 1681 3084 1819 3084 
Q 2600 3084 3056 2656 
Q 3513 2228 3513 1497 
Q 3513 744 3044 326 
Q 2575 -91 1722 -91 
Q 1428 -91 1123 -41 
Q 819 9 494 109 
L 494 744 
Q 775 591 1075 516 
Q 1375 441 1709 441 
Q 2250 441 2565 725 
Q 2881 1009 2881 1497 
Q 2881 1984 2565 2268 
Q 2250 2553 1709 2553 
Q 1456 2553 1204 2497 
Q 953 2441 691 2322 
L 691 4666 
z
" transform="scale(0.015625)"/>
       </defs>
       <use xlink:href="#DejaVuSans-35"/>
       <use xlink:href="#DejaVuSans-30" x="63.623047"/>
       <use xlink:href="#DejaVuSans-30" x="127.246094"/>
      </g>
     </g>
    </g>
    <g id="xtick_3">
     <g id="line2d_3">
      <g>
       <use xlink:href="#m4e01e5ecad" x="295.797423" y="354.958125" style="stroke: #000000; stroke-width: 0.8"/>
      </g>
     </g>
     <g id="text_3">
      <!-- 1000 -->
      <g transform="translate(283.072423 369.556562)scale(0.1 -0.1)">
       <defs>
        <path id="DejaVuSans-31" d="M 794 531 
L 1825 531 
L 1825 4091 
L 703 3866 
L 703 4441 
L 1819 4666 
L 2450 4666 
L 2450 531 
L 3481 531 
L 3481 0 
L 794 0 
L 794 531 
z
" transform="scale(0.015625)"/>
       </defs>
       <use xlink:href="#DejaVuSans-31"/>
       <use xlink:href="#DejaVuSans-30" x="63.623047"/>
       <use xlink:href="#DejaVuSans-30" x="127.246094"/>
       <use xlink:href="#DejaVuSans-30" x="190.869141"/>
      </g>
     </g>
    </g>
    <g id="xtick_4">
     <g id="line2d_4">
      <g>
       <use xlink:href="#m4e01e5ecad" x="407.531504" y="354.958125" style="stroke: #000000; stroke-width: 0.8"/>
      </g>
     </g>
     <g id="text_4">
      <!-- 1500 -->
      <g transform="translate(394.806504 369.556562)scale(0.1 -0.1)">
       <use xlink:href="#DejaVuSans-31"/>
       <use xlink:href="#DejaVuSans-35" x="63.623047"/>
       <use xlink:href="#DejaVuSans-30" x="127.246094"/>
       <use xlink:href="#DejaVuSans-30" x="190.869141"/>
      </g>
     </g>
    </g>
    <g id="xtick_5">
     <g id="line2d_5">
      <g>
       <use xlink:href="#m4e01e5ecad" x="519.265585" y="354.958125" style="stroke: #000000; stroke-width: 0.8"/>
      </g>
     </g>
     <g id="text_5">
      <!-- 2000 -->
      <g transform="translate(506.540585 369.556562)scale(0.1 -0.1)">
       <defs>
        <path id="DejaVuSans-32" d="M 1228 531 
L 3431 531 
L 3431 0 
L 469 0 
L 469 531 
Q 828 903 1448 1529 
Q 2069 2156 2228 2338 
Q 2531 2678 2651 2914 
Q 2772 3150 2772 3378 
Q 2772 3750 2511 3984 
Q 2250 4219 1831 4219 
Q 1534 4219 1204 4116 
Q 875 4013 500 3803 
L 500 4441 
Q 881 4594 1212 4672 
Q 1544 4750 1819 4750 
Q 2544 4750 2975 4387 
Q 3406 4025 3406 3419 
Q 3406 3131 3298 2873 
Q 3191 2616 2906 2266 
Q 2828 2175 2409 1742 
Q 1991 1309 1228 531 
z
" transform="scale(0.015625)"/>
       </defs>
       <use xlink:href="#DejaVuSans-32"/>
       <use xlink:href="#DejaVuSans-30" x="63.623047"/>
       <use xlink:href="#DejaVuSans-30" x="127.246094"/>
       <use xlink:href="#DejaVuSans-30" x="190.869141"/>
      </g>
     </g>
    </g>
    <g id="text_6">
     <!-- Date -->
     <g transform="translate(314.014844 383.234687)scale(0.1 -0.1)">
      <defs>
       <path id="DejaVuSans-44" d="M 1259 4147 
L 1259 519 
L 2022 519 
Q 2988 519 3436 956 
Q 3884 1394 3884 2338 
Q 3884 3275 3436 3711 
Q 2988 4147 2022 4147 
L 1259 4147 
z
M 628 4666 
L 1925 4666 
Q 3281 4666 3915 4102 
Q 4550 3538 4550 2338 
Q 4550 1131 3912 565 
Q 3275 0 1925 0 
L 628 0 
L 628 4666 
z
" transform="scale(0.015625)"/>
       <path id="DejaVuSans-61" d="M 2194 1759 
Q 1497 1759 1228 1600 
Q 959 1441 959 1056 
Q 959 750 1161 570 
Q 1363 391 1709 391 
Q 2188 391 2477 730 
Q 2766 1069 2766 1631 
L 2766 1759 
L 2194 1759 
z
M 3341 1997 
L 3341 0 
L 2766 0 
L 2766 531 
Q 2569 213 2275 61 
Q 1981 -91 1556 -91 
Q 1019 -91 701 211 
Q 384 513 384 1019 
Q 384 1609 779 1909 
Q 1175 2209 1959 2209 
L 2766 2209 
L 2766 2266 
Q 2766 2663 2505 2880 
Q 2244 3097 1772 3097 
Q 1472 3097 1187 3025 
Q 903 2953 641 2809 
L 641 3341 
Q 956 3463 1253 3523 
Q 1550 3584 1831 3584 
Q 2591 3584 2966 3190 
Q 3341 2797 3341 1997 
z
" transform="scale(0.015625)"/>
       <path id="DejaVuSans-74" d="M 1172 4494 
L 1172 3500 
L 2356 3500 
L 2356 3053 
L 1172 3053 
L 1172 1153 
Q 1172 725 1289 603 
Q 1406 481 1766 481 
L 2356 481 
L 2356 0 
L 1766 0 
Q 1100 0 847 248 
Q 594 497 594 1153 
L 594 3053 
L 172 3053 
L 172 3500 
L 594 3500 
L 594 4494 
L 1172 4494 
z
" transform="scale(0.015625)"/>
       <path id="DejaVuSans-65" d="M 3597 1894 
L 3597 1613 
L 953 1613 
Q 991 1019 1311 708 
Q 1631 397 2203 397 
Q 2534 397 2845 478 
Q 3156 559 3463 722 
L 3463 178 
Q 3153 47 2828 -22 
Q 2503 -91 2169 -91 
Q 1331 -91 842 396 
Q 353 884 353 1716 
Q 353 2575 817 3079 
Q 1281 3584 2069 3584 
Q 2775 3584 3186 3129 
Q 3597 2675 3597 1894 
z
M 3022 2063 
Q 3016 2534 2758 2815 
Q 2500 3097 2075 3097 
Q 1594 3097 1305 2825 
Q 1016 2553 972 2059 
L 3022 2063 
z
" transform="scale(0.015625)"/>
      </defs>
      <use xlink:href="#DejaVuSans-44"/>
      <use xlink:href="#DejaVuSans-61" x="77.001953"/>
      <use xlink:href="#DejaVuSans-74" x="138.28125"/>
      <use xlink:href="#DejaVuSans-65" x="177.490234"/>
     </g>
    </g>
   </g>
   <g id="matplotlib.axis_2">
    <g id="ytick_1">
     <g id="line2d_6">
      <path d="M 46.965625 341.573082 
L 604.965625 341.573082 
" clip-path="url(#p3171b68557)" style="fill: none; stroke: #dcdcdc; stroke-width: 0.5; stroke-linecap: square"/>
     </g>
     <g id="line2d_7">
      <defs>
       <path id="mf74bd83a13" d="M 0 0 
L -3.5 0 
" style="stroke: #000000; stroke-width: 0.8"/>
      </defs>
      <g>
       <use xlink:href="#mf74bd83a13" x="46.965625" y="341.573082" style="stroke: #000000; stroke-width: 0.8"/>
      </g>
     </g>
     <g id="text_7">
      <!-- 0 -->
      <g transform="translate(33.603125 345.372301)scale(0.1 -0.1)">
       <use xlink:href="#DejaVuSans-30"/>
      </g>
     </g>
    </g>
    <g id="ytick_2">
     <g id="line2d_8">
      <path d="M 46.965625 304.480739 
L 604.965625 304.480739 
" clip-path="url(#p3171b68557)" style="fill: none; stroke: #dcdcdc; stroke-width: 0.5; stroke-linecap: square"/>
     </g>
     <g id="line2d_9">
      <g>
       <use xlink:href="#mf74bd83a13" x="46.965625" y="304.480739" style="stroke: #000000; stroke-width: 0.8"/>
      </g>
     </g>
     <g id="text_8">
      <!-- 50 -->
      <g transform="translate(27.240625 308.279958)scale(0.1 -0.1)">
       <use xlink:href="#DejaVuSans-35"/>
       <use xlink:href="#DejaVuSans-30" x="63.623047"/>
      </g>
     </g>
    </g>
    <g id="ytick_3">
     <g id="line2d_10">
      <path d="M 46.965625 267.388396 
L 604.965625 267.388396 
" clip-path="url(#p3171b68557)" style="fill: none; stroke: #dcdcdc; stroke-width: 0.5; stroke-linecap: square"/>
     </g>
     <g id="line2d_11">
      <g>
       <use xlink:href="#mf74bd83a13" x="46.965625" y="267.388396" style="stroke: #000000; stroke-width: 0.8"/>
      </g>
     </g>
     <g id="text_9">
      <!-- 100 -->
      <g transform="translate(20.878125 271.187615)scale(0.1 -0.1)">
       <use xlink:href="#DejaVuSans-31"/>
       <use xlink:href="#DejaVuSans-30" x="63.623047"/>
       <use xlink:href="#DejaVuSans-30" x="127.246094"/>
      </g>
     </g>
    </g>
    <g id="ytick_4">
     <g id="line2d_12">
      <path d="M 46.965625 230.296053 
L 604.965625 230.296053 
" clip-path="url(#p3171b68557)" style="fill: none; stroke: #dcdcdc; stroke-width: 0.5; stroke-linecap: square"/>
     </g>
     <g id="line2d_13">
      <g>
       <use xlink:href="#mf74bd83a13" x="46.965625" y="230.296053" style="stroke: #000000; stroke-width: 0.8"/>
      </g>
     </g>
     <g id="text_10">
      <!-- 150 -->
      <g transform="translate(20.878125 234.095272)scale(0.1 -0.1)">
       <use xlink:href="#DejaVuSans-31"/>
       <use xlink:href="#DejaVuSans-35" x="63.623047"/>
       <use xlink:href="#DejaVuSans-30" x="127.246094"/>
      </g>
     </g>
    </g>
    <g id="ytick_5">
     <g id="line2d_14">
      <path d="M 46.965625 193.20371 
L 604.965625 193.20371 
" clip-path="url(#p3171b68557)" style="fill: none; stroke: #dcdcdc; stroke-width: 0.5; stroke-linecap: square"/>
     </g>
     <g id="line2d_15">
      <g>
       <use xlink:href="#mf74bd83a13" x="46.965625" y="193.20371" style="stroke: #000000; stroke-width: 0.8"/>
      </g>
     </g>
     <g id="text_11">
      <!-- 200 -->
      <g transform="translate(20.878125 197.002929)scale(0.1 -0.1)">
       <use xlink:href="#DejaVuSans-32"/>
       <use xlink:href="#DejaVuSans-30" x="63.623047"/>
       <use xlink:href="#DejaVuSans-30" x="127.246094"/>
      </g>
     </g>
    </g>
    <g id="ytick_6">
     <g id="line2d_16">
      <path d="M 46.965625 156.111367 
L 604.965625 156.111367 
" clip-path="url(#p3171b68557)" style="fill: none; stroke: #dcdcdc; stroke-width: 0.5; stroke-linecap: square"/>
     </g>
     <g id="line2d_17">
      <g>
       <use xlink:href="#mf74bd83a13" x="46.965625" y="156.111367" style="stroke: #000000; stroke-width: 0.8"/>
      </g>
     </g>
     <g id="text_12">
      <!-- 250 -->
      <g transform="translate(20.878125 159.910586)scale(0.1 -0.1)">
       <use xlink:href="#DejaVuSans-32"/>
       <use xlink:href="#DejaVuSans-35" x="63.623047"/>
       <use xlink:href="#DejaVuSans-30" x="127.246094"/>
      </g>
     </g>
    </g>
    <g id="ytick_7">
     <g id="line2d_18">
      <path d="M 46.965625 119.019024 
L 604.965625 119.019024 
" clip-path="url(#p3171b68557)" style="fill: none; stroke: #dcdcdc; stroke-width: 0.5; stroke-linecap: square"/>
     </g>
     <g id="line2d_19">
      <g>
       <use xlink:href="#mf74bd83a13" x="46.965625" y="119.019024" style="stroke: #000000; stroke-width: 0.8"/>
      </g>
     </g>
     <g id="text_13">
      <!-- 300 -->
      <g transform="translate(20.878125 122.818243)scale(0.1 -0.1)">
       <defs>
        <path id="DejaVuSans-33" d="M 2597 2516 
Q 3050 2419 3304 2112 
Q 3559 1806 3559 1356 
Q 3559 666 3084 287 
Q 2609 -91 1734 -91 
Q 1441 -91 1130 -33 
Q 819 25 488 141 
L 488 750 
Q 750 597 1062 519 
Q 1375 441 1716 441 
Q 2309 441 2620 675 
Q 2931 909 2931 1356 
Q 2931 1769 2642 2001 
Q 2353 2234 1838 2234 
L 1294 2234 
L 1294 2753 
L 1863 2753 
Q 2328 2753 2575 2939 
Q 2822 3125 2822 3475 
Q 2822 3834 2567 4026 
Q 2313 4219 1838 4219 
Q 1578 4219 1281 4162 
Q 984 4106 628 3988 
L 628 4550 
Q 988 4650 1302 4700 
Q 1616 4750 1894 4750 
Q 2613 4750 3031 4423 
Q 3450 4097 3450 3541 
Q 3450 3153 3228 2886 
Q 3006 2619 2597 2516 
z
" transform="scale(0.015625)"/>
       </defs>
       <use xlink:href="#DejaVuSans-33"/>
       <use xlink:href="#DejaVuSans-30" x="63.623047"/>
       <use xlink:href="#DejaVuSans-30" x="127.246094"/>
      </g>
     </g>
    </g>
    <g id="ytick_8">
     <g id="line2d_20">
      <path d="M 46.965625 81.926681 
L 604.965625 81.926681 
" clip-path="url(#p3171b68557)" style="fill: none; stroke: #dcdcdc; stroke-width: 0.5; stroke-linecap: square"/>
     </g>
     <g id="line2d_21">
      <g>
       <use xlink:href="#mf74bd83a13" x="46.965625" y="81.926681" style="stroke: #000000; stroke-width: 0.8"/>
      </g>
     </g>
     <g id="text_14">
      <!-- 350 -->
      <g transform="translate(20.878125 85.7259)scale(0.1 -0.1)">
       <use xlink:href="#DejaVuSans-33"/>
       <use xlink:href="#DejaVuSans-35" x="63.623047"/>
       <use xlink:href="#DejaVuSans-30" x="127.246094"/>
      </g>
     </g>
    </g>
    <g id="ytick_9">
     <g id="line2d_22">
      <path d="M 46.965625 44.834338 
L 604.965625 44.834338 
" clip-path="url(#p3171b68557)" style="fill: none; stroke: #dcdcdc; stroke-width: 0.5; stroke-linecap: square"/>
     </g>
     <g id="line2d_23">
      <g>
       <use xlink:href="#mf74bd83a13" x="46.965625" y="44.834338" style="stroke: #000000; stroke-width: 0.8"/>
      </g>
     </g>
     <g id="text_15">
      <!-- 400 -->
      <g transform="translate(20.878125 48.633557)scale(0.1 -0.1)">
       <defs>
        <path id="DejaVuSans-34" d="M 2419 4116 
L 825 1625 
L 2419 1625 
L 2419 4116 
z
M 2253 4666 
L 3047 4666 
L 3047 1625 
L 3713 1625 
L 3713 1100 
L 3047 1100 
L 3047 0 
L 2419 0 
L 2419 1100 
L 313 1100 
L 313 1709 
L 2253 4666 
z
" transform="scale(0.015625)"/>
       </defs>
       <use xlink:href="#DejaVuSans-34"/>
       <use xlink:href="#DejaVuSans-30" x="63.623047"/>
       <use xlink:href="#DejaVuSans-30" x="127.246094"/>
      </g>
     </g>
    </g>
    <g id="text_16">
     <!-- Price (USD) -->
     <g transform="translate(14.798437 217.01)rotate(-90)scale(0.1 -0.1)">
      <defs>
       <path id="DejaVuSans-50" d="M 1259 4147 
L 1259 2394 
L 2053 2394 
Q 2494 2394 2734 2622 
Q 2975 2850 2975 3272 
Q 2975 3691 2734 3919 
Q 2494 4147 2053 4147 
L 1259 4147 
z
M 628 4666 
L 2053 4666 
Q 2838 4666 3239 4311 
Q 3641 3956 3641 3272 
Q 3641 2581 3239 2228 
Q 2838 1875 2053 1875 
L 1259 1875 
L 1259 0 
L 628 0 
L 628 4666 
z
" transform="scale(0.015625)"/>
       <path id="DejaVuSans-72" d="M 2631 2963 
Q 2534 3019 2420 3045 
Q 2306 3072 2169 3072 
Q 1681 3072 1420 2755 
Q 1159 2438 1159 1844 
L 1159 0 
L 581 0 
L 581 3500 
L 1159 3500 
L 1159 2956 
Q 1341 3275 1631 3429 
Q 1922 3584 2338 3584 
Q 2397 3584 2469 3576 
Q 2541 3569 2628 3553 
L 2631 2963 
z
" transform="scale(0.015625)"/>
       <path id="DejaVuSans-69" d="M 603 3500 
L 1178 3500 
L 1178 0 
L 603 0 
L 603 3500 
z
M 603 4863 
L 1178 4863 
L 1178 4134 
L 603 4134 
L 603 4863 
z
" transform="scale(0.015625)"/>
       <path id="DejaVuSans-63" d="M 3122 3366 
L 3122 2828 
Q 2878 2963 2633 3030 
Q 2388 3097 2138 3097 
Q 1578 3097 1268 2742 
Q 959 2388 959 1747 
Q 959 1106 1268 751 
Q 1578 397 2138 397 
Q 2388 397 2633 464 
Q 2878 531 3122 666 
L 3122 134 
Q 2881 22 2623 -34 
Q 2366 -91 2075 -91 
Q 1284 -91 818 406 
Q 353 903 353 1747 
Q 353 2603 823 3093 
Q 1294 3584 2113 3584 
Q 2378 3584 2631 3529 
Q 2884 3475 3122 3366 
z
" transform="scale(0.015625)"/>
       <path id="DejaVuSans-20" transform="scale(0.015625)"/>
       <path id="DejaVuSans-28" d="M 1984 4856 
Q 1566 4138 1362 3434 
Q 1159 2731 1159 2009 
Q 1159 1288 1364 580 
Q 1569 -128 1984 -844 
L 1484 -844 
Q 1016 -109 783 600 
Q 550 1309 550 2009 
Q 550 2706 781 3412 
Q 1013 4119 1484 4856 
L 1984 4856 
z
" transform="scale(0.015625)"/>
       <path id="DejaVuSans-55" d="M 556 4666 
L 1191 4666 
L 1191 1831 
Q 1191 1081 1462 751 
Q 1734 422 2344 422 
Q 2950 422 3222 751 
Q 3494 1081 3494 1831 
L 3494 4666 
L 4128 4666 
L 4128 1753 
Q 4128 841 3676 375 
Q 3225 -91 2344 -91 
Q 1459 -91 1007 375 
Q 556 841 556 1753 
L 556 4666 
z
" transform="scale(0.015625)"/>
       <path id="DejaVuSans-53" d="M 3425 4513 
L 3425 3897 
Q 3066 4069 2747 4153 
Q 2428 4238 2131 4238 
Q 1616 4238 1336 4038 
Q 1056 3838 1056 3469 
Q 1056 3159 1242 3001 
Q 1428 2844 1947 2747 
L 2328 2669 
Q 3034 2534 3370 2195 
Q 3706 1856 3706 1288 
Q 3706 609 3251 259 
Q 2797 -91 1919 -91 
Q 1588 -91 1214 -16 
Q 841 59 441 206 
L 441 856 
Q 825 641 1194 531 
Q 1563 422 1919 422 
Q 2459 422 2753 634 
Q 3047 847 3047 1241 
Q 3047 1584 2836 1778 
Q 2625 1972 2144 2069 
L 1759 2144 
Q 1053 2284 737 2584 
Q 422 2884 422 3419 
Q 422 4038 858 4394 
Q 1294 4750 2059 4750 
Q 2388 4750 2728 4690 
Q 3069 4631 3425 4513 
z
" transform="scale(0.015625)"/>
       <path id="DejaVuSans-29" d="M 513 4856 
L 1013 4856 
Q 1481 4119 1714 3412 
Q 1947 2706 1947 2009 
Q 1947 1309 1714 600 
Q 1481 -109 1013 -844 
L 513 -844 
Q 928 -128 1133 580 
Q 1338 1288 1338 2009 
Q 1338 2731 1133 3434 
Q 928 4138 513 4856 
z
" transform="scale(0.015625)"/>
      </defs>
      <use xlink:href="#DejaVuSans-50"/>
      <use xlink:href="#DejaVuSans-72" x="58.552734"/>
      <use xlink:href="#DejaVuSans-69" x="99.666016"/>
      <use xlink:href="#DejaVuSans-63" x="127.449219"/>
      <use xlink:href="#DejaVuSans-65" x="182.429688"/>
      <use xlink:href="#DejaVuSans-20" x="243.953125"/>
      <use xlink:href="#DejaVuSans-28" x="275.740234"/>
      <use xlink:href="#DejaVuSans-55" x="314.753906"/>
      <use xlink:href="#DejaVuSans-53" x="387.947266"/>
      <use xlink:href="#DejaVuSans-44" x="451.423828"/>
      <use xlink:href="#DejaVuSans-29" x="528.425781"/>
     </g>
    </g>
   </g>
   <g id="line2d_24">
    <path d="M 74.563943 339.540422 
L 75.234347 339.504294 
L 75.457816 339.570096 
L 76.12822 339.409338 
L 76.351688 339.431593 
L 76.798625 339.325286 
M 77.245561 339.207555 
L 77.692497 339.050284 
L 78.362902 339.040936 
L 78.58637 338.85592 
L 79.256774 338.897018 
L 79.480243 338.875208 
L 79.703711 338.630398 
L 79.927179 338.82773 
L 80.150647 338.81408 
L 80.374115 338.140779 
M 85.290415 336.900931 
L 85.513883 336.739727 
L 85.960819 336.612575 
L 86.631224 336.395956 
L 87.07816 336.649667 
L 87.301628 336.553746 
M 90.653651 336.179856 
L 90.877119 335.625919 
M 91.324055 335.654109 
L 91.547523 335.518128 
M 94.899546 334.284214 
L 95.123014 334.380654 
L 95.346482 334.680806 
L 95.793418 334.550241 
M 98.921973 333.315362 
L 99.145441 333.625454 
L 99.368909 333.345036 
L 99.592377 333.485987 
M 110.989253 335.534449 
L 111.659658 335.613604 
M 116.799426 334.133397 
L 117.022894 334.149643 
M 118.140235 334.276796 
L 118.363703 334.366263 
L 118.587171 334.681844 
M 120.598384 333.184278 
L 120.821852 332.751039 
M 121.715725 332.813874 
L 121.939193 332.733754 
L 122.162661 332.946887 
L 122.38613 332.751039 
L 122.833066 331.851921 
L 123.280002 331.913272 
L 123.50347 331.700065 
L 123.726939 331.769353 
M 136.464624 332.740654 
L 137.135028 332.168467 
M 137.581965 332.246064 
L 137.805433 332.099179 
M 140.040114 331.449321 
L 140.710519 331.340566 
L 140.933987 331.277657 
L 141.380923 331.568016 
L 141.604392 331.460745 
M 146.744159 330.713409 
L 147.191096 330.920161 
L 147.414564 330.691673 
L 148.978841 330.44486 
L 149.202309 330.251535 
L 149.425777 330.529431 
L 149.872714 329.776753 
L 150.096182 329.778236 
M 151.213522 328.716357 
L 151.660459 328.646178 
M 152.554331 328.926596 
L 152.7778 328.994327 
M 175.124616 332.043317 
L 175.79502 332.080929 
L 176.018488 331.851402 
M 186.298024 332.423662 
L 186.521492 332.14814 
L 186.968428 332.295545 
L 187.191897 332.126924 
L 187.415365 331.528476 
L 187.638833 331.521057 
L 188.085769 331.182775 
M 188.756174 331.312821 
L 189.426578 331.345981 
L 189.650046 331.421131 
L 189.873514 331.216381 
L 190.096983 330.720382 
L 190.543919 330.770531 
L 190.767387 330.121415 
L 190.990855 330.174383 
M 191.437792 330.39345 
L 191.66126 330.394414 
L 192.108196 330.052201 
L 192.331664 330.176831 
L 192.555132 329.861768 
L 192.778601 329.87119 
M 196.577559 329.258944 
L 196.801027 329.410726 
L 197.024496 329.251525 
M 197.6949 329.174373 
L 198.141836 329.174818 
L 198.365305 329.190174 
M 209.315245 330.748572 
L 209.538713 330.691153 
L 209.762181 330.453317 
M 235.014083 334.254021 
L 235.237551 334.241187 
L 235.461019 334.467673 
L 235.684488 334.131394 
L 235.907956 334.103204 
L 236.131424 333.898899 
L 236.354892 333.230792 
L 236.801828 333.33465 
L 237.025297 332.782716 
L 237.248765 332.808903 
L 237.472233 332.720401 
L 237.695701 332.303483 
L 238.142637 332.080929 
L 238.366106 332.356896 
L 238.589574 332.258453 
M 240.153851 331.310892 
L 240.377319 330.93255 
L 240.824255 330.597235 
M 250.433386 331.451324 
L 250.656854 331.129362 
M 256.02009 331.846951 
L 256.243559 331.859859 
L 256.467027 332.020543 
L 257.137431 331.177805 
M 281.048524 332.206005 
L 281.271993 332.577967 
L 281.495461 332.598219 
L 281.718929 332.334641 
L 281.942397 332.3816 
L 282.165865 332.020543 
L 282.83627 332.056151 
L 283.059738 331.773285 
L 283.506674 331.801475 
L 283.730142 331.558669 
L 283.953611 331.546799 
L 284.177079 331.247093 
L 284.624015 331.263859 
L 285.070951 330.715931 
L 285.29442 330.705545 
L 285.517888 330.95577 
L 285.741356 331.004732 
L 285.964824 330.841526 
L 286.188292 330.346936 
L 286.41176 330.358806 
L 286.858697 330.134768 
L 287.305633 330.211475 
L 287.529101 330.218374 
L 287.752569 329.81481 
L 287.976037 329.922155 
L 288.86991 329.262356 
L 289.093378 328.980974 
L 289.540315 329.084832 
M 289.987251 329.177786 
L 290.210719 329.113542 
L 290.434187 329.246555 
M 295.797423 329.363767 
L 296.244359 329.521038 
L 296.467828 329.398411 
L 296.691296 328.813316 
L 296.914764 328.925558 
L 297.138232 328.613018 
L 297.585168 328.619472 
L 297.808637 329.175338 
L 298.032105 328.961166 
L 298.255573 328.972591 
L 298.479041 328.558121 
M 306.300427 325.950752 
L 306.523895 325.894891 
L 306.747363 326.433991 
L 306.970831 326.090219 
L 307.417768 326.224271 
L 307.641236 326.545268 
L 308.31164 325.49281 
L 308.535108 325.000223 
M 308.982045 324.739613 
L 309.205513 324.76528 
L 309.428981 324.395841 
M 322.390134 324.359787 
L 322.613603 324.477963 
M 341.16146 325.881018 
L 341.384928 326.160472 
L 341.608396 325.976494 
L 341.831864 326.17479 
L 342.055333 325.720779 
L 342.278801 325.883021 
M 363.284808 327.882521 
L 363.508276 327.503215 
L 363.731744 327.972062 
L 363.955213 327.771244 
L 364.402149 327.782149 
L 364.849085 327.145645 
L 365.072553 327.491345 
M 385.184688 329.181272 
L 385.408156 328.575925 
L 385.855092 329.098705 
L 386.078561 328.77474 
L 386.302029 328.73468 
L 386.525497 327.893945 
L 387.195901 328.714428 
L 387.419369 328.667395 
M 392.335669 324.847403 
L 392.559137 325.458685 
M 420.492657 332.240649 
L 420.716126 332.183304 
L 421.163062 332.415725 
L 421.38653 332.721885 
L 421.609998 331.998287 
M 424.291616 330.71148 
L 424.738553 330.512665 
L 424.962021 330.704506 
L 425.185489 330.728765 
L 425.408957 330.552205 
L 425.632425 330.521567 
L 425.855893 330.338034 
L 426.079361 330.467635 
L 426.30283 329.95576 
M 434.347683 331.118012 
L 434.571152 330.939969 
L 434.79462 330.985444 
L 435.018088 330.91074 
L 435.241556 330.608066 
M 439.040515 330.533882 
L 439.263983 330.262366 
M 440.604792 330.048269 
L 440.82826 330.12735 
L 441.051728 329.816293 
L 441.945601 329.313321 
L 442.169069 328.864726 
L 442.839474 328.616949 
L 443.28641 329.03587 
L 443.509878 328.932976 
L 443.733346 328.977487 
L 443.956814 326.751946 
M 444.627219 325.933986 
L 445.297623 326.077904 
M 448.649646 325.102079 
L 448.873114 324.938873 
L 449.096582 325.305864 
L 449.32005 325.188652 
L 449.543518 325.255419 
L 449.766987 325.011574 
L 449.990455 324.945846 
L 450.437391 325.234128 
L 451.554732 323.784559 
L 451.7782 323.848358 
L 452.001668 322.705469 
L 452.225136 322.829579 
L 452.672073 321.590695 
L 452.895541 321.514062 
L 453.119009 320.839946 
L 453.565945 320.260341 
L 453.789414 320.288012 
L 454.012882 321.063465 
L 454.23635 320.883938 
L 455.130223 318.375012 
L 455.353691 317.233606 
L 455.577159 317.767736 
L 455.800627 317.925452 
L 456.024095 315.615341 
L 456.247563 314.969415 
M 456.6945 316.177661 
L 456.917968 316.325511 
L 457.141436 314.510509 
M 457.81184 313.639061 
L 458.035309 313.97534 
L 458.258777 313.536167 
L 458.482245 312.83935 
L 458.705713 309.880865 
L 458.929181 309.398145 
M 466.527099 320.428963 
L 466.750567 320.094613 
L 466.974035 316.597547 
L 467.197503 314.903688 
L 467.867908 316.739462 
M 468.314844 317.756831 
L 468.538312 319.096606 
L 468.985249 316.041681 
L 469.208717 314.597008 
L 469.432185 314.429351 
L 469.655653 313.234532 
M 475.465825 301.333825 
L 475.689293 301.611721 
L 475.912762 301.238349 
M 479.488252 295.317447 
L 479.71172 292.566679 
L 479.935188 293.000362 
L 480.382125 291.920753 
L 480.605593 292.072089 
L 480.829061 292.397538 
L 481.052529 292.028543 
L 481.275997 294.05282 
L 481.499466 292.810004 
L 481.722934 294.107717 
L 482.393338 286.200149 
M 486.415765 268.551093 
L 486.639233 267.432388 
L 486.862701 268.007097 
L 487.08617 270.812761 
L 487.309638 268.130243 
L 487.533106 268.031281 
L 487.756574 268.129205 
L 487.980042 267.903683 
L 488.650447 273.600622 
L 488.873915 264.680136 
L 489.097383 261.40414 
M 495.354492 247.516767 
L 495.57796 245.679509 
M 501.388132 245.617639 
L 501.6116 242.534078 
L 501.835068 236.750121 
L 502.058536 237.47216 
L 502.282005 233.241185 
L 502.952409 240.098298 
L 503.175877 238.424247 
L 503.622814 240.558243 
L 503.846282 240.659654 
L 504.06975 232.370776 
M 508.315645 184.981599 
L 508.539113 187.573093 
L 508.762581 179.380655 
M 509.209518 180.874215 
L 509.432986 183.228392 
L 509.656454 181.83372 
L 509.879922 177.929083 
L 510.326858 176.885602 
L 510.550327 169.76632 
L 510.773795 167.073416 
L 510.997263 161.113937 
L 511.220731 159.79345 
M 534.237952 199.919947 
L 534.46142 193.438653 
L 534.684888 191.935152 
L 534.908356 192.316016 
L 535.131824 193.505419 
L 535.355293 190.701238 
L 535.578761 190.758138 
L 535.802229 188.829336 
L 536.025697 193.36202 
M 540.49506 180.003806 
L 540.718528 180.691276 
L 540.941997 182.268888 
M 541.835869 181.022585 
L 542.059337 182.476605 
L 542.282806 178.955354 
M 545.858296 176.954816 
L 546.081764 171.198084 
L 546.305233 175.035881 
L 546.528701 173.356859 
M 547.199105 165.705969 
L 547.422573 168.188634 
L 547.646041 165.527926 
M 550.998064 161.014975 
L 551.668468 155.211284 
L 552.115405 145.883821 
L 552.338873 149.296317 
L 552.562341 148.369008 
L 552.785809 149.810639 
L 553.009277 149.874957 
L 553.232746 148.314557 
L 553.456214 148.547052 
L 553.679682 148.012922 
L 553.90315 145.327436 
L 554.126618 147.335319 
L 554.350086 145.740348 
L 554.573555 142.332823 
L 555.020491 139.217066 
L 555.467427 126.410341 
L 555.690895 127.85442 
M 576.696903 134.278814 
L 576.920371 142.614725 
L 577.143839 137.713565 
L 577.367307 129.165041 
L 577.590775 134.276366 
L 578.037712 152.063406 
L 578.708116 126.041866 
L 578.708116 126.041866 
" clip-path="url(#p3171b68557)" style="fill: none; stroke: #00ff7f; stroke-linecap: square"/>
   </g>
   <g id="line2d_25">
    <path d="M 107.637231 333.662992 
L 107.860699 333.552753 
L 108.084167 332.908311 
L 108.307635 332.828711 
L 108.531104 334.097269 
M 126.185088 328.969623 
L 126.855493 329.396408 
M 154.342077 327.521538 
L 154.565545 327.666421 
L 154.789013 327.426582 
L 155.012481 327.854331 
L 155.235949 327.620946 
L 155.459418 327.800473 
L 155.682886 327.670872 
L 155.906354 327.709967 
M 159.705313 328.683716 
L 159.928781 328.735645 
M 165.962421 329.124892 
L 166.185889 328.779711 
L 166.409357 329.012131 
L 166.632826 328.828153 
L 166.856294 329.32074 
L 167.079762 329.272742 
L 167.30323 329.566068 
L 167.750166 329.303454 
L 167.973635 329.286095 
M 171.549125 330.7278 
L 171.772593 330.564075 
L 171.996062 330.644714 
L 172.21953 330.580915 
L 172.442998 330.305912 
L 173.113402 330.573496 
M 180.71132 330.835591 
L 180.934788 331.319052 
M 206.18669 328.403817 
L 206.410158 328.213385 
M 212.890735 328.603151 
L 213.337671 328.683716 
L 213.56114 328.506711 
L 213.784608 328.667914 
L 214.231544 328.560124 
L 214.455012 328.867249 
M 215.572353 329.329122 
L 215.795821 329.399375 
M 227.192697 329.975048 
L 228.08657 330.20057 
M 228.980443 329.84248 
L 229.427379 329.703013 
L 229.650847 330.524015 
L 229.874315 330.523051 
L 230.321252 330.907772 
M 230.991656 331.18871 
L 231.215124 331.666459 
L 231.438593 331.376175 
L 231.885529 331.448356 
L 232.108997 331.746059 
L 232.555933 331.555702 
L 233.00287 332.00029 
M 245.07015 328.984905 
L 245.293619 329.116954 
L 245.517087 328.985944 
L 245.740555 329.017102 
L 245.964023 329.339063 
L 246.187491 329.210427 
L 246.410959 329.293514 
L 246.634428 329.023481 
L 246.857896 329.118957 
L 247.081364 329.024001 
L 247.5283 329.322223 
L 247.751768 329.665921 
M 253.561941 330.082394 
L 253.785409 329.925122 
M 263.39454 330.243597 
L 263.841476 330.44983 
L 264.288412 330.416225 
L 264.735349 330.532398 
L 265.852689 330.56311 
L 266.076158 330.645159 
M 292.221933 327.695576 
L 292.668869 327.737119 
L 292.892337 328.271768 
L 293.339273 327.854331 
M 310.993258 322.747012 
L 311.440194 323.204954 
L 311.663663 323.284109 
M 312.334067 322.650572 
L 312.557535 322.609028 
L 312.781003 322.903764 
M 325.742157 322.532321 
L 325.965625 323.02194 
M 329.764584 323.98241 
L 329.988052 323.987825 
L 330.21152 324.233673 
L 330.658456 323.786043 
L 331.328861 324.905267 
M 350.323655 323.896355 
L 350.547123 324.214385 
M 351.887932 325.138726 
L 352.334868 325.392438 
L 352.558336 324.485382 
L 352.781804 324.666912 
M 375.575557 322.80087 
L 375.799025 323.257403 
L 376.022493 324.142129 
L 376.46943 323.946282 
L 376.916366 324.822699 
L 377.139834 324.982938 
L 377.363302 326.46411 
M 406.637631 326.007132 
L 406.8611 325.752975 
M 412.671272 327.97451 
L 413.118208 328.105594 
L 413.341676 327.920133 
M 416.693699 329.500786 
L 416.917167 328.960202 
L 417.140635 328.944846 
L 417.364103 329.354345 
L 418.034508 329.727272 
L 418.257976 330.345972 
L 418.481444 330.083877 
L 418.704912 330.101682 
M 461.387331 299.119635 
L 461.610799 296.20069 
L 461.834267 297.091425 
L 462.057736 297.012789 
L 462.504672 302.012318 
L 462.72814 303.056393 
L 462.951608 307.992123 
M 463.398545 304.796247 
L 463.845481 304.505443 
M 515.243158 133.902995 
L 515.466626 125.747575 
L 515.690094 130.223434 
L 515.913563 131.385611 
L 516.137031 130.831749 
L 516.360499 128.06466 
L 516.583967 131.516696 
L 516.807435 142.555377 
L 517.254371 139.761062 
L 517.47784 144.682029 
M 527.533907 157.565387 
L 527.757375 163.606543 
L 528.204311 159.029348 
L 528.42778 167.303388 
L 528.651248 169.860312 
L 528.874716 174.163024 
L 529.098184 166.141137 
L 529.321652 172.209444 
M 561.948004 60.415645 
L 562.171472 58.494261 
M 567.31124 44.88879 
L 567.534708 57.299888 
M 567.981644 78.291632 
L 568.205112 87.624065 
M 568.875517 68.024471 
" clip-path="url(#p3171b68557)" style="fill: none; stroke: #ff4500; stroke-linecap: square"/>
   </g>
   <g id="line2d_26">
    <path d="M 72.329261 339.838125 
L 72.55273 339.795098 
M 72.999666 339.762012 
L 73.67007 339.685824 
M 74.117007 339.400435 
L 74.340475 339.380183 
M 80.597583 337.776607 
L 80.821052 337.23083 
L 81.04452 337.456351 
L 81.267988 337.377122 
L 81.491456 337.010798 
L 81.938392 337.124968 
L 82.385329 337.258501 
L 82.832265 336.771849 
L 83.055733 336.116353 
L 83.279201 336.398478 
L 83.502669 336.382602 
L 83.949606 336.993884 
L 84.843478 336.526521 
L 85.066947 336.624964 
M 87.525096 336.508716 
L 87.972033 336.169989 
L 88.195501 336.263462 
L 88.418969 335.777849 
L 88.642437 335.746098 
L 88.865905 335.873695 
L 89.089373 335.633856 
L 89.53631 335.467683 
L 89.759778 335.526066 
L 90.206714 335.148688 
L 90.430182 335.279253 
M 91.770991 335.502772 
L 91.99446 335.554256 
L 92.217928 335.437044 
L 92.664864 334.915229 
L 92.888332 335.057664 
L 93.558737 334.748091 
L 93.782205 334.417747 
L 94.005673 334.542822 
M 94.452609 333.982505 
L 94.676078 334.006244 
M 96.016887 334.406842 
L 96.240355 334.175385 
L 96.463823 334.260475 
L 96.910759 333.569074 
L 97.581164 333.34103 
L 97.804632 333.360318 
L 98.0281 333.214916 
L 98.698504 333.168922 
M 99.815845 333.416253 
L 100.709718 333.352529 
L 101.156654 332.503263 
L 101.380122 332.616023 
L 101.827059 332.411867 
L 102.497463 332.009712 
L 102.720931 332.027961 
L 103.167868 333.001784 
L 103.391336 332.622477 
L 103.614804 332.519064 
L 104.06174 333.225821 
L 104.955613 332.476037 
L 105.402549 332.532343 
M 105.849486 333.036873 
L 106.072954 333.089322 
L 106.296422 333.43747 
L 106.51989 333.009721 
L 106.743358 333.182275 
L 106.966826 333.518628 
M 108.754572 334.660479 
L 108.97804 334.750539 
M 109.424976 334.757958 
L 109.871913 334.767898 
L 110.095381 334.874205 
L 110.318849 335.560191 
L 110.542317 335.337118 
L 110.765785 335.583411 
M 111.883126 335.295055 
L 112.106594 335.278289 
L 112.330062 335.432074 
L 112.55353 334.416708 
L 112.776999 334.701132 
L 113.000467 334.625464 
L 113.223935 334.779768 
L 113.447403 334.570048 
L 113.670871 334.540893 
L 113.894339 334.666488 
L 114.117808 334.279763 
L 114.564744 334.256469 
L 114.788212 334.032951 
L 115.235148 334.613594 
L 115.682085 334.473608 
L 116.129021 333.882578 
L 116.352489 334.099198 
L 116.575957 334.033915 
M 117.246362 334.17635 
L 117.46983 334.302983 
L 117.916766 334.091334 
M 118.810639 333.597264 
L 119.034107 333.455794 
L 119.257575 333.117512 
L 119.481044 333.16499 
L 119.704512 332.835091 
L 120.151448 332.596735 
L 120.374916 332.937985 
M 121.045321 332.906827 
L 121.268789 332.530488 
L 121.492257 332.601186 
M 124.397343 331.18871 
L 124.620811 331.207034 
L 124.844279 330.808884 
L 125.067748 329.307906 
L 125.291216 329.060574 
L 125.514684 329.083349 
L 125.738152 329.465622 
L 125.96162 329.181272 
M 127.078961 329.760877 
L 127.302429 329.980019 
L 127.525897 329.629867 
L 127.749365 329.812807 
L 127.972834 330.150124 
L 128.196302 330.001236 
L 128.41977 329.70153 
L 128.643238 329.909247 
L 128.866706 329.955241 
L 129.984047 331.319794 
L 130.207515 331.070014 
L 130.430983 331.263859 
L 130.654452 330.84249 
L 130.87792 330.18373 
L 131.101388 330.425572 
L 131.324856 331.07721 
L 131.548324 331.309853 
L 131.771792 330.917194 
L 131.995261 330.844493 
L 132.218729 331.474543 
L 132.442197 331.49487 
L 132.889133 331.983005 
L 133.112601 331.725807 
L 133.33607 331.774769 
L 133.559538 331.465196 
M 134.006474 331.286634 
L 134.229942 331.293088 
L 134.45341 331.689234 
L 134.676879 331.755481 
L 134.900347 331.339527 
L 135.570751 331.142196 
L 135.794219 330.860294 
L 136.241156 331.615049 
M 138.028901 331.875141 
L 138.252369 331.914236 
L 139.146242 331.110074 
M 139.593178 331.175357 
L 139.816646 331.297539 
M 141.82786 331.507704 
L 142.051328 331.364305 
L 142.274796 330.464667 
L 142.498264 330.11548 
L 142.721732 330.340556 
L 143.168669 330.218374 
L 143.392137 329.840997 
L 143.615605 330.074456 
L 143.839073 329.857317 
L 144.062541 329.921116 
L 144.509478 329.700565 
L 144.732946 329.717405 
L 144.956414 330.226535 
L 145.179882 330.235214 
L 145.626818 330.738631 
L 145.850287 330.5413 
L 146.297223 330.785145 
L 146.520691 330.361328 
M 150.31965 329.261911 
L 150.543118 329.090767 
M 151.883927 328.615021 
L 152.330863 328.874667 
M 153.001268 328.873628 
L 153.224736 328.588314 
L 153.448204 328.628374 
L 153.89514 328.523477 
L 154.118609 328.234676 
M 156.129822 327.764864 
L 156.35329 329.018066 
L 156.576758 328.677781 
L 157.023695 328.52548 
L 157.247163 328.748034 
L 157.470631 329.207459 
L 157.917567 329.103156 
L 158.141035 329.359835 
L 158.587972 329.443367 
L 159.034908 329.691663 
L 159.258376 329.138764 
L 159.481844 328.9513 
M 160.152249 328.750037 
L 160.375717 328.862278 
L 160.822653 330.465632 
L 161.26959 330.212959 
L 161.493058 330.378613 
L 161.939994 330.174828 
L 162.163462 329.934024 
L 162.386931 330.14367 
L 162.610399 329.936472 
L 162.833867 329.93892 
M 163.280803 329.566513 
L 163.504271 329.797524 
L 163.72774 329.769779 
L 164.174676 329.575416 
L 164.398144 329.756426 
L 164.621612 330.150124 
L 164.84508 329.64322 
L 165.068549 329.693666 
L 165.292017 329.608057 
L 165.515485 329.15553 
L 165.738953 329.253454 
M 168.197103 329.480014 
L 168.420571 330.116964 
L 168.867507 330.232692 
L 169.090975 330.283137 
L 169.314444 330.509178 
L 169.537912 330.971571 
L 169.76138 330.846496 
L 169.984848 331.195164 
L 170.431784 331.335596 
L 170.655253 331.481962 
L 170.878721 331.790125 
L 171.325657 330.778691 
M 173.33687 330.726762 
L 173.560339 331.182775 
L 174.007275 331.140267 
L 174.230743 331.15681 
L 174.677679 331.572467 
L 174.901148 331.471576 
M 176.241957 331.601696 
L 176.465425 331.618017 
L 176.688893 331.357851 
L 176.912361 331.386041 
L 177.135829 331.712973 
L 177.359297 331.424617 
L 177.582766 331.503772 
L 178.029702 330.773795 
L 178.25317 330.764373 
L 178.476638 330.643675 
L 178.700106 330.823202 
L 179.147043 330.87617 
L 179.370511 331.048723 
L 179.593979 331.539381 
L 180.264384 331.46119 
L 180.487852 331.102878 
M 181.158256 331.478549 
L 181.381724 331.495835 
L 181.605192 331.326174 
L 182.052129 331.814087 
L 182.499065 331.56134 
L 182.722533 331.650658 
L 183.16947 332.132858 
L 183.392938 332.160529 
L 183.616406 331.991388 
L 184.063342 332.241613 
L 184.28681 331.894429 
L 184.510279 331.942426 
L 184.733747 331.646652 
L 184.957215 331.896951 
L 185.627619 331.596726 
L 186.074556 332.156301 
M 188.309237 331.142715 
L 188.532705 331.198131 
M 193.002069 329.728755 
L 193.225537 329.469109 
L 193.449005 329.546261 
L 193.672473 329.500786 
L 193.895941 329.266362 
L 194.342878 329.350413 
L 194.566346 329.488397 
L 195.907155 329.169403 
L 196.354091 329.290546 
M 197.247964 328.897887 
L 197.471432 328.912204 
M 198.588773 329.054639 
L 198.812241 328.694101 
L 199.259177 328.590243 
L 199.482645 328.724814 
L 199.706114 328.335048 
L 199.929582 328.458713 
L 200.15305 328.279706 
L 200.376518 328.363757 
L 200.599986 328.614501 
L 200.823454 328.305893 
L 201.046923 328.261901 
L 201.270391 327.724285 
L 201.493859 327.739122 
L 201.940795 328.963689 
L 202.834668 328.434974 
L 203.058136 328.559085 
L 203.281604 328.384009 
L 203.505072 327.989347 
M 203.952009 328.379558 
L 204.398945 328.358342 
L 204.622413 328.446844 
L 204.845881 329.060129 
L 205.069349 328.475998 
L 205.292818 328.52548 
L 205.516286 328.378594 
L 205.739754 328.410271 
L 205.963222 328.714873 
M 206.633627 329.40034 
L 207.304031 329.833578 
L 207.527499 329.794038 
L 207.750967 329.579422 
L 207.974436 329.547745 
L 208.421372 328.678819 
L 208.64484 328.949297 
L 209.091776 330.159991 
M 209.985649 329.555682 
L 210.209117 329.284166 
L 210.432585 329.255457 
M 211.326458 329.608057 
L 211.549926 329.299449 
L 212.667267 329.032384 
M 214.67848 329.286615 
L 214.901949 329.374672 
M 216.019289 329.631351 
L 216.466226 330.36029 
L 216.913162 330.911259 
L 217.13663 330.729729 
L 217.360098 330.846941 
L 218.030503 330.29204 
L 218.253971 331.037373 
L 218.477439 331.182775 
L 218.700907 331.102136 
L 218.924376 331.232256 
L 219.147844 330.927061 
L 219.371312 331.169941 
L 219.59478 331.04086 
L 219.818248 331.106587 
L 220.041716 331.339082 
L 220.265184 330.999762 
L 220.488653 331.268829 
L 220.712121 330.117483 
L 221.159057 330.081355 
L 221.605993 330.865784 
L 221.829462 330.738186 
L 222.05293 331.041824 
M 222.499866 330.974094 
L 222.723334 330.989376 
L 222.946802 330.639743 
L 223.170271 330.603615 
L 223.840675 330.77921 
L 224.064143 330.215926 
L 224.287611 330.118447 
L 224.51108 330.185214 
L 224.734548 329.84248 
L 224.958016 330.099679 
L 225.181484 330.06407 
L 225.404952 330.179279 
L 225.62842 330.142187 
L 226.075357 330.469118 
L 226.298825 330.343004 
L 226.522293 330.840042 
L 226.969229 330.638779 
M 230.54472 331.137745 
L 230.768188 331.293533 
M 233.226338 332.271806 
L 233.673274 332.116983 
L 233.896742 331.833152 
L 234.343679 332.993401 
L 234.567147 332.901857 
L 234.790615 333.531462 
M 238.813042 331.8925 
L 239.259978 331.420166 
M 239.706915 331.250506 
L 239.930383 331.425582 
M 241.047724 330.377129 
L 241.49466 329.786619 
L 241.718128 329.988402 
M 242.165064 330.309399 
L 242.388532 330.185214 
L 242.612001 330.191668 
L 242.835469 330.351907 
L 243.058937 330.209472 
L 243.95281 328.446325 
L 244.399746 329.205531 
L 244.846682 329.316808 
M 247.975237 329.614511 
L 248.645641 331.111558 
L 248.869109 330.943381 
L 249.092577 331.240639 
L 250.209918 331.271797 
M 250.880323 330.929583 
L 251.103791 330.678839 
L 251.327259 330.879582 
L 251.774195 330.713409 
L 251.997663 330.439445 
L 252.891536 330.744121 
L 253.338472 330.659031 
M 254.008877 330.229724 
L 254.232345 330.752504 
L 254.90275 330.806436 
L 255.126218 330.795012 
L 255.349686 330.916675 
L 255.573154 330.707474 
L 255.796622 330.711925 
M 257.360899 331.074465 
L 257.584367 330.865784 
L 257.807836 330.990414 
L 258.47824 330.851911 
L 258.701708 330.456284 
L 259.148645 330.567562 
L 259.595581 330.672904 
L 259.819049 330.383584 
L 260.042517 330.432545 
L 260.265985 330.279206 
L 260.489454 330.667933 
L 260.712922 330.580395 
L 260.93639 330.197602 
L 261.606794 330.167929 
L 261.830263 329.961176 
L 262.277199 330.33655 
L 262.500667 330.406284 
L 262.724135 330.167929 
L 262.947603 330.196638 
L 263.171072 330.388035 
M 266.299626 330.693156 
L 266.746562 331.120979 
L 266.97003 331.087819 
L 267.193498 331.643685 
L 267.416967 331.791609 
L 267.640435 331.541829 
L 267.863903 331.597245 
L 268.310839 331.95526 
L 268.534307 331.765867 
M 268.981244 331.859339 
L 269.651648 331.368237 
L 270.098585 331.423653 
L 270.768989 331.237153 
L 270.992457 331.394424 
L 271.215925 331.371724 
L 271.439394 331.647171 
L 271.662862 331.482481 
L 271.88633 331.004213 
L 272.333266 331.263414 
L 272.780202 331.849473 
L 273.003671 331.634782 
L 273.897543 331.854369 
L 274.121011 331.980483 
L 274.567948 331.505701 
L 274.791416 331.726326 
L 275.238352 331.545316 
M 276.132225 331.683299 
L 276.355693 331.794057 
L 276.579161 332.137309 
L 277.026098 332.303928 
L 277.696502 331.93204 
L 278.143438 332.406303 
L 278.366907 332.247548 
L 278.590375 332.599183 
L 279.260779 332.242652 
L 279.484247 332.422624 
L 279.707716 332.447401 
L 279.931184 332.118467 
L 280.601588 331.873657 
L 280.825056 332.197622 
M 290.657655 329.13231 
L 290.881124 329.143216 
L 291.104592 328.824667 
L 291.32806 328.839058 
L 291.998464 328.257896 
M 293.562742 328.046247 
L 293.78621 328.912724 
L 294.009678 328.862797 
M 294.456614 329.209462 
L 295.573955 329.278677 
M 298.702509 328.208934 
L 298.925977 327.851363 
L 299.596382 327.809375 
L 299.81985 326.809365 
L 300.043318 326.553131 
L 300.266786 326.983403 
L 300.713723 326.61055 
L 300.937191 326.12338 
L 301.160659 326.305355 
L 301.384127 326.892452 
L 301.607595 326.538294 
L 302.054532 326.723756 
L 302.278 326.463145 
L 302.501468 326.612034 
L 303.171872 326.054165 
L 303.618809 326.309361 
L 304.065745 325.607054 
L 304.289213 325.801937 
L 304.512681 326.19111 
L 304.73615 326.960702 
L 304.959618 326.323159 
L 305.183086 326.380578 
L 305.406554 325.684725 
L 305.630022 325.488878 
L 305.85349 325.593701 
L 306.076959 325.50913 
M 309.652449 324.122396 
L 310.099386 323.274168 
L 310.322854 323.901326 
L 310.546322 323.81772 
L 310.76979 322.979952 
M 311.887131 323.163411 
L 312.110599 322.957696 
M 313.004472 323.651546 
L 313.22794 323.212892 
L 313.451408 323.731665 
L 313.674876 323.689157 
L 313.898344 324.133746 
L 314.121812 325.39637 
M 314.568749 326.082355 
L 314.792217 325.942369 
L 315.015685 325.389916 
L 315.239153 325.27619 
L 315.462621 325.578345 
L 315.68609 325.362245 
L 315.909558 325.768257 
L 316.133026 325.33947 
L 316.356494 325.486875 
L 316.579962 325.256383 
L 316.80343 325.331606 
L 317.026899 324.633232 
L 317.250367 324.777669 
L 317.473835 324.567504 
L 317.697303 325.0319 
L 317.920771 325.001707 
L 318.144239 325.575377 
L 318.367707 325.768257 
L 318.591176 325.455717 
L 318.814644 324.407265 
L 319.038112 323.921578 
L 319.26158 324.007632 
L 319.485048 323.510595 
L 319.708516 323.594201 
L 319.931985 323.996282 
L 320.155453 323.8741 
L 320.378921 323.580848 
L 320.825857 323.624839 
L 321.049325 324.168391 
L 321.272794 324.388942 
L 321.496262 324.863724 
L 321.71973 324.691096 
L 321.943198 324.126328 
L 322.166666 324.11839 
M 322.837071 324.393912 
L 323.284007 323.971504 
L 323.507475 323.996282 
L 323.954412 324.533824 
L 324.17788 324.233154 
L 324.401348 324.58976 
L 324.624816 323.586263 
L 324.848284 323.632777 
L 325.071752 323.460669 
L 325.295221 322.896346 
L 325.518689 322.789 
M 326.189093 323.080843 
L 326.412561 323.44828 
L 326.636029 324.209415 
L 326.859498 324.511124 
L 327.082966 324.498216 
L 327.529902 324.777669 
L 327.976838 324.682194 
L 328.423775 324.01557 
L 328.870711 323.923062 
L 329.094179 324.61246 
M 331.552329 324.889466 
L 331.775797 325.458165 
L 331.999265 325.441845 
L 332.222734 325.704014 
L 332.446202 325.743035 
L 332.66967 325.176783 
L 332.893138 325.693628 
L 333.116606 326.772718 
L 333.340074 326.434955 
L 333.563543 326.598681 
L 333.787011 326.436958 
L 334.457415 326.588295 
L 334.680883 325.974491 
L 334.904351 326.305874 
L 335.574756 325.99185 
L 335.798224 326.303871 
L 336.021692 325.85535 
M 336.468629 325.967072 
L 336.915565 325.868184 
L 337.139033 326.363219 
L 337.362501 326.298455 
L 338.032906 326.553131 
L 338.256374 326.080352 
L 338.479842 326.180279 
L 338.70331 325.987844 
L 339.150247 324.706971 
L 339.597183 324.86224 
L 339.820651 324.587237 
L 340.491056 325.302897 
L 340.714524 325.170329 
L 340.937992 325.489842 
M 342.502269 326.013067 
L 342.725737 325.916182 
L 342.949205 324.93546 
L 343.172673 325.069957 
L 344.066546 324.754895 
L 344.290014 324.403779 
L 344.513482 324.531895 
L 344.736951 324.262308 
L 345.183887 324.125363 
L 345.630823 324.874629 
L 346.07776 324.286567 
L 346.301228 324.470025 
L 346.524696 324.05014 
L 346.971632 324.5724 
L 347.1951 325.097628 
L 347.418569 325.056084 
L 347.642037 324.510604 
L 347.865505 325.982948 
L 348.088973 326.220784 
L 348.535909 325.56603 
L 348.759378 325.632796 
L 348.982846 325.051411 
L 349.429782 325.016544 
L 349.65325 325.089245 
L 349.876718 324.45274 
L 350.100186 324.161936 
M 350.770591 324.606525 
L 350.994059 325.206457 
L 351.217527 324.999259 
L 351.440995 325.086797 
L 351.664464 325.341473 
M 353.005273 325.419144 
L 353.228741 325.470035 
L 353.452209 325.680274 
L 353.675677 326.065515 
L 353.899145 326.214404 
L 354.122613 325.91863 
L 354.56955 326.659957 
L 354.793018 326.529392 
L 355.239954 328.824221 
L 355.463422 328.411235 
L 355.686891 329.086316 
L 356.133827 327.382071 
L 356.357295 326.453279 
L 356.804231 327.2475 
L 357.027699 326.503724 
L 357.251168 326.690151 
L 357.474636 327.028952 
L 357.698104 326.719305 
L 357.921572 327.170867 
L 358.14504 327.344979 
L 358.591977 326.732213 
L 359.038913 327.558631 
L 359.262381 327.55418 
L 359.485849 327.691125 
L 359.709317 327.454253 
L 359.932786 327.029175 
L 360.156254 327.037854 
L 360.379722 326.740077 
L 360.60319 326.679245 
L 360.826658 327.505218 
L 361.273595 326.599126 
L 361.497063 326.638741 
L 361.720531 326.397344 
L 362.167467 326.683696 
L 362.614404 327.518571 
L 362.837872 327.404772 
L 363.06134 327.500767 
M 365.296021 327.140674 
L 365.51949 326.897348 
L 365.742958 327.174799 
L 365.966426 325.771744 
L 366.189894 325.940366 
L 366.413362 325.862769 
L 366.860299 324.620917 
L 367.083767 324.52151 
L 367.307235 323.881518 
L 367.530703 323.859263 
M 368.424576 324.386493 
L 368.648044 325.072924 
L 368.871512 325.103563 
L 369.09498 324.658974 
L 369.318448 324.535308 
L 369.541917 324.266759 
L 369.988853 325.001707 
L 370.212321 326.199048 
L 370.659257 326.296007 
L 370.882726 325.820706 
L 371.106194 325.624858 
L 371.55313 325.909728 
L 371.776598 325.802902 
L 372.000066 326.23666 
L 372.223534 325.613953 
L 372.447003 325.556609 
L 372.670471 325.735616 
L 373.340875 326.863223 
L 373.564343 326.303871 
L 373.787812 326.407284 
L 374.234748 327.222277 
L 374.458216 326.828134 
L 374.681684 326.694602 
L 374.905152 324.286047 
L 375.128621 324.353852 
L 375.352089 324.659493 
M 378.033707 325.665883 
L 378.257175 325.74207 
L 378.480643 325.607573 
L 378.704111 325.783094 
L 379.151048 326.488368 
L 379.597984 326.654023 
L 380.04492 327.688676 
L 380.268388 327.678291 
M 380.715325 327.453288 
L 380.938793 327.752995 
L 381.162261 327.204028 
L 381.385729 327.257441 
L 381.609197 326.973536 
L 381.832665 326.99134 
L 382.056134 327.479995 
L 382.279602 326.784588 
L 382.726538 326.780656 
L 383.173474 326.687183 
L 383.396943 326.262327 
L 383.620411 326.364257 
L 383.843879 328.478521 
M 384.290815 326.685699 
L 384.514283 326.993343 
L 384.737752 327.634744 
L 384.96122 328.617988 
M 388.089774 326.001197 
L 388.313242 325.207941 
L 388.53671 325.012612 
L 388.760178 325.257422 
L 389.207115 324.546213 
L 389.430583 324.440871 
L 389.654051 324.688648 
L 389.877519 324.705488 
L 390.324456 324.194058 
L 390.547924 324.238124 
L 390.771392 325.189172 
L 391.218328 324.560086 
L 391.665265 324.05014 
L 391.888733 324.091684 
L 392.112201 324.387458 
M 392.782605 324.461123 
L 393.006074 324.564017 
L 393.229542 324.368689 
L 393.45301 324.699998 
L 393.676478 324.239608 
M 394.123414 323.783595 
L 394.346883 323.617421 
L 394.570351 323.869426 
L 394.793819 323.514082 
L 395.240755 323.442345 
L 395.464223 322.938408 
L 395.687691 323.486337 
L 396.134628 324.904748 
L 396.358096 325.105566 
L 396.581564 325.975529 
L 396.805032 325.758391 
L 397.0285 326.964115 
L 397.251969 325.445851 
L 397.475437 325.938437 
L 397.698905 325.061055 
L 397.922373 325.113949 
L 398.145841 326.235621 
L 398.369309 326.718341 
L 398.816246 325.007123 
L 399.039714 324.987835 
L 399.263182 324.830563 
L 399.48665 324.512088 
L 399.710118 324.398808 
L 399.933587 325.034868 
L 400.157055 324.538795 
L 400.603991 324.39636 
L 400.827459 326.624349 
L 401.050927 326.789558 
L 401.274396 327.349875 
L 401.9448 326.915153 
L 402.168268 326.86174 
L 402.391736 326.302387 
L 402.615204 326.388961 
L 402.838673 326.132282 
L 403.062141 326.098676 
L 403.285609 325.680274 
L 403.509077 325.884505 
L 403.732545 326.364702 
L 403.956013 326.449273 
L 404.179482 326.101124 
L 404.40295 326.152089 
L 404.849886 326.549719 
L 405.073354 326.346453 
L 405.520291 326.609512 
L 405.743759 327.169903 
L 406.190695 326.796976 
L 406.414163 326.842007 
M 407.084568 326.993788 
L 407.531504 327.896394 
L 407.97844 327.893945 
L 408.425377 327.185185 
L 408.648845 327.559076 
L 408.872313 327.282144 
L 409.095781 327.232663 
L 409.319249 327.95129 
L 409.542718 328.245062 
L 409.766186 328.344988 
L 409.989654 328.041796 
L 410.213122 328.021024 
L 410.43659 328.49039 
L 410.660058 328.693656 
L 411.330463 327.793499 
L 411.553931 327.732223 
L 411.777399 327.271239 
L 412.000867 327.434445 
M 413.565144 328.297955 
L 414.012081 328.398846 
L 414.235549 328.053665 
L 414.459017 328.159007 
L 414.682485 328.058635 
L 414.905953 328.578373 
M 415.35289 328.780675 
L 415.799826 329.943891 
L 416.023294 329.630831 
L 416.470231 329.999752 
M 418.92838 330.280689 
L 419.151848 331.136261 
L 419.375317 331.416679 
L 419.598785 331.430552 
L 419.822253 332.041314 
L 420.045721 331.904815 
L 420.269189 332.145173 
M 421.833466 331.850437 
L 422.056935 331.387525 
L 422.280403 331.459261 
L 422.727339 330.83611 
L 422.950807 331.223799 
M 423.397744 330.9439 
L 423.621212 330.443896 
L 424.068148 330.374681 
M 426.526298 330.044782 
L 426.973234 330.195154 
L 427.196702 329.756945 
L 427.42017 329.772747 
L 427.867107 329.03587 
L 428.090575 329.091286 
L 428.314043 328.968585 
L 428.537511 329.033867 
L 428.760979 328.804414 
L 428.984448 328.92808 
L 429.431384 328.473031 
L 429.654852 330.256431 
L 429.87832 330.295007 
L 430.325257 329.591736 
L 430.548725 329.623932 
L 430.772193 330.00769 
L 430.995661 329.983431 
L 431.219129 330.281209 
L 431.666066 330.028981 
L 431.889534 329.787584 
L 432.33647 330.247084 
L 432.559938 329.95079 
L 432.783406 330.71148 
L 433.006874 330.908292 
L 433.677279 330.402872 
M 435.465024 330.415186 
L 435.688492 330.44486 
L 435.911961 330.659031 
L 436.135429 330.218894 
L 436.358897 330.324236 
L 436.805833 329.924084 
L 437.029301 329.352416 
L 437.699706 329.564585 
L 437.923174 329.466661 
L 438.146642 329.530905 
L 438.37011 329.37712 
L 438.593579 329.672894 
L 438.817047 329.642701 
M 439.934388 329.660505 
L 440.157856 329.471557 
L 440.381324 329.548709 
M 444.180283 325.34496 
L 444.403751 325.365731 
M 445.521092 325.872116 
L 445.74456 325.884505 
L 446.191496 324.978487 
L 446.414964 324.899332 
L 446.861901 324.266759 
L 447.085369 324.455708 
L 447.532305 324.156002 
L 447.755773 324.263792 
L 447.979241 323.792497 
L 448.20271 324.153554 
L 448.426178 324.024472 
M 457.364904 313.404638 
L 457.588372 313.274073 
M 459.152649 302.997046 
L 459.376118 297.702188 
L 459.599586 305.237423 
L 459.823054 304.532149 
L 460.046522 304.576141 
L 460.26999 303.428281 
L 460.493458 303.274941 
L 460.716927 303.625612 
L 460.940395 301.810091 
L 461.163863 302.006383 
M 464.068949 305.739876 
L 464.292417 306.781429 
L 464.515885 311.503507 
L 464.739353 309.657347 
L 464.962822 310.206313 
L 465.18629 313.850265 
L 465.409758 314.539144 
L 465.633226 319.561522 
L 465.856694 320.296914 
M 469.879121 309.379377 
L 470.102589 306.464438 
L 470.549526 304.717611 
L 470.772994 304.288304 
L 470.996462 304.660711 
L 471.21993 307.610294 
L 471.443398 305.365466 
L 471.666866 306.675122 
L 471.890335 305.709683 
L 472.113803 302.069737 
L 472.337271 303.535107 
L 472.560739 301.982644 
L 472.784207 302.904018 
M 473.231144 303.927321 
L 473.454612 303.580137 
L 473.67808 302.869448 
L 473.901548 302.995043 
L 474.125016 301.047472 
M 475.018889 301.843177 
L 475.242357 302.048965 
M 476.13623 300.642869 
L 476.359698 301.173067 
L 476.806634 301.007412 
L 477.030102 301.72055 
L 477.253571 300.276916 
L 477.477039 297.156188 
L 477.700507 297.974223 
L 477.923975 297.905009 
L 478.147443 298.82386 
L 478.370911 297.771476 
L 478.59438 294.593404 
L 478.817848 295.050827 
L 479.041316 290.877716 
L 479.264784 293.459862 
M 482.616806 281.796991 
L 482.840275 273.73957 
L 483.063743 272.835481 
L 483.287211 274.021472 
L 483.510679 272.616933 
L 483.734147 265.180141 
L 483.957615 267.533798 
L 484.404552 265.112855 
L 484.62802 267.356719 
L 484.851488 267.346779 
L 485.074956 260.316073 
L 485.298424 264.007503 
L 485.521893 262.822032 
L 485.968829 271.493257 
L 486.192297 265.429846 
M 489.320851 259.934764 
L 489.544319 250.788757 
L 489.767788 248.244222 
L 489.991256 248.667594 
L 490.214724 242.569613 
L 490.438192 240.188284 
L 490.66166 241.957812 
L 490.885128 241.505804 
L 491.332065 230.852364 
L 491.555533 232.106085 
L 491.779001 218.347348 
L 492.225937 230.94643 
L 492.449406 240.929167 
L 492.672874 238.129956 
L 492.896342 259.917998 
L 493.11981 250.998551 
L 493.343278 249.747278 
L 493.566746 249.406028 
L 494.013683 230.355401 
L 494.237151 232.333684 
L 494.460619 236.866368 
L 494.684087 232.237244 
L 494.907555 230.446871 
L 495.131023 236.668518 
M 495.801428 240.845116 
L 496.024896 237.417783 
L 496.248364 237.944494 
L 496.471832 235.486533 
L 496.695301 230.751028 
L 496.918769 238.928703 
L 497.142237 236.309983 
L 497.365705 239.203186 
L 497.589173 236.403901 
L 497.812641 236.250635 
L 498.03611 234.252545 
M 498.483046 231.124474 
L 498.706514 227.501739 
L 499.15345 232.850455 
L 499.600387 237.234769 
L 499.823855 237.061697 
L 500.047323 236.282757 
L 500.270791 237.558734 
L 500.494259 237.645308 
L 500.717728 236.557241 
L 500.941196 241.171528 
L 501.164664 239.982125 
M 504.740154 220.501227 
L 505.410559 199.633074 
L 505.634027 196.725035 
M 506.080963 196.972292 
L 506.304432 200.914021 
L 506.5279 194.840744 
L 506.751368 193.441101 
L 506.974836 182.877202 
L 507.198304 180.869319 
L 507.421772 192.09591 
L 507.645241 186.509803 
M 511.444199 154.632644 
L 511.891136 123.959724 
L 512.114604 140.980214 
L 512.338072 131.521666 
L 512.56154 130.292648 
L 512.785008 132.619599 
L 513.008476 137.278398 
L 513.231945 132.730876 
L 513.455413 131.271886 
L 513.678881 132.622048 
L 513.902349 132.214032 
L 514.125817 123.766844 
L 514.349285 123.200592 
L 514.572754 127.881646 
L 515.01969 145.347169 
M 517.701308 144.204725 
L 518.148244 148.371456 
L 518.371712 164.889938 
L 518.59518 168.762378 
L 518.818649 158.08468 
L 519.042117 172.87221 
L 519.265585 174.533947 
L 519.489053 163.918118 
L 520.606394 202.353204 
L 520.829862 175.008729 
L 521.05333 176.373727 
L 521.276798 168.574394 
L 521.500267 170.025966 
L 521.723735 166.51206 
L 521.947203 174.192697 
L 522.170671 168.02795 
L 522.394139 180.058184 
L 522.617607 179.635331 
L 522.841076 175.893975 
L 523.064544 177.832643 
L 523.288012 185.718475 
L 523.51148 183.216003 
M 523.958416 190.411918 
L 524.405353 176.405849 
L 524.628821 177.934054 
L 524.852289 170.688658 
L 525.075757 170.547707 
L 525.299225 175.654136 
L 525.522693 172.481479 
L 525.746162 174.158053 
L 525.96963 167.985887 
L 526.193098 153.064899 
L 526.416566 160.505623 
L 526.640034 158.868589 
L 526.863502 158.638617 
L 527.086971 164.857742 
L 527.310439 163.779616 
M 529.54512 175.003759 
L 529.768589 175.661554 
L 529.992057 177.491394 
L 530.215525 175.307916 
L 530.438993 186.022633 
L 530.662461 188.95048 
L 531.109398 200.204296 
L 531.332866 195.740826 
L 531.556334 198.93329 
L 531.779802 198.676092 
L 532.00327 202.239405 
L 532.226738 196.472807 
L 532.450206 197.931797 
L 532.673675 191.611262 
L 532.897143 192.043981 
L 533.344079 185.575076 
L 533.567547 186.9673 
L 533.791015 187.293713 
L 534.014484 191.937674 
M 536.249165 191.99947 
L 536.696102 187.43956 
L 536.91957 188.052845 
L 537.143038 187.340672 
L 537.589974 173.465688 
L 537.813442 175.431582 
L 538.036911 171.26485 
L 538.260379 173.233193 
L 538.483847 173.495361 
L 538.707315 173.935499 
L 538.930783 173.693138 
L 539.37772 182.162581 
L 539.824656 179.121009 
L 540.048124 172.011668 
L 540.271592 176.255032 
M 541.165465 181.774372 
L 541.388933 178.243181 
L 541.612401 179.531473 
M 542.506274 182.130459 
L 542.729742 181.586388 
L 542.95321 174.07645 
L 543.176678 171.640744 
L 543.400146 166.084311 
L 543.623615 166.066952 
L 543.847083 165.775184 
L 544.070551 164.857742 
L 544.294019 168.69806 
L 544.517487 165.072877 
L 544.964424 166.541734 
L 545.187892 162.973451 
L 545.41136 164.229694 
L 545.634828 171.89542 
M 546.752169 166.917628 
L 546.975637 166.37608 
M 547.86951 160.832036 
L 548.092978 159.642558 
L 548.539914 160.466008 
L 548.763382 160.17424 
L 548.98685 155.389328 
L 549.433787 154.909575 
L 549.657255 159.506578 
L 549.880723 157.842393 
L 550.104191 157.473917 
L 550.327659 154.669736 
L 550.551128 154.382864 
L 550.774596 153.764683 
M 555.914363 127.476078 
L 556.3613 116.625381 
L 556.584768 88.143358 
L 556.808236 89.733432 
L 557.031704 84.928713 
L 557.478641 66.10064 
L 557.702109 42.710208 
L 557.925577 51.758292 
L 558.149045 41.407006 
L 558.372513 37.438125 
L 558.595981 39.371897 
L 558.81945 53.998669 
L 559.042918 88.479711 
L 559.266386 77.487989 
L 559.489854 78.585922 
L 559.93679 90.979735 
L 560.383727 72.280224 
L 560.607195 70.457729 
L 560.830663 60.398285 
L 561.054131 55.499648 
L 561.277599 67.329657 
L 561.501068 65.60605 
L 561.724536 74.033431 
M 562.39494 70.798978 
L 562.618408 73.370739 
L 562.841877 90.589004 
L 563.065345 92.062832 
L 563.288813 81.493962 
L 563.512281 77.238209 
L 563.735749 93.351123 
L 563.959217 90.079578 
M 564.406154 104.550562 
L 564.629622 100.228043 
L 564.85309 112.36221 
L 565.076558 110.96509 
L 565.300026 119.033861 
L 565.523494 109.491262 
L 565.970431 77.722932 
L 566.193899 71.061147 
L 566.417367 72.413756 
L 566.640835 72.97756 
L 567.087772 80.250107 
M 568.428581 79.918798 
L 568.652049 78.365816 
M 569.098985 86.486591 
L 569.322453 82.023121 
L 569.545921 86.746238 
L 569.76939 95.366498 
L 569.992858 95.213158 
L 570.216326 108.163357 
L 570.663262 114.469055 
L 570.88673 109.768194 
L 571.110198 136.551388 
L 571.333667 132.285768 
L 571.557135 109.938819 
L 571.780603 111.291502 
L 572.227539 121.209995 
L 572.451007 113.252426 
L 572.674476 117.204022 
L 573.121412 111.10604 
L 573.34488 117.893939 
L 573.568348 128.910365 
L 573.791816 125.013147 
L 574.015285 113.472532 
L 574.238753 113.235141 
L 574.462221 124.8673 
L 574.685689 129.657108 
L 574.909157 138.42329 
L 575.132625 152.639524 
L 575.356094 143.55687 
L 575.579562 141.306626 
L 575.80303 126.331186 
L 576.026498 127.829717 
L 576.249966 123.99192 
L 576.473434 134.031557 
M 578.931584 117.686222 
L 579.155052 113.786556 
L 579.37852 95.779484 
L 579.601989 94.510926 
L 579.601989 94.510926 
" clip-path="url(#p3171b68557)" style="fill: none; stroke: #1e90ff; stroke-linecap: square"/>
   </g>
   <g id="patch_3">
    <path d="M 46.965625 354.958125 
L 46.965625 22.318125 
" style="fill: none; stroke: #000000; stroke-width: 0.8; stroke-linejoin: miter; stroke-linecap: square"/>
   </g>
   <g id="patch_4">
    <path d="M 604.965625 354.958125 
L 604.965625 22.318125 
" style="fill: none; stroke: #000000; stroke-width: 0.8; stroke-linejoin: miter; stroke-linecap: square"/>
   </g>
   <g id="patch_5">
    <path d="M 46.965625 354.958125 
L 604.965625 354.958125 
" style="fill: none; stroke: #000000; stroke-width: 0.8; stroke-linejoin: miter; stroke-linecap: square"/>
   </g>
   <g id="patch_6">
    <path d="M 46.965625 22.318125 
L 604.965625 22.318125 
" style="fill: none; stroke: #000000; stroke-width: 0.8; stroke-linejoin: miter; stroke-linecap: square"/>
   </g>
   <g id="text_17">
    <!-- TSLA, Relative Strength Index (RSI), TSLA -->
    <g transform="translate(201.4075 16.318125)scale(0.12 -0.12)">
     <defs>
      <path id="DejaVuSans-54" d="M -19 4666 
L 3928 4666 
L 3928 4134 
L 2272 4134 
L 2272 0 
L 1638 0 
L 1638 4134 
L -19 4134 
L -19 4666 
z
" transform="scale(0.015625)"/>
      <path id="DejaVuSans-4c" d="M 628 4666 
L 1259 4666 
L 1259 531 
L 3531 531 
L 3531 0 
L 628 0 
L 628 4666 
z
" transform="scale(0.015625)"/>
      <path id="DejaVuSans-41" d="M 2188 4044 
L 1331 1722 
L 3047 1722 
L 2188 4044 
z
M 1831 4666 
L 2547 4666 
L 4325 0 
L 3669 0 
L 3244 1197 
L 1141 1197 
L 716 0 
L 50 0 
L 1831 4666 
z
" transform="scale(0.015625)"/>
      <path id="DejaVuSans-2c" d="M 750 794 
L 1409 794 
L 1409 256 
L 897 -744 
L 494 -744 
L 750 256 
L 750 794 
z
" transform="scale(0.015625)"/>
      <path id="DejaVuSans-52" d="M 2841 2188 
Q 3044 2119 3236 1894 
Q 3428 1669 3622 1275 
L 4263 0 
L 3584 0 
L 2988 1197 
Q 2756 1666 2539 1819 
Q 2322 1972 1947 1972 
L 1259 1972 
L 1259 0 
L 628 0 
L 628 4666 
L 2053 4666 
Q 2853 4666 3247 4331 
Q 3641 3997 3641 3322 
Q 3641 2881 3436 2590 
Q 3231 2300 2841 2188 
z
M 1259 4147 
L 1259 2491 
L 2053 2491 
Q 2509 2491 2742 2702 
Q 2975 2913 2975 3322 
Q 2975 3731 2742 3939 
Q 2509 4147 2053 4147 
L 1259 4147 
z
" transform="scale(0.015625)"/>
      <path id="DejaVuSans-6c" d="M 603 4863 
L 1178 4863 
L 1178 0 
L 603 0 
L 603 4863 
z
" transform="scale(0.015625)"/>
      <path id="DejaVuSans-76" d="M 191 3500 
L 800 3500 
L 1894 563 
L 2988 3500 
L 3597 3500 
L 2284 0 
L 1503 0 
L 191 3500 
z
" transform="scale(0.015625)"/>
      <path id="DejaVuSans-6e" d="M 3513 2113 
L 3513 0 
L 2938 0 
L 2938 2094 
Q 2938 2591 2744 2837 
Q 2550 3084 2163 3084 
Q 1697 3084 1428 2787 
Q 1159 2491 1159 1978 
L 1159 0 
L 581 0 
L 581 3500 
L 1159 3500 
L 1159 2956 
Q 1366 3272 1645 3428 
Q 1925 3584 2291 3584 
Q 2894 3584 3203 3211 
Q 3513 2838 3513 2113 
z
" transform="scale(0.015625)"/>
      <path id="DejaVuSans-67" d="M 2906 1791 
Q 2906 2416 2648 2759 
Q 2391 3103 1925 3103 
Q 1463 3103 1205 2759 
Q 947 2416 947 1791 
Q 947 1169 1205 825 
Q 1463 481 1925 481 
Q 2391 481 2648 825 
Q 2906 1169 2906 1791 
z
M 3481 434 
Q 3481 -459 3084 -895 
Q 2688 -1331 1869 -1331 
Q 1566 -1331 1297 -1286 
Q 1028 -1241 775 -1147 
L 775 -588 
Q 1028 -725 1275 -790 
Q 1522 -856 1778 -856 
Q 2344 -856 2625 -561 
Q 2906 -266 2906 331 
L 2906 616 
Q 2728 306 2450 153 
Q 2172 0 1784 0 
Q 1141 0 747 490 
Q 353 981 353 1791 
Q 353 2603 747 3093 
Q 1141 3584 1784 3584 
Q 2172 3584 2450 3431 
Q 2728 3278 2906 2969 
L 2906 3500 
L 3481 3500 
L 3481 434 
z
" transform="scale(0.015625)"/>
      <path id="DejaVuSans-68" d="M 3513 2113 
L 3513 0 
L 2938 0 
L 2938 2094 
Q 2938 2591 2744 2837 
Q 2550 3084 2163 3084 
Q 1697 3084 1428 2787 
Q 1159 2491 1159 1978 
L 1159 0 
L 581 0 
L 581 4863 
L 1159 4863 
L 1159 2956 
Q 1366 3272 1645 3428 
Q 1925 3584 2291 3584 
Q 2894 3584 3203 3211 
Q 3513 2838 3513 2113 
z
" transform="scale(0.015625)"/>
      <path id="DejaVuSans-49" d="M 628 4666 
L 1259 4666 
L 1259 0 
L 628 0 
L 628 4666 
z
" transform="scale(0.015625)"/>
      <path id="DejaVuSans-64" d="M 2906 2969 
L 2906 4863 
L 3481 4863 
L 3481 0 
L 2906 0 
L 2906 525 
Q 2725 213 2448 61 
Q 2172 -91 1784 -91 
Q 1150 -91 751 415 
Q 353 922 353 1747 
Q 353 2572 751 3078 
Q 1150 3584 1784 3584 
Q 2172 3584 2448 3432 
Q 2725 3281 2906 2969 
z
M 947 1747 
Q 947 1113 1208 752 
Q 1469 391 1925 391 
Q 2381 391 2643 752 
Q 2906 1113 2906 1747 
Q 2906 2381 2643 2742 
Q 2381 3103 1925 3103 
Q 1469 3103 1208 2742 
Q 947 2381 947 1747 
z
" transform="scale(0.015625)"/>
      <path id="DejaVuSans-78" d="M 3513 3500 
L 2247 1797 
L 3578 0 
L 2900 0 
L 1881 1375 
L 863 0 
L 184 0 
L 1544 1831 
L 300 3500 
L 978 3500 
L 1906 2253 
L 2834 3500 
L 3513 3500 
z
" transform="scale(0.015625)"/>
     </defs>
     <use xlink:href="#DejaVuSans-54"/>
     <use xlink:href="#DejaVuSans-53" x="61.083984"/>
     <use xlink:href="#DejaVuSans-4c" x="124.560547"/>
     <use xlink:href="#DejaVuSans-41" x="182.523438"/>
     <use xlink:href="#DejaVuSans-2c" x="250.931641"/>
     <use xlink:href="#DejaVuSans-20" x="282.71875"/>
     <use xlink:href="#DejaVuSans-52" x="314.505859"/>
     <use xlink:href="#DejaVuSans-65" x="379.488281"/>
     <use xlink:href="#DejaVuSans-6c" x="441.011719"/>
     <use xlink:href="#DejaVuSans-61" x="468.794922"/>
     <use xlink:href="#DejaVuSans-74" x="530.074219"/>
     <use xlink:href="#DejaVuSans-69" x="569.283203"/>
     <use xlink:href="#DejaVuSans-76" x="597.066406"/>
     <use xlink:href="#DejaVuSans-65" x="656.246094"/>
     <use xlink:href="#DejaVuSans-20" x="717.769531"/>
     <use xlink:href="#DejaVuSans-53" x="749.556641"/>
     <use xlink:href="#DejaVuSans-74" x="813.033203"/>
     <use xlink:href="#DejaVuSans-72" x="852.242188"/>
     <use xlink:href="#DejaVuSans-65" x="891.105469"/>
     <use xlink:href="#DejaVuSans-6e" x="952.628906"/>
     <use xlink:href="#DejaVuSans-67" x="1016.007812"/>
     <use xlink:href="#DejaVuSans-74" x="1079.484375"/>
     <use xlink:href="#DejaVuSans-68" x="1118.693359"/>
     <use xlink:href="#DejaVuSans-20" x="1182.072266"/>
     <use xlink:href="#DejaVuSans-49" x="1213.859375"/>
     <use xlink:href="#DejaVuSans-6e" x="1243.351562"/>
     <use xlink:href="#DejaVuSans-64" x="1306.730469"/>
     <use xlink:href="#DejaVuSans-65" x="1370.207031"/>
     <use xlink:href="#DejaVuSans-78" x="1429.980469"/>
     <use xlink:href="#DejaVuSans-20" x="1489.160156"/>
     <use xlink:href="#DejaVuSans-28" x="1520.947266"/>
     <use xlink:href="#DejaVuSans-52" x="1559.960938"/>
     <use xlink:href="#DejaVuSans-53" x="1629.443359"/>
     <use xlink:href="#DejaVuSans-49" x="1692.919922"/>
     <use xlink:href="#DejaVuSans-29" x="1722.412109"/>
     <use xlink:href="#DejaVuSans-2c" x="1761.425781"/>
     <use xlink:href="#DejaVuSans-20" x="1793.212891"/>
     <use xlink:href="#DejaVuSans-54" x="1825"/>
     <use xlink:href="#DejaVuSans-53" x="1886.083984"/>
     <use xlink:href="#DejaVuSans-4c" x="1949.560547"/>
     <use xlink:href="#DejaVuSans-41" x="2007.523438"/>
    </g>
   </g>
   <g id="legend_1">
    <g id="patch_7">
     <path d="M 53.965625 74.3525 
L 203.875 74.3525 
Q 205.875 74.3525 205.875 72.3525 
L 205.875 29.318125 
Q 205.875 27.318125 203.875 27.318125 
L 53.965625 27.318125 
Q 51.965625 27.318125 51.965625 29.318125 
L 51.965625 72.3525 
Q 51.965625 74.3525 53.965625 74.3525 
z
" style="fill: #ffffff; opacity: 0.8; stroke: #cccccc; stroke-linejoin: miter"/>
    </g>
    <g id="line2d_27">
     <path d="M 55.965625 35.416562 
L 65.965625 35.416562 
L 75.965625 35.416562 
" style="fill: none; stroke: #00ff7f; stroke-linecap: square"/>
    </g>
    <g id="text_18">
     <!-- Oversold, RSI &lt;= 30 -->
     <g transform="translate(83.965625 38.916562)scale(0.1 -0.1)">
      <defs>
       <path id="DejaVuSans-4f" d="M 2522 4238 
Q 1834 4238 1429 3725 
Q 1025 3213 1025 2328 
Q 1025 1447 1429 934 
Q 1834 422 2522 422 
Q 3209 422 3611 934 
Q 4013 1447 4013 2328 
Q 4013 3213 3611 3725 
Q 3209 4238 2522 4238 
z
M 2522 4750 
Q 3503 4750 4090 4092 
Q 4678 3434 4678 2328 
Q 4678 1225 4090 567 
Q 3503 -91 2522 -91 
Q 1538 -91 948 565 
Q 359 1222 359 2328 
Q 359 3434 948 4092 
Q 1538 4750 2522 4750 
z
" transform="scale(0.015625)"/>
       <path id="DejaVuSans-73" d="M 2834 3397 
L 2834 2853 
Q 2591 2978 2328 3040 
Q 2066 3103 1784 3103 
Q 1356 3103 1142 2972 
Q 928 2841 928 2578 
Q 928 2378 1081 2264 
Q 1234 2150 1697 2047 
L 1894 2003 
Q 2506 1872 2764 1633 
Q 3022 1394 3022 966 
Q 3022 478 2636 193 
Q 2250 -91 1575 -91 
Q 1294 -91 989 -36 
Q 684 19 347 128 
L 347 722 
Q 666 556 975 473 
Q 1284 391 1588 391 
Q 1994 391 2212 530 
Q 2431 669 2431 922 
Q 2431 1156 2273 1281 
Q 2116 1406 1581 1522 
L 1381 1569 
Q 847 1681 609 1914 
Q 372 2147 372 2553 
Q 372 3047 722 3315 
Q 1072 3584 1716 3584 
Q 2034 3584 2315 3537 
Q 2597 3491 2834 3397 
z
" transform="scale(0.015625)"/>
       <path id="DejaVuSans-6f" d="M 1959 3097 
Q 1497 3097 1228 2736 
Q 959 2375 959 1747 
Q 959 1119 1226 758 
Q 1494 397 1959 397 
Q 2419 397 2687 759 
Q 2956 1122 2956 1747 
Q 2956 2369 2687 2733 
Q 2419 3097 1959 3097 
z
M 1959 3584 
Q 2709 3584 3137 3096 
Q 3566 2609 3566 1747 
Q 3566 888 3137 398 
Q 2709 -91 1959 -91 
Q 1206 -91 779 398 
Q 353 888 353 1747 
Q 353 2609 779 3096 
Q 1206 3584 1959 3584 
z
" transform="scale(0.015625)"/>
       <path id="DejaVuSans-3c" d="M 4684 3150 
L 1459 2003 
L 4684 863 
L 4684 294 
L 678 1747 
L 678 2266 
L 4684 3719 
L 4684 3150 
z
" transform="scale(0.015625)"/>
       <path id="DejaVuSans-3d" d="M 678 2906 
L 4684 2906 
L 4684 2381 
L 678 2381 
L 678 2906 
z
M 678 1631 
L 4684 1631 
L 4684 1100 
L 678 1100 
L 678 1631 
z
" transform="scale(0.015625)"/>
      </defs>
      <use xlink:href="#DejaVuSans-4f"/>
      <use xlink:href="#DejaVuSans-76" x="78.710938"/>
      <use xlink:href="#DejaVuSans-65" x="137.890625"/>
      <use xlink:href="#DejaVuSans-72" x="199.414062"/>
      <use xlink:href="#DejaVuSans-73" x="240.527344"/>
      <use xlink:href="#DejaVuSans-6f" x="292.626953"/>
      <use xlink:href="#DejaVuSans-6c" x="353.808594"/>
      <use xlink:href="#DejaVuSans-64" x="381.591797"/>
      <use xlink:href="#DejaVuSans-2c" x="445.068359"/>
      <use xlink:href="#DejaVuSans-20" x="476.855469"/>
      <use xlink:href="#DejaVuSans-52" x="508.642578"/>
      <use xlink:href="#DejaVuSans-53" x="578.125"/>
      <use xlink:href="#DejaVuSans-49" x="641.601562"/>
      <use xlink:href="#DejaVuSans-20" x="671.09375"/>
      <use xlink:href="#DejaVuSans-3c" x="702.880859"/>
      <use xlink:href="#DejaVuSans-3d" x="786.669922"/>
      <use xlink:href="#DejaVuSans-20" x="870.458984"/>
      <use xlink:href="#DejaVuSans-33" x="902.246094"/>
      <use xlink:href="#DejaVuSans-30" x="965.869141"/>
     </g>
    </g>
    <g id="line2d_28">
     <path d="M 55.965625 50.094687 
L 65.965625 50.094687 
L 75.965625 50.094687 
" style="fill: none; stroke: #ff4500; stroke-linecap: square"/>
    </g>
    <g id="text_19">
     <!-- Overbought, RSI &gt;= 70 -->
     <g transform="translate(83.965625 53.594687)scale(0.1 -0.1)">
      <defs>
       <path id="DejaVuSans-62" d="M 3116 1747 
Q 3116 2381 2855 2742 
Q 2594 3103 2138 3103 
Q 1681 3103 1420 2742 
Q 1159 2381 1159 1747 
Q 1159 1113 1420 752 
Q 1681 391 2138 391 
Q 2594 391 2855 752 
Q 3116 1113 3116 1747 
z
M 1159 2969 
Q 1341 3281 1617 3432 
Q 1894 3584 2278 3584 
Q 2916 3584 3314 3078 
Q 3713 2572 3713 1747 
Q 3713 922 3314 415 
Q 2916 -91 2278 -91 
Q 1894 -91 1617 61 
Q 1341 213 1159 525 
L 1159 0 
L 581 0 
L 581 4863 
L 1159 4863 
L 1159 2969 
z
" transform="scale(0.015625)"/>
       <path id="DejaVuSans-75" d="M 544 1381 
L 544 3500 
L 1119 3500 
L 1119 1403 
Q 1119 906 1312 657 
Q 1506 409 1894 409 
Q 2359 409 2629 706 
Q 2900 1003 2900 1516 
L 2900 3500 
L 3475 3500 
L 3475 0 
L 2900 0 
L 2900 538 
Q 2691 219 2414 64 
Q 2138 -91 1772 -91 
Q 1169 -91 856 284 
Q 544 659 544 1381 
z
M 1991 3584 
L 1991 3584 
z
" transform="scale(0.015625)"/>
       <path id="DejaVuSans-3e" d="M 678 3150 
L 678 3719 
L 4684 2266 
L 4684 1747 
L 678 294 
L 678 863 
L 3897 2003 
L 678 3150 
z
" transform="scale(0.015625)"/>
       <path id="DejaVuSans-37" d="M 525 4666 
L 3525 4666 
L 3525 4397 
L 1831 0 
L 1172 0 
L 2766 4134 
L 525 4134 
L 525 4666 
z
" transform="scale(0.015625)"/>
      </defs>
      <use xlink:href="#DejaVuSans-4f"/>
      <use xlink:href="#DejaVuSans-76" x="78.710938"/>
      <use xlink:href="#DejaVuSans-65" x="137.890625"/>
      <use xlink:href="#DejaVuSans-72" x="199.414062"/>
      <use xlink:href="#DejaVuSans-62" x="240.527344"/>
      <use xlink:href="#DejaVuSans-6f" x="304.003906"/>
      <use xlink:href="#DejaVuSans-75" x="365.185547"/>
      <use xlink:href="#DejaVuSans-67" x="428.564453"/>
      <use xlink:href="#DejaVuSans-68" x="492.041016"/>
      <use xlink:href="#DejaVuSans-74" x="555.419922"/>
      <use xlink:href="#DejaVuSans-2c" x="594.628906"/>
      <use xlink:href="#DejaVuSans-20" x="626.416016"/>
      <use xlink:href="#DejaVuSans-52" x="658.203125"/>
      <use xlink:href="#DejaVuSans-53" x="727.685547"/>
      <use xlink:href="#DejaVuSans-49" x="791.162109"/>
      <use xlink:href="#DejaVuSans-20" x="820.654297"/>
      <use xlink:href="#DejaVuSans-3e" x="852.441406"/>
      <use xlink:href="#DejaVuSans-3d" x="936.230469"/>
      <use xlink:href="#DejaVuSans-20" x="1020.019531"/>
      <use xlink:href="#DejaVuSans-37" x="1051.806641"/>
      <use xlink:href="#DejaVuSans-30" x="1115.429688"/>
     </g>
    </g>
    <g id="line2d_29">
     <path d="M 55.965625 64.772812 
L 65.965625 64.772812 
L 75.965625 64.772812 
" style="fill: none; stroke: #1e90ff; stroke-linecap: square"/>
    </g>
    <g id="text_20">
     <!-- Neutral -->
     <g transform="translate(83.965625 68.272812)scale(0.1 -0.1)">
      <defs>
       <path id="DejaVuSans-4e" d="M 628 4666 
L 1478 4666 
L 3547 763 
L 3547 4666 
L 4159 4666 
L 4159 0 
L 3309 0 
L 1241 3903 
L 1241 0 
L 628 0 
L 628 4666 
z
" transform="scale(0.015625)"/>
      </defs>
      <use xlink:href="#DejaVuSans-4e"/>
      <use xlink:href="#DejaVuSans-65" x="74.804688"/>
      <use xlink:href="#DejaVuSans-75" x="136.328125"/>
      <use xlink:href="#DejaVuSans-74" x="199.707031"/>
      <use xlink:href="#DejaVuSans-72" x="238.916016"/>
      <use xlink:href="#DejaVuSans-61" x="280.029297"/>
      <use xlink:href="#DejaVuSans-6c" x="341.308594"/>
     </g>
    </g>
   </g>
  </g>
 </g>
 <defs>
  <clipPath id="p3171b68557">
   <rect x="46.965625" y="22.318125" width="558" height="332.64"/>
  </clipPath>
 </defs>
</svg>
