<?xml version="1.0" encoding="utf-8" standalone="no"?>
<!DOCTYPE svg PUBLIC "-//W3C//DTD SVG 1.1//EN"
  "http://www.w3.org/Graphics/SVG/1.1/DTD/svg11.dtd">
<svg xmlns:xlink="http://www.w3.org/1999/xlink" width="612.165625pt" height="378.83625pt" viewBox="0 0 612.165625 378.83625" xmlns="http://www.w3.org/2000/svg" version="1.1">
 <metadata>
  <rdf:RDF xmlns:dc="http://purl.org/dc/elements/1.1/" xmlns:cc="http://creativecommons.org/ns#" xmlns:rdf="http://www.w3.org/1999/02/22-rdf-syntax-ns#">
   <cc:Work>
    <dc:type rdf:resource="http://purl.org/dc/dcmitype/StillImage"/>
    <dc:date>2023-03-19T14:15:26.373127</dc:date>
    <dc:format>image/svg+xml</dc:format>
    <dc:creator>
     <cc:Agent>
      <dc:title>Matplotlib v3.5.1, https://matplotlib.org/</dc:title>
     </cc:Agent>
    </dc:creator>
   </cc:Work>
  </rdf:RDF>
 </metadata>
 <defs>
  <style type="text/css">*{stroke-linejoin: round; stroke-linecap: butt}</style>
 </defs>
 <g id="figure_1">
  <g id="patch_1">
   <path d="M 0 378.83625 
L 612.165625 378.83625 
L 612.165625 0 
L 0 0 
z
" style="fill: #ffffff"/>
  </g>
  <g id="axes_1">
   <g id="patch_2">
    <path d="M 46.965625 354.958125 
L 604.965625 354.958125 
L 604.965625 22.318125 
L 46.965625 22.318125 
z
" style="fill: #ffffff"/>
   </g>
   <g id="matplotlib.axis_1">
    <g id="xtick_1">
     <g id="line2d_1">
      <defs>
       <path id="m5ad8feb17e" d="M 0 0 
L 0 3.5 
" style="stroke: #000000; stroke-width: 0.8"/>
      </defs>
      <g>
       <use xlink:href="#m5ad8feb17e" x="61.627892" y="354.958125" style="stroke: #000000; stroke-width: 0.8"/>
      </g>
     </g>
     <g id="text_1">
      <!-- 2013 -->
      <g transform="translate(48.902892 369.556562)scale(0.1 -0.1)">
       <defs>
        <path id="DejaVuSans-32" d="M 1228 531 
L 3431 531 
L 3431 0 
L 469 0 
L 469 531 
Q 828 903 1448 1529 
Q 2069 2156 2228 2338 
Q 2531 2678 2651 2914 
Q 2772 3150 2772 3378 
Q 2772 3750 2511 3984 
Q 2250 4219 1831 4219 
Q 1534 4219 1204 4116 
Q 875 4013 500 3803 
L 500 4441 
Q 881 4594 1212 4672 
Q 1544 4750 1819 4750 
Q 2544 4750 2975 4387 
Q 3406 4025 3406 3419 
Q 3406 3131 3298 2873 
Q 3191 2616 2906 2266 
Q 2828 2175 2409 1742 
Q 1991 1309 1228 531 
z
" transform="scale(0.015625)"/>
        <path id="DejaVuSans-30" d="M 2034 4250 
Q 1547 4250 1301 3770 
Q 1056 3291 1056 2328 
Q 1056 1369 1301 889 
Q 1547 409 2034 409 
Q 2525 409 2770 889 
Q 3016 1369 3016 2328 
Q 3016 3291 2770 3770 
Q 2525 4250 2034 4250 
z
M 2034 4750 
Q 2819 4750 3233 4129 
Q 3647 3509 3647 2328 
Q 3647 1150 3233 529 
Q 2819 -91 2034 -91 
Q 1250 -91 836 529 
Q 422 1150 422 2328 
Q 422 3509 836 4129 
Q 1250 4750 2034 4750 
z
" transform="scale(0.015625)"/>
        <path id="DejaVuSans-31" d="M 794 531 
L 1825 531 
L 1825 4091 
L 703 3866 
L 703 4441 
L 1819 4666 
L 2450 4666 
L 2450 531 
L 3481 531 
L 3481 0 
L 794 0 
L 794 531 
z
" transform="scale(0.015625)"/>
        <path id="DejaVuSans-33" d="M 2597 2516 
Q 3050 2419 3304 2112 
Q 3559 1806 3559 1356 
Q 3559 666 3084 287 
Q 2609 -91 1734 -91 
Q 1441 -91 1130 -33 
Q 819 25 488 141 
L 488 750 
Q 750 597 1062 519 
Q 1375 441 1716 441 
Q 2309 441 2620 675 
Q 2931 909 2931 1356 
Q 2931 1769 2642 2001 
Q 2353 2234 1838 2234 
L 1294 2234 
L 1294 2753 
L 1863 2753 
Q 2328 2753 2575 2939 
Q 2822 3125 2822 3475 
Q 2822 3834 2567 4026 
Q 2313 4219 1838 4219 
Q 1578 4219 1281 4162 
Q 984 4106 628 3988 
L 628 4550 
Q 988 4650 1302 4700 
Q 1616 4750 1894 4750 
Q 2613 4750 3031 4423 
Q 3450 4097 3450 3541 
Q 3450 3153 3228 2886 
Q 3006 2619 2597 2516 
z
" transform="scale(0.015625)"/>
       </defs>
       <use xlink:href="#DejaVuSans-32"/>
       <use xlink:href="#DejaVuSans-30" x="63.623047"/>
       <use xlink:href="#DejaVuSans-31" x="127.246094"/>
       <use xlink:href="#DejaVuSans-33" x="190.869141"/>
      </g>
     </g>
    </g>
    <g id="xtick_2">
     <g id="line2d_2">
      <g>
       <use xlink:href="#m5ad8feb17e" x="112.355164" y="354.958125" style="stroke: #000000; stroke-width: 0.8"/>
      </g>
     </g>
     <g id="text_2">
      <!-- 2014 -->
      <g transform="translate(99.630164 369.556562)scale(0.1 -0.1)">
       <defs>
        <path id="DejaVuSans-34" d="M 2419 4116 
L 825 1625 
L 2419 1625 
L 2419 4116 
z
M 2253 4666 
L 3047 4666 
L 3047 1625 
L 3713 1625 
L 3713 1100 
L 3047 1100 
L 3047 0 
L 2419 0 
L 2419 1100 
L 313 1100 
L 313 1709 
L 2253 4666 
z
" transform="scale(0.015625)"/>
       </defs>
       <use xlink:href="#DejaVuSans-32"/>
       <use xlink:href="#DejaVuSans-30" x="63.623047"/>
       <use xlink:href="#DejaVuSans-31" x="127.246094"/>
       <use xlink:href="#DejaVuSans-34" x="190.869141"/>
      </g>
     </g>
    </g>
    <g id="xtick_3">
     <g id="line2d_3">
      <g>
       <use xlink:href="#m5ad8feb17e" x="163.082437" y="354.958125" style="stroke: #000000; stroke-width: 0.8"/>
      </g>
     </g>
     <g id="text_3">
      <!-- 2015 -->
      <g transform="translate(150.357437 369.556562)scale(0.1 -0.1)">
       <defs>
        <path id="DejaVuSans-35" d="M 691 4666 
L 3169 4666 
L 3169 4134 
L 1269 4134 
L 1269 2991 
Q 1406 3038 1543 3061 
Q 1681 3084 1819 3084 
Q 2600 3084 3056 2656 
Q 3513 2228 3513 1497 
Q 3513 744 3044 326 
Q 2575 -91 1722 -91 
Q 1428 -91 1123 -41 
Q 819 9 494 109 
L 494 744 
Q 775 591 1075 516 
Q 1375 441 1709 441 
Q 2250 441 2565 725 
Q 2881 1009 2881 1497 
Q 2881 1984 2565 2268 
Q 2250 2553 1709 2553 
Q 1456 2553 1204 2497 
Q 953 2441 691 2322 
L 691 4666 
z
" transform="scale(0.015625)"/>
       </defs>
       <use xlink:href="#DejaVuSans-32"/>
       <use xlink:href="#DejaVuSans-30" x="63.623047"/>
       <use xlink:href="#DejaVuSans-31" x="127.246094"/>
       <use xlink:href="#DejaVuSans-35" x="190.869141"/>
      </g>
     </g>
    </g>
    <g id="xtick_4">
     <g id="line2d_4">
      <g>
       <use xlink:href="#m5ad8feb17e" x="213.80971" y="354.958125" style="stroke: #000000; stroke-width: 0.8"/>
      </g>
     </g>
     <g id="text_4">
      <!-- 2016 -->
      <g transform="translate(201.08471 369.556562)scale(0.1 -0.1)">
       <defs>
        <path id="DejaVuSans-36" d="M 2113 2584 
Q 1688 2584 1439 2293 
Q 1191 2003 1191 1497 
Q 1191 994 1439 701 
Q 1688 409 2113 409 
Q 2538 409 2786 701 
Q 3034 994 3034 1497 
Q 3034 2003 2786 2293 
Q 2538 2584 2113 2584 
z
M 3366 4563 
L 3366 3988 
Q 3128 4100 2886 4159 
Q 2644 4219 2406 4219 
Q 1781 4219 1451 3797 
Q 1122 3375 1075 2522 
Q 1259 2794 1537 2939 
Q 1816 3084 2150 3084 
Q 2853 3084 3261 2657 
Q 3669 2231 3669 1497 
Q 3669 778 3244 343 
Q 2819 -91 2113 -91 
Q 1303 -91 875 529 
Q 447 1150 447 2328 
Q 447 3434 972 4092 
Q 1497 4750 2381 4750 
Q 2619 4750 2861 4703 
Q 3103 4656 3366 4563 
z
" transform="scale(0.015625)"/>
       </defs>
       <use xlink:href="#DejaVuSans-32"/>
       <use xlink:href="#DejaVuSans-30" x="63.623047"/>
       <use xlink:href="#DejaVuSans-31" x="127.246094"/>
       <use xlink:href="#DejaVuSans-36" x="190.869141"/>
      </g>
     </g>
    </g>
    <g id="xtick_5">
     <g id="line2d_5">
      <g>
       <use xlink:href="#m5ad8feb17e" x="264.675961" y="354.958125" style="stroke: #000000; stroke-width: 0.8"/>
      </g>
     </g>
     <g id="text_5">
      <!-- 2017 -->
      <g transform="translate(251.950961 369.556562)scale(0.1 -0.1)">
       <defs>
        <path id="DejaVuSans-37" d="M 525 4666 
L 3525 4666 
L 3525 4397 
L 1831 0 
L 1172 0 
L 2766 4134 
L 525 4134 
L 525 4666 
z
" transform="scale(0.015625)"/>
       </defs>
       <use xlink:href="#DejaVuSans-32"/>
       <use xlink:href="#DejaVuSans-30" x="63.623047"/>
       <use xlink:href="#DejaVuSans-31" x="127.246094"/>
       <use xlink:href="#DejaVuSans-37" x="190.869141"/>
      </g>
     </g>
    </g>
    <g id="xtick_6">
     <g id="line2d_6">
      <g>
       <use xlink:href="#m5ad8feb17e" x="315.403234" y="354.958125" style="stroke: #000000; stroke-width: 0.8"/>
      </g>
     </g>
     <g id="text_6">
      <!-- 2018 -->
      <g transform="translate(302.678234 369.556562)scale(0.1 -0.1)">
       <defs>
        <path id="DejaVuSans-38" d="M 2034 2216 
Q 1584 2216 1326 1975 
Q 1069 1734 1069 1313 
Q 1069 891 1326 650 
Q 1584 409 2034 409 
Q 2484 409 2743 651 
Q 3003 894 3003 1313 
Q 3003 1734 2745 1975 
Q 2488 2216 2034 2216 
z
M 1403 2484 
Q 997 2584 770 2862 
Q 544 3141 544 3541 
Q 544 4100 942 4425 
Q 1341 4750 2034 4750 
Q 2731 4750 3128 4425 
Q 3525 4100 3525 3541 
Q 3525 3141 3298 2862 
Q 3072 2584 2669 2484 
Q 3125 2378 3379 2068 
Q 3634 1759 3634 1313 
Q 3634 634 3220 271 
Q 2806 -91 2034 -91 
Q 1263 -91 848 271 
Q 434 634 434 1313 
Q 434 1759 690 2068 
Q 947 2378 1403 2484 
z
M 1172 3481 
Q 1172 3119 1398 2916 
Q 1625 2713 2034 2713 
Q 2441 2713 2670 2916 
Q 2900 3119 2900 3481 
Q 2900 3844 2670 4047 
Q 2441 4250 2034 4250 
Q 1625 4250 1398 4047 
Q 1172 3844 1172 3481 
z
" transform="scale(0.015625)"/>
       </defs>
       <use xlink:href="#DejaVuSans-32"/>
       <use xlink:href="#DejaVuSans-30" x="63.623047"/>
       <use xlink:href="#DejaVuSans-31" x="127.246094"/>
       <use xlink:href="#DejaVuSans-38" x="190.869141"/>
      </g>
     </g>
    </g>
    <g id="xtick_7">
     <g id="line2d_7">
      <g>
       <use xlink:href="#m5ad8feb17e" x="366.130507" y="354.958125" style="stroke: #000000; stroke-width: 0.8"/>
      </g>
     </g>
     <g id="text_7">
      <!-- 2019 -->
      <g transform="translate(353.405507 369.556562)scale(0.1 -0.1)">
       <defs>
        <path id="DejaVuSans-39" d="M 703 97 
L 703 672 
Q 941 559 1184 500 
Q 1428 441 1663 441 
Q 2288 441 2617 861 
Q 2947 1281 2994 2138 
Q 2813 1869 2534 1725 
Q 2256 1581 1919 1581 
Q 1219 1581 811 2004 
Q 403 2428 403 3163 
Q 403 3881 828 4315 
Q 1253 4750 1959 4750 
Q 2769 4750 3195 4129 
Q 3622 3509 3622 2328 
Q 3622 1225 3098 567 
Q 2575 -91 1691 -91 
Q 1453 -91 1209 -44 
Q 966 3 703 97 
z
M 1959 2075 
Q 2384 2075 2632 2365 
Q 2881 2656 2881 3163 
Q 2881 3666 2632 3958 
Q 2384 4250 1959 4250 
Q 1534 4250 1286 3958 
Q 1038 3666 1038 3163 
Q 1038 2656 1286 2365 
Q 1534 2075 1959 2075 
z
" transform="scale(0.015625)"/>
       </defs>
       <use xlink:href="#DejaVuSans-32"/>
       <use xlink:href="#DejaVuSans-30" x="63.623047"/>
       <use xlink:href="#DejaVuSans-31" x="127.246094"/>
       <use xlink:href="#DejaVuSans-39" x="190.869141"/>
      </g>
     </g>
    </g>
    <g id="xtick_8">
     <g id="line2d_8">
      <g>
       <use xlink:href="#m5ad8feb17e" x="416.857779" y="354.958125" style="stroke: #000000; stroke-width: 0.8"/>
      </g>
     </g>
     <g id="text_8">
      <!-- 2020 -->
      <g transform="translate(404.132779 369.556562)scale(0.1 -0.1)">
       <use xlink:href="#DejaVuSans-32"/>
       <use xlink:href="#DejaVuSans-30" x="63.623047"/>
       <use xlink:href="#DejaVuSans-32" x="127.246094"/>
       <use xlink:href="#DejaVuSans-30" x="190.869141"/>
      </g>
     </g>
    </g>
    <g id="xtick_9">
     <g id="line2d_9">
      <g>
       <use xlink:href="#m5ad8feb17e" x="467.724031" y="354.958125" style="stroke: #000000; stroke-width: 0.8"/>
      </g>
     </g>
     <g id="text_9">
      <!-- 2021 -->
      <g transform="translate(454.999031 369.556562)scale(0.1 -0.1)">
       <use xlink:href="#DejaVuSans-32"/>
       <use xlink:href="#DejaVuSans-30" x="63.623047"/>
       <use xlink:href="#DejaVuSans-32" x="127.246094"/>
       <use xlink:href="#DejaVuSans-31" x="190.869141"/>
      </g>
     </g>
    </g>
    <g id="xtick_10">
     <g id="line2d_10">
      <g>
       <use xlink:href="#m5ad8feb17e" x="518.451304" y="354.958125" style="stroke: #000000; stroke-width: 0.8"/>
      </g>
     </g>
     <g id="text_10">
      <!-- 2022 -->
      <g transform="translate(505.726304 369.556562)scale(0.1 -0.1)">
       <use xlink:href="#DejaVuSans-32"/>
       <use xlink:href="#DejaVuSans-30" x="63.623047"/>
       <use xlink:href="#DejaVuSans-32" x="127.246094"/>
       <use xlink:href="#DejaVuSans-32" x="190.869141"/>
      </g>
     </g>
    </g>
    <g id="xtick_11">
     <g id="line2d_11">
      <g>
       <use xlink:href="#m5ad8feb17e" x="569.178576" y="354.958125" style="stroke: #000000; stroke-width: 0.8"/>
      </g>
     </g>
     <g id="text_11">
      <!-- 2023 -->
      <g transform="translate(556.453576 369.556562)scale(0.1 -0.1)">
       <use xlink:href="#DejaVuSans-32"/>
       <use xlink:href="#DejaVuSans-30" x="63.623047"/>
       <use xlink:href="#DejaVuSans-32" x="127.246094"/>
       <use xlink:href="#DejaVuSans-33" x="190.869141"/>
      </g>
     </g>
    </g>
   </g>
   <g id="matplotlib.axis_2">
    <g id="ytick_1">
     <g id="line2d_12">
      <defs>
       <path id="mc81a3f061b" d="M 0 0 
L -3.5 0 
" style="stroke: #000000; stroke-width: 0.8"/>
      </defs>
      <g>
       <use xlink:href="#mc81a3f061b" x="46.965625" y="341.57956" style="stroke: #000000; stroke-width: 0.8"/>
      </g>
     </g>
     <g id="text_12">
      <!-- 0 -->
      <g transform="translate(33.603125 345.378779)scale(0.1 -0.1)">
       <use xlink:href="#DejaVuSans-30"/>
      </g>
     </g>
    </g>
    <g id="ytick_2">
     <g id="line2d_13">
      <g>
       <use xlink:href="#mc81a3f061b" x="46.965625" y="268.203461" style="stroke: #000000; stroke-width: 0.8"/>
      </g>
     </g>
     <g id="text_13">
      <!-- 100 -->
      <g transform="translate(20.878125 272.00268)scale(0.1 -0.1)">
       <use xlink:href="#DejaVuSans-31"/>
       <use xlink:href="#DejaVuSans-30" x="63.623047"/>
       <use xlink:href="#DejaVuSans-30" x="127.246094"/>
      </g>
     </g>
    </g>
    <g id="ytick_3">
     <g id="line2d_14">
      <g>
       <use xlink:href="#mc81a3f061b" x="46.965625" y="194.827362" style="stroke: #000000; stroke-width: 0.8"/>
      </g>
     </g>
     <g id="text_14">
      <!-- 200 -->
      <g transform="translate(20.878125 198.626581)scale(0.1 -0.1)">
       <use xlink:href="#DejaVuSans-32"/>
       <use xlink:href="#DejaVuSans-30" x="63.623047"/>
       <use xlink:href="#DejaVuSans-30" x="127.246094"/>
      </g>
     </g>
    </g>
    <g id="ytick_4">
     <g id="line2d_15">
      <g>
       <use xlink:href="#mc81a3f061b" x="46.965625" y="121.451263" style="stroke: #000000; stroke-width: 0.8"/>
      </g>
     </g>
     <g id="text_15">
      <!-- 300 -->
      <g transform="translate(20.878125 125.250482)scale(0.1 -0.1)">
       <use xlink:href="#DejaVuSans-33"/>
       <use xlink:href="#DejaVuSans-30" x="63.623047"/>
       <use xlink:href="#DejaVuSans-30" x="127.246094"/>
      </g>
     </g>
    </g>
    <g id="ytick_5">
     <g id="line2d_16">
      <g>
       <use xlink:href="#mc81a3f061b" x="46.965625" y="48.075165" style="stroke: #000000; stroke-width: 0.8"/>
      </g>
     </g>
     <g id="text_16">
      <!-- 400 -->
      <g transform="translate(20.878125 51.874383)scale(0.1 -0.1)">
       <use xlink:href="#DejaVuSans-34"/>
       <use xlink:href="#DejaVuSans-30" x="63.623047"/>
       <use xlink:href="#DejaVuSans-30" x="127.246094"/>
      </g>
     </g>
    </g>
    <g id="text_17">
     <!-- Price (US Dollars) -->
     <g transform="translate(14.798438 232.160781)rotate(-90)scale(0.1 -0.1)">
      <defs>
       <path id="DejaVuSans-50" d="M 1259 4147 
L 1259 2394 
L 2053 2394 
Q 2494 2394 2734 2622 
Q 2975 2850 2975 3272 
Q 2975 3691 2734 3919 
Q 2494 4147 2053 4147 
L 1259 4147 
z
M 628 4666 
L 2053 4666 
Q 2838 4666 3239 4311 
Q 3641 3956 3641 3272 
Q 3641 2581 3239 2228 
Q 2838 1875 2053 1875 
L 1259 1875 
L 1259 0 
L 628 0 
L 628 4666 
z
" transform="scale(0.015625)"/>
       <path id="DejaVuSans-72" d="M 2631 2963 
Q 2534 3019 2420 3045 
Q 2306 3072 2169 3072 
Q 1681 3072 1420 2755 
Q 1159 2438 1159 1844 
L 1159 0 
L 581 0 
L 581 3500 
L 1159 3500 
L 1159 2956 
Q 1341 3275 1631 3429 
Q 1922 3584 2338 3584 
Q 2397 3584 2469 3576 
Q 2541 3569 2628 3553 
L 2631 2963 
z
" transform="scale(0.015625)"/>
       <path id="DejaVuSans-69" d="M 603 3500 
L 1178 3500 
L 1178 0 
L 603 0 
L 603 3500 
z
M 603 4863 
L 1178 4863 
L 1178 4134 
L 603 4134 
L 603 4863 
z
" transform="scale(0.015625)"/>
       <path id="DejaVuSans-63" d="M 3122 3366 
L 3122 2828 
Q 2878 2963 2633 3030 
Q 2388 3097 2138 3097 
Q 1578 3097 1268 2742 
Q 959 2388 959 1747 
Q 959 1106 1268 751 
Q 1578 397 2138 397 
Q 2388 397 2633 464 
Q 2878 531 3122 666 
L 3122 134 
Q 2881 22 2623 -34 
Q 2366 -91 2075 -91 
Q 1284 -91 818 406 
Q 353 903 353 1747 
Q 353 2603 823 3093 
Q 1294 3584 2113 3584 
Q 2378 3584 2631 3529 
Q 2884 3475 3122 3366 
z
" transform="scale(0.015625)"/>
       <path id="DejaVuSans-65" d="M 3597 1894 
L 3597 1613 
L 953 1613 
Q 991 1019 1311 708 
Q 1631 397 2203 397 
Q 2534 397 2845 478 
Q 3156 559 3463 722 
L 3463 178 
Q 3153 47 2828 -22 
Q 2503 -91 2169 -91 
Q 1331 -91 842 396 
Q 353 884 353 1716 
Q 353 2575 817 3079 
Q 1281 3584 2069 3584 
Q 2775 3584 3186 3129 
Q 3597 2675 3597 1894 
z
M 3022 2063 
Q 3016 2534 2758 2815 
Q 2500 3097 2075 3097 
Q 1594 3097 1305 2825 
Q 1016 2553 972 2059 
L 3022 2063 
z
" transform="scale(0.015625)"/>
       <path id="DejaVuSans-20" transform="scale(0.015625)"/>
       <path id="DejaVuSans-28" d="M 1984 4856 
Q 1566 4138 1362 3434 
Q 1159 2731 1159 2009 
Q 1159 1288 1364 580 
Q 1569 -128 1984 -844 
L 1484 -844 
Q 1016 -109 783 600 
Q 550 1309 550 2009 
Q 550 2706 781 3412 
Q 1013 4119 1484 4856 
L 1984 4856 
z
" transform="scale(0.015625)"/>
       <path id="DejaVuSans-55" d="M 556 4666 
L 1191 4666 
L 1191 1831 
Q 1191 1081 1462 751 
Q 1734 422 2344 422 
Q 2950 422 3222 751 
Q 3494 1081 3494 1831 
L 3494 4666 
L 4128 4666 
L 4128 1753 
Q 4128 841 3676 375 
Q 3225 -91 2344 -91 
Q 1459 -91 1007 375 
Q 556 841 556 1753 
L 556 4666 
z
" transform="scale(0.015625)"/>
       <path id="DejaVuSans-53" d="M 3425 4513 
L 3425 3897 
Q 3066 4069 2747 4153 
Q 2428 4238 2131 4238 
Q 1616 4238 1336 4038 
Q 1056 3838 1056 3469 
Q 1056 3159 1242 3001 
Q 1428 2844 1947 2747 
L 2328 2669 
Q 3034 2534 3370 2195 
Q 3706 1856 3706 1288 
Q 3706 609 3251 259 
Q 2797 -91 1919 -91 
Q 1588 -91 1214 -16 
Q 841 59 441 206 
L 441 856 
Q 825 641 1194 531 
Q 1563 422 1919 422 
Q 2459 422 2753 634 
Q 3047 847 3047 1241 
Q 3047 1584 2836 1778 
Q 2625 1972 2144 2069 
L 1759 2144 
Q 1053 2284 737 2584 
Q 422 2884 422 3419 
Q 422 4038 858 4394 
Q 1294 4750 2059 4750 
Q 2388 4750 2728 4690 
Q 3069 4631 3425 4513 
z
" transform="scale(0.015625)"/>
       <path id="DejaVuSans-44" d="M 1259 4147 
L 1259 519 
L 2022 519 
Q 2988 519 3436 956 
Q 3884 1394 3884 2338 
Q 3884 3275 3436 3711 
Q 2988 4147 2022 4147 
L 1259 4147 
z
M 628 4666 
L 1925 4666 
Q 3281 4666 3915 4102 
Q 4550 3538 4550 2338 
Q 4550 1131 3912 565 
Q 3275 0 1925 0 
L 628 0 
L 628 4666 
z
" transform="scale(0.015625)"/>
       <path id="DejaVuSans-6f" d="M 1959 3097 
Q 1497 3097 1228 2736 
Q 959 2375 959 1747 
Q 959 1119 1226 758 
Q 1494 397 1959 397 
Q 2419 397 2687 759 
Q 2956 1122 2956 1747 
Q 2956 2369 2687 2733 
Q 2419 3097 1959 3097 
z
M 1959 3584 
Q 2709 3584 3137 3096 
Q 3566 2609 3566 1747 
Q 3566 888 3137 398 
Q 2709 -91 1959 -91 
Q 1206 -91 779 398 
Q 353 888 353 1747 
Q 353 2609 779 3096 
Q 1206 3584 1959 3584 
z
" transform="scale(0.015625)"/>
       <path id="DejaVuSans-6c" d="M 603 4863 
L 1178 4863 
L 1178 0 
L 603 0 
L 603 4863 
z
" transform="scale(0.015625)"/>
       <path id="DejaVuSans-61" d="M 2194 1759 
Q 1497 1759 1228 1600 
Q 959 1441 959 1056 
Q 959 750 1161 570 
Q 1363 391 1709 391 
Q 2188 391 2477 730 
Q 2766 1069 2766 1631 
L 2766 1759 
L 2194 1759 
z
M 3341 1997 
L 3341 0 
L 2766 0 
L 2766 531 
Q 2569 213 2275 61 
Q 1981 -91 1556 -91 
Q 1019 -91 701 211 
Q 384 513 384 1019 
Q 384 1609 779 1909 
Q 1175 2209 1959 2209 
L 2766 2209 
L 2766 2266 
Q 2766 2663 2505 2880 
Q 2244 3097 1772 3097 
Q 1472 3097 1187 3025 
Q 903 2953 641 2809 
L 641 3341 
Q 956 3463 1253 3523 
Q 1550 3584 1831 3584 
Q 2591 3584 2966 3190 
Q 3341 2797 3341 1997 
z
" transform="scale(0.015625)"/>
       <path id="DejaVuSans-73" d="M 2834 3397 
L 2834 2853 
Q 2591 2978 2328 3040 
Q 2066 3103 1784 3103 
Q 1356 3103 1142 2972 
Q 928 2841 928 2578 
Q 928 2378 1081 2264 
Q 1234 2150 1697 2047 
L 1894 2003 
Q 2506 1872 2764 1633 
Q 3022 1394 3022 966 
Q 3022 478 2636 193 
Q 2250 -91 1575 -91 
Q 1294 -91 989 -36 
Q 684 19 347 128 
L 347 722 
Q 666 556 975 473 
Q 1284 391 1588 391 
Q 1994 391 2212 530 
Q 2431 669 2431 922 
Q 2431 1156 2273 1281 
Q 2116 1406 1581 1522 
L 1381 1569 
Q 847 1681 609 1914 
Q 372 2147 372 2553 
Q 372 3047 722 3315 
Q 1072 3584 1716 3584 
Q 2034 3584 2315 3537 
Q 2597 3491 2834 3397 
z
" transform="scale(0.015625)"/>
       <path id="DejaVuSans-29" d="M 513 4856 
L 1013 4856 
Q 1481 4119 1714 3412 
Q 1947 2706 1947 2009 
Q 1947 1309 1714 600 
Q 1481 -109 1013 -844 
L 513 -844 
Q 928 -128 1133 580 
Q 1338 1288 1338 2009 
Q 1338 2731 1133 3434 
Q 928 4138 513 4856 
z
" transform="scale(0.015625)"/>
      </defs>
      <use xlink:href="#DejaVuSans-50"/>
      <use xlink:href="#DejaVuSans-72" x="58.552734"/>
      <use xlink:href="#DejaVuSans-69" x="99.666016"/>
      <use xlink:href="#DejaVuSans-63" x="127.449219"/>
      <use xlink:href="#DejaVuSans-65" x="182.429688"/>
      <use xlink:href="#DejaVuSans-20" x="243.953125"/>
      <use xlink:href="#DejaVuSans-28" x="275.740234"/>
      <use xlink:href="#DejaVuSans-55" x="314.753906"/>
      <use xlink:href="#DejaVuSans-53" x="387.947266"/>
      <use xlink:href="#DejaVuSans-20" x="451.423828"/>
      <use xlink:href="#DejaVuSans-44" x="483.210938"/>
      <use xlink:href="#DejaVuSans-6f" x="560.212891"/>
      <use xlink:href="#DejaVuSans-6c" x="621.394531"/>
      <use xlink:href="#DejaVuSans-6c" x="649.177734"/>
      <use xlink:href="#DejaVuSans-61" x="676.960938"/>
      <use xlink:href="#DejaVuSans-72" x="738.240234"/>
      <use xlink:href="#DejaVuSans-73" x="779.353516"/>
      <use xlink:href="#DejaVuSans-29" x="831.453125"/>
     </g>
    </g>
   </g>
   <g id="line2d_17">
    <path d="M 579.601989 204.938662 
L 579.46301 205.239431 
L 579.324031 207.785581 
L 579.185052 206.71429 
L 579.046073 211.447049 
L 578.629137 210.757313 
L 578.490158 205.7017 
L 578.351179 204.733136 
L 578.073222 195.854628 
L 577.656285 194.475157 
L 577.517306 199.413442 
L 577.239349 186.587226 
L 577.10037 187.915334 
L 576.683433 196.537392 
L 576.544454 191.055831 
L 576.405476 193.367178 
L 576.266497 187.702543 
L 575.710581 188.63442 
L 575.571603 181.876481 
L 575.293645 187.621829 
L 575.154666 197.542278 
L 574.73773 190.278044 
L 574.598751 184.554708 
L 574.320793 196.661765 
L 574.181814 196.170145 
L 573.764878 195.561123 
L 573.625899 197.212012 
L 573.347941 213.68502 
L 573.208962 209.671347 
L 572.792026 209.003625 
L 572.514068 234.149614 
L 572.37509 234.083575 
L 572.236111 234.905901 
L 571.680195 246.197969 
L 571.541217 241.289108 
L 571.402238 244.943238 
L 570.846322 251.59845 
L 570.568365 249.162363 
L 570.429386 251.503061 
L 570.290407 250.945403 
L 569.734492 259.581769 
L 569.456534 254.408755 
L 568.900619 250.240992 
L 568.76164 250.908715 
L 568.622661 256.26517 
L 568.483682 253.770382 
L 567.927767 247.205203 
L 567.371852 227.663166 
L 566.954915 223.451378 
L 566.815936 223.495477 
L 566.676958 222.989109 
L 566.537979 213.134699 
L 565.982063 207.66818 
L 565.843085 213.024635 
L 565.565127 206.824354 
L 565.426148 201.233096 
L 564.870233 195.619824 
L 564.731254 198.67227 
L 564.592275 204.821187 
L 564.453296 203.265614 
L 563.758402 206.846367 
L 563.619423 216.165132 
L 563.480444 211.87263 
L 562.78555 200.279206 
L 562.646571 194.222963 
L 562.507593 197.960522 
L 562.090656 197.38085 
L 561.951677 201.431211 
L 561.812698 197.84312 
L 561.67372 198.349415 
L 561.534741 188.296889 
L 561.117804 177.363851 
L 560.978825 179.271629 
L 560.700868 167.388297 
L 560.561889 172.924597 
L 560.144953 173.65102 
L 560.005974 170.018903 
L 559.866995 172.374276 
L 559.589037 184.921589 
L 559.172101 184.070426 
L 559.033122 183.417379 
L 558.755164 172.94661 
L 558.616185 178.787347 
L 558.199249 175.558799 
L 557.921291 180.665849 
L 557.782312 175.933017 
L 557.643334 175.023153 
L 557.226397 169.460144 
L 556.809461 152.636105 
L 556.670482 154.353106 
L 555.975588 129.522634 
L 555.836609 129.764775 
L 555.69763 133.125401 
L 555.280693 132.824559 
L 555.002736 111.325362 
L 554.863757 111.670229 
L 554.724778 114.231055 
L 554.307842 118.72901 
L 554.168863 114.759363 
L 554.029884 117.048697 
L 553.890905 123.359115 
L 553.751926 117.422916 
L 553.33499 121.561328 
L 552.918053 139.068865 
L 552.362138 134.402145 
L 552.223159 137.902185 
L 552.08418 135.209282 
L 551.945202 129.90419 
L 551.806223 130.447173 
L 551.250307 119.279331 
L 551.111329 118.775531 
L 550.833371 127.027847 
L 550.416434 121.187109 
L 549.999498 110.689484 
L 549.860519 111.81456 
L 549.304604 122.745178 
L 549.165625 123.278328 
L 549.026646 127.030342 
L 548.887667 117.635706 
L 548.470731 118.07112 
L 548.331752 111.467271 
L 548.053794 115.703493 
L 547.914816 112.735504 
L 547.497879 122.683982 
L 547.219921 139.116119 
L 547.080943 145.437983 
L 546.941964 140.42148 
L 546.525027 135.549307 
L 546.386048 141.067189 
L 546.24707 157.652609 
L 546.108091 160.237869 
L 545.969112 157.760252 
L 545.552175 162.818287 
L 545.413197 166.465079 
L 545.274218 163.965448 
L 545.135239 165.643266 
L 544.99626 155.891583 
L 544.579324 154.485256 
L 544.162387 170.50568 
L 543.467493 173.213258 
L 543.328514 171.953611 
L 543.189535 158.161326 
L 543.050557 156.620428 
L 542.63362 161.025488 
L 542.494641 165.978375 
L 542.355662 160.462914 
L 542.216684 162.85204 
L 541.660768 179.440835 
L 541.521789 176.361093 
L 541.382811 168.659024 
L 541.243832 175.507435 
L 541.104853 175.284886 
L 540.687916 165.843803 
L 540.548938 154.069434 
L 540.27098 165.479417 
L 540.132001 161.906001 
L 539.715065 159.756082 
L 539.576086 147.712569 
L 539.437107 152.76334 
L 539.298128 151.095207 
L 538.742213 155.742409 
L 538.325276 181.639256 
L 538.186297 175.271385 
L 537.630382 162.052754 
L 537.491403 155.571149 
L 537.213446 153.306323 
L 536.796509 149.004062 
L 536.65753 155.776602 
L 536.379573 139.707237 
L 536.240594 134.749507 
L 535.823657 124.386307 
L 535.684679 110.298096 
L 535.5457 107.876685 
L 535.267742 119.895763 
L 534.850806 113.03752 
L 534.711827 121.451263 
L 534.572848 117.048697 
L 534.433869 96.992588 
L 533.877954 88.468707 
L 533.738975 74.436775 
L 533.599996 88.676655 
L 533.461017 88.446694 
L 533.322038 93.343375 
L 532.766123 93.883936 
L 532.627144 90.574601 
L 532.488165 91.809301 
L 532.349187 94.921401 
L 531.93225 85.14477 
L 531.793271 78.25967 
L 531.654292 77.67024 
L 531.515314 59.60255 
L 531.376335 60.326552 
L 530.959398 73.817995 
L 530.542462 68.921314 
L 530.403483 73.052462 
L 529.986547 91.660641 
L 529.847568 91.002677 
L 529.708589 87.037873 
L 529.430631 110.970735 
L 529.013695 119.531304 
L 528.457779 145.738752 
L 527.901864 132.59225 
L 527.762885 131.097799 
L 527.623906 133.683059 
L 527.484928 129.733004 
L 527.067991 132.298746 
L 526.929012 124.768157 
L 526.790033 124.758104 
L 526.651055 123.926533 
L 526.512076 127.111055 
L 525.95616 145.303412 
L 525.678203 132.033638 
L 525.122288 124.662715 
L 524.84433 114.986902 
L 524.705351 115.825811 
L 524.566372 121.72525 
L 524.149436 117.547655 
L 524.010457 110.735932 
L 523.871478 110.134248 
L 523.732499 115.021096 
L 523.59352 109.767367 
L 523.176584 112.523887 
L 523.037605 112.401569 
L 522.898626 113.746773 
L 522.759647 110.762861 
L 522.620669 112.159428 
L 522.203732 131.846235 
L 521.925774 100.00343 
L 521.647817 113.254419 
L 520.813944 79.678324 
L 520.258028 84.274089 
L 520.11905 68.718356 
L 519.980071 68.904218 
L 519.702113 82.537497 
L 519.146198 75.468957 
L 518.86824 46.118517 
L 518.729261 47.813505 
L 518.312325 76.936479 
L 517.895388 67.886785 
L 517.75641 68.37591 
L 517.200494 79.143412 
L 516.783558 116.146612 
L 516.366621 106.61469 
L 516.227642 98.220391 
L 515.949685 105.20829 
L 515.810706 95.769629 
L 515.393769 91.861251 
L 515.115812 79.289357 
L 514.976833 82.886327 
L 514.837854 91.69975 
L 514.281939 69.354233 
L 514.14296 54.718196 
L 514.003981 55.901973 
L 513.865002 62.097337 
L 513.448066 70.385754 
L 513.170108 64.518748 
L 512.892151 47.59822 
L 512.336235 69.598869 
L 512.197256 67.7302 
L 511.919299 89.170696 
L 511.502362 83.662572 
L 511.363383 71.318291 
L 511.224405 77.890368 
L 510.946447 48.808926 
L 510.390532 37.438125 
L 510.112574 45.974187 
L 509.973595 45.690441 
L 509.278701 79.656237 
L 509.139722 73.771474 
L 508.583807 119.005418 
L 508.444828 121.451263 
L 508.305849 128.913613 
L 508.16687 126.844407 
L 508.027892 127.50237 
L 507.610955 135.341359 
L 507.332997 142.140902 
L 507.194019 142.896676 
L 507.05504 145.606675 
L 506.638103 146.795368 
L 506.499124 144.687052 
L 506.360146 149.172754 
L 506.082188 144.205265 
L 505.665251 150.610925 
L 505.387294 147.499778 
L 505.109336 146.154574 
L 504.6924 152.073604 
L 504.414442 157.241703 
L 504.136484 160.096033 
L 503.719548 155.439072 
L 503.302611 157.046009 
L 503.163632 159.416057 
L 502.746696 155.055095 
L 502.607717 155.179835 
L 502.468738 154.60508 
L 502.329759 155.644525 
L 501.773844 162.052754 
L 501.634865 160.347933 
L 501.495887 160.098455 
L 501.356908 160.489843 
L 501.217929 162.786515 
L 500.800992 166.699882 
L 500.662014 166.602072 
L 500.523035 166.218021 
L 500.245077 167.401871 
L 499.689162 173.658358 
L 499.550183 171.40329 
L 499.411204 176.586064 
L 499.272225 168.045086 
L 498.855289 163.055511 
L 498.577331 166.655856 
L 498.299373 165.714221 
L 497.882437 166.374606 
L 497.604479 164.278471 
L 497.4655 164.828792 
L 497.326522 163.779513 
L 496.770606 174.357925 
L 496.631627 181.38244 
L 496.492649 178.562376 
L 496.35367 178.146554 
L 495.936733 182.891566 
L 495.658776 178.963523 
L 495.519797 179.567188 
L 495.380818 183.28288 
L 494.963882 180.959353 
L 494.685924 175.600403 
L 494.546945 172.012312 
L 494.407966 173.489593 
L 493.852051 181.514517 
L 493.574093 174.282055 
L 493.018178 170.368687 
L 492.879199 173.306152 
L 492.74022 172.127292 
L 492.601241 173.423628 
L 492.462263 171.665023 
L 492.045326 171.882656 
L 491.906347 170.95078 
L 491.62839 187.839683 
L 491.489411 187.149801 
L 491.072474 187.893321 
L 490.933495 189.576128 
L 490.794517 192.748397 
L 490.516559 188.592889 
L 490.099623 191.755398 
L 489.960644 190.769664 
L 489.821665 191.943682 
L 489.682686 189.179897 
L 489.543707 192.381517 
L 489.126771 194.678189 
L 488.987792 193.71454 
L 488.709834 186.560371 
L 488.153919 186.122536 
L 487.875961 188.426545 
L 487.736982 191.405615 
L 487.598004 191.285791 
L 487.042088 197.554532 
L 486.903109 203.092006 
L 486.764131 195.744563 
L 486.625152 197.33932 
L 486.208215 196.571292 
L 485.791279 188.199079 
L 485.6523 178.917003 
L 485.235363 172.814533 
L 485.096385 175.010973 
L 484.957406 173.965217 
L 484.818427 174.417507 
L 484.679448 168.901165 
L 484.262512 166.584902 
L 484.123533 169.818366 
L 483.984554 168.289722 
L 483.706596 158.310573 
L 483.28966 161.230941 
L 483.150681 157.217269 
L 482.733745 164.156153 
L 482.316808 158.283644 
L 482.177829 159.682706 
L 482.03885 150.608504 
L 481.899872 154.959706 
L 481.760893 169.19467 
L 481.343956 175.023153 
L 481.065999 172.477003 
L 480.92702 171.212512 
L 480.788041 168.372857 
L 480.232126 172.222608 
L 479.815189 190.796593 
L 479.398253 184.109609 
L 479.259274 183.698703 
L 478.842337 170.461655 
L 478.425401 180.829697 
L 478.147443 169.456402 
L 477.869486 167.145055 
L 477.452549 171.620997 
L 477.31357 169.757244 
L 477.174591 166.002809 
L 476.896634 189.905073 
L 476.479697 188.01762 
L 476.340718 127.825225 
L 476.20174 170.197501 
L 476.062761 165.205431 
L 475.923782 128.299748 
L 475.506845 168.729979 
L 475.228888 159.362272 
L 475.089909 167.039907 
L 474.95093 153.614502 
L 474.533994 146.695136 
L 474.395015 147.208769 
L 474.256036 145.949121 
L 474.117057 140.773685 
L 473.561142 141.671295 
L 473.144205 131.283661 
L 473.005226 126.888432 
L 472.58829 130.068112 
L 472.449311 132.090798 
L 472.310332 126.812635 
L 472.171354 126.22071 
L 472.032375 135.637358 
L 471.615438 135.537053 
L 471.476459 134.169836 
L 471.337481 123.530302 
L 471.059523 121.353453 
L 470.642586 134.169836 
L 470.364629 131.357037 
L 470.22565 133.680638 
L 469.530756 130.501031 
L 469.391777 131.119812 
L 469.252798 129.278072 
L 469.113819 132.597093 
L 468.696883 125.244808 
L 468.418925 152.269225 
L 468.279946 160.379779 
L 468.140967 159.487012 
L 467.585052 165.790019 
L 467.307094 177.730731 
L 467.168116 174.918005 
L 466.6122 178.662608 
L 466.473222 182.231181 
L 466.334243 182.627412 
L 466.195264 178.073177 
L 465.778327 171.591647 
L 465.50037 186.878309 
L 465.361391 183.356257 
L 465.222412 184.371342 
L 464.805476 188.957274 
L 464.666497 188.040073 
L 464.527518 181.541446 
L 464.24956 182.895088 
L 463.832624 195.062166 
L 463.693645 195.079336 
L 463.554666 201.788333 
L 463.276708 192.919584 
L 462.859772 195.125783 
L 462.442835 204.613312 
L 462.303857 212.926824 
L 461.88692 218.674594 
L 461.747941 217.179923 
L 461.608962 220.264434 
L 461.331005 240.699678 
L 460.914068 240.679646 
L 460.77509 238.119261 
L 460.636111 239.172208 
L 460.497132 238.831009 
L 460.358153 230.903969 
L 459.941217 234.800239 
L 459.802238 233.961257 
L 459.52428 236.952581 
L 459.385301 242.037544 
L 458.968365 241.888004 
L 458.829386 239.327545 
L 458.690407 239.195468 
L 458.551428 236.284858 
L 458.412449 237.4442 
L 457.995513 238.147143 
L 457.856534 232.682092 
L 457.717555 235.685596 
L 457.578576 235.9791 
L 457.439598 232.249173 
L 456.883682 229.908475 
L 456.744703 227.626478 
L 456.605725 231.786903 
L 456.466746 231.823591 
L 456.049809 235.284522 
L 455.91083 234.205893 
L 455.771852 236.43161 
L 455.632873 236.705597 
L 455.493894 235.51683 
L 455.076958 234.174048 
L 454.937979 231.789325 
L 454.660021 236.774057 
L 454.521042 236.876783 
L 453.965127 243.867031 
L 453.826148 240.773054 
L 453.54819 230.126182 
L 453.131254 231.270849 
L 452.992275 234.501819 
L 452.714317 228.595043 
L 452.575339 238.853022 
L 452.158402 248.025034 
L 452.019423 243.99177 
L 451.880444 251.326958 
L 451.741466 251.390575 
L 451.046571 235.966919 
L 450.768614 218.677089 
L 450.629635 219.251844 
L 449.934741 235.6244 
L 449.795762 242.377496 
L 449.656783 237.434368 
L 449.239847 239.07359 
L 448.683931 251.28484 
L 447.989037 264.045458 
L 447.850058 272.116829 
L 447.71108 270.282426 
L 447.155164 267.356628 
L 447.016185 268.211312 
L 446.877207 266.862586 
L 446.738228 267.723508 
L 446.321291 267.369395 
L 446.182312 267.55577 
L 445.904355 265.038456 
L 445.765376 265.858288 
L 445.348439 269.915546 
L 445.209461 258.957999 
L 445.070482 262.01925 
L 444.931503 259.642892 
L 444.792524 260.865778 
L 444.375588 266.368545 
L 444.236609 266.652217 
L 444.09763 265.757542 
L 443.958651 263.800822 
L 443.819672 253.773244 
L 443.263757 272.676468 
L 443.124778 272.250887 
L 442.985799 271.652138 
L 442.846821 274.181632 
L 442.290905 281.508969 
L 441.873969 292.172938 
L 441.318053 293.347983 
L 441.040096 292.075127 
L 440.901117 292.22775 
L 440.345202 291.722922 
L 440.206223 292.417574 
L 440.067244 292.032056 
L 439.928265 292.718856 
L 439.511329 293.250099 
L 439.233371 291.317886 
L 439.094392 294.890789 
L 438.955413 295.107982 
L 438.538477 298.213258 
L 438.12154 297.130227 
L 437.982561 297.602769 
L 437.426646 301.234886 
L 437.287667 301.090115 
L 437.148689 300.753099 
L 436.453794 300.855825 
L 436.175837 301.366009 
L 436.036858 300.747228 
L 435.480943 302.281229 
L 435.202985 300.327957 
L 435.064006 301.271574 
L 434.64707 301.271574 
L 434.369112 302.944549 
L 434.230133 302.498422 
L 434.091154 304.304502 
L 433.674218 303.777661 
L 433.535239 299.030228 
L 433.39626 302.28908 
L 433.257281 302.201029 
L 433.118302 302.47054 
L 432.701366 305.8341 
L 432.423408 305.67414 
L 432.145451 304.129867 
L 431.728514 303.670972 
L 431.450557 304.738375 
L 431.311578 305.288695 
L 431.172599 309.685391 
L 430.477705 314.322394 
L 430.338726 313.941205 
L 430.199747 316.093546 
L 429.782811 316.36313 
L 429.643832 317.401622 
L 429.365874 315.01932 
L 429.226895 316.306483 
L 428.809959 315.858743 
L 428.67098 314.185767 
L 428.532001 314.33252 
L 428.254043 319.958045 
L 427.837107 318.245961 
L 427.698128 319.46892 
L 427.559149 321.774837 
L 427.281192 317.371831 
L 426.864255 311.858791 
L 426.725276 312.498117 
L 426.447319 308.902688 
L 426.30834 309.147398 
L 425.891403 306.99491 
L 425.474467 302.104173 
L 425.335488 305.20013 
L 424.918552 307.801093 
L 424.362636 299.339361 
L 423.9457 296.915015 
L 423.806721 296.966892 
L 423.667742 295.363331 
L 423.528763 299.510548 
L 422.972848 301.811182 
L 422.833869 301.565078 
L 422.555911 303.252435 
L 422.416933 301.467782 
L 421.999996 303.925367 
L 421.861017 302.649577 
L 421.722038 300.196394 
L 421.58306 294.17904 
L 421.444081 303.123587 
L 421.027144 309.636449 
L 420.888165 309.740203 
L 420.610208 313.363515 
L 420.471229 313.968574 
L 420.054292 313.507772 
L 419.776335 312.498117 
L 419.637356 314.744453 
L 419.081441 316.354325 
L 418.942462 316.413466 
L 418.664504 314.801686 
L 418.525525 315.867107 
L 418.108589 317.857581 
L 417.96961 317.179586 
L 417.830631 317.194701 
L 417.552674 319.490419 
L 417.135737 319.371036 
L 416.996758 320.511007 
L 416.718801 320.971149 
L 416.579822 320.593996 
L 416.162885 320.285302 
L 416.023906 320.374821 
L 415.051055 321.677541 
L 414.773097 322.721903 
L 414.634118 322.814356 
L 413.661266 324.729986 
L 413.105351 325.220432 
L 412.827393 325.049906 
L 412.271478 325.375182 
L 411.854542 325.167748 
L 411.715563 324.724116 
L 411.298626 324.898751 
L 411.159647 323.928206 
L 410.88169 323.96981 
L 410.742711 324.304405 
L 410.186796 324.270652 
L 410.047817 324.148848 
L 409.769859 324.498118 
L 409.352923 325.071919 
L 409.213944 324.874244 
L 408.935986 325.754317 
L 408.380071 326.098157 
L 407.963134 325.715647 
L 407.824156 324.906529 
L 407.407219 325.436818 
L 407.26824 326.663153 
L 407.129261 329.049857 
L 406.851304 328.885495 
L 406.295388 328.627211 
L 405.461515 329.297355 
L 405.044579 329.646625 
L 404.9056 329.909825 
L 404.349685 330.109408 
L 404.210706 329.611918 
L 404.071727 329.548301 
L 403.932748 329.644717 
L 403.515812 329.413289 
L 403.376833 329.677443 
L 403.237854 330.378478 
L 402.959896 329.586016 
L 402.265002 329.439778 
L 402.126024 329.565471 
L 401.987045 329.475952 
L 401.570108 329.426057 
L 401.431129 329.178999 
L 401.292151 329.439558 
L 401.153172 330.057531 
L 400.597256 330.346193 
L 399.624405 330.2092 
L 399.346447 330.952279 
L 399.207468 330.876409 
L 399.068489 331.061316 
L 398.095637 330.434684 
L 397.539722 330.741397 
L 397.261764 330.035078 
L 397.122786 330.046305 
L 396.56687 329.849143 
L 396.288913 330.206265 
L 396.149934 330.261664 
L 395.732997 330.02187 
L 395.45504 329.51264 
L 395.316061 329.675022 
L 395.177082 330.038013 
L 394.760146 330.315815 
L 394.621167 330.108454 
L 394.482188 328.564108 
L 394.343209 328.83758 
L 394.20423 328.755619 
L 393.787294 328.862968 
L 393.648315 329.068935 
L 393.509336 328.943682 
L 393.370357 329.177532 
L 393.231378 329.13402 
L 392.536484 329.891261 
L 392.397505 330.279641 
L 391.84159 330.061934 
L 391.563632 329.762559 
L 391.424654 330.370113 
L 391.285675 330.176914 
L 390.729759 330.675872 
L 390.590781 330.464035 
L 390.312823 330.531101 
L 389.895887 330.711092 
L 389.47895 330.096714 
L 389.339971 330.475335 
L 388.784056 331.067186 
L 388.645077 330.652391 
L 387.811204 331.257964 
L 387.394268 332.447684 
L 386.560395 332.040667 
L 385.726522 331.603346 
L 385.587543 331.434067 
L 385.448564 331.5026 
L 384.614691 330.108454 
L 384.475712 330.207732 
L 383.780818 329.320909 
L 383.50286 328.941774 
L 383.085924 329.026891 
L 382.807966 329.839384 
L 382.668987 329.633417 
L 382.530009 329.644717 
L 382.113072 329.51264 
L 381.835114 328.600796 
L 381.696136 328.587074 
L 381.557157 328.387491 
L 380.723284 328.1273 
L 380.584305 328.426674 
L 380.167368 328.276473 
L 380.02839 328.347428 
L 379.889411 327.96191 
L 379.750432 328.1273 
L 379.611453 327.825944 
L 379.194517 328.073442 
L 379.055538 328.313161 
L 378.916559 327.091669 
L 378.77758 327.420908 
L 378.638601 327.432648 
L 377.804728 328.359168 
L 377.66575 328.705503 
L 377.109834 328.056345 
L 376.831877 328.210435 
L 376.692898 327.978053 
L 376.275961 327.700471 
L 376.136982 327.129825 
L 375.859025 327.4879 
L 375.720046 327.330875 
L 375.025152 327.808994 
L 374.886173 327.687043 
L 374.747194 326.953282 
L 374.330258 326.555584 
L 374.191279 325.926017 
L 374.0523 326.107256 
L 373.913321 326.806016 
L 373.774342 326.762284 
L 373.357406 327.075527 
L 372.940469 326.339638 
L 372.245575 326.573194 
L 371.967618 326.014508 
L 371.828639 325.994477 
L 371.411702 326.540175 
L 371.133745 325.718582 
L 370.994766 325.806634 
L 370.855787 326.155904 
L 370.43885 326.116795 
L 369.882935 327.028566 
L 369.465999 326.976762 
L 369.32702 327.213474 
L 369.188041 327.17341 
L 369.049062 326.513025 
L 368.493147 325.577187 
L 368.354168 324.385119 
L 368.215189 324.360611 
L 367.937231 324.825375 
L 367.520295 324.536273 
L 367.242337 324.776287 
L 367.103358 324.751485 
L 366.408464 326.444492 
L 366.269486 326.164195 
L 365.991528 324.986289 
L 365.574591 325.131574 
L 365.435613 325.819768 
L 365.296634 325.585038 
L 365.018676 326.195013 
L 364.60174 325.756224 
L 364.462761 325.422657 
L 364.184803 324.382624 
L 364.045824 323.690467 
L 363.628888 323.095167 
L 363.489909 323.116152 
L 363.35093 323.38669 
L 363.211951 323.373996 
L 363.072972 323.676746 
L 362.656036 323.015921 
L 362.517057 323.608286 
L 362.239099 323.544669 
L 362.100121 323.675792 
L 361.544205 324.580739 
L 361.266248 324.607155 
L 361.127269 324.643402 
L 360.710332 325.069938 
L 360.432375 324.306826 
L 360.293396 324.468254 
L 360.154417 323.639104 
L 359.320544 324.717732 
L 359.181565 324.469208 
L 358.62565 324.087872 
L 358.208713 324.7542 
L 357.791777 324.497604 
L 357.652798 324.564156 
L 357.37484 325.050346 
L 357.235862 324.597396 
L 356.818925 324.952536 
L 356.26301 328.770074 
L 355.707094 328.32292 
L 355.568116 327.750587 
L 355.429137 328.011072 
L 355.290158 328.700587 
L 354.734243 328.750996 
L 354.456285 328.529841 
L 354.317306 328.481413 
L 353.90037 328.13317 
L 353.483433 326.080547 
L 353.344454 326.344701 
L 352.927518 327.980547 
L 352.788539 326.17256 
L 352.64956 326.224878 
L 352.371603 326.757588 
L 351.954666 326.875944 
L 351.815687 326.61179 
L 351.676708 326.90434 
L 351.53773 326.775198 
L 350.703857 327.271221 
L 350.564878 327.784853 
L 350.425899 327.587692 
L 350.008962 328.452576 
L 349.869984 327.336305 
L 349.731005 327.551004 
L 349.592026 326.992905 
L 348.897132 326.679296 
L 348.480195 325.806854 
L 348.063259 325.73766 
L 347.92428 325.567941 
L 347.785301 325.736193 
L 347.646322 325.691653 
L 347.507344 326.488518 
L 347.090407 325.594797 
L 346.951428 324.836088 
L 346.812449 324.728005 
L 346.534492 323.813225 
L 346.117555 323.969296 
L 345.978576 323.62641 
L 345.700619 322.626 
L 345.56164 324.214886 
L 345.144703 324.213859 
L 345.005725 324.458935 
L 344.866746 326.757588 
L 344.588788 327.095118 
L 344.032873 326.380948 
L 343.615936 326.63527 
L 343.199 325.767524 
L 342.782063 325.694148 
L 342.643085 326.162728 
L 341.94819 325.831068 
L 341.809212 325.550404 
L 341.670233 325.998365 
L 341.253296 326.313883 
L 341.114317 326.200443 
L 340.83636 325.315014 
L 340.697381 323.735447 
L 340.280444 324.269625 
L 340.141466 324.115095 
L 339.724529 325.022463 
L 339.307593 324.348431 
L 339.168614 323.665299 
L 339.029635 323.755038 
L 338.751677 323.297685 
L 338.195762 324.030419 
L 338.056783 324.595414 
L 337.917804 324.215326 
L 337.778825 325.208839 
L 337.361889 325.706842 
L 337.22291 325.436818 
L 337.083931 325.819841 
L 336.944953 327.011983 
L 336.805974 326.953282 
L 336.250058 327.375415 
L 336.11108 327.148683 
L 335.972101 327.564725 
L 335.416185 327.900274 
L 335.277207 327.828365 
L 335.138228 327.887066 
L 334.86027 327.320603 
L 334.443334 327.655198 
L 334.304355 327.433235 
L 334.026397 327.542199 
L 333.887418 326.662713 
L 333.470482 326.469954 
L 333.331503 326.268903 
L 333.192524 326.561454 
L 333.053545 326.525206 
L 332.914566 326.612817 
L 332.49763 327.057916 
L 332.358651 327.489368 
L 332.219672 326.569232 
L 331.941715 326.96649 
L 331.524778 327.174878 
L 331.385799 327.599432 
L 331.246821 327.63025 
L 330.968863 327.314292 
L 330.412948 326.854958 
L 330.273969 326.8926 
L 330.13499 327.287363 
L 329.996011 326.920997 
L 329.023159 326.439649 
L 328.606223 326.450362 
L 328.467244 326.598142 
L 328.050307 328.844771 
L 327.494392 328.324901 
L 327.355413 328.436433 
L 327.216434 326.695438 
L 327.077456 326.533057 
L 326.660519 326.336409 
L 326.382561 325.806634 
L 326.243583 326.109457 
L 326.104604 325.889329 
L 325.687667 325.563979 
L 325.131752 324.594974 
L 324.714816 325.510708 
L 324.575837 325.275391 
L 324.436858 325.3145 
L 324.1589 325.057684 
L 323.741964 325.181469 
L 323.464006 324.202119 
L 323.325027 323.96981 
L 322.769112 324.214372 
L 322.491154 324.962662 
L 321.79626 324.794997 
L 321.518302 325.624147 
L 321.379324 325.721004 
L 321.240345 326.019938 
L 320.823408 325.877809 
L 320.684429 324.526001 
L 320.545451 324.654115 
L 320.406472 325.132528 
L 320.267493 324.728959 
L 319.850557 324.363106 
L 319.711578 323.985953 
L 319.572599 324.155672 
L 319.43362 324.543097 
L 319.294641 324.41689 
L 318.877705 324.751999 
L 318.460768 323.944862 
L 317.904853 324.429584 
L 317.765874 324.345936 
L 317.487916 324.703057 
L 316.932001 324.927588 
L 316.793022 324.712376 
L 316.654043 325.094372 
L 316.515065 325.006321 
L 316.376086 325.093418 
L 315.959149 326.061029 
L 315.82017 325.996898 
L 315.681192 325.6692 
L 315.542213 325.822776 
L 314.847319 326.130442 
L 314.70834 326.039456 
L 314.569361 325.733258 
L 313.735488 325.28515 
L 313.45753 324.618455 
L 313.040594 324.756842 
L 312.901615 324.583674 
L 312.623657 324.877179 
L 312.484679 325.485246 
L 312.067742 326.073723 
L 311.928763 325.992789 
L 311.650806 326.513025 
L 310.955911 326.380948 
L 310.677954 325.926017 
L 310.538975 326.056112 
L 309.844081 326.052224 
L 309.705102 326.0126 
L 309.566123 326.146145 
L 309.149187 325.599713 
L 308.871229 326.293337 
L 308.593271 326.082528 
L 308.037356 326.686193 
L 307.759398 326.586402 
L 307.62042 326.53746 
L 307.203483 326.598582 
L 307.064504 326.479272 
L 306.925525 325.309217 
L 306.786547 325.341429 
L 306.647568 325.741109 
L 306.230631 325.701486 
L 305.674716 324.460916 
L 305.118801 324.108858 
L 304.979822 323.822544 
L 304.701864 324.23932 
L 304.145949 323.980083 
L 303.729012 324.372865 
L 303.312076 323.964453 
L 303.173097 324.094769 
L 303.034118 324.036802 
L 302.75616 324.766674 
L 302.200245 324.813121 
L 302.061266 324.385632 
L 301.922288 324.397813 
L 301.783309 324.093082 
L 300.810457 322.520852 
L 300.254542 323.090764 
L 300.115563 323.574533 
L 299.976584 323.54078 
L 299.420669 324.469208 
L 299.28169 324.337131 
L 299.142711 324.41058 
L 299.003732 324.189938 
L 298.308838 324.045607 
L 297.891901 324.588077 
L 297.335986 324.132705 
L 297.197007 324.287748 
L 297.058028 324.838069 
L 295.946198 323.594564 
L 295.529261 323.90766 
L 295.251304 323.480098 
L 295.112325 323.549585 
L 294.973346 323.994758 
L 294.55641 324.102841 
L 294.417431 324.458495 
L 294.278452 325.5777 
L 294.139473 325.70831 
L 294.000494 324.874757 
L 293.583558 324.967211 
L 293.444579 324.580739 
L 293.027642 324.78135 
L 292.471727 325.426032 
L 292.332748 325.356104 
L 292.054791 325.578654 
L 291.637854 325.514083 
L 291.359896 325.28515 
L 291.081939 326.026762 
L 290.665002 326.072769 
L 290.526024 325.887347 
L 290.387045 324.593507 
L 290.109087 323.414059 
L 289.692151 323.638223 
L 289.136235 322.650948 
L 288.58032 322.746337 
L 288.441341 323.138165 
L 288.302362 323.045711 
L 288.163383 323.1524 
L 287.746447 323.088269 
L 287.607468 323.213009 
L 287.468489 322.783025 
L 287.190532 323.749168 
L 286.773595 323.144035 
L 286.634616 323.387204 
L 286.495637 323.944862 
L 286.356659 323.994097 
L 286.21768 324.534806 
L 285.800743 324.806738 
L 285.661764 324.708927 
L 285.522786 324.806297 
L 285.383807 325.129592 
L 284.827892 325.65746 
L 284.549934 326.366273 
L 284.410955 326.379481 
L 284.271976 326.201397 
L 283.85504 326.097203 
L 283.716061 326.222456 
L 283.577082 326.188703 
L 283.438103 325.923082 
L 283.299124 325.916184 
L 282.882188 325.58357 
L 282.465251 325.828647 
L 282.326273 326.229794 
L 281.770357 326.524252 
L 281.4924 325.551285 
L 281.353421 325.571317 
L 280.797505 326.263987 
L 280.519548 326.220475 
L 280.380569 326.388286 
L 279.963632 326.591244 
L 279.824654 326.456746 
L 279.685675 326.580531 
L 279.546696 326.86325 
L 279.407717 326.708646 
L 278.712823 326.491086 
L 278.573844 326.245423 
L 278.434865 326.232729 
L 277.87895 326.809465 
L 277.600992 326.669023 
L 277.045077 327.898366 
L 276.906098 327.784853 
L 276.767119 327.902255 
L 276.628141 327.849424 
L 276.489162 328.343979 
L 276.072225 328.670723 
L 275.794268 329.102174 
L 275.655289 328.626257 
L 274.960395 328.579737 
L 274.682437 328.953001 
L 274.543458 329.504275 
L 274.126522 329.521446 
L 273.709585 329.159921 
L 273.570606 329.267051 
L 273.014691 329.189786 
L 272.875712 329.112961 
L 272.597755 329.430459 
L 272.041839 328.633081 
L 271.90286 327.713899 
L 271.207966 328.230466 
L 270.930009 327.773113 
L 270.79103 327.521213 
L 270.652051 327.844068 
L 270.235114 328.325415 
L 270.096136 328.314115 
L 269.818178 328.861061 
L 269.262263 329.243644 
L 268.984305 329.193674 
L 268.845326 329.062111 
L 268.289411 329.203433 
L 268.011453 328.936344 
L 267.733495 329.306674 
L 267.316559 329.54588 
L 267.17758 329.414757 
L 267.038601 329.853546 
L 266.899623 329.841365 
L 266.343707 329.944532 
L 266.204728 330.294316 
L 266.06575 330.329536 
L 265.787792 330.234661 
L 265.092898 330.426393 
L 264.953919 330.801565 
L 264.398004 330.940026 
L 264.259025 330.856891 
L 264.120046 330.631846 
L 263.981067 330.707644 
L 263.286173 331.30742 
L 263.147194 331.197796 
L 262.869236 331.578398 
L 262.035363 331.733441 
L 261.896385 332.069064 
L 261.201491 332.118959 
L 261.062512 332.452527 
L 260.923533 332.339528 
L 260.506596 332.535736 
L 259.950681 331.827876 
L 259.255787 332.009189 
L 258.977829 332.339528 
L 258.560893 332.138477 
L 258.282935 332.543073 
L 258.004977 332.37086 
L 257.588041 332.340042 
L 257.171104 331.918863 
L 257.032126 332.075374 
L 256.337231 332.153446 
L 256.059274 331.6743 
L 255.642337 331.53584 
L 255.503358 331.125887 
L 255.36438 331.640034 
L 255.086422 331.603052 
L 254.530507 331.649352 
L 254.391528 331.470315 
L 254.11357 331.874837 
L 253.140718 331.593587 
L 252.723782 331.731534 
L 252.584803 331.590138 
L 252.445824 331.152816 
L 252.167867 331.029618 
L 251.75093 331.552496 
L 251.333994 331.307787 
L 251.195015 331.257964 
L 250.778078 331.298101 
L 250.500121 331.453658 
L 250.222163 331.334789 
L 249.666248 331.672833 
L 249.527269 331.897584 
L 248.693396 331.801461 
L 248.554417 331.478239 
L 248.415438 331.637099 
L 247.859523 331.63952 
L 247.581565 331.179745 
L 247.303608 330.79819 
L 246.747692 330.631846 
L 246.469735 330.402399 
L 246.330756 330.567789 
L 245.496883 330.466016 
L 245.357904 330.353017 
L 244.801989 330.447452 
L 244.524031 330.253372 
L 244.385052 330.348101 
L 243.829137 330.286465 
L 243.551179 330.334893 
L 243.4122 330.00426 
L 242.995264 330.070299 
L 242.856285 330.291381 
L 242.717306 330.16422 
L 242.578327 330.328583 
L 242.439349 330.260563 
L 242.022412 330.597579 
L 241.744454 330.338342 
L 241.466497 330.470932 
L 241.04956 330.683209 
L 240.632624 330.450827 
L 240.493645 330.486048 
L 239.659772 331.08465 
L 239.103857 330.903851 
L 238.547941 331.854292 
L 238.131005 332.034797 
L 237.992026 331.915928 
L 237.853047 331.505022 
L 237.714068 330.692088 
L 237.57509 330.634267 
L 237.019174 330.91361 
L 236.741217 330.710138 
L 236.602238 330.535503 
L 236.185301 330.42786 
L 235.907344 329.798073 
L 235.768365 330.111389 
L 235.629386 330.773682 
L 235.212449 330.722832 
L 235.073471 330.822184 
L 234.795513 330.585399 
L 234.100619 330.560451 
L 233.822661 330.879344 
L 233.683682 330.690547 
L 233.266746 330.790852 
L 232.849809 331.315711 
L 232.71083 331.152816 
L 232.154915 331.225239 
L 232.015936 331.038863 
L 231.876958 331.332808 
L 231.737979 331.006064 
L 231.321042 330.995278 
L 231.043085 330.110362 
L 230.765127 329.683313 
L 230.34819 329.42701 
L 230.070233 329.105623 
L 229.792275 328.989175 
L 229.097381 329.171148 
L 228.958402 329.136441 
L 228.819423 328.943682 
L 228.402487 329.125215 
L 228.263508 329.015664 
L 227.98555 329.262134 
L 227.846571 328.910443 
L 227.429635 328.820924 
L 227.290656 328.404148 
L 227.151677 328.48244 
L 226.87372 329.246505 
L 226.456783 329.452912 
L 226.178825 330.059512 
L 226.039847 330.212135 
L 225.900868 330.093265 
L 225.344953 330.382954 
L 225.066995 329.888766 
L 224.928016 329.845254 
L 224.51108 330.109408 
L 224.094143 330.868117 
L 223.538228 331.335303 
L 223.399249 331.145992 
L 223.121291 331.429224 
L 222.982312 331.321581 
L 222.565376 331.598943 
L 222.287418 332.357652 
L 222.148439 331.994293 
L 222.009461 331.974629 
L 221.453545 332.357652 
L 221.314566 332.798862 
L 221.175588 332.689825 
L 220.619672 333.386385 
L 220.480693 333.119296 
L 220.202736 333.608494 
L 219.646821 333.899064 
L 219.507842 333.593305 
L 219.368863 333.998855 
L 219.229884 333.763024 
L 219.090905 333.892166 
L 218.257032 332.132607 
L 218.118053 331.819585 
L 217.562138 332.22264 
L 217.28418 331.90272 
L 217.145202 331.621469 
L 216.728265 331.527034 
L 216.450307 331.733441 
L 216.311329 331.283939 
L 215.755413 331.548093 
L 215.477456 331.177251 
L 214.504604 330.815286 
L 214.226646 330.261077 
L 213.531752 329.661594 
L 213.253794 330.231726 
L 212.5589 330.159818 
L 212.419921 330.008149 
L 211.864006 330.039921 
L 211.725027 329.948935 
L 211.586048 330.089817 
L 211.44707 330.709111 
L 211.308091 330.772728 
L 210.474218 330.387283 
L 210.335239 330.053129 
L 209.918302 330.168623 
L 209.640345 329.907844 
L 209.501366 329.937194 
L 209.362387 330.119167 
L 208.667493 330.288226 
L 208.389535 330.857844 
L 207.83362 330.514958 
L 207.416684 331.063297 
L 206.999747 331.160668 
L 206.860768 330.86665 
L 206.721789 330.843169 
L 206.582811 330.636762 
L 206.443832 330.182271 
L 205.748938 330.194524 
L 205.609959 331.089713 
L 205.47098 331.023161 
L 205.054043 331.227146 
L 204.637107 330.959617 
L 204.498128 331.019272 
L 203.803234 331.071589 
L 203.525276 330.272303 
L 203.10834 330.305029 
L 202.969361 330.733105 
L 202.691403 330.694362 
L 202.135488 330.603963 
L 201.579573 329.358037 
L 201.023657 329.423562 
L 200.606721 328.871333 
L 200.189784 328.523017 
L 199.911827 328.759288 
L 199.772848 328.731405 
L 199.633869 328.295037 
L 199.216933 328.674172 
L 199.077954 328.59199 
L 198.938975 328.720179 
L 198.799996 329.125215 
L 198.661017 329.142311 
L 198.105102 329.314818 
L 197.966123 329.142311 
L 197.827144 329.391276 
L 197.271229 329.639288 
L 197.13225 329.248486 
L 196.854292 329.54588 
L 196.715314 329.108045 
L 196.298377 329.279304 
L 196.159398 329.607002 
L 196.02042 330.426393 
L 195.325525 329.653522 
L 195.047568 328.829215 
L 194.908589 328.81454 
L 194.76961 329.027844 
L 193.935737 329.873651 
L 193.796758 329.694099 
L 193.379822 329.656898 
L 193.101864 328.32292 
L 192.962885 328.532336 
L 192.823906 328.532776 
L 192.40697 328.403194 
L 192.267991 328.521549 
L 192.129012 328.475102 
L 191.851055 328.644234 
L 191.434118 328.318518 
L 191.15616 328.399231 
L 191.017182 328.200676 
L 190.878203 327.557387 
L 190.461266 328.100884 
L 190.322288 328.508855 
L 190.04433 328.567996 
L 189.905351 328.736321 
L 189.349436 328.71673 
L 189.210457 328.821878 
L 188.932499 327.800042 
L 188.376584 327.762841 
L 188.098626 328.326883 
L 187.959647 328.569978 
L 187.403732 328.302889 
L 187.264753 328.501518 
L 187.125774 328.469673 
L 186.986796 328.645775 
L 186.291901 328.647756 
L 186.013944 329.287596 
L 185.180071 328.971565 
L 185.041092 328.922183 
L 184.485177 329.384452 
L 184.346198 329.314965 
L 184.207219 329.379536 
L 184.06824 329.271967 
L 183.512325 329.262134 
L 183.373346 329.374693 
L 183.234367 329.252375 
L 182.400494 329.460763 
L 182.261515 329.301317 
L 182.122537 329.355102 
L 181.7056 329.379536 
L 181.566621 329.600178 
L 181.427642 329.433394 
L 180.454791 330.109922 
L 180.315812 329.863818 
L 180.176833 330.097154 
L 179.620918 330.187187 
L 179.203981 329.900506 
L 178.787045 330.778598 
L 178.509087 330.725767 
L 178.231129 331.412054 
L 177.814193 331.459528 
L 177.536235 331.326938 
L 177.397256 331.331854 
L 177.258278 331.160154 
L 176.563383 331.26288 
L 176.424405 331.548534 
L 176.285426 331.41697 
L 175.590532 332.172744 
L 175.451553 332.101349 
L 174.895637 332.32001 
L 174.478701 331.610683 
L 174.339722 331.771597 
L 173.922786 331.845487 
L 173.783807 331.571574 
L 173.36687 331.996128 
L 172.949934 332.199673 
L 172.671976 331.98292 
L 172.532997 332.114043 
L 172.394019 332.065615 
L 171.977082 331.759417 
L 171.838103 331.493281 
L 171.560146 331.784144 
L 171.421167 331.632696 
L 170.865251 331.253562 
L 170.726273 331.446834 
L 170.587294 331.439497 
L 170.448315 330.905759 
L 170.031378 330.935109 
L 169.614442 331.517275 
L 169.058527 331.50304 
L 168.919548 331.645023 
L 168.64159 330.793273 
L 168.502611 330.918967 
L 167.946696 330.549665 
L 167.529759 331.211517 
L 166.834865 331.48455 
L 166.556908 331.374412 
L 165.862014 331.860676 
L 165.723035 332.083739 
L 164.889162 332.030908 
L 164.750183 331.423794 
L 164.611204 331.577444 
L 162.6655 330.430795 
L 162.248564 330.401959 
L 161.970606 330.695463 
L 161.692649 330.619152 
L 161.136733 330.894019 
L 160.858776 331.61604 
L 160.719797 331.316665 
L 160.30286 331.224725 
L 160.024903 330.97576 
L 159.885924 330.928799 
L 159.746945 330.579969 
L 159.19103 330.284557 
L 159.052051 330.342231 
L 158.774093 329.718534 
L 157.94022 329.363907 
L 157.801241 329.467587 
L 157.384305 329.21422 
L 157.245326 329.304693 
L 157.106347 329.258245 
L 156.967368 328.861501 
L 156.82839 328.909929 
L 156.411453 328.917267 
L 155.994517 329.26118 
L 155.855538 329.698502 
L 155.438601 329.700483 
L 155.299623 329.512127 
L 155.160644 329.772832 
L 155.021665 329.724404 
L 154.882686 329.469569 
L 154.187792 329.766008 
L 154.048813 329.61434 
L 153.909834 330.103024 
L 153.492898 329.947027 
L 153.353919 330.021357 
L 153.21494 329.967059 
L 152.936982 330.211181 
L 152.520046 330.095247 
L 152.381067 330.332472 
L 152.103109 330.207732 
L 151.964131 329.890087 
L 151.547194 329.551236 
L 151.408215 328.590009 
L 151.130258 328.789592 
L 150.991279 328.739256 
L 150.435363 329.213706 
L 150.296385 329.709288 
L 150.018427 329.416738 
L 149.601491 329.363393 
L 149.462512 329.107604 
L 149.323533 329.211285 
L 149.045575 329.055727 
L 148.350681 328.6311 
L 148.211702 328.740724 
L 148.072723 328.15665 
L 147.516808 327.648374 
L 147.377829 327.81369 
L 147.23885 327.614107 
L 146.682935 327.740828 
L 146.543956 327.324051 
L 145.432126 328.653626 
L 145.293147 328.59199 
L 144.598253 328.919761 
L 144.320295 328.893786 
L 144.181316 328.50592 
L 143.625401 328.714308 
L 143.486422 328.585166 
L 143.347443 328.846385 
L 143.208464 328.678061 
L 142.791528 329.264116 
L 142.652549 329.023075 
L 142.235613 329.81495 
L 141.818676 329.961702 
L 141.540718 330.348101 
L 141.40174 330.411718 
L 141.262761 330.230699 
L 140.428888 330.65628 
L 139.872972 330.758567 
L 139.733994 330.790852 
L 139.456036 330.44349 
L 139.317057 330.387724 
L 138.900121 330.739489 
L 138.622163 330.611301 
L 138.483184 330.770747 
L 138.344205 330.339295 
L 137.78829 330.235688 
L 137.649311 329.725431 
L 137.371354 329.619769 
L 136.676459 329.959207 
L 136.537481 329.747444 
L 135.981565 330.265479 
L 135.842586 330.068831 
L 135.703608 330.244934 
L 135.564629 330.057531 
L 135.42565 330.549151 
L 135.008713 331.463931 
L 134.869735 331.312776 
L 134.730756 331.551469 
L 134.452798 331.30742 
L 133.896883 331.346016 
L 133.757904 331.489833 
L 133.06301 331.072103 
L 132.785052 331.17138 
L 132.646073 331.117596 
L 131.951179 331.459528 
L 131.8122 331.802415 
L 131.534243 331.948213 
L 130.978327 332.155134 
L 130.839349 332.114997 
L 130.144454 332.608084 
L 129.727518 330.883306 
L 129.588539 330.930707 
L 129.171603 331.240354 
L 129.032624 331.110258 
L 128.754666 331.446394 
L 128.615687 331.610683 
L 128.198751 331.468334 
L 127.920793 330.977227 
L 127.781814 330.850507 
L 127.642835 331.492768 
L 126.808962 331.830811 
L 126.669984 331.383217 
L 126.253047 331.453658 
L 126.114068 330.940026 
L 125.97509 330.893579 
L 125.697132 331.003643 
L 125.141217 330.048286 
L 125.002238 330.284997 
L 124.863259 330.90774 
L 124.72428 330.976714 
L 124.307344 330.978181 
L 124.168365 331.130803 
L 123.890407 330.47284 
L 123.056534 329.763587 
L 122.917555 329.766008 
L 122.778576 329.940643 
L 122.36164 329.989218 
L 122.083682 329.472504 
L 121.805725 329.692632 
L 121.249809 328.983305 
L 121.11083 329.008253 
L 120.971852 328.861061 
L 120.832873 329.269472 
L 120.415936 329.219136 
L 120.137979 328.616425 
L 119.999 328.90017 
L 119.860021 330.897981 
L 119.443085 331.112239 
L 119.304106 331.052071 
L 119.165127 331.615086 
L 119.026148 331.5026 
L 118.192275 331.880781 
L 118.053296 331.688462 
L 117.914317 331.830298 
L 117.219423 332.745591 
L 116.38555 332.540578 
L 116.246571 332.818967 
L 115.551677 332.750948 
L 115.412698 332.65798 
L 115.134741 332.907019 
L 114.300868 333.154516 
L 114.02291 334.388702 
L 113.605974 334.295735 
L 113.328016 334.060931 
L 113.050058 334.222359 
L 111.521291 333.850635 
L 111.243334 333.998855 
L 111.104355 334.425904 
L 110.687418 334.518358 
L 110.548439 334.388702 
L 110.409461 334.00223 
L 110.270482 334.015438 
L 110.131503 334.220891 
L 109.714566 334.153899 
L 109.436609 334.581902 
L 109.29763 334.443954 
L 109.158651 334.64794 
L 108.324778 334.489448 
L 108.185799 335.291228 
L 107.768863 335.191437 
L 107.212948 335.423819 
L 106.796011 335.574974 
L 106.379075 335.269215 
L 106.240096 334.953698 
L 105.68418 334.711557 
L 105.267244 334.465967 
L 104.850307 334.701798 
L 104.711329 334.454741 
L 104.433371 332.704501 
L 104.294392 332.999913 
L 103.738477 333.633442 
L 103.599498 333.377066 
L 103.460519 333.486396 
L 103.32154 333.239119 
L 102.765625 333.043498 
L 102.626646 333.175062 
L 102.348689 332.608598 
L 101.514816 332.344518 
L 101.375837 332.65211 
L 100.9589 332.809282 
L 100.680943 333.019504 
L 100.541964 332.484372 
L 100.402985 332.44519 
L 99.84707 332.789617 
L 99.569112 332.078309 
L 99.430133 332.065101 
L 98.874218 332.300932 
L 98.59626 332.531773 
L 98.040345 332.489215 
L 97.901366 332.751461 
L 97.762387 333.388366 
L 97.484429 333.222022 
L 96.928514 333.422119 
L 96.650557 333.385871 
L 96.511578 333.532623 
L 95.677705 333.082608 
L 94.982811 333.373691 
L 94.843832 333.19025 
L 94.704853 333.322327 
L 94.565874 333.116874 
L 94.009959 333.876023 
L 93.87098 334.226835 
L 93.593022 334.370138 
L 93.037107 334.555046 
L 92.898128 334.494364 
L 92.62017 334.217516 
L 92.064255 333.807564 
L 91.925276 334.63576 
L 91.786297 334.450852 
L 91.647319 334.491942 
L 90.952425 334.976958 
L 90.813446 334.853907 
L 89.979573 335.489344 
L 89.701615 335.382728 
L 89.284679 335.682543 
L 89.1457 335.575928 
L 89.006721 335.630226 
L 88.728763 335.060901 
L 88.311827 335.223209 
L 88.033869 335.550466 
L 87.89489 335.449207 
L 87.755911 335.602857 
L 87.061017 335.74616 
L 86.922038 335.617018 
L 86.78306 335.818582 
L 86.366123 336.22604 
L 86.227144 336.186417 
L 85.949187 336.482342 
L 85.810208 336.547427 
L 85.393271 336.50685 
L 85.254292 336.339039 
L 84.42042 336.564524 
L 84.281441 336.723016 
L 84.142462 336.664315 
L 84.003483 336.752367 
L 83.864504 336.564524 
L 83.447568 336.54596 
L 83.16961 336.787147 
L 83.030631 336.862944 
L 82.891652 336.804243 
L 82.196758 335.958951 
L 81.362885 337.029728 
L 81.084928 337.177508 
L 80.945949 337.054676 
L 80.390033 336.932431 
L 80.251055 337.329616 
L 80.112076 336.828678 
L 79.973097 337.274804 
L 79.417182 337.873113 
L 79.278203 338.732567 
L 79.139224 338.528582 
L 79.000245 338.661172 
L 78.305351 338.84065 
L 78.166372 338.733521 
L 78.027393 338.889592 
L 76.637605 339.139585 
L 76.359647 339.33183 
L 76.220669 339.322511 
L 76.08169 339.436978 
L 75.525774 339.40029 
L 75.247817 339.533321 
L 75.108838 339.4981 
L 74.413944 339.453121 
L 74.135986 339.296096 
L 73.441092 339.702086 
L 72.329261 339.838125 
L 72.329261 339.838125 
" clip-path="url(#p7857508242)" style="fill: none; stroke: #000000; stroke-width: 0.4; stroke-linecap: square"/>
   </g>
   <g id="patch_3">
    <path d="M 46.965625 354.958125 
L 46.965625 22.318125 
" style="fill: none; stroke: #000000; stroke-width: 0.8; stroke-linejoin: miter; stroke-linecap: square"/>
   </g>
   <g id="patch_4">
    <path d="M 604.965625 354.958125 
L 604.965625 22.318125 
" style="fill: none; stroke: #000000; stroke-width: 0.8; stroke-linejoin: miter; stroke-linecap: square"/>
   </g>
   <g id="patch_5">
    <path d="M 46.965625 354.958125 
L 604.965625 354.958125 
" style="fill: none; stroke: #000000; stroke-width: 0.8; stroke-linejoin: miter; stroke-linecap: square"/>
   </g>
   <g id="patch_6">
    <path d="M 46.965625 22.318125 
L 604.965625 22.318125 
" style="fill: none; stroke: #000000; stroke-width: 0.8; stroke-linejoin: miter; stroke-linecap: square"/>
   </g>
   <g id="text_18">
    <!-- TSLA, High Price (2013-2023) -->
    <g transform="translate(237.4675 16.318125)scale(0.12 -0.12)">
     <defs>
      <path id="DejaVuSans-54" d="M -19 4666 
L 3928 4666 
L 3928 4134 
L 2272 4134 
L 2272 0 
L 1638 0 
L 1638 4134 
L -19 4134 
L -19 4666 
z
" transform="scale(0.015625)"/>
      <path id="DejaVuSans-4c" d="M 628 4666 
L 1259 4666 
L 1259 531 
L 3531 531 
L 3531 0 
L 628 0 
L 628 4666 
z
" transform="scale(0.015625)"/>
      <path id="DejaVuSans-41" d="M 2188 4044 
L 1331 1722 
L 3047 1722 
L 2188 4044 
z
M 1831 4666 
L 2547 4666 
L 4325 0 
L 3669 0 
L 3244 1197 
L 1141 1197 
L 716 0 
L 50 0 
L 1831 4666 
z
" transform="scale(0.015625)"/>
      <path id="DejaVuSans-2c" d="M 750 794 
L 1409 794 
L 1409 256 
L 897 -744 
L 494 -744 
L 750 256 
L 750 794 
z
" transform="scale(0.015625)"/>
      <path id="DejaVuSans-48" d="M 628 4666 
L 1259 4666 
L 1259 2753 
L 3553 2753 
L 3553 4666 
L 4184 4666 
L 4184 0 
L 3553 0 
L 3553 2222 
L 1259 2222 
L 1259 0 
L 628 0 
L 628 4666 
z
" transform="scale(0.015625)"/>
      <path id="DejaVuSans-67" d="M 2906 1791 
Q 2906 2416 2648 2759 
Q 2391 3103 1925 3103 
Q 1463 3103 1205 2759 
Q 947 2416 947 1791 
Q 947 1169 1205 825 
Q 1463 481 1925 481 
Q 2391 481 2648 825 
Q 2906 1169 2906 1791 
z
M 3481 434 
Q 3481 -459 3084 -895 
Q 2688 -1331 1869 -1331 
Q 1566 -1331 1297 -1286 
Q 1028 -1241 775 -1147 
L 775 -588 
Q 1028 -725 1275 -790 
Q 1522 -856 1778 -856 
Q 2344 -856 2625 -561 
Q 2906 -266 2906 331 
L 2906 616 
Q 2728 306 2450 153 
Q 2172 0 1784 0 
Q 1141 0 747 490 
Q 353 981 353 1791 
Q 353 2603 747 3093 
Q 1141 3584 1784 3584 
Q 2172 3584 2450 3431 
Q 2728 3278 2906 2969 
L 2906 3500 
L 3481 3500 
L 3481 434 
z
" transform="scale(0.015625)"/>
      <path id="DejaVuSans-68" d="M 3513 2113 
L 3513 0 
L 2938 0 
L 2938 2094 
Q 2938 2591 2744 2837 
Q 2550 3084 2163 3084 
Q 1697 3084 1428 2787 
Q 1159 2491 1159 1978 
L 1159 0 
L 581 0 
L 581 4863 
L 1159 4863 
L 1159 2956 
Q 1366 3272 1645 3428 
Q 1925 3584 2291 3584 
Q 2894 3584 3203 3211 
Q 3513 2838 3513 2113 
z
" transform="scale(0.015625)"/>
      <path id="DejaVuSans-2d" d="M 313 2009 
L 1997 2009 
L 1997 1497 
L 313 1497 
L 313 2009 
z
" transform="scale(0.015625)"/>
     </defs>
     <use xlink:href="#DejaVuSans-54"/>
     <use xlink:href="#DejaVuSans-53" x="61.083984"/>
     <use xlink:href="#DejaVuSans-4c" x="124.560547"/>
     <use xlink:href="#DejaVuSans-41" x="182.523438"/>
     <use xlink:href="#DejaVuSans-2c" x="250.931641"/>
     <use xlink:href="#DejaVuSans-20" x="282.71875"/>
     <use xlink:href="#DejaVuSans-48" x="314.505859"/>
     <use xlink:href="#DejaVuSans-69" x="389.701172"/>
     <use xlink:href="#DejaVuSans-67" x="417.484375"/>
     <use xlink:href="#DejaVuSans-68" x="480.960938"/>
     <use xlink:href="#DejaVuSans-20" x="544.339844"/>
     <use xlink:href="#DejaVuSans-50" x="576.126953"/>
     <use xlink:href="#DejaVuSans-72" x="634.679688"/>
     <use xlink:href="#DejaVuSans-69" x="675.792969"/>
     <use xlink:href="#DejaVuSans-63" x="703.576172"/>
     <use xlink:href="#DejaVuSans-65" x="758.556641"/>
     <use xlink:href="#DejaVuSans-20" x="820.080078"/>
     <use xlink:href="#DejaVuSans-28" x="851.867188"/>
     <use xlink:href="#DejaVuSans-32" x="890.880859"/>
     <use xlink:href="#DejaVuSans-30" x="954.503906"/>
     <use xlink:href="#DejaVuSans-31" x="1018.126953"/>
     <use xlink:href="#DejaVuSans-33" x="1081.75"/>
     <use xlink:href="#DejaVuSans-2d" x="1145.373047"/>
     <use xlink:href="#DejaVuSans-32" x="1181.457031"/>
     <use xlink:href="#DejaVuSans-30" x="1245.080078"/>
     <use xlink:href="#DejaVuSans-32" x="1308.703125"/>
     <use xlink:href="#DejaVuSans-33" x="1372.326172"/>
     <use xlink:href="#DejaVuSans-29" x="1435.949219"/>
    </g>
   </g>
  </g>
 </g>
 <defs>
  <clipPath id="p7857508242">
   <rect x="46.965625" y="22.318125" width="558" height="332.64"/>
  </clipPath>
 </defs>
</svg>
