<?xml version="1.0" encoding="utf-8" standalone="no"?>
<!DOCTYPE svg PUBLIC "-//W3C//DTD SVG 1.1//EN"
  "http://www.w3.org/Graphics/SVG/1.1/DTD/svg11.dtd">
<svg xmlns:xlink="http://www.w3.org/1999/xlink" width="612.165625pt" height="378.83625pt" viewBox="0 0 612.165625 378.83625" xmlns="http://www.w3.org/2000/svg" version="1.1">
 <metadata>
  <rdf:RDF xmlns:dc="http://purl.org/dc/elements/1.1/" xmlns:cc="http://creativecommons.org/ns#" xmlns:rdf="http://www.w3.org/1999/02/22-rdf-syntax-ns#">
   <cc:Work>
    <dc:type rdf:resource="http://purl.org/dc/dcmitype/StillImage"/>
    <dc:date>2023-03-19T13:38:55.817387</dc:date>
    <dc:format>image/svg+xml</dc:format>
    <dc:creator>
     <cc:Agent>
      <dc:title>Matplotlib v3.5.1, https://matplotlib.org/</dc:title>
     </cc:Agent>
    </dc:creator>
   </cc:Work>
  </rdf:RDF>
 </metadata>
 <defs>
  <style type="text/css">*{stroke-linejoin: round; stroke-linecap: butt}</style>
 </defs>
 <g id="figure_1">
  <g id="patch_1">
   <path d="M 0 378.83625 
L 612.165625 378.83625 
L 612.165625 0 
L 0 0 
z
" style="fill: #ffffff"/>
  </g>
  <g id="axes_1">
   <g id="patch_2">
    <path d="M 46.965625 354.958125 
L 604.965625 354.958125 
L 604.965625 22.318125 
L 46.965625 22.318125 
z
" style="fill: #ffffff"/>
   </g>
   <g id="matplotlib.axis_1">
    <g id="xtick_1">
     <g id="line2d_1">
      <defs>
       <path id="m5364d8fb82" d="M 0 0 
L 0 3.5 
" style="stroke: #000000; stroke-width: 0.8"/>
      </defs>
      <g>
       <use xlink:href="#m5364d8fb82" x="61.627892" y="354.958125" style="stroke: #000000; stroke-width: 0.8"/>
      </g>
     </g>
     <g id="text_1">
      <!-- 2013 -->
      <g transform="translate(48.902892 369.556562)scale(0.1 -0.1)">
       <defs>
        <path id="DejaVuSans-32" d="M 1228 531 
L 3431 531 
L 3431 0 
L 469 0 
L 469 531 
Q 828 903 1448 1529 
Q 2069 2156 2228 2338 
Q 2531 2678 2651 2914 
Q 2772 3150 2772 3378 
Q 2772 3750 2511 3984 
Q 2250 4219 1831 4219 
Q 1534 4219 1204 4116 
Q 875 4013 500 3803 
L 500 4441 
Q 881 4594 1212 4672 
Q 1544 4750 1819 4750 
Q 2544 4750 2975 4387 
Q 3406 4025 3406 3419 
Q 3406 3131 3298 2873 
Q 3191 2616 2906 2266 
Q 2828 2175 2409 1742 
Q 1991 1309 1228 531 
z
" transform="scale(0.015625)"/>
        <path id="DejaVuSans-30" d="M 2034 4250 
Q 1547 4250 1301 3770 
Q 1056 3291 1056 2328 
Q 1056 1369 1301 889 
Q 1547 409 2034 409 
Q 2525 409 2770 889 
Q 3016 1369 3016 2328 
Q 3016 3291 2770 3770 
Q 2525 4250 2034 4250 
z
M 2034 4750 
Q 2819 4750 3233 4129 
Q 3647 3509 3647 2328 
Q 3647 1150 3233 529 
Q 2819 -91 2034 -91 
Q 1250 -91 836 529 
Q 422 1150 422 2328 
Q 422 3509 836 4129 
Q 1250 4750 2034 4750 
z
" transform="scale(0.015625)"/>
        <path id="DejaVuSans-31" d="M 794 531 
L 1825 531 
L 1825 4091 
L 703 3866 
L 703 4441 
L 1819 4666 
L 2450 4666 
L 2450 531 
L 3481 531 
L 3481 0 
L 794 0 
L 794 531 
z
" transform="scale(0.015625)"/>
        <path id="DejaVuSans-33" d="M 2597 2516 
Q 3050 2419 3304 2112 
Q 3559 1806 3559 1356 
Q 3559 666 3084 287 
Q 2609 -91 1734 -91 
Q 1441 -91 1130 -33 
Q 819 25 488 141 
L 488 750 
Q 750 597 1062 519 
Q 1375 441 1716 441 
Q 2309 441 2620 675 
Q 2931 909 2931 1356 
Q 2931 1769 2642 2001 
Q 2353 2234 1838 2234 
L 1294 2234 
L 1294 2753 
L 1863 2753 
Q 2328 2753 2575 2939 
Q 2822 3125 2822 3475 
Q 2822 3834 2567 4026 
Q 2313 4219 1838 4219 
Q 1578 4219 1281 4162 
Q 984 4106 628 3988 
L 628 4550 
Q 988 4650 1302 4700 
Q 1616 4750 1894 4750 
Q 2613 4750 3031 4423 
Q 3450 4097 3450 3541 
Q 3450 3153 3228 2886 
Q 3006 2619 2597 2516 
z
" transform="scale(0.015625)"/>
       </defs>
       <use xlink:href="#DejaVuSans-32"/>
       <use xlink:href="#DejaVuSans-30" x="63.623047"/>
       <use xlink:href="#DejaVuSans-31" x="127.246094"/>
       <use xlink:href="#DejaVuSans-33" x="190.869141"/>
      </g>
     </g>
    </g>
    <g id="xtick_2">
     <g id="line2d_2">
      <g>
       <use xlink:href="#m5364d8fb82" x="112.355164" y="354.958125" style="stroke: #000000; stroke-width: 0.8"/>
      </g>
     </g>
     <g id="text_2">
      <!-- 2014 -->
      <g transform="translate(99.630164 369.556562)scale(0.1 -0.1)">
       <defs>
        <path id="DejaVuSans-34" d="M 2419 4116 
L 825 1625 
L 2419 1625 
L 2419 4116 
z
M 2253 4666 
L 3047 4666 
L 3047 1625 
L 3713 1625 
L 3713 1100 
L 3047 1100 
L 3047 0 
L 2419 0 
L 2419 1100 
L 313 1100 
L 313 1709 
L 2253 4666 
z
" transform="scale(0.015625)"/>
       </defs>
       <use xlink:href="#DejaVuSans-32"/>
       <use xlink:href="#DejaVuSans-30" x="63.623047"/>
       <use xlink:href="#DejaVuSans-31" x="127.246094"/>
       <use xlink:href="#DejaVuSans-34" x="190.869141"/>
      </g>
     </g>
    </g>
    <g id="xtick_3">
     <g id="line2d_3">
      <g>
       <use xlink:href="#m5364d8fb82" x="163.082437" y="354.958125" style="stroke: #000000; stroke-width: 0.8"/>
      </g>
     </g>
     <g id="text_3">
      <!-- 2015 -->
      <g transform="translate(150.357437 369.556562)scale(0.1 -0.1)">
       <defs>
        <path id="DejaVuSans-35" d="M 691 4666 
L 3169 4666 
L 3169 4134 
L 1269 4134 
L 1269 2991 
Q 1406 3038 1543 3061 
Q 1681 3084 1819 3084 
Q 2600 3084 3056 2656 
Q 3513 2228 3513 1497 
Q 3513 744 3044 326 
Q 2575 -91 1722 -91 
Q 1428 -91 1123 -41 
Q 819 9 494 109 
L 494 744 
Q 775 591 1075 516 
Q 1375 441 1709 441 
Q 2250 441 2565 725 
Q 2881 1009 2881 1497 
Q 2881 1984 2565 2268 
Q 2250 2553 1709 2553 
Q 1456 2553 1204 2497 
Q 953 2441 691 2322 
L 691 4666 
z
" transform="scale(0.015625)"/>
       </defs>
       <use xlink:href="#DejaVuSans-32"/>
       <use xlink:href="#DejaVuSans-30" x="63.623047"/>
       <use xlink:href="#DejaVuSans-31" x="127.246094"/>
       <use xlink:href="#DejaVuSans-35" x="190.869141"/>
      </g>
     </g>
    </g>
    <g id="xtick_4">
     <g id="line2d_4">
      <g>
       <use xlink:href="#m5364d8fb82" x="213.80971" y="354.958125" style="stroke: #000000; stroke-width: 0.8"/>
      </g>
     </g>
     <g id="text_4">
      <!-- 2016 -->
      <g transform="translate(201.08471 369.556562)scale(0.1 -0.1)">
       <defs>
        <path id="DejaVuSans-36" d="M 2113 2584 
Q 1688 2584 1439 2293 
Q 1191 2003 1191 1497 
Q 1191 994 1439 701 
Q 1688 409 2113 409 
Q 2538 409 2786 701 
Q 3034 994 3034 1497 
Q 3034 2003 2786 2293 
Q 2538 2584 2113 2584 
z
M 3366 4563 
L 3366 3988 
Q 3128 4100 2886 4159 
Q 2644 4219 2406 4219 
Q 1781 4219 1451 3797 
Q 1122 3375 1075 2522 
Q 1259 2794 1537 2939 
Q 1816 3084 2150 3084 
Q 2853 3084 3261 2657 
Q 3669 2231 3669 1497 
Q 3669 778 3244 343 
Q 2819 -91 2113 -91 
Q 1303 -91 875 529 
Q 447 1150 447 2328 
Q 447 3434 972 4092 
Q 1497 4750 2381 4750 
Q 2619 4750 2861 4703 
Q 3103 4656 3366 4563 
z
" transform="scale(0.015625)"/>
       </defs>
       <use xlink:href="#DejaVuSans-32"/>
       <use xlink:href="#DejaVuSans-30" x="63.623047"/>
       <use xlink:href="#DejaVuSans-31" x="127.246094"/>
       <use xlink:href="#DejaVuSans-36" x="190.869141"/>
      </g>
     </g>
    </g>
    <g id="xtick_5">
     <g id="line2d_5">
      <g>
       <use xlink:href="#m5364d8fb82" x="264.675961" y="354.958125" style="stroke: #000000; stroke-width: 0.8"/>
      </g>
     </g>
     <g id="text_5">
      <!-- 2017 -->
      <g transform="translate(251.950961 369.556562)scale(0.1 -0.1)">
       <defs>
        <path id="DejaVuSans-37" d="M 525 4666 
L 3525 4666 
L 3525 4397 
L 1831 0 
L 1172 0 
L 2766 4134 
L 525 4134 
L 525 4666 
z
" transform="scale(0.015625)"/>
       </defs>
       <use xlink:href="#DejaVuSans-32"/>
       <use xlink:href="#DejaVuSans-30" x="63.623047"/>
       <use xlink:href="#DejaVuSans-31" x="127.246094"/>
       <use xlink:href="#DejaVuSans-37" x="190.869141"/>
      </g>
     </g>
    </g>
    <g id="xtick_6">
     <g id="line2d_6">
      <g>
       <use xlink:href="#m5364d8fb82" x="315.403234" y="354.958125" style="stroke: #000000; stroke-width: 0.8"/>
      </g>
     </g>
     <g id="text_6">
      <!-- 2018 -->
      <g transform="translate(302.678234 369.556562)scale(0.1 -0.1)">
       <defs>
        <path id="DejaVuSans-38" d="M 2034 2216 
Q 1584 2216 1326 1975 
Q 1069 1734 1069 1313 
Q 1069 891 1326 650 
Q 1584 409 2034 409 
Q 2484 409 2743 651 
Q 3003 894 3003 1313 
Q 3003 1734 2745 1975 
Q 2488 2216 2034 2216 
z
M 1403 2484 
Q 997 2584 770 2862 
Q 544 3141 544 3541 
Q 544 4100 942 4425 
Q 1341 4750 2034 4750 
Q 2731 4750 3128 4425 
Q 3525 4100 3525 3541 
Q 3525 3141 3298 2862 
Q 3072 2584 2669 2484 
Q 3125 2378 3379 2068 
Q 3634 1759 3634 1313 
Q 3634 634 3220 271 
Q 2806 -91 2034 -91 
Q 1263 -91 848 271 
Q 434 634 434 1313 
Q 434 1759 690 2068 
Q 947 2378 1403 2484 
z
M 1172 3481 
Q 1172 3119 1398 2916 
Q 1625 2713 2034 2713 
Q 2441 2713 2670 2916 
Q 2900 3119 2900 3481 
Q 2900 3844 2670 4047 
Q 2441 4250 2034 4250 
Q 1625 4250 1398 4047 
Q 1172 3844 1172 3481 
z
" transform="scale(0.015625)"/>
       </defs>
       <use xlink:href="#DejaVuSans-32"/>
       <use xlink:href="#DejaVuSans-30" x="63.623047"/>
       <use xlink:href="#DejaVuSans-31" x="127.246094"/>
       <use xlink:href="#DejaVuSans-38" x="190.869141"/>
      </g>
     </g>
    </g>
    <g id="xtick_7">
     <g id="line2d_7">
      <g>
       <use xlink:href="#m5364d8fb82" x="366.130507" y="354.958125" style="stroke: #000000; stroke-width: 0.8"/>
      </g>
     </g>
     <g id="text_7">
      <!-- 2019 -->
      <g transform="translate(353.405507 369.556562)scale(0.1 -0.1)">
       <defs>
        <path id="DejaVuSans-39" d="M 703 97 
L 703 672 
Q 941 559 1184 500 
Q 1428 441 1663 441 
Q 2288 441 2617 861 
Q 2947 1281 2994 2138 
Q 2813 1869 2534 1725 
Q 2256 1581 1919 1581 
Q 1219 1581 811 2004 
Q 403 2428 403 3163 
Q 403 3881 828 4315 
Q 1253 4750 1959 4750 
Q 2769 4750 3195 4129 
Q 3622 3509 3622 2328 
Q 3622 1225 3098 567 
Q 2575 -91 1691 -91 
Q 1453 -91 1209 -44 
Q 966 3 703 97 
z
M 1959 2075 
Q 2384 2075 2632 2365 
Q 2881 2656 2881 3163 
Q 2881 3666 2632 3958 
Q 2384 4250 1959 4250 
Q 1534 4250 1286 3958 
Q 1038 3666 1038 3163 
Q 1038 2656 1286 2365 
Q 1534 2075 1959 2075 
z
" transform="scale(0.015625)"/>
       </defs>
       <use xlink:href="#DejaVuSans-32"/>
       <use xlink:href="#DejaVuSans-30" x="63.623047"/>
       <use xlink:href="#DejaVuSans-31" x="127.246094"/>
       <use xlink:href="#DejaVuSans-39" x="190.869141"/>
      </g>
     </g>
    </g>
    <g id="xtick_8">
     <g id="line2d_8">
      <g>
       <use xlink:href="#m5364d8fb82" x="416.857779" y="354.958125" style="stroke: #000000; stroke-width: 0.8"/>
      </g>
     </g>
     <g id="text_8">
      <!-- 2020 -->
      <g transform="translate(404.132779 369.556562)scale(0.1 -0.1)">
       <use xlink:href="#DejaVuSans-32"/>
       <use xlink:href="#DejaVuSans-30" x="63.623047"/>
       <use xlink:href="#DejaVuSans-32" x="127.246094"/>
       <use xlink:href="#DejaVuSans-30" x="190.869141"/>
      </g>
     </g>
    </g>
    <g id="xtick_9">
     <g id="line2d_9">
      <g>
       <use xlink:href="#m5364d8fb82" x="467.724031" y="354.958125" style="stroke: #000000; stroke-width: 0.8"/>
      </g>
     </g>
     <g id="text_9">
      <!-- 2021 -->
      <g transform="translate(454.999031 369.556562)scale(0.1 -0.1)">
       <use xlink:href="#DejaVuSans-32"/>
       <use xlink:href="#DejaVuSans-30" x="63.623047"/>
       <use xlink:href="#DejaVuSans-32" x="127.246094"/>
       <use xlink:href="#DejaVuSans-31" x="190.869141"/>
      </g>
     </g>
    </g>
    <g id="xtick_10">
     <g id="line2d_10">
      <g>
       <use xlink:href="#m5364d8fb82" x="518.451304" y="354.958125" style="stroke: #000000; stroke-width: 0.8"/>
      </g>
     </g>
     <g id="text_10">
      <!-- 2022 -->
      <g transform="translate(505.726304 369.556562)scale(0.1 -0.1)">
       <use xlink:href="#DejaVuSans-32"/>
       <use xlink:href="#DejaVuSans-30" x="63.623047"/>
       <use xlink:href="#DejaVuSans-32" x="127.246094"/>
       <use xlink:href="#DejaVuSans-32" x="190.869141"/>
      </g>
     </g>
    </g>
    <g id="xtick_11">
     <g id="line2d_11">
      <g>
       <use xlink:href="#m5364d8fb82" x="569.178576" y="354.958125" style="stroke: #000000; stroke-width: 0.8"/>
      </g>
     </g>
     <g id="text_11">
      <!-- 2023 -->
      <g transform="translate(556.453576 369.556562)scale(0.1 -0.1)">
       <use xlink:href="#DejaVuSans-32"/>
       <use xlink:href="#DejaVuSans-30" x="63.623047"/>
       <use xlink:href="#DejaVuSans-32" x="127.246094"/>
       <use xlink:href="#DejaVuSans-33" x="190.869141"/>
      </g>
     </g>
    </g>
   </g>
   <g id="matplotlib.axis_2">
    <g id="ytick_1">
     <g id="line2d_12">
      <defs>
       <path id="m7b3b71f3af" d="M 0 0 
L -3.5 0 
" style="stroke: #000000; stroke-width: 0.8"/>
      </defs>
      <g>
       <use xlink:href="#m7b3b71f3af" x="46.965625" y="325.398883" style="stroke: #000000; stroke-width: 0.8"/>
      </g>
     </g>
     <g id="text_12">
      <!-- 50 -->
      <g transform="translate(27.240625 329.198102)scale(0.1 -0.1)">
       <use xlink:href="#DejaVuSans-35"/>
       <use xlink:href="#DejaVuSans-30" x="63.623047"/>
      </g>
     </g>
    </g>
    <g id="ytick_2">
     <g id="line2d_13">
      <g>
       <use xlink:href="#m7b3b71f3af" x="46.965625" y="254.357101" style="stroke: #000000; stroke-width: 0.8"/>
      </g>
     </g>
     <g id="text_13">
      <!-- 100 -->
      <g transform="translate(20.878125 258.15632)scale(0.1 -0.1)">
       <use xlink:href="#DejaVuSans-31"/>
       <use xlink:href="#DejaVuSans-30" x="63.623047"/>
       <use xlink:href="#DejaVuSans-30" x="127.246094"/>
      </g>
     </g>
    </g>
    <g id="ytick_3">
     <g id="line2d_14">
      <g>
       <use xlink:href="#m7b3b71f3af" x="46.965625" y="183.31532" style="stroke: #000000; stroke-width: 0.8"/>
      </g>
     </g>
     <g id="text_14">
      <!-- 150 -->
      <g transform="translate(20.878125 187.114538)scale(0.1 -0.1)">
       <use xlink:href="#DejaVuSans-31"/>
       <use xlink:href="#DejaVuSans-35" x="63.623047"/>
       <use xlink:href="#DejaVuSans-30" x="127.246094"/>
      </g>
     </g>
    </g>
    <g id="ytick_4">
     <g id="line2d_15">
      <g>
       <use xlink:href="#m7b3b71f3af" x="46.965625" y="112.273538" style="stroke: #000000; stroke-width: 0.8"/>
      </g>
     </g>
     <g id="text_15">
      <!-- 200 -->
      <g transform="translate(20.878125 116.072757)scale(0.1 -0.1)">
       <use xlink:href="#DejaVuSans-32"/>
       <use xlink:href="#DejaVuSans-30" x="63.623047"/>
       <use xlink:href="#DejaVuSans-30" x="127.246094"/>
      </g>
     </g>
    </g>
    <g id="ytick_5">
     <g id="line2d_16">
      <g>
       <use xlink:href="#m7b3b71f3af" x="46.965625" y="41.231756" style="stroke: #000000; stroke-width: 0.8"/>
      </g>
     </g>
     <g id="text_16">
      <!-- 250 -->
      <g transform="translate(20.878125 45.030975)scale(0.1 -0.1)">
       <use xlink:href="#DejaVuSans-32"/>
       <use xlink:href="#DejaVuSans-35" x="63.623047"/>
       <use xlink:href="#DejaVuSans-30" x="127.246094"/>
      </g>
     </g>
    </g>
    <g id="text_17">
     <!-- Price (US Dollars) -->
     <g transform="translate(14.798438 232.160781)rotate(-90)scale(0.1 -0.1)">
      <defs>
       <path id="DejaVuSans-50" d="M 1259 4147 
L 1259 2394 
L 2053 2394 
Q 2494 2394 2734 2622 
Q 2975 2850 2975 3272 
Q 2975 3691 2734 3919 
Q 2494 4147 2053 4147 
L 1259 4147 
z
M 628 4666 
L 2053 4666 
Q 2838 4666 3239 4311 
Q 3641 3956 3641 3272 
Q 3641 2581 3239 2228 
Q 2838 1875 2053 1875 
L 1259 1875 
L 1259 0 
L 628 0 
L 628 4666 
z
" transform="scale(0.015625)"/>
       <path id="DejaVuSans-72" d="M 2631 2963 
Q 2534 3019 2420 3045 
Q 2306 3072 2169 3072 
Q 1681 3072 1420 2755 
Q 1159 2438 1159 1844 
L 1159 0 
L 581 0 
L 581 3500 
L 1159 3500 
L 1159 2956 
Q 1341 3275 1631 3429 
Q 1922 3584 2338 3584 
Q 2397 3584 2469 3576 
Q 2541 3569 2628 3553 
L 2631 2963 
z
" transform="scale(0.015625)"/>
       <path id="DejaVuSans-69" d="M 603 3500 
L 1178 3500 
L 1178 0 
L 603 0 
L 603 3500 
z
M 603 4863 
L 1178 4863 
L 1178 4134 
L 603 4134 
L 603 4863 
z
" transform="scale(0.015625)"/>
       <path id="DejaVuSans-63" d="M 3122 3366 
L 3122 2828 
Q 2878 2963 2633 3030 
Q 2388 3097 2138 3097 
Q 1578 3097 1268 2742 
Q 959 2388 959 1747 
Q 959 1106 1268 751 
Q 1578 397 2138 397 
Q 2388 397 2633 464 
Q 2878 531 3122 666 
L 3122 134 
Q 2881 22 2623 -34 
Q 2366 -91 2075 -91 
Q 1284 -91 818 406 
Q 353 903 353 1747 
Q 353 2603 823 3093 
Q 1294 3584 2113 3584 
Q 2378 3584 2631 3529 
Q 2884 3475 3122 3366 
z
" transform="scale(0.015625)"/>
       <path id="DejaVuSans-65" d="M 3597 1894 
L 3597 1613 
L 953 1613 
Q 991 1019 1311 708 
Q 1631 397 2203 397 
Q 2534 397 2845 478 
Q 3156 559 3463 722 
L 3463 178 
Q 3153 47 2828 -22 
Q 2503 -91 2169 -91 
Q 1331 -91 842 396 
Q 353 884 353 1716 
Q 353 2575 817 3079 
Q 1281 3584 2069 3584 
Q 2775 3584 3186 3129 
Q 3597 2675 3597 1894 
z
M 3022 2063 
Q 3016 2534 2758 2815 
Q 2500 3097 2075 3097 
Q 1594 3097 1305 2825 
Q 1016 2553 972 2059 
L 3022 2063 
z
" transform="scale(0.015625)"/>
       <path id="DejaVuSans-20" transform="scale(0.015625)"/>
       <path id="DejaVuSans-28" d="M 1984 4856 
Q 1566 4138 1362 3434 
Q 1159 2731 1159 2009 
Q 1159 1288 1364 580 
Q 1569 -128 1984 -844 
L 1484 -844 
Q 1016 -109 783 600 
Q 550 1309 550 2009 
Q 550 2706 781 3412 
Q 1013 4119 1484 4856 
L 1984 4856 
z
" transform="scale(0.015625)"/>
       <path id="DejaVuSans-55" d="M 556 4666 
L 1191 4666 
L 1191 1831 
Q 1191 1081 1462 751 
Q 1734 422 2344 422 
Q 2950 422 3222 751 
Q 3494 1081 3494 1831 
L 3494 4666 
L 4128 4666 
L 4128 1753 
Q 4128 841 3676 375 
Q 3225 -91 2344 -91 
Q 1459 -91 1007 375 
Q 556 841 556 1753 
L 556 4666 
z
" transform="scale(0.015625)"/>
       <path id="DejaVuSans-53" d="M 3425 4513 
L 3425 3897 
Q 3066 4069 2747 4153 
Q 2428 4238 2131 4238 
Q 1616 4238 1336 4038 
Q 1056 3838 1056 3469 
Q 1056 3159 1242 3001 
Q 1428 2844 1947 2747 
L 2328 2669 
Q 3034 2534 3370 2195 
Q 3706 1856 3706 1288 
Q 3706 609 3251 259 
Q 2797 -91 1919 -91 
Q 1588 -91 1214 -16 
Q 841 59 441 206 
L 441 856 
Q 825 641 1194 531 
Q 1563 422 1919 422 
Q 2459 422 2753 634 
Q 3047 847 3047 1241 
Q 3047 1584 2836 1778 
Q 2625 1972 2144 2069 
L 1759 2144 
Q 1053 2284 737 2584 
Q 422 2884 422 3419 
Q 422 4038 858 4394 
Q 1294 4750 2059 4750 
Q 2388 4750 2728 4690 
Q 3069 4631 3425 4513 
z
" transform="scale(0.015625)"/>
       <path id="DejaVuSans-44" d="M 1259 4147 
L 1259 519 
L 2022 519 
Q 2988 519 3436 956 
Q 3884 1394 3884 2338 
Q 3884 3275 3436 3711 
Q 2988 4147 2022 4147 
L 1259 4147 
z
M 628 4666 
L 1925 4666 
Q 3281 4666 3915 4102 
Q 4550 3538 4550 2338 
Q 4550 1131 3912 565 
Q 3275 0 1925 0 
L 628 0 
L 628 4666 
z
" transform="scale(0.015625)"/>
       <path id="DejaVuSans-6f" d="M 1959 3097 
Q 1497 3097 1228 2736 
Q 959 2375 959 1747 
Q 959 1119 1226 758 
Q 1494 397 1959 397 
Q 2419 397 2687 759 
Q 2956 1122 2956 1747 
Q 2956 2369 2687 2733 
Q 2419 3097 1959 3097 
z
M 1959 3584 
Q 2709 3584 3137 3096 
Q 3566 2609 3566 1747 
Q 3566 888 3137 398 
Q 2709 -91 1959 -91 
Q 1206 -91 779 398 
Q 353 888 353 1747 
Q 353 2609 779 3096 
Q 1206 3584 1959 3584 
z
" transform="scale(0.015625)"/>
       <path id="DejaVuSans-6c" d="M 603 4863 
L 1178 4863 
L 1178 0 
L 603 0 
L 603 4863 
z
" transform="scale(0.015625)"/>
       <path id="DejaVuSans-61" d="M 2194 1759 
Q 1497 1759 1228 1600 
Q 959 1441 959 1056 
Q 959 750 1161 570 
Q 1363 391 1709 391 
Q 2188 391 2477 730 
Q 2766 1069 2766 1631 
L 2766 1759 
L 2194 1759 
z
M 3341 1997 
L 3341 0 
L 2766 0 
L 2766 531 
Q 2569 213 2275 61 
Q 1981 -91 1556 -91 
Q 1019 -91 701 211 
Q 384 513 384 1019 
Q 384 1609 779 1909 
Q 1175 2209 1959 2209 
L 2766 2209 
L 2766 2266 
Q 2766 2663 2505 2880 
Q 2244 3097 1772 3097 
Q 1472 3097 1187 3025 
Q 903 2953 641 2809 
L 641 3341 
Q 956 3463 1253 3523 
Q 1550 3584 1831 3584 
Q 2591 3584 2966 3190 
Q 3341 2797 3341 1997 
z
" transform="scale(0.015625)"/>
       <path id="DejaVuSans-73" d="M 2834 3397 
L 2834 2853 
Q 2591 2978 2328 3040 
Q 2066 3103 1784 3103 
Q 1356 3103 1142 2972 
Q 928 2841 928 2578 
Q 928 2378 1081 2264 
Q 1234 2150 1697 2047 
L 1894 2003 
Q 2506 1872 2764 1633 
Q 3022 1394 3022 966 
Q 3022 478 2636 193 
Q 2250 -91 1575 -91 
Q 1294 -91 989 -36 
Q 684 19 347 128 
L 347 722 
Q 666 556 975 473 
Q 1284 391 1588 391 
Q 1994 391 2212 530 
Q 2431 669 2431 922 
Q 2431 1156 2273 1281 
Q 2116 1406 1581 1522 
L 1381 1569 
Q 847 1681 609 1914 
Q 372 2147 372 2553 
Q 372 3047 722 3315 
Q 1072 3584 1716 3584 
Q 2034 3584 2315 3537 
Q 2597 3491 2834 3397 
z
" transform="scale(0.015625)"/>
       <path id="DejaVuSans-29" d="M 513 4856 
L 1013 4856 
Q 1481 4119 1714 3412 
Q 1947 2706 1947 2009 
Q 1947 1309 1714 600 
Q 1481 -109 1013 -844 
L 513 -844 
Q 928 -128 1133 580 
Q 1338 1288 1338 2009 
Q 1338 2731 1133 3434 
Q 928 4138 513 4856 
z
" transform="scale(0.015625)"/>
      </defs>
      <use xlink:href="#DejaVuSans-50"/>
      <use xlink:href="#DejaVuSans-72" x="58.552734"/>
      <use xlink:href="#DejaVuSans-69" x="99.666016"/>
      <use xlink:href="#DejaVuSans-63" x="127.449219"/>
      <use xlink:href="#DejaVuSans-65" x="182.429688"/>
      <use xlink:href="#DejaVuSans-20" x="243.953125"/>
      <use xlink:href="#DejaVuSans-28" x="275.740234"/>
      <use xlink:href="#DejaVuSans-55" x="314.753906"/>
      <use xlink:href="#DejaVuSans-53" x="387.947266"/>
      <use xlink:href="#DejaVuSans-20" x="451.423828"/>
      <use xlink:href="#DejaVuSans-44" x="483.210938"/>
      <use xlink:href="#DejaVuSans-6f" x="560.212891"/>
      <use xlink:href="#DejaVuSans-6c" x="621.394531"/>
      <use xlink:href="#DejaVuSans-6c" x="649.177734"/>
      <use xlink:href="#DejaVuSans-61" x="676.960938"/>
      <use xlink:href="#DejaVuSans-72" x="738.240234"/>
      <use xlink:href="#DejaVuSans-73" x="779.353516"/>
      <use xlink:href="#DejaVuSans-29" x="831.453125"/>
     </g>
    </g>
   </g>
   <g id="line2d_17">
    <path d="M 579.601989 85.760745 
L 579.324031 88.247207 
L 579.185052 84.041534 
L 579.046073 86.911622 
L 578.629137 85.107161 
L 578.490158 77.647773 
L 578.351179 79.693777 
L 578.2122 73.371058 
L 578.073222 73.321329 
L 577.656285 78.15217 
L 577.517306 84.425159 
L 577.378327 83.4732 
L 577.239349 81.337541 
L 576.683433 83.515825 
L 576.544454 80.887279 
L 576.405476 81.370363 
L 575.710581 77.07674 
L 575.571603 71.978639 
L 575.432624 70.969846 
L 575.293645 67.630882 
L 575.154666 69.890011 
L 574.73773 69.776344 
L 574.598751 66.131901 
L 574.459772 67.005715 
L 574.320793 66.622089 
L 574.181814 69.279052 
L 573.764878 68.42655 
L 573.625899 63.538876 
L 573.208962 69.051718 
L 572.792026 65.613296 
L 572.514068 76.795272 
L 572.37509 40.407671 
L 572.236111 75.047644 
L 571.819174 77.562523 
L 571.680195 81.697155 
L 571.541217 76.766855 
L 571.402238 77.605148 
L 570.846322 78.521587 
L 570.707344 78.443441 
L 570.568365 80.759403 
L 570.429386 80.461028 
L 570.290407 80.716778 
L 569.873471 86.499579 
L 569.595513 93.518507 
L 569.456534 94.761739 
L 568.900619 100.850019 
L 568.76164 100.15381 
L 568.622661 100.15381 
L 568.483682 102.498189 
L 567.927767 103.407523 
L 567.788788 102.824981 
L 567.649809 100.963686 
L 567.51083 102.995481 
L 567.371852 101.659896 
L 566.954915 100.332835 
L 566.537979 83.885242 
L 566.399 91.223858 
L 565.982063 97.326347 
L 565.843085 97.638931 
L 565.704106 99.464278 
L 565.426148 88.247349 
L 564.870233 85.774953 
L 564.731254 88.119332 
L 564.592275 97.846373 
L 564.453296 91.714046 
L 564.03636 92.381839 
L 563.758402 94.044217 
L 563.619423 97.38318 
L 563.480444 97.283722 
L 563.063508 92.140297 
L 562.924529 96.246512 
L 562.78555 96.800638 
L 562.646571 92.765465 
L 562.507593 99.24959 
L 561.951677 104.089525 
L 561.812698 110.383826 
L 561.67372 106.419695 
L 561.534741 111.64837 
L 561.117804 110.213326 
L 560.978825 113.907499 
L 560.700868 98.107807 
L 560.561889 98.605099 
L 560.144953 95.9075 
L 560.005974 103.293857 
L 559.866995 103.229919 
L 559.728016 119.050924 
L 559.589037 122.034679 
L 559.172101 125.1321 
L 559.033122 125.089475 
L 558.894143 129.835066 
L 558.755164 126.211935 
L 558.616185 128.513689 
L 558.199249 130.559692 
L 558.06027 133.060363 
L 557.921291 139.851957 
L 557.782312 138.36008 
L 557.643334 133.898656 
L 557.226397 134.140198 
L 556.948439 128.15848 
L 556.670482 135.916243 
L 556.253545 136.54141 
L 556.114566 137.507579 
L 555.975588 140.548167 
L 555.836609 133.799198 
L 555.69763 134.29649 
L 555.280693 134.182823 
L 555.141715 130.446026 
L 555.002736 122.091512 
L 554.863757 122.176762 
L 554.724778 120.81276 
L 554.307842 121.054302 
L 554.168863 111.833079 
L 554.029884 111.023202 
L 553.751926 102.05773 
L 553.33499 103.186868 
L 553.196011 110.69641 
L 553.057032 110.660889 
L 552.918053 112.216704 
L 552.362138 108.749865 
L 552.223159 111.662579 
L 551.945202 106.007653 
L 551.806223 106.647029 
L 551.389286 97.695906 
L 551.250307 98.193057 
L 551.111329 100.40956 
L 550.97235 99.059766 
L 550.833371 96.289137 
L 550.277456 89.540168 
L 550.138477 89.284417 
L 549.999498 87.252622 
L 549.860519 88.488749 
L 549.443583 93.490091 
L 549.304604 93.092257 
L 549.165625 91.188337 
L 549.026646 93.163299 
L 548.887667 88.645041 
L 548.470731 89.611209 
L 548.331752 91.131504 
L 548.053794 99.716335 
L 547.914816 92.403151 
L 547.497879 92.154505 
L 547.3589 94.200509 
L 547.219921 88.332457 
L 546.941964 91.24517 
L 546.525027 86.599038 
L 546.386048 88.261416 
L 546.24707 92.19713 
L 546.108091 92.225547 
L 545.969112 93.93055 
L 545.552175 95.635553 
L 545.413197 103.634857 
L 545.274218 104.359483 
L 545.135239 100.736352 
L 544.99626 102.697106 
L 544.301366 108.70724 
L 544.162387 111.463662 
L 543.606472 112.557705 
L 543.467493 113.907499 
L 543.328514 111.364203 
L 543.189535 102.626064 
L 543.050557 102.199813 
L 542.63362 104.260025 
L 542.494641 115.88246 
L 542.355662 117.402754 
L 542.216684 116.91967 
L 541.660768 124.627277 
L 541.521789 123.824932 
L 541.382811 113.935916 
L 541.243832 120.315468 
L 541.104853 118.113172 
L 540.687916 107.41428 
L 540.548938 92.793881 
L 540.409959 90.151127 
L 540.27098 91.003628 
L 540.132001 87.295247 
L 539.715065 92.083463 
L 539.576086 90.605794 
L 539.437107 92.225547 
L 539.298128 91.884546 
L 538.742213 93.475882 
L 538.325276 105.634115 
L 538.186297 100.963686 
L 537.630382 111.676787 
L 537.491403 104.515775 
L 537.352425 105.453527 
L 537.213446 112.358788 
L 536.796509 111.506287 
L 536.65753 117.87163 
L 536.518552 114.660542 
L 536.379573 115.470418 
L 536.240594 111.207911 
L 535.823657 104.146358 
L 535.684679 91.557754 
L 535.5457 91.24517 
L 535.267742 95.024593 
L 534.711827 76.852105 
L 534.572848 81.299321 
L 534.433869 100.111185 
L 533.877954 88.7445 
L 533.738975 78.287149 
L 533.322038 89.77901 
L 532.766123 89.611209 
L 532.627144 92.594964 
L 532.488165 88.13354 
L 532.349187 87.693081 
L 531.93225 84.702222 
L 531.793271 85.732328 
L 531.376335 70.728304 
L 530.82042 75.445478 
L 530.681441 75.104478 
L 530.542462 71.339263 
L 530.403483 82.464406 
L 529.986547 85.377119 
L 529.708589 87.714394 
L 529.56961 84.467784 
L 529.430631 86.62035 
L 529.013695 84.908244 
L 528.874716 93.035423 
L 528.735737 92.857819 
L 528.457779 105.979236 
L 527.901864 112.358788 
L 527.762885 111.56312 
L 527.623906 117.360129 
L 527.484928 112.017787 
L 527.067991 103.222815 
L 526.929012 95.933928 
L 526.790033 97.29793 
L 526.512076 85.774953 
L 526.095139 82.890657 
L 525.95616 86.893719 
L 525.817182 77.775649 
L 525.678203 77.690399 
L 525.122288 75.701229 
L 524.84433 69.818969 
L 524.705351 70.657262 
L 524.566372 73.541416 
L 524.010457 69.719511 
L 523.871478 65.172837 
L 523.732499 71.779722 
L 523.59352 69.762136 
L 523.176584 69.335885 
L 522.898626 61.33658 
L 522.759647 63.098274 
L 522.620669 74.791894 
L 522.203732 72.31964 
L 522.064753 96.701179 
L 521.925774 96.843263 
L 521.647817 108.408865 
L 521.091901 84.420897 
L 520.813944 88.254311 
L 520.258028 86.350392 
L 520.11905 83.174824 
L 519.841092 91.039149 
L 519.702113 92.097672 
L 518.86824 74.209351 
L 518.729261 80.929904 
L 518.312325 86.726913 
L 518.173346 85.064535 
L 518.034367 85.362911 
L 517.895388 84.240451 
L 517.75641 86.527996 
L 517.200494 85.963356 
L 517.061515 85.362911 
L 516.922537 89.312834 
L 516.783558 98.391974 
L 516.366621 93.504299 
L 516.227642 89.156542 
L 516.088664 94.527301 
L 515.949685 93.276965 
L 515.810706 93.348007 
L 515.393769 92.02663 
L 514.976833 100.992103 
L 514.837854 106.277611 
L 514.420918 114.447416 
L 514.281939 113.07631 
L 514.14296 116.806003 
L 514.003981 115.598293 
L 513.865002 110.497493 
L 513.448066 113.424415 
L 513.170108 106.661237 
L 513.031129 113.80804 
L 512.892151 109.858117 
L 512.475214 107.300613 
L 512.336235 101.091561 
L 512.197256 101.887229 
L 512.058278 90.03746 
L 511.919299 88.971833 
L 511.502362 92.97859 
L 511.363383 88.431916 
L 511.224405 88.190374 
L 510.946447 81.56928 
L 510.52951 87.23131 
L 510.251553 97.852056 
L 509.973595 90.605794 
L 509.556659 92.857819 
L 509.139722 59.759453 
L 509.000743 62.743208 
L 508.583807 65.641712 
L 508.444828 68.469175 
L 508.305849 64.249293 
L 508.16687 64.476627 
L 508.027892 65.726962 
L 507.610955 68.099758 
L 507.471976 75.829104 
L 507.194019 75.019228 
L 507.05504 69.200906 
L 506.638103 65.764615 
L 506.499124 68.000299 
L 506.360146 74.450893 
L 506.221167 73.371058 
L 506.082188 69.179593 
L 505.665251 67.431965 
L 505.526273 71.374074 
L 505.387294 71.040888 
L 505.248315 71.254013 
L 505.109336 64.917086 
L 504.6924 66.877839 
L 504.136484 83.146407 
L 503.580569 76.46848 
L 503.44159 76.987085 
L 502.746696 69.591635 
L 502.607717 69.648469 
L 502.468738 69.332333 
L 502.329759 72.49014 
L 501.773844 73.484725 
L 501.634865 68.867009 
L 501.495887 68.540217 
L 501.217929 64.434002 
L 500.800992 65.311368 
L 500.662014 65.911671 
L 500.384056 60.853496 
L 500.245077 63.041583 
L 499.828141 66.579464 
L 499.689162 66.195838 
L 499.411204 61.599435 
L 499.272225 61.86229 
L 498.855289 65.002336 
L 498.71631 63.808834 
L 498.438352 53.536193 
L 498.299373 52.342691 
L 497.882437 51.74594 
L 497.604479 58.92116 
L 497.326522 44.314969 
L 496.909585 43.419843 
L 496.631627 39.100503 
L 496.492649 37.438125 
L 496.35367 40.720255 
L 495.936733 41.217548 
L 495.797755 47.840205 
L 495.658776 45.636347 
L 495.519797 49.458394 
L 495.380818 49.117394 
L 494.963882 40.578172 
L 494.685924 45.764222 
L 494.407966 57.564262 
L 493.99103 56.221572 
L 493.852051 59.610265 
L 493.713072 53.962443 
L 493.018178 57.173532 
L 492.879199 60.768246 
L 492.601241 60.38462 
L 492.462263 57.756075 
L 492.045326 57.599783 
L 491.906347 57.926575 
L 491.767368 61.237122 
L 491.62839 60.99558 
L 491.072474 66.551047 
L 490.655538 62.828458 
L 490.516559 62.231707 
L 490.099623 61.919123 
L 489.960644 63.595709 
L 489.821665 62.757416 
L 489.682686 65.599087 
L 489.543707 62.998958 
L 488.987792 69.094343 
L 488.848813 65.22967 
L 488.709834 69.534802 
L 488.153919 70.458345 
L 488.01494 71.893389 
L 487.736982 69.37851 
L 487.598004 69.492177 
L 487.181067 70.628845 
L 486.903109 76.965772 
L 486.764131 70.813696 
L 486.625152 73.683642 
L 486.208215 73.18635 
L 486.069236 76.894731 
L 485.930258 76.752647 
L 485.791279 74.73506 
L 485.6523 66.806798 
L 485.235363 65.073378 
L 485.096385 67.403549 
L 484.957406 64.178252 
L 484.818427 66.248977 
L 484.679448 61.492872 
L 484.262512 61.222914 
L 484.123533 58.992202 
L 483.984554 60.739829 
L 483.845575 68.000299 
L 483.706596 65.457004 
L 483.28966 67.062548 
L 483.150681 68.320272 
L 482.872723 76.212729 
L 482.733745 73.086891 
L 482.316808 72.774307 
L 482.177829 73.021959 
L 481.899872 81.562176 
L 481.343956 80.162653 
L 481.204977 79.850069 
L 480.92702 84.709327 
L 480.788041 83.132199 
L 480.232126 87.067914 
L 480.093147 92.225547 
L 479.954168 92.168714 
L 479.815189 90.548961 
L 479.398253 92.80809 
L 479.259274 99.741768 
L 479.120295 96.445429 
L 478.981316 98.122015 
L 478.286422 80.276319 
L 478.147443 74.990811 
L 478.008464 75.928562 
L 477.869486 73.790205 
L 477.452549 74.56456 
L 477.31357 72.163632 
L 477.174591 77.910628 
L 476.896634 75.147103 
L 476.479697 89.398084 
L 476.340718 88.090915 
L 476.20174 87.849373 
L 476.062761 86.797955 
L 475.923782 86.982664 
L 475.506845 90.662628 
L 475.367867 83.224553 
L 475.228888 83.103782 
L 474.95093 97.141638 
L 474.533994 98.732974 
L 474.395015 98.491432 
L 474.256036 100.509019 
L 474.117057 96.573304 
L 473.561142 96.459637 
L 473.422163 95.806053 
L 473.283184 100.949478 
L 473.144205 101.432562 
L 473.005226 97.141638 
L 472.58829 97.880473 
L 472.449311 98.519849 
L 472.310332 107.286405 
L 472.171354 106.092903 
L 472.032375 113.395998 
L 471.615438 107.939989 
L 471.476459 109.431867 
L 471.337481 112.699789 
L 471.198502 107.314821 
L 471.059523 109.943367 
L 470.364629 102.05773 
L 470.22565 106.355757 
L 469.669735 107.641614 
L 469.530756 96.34597 
L 469.391777 96.644346 
L 469.113819 91.15992 
L 468.696883 89.369667 
L 468.557904 90.648419 
L 468.418925 89.298626 
L 468.140967 83.501616 
L 467.585052 84.112576 
L 467.446073 83.302699 
L 467.168116 93.14909 
L 466.473222 101.858813 
L 465.778327 95.251927 
L 465.639349 95.536094 
L 465.50037 99.308413 
L 465.361391 98.860849 
L 465.222412 96.218095 
L 464.805476 102.48398 
L 464.527518 93.092257 
L 464.388539 93.617966 
L 464.24956 91.671421 
L 463.832624 94.200509 
L 463.693645 96.483791 
L 463.554666 96.076012 
L 463.415687 92.850715 
L 463.276708 97.29793 
L 462.859772 95.180885 
L 462.581814 95.294552 
L 462.442835 92.637589 
L 462.303857 99.486017 
L 461.88692 100.750561 
L 461.747941 99.869643 
L 461.331005 90.833128 
L 460.914068 96.246512 
L 460.636111 91.984005 
L 460.497132 92.296589 
L 460.358153 87.195789 
L 459.941217 112.728205 
L 459.802238 110.866911 
L 459.385301 130.858068 
L 458.968365 134.694324 
L 458.829386 130.744401 
L 458.690407 134.012323 
L 458.412449 117.360129 
L 457.995513 112.444038 
L 457.856534 112.605303 
L 457.717555 111.676787 
L 457.578576 112.756622 
L 457.439598 110.753244 
L 457.022661 108.508323 
L 456.883682 105.59561 
L 456.605725 104.870984 
L 456.466746 100.949478 
L 456.049809 102.214022 
L 455.771852 108.309406 
L 455.632873 105.027276 
L 455.493894 107.087488 
L 455.076958 108.252573 
L 454.937979 104.892297 
L 454.799 108.664615 
L 454.660021 108.891949 
L 454.521042 109.829701 
L 453.965127 115.584085 
L 453.826148 110.724827 
L 453.687169 111.264745 
L 453.54819 110.497493 
L 453.131254 104.146358 
L 452.992275 104.345275 
L 452.714317 100.608477 
L 452.158402 108.849324 
L 452.019423 102.327688 
L 451.880444 103.336482 
L 451.741466 109.076658 
L 451.18555 97.354764 
L 450.907593 87.62204 
L 450.768614 92.538131 
L 450.629635 89.597001 
L 450.212698 89.312834 
L 449.934741 96.928513 
L 449.656783 103.109148 
L 449.100868 105.965028 
L 448.82291 112.131454 
L 448.683931 111.619953 
L 448.266995 115.015751 
L 448.128016 112.358788 
L 447.989037 111.946746 
L 447.850058 108.167323 
L 447.71108 114.67475 
L 447.294143 115.143626 
L 447.155164 113.80804 
L 447.016185 114.859459 
L 446.877207 122.304637 
L 446.321291 119.818175 
L 445.904355 113.175768 
L 445.765376 115.385168 
L 445.348439 115.854044 
L 445.209461 110.923744 
L 445.070482 113.694373 
L 444.931503 112.031996 
L 444.792524 113.012372 
L 444.375588 118.56784 
L 444.236609 118.368923 
L 444.09763 115.449105 
L 443.958651 121.551595 
L 443.819672 119.107757 
L 443.402736 122.475138 
L 443.263757 118.681507 
L 443.124778 118.638881 
L 442.985799 113.836457 
L 442.846821 113.438623 
L 442.290905 115.233991 
L 441.873969 124.421682 
L 441.457032 120.620947 
L 441.318053 120.457551 
L 441.040096 112.060555 
L 440.901117 117.44538 
L 440.48418 116.393961 
L 440.345202 120.443343 
L 440.206223 118.852007 
L 440.067244 114.575292 
L 439.928265 122.952538 
L 439.37235 117.44538 
L 439.233371 109.176116 
L 439.094392 109.900742 
L 438.955413 112.330371 
L 438.538477 112.60033 
L 438.399498 117.303296 
L 438.260519 114.916292 
L 438.12154 115.79721 
L 437.982561 118.127381 
L 437.565625 116.905462 
L 437.426646 114.703167 
L 437.287667 120.358093 
L 437.148689 117.573255 
L 436.592773 124.535349 
L 436.314816 119.391924 
L 436.175837 120.088134 
L 436.036858 122.460929 
L 435.480943 139.198373 
L 435.341964 139.14154 
L 435.064006 134.12599 
L 434.64707 132.520446 
L 434.508091 133.614489 
L 434.369112 139.965624 
L 434.230133 139.12449 
L 434.091154 145.038008 
L 433.674218 141.201751 
L 433.535239 138.090121 
L 433.39626 137.49337 
L 433.118302 151.559643 
L 432.701366 156.674651 
L 432.562387 154.316064 
L 432.423408 158.166529 
L 432.284429 165.455416 
L 432.145451 158.550154 
L 431.728514 153.4934 
L 431.589535 157.740278 
L 431.450557 155.807942 
L 431.311578 147.183469 
L 431.172599 151.602268 
L 430.616684 144.682799 
L 430.477705 146.373593 
L 430.338726 142.395822 
L 430.199747 153.861397 
L 429.782811 172.346468 
L 429.643832 171.451342 
L 429.504853 171.849176 
L 429.365874 157.470319 
L 429.226895 160.766658 
L 428.809959 159.01903 
L 428.67098 155.5664 
L 428.532001 157.484528 
L 428.254043 192.763876 
L 427.837107 171.579217 
L 427.698128 173.014261 
L 427.559149 182.349151 
L 427.42017 163.849871 
L 427.281192 161.562326 
L 426.864255 145.918926 
L 426.725276 152.056936 
L 426.447319 136.981869 
L 426.30834 141.30121 
L 425.891403 132.179445 
L 425.613446 120.102342 
L 425.474467 120.741718 
L 425.335488 123.015055 
L 424.918552 137.379703 
L 424.640594 121.491067 
L 424.362636 106.916987 
L 423.667742 92.140297 
L 423.528763 95.933928 
L 422.972848 96.964034 
L 422.833869 100.242896 
L 422.555911 101.375729 
L 422.416933 103.563815 
L 421.999996 106.831737 
L 421.722038 104.316858 
L 421.58306 105.283027 
L 421.444081 109.062449 
L 421.027144 106.618612 
L 420.888165 100.196435 
L 420.610208 106.817529 
L 420.471229 107.542155 
L 419.776335 97.880473 
L 419.637356 100.352727 
L 419.081441 105.524569 
L 418.664504 116.607087 
L 418.525525 118.525215 
L 418.108589 119.988675 
L 417.96961 120.910087 
L 417.552674 127.604354 
L 416.996758 124.862142 
L 416.718801 129.323565 
L 416.579822 127.220871 
L 416.162885 126.643585 
L 415.745949 129.295149 
L 415.60697 128.741023 
L 415.190033 129.082023 
L 415.051055 131.341152 
L 414.912076 131.540069 
L 414.773097 131.056985 
L 414.634118 131.000151 
L 414.217182 132.847238 
L 414.078203 135.958868 
L 413.939224 136.314077 
L 413.661266 136.058326 
L 413.24433 136.02991 
L 413.105351 137.805954 
L 412.966372 136.711911 
L 412.827393 137.649662 
L 412.688415 134.481199 
L 412.271478 133.799198 
L 411.99352 134.239657 
L 411.715563 138.772122 
L 411.298626 140.022458 
L 411.020669 136.11516 
L 410.88169 136.45616 
L 410.742711 140.231036 
L 410.325774 139.724082 
L 410.186796 141.017043 
L 410.047817 139.439915 
L 409.908838 139.184307 
L 409.769859 140.17875 
L 409.352923 141.47171 
L 409.213944 139.766707 
L 409.074965 143.261963 
L 408.935986 141.315418 
L 408.797007 137.280245 
L 408.380071 138.814747 
L 408.241092 141.116501 
L 408.102113 141.514335 
L 407.824156 140.4345 
L 407.407219 141.897961 
L 407.26824 145.137466 
L 407.129261 151.815394 
L 406.990283 143.830297 
L 406.851304 145.336383 
L 406.434367 143.247755 
L 406.295388 141.841127 
L 406.15641 143.162505 
L 406.017431 141.500127 
L 405.878452 142.944264 
L 405.461515 141.826919 
L 405.322537 146.512551 
L 405.183558 146.387801 
L 405.044579 148.305645 
L 404.9056 146.814052 
L 404.488664 145.634759 
L 404.349685 150.437183 
L 404.210706 150.727033 
L 403.932748 147.155053 
L 403.515812 145.194299 
L 403.376833 145.734217 
L 403.237854 146.842469 
L 403.098875 144.66859 
L 402.959896 147.43922 
L 402.54296 144.057631 
L 402.265002 144.697007 
L 402.126024 143.162505 
L 401.987045 144.66859 
L 401.431129 141.528544 
L 401.292151 143.638484 
L 401.153172 141.116501 
L 401.014193 130.673359 
L 400.597256 131.156443 
L 400.458278 132.619904 
L 400.18032 138.914206 
L 399.624405 137.592829 
L 399.485426 138.715289 
L 399.346447 142.125294 
L 399.207468 141.841127 
L 399.068489 144.000798 
L 398.651553 139.979833 
L 398.512574 137.379703 
L 397.678701 142.466295 
L 397.539722 144.924341 
L 397.400743 144.597548 
L 397.261764 142.224753 
L 397.122786 142.608379 
L 396.705849 140.548167 
L 396.56687 140.761292 
L 396.288913 150.707142 
L 396.149934 149.925682 
L 395.732997 143.148296 
L 395.594019 137.280245 
L 395.45504 137.777537 
L 395.177082 134.907449 
L 394.760146 135.262658 
L 394.621167 135.021116 
L 394.482188 135.816784 
L 394.343209 138.885789 
L 394.20423 139.297832 
L 393.787294 138.075913 
L 393.509336 140.398979 
L 393.231378 139.169956 
L 392.814442 138.772122 
L 392.536484 140.320833 
L 392.258527 145.506883 
L 391.84159 144.908569 
L 391.563632 144.966966 
L 391.424654 147.339761 
L 391.285675 147.027177 
L 390.590781 151.50281 
L 390.451802 147.879679 
L 390.312823 148.178054 
L 389.895887 148.06936 
L 389.756908 149.300514 
L 389.617929 153.193604 
L 389.339971 154.301856 
L 388.923035 153.989272 
L 388.784056 151.772768 
L 388.645077 152.596853 
L 388.506098 151.801185 
L 387.950183 152.611061 
L 387.672225 161.434451 
L 387.533246 165.739583 
L 387.394268 165.085998 
L 386.977331 166.080583 
L 386.838352 164.134038 
L 386.699373 164.134038 
L 386.560395 160.908742 
L 386.004479 164.261914 
L 385.726522 161.107659 
L 385.587543 162.203123 
L 385.448564 162.372202 
L 385.031627 161.718618 
L 384.892649 161.145169 
L 384.475712 170.925633 
L 384.058776 167.118646 
L 383.919797 169.320089 
L 383.780818 166.691543 
L 383.641839 166.577876 
L 383.50286 165.341749 
L 383.085924 165.213874 
L 382.946945 164.730789 
L 382.807966 160.951367 
L 382.668987 161.0082 
L 382.530009 162.713203 
L 382.113072 164.801831 
L 381.974093 166.833626 
L 381.835114 166.222667 
L 381.696136 166.435792 
L 381.557157 168.424962 
L 381.001241 167.53694 
L 380.723284 167.544044 
L 380.584305 168.424962 
L 380.02839 170.101548 
L 379.611453 172.161618 
L 378.916559 170.371507 
L 378.638601 172.33226 
L 378.221665 174.378263 
L 378.082686 176.097474 
L 377.943707 174.989223 
L 377.804728 175.35864 
L 377.66575 177.544311 
L 377.248813 175.244973 
L 377.109834 173.824137 
L 376.970855 176.39585 
L 376.692898 174.207763 
L 376.275961 173.62522 
L 375.998004 177.575144 
L 375.859025 178.853896 
L 375.720046 181.937109 
L 375.303109 186.895825 
L 375.164131 186.42695 
L 374.747194 183.045361 
L 374.330258 183.414778 
L 373.913321 187.009492 
L 373.774342 187.293659 
L 373.357406 188.595713 
L 373.218427 190.377157 
L 373.079448 190.646831 
L 372.940469 190.589998 
L 372.384554 190.547373 
L 372.245575 192.579168 
L 372.106596 190.845748 
L 371.828639 194.27323 
L 371.411702 196.955342 
L 371.272723 196.01759 
L 370.994766 193.339315 
L 370.855787 195.368268 
L 370.43885 197.026383 
L 370.299872 203.590644 
L 370.160893 200.514535 
L 370.021914 202.226642 
L 369.465999 197.665759 
L 369.32702 199.91068 
L 369.049062 198.205677 
L 368.493147 199.512846 
L 368.354168 200.493222 
L 368.215189 199.12922 
L 368.07621 200.763181 
L 367.937231 200.180638 
L 367.381316 199.200262 
L 367.242337 198.26251 
L 366.96438 201.546062 
L 366.547443 205.212386 
L 366.408464 209.913363 
L 366.269486 206.418107 
L 365.991528 208.265193 
L 365.574591 206.588607 
L 365.296634 211.391032 
L 365.018676 218.537835 
L 364.462761 208.876153 
L 364.323782 203.391727 
L 364.184803 205.807148 
L 364.045824 205.43773 
L 363.628888 202.184017 
L 363.35093 196.27334 
L 363.211951 197.452634 
L 363.072972 199.981721 
L 362.656036 194.497296 
L 362.517057 195.946548 
L 362.100121 189.396496 
L 361.544205 196.529091 
L 361.405226 195.335589 
L 361.266248 202.766559 
L 361.127269 202.468184 
L 360.710332 205.693481 
L 360.432375 203.519602 
L 360.293396 205.295647 
L 360.154417 196.7138 
L 359.737481 194.909338 
L 359.598502 194.80988 
L 359.459523 193.829503 
L 359.320544 194.824088 
L 359.181565 192.351834 
L 358.764629 191.030457 
L 358.62565 189.765913 
L 358.486671 190.561581 
L 358.347692 196.230715 
L 358.208713 197.2253 
L 357.791777 195.456928 
L 357.652798 196.287549 
L 357.513819 198.774011 
L 357.37484 204.826771 
L 357.235862 195.378214 
L 356.818925 197.708384 
L 356.679946 196.244924 
L 356.401989 197.466842 
L 356.26301 195.335589 
L 355.707094 194.02842 
L 355.568116 193.460086 
L 355.429137 194.483088 
L 355.290158 197.438426 
L 354.873222 196.131257 
L 354.734243 201.445182 
L 354.595264 193.703759 
L 354.456285 192.849127 
L 354.317306 190.405289 
L 353.90037 186.995284 
L 353.622412 182.306526 
L 353.483433 182.121818 
L 353.344454 181.098816 
L 352.927518 182.78961 
L 352.788539 182.405985 
L 352.64956 182.718569 
L 352.371603 183.812612 
L 351.954666 182.945902 
L 351.53773 186.029542 
L 351.398751 186.299074 
L 350.981814 185.631282 
L 350.842835 186.064636 
L 350.425899 191.215166 
L 350.008962 191.215166 
L 349.869984 190.845748 
L 349.731005 186.412741 
L 349.592026 186.355908 
L 349.036111 186.668492 
L 348.897132 186.569033 
L 348.758153 187.151718 
L 348.480195 189.566996 
L 348.063259 191.300416 
L 347.785301 195.349797 
L 347.646322 195.45295 
L 347.507344 195.250339 
L 347.090407 195.094047 
L 346.951428 195.406631 
L 346.812449 196.543299 
L 346.534492 195.76184 
L 346.117555 196.472115 
L 345.978576 195.76184 
L 345.700619 196.543299 
L 345.56164 197.154259 
L 345.144703 197.722593 
L 344.727767 200.33693 
L 344.588788 196.926925 
L 344.171852 193.062252 
L 344.032873 193.559544 
L 343.893894 193.587961 
L 343.615936 196.145465 
L 343.199 195.435047 
L 343.060021 196.117049 
L 342.921042 195.861298 
L 342.643085 198.163052 
L 342.226148 197.481051 
L 342.087169 197.594718 
L 341.670233 203.251206 
L 341.114317 207.00065 
L 340.83636 206.886983 
L 340.697381 207.398483 
L 340.280444 205.778731 
L 340.141466 207.299025 
L 339.724529 204.755729 
L 339.029635 202.226642 
L 338.890656 204.293958 
L 338.751677 202.766559 
L 338.195762 203.633269 
L 338.056783 203.533811 
L 337.917804 204.444566 
L 337.778825 204.357895 
L 337.361889 204.748625 
L 337.22291 202.382934 
L 337.083931 202.766559 
L 336.944953 206.588607 
L 336.805974 206.659649 
L 336.389037 208.165735 
L 336.11108 210.169113 
L 335.972101 210.240155 
L 335.277207 208.591985 
L 334.443334 211.248948 
L 333.887418 208.179943 
L 333.470482 208.762486 
L 333.331503 209.24557 
L 332.914566 212.414033 
L 332.49763 214.062203 
L 332.358651 215.340955 
L 332.219672 214.43162 
L 332.080693 215.184663 
L 331.941715 214.715787 
L 331.524778 215.909289 
L 331.385799 215.156246 
L 331.246821 224.02226 
L 331.107842 218.779377 
L 330.412948 219.234044 
L 330.273969 219.020919 
L 330.13499 219.887629 
L 329.996011 221.86259 
L 329.579075 222.430925 
L 329.023159 224.988429 
L 328.606223 225.149409 
L 328.467244 223.084509 
L 328.328265 225.769888 
L 328.050307 226.181931 
L 327.494392 225.095133 
L 327.355413 228.682601 
L 327.216434 223.667052 
L 327.077456 224.88897 
L 326.660519 224.903179 
L 326.382561 218.211043 
L 326.243583 218.594668 
L 326.104604 219.816587 
L 325.687667 218.765169 
L 325.40971 220.200213 
L 325.270731 218.83621 
L 325.131752 218.864627 
L 324.714816 219.134586 
L 324.436858 222.757717 
L 324.297879 221.336881 
L 324.1589 222.658258 
L 323.741964 224.54797 
L 323.464006 218.864627 
L 323.325027 218.40996 
L 322.630133 223.979635 
L 322.491154 221.919424 
L 322.352175 221.60684 
L 321.79626 221.69209 
L 321.657281 222.658258 
L 321.379324 227.645391 
L 321.240345 227.588558 
L 320.823408 229.90452 
L 320.545451 222.445133 
L 320.406472 225.514138 
L 319.850557 220.65488 
L 319.711578 217.045957 
L 319.572599 219.575045 
L 319.43362 219.845004 
L 319.294641 216.165039 
L 318.877705 216.875457 
L 318.738726 218.168418 
L 318.599747 218.196834 
L 318.460768 218.111584 
L 318.321789 219.78817 
L 317.904853 220.754338 
L 317.765874 221.400819 
L 317.487916 223.183967 
L 316.793022 225.968805 
L 316.654043 227.290182 
L 316.376086 225.26265 
L 315.959149 227.361224 
L 315.542213 232.9309 
L 314.847319 233.158376 
L 314.569361 235.261497 
L 313.874467 235.744154 
L 313.735488 235.741313 
L 313.596509 235.488404 
L 313.45753 233.399776 
L 312.901615 234.337527 
L 312.762636 233.939693 
L 312.484679 235.388945 
L 312.067742 236.440364 
L 311.650806 241.22858 
L 311.511827 238.088533 
L 310.955911 236.468781 
L 310.816933 235.00532 
L 310.677954 235.012424 
L 310.538975 236.539822 
L 310.122038 237.07974 
L 309.705102 238.0317 
L 309.566123 239.182577 
L 309.149187 238.855784 
L 308.871229 237.491782 
L 308.73225 237.25024 
L 308.593271 237.513095 
L 308.176335 237.33549 
L 308.037356 236.99179 
L 307.898377 236.021217 
L 307.62042 237.093948 
L 307.064504 238.2022 
L 306.925525 238.159575 
L 306.647568 239.814848 
L 306.230631 239.964036 
L 306.091652 239.097326 
L 305.952674 239.282035 
L 305.674716 242.663624 
L 305.257779 243.416667 
L 305.118801 243.303 
L 304.979822 242.990416 
L 304.701864 241.498539 
L 304.284928 241.200163 
L 303.867991 243.55875 
L 303.729012 243.487709 
L 303.312076 244.468085 
L 303.034118 246.201505 
L 302.75616 245.846296 
L 302.339224 246.641964 
L 302.200245 247.28134 
L 302.061266 248.503258 
L 301.922288 248.645342 
L 301.783309 246.32597 
L 301.366372 246.286755 
L 301.227393 246.386213 
L 300.949436 245.931546 
L 300.810457 246.514088 
L 300.39352 245.63317 
L 300.254542 244.64569 
L 300.115563 245.46267 
L 299.976584 244.916785 
L 299.420669 247.579715 
L 299.28169 246.627755 
L 299.142711 249.036072 
L 299.003732 249.44101 
L 298.308838 248.4038 
L 298.169859 248.673759 
L 298.03088 248.5743 
L 297.891901 248.915301 
L 297.474965 248.844259 
L 297.335986 249.382187 
L 297.058028 248.389592 
L 296.91905 249.597302 
L 296.502113 249.966719 
L 296.224156 248.773217 
L 295.946198 251.359138 
L 295.529261 253.930851 
L 295.112325 251.920368 
L 294.973346 252.176118 
L 294.55641 252.453181 
L 294.417431 252.801286 
L 294.278452 252.538432 
L 294.139473 252.843911 
L 294.000494 254.357101 
L 293.583558 254.939644 
L 293.444579 252.680515 
L 293.166621 253.149391 
L 293.027642 253.76035 
L 292.610706 253.660892 
L 292.332748 256.729897 
L 292.054791 258.207566 
L 291.637854 258.093899 
L 291.220918 260.566153 
L 290.665002 262.299572 
L 290.526024 262.92474 
L 290.387045 262.313781 
L 290.109087 262.299572 
L 289.692151 262.001197 
L 289.414193 259.471967 
L 289.275214 260.978195 
L 289.136235 259.663922 
L 288.719299 260.537736 
L 288.58032 262.157489 
L 288.302362 261.525217 
L 287.607468 262.129072 
L 287.468489 260.040444 
L 287.32951 260.978195 
L 287.190532 262.825282 
L 286.773595 259.686656 
L 286.634616 259.869943 
L 286.495637 259.72786 
L 286.356659 259.187942 
L 286.21768 259.202151 
L 285.800743 259.770485 
L 285.661764 260.821903 
L 285.522786 260.708236 
L 285.383807 261.63178 
L 284.827892 261.290779 
L 284.688913 260.921362 
L 284.549934 261.475488 
L 284.271976 263.450449 
L 283.716061 265.041785 
L 283.577082 264.643951 
L 283.438103 263.272987 
L 283.299124 263.706342 
L 282.882188 264.615534 
L 282.743209 265.283327 
L 282.60423 265.141244 
L 282.465251 265.524869 
L 282.326273 265.496453 
L 281.909336 264.331367 
L 281.770357 264.516076 
L 281.631378 264.949431 
L 281.4924 264.65816 
L 281.353421 266.192662 
L 280.936484 266.363162 
L 280.658527 265.041785 
L 280.519548 265.226494 
L 280.380569 265.013368 
L 279.963632 264.587118 
L 279.546696 268.679124 
L 278.851802 268.885146 
L 278.573844 270.199419 
L 278.434865 269.631084 
L 277.87895 269.616876 
L 277.739971 268.28129 
L 277.600992 269.517417 
L 277.462014 269.332709 
L 277.045077 269.489001 
L 276.906098 269.851314 
L 276.767119 269.432167 
L 276.628141 269.389542 
L 276.489162 270.000502 
L 276.072225 269.126688 
L 275.794268 269.936564 
L 275.655289 268.9775 
L 275.51631 265.652744 
L 274.960395 268.096582 
L 274.682437 268.522832 
L 274.543458 268.124998 
L 274.126522 268.764375 
L 273.848564 269.560042 
L 273.570606 269.602668 
L 273.15367 270.114168 
L 273.014691 269.801585 
L 272.875712 269.787376 
L 272.736733 270.865648 
L 272.180818 270.796169 
L 272.041839 270.710919 
L 271.763882 271.350295 
L 270.930009 272.060713 
L 270.652051 273.254215 
L 270.235114 274.049883 
L 270.096136 274.575592 
L 269.957157 274.476134 
L 269.818178 273.751508 
L 269.679199 274.106716 
L 269.262263 273.083715 
L 269.123284 278.940541 
L 268.706347 277.459889 
L 268.289411 277.374638 
L 268.150432 277.204138 
L 268.011453 276.706846 
L 267.733495 279.505892 
L 267.316559 279.534309 
L 267.17758 280.145268 
L 267.038601 280.173685 
L 266.899623 280.656769 
L 266.343707 280.145268 
L 266.204728 280.685185 
L 265.787792 279.292767 
L 265.370855 279.235933 
L 264.953919 282.901689 
L 264.398004 284.848234 
L 264.259025 284.421983 
L 264.120046 284.691942 
L 263.981067 284.410617 
L 263.425152 284.933484 
L 263.286173 285.530235 
L 263.147194 284.834026 
L 262.869236 284.762984 
L 262.4523 283.541065 
L 262.313321 282.219688 
L 261.896385 284.152024 
L 261.479448 282.873272 
L 261.340469 282.958522 
L 261.201491 283.49844 
L 260.923533 286.183819 
L 260.506596 288.101947 
L 260.08966 283.370565 
L 259.950681 282.759606 
L 259.533745 282.248105 
L 259.255787 282.788022 
L 259.116808 280.372602 
L 258.977829 280.244726 
L 258.560893 280.64256 
L 258.421914 281.068811 
L 258.143956 283.427398 
L 258.004977 279.619559 
L 257.588041 279.037016 
L 257.449062 277.147305 
L 257.171104 278.283973 
L 257.032126 279.1791 
L 256.47621 281.16827 
L 256.337231 280.813061 
L 256.198253 278.950629 
L 255.642337 277.999806 
L 255.503358 279.548517 
L 255.36438 279.562725 
L 255.086422 277.673014 
L 254.669486 279.164891 
L 254.530507 278.369223 
L 254.391528 278.696016 
L 254.252549 279.406433 
L 254.11357 278.951766 
L 253.696634 278.241348 
L 253.557655 279.747434 
L 253.140718 277.744056 
L 252.723782 277.516722 
L 252.584803 277.832148 
L 252.445824 277.871931 
L 252.306845 277.758264 
L 252.167867 278.359846 
L 251.472972 278.497099 
L 251.333994 279.392225 
L 251.195015 279.562725 
L 250.639099 277.388847 
L 250.500121 278.156098 
L 250.361142 278.184515 
L 250.222163 278.454474 
L 249.666248 279.747434 
L 249.527269 279.619559 
L 249.38829 279.306975 
L 249.249311 278.326598 
L 248.832375 278.781266 
L 248.693396 277.621296 
L 248.554417 278.14189 
L 248.415438 279.1791 
L 247.859523 279.726121 
L 247.581565 281.068953 
L 247.442586 281.083019 
L 247.303608 281.367187 
L 246.886671 281.154061 
L 246.747692 282.031996 
L 246.469735 280.273143 
L 246.330756 281.239311 
L 245.913819 282.106021 
L 245.77484 281.935521 
L 245.496883 281.480853 
L 245.357904 281.139853 
L 244.940967 282.660147 
L 244.801989 282.37598 
L 244.66301 282.46123 
L 244.524031 282.091813 
L 244.385052 282.29073 
L 243.968116 282.432813 
L 243.551179 284.947692 
L 243.4122 284.862442 
L 242.995264 283.697357 
L 242.856285 282.773814 
L 242.717306 284.493025 
L 242.578327 284.109399 
L 242.439349 282.532272 
L 242.022412 282.660147 
L 241.883433 283.157439 
L 241.744454 283.129023 
L 241.466497 284.625873 
L 241.04956 284.549858 
L 240.910581 284.848234 
L 240.632624 286.226444 
L 240.493645 286.76352 
L 240.076708 287.675697 
L 239.798751 290.233201 
L 239.103857 288.542407 
L 238.964878 286.837404 
L 238.825899 287.377321 
L 238.547941 290.474743 
L 238.131005 288.400323 
L 237.992026 285.274485 
L 237.853047 285.956486 
L 237.57509 285.075568 
L 237.158153 285.146609 
L 236.880195 284.421983 
L 236.741217 284.549858 
L 236.602238 282.518063 
L 236.185301 281.708187 
L 235.907344 280.344185 
L 235.768365 281.352978 
L 235.629386 281.495062 
L 235.073471 282.844856 
L 234.934492 283.747086 
L 234.795513 282.958522 
L 234.239598 283.256898 
L 234.100619 283.626315 
L 233.96164 283.24269 
L 233.822661 283.484232 
L 233.683682 285.629693 
L 233.266746 285.558652 
L 233.127767 286.681112 
L 232.988788 285.785985 
L 232.849809 285.729152 
L 232.71083 285.537339 
L 232.293894 285.217651 
L 232.154915 285.345526 
L 232.015936 283.725774 
L 231.876958 283.725774 
L 231.737979 285.103984 
L 231.043085 286.496403 
L 230.904106 285.103984 
L 230.765127 284.947692 
L 230.34819 285.601277 
L 230.209212 283.811024 
L 229.931254 284.6209 
L 229.375339 283.690253 
L 229.23636 280.401018 
L 229.097381 280.443643 
L 228.958402 280.315768 
L 228.819423 280.571519 
L 228.402487 281.793437 
L 228.263508 281.821854 
L 228.124529 282.873272 
L 227.98555 284.834026 
L 227.846571 284.507233 
L 227.429635 284.734567 
L 227.290656 285.643902 
L 227.151677 285.217651 
L 227.012698 286.368528 
L 226.87372 285.175168 
L 226.456783 285.260276 
L 226.317804 287.149988 
L 226.178825 287.036321 
L 225.900868 290.915202 
L 225.205974 291.05828 
L 225.066995 291.79612 
L 224.928016 291.384078 
L 224.51108 291.156744 
L 224.372101 291.767703 
L 223.955164 294.538333 
L 223.538228 294.127711 
L 223.26027 295.444826 
L 223.121291 294.8225 
L 222.982312 292.080287 
L 222.287418 290.446326 
L 222.148439 290.389493 
L 222.009461 291.448015 
L 221.592524 291.426703 
L 221.453545 292.236579 
L 221.314566 293.863436 
L 221.175588 292.545753 
L 221.036609 292.449705 
L 220.619672 294.538333 
L 220.480693 293.78529 
L 220.341715 293.969999 
L 219.646821 296.314377 
L 219.507842 298.303547 
L 219.368863 295.518709 
L 219.229884 297.721005 
L 219.090905 296.925337 
L 218.53499 290.403701 
L 218.396011 290.410805 
L 218.257032 291.005993 
L 218.118053 290.190576 
L 217.701117 290.58841 
L 217.562138 294.353624 
L 217.423159 293.458498 
L 217.28418 293.756873 
L 217.145202 292.847539 
L 216.728265 292.463913 
L 216.450307 294.978792 
L 216.311329 292.691247 
L 215.755413 292.790705 
L 215.477456 289.323866 
L 215.338477 289.877992 
L 215.199498 291.185161 
L 214.782561 290.574201 
L 213.670731 284.478817 
L 213.392773 283.640524 
L 213.253794 284.691942 
L 212.5589 284.672192 
L 212.419921 286.340253 
L 212.280943 286.52482 
L 211.864006 285.345526 
L 211.725027 282.37598 
L 211.44707 283.555273 
L 211.308091 286.567445 
L 210.891154 286.837404 
L 210.613197 283.129023 
L 210.474218 283.24269 
L 210.335239 282.077604 
L 209.918302 282.20548 
L 209.779324 283.100606 
L 209.640345 282.560689 
L 209.501366 282.873272 
L 209.362387 282.589105 
L 208.528514 282.489647 
L 208.389535 281.665562 
L 207.83362 281.33877 
L 207.694641 282.063396 
L 207.416684 284.322525 
L 206.999747 284.237275 
L 206.860768 283.982235 
L 206.721789 282.418605 
L 206.443832 285.047151 
L 205.887916 283.185856 
L 205.609959 284.7914 
L 205.47098 288.158781 
L 205.054043 284.464608 
L 204.915065 284.606692 
L 204.776086 284.350941 
L 204.637107 285.359735 
L 204.498128 285.175026 
L 204.081192 286.141194 
L 203.942213 287.249446 
L 203.803234 287.121571 
L 203.664255 287.192613 
L 203.525276 286.574549 
L 203.10834 287.689905 
L 202.969361 289.295449 
L 202.691403 289.522783 
L 202.552425 289.267033 
L 201.162636 295.94496 
L 201.023657 295.888127 
L 200.7457 298.829257 
L 200.606721 296.584336 
L 200.189784 294.90775 
L 200.050806 296.087044 
L 199.911827 295.355313 
L 199.772848 296.428044 
L 199.633869 295.106667 
L 199.216933 295.831293 
L 199.077954 293.685832 
L 198.799996 295.921232 
L 198.661017 295.845502 
L 198.244081 295.831293 
L 198.105102 296.058627 
L 197.966123 295.028521 
L 197.827144 295.547126 
L 197.271229 297.110045 
L 197.13225 295.440564 
L 196.993271 297.053212 
L 196.854292 296.428044 
L 196.715314 294.019728 
L 196.298377 293.195643 
L 196.159398 293.444289 
L 196.02042 295.575543 
L 195.881441 294.424666 
L 195.742462 295.476084 
L 195.047568 289.934825 
L 194.76961 290.67366 
L 194.213695 290.694973 
L 194.074716 291.533266 
L 193.935737 290.915202 
L 193.796758 289.622242 
L 193.379822 290.858369 
L 193.101864 288.215614 
L 192.823906 288.400323 
L 192.267991 287.377321 
L 192.129012 287.846197 
L 191.851055 290.290176 
L 191.434118 287.149988 
L 191.295139 293.78529 
L 191.15616 293.927374 
L 191.017182 292.890164 
L 190.878203 292.719663 
L 190.322288 296.143877 
L 190.183309 296.584336 
L 190.04433 296.55592 
L 189.905351 297.550504 
L 189.349436 299.909234 
L 189.210457 300.79001 
L 189.071478 299.539674 
L 188.932499 299.653341 
L 188.237605 299.397591 
L 188.098626 300.562676 
L 187.959647 299.127632 
L 187.403732 297.863088 
L 187.264753 297.834672 
L 187.125774 297.564855 
L 186.986796 297.777838 
L 186.569859 297.93413 
L 186.43088 297.209504 
L 186.152923 298.161464 
L 186.013944 298.417214 
L 185.458028 296.953753 
L 185.31905 297.451046 
L 185.180071 299.695966 
L 185.041092 299.411799 
L 184.624156 298.829541 
L 184.346198 297.692588 
L 184.06824 297.76363 
L 183.651304 297.544395 
L 183.512325 297.294754 
L 183.373346 297.351587 
L 183.234367 297.694009 
L 182.539473 297.166879 
L 182.261515 296.18295 
L 182.122537 296.64117 
L 181.7056 296.001794 
L 181.427642 298.573506 
L 181.288664 298.403006 
L 181.149685 297.408421 
L 180.732748 296.754979 
L 180.593769 301.557261 
L 180.315812 302.111387 
L 180.176833 302.466596 
L 179.759896 301.727761 
L 179.481939 299.170257 
L 179.34296 300.534259 
L 179.203981 298.957132 
L 178.787045 299.568091 
L 178.648066 299.5114 
L 178.509087 297.010587 
L 178.370108 302.907055 
L 178.231129 303.787973 
L 177.814193 303.375931 
L 177.675214 302.651304 
L 177.536235 302.793388 
L 177.397256 302.750763 
L 177.258278 301.528844 
L 176.841341 301.685136 
L 176.563383 301.472011 
L 176.285426 303.177014 
L 175.72951 303.20543 
L 175.590532 303.348224 
L 175.451553 302.374241 
L 175.312574 302.210845 
L 174.895637 302.935472 
L 174.756659 302.239262 
L 174.478701 300.264301 
L 174.339722 299.525466 
L 173.922786 300.250092 
L 173.644828 301.251781 
L 173.505849 301.116802 
L 173.36687 300.516499 
L 172.949934 300.946302 
L 172.810955 300.534259 
L 172.671976 301.464907 
L 172.394019 299.749248 
L 171.838103 298.708485 
L 171.699124 298.704933 
L 171.560146 297.461702 
L 171.421167 297.589577 
L 171.00423 299.045934 
L 170.865251 298.935819 
L 170.031378 299.468633 
L 169.8924 300.509395 
L 169.614442 299.827394 
L 169.058527 299.557435 
L 168.919548 300.211019 
L 168.780569 301.848532 
L 168.502611 301.123906 
L 168.085675 299.663997 
L 167.946696 299.894883 
L 167.529759 305.397069 
L 167.112823 302.80106 
L 166.973844 308.064688 
L 166.834865 306.569259 
L 166.695887 306.292196 
L 166.556908 305.048965 
L 166.139971 303.855463 
L 166.000992 304.441557 
L 165.723035 304.196463 
L 165.167119 305.826872 
L 164.889162 304.583641 
L 164.750183 302.022585 
L 164.611204 303.375931 
L 164.055289 302.267679 
L 163.91631 303.68141 
L 163.777331 303.809285 
L 163.638352 302.843117 
L 163.221416 301.688688 
L 162.943458 301.511084 
L 162.804479 302.175324 
L 162.6655 301.35124 
L 162.248564 300.775801 
L 161.970606 300.94275 
L 161.692649 302.555398 
L 161.136733 302.505669 
L 160.858776 304.636922 
L 160.719797 304.494839 
L 160.163882 302.104283 
L 159.885924 302.40621 
L 159.746945 302.086522 
L 159.052051 303.418556 
L 158.913072 303.997546 
L 158.774093 303.855463 
L 157.94022 304.796766 
L 157.801241 305.773591 
L 157.384305 305.308267 
L 157.106347 307.343614 
L 156.967368 307.023216 
L 156.82839 307.130489 
L 156.411453 307.226395 
L 156.272474 306.785936 
L 156.133495 306.871186 
L 155.994517 307.681063 
L 155.855538 306.785936 
L 155.438601 306.77528 
L 155.299623 307.318749 
L 155.160644 306.807249 
L 155.021665 310.121348 
L 154.882686 310.053858 
L 154.46575 310.302504 
L 154.326771 311.446277 
L 154.187792 318.863039 
L 153.909834 320.166656 
L 153.492898 320.372677 
L 153.353919 319.751061 
L 153.075961 320.646188 
L 152.936982 322.48617 
L 152.520046 323.06516 
L 152.242088 324.699121 
L 151.964131 322.646014 
L 151.547194 321.999534 
L 151.408215 321.061782 
L 151.269236 320.944563 
L 151.130258 321.459616 
L 150.991279 320.727886 
L 150.574342 321.029813 
L 150.435363 321.846794 
L 150.296385 320.493448 
L 150.157406 320.417859 
L 150.018427 321.328189 
L 149.601491 321.05894 
L 149.323533 320.070749 
L 149.184554 320.461479 
L 149.045575 319.367436 
L 148.628639 318.951841 
L 148.48966 319.473998 
L 148.211702 319.083268 
L 148.072723 319.854072 
L 147.655787 319.804343 
L 147.516808 319.449134 
L 147.377829 318.774237 
L 147.23885 319.903801 
L 147.099872 319.637394 
L 146.682935 320.294531 
L 146.543956 319.672915 
L 146.404977 319.658707 
L 146.265999 320.081406 
L 145.710083 320.070749 
L 145.571104 319.807895 
L 145.293147 319.005123 
L 145.154168 319.246665 
L 144.459274 319.559248 
L 143.625401 320.926803 
L 143.208464 321.41486 
L 142.791528 321.651429 
L 142.652549 321.33103 
L 142.51357 321.356605 
L 142.235613 320.720782 
L 141.818676 320.759855 
L 141.679697 320.653292 
L 141.40174 319.818551 
L 141.262761 320.084958 
L 140.845824 319.466894 
L 140.706845 316.92715 
L 140.567867 317.392474 
L 140.428888 317.374714 
L 140.289909 318.248528 
L 139.595015 317.172245 
L 139.456036 316.607462 
L 138.900121 319.346123 
L 138.761142 319.399404 
L 138.622163 319.616082 
L 138.344205 319.164967 
L 137.78829 319.360331 
L 137.649311 319.896697 
L 137.510332 319.946426 
L 137.371354 321.22873 
L 136.815438 321.896523 
L 136.537481 321.637221 
L 136.398502 321.914283 
L 135.981565 321.093751 
L 135.842586 321.079543 
L 135.703608 321.402783 
L 135.564629 321.164793 
L 135.42565 321.495137 
L 135.008713 321.111511 
L 134.591777 320.148895 
L 134.452798 320.42951 
L 134.035862 320.639084 
L 133.757904 321.338845 
L 133.479946 319.825655 
L 133.06301 319.733301 
L 132.924031 320.180864 
L 132.646073 320.24125 
L 132.090158 321.04047 
L 131.951179 321.747335 
L 131.8122 321.609088 
L 131.673222 321.733127 
L 131.534243 321.498689 
L 130.978327 321.956909 
L 130.70037 320.891282 
L 130.561391 320.965876 
L 130.144454 321.537762 
L 130.005476 321.100855 
L 129.727518 322.905316 
L 129.588539 322.599837 
L 129.171603 322.8769 
L 129.032624 322.802306 
L 128.893645 324.105922 
L 128.754666 323.960287 
L 128.615687 324.71333 
L 128.198751 324.049089 
L 128.059772 321.669189 
L 127.920793 321.740231 
L 127.781814 321.640773 
L 127.642835 322.024398 
L 127.08692 321.299772 
L 126.947941 322.003086 
L 126.669984 324.706226 
L 126.253047 325.398883 
L 126.114068 322.177138 
L 125.836111 323.296046 
L 125.697132 322.756129 
L 125.141217 319.616082 
L 125.002238 319.537936 
L 124.863259 318.948715 
L 124.72428 319.76527 
L 124.168365 319.655155 
L 123.751428 316.081753 
L 123.334492 313.794208 
L 123.195513 316.831244 
L 123.056534 315.776274 
L 122.917555 315.88994 
L 122.778576 316.916494 
L 122.36164 317.612419 
L 122.222661 315.63419 
L 122.083682 315.5667 
L 121.944703 315.314502 
L 121.805725 316.032024 
L 121.388788 316.259358 
L 121.249809 316.138587 
L 121.11083 316.234493 
L 120.971852 316.174108 
L 120.832873 316.859661 
L 120.415936 315.456586 
L 120.137979 315.488554 
L 119.999 315.300294 
L 119.443085 316.635879 
L 119.304106 316.529316 
L 119.026148 315.282533 
L 118.470233 316.078201 
L 118.331254 316.607462 
L 118.192275 316.554181 
L 117.914317 317.53811 
L 117.497381 317.584287 
L 117.219423 319.452686 
L 117.080444 319.758165 
L 116.941466 319.063661 
L 116.524529 318.685435 
L 116.38555 316.163451 
L 116.246571 318.030998 
L 116.107593 317.456412 
L 115.968614 317.559422 
L 115.551677 315.822451 
L 115.27372 313.385718 
L 115.134741 312.788967 
L 114.578825 313.939843 
L 114.439847 316.959119 
L 114.300868 316.554181 
L 114.161889 317.353401 
L 114.02291 316.808084 
L 113.605974 317.321432 
L 113.466995 316.68916 
L 113.189037 317.545214 
L 113.050058 317.474172 
L 112.633122 317.410235 
L 112.494143 317.573631 
L 112.216185 317.328536 
L 112.077207 317.720687 
L 111.66027 317.797412 
L 111.521291 318.205902 
L 111.243334 318.441761 
L 111.104355 318.710299 
L 110.548439 319.051584 
L 110.131503 321.644325 
L 109.714566 322.557212 
L 109.575588 323.391953 
L 109.436609 322.58918 
L 109.29763 324.79858 
L 109.158651 324.439819 
L 108.741715 324.034881 
L 108.602736 324.354569 
L 108.463757 324.216037 
L 108.324778 324.47534 
L 108.185799 323.093577 
L 107.768863 323.597974 
L 107.490905 323.683224 
L 107.212948 324.457579 
L 106.657032 324.688465 
L 106.518053 325.327841 
L 106.379075 325.256799 
L 106.240096 324.436267 
L 105.823159 324.496652 
L 105.545202 325.477029 
L 105.406223 325.690154 
L 105.267244 325.507293 
L 104.850307 325.945905 
L 104.711329 325.271008 
L 104.57235 325.331393 
L 104.433371 326.118536 
L 104.294392 325.398883 
L 103.877456 325.05433 
L 103.738477 325.789613 
L 103.599498 323.658359 
L 103.460519 323.534036 
L 103.32154 323.800443 
L 102.765625 324.198277 
L 102.626646 325.715871 
L 102.487667 324.446923 
L 102.348689 324.802132 
L 101.931752 325.047226 
L 101.375837 327.60473 
L 100.9589 328.169512 
L 100.680943 330.833579 
L 100.541964 329.52641 
L 100.402985 329.67915 
L 99.569112 327.668668 
L 99.430133 328.254762 
L 98.874218 327.352532 
L 98.735239 327.530136 
L 98.457281 325.093403 
L 97.901366 326.109301 
L 97.623408 328.276075 
L 96.789535 330.183547 
L 96.650557 330.85134 
L 96.511578 332.982593 
L 96.094641 333.252552 
L 95.955662 333.67525 
L 95.677705 333.071395 
L 95.121789 334.101501 
L 94.982811 333.469229 
L 94.704853 334.250689 
L 94.565874 332.694874 
L 94.148938 332.293488 
L 94.009959 331.995112 
L 93.87098 331.970248 
L 93.732001 334.183199 
L 93.593022 333.607761 
L 93.176086 334.375012 
L 92.898128 331.9738 
L 92.62017 332.510165 
L 92.203234 332.024524 
L 92.064255 331.594152 
L 91.925276 331.792643 
L 91.647319 330.677287 
L 91.230382 331.050257 
L 91.091403 331.877893 
L 90.952425 327.210448 
L 90.813446 327.814303 
L 90.25753 327.317011 
L 90.118552 326.819719 
L 89.979573 329.004253 
L 89.840594 328.428815 
L 89.701615 328.485648 
L 89.284679 328.244106 
L 89.1457 328.453964 
L 89.006721 328.968732 
L 88.728763 328.30094 
L 88.172848 328.929659 
L 88.033869 329.728453 
L 87.89489 329.11792 
L 87.755911 327.967043 
L 87.338975 328.645492 
L 86.922038 330.00239 
L 86.78306 329.853203 
L 86.366123 330.826475 
L 86.227144 330.727016 
L 85.810208 332.68777 
L 85.254292 331.622143 
L 85.115314 330.680839 
L 84.976335 330.645318 
L 84.837356 331.181684 
L 84.42042 331.622143 
L 84.281441 331.522684 
L 84.142462 332.275727 
L 83.864504 331.387705 
L 83.447568 332.147852 
L 83.308589 332.709082 
L 83.16961 332.435571 
L 83.030631 331.881445 
L 82.891652 332.261519 
L 82.335737 331.796195 
L 82.196758 332.432019 
L 82.057779 331.60083 
L 81.501864 332.112331 
L 81.362885 332.677113 
L 81.223906 330.933038 
L 81.084928 331.547549 
L 80.945949 330.762537 
L 80.529012 330.876204 
L 80.390033 331.884998 
L 80.251055 331.862975 
L 80.112076 331.9738 
L 79.973097 332.346769 
L 79.55616 332.851166 
L 79.417182 332.545686 
L 79.278203 332.680665 
L 79.139224 332.55279 
L 79.000245 332.230829 
L 78.583309 332.204686 
L 78.44433 332.623832 
L 78.305351 336.673214 
L 78.166372 336.090671 
L 78.027393 336.587963 
L 77.610457 336.198939 
L 77.471478 335.88465 
L 77.19352 337.589653 
L 77.054542 338.06208 
L 76.637605 338.147331 
L 76.498626 338.403081 
L 75.525774 336.801089 
L 75.108838 337.344558 
L 74.691901 337.682007 
L 74.274965 336.44588 
L 74.135986 335.703493 
L 73.580071 335.71415 
L 73.302113 336.843714 
L 73.163134 338.086945 
L 72.607219 339.703146 
L 72.46824 339.617895 
L 72.329261 339.838125 
L 72.329261 339.838125 
" clip-path="url(#p8cc37b03fb)" style="fill: none; stroke: #000000; stroke-width: 0.25; stroke-linecap: square"/>
   </g>
   <g id="patch_3">
    <path d="M 46.965625 354.958125 
L 46.965625 22.318125 
" style="fill: none; stroke: #000000; stroke-width: 0.8; stroke-linejoin: miter; stroke-linecap: square"/>
   </g>
   <g id="patch_4">
    <path d="M 604.965625 354.958125 
L 604.965625 22.318125 
" style="fill: none; stroke: #000000; stroke-width: 0.8; stroke-linejoin: miter; stroke-linecap: square"/>
   </g>
   <g id="patch_5">
    <path d="M 46.965625 354.958125 
L 604.965625 354.958125 
" style="fill: none; stroke: #000000; stroke-width: 0.8; stroke-linejoin: miter; stroke-linecap: square"/>
   </g>
   <g id="patch_6">
    <path d="M 46.965625 22.318125 
L 604.965625 22.318125 
" style="fill: none; stroke: #000000; stroke-width: 0.8; stroke-linejoin: miter; stroke-linecap: square"/>
   </g>
   <g id="text_18">
    <!-- V, High Price (2013-2023) -->
    <g transform="translate(248.419375 16.318125)scale(0.12 -0.12)">
     <defs>
      <path id="DejaVuSans-56" d="M 1831 0 
L 50 4666 
L 709 4666 
L 2188 738 
L 3669 4666 
L 4325 4666 
L 2547 0 
L 1831 0 
z
" transform="scale(0.015625)"/>
      <path id="DejaVuSans-2c" d="M 750 794 
L 1409 794 
L 1409 256 
L 897 -744 
L 494 -744 
L 750 256 
L 750 794 
z
" transform="scale(0.015625)"/>
      <path id="DejaVuSans-48" d="M 628 4666 
L 1259 4666 
L 1259 2753 
L 3553 2753 
L 3553 4666 
L 4184 4666 
L 4184 0 
L 3553 0 
L 3553 2222 
L 1259 2222 
L 1259 0 
L 628 0 
L 628 4666 
z
" transform="scale(0.015625)"/>
      <path id="DejaVuSans-67" d="M 2906 1791 
Q 2906 2416 2648 2759 
Q 2391 3103 1925 3103 
Q 1463 3103 1205 2759 
Q 947 2416 947 1791 
Q 947 1169 1205 825 
Q 1463 481 1925 481 
Q 2391 481 2648 825 
Q 2906 1169 2906 1791 
z
M 3481 434 
Q 3481 -459 3084 -895 
Q 2688 -1331 1869 -1331 
Q 1566 -1331 1297 -1286 
Q 1028 -1241 775 -1147 
L 775 -588 
Q 1028 -725 1275 -790 
Q 1522 -856 1778 -856 
Q 2344 -856 2625 -561 
Q 2906 -266 2906 331 
L 2906 616 
Q 2728 306 2450 153 
Q 2172 0 1784 0 
Q 1141 0 747 490 
Q 353 981 353 1791 
Q 353 2603 747 3093 
Q 1141 3584 1784 3584 
Q 2172 3584 2450 3431 
Q 2728 3278 2906 2969 
L 2906 3500 
L 3481 3500 
L 3481 434 
z
" transform="scale(0.015625)"/>
      <path id="DejaVuSans-68" d="M 3513 2113 
L 3513 0 
L 2938 0 
L 2938 2094 
Q 2938 2591 2744 2837 
Q 2550 3084 2163 3084 
Q 1697 3084 1428 2787 
Q 1159 2491 1159 1978 
L 1159 0 
L 581 0 
L 581 4863 
L 1159 4863 
L 1159 2956 
Q 1366 3272 1645 3428 
Q 1925 3584 2291 3584 
Q 2894 3584 3203 3211 
Q 3513 2838 3513 2113 
z
" transform="scale(0.015625)"/>
      <path id="DejaVuSans-2d" d="M 313 2009 
L 1997 2009 
L 1997 1497 
L 313 1497 
L 313 2009 
z
" transform="scale(0.015625)"/>
     </defs>
     <use xlink:href="#DejaVuSans-56"/>
     <use xlink:href="#DejaVuSans-2c" x="68.408203"/>
     <use xlink:href="#DejaVuSans-20" x="100.195312"/>
     <use xlink:href="#DejaVuSans-48" x="131.982422"/>
     <use xlink:href="#DejaVuSans-69" x="207.177734"/>
     <use xlink:href="#DejaVuSans-67" x="234.960938"/>
     <use xlink:href="#DejaVuSans-68" x="298.4375"/>
     <use xlink:href="#DejaVuSans-20" x="361.816406"/>
     <use xlink:href="#DejaVuSans-50" x="393.603516"/>
     <use xlink:href="#DejaVuSans-72" x="452.15625"/>
     <use xlink:href="#DejaVuSans-69" x="493.269531"/>
     <use xlink:href="#DejaVuSans-63" x="521.052734"/>
     <use xlink:href="#DejaVuSans-65" x="576.033203"/>
     <use xlink:href="#DejaVuSans-20" x="637.556641"/>
     <use xlink:href="#DejaVuSans-28" x="669.34375"/>
     <use xlink:href="#DejaVuSans-32" x="708.357422"/>
     <use xlink:href="#DejaVuSans-30" x="771.980469"/>
     <use xlink:href="#DejaVuSans-31" x="835.603516"/>
     <use xlink:href="#DejaVuSans-33" x="899.226562"/>
     <use xlink:href="#DejaVuSans-2d" x="962.849609"/>
     <use xlink:href="#DejaVuSans-32" x="998.933594"/>
     <use xlink:href="#DejaVuSans-30" x="1062.556641"/>
     <use xlink:href="#DejaVuSans-32" x="1126.179688"/>
     <use xlink:href="#DejaVuSans-33" x="1189.802734"/>
     <use xlink:href="#DejaVuSans-29" x="1253.425781"/>
    </g>
   </g>
  </g>
 </g>
 <defs>
  <clipPath id="p8cc37b03fb">
   <rect x="46.965625" y="22.318125" width="558" height="332.64"/>
  </clipPath>
 </defs>
</svg>
