<?xml version="1.0" encoding="utf-8" standalone="no"?>
<!DOCTYPE svg PUBLIC "-//W3C//DTD SVG 1.1//EN"
  "http://www.w3.org/Graphics/SVG/1.1/DTD/svg11.dtd">
<svg xmlns:xlink="http://www.w3.org/1999/xlink" width="612.165625pt" height="392.514375pt" viewBox="0 0 612.165625 392.514375" xmlns="http://www.w3.org/2000/svg" version="1.1">
 <metadata>
  <rdf:RDF xmlns:dc="http://purl.org/dc/elements/1.1/" xmlns:cc="http://creativecommons.org/ns#" xmlns:rdf="http://www.w3.org/1999/02/22-rdf-syntax-ns#">
   <cc:Work>
    <dc:type rdf:resource="http://purl.org/dc/dcmitype/StillImage"/>
    <dc:date>2023-04-24T21:55:15.087204</dc:date>
    <dc:format>image/svg+xml</dc:format>
    <dc:creator>
     <cc:Agent>
      <dc:title>Matplotlib v3.5.1, https://matplotlib.org/</dc:title>
     </cc:Agent>
    </dc:creator>
   </cc:Work>
  </rdf:RDF>
 </metadata>
 <defs>
  <style type="text/css">*{stroke-linejoin: round; stroke-linecap: butt}</style>
 </defs>
 <g id="figure_1">
  <g id="patch_1">
   <path d="M 0 392.514375 
L 612.165625 392.514375 
L 612.165625 0 
L 0 0 
z
" style="fill: #ffffff"/>
  </g>
  <g id="axes_1">
   <g id="patch_2">
    <path d="M 46.965625 354.958125 
L 604.965625 354.958125 
L 604.965625 22.318125 
L 46.965625 22.318125 
z
" style="fill: #ffffff"/>
   </g>
   <g id="matplotlib.axis_1">
    <g id="xtick_1">
     <g id="line2d_1">
      <defs>
       <path id="m14ef2dd9b6" d="M 0 0 
L 0 3.5 
" style="stroke: #000000; stroke-width: 0.8"/>
      </defs>
      <g>
       <use xlink:href="#m14ef2dd9b6" x="72.329261" y="354.958125" style="stroke: #000000; stroke-width: 0.8"/>
      </g>
     </g>
     <g id="text_1">
      <!-- 0 -->
      <g transform="translate(69.148011 369.556562)scale(0.1 -0.1)">
       <defs>
        <path id="DejaVuSans-30" d="M 2034 4250 
Q 1547 4250 1301 3770 
Q 1056 3291 1056 2328 
Q 1056 1369 1301 889 
Q 1547 409 2034 409 
Q 2525 409 2770 889 
Q 3016 1369 3016 2328 
Q 3016 3291 2770 3770 
Q 2525 4250 2034 4250 
z
M 2034 4750 
Q 2819 4750 3233 4129 
Q 3647 3509 3647 2328 
Q 3647 1150 3233 529 
Q 2819 -91 2034 -91 
Q 1250 -91 836 529 
Q 422 1150 422 2328 
Q 422 3509 836 4129 
Q 1250 4750 2034 4750 
z
" transform="scale(0.015625)"/>
       </defs>
       <use xlink:href="#DejaVuSans-30"/>
      </g>
     </g>
    </g>
    <g id="xtick_2">
     <g id="line2d_2">
      <g>
       <use xlink:href="#m14ef2dd9b6" x="189.15854" y="354.958125" style="stroke: #000000; stroke-width: 0.8"/>
      </g>
     </g>
     <g id="text_2">
      <!-- 500 -->
      <g transform="translate(179.61479 369.556562)scale(0.1 -0.1)">
       <defs>
        <path id="DejaVuSans-35" d="M 691 4666 
L 3169 4666 
L 3169 4134 
L 1269 4134 
L 1269 2991 
Q 1406 3038 1543 3061 
Q 1681 3084 1819 3084 
Q 2600 3084 3056 2656 
Q 3513 2228 3513 1497 
Q 3513 744 3044 326 
Q 2575 -91 1722 -91 
Q 1428 -91 1123 -41 
Q 819 9 494 109 
L 494 744 
Q 775 591 1075 516 
Q 1375 441 1709 441 
Q 2250 441 2565 725 
Q 2881 1009 2881 1497 
Q 2881 1984 2565 2268 
Q 2250 2553 1709 2553 
Q 1456 2553 1204 2497 
Q 953 2441 691 2322 
L 691 4666 
z
" transform="scale(0.015625)"/>
       </defs>
       <use xlink:href="#DejaVuSans-35"/>
       <use xlink:href="#DejaVuSans-30" x="63.623047"/>
       <use xlink:href="#DejaVuSans-30" x="127.246094"/>
      </g>
     </g>
    </g>
    <g id="xtick_3">
     <g id="line2d_3">
      <g>
       <use xlink:href="#m14ef2dd9b6" x="305.987818" y="354.958125" style="stroke: #000000; stroke-width: 0.8"/>
      </g>
     </g>
     <g id="text_3">
      <!-- 1000 -->
      <g transform="translate(293.262818 369.556562)scale(0.1 -0.1)">
       <defs>
        <path id="DejaVuSans-31" d="M 794 531 
L 1825 531 
L 1825 4091 
L 703 3866 
L 703 4441 
L 1819 4666 
L 2450 4666 
L 2450 531 
L 3481 531 
L 3481 0 
L 794 0 
L 794 531 
z
" transform="scale(0.015625)"/>
       </defs>
       <use xlink:href="#DejaVuSans-31"/>
       <use xlink:href="#DejaVuSans-30" x="63.623047"/>
       <use xlink:href="#DejaVuSans-30" x="127.246094"/>
       <use xlink:href="#DejaVuSans-30" x="190.869141"/>
      </g>
     </g>
    </g>
    <g id="xtick_4">
     <g id="line2d_4">
      <g>
       <use xlink:href="#m14ef2dd9b6" x="422.817097" y="354.958125" style="stroke: #000000; stroke-width: 0.8"/>
      </g>
     </g>
     <g id="text_4">
      <!-- 1500 -->
      <g transform="translate(410.092097 369.556562)scale(0.1 -0.1)">
       <use xlink:href="#DejaVuSans-31"/>
       <use xlink:href="#DejaVuSans-35" x="63.623047"/>
       <use xlink:href="#DejaVuSans-30" x="127.246094"/>
       <use xlink:href="#DejaVuSans-30" x="190.869141"/>
      </g>
     </g>
    </g>
    <g id="xtick_5">
     <g id="line2d_5">
      <g>
       <use xlink:href="#m14ef2dd9b6" x="539.646375" y="354.958125" style="stroke: #000000; stroke-width: 0.8"/>
      </g>
     </g>
     <g id="text_5">
      <!-- 2000 -->
      <g transform="translate(526.921375 369.556562)scale(0.1 -0.1)">
       <defs>
        <path id="DejaVuSans-32" d="M 1228 531 
L 3431 531 
L 3431 0 
L 469 0 
L 469 531 
Q 828 903 1448 1529 
Q 2069 2156 2228 2338 
Q 2531 2678 2651 2914 
Q 2772 3150 2772 3378 
Q 2772 3750 2511 3984 
Q 2250 4219 1831 4219 
Q 1534 4219 1204 4116 
Q 875 4013 500 3803 
L 500 4441 
Q 881 4594 1212 4672 
Q 1544 4750 1819 4750 
Q 2544 4750 2975 4387 
Q 3406 4025 3406 3419 
Q 3406 3131 3298 2873 
Q 3191 2616 2906 2266 
Q 2828 2175 2409 1742 
Q 1991 1309 1228 531 
z
" transform="scale(0.015625)"/>
       </defs>
       <use xlink:href="#DejaVuSans-32"/>
       <use xlink:href="#DejaVuSans-30" x="63.623047"/>
       <use xlink:href="#DejaVuSans-30" x="127.246094"/>
       <use xlink:href="#DejaVuSans-30" x="190.869141"/>
      </g>
     </g>
    </g>
    <g id="text_6">
     <!-- Date -->
     <g transform="translate(314.014844 383.234687)scale(0.1 -0.1)">
      <defs>
       <path id="DejaVuSans-44" d="M 1259 4147 
L 1259 519 
L 2022 519 
Q 2988 519 3436 956 
Q 3884 1394 3884 2338 
Q 3884 3275 3436 3711 
Q 2988 4147 2022 4147 
L 1259 4147 
z
M 628 4666 
L 1925 4666 
Q 3281 4666 3915 4102 
Q 4550 3538 4550 2338 
Q 4550 1131 3912 565 
Q 3275 0 1925 0 
L 628 0 
L 628 4666 
z
" transform="scale(0.015625)"/>
       <path id="DejaVuSans-61" d="M 2194 1759 
Q 1497 1759 1228 1600 
Q 959 1441 959 1056 
Q 959 750 1161 570 
Q 1363 391 1709 391 
Q 2188 391 2477 730 
Q 2766 1069 2766 1631 
L 2766 1759 
L 2194 1759 
z
M 3341 1997 
L 3341 0 
L 2766 0 
L 2766 531 
Q 2569 213 2275 61 
Q 1981 -91 1556 -91 
Q 1019 -91 701 211 
Q 384 513 384 1019 
Q 384 1609 779 1909 
Q 1175 2209 1959 2209 
L 2766 2209 
L 2766 2266 
Q 2766 2663 2505 2880 
Q 2244 3097 1772 3097 
Q 1472 3097 1187 3025 
Q 903 2953 641 2809 
L 641 3341 
Q 956 3463 1253 3523 
Q 1550 3584 1831 3584 
Q 2591 3584 2966 3190 
Q 3341 2797 3341 1997 
z
" transform="scale(0.015625)"/>
       <path id="DejaVuSans-74" d="M 1172 4494 
L 1172 3500 
L 2356 3500 
L 2356 3053 
L 1172 3053 
L 1172 1153 
Q 1172 725 1289 603 
Q 1406 481 1766 481 
L 2356 481 
L 2356 0 
L 1766 0 
Q 1100 0 847 248 
Q 594 497 594 1153 
L 594 3053 
L 172 3053 
L 172 3500 
L 594 3500 
L 594 4494 
L 1172 4494 
z
" transform="scale(0.015625)"/>
       <path id="DejaVuSans-65" d="M 3597 1894 
L 3597 1613 
L 953 1613 
Q 991 1019 1311 708 
Q 1631 397 2203 397 
Q 2534 397 2845 478 
Q 3156 559 3463 722 
L 3463 178 
Q 3153 47 2828 -22 
Q 2503 -91 2169 -91 
Q 1331 -91 842 396 
Q 353 884 353 1716 
Q 353 2575 817 3079 
Q 1281 3584 2069 3584 
Q 2775 3584 3186 3129 
Q 3597 2675 3597 1894 
z
M 3022 2063 
Q 3016 2534 2758 2815 
Q 2500 3097 2075 3097 
Q 1594 3097 1305 2825 
Q 1016 2553 972 2059 
L 3022 2063 
z
" transform="scale(0.015625)"/>
      </defs>
      <use xlink:href="#DejaVuSans-44"/>
      <use xlink:href="#DejaVuSans-61" x="77.001953"/>
      <use xlink:href="#DejaVuSans-74" x="138.28125"/>
      <use xlink:href="#DejaVuSans-65" x="177.490234"/>
     </g>
    </g>
   </g>
   <g id="matplotlib.axis_2">
    <g id="ytick_1">
     <g id="line2d_6">
      <path d="M 46.965625 325.532346 
L 604.965625 325.532346 
" clip-path="url(#pea88e1fc4d)" style="fill: none; stroke: #dcdcdc; stroke-width: 0.5; stroke-linecap: square"/>
     </g>
     <g id="line2d_7">
      <defs>
       <path id="ma1e550940a" d="M 0 0 
L -3.5 0 
" style="stroke: #000000; stroke-width: 0.8"/>
      </defs>
      <g>
       <use xlink:href="#ma1e550940a" x="46.965625" y="325.532346" style="stroke: #000000; stroke-width: 0.8"/>
      </g>
     </g>
     <g id="text_7">
      <!-- 50 -->
      <g transform="translate(27.240625 329.331565)scale(0.1 -0.1)">
       <use xlink:href="#DejaVuSans-35"/>
       <use xlink:href="#DejaVuSans-30" x="63.623047"/>
      </g>
     </g>
    </g>
    <g id="ytick_2">
     <g id="line2d_8">
      <path d="M 46.965625 253.84215 
L 604.965625 253.84215 
" clip-path="url(#pea88e1fc4d)" style="fill: none; stroke: #dcdcdc; stroke-width: 0.5; stroke-linecap: square"/>
     </g>
     <g id="line2d_9">
      <g>
       <use xlink:href="#ma1e550940a" x="46.965625" y="253.84215" style="stroke: #000000; stroke-width: 0.8"/>
      </g>
     </g>
     <g id="text_8">
      <!-- 100 -->
      <g transform="translate(20.878125 257.641369)scale(0.1 -0.1)">
       <use xlink:href="#DejaVuSans-31"/>
       <use xlink:href="#DejaVuSans-30" x="63.623047"/>
       <use xlink:href="#DejaVuSans-30" x="127.246094"/>
      </g>
     </g>
    </g>
    <g id="ytick_3">
     <g id="line2d_10">
      <path d="M 46.965625 182.151955 
L 604.965625 182.151955 
" clip-path="url(#pea88e1fc4d)" style="fill: none; stroke: #dcdcdc; stroke-width: 0.5; stroke-linecap: square"/>
     </g>
     <g id="line2d_11">
      <g>
       <use xlink:href="#ma1e550940a" x="46.965625" y="182.151955" style="stroke: #000000; stroke-width: 0.8"/>
      </g>
     </g>
     <g id="text_9">
      <!-- 150 -->
      <g transform="translate(20.878125 185.951173)scale(0.1 -0.1)">
       <use xlink:href="#DejaVuSans-31"/>
       <use xlink:href="#DejaVuSans-35" x="63.623047"/>
       <use xlink:href="#DejaVuSans-30" x="127.246094"/>
      </g>
     </g>
    </g>
    <g id="ytick_4">
     <g id="line2d_12">
      <path d="M 46.965625 110.461759 
L 604.965625 110.461759 
" clip-path="url(#pea88e1fc4d)" style="fill: none; stroke: #dcdcdc; stroke-width: 0.5; stroke-linecap: square"/>
     </g>
     <g id="line2d_13">
      <g>
       <use xlink:href="#ma1e550940a" x="46.965625" y="110.461759" style="stroke: #000000; stroke-width: 0.8"/>
      </g>
     </g>
     <g id="text_10">
      <!-- 200 -->
      <g transform="translate(20.878125 114.260977)scale(0.1 -0.1)">
       <use xlink:href="#DejaVuSans-32"/>
       <use xlink:href="#DejaVuSans-30" x="63.623047"/>
       <use xlink:href="#DejaVuSans-30" x="127.246094"/>
      </g>
     </g>
    </g>
    <g id="ytick_5">
     <g id="line2d_14">
      <path d="M 46.965625 38.771563 
L 604.965625 38.771563 
" clip-path="url(#pea88e1fc4d)" style="fill: none; stroke: #dcdcdc; stroke-width: 0.5; stroke-linecap: square"/>
     </g>
     <g id="line2d_15">
      <g>
       <use xlink:href="#ma1e550940a" x="46.965625" y="38.771563" style="stroke: #000000; stroke-width: 0.8"/>
      </g>
     </g>
     <g id="text_11">
      <!-- 250 -->
      <g transform="translate(20.878125 42.570781)scale(0.1 -0.1)">
       <use xlink:href="#DejaVuSans-32"/>
       <use xlink:href="#DejaVuSans-35" x="63.623047"/>
       <use xlink:href="#DejaVuSans-30" x="127.246094"/>
      </g>
     </g>
    </g>
    <g id="text_12">
     <!-- Price (USD) -->
     <g transform="translate(14.798437 217.01)rotate(-90)scale(0.1 -0.1)">
      <defs>
       <path id="DejaVuSans-50" d="M 1259 4147 
L 1259 2394 
L 2053 2394 
Q 2494 2394 2734 2622 
Q 2975 2850 2975 3272 
Q 2975 3691 2734 3919 
Q 2494 4147 2053 4147 
L 1259 4147 
z
M 628 4666 
L 2053 4666 
Q 2838 4666 3239 4311 
Q 3641 3956 3641 3272 
Q 3641 2581 3239 2228 
Q 2838 1875 2053 1875 
L 1259 1875 
L 1259 0 
L 628 0 
L 628 4666 
z
" transform="scale(0.015625)"/>
       <path id="DejaVuSans-72" d="M 2631 2963 
Q 2534 3019 2420 3045 
Q 2306 3072 2169 3072 
Q 1681 3072 1420 2755 
Q 1159 2438 1159 1844 
L 1159 0 
L 581 0 
L 581 3500 
L 1159 3500 
L 1159 2956 
Q 1341 3275 1631 3429 
Q 1922 3584 2338 3584 
Q 2397 3584 2469 3576 
Q 2541 3569 2628 3553 
L 2631 2963 
z
" transform="scale(0.015625)"/>
       <path id="DejaVuSans-69" d="M 603 3500 
L 1178 3500 
L 1178 0 
L 603 0 
L 603 3500 
z
M 603 4863 
L 1178 4863 
L 1178 4134 
L 603 4134 
L 603 4863 
z
" transform="scale(0.015625)"/>
       <path id="DejaVuSans-63" d="M 3122 3366 
L 3122 2828 
Q 2878 2963 2633 3030 
Q 2388 3097 2138 3097 
Q 1578 3097 1268 2742 
Q 959 2388 959 1747 
Q 959 1106 1268 751 
Q 1578 397 2138 397 
Q 2388 397 2633 464 
Q 2878 531 3122 666 
L 3122 134 
Q 2881 22 2623 -34 
Q 2366 -91 2075 -91 
Q 1284 -91 818 406 
Q 353 903 353 1747 
Q 353 2603 823 3093 
Q 1294 3584 2113 3584 
Q 2378 3584 2631 3529 
Q 2884 3475 3122 3366 
z
" transform="scale(0.015625)"/>
       <path id="DejaVuSans-20" transform="scale(0.015625)"/>
       <path id="DejaVuSans-28" d="M 1984 4856 
Q 1566 4138 1362 3434 
Q 1159 2731 1159 2009 
Q 1159 1288 1364 580 
Q 1569 -128 1984 -844 
L 1484 -844 
Q 1016 -109 783 600 
Q 550 1309 550 2009 
Q 550 2706 781 3412 
Q 1013 4119 1484 4856 
L 1984 4856 
z
" transform="scale(0.015625)"/>
       <path id="DejaVuSans-55" d="M 556 4666 
L 1191 4666 
L 1191 1831 
Q 1191 1081 1462 751 
Q 1734 422 2344 422 
Q 2950 422 3222 751 
Q 3494 1081 3494 1831 
L 3494 4666 
L 4128 4666 
L 4128 1753 
Q 4128 841 3676 375 
Q 3225 -91 2344 -91 
Q 1459 -91 1007 375 
Q 556 841 556 1753 
L 556 4666 
z
" transform="scale(0.015625)"/>
       <path id="DejaVuSans-53" d="M 3425 4513 
L 3425 3897 
Q 3066 4069 2747 4153 
Q 2428 4238 2131 4238 
Q 1616 4238 1336 4038 
Q 1056 3838 1056 3469 
Q 1056 3159 1242 3001 
Q 1428 2844 1947 2747 
L 2328 2669 
Q 3034 2534 3370 2195 
Q 3706 1856 3706 1288 
Q 3706 609 3251 259 
Q 2797 -91 1919 -91 
Q 1588 -91 1214 -16 
Q 841 59 441 206 
L 441 856 
Q 825 641 1194 531 
Q 1563 422 1919 422 
Q 2459 422 2753 634 
Q 3047 847 3047 1241 
Q 3047 1584 2836 1778 
Q 2625 1972 2144 2069 
L 1759 2144 
Q 1053 2284 737 2584 
Q 422 2884 422 3419 
Q 422 4038 858 4394 
Q 1294 4750 2059 4750 
Q 2388 4750 2728 4690 
Q 3069 4631 3425 4513 
z
" transform="scale(0.015625)"/>
       <path id="DejaVuSans-29" d="M 513 4856 
L 1013 4856 
Q 1481 4119 1714 3412 
Q 1947 2706 1947 2009 
Q 1947 1309 1714 600 
Q 1481 -109 1013 -844 
L 513 -844 
Q 928 -128 1133 580 
Q 1338 1288 1338 2009 
Q 1338 2731 1133 3434 
Q 928 4138 513 4856 
z
" transform="scale(0.015625)"/>
      </defs>
      <use xlink:href="#DejaVuSans-50"/>
      <use xlink:href="#DejaVuSans-72" x="58.552734"/>
      <use xlink:href="#DejaVuSans-69" x="99.666016"/>
      <use xlink:href="#DejaVuSans-63" x="127.449219"/>
      <use xlink:href="#DejaVuSans-65" x="182.429688"/>
      <use xlink:href="#DejaVuSans-20" x="243.953125"/>
      <use xlink:href="#DejaVuSans-28" x="275.740234"/>
      <use xlink:href="#DejaVuSans-55" x="314.753906"/>
      <use xlink:href="#DejaVuSans-53" x="387.947266"/>
      <use xlink:href="#DejaVuSans-44" x="451.423828"/>
      <use xlink:href="#DejaVuSans-29" x="528.425781"/>
     </g>
    </g>
   </g>
   <g id="line2d_16">
    <path d="M 75.83414 339.407984 
L 76.067798 338.182081 
L 76.301457 339.07104 
L 76.535115 339.36497 
L 76.768774 338.45092 
L 77.002433 338.605054 
L 77.46975 337.339722 
L 77.703408 336.730355 
L 77.937067 337.278785 
L 78.404384 336.83789 
L 78.638042 337.712511 
M 86.816092 333.253381 
L 87.04975 332.880591 
L 87.283409 333.321486 
M 97.564386 334.493621 
L 97.798044 334.791135 
L 98.031703 334.418346 
L 98.265361 334.360994 
L 98.49902 334.701522 
L 98.732678 333.76955 
L 98.966337 334.067064 
L 99.199995 334.059895 
L 99.433654 333.895008 
L 99.667313 333.22112 
M 104.340484 330.432371 
L 104.574142 331.794485 
L 104.807801 331.32133 
L 105.041459 329.464554 
M 113.686826 324.905057 
L 113.920485 324.550191 
L 114.154143 324.919395 
L 114.387802 324.862043 
L 114.62146 324.962409 
L 114.855119 325.736663 
L 115.088777 323.503514 
L 115.322436 324.299275 
L 115.556094 322.894147 
L 115.789753 322.754351 
L 116.023412 320.782871 
L 116.25707 320.030124 
M 123.266827 320.704012 
L 123.734144 319.936927 
L 123.967802 318.718193 
M 145.698048 322.130647 
L 145.931707 322.137816 
L 146.165365 322.740013 
L 146.399024 322.284781 
M 163.923416 323.747261 
L 164.157074 323.998176 
L 164.390733 324.55736 
L 164.624391 325.442734 
L 165.325367 322.718506 
L 165.559026 320.761364 
L 165.792684 321.618062 
L 166.026343 320.413666 
L 166.260001 320.700427 
L 166.49366 320.725519 
L 166.727318 319.542631 
L 166.960977 320.277455 
L 167.194636 312.395118 
L 167.428294 310.681722 
L 167.661953 310.642293 
L 167.895611 310.129708 
M 168.830245 307.534523 
L 169.063904 307.706579 
L 169.297563 306.910818 
L 169.531221 307.280023 
L 169.76488 308.025601 
L 169.998538 307.681488 
L 170.465855 307.659981 
L 170.699514 307.011184 
M 180.98049 307.254931 
L 181.214149 308.914559 
L 181.447807 308.326699 
L 181.681466 305.849803 
L 181.915125 305.695669 
M 196.168297 302.519794 
L 196.635614 303.193681 
M 205.748297 301.559145 
L 205.981956 300.942609 
L 206.449273 299.379763 
L 206.682932 299.551819 
L 206.91659 300.053651 
L 207.150249 301.544807 
L 207.383907 301.08599 
L 207.851224 297.544494 
L 208.084883 296.712888 
L 208.318542 296.827592 
M 220.468787 300.870919 
L 220.936104 297.343761 
L 221.169762 296.870606 
L 221.403421 295.895619 
L 221.637079 293.658885 
L 221.870738 293.873956 
L 222.338055 291.264433 
L 222.571714 291.149728 
M 246.404886 295.96731 
L 246.638545 295.881281 
L 246.872203 296.540831 
L 247.105862 294.519168 
L 247.339521 294.7199 
L 247.806838 293.458153 
L 248.274155 291.436489 
L 248.507813 291.450827 
L 248.741472 292.612208 
L 248.97513 291.250095 
L 249.208789 290.92032 
L 249.442448 291.006348 
L 249.909765 287.135077 
L 250.143423 287.565219 
M 257.854156 287.120739 
L 258.087814 286.203105 
L 258.321473 286.991697 
M 265.097571 290.877306 
L 265.564888 290.160404 
L 265.798547 291.035024 
L 266.032205 290.389812 
L 266.265864 287.651247 
M 269.770742 285.314146 
L 270.004401 285.013048 
L 270.238059 284.984372 
M 272.808303 281.313834 
L 273.041962 282.131102 
M 292.669281 284.884005 
L 292.902939 285.242456 
L 293.136598 284.869667 
L 293.603915 285.529217 
L 294.071232 284.884005 
L 294.538549 284.912681 
L 294.772208 285.357161 
L 295.005866 283.235131 
L 295.239525 282.303158 
M 296.875135 280.840678 
L 297.108793 280.711636 
L 297.342452 280.238481 
M 298.744403 277.872704 
L 298.978062 277.112788 
L 299.21172 277.213154 
L 299.445379 278.63262 
L 299.912696 279.22048 
L 300.146354 273.800701 
L 300.380013 274.159152 
L 300.613672 274.230842 
L 300.84733 275.220167 
L 301.781964 272.696672 
M 302.249281 271.893742 
L 302.48294 271.822052 
L 302.716599 271.162502 
M 309.02538 269.599656 
L 309.259038 269.800388 
L 309.492697 269.097824 
L 309.726355 269.92943 
L 309.960014 269.570979 
L 310.193672 269.484951 
L 310.427331 269.986783 
L 310.66099 269.814726 
L 310.894648 269.829064 
L 311.128307 270.072811 
L 311.361965 269.800388 
L 311.595624 268.452612 
M 314.866844 265.183539 
L 315.100502 265.427286 
M 315.567819 264.954131 
L 315.801478 265.169201 
L 316.268795 263.549003 
M 316.736112 265.656695 
L 316.969771 265.728385 
M 323.745869 261.842776 
L 324.213186 263.376947 
L 324.446844 262.430636 
L 324.680503 263.520327 
L 324.914161 262.559678 
L 325.14782 260.882128 
L 325.381479 260.42331 
L 325.615137 259.319281 
L 325.848796 259.663394 
M 326.316113 258.387309 
L 326.549771 257.311956 
M 330.521967 254.57339 
L 330.755625 253.713108 
M 332.624894 249.282654 
L 332.858552 249.225302 
M 337.765382 249.512063 
L 337.999041 249.626767 
L 338.466358 247.275329 
M 339.400992 246.228652 
L 339.868309 244.19265 
M 341.27026 241.941578 
L 341.503919 243.031269 
L 341.737578 242.65848 
L 341.971236 243.776847 
L 342.204895 243.016931 
L 342.438553 243.045607 
L 342.90587 240.235351 
M 349.214651 243.188987 
L 349.681969 239.8769 
M 351.08392 235.317404 
L 351.317578 234.02698 
L 351.551237 234.414107 
L 351.784896 236.435771 
L 352.018554 236.464447 
L 352.71953 235.217038 
L 352.953188 233.74022 
L 353.186847 233.267064 
L 353.420505 233.74022 
L 353.654164 233.037656 
L 353.887823 231.403119 
L 354.121481 230.786583 
L 354.35514 226.800609 
L 354.588798 226.112383 
M 355.056115 226.628552 
L 355.289774 225.395481 
M 371.412214 218.771307 
L 371.645873 223.345141 
L 371.879531 223.431169 
M 373.047824 216.018403 
L 373.515141 213.466232 
M 381.693191 209.494595 
L 381.926849 207.171833 
L 382.160508 209.365553 
L 382.394167 206.89941 
L 382.627825 207.315213 
L 382.861484 207.243523 
L 383.095142 208.749017 
L 383.328801 206.110818 
L 383.562459 204.963775 
M 387.300996 201.536984 
L 387.534655 201.164194 
M 388.469289 196.905797 
L 388.936606 195.515007 
L 389.170265 196.475656 
L 389.403923 196.877121 
L 389.87124 195.400303 
M 393.843436 191.901821 
L 394.077094 190.640074 
L 394.310753 188.61841 
M 412.53612 213.509246 
L 412.769779 205.594649 
M 416.274657 202.239547 
L 416.508316 203.659013 
M 416.975633 203.644675 
L 417.209292 196.274923 
M 417.910267 194.353626 
L 418.143926 196.246247 
L 418.377584 195.945148 
L 418.611243 195.342951 
L 419.07856 191.486018 
M 419.779536 190.123904 
L 420.013194 189.708101 
L 420.246853 190.754778 
L 420.480511 188.073565 
L 420.71417 187.801142 
L 420.947828 186.396014 
L 421.181487 186.137929 
M 425.153682 177.750176 
L 425.387341 177.807529 
L 425.621 174.552794 
L 425.854658 176.101302 
L 426.088317 175.45609 
L 426.555634 171.742538 
L 426.789292 170.99696 
M 427.256609 171.197693 
L 427.490268 171.183355 
L 427.723927 171.039974 
L 427.957585 171.412763 
M 436.369293 165.906956 
L 436.602952 169.821241 
L 436.83661 164.473152 
M 438.47222 154.407849 
L 438.705879 153.963369 
L 438.939537 154.10675 
L 439.173196 154.508215 
L 439.406854 152.486551 
L 439.640513 148.113449 
L 439.874172 148.543591 
L 440.10783 147.955731 
L 440.341489 151.640607 
L 440.575147 151.956044 
L 440.808806 151.712297 
L 441.042464 148.385872 
L 441.276123 147.826689 
L 441.74344 143.625643 
M 462.305393 143.769024 
L 462.539052 141.388909 
L 462.77271 140.614655 
M 466.744906 138.277555 
L 466.978564 136.427948 
L 467.212223 136.026482 
M 467.67954 135.89744 
L 467.913198 136.255891 
M 469.081491 132.112198 
L 469.548808 127.667406 
L 469.782467 128.986505 
L 470.016125 128.283941 
L 470.249784 126.004193 
L 470.483443 125.674418 
L 470.717101 127.911152 
L 470.95076 127.810786 
L 471.184418 123.193937 
L 471.418077 125.373319 
L 471.885394 126.678081 
L 472.119052 122.046894 
L 472.352711 120.139935 
M 488.475151 161.763263 
L 488.70881 167.053999 
M 492.213688 139.897753 
L 492.447347 143.310206 
M 505.298568 124.226276 
L 505.532226 123.810473 
L 505.765885 121.516387 
L 506.233202 112.225337 
L 506.46686 115.680805 
L 506.700519 115.064269 
L 507.167836 112.268352 
L 507.401495 113.931564 
M 519.785398 137.890428 
L 520.019057 132.155212 
L 520.252715 136.686032 
L 520.720032 127.179912 
M 526.795155 99.550511 
L 527.028813 101.514822 
M 542.450278 100.568512 
L 542.683937 98.991327 
L 542.917595 98.776257 
L 543.384912 99.034341 
L 543.618571 91.062392 
L 543.852229 89.657264 
L 544.085888 93.399492 
L 544.319547 93.643239 
L 544.553205 86.287825 
L 544.786864 83.162132 
L 545.020522 83.721315 
L 545.254181 82.832357 
L 545.721498 78.172494 
L 545.955156 79.677988 
L 546.188815 80.3232 
M 552.263937 75.20452 
L 552.497596 72.551983 
L 552.731255 72.078828 
L 552.731255 72.078828 
" clip-path="url(#pea88e1fc4d)" style="fill: none; stroke: #00ff7f; stroke-linecap: square"/>
   </g>
   <g id="line2d_17">
    <path d="M 92.423897 327.464397 
L 92.891214 328.410708 
L 93.124873 328.600687 
M 130.042925 317.008382 
L 130.276584 316.065656 
L 130.510242 316.994044 
M 130.977559 317.155347 
L 131.211218 318.094489 
M 150.604878 317.911679 
L 150.838537 317.933186 
L 151.072195 317.381171 
M 177.942929 303.684759 
L 178.176588 302.430181 
M 211.356103 288.583219 
L 211.82342 289.715925 
M 233.553666 282.718961 
L 233.787324 284.396512 
M 234.955617 285.013048 
L 235.189276 284.625921 
L 235.422934 283.650934 
L 235.656593 284.884005 
M 260.891717 281.743975 
L 261.125375 281.657946 
L 261.359034 280.152452 
M 286.594158 277.872704 
L 286.827817 279.837016 
L 287.061475 279.822677 
M 395.946363 183.241646 
L 396.180021 182.080264 
M 407.629291 194.038189 
L 407.862949 189.320974 
M 452.024417 132.355944 
L 452.258075 130.907802 
M 476.792224 106.102995 
L 477.025882 106.533136 
M 516.28052 106.920263 
L 516.514178 106.189023 
L 516.747837 100.941301 
L 516.981495 101.285414 
L 517.215154 104.267726 
M 529.832716 84.137119 
L 530.066375 83.606611 
L 530.300033 84.997401 
L 530.76735 92.367153 
L 531.234667 88.309488 
M 562.778573 40.17669 
L 563.24589 37.438125 
L 563.479548 43.159003 
L 563.713207 41.753875 
L 563.946865 43.947595 
M 568.620036 63.590708 
L 568.853695 65.684062 
M 576.564427 66.028175 
" clip-path="url(#pea88e1fc4d)" style="fill: none; stroke: #ff4500; stroke-linecap: square"/>
   </g>
   <g id="line2d_18">
    <path d="M 72.329261 339.838125 
L 72.796578 337.196341 
L 73.263896 336.343228 
L 73.497554 337.235771 
L 73.731213 337.0207 
L 73.964871 338.167743 
L 74.19853 337.547623 
L 74.432188 338.020779 
L 74.665847 337.615729 
L 74.899505 338.167743 
L 75.133164 337.364813 
L 75.366823 337.138989 
L 75.600481 337.809292 
M 78.871701 334.350241 
L 79.10536 332.866253 
L 79.339018 333.099247 
L 79.572677 332.776641 
L 80.039994 333.210366 
L 80.507311 333.084909 
L 80.974628 332.070492 
L 81.208287 332.773056 
L 81.441945 331.063245 
L 81.675604 332.12426 
L 81.909262 332.145767 
L 82.376579 333.382423 
L 82.610238 332.540063 
L 82.843896 332.690612 
L 83.077555 333.368085 
L 83.311214 332.332161 
L 83.544872 333.368085 
L 83.778531 332.63326 
L 84.012189 332.629676 
L 84.245848 333.69786 
L 84.479506 332.934359 
L 84.713165 332.722873 
L 84.946823 331.866175 
L 85.180482 332.823239 
L 85.414141 333.006049 
L 85.647799 331.894851 
L 85.881458 332.368007 
L 86.348775 331.263978 
L 86.582433 331.75864 
M 87.517068 332.532894 
L 87.984385 331.174365 
L 88.218043 331.715626 
L 88.451702 330.830252 
L 88.68536 330.823083 
L 88.919019 330.177871 
L 89.152677 328.83368 
L 89.386336 329.797913 
L 89.853653 330.299744 
L 90.087312 329.131194 
L 90.32097 328.858771 
L 90.554629 329.027243 
L 90.788287 329.339096 
L 91.021946 329.245899 
L 91.255604 328.754821 
L 91.489263 329.145532 
L 91.722922 328.679546 
L 92.190239 330.281822 
M 93.358531 333.773134 
L 93.59219 332.99888 
L 93.825849 331.267562 
L 94.059507 331.073999 
L 94.526824 332.203119 
L 95.695117 333.29281 
L 95.928776 334.877163 
L 96.162434 335.163924 
L 96.396093 334.50079 
M 96.86341 333.278472 
L 97.330727 333.023972 
M 99.900971 331.056076 
L 100.13463 330.43954 
L 100.368288 330.887604 
L 100.601947 329.475307 
L 100.835605 329.339096 
L 101.302922 327.80851 
L 101.536581 327.428552 
L 101.77024 325.951734 
L 102.471215 328.557673 
L 102.704874 327.840771 
L 102.938532 328.023581 
L 103.172191 328.72256 
L 103.405849 327.962644 
L 103.639508 328.464475 
L 103.873167 329.600765 
L 104.106825 328.9448 
M 105.275118 328.328264 
L 105.508776 327.883785 
L 105.742435 328.625778 
L 106.209752 326.148882 
L 106.443411 325.371043 
L 107.144386 325.930227 
L 107.378045 324.489254 
L 107.845362 324.428317 
L 108.079021 324.012514 
L 108.312679 324.163064 
L 108.546338 326.725988 
L 108.779996 325.833445 
L 109.013655 326.815601 
L 109.247313 326.475072 
L 109.480972 325.883628 
M 109.948289 326.145298 
L 110.181948 325.794016 
L 110.415606 326.152467 
L 110.649265 325.611206 
L 110.882923 325.478579 
L 111.116582 324.815444 
L 111.583899 326.467903 
L 111.817557 326.206234 
L 112.051216 324.95524 
L 112.284875 324.77243 
L 112.518533 324.840536 
L 112.752192 324.270599 
L 112.98585 324.102127 
M 116.490729 319.768455 
L 116.724387 319.807884 
L 116.958046 319.069475 
L 117.191704 318.81856 
L 117.425363 318.291637 
M 117.89268 318.037136 
L 118.126339 317.402678 
L 118.359997 318.001291 
L 118.593656 317.947524 
L 118.827314 318.424263 
L 119.060973 317.822066 
L 119.294631 317.567566 
L 119.52829 317.678685 
L 119.761948 317.958277 
L 119.995607 318.757623 
L 120.229266 317.413432 
L 120.462924 317.015551 
L 120.696583 317.728869 
L 120.930241 313.997394 
L 121.1639 314.087007 
L 121.397558 313.707049 
L 121.864875 317.915263 
L 122.098534 319.718272 
L 122.332193 318.019214 
L 122.565851 319.395666 
L 122.79951 318.04789 
L 123.033168 320.001448 
M 124.201461 317.725284 
L 124.43512 318.166179 
L 124.902437 316.868586 
L 125.136095 316.9116 
L 125.369754 316.212621 
L 125.603412 316.191114 
L 125.837071 316.972537 
L 126.304388 317.158932 
L 126.538047 316.144515 
L 126.771705 315.81474 
L 127.005364 316.173191 
L 127.239022 316.112255 
L 127.472681 316.234128 
L 127.706339 317.847157 
L 127.939998 316.391846 
L 128.173656 317.35608 
L 128.407315 316.979706 
L 128.640974 316.370339 
M 129.108291 315.789649 
L 129.341949 316.176776 
L 129.575608 318.083735 
L 129.809266 318.08732 
M 131.444876 318.936848 
L 131.678535 319.911835 
L 131.912193 319.879574 
L 132.145852 321.198674 
L 132.379511 319.847314 
L 132.613169 320.263117 
L 132.846828 320.277455 
L 133.080486 320.151997 
L 133.547803 324.310029 
L 133.781462 324.603958 
L 134.01512 322.829626 
L 134.482438 326.740326 
L 135.183413 322.177245 
L 135.417072 322.682661 
L 135.884389 321.95859 
L 136.118047 322.370809 
L 136.351706 322.162907 
L 136.585365 325.915889 
L 136.819023 325.023346 
L 137.052682 324.575282 
L 137.28634 324.596789 
L 137.519999 323.34938 
L 137.753657 323.947993 
L 137.987316 322.976591 
L 138.220974 323.611049 
L 138.688292 321.625231 
L 138.92195 321.657491 
L 139.155609 321.33847 
L 139.389267 321.209428 
L 139.856584 322.861887 
L 140.090243 322.015942 
L 140.323901 321.818794 
L 140.55756 322.693415 
L 140.791219 321.911992 
L 141.024877 322.173661 
L 141.492194 320.334807 
L 141.725853 320.585723 
L 141.959511 320.273871 
L 142.19317 320.216518 
L 142.426828 320.686089 
L 142.660487 321.474681 
L 142.894146 321.435252 
L 143.361463 320.872484 
L 143.595121 321.023033 
L 143.82878 320.42442 
L 144.296097 321.313378 
L 144.529755 321.485435 
M 144.997073 321.657491 
L 145.230731 321.499773 
L 145.46439 321.833132 
M 147.1 321.693336 
L 147.333658 320.42442 
L 147.567317 320.212934 
L 147.800975 319.614321 
L 148.034634 319.531877 
L 148.268292 320.062384 
L 148.501951 319.739779 
L 148.73561 319.962018 
L 148.969268 319.43868 
L 149.202927 317.994122 
L 149.436585 317.725284 
M 151.305854 320.238025 
L 151.773171 320.693258 
L 152.006829 320.492526 
L 152.240488 321.585801 
L 152.707805 321.173582 
L 152.941464 321.754273 
L 153.175122 321.700505 
M 153.642439 321.782949 
L 153.876098 321.739935 
L 154.109756 321.840301 
L 154.577073 321.04454 
L 154.810732 321.879731 
L 155.044391 320.399328 
L 155.278049 320.155582 
L 155.511708 319.725441 
L 155.745366 319.886743 
L 155.979025 319.76487 
L 156.212683 319.789962 
L 156.68 319.392081 
L 157.147318 321.04454 
L 157.380976 320.252363 
L 157.614635 320.191427 
L 157.848293 320.420835 
L 158.081952 320.438758 
L 158.31561 319.879574 
L 158.549269 320.413666 
L 158.782927 319.481694 
L 159.016586 320.173504 
L 159.250245 320.499695 
L 159.483903 320.284624 
L 159.717562 319.331144 
L 159.95122 319.965603 
L 160.184879 319.639412 
L 160.418537 319.707518 
L 160.885854 321.066047 
L 161.119513 320.367068 
L 161.353172 321.693336 
L 161.58683 321.252442 
L 161.820489 321.614477 
L 162.054147 320.739857 
L 162.287806 321.944252 
L 162.521464 322.048203 
L 162.755123 321.234519 
L 162.988781 321.306209 
L 163.22244 322.646816 
L 163.456099 321.101892 
L 163.689757 322.768689 
M 168.12927 307.778269 
L 168.362928 307.577537 
L 168.596587 306.738762 
M 170.933172 306.097134 
L 171.166831 305.953754 
L 171.40049 305.007443 
L 171.634148 305.007443 
L 171.867807 304.674084 
L 172.101465 304.688422 
L 172.568782 303.451766 
L 172.802441 303.616654 
L 173.036099 302.824477 
L 173.269758 302.91409 
L 173.503417 302.541301 
L 173.737075 303.408752 
L 173.970734 302.906921 
L 174.204392 305.1795 
L 174.438051 305.208176 
L 174.671709 306.38748 
L 175.139026 302.534132 
L 175.372685 303.426674 
L 175.606344 302.516209 
L 175.840002 302.139835 
M 176.307319 301.652342 
L 176.774636 302.394336 
L 177.008295 303.236695 
L 177.241953 302.225864 
L 177.475612 304.322802 
L 177.709271 304.921415 
M 178.410246 303.835309 
L 178.643905 304.018119 
L 178.877563 303.745696 
L 179.111222 305.61681 
M 179.578539 305.835465 
L 179.812198 305.157993 
L 180.513173 304.638239 
L 180.746832 305.269113 
M 182.148783 304.100562 
L 182.6161 299.795566 
L 182.849759 301.365581 
M 183.317076 302.394336 
L 183.550735 301.878166 
L 183.784393 300.114587 
L 184.018052 300.573405 
L 184.25171 300.128925 
L 184.485369 300.756215 
L 184.719027 300.763384 
L 184.952686 299.365425 
L 185.186344 299.36184 
L 185.420003 299.555404 
L 185.88732 299.096587 
L 186.120979 299.971207 
L 186.354637 297.469219 
L 186.821954 299.096587 
L 187.055613 298.960375 
L 187.289271 300.677355 
L 187.52293 299.931777 
L 187.756589 302.161343 
L 187.990247 302.322645 
L 188.223906 300.591327 
L 188.457564 302.222279 
L 188.691223 300.79206 
L 188.924881 302.412258 
L 189.15854 301.275969 
L 189.392198 301.430103 
L 189.625857 300.56982 
L 189.859516 301.042975 
L 190.093174 301.014299 
L 190.326833 302.978611 
L 190.79415 303.251034 
L 191.027808 303.078977 
L 191.495125 303.767203 
L 191.728784 303.609484 
L 191.962443 303.738527 
L 192.42976 301.874582 
L 192.897077 302.10399 
L 193.130735 303.150667 
L 193.364394 303.265372 
L 193.598052 303.050301 
L 193.831711 303.093315 
L 194.06537 304.713513 
M 194.532687 303.523456 
L 194.766345 299.709538 
L 195.700979 301.487455 
L 195.934638 300.670186 
M 196.869272 302.648836 
L 197.102931 303.064639 
L 197.336589 301.759877 
L 197.570248 297.616184 
L 198.037565 298.734551 
L 198.271224 298.791903 
L 198.504882 296.856268 
L 198.738541 297.472804 
L 198.972199 296.856268 
L 199.205858 296.626859 
L 199.673175 297.759564 
L 199.906833 297.401114 
L 200.140492 298.949622 
L 200.374151 297.587508 
L 200.607809 297.487142 
L 200.841468 298.748889 
L 201.075126 298.132354 
L 201.542443 298.361762 
L 201.776102 299.422777 
L 202.009761 299.193368 
L 202.243419 300.182693 
L 202.477078 299.795566 
L 202.710736 297.386775 
L 202.944395 297.372437 
L 203.178053 297.816917 
L 203.411712 298.906608 
L 203.64537 298.275734 
L 203.879029 298.648523 
L 204.112688 297.57317 
L 204.346346 298.734551 
L 204.813663 297.687874 
L 205.047322 298.490804 
L 205.28098 298.834917 
L 205.514639 298.648523 
M 208.5522 296.039 
L 208.785859 295.594521 
L 209.019517 292.984997 
L 209.253176 293.959984 
L 209.486834 294.031674 
L 209.720493 294.347111 
L 209.954151 289.974009 
L 210.18781 291.321785 
L 210.888786 287.708599 
L 211.122444 289.199755 
M 212.057078 291.72325 
L 212.290737 290.819954 
L 212.524396 290.576207 
L 212.758054 292.038687 
L 212.991713 291.780602 
L 213.45903 290.805615 
L 213.692688 290.533193 
L 213.926347 290.447165 
L 214.160005 290.547531 
L 214.393664 291.192743 
L 215.09464 301.200694 
L 215.328298 295.866943 
L 215.561957 293.415139 
L 215.795615 293.32911 
L 216.029274 294.992323 
L 216.262932 298.347424 
L 216.73025 296.282746 
L 216.963908 298.060663 
L 217.197567 296.096352 
L 217.431225 297.42979 
L 217.898542 295.766577 
L 218.132201 296.84193 
L 218.599518 295.436802 
L 218.833177 295.479816 
L 219.066835 297.157367 
L 219.300494 295.737901 
L 219.534152 296.497817 
L 219.767811 295.494154 
L 220.001469 296.512155 
L 220.235128 295.866943 
M 222.805372 289.701586 
L 223.039031 289.687248 
L 223.272689 290.834292 
L 223.740006 288.253445 
L 223.973665 286.833979 
L 224.440982 289.027699 
L 225.141958 285.127752 
L 225.375616 286.074063 
L 225.609275 284.138427 
L 225.842933 284.654597 
L 226.076592 285.988034 
M 226.543909 285.529217 
L 226.777568 284.884005 
L 227.011226 283.579244 
L 227.478543 285.328485 
L 227.712202 283.263807 
L 227.94586 283.693948 
L 228.179519 284.941357 
L 228.413177 285.228118 
L 228.646836 284.095413 
L 228.880495 284.195779 
L 229.114153 281.858679 
L 229.347812 282.303158 
L 229.58147 282.245806 
L 229.815129 282.36051 
L 230.282446 283.149103 
L 230.516104 282.747637 
L 230.749763 283.937695 
L 230.983422 282.647271 
L 231.450739 284.970034 
L 231.684397 281.944707 
L 232.385373 285.557893 
L 232.619031 285.21378 
L 232.85269 288.095726 
L 233.086349 287.006035 
L 233.320007 284.496878 
M 234.020983 287.794627 
L 234.254641 286.575894 
L 234.4883 286.274795 
L 234.721958 284.582906 
M 235.890251 286.031048 
L 236.12391 288.683586 
L 236.357568 287.866317 
L 237.058544 292.726913 
L 237.525861 290.031361 
L 237.75952 292.411476 
L 237.993178 291.407813 
L 238.226837 294.232407 
L 238.460495 294.863281 
L 238.694154 295.881281 
L 239.161471 292.984997 
L 239.39513 294.361449 
L 239.628788 294.160717 
L 239.862447 295.551506 
L 240.096105 297.816917 
L 240.329764 290.418488 
L 240.563422 290.576207 
L 240.797081 291.981335 
L 241.03074 290.576207 
L 241.264398 291.57987 
L 241.498057 294.64821 
L 241.731715 300.053651 
M 242.666349 296.25407 
L 243.133667 293.945646 
L 243.367325 295.078351 
L 243.600984 294.662548 
L 243.834642 292.468828 
L 244.068301 293.77359 
L 244.301959 294.203731 
L 244.535618 292.167729 
L 245.002935 293.429477 
L 245.236594 290.203418 
L 245.703911 291.250095 
L 245.937569 291.264433 
L 246.171228 294.074688 
M 250.377082 285.973696 
L 250.61074 285.629583 
L 250.844399 286.862655 
L 251.078057 285.084738 
L 251.311716 285.988034 
L 251.545375 285.342823 
L 251.779033 285.643921 
L 252.012692 284.640259 
L 252.480009 282.045074 
L 252.713667 282.403525 
L 252.947326 280.439213 
L 253.180984 281.442876 
L 253.414643 280.869354 
L 253.648302 281.385524 
L 254.115619 285.185104 
L 254.582936 284.296146 
L 254.816594 285.844654 
L 255.050253 286.475528 
L 255.283912 284.726287 
L 255.51757 286.547218 
L 255.751229 286.719274 
L 256.218546 285.787302 
L 256.452204 285.0704 
L 256.685863 283.665272 
L 256.919521 286.389499 
L 257.15318 285.543555 
L 257.386839 287.063387 
L 257.620497 285.672597 
M 258.555131 285.858992 
L 258.78879 286.518542 
L 259.022448 283.407187 
L 259.256107 283.866005 
L 259.489766 283.952033 
L 259.723424 283.005722 
L 259.957083 284.038061 
L 260.190741 283.636596 
M 261.592693 280.711636 
L 261.826351 282.260144 
L 262.06001 284.812315 
L 262.293668 284.568568 
L 262.527327 285.14209 
L 262.760985 284.884005 
L 262.994644 286.833979 
L 263.228302 286.332147 
L 263.461961 286.346485 
L 263.69562 287.493528 
L 263.929278 285.056062 
L 264.162937 289.615558 
M 264.630254 289.45784 
L 264.863912 287.19243 
M 266.499522 287.507866 
L 266.733181 286.131415 
L 266.966839 286.160091 
L 267.200498 285.185104 
L 267.434156 284.955695 
L 267.667815 284.941357 
L 267.901474 284.353498 
L 268.135132 283.435863 
L 268.368791 284.253132 
L 268.602449 282.647271 
L 268.836108 284.038061 
M 269.303425 284.625921 
L 269.537083 283.67961 
M 270.471718 284.367836 
L 270.939035 282.317496 
L 271.172693 282.589919 
L 271.406352 282.432201 
L 271.64001 282.977046 
L 271.873669 282.346172 
L 272.107328 282.489553 
L 272.340986 281.213467 
L 272.574645 281.356848 
M 273.27562 281.844341 
L 273.509279 280.998397 
L 273.742938 281.371186 
L 273.976596 282.102426 
L 274.210255 282.059412 
L 274.91123 280.840678 
L 275.144889 281.227805 
L 275.378547 280.654284 
L 276.079523 277.872704 
L 276.313182 278.259831 
L 276.54684 280.61127 
L 276.780499 278.259831 
L 277.014157 279.808339 
L 277.247816 280.381861 
L 277.481474 279.636283 
L 277.715133 279.550255 
L 277.948792 278.919381 
L 278.18245 278.962395 
L 278.416109 277.90138 
L 278.649767 277.700648 
L 279.117084 279.923044 
L 279.350743 279.421212 
L 279.584401 278.259831 
L 279.81806 279.765325 
L 280.051719 278.646958 
L 280.285377 278.41755 
L 280.519036 278.603944 
L 280.752694 277.714986 
L 280.986353 277.700648 
L 281.220011 278.388874 
L 281.45367 278.044761 
L 281.687328 279.593269 
L 281.920987 279.29217 
L 282.154646 279.837016 
L 282.388304 279.005409 
L 282.621963 279.43555 
L 282.855621 280.252819 
L 283.08928 278.48924 
L 283.556597 279.14879 
L 283.790255 277.97307 
L 284.023914 279.607607 
L 284.257573 280.009072 
L 284.491231 279.765325 
L 284.958548 278.919381 
L 285.425865 281.686623 
L 285.659524 281.586256 
L 285.893182 282.002059 
L 286.126841 278.919381 
L 286.3605 278.388874 
M 287.295134 284.840991 
L 287.528792 284.568568 
L 287.996109 280.984059 
L 288.229768 281.34251 
L 288.463427 280.0951 
L 288.697085 282.618595 
L 288.930744 283.134765 
L 289.164402 282.331834 
L 289.398061 283.837328 
L 289.631719 283.736962 
L 290.099036 289.070713 
L 290.332695 288.65491 
L 290.566354 286.375161 
L 290.800012 286.661922 
L 291.033671 283.507554 
L 291.267329 283.550568 
L 291.500988 283.7513 
L 291.734646 284.668935 
L 291.968305 283.665272 
L 292.201964 283.765638 
L 292.435622 283.235131 
M 295.473183 280.955383 
L 295.706842 279.349522 
L 296.174159 280.639946 
L 296.407818 279.937382 
L 296.641476 280.553917 
M 297.57611 280.037748 
L 297.809769 279.88003 
L 298.043427 279.43555 
L 298.510745 276.926394 
M 302.950257 271.334558 
L 303.417574 270.431262 
M 303.884891 271.133826 
L 304.11855 269.628332 
L 304.352208 270.287881 
L 304.819526 269.700022 
L 305.053184 269.527965 
L 305.286843 269.671346 
L 305.520501 269.456275 
L 305.987818 268.022471 
L 306.221477 268.825401 
L 306.455135 268.294894 
L 306.922453 267.836077 
L 307.38977 270.961769 
L 307.857087 269.814726 
L 308.090745 269.341571 
L 308.324404 269.685684 
L 308.791721 269.355909 
M 311.829282 268.567317 
L 312.062941 268.538641 
L 312.296599 266.531315 
L 312.530258 266.531315 
L 312.763917 265.527652 
L 312.997575 265.154863 
L 313.698551 266.430949 
L 313.932209 266.373597 
L 314.165868 264.538328 
L 314.399526 264.681708 
L 314.633185 264.423623 
M 317.203429 264.624356 
L 317.904405 261.283593 
L 318.138063 260.953818 
L 318.371722 261.484325 
L 318.60538 261.412635 
L 318.839039 260.681395 
L 319.072698 260.437648 
L 319.540015 258.788774 
L 319.773673 259.878465 
L 320.007332 259.448324 
L 320.24099 259.448324 
L 320.708307 263.161876 
L 320.941966 260.896466 
L 321.175625 260.552353 
L 321.409283 262.201227 
L 321.642942 262.201227 
L 321.8766 261.312269 
L 322.110259 261.900128 
L 322.343917 261.67072 
L 322.577576 262.516664 
L 322.811234 260.179564 
L 323.278552 261.15455 
L 323.51221 259.247591 
M 326.78343 256.351307 
L 327.017089 256.55204 
L 327.250747 254.415672 
L 327.484406 253.311643 
L 327.718064 253.856489 
L 327.951723 252.623417 
L 328.185381 254.458686 
L 328.41904 255.060884 
L 328.652698 254.473024 
L 328.886357 252.594741 
L 329.120016 252.006881 
L 329.353674 252.996206 
L 329.587333 252.566065 
L 329.820991 251.705783 
L 330.288308 252.451361 
M 330.989284 251.160937 
L 331.456601 249.081921 
L 331.69026 250.745134 
L 331.923918 250.243303 
M 333.092211 249.038907 
L 333.32587 248.422372 
L 333.793187 248.494062 
L 334.026845 248.795161 
L 334.260504 248.250315 
L 334.494162 249.526401 
L 334.727821 249.282654 
L 334.961479 247.304005 
L 335.195138 247.490399 
L 335.428797 245.024256 
L 335.662455 244.938228 
L 335.896114 245.483074 
L 336.129772 245.124623 
L 336.597089 246.916878 
L 336.830748 246.085271 
L 337.064406 246.716145 
L 337.531724 245.870201 
M 338.700016 246.329018 
L 339.167333 245.827187 
M 340.101968 243.791185 
L 340.335626 243.361044 
L 340.569285 241.740845 
M 343.139529 239.790872 
L 343.373187 239.919914 
L 343.606846 239.446759 
L 343.840505 239.532787 
L 344.074163 237.969941 
L 344.307822 238.098983 
L 345.242456 235.962616 
L 345.943432 237.496786 
L 346.17709 236.66518 
L 346.410749 239.14566 
L 346.644407 238.041631 
L 346.878066 239.762196 
L 347.111724 239.575801 
L 347.345383 237.425096 
L 347.579042 238.328392 
L 347.8127 236.679518 
L 348.046359 236.091658 
L 348.280017 234.68653 
L 348.513676 239.704844 
L 348.747334 235.790559 
L 348.980993 238.457434 
M 349.915627 237.496786 
L 350.149286 235.776221 
L 350.382944 236.105996 
L 350.616603 234.54315 
L 350.850261 234.75822 
M 355.523432 225.03703 
L 355.757091 224.606889 
L 356.224408 220.706942 
L 356.458067 221.294802 
L 356.691725 218.957701 
L 356.925384 218.498884 
L 357.159042 218.642264 
L 357.392701 217.681616 
L 357.626359 216.104431 
L 358.093677 220.076068 
L 358.327335 219.101082 
L 358.560994 216.964714 
L 359.028311 230.514161 
L 359.261969 225.209086 
L 359.495628 225.667903 
L 359.729286 233.969628 
L 360.196604 227.359792 
L 360.430262 227.531849 
L 360.897579 221.896999 
L 361.131238 222.513535 
L 361.364896 222.284126 
L 361.598555 224.549536 
L 361.832214 224.621227 
L 362.299531 218.584912 
L 362.533189 220.334153 
L 362.766848 220.950689 
L 363.000506 224.592551 
L 363.234165 224.062043 
L 363.467823 222.470521 
L 363.701482 223.64624 
L 363.935141 222.513535 
L 364.168799 221.983027 
L 364.402458 218.699616 
L 364.636116 219.086743 
L 365.103433 221.466858 
L 365.57075 218.67094 
L 365.804409 220.563562 
L 366.038068 218.126095 
L 366.271726 220.549223 
L 366.739043 229.467484 
L 366.972702 224.248438 
L 367.20636 228.893962 
L 367.440019 229.481822 
L 367.673677 225.710918 
L 367.907336 227.474496 
L 368.608312 223.459845 
M 369.075629 226.900975 
L 369.309287 224.133733 
M 369.776604 223.631902 
L 370.010263 224.090719 
L 370.243922 222.470521 
L 370.47758 219.717617 
L 370.711239 218.742631 
L 370.944897 219.488209 
L 371.178556 219.144096 
M 372.11319 215.01474 
L 372.346849 216.548911 
L 372.814166 214.398205 
M 373.7488 211.889048 
L 374.683434 208.21851 
L 374.917093 209.09313 
L 375.150751 209.250849 
M 375.618068 210.928399 
L 375.851727 210.928399 
L 376.085385 209.881722 
L 376.319044 209.810032 
L 376.552703 208.132482 
L 376.786361 208.118143 
L 377.02002 208.992764 
M 377.487337 209.910398 
L 377.954654 209.6093 
L 378.188312 206.426255 
L 378.421971 205.723691 
L 378.65563 201.823744 
L 378.889288 205.322226 
L 379.122947 204.031802 
L 379.356605 205.22186 
L 379.590264 203.859746 
L 379.823922 204.519296 
L 380.057581 203.659013 
L 380.29124 203.515633 
L 380.524898 201.938449 
L 380.758557 203.501295 
L 380.992215 202.942111 
L 381.225874 204.332901 
L 381.459532 203.185858 
M 383.796118 202.913435 
L 384.263435 199.142531 
L 384.497094 196.633374 
L 384.730752 197.3216 
L 384.964411 198.698052 
L 385.431728 195.19957 
L 385.665386 196.303599 
L 385.899045 195.070528 
L 386.132703 196.44698 
L 386.366362 196.44698 
L 386.600021 192.704751 
L 386.833679 192.905484 
L 387.067338 195.471993 
M 387.768313 198.999151 
L 388.23563 196.748078 
M 390.104899 196.604698 
L 390.572216 194.583034 
L 390.805875 195.142218 
L 391.039533 196.432642 
L 391.50685 193.479005 
L 391.974167 188.747453 
L 392.207826 189.034213 
L 392.441484 186.410352 
L 392.675143 186.826155 
L 392.908802 186.611085 
L 393.14246 185.306323 
M 394.544411 187.069902 
L 394.77807 185.55007 
L 395.011729 185.248971 
L 395.245387 187.629085 
L 395.479046 185.55007 
L 395.712704 185.851169 
M 396.880997 183.198631 
L 397.114656 182.123278 
L 397.348314 182.022912 
L 397.581973 181.019249 
L 397.815631 182.62511 
L 398.04929 183.055251 
L 398.750266 193.780104 
L 398.983924 193.177907 
L 399.217583 202.913435 
L 399.451241 205.479944 
L 399.6849 196.403965 
L 399.918558 200.461631 
L 400.152217 193.995175 
L 400.385875 192.977174 
L 400.619534 197.507994 
L 401.086851 195.572359 
L 401.32051 197.751741 
L 401.554168 204.720028 
L 401.787827 195.744416 
L 402.488802 206.870734 
L 402.95612 195.299936 
L 403.189778 196.805431 
L 403.423437 196.776754 
L 403.657095 195.357289 
L 403.890754 189.636411 
L 404.124412 188.991199 
L 404.358071 190.855144 
L 404.591729 196.891459 
L 404.825388 196.891459 
L 405.059047 197.221234 
L 405.292705 193.851794 
L 405.526364 196.231909 
L 405.760022 204.003126 
L 405.993681 205.996114 
L 406.227339 204.49062 
L 406.460998 206.713016 
L 406.694656 202.311238 
L 406.928315 202.354252 
L 407.161974 194.511344 
L 407.395632 197.780417 
M 408.096608 198.439967 
L 408.330266 194.9845 
L 408.563925 200.633687 
L 408.797583 199.529658 
L 409.031242 201.063828 
L 409.264901 199.644362 
L 409.498559 200.017151 
L 409.732218 203.529971 
L 409.965876 208.820707 
L 410.199535 207.014114 
L 410.433193 209.02144 
L 410.666852 212.60595 
L 410.90051 219.058067 
M 411.367828 210.498258 
L 411.601486 207.946087 
L 411.835145 209.480257 
L 412.302462 206.641325 
M 413.003437 202.139181 
L 413.237096 201.078166 
L 413.470755 198.769742 
L 413.704413 198.396953 
L 413.938072 199.271573 
L 414.17173 200.648025 
L 414.405389 200.303912 
L 414.872706 200.38994 
L 415.106365 198.6407 
L 415.340023 199.285911 
L 415.573682 200.777067 
L 416.040999 198.396953 
M 417.44295 194.339288 
L 417.676609 192.86247 
M 419.312219 191.959173 
L 419.545877 189.450016 
M 421.882463 185.076915 
L 422.116121 185.091253 
M 422.583438 186.697113 
L 422.817097 185.951535 
L 423.050755 181.191306 
L 423.751731 176.129978 
L 423.98539 174.323385 
L 424.686365 176.77519 
L 424.920024 173.835892 
M 428.191244 169.878593 
L 428.424902 170.882256 
L 428.658561 168.330085 
L 428.892219 167.183042 
L 429.125878 167.48414 
L 429.359536 167.183042 
L 429.593195 167.584507 
L 429.826854 167.240394 
L 430.060512 165.433801 
L 430.294171 165.677547 
L 430.527829 166.351435 
L 430.995146 161.863629 
L 431.228805 161.462164 
L 431.696122 166.208055 
L 431.929781 164.888955 
L 432.163439 164.544842 
L 432.397098 167.512817 
L 432.630756 166.724224 
L 432.864415 168.086338 
L 433.098073 166.795915 
L 433.331732 171.642172 
L 434.032708 160.83129 
L 434.500025 162.838616 
L 434.967342 161.734587 
L 435.201 165.648871 
L 435.668318 162.494503 
L 435.901976 163.899631 
L 436.135635 163.856617 
M 437.070269 160.085712 
L 437.303927 157.891992 
L 437.537586 153.404186 
L 437.771245 152.300157 
L 438.004903 153.031397 
L 438.238562 151.196128 
M 442.444416 142.392572 
L 442.911733 138.076822 
L 443.145391 138.664682 
L 443.37905 138.320569 
L 443.612708 140.127162 
L 443.846367 140.35657 
L 444.080026 138.377921 
L 444.313684 140.227528 
L 444.547343 138.320569 
L 444.781001 137.847413 
L 445.01466 134.36327 
L 445.248318 136.858089 
L 445.481977 133.8471 
L 445.715635 134.535326 
L 445.949294 136.944117 
L 446.182953 142.005445 
L 446.416611 140.327894 
L 446.65027 142.837051 
L 446.883928 155.110413 
L 447.584904 139.281217 
L 447.818562 140.499951 
L 448.052221 144.385559 
L 448.28588 141.130824 
L 448.519538 148.443224 
L 448.986855 141.67567 
L 449.220514 139.510626 
L 449.454172 140.227528 
L 449.687831 137.790061 
L 449.921489 139.008795 
L 450.155148 145.977082 
L 450.388807 142.593304 
L 450.622465 141.460599 
L 450.856124 141.044796 
L 451.089782 137.460286 
L 451.323441 137.962118 
L 451.557099 140.28488 
L 451.790758 136.600004 
M 452.491734 136.915441 
L 452.725392 144.371221 
L 452.959051 146.335533 
M 453.426368 143.052122 
L 453.660026 144.715334 
L 453.893685 144.227841 
L 454.127344 145.891053 
L 454.361002 144.930405 
L 454.594661 147.654632 
L 454.828319 146.435899 
L 455.061978 147.052435 
L 455.295636 145.905391 
L 455.529295 145.374884 
L 455.996612 150.59393 
L 456.230271 147.324857 
L 456.463929 153.719623 
L 456.931246 144.901729 
L 457.164905 146.450237 
L 457.398563 150.006071 
L 457.632222 146.478913 
L 457.86588 146.478913 
L 458.099539 143.35322 
L 458.333198 142.923079 
L 458.566856 140.930092 
L 458.800515 142.191839 
L 459.034173 142.091473 
L 459.267832 145.288856 
L 459.50149 144.256517 
L 459.735149 152.242805 
L 459.968807 151.583255 
L 460.202466 144.643644 
L 460.669783 139.367246 
L 460.903442 142.535952 
L 461.1371 140.21319 
L 461.370759 140.772373 
L 461.604417 137.804399 
L 462.071734 144.342545 
M 463.006369 139.797387 
L 463.240027 139.510626 
L 463.473686 139.983781 
L 463.707344 139.496288 
L 463.941003 139.467612 
L 464.174661 139.62533 
L 464.40832 135.1662 
L 464.641979 136.757722 
L 464.875637 139.295555 
L 465.109296 139.897753 
L 465.810271 132.872114 
L 466.04393 132.671381 
M 468.146857 135.352595 
L 468.380515 131.768085 
L 468.614174 130.190901 
L 468.847833 131.223239 
M 472.58637 119.394357 
L 472.820028 117.157623 
L 473.053687 116.125284 
L 473.287345 110.748519 
L 473.521004 109.099645 
L 473.988321 100.009328 
L 474.221979 99.134708 
L 474.689297 103.292739 
L 474.922955 108.03863 
L 475.156614 106.375417 
L 475.390272 103.493472 
L 475.623931 98.690228 
L 475.857589 111.938577 
L 476.091248 109.300377 
L 476.324906 105.357417 
L 476.558565 106.43277 
M 477.259541 101.873273 
L 477.493199 104.812571 
L 477.726858 99.794257 
L 477.960516 99.85161 
L 478.194175 95.707916 
M 478.661492 91.377828 
L 478.895151 94.044704 
M 479.362468 112.196661 
L 479.596126 127.093884 
L 479.829785 128.800111 
L 480.063443 139.123499 
L 480.297102 136.614342 
L 480.53076 121.459035 
L 480.764419 130.922141 
L 480.998078 118.648779 
L 481.231736 129.158562 
L 481.465395 132.886452 
L 481.699053 151.855678 
L 481.932712 135.409947 
L 482.400029 167.699211 
L 482.633687 145.116799 
L 482.867346 179.270009 
L 483.101005 170.839242 
L 483.334663 184.331336 
L 483.568322 178.925896 
L 483.80198 186.697113 
L 484.035639 202.597998 
L 484.269297 175.656823 
L 484.736614 155.081737 
L 484.970273 165.577181 
L 485.203932 159.827628 
L 485.43759 166.208055 
L 485.671249 177.692824 
L 485.904907 171.556144 
L 486.138566 179.499417 
L 486.372224 154.278806 
L 486.605883 155.49754 
L 486.839542 146.392885 
L 487.0732 148.18514 
L 487.306859 154.924018 
L 487.540517 146.851702 
L 487.774176 159.268444 
L 488.007834 164.34411 
L 488.241493 154.135426 
M 488.942469 158.365148 
L 489.176127 158.666246 
L 489.409786 157.318471 
L 489.643444 150.952381 
M 490.110761 136.571328 
L 490.578078 145.489588 
L 490.811737 144.657982 
L 491.045396 141.374571 
L 491.279054 140.887078 
L 491.746371 131.839775 
L 491.98003 134.033495 
M 493.148323 122.821148 
L 493.381981 125.717432 
L 493.61564 119.265315 
L 493.849298 123.910839 
L 494.082957 123.566726 
L 494.316615 120.182949 
L 494.550274 120.756471 
L 495.017591 117.286665 
L 495.25125 118.562751 
L 495.484908 115.680805 
L 495.718567 114.949565 
L 495.952225 119.580752 
L 496.185884 111.020942 
L 496.419542 111.03528 
L 496.653201 111.780858 
L 496.886859 109.773533 
L 497.120518 126.405658 
L 497.354177 121.559401 
L 497.587835 122.276303 
L 498.055152 119.695456 
L 498.288811 119.193624 
L 498.522469 121.645429 
L 498.989786 113.372381 
L 499.223445 122.778134 
L 499.457104 119.093258 
L 499.690762 125.846475 
L 500.158079 120.254639 
L 500.391738 119.380019 
L 500.859055 113.673479 
L 501.092713 118.777821 
L 501.326372 117.530412 
L 501.560031 121.631091 
L 501.793689 121.143598 
L 502.027348 126.204926 
L 502.494665 115.408382 
L 502.728323 119.781484 
L 502.961982 117.501736 
L 503.19564 112.655479 
L 503.429299 115.508748 
L 503.662958 112.096295 
L 503.896616 114.146635 
L 504.130275 117.415708 
L 504.363933 114.892213 
L 504.597592 115.135959 
L 504.83125 112.49776 
L 505.064909 118.978554 
M 507.635153 115.27934 
L 507.868812 111.279027 
L 508.10247 111.881224 
L 508.336129 109.042293 
L 508.569787 104.511472 
L 508.803446 104.540148 
L 509.504422 95.75093 
L 509.73808 94.646901 
L 509.971739 87.936699 
L 510.205397 93.27045 
L 510.439056 91.320476 
M 510.906373 97.614875 
L 511.37369 110.289702 
L 511.607349 104.640515 
L 511.841007 108.253701 
L 512.074666 109.486772 
L 512.308324 103.321415 
L 512.541983 102.733555 
L 512.775641 103.106344 
L 513.0093 102.905612 
L 513.242958 106.71953 
L 513.476617 114.117959 
L 513.710276 109.658828 
L 513.943934 117.100271 
L 514.177593 116.8852 
L 514.411251 114.404719 
L 514.64491 110.002941 
L 514.878568 111.264689 
L 515.112227 110.504773 
L 515.345885 105.658515 
L 515.579544 108.368405 
L 515.813203 105.386093 
L 516.046861 109.816547 
M 517.448812 107.30739 
L 517.682471 111.10697 
L 517.91613 110.08897 
L 518.149788 114.806184 
L 518.617105 112.712831 
L 518.850764 113.343704 
L 519.084422 113.315028 
L 519.551739 124.71377 
M 520.953691 119.107596 
L 521.187349 113.845536 
L 521.421008 112.655479 
L 521.654666 92.281125 
L 521.888325 91.377828 
L 522.121984 92.252449 
L 522.355642 98.618538 
L 522.822959 92.252449 
L 523.757594 104.898599 
L 523.991252 98.761919 
L 524.458569 94.847634 
L 524.692228 94.689915 
L 524.925886 95.621888 
L 525.159545 94.403155 
L 525.393203 95.865635 
L 525.626862 98.919637 
L 525.860521 92.281125 
L 526.094179 92.324139 
L 526.327838 92.152083 
L 526.561496 96.725917 
M 527.262472 100.06668 
L 527.49613 98.475158 
L 527.729789 98.6042 
L 527.963448 94.431831 
L 528.197106 94.245436 
L 528.898082 102.862598 
L 529.599057 89.857996 
M 531.468326 91.980026 
L 531.701984 97.758256 
L 531.935643 97.055692 
L 532.169302 107.794883 
L 532.40296 108.18201 
L 532.636619 108.081644 
L 532.870277 101.844597 
L 533.103936 103.092006 
L 533.337594 107.565475 
L 533.571253 109.056631 
L 533.804911 107.579813 
L 534.03857 117.673792 
L 534.272229 113.01393 
L 534.505887 120.139935 
L 534.973204 106.71953 
M 535.440521 97.199072 
L 535.67418 97.887298 
L 535.907838 100.58285 
L 536.141497 101.113357 
L 536.375156 101.228061 
L 536.608814 95.177409 
L 536.842473 96.181072 
L 537.076131 99.134708 
L 537.30979 99.693891 
L 537.543448 97.055692 
M 538.010765 98.53251 
L 538.244424 93.098393 
L 538.478083 82.602948 
L 538.711741 90.746955 
L 538.9454 92.696928 
L 539.179058 86.617599 
L 539.646375 89.16977 
L 539.880034 93.973014 
L 540.347351 81.398553 
L 540.58101 81.269511 
L 540.814668 77.240522 
M 541.281985 75.534295 
L 541.515644 77.097141 
L 541.749302 75.046802 
L 542.21662 80.83937 
M 546.422474 78.946748 
L 546.656132 72.781392 
L 546.889791 72.594997 
L 547.123449 73.483956 
L 547.357108 77.082803 
L 547.590766 71.103841 
L 547.824425 70.931785 
L 548.058083 67.447641 
L 548.291742 66.960148 
L 548.525401 67.576683 
L 548.992718 57.611746 
L 549.226376 62.343299 
L 549.693693 64.537019 
L 549.927352 68.580346 
L 550.16101 65.55502 
L 550.394669 64.407977 
L 550.628328 73.225871 
L 550.861986 73.928435 
M 551.329303 76.423254 
L 551.562962 71.835081 
L 551.79662 72.551983 
L 552.030279 73.799392 
M 552.964913 68.422628 
L 553.198572 68.852769 
L 553.43223 71.648687 
L 553.665889 71.949785 
L 553.899547 71.318912 
L 554.133206 72.27956 
L 554.366864 67.935134 
L 554.600523 70.15753 
L 555.06784 65.55502 
L 555.301499 64.508343 
L 555.535157 64.135554 
L 556.002474 60.335974 
L 556.469791 63.174905 
L 556.70345 68.021163 
L 556.937109 64.364963 
L 557.170767 66.859781 
L 557.404426 61.253608 
L 557.638084 58.945184 
L 557.871743 60.737439 
L 558.33906 56.952196 
L 558.572719 61.583383 
L 558.806377 58.916508 
L 559.040036 61.97051 
L 559.273694 60.063551 
L 559.507353 55.073913 
L 559.741011 53.683123 
L 559.97467 53.109602 
L 560.208328 57.970197 
L 560.441987 55.303322 
L 560.675646 56.163604 
L 561.142963 44.521116 
L 561.376621 40.850578 
L 561.61028 41.467114 
L 561.843938 52.521742 
L 562.077597 49.238331 
L 562.311255 47.861879 
L 562.544914 47.173654 
M 564.180524 53.425039 
L 564.414182 57.281971 
L 564.647841 57.884169 
L 564.8815 52.808503 
M 565.348817 53.109602 
L 565.582475 55.876843 
L 566.049792 64.881132 
L 566.283451 63.648061 
M 566.750768 60.952509 
L 566.984427 65.110541 
L 567.218085 65.196569 
L 567.451744 65.497668 
L 567.685402 61.511693 
M 568.152719 63.734089 
L 568.386378 66.702063 
M 569.087354 68.738065 
L 569.321012 67.275585 
L 569.554671 75.79238 
L 570.021988 72.79573 
L 570.255646 68.752403 
L 570.489305 71.046489 
L 570.722963 74.745703 
L 570.956622 75.147168 
L 571.190281 77.441254 
L 571.657598 75.577309 
L 572.124915 81.71399 
L 572.358573 81.541934 
L 572.592232 77.842719 
L 573.059549 65.167893 
L 573.293208 68.021163 
L 573.526866 73.81373 
L 573.760525 72.20787 
L 573.994183 77.842719 
L 574.227842 66.788091 
L 574.4615 75.003788 
L 574.695159 75.648999 
L 574.928817 72.451617 
L 575.162476 66.659049 
M 575.629793 74.458942 
L 575.863452 75.978774 
L 576.09711 78.258523 
L 576.330769 74.358576 
M 576.798086 66.515668 
L 577.031745 62.400651 
L 577.499062 67.103528 
L 577.73272 65.684062 
L 577.966379 61.884482 
L 578.200037 64.838118 
L 578.433696 87.836333 
L 578.667354 96.353128 
L 578.901013 93.585886 
L 579.134672 92.596562 
L 579.36833 97.356791 
L 579.601989 98.847947 
L 579.601989 98.847947 
" clip-path="url(#pea88e1fc4d)" style="fill: none; stroke: #1e90ff; stroke-linecap: square"/>
   </g>
   <g id="patch_3">
    <path d="M 46.965625 354.958125 
L 46.965625 22.318125 
" style="fill: none; stroke: #000000; stroke-width: 0.8; stroke-linejoin: miter; stroke-linecap: square"/>
   </g>
   <g id="patch_4">
    <path d="M 604.965625 354.958125 
L 604.965625 22.318125 
" style="fill: none; stroke: #000000; stroke-width: 0.8; stroke-linejoin: miter; stroke-linecap: square"/>
   </g>
   <g id="patch_5">
    <path d="M 46.965625 354.958125 
L 604.965625 354.958125 
" style="fill: none; stroke: #000000; stroke-width: 0.8; stroke-linejoin: miter; stroke-linecap: square"/>
   </g>
   <g id="patch_6">
    <path d="M 46.965625 22.318125 
L 604.965625 22.318125 
" style="fill: none; stroke: #000000; stroke-width: 0.8; stroke-linejoin: miter; stroke-linecap: square"/>
   </g>
   <g id="text_13">
    <!-- V, Relative Strength Index (RSI), V -->
    <g transform="translate(223.31125 16.318125)scale(0.12 -0.12)">
     <defs>
      <path id="DejaVuSans-56" d="M 1831 0 
L 50 4666 
L 709 4666 
L 2188 738 
L 3669 4666 
L 4325 4666 
L 2547 0 
L 1831 0 
z
" transform="scale(0.015625)"/>
      <path id="DejaVuSans-2c" d="M 750 794 
L 1409 794 
L 1409 256 
L 897 -744 
L 494 -744 
L 750 256 
L 750 794 
z
" transform="scale(0.015625)"/>
      <path id="DejaVuSans-52" d="M 2841 2188 
Q 3044 2119 3236 1894 
Q 3428 1669 3622 1275 
L 4263 0 
L 3584 0 
L 2988 1197 
Q 2756 1666 2539 1819 
Q 2322 1972 1947 1972 
L 1259 1972 
L 1259 0 
L 628 0 
L 628 4666 
L 2053 4666 
Q 2853 4666 3247 4331 
Q 3641 3997 3641 3322 
Q 3641 2881 3436 2590 
Q 3231 2300 2841 2188 
z
M 1259 4147 
L 1259 2491 
L 2053 2491 
Q 2509 2491 2742 2702 
Q 2975 2913 2975 3322 
Q 2975 3731 2742 3939 
Q 2509 4147 2053 4147 
L 1259 4147 
z
" transform="scale(0.015625)"/>
      <path id="DejaVuSans-6c" d="M 603 4863 
L 1178 4863 
L 1178 0 
L 603 0 
L 603 4863 
z
" transform="scale(0.015625)"/>
      <path id="DejaVuSans-76" d="M 191 3500 
L 800 3500 
L 1894 563 
L 2988 3500 
L 3597 3500 
L 2284 0 
L 1503 0 
L 191 3500 
z
" transform="scale(0.015625)"/>
      <path id="DejaVuSans-6e" d="M 3513 2113 
L 3513 0 
L 2938 0 
L 2938 2094 
Q 2938 2591 2744 2837 
Q 2550 3084 2163 3084 
Q 1697 3084 1428 2787 
Q 1159 2491 1159 1978 
L 1159 0 
L 581 0 
L 581 3500 
L 1159 3500 
L 1159 2956 
Q 1366 3272 1645 3428 
Q 1925 3584 2291 3584 
Q 2894 3584 3203 3211 
Q 3513 2838 3513 2113 
z
" transform="scale(0.015625)"/>
      <path id="DejaVuSans-67" d="M 2906 1791 
Q 2906 2416 2648 2759 
Q 2391 3103 1925 3103 
Q 1463 3103 1205 2759 
Q 947 2416 947 1791 
Q 947 1169 1205 825 
Q 1463 481 1925 481 
Q 2391 481 2648 825 
Q 2906 1169 2906 1791 
z
M 3481 434 
Q 3481 -459 3084 -895 
Q 2688 -1331 1869 -1331 
Q 1566 -1331 1297 -1286 
Q 1028 -1241 775 -1147 
L 775 -588 
Q 1028 -725 1275 -790 
Q 1522 -856 1778 -856 
Q 2344 -856 2625 -561 
Q 2906 -266 2906 331 
L 2906 616 
Q 2728 306 2450 153 
Q 2172 0 1784 0 
Q 1141 0 747 490 
Q 353 981 353 1791 
Q 353 2603 747 3093 
Q 1141 3584 1784 3584 
Q 2172 3584 2450 3431 
Q 2728 3278 2906 2969 
L 2906 3500 
L 3481 3500 
L 3481 434 
z
" transform="scale(0.015625)"/>
      <path id="DejaVuSans-68" d="M 3513 2113 
L 3513 0 
L 2938 0 
L 2938 2094 
Q 2938 2591 2744 2837 
Q 2550 3084 2163 3084 
Q 1697 3084 1428 2787 
Q 1159 2491 1159 1978 
L 1159 0 
L 581 0 
L 581 4863 
L 1159 4863 
L 1159 2956 
Q 1366 3272 1645 3428 
Q 1925 3584 2291 3584 
Q 2894 3584 3203 3211 
Q 3513 2838 3513 2113 
z
" transform="scale(0.015625)"/>
      <path id="DejaVuSans-49" d="M 628 4666 
L 1259 4666 
L 1259 0 
L 628 0 
L 628 4666 
z
" transform="scale(0.015625)"/>
      <path id="DejaVuSans-64" d="M 2906 2969 
L 2906 4863 
L 3481 4863 
L 3481 0 
L 2906 0 
L 2906 525 
Q 2725 213 2448 61 
Q 2172 -91 1784 -91 
Q 1150 -91 751 415 
Q 353 922 353 1747 
Q 353 2572 751 3078 
Q 1150 3584 1784 3584 
Q 2172 3584 2448 3432 
Q 2725 3281 2906 2969 
z
M 947 1747 
Q 947 1113 1208 752 
Q 1469 391 1925 391 
Q 2381 391 2643 752 
Q 2906 1113 2906 1747 
Q 2906 2381 2643 2742 
Q 2381 3103 1925 3103 
Q 1469 3103 1208 2742 
Q 947 2381 947 1747 
z
" transform="scale(0.015625)"/>
      <path id="DejaVuSans-78" d="M 3513 3500 
L 2247 1797 
L 3578 0 
L 2900 0 
L 1881 1375 
L 863 0 
L 184 0 
L 1544 1831 
L 300 3500 
L 978 3500 
L 1906 2253 
L 2834 3500 
L 3513 3500 
z
" transform="scale(0.015625)"/>
     </defs>
     <use xlink:href="#DejaVuSans-56"/>
     <use xlink:href="#DejaVuSans-2c" x="68.408203"/>
     <use xlink:href="#DejaVuSans-20" x="100.195312"/>
     <use xlink:href="#DejaVuSans-52" x="131.982422"/>
     <use xlink:href="#DejaVuSans-65" x="196.964844"/>
     <use xlink:href="#DejaVuSans-6c" x="258.488281"/>
     <use xlink:href="#DejaVuSans-61" x="286.271484"/>
     <use xlink:href="#DejaVuSans-74" x="347.550781"/>
     <use xlink:href="#DejaVuSans-69" x="386.759766"/>
     <use xlink:href="#DejaVuSans-76" x="414.542969"/>
     <use xlink:href="#DejaVuSans-65" x="473.722656"/>
     <use xlink:href="#DejaVuSans-20" x="535.246094"/>
     <use xlink:href="#DejaVuSans-53" x="567.033203"/>
     <use xlink:href="#DejaVuSans-74" x="630.509766"/>
     <use xlink:href="#DejaVuSans-72" x="669.71875"/>
     <use xlink:href="#DejaVuSans-65" x="708.582031"/>
     <use xlink:href="#DejaVuSans-6e" x="770.105469"/>
     <use xlink:href="#DejaVuSans-67" x="833.484375"/>
     <use xlink:href="#DejaVuSans-74" x="896.960938"/>
     <use xlink:href="#DejaVuSans-68" x="936.169922"/>
     <use xlink:href="#DejaVuSans-20" x="999.548828"/>
     <use xlink:href="#DejaVuSans-49" x="1031.335938"/>
     <use xlink:href="#DejaVuSans-6e" x="1060.828125"/>
     <use xlink:href="#DejaVuSans-64" x="1124.207031"/>
     <use xlink:href="#DejaVuSans-65" x="1187.683594"/>
     <use xlink:href="#DejaVuSans-78" x="1247.457031"/>
     <use xlink:href="#DejaVuSans-20" x="1306.636719"/>
     <use xlink:href="#DejaVuSans-28" x="1338.423828"/>
     <use xlink:href="#DejaVuSans-52" x="1377.4375"/>
     <use xlink:href="#DejaVuSans-53" x="1446.919922"/>
     <use xlink:href="#DejaVuSans-49" x="1510.396484"/>
     <use xlink:href="#DejaVuSans-29" x="1539.888672"/>
     <use xlink:href="#DejaVuSans-2c" x="1578.902344"/>
     <use xlink:href="#DejaVuSans-20" x="1610.689453"/>
     <use xlink:href="#DejaVuSans-56" x="1642.476562"/>
    </g>
   </g>
   <g id="legend_1">
    <g id="patch_7">
     <path d="M 53.965625 74.3525 
L 203.875 74.3525 
Q 205.875 74.3525 205.875 72.3525 
L 205.875 29.318125 
Q 205.875 27.318125 203.875 27.318125 
L 53.965625 27.318125 
Q 51.965625 27.318125 51.965625 29.318125 
L 51.965625 72.3525 
Q 51.965625 74.3525 53.965625 74.3525 
z
" style="fill: #ffffff; opacity: 0.8; stroke: #cccccc; stroke-linejoin: miter"/>
    </g>
    <g id="line2d_19">
     <path d="M 55.965625 35.416562 
L 65.965625 35.416562 
L 75.965625 35.416562 
" style="fill: none; stroke: #00ff7f; stroke-linecap: square"/>
    </g>
    <g id="text_14">
     <!-- Oversold, RSI &lt;= 30 -->
     <g transform="translate(83.965625 38.916562)scale(0.1 -0.1)">
      <defs>
       <path id="DejaVuSans-4f" d="M 2522 4238 
Q 1834 4238 1429 3725 
Q 1025 3213 1025 2328 
Q 1025 1447 1429 934 
Q 1834 422 2522 422 
Q 3209 422 3611 934 
Q 4013 1447 4013 2328 
Q 4013 3213 3611 3725 
Q 3209 4238 2522 4238 
z
M 2522 4750 
Q 3503 4750 4090 4092 
Q 4678 3434 4678 2328 
Q 4678 1225 4090 567 
Q 3503 -91 2522 -91 
Q 1538 -91 948 565 
Q 359 1222 359 2328 
Q 359 3434 948 4092 
Q 1538 4750 2522 4750 
z
" transform="scale(0.015625)"/>
       <path id="DejaVuSans-73" d="M 2834 3397 
L 2834 2853 
Q 2591 2978 2328 3040 
Q 2066 3103 1784 3103 
Q 1356 3103 1142 2972 
Q 928 2841 928 2578 
Q 928 2378 1081 2264 
Q 1234 2150 1697 2047 
L 1894 2003 
Q 2506 1872 2764 1633 
Q 3022 1394 3022 966 
Q 3022 478 2636 193 
Q 2250 -91 1575 -91 
Q 1294 -91 989 -36 
Q 684 19 347 128 
L 347 722 
Q 666 556 975 473 
Q 1284 391 1588 391 
Q 1994 391 2212 530 
Q 2431 669 2431 922 
Q 2431 1156 2273 1281 
Q 2116 1406 1581 1522 
L 1381 1569 
Q 847 1681 609 1914 
Q 372 2147 372 2553 
Q 372 3047 722 3315 
Q 1072 3584 1716 3584 
Q 2034 3584 2315 3537 
Q 2597 3491 2834 3397 
z
" transform="scale(0.015625)"/>
       <path id="DejaVuSans-6f" d="M 1959 3097 
Q 1497 3097 1228 2736 
Q 959 2375 959 1747 
Q 959 1119 1226 758 
Q 1494 397 1959 397 
Q 2419 397 2687 759 
Q 2956 1122 2956 1747 
Q 2956 2369 2687 2733 
Q 2419 3097 1959 3097 
z
M 1959 3584 
Q 2709 3584 3137 3096 
Q 3566 2609 3566 1747 
Q 3566 888 3137 398 
Q 2709 -91 1959 -91 
Q 1206 -91 779 398 
Q 353 888 353 1747 
Q 353 2609 779 3096 
Q 1206 3584 1959 3584 
z
" transform="scale(0.015625)"/>
       <path id="DejaVuSans-3c" d="M 4684 3150 
L 1459 2003 
L 4684 863 
L 4684 294 
L 678 1747 
L 678 2266 
L 4684 3719 
L 4684 3150 
z
" transform="scale(0.015625)"/>
       <path id="DejaVuSans-3d" d="M 678 2906 
L 4684 2906 
L 4684 2381 
L 678 2381 
L 678 2906 
z
M 678 1631 
L 4684 1631 
L 4684 1100 
L 678 1100 
L 678 1631 
z
" transform="scale(0.015625)"/>
       <path id="DejaVuSans-33" d="M 2597 2516 
Q 3050 2419 3304 2112 
Q 3559 1806 3559 1356 
Q 3559 666 3084 287 
Q 2609 -91 1734 -91 
Q 1441 -91 1130 -33 
Q 819 25 488 141 
L 488 750 
Q 750 597 1062 519 
Q 1375 441 1716 441 
Q 2309 441 2620 675 
Q 2931 909 2931 1356 
Q 2931 1769 2642 2001 
Q 2353 2234 1838 2234 
L 1294 2234 
L 1294 2753 
L 1863 2753 
Q 2328 2753 2575 2939 
Q 2822 3125 2822 3475 
Q 2822 3834 2567 4026 
Q 2313 4219 1838 4219 
Q 1578 4219 1281 4162 
Q 984 4106 628 3988 
L 628 4550 
Q 988 4650 1302 4700 
Q 1616 4750 1894 4750 
Q 2613 4750 3031 4423 
Q 3450 4097 3450 3541 
Q 3450 3153 3228 2886 
Q 3006 2619 2597 2516 
z
" transform="scale(0.015625)"/>
      </defs>
      <use xlink:href="#DejaVuSans-4f"/>
      <use xlink:href="#DejaVuSans-76" x="78.710938"/>
      <use xlink:href="#DejaVuSans-65" x="137.890625"/>
      <use xlink:href="#DejaVuSans-72" x="199.414062"/>
      <use xlink:href="#DejaVuSans-73" x="240.527344"/>
      <use xlink:href="#DejaVuSans-6f" x="292.626953"/>
      <use xlink:href="#DejaVuSans-6c" x="353.808594"/>
      <use xlink:href="#DejaVuSans-64" x="381.591797"/>
      <use xlink:href="#DejaVuSans-2c" x="445.068359"/>
      <use xlink:href="#DejaVuSans-20" x="476.855469"/>
      <use xlink:href="#DejaVuSans-52" x="508.642578"/>
      <use xlink:href="#DejaVuSans-53" x="578.125"/>
      <use xlink:href="#DejaVuSans-49" x="641.601562"/>
      <use xlink:href="#DejaVuSans-20" x="671.09375"/>
      <use xlink:href="#DejaVuSans-3c" x="702.880859"/>
      <use xlink:href="#DejaVuSans-3d" x="786.669922"/>
      <use xlink:href="#DejaVuSans-20" x="870.458984"/>
      <use xlink:href="#DejaVuSans-33" x="902.246094"/>
      <use xlink:href="#DejaVuSans-30" x="965.869141"/>
     </g>
    </g>
    <g id="line2d_20">
     <path d="M 55.965625 50.094687 
L 65.965625 50.094687 
L 75.965625 50.094687 
" style="fill: none; stroke: #ff4500; stroke-linecap: square"/>
    </g>
    <g id="text_15">
     <!-- Overbought, RSI &gt;= 70 -->
     <g transform="translate(83.965625 53.594687)scale(0.1 -0.1)">
      <defs>
       <path id="DejaVuSans-62" d="M 3116 1747 
Q 3116 2381 2855 2742 
Q 2594 3103 2138 3103 
Q 1681 3103 1420 2742 
Q 1159 2381 1159 1747 
Q 1159 1113 1420 752 
Q 1681 391 2138 391 
Q 2594 391 2855 752 
Q 3116 1113 3116 1747 
z
M 1159 2969 
Q 1341 3281 1617 3432 
Q 1894 3584 2278 3584 
Q 2916 3584 3314 3078 
Q 3713 2572 3713 1747 
Q 3713 922 3314 415 
Q 2916 -91 2278 -91 
Q 1894 -91 1617 61 
Q 1341 213 1159 525 
L 1159 0 
L 581 0 
L 581 4863 
L 1159 4863 
L 1159 2969 
z
" transform="scale(0.015625)"/>
       <path id="DejaVuSans-75" d="M 544 1381 
L 544 3500 
L 1119 3500 
L 1119 1403 
Q 1119 906 1312 657 
Q 1506 409 1894 409 
Q 2359 409 2629 706 
Q 2900 1003 2900 1516 
L 2900 3500 
L 3475 3500 
L 3475 0 
L 2900 0 
L 2900 538 
Q 2691 219 2414 64 
Q 2138 -91 1772 -91 
Q 1169 -91 856 284 
Q 544 659 544 1381 
z
M 1991 3584 
L 1991 3584 
z
" transform="scale(0.015625)"/>
       <path id="DejaVuSans-3e" d="M 678 3150 
L 678 3719 
L 4684 2266 
L 4684 1747 
L 678 294 
L 678 863 
L 3897 2003 
L 678 3150 
z
" transform="scale(0.015625)"/>
       <path id="DejaVuSans-37" d="M 525 4666 
L 3525 4666 
L 3525 4397 
L 1831 0 
L 1172 0 
L 2766 4134 
L 525 4134 
L 525 4666 
z
" transform="scale(0.015625)"/>
      </defs>
      <use xlink:href="#DejaVuSans-4f"/>
      <use xlink:href="#DejaVuSans-76" x="78.710938"/>
      <use xlink:href="#DejaVuSans-65" x="137.890625"/>
      <use xlink:href="#DejaVuSans-72" x="199.414062"/>
      <use xlink:href="#DejaVuSans-62" x="240.527344"/>
      <use xlink:href="#DejaVuSans-6f" x="304.003906"/>
      <use xlink:href="#DejaVuSans-75" x="365.185547"/>
      <use xlink:href="#DejaVuSans-67" x="428.564453"/>
      <use xlink:href="#DejaVuSans-68" x="492.041016"/>
      <use xlink:href="#DejaVuSans-74" x="555.419922"/>
      <use xlink:href="#DejaVuSans-2c" x="594.628906"/>
      <use xlink:href="#DejaVuSans-20" x="626.416016"/>
      <use xlink:href="#DejaVuSans-52" x="658.203125"/>
      <use xlink:href="#DejaVuSans-53" x="727.685547"/>
      <use xlink:href="#DejaVuSans-49" x="791.162109"/>
      <use xlink:href="#DejaVuSans-20" x="820.654297"/>
      <use xlink:href="#DejaVuSans-3e" x="852.441406"/>
      <use xlink:href="#DejaVuSans-3d" x="936.230469"/>
      <use xlink:href="#DejaVuSans-20" x="1020.019531"/>
      <use xlink:href="#DejaVuSans-37" x="1051.806641"/>
      <use xlink:href="#DejaVuSans-30" x="1115.429688"/>
     </g>
    </g>
    <g id="line2d_21">
     <path d="M 55.965625 64.772812 
L 65.965625 64.772812 
L 75.965625 64.772812 
" style="fill: none; stroke: #1e90ff; stroke-linecap: square"/>
    </g>
    <g id="text_16">
     <!-- Neutral -->
     <g transform="translate(83.965625 68.272812)scale(0.1 -0.1)">
      <defs>
       <path id="DejaVuSans-4e" d="M 628 4666 
L 1478 4666 
L 3547 763 
L 3547 4666 
L 4159 4666 
L 4159 0 
L 3309 0 
L 1241 3903 
L 1241 0 
L 628 0 
L 628 4666 
z
" transform="scale(0.015625)"/>
      </defs>
      <use xlink:href="#DejaVuSans-4e"/>
      <use xlink:href="#DejaVuSans-65" x="74.804688"/>
      <use xlink:href="#DejaVuSans-75" x="136.328125"/>
      <use xlink:href="#DejaVuSans-74" x="199.707031"/>
      <use xlink:href="#DejaVuSans-72" x="238.916016"/>
      <use xlink:href="#DejaVuSans-61" x="280.029297"/>
      <use xlink:href="#DejaVuSans-6c" x="341.308594"/>
     </g>
    </g>
   </g>
  </g>
 </g>
 <defs>
  <clipPath id="pea88e1fc4d">
   <rect x="46.965625" y="22.318125" width="558" height="332.64"/>
  </clipPath>
 </defs>
</svg>
