<?xml version="1.0" encoding="utf-8" standalone="no"?>
<!DOCTYPE svg PUBLIC "-//W3C//DTD SVG 1.1//EN"
  "http://www.w3.org/Graphics/SVG/1.1/DTD/svg11.dtd">
<svg xmlns:xlink="http://www.w3.org/1999/xlink" width="612.165625pt" height="392.514375pt" viewBox="0 0 612.165625 392.514375" xmlns="http://www.w3.org/2000/svg" version="1.1">
 <metadata>
  <rdf:RDF xmlns:dc="http://purl.org/dc/elements/1.1/" xmlns:cc="http://creativecommons.org/ns#" xmlns:rdf="http://www.w3.org/1999/02/22-rdf-syntax-ns#">
   <cc:Work>
    <dc:type rdf:resource="http://purl.org/dc/dcmitype/StillImage"/>
    <dc:date>2023-04-23T16:54:52.912583</dc:date>
    <dc:format>image/svg+xml</dc:format>
    <dc:creator>
     <cc:Agent>
      <dc:title>Matplotlib v3.5.1, https://matplotlib.org/</dc:title>
     </cc:Agent>
    </dc:creator>
   </cc:Work>
  </rdf:RDF>
 </metadata>
 <defs>
  <style type="text/css">*{stroke-linejoin: round; stroke-linecap: butt}</style>
 </defs>
 <g id="figure_1">
  <g id="patch_1">
   <path d="M 0 392.514375 
L 612.165625 392.514375 
L 612.165625 0 
L 0 0 
z
" style="fill: #ffffff"/>
  </g>
  <g id="axes_1">
   <g id="patch_2">
    <path d="M 46.965625 354.958125 
L 604.965625 354.958125 
L 604.965625 22.318125 
L 46.965625 22.318125 
z
" style="fill: #ffffff"/>
   </g>
   <g id="matplotlib.axis_1">
    <g id="xtick_1">
     <g id="line2d_1">
      <defs>
       <path id="m18ebf1a0be" d="M 0 0 
L 0 3.5 
" style="stroke: #000000; stroke-width: 0.8"/>
      </defs>
      <g>
       <use xlink:href="#m18ebf1a0be" x="72.329261" y="354.958125" style="stroke: #000000; stroke-width: 0.8"/>
      </g>
     </g>
     <g id="text_1">
      <!-- 0 -->
      <g transform="translate(69.148011 369.556562)scale(0.1 -0.1)">
       <defs>
        <path id="DejaVuSans-30" d="M 2034 4250 
Q 1547 4250 1301 3770 
Q 1056 3291 1056 2328 
Q 1056 1369 1301 889 
Q 1547 409 2034 409 
Q 2525 409 2770 889 
Q 3016 1369 3016 2328 
Q 3016 3291 2770 3770 
Q 2525 4250 2034 4250 
z
M 2034 4750 
Q 2819 4750 3233 4129 
Q 3647 3509 3647 2328 
Q 3647 1150 3233 529 
Q 2819 -91 2034 -91 
Q 1250 -91 836 529 
Q 422 1150 422 2328 
Q 422 3509 836 4129 
Q 1250 4750 2034 4750 
z
" transform="scale(0.015625)"/>
       </defs>
       <use xlink:href="#DejaVuSans-30"/>
      </g>
     </g>
    </g>
    <g id="xtick_2">
     <g id="line2d_2">
      <g>
       <use xlink:href="#m18ebf1a0be" x="184.112586" y="354.958125" style="stroke: #000000; stroke-width: 0.8"/>
      </g>
     </g>
     <g id="text_2">
      <!-- 500 -->
      <g transform="translate(174.568836 369.556562)scale(0.1 -0.1)">
       <defs>
        <path id="DejaVuSans-35" d="M 691 4666 
L 3169 4666 
L 3169 4134 
L 1269 4134 
L 1269 2991 
Q 1406 3038 1543 3061 
Q 1681 3084 1819 3084 
Q 2600 3084 3056 2656 
Q 3513 2228 3513 1497 
Q 3513 744 3044 326 
Q 2575 -91 1722 -91 
Q 1428 -91 1123 -41 
Q 819 9 494 109 
L 494 744 
Q 775 591 1075 516 
Q 1375 441 1709 441 
Q 2250 441 2565 725 
Q 2881 1009 2881 1497 
Q 2881 1984 2565 2268 
Q 2250 2553 1709 2553 
Q 1456 2553 1204 2497 
Q 953 2441 691 2322 
L 691 4666 
z
" transform="scale(0.015625)"/>
       </defs>
       <use xlink:href="#DejaVuSans-35"/>
       <use xlink:href="#DejaVuSans-30" x="63.623047"/>
       <use xlink:href="#DejaVuSans-30" x="127.246094"/>
      </g>
     </g>
    </g>
    <g id="xtick_3">
     <g id="line2d_3">
      <g>
       <use xlink:href="#m18ebf1a0be" x="295.895911" y="354.958125" style="stroke: #000000; stroke-width: 0.8"/>
      </g>
     </g>
     <g id="text_3">
      <!-- 1000 -->
      <g transform="translate(283.170911 369.556562)scale(0.1 -0.1)">
       <defs>
        <path id="DejaVuSans-31" d="M 794 531 
L 1825 531 
L 1825 4091 
L 703 3866 
L 703 4441 
L 1819 4666 
L 2450 4666 
L 2450 531 
L 3481 531 
L 3481 0 
L 794 0 
L 794 531 
z
" transform="scale(0.015625)"/>
       </defs>
       <use xlink:href="#DejaVuSans-31"/>
       <use xlink:href="#DejaVuSans-30" x="63.623047"/>
       <use xlink:href="#DejaVuSans-30" x="127.246094"/>
       <use xlink:href="#DejaVuSans-30" x="190.869141"/>
      </g>
     </g>
    </g>
    <g id="xtick_4">
     <g id="line2d_4">
      <g>
       <use xlink:href="#m18ebf1a0be" x="407.679235" y="354.958125" style="stroke: #000000; stroke-width: 0.8"/>
      </g>
     </g>
     <g id="text_4">
      <!-- 1500 -->
      <g transform="translate(394.954235 369.556562)scale(0.1 -0.1)">
       <use xlink:href="#DejaVuSans-31"/>
       <use xlink:href="#DejaVuSans-35" x="63.623047"/>
       <use xlink:href="#DejaVuSans-30" x="127.246094"/>
       <use xlink:href="#DejaVuSans-30" x="190.869141"/>
      </g>
     </g>
    </g>
    <g id="xtick_5">
     <g id="line2d_5">
      <g>
       <use xlink:href="#m18ebf1a0be" x="519.46256" y="354.958125" style="stroke: #000000; stroke-width: 0.8"/>
      </g>
     </g>
     <g id="text_5">
      <!-- 2000 -->
      <g transform="translate(506.73756 369.556562)scale(0.1 -0.1)">
       <defs>
        <path id="DejaVuSans-32" d="M 1228 531 
L 3431 531 
L 3431 0 
L 469 0 
L 469 531 
Q 828 903 1448 1529 
Q 2069 2156 2228 2338 
Q 2531 2678 2651 2914 
Q 2772 3150 2772 3378 
Q 2772 3750 2511 3984 
Q 2250 4219 1831 4219 
Q 1534 4219 1204 4116 
Q 875 4013 500 3803 
L 500 4441 
Q 881 4594 1212 4672 
Q 1544 4750 1819 4750 
Q 2544 4750 2975 4387 
Q 3406 4025 3406 3419 
Q 3406 3131 3298 2873 
Q 3191 2616 2906 2266 
Q 2828 2175 2409 1742 
Q 1991 1309 1228 531 
z
" transform="scale(0.015625)"/>
       </defs>
       <use xlink:href="#DejaVuSans-32"/>
       <use xlink:href="#DejaVuSans-30" x="63.623047"/>
       <use xlink:href="#DejaVuSans-30" x="127.246094"/>
       <use xlink:href="#DejaVuSans-30" x="190.869141"/>
      </g>
     </g>
    </g>
    <g id="text_6">
     <!-- Date -->
     <g transform="translate(314.014844 383.234687)scale(0.1 -0.1)">
      <defs>
       <path id="DejaVuSans-44" d="M 1259 4147 
L 1259 519 
L 2022 519 
Q 2988 519 3436 956 
Q 3884 1394 3884 2338 
Q 3884 3275 3436 3711 
Q 2988 4147 2022 4147 
L 1259 4147 
z
M 628 4666 
L 1925 4666 
Q 3281 4666 3915 4102 
Q 4550 3538 4550 2338 
Q 4550 1131 3912 565 
Q 3275 0 1925 0 
L 628 0 
L 628 4666 
z
" transform="scale(0.015625)"/>
       <path id="DejaVuSans-61" d="M 2194 1759 
Q 1497 1759 1228 1600 
Q 959 1441 959 1056 
Q 959 750 1161 570 
Q 1363 391 1709 391 
Q 2188 391 2477 730 
Q 2766 1069 2766 1631 
L 2766 1759 
L 2194 1759 
z
M 3341 1997 
L 3341 0 
L 2766 0 
L 2766 531 
Q 2569 213 2275 61 
Q 1981 -91 1556 -91 
Q 1019 -91 701 211 
Q 384 513 384 1019 
Q 384 1609 779 1909 
Q 1175 2209 1959 2209 
L 2766 2209 
L 2766 2266 
Q 2766 2663 2505 2880 
Q 2244 3097 1772 3097 
Q 1472 3097 1187 3025 
Q 903 2953 641 2809 
L 641 3341 
Q 956 3463 1253 3523 
Q 1550 3584 1831 3584 
Q 2591 3584 2966 3190 
Q 3341 2797 3341 1997 
z
" transform="scale(0.015625)"/>
       <path id="DejaVuSans-74" d="M 1172 4494 
L 1172 3500 
L 2356 3500 
L 2356 3053 
L 1172 3053 
L 1172 1153 
Q 1172 725 1289 603 
Q 1406 481 1766 481 
L 2356 481 
L 2356 0 
L 1766 0 
Q 1100 0 847 248 
Q 594 497 594 1153 
L 594 3053 
L 172 3053 
L 172 3500 
L 594 3500 
L 594 4494 
L 1172 4494 
z
" transform="scale(0.015625)"/>
       <path id="DejaVuSans-65" d="M 3597 1894 
L 3597 1613 
L 953 1613 
Q 991 1019 1311 708 
Q 1631 397 2203 397 
Q 2534 397 2845 478 
Q 3156 559 3463 722 
L 3463 178 
Q 3153 47 2828 -22 
Q 2503 -91 2169 -91 
Q 1331 -91 842 396 
Q 353 884 353 1716 
Q 353 2575 817 3079 
Q 1281 3584 2069 3584 
Q 2775 3584 3186 3129 
Q 3597 2675 3597 1894 
z
M 3022 2063 
Q 3016 2534 2758 2815 
Q 2500 3097 2075 3097 
Q 1594 3097 1305 2825 
Q 1016 2553 972 2059 
L 3022 2063 
z
" transform="scale(0.015625)"/>
      </defs>
      <use xlink:href="#DejaVuSans-44"/>
      <use xlink:href="#DejaVuSans-61" x="77.001953"/>
      <use xlink:href="#DejaVuSans-74" x="138.28125"/>
      <use xlink:href="#DejaVuSans-65" x="177.490234"/>
     </g>
    </g>
   </g>
   <g id="matplotlib.axis_2">
    <g id="ytick_1">
     <g id="line2d_6">
      <path d="M 46.965625 324.142376 
L 604.965625 324.142376 
" clip-path="url(#p0e596cd146)" style="fill: none; stroke: #dcdcdc; stroke-width: 0.5; stroke-linecap: square"/>
     </g>
     <g id="line2d_7">
      <defs>
       <path id="m92ba63e6f2" d="M 0 0 
L -3.5 0 
" style="stroke: #000000; stroke-width: 0.8"/>
      </defs>
      <g>
       <use xlink:href="#m92ba63e6f2" x="46.965625" y="324.142376" style="stroke: #000000; stroke-width: 0.8"/>
      </g>
     </g>
     <g id="text_7">
      <!-- 50 -->
      <g transform="translate(27.240625 327.941595)scale(0.1 -0.1)">
       <use xlink:href="#DejaVuSans-35"/>
       <use xlink:href="#DejaVuSans-30" x="63.623047"/>
      </g>
     </g>
    </g>
    <g id="ytick_2">
     <g id="line2d_8">
      <path d="M 46.965625 252.798065 
L 604.965625 252.798065 
" clip-path="url(#p0e596cd146)" style="fill: none; stroke: #dcdcdc; stroke-width: 0.5; stroke-linecap: square"/>
     </g>
     <g id="line2d_9">
      <g>
       <use xlink:href="#m92ba63e6f2" x="46.965625" y="252.798065" style="stroke: #000000; stroke-width: 0.8"/>
      </g>
     </g>
     <g id="text_8">
      <!-- 100 -->
      <g transform="translate(20.878125 256.597283)scale(0.1 -0.1)">
       <use xlink:href="#DejaVuSans-31"/>
       <use xlink:href="#DejaVuSans-30" x="63.623047"/>
       <use xlink:href="#DejaVuSans-30" x="127.246094"/>
      </g>
     </g>
    </g>
    <g id="ytick_3">
     <g id="line2d_10">
      <path d="M 46.965625 181.453753 
L 604.965625 181.453753 
" clip-path="url(#p0e596cd146)" style="fill: none; stroke: #dcdcdc; stroke-width: 0.5; stroke-linecap: square"/>
     </g>
     <g id="line2d_11">
      <g>
       <use xlink:href="#m92ba63e6f2" x="46.965625" y="181.453753" style="stroke: #000000; stroke-width: 0.8"/>
      </g>
     </g>
     <g id="text_9">
      <!-- 150 -->
      <g transform="translate(20.878125 185.252972)scale(0.1 -0.1)">
       <use xlink:href="#DejaVuSans-31"/>
       <use xlink:href="#DejaVuSans-35" x="63.623047"/>
       <use xlink:href="#DejaVuSans-30" x="127.246094"/>
      </g>
     </g>
    </g>
    <g id="ytick_4">
     <g id="line2d_12">
      <path d="M 46.965625 110.109441 
L 604.965625 110.109441 
" clip-path="url(#p0e596cd146)" style="fill: none; stroke: #dcdcdc; stroke-width: 0.5; stroke-linecap: square"/>
     </g>
     <g id="line2d_13">
      <g>
       <use xlink:href="#m92ba63e6f2" x="46.965625" y="110.109441" style="stroke: #000000; stroke-width: 0.8"/>
      </g>
     </g>
     <g id="text_10">
      <!-- 200 -->
      <g transform="translate(20.878125 113.90866)scale(0.1 -0.1)">
       <use xlink:href="#DejaVuSans-32"/>
       <use xlink:href="#DejaVuSans-30" x="63.623047"/>
       <use xlink:href="#DejaVuSans-30" x="127.246094"/>
      </g>
     </g>
    </g>
    <g id="ytick_5">
     <g id="line2d_14">
      <path d="M 46.965625 38.765129 
L 604.965625 38.765129 
" clip-path="url(#p0e596cd146)" style="fill: none; stroke: #dcdcdc; stroke-width: 0.5; stroke-linecap: square"/>
     </g>
     <g id="line2d_15">
      <g>
       <use xlink:href="#m92ba63e6f2" x="46.965625" y="38.765129" style="stroke: #000000; stroke-width: 0.8"/>
      </g>
     </g>
     <g id="text_11">
      <!-- 250 -->
      <g transform="translate(20.878125 42.564348)scale(0.1 -0.1)">
       <use xlink:href="#DejaVuSans-32"/>
       <use xlink:href="#DejaVuSans-35" x="63.623047"/>
       <use xlink:href="#DejaVuSans-30" x="127.246094"/>
      </g>
     </g>
    </g>
    <g id="text_12">
     <!-- Price (USD) -->
     <g transform="translate(14.798437 217.01)rotate(-90)scale(0.1 -0.1)">
      <defs>
       <path id="DejaVuSans-50" d="M 1259 4147 
L 1259 2394 
L 2053 2394 
Q 2494 2394 2734 2622 
Q 2975 2850 2975 3272 
Q 2975 3691 2734 3919 
Q 2494 4147 2053 4147 
L 1259 4147 
z
M 628 4666 
L 2053 4666 
Q 2838 4666 3239 4311 
Q 3641 3956 3641 3272 
Q 3641 2581 3239 2228 
Q 2838 1875 2053 1875 
L 1259 1875 
L 1259 0 
L 628 0 
L 628 4666 
z
" transform="scale(0.015625)"/>
       <path id="DejaVuSans-72" d="M 2631 2963 
Q 2534 3019 2420 3045 
Q 2306 3072 2169 3072 
Q 1681 3072 1420 2755 
Q 1159 2438 1159 1844 
L 1159 0 
L 581 0 
L 581 3500 
L 1159 3500 
L 1159 2956 
Q 1341 3275 1631 3429 
Q 1922 3584 2338 3584 
Q 2397 3584 2469 3576 
Q 2541 3569 2628 3553 
L 2631 2963 
z
" transform="scale(0.015625)"/>
       <path id="DejaVuSans-69" d="M 603 3500 
L 1178 3500 
L 1178 0 
L 603 0 
L 603 3500 
z
M 603 4863 
L 1178 4863 
L 1178 4134 
L 603 4134 
L 603 4863 
z
" transform="scale(0.015625)"/>
       <path id="DejaVuSans-63" d="M 3122 3366 
L 3122 2828 
Q 2878 2963 2633 3030 
Q 2388 3097 2138 3097 
Q 1578 3097 1268 2742 
Q 959 2388 959 1747 
Q 959 1106 1268 751 
Q 1578 397 2138 397 
Q 2388 397 2633 464 
Q 2878 531 3122 666 
L 3122 134 
Q 2881 22 2623 -34 
Q 2366 -91 2075 -91 
Q 1284 -91 818 406 
Q 353 903 353 1747 
Q 353 2603 823 3093 
Q 1294 3584 2113 3584 
Q 2378 3584 2631 3529 
Q 2884 3475 3122 3366 
z
" transform="scale(0.015625)"/>
       <path id="DejaVuSans-20" transform="scale(0.015625)"/>
       <path id="DejaVuSans-28" d="M 1984 4856 
Q 1566 4138 1362 3434 
Q 1159 2731 1159 2009 
Q 1159 1288 1364 580 
Q 1569 -128 1984 -844 
L 1484 -844 
Q 1016 -109 783 600 
Q 550 1309 550 2009 
Q 550 2706 781 3412 
Q 1013 4119 1484 4856 
L 1984 4856 
z
" transform="scale(0.015625)"/>
       <path id="DejaVuSans-55" d="M 556 4666 
L 1191 4666 
L 1191 1831 
Q 1191 1081 1462 751 
Q 1734 422 2344 422 
Q 2950 422 3222 751 
Q 3494 1081 3494 1831 
L 3494 4666 
L 4128 4666 
L 4128 1753 
Q 4128 841 3676 375 
Q 3225 -91 2344 -91 
Q 1459 -91 1007 375 
Q 556 841 556 1753 
L 556 4666 
z
" transform="scale(0.015625)"/>
       <path id="DejaVuSans-53" d="M 3425 4513 
L 3425 3897 
Q 3066 4069 2747 4153 
Q 2428 4238 2131 4238 
Q 1616 4238 1336 4038 
Q 1056 3838 1056 3469 
Q 1056 3159 1242 3001 
Q 1428 2844 1947 2747 
L 2328 2669 
Q 3034 2534 3370 2195 
Q 3706 1856 3706 1288 
Q 3706 609 3251 259 
Q 2797 -91 1919 -91 
Q 1588 -91 1214 -16 
Q 841 59 441 206 
L 441 856 
Q 825 641 1194 531 
Q 1563 422 1919 422 
Q 2459 422 2753 634 
Q 3047 847 3047 1241 
Q 3047 1584 2836 1778 
Q 2625 1972 2144 2069 
L 1759 2144 
Q 1053 2284 737 2584 
Q 422 2884 422 3419 
Q 422 4038 858 4394 
Q 1294 4750 2059 4750 
Q 2388 4750 2728 4690 
Q 3069 4631 3425 4513 
z
" transform="scale(0.015625)"/>
       <path id="DejaVuSans-29" d="M 513 4856 
L 1013 4856 
Q 1481 4119 1714 3412 
Q 1947 2706 1947 2009 
Q 1947 1309 1714 600 
Q 1481 -109 1013 -844 
L 513 -844 
Q 928 -128 1133 580 
Q 1338 1288 1338 2009 
Q 1338 2731 1133 3434 
Q 928 4138 513 4856 
z
" transform="scale(0.015625)"/>
      </defs>
      <use xlink:href="#DejaVuSans-50"/>
      <use xlink:href="#DejaVuSans-72" x="58.552734"/>
      <use xlink:href="#DejaVuSans-69" x="99.666016"/>
      <use xlink:href="#DejaVuSans-63" x="127.449219"/>
      <use xlink:href="#DejaVuSans-65" x="182.429688"/>
      <use xlink:href="#DejaVuSans-20" x="243.953125"/>
      <use xlink:href="#DejaVuSans-28" x="275.740234"/>
      <use xlink:href="#DejaVuSans-55" x="314.753906"/>
      <use xlink:href="#DejaVuSans-53" x="387.947266"/>
      <use xlink:href="#DejaVuSans-44" x="451.423828"/>
      <use xlink:href="#DejaVuSans-29" x="528.425781"/>
     </g>
    </g>
   </g>
   <g id="line2d_16">
    <path d="M 73.447095 101.34836 
L 73.894228 114.803897 
L 74.341361 110.451894 
L 74.564928 121.938328 
L 74.788495 123.379483 
M 80.601227 101.334091 
L 80.824794 101.733619 
L 81.048361 107.255669 
L 81.271927 107.469701 
M 88.649627 106.285386 
L 88.873193 115.360382 
L 89.09676 112.549416 
L 89.320327 124.150002 
M 119.278258 71.911696 
L 119.501824 72.382569 
L 119.725391 75.022308 
M 125.538124 80.116292 
L 125.761691 79.474194 
L 125.985257 77.975963 
L 126.43239 82.613343 
L 126.655957 83.498013 
L 126.879524 82.941527 
L 127.10309 86.052139 
L 127.326657 93.372065 
L 127.550224 93.129495 
L 127.77379 89.405322 
L 127.997357 90.80367 
L 128.220924 98.737158 
L 128.668057 98.480318 
L 128.891624 98.694351 
L 129.11519 100.263926 
M 143.870589 101.205671 
L 144.094156 99.250837 
M 149.906889 126.746935 
L 150.354022 136.20719 
L 150.577589 131.69823 
L 150.801155 137.405775 
M 162.650188 113.562506 
L 162.873754 111.907318 
L 163.320888 114.689746 
L 163.544454 115.303307 
L 163.768021 111.864511 
L 164.438721 123.393752 
L 164.662288 123.807549 
M 176.958453 142.799405 
L 177.18202 139.403415 
M 180.53552 166.428641 
L 180.759086 161.163431 
M 196.185185 119.740923 
L 196.408752 121.638682 
L 196.632318 126.247524 
L 197.079452 124.949058 
L 197.303018 122.780191 
L 197.526585 127.374764 
L 197.750152 127.474646 
L 197.973718 125.248704 
L 198.197285 125.576888 
L 198.420852 127.845637 
L 198.644418 128.544811 
L 198.867985 127.232076 
L 199.315118 131.655423 
M 200.432951 135.779124 
L 200.656518 135.422403 
M 201.103651 135.550823 
L 201.327218 135.950351 
L 201.550785 137.791034 
M 205.351418 140.116859 
L 205.574984 140.887377 
L 205.798551 143.256008 
M 225.472416 143.11332 
L 225.919549 147.294096 
L 226.143116 147.850582 
L 226.366683 151.160958 
L 226.590249 151.403529 
L 226.813816 151.089614 
L 227.037383 147.422516 
L 227.260949 148.007539 
L 227.484516 147.579474 
L 227.708083 151.931477 
L 227.931649 153.943386 
L 228.155216 153.543858 
L 228.378783 153.401169 
L 228.602349 153.843504 
M 230.167316 163.860246 
L 230.390882 169.182531 
L 230.614449 165.287132 
M 238.662848 170.766375 
L 238.886415 170.395384 
L 239.333548 170.552342 
M 239.780682 170.352578 
L 240.004248 171.094559 
L 240.674948 175.432293 
L 240.898515 173.891256 
L 241.122082 177.130288 
L 241.345648 177.073212 
M 245.146281 185.420497 
L 245.369848 185.677336 
L 245.593415 187.075685 
L 245.816981 187.346793 
L 246.040548 190.01507 
L 246.264115 188.973443 
L 246.487681 189.38724 
M 247.158381 190.742782 
L 247.605514 194.581106 
L 248.052648 195.480045 
L 248.276214 193.596555 
M 248.946914 195.508582 
L 249.170481 202.842777 
M 249.617614 202.857046 
L 249.841181 201.444429 
M 253.194681 204.783343 
L 253.418247 212.659755 
M 270.856446 187.88901 
L 271.303579 191.156579 
M 275.104212 194.638182 
L 275.551346 196.107874 
L 275.774912 195.708346 
L 275.998479 194.752333 
L 276.445612 196.136412 
M 277.339879 200.374264 
L 277.563445 200.745255 
M 281.140512 204.155513 
L 281.364078 205.297022 
L 281.587645 207.922492 
L 281.811212 206.424262 
L 282.034778 206.495606 
L 282.258345 206.081809 
L 282.481912 208.536054 
L 282.705478 206.352918 
L 282.929045 208.664473 
M 290.753878 212.616948 
L 291.201011 215.156806 
M 292.318844 222.533808 
L 292.542411 222.448194 
L 292.765978 217.896427 
M 308.192076 224.488642 
L 308.415643 225.715764 
M 308.862776 225.202085 
L 309.086343 225.88699 
L 309.30991 229.853734 
L 309.533476 230.467295 
L 309.757043 232.093945 
L 309.98061 232.79312 
L 310.204176 232.322247 
L 310.427743 232.79312 
L 310.65131 234.262812 
L 311.322009 235.504203 
L 311.545576 235.475666 
L 311.769143 233.463756 
L 311.992709 233.078497 
L 312.216276 234.362694 
M 313.557676 238.900193 
L 314.004809 242.1963 
M 320.041109 239.256914 
L 320.488242 242.053611 
L 320.711809 242.025074 
L 320.935375 242.781323 
L 321.158942 241.668352 
L 321.382509 242.039342 
L 321.606075 240.954909 
M 322.947475 243.19512 
L 323.171042 243.894294 
L 323.394609 245.221299 
M 324.288875 246.262926 
L 324.736008 248.603019 
L 324.959575 248.488868 
M 329.654475 248.203491 
L 329.878041 248.260566 
M 331.666575 252.669645 
L 331.890141 253.525777 
M 335.690774 256.251129 
L 335.914341 257.321294 
M 336.361474 258.591223 
L 336.585041 258.24877 
L 336.808607 259.347472 
L 337.032174 259.804076 
L 337.479307 262.429547 
L 337.702874 261.345113 
L 337.926441 262.286858 
L 338.373574 260.76009 
M 344.857007 264.626951 
L 345.080574 264.555607 
M 345.527707 262.458084 
L 345.97484 264.070466 
L 346.198407 263.856433 
M 346.64554 264.327305 
L 346.869107 264.084735 
M 349.99904 267.338035 
L 350.222606 268.679308 
L 350.446173 268.950417 
L 350.66974 268.707846 
L 350.893306 268.693577 
L 351.116873 268.864804 
L 351.34044 268.365393 
L 351.564006 268.451007 
L 351.787573 268.807728 
L 352.01114 267.980134 
L 352.234706 268.679308 
L 352.458273 268.479544 
M 358.494572 270.03485 
L 358.718139 270.691218 
L 358.941706 270.762562 
M 359.388839 271.561619 
L 360.283106 274.072938 
L 360.506672 273.088387 
L 360.730239 273.017043 
L 360.953806 272.660321 
L 361.177372 278.053951 
L 361.400939 277.854187 
L 361.624506 277.468928 
L 361.848072 276.05631 
L 362.071639 275.956428 
L 362.295206 276.712678 
M 363.636605 279.06704 
L 363.860172 279.537913 
L 364.083739 279.666332 
M 365.648705 281.121756 
L 365.872272 282.049232 
L 366.095839 284.161024 
L 366.319405 283.718689 
L 366.542972 283.761496 
L 366.766538 283.690152 
L 367.213672 284.33225 
L 367.660805 283.675883 
L 367.884372 284.046873 
L 368.107938 283.690152 
M 386.887537 280.95053 
L 387.111104 280.137205 
M 389.570337 283.790034 
L 389.793903 283.818571 
L 390.01747 284.118217 
M 393.37097 286.444042 
L 393.594536 289.169395 
L 393.818103 289.811494 
L 394.04167 288.941093 
L 394.488803 289.654536 
M 400.972236 285.787674 
L 401.195802 285.002887 
L 401.419369 285.916094 
M 408.797069 286.358429 
L 409.020635 285.930363 
L 409.467769 289.782956 
L 409.691335 289.697343 
L 409.914902 290.025527 
L 410.138468 291.381068 
L 410.362035 290.225291 
L 410.585602 290.211022 
L 411.479868 293.478591 
L 411.703435 293.278827 
L 411.927002 295.290737 
L 412.150568 294.634369 
L 412.374135 294.719982 
M 435.177933 289.925644 
L 435.4015 290.039795 
L 435.625066 291.010078 
L 435.848633 292.636728 
L 436.0722 292.422695 
L 436.295766 294.648638 
L 436.519333 295.618921 
L 436.7429 296.089793 
L 437.190033 299.599933 
M 448.815499 295.576114 
L 449.039065 295.461963 
L 449.262632 296.289557 
L 449.933332 300.27057 
L 450.156899 298.786608 
L 450.380465 298.287198 
L 450.604032 298.115971 
L 450.827599 298.672457 
L 451.274732 300.284839 
M 459.993831 301.911489 
L 460.440965 301.240852 
M 474.07853 304.401405 
L 474.302097 304.554796 
L 474.525663 307.019742 
L 474.74923 307.604765 
L 474.972797 305.953144 
M 484.809729 305.710573 
L 485.033296 306.356239 
L 485.480429 306.377643 
L 485.703996 306.720095 
L 486.151129 305.610691 
L 486.374696 306.402613 
L 486.598263 306.231387 
M 487.492529 308.814051 
L 487.716096 309.324163 
L 487.939662 309.363402 
L 488.163229 311.068531 
L 488.386796 318.912838 
L 488.610362 318.181559 
L 488.833929 319.35874 
L 489.057496 319.33377 
L 489.281062 319.048393 
L 489.504629 320.246977 
L 489.728196 319.394412 
L 489.951762 321.342112 
L 490.175329 322.002047 
L 490.622462 324.053196 
L 491.069596 322.615608 
L 491.293162 322.365903 
M 508.060661 320.910479 
L 508.284228 321.363515 
L 508.507794 320.764223 
L 508.731361 320.757089 
M 529.523059 317.3611 
L 529.746626 318.573953 
L 530.193759 319.337337 
M 536.900759 318.6667 
L 537.124325 319.415816 
L 537.347892 321.377784 
L 537.571459 321.516906 
L 537.795025 322.915254 
L 538.018592 322.123332 
L 538.242159 324.345708 
L 538.465725 323.575189 
L 538.689292 323.475307 
L 538.912858 323.532383 
L 539.136425 323.164959 
L 539.359992 323.518114 
M 547.631958 328.055612 
L 547.855524 329.90343 
L 548.079091 330.374302 
L 548.302658 329.01876 
M 552.773991 331.794054 
L 552.997557 332.46469 
L 553.221124 332.628782 
L 553.444691 332.635917 
L 553.668257 332.339838 
L 553.891824 333.267314 
L 554.115391 332.928428 
L 554.338957 332.985504 
L 554.562524 333.356494 
L 554.786091 333.060415 
M 564.623023 331.893936 
L 564.84659 331.455168 
L 565.070156 331.826159 
M 572.894989 336.263775 
L 573.118556 335.393374 
L 573.565689 335.832142 
L 573.789256 335.286358 
L 574.459956 337.152012 
L 574.683522 336.998621 
L 574.907089 337.908261 
L 575.130656 337.61575 
L 575.354222 336.73108 
L 575.577789 337.951068 
L 575.577789 337.951068 
" clip-path="url(#p0e596cd146)" style="fill: none; stroke: #00ff7f; stroke-linecap: square"/>
   </g>
   <g id="line2d_17">
    <path d="M 77.024161 77.733392 
L 77.247728 74.993771 
L 77.471294 68.98658 
L 77.694861 70.413466 
L 77.918428 73.952144 
L 78.141994 74.87962 
L 78.365561 73.595422 
L 78.589128 66.061463 
L 78.812694 70.24224 
M 79.483394 65.105449 
L 79.706961 59.569131 
M 83.73116 81.928438 
L 83.954727 81.571716 
L 84.178294 78.061576 
L 84.40186 79.531269 
M 92.45026 87.907091 
L 92.673826 91.003434 
L 92.897393 80.872542 
M 103.852159 65.547784 
L 104.075726 63.46453 
M 108.547059 43.916189 
L 108.770625 41.733053 
L 108.994192 43.131401 
L 109.217758 37.438125 
L 109.441325 38.408408 
L 109.664892 40.163478 
M 139.846389 88.064049 
L 140.293523 92.102137 
L 140.517089 89.405322 
L 140.740656 84.767941 
L 140.964223 83.383862 
L 141.187789 83.91181 
M 153.260388 103.945292 
L 153.483955 100.977369 
L 153.707522 100.634916 
L 153.931088 105.85732 
L 154.154655 106.585032 
M 191.713852 106.199773 
L 191.937419 105.771707 
M 215.411917 130.456839 
L 215.635484 131.897994 
M 257.88958 188.588184 
L 258.113147 193.28264 
M 269.067913 181.382408 
L 269.291479 182.538186 
M 373.473538 278.653243 
L 373.697105 278.667512 
L 373.920671 276.712678 
M 398.065869 278.981427 
L 398.289436 280.479658 
L 398.513003 280.565271 
M 422.658201 283.690152 
L 422.881767 282.463029 
L 423.105334 283.433312 
L 423.328901 283.818571 
M 424.446734 283.20501 
L 424.670301 281.535553 
M 445.461999 288.498758 
L 445.685566 288.084961 
L 445.909132 287.371518 
M 477.655597 301.151672 
L 477.879163 302.400197 
M 503.589328 316.030528 
L 503.812895 316.579879 
L 504.036461 316.558476 
M 522.592493 316.740404 
L 522.81606 315.805794 
M 523.263193 315.645269 
L 523.48676 314.72136 
L 523.710326 315.659538 
M 559.033857 327.195913 
L 559.257424 327.006851 
L 559.704557 326.065106 
L 559.704557 326.065106 
" clip-path="url(#p0e596cd146)" style="fill: none; stroke: #ff4500; stroke-linecap: square"/>
   </g>
   <g id="line2d_18">
    <path d="M 72.329261 83.754852 
L 72.552828 85.7953 
L 72.776395 82.841645 
L 72.999961 90.917821 
L 73.223528 93.172301 
M 75.012061 109.695644 
L 75.235628 99.793054 
L 75.459194 98.009446 
L 75.682761 97.310271 
L 75.906328 87.108035 
L 76.129894 82.613343 
L 76.577028 87.350606 
L 76.800594 79.688226 
M 79.036261 71.355211 
L 79.259827 69.600141 
M 79.930527 63.935402 
L 80.154094 72.767828 
L 80.377661 70.156626 
M 81.495494 101.648006 
L 81.719061 89.633624 
L 81.942627 89.162751 
L 82.166194 87.693058 
L 82.389761 89.17702 
L 82.613327 88.706147 
L 82.836894 87.693058 
L 83.060461 89.590817 
L 83.284027 93.029613 
L 83.507594 85.90945 
M 84.625427 86.266172 
L 84.848994 84.610984 
L 85.07256 84.182918 
L 85.296127 84.354144 
L 85.519694 84.953437 
L 85.74326 86.394592 
L 85.966827 84.482564 
L 86.190394 88.163931 
L 86.41396 97.638455 
L 86.861094 89.605086 
L 87.08466 92.544471 
M 87.531794 94.385155 
L 87.75536 90.989165 
L 88.42606 99.593289 
M 89.543893 118.998942 
L 89.991027 113.462624 
L 90.214593 105.472061 
L 90.661727 116.416278 
L 90.885293 108.882319 
L 91.332427 102.889397 
L 91.555993 88.449308 
L 91.77956 92.55874 
L 92.003127 92.858386 
L 92.226693 95.241286 
M 93.12096 86.323247 
L 93.344526 97.58138 
L 93.568093 98.551662 
L 93.79166 97.067701 
L 94.015226 92.330438 
L 94.238793 93.31499 
L 94.46236 96.06888 
L 94.685926 87.593176 
L 94.909493 64.705921 
L 95.13306 61.766535 
L 95.356626 65.547784 
L 95.580193 66.960401 
L 95.80376 65.276675 
L 96.027326 62.280214 
L 96.250893 66.375378 
M 96.698026 74.180446 
L 96.921593 78.061576 
L 97.368726 74.280328 
M 97.815859 66.518066 
L 98.262993 75.464643 
L 98.486559 74.822544 
L 98.710126 66.646486 
L 98.933693 77.647779 
L 99.157259 72.040116 
L 99.380826 73.638229 
L 99.604393 67.873608 
L 99.827959 65.034105 
L 100.051526 69.714292 
L 100.275093 77.647779 
L 100.498659 81.329146 
L 100.722226 81.500372 
L 100.945792 79.074665 
L 101.169359 75.393299 
L 101.616492 77.248251 
L 101.840059 74.965233 
L 102.063626 74.565705 
L 102.510759 68.60132 
L 102.734326 72.62514 
L 103.181459 75.607332 
L 103.405026 67.131628 
L 103.628592 68.587052 
M 104.299292 66.560873 
L 104.522859 63.607219 
M 104.969992 61.395545 
L 105.193559 65.362289 
L 105.417125 65.062643 
L 105.640692 64.977029 
L 105.864259 60.839059 
M 106.311392 63.521605 
L 106.534959 64.748728 
L 107.205659 53.033992 
M 107.652792 52.734345 
L 107.876359 57.785523 
L 108.099925 57.186231 
L 108.323492 53.347907 
M 109.888458 47.126683 
L 110.112025 47.811588 
L 110.335592 49.181399 
L 110.559158 52.448968 
L 110.782725 41.447675 
L 111.006292 40.834114 
L 111.453425 49.680809 
L 111.676992 56.073259 
L 111.900558 55.217128 
L 112.124125 57.871136 
L 112.347692 53.033992 
L 112.571258 53.604746 
L 112.794825 54.988826 
L 113.018392 59.95439 
L 113.241958 61.852148 
L 113.465525 58.812881 
L 113.689091 61.466889 
L 113.912658 56.858047 
L 114.359791 60.625026 
L 114.583358 58.841419 
L 114.806925 61.138705 
L 115.030491 66.717831 
L 115.254058 64.235049 
L 115.477625 67.873608 
L 115.701191 63.050733 
L 116.148325 60.225498 
L 116.371891 61.666653 
L 116.595458 64.006747 
L 116.819025 64.377737 
L 117.042591 65.419364 
L 117.266158 67.10309 
L 117.489725 69.999669 
L 117.713291 67.787995 
L 117.936858 72.111461 
L 118.160424 71.155447 
L 118.383991 71.783277 
L 118.607558 71.483631 
L 118.831124 68.701202 
L 119.054691 68.273137 
M 119.948958 73.62396 
L 120.396091 71.669126 
L 120.619658 76.235162 
M 121.066791 73.75238 
L 121.290358 73.053205 
L 121.513924 64.277855 
L 121.737491 65.419364 
L 121.961058 68.430094 
L 122.184624 64.406275 
L 122.408191 63.578681 
L 122.631757 62.223139 
L 122.855324 57.514414 
L 123.302457 67.431274 
L 123.526024 66.817713 
L 123.749591 67.302854 
L 123.973157 70.770187 
L 124.196724 70.941414 
L 124.420291 76.891529 
L 124.643857 73.310045 
L 124.867424 72.425376 
L 125.090991 72.610871 
L 125.314557 78.746482 
M 129.338757 80.629971 
L 129.78589 74.865351 
L 130.009457 76.905798 
L 130.233024 75.350492 
M 130.680157 77.048487 
L 130.903723 81.058037 
L 131.12729 81.186457 
L 131.574423 93.700249 
L 131.79799 88.92018 
L 132.245123 86.380323 
L 132.46869 92.430321 
L 132.692257 90.489755 
L 132.915823 82.385041 
L 133.362957 98.237748 
M 133.81009 96.768055 
L 134.033657 99.393525 
L 134.257223 98.83704 
L 134.48079 95.897654 
L 134.704357 94.898834 
L 134.927923 100.920294 
L 135.15149 100.806143 
L 135.375056 100.278195 
L 135.598623 97.595649 
L 135.82219 96.910743 
M 136.269323 106.385268 
L 136.716456 119.740923 
L 136.940023 112.649299 
L 137.16359 117.286679 
L 137.387156 107.2414 
L 137.610723 108.711092 
L 137.83429 107.227131 
L 138.057856 102.775246 
L 138.281423 101.533855 
L 138.50499 107.74081 
L 138.728556 107.840692 
L 138.952123 107.455433 
L 139.17569 96.768055 
L 139.399256 97.467229 
L 139.622823 91.716877 
M 141.411356 89.605086 
L 141.634923 92.087868 
L 142.082056 102.546944 
L 142.305623 101.776425 
L 142.752756 93.971358 
L 142.976323 94.156853 
L 143.199889 98.309092 
L 143.423456 98.180672 
L 143.647022 99.764516 
M 144.317722 96.439871 
L 144.541289 91.888104 
L 144.764856 92.05933 
L 144.988422 92.016524 
L 145.211989 98.623007 
L 145.435556 95.583739 
L 145.659122 94.128315 
L 145.882689 95.341168 
L 146.106256 94.413692 
L 146.329822 94.57065 
L 146.776956 98.466049 
L 147.000522 104.573122 
L 147.224089 99.307912 
L 147.447656 98.936922 
L 147.894789 91.987986 
L 148.341922 98.323361 
L 148.565489 91.987986 
L 148.789055 91.117585 
L 149.012622 92.016524 
L 149.236189 112.292577 
L 149.459755 113.476893 
L 149.683322 118.713565 
M 151.024722 124.29269 
L 151.248289 119.997763 
L 151.471855 112.948945 
L 151.695422 112.977482 
L 151.918989 112.349652 
L 152.366122 114.432906 
L 152.589688 109.738451 
L 152.813255 110.75154 
L 153.036822 106.970291 
M 154.378222 109.467342 
L 154.601788 105.058264 
L 154.825355 108.026187 
L 155.048922 105.329372 
L 155.272488 110.152248 
L 155.496055 110.908497 
L 155.719622 109.652837 
L 156.166755 116.501891 
L 156.390322 116.715924 
L 156.613888 109.310385 
L 156.837455 113.748001 
L 157.284588 102.589751 
L 157.508155 102.789515 
L 157.731721 102.418524 
L 157.955288 103.003548 
L 158.178855 109.139158 
L 158.402421 107.912036 
L 158.625988 104.316283 
L 158.849555 109.938215 
L 159.296688 97.32454 
M 159.743821 91.06051 
L 159.967388 93.001075 
L 160.190955 87.693058 
L 160.414521 94.370886 
L 160.638088 95.469588 
L 161.308788 104.216401 
L 161.532354 104.187863 
L 161.979488 111.522058 
L 162.203054 110.922766 
L 162.426621 114.903779 
M 164.885854 118.585145 
L 165.109421 112.135619 
L 165.332987 114.76109 
L 165.556554 114.518519 
L 165.780121 117.029839 
L 166.227254 111.736091 
L 166.450821 115.132081 
L 166.674387 112.292577 
L 166.897954 117.115452 
L 167.121521 119.384202 
L 167.345087 115.032199 
L 167.792221 125.776652 
L 168.015787 120.739743 
L 168.239354 121.224885 
L 168.462921 117.14399 
L 168.686487 118.385381 
L 168.910054 113.305666 
L 169.357187 118.984673 
L 169.580754 119.855074 
L 170.027887 125.41993 
L 170.251454 118.699296 
L 170.47502 122.366394 
L 170.698587 113.00602 
L 171.14572 121.239154 
L 171.369287 118.799178 
L 171.592854 119.298588 
L 171.81642 120.268871 
L 172.039987 121.866984 
L 172.263554 121.15354 
L 172.48712 125.976416 
L 172.710687 109.424536 
L 172.934254 111.422176 
L 173.15782 110.680195 
L 173.381387 110.665927 
L 173.604953 119.184437 
L 173.82852 114.575595 
L 174.052087 115.303307 
L 174.275653 118.171348 
L 174.49922 116.901419 
L 174.946353 120.354484 
L 175.16992 119.78373 
L 175.393487 123.151181 
L 175.617053 123.493634 
L 175.84062 118.870522 
L 176.064187 125.291511 
L 176.287753 122.4092 
M 177.405587 133.567451 
L 177.629153 131.384315 
L 177.85272 134.766035 
L 178.076286 140.387967 
L 178.299853 140.873108 
L 178.52342 144.140678 
L 178.746986 144.968272 
L 179.19412 136.093039 
M 179.641253 150.404708 
L 179.86482 156.740083 
L 180.088386 158.081356 
L 180.311953 157.78171 
M 180.982653 153.572396 
L 181.20622 163.731826 
L 181.429786 158.680648 
L 181.653353 146.323814 
L 181.87692 154.357183 
L 182.100486 147.650818 
L 182.324053 145.86721 
L 182.547619 154.927938 
L 182.771186 153.715084 
L 182.994753 178.814013 
L 183.218319 170.909064 
L 183.441886 177.016137 
L 183.889019 159.237134 
L 184.112586 164.958948 
L 184.336153 154.514141 
L 184.783286 174.989958 
L 185.006853 201.801151 
L 185.230419 185.976982 
L 185.453986 178.243259 
L 185.677553 183.62262 
L 185.901119 170.19562 
L 186.124686 178.585711 
L 186.348253 144.597281 
L 186.571819 167.07074 
L 187.018952 134.937262 
L 187.242519 151.303647 
L 187.466086 132.425942 
L 187.689652 128.716038 
L 187.913219 118.256961 
L 188.136786 130.471108 
L 188.360352 121.053658 
L 188.583919 136.135846 
L 188.807486 138.632897 
L 189.031052 128.359316 
L 189.254619 126.661321 
L 189.478186 111.835973 
M 189.925319 93.771594 
L 190.148886 91.117585 
M 190.596019 95.426782 
L 190.819585 99.550483 
L 191.043152 99.493407 
L 191.266719 104.487509 
L 191.490285 101.562392 
M 192.160985 106.099891 
L 192.384552 105.029726 
L 192.831685 111.579134 
L 193.055252 98.394705 
L 193.502385 106.042815 
L 193.725952 107.698003 
L 193.949519 102.97501 
L 194.396652 98.83704 
L 194.620219 99.70744 
L 195.738052 116.773 
L 195.961618 118.998942 
M 199.538685 130.770754 
L 199.762251 129.743396 
L 199.985818 131.31297 
L 200.209385 134.880186 
M 202.221485 132.211909 
L 202.445051 132.411673 
L 203.115751 139.403415 
L 203.339318 138.804123 
L 203.786451 134.694691 
L 204.010018 139.132307 
L 204.233584 138.97535 
L 204.457151 139.003887 
L 204.680718 139.489029 
L 204.904284 139.018156 
L 205.127851 139.303533 
M 206.022118 143.826763 
L 206.469251 137.320162 
L 206.692818 140.273816 
L 206.916384 139.71733 
L 207.139951 142.028886 
L 207.363518 138.875468 
L 207.810651 144.126409 
L 208.034217 151.032538 
L 208.257784 151.688906 
L 208.481351 143.74115 
L 208.704917 144.768508 
L 208.928484 141.586551 
L 209.152051 141.686433 
L 209.375617 140.430774 
L 209.599184 142.414145 
L 209.822751 142.842211 
L 210.046317 145.952823 
L 210.269884 145.952823 
L 210.493451 149.462963 
L 210.717017 145.924286 
L 210.940584 144.383248 
L 211.387717 153.158599 
L 211.611284 146.794686 
L 211.834851 150.047987 
L 212.281984 144.854121 
L 212.50555 145.382069 
L 212.729117 146.523578 
L 212.952684 145.910017 
L 213.17625 147.12287 
L 213.399817 144.411786 
L 213.623384 145.3678 
L 213.84695 143.712612 
L 214.070517 144.197753 
L 214.294084 142.542565 
M 214.741217 145.810135 
L 214.964784 143.8553 
L 215.18835 136.435492 
M 215.85905 136.121577 
L 216.082617 139.788675 
L 216.306184 137.477119 
L 216.52975 136.977709 
L 216.753317 140.544924 
L 216.976883 140.958721 
L 217.20045 142.085962 
L 217.424017 145.453413 
L 217.647583 138.518746 
L 217.87115 137.305893 
L 218.094717 139.731599 
L 218.318283 139.018156 
L 218.765417 143.969451 
L 218.988983 147.907657 
L 219.21255 140.630538 
L 219.436117 143.869569 
L 219.659683 140.002708 
L 219.88325 138.789854 
L 220.330383 149.37735 
L 220.55395 154.542678 
L 220.777517 142.328532 
L 221.001083 139.831481 
L 221.22465 141.500938 
L 221.448216 136.46403 
L 221.671783 134.066861 
L 221.89535 133.381956 
L 222.118916 136.378417 
L 222.342483 133.895635 
L 222.56605 137.362968 
L 222.789616 137.833841 
L 223.013183 139.731599 
L 223.23675 137.890916 
L 223.460316 139.860019 
L 223.683883 139.631717 
L 223.90745 137.833841 
L 224.131016 138.176293 
L 224.354583 137.59127 
L 224.801716 141.886197 
M 228.825916 150.647279 
L 229.049483 152.473693 
L 229.273049 151.745981 
L 229.496616 152.844684 
L 229.720182 157.310838 
L 229.943749 159.493974 
M 230.838016 163.246684 
L 231.061582 163.289491 
L 231.285149 161.891143 
L 231.732282 165.030292 
L 231.955849 161.134893 
L 232.402982 162.233595 
L 232.850116 160.235954 
L 233.297249 166.885244 
L 233.520816 170.994677 
L 233.744382 166.171801 
L 233.967949 167.455999 
L 234.191515 166.100457 
L 234.415082 166.885244 
L 234.638649 163.93159 
L 234.862215 164.274043 
L 235.085782 165.586778 
L 235.532915 160.863784 
L 235.756482 161.263313 
L 235.980049 163.004114 
L 236.203615 165.729466 
L 236.427182 165.05883 
L 236.650749 164.816259 
L 236.874315 166.614136 
L 237.097882 166.956589 
L 237.321449 166.55706 
L 237.545015 166.856707 
L 237.768582 166.55706 
L 237.992148 167.698569 
L 238.215715 170.238427 
L 238.439282 169.239607 
M 241.569215 173.177813 
L 241.792782 176.102929 
L 242.016348 174.904345 
L 242.463481 173.662954 
L 243.357748 180.497739 
L 243.581315 185.235001 
L 243.804881 185.976982 
M 244.252015 184.37887 
L 244.475581 184.364601 
M 246.711248 188.716604 
L 246.934814 191.213655 
M 248.499781 192.112593 
L 248.723348 193.582286 
M 250.064748 197.620374 
L 250.511881 199.989005 
L 250.735448 198.505043 
L 250.959014 197.862945 
L 251.182581 199.603746 
L 251.629714 199.518133 
L 251.853281 199.860585 
L 252.300414 197.620374 
L 252.523981 197.991364 
L 252.747547 200.288651 
L 252.971114 201.344547 
M 253.641814 205.82497 
L 254.088947 208.650204 
L 254.312514 207.123436 
L 254.536081 209.663294 
M 254.983214 218.181805 
L 255.430347 208.193601 
L 255.653914 206.19596 
L 255.87748 207.993837 
L 256.324614 199.232755 
L 256.54818 198.861765 
L 256.771747 200.274382 
L 256.995314 198.747614 
L 257.21888 199.846316 
L 257.442447 194.224385 
L 257.666014 197.66318 
M 258.336714 197.006813 
L 258.56028 193.753512 
L 258.783847 201.55858 
L 259.007414 201.515773 
L 259.23098 205.896314 
L 259.454547 203.68464 
L 259.678113 205.182871 
L 259.90168 203.199499 
L 260.125247 195.465776 
L 260.348813 193.097144 
L 260.57238 196.450327 
L 260.795947 196.122143 
L 261.019513 196.122143 
L 261.24308 190.114952 
L 261.466647 188.26 
L 261.690213 188.902099 
L 261.91378 194.595375 
L 262.137347 196.007992 
L 262.360913 196.03653 
L 262.58448 194.5383 
L 262.808047 198.790421 
L 263.031613 206.053272 
L 263.25518 203.81306 
L 263.702313 194.980634 
L 263.92588 203.912942 
L 264.149446 196.978275 
L 264.373013 194.809408 
L 264.820146 196.735704 
L 265.043713 192.226744 
L 265.26728 193.239833 
L 265.490846 199.67509 
L 265.714413 195.637002 
L 265.93798 204.669192 
L 266.161546 202.115065 
L 266.385113 192.426508 
L 266.60868 193.0258 
L 266.832246 188.074505 
L 267.055813 186.076864 
L 267.27938 182.352691 
L 267.502946 181.924625 
L 267.726513 180.326513 
L 267.95008 181.325333 
L 268.173646 181.425215 
L 268.397213 182.49538 
M 269.515046 185.135119 
L 269.738613 184.835473 
L 269.962179 186.904458 
L 270.185746 184.535827 
L 270.409313 184.835473 
L 270.632879 186.347973 
M 271.974279 184.592903 
L 272.197846 185.891369 
L 272.421412 186.105402 
L 272.644979 185.691605 
L 272.868546 188.302807 
L 273.092112 188.017429 
L 273.315679 189.729693 
L 273.539246 192.726154 
L 273.986379 195.66554 
L 274.209946 194.381342 
L 274.433512 193.824856 
L 274.880646 195.836766 
M 276.669179 195.979455 
L 277.116312 198.219666 
M 277.787012 194.709526 
L 278.010579 192.1554 
L 278.234145 191.955635 
L 278.457712 195.679809 
L 278.681279 195.679809 
L 278.904845 194.309998 
L 279.128412 195.53712 
L 279.351979 194.438418 
L 279.799112 197.92002 
L 280.246245 195.865304 
L 280.916945 202.115065 
M 283.152612 202.386174 
L 283.376178 203.527683 
L 283.599745 202.143603 
L 283.823312 202.700089 
L 284.046878 201.144783 
L 284.270445 202.714358 
L 284.494012 202.857046 
L 284.717578 203.713178 
L 284.941145 203.05681 
L 285.164712 204.412352 
L 285.388278 203.228037 
L 285.611845 204.512234 
L 285.835411 201.030632 
L 286.058978 204.911763 
L 286.282545 205.610937 
L 286.506111 208.778624 
L 286.953245 209.07827 
M 287.400378 208.165063 
L 287.623945 207.294663 
L 287.847511 207.308931 
L 288.071078 208.978388 
L 288.294645 209.049733 
L 288.518211 210.09136 
L 288.741778 210.09136 
M 289.188911 208.421903 
L 289.412478 208.264945 
L 289.636044 207.394545 
L 289.859611 208.564591 
L 290.083178 208.792893 
L 290.530311 211.047373 
M 291.424578 213.544424 
L 291.871711 215.684754 
L 292.095278 214.157985 
M 292.989544 218.267418 
L 293.213111 218.60987 
L 293.436678 217.86789 
L 293.660244 218.838172 
L 294.107377 223.190175 
L 294.330944 222.733572 
M 294.778077 223.232982 
L 295.001644 225.986872 
M 295.448777 222.562345 
L 295.672344 224.531448 
L 296.119477 226.557627 
L 296.343044 224.802557 
L 296.566611 228.555267 
L 296.790177 227.970244 
L 297.013744 223.347133 
L 297.237311 228.540999 
L 297.908011 217.254328 
L 298.131577 219.680035 
L 298.355144 217.796545 
L 298.802277 220.578973 
L 299.025844 219.694304 
L 299.24941 218.210342 
L 299.472977 217.825083 
L 299.696544 221.092652 
L 299.92011 221.6206 
L 300.143677 222.74784 
L 300.367244 221.577794 
L 300.59081 223.161637 
L 300.814377 223.689585 
L 301.037944 220.065294 
L 301.26151 219.451733 
L 301.485077 217.710932 
L 301.708644 220.079563 
L 301.93221 223.718123 
L 302.155777 223.646779 
L 302.379343 221.392299 
L 302.60291 221.6206 
L 302.826477 221.007039 
L 303.050043 223.076024 
L 303.27361 226.614702 
L 303.497177 226.443476 
L 303.94431 233.021421 
L 304.167877 224.75975 
L 304.391443 224.303146 
L 304.61501 229.582626 
L 305.062143 216.098551 
L 305.28571 218.224611 
L 305.509277 219.194894 
L 305.95641 215.242419 
L 306.403543 217.768008 
L 306.62711 217.625319 
L 306.850676 218.081922 
L 307.074243 220.407747 
L 307.29781 219.822724 
L 307.96851 224.13192 
M 312.439843 233.806209 
L 312.663409 233.592176 
L 312.886976 235.147482 
L 313.110543 234.819298 
L 313.334109 236.531562 
M 314.228376 237.487575 
L 314.451943 234.833567 
L 314.675509 238.728966 
L 314.899076 233.734864 
L 315.122643 235.133213 
L 315.346209 235.718236 
L 315.569776 237.359156 
L 315.793342 236.460217 
L 316.016909 238.600547 
L 316.240476 238.786042 
L 316.464042 237.073778 
L 316.687609 238.172481 
L 316.911176 235.703967 
L 317.134742 236.531562 
L 317.581876 235.475666 
L 317.805442 235.004793 
L 318.029009 235.54701 
L 318.252576 235.789581 
L 318.699709 237.130854 
L 318.923276 237.002434 
L 319.146842 238.55774 
L 319.370409 238.472127 
L 319.593975 238.942999 
L 319.817542 238.814579 
M 322.276775 240.755145 
L 322.500342 242.367526 
L 322.723909 242.795592 
M 323.618175 244.821771 
L 324.065308 245.321181 
M 325.183142 244.864577 
L 325.630275 245.70644 
L 325.853842 245.07861 
L 326.077408 245.906204 
L 326.300975 245.235568 
L 326.524542 244.122596 
L 326.748108 244.479318 
L 326.971675 243.937101 
L 327.195242 244.022714 
L 327.418808 246.476959 
L 327.642375 246.291463 
L 327.865942 248.260566 
L 328.089508 248.503137 
L 328.313075 247.233208 
L 328.536641 247.775425 
L 328.760208 247.475779 
L 329.207341 247.404435 
L 329.430908 248.017996 
M 330.548741 249.21658 
L 330.772308 249.71599 
L 330.995875 248.060802 
L 331.443008 250.129787 
M 332.113708 251.413985 
L 332.560841 250.672004 
L 333.007974 251.956202 
L 333.231541 250.97165 
L 333.455108 251.556674 
L 333.678674 253.425895 
L 333.902241 254.010918 
L 334.125808 253.411626 
L 334.349374 251.585211 
L 334.572941 252.812333 
L 334.796508 252.270117 
L 335.020074 253.368819 
L 335.243641 255.49488 
L 335.467208 255.295116 
M 338.597141 258.177426 
L 338.820707 260.075184 
L 339.267841 259.104902 
L 339.491407 261.430726 
L 339.714974 260.588863 
L 339.938541 260.817165 
L 340.162107 260.232142 
L 340.385674 261.116811 
L 340.609241 261.116811 
L 340.832807 259.475892 
L 341.056374 259.818345 
L 341.27994 262.072825 
L 341.727074 258.37719 
L 341.95064 258.37719 
L 342.174207 258.805256 
L 342.397774 257.720822 
L 342.62134 258.291577 
L 342.844907 259.361741 
L 343.068474 259.604312 
L 343.29204 260.332024 
L 343.515607 260.403368 
L 343.739174 259.87542 
L 343.96274 260.203604 
L 344.409874 262.343934 
L 344.63344 263.528249 
M 347.092673 263.328485 
L 347.31624 263.585325 
L 347.539807 263.442636 
L 347.763373 265.26905 
L 347.98694 265.326126 
L 348.434073 264.469994 
L 348.65764 264.056197 
L 348.881207 264.427187 
L 349.104773 265.426008 
L 349.32834 265.426008 
L 349.551907 267.423649 
L 349.775473 267.452186 
M 352.68184 268.236974 
L 352.905406 268.322587 
L 353.128973 268.565158 
L 353.35254 268.222705 
L 354.023239 269.835086 
L 354.470373 266.724474 
L 355.141073 267.709026 
L 355.364639 266.909969 
L 355.588206 267.452186 
L 355.811773 268.336856 
L 356.035339 268.550889 
L 356.258906 268.4082 
L 356.706039 268.793459 
L 356.929606 269.16445 
L 357.153173 268.508082 
L 357.376739 270.006313 
M 357.823873 269.307138 
L 358.271006 270.206077 
M 362.518772 275.770933 
L 362.742339 276.726947 
L 362.965905 278.267984 
L 363.189472 278.710319 
L 363.413039 278.867276 
M 364.307305 279.380955 
L 364.530872 278.767394 
L 364.754439 279.466568 
L 365.201572 278.182371 
L 365.425139 279.780483 
M 368.331505 282.049232 
L 368.555072 282.57718 
L 368.778638 282.477298 
L 369.002205 283.476119 
L 369.225772 282.562911 
L 369.449338 282.363147 
L 369.672905 282.320341 
L 369.896472 285.459491 
L 370.120038 285.174113 
L 370.343605 287.442862 
L 370.567172 287.856659 
L 371.014305 282.548643 
L 371.237871 282.648525 
L 371.461438 281.150294 
L 371.685005 281.94935 
L 371.908571 281.435671 
L 372.132138 278.924352 
L 372.355705 280.165743 
L 372.579271 279.809021 
L 372.802838 281.221638 
L 373.026405 283.376237 
L 373.249971 283.647345 
M 374.144238 277.226357 
L 374.367805 277.754305 
L 374.591371 280.82211 
L 374.814938 280.408313 
L 375.038505 280.508195 
L 375.485638 277.754305 
L 376.156338 278.838738 
L 376.379904 278.43921 
L 376.603471 276.81256 
L 376.827038 277.982607 
L 377.050604 277.768574 
L 377.274171 277.326239 
L 377.497738 279.081309 
L 377.944871 277.839918 
L 378.168438 278.667512 
L 378.392004 278.125295 
L 378.615571 278.424941 
L 378.839138 276.883904 
L 379.062704 277.226357 
L 379.286271 276.541452 
L 379.509838 276.55572 
L 379.733404 277.44039 
L 379.956971 277.254895 
L 380.180537 277.483196 
L 380.404104 278.596168 
L 380.627671 277.097937 
L 380.851237 278.253715 
L 381.074804 278.753125 
L 381.521937 276.541452 
L 381.745504 276.741216 
L 381.969071 277.797111 
L 382.192637 277.754305 
L 382.416204 278.382135 
L 382.639771 278.467748 
L 382.863337 279.209729 
L 383.086904 278.638974 
L 383.310471 277.097937 
L 383.534037 279.438031 
L 383.757604 277.097937 
L 383.98117 276.712678 
L 384.65187 279.480837 
L 384.875437 280.051592 
L 385.099004 279.666332 
L 385.769704 280.879186 
L 385.99327 280.921992 
L 386.440404 279.82329 
L 386.66397 280.665153 
M 387.33467 280.180011 
L 387.558237 280.037323 
L 387.781804 281.307252 
L 388.00537 281.164563 
L 388.228937 281.792393 
L 388.452503 281.250176 
L 388.67607 281.407134 
L 388.899637 281.136025 
L 389.34677 283.176473 
M 390.241037 282.491567 
L 390.464603 283.433312 
M 390.911737 282.848289 
L 391.135303 281.464209 
L 391.35887 283.062322 
L 391.582437 282.248997 
L 392.02957 283.747227 
L 392.253137 283.761496 
L 392.476703 283.989798 
L 392.70027 284.96008 
L 392.923836 284.931543 
L 393.147403 286.301353 
M 394.71237 285.987438 
L 394.935936 288.241919 
M 395.38307 288.398876 
L 395.606636 283.861378 
L 395.830203 286.287085 
L 396.05377 285.145576 
L 396.277336 285.131307 
L 396.500903 285.630717 
L 396.72447 283.690152 
L 396.948036 283.946991 
L 397.171603 283.376237 
L 397.395169 283.618807 
L 397.842303 279.537913 
M 399.183703 282.448761 
L 399.407269 282.848289 
L 399.630836 281.820931 
L 399.854403 282.762676 
L 400.077969 282.677062 
L 400.301536 282.220459 
L 400.525103 285.316802 
L 400.748669 284.660434 
M 401.642936 284.474939 
L 401.866502 285.859019 
L 402.090069 284.346519 
L 402.313636 285.188382 
L 402.537202 282.477298 
L 402.984336 284.58909 
L 403.431469 285.516566 
L 403.655036 285.34534 
L 403.878602 283.533194 
L 404.102169 285.273995 
L 404.325736 284.646165 
L 404.549302 283.105128 
L 404.772869 283.433312 
L 404.996436 283.989798 
L 405.220002 282.605718 
L 405.443569 280.208549 
L 405.667135 279.69487 
L 405.890702 280.265625 
L 406.114269 279.266804 
L 406.337835 281.221638 
L 406.561402 280.864917 
L 406.784969 281.749586 
L 407.232102 284.446401 
L 407.455669 284.146755 
L 407.679235 284.788854 
L 407.902802 283.889916 
L 408.126369 285.659255 
L 408.349935 284.432132 
L 408.573502 284.774585 
M 412.597702 292.836492 
L 412.821268 290.039795 
L 413.044835 290.025527 
L 413.491968 288.9839 
L 413.715535 292.194394 
L 413.939102 291.709252 
L 414.162668 290.938734 
L 414.386235 292.964912 
L 414.609801 292.536846 
L 414.833368 291.23838 
L 415.056935 293.421516 
L 415.280501 293.835313 
L 415.504068 292.708073 
L 415.951201 295.005359 
M 416.845468 298.786608 
L 417.292601 290.35371 
L 417.516168 289.35489 
L 417.739735 290.753238 
L 417.963301 289.35489 
L 418.186868 289.197932 
L 418.410434 296.560665 
L 418.857568 292.922106 
L 419.081134 293.12187 
L 419.304701 291.752059 
L 419.751834 294.634369 
L 420.198968 292.99345 
L 420.422534 290.182484 
L 420.646101 291.181304 
L 420.869668 288.812673 
L 421.316801 291.495219 
L 421.540368 290.196753 
L 421.987501 286.658075 
L 422.211068 287.4714 
L 422.434634 284.831661 
M 423.552467 283.390506 
L 423.776034 285.074231 
L 423.999601 285.373877 
L 424.223167 286.586731 
M 424.893867 283.304892 
L 425.117434 285.801943 
L 425.341001 286.886377 
L 425.564567 284.018335 
L 425.788134 284.360788 
L 426.011701 282.662794 
L 426.235267 281.977888 
L 426.458834 280.765035 
L 426.682401 283.775765 
L 427.129534 281.464209 
L 427.3531 282.748407 
L 427.576667 281.564091 
L 427.800234 281.963619 
L 428.470934 281.064681 
L 428.6945 281.121756 
L 428.918067 280.679422 
L 429.141634 283.005246 
L 429.3652 282.905364 
L 429.588767 284.032604 
L 429.812334 283.747227 
L 430.0359 282.505836 
L 430.259467 282.07777 
L 430.483034 284.132486 
L 430.930167 282.391685 
L 431.153733 283.690152 
L 431.3773 284.33225 
M 431.824433 284.788854 
L 432.048 283.46185 
L 432.271567 282.948171 
L 432.495133 284.874467 
L 432.7187 283.932722 
L 433.165833 286.444042 
L 433.3894 287.813853 
L 433.836533 285.630717 
L 434.507233 289.611729 
L 434.7308 288.470221 
L 434.954367 288.484489 
M 437.4136 294.6201 
L 437.637166 295.262199 
L 437.860733 294.24911 
L 438.0843 295.24793 
L 438.307866 294.49168 
L 438.531433 295.904298 
L 438.755 294.234841 
L 438.978566 294.192034 
L 439.4257 295.590383 
L 439.649266 294.520218 
L 440.096399 296.175406 
L 440.319966 294.848402 
L 440.543533 296.803236 
L 440.767099 295.033897 
L 441.214233 297.088613 
L 441.437799 293.7497 
L 441.661366 292.094512 
L 441.884933 292.180125 
L 442.108499 294.6201 
L 442.332066 299.928117 
L 442.555633 297.944745 
L 443.002766 289.968451 
L 443.226333 289.326352 
L 443.449899 289.22647 
L 443.673466 289.312083 
L 444.120599 289.996989 
L 444.344166 290.553474 
L 444.567732 290.810314 
L 444.791299 289.35489 
L 445.014866 289.597461 
L 445.238432 290.496399 
M 446.132699 287.985079 
L 446.356266 286.501117 
L 446.579832 287.029065 
L 447.026966 290.096871 
L 447.250532 288.755598 
L 447.474099 293.107601 
L 447.697666 292.793686 
L 447.921232 292.722341 
L 448.144799 291.752059 
L 448.368365 294.348992 
L 448.591932 294.791327 
M 451.498299 297.388259 
L 451.721865 297.573755 
L 451.945432 297.231302 
L 452.168999 296.432246 
L 452.616132 297.473873 
L 452.839698 296.318095 
L 453.063265 297.388259 
L 453.286832 297.017269 
L 453.510398 297.645099 
L 453.733965 296.560665 
L 453.957532 296.118331 
L 454.181098 296.1326 
L 454.404665 298.529768 
L 454.628232 298.915028 
L 454.851798 297.930476 
L 455.075365 298.158778 
L 455.298932 297.102882 
L 455.746065 296.87458 
L 455.969632 297.488142 
L 456.193198 296.232482 
L 456.416765 296.332364 
L 456.640332 297.687906 
L 456.863898 296.146868 
L 457.087465 296.50359 
L 457.534598 295.37635 
L 457.758165 295.604652 
L 457.981731 296.218213 
L 458.205298 295.604652 
L 458.428865 297.530948 
L 458.652431 297.473873 
L 459.099565 296.360901 
L 459.323131 300.484603 
L 459.546698 301.783069 
L 459.770265 301.369272 
M 460.664531 299.400169 
L 460.888098 300.213494 
L 461.782364 298.444155 
L 462.005931 302.239673 
M 462.453064 303.423988 
L 462.676631 301.811607 
L 462.900198 301.7688 
L 463.123764 301.982833 
L 463.347331 301.868682 
L 463.570898 300.827055 
L 464.018031 300.598754 
L 464.465164 302.453706 
L 464.688731 302.325286 
L 464.912298 302.482243 
L 465.359431 301.797338 
L 465.582997 301.968564 
L 465.806564 301.89722 
L 466.030131 301.697456 
L 466.253697 299.742622 
L 466.477264 299.771159 
L 466.700831 299.300287 
L 466.924397 300.156419 
L 467.147964 300.003029 
L 467.371531 301.133836 
L 467.595097 299.521454 
L 467.818664 300.944773 
L 468.042231 299.32169 
L 468.265797 301.044655 
L 468.489364 300.884131 
L 468.712931 298.665323 
L 468.936497 299.407304 
L 469.160064 297.698607 
L 469.383631 297.834161 
L 469.607197 297.281243 
L 469.830764 296.214646 
L 470.05433 298.704562 
L 470.277897 297.834161 
L 470.72503 298.290765 
L 470.948597 298.098135 
L 471.172164 298.101703 
L 471.39573 299.492917 
L 471.619297 299.485782 
L 471.842864 298.86152 
L 472.06643 299.303854 
L 472.289997 298.847251 
L 472.513564 300.602321 
L 472.73713 301.116 
M 473.184264 300.092209 
L 473.40783 298.529768 
L 473.854964 302.813994 
M 475.196363 303.976907 
L 475.41993 303.349077 
L 475.867063 303.709366 
L 476.09063 303.866323 
L 476.314197 304.540527 
M 476.76133 304.322927 
L 476.984897 302.46084 
L 477.208463 302.731948 
L 477.43203 302.55002 
M 478.10273 303.630887 
L 478.326297 303.035162 
L 478.549863 300.948341 
L 478.77343 301.954295 
L 478.996996 301.116 
L 479.44413 300.377586 
M 479.891263 300.862727 
L 480.11483 301.237285 
L 480.338396 302.143358 
L 480.561963 301.255121 
L 481.009096 305.089878 
L 481.232663 303.916264 
L 481.45623 303.887726 
L 481.679796 301.626112 
L 481.903363 302.125522 
L 482.12693 301.262256 
L 482.350496 301.633246 
L 482.574063 301.544066 
L 482.797629 302.33242 
L 483.021196 302.168328 
L 483.468329 303.399018 
L 483.691896 303.384749 
L 483.915463 303.7165 
L 484.139029 303.7165 
L 484.362596 304.658245 
L 484.586163 304.800933 
M 486.821829 305.439465 
L 487.045396 306.274194 
L 487.268962 306.473958 
M 491.516729 321.392053 
L 491.740295 319.733298 
L 491.963862 321.270768 
L 492.187429 319.936629 
L 492.410995 319.865285 
L 492.634562 320.675043 
L 492.858129 320.571594 
L 493.081695 319.373009 
L 493.305262 320.24341 
L 493.528829 319.883121 
L 493.752395 320.321889 
L 493.975962 319.002019 
L 494.199529 319.697626 
L 494.423095 319.191081 
L 494.646662 318.345651 
L 494.870229 318.277874 
L 495.093795 318.602491 
L 495.317362 317.971093 
L 495.540928 318.919973 
L 495.764495 319.134006 
L 495.988062 318.809389 
L 496.211628 318.120916 
L 496.435195 319.048393 
L 496.658762 318.516877 
L 496.882328 319.073363 
L 497.105895 319.055527 
L 497.329462 318.827225 
L 497.553028 318.887868 
L 497.776595 319.676222 
L 498.223728 318.031736 
L 499.117995 318.524012 
L 499.341562 318.363487 
L 499.788695 319.034124 
L 500.012261 320.507384 
L 500.235828 319.676222 
L 500.682961 320.468144 
L 500.906528 320.368262 
L 501.130095 320.411069 
M 501.577228 320.329023 
L 501.800795 320.382531 
L 502.024361 319.804642 
L 502.247928 319.929495 
L 502.471495 320.214872 
L 502.695061 319.126871 
L 502.918628 319.326635 
L 503.365761 318.873599 
M 505.154294 316.372981 
L 505.377861 316.640522 
L 505.601428 318.07811 
L 505.824994 318.598923 
L 506.048561 318.377756 
L 506.272128 318.698805 
L 506.495694 318.170858 
L 506.719261 318.252903 
L 506.942828 318.848628 
L 507.166394 319.059094 
L 507.389961 320.321889 
M 508.954927 320.46101 
L 509.178494 320.129259 
L 509.402061 320.286216 
M 509.849194 320.11499 
L 510.072761 319.943764 
L 510.296327 319.619147 
L 510.519894 319.059094 
L 510.743461 319.654819 
L 510.967027 319.504996 
L 511.414161 320.065049 
L 511.637727 320.104288 
L 512.084861 318.852196 
L 512.308427 318.909271 
L 512.531994 319.219619 
L 512.75556 318.969914 
L 513.202694 320.799895 
L 513.42626 320.539489 
L 513.649827 321.317142 
L 513.873394 320.446741 
L 514.09696 320.642938 
L 514.320527 321.484801 
L 514.76766 319.840314 
L 514.991227 319.968734 
L 515.214794 320.286216 
L 515.43836 320.254111 
L 515.661927 321.038899 
L 515.885494 322.230349 
L 516.10906 321.598952 
L 516.332627 322.565667 
L 516.556194 321.969942 
L 516.77976 323.211333 
L 517.003327 323.18993 
L 517.226893 323.635832 
L 517.45046 324.524068 
L 517.674027 320.789194 
L 517.897593 320.996092 
L 518.12116 320.585862 
L 518.568293 321.30644 
L 518.79186 320.803463 
L 519.238993 323.782088 
L 519.46256 325.344528 
L 519.909693 321.452696 
L 520.13326 323.218468 
L 520.356827 322.925956 
L 520.580393 321.39562 
L 520.80396 318.787986 
L 521.027527 318.912838 
L 521.251093 318.898569 
L 521.47466 318.484772 
L 521.698226 319.829613 
L 521.921793 318.516877 
L 522.14536 318.548982 
L 522.368926 317.5787 
M 523.933893 316.73327 
L 524.15746 316.729702 
L 524.381026 314.831944 
L 524.604593 314.446684 
M 525.051726 315.024573 
L 525.49886 316.005558 
L 525.722426 315.045977 
L 525.945993 316.494266 
L 526.169559 314.889019 
L 526.393126 314.767734 
L 526.616693 314.828376 
L 526.840259 314.471655 
L 527.063826 314.799839 
L 527.287393 315.809361 
L 527.510959 315.773689 
L 527.734526 315.623866 
L 527.958093 314.846213 
L 528.181659 314.867616 
L 528.405226 315.563223 
L 528.628793 315.520416 
L 529.075926 316.811748 
L 529.299493 316.372981 
M 530.417326 318.638163 
L 530.640892 316.69403 
L 530.864459 318.035303 
L 531.088026 316.665493 
L 531.311592 318.356353 
L 531.982292 312.374132 
L 532.205859 312.752257 
L 532.429426 312.663077 
L 532.652992 316.376548 
L 532.876559 315.666672 
L 533.100126 316.062633 
L 533.323692 317.400339 
L 533.547259 316.60485 
L 533.994392 316.216023 
L 534.217959 316.469296 
L 534.441525 317.068588 
L 534.665092 316.594148 
L 534.888659 316.647656 
L 535.112225 316.051931 
L 535.335792 316.683329 
M 535.782925 316.936601 
L 536.453625 318.445533 
L 536.677192 318.406294 
M 540.030692 322.719057 
L 540.254258 322.886717 
L 540.477825 323.453904 
L 540.701392 323.386127 
L 540.924958 323.568055 
L 541.148525 324.813013 
L 541.372092 325.07342 
L 541.819225 323.428933 
L 542.042792 324.088868 
L 542.266358 324.220855 
L 542.489925 324.759505 
L 542.713492 324.402783 
L 542.937058 324.75237 
M 543.384191 324.491964 
L 543.831325 325.41944 
L 544.054891 324.442023 
L 544.278458 325.330259 
L 544.502025 322.7797 
L 544.725591 322.629877 
L 544.949158 323.043674 
L 545.396291 323.104317 
L 545.619858 324.538337 
L 545.843425 324.149511 
L 546.066991 324.128108 
L 546.290558 323.981852 
L 546.737691 325.70125 
L 546.961258 327.220883 
L 547.184824 326.48247 
L 547.408391 326.924805 
M 548.526224 327.538366 
L 548.749791 328.191166 
L 548.973358 327.060359 
L 549.196924 326.560949 
L 549.420491 327.317198 
L 549.644058 326.621591 
L 549.867624 326.439663 
L 550.091191 327.153106 
L 550.314758 326.518142 
L 550.761891 324.559741 
L 550.985458 326.029433 
L 551.209024 326.407558 
L 551.656157 327.930759 
L 551.879724 328.066314 
L 552.103291 329.471796 
L 552.326857 329.025895 
L 552.550424 329.639456 
M 555.009657 331.597857 
L 555.233224 331.662067 
L 555.456791 331.851129 
M 555.903924 333.06755 
L 556.12749 333.727485 
L 556.351057 333.442107 
L 556.574624 331.865398 
L 557.021757 331.362421 
L 557.245324 331.344585 
L 557.916024 330.245882 
L 558.13959 329.657292 
L 558.363157 329.849921 
L 558.586724 331.572886 
L 558.81029 332.343405 
M 559.928123 328.868937 
L 560.375257 327.274392 
L 560.598823 327.73813 
L 560.82239 327.349303 
L 561.045957 327.838012 
L 561.269523 327.930759 
L 561.716657 327.452752 
L 561.940223 327.723861 
L 562.16379 328.886773 
L 562.387357 328.708412 
L 562.610923 328.387363 
L 562.83449 327.427782 
L 563.058057 328.765488 
L 563.281623 329.407587 
L 563.50519 329.414721 
L 563.728757 330.295823 
L 563.952323 329.757174 
L 564.399456 331.109148 
M 565.293723 330.33863 
L 565.51729 329.846354 
L 565.964423 330.945057 
L 566.18799 330.474184 
L 566.411556 331.580021 
L 566.635123 331.398093 
L 566.85869 330.445646 
L 567.082256 331.298211 
L 567.305823 331.508677 
L 567.52939 332.268494 
L 567.752956 331.205463 
L 567.976523 331.20903 
L 568.20009 331.94031 
L 568.423656 330.909384 
L 568.647223 331.94031 
L 568.870789 331.266106 
L 569.094356 331.116283 
L 569.317923 331.954579 
L 569.765056 330.723889 
L 569.988623 330.702486 
L 570.212189 329.64659 
L 570.435756 331.348152 
L 570.659323 330.648978 
L 571.106456 331.6585 
L 571.553589 331.783352 
L 572.000723 331.351719 
L 572.224289 331.672769 
L 572.447856 331.4409 
L 572.671423 332.917727 
M 575.801356 336.36009 
L 576.024922 335.69302 
L 576.248489 335.917755 
L 576.472056 336.716811 
L 576.695622 336.16746 
L 576.919189 336.570556 
L 577.142755 336.099683 
L 577.366322 336.716811 
L 577.589889 335.575302 
L 577.813455 335.789335 
L 578.037022 334.901099 
L 578.484155 335.750096 
L 579.154855 339.196026 
L 579.378422 338.650242 
L 579.601989 339.838125 
L 579.601989 339.838125 
" clip-path="url(#p0e596cd146)" style="fill: none; stroke: #1e90ff; stroke-linecap: square"/>
   </g>
   <g id="patch_3">
    <path d="M 46.965625 354.958125 
L 46.965625 22.318125 
" style="fill: none; stroke: #000000; stroke-width: 0.8; stroke-linejoin: miter; stroke-linecap: square"/>
   </g>
   <g id="patch_4">
    <path d="M 604.965625 354.958125 
L 604.965625 22.318125 
" style="fill: none; stroke: #000000; stroke-width: 0.8; stroke-linejoin: miter; stroke-linecap: square"/>
   </g>
   <g id="patch_5">
    <path d="M 46.965625 354.958125 
L 604.965625 354.958125 
" style="fill: none; stroke: #000000; stroke-width: 0.8; stroke-linejoin: miter; stroke-linecap: square"/>
   </g>
   <g id="patch_6">
    <path d="M 46.965625 22.318125 
L 604.965625 22.318125 
" style="fill: none; stroke: #000000; stroke-width: 0.8; stroke-linejoin: miter; stroke-linecap: square"/>
   </g>
   <g id="text_13">
    <!-- V, Relative Strength Index (RSI), V -->
    <g transform="translate(223.31125 16.318125)scale(0.12 -0.12)">
     <defs>
      <path id="DejaVuSans-56" d="M 1831 0 
L 50 4666 
L 709 4666 
L 2188 738 
L 3669 4666 
L 4325 4666 
L 2547 0 
L 1831 0 
z
" transform="scale(0.015625)"/>
      <path id="DejaVuSans-2c" d="M 750 794 
L 1409 794 
L 1409 256 
L 897 -744 
L 494 -744 
L 750 256 
L 750 794 
z
" transform="scale(0.015625)"/>
      <path id="DejaVuSans-52" d="M 2841 2188 
Q 3044 2119 3236 1894 
Q 3428 1669 3622 1275 
L 4263 0 
L 3584 0 
L 2988 1197 
Q 2756 1666 2539 1819 
Q 2322 1972 1947 1972 
L 1259 1972 
L 1259 0 
L 628 0 
L 628 4666 
L 2053 4666 
Q 2853 4666 3247 4331 
Q 3641 3997 3641 3322 
Q 3641 2881 3436 2590 
Q 3231 2300 2841 2188 
z
M 1259 4147 
L 1259 2491 
L 2053 2491 
Q 2509 2491 2742 2702 
Q 2975 2913 2975 3322 
Q 2975 3731 2742 3939 
Q 2509 4147 2053 4147 
L 1259 4147 
z
" transform="scale(0.015625)"/>
      <path id="DejaVuSans-6c" d="M 603 4863 
L 1178 4863 
L 1178 0 
L 603 0 
L 603 4863 
z
" transform="scale(0.015625)"/>
      <path id="DejaVuSans-76" d="M 191 3500 
L 800 3500 
L 1894 563 
L 2988 3500 
L 3597 3500 
L 2284 0 
L 1503 0 
L 191 3500 
z
" transform="scale(0.015625)"/>
      <path id="DejaVuSans-6e" d="M 3513 2113 
L 3513 0 
L 2938 0 
L 2938 2094 
Q 2938 2591 2744 2837 
Q 2550 3084 2163 3084 
Q 1697 3084 1428 2787 
Q 1159 2491 1159 1978 
L 1159 0 
L 581 0 
L 581 3500 
L 1159 3500 
L 1159 2956 
Q 1366 3272 1645 3428 
Q 1925 3584 2291 3584 
Q 2894 3584 3203 3211 
Q 3513 2838 3513 2113 
z
" transform="scale(0.015625)"/>
      <path id="DejaVuSans-67" d="M 2906 1791 
Q 2906 2416 2648 2759 
Q 2391 3103 1925 3103 
Q 1463 3103 1205 2759 
Q 947 2416 947 1791 
Q 947 1169 1205 825 
Q 1463 481 1925 481 
Q 2391 481 2648 825 
Q 2906 1169 2906 1791 
z
M 3481 434 
Q 3481 -459 3084 -895 
Q 2688 -1331 1869 -1331 
Q 1566 -1331 1297 -1286 
Q 1028 -1241 775 -1147 
L 775 -588 
Q 1028 -725 1275 -790 
Q 1522 -856 1778 -856 
Q 2344 -856 2625 -561 
Q 2906 -266 2906 331 
L 2906 616 
Q 2728 306 2450 153 
Q 2172 0 1784 0 
Q 1141 0 747 490 
Q 353 981 353 1791 
Q 353 2603 747 3093 
Q 1141 3584 1784 3584 
Q 2172 3584 2450 3431 
Q 2728 3278 2906 2969 
L 2906 3500 
L 3481 3500 
L 3481 434 
z
" transform="scale(0.015625)"/>
      <path id="DejaVuSans-68" d="M 3513 2113 
L 3513 0 
L 2938 0 
L 2938 2094 
Q 2938 2591 2744 2837 
Q 2550 3084 2163 3084 
Q 1697 3084 1428 2787 
Q 1159 2491 1159 1978 
L 1159 0 
L 581 0 
L 581 4863 
L 1159 4863 
L 1159 2956 
Q 1366 3272 1645 3428 
Q 1925 3584 2291 3584 
Q 2894 3584 3203 3211 
Q 3513 2838 3513 2113 
z
" transform="scale(0.015625)"/>
      <path id="DejaVuSans-49" d="M 628 4666 
L 1259 4666 
L 1259 0 
L 628 0 
L 628 4666 
z
" transform="scale(0.015625)"/>
      <path id="DejaVuSans-64" d="M 2906 2969 
L 2906 4863 
L 3481 4863 
L 3481 0 
L 2906 0 
L 2906 525 
Q 2725 213 2448 61 
Q 2172 -91 1784 -91 
Q 1150 -91 751 415 
Q 353 922 353 1747 
Q 353 2572 751 3078 
Q 1150 3584 1784 3584 
Q 2172 3584 2448 3432 
Q 2725 3281 2906 2969 
z
M 947 1747 
Q 947 1113 1208 752 
Q 1469 391 1925 391 
Q 2381 391 2643 752 
Q 2906 1113 2906 1747 
Q 2906 2381 2643 2742 
Q 2381 3103 1925 3103 
Q 1469 3103 1208 2742 
Q 947 2381 947 1747 
z
" transform="scale(0.015625)"/>
      <path id="DejaVuSans-78" d="M 3513 3500 
L 2247 1797 
L 3578 0 
L 2900 0 
L 1881 1375 
L 863 0 
L 184 0 
L 1544 1831 
L 300 3500 
L 978 3500 
L 1906 2253 
L 2834 3500 
L 3513 3500 
z
" transform="scale(0.015625)"/>
     </defs>
     <use xlink:href="#DejaVuSans-56"/>
     <use xlink:href="#DejaVuSans-2c" x="68.408203"/>
     <use xlink:href="#DejaVuSans-20" x="100.195312"/>
     <use xlink:href="#DejaVuSans-52" x="131.982422"/>
     <use xlink:href="#DejaVuSans-65" x="196.964844"/>
     <use xlink:href="#DejaVuSans-6c" x="258.488281"/>
     <use xlink:href="#DejaVuSans-61" x="286.271484"/>
     <use xlink:href="#DejaVuSans-74" x="347.550781"/>
     <use xlink:href="#DejaVuSans-69" x="386.759766"/>
     <use xlink:href="#DejaVuSans-76" x="414.542969"/>
     <use xlink:href="#DejaVuSans-65" x="473.722656"/>
     <use xlink:href="#DejaVuSans-20" x="535.246094"/>
     <use xlink:href="#DejaVuSans-53" x="567.033203"/>
     <use xlink:href="#DejaVuSans-74" x="630.509766"/>
     <use xlink:href="#DejaVuSans-72" x="669.71875"/>
     <use xlink:href="#DejaVuSans-65" x="708.582031"/>
     <use xlink:href="#DejaVuSans-6e" x="770.105469"/>
     <use xlink:href="#DejaVuSans-67" x="833.484375"/>
     <use xlink:href="#DejaVuSans-74" x="896.960938"/>
     <use xlink:href="#DejaVuSans-68" x="936.169922"/>
     <use xlink:href="#DejaVuSans-20" x="999.548828"/>
     <use xlink:href="#DejaVuSans-49" x="1031.335938"/>
     <use xlink:href="#DejaVuSans-6e" x="1060.828125"/>
     <use xlink:href="#DejaVuSans-64" x="1124.207031"/>
     <use xlink:href="#DejaVuSans-65" x="1187.683594"/>
     <use xlink:href="#DejaVuSans-78" x="1247.457031"/>
     <use xlink:href="#DejaVuSans-20" x="1306.636719"/>
     <use xlink:href="#DejaVuSans-28" x="1338.423828"/>
     <use xlink:href="#DejaVuSans-52" x="1377.4375"/>
     <use xlink:href="#DejaVuSans-53" x="1446.919922"/>
     <use xlink:href="#DejaVuSans-49" x="1510.396484"/>
     <use xlink:href="#DejaVuSans-29" x="1539.888672"/>
     <use xlink:href="#DejaVuSans-2c" x="1578.902344"/>
     <use xlink:href="#DejaVuSans-20" x="1610.689453"/>
     <use xlink:href="#DejaVuSans-56" x="1642.476562"/>
    </g>
   </g>
   <g id="legend_1">
    <g id="patch_7">
     <path d="M 448.05625 74.3525 
L 597.965625 74.3525 
Q 599.965625 74.3525 599.965625 72.3525 
L 599.965625 29.318125 
Q 599.965625 27.318125 597.965625 27.318125 
L 448.05625 27.318125 
Q 446.05625 27.318125 446.05625 29.318125 
L 446.05625 72.3525 
Q 446.05625 74.3525 448.05625 74.3525 
z
" style="fill: #ffffff; opacity: 0.8; stroke: #cccccc; stroke-linejoin: miter"/>
    </g>
    <g id="line2d_19">
     <path d="M 450.05625 35.416562 
L 460.05625 35.416562 
L 470.05625 35.416562 
" style="fill: none; stroke: #00ff7f; stroke-linecap: square"/>
    </g>
    <g id="text_14">
     <!-- Oversold, RSI &lt;= 30 -->
     <g transform="translate(478.05625 38.916562)scale(0.1 -0.1)">
      <defs>
       <path id="DejaVuSans-4f" d="M 2522 4238 
Q 1834 4238 1429 3725 
Q 1025 3213 1025 2328 
Q 1025 1447 1429 934 
Q 1834 422 2522 422 
Q 3209 422 3611 934 
Q 4013 1447 4013 2328 
Q 4013 3213 3611 3725 
Q 3209 4238 2522 4238 
z
M 2522 4750 
Q 3503 4750 4090 4092 
Q 4678 3434 4678 2328 
Q 4678 1225 4090 567 
Q 3503 -91 2522 -91 
Q 1538 -91 948 565 
Q 359 1222 359 2328 
Q 359 3434 948 4092 
Q 1538 4750 2522 4750 
z
" transform="scale(0.015625)"/>
       <path id="DejaVuSans-73" d="M 2834 3397 
L 2834 2853 
Q 2591 2978 2328 3040 
Q 2066 3103 1784 3103 
Q 1356 3103 1142 2972 
Q 928 2841 928 2578 
Q 928 2378 1081 2264 
Q 1234 2150 1697 2047 
L 1894 2003 
Q 2506 1872 2764 1633 
Q 3022 1394 3022 966 
Q 3022 478 2636 193 
Q 2250 -91 1575 -91 
Q 1294 -91 989 -36 
Q 684 19 347 128 
L 347 722 
Q 666 556 975 473 
Q 1284 391 1588 391 
Q 1994 391 2212 530 
Q 2431 669 2431 922 
Q 2431 1156 2273 1281 
Q 2116 1406 1581 1522 
L 1381 1569 
Q 847 1681 609 1914 
Q 372 2147 372 2553 
Q 372 3047 722 3315 
Q 1072 3584 1716 3584 
Q 2034 3584 2315 3537 
Q 2597 3491 2834 3397 
z
" transform="scale(0.015625)"/>
       <path id="DejaVuSans-6f" d="M 1959 3097 
Q 1497 3097 1228 2736 
Q 959 2375 959 1747 
Q 959 1119 1226 758 
Q 1494 397 1959 397 
Q 2419 397 2687 759 
Q 2956 1122 2956 1747 
Q 2956 2369 2687 2733 
Q 2419 3097 1959 3097 
z
M 1959 3584 
Q 2709 3584 3137 3096 
Q 3566 2609 3566 1747 
Q 3566 888 3137 398 
Q 2709 -91 1959 -91 
Q 1206 -91 779 398 
Q 353 888 353 1747 
Q 353 2609 779 3096 
Q 1206 3584 1959 3584 
z
" transform="scale(0.015625)"/>
       <path id="DejaVuSans-3c" d="M 4684 3150 
L 1459 2003 
L 4684 863 
L 4684 294 
L 678 1747 
L 678 2266 
L 4684 3719 
L 4684 3150 
z
" transform="scale(0.015625)"/>
       <path id="DejaVuSans-3d" d="M 678 2906 
L 4684 2906 
L 4684 2381 
L 678 2381 
L 678 2906 
z
M 678 1631 
L 4684 1631 
L 4684 1100 
L 678 1100 
L 678 1631 
z
" transform="scale(0.015625)"/>
       <path id="DejaVuSans-33" d="M 2597 2516 
Q 3050 2419 3304 2112 
Q 3559 1806 3559 1356 
Q 3559 666 3084 287 
Q 2609 -91 1734 -91 
Q 1441 -91 1130 -33 
Q 819 25 488 141 
L 488 750 
Q 750 597 1062 519 
Q 1375 441 1716 441 
Q 2309 441 2620 675 
Q 2931 909 2931 1356 
Q 2931 1769 2642 2001 
Q 2353 2234 1838 2234 
L 1294 2234 
L 1294 2753 
L 1863 2753 
Q 2328 2753 2575 2939 
Q 2822 3125 2822 3475 
Q 2822 3834 2567 4026 
Q 2313 4219 1838 4219 
Q 1578 4219 1281 4162 
Q 984 4106 628 3988 
L 628 4550 
Q 988 4650 1302 4700 
Q 1616 4750 1894 4750 
Q 2613 4750 3031 4423 
Q 3450 4097 3450 3541 
Q 3450 3153 3228 2886 
Q 3006 2619 2597 2516 
z
" transform="scale(0.015625)"/>
      </defs>
      <use xlink:href="#DejaVuSans-4f"/>
      <use xlink:href="#DejaVuSans-76" x="78.710938"/>
      <use xlink:href="#DejaVuSans-65" x="137.890625"/>
      <use xlink:href="#DejaVuSans-72" x="199.414062"/>
      <use xlink:href="#DejaVuSans-73" x="240.527344"/>
      <use xlink:href="#DejaVuSans-6f" x="292.626953"/>
      <use xlink:href="#DejaVuSans-6c" x="353.808594"/>
      <use xlink:href="#DejaVuSans-64" x="381.591797"/>
      <use xlink:href="#DejaVuSans-2c" x="445.068359"/>
      <use xlink:href="#DejaVuSans-20" x="476.855469"/>
      <use xlink:href="#DejaVuSans-52" x="508.642578"/>
      <use xlink:href="#DejaVuSans-53" x="578.125"/>
      <use xlink:href="#DejaVuSans-49" x="641.601562"/>
      <use xlink:href="#DejaVuSans-20" x="671.09375"/>
      <use xlink:href="#DejaVuSans-3c" x="702.880859"/>
      <use xlink:href="#DejaVuSans-3d" x="786.669922"/>
      <use xlink:href="#DejaVuSans-20" x="870.458984"/>
      <use xlink:href="#DejaVuSans-33" x="902.246094"/>
      <use xlink:href="#DejaVuSans-30" x="965.869141"/>
     </g>
    </g>
    <g id="line2d_20">
     <path d="M 450.05625 50.094687 
L 460.05625 50.094687 
L 470.05625 50.094687 
" style="fill: none; stroke: #ff4500; stroke-linecap: square"/>
    </g>
    <g id="text_15">
     <!-- Overbought, RSI &gt;= 70 -->
     <g transform="translate(478.05625 53.594687)scale(0.1 -0.1)">
      <defs>
       <path id="DejaVuSans-62" d="M 3116 1747 
Q 3116 2381 2855 2742 
Q 2594 3103 2138 3103 
Q 1681 3103 1420 2742 
Q 1159 2381 1159 1747 
Q 1159 1113 1420 752 
Q 1681 391 2138 391 
Q 2594 391 2855 752 
Q 3116 1113 3116 1747 
z
M 1159 2969 
Q 1341 3281 1617 3432 
Q 1894 3584 2278 3584 
Q 2916 3584 3314 3078 
Q 3713 2572 3713 1747 
Q 3713 922 3314 415 
Q 2916 -91 2278 -91 
Q 1894 -91 1617 61 
Q 1341 213 1159 525 
L 1159 0 
L 581 0 
L 581 4863 
L 1159 4863 
L 1159 2969 
z
" transform="scale(0.015625)"/>
       <path id="DejaVuSans-75" d="M 544 1381 
L 544 3500 
L 1119 3500 
L 1119 1403 
Q 1119 906 1312 657 
Q 1506 409 1894 409 
Q 2359 409 2629 706 
Q 2900 1003 2900 1516 
L 2900 3500 
L 3475 3500 
L 3475 0 
L 2900 0 
L 2900 538 
Q 2691 219 2414 64 
Q 2138 -91 1772 -91 
Q 1169 -91 856 284 
Q 544 659 544 1381 
z
M 1991 3584 
L 1991 3584 
z
" transform="scale(0.015625)"/>
       <path id="DejaVuSans-3e" d="M 678 3150 
L 678 3719 
L 4684 2266 
L 4684 1747 
L 678 294 
L 678 863 
L 3897 2003 
L 678 3150 
z
" transform="scale(0.015625)"/>
       <path id="DejaVuSans-37" d="M 525 4666 
L 3525 4666 
L 3525 4397 
L 1831 0 
L 1172 0 
L 2766 4134 
L 525 4134 
L 525 4666 
z
" transform="scale(0.015625)"/>
      </defs>
      <use xlink:href="#DejaVuSans-4f"/>
      <use xlink:href="#DejaVuSans-76" x="78.710938"/>
      <use xlink:href="#DejaVuSans-65" x="137.890625"/>
      <use xlink:href="#DejaVuSans-72" x="199.414062"/>
      <use xlink:href="#DejaVuSans-62" x="240.527344"/>
      <use xlink:href="#DejaVuSans-6f" x="304.003906"/>
      <use xlink:href="#DejaVuSans-75" x="365.185547"/>
      <use xlink:href="#DejaVuSans-67" x="428.564453"/>
      <use xlink:href="#DejaVuSans-68" x="492.041016"/>
      <use xlink:href="#DejaVuSans-74" x="555.419922"/>
      <use xlink:href="#DejaVuSans-2c" x="594.628906"/>
      <use xlink:href="#DejaVuSans-20" x="626.416016"/>
      <use xlink:href="#DejaVuSans-52" x="658.203125"/>
      <use xlink:href="#DejaVuSans-53" x="727.685547"/>
      <use xlink:href="#DejaVuSans-49" x="791.162109"/>
      <use xlink:href="#DejaVuSans-20" x="820.654297"/>
      <use xlink:href="#DejaVuSans-3e" x="852.441406"/>
      <use xlink:href="#DejaVuSans-3d" x="936.230469"/>
      <use xlink:href="#DejaVuSans-20" x="1020.019531"/>
      <use xlink:href="#DejaVuSans-37" x="1051.806641"/>
      <use xlink:href="#DejaVuSans-30" x="1115.429688"/>
     </g>
    </g>
    <g id="line2d_21">
     <path d="M 450.05625 64.772812 
L 460.05625 64.772812 
L 470.05625 64.772812 
" style="fill: none; stroke: #1e90ff; stroke-linecap: square"/>
    </g>
    <g id="text_16">
     <!-- Neutral -->
     <g transform="translate(478.05625 68.272812)scale(0.1 -0.1)">
      <defs>
       <path id="DejaVuSans-4e" d="M 628 4666 
L 1478 4666 
L 3547 763 
L 3547 4666 
L 4159 4666 
L 4159 0 
L 3309 0 
L 1241 3903 
L 1241 0 
L 628 0 
L 628 4666 
z
" transform="scale(0.015625)"/>
      </defs>
      <use xlink:href="#DejaVuSans-4e"/>
      <use xlink:href="#DejaVuSans-65" x="74.804688"/>
      <use xlink:href="#DejaVuSans-75" x="136.328125"/>
      <use xlink:href="#DejaVuSans-74" x="199.707031"/>
      <use xlink:href="#DejaVuSans-72" x="238.916016"/>
      <use xlink:href="#DejaVuSans-61" x="280.029297"/>
      <use xlink:href="#DejaVuSans-6c" x="341.308594"/>
     </g>
    </g>
   </g>
  </g>
 </g>
 <defs>
  <clipPath id="p0e596cd146">
   <rect x="46.965625" y="22.318125" width="558" height="332.64"/>
  </clipPath>
 </defs>
</svg>
