<?xml version="1.0" encoding="utf-8" standalone="no"?>
<!DOCTYPE svg PUBLIC "-//W3C//DTD SVG 1.1//EN"
  "http://www.w3.org/Graphics/SVG/1.1/DTD/svg11.dtd">
<svg xmlns:xlink="http://www.w3.org/1999/xlink" width="612.165625pt" height="392.514375pt" viewBox="0 0 612.165625 392.514375" xmlns="http://www.w3.org/2000/svg" version="1.1">
 <metadata>
  <rdf:RDF xmlns:dc="http://purl.org/dc/elements/1.1/" xmlns:cc="http://creativecommons.org/ns#" xmlns:rdf="http://www.w3.org/1999/02/22-rdf-syntax-ns#">
   <cc:Work>
    <dc:type rdf:resource="http://purl.org/dc/dcmitype/StillImage"/>
    <dc:date>2023-04-24T15:33:47.511730</dc:date>
    <dc:format>image/svg+xml</dc:format>
    <dc:creator>
     <cc:Agent>
      <dc:title>Matplotlib v3.5.1, https://matplotlib.org/</dc:title>
     </cc:Agent>
    </dc:creator>
   </cc:Work>
  </rdf:RDF>
 </metadata>
 <defs>
  <style type="text/css">*{stroke-linejoin: round; stroke-linecap: butt}</style>
 </defs>
 <g id="figure_1">
  <g id="patch_1">
   <path d="M 0 392.514375 
L 612.165625 392.514375 
L 612.165625 0 
L 0 0 
z
" style="fill: #ffffff"/>
  </g>
  <g id="axes_1">
   <g id="patch_2">
    <path d="M 46.965625 354.958125 
L 604.965625 354.958125 
L 604.965625 22.318125 
L 46.965625 22.318125 
z
" style="fill: #ffffff"/>
   </g>
   <g id="matplotlib.axis_1">
    <g id="xtick_1">
     <g id="line2d_1">
      <defs>
       <path id="m2956c861de" d="M 0 0 
L 0 3.5 
" style="stroke: #000000; stroke-width: 0.8"/>
      </defs>
      <g>
       <use xlink:href="#m2956c861de" x="72.329261" y="354.958125" style="stroke: #000000; stroke-width: 0.8"/>
      </g>
     </g>
     <g id="text_1">
      <!-- 0 -->
      <g transform="translate(69.148011 369.556562)scale(0.1 -0.1)">
       <defs>
        <path id="DejaVuSans-30" d="M 2034 4250 
Q 1547 4250 1301 3770 
Q 1056 3291 1056 2328 
Q 1056 1369 1301 889 
Q 1547 409 2034 409 
Q 2525 409 2770 889 
Q 3016 1369 3016 2328 
Q 3016 3291 2770 3770 
Q 2525 4250 2034 4250 
z
M 2034 4750 
Q 2819 4750 3233 4129 
Q 3647 3509 3647 2328 
Q 3647 1150 3233 529 
Q 2819 -91 2034 -91 
Q 1250 -91 836 529 
Q 422 1150 422 2328 
Q 422 3509 836 4129 
Q 1250 4750 2034 4750 
z
" transform="scale(0.015625)"/>
       </defs>
       <use xlink:href="#DejaVuSans-30"/>
      </g>
     </g>
    </g>
    <g id="xtick_2">
     <g id="line2d_2">
      <g>
       <use xlink:href="#m2956c861de" x="186.01656" y="354.958125" style="stroke: #000000; stroke-width: 0.8"/>
      </g>
     </g>
     <g id="text_2">
      <!-- 500 -->
      <g transform="translate(176.47281 369.556562)scale(0.1 -0.1)">
       <defs>
        <path id="DejaVuSans-35" d="M 691 4666 
L 3169 4666 
L 3169 4134 
L 1269 4134 
L 1269 2991 
Q 1406 3038 1543 3061 
Q 1681 3084 1819 3084 
Q 2600 3084 3056 2656 
Q 3513 2228 3513 1497 
Q 3513 744 3044 326 
Q 2575 -91 1722 -91 
Q 1428 -91 1123 -41 
Q 819 9 494 109 
L 494 744 
Q 775 591 1075 516 
Q 1375 441 1709 441 
Q 2250 441 2565 725 
Q 2881 1009 2881 1497 
Q 2881 1984 2565 2268 
Q 2250 2553 1709 2553 
Q 1456 2553 1204 2497 
Q 953 2441 691 2322 
L 691 4666 
z
" transform="scale(0.015625)"/>
       </defs>
       <use xlink:href="#DejaVuSans-35"/>
       <use xlink:href="#DejaVuSans-30" x="63.623047"/>
       <use xlink:href="#DejaVuSans-30" x="127.246094"/>
      </g>
     </g>
    </g>
    <g id="xtick_3">
     <g id="line2d_3">
      <g>
       <use xlink:href="#m2956c861de" x="299.703859" y="354.958125" style="stroke: #000000; stroke-width: 0.8"/>
      </g>
     </g>
     <g id="text_3">
      <!-- 1000 -->
      <g transform="translate(286.978859 369.556562)scale(0.1 -0.1)">
       <defs>
        <path id="DejaVuSans-31" d="M 794 531 
L 1825 531 
L 1825 4091 
L 703 3866 
L 703 4441 
L 1819 4666 
L 2450 4666 
L 2450 531 
L 3481 531 
L 3481 0 
L 794 0 
L 794 531 
z
" transform="scale(0.015625)"/>
       </defs>
       <use xlink:href="#DejaVuSans-31"/>
       <use xlink:href="#DejaVuSans-30" x="63.623047"/>
       <use xlink:href="#DejaVuSans-30" x="127.246094"/>
       <use xlink:href="#DejaVuSans-30" x="190.869141"/>
      </g>
     </g>
    </g>
    <g id="xtick_4">
     <g id="line2d_4">
      <g>
       <use xlink:href="#m2956c861de" x="413.391158" y="354.958125" style="stroke: #000000; stroke-width: 0.8"/>
      </g>
     </g>
     <g id="text_4">
      <!-- 1500 -->
      <g transform="translate(400.666158 369.556562)scale(0.1 -0.1)">
       <use xlink:href="#DejaVuSans-31"/>
       <use xlink:href="#DejaVuSans-35" x="63.623047"/>
       <use xlink:href="#DejaVuSans-30" x="127.246094"/>
       <use xlink:href="#DejaVuSans-30" x="190.869141"/>
      </g>
     </g>
    </g>
    <g id="xtick_5">
     <g id="line2d_5">
      <g>
       <use xlink:href="#m2956c861de" x="527.078457" y="354.958125" style="stroke: #000000; stroke-width: 0.8"/>
      </g>
     </g>
     <g id="text_5">
      <!-- 2000 -->
      <g transform="translate(514.353457 369.556562)scale(0.1 -0.1)">
       <defs>
        <path id="DejaVuSans-32" d="M 1228 531 
L 3431 531 
L 3431 0 
L 469 0 
L 469 531 
Q 828 903 1448 1529 
Q 2069 2156 2228 2338 
Q 2531 2678 2651 2914 
Q 2772 3150 2772 3378 
Q 2772 3750 2511 3984 
Q 2250 4219 1831 4219 
Q 1534 4219 1204 4116 
Q 875 4013 500 3803 
L 500 4441 
Q 881 4594 1212 4672 
Q 1544 4750 1819 4750 
Q 2544 4750 2975 4387 
Q 3406 4025 3406 3419 
Q 3406 3131 3298 2873 
Q 3191 2616 2906 2266 
Q 2828 2175 2409 1742 
Q 1991 1309 1228 531 
z
" transform="scale(0.015625)"/>
       </defs>
       <use xlink:href="#DejaVuSans-32"/>
       <use xlink:href="#DejaVuSans-30" x="63.623047"/>
       <use xlink:href="#DejaVuSans-30" x="127.246094"/>
       <use xlink:href="#DejaVuSans-30" x="190.869141"/>
      </g>
     </g>
    </g>
    <g id="text_6">
     <!-- Date -->
     <g transform="translate(314.014844 383.234687)scale(0.1 -0.1)">
      <defs>
       <path id="DejaVuSans-44" d="M 1259 4147 
L 1259 519 
L 2022 519 
Q 2988 519 3436 956 
Q 3884 1394 3884 2338 
Q 3884 3275 3436 3711 
Q 2988 4147 2022 4147 
L 1259 4147 
z
M 628 4666 
L 1925 4666 
Q 3281 4666 3915 4102 
Q 4550 3538 4550 2338 
Q 4550 1131 3912 565 
Q 3275 0 1925 0 
L 628 0 
L 628 4666 
z
" transform="scale(0.015625)"/>
       <path id="DejaVuSans-61" d="M 2194 1759 
Q 1497 1759 1228 1600 
Q 959 1441 959 1056 
Q 959 750 1161 570 
Q 1363 391 1709 391 
Q 2188 391 2477 730 
Q 2766 1069 2766 1631 
L 2766 1759 
L 2194 1759 
z
M 3341 1997 
L 3341 0 
L 2766 0 
L 2766 531 
Q 2569 213 2275 61 
Q 1981 -91 1556 -91 
Q 1019 -91 701 211 
Q 384 513 384 1019 
Q 384 1609 779 1909 
Q 1175 2209 1959 2209 
L 2766 2209 
L 2766 2266 
Q 2766 2663 2505 2880 
Q 2244 3097 1772 3097 
Q 1472 3097 1187 3025 
Q 903 2953 641 2809 
L 641 3341 
Q 956 3463 1253 3523 
Q 1550 3584 1831 3584 
Q 2591 3584 2966 3190 
Q 3341 2797 3341 1997 
z
" transform="scale(0.015625)"/>
       <path id="DejaVuSans-74" d="M 1172 4494 
L 1172 3500 
L 2356 3500 
L 2356 3053 
L 1172 3053 
L 1172 1153 
Q 1172 725 1289 603 
Q 1406 481 1766 481 
L 2356 481 
L 2356 0 
L 1766 0 
Q 1100 0 847 248 
Q 594 497 594 1153 
L 594 3053 
L 172 3053 
L 172 3500 
L 594 3500 
L 594 4494 
L 1172 4494 
z
" transform="scale(0.015625)"/>
       <path id="DejaVuSans-65" d="M 3597 1894 
L 3597 1613 
L 953 1613 
Q 991 1019 1311 708 
Q 1631 397 2203 397 
Q 2534 397 2845 478 
Q 3156 559 3463 722 
L 3463 178 
Q 3153 47 2828 -22 
Q 2503 -91 2169 -91 
Q 1331 -91 842 396 
Q 353 884 353 1716 
Q 353 2575 817 3079 
Q 1281 3584 2069 3584 
Q 2775 3584 3186 3129 
Q 3597 2675 3597 1894 
z
M 3022 2063 
Q 3016 2534 2758 2815 
Q 2500 3097 2075 3097 
Q 1594 3097 1305 2825 
Q 1016 2553 972 2059 
L 3022 2063 
z
" transform="scale(0.015625)"/>
      </defs>
      <use xlink:href="#DejaVuSans-44"/>
      <use xlink:href="#DejaVuSans-61" x="77.001953"/>
      <use xlink:href="#DejaVuSans-74" x="138.28125"/>
      <use xlink:href="#DejaVuSans-65" x="177.490234"/>
     </g>
    </g>
   </g>
   <g id="matplotlib.axis_2">
    <g id="ytick_1">
     <g id="line2d_6">
      <path d="M 46.965625 324.142376 
L 604.965625 324.142376 
" clip-path="url(#p1586e8e60e)" style="fill: none; stroke: #dcdcdc; stroke-width: 0.5; stroke-linecap: square"/>
     </g>
     <g id="line2d_7">
      <defs>
       <path id="m01d9479833" d="M 0 0 
L -3.5 0 
" style="stroke: #000000; stroke-width: 0.8"/>
      </defs>
      <g>
       <use xlink:href="#m01d9479833" x="46.965625" y="324.142376" style="stroke: #000000; stroke-width: 0.8"/>
      </g>
     </g>
     <g id="text_7">
      <!-- 50 -->
      <g transform="translate(27.240625 327.941595)scale(0.1 -0.1)">
       <use xlink:href="#DejaVuSans-35"/>
       <use xlink:href="#DejaVuSans-30" x="63.623047"/>
      </g>
     </g>
    </g>
    <g id="ytick_2">
     <g id="line2d_8">
      <path d="M 46.965625 252.798065 
L 604.965625 252.798065 
" clip-path="url(#p1586e8e60e)" style="fill: none; stroke: #dcdcdc; stroke-width: 0.5; stroke-linecap: square"/>
     </g>
     <g id="line2d_9">
      <g>
       <use xlink:href="#m01d9479833" x="46.965625" y="252.798065" style="stroke: #000000; stroke-width: 0.8"/>
      </g>
     </g>
     <g id="text_8">
      <!-- 100 -->
      <g transform="translate(20.878125 256.597283)scale(0.1 -0.1)">
       <use xlink:href="#DejaVuSans-31"/>
       <use xlink:href="#DejaVuSans-30" x="63.623047"/>
       <use xlink:href="#DejaVuSans-30" x="127.246094"/>
      </g>
     </g>
    </g>
    <g id="ytick_3">
     <g id="line2d_10">
      <path d="M 46.965625 181.453753 
L 604.965625 181.453753 
" clip-path="url(#p1586e8e60e)" style="fill: none; stroke: #dcdcdc; stroke-width: 0.5; stroke-linecap: square"/>
     </g>
     <g id="line2d_11">
      <g>
       <use xlink:href="#m01d9479833" x="46.965625" y="181.453753" style="stroke: #000000; stroke-width: 0.8"/>
      </g>
     </g>
     <g id="text_9">
      <!-- 150 -->
      <g transform="translate(20.878125 185.252972)scale(0.1 -0.1)">
       <use xlink:href="#DejaVuSans-31"/>
       <use xlink:href="#DejaVuSans-35" x="63.623047"/>
       <use xlink:href="#DejaVuSans-30" x="127.246094"/>
      </g>
     </g>
    </g>
    <g id="ytick_4">
     <g id="line2d_12">
      <path d="M 46.965625 110.109441 
L 604.965625 110.109441 
" clip-path="url(#p1586e8e60e)" style="fill: none; stroke: #dcdcdc; stroke-width: 0.5; stroke-linecap: square"/>
     </g>
     <g id="line2d_13">
      <g>
       <use xlink:href="#m01d9479833" x="46.965625" y="110.109441" style="stroke: #000000; stroke-width: 0.8"/>
      </g>
     </g>
     <g id="text_10">
      <!-- 200 -->
      <g transform="translate(20.878125 113.90866)scale(0.1 -0.1)">
       <use xlink:href="#DejaVuSans-32"/>
       <use xlink:href="#DejaVuSans-30" x="63.623047"/>
       <use xlink:href="#DejaVuSans-30" x="127.246094"/>
      </g>
     </g>
    </g>
    <g id="ytick_5">
     <g id="line2d_14">
      <path d="M 46.965625 38.765129 
L 604.965625 38.765129 
" clip-path="url(#p1586e8e60e)" style="fill: none; stroke: #dcdcdc; stroke-width: 0.5; stroke-linecap: square"/>
     </g>
     <g id="line2d_15">
      <g>
       <use xlink:href="#m01d9479833" x="46.965625" y="38.765129" style="stroke: #000000; stroke-width: 0.8"/>
      </g>
     </g>
     <g id="text_11">
      <!-- 250 -->
      <g transform="translate(20.878125 42.564348)scale(0.1 -0.1)">
       <use xlink:href="#DejaVuSans-32"/>
       <use xlink:href="#DejaVuSans-35" x="63.623047"/>
       <use xlink:href="#DejaVuSans-30" x="127.246094"/>
      </g>
     </g>
    </g>
    <g id="text_12">
     <!-- Price (USD) -->
     <g transform="translate(14.798437 217.01)rotate(-90)scale(0.1 -0.1)">
      <defs>
       <path id="DejaVuSans-50" d="M 1259 4147 
L 1259 2394 
L 2053 2394 
Q 2494 2394 2734 2622 
Q 2975 2850 2975 3272 
Q 2975 3691 2734 3919 
Q 2494 4147 2053 4147 
L 1259 4147 
z
M 628 4666 
L 2053 4666 
Q 2838 4666 3239 4311 
Q 3641 3956 3641 3272 
Q 3641 2581 3239 2228 
Q 2838 1875 2053 1875 
L 1259 1875 
L 1259 0 
L 628 0 
L 628 4666 
z
" transform="scale(0.015625)"/>
       <path id="DejaVuSans-72" d="M 2631 2963 
Q 2534 3019 2420 3045 
Q 2306 3072 2169 3072 
Q 1681 3072 1420 2755 
Q 1159 2438 1159 1844 
L 1159 0 
L 581 0 
L 581 3500 
L 1159 3500 
L 1159 2956 
Q 1341 3275 1631 3429 
Q 1922 3584 2338 3584 
Q 2397 3584 2469 3576 
Q 2541 3569 2628 3553 
L 2631 2963 
z
" transform="scale(0.015625)"/>
       <path id="DejaVuSans-69" d="M 603 3500 
L 1178 3500 
L 1178 0 
L 603 0 
L 603 3500 
z
M 603 4863 
L 1178 4863 
L 1178 4134 
L 603 4134 
L 603 4863 
z
" transform="scale(0.015625)"/>
       <path id="DejaVuSans-63" d="M 3122 3366 
L 3122 2828 
Q 2878 2963 2633 3030 
Q 2388 3097 2138 3097 
Q 1578 3097 1268 2742 
Q 959 2388 959 1747 
Q 959 1106 1268 751 
Q 1578 397 2138 397 
Q 2388 397 2633 464 
Q 2878 531 3122 666 
L 3122 134 
Q 2881 22 2623 -34 
Q 2366 -91 2075 -91 
Q 1284 -91 818 406 
Q 353 903 353 1747 
Q 353 2603 823 3093 
Q 1294 3584 2113 3584 
Q 2378 3584 2631 3529 
Q 2884 3475 3122 3366 
z
" transform="scale(0.015625)"/>
       <path id="DejaVuSans-20" transform="scale(0.015625)"/>
       <path id="DejaVuSans-28" d="M 1984 4856 
Q 1566 4138 1362 3434 
Q 1159 2731 1159 2009 
Q 1159 1288 1364 580 
Q 1569 -128 1984 -844 
L 1484 -844 
Q 1016 -109 783 600 
Q 550 1309 550 2009 
Q 550 2706 781 3412 
Q 1013 4119 1484 4856 
L 1984 4856 
z
" transform="scale(0.015625)"/>
       <path id="DejaVuSans-55" d="M 556 4666 
L 1191 4666 
L 1191 1831 
Q 1191 1081 1462 751 
Q 1734 422 2344 422 
Q 2950 422 3222 751 
Q 3494 1081 3494 1831 
L 3494 4666 
L 4128 4666 
L 4128 1753 
Q 4128 841 3676 375 
Q 3225 -91 2344 -91 
Q 1459 -91 1007 375 
Q 556 841 556 1753 
L 556 4666 
z
" transform="scale(0.015625)"/>
       <path id="DejaVuSans-53" d="M 3425 4513 
L 3425 3897 
Q 3066 4069 2747 4153 
Q 2428 4238 2131 4238 
Q 1616 4238 1336 4038 
Q 1056 3838 1056 3469 
Q 1056 3159 1242 3001 
Q 1428 2844 1947 2747 
L 2328 2669 
Q 3034 2534 3370 2195 
Q 3706 1856 3706 1288 
Q 3706 609 3251 259 
Q 2797 -91 1919 -91 
Q 1588 -91 1214 -16 
Q 841 59 441 206 
L 441 856 
Q 825 641 1194 531 
Q 1563 422 1919 422 
Q 2459 422 2753 634 
Q 3047 847 3047 1241 
Q 3047 1584 2836 1778 
Q 2625 1972 2144 2069 
L 1759 2144 
Q 1053 2284 737 2584 
Q 422 2884 422 3419 
Q 422 4038 858 4394 
Q 1294 4750 2059 4750 
Q 2388 4750 2728 4690 
Q 3069 4631 3425 4513 
z
" transform="scale(0.015625)"/>
       <path id="DejaVuSans-29" d="M 513 4856 
L 1013 4856 
Q 1481 4119 1714 3412 
Q 1947 2706 1947 2009 
Q 1947 1309 1714 600 
Q 1481 -109 1013 -844 
L 513 -844 
Q 928 -128 1133 580 
Q 1338 1288 1338 2009 
Q 1338 2731 1133 3434 
Q 928 4138 513 4856 
z
" transform="scale(0.015625)"/>
      </defs>
      <use xlink:href="#DejaVuSans-50"/>
      <use xlink:href="#DejaVuSans-72" x="58.552734"/>
      <use xlink:href="#DejaVuSans-69" x="99.666016"/>
      <use xlink:href="#DejaVuSans-63" x="127.449219"/>
      <use xlink:href="#DejaVuSans-65" x="182.429688"/>
      <use xlink:href="#DejaVuSans-20" x="243.953125"/>
      <use xlink:href="#DejaVuSans-28" x="275.740234"/>
      <use xlink:href="#DejaVuSans-55" x="314.753906"/>
      <use xlink:href="#DejaVuSans-53" x="387.947266"/>
      <use xlink:href="#DejaVuSans-44" x="451.423828"/>
      <use xlink:href="#DejaVuSans-29" x="528.425781"/>
     </g>
    </g>
   </g>
   <g id="line2d_16">
    <path d="M 76.422004 337.951068 
L 76.649379 336.73108 
L 76.876753 337.61575 
L 77.104128 337.908261 
L 77.331503 336.998621 
L 77.558877 337.152012 
L 78.013626 335.892785 
L 78.241001 335.286358 
L 78.468375 335.832142 
L 78.923125 335.393374 
L 79.150499 336.263775 
M 87.10861 331.826159 
L 87.335985 331.455168 
L 87.563359 331.893936 
M 97.567842 333.060415 
L 97.795216 333.356494 
L 98.022591 332.985504 
L 98.249965 332.928428 
L 98.47734 333.267314 
L 98.704715 332.339838 
L 98.932089 332.635917 
L 99.159464 332.628782 
L 99.386838 332.46469 
L 99.614213 331.794054 
M 104.161705 329.01876 
L 104.38908 330.374302 
L 104.616454 329.90343 
L 104.843829 328.055612 
M 113.256689 323.518114 
L 113.484064 323.164959 
L 113.711438 323.532383 
L 113.938813 323.475307 
L 114.166187 323.575189 
L 114.393562 324.345708 
L 114.620937 322.123332 
L 114.848311 322.915254 
L 115.075686 321.516906 
L 115.30306 321.377784 
L 115.530435 319.415816 
L 115.75781 318.6667 
M 122.579047 319.337337 
L 123.033797 318.573953 
L 123.261171 317.3611 
M 144.407009 320.757089 
L 144.634383 320.764223 
L 144.861758 321.363515 
L 145.089133 320.910479 
M 162.142227 322.365903 
L 162.369602 322.615608 
L 162.596977 323.172094 
L 162.824351 324.053196 
L 163.506475 321.342112 
L 163.73385 319.394412 
L 163.961224 320.246977 
L 164.188599 319.048393 
L 164.415973 319.33377 
L 164.643348 319.35874 
L 164.870723 318.181559 
L 165.098097 318.912838 
L 165.325472 311.068531 
L 165.552846 309.363402 
L 165.780221 309.324163 
L 166.007596 308.814051 
M 166.917094 306.231387 
L 167.144469 306.402613 
L 167.371843 305.610691 
L 167.599218 305.978115 
L 167.826592 306.720095 
L 168.053967 306.377643 
L 168.508716 306.356239 
L 168.736091 305.710573 
M 178.740573 305.953144 
L 178.967948 307.604765 
L 179.195322 307.019742 
L 179.422697 304.554796 
L 179.650071 304.401405 
M 193.519922 301.240852 
L 193.974671 301.911489 
M 202.84228 300.284839 
L 203.069655 299.671277 
L 203.524404 298.115971 
L 203.751779 298.287198 
L 203.979153 298.786608 
L 204.206528 300.27057 
L 204.433903 299.813966 
L 204.888652 296.289557 
L 205.116026 295.461963 
L 205.343401 295.576114 
M 217.16688 299.599933 
L 217.621629 296.089793 
L 217.849004 295.618921 
L 218.076378 294.648638 
L 218.303753 292.422695 
L 218.531128 292.636728 
L 218.985877 290.039795 
L 219.213251 289.925644 
M 242.40546 294.719982 
L 242.632835 294.634369 
L 242.86021 295.290737 
L 243.087584 293.278827 
L 243.314959 293.478591 
L 243.769708 292.222931 
L 244.224457 290.211022 
L 244.451832 290.225291 
L 244.679206 291.381068 
L 244.906581 290.025527 
L 245.133956 289.697343 
L 245.36133 289.782956 
L 245.816079 285.930363 
L 246.043454 286.358429 
M 253.546816 285.916094 
L 253.77419 285.002887 
L 254.001565 285.787674 
M 260.595428 289.654536 
L 261.050177 288.941093 
L 261.277552 289.811494 
L 261.504927 289.169395 
L 261.732301 286.444042 
M 265.14292 284.118217 
L 265.370295 283.818571 
L 265.597669 283.790034 
M 268.09879 280.137205 
L 268.326165 280.95053 
M 287.425631 283.690152 
L 287.653005 284.046873 
L 287.88038 283.675883 
L 288.335129 284.33225 
L 288.789878 283.690152 
L 289.244627 283.718689 
L 289.472002 284.161024 
L 289.699377 282.049232 
L 289.926751 281.121756 
M 291.518373 279.666332 
L 291.745748 279.537913 
L 291.973123 279.06704 
M 293.33737 276.712678 
L 293.564745 275.956428 
L 293.792119 276.05631 
L 294.019494 277.468928 
L 294.474243 278.053951 
L 294.701618 272.660321 
L 294.928992 273.017043 
L 295.156367 273.088387 
L 295.383742 274.072938 
L 296.29324 271.561619 
M 296.747989 270.762562 
L 296.975364 270.691218 
L 297.202738 270.03485 
M 303.341853 268.479544 
L 303.569227 268.679308 
L 303.796602 267.980134 
L 304.023976 268.807728 
L 304.251351 268.451007 
L 304.478726 268.365393 
L 304.7061 268.864804 
L 304.933475 268.693577 
L 305.160849 268.707846 
L 305.388224 268.950417 
L 305.615599 268.679308 
L 305.842973 267.338035 
M 309.026217 264.084735 
L 309.253592 264.327305 
M 309.708341 263.856433 
L 309.935716 264.070466 
L 310.390465 262.458084 
M 310.845214 264.555607 
L 311.072589 264.626951 
M 317.666452 260.76009 
L 318.121201 262.286858 
L 318.348576 261.345113 
L 318.575951 262.429547 
L 318.803325 261.473533 
L 319.0307 259.804076 
L 319.258074 259.347472 
L 319.485449 258.24877 
L 319.712824 258.591223 
M 320.167573 257.321294 
L 320.394947 256.251129 
M 324.260316 253.525777 
L 324.48769 252.669645 
M 326.306687 248.260566 
L 326.534061 248.203491 
M 331.308928 248.488868 
L 331.536303 248.603019 
L 331.991052 246.262926 
M 332.90055 245.221299 
L 333.355299 243.19512 
M 334.719547 240.954909 
L 334.946922 242.039342 
L 335.174296 241.668352 
L 335.401671 242.781323 
L 335.629045 242.025074 
L 335.85642 242.053611 
L 336.311169 239.256914 
M 342.450283 242.1963 
L 342.905033 238.900193 
M 344.26928 234.362694 
L 344.496655 233.078497 
L 344.724029 233.463756 
L 344.951404 235.475666 
L 345.178778 235.504203 
L 345.860902 234.262812 
L 346.088277 232.79312 
L 346.315651 232.322247 
L 346.543026 232.79312 
L 346.770401 232.093945 
L 346.997775 230.467295 
L 347.22515 229.853734 
L 347.452524 225.88699 
L 347.679899 225.202085 
M 348.134648 225.715764 
L 348.362023 224.488642 
M 364.05087 217.896427 
L 364.278245 222.448194 
L 364.505619 222.533808 
M 365.642492 215.156806 
L 366.097241 212.616948 
M 374.055352 208.664473 
L 374.282727 206.352918 
L 374.510102 208.536054 
L 374.737476 206.081809 
L 374.964851 206.495606 
L 375.192225 206.424262 
L 375.4196 207.922492 
L 375.646975 205.297022 
L 375.874349 204.155513 
M 379.512343 200.745255 
L 379.739717 200.374264 
M 380.649216 196.136412 
L 381.103965 194.752333 
L 381.33134 195.708346 
L 381.558714 196.107874 
L 382.013463 194.638182 
M 385.878831 191.156579 
L 386.106206 189.900919 
L 386.333581 187.88901 
M 404.068799 212.659755 
L 404.296174 204.783343 
M 407.706793 201.444429 
L 407.934167 202.857046 
M 408.388917 202.842777 
L 408.616291 195.508582 
M 409.298415 193.596555 
L 409.52579 195.480045 
L 409.753164 195.180398 
L 409.980539 194.581106 
L 410.435288 190.742782 
M 411.117412 189.38724 
L 411.344786 188.973443 
L 411.572161 190.01507 
L 411.799536 187.346793 
L 412.02691 187.075685 
L 412.254285 185.677336 
L 412.481659 185.420497 
M 416.347028 177.073212 
L 416.574402 177.130288 
L 416.801777 173.891256 
L 417.029151 175.432293 
L 417.256526 174.790194 
L 417.711275 171.094559 
L 417.93865 170.352578 
M 418.393399 170.552342 
L 418.620774 170.538073 
L 418.848148 170.395384 
L 419.075523 170.766375 
M 427.261008 165.287132 
L 427.488383 169.182531 
L 427.715757 163.860246 
M 429.30738 153.843504 
L 429.534754 153.401169 
L 429.762129 153.543858 
L 429.989503 153.943386 
L 430.216878 151.931477 
L 430.444253 147.579474 
L 430.671627 148.007539 
L 430.899002 147.422516 
L 431.126376 151.089614 
L 431.353751 151.403529 
L 431.581126 151.160958 
L 431.8085 147.850582 
L 432.035875 147.294096 
L 432.490624 143.11332 
M 452.499589 143.256008 
L 452.726963 140.887377 
L 452.954338 140.116859 
M 456.819706 137.791034 
L 457.047081 135.950351 
L 457.274455 135.550823 
M 457.729204 135.422403 
L 457.956579 135.779124 
M 459.093452 131.655423 
L 459.548201 127.232076 
L 459.775576 128.544811 
L 460.00295 127.845637 
L 460.230325 125.576888 
L 460.457699 125.248704 
L 460.685074 127.474646 
L 460.912449 127.374764 
L 461.139823 122.780191 
L 461.367198 124.949058 
L 461.821947 126.247524 
L 462.049322 121.638682 
L 462.276696 119.740923 
M 477.965544 161.163431 
L 478.192918 166.428641 
M 481.603537 139.403415 
L 481.830912 142.799405 
M 494.336515 123.807549 
L 494.563889 123.393752 
L 494.791264 121.110734 
L 495.246013 111.864511 
L 495.473388 115.303307 
L 495.700762 114.689746 
L 496.155511 111.907318 
L 496.382886 113.562506 
M 508.43374 137.405775 
L 508.661114 131.69823 
L 508.888489 136.20719 
L 509.343238 126.746935 
M 515.254978 99.250837 
L 515.482352 101.205671 
M 530.489076 100.263926 
L 530.71645 98.694351 
L 530.943825 98.480318 
L 531.398574 98.737158 
L 531.625949 90.80367 
L 531.853323 89.405322 
L 532.080698 93.129495 
L 532.308072 93.372065 
L 532.535447 86.052139 
L 532.762822 82.941527 
L 532.990196 83.498013 
L 533.217571 82.613343 
L 533.67232 77.975963 
L 533.899695 79.474194 
L 534.127069 80.116292 
M 540.038809 75.022308 
L 540.266183 72.382569 
L 540.493558 71.911696 
M 570.961754 124.150002 
L 571.189129 112.549416 
L 571.416503 115.360382 
L 571.643878 106.285386 
M 579.147239 107.469701 
L 579.374614 107.255669 
L 579.601989 101.733619 
L 579.601989 101.733619 
" clip-path="url(#p1586e8e60e)" style="fill: none; stroke: #00ff7f; stroke-linecap: square"/>
   </g>
   <g id="line2d_17">
    <path d="M 92.565601 326.065106 
L 93.02035 327.006851 
L 93.247724 327.195913 
M 129.172911 315.659538 
L 129.400285 314.72136 
L 129.62766 315.645269 
M 130.082409 315.805794 
L 130.309784 316.740404 
M 149.181875 316.558476 
L 149.40925 316.579879 
L 149.636625 316.030528 
M 175.784703 302.400197 
L 176.012078 301.151672 
M 208.299271 287.371518 
L 208.75402 288.498758 
M 229.899858 281.535553 
L 230.127232 283.20501 
M 231.264105 283.818571 
L 231.49148 283.433312 
L 231.718854 282.463029 
L 231.946229 283.690152 
M 256.502685 280.565271 
L 256.73006 280.479658 
L 256.957435 278.981427 
M 281.513891 276.712678 
L 281.741266 278.667512 
L 281.96864 278.653243 
M 387.925203 182.538186 
L 388.152577 181.382408 
M 399.293933 193.28264 
L 399.521307 188.588184 
M 442.495106 131.897994 
L 442.722481 130.456839 
M 466.596814 105.771707 
L 466.824188 106.199773 
M 505.023121 106.585032 
L 505.250495 105.85732 
L 505.47787 100.634916 
L 505.705244 100.977369 
L 505.932619 103.945292 
M 518.210847 83.91181 
L 518.438222 83.383862 
L 518.665596 84.767941 
L 519.120346 92.102137 
L 519.575095 88.064049 
M 550.270666 40.163478 
L 550.725415 37.438125 
L 550.952789 43.131401 
L 551.180164 41.733053 
L 551.407539 43.916189 
M 555.95503 63.46453 
L 556.182405 65.547784 
M 567.32376 80.872542 
L 567.551135 91.003434 
L 567.77851 87.907091 
M 575.963995 79.531269 
L 576.19137 78.061576 
L 576.418744 81.571716 
L 576.646119 81.928438 
L 576.646119 81.928438 
" clip-path="url(#p1586e8e60e)" style="fill: none; stroke: #ff4500; stroke-linecap: square"/>
   </g>
   <g id="line2d_18">
    <path d="M 72.329261 339.838125 
L 72.556636 338.650242 
L 72.784011 339.196026 
L 73.011385 338.379134 
L 73.466134 335.750096 
L 73.920884 334.901099 
L 74.148258 335.789335 
L 74.375633 335.575302 
L 74.603007 336.716811 
L 74.830382 336.099683 
L 75.057757 336.570556 
L 75.285131 336.16746 
L 75.512506 336.716811 
L 75.73988 335.917755 
L 75.967255 335.69302 
L 76.19463 336.36009 
M 79.377874 332.917727 
L 79.605248 331.4409 
L 79.832623 331.672769 
L 80.059998 331.351719 
L 80.514747 331.783352 
L 80.969496 331.6585 
L 81.424245 330.648978 
L 81.65162 331.348152 
L 81.878994 329.64659 
L 82.106369 330.702486 
L 82.333744 330.723889 
L 82.788493 331.954579 
L 83.015867 331.116283 
L 83.243242 331.266106 
L 83.470617 331.94031 
L 83.697991 330.909384 
L 83.925366 331.94031 
L 84.15274 331.20903 
L 84.380115 331.205463 
L 84.60749 332.268494 
L 84.834864 331.508677 
L 85.062239 331.298211 
L 85.289613 330.445646 
L 85.516988 331.398093 
L 85.744363 331.580021 
L 85.971737 330.474184 
L 86.199112 330.945057 
L 86.653861 329.846354 
L 86.881236 330.33863 
M 87.790734 331.109148 
L 88.245483 329.757174 
L 88.472858 330.295823 
L 88.700232 329.414721 
L 88.927607 329.407587 
L 89.154982 328.765488 
L 89.382356 327.427782 
L 89.609731 328.387363 
L 90.06448 328.886773 
L 90.291855 327.723861 
L 90.519229 327.452752 
L 90.746604 327.620412 
L 90.973978 327.930759 
L 91.201353 327.838012 
L 91.428728 327.349303 
L 91.656102 327.73813 
L 91.883477 327.274392 
L 92.338226 328.868937 
M 93.475099 332.343405 
L 93.702474 331.572886 
L 93.929848 329.849921 
L 94.157223 329.657292 
L 94.611972 330.780965 
L 95.748845 331.865398 
L 95.97622 333.442107 
L 96.203594 333.727485 
L 96.430969 333.06755 
M 96.885718 331.851129 
L 97.340467 331.597857 
M 99.841588 329.639456 
L 100.068962 329.025895 
L 100.296337 329.471796 
L 100.523711 328.066314 
L 100.751086 327.930759 
L 101.205835 326.407558 
L 101.43321 326.029433 
L 101.660584 324.559741 
L 102.342708 327.153106 
L 102.570083 326.439663 
L 102.797457 326.621591 
L 103.024832 327.317198 
L 103.252207 326.560949 
L 103.479581 327.060359 
L 103.706956 328.191166 
L 103.93433 327.538366 
M 105.071203 326.924805 
L 105.298578 326.48247 
L 105.525953 327.220883 
L 105.980702 324.755937 
L 106.208076 323.981852 
L 106.8902 324.538337 
L 107.117575 323.104317 
L 107.572324 323.043674 
L 107.799699 322.629877 
L 108.027073 322.7797 
L 108.254448 325.330259 
L 108.481822 324.442023 
L 108.709197 325.41944 
L 108.936572 325.080554 
L 109.163946 324.491964 
M 109.618695 324.75237 
L 109.84607 324.402783 
L 110.073445 324.759505 
L 110.300819 324.220855 
L 110.528194 324.088868 
L 110.755568 323.428933 
L 111.210318 325.07342 
L 111.437692 324.813013 
L 111.665067 323.568055 
L 111.892441 323.386127 
L 112.119816 323.453904 
L 112.347191 322.886717 
L 112.574565 322.719057 
M 115.985184 318.406294 
L 116.212559 318.445533 
L 116.439933 317.710687 
L 116.667308 317.460982 
L 116.894682 316.936601 
M 117.349432 316.683329 
L 117.576806 316.051931 
L 117.804181 316.647656 
L 118.031555 316.594148 
L 118.25893 317.068588 
L 118.486305 316.469296 
L 118.713679 316.216023 
L 118.941054 316.326607 
L 119.168428 316.60485 
L 119.395803 317.400339 
L 119.623178 316.062633 
L 119.850552 315.666672 
L 120.077927 316.376548 
L 120.305301 312.663077 
L 120.532676 312.752257 
L 120.760051 312.374132 
L 121.2148 316.562043 
L 121.442174 318.356353 
L 121.669549 316.665493 
L 121.896924 318.035303 
L 122.124298 316.69403 
L 122.351673 318.638163 
M 123.488546 316.372981 
L 123.71592 316.811748 
L 124.17067 315.520416 
L 124.398044 315.563223 
L 124.625419 314.867616 
L 124.852793 314.846213 
L 125.080168 315.623866 
L 125.534917 315.809361 
L 125.762292 314.799839 
L 125.989666 314.471655 
L 126.217041 314.828376 
L 126.444416 314.767734 
L 126.67179 314.889019 
L 126.899165 316.494266 
L 127.126539 315.045977 
L 127.353914 316.005558 
L 127.581289 315.631 
L 127.808663 315.024573 
M 128.263412 314.446684 
L 128.490787 314.831944 
L 128.718162 316.729702 
L 128.945536 316.73327 
M 130.537158 317.5787 
L 130.764533 318.548982 
L 130.991908 318.516877 
L 131.219282 319.829613 
L 131.446657 318.484772 
L 131.674031 318.898569 
L 131.901406 318.912838 
L 132.128781 318.787986 
L 132.58353 322.925956 
L 132.810904 323.218468 
L 133.038279 321.452696 
L 133.493028 325.344528 
L 134.175152 320.803463 
L 134.402527 321.30644 
L 134.857276 320.585862 
L 135.08465 320.996092 
L 135.312025 320.789194 
L 135.539399 324.524068 
L 135.994149 323.18993 
L 136.221523 323.211333 
L 136.448898 321.969942 
L 136.676272 322.565667 
L 136.903647 321.598952 
L 137.131022 322.230349 
L 137.585771 320.254111 
L 137.813145 320.286216 
L 138.267895 319.840314 
L 138.722644 321.484801 
L 138.950018 320.642938 
L 139.177393 320.446741 
L 139.404768 321.317142 
L 139.632142 320.539489 
L 139.859517 320.799895 
L 140.314266 318.969914 
L 140.541641 319.219619 
L 140.769015 318.909271 
L 140.99639 318.852196 
L 141.223764 319.319501 
L 141.451139 320.104288 
L 141.678514 320.065049 
L 142.133263 319.504996 
L 142.360637 319.654819 
L 142.588012 319.059094 
L 143.042761 319.943764 
L 143.270136 320.11499 
M 143.724885 320.286216 
L 143.95226 320.129259 
L 144.179634 320.46101 
M 145.771256 320.321889 
L 145.998631 319.059094 
L 146.226006 318.848628 
L 146.45338 318.252903 
L 146.680755 318.170858 
L 146.908129 318.698805 
L 147.135504 318.377756 
L 147.362879 318.598923 
L 147.590253 318.07811 
L 147.817628 316.640522 
L 148.045002 316.372981 
M 149.863999 318.873599 
L 150.318748 319.326635 
L 150.546123 319.126871 
L 150.773498 320.214872 
L 151.228247 319.804642 
L 151.455621 320.382531 
L 151.682996 320.329023 
M 152.137745 320.411069 
L 152.36512 320.368262 
L 152.592494 320.468144 
L 153.047244 319.676222 
L 153.274618 320.507384 
L 153.501993 319.034124 
L 153.729367 318.791553 
L 153.956742 318.363487 
L 154.184117 318.524012 
L 154.411491 318.402727 
L 154.638866 318.427697 
L 155.093615 318.031736 
L 155.548364 319.676222 
L 155.775739 318.887868 
L 156.003113 318.827225 
L 156.230488 319.055527 
L 156.457862 319.073363 
L 156.685237 318.516877 
L 156.912612 319.048393 
L 157.139986 318.120916 
L 157.367361 318.809389 
L 157.594735 319.134006 
L 157.82211 318.919973 
L 158.049485 317.971093 
L 158.276859 318.602491 
L 158.504234 318.277874 
L 158.731608 318.345651 
L 159.186358 319.697626 
L 159.413732 319.002019 
L 159.641107 320.321889 
L 159.868481 319.883121 
L 160.095856 320.24341 
L 160.323231 319.373009 
L 160.550605 320.571594 
L 160.77798 320.675043 
L 161.005354 319.865285 
L 161.232729 319.936629 
L 161.460104 321.270768 
L 161.687478 319.733298 
L 161.914853 321.392053 
M 166.23497 306.473958 
L 166.462345 306.274194 
L 166.689719 305.439465 
M 168.963465 304.800933 
L 169.19084 304.658245 
L 169.418215 303.7165 
L 169.645589 303.7165 
L 169.872964 303.384749 
L 170.100338 303.399018 
L 170.555088 302.168328 
L 170.782462 302.33242 
L 171.009837 301.544066 
L 171.237211 301.633246 
L 171.464586 301.262256 
L 171.691961 302.125522 
L 171.919335 301.626112 
L 172.14671 303.887726 
L 172.374084 303.916264 
L 172.601459 305.089878 
L 173.056208 301.255121 
L 173.283583 302.143358 
L 173.510957 301.237285 
L 173.738332 300.862727 
M 174.193081 300.377586 
L 174.64783 301.116 
L 174.875205 301.954295 
L 175.102579 300.948341 
L 175.329954 303.035162 
L 175.557329 303.630887 
M 176.239452 302.55002 
L 176.466827 302.731948 
L 176.694202 302.46084 
L 176.921576 304.322927 
M 177.376325 304.540527 
L 177.6037 303.866323 
L 178.285824 303.349077 
L 178.513198 303.976907 
M 179.877446 302.813994 
L 180.332195 298.529768 
L 180.55957 300.092209 
M 181.014319 301.116 
L 181.241694 300.602321 
L 181.469068 298.847251 
L 181.696443 299.303854 
L 181.923817 298.86152 
L 182.151192 299.485782 
L 182.378567 299.492917 
L 182.605941 298.101703 
L 182.833316 298.098135 
L 183.06069 298.290765 
L 183.51544 297.834161 
L 183.742814 298.704562 
L 183.970189 296.214646 
L 184.424938 297.834161 
L 184.652313 297.698607 
L 184.879687 299.407304 
L 185.107062 298.665323 
L 185.334436 300.884131 
L 185.561811 301.044655 
L 185.789186 299.32169 
L 186.01656 300.944773 
L 186.243935 299.521454 
L 186.471309 301.133836 
L 186.698684 300.003029 
L 186.926059 300.156419 
L 187.153433 299.300287 
L 187.380808 299.771159 
L 187.608182 299.742622 
L 187.835557 301.697456 
L 188.290306 301.968564 
L 188.517681 301.797338 
L 188.97243 302.482243 
L 189.199805 302.325286 
L 189.427179 302.453706 
L 189.881928 300.598754 
L 190.336678 300.827055 
L 190.564052 301.868682 
L 190.791427 301.982833 
L 191.018801 301.7688 
L 191.246176 301.811607 
L 191.473551 303.423988 
M 191.9283 302.239673 
L 192.155674 298.444155 
L 193.065173 300.213494 
L 193.292547 299.400169 
M 194.202046 301.369272 
L 194.42942 301.783069 
L 194.656795 300.484603 
L 194.884169 296.360901 
L 195.338919 297.473873 
L 195.566293 297.530948 
L 195.793668 295.604652 
L 196.021042 296.218213 
L 196.248417 295.604652 
L 196.475792 295.37635 
L 196.930541 296.50359 
L 197.157915 296.146868 
L 197.38529 297.687906 
L 197.612665 296.332364 
L 197.840039 296.232482 
L 198.067414 297.488142 
L 198.294788 296.87458 
L 198.749538 297.102882 
L 198.976912 298.158778 
L 199.204287 297.930476 
L 199.431661 298.915028 
L 199.659036 298.529768 
L 199.886411 296.1326 
L 200.113785 296.118331 
L 200.34116 296.560665 
L 200.568534 297.645099 
L 200.795909 297.017269 
L 201.023284 297.388259 
L 201.250658 296.318095 
L 201.478033 297.473873 
L 201.932782 296.432246 
L 202.160157 297.231302 
L 202.387531 297.573755 
L 202.614906 297.388259 
M 205.570776 294.791327 
L 205.79815 294.348992 
L 206.025525 291.752059 
L 206.252899 292.722341 
L 206.480274 292.793686 
L 206.707649 293.107601 
L 206.935023 288.755598 
L 207.162398 290.096871 
L 207.844522 286.501117 
L 208.071896 287.985079 
M 208.981395 290.496399 
L 209.208769 289.597461 
L 209.436144 289.35489 
L 209.663518 290.810314 
L 209.890893 290.553474 
L 210.345642 289.583192 
L 210.573017 289.312083 
L 210.800391 289.22647 
L 211.027766 289.326352 
L 211.255141 289.968451 
L 211.937264 299.928117 
L 212.164639 294.6201 
L 212.392013 292.180125 
L 212.619388 292.094512 
L 212.846763 293.7497 
L 213.074137 297.088613 
L 213.528886 295.033897 
L 213.756261 296.803236 
L 213.983636 294.848402 
L 214.21101 296.175406 
L 214.665759 294.520218 
L 214.893134 295.590383 
L 215.347883 294.192034 
L 215.575258 294.234841 
L 215.802632 295.904298 
L 216.030007 294.49168 
L 216.257382 295.24793 
L 216.484756 294.24911 
L 216.712131 295.262199 
L 216.939505 294.6201 
M 219.440626 288.484489 
L 219.668001 288.470221 
L 219.895375 289.611729 
L 220.350124 287.043334 
L 220.577499 285.630717 
L 221.032248 287.813853 
L 221.714372 283.932722 
L 221.941747 284.874467 
L 222.169121 282.948171 
L 222.396496 283.46185 
L 222.62387 284.788854 
M 223.07862 284.33225 
L 223.305994 283.690152 
L 223.533369 282.391685 
L 223.988118 284.132486 
L 224.215493 282.07777 
L 224.442867 282.505836 
L 224.670242 283.747227 
L 224.897616 284.032604 
L 225.124991 282.905364 
L 225.352366 283.005246 
L 225.57974 280.679422 
L 225.807115 281.121756 
L 226.034489 281.064681 
L 226.261864 281.178832 
L 226.716613 281.963619 
L 226.943988 281.564091 
L 227.171362 282.748407 
L 227.398737 281.464209 
L 227.853486 283.775765 
L 228.080861 280.765035 
L 228.762985 284.360788 
L 228.990359 284.018335 
L 229.217734 286.886377 
L 229.445108 285.801943 
L 229.672483 283.304892 
M 230.354607 286.586731 
L 230.581981 285.373877 
L 230.809356 285.074231 
L 231.03673 283.390506 
M 232.173603 284.831661 
L 232.400978 287.4714 
L 232.628353 286.658075 
L 233.310476 291.495219 
L 233.765226 288.812673 
L 233.9926 291.181304 
L 234.219975 290.182484 
L 234.447349 292.99345 
L 234.674724 293.62128 
L 234.902099 294.634369 
L 235.356848 291.752059 
L 235.584222 293.12187 
L 235.811597 292.922106 
L 236.038972 294.306185 
L 236.266346 296.560665 
L 236.493721 289.197932 
L 236.721095 289.35489 
L 236.94847 290.753238 
L 237.175845 289.35489 
L 237.403219 290.35371 
L 237.630594 293.407247 
L 237.857968 298.786608 
M 238.767467 295.005359 
L 239.222216 292.708073 
L 239.449591 293.835313 
L 239.676965 293.421516 
L 239.90434 291.23838 
L 240.131714 292.536846 
L 240.359089 292.964912 
L 240.586464 290.938734 
L 241.041213 292.194394 
L 241.268587 288.9839 
L 241.723337 290.025527 
L 241.950711 290.039795 
L 242.178086 292.836492 
M 246.270829 284.774585 
L 246.498203 284.432132 
L 246.725578 285.659255 
L 246.952952 283.889916 
L 247.180327 284.788854 
L 247.407702 284.146755 
L 247.635076 284.446401 
L 247.862451 283.447581 
L 248.3172 280.864917 
L 248.544575 281.221638 
L 248.771949 279.266804 
L 248.999324 280.265625 
L 249.226698 279.69487 
L 249.454073 280.208549 
L 249.908822 283.989798 
L 250.363571 283.105128 
L 250.590946 284.646165 
L 250.81832 285.273995 
L 251.045695 283.533194 
L 251.27307 285.34534 
L 251.500444 285.516566 
L 251.955193 284.58909 
L 252.182568 283.875647 
L 252.409943 282.477298 
L 252.637317 285.188382 
L 252.864692 284.346519 
L 253.092066 285.859019 
L 253.319441 284.474939 
M 254.228939 284.660434 
L 254.456314 285.316802 
L 254.683689 282.220459 
L 254.911063 282.677062 
L 255.138438 282.762676 
L 255.365812 281.820931 
L 255.593187 282.848289 
L 255.820562 282.448761 
M 257.184809 279.537913 
L 257.412184 281.07895 
L 257.639558 283.618807 
L 257.866933 283.376237 
L 258.094308 283.946991 
L 258.321682 283.690152 
L 258.549057 285.630717 
L 258.776431 285.131307 
L 259.003806 285.145576 
L 259.231181 286.287085 
L 259.458555 283.861378 
L 259.68593 288.398876 
M 260.140679 288.241919 
L 260.368054 285.987438 
M 261.959676 286.301353 
L 262.18705 284.931543 
L 262.414425 284.96008 
L 262.6418 283.989798 
L 262.869174 283.761496 
L 263.096549 283.747227 
L 263.323923 283.162204 
L 263.551298 282.248997 
L 263.778673 283.062322 
L 264.006047 281.464209 
L 264.233422 282.848289 
M 264.688171 283.433312 
L 264.915546 282.491567 
M 265.825044 283.176473 
L 266.279793 281.136025 
L 266.507168 281.407134 
L 266.734542 281.250176 
L 266.961917 281.792393 
L 267.189292 281.164563 
L 267.416666 281.307252 
L 267.644041 280.037323 
L 267.871415 280.180011 
M 268.553539 280.665153 
L 268.780914 279.82329 
L 269.008288 280.19428 
L 269.235663 280.921992 
L 269.463037 280.879186 
L 270.145161 279.666332 
L 270.372536 280.051592 
L 270.59991 279.480837 
L 271.282034 276.712678 
L 271.509409 277.097937 
L 271.736783 279.438031 
L 271.964158 277.097937 
L 272.191533 278.638974 
L 272.418907 279.209729 
L 272.646282 278.467748 
L 272.873656 278.382135 
L 273.101031 277.754305 
L 273.328406 277.797111 
L 273.55578 276.741216 
L 273.783155 276.541452 
L 274.237904 278.753125 
L 274.465279 278.253715 
L 274.692653 277.097937 
L 274.920028 278.596168 
L 275.147402 277.483196 
L 275.374777 277.254895 
L 275.602152 277.44039 
L 275.829526 276.55572 
L 276.056901 276.541452 
L 276.284275 277.226357 
L 276.51165 276.883904 
L 276.739025 278.424941 
L 276.966399 278.125295 
L 277.193774 278.667512 
L 277.421148 277.839918 
L 277.648523 278.267984 
L 277.875898 279.081309 
L 278.103272 277.326239 
L 278.558021 277.982607 
L 278.785396 276.81256 
L 279.012771 278.43921 
L 279.240145 278.838738 
L 279.46752 278.596168 
L 279.922269 277.754305 
L 280.377018 280.508195 
L 280.604393 280.408313 
L 280.831767 280.82211 
L 281.059142 277.754305 
L 281.286517 277.226357 
M 282.196015 283.647345 
L 282.42339 283.376237 
L 282.878139 279.809021 
L 283.105513 280.165743 
L 283.332888 278.924352 
L 283.560263 281.435671 
L 283.787637 281.94935 
L 284.015012 281.150294 
L 284.242386 282.648525 
L 284.469761 282.548643 
L 284.92451 287.856659 
L 285.151885 287.442862 
L 285.379259 285.174113 
L 285.606634 285.459491 
L 285.834009 282.320341 
L 286.061383 282.363147 
L 286.288758 282.562911 
L 286.516132 283.476119 
L 286.743507 282.477298 
L 286.970882 282.57718 
L 287.198256 282.049232 
M 290.154126 279.780483 
L 290.3815 278.182371 
L 290.83625 279.466568 
L 291.063624 278.767394 
L 291.290999 279.380955 
M 292.200497 278.867276 
L 292.427872 278.710319 
L 292.655246 278.267984 
L 293.109996 275.770933 
M 297.430113 270.206077 
L 297.884862 269.307138 
M 298.339611 270.006313 
L 298.566986 268.508082 
L 298.794361 269.16445 
L 299.24911 268.579426 
L 299.476484 268.4082 
L 299.703859 268.550889 
L 299.931234 268.336856 
L 300.385983 266.909969 
L 300.613357 267.709026 
L 300.840732 267.181078 
L 301.295481 266.724474 
L 301.75023 269.835086 
L 302.20498 268.693577 
L 302.432354 268.222705 
L 302.659729 268.565158 
L 303.114478 268.236974 
M 306.070348 267.452186 
L 306.297722 267.423649 
L 306.525097 265.426008 
L 306.752472 265.426008 
L 306.979846 264.427187 
L 307.207221 264.056197 
L 307.889344 265.326126 
L 308.116719 265.26905 
L 308.344094 263.442636 
L 308.571468 263.585325 
L 308.798843 263.328485 
M 311.299963 263.528249 
L 311.982087 260.203604 
L 312.209462 259.87542 
L 312.436836 260.403368 
L 312.664211 260.332024 
L 312.891586 259.604312 
L 313.11896 259.361741 
L 313.573709 257.720822 
L 313.801084 258.805256 
L 314.028459 258.37719 
L 314.255833 258.37719 
L 314.710582 262.072825 
L 314.937957 259.818345 
L 315.165332 259.475892 
L 315.392706 261.116811 
L 315.620081 261.116811 
L 315.847455 260.232142 
L 316.07483 260.817165 
L 316.302205 260.588863 
L 316.529579 261.430726 
L 316.756954 259.104902 
L 317.211703 260.075184 
L 317.439078 258.177426 
M 320.622322 255.295116 
L 320.849697 255.49488 
L 321.304446 252.270117 
L 321.53182 252.812333 
L 321.759195 251.585211 
L 321.98657 253.411626 
L 322.213944 254.010918 
L 322.441319 253.425895 
L 322.668693 251.556674 
L 322.896068 250.97165 
L 323.123443 251.956202 
L 323.350817 251.528136 
L 323.578192 250.672004 
L 324.032941 251.413985 
M 324.715065 250.129787 
L 325.169814 248.060802 
L 325.397189 249.71599 
L 325.624563 249.21658 
M 326.761436 248.017996 
L 326.988811 247.404435 
L 327.44356 247.475779 
L 327.670934 247.775425 
L 327.898309 247.233208 
L 328.125684 248.503137 
L 328.353058 248.260566 
L 328.580433 246.291463 
L 328.807807 246.476959 
L 329.035182 244.022714 
L 329.262557 243.937101 
L 329.489931 244.479318 
L 329.717306 244.122596 
L 330.172055 245.906204 
L 330.39943 245.07861 
L 330.626804 245.70644 
L 331.081553 244.864577 
M 332.218426 245.321181 
L 332.673176 244.821771 
M 333.582674 242.795592 
L 333.810049 242.367526 
L 334.037423 240.755145 
M 336.538544 238.814579 
L 336.765918 238.942999 
L 336.993293 238.472127 
L 337.220668 238.55774 
L 337.448042 237.002434 
L 337.675417 237.130854 
L 338.584915 235.004793 
L 339.267039 236.531562 
L 339.494414 235.703967 
L 339.721788 238.172481 
L 339.949163 237.073778 
L 340.176537 238.786042 
L 340.403912 238.600547 
L 340.631287 236.460217 
L 340.858661 237.359156 
L 341.086036 235.718236 
L 341.31341 235.133213 
L 341.540785 233.734864 
L 341.76816 238.728966 
L 341.995534 234.833567 
L 342.222909 237.487575 
M 343.132407 236.531562 
L 343.359782 234.819298 
L 343.587156 235.147482 
L 343.814531 233.592176 
L 344.041906 233.806209 
M 348.589397 224.13192 
L 348.816772 223.703854 
L 349.271521 219.822724 
L 349.498896 220.407747 
L 349.72627 218.081922 
L 349.953645 217.625319 
L 350.18102 217.768008 
L 350.408394 216.811994 
L 350.635769 215.242419 
L 351.090518 219.194894 
L 351.317893 218.224611 
L 351.545267 216.098551 
L 352.000016 229.582626 
L 352.227391 224.303146 
L 352.454766 224.75975 
L 352.68214 233.021421 
L 353.136889 226.443476 
L 353.364264 226.614702 
L 353.819013 221.007039 
L 354.046388 221.6206 
L 354.273762 221.392299 
L 354.501137 223.646779 
L 354.728512 223.718123 
L 355.183261 217.710932 
L 355.410635 219.451733 
L 355.63801 220.065294 
L 355.865385 223.689585 
L 356.092759 223.161637 
L 356.320134 221.577794 
L 356.547508 222.74784 
L 356.774883 221.6206 
L 357.002258 221.092652 
L 357.229632 217.825083 
L 357.457007 218.210342 
L 357.911756 220.578973 
L 358.366505 217.796545 
L 358.59388 219.680035 
L 358.821254 217.254328 
L 359.048629 219.665766 
L 359.503378 228.540999 
L 359.730753 223.347133 
L 359.958127 227.970244 
L 360.185502 228.555267 
L 360.412877 224.802557 
L 360.640251 226.557627 
L 361.322375 222.562345 
M 361.777124 225.986872 
L 362.004499 223.232982 
M 362.459248 222.733572 
L 362.686623 223.190175 
L 362.913997 221.577794 
L 363.141372 218.838172 
L 363.368746 217.86789 
L 363.596121 218.60987 
L 363.823496 218.267418 
M 364.732994 214.157985 
L 364.960368 215.684754 
L 365.415118 213.544424 
M 366.324616 211.047373 
L 367.234114 207.394545 
L 367.461489 208.264945 
L 367.688864 208.421903 
M 368.143613 210.09136 
L 368.370987 210.09136 
L 368.598362 209.049733 
L 368.825737 208.978388 
L 369.053111 207.308931 
L 369.280486 207.294663 
L 369.50786 208.165063 
M 369.96261 209.07827 
L 370.417359 208.778624 
L 370.644733 205.610937 
L 370.872108 204.911763 
L 371.099483 201.030632 
L 371.326857 204.512234 
L 371.554232 203.228037 
L 371.781606 204.412352 
L 372.008981 203.05681 
L 372.236356 203.713178 
L 372.46373 202.857046 
L 372.691105 202.714358 
L 372.918479 201.144783 
L 373.145854 202.700089 
L 373.373229 202.143603 
L 373.600603 203.527683 
L 373.827978 202.386174 
M 376.101724 202.115065 
L 376.556473 198.362355 
L 376.783848 195.865304 
L 377.011222 196.550209 
L 377.238597 197.92002 
L 377.693346 194.438418 
L 377.920721 195.53712 
L 378.148095 194.309998 
L 378.37547 195.679809 
L 378.602844 195.679809 
L 378.830219 191.955635 
L 379.057594 192.1554 
L 379.284968 194.709526 
M 379.967092 198.219666 
L 380.421841 195.979455 
M 382.240838 195.836766 
L 382.695587 193.824856 
L 382.922962 194.381342 
L 383.150336 195.66554 
L 383.605085 192.726154 
L 384.059835 188.017429 
L 384.287209 188.302807 
L 384.514584 185.691605 
L 384.741958 186.105402 
L 384.969333 185.891369 
L 385.196708 184.592903 
M 386.560955 186.347973 
L 386.78833 184.835473 
L 387.015704 184.535827 
L 387.243079 186.904458 
L 387.470454 184.835473 
L 387.697828 185.135119 
M 388.834701 182.49538 
L 389.062076 181.425215 
L 389.28945 181.325333 
L 389.516825 180.326513 
L 389.7442 181.924625 
L 389.971574 182.352691 
L 390.653698 193.0258 
L 390.881073 192.426508 
L 391.108447 202.115065 
L 391.335822 204.669192 
L 391.563196 195.637002 
L 391.790571 199.67509 
L 392.017946 193.239833 
L 392.24532 192.226744 
L 392.472695 196.735704 
L 392.927444 194.809408 
L 393.154819 196.978275 
L 393.382193 203.912942 
L 393.609568 194.980634 
L 394.291692 206.053272 
L 394.746441 194.5383 
L 394.973815 196.03653 
L 395.20119 196.007992 
L 395.428565 194.595375 
L 395.655939 188.902099 
L 395.883314 188.26 
L 396.110688 190.114952 
L 396.338063 196.122143 
L 396.565438 196.122143 
L 396.792812 196.450327 
L 397.020187 193.097144 
L 397.247561 195.465776 
L 397.474936 203.199499 
L 397.702311 205.182871 
L 397.929685 203.68464 
L 398.15706 205.896314 
L 398.384434 201.515773 
L 398.611809 201.55858 
L 398.839184 193.753512 
L 399.066558 197.006813 
M 399.748682 197.66318 
L 399.976057 194.224385 
L 400.203431 199.846316 
L 400.430806 198.747614 
L 400.65818 200.274382 
L 400.885555 198.861765 
L 401.11293 199.232755 
L 401.340304 202.728627 
L 401.567679 207.993837 
L 401.795053 206.19596 
L 402.022428 208.193601 
L 402.249802 211.760816 
L 402.477177 218.181805 
M 402.931926 209.663294 
L 403.159301 207.123436 
L 403.386675 208.650204 
L 403.841425 205.82497 
M 404.523548 201.344547 
L 404.750923 200.288651 
L 404.978298 197.991364 
L 405.205672 197.620374 
L 405.433047 198.490774 
L 405.660421 199.860585 
L 405.887796 199.518133 
L 406.342545 199.603746 
L 406.56992 197.862945 
L 406.797294 198.505043 
L 407.024669 199.989005 
L 407.479418 197.620374 
M 408.843666 193.582286 
L 409.07104 192.112593 
M 410.662663 191.213655 
L 410.890037 188.716604 
M 413.163783 184.364601 
L 413.391158 184.37887 
M 413.845907 185.976982 
L 414.073282 185.235001 
L 414.300656 180.497739 
L 414.98278 175.460831 
L 415.210155 173.662954 
L 415.892278 176.102929 
L 416.119653 173.177813 
M 419.302897 169.239607 
L 419.530272 170.238427 
L 419.757647 167.698569 
L 419.985021 166.55706 
L 420.212396 166.856707 
L 420.43977 166.55706 
L 420.667145 166.956589 
L 420.89452 166.614136 
L 421.121894 164.816259 
L 421.349269 165.05883 
L 421.576643 165.729466 
L 422.031392 161.263313 
L 422.258767 160.863784 
L 422.713516 165.586778 
L 422.940891 164.274043 
L 423.168265 163.93159 
L 423.39564 166.885244 
L 423.623015 166.100457 
L 423.850389 167.455999 
L 424.077764 166.171801 
L 424.305138 170.994677 
L 424.987262 160.235954 
L 425.442011 162.233595 
L 425.896761 161.134893 
L 426.124135 165.030292 
L 426.578884 161.891143 
L 426.806259 163.289491 
L 427.033634 163.246684 
M 427.943132 159.493974 
L 428.170507 157.310838 
L 428.397881 152.844684 
L 428.625256 151.745981 
L 428.85263 152.473693 
L 429.080005 150.647279 
M 433.172748 141.886197 
L 433.627497 137.59127 
L 433.854872 138.176293 
L 434.082246 137.833841 
L 434.309621 139.631717 
L 434.536995 139.860019 
L 434.76437 137.890916 
L 434.991745 139.731599 
L 435.219119 137.833841 
L 435.446494 137.362968 
L 435.673868 133.895635 
L 435.901243 136.378417 
L 436.128618 133.381956 
L 436.355992 134.066861 
L 436.583367 136.46403 
L 436.810741 141.500938 
L 437.038116 139.831481 
L 437.265491 142.328532 
L 437.492865 154.542678 
L 438.174989 138.789854 
L 438.402364 140.002708 
L 438.629738 143.869569 
L 438.857113 140.630538 
L 439.084487 147.907657 
L 439.539237 141.172754 
L 439.766611 139.018156 
L 439.993986 139.731599 
L 440.22136 137.305893 
L 440.448735 138.518746 
L 440.676109 145.453413 
L 440.903484 142.085962 
L 441.130859 140.958721 
L 441.358233 140.544924 
L 441.585608 136.977709 
L 441.812982 137.477119 
L 442.040357 139.788675 
L 442.267732 136.121577 
M 442.949855 136.435492 
L 443.17723 143.8553 
L 443.404605 145.810135 
M 443.859354 142.542565 
L 444.086728 144.197753 
L 444.314103 143.712612 
L 444.541478 145.3678 
L 444.768852 144.411786 
L 444.996227 147.12287 
L 445.223601 145.910017 
L 445.450976 146.523578 
L 445.678351 145.382069 
L 445.905725 144.854121 
L 446.360474 150.047987 
L 446.587849 146.794686 
L 446.815224 153.158599 
L 447.269973 144.383248 
L 447.497347 145.924286 
L 447.724722 149.462963 
L 447.952097 145.952823 
L 448.179471 145.952823 
L 448.406846 142.842211 
L 448.63422 142.414145 
L 448.861595 140.430774 
L 449.08897 141.686433 
L 449.316344 141.586551 
L 449.543719 144.768508 
L 449.771093 143.74115 
L 449.998468 151.688906 
L 450.225843 151.032538 
L 450.453217 144.126409 
L 450.907966 138.875468 
L 451.135341 142.028886 
L 451.362716 139.71733 
L 451.59009 140.273816 
L 451.817465 137.320162 
L 452.272214 143.826763 
M 453.181712 139.303533 
L 453.409087 139.018156 
L 453.636462 139.489029 
L 453.863836 139.003887 
L 454.091211 138.97535 
L 454.318585 139.132307 
L 454.54596 134.694691 
L 454.773335 136.278535 
L 455.000709 138.804123 
L 455.228084 139.403415 
L 455.910208 132.411673 
L 456.137582 132.211909 
M 458.183954 134.880186 
L 458.411328 131.31297 
L 458.638703 129.743396 
L 458.866077 130.770754 
M 462.504071 118.998942 
L 462.731445 116.773 
L 462.95882 115.745642 
L 463.186195 110.394818 
L 463.413569 108.753899 
L 463.868318 99.70744 
L 464.095693 98.83704 
L 464.550442 102.97501 
L 464.777817 107.698003 
L 465.005191 106.042815 
L 465.232566 103.174774 
L 465.459941 98.394705 
L 465.687315 111.579134 
L 465.91469 108.953663 
L 466.142064 105.029726 
L 466.369439 106.099891 
M 467.051563 101.562392 
L 467.278937 104.487509 
L 467.506312 99.493407 
L 467.733687 99.550483 
L 467.961061 95.426782 
M 468.41581 91.117585 
L 468.643185 93.771594 
M 469.097934 111.835973 
L 469.325309 126.661321 
L 469.552683 128.359316 
L 469.780058 138.632897 
L 470.007433 136.135846 
L 470.234807 121.053658 
L 470.462182 130.471108 
L 470.689556 118.256961 
L 470.916931 128.716038 
L 471.144306 132.425942 
L 471.37168 151.303647 
L 471.599055 134.937262 
L 472.053804 167.07074 
L 472.281179 144.597281 
L 472.508553 178.585711 
L 472.735928 170.19562 
L 472.963302 183.62262 
L 473.190677 178.243259 
L 473.418052 185.976982 
L 473.645426 201.801151 
L 473.872801 174.989958 
L 474.32755 154.514141 
L 474.554925 164.958948 
L 474.782299 159.237134 
L 475.009674 165.586778 
L 475.237048 177.016137 
L 475.464423 170.909064 
L 475.691798 178.814013 
L 475.919172 153.715084 
L 476.146547 154.927938 
L 476.373921 145.86721 
L 476.601296 147.650818 
L 476.828671 154.357183 
L 477.056045 146.323814 
L 477.28342 158.680648 
L 477.510794 163.731826 
L 477.738169 153.572396 
M 478.420293 157.78171 
L 478.647667 158.081356 
L 478.875042 156.740083 
L 479.102416 150.404708 
M 479.557166 136.093039 
L 480.011915 144.968272 
L 480.239289 144.140678 
L 480.466664 140.873108 
L 480.694039 140.387967 
L 481.148788 131.384315 
L 481.376162 133.567451 
M 482.513035 122.4092 
L 482.74041 125.291511 
L 482.967785 118.870522 
L 483.195159 123.493634 
L 483.422534 123.151181 
L 483.649908 119.78373 
L 483.877283 120.354484 
L 484.332032 116.901419 
L 484.559407 118.171348 
L 484.786781 115.303307 
L 485.014156 114.575595 
L 485.241531 119.184437 
L 485.468905 110.665927 
L 485.69628 110.680195 
L 485.923654 111.422176 
L 486.151029 109.424536 
L 486.378404 125.976416 
L 486.605778 121.15354 
L 486.833153 121.866984 
L 487.287902 119.298588 
L 487.515277 118.799178 
L 487.742651 121.239154 
L 488.1974 113.00602 
L 488.424775 122.366394 
L 488.65215 118.699296 
L 488.879524 125.41993 
L 489.334273 119.855074 
L 489.561648 118.984673 
L 490.016397 113.305666 
L 490.243772 118.385381 
L 490.471146 117.14399 
L 490.698521 121.224885 
L 490.925896 120.739743 
L 491.15327 125.776652 
L 491.608019 115.032199 
L 491.835394 119.384202 
L 492.062769 117.115452 
L 492.290143 112.292577 
L 492.517518 115.132081 
L 492.744892 111.736091 
L 492.972267 113.776539 
L 493.199642 117.029839 
L 493.427016 114.518519 
L 493.654391 114.76109 
L 493.881765 112.135619 
L 494.10914 118.585145 
M 496.610261 114.903779 
L 496.837635 110.922766 
L 497.06501 111.522058 
L 497.292384 108.696824 
L 497.519759 104.187863 
L 497.747133 104.216401 
L 498.429257 95.469588 
L 498.656632 94.370886 
L 498.884006 87.693058 
L 499.111381 93.001075 
L 499.338756 91.06051 
M 499.793505 97.32454 
L 500.248254 109.938215 
L 500.475629 104.316283 
L 500.703003 107.912036 
L 500.930378 109.139158 
L 501.157752 103.003548 
L 501.385127 102.418524 
L 501.612502 102.789515 
L 501.839876 102.589751 
L 502.067251 106.385268 
L 502.294625 113.748001 
L 502.522 109.310385 
L 502.749375 116.715924 
L 502.976749 116.501891 
L 503.204124 114.033378 
L 503.431498 109.652837 
L 503.658873 110.908497 
L 503.886248 110.152248 
L 504.113622 105.329372 
L 504.340997 108.026187 
L 504.568371 105.058264 
L 504.795746 109.467342 
M 506.159994 106.970291 
L 506.387368 110.75154 
L 506.614743 109.738451 
L 506.842117 114.432906 
L 507.296867 112.349652 
L 507.524241 112.977482 
L 507.751616 112.948945 
L 508.206365 124.29269 
M 509.570613 118.713565 
L 509.797987 113.476893 
L 510.025362 112.292577 
L 510.252736 92.016524 
L 510.480111 91.117585 
L 510.707486 91.987986 
L 510.93486 98.323361 
L 511.389609 91.987986 
L 512.299108 104.573122 
L 512.526482 98.466049 
L 512.981232 94.57065 
L 513.208606 94.413692 
L 513.435981 95.341168 
L 513.663355 94.128315 
L 513.89073 95.583739 
L 514.118105 98.623007 
L 514.345479 92.016524 
L 514.572854 92.05933 
L 514.800228 91.888104 
L 515.027603 96.439871 
M 515.709727 99.764516 
L 515.937101 98.180672 
L 516.164476 98.309092 
L 516.391851 94.156853 
L 516.619225 93.971358 
L 517.301349 102.546944 
L 517.983473 89.605086 
M 519.802469 91.716877 
L 520.029844 97.467229 
L 520.257219 96.768055 
L 520.484593 107.455433 
L 520.711968 107.840692 
L 520.939342 107.74081 
L 521.166717 101.533855 
L 521.394092 102.775246 
L 521.621466 107.227131 
L 521.848841 108.711092 
L 522.076215 107.2414 
L 522.30359 117.286679 
L 522.530965 112.649299 
L 522.758339 119.740923 
L 523.213088 106.385268 
M 523.667838 96.910743 
L 523.895212 97.595649 
L 524.122587 100.278195 
L 524.349961 100.806143 
L 524.577336 100.920294 
L 524.804711 94.898834 
L 525.032085 95.897654 
L 525.25946 98.83704 
L 525.486834 99.393525 
L 525.714209 96.768055 
M 526.168958 98.237748 
L 526.396333 92.829849 
L 526.623707 82.385041 
L 526.851082 90.489755 
L 527.078457 92.430321 
L 527.305831 86.380323 
L 527.76058 88.92018 
L 527.987955 93.700249 
L 528.442704 81.186457 
L 528.670079 81.058037 
L 528.897453 77.048487 
M 529.352203 75.350492 
L 529.579577 76.905798 
L 529.806952 74.865351 
L 530.261701 80.629971 
M 534.354444 78.746482 
L 534.581818 72.610871 
L 534.809193 72.425376 
L 535.036568 73.310045 
L 535.263942 76.891529 
L 535.491317 70.941414 
L 535.718691 70.770187 
L 535.946066 67.302854 
L 536.17344 66.817713 
L 536.400815 67.431274 
L 536.855564 57.514414 
L 537.082939 62.223139 
L 537.537688 64.406275 
L 537.765063 68.430094 
L 537.992437 65.419364 
L 538.219812 64.277855 
L 538.447186 73.053205 
L 538.674561 73.75238 
M 539.12931 76.235162 
L 539.356685 71.669126 
L 539.584059 72.382569 
L 539.811434 73.62396 
M 540.720932 68.273137 
L 540.948307 68.701202 
L 541.175682 71.483631 
L 541.403056 71.783277 
L 541.630431 71.155447 
L 541.857805 72.111461 
L 542.08518 67.787995 
L 542.312555 69.999669 
L 542.767304 65.419364 
L 542.994678 64.377737 
L 543.222053 64.006747 
L 543.676802 60.225498 
L 544.131551 63.050733 
L 544.358926 67.873608 
L 544.586301 64.235049 
L 544.813675 66.717831 
L 545.04105 61.138705 
L 545.268424 58.841419 
L 545.495799 60.625026 
L 545.950548 56.858047 
L 546.177923 61.466889 
L 546.405297 58.812881 
L 546.632672 61.852148 
L 546.860047 59.95439 
L 547.087421 54.988826 
L 547.314796 53.604746 
L 547.54217 53.033992 
L 547.769545 57.871136 
L 547.99692 55.217128 
L 548.224294 56.073259 
L 548.679043 44.486943 
L 548.906418 40.834114 
L 549.133793 41.447675 
L 549.361167 52.448968 
L 549.588542 49.181399 
L 549.815916 47.811588 
L 550.043291 47.126683 
M 551.634913 53.347907 
L 551.862288 57.186231 
L 552.089662 57.785523 
L 552.317037 52.734345 
M 552.771786 53.033992 
L 552.999161 55.787882 
L 553.45391 64.748728 
L 553.681285 63.521605 
M 554.136034 60.839059 
L 554.363408 64.977029 
L 554.590783 65.062643 
L 554.818157 65.362289 
L 555.045532 61.395545 
M 555.500281 63.607219 
L 555.727656 66.560873 
M 556.40978 68.587052 
L 556.637154 67.131628 
L 556.864529 75.607332 
L 557.319278 72.62514 
L 557.546653 68.60132 
L 557.774027 70.884338 
L 558.001402 74.565705 
L 558.228776 74.965233 
L 558.456151 77.248251 
L 558.9109 75.393299 
L 559.365649 81.500372 
L 559.593024 81.329146 
L 559.820399 77.647779 
L 560.275148 65.034105 
L 560.502522 67.873608 
L 560.729897 73.638229 
L 560.957272 72.040116 
L 561.184646 77.647779 
L 561.412021 66.646486 
L 561.639395 74.822544 
L 561.86677 75.464643 
L 562.094145 72.282687 
L 562.321519 66.518066 
M 562.776268 74.280328 
L 563.003643 75.792827 
L 563.231018 78.061576 
L 563.458392 74.180446 
M 563.913141 66.375378 
L 564.140516 62.280214 
L 564.595265 66.960401 
L 564.82264 65.547784 
L 565.050014 61.766535 
L 565.277389 64.705921 
L 565.504764 87.593176 
L 565.732138 96.06888 
L 565.959513 93.31499 
L 566.186887 92.330438 
L 566.414262 97.067701 
L 566.641637 98.551662 
L 566.869011 97.58138 
L 567.096386 86.323247 
M 568.005884 95.241286 
L 568.233259 92.858386 
L 568.460633 92.55874 
L 568.688008 88.449308 
L 568.915383 102.889397 
L 569.370132 108.882319 
L 569.597506 116.416278 
L 569.824881 112.264039 
L 570.052256 105.472061 
L 570.27963 113.462624 
L 570.507005 115.403189 
L 570.734379 118.998942 
M 571.871252 99.593289 
L 572.326002 93.857207 
L 572.553376 90.989165 
L 572.780751 94.385155 
M 573.2355 92.544471 
L 573.462875 89.605086 
L 573.917624 97.638455 
L 574.144998 88.163931 
L 574.372373 84.482564 
L 574.599747 86.394592 
L 574.827122 84.953437 
L 575.054497 84.354144 
L 575.281871 84.182918 
L 575.509246 84.610984 
L 575.73662 86.266172 
M 576.873493 85.90945 
L 577.100868 93.029613 
L 577.555617 87.693058 
L 577.782992 88.706147 
L 578.010366 89.17702 
L 578.237741 87.693058 
L 578.465116 89.162751 
L 578.69249 89.633624 
L 578.919865 101.648006 
L 578.919865 101.648006 
" clip-path="url(#p1586e8e60e)" style="fill: none; stroke: #1e90ff; stroke-linecap: square"/>
   </g>
   <g id="patch_3">
    <path d="M 46.965625 354.958125 
L 46.965625 22.318125 
" style="fill: none; stroke: #000000; stroke-width: 0.8; stroke-linejoin: miter; stroke-linecap: square"/>
   </g>
   <g id="patch_4">
    <path d="M 604.965625 354.958125 
L 604.965625 22.318125 
" style="fill: none; stroke: #000000; stroke-width: 0.8; stroke-linejoin: miter; stroke-linecap: square"/>
   </g>
   <g id="patch_5">
    <path d="M 46.965625 354.958125 
L 604.965625 354.958125 
" style="fill: none; stroke: #000000; stroke-width: 0.8; stroke-linejoin: miter; stroke-linecap: square"/>
   </g>
   <g id="patch_6">
    <path d="M 46.965625 22.318125 
L 604.965625 22.318125 
" style="fill: none; stroke: #000000; stroke-width: 0.8; stroke-linejoin: miter; stroke-linecap: square"/>
   </g>
   <g id="text_13">
    <!-- V, Relative Strength Index (RSI), V -->
    <g transform="translate(223.31125 16.318125)scale(0.12 -0.12)">
     <defs>
      <path id="DejaVuSans-56" d="M 1831 0 
L 50 4666 
L 709 4666 
L 2188 738 
L 3669 4666 
L 4325 4666 
L 2547 0 
L 1831 0 
z
" transform="scale(0.015625)"/>
      <path id="DejaVuSans-2c" d="M 750 794 
L 1409 794 
L 1409 256 
L 897 -744 
L 494 -744 
L 750 256 
L 750 794 
z
" transform="scale(0.015625)"/>
      <path id="DejaVuSans-52" d="M 2841 2188 
Q 3044 2119 3236 1894 
Q 3428 1669 3622 1275 
L 4263 0 
L 3584 0 
L 2988 1197 
Q 2756 1666 2539 1819 
Q 2322 1972 1947 1972 
L 1259 1972 
L 1259 0 
L 628 0 
L 628 4666 
L 2053 4666 
Q 2853 4666 3247 4331 
Q 3641 3997 3641 3322 
Q 3641 2881 3436 2590 
Q 3231 2300 2841 2188 
z
M 1259 4147 
L 1259 2491 
L 2053 2491 
Q 2509 2491 2742 2702 
Q 2975 2913 2975 3322 
Q 2975 3731 2742 3939 
Q 2509 4147 2053 4147 
L 1259 4147 
z
" transform="scale(0.015625)"/>
      <path id="DejaVuSans-6c" d="M 603 4863 
L 1178 4863 
L 1178 0 
L 603 0 
L 603 4863 
z
" transform="scale(0.015625)"/>
      <path id="DejaVuSans-76" d="M 191 3500 
L 800 3500 
L 1894 563 
L 2988 3500 
L 3597 3500 
L 2284 0 
L 1503 0 
L 191 3500 
z
" transform="scale(0.015625)"/>
      <path id="DejaVuSans-6e" d="M 3513 2113 
L 3513 0 
L 2938 0 
L 2938 2094 
Q 2938 2591 2744 2837 
Q 2550 3084 2163 3084 
Q 1697 3084 1428 2787 
Q 1159 2491 1159 1978 
L 1159 0 
L 581 0 
L 581 3500 
L 1159 3500 
L 1159 2956 
Q 1366 3272 1645 3428 
Q 1925 3584 2291 3584 
Q 2894 3584 3203 3211 
Q 3513 2838 3513 2113 
z
" transform="scale(0.015625)"/>
      <path id="DejaVuSans-67" d="M 2906 1791 
Q 2906 2416 2648 2759 
Q 2391 3103 1925 3103 
Q 1463 3103 1205 2759 
Q 947 2416 947 1791 
Q 947 1169 1205 825 
Q 1463 481 1925 481 
Q 2391 481 2648 825 
Q 2906 1169 2906 1791 
z
M 3481 434 
Q 3481 -459 3084 -895 
Q 2688 -1331 1869 -1331 
Q 1566 -1331 1297 -1286 
Q 1028 -1241 775 -1147 
L 775 -588 
Q 1028 -725 1275 -790 
Q 1522 -856 1778 -856 
Q 2344 -856 2625 -561 
Q 2906 -266 2906 331 
L 2906 616 
Q 2728 306 2450 153 
Q 2172 0 1784 0 
Q 1141 0 747 490 
Q 353 981 353 1791 
Q 353 2603 747 3093 
Q 1141 3584 1784 3584 
Q 2172 3584 2450 3431 
Q 2728 3278 2906 2969 
L 2906 3500 
L 3481 3500 
L 3481 434 
z
" transform="scale(0.015625)"/>
      <path id="DejaVuSans-68" d="M 3513 2113 
L 3513 0 
L 2938 0 
L 2938 2094 
Q 2938 2591 2744 2837 
Q 2550 3084 2163 3084 
Q 1697 3084 1428 2787 
Q 1159 2491 1159 1978 
L 1159 0 
L 581 0 
L 581 4863 
L 1159 4863 
L 1159 2956 
Q 1366 3272 1645 3428 
Q 1925 3584 2291 3584 
Q 2894 3584 3203 3211 
Q 3513 2838 3513 2113 
z
" transform="scale(0.015625)"/>
      <path id="DejaVuSans-49" d="M 628 4666 
L 1259 4666 
L 1259 0 
L 628 0 
L 628 4666 
z
" transform="scale(0.015625)"/>
      <path id="DejaVuSans-64" d="M 2906 2969 
L 2906 4863 
L 3481 4863 
L 3481 0 
L 2906 0 
L 2906 525 
Q 2725 213 2448 61 
Q 2172 -91 1784 -91 
Q 1150 -91 751 415 
Q 353 922 353 1747 
Q 353 2572 751 3078 
Q 1150 3584 1784 3584 
Q 2172 3584 2448 3432 
Q 2725 3281 2906 2969 
z
M 947 1747 
Q 947 1113 1208 752 
Q 1469 391 1925 391 
Q 2381 391 2643 752 
Q 2906 1113 2906 1747 
Q 2906 2381 2643 2742 
Q 2381 3103 1925 3103 
Q 1469 3103 1208 2742 
Q 947 2381 947 1747 
z
" transform="scale(0.015625)"/>
      <path id="DejaVuSans-78" d="M 3513 3500 
L 2247 1797 
L 3578 0 
L 2900 0 
L 1881 1375 
L 863 0 
L 184 0 
L 1544 1831 
L 300 3500 
L 978 3500 
L 1906 2253 
L 2834 3500 
L 3513 3500 
z
" transform="scale(0.015625)"/>
     </defs>
     <use xlink:href="#DejaVuSans-56"/>
     <use xlink:href="#DejaVuSans-2c" x="68.408203"/>
     <use xlink:href="#DejaVuSans-20" x="100.195312"/>
     <use xlink:href="#DejaVuSans-52" x="131.982422"/>
     <use xlink:href="#DejaVuSans-65" x="196.964844"/>
     <use xlink:href="#DejaVuSans-6c" x="258.488281"/>
     <use xlink:href="#DejaVuSans-61" x="286.271484"/>
     <use xlink:href="#DejaVuSans-74" x="347.550781"/>
     <use xlink:href="#DejaVuSans-69" x="386.759766"/>
     <use xlink:href="#DejaVuSans-76" x="414.542969"/>
     <use xlink:href="#DejaVuSans-65" x="473.722656"/>
     <use xlink:href="#DejaVuSans-20" x="535.246094"/>
     <use xlink:href="#DejaVuSans-53" x="567.033203"/>
     <use xlink:href="#DejaVuSans-74" x="630.509766"/>
     <use xlink:href="#DejaVuSans-72" x="669.71875"/>
     <use xlink:href="#DejaVuSans-65" x="708.582031"/>
     <use xlink:href="#DejaVuSans-6e" x="770.105469"/>
     <use xlink:href="#DejaVuSans-67" x="833.484375"/>
     <use xlink:href="#DejaVuSans-74" x="896.960938"/>
     <use xlink:href="#DejaVuSans-68" x="936.169922"/>
     <use xlink:href="#DejaVuSans-20" x="999.548828"/>
     <use xlink:href="#DejaVuSans-49" x="1031.335938"/>
     <use xlink:href="#DejaVuSans-6e" x="1060.828125"/>
     <use xlink:href="#DejaVuSans-64" x="1124.207031"/>
     <use xlink:href="#DejaVuSans-65" x="1187.683594"/>
     <use xlink:href="#DejaVuSans-78" x="1247.457031"/>
     <use xlink:href="#DejaVuSans-20" x="1306.636719"/>
     <use xlink:href="#DejaVuSans-28" x="1338.423828"/>
     <use xlink:href="#DejaVuSans-52" x="1377.4375"/>
     <use xlink:href="#DejaVuSans-53" x="1446.919922"/>
     <use xlink:href="#DejaVuSans-49" x="1510.396484"/>
     <use xlink:href="#DejaVuSans-29" x="1539.888672"/>
     <use xlink:href="#DejaVuSans-2c" x="1578.902344"/>
     <use xlink:href="#DejaVuSans-20" x="1610.689453"/>
     <use xlink:href="#DejaVuSans-56" x="1642.476562"/>
    </g>
   </g>
   <g id="legend_1">
    <g id="patch_7">
     <path d="M 53.965625 74.3525 
L 203.875 74.3525 
Q 205.875 74.3525 205.875 72.3525 
L 205.875 29.318125 
Q 205.875 27.318125 203.875 27.318125 
L 53.965625 27.318125 
Q 51.965625 27.318125 51.965625 29.318125 
L 51.965625 72.3525 
Q 51.965625 74.3525 53.965625 74.3525 
z
" style="fill: #ffffff; opacity: 0.8; stroke: #cccccc; stroke-linejoin: miter"/>
    </g>
    <g id="line2d_19">
     <path d="M 55.965625 35.416562 
L 65.965625 35.416562 
L 75.965625 35.416562 
" style="fill: none; stroke: #00ff7f; stroke-linecap: square"/>
    </g>
    <g id="text_14">
     <!-- Oversold, RSI &lt;= 30 -->
     <g transform="translate(83.965625 38.916562)scale(0.1 -0.1)">
      <defs>
       <path id="DejaVuSans-4f" d="M 2522 4238 
Q 1834 4238 1429 3725 
Q 1025 3213 1025 2328 
Q 1025 1447 1429 934 
Q 1834 422 2522 422 
Q 3209 422 3611 934 
Q 4013 1447 4013 2328 
Q 4013 3213 3611 3725 
Q 3209 4238 2522 4238 
z
M 2522 4750 
Q 3503 4750 4090 4092 
Q 4678 3434 4678 2328 
Q 4678 1225 4090 567 
Q 3503 -91 2522 -91 
Q 1538 -91 948 565 
Q 359 1222 359 2328 
Q 359 3434 948 4092 
Q 1538 4750 2522 4750 
z
" transform="scale(0.015625)"/>
       <path id="DejaVuSans-73" d="M 2834 3397 
L 2834 2853 
Q 2591 2978 2328 3040 
Q 2066 3103 1784 3103 
Q 1356 3103 1142 2972 
Q 928 2841 928 2578 
Q 928 2378 1081 2264 
Q 1234 2150 1697 2047 
L 1894 2003 
Q 2506 1872 2764 1633 
Q 3022 1394 3022 966 
Q 3022 478 2636 193 
Q 2250 -91 1575 -91 
Q 1294 -91 989 -36 
Q 684 19 347 128 
L 347 722 
Q 666 556 975 473 
Q 1284 391 1588 391 
Q 1994 391 2212 530 
Q 2431 669 2431 922 
Q 2431 1156 2273 1281 
Q 2116 1406 1581 1522 
L 1381 1569 
Q 847 1681 609 1914 
Q 372 2147 372 2553 
Q 372 3047 722 3315 
Q 1072 3584 1716 3584 
Q 2034 3584 2315 3537 
Q 2597 3491 2834 3397 
z
" transform="scale(0.015625)"/>
       <path id="DejaVuSans-6f" d="M 1959 3097 
Q 1497 3097 1228 2736 
Q 959 2375 959 1747 
Q 959 1119 1226 758 
Q 1494 397 1959 397 
Q 2419 397 2687 759 
Q 2956 1122 2956 1747 
Q 2956 2369 2687 2733 
Q 2419 3097 1959 3097 
z
M 1959 3584 
Q 2709 3584 3137 3096 
Q 3566 2609 3566 1747 
Q 3566 888 3137 398 
Q 2709 -91 1959 -91 
Q 1206 -91 779 398 
Q 353 888 353 1747 
Q 353 2609 779 3096 
Q 1206 3584 1959 3584 
z
" transform="scale(0.015625)"/>
       <path id="DejaVuSans-3c" d="M 4684 3150 
L 1459 2003 
L 4684 863 
L 4684 294 
L 678 1747 
L 678 2266 
L 4684 3719 
L 4684 3150 
z
" transform="scale(0.015625)"/>
       <path id="DejaVuSans-3d" d="M 678 2906 
L 4684 2906 
L 4684 2381 
L 678 2381 
L 678 2906 
z
M 678 1631 
L 4684 1631 
L 4684 1100 
L 678 1100 
L 678 1631 
z
" transform="scale(0.015625)"/>
       <path id="DejaVuSans-33" d="M 2597 2516 
Q 3050 2419 3304 2112 
Q 3559 1806 3559 1356 
Q 3559 666 3084 287 
Q 2609 -91 1734 -91 
Q 1441 -91 1130 -33 
Q 819 25 488 141 
L 488 750 
Q 750 597 1062 519 
Q 1375 441 1716 441 
Q 2309 441 2620 675 
Q 2931 909 2931 1356 
Q 2931 1769 2642 2001 
Q 2353 2234 1838 2234 
L 1294 2234 
L 1294 2753 
L 1863 2753 
Q 2328 2753 2575 2939 
Q 2822 3125 2822 3475 
Q 2822 3834 2567 4026 
Q 2313 4219 1838 4219 
Q 1578 4219 1281 4162 
Q 984 4106 628 3988 
L 628 4550 
Q 988 4650 1302 4700 
Q 1616 4750 1894 4750 
Q 2613 4750 3031 4423 
Q 3450 4097 3450 3541 
Q 3450 3153 3228 2886 
Q 3006 2619 2597 2516 
z
" transform="scale(0.015625)"/>
      </defs>
      <use xlink:href="#DejaVuSans-4f"/>
      <use xlink:href="#DejaVuSans-76" x="78.710938"/>
      <use xlink:href="#DejaVuSans-65" x="137.890625"/>
      <use xlink:href="#DejaVuSans-72" x="199.414062"/>
      <use xlink:href="#DejaVuSans-73" x="240.527344"/>
      <use xlink:href="#DejaVuSans-6f" x="292.626953"/>
      <use xlink:href="#DejaVuSans-6c" x="353.808594"/>
      <use xlink:href="#DejaVuSans-64" x="381.591797"/>
      <use xlink:href="#DejaVuSans-2c" x="445.068359"/>
      <use xlink:href="#DejaVuSans-20" x="476.855469"/>
      <use xlink:href="#DejaVuSans-52" x="508.642578"/>
      <use xlink:href="#DejaVuSans-53" x="578.125"/>
      <use xlink:href="#DejaVuSans-49" x="641.601562"/>
      <use xlink:href="#DejaVuSans-20" x="671.09375"/>
      <use xlink:href="#DejaVuSans-3c" x="702.880859"/>
      <use xlink:href="#DejaVuSans-3d" x="786.669922"/>
      <use xlink:href="#DejaVuSans-20" x="870.458984"/>
      <use xlink:href="#DejaVuSans-33" x="902.246094"/>
      <use xlink:href="#DejaVuSans-30" x="965.869141"/>
     </g>
    </g>
    <g id="line2d_20">
     <path d="M 55.965625 50.094687 
L 65.965625 50.094687 
L 75.965625 50.094687 
" style="fill: none; stroke: #ff4500; stroke-linecap: square"/>
    </g>
    <g id="text_15">
     <!-- Overbought, RSI &gt;= 70 -->
     <g transform="translate(83.965625 53.594687)scale(0.1 -0.1)">
      <defs>
       <path id="DejaVuSans-62" d="M 3116 1747 
Q 3116 2381 2855 2742 
Q 2594 3103 2138 3103 
Q 1681 3103 1420 2742 
Q 1159 2381 1159 1747 
Q 1159 1113 1420 752 
Q 1681 391 2138 391 
Q 2594 391 2855 752 
Q 3116 1113 3116 1747 
z
M 1159 2969 
Q 1341 3281 1617 3432 
Q 1894 3584 2278 3584 
Q 2916 3584 3314 3078 
Q 3713 2572 3713 1747 
Q 3713 922 3314 415 
Q 2916 -91 2278 -91 
Q 1894 -91 1617 61 
Q 1341 213 1159 525 
L 1159 0 
L 581 0 
L 581 4863 
L 1159 4863 
L 1159 2969 
z
" transform="scale(0.015625)"/>
       <path id="DejaVuSans-75" d="M 544 1381 
L 544 3500 
L 1119 3500 
L 1119 1403 
Q 1119 906 1312 657 
Q 1506 409 1894 409 
Q 2359 409 2629 706 
Q 2900 1003 2900 1516 
L 2900 3500 
L 3475 3500 
L 3475 0 
L 2900 0 
L 2900 538 
Q 2691 219 2414 64 
Q 2138 -91 1772 -91 
Q 1169 -91 856 284 
Q 544 659 544 1381 
z
M 1991 3584 
L 1991 3584 
z
" transform="scale(0.015625)"/>
       <path id="DejaVuSans-3e" d="M 678 3150 
L 678 3719 
L 4684 2266 
L 4684 1747 
L 678 294 
L 678 863 
L 3897 2003 
L 678 3150 
z
" transform="scale(0.015625)"/>
       <path id="DejaVuSans-37" d="M 525 4666 
L 3525 4666 
L 3525 4397 
L 1831 0 
L 1172 0 
L 2766 4134 
L 525 4134 
L 525 4666 
z
" transform="scale(0.015625)"/>
      </defs>
      <use xlink:href="#DejaVuSans-4f"/>
      <use xlink:href="#DejaVuSans-76" x="78.710938"/>
      <use xlink:href="#DejaVuSans-65" x="137.890625"/>
      <use xlink:href="#DejaVuSans-72" x="199.414062"/>
      <use xlink:href="#DejaVuSans-62" x="240.527344"/>
      <use xlink:href="#DejaVuSans-6f" x="304.003906"/>
      <use xlink:href="#DejaVuSans-75" x="365.185547"/>
      <use xlink:href="#DejaVuSans-67" x="428.564453"/>
      <use xlink:href="#DejaVuSans-68" x="492.041016"/>
      <use xlink:href="#DejaVuSans-74" x="555.419922"/>
      <use xlink:href="#DejaVuSans-2c" x="594.628906"/>
      <use xlink:href="#DejaVuSans-20" x="626.416016"/>
      <use xlink:href="#DejaVuSans-52" x="658.203125"/>
      <use xlink:href="#DejaVuSans-53" x="727.685547"/>
      <use xlink:href="#DejaVuSans-49" x="791.162109"/>
      <use xlink:href="#DejaVuSans-20" x="820.654297"/>
      <use xlink:href="#DejaVuSans-3e" x="852.441406"/>
      <use xlink:href="#DejaVuSans-3d" x="936.230469"/>
      <use xlink:href="#DejaVuSans-20" x="1020.019531"/>
      <use xlink:href="#DejaVuSans-37" x="1051.806641"/>
      <use xlink:href="#DejaVuSans-30" x="1115.429688"/>
     </g>
    </g>
    <g id="line2d_21">
     <path d="M 55.965625 64.772812 
L 65.965625 64.772812 
L 75.965625 64.772812 
" style="fill: none; stroke: #1e90ff; stroke-linecap: square"/>
    </g>
    <g id="text_16">
     <!-- Neutral -->
     <g transform="translate(83.965625 68.272812)scale(0.1 -0.1)">
      <defs>
       <path id="DejaVuSans-4e" d="M 628 4666 
L 1478 4666 
L 3547 763 
L 3547 4666 
L 4159 4666 
L 4159 0 
L 3309 0 
L 1241 3903 
L 1241 0 
L 628 0 
L 628 4666 
z
" transform="scale(0.015625)"/>
      </defs>
      <use xlink:href="#DejaVuSans-4e"/>
      <use xlink:href="#DejaVuSans-65" x="74.804688"/>
      <use xlink:href="#DejaVuSans-75" x="136.328125"/>
      <use xlink:href="#DejaVuSans-74" x="199.707031"/>
      <use xlink:href="#DejaVuSans-72" x="238.916016"/>
      <use xlink:href="#DejaVuSans-61" x="280.029297"/>
      <use xlink:href="#DejaVuSans-6c" x="341.308594"/>
     </g>
    </g>
   </g>
  </g>
 </g>
 <defs>
  <clipPath id="p1586e8e60e">
   <rect x="46.965625" y="22.318125" width="558" height="332.64"/>
  </clipPath>
 </defs>
</svg>
