<?xml version="1.0" encoding="utf-8" standalone="no"?>
<!DOCTYPE svg PUBLIC "-//W3C//DTD SVG 1.1//EN"
  "http://www.w3.org/Graphics/SVG/1.1/DTD/svg11.dtd">
<svg xmlns:xlink="http://www.w3.org/1999/xlink" width="612.165625pt" height="392.514375pt" viewBox="0 0 612.165625 392.514375" xmlns="http://www.w3.org/2000/svg" version="1.1">
 <metadata>
  <rdf:RDF xmlns:dc="http://purl.org/dc/elements/1.1/" xmlns:cc="http://creativecommons.org/ns#" xmlns:rdf="http://www.w3.org/1999/02/22-rdf-syntax-ns#">
   <cc:Work>
    <dc:type rdf:resource="http://purl.org/dc/dcmitype/StillImage"/>
    <dc:date>2023-04-24T17:59:47.854918</dc:date>
    <dc:format>image/svg+xml</dc:format>
    <dc:creator>
     <cc:Agent>
      <dc:title>Matplotlib v3.5.1, https://matplotlib.org/</dc:title>
     </cc:Agent>
    </dc:creator>
   </cc:Work>
  </rdf:RDF>
 </metadata>
 <defs>
  <style type="text/css">*{stroke-linejoin: round; stroke-linecap: butt}</style>
 </defs>
 <g id="figure_1">
  <g id="patch_1">
   <path d="M 0 392.514375 
L 612.165625 392.514375 
L 612.165625 0 
L 0 0 
z
" style="fill: #ffffff"/>
  </g>
  <g id="axes_1">
   <g id="patch_2">
    <path d="M 46.965625 354.958125 
L 604.965625 354.958125 
L 604.965625 22.318125 
L 46.965625 22.318125 
z
" style="fill: #ffffff"/>
   </g>
   <g id="matplotlib.axis_1">
    <g id="xtick_1">
     <g id="line2d_1">
      <defs>
       <path id="me31215a471" d="M 0 0 
L 0 3.5 
" style="stroke: #000000; stroke-width: 0.8"/>
      </defs>
      <g>
       <use xlink:href="#me31215a471" x="72.329261" y="354.958125" style="stroke: #000000; stroke-width: 0.8"/>
      </g>
     </g>
     <g id="text_1">
      <!-- 0 -->
      <g transform="translate(69.148011 369.556562)scale(0.1 -0.1)">
       <defs>
        <path id="DejaVuSans-30" d="M 2034 4250 
Q 1547 4250 1301 3770 
Q 1056 3291 1056 2328 
Q 1056 1369 1301 889 
Q 1547 409 2034 409 
Q 2525 409 2770 889 
Q 3016 1369 3016 2328 
Q 3016 3291 2770 3770 
Q 2525 4250 2034 4250 
z
M 2034 4750 
Q 2819 4750 3233 4129 
Q 3647 3509 3647 2328 
Q 3647 1150 3233 529 
Q 2819 -91 2034 -91 
Q 1250 -91 836 529 
Q 422 1150 422 2328 
Q 422 3509 836 4129 
Q 1250 4750 2034 4750 
z
" transform="scale(0.015625)"/>
       </defs>
       <use xlink:href="#DejaVuSans-30"/>
      </g>
     </g>
    </g>
    <g id="xtick_2">
     <g id="line2d_2">
      <g>
       <use xlink:href="#me31215a471" x="188.092093" y="354.958125" style="stroke: #000000; stroke-width: 0.8"/>
      </g>
     </g>
     <g id="text_2">
      <!-- 500 -->
      <g transform="translate(178.548343 369.556562)scale(0.1 -0.1)">
       <defs>
        <path id="DejaVuSans-35" d="M 691 4666 
L 3169 4666 
L 3169 4134 
L 1269 4134 
L 1269 2991 
Q 1406 3038 1543 3061 
Q 1681 3084 1819 3084 
Q 2600 3084 3056 2656 
Q 3513 2228 3513 1497 
Q 3513 744 3044 326 
Q 2575 -91 1722 -91 
Q 1428 -91 1123 -41 
Q 819 9 494 109 
L 494 744 
Q 775 591 1075 516 
Q 1375 441 1709 441 
Q 2250 441 2565 725 
Q 2881 1009 2881 1497 
Q 2881 1984 2565 2268 
Q 2250 2553 1709 2553 
Q 1456 2553 1204 2497 
Q 953 2441 691 2322 
L 691 4666 
z
" transform="scale(0.015625)"/>
       </defs>
       <use xlink:href="#DejaVuSans-35"/>
       <use xlink:href="#DejaVuSans-30" x="63.623047"/>
       <use xlink:href="#DejaVuSans-30" x="127.246094"/>
      </g>
     </g>
    </g>
    <g id="xtick_3">
     <g id="line2d_3">
      <g>
       <use xlink:href="#me31215a471" x="303.854924" y="354.958125" style="stroke: #000000; stroke-width: 0.8"/>
      </g>
     </g>
     <g id="text_3">
      <!-- 1000 -->
      <g transform="translate(291.129924 369.556562)scale(0.1 -0.1)">
       <defs>
        <path id="DejaVuSans-31" d="M 794 531 
L 1825 531 
L 1825 4091 
L 703 3866 
L 703 4441 
L 1819 4666 
L 2450 4666 
L 2450 531 
L 3481 531 
L 3481 0 
L 794 0 
L 794 531 
z
" transform="scale(0.015625)"/>
       </defs>
       <use xlink:href="#DejaVuSans-31"/>
       <use xlink:href="#DejaVuSans-30" x="63.623047"/>
       <use xlink:href="#DejaVuSans-30" x="127.246094"/>
       <use xlink:href="#DejaVuSans-30" x="190.869141"/>
      </g>
     </g>
    </g>
    <g id="xtick_4">
     <g id="line2d_4">
      <g>
       <use xlink:href="#me31215a471" x="419.617756" y="354.958125" style="stroke: #000000; stroke-width: 0.8"/>
      </g>
     </g>
     <g id="text_4">
      <!-- 1500 -->
      <g transform="translate(406.892756 369.556562)scale(0.1 -0.1)">
       <use xlink:href="#DejaVuSans-31"/>
       <use xlink:href="#DejaVuSans-35" x="63.623047"/>
       <use xlink:href="#DejaVuSans-30" x="127.246094"/>
       <use xlink:href="#DejaVuSans-30" x="190.869141"/>
      </g>
     </g>
    </g>
    <g id="xtick_5">
     <g id="line2d_5">
      <g>
       <use xlink:href="#me31215a471" x="535.380587" y="354.958125" style="stroke: #000000; stroke-width: 0.8"/>
      </g>
     </g>
     <g id="text_5">
      <!-- 2000 -->
      <g transform="translate(522.655587 369.556562)scale(0.1 -0.1)">
       <defs>
        <path id="DejaVuSans-32" d="M 1228 531 
L 3431 531 
L 3431 0 
L 469 0 
L 469 531 
Q 828 903 1448 1529 
Q 2069 2156 2228 2338 
Q 2531 2678 2651 2914 
Q 2772 3150 2772 3378 
Q 2772 3750 2511 3984 
Q 2250 4219 1831 4219 
Q 1534 4219 1204 4116 
Q 875 4013 500 3803 
L 500 4441 
Q 881 4594 1212 4672 
Q 1544 4750 1819 4750 
Q 2544 4750 2975 4387 
Q 3406 4025 3406 3419 
Q 3406 3131 3298 2873 
Q 3191 2616 2906 2266 
Q 2828 2175 2409 1742 
Q 1991 1309 1228 531 
z
" transform="scale(0.015625)"/>
       </defs>
       <use xlink:href="#DejaVuSans-32"/>
       <use xlink:href="#DejaVuSans-30" x="63.623047"/>
       <use xlink:href="#DejaVuSans-30" x="127.246094"/>
       <use xlink:href="#DejaVuSans-30" x="190.869141"/>
      </g>
     </g>
    </g>
    <g id="text_6">
     <!-- Date -->
     <g transform="translate(314.014844 383.234687)scale(0.1 -0.1)">
      <defs>
       <path id="DejaVuSans-44" d="M 1259 4147 
L 1259 519 
L 2022 519 
Q 2988 519 3436 956 
Q 3884 1394 3884 2338 
Q 3884 3275 3436 3711 
Q 2988 4147 2022 4147 
L 1259 4147 
z
M 628 4666 
L 1925 4666 
Q 3281 4666 3915 4102 
Q 4550 3538 4550 2338 
Q 4550 1131 3912 565 
Q 3275 0 1925 0 
L 628 0 
L 628 4666 
z
" transform="scale(0.015625)"/>
       <path id="DejaVuSans-61" d="M 2194 1759 
Q 1497 1759 1228 1600 
Q 959 1441 959 1056 
Q 959 750 1161 570 
Q 1363 391 1709 391 
Q 2188 391 2477 730 
Q 2766 1069 2766 1631 
L 2766 1759 
L 2194 1759 
z
M 3341 1997 
L 3341 0 
L 2766 0 
L 2766 531 
Q 2569 213 2275 61 
Q 1981 -91 1556 -91 
Q 1019 -91 701 211 
Q 384 513 384 1019 
Q 384 1609 779 1909 
Q 1175 2209 1959 2209 
L 2766 2209 
L 2766 2266 
Q 2766 2663 2505 2880 
Q 2244 3097 1772 3097 
Q 1472 3097 1187 3025 
Q 903 2953 641 2809 
L 641 3341 
Q 956 3463 1253 3523 
Q 1550 3584 1831 3584 
Q 2591 3584 2966 3190 
Q 3341 2797 3341 1997 
z
" transform="scale(0.015625)"/>
       <path id="DejaVuSans-74" d="M 1172 4494 
L 1172 3500 
L 2356 3500 
L 2356 3053 
L 1172 3053 
L 1172 1153 
Q 1172 725 1289 603 
Q 1406 481 1766 481 
L 2356 481 
L 2356 0 
L 1766 0 
Q 1100 0 847 248 
Q 594 497 594 1153 
L 594 3053 
L 172 3053 
L 172 3500 
L 594 3500 
L 594 4494 
L 1172 4494 
z
" transform="scale(0.015625)"/>
       <path id="DejaVuSans-65" d="M 3597 1894 
L 3597 1613 
L 953 1613 
Q 991 1019 1311 708 
Q 1631 397 2203 397 
Q 2534 397 2845 478 
Q 3156 559 3463 722 
L 3463 178 
Q 3153 47 2828 -22 
Q 2503 -91 2169 -91 
Q 1331 -91 842 396 
Q 353 884 353 1716 
Q 353 2575 817 3079 
Q 1281 3584 2069 3584 
Q 2775 3584 3186 3129 
Q 3597 2675 3597 1894 
z
M 3022 2063 
Q 3016 2534 2758 2815 
Q 2500 3097 2075 3097 
Q 1594 3097 1305 2825 
Q 1016 2553 972 2059 
L 3022 2063 
z
" transform="scale(0.015625)"/>
      </defs>
      <use xlink:href="#DejaVuSans-44"/>
      <use xlink:href="#DejaVuSans-61" x="77.001953"/>
      <use xlink:href="#DejaVuSans-74" x="138.28125"/>
      <use xlink:href="#DejaVuSans-65" x="177.490234"/>
     </g>
    </g>
   </g>
   <g id="matplotlib.axis_2">
    <g id="ytick_1">
     <g id="line2d_6">
      <path d="M 46.965625 324.752443 
L 604.965625 324.752443 
" clip-path="url(#p5131f2d23e)" style="fill: none; stroke: #dcdcdc; stroke-width: 0.5; stroke-linecap: square"/>
     </g>
     <g id="line2d_7">
      <defs>
       <path id="m04a778fbd6" d="M 0 0 
L -3.5 0 
" style="stroke: #000000; stroke-width: 0.8"/>
      </defs>
      <g>
       <use xlink:href="#m04a778fbd6" x="46.965625" y="324.752443" style="stroke: #000000; stroke-width: 0.8"/>
      </g>
     </g>
     <g id="text_7">
      <!-- 50 -->
      <g transform="translate(27.240625 328.551662)scale(0.1 -0.1)">
       <use xlink:href="#DejaVuSans-35"/>
       <use xlink:href="#DejaVuSans-30" x="63.623047"/>
      </g>
     </g>
    </g>
    <g id="ytick_2">
     <g id="line2d_8">
      <path d="M 46.965625 253.256321 
L 604.965625 253.256321 
" clip-path="url(#p5131f2d23e)" style="fill: none; stroke: #dcdcdc; stroke-width: 0.5; stroke-linecap: square"/>
     </g>
     <g id="line2d_9">
      <g>
       <use xlink:href="#m04a778fbd6" x="46.965625" y="253.256321" style="stroke: #000000; stroke-width: 0.8"/>
      </g>
     </g>
     <g id="text_8">
      <!-- 100 -->
      <g transform="translate(20.878125 257.055539)scale(0.1 -0.1)">
       <use xlink:href="#DejaVuSans-31"/>
       <use xlink:href="#DejaVuSans-30" x="63.623047"/>
       <use xlink:href="#DejaVuSans-30" x="127.246094"/>
      </g>
     </g>
    </g>
    <g id="ytick_3">
     <g id="line2d_10">
      <path d="M 46.965625 181.760198 
L 604.965625 181.760198 
" clip-path="url(#p5131f2d23e)" style="fill: none; stroke: #dcdcdc; stroke-width: 0.5; stroke-linecap: square"/>
     </g>
     <g id="line2d_11">
      <g>
       <use xlink:href="#m04a778fbd6" x="46.965625" y="181.760198" style="stroke: #000000; stroke-width: 0.8"/>
      </g>
     </g>
     <g id="text_9">
      <!-- 150 -->
      <g transform="translate(20.878125 185.559417)scale(0.1 -0.1)">
       <use xlink:href="#DejaVuSans-31"/>
       <use xlink:href="#DejaVuSans-35" x="63.623047"/>
       <use xlink:href="#DejaVuSans-30" x="127.246094"/>
      </g>
     </g>
    </g>
    <g id="ytick_4">
     <g id="line2d_12">
      <path d="M 46.965625 110.264075 
L 604.965625 110.264075 
" clip-path="url(#p5131f2d23e)" style="fill: none; stroke: #dcdcdc; stroke-width: 0.5; stroke-linecap: square"/>
     </g>
     <g id="line2d_13">
      <g>
       <use xlink:href="#m04a778fbd6" x="46.965625" y="110.264075" style="stroke: #000000; stroke-width: 0.8"/>
      </g>
     </g>
     <g id="text_10">
      <!-- 200 -->
      <g transform="translate(20.878125 114.063294)scale(0.1 -0.1)">
       <use xlink:href="#DejaVuSans-32"/>
       <use xlink:href="#DejaVuSans-30" x="63.623047"/>
       <use xlink:href="#DejaVuSans-30" x="127.246094"/>
      </g>
     </g>
    </g>
    <g id="ytick_5">
     <g id="line2d_14">
      <path d="M 46.965625 38.767953 
L 604.965625 38.767953 
" clip-path="url(#p5131f2d23e)" style="fill: none; stroke: #dcdcdc; stroke-width: 0.5; stroke-linecap: square"/>
     </g>
     <g id="line2d_15">
      <g>
       <use xlink:href="#m04a778fbd6" x="46.965625" y="38.767953" style="stroke: #000000; stroke-width: 0.8"/>
      </g>
     </g>
     <g id="text_11">
      <!-- 250 -->
      <g transform="translate(20.878125 42.567172)scale(0.1 -0.1)">
       <use xlink:href="#DejaVuSans-32"/>
       <use xlink:href="#DejaVuSans-35" x="63.623047"/>
       <use xlink:href="#DejaVuSans-30" x="127.246094"/>
      </g>
     </g>
    </g>
    <g id="text_12">
     <!-- Price (USD) -->
     <g transform="translate(14.798437 217.01)rotate(-90)scale(0.1 -0.1)">
      <defs>
       <path id="DejaVuSans-50" d="M 1259 4147 
L 1259 2394 
L 2053 2394 
Q 2494 2394 2734 2622 
Q 2975 2850 2975 3272 
Q 2975 3691 2734 3919 
Q 2494 4147 2053 4147 
L 1259 4147 
z
M 628 4666 
L 2053 4666 
Q 2838 4666 3239 4311 
Q 3641 3956 3641 3272 
Q 3641 2581 3239 2228 
Q 2838 1875 2053 1875 
L 1259 1875 
L 1259 0 
L 628 0 
L 628 4666 
z
" transform="scale(0.015625)"/>
       <path id="DejaVuSans-72" d="M 2631 2963 
Q 2534 3019 2420 3045 
Q 2306 3072 2169 3072 
Q 1681 3072 1420 2755 
Q 1159 2438 1159 1844 
L 1159 0 
L 581 0 
L 581 3500 
L 1159 3500 
L 1159 2956 
Q 1341 3275 1631 3429 
Q 1922 3584 2338 3584 
Q 2397 3584 2469 3576 
Q 2541 3569 2628 3553 
L 2631 2963 
z
" transform="scale(0.015625)"/>
       <path id="DejaVuSans-69" d="M 603 3500 
L 1178 3500 
L 1178 0 
L 603 0 
L 603 3500 
z
M 603 4863 
L 1178 4863 
L 1178 4134 
L 603 4134 
L 603 4863 
z
" transform="scale(0.015625)"/>
       <path id="DejaVuSans-63" d="M 3122 3366 
L 3122 2828 
Q 2878 2963 2633 3030 
Q 2388 3097 2138 3097 
Q 1578 3097 1268 2742 
Q 959 2388 959 1747 
Q 959 1106 1268 751 
Q 1578 397 2138 397 
Q 2388 397 2633 464 
Q 2878 531 3122 666 
L 3122 134 
Q 2881 22 2623 -34 
Q 2366 -91 2075 -91 
Q 1284 -91 818 406 
Q 353 903 353 1747 
Q 353 2603 823 3093 
Q 1294 3584 2113 3584 
Q 2378 3584 2631 3529 
Q 2884 3475 3122 3366 
z
" transform="scale(0.015625)"/>
       <path id="DejaVuSans-20" transform="scale(0.015625)"/>
       <path id="DejaVuSans-28" d="M 1984 4856 
Q 1566 4138 1362 3434 
Q 1159 2731 1159 2009 
Q 1159 1288 1364 580 
Q 1569 -128 1984 -844 
L 1484 -844 
Q 1016 -109 783 600 
Q 550 1309 550 2009 
Q 550 2706 781 3412 
Q 1013 4119 1484 4856 
L 1984 4856 
z
" transform="scale(0.015625)"/>
       <path id="DejaVuSans-55" d="M 556 4666 
L 1191 4666 
L 1191 1831 
Q 1191 1081 1462 751 
Q 1734 422 2344 422 
Q 2950 422 3222 751 
Q 3494 1081 3494 1831 
L 3494 4666 
L 4128 4666 
L 4128 1753 
Q 4128 841 3676 375 
Q 3225 -91 2344 -91 
Q 1459 -91 1007 375 
Q 556 841 556 1753 
L 556 4666 
z
" transform="scale(0.015625)"/>
       <path id="DejaVuSans-53" d="M 3425 4513 
L 3425 3897 
Q 3066 4069 2747 4153 
Q 2428 4238 2131 4238 
Q 1616 4238 1336 4038 
Q 1056 3838 1056 3469 
Q 1056 3159 1242 3001 
Q 1428 2844 1947 2747 
L 2328 2669 
Q 3034 2534 3370 2195 
Q 3706 1856 3706 1288 
Q 3706 609 3251 259 
Q 2797 -91 1919 -91 
Q 1588 -91 1214 -16 
Q 841 59 441 206 
L 441 856 
Q 825 641 1194 531 
Q 1563 422 1919 422 
Q 2459 422 2753 634 
Q 3047 847 3047 1241 
Q 3047 1584 2836 1778 
Q 2625 1972 2144 2069 
L 1759 2144 
Q 1053 2284 737 2584 
Q 422 2884 422 3419 
Q 422 4038 858 4394 
Q 1294 4750 2059 4750 
Q 2388 4750 2728 4690 
Q 3069 4631 3425 4513 
z
" transform="scale(0.015625)"/>
       <path id="DejaVuSans-29" d="M 513 4856 
L 1013 4856 
Q 1481 4119 1714 3412 
Q 1947 2706 1947 2009 
Q 1947 1309 1714 600 
Q 1481 -109 1013 -844 
L 513 -844 
Q 928 -128 1133 580 
Q 1338 1288 1338 2009 
Q 1338 2731 1133 3434 
Q 928 4138 513 4856 
z
" transform="scale(0.015625)"/>
      </defs>
      <use xlink:href="#DejaVuSans-50"/>
      <use xlink:href="#DejaVuSans-72" x="58.552734"/>
      <use xlink:href="#DejaVuSans-69" x="99.666016"/>
      <use xlink:href="#DejaVuSans-63" x="127.449219"/>
      <use xlink:href="#DejaVuSans-65" x="182.429688"/>
      <use xlink:href="#DejaVuSans-20" x="243.953125"/>
      <use xlink:href="#DejaVuSans-28" x="275.740234"/>
      <use xlink:href="#DejaVuSans-55" x="314.753906"/>
      <use xlink:href="#DejaVuSans-53" x="387.947266"/>
      <use xlink:href="#DejaVuSans-44" x="451.423828"/>
      <use xlink:href="#DejaVuSans-29" x="528.425781"/>
     </g>
    </g>
   </g>
   <g id="line2d_16">
    <path d="M 76.033672 338.590518 
L 76.265198 337.367934 
L 76.496723 338.254486 
L 76.728249 338.54762 
L 76.959775 337.636044 
L 77.1913 337.789761 
L 77.654352 336.527855 
L 77.885877 335.920137 
L 78.117403 336.467083 
L 78.580454 336.027382 
L 78.81198 336.899634 
M 86.915378 332.452576 
L 87.146904 332.080796 
L 87.378429 332.520497 
M 97.565559 333.689458 
L 97.797084 333.986167 
L 98.02861 333.614388 
L 98.260136 333.557191 
L 98.491661 333.896797 
L 98.723187 332.967348 
L 98.954713 333.264057 
L 99.186238 333.256907 
L 99.417764 333.092466 
L 99.64929 332.420402 
M 104.279803 329.639203 
L 104.511328 330.997629 
L 104.742854 330.525755 
L 104.97438 328.674005 
M 113.540829 324.126852 
L 113.772355 323.772946 
L 114.003881 324.141151 
L 114.235406 324.083954 
L 114.466932 324.184049 
L 114.698458 324.956207 
L 114.929983 322.729103 
L 115.161509 323.52271 
L 115.393035 322.121386 
L 115.62456 321.981968 
L 115.856086 320.015825 
L 116.087612 319.265116 
M 123.033382 319.937179 
L 123.496433 319.172171 
L 123.727959 317.956737 
M 145.259845 321.359952 
L 145.491371 321.367102 
L 145.722896 321.967669 
L 145.954422 321.513669 
M 163.318847 322.97219 
L 163.550373 323.222426 
L 163.781898 323.780096 
L 164.013424 324.663073 
L 164.708001 321.94622 
L 164.939526 319.994376 
L 165.171052 320.848755 
L 165.402578 319.64762 
L 165.634103 319.933604 
L 165.865629 319.958628 
L 166.097155 318.778942 
L 166.32868 319.511777 
L 166.560206 311.650779 
L 166.791732 309.942021 
L 167.023257 309.902698 
L 167.254783 309.391501 
M 168.180886 306.803342 
L 168.412411 306.974932 
L 168.643937 306.181325 
L 168.875463 306.54953 
L 169.106988 307.29309 
L 169.338514 306.949909 
L 169.801565 306.92846 
L 170.033091 306.28142 
M 180.22022 306.524507 
L 180.451746 308.179642 
L 180.683272 307.593374 
L 180.914797 305.123183 
L 181.146323 304.969466 
M 195.269388 301.802188 
L 195.73244 302.474251 
M 204.761941 300.84414 
L 204.993466 300.229273 
L 205.456517 298.670658 
L 205.688043 298.842248 
L 205.919569 299.342721 
L 206.151094 300.829841 
L 206.38262 300.372265 
L 206.845671 296.840357 
L 207.077197 296.011002 
L 207.308723 296.125396 
M 219.348057 300.157777 
L 219.811109 296.640168 
L 220.042634 296.168293 
L 220.27416 295.195946 
L 220.505686 292.965267 
L 220.737211 293.179755 
L 221.200263 290.577297 
L 221.431788 290.462903 
M 245.047406 295.267442 
L 245.278932 295.181647 
L 245.510457 295.839411 
L 245.741983 293.823221 
L 245.973508 294.02341 
L 246.43656 292.765078 
L 246.899611 290.748887 
L 247.131137 290.763186 
L 247.362662 291.921424 
L 247.594188 290.562997 
L 247.825714 290.234115 
L 248.057239 290.319911 
L 248.520291 286.45912 
L 248.751816 286.888097 
M 256.392163 286.444821 
L 256.623689 285.52967 
L 256.855215 286.316128 
M 263.569459 290.191217 
L 264.03251 289.476256 
L 264.264036 290.348509 
L 264.495562 289.705044 
L 264.727087 286.973892 
M 268.199972 284.643118 
L 268.431498 284.342835 
L 268.663023 284.314236 
M 271.209806 280.653635 
L 271.441331 281.468691 
M 290.889487 284.214142 
L 291.121013 284.571622 
L 291.352538 284.199842 
L 291.81559 284.857607 
L 292.278641 284.214142 
L 292.741692 284.24274 
L 292.973218 284.686016 
L 293.204744 282.569731 
L 293.436269 281.640281 
M 295.056949 280.18176 
L 295.288475 280.053067 
L 295.52 279.581193 
M 296.909154 277.221821 
L 297.14068 276.463962 
L 297.372206 276.564057 
L 297.603731 277.97968 
L 298.066783 278.565948 
L 298.298308 273.160841 
L 298.529834 273.518322 
L 298.76136 273.589818 
L 298.992885 274.576464 
L 299.918988 272.059801 
M 300.382039 271.259044 
L 300.613565 271.187548 
L 300.845091 270.529784 
M 307.096283 268.971168 
L 307.327809 269.171357 
L 307.559335 268.470695 
L 307.79086 269.30005 
L 308.022386 268.94257 
L 308.253912 268.856775 
L 308.485437 269.357247 
L 308.716963 269.185657 
L 308.948489 269.199956 
L 309.180014 269.443043 
L 309.41154 269.171357 
L 309.643066 267.82723 
M 312.884425 264.567007 
L 313.115951 264.810094 
M 313.579002 264.33822 
L 313.810528 264.552708 
L 314.273579 262.936896 
M 314.73663 265.038882 
L 314.968156 265.110378 
M 321.6824 261.235288 
L 322.145452 262.765305 
L 322.376977 261.821556 
L 322.608503 262.908297 
L 322.840029 261.950249 
L 323.071554 260.27724 
L 323.30308 259.819665 
L 323.534606 258.718624 
L 323.766131 259.061806 
M 324.229183 257.789175 
L 324.460708 256.716733 
M 328.396644 253.985581 
L 328.62817 253.127628 
M 330.480375 248.709167 
L 330.711901 248.65197 
M 335.57394 248.937955 
L 335.805466 249.052349 
L 336.268517 246.707276 
M 337.19462 245.663432 
L 337.657671 243.632942 
M 339.046825 241.387964 
L 339.278351 242.474705 
L 339.509876 242.102925 
L 339.741402 243.218265 
L 339.972928 242.460406 
L 340.204453 242.489005 
L 340.667505 239.686357 
M 346.918697 242.631997 
L 347.381749 239.328876 
M 348.770903 234.781723 
L 349.002428 233.494792 
L 349.233954 233.880871 
L 349.46548 235.897062 
L 349.697005 235.92566 
L 350.391582 234.681628 
L 350.623108 233.208808 
L 350.854634 232.736933 
L 351.086159 233.208808 
L 351.317685 232.508146 
L 351.549211 230.878034 
L 351.780736 230.263168 
L 352.012262 226.287983 
L 352.243788 225.60162 
M 352.706839 226.116392 
L 352.938365 224.886659 
M 368.913635 218.280417 
L 369.145161 222.84187 
L 369.376687 222.927665 
M 370.534315 215.534966 
L 370.997366 212.989704 
M 379.100765 209.028819 
L 379.33229 206.712345 
L 379.563816 208.900126 
L 379.795342 206.44066 
L 380.026867 206.855337 
L 380.258393 206.783841 
L 380.489919 208.285259 
L 380.721444 205.654202 
L 380.95297 204.510264 
M 384.657381 201.09275 
L 384.888906 200.72097 
M 385.815009 196.4741 
L 386.27806 195.087075 
L 386.509586 196.045123 
L 386.741111 196.445502 
L 387.204163 194.972681 
M 391.140099 191.483671 
L 391.371625 190.225339 
L 391.60315 188.209148 
M 409.662152 213.032602 
L 409.893678 205.13943 
M 413.366563 201.793412 
L 413.598088 203.209035 
M 414.06114 203.194736 
L 414.292665 195.844934 
M 414.987242 193.928838 
L 415.218768 195.816336 
L 415.450294 195.516052 
L 415.681819 194.915485 
L 416.144871 191.068993 
M 416.839448 189.710567 
L 417.070973 189.295889 
L 417.302499 190.339733 
L 417.534025 187.665778 
L 417.76555 187.394092 
L 417.997076 185.992768 
L 418.228602 185.735382 
M 422.164538 177.370336 
L 422.396064 177.427533 
L 422.627589 174.181609 
L 422.859115 175.725925 
L 423.090641 175.08246 
L 423.553692 171.378961 
L 423.785218 170.635401 
M 424.248269 170.83559 
L 424.479795 170.821291 
L 424.71132 170.678299 
L 424.942846 171.050079 
M 433.27777 165.559177 
L 433.509295 169.462865 
L 433.740821 164.129254 
M 435.361501 154.091199 
L 435.593026 153.647923 
L 435.824552 153.790915 
L 436.056078 154.191293 
L 436.287603 152.175102 
L 436.519129 147.813839 
L 436.750655 148.242816 
L 436.98218 147.656548 
L 437.213706 151.331448 
L 437.445232 151.646031 
L 437.676757 151.402944 
L 437.908283 148.085524 
L 438.139809 147.527855 
L 438.60286 143.338182 
M 458.977118 143.481174 
L 459.208644 141.107503 
L 459.44017 140.335345 
M 463.376106 138.004571 
L 463.607632 136.159971 
L 463.839157 135.759593 
M 464.302209 135.6309 
L 464.533734 135.98838 
M 465.691363 131.855904 
L 466.154414 127.423145 
L 466.38594 128.738674 
L 466.617465 128.038012 
L 466.848991 125.764435 
L 467.080516 125.435553 
L 467.312042 127.666232 
L 467.543568 127.566137 
L 467.775093 122.961787 
L 468.006619 125.135269 
L 468.46967 126.436498 
L 468.701196 121.817849 
L 468.932722 119.916052 
M 484.907993 161.426701 
L 485.139518 166.703115 
M 488.612403 139.620383 
L 488.843929 143.023599 
M 501.57784 123.991331 
L 501.809366 123.576653 
L 502.040892 121.288778 
L 502.503943 112.02288 
L 502.735469 115.468993 
L 502.966994 114.854127 
L 503.430046 112.065778 
L 503.661571 113.724488 
M 515.932431 137.618492 
L 516.163957 131.898802 
L 516.395483 136.417357 
L 516.858534 126.936971 
M 522.878201 99.382366 
L 523.109727 101.341359 
M 538.390421 100.397611 
L 538.621946 98.824696 
L 538.853472 98.610207 
L 539.316523 98.867594 
L 539.548049 90.917225 
L 539.779575 89.515901 
L 540.0111 93.247998 
L 540.242626 93.491085 
L 540.474152 86.155583 
L 540.705677 83.038352 
L 540.937203 83.596022 
L 541.168729 82.70947 
L 541.63178 78.062222 
L 541.863306 79.56364 
L 542.094831 80.207106 
M 548.114498 75.102282 
L 548.346024 72.456926 
L 548.57755 71.985051 
M 579.601989 124.334512 
" clip-path="url(#p5131f2d23e)" style="fill: none; stroke: #00ff7f; stroke-linecap: square"/>
   </g>
   <g id="line2d_17">
    <path d="M 92.471994 326.679264 
L 92.935045 327.623012 
L 93.166571 327.812477 
M 129.747626 316.251554 
L 129.979151 315.31138 
L 130.210677 316.237255 
M 130.673728 316.398121 
L 130.905254 317.33472 
M 150.121884 317.152405 
L 150.35341 317.173854 
L 150.584935 316.623334 
M 177.210387 302.964 
L 177.441912 301.712818 
M 210.318556 287.903342 
L 210.781608 289.03298 
M 232.313494 282.054959 
L 232.54502 283.727968 
M 233.702648 284.342835 
L 233.934174 283.956756 
L 234.1657 282.984408 
L 234.397225 284.214142 
M 259.401997 281.082611 
L 259.633523 280.996816 
L 259.865048 279.495398 
M 284.86982 277.221821 
L 285.101346 279.180815 
L 285.332871 279.166515 
M 393.22383 182.846939 
L 393.455356 181.688702 
M 404.800113 193.614255 
L 405.031639 188.90981 
M 448.789989 132.098991 
L 449.021515 130.65477 
M 473.331709 105.917111 
L 473.563235 106.346088 
M 512.459546 106.732167 
L 512.691072 106.002907 
L 512.922598 100.76939 
L 513.154123 101.112572 
L 513.385649 104.08681 
M 525.888035 84.010699 
L 526.119561 83.481628 
L 526.351086 84.868653 
L 526.814138 92.218454 
L 527.277189 88.171774 
M 558.533153 40.169277 
L 558.996205 37.438125 
L 559.22773 43.143516 
L 559.459256 41.742192 
L 559.690782 43.929973 
M 564.321295 63.519911 
L 564.552821 65.607597 
M 575.897578 80.964964 
L 576.129104 91.117414 
L 576.360629 88.014482 
L 576.360629 88.014482 
" clip-path="url(#p5131f2d23e)" style="fill: none; stroke: #ff4500; stroke-linecap: square"/>
   </g>
   <g id="line2d_18">
    <path d="M 72.329261 339.838125 
L 72.560787 339.019494 
L 73.023838 336.384862 
L 73.48689 335.534058 
L 73.718415 336.424185 
L 73.949941 336.209697 
L 74.181467 337.353635 
L 74.412992 336.735193 
L 74.644518 337.207068 
L 74.876044 336.803115 
L 75.107569 337.353635 
L 75.339095 336.552878 
L 75.570621 336.327665 
L 75.802146 336.996154 
M 79.043506 333.546466 
L 79.275031 332.066496 
L 79.506557 332.298859 
L 79.738083 331.977126 
L 80.201134 332.409678 
L 80.664185 332.28456 
L 81.127237 331.27289 
L 81.358762 331.973552 
L 81.590288 330.268369 
L 81.821814 331.326512 
L 82.053339 331.34796 
L 82.516391 332.581269 
L 82.747916 331.741189 
L 82.979442 331.891331 
L 83.210968 332.566969 
L 83.442493 331.53385 
L 83.674019 332.566969 
L 83.905545 331.834134 
L 84.13707 331.830559 
L 84.368596 332.895851 
L 84.600121 332.134418 
L 84.831647 331.923504 
L 85.063173 331.069126 
L 85.294698 332.023599 
L 85.526224 332.205914 
L 85.75775 331.097724 
L 85.989275 331.569598 
L 86.452327 330.468558 
L 86.683852 330.961881 
M 87.609955 331.73404 
L 88.073006 330.379188 
L 88.304532 330.918984 
L 88.536058 330.036007 
L 88.767583 330.028857 
L 88.999109 329.385392 
L 89.230635 328.04484 
L 89.46216 329.006462 
L 89.925212 329.506935 
L 90.156737 328.341548 
L 90.388263 328.069863 
L 90.619789 328.237879 
L 90.851314 328.548887 
L 91.08284 328.455942 
L 91.314366 327.966194 
L 91.545891 328.355848 
L 91.777417 327.891123 
L 92.240468 329.489061 
M 93.398097 332.970922 
L 93.629622 332.198764 
L 93.861148 330.472133 
L 94.092674 330.279093 
L 94.555725 331.405157 
L 95.713353 332.491898 
L 95.944879 334.071963 
L 96.176405 334.357947 
L 96.40793 333.696608 
M 96.870982 332.477599 
L 97.334033 332.223788 
M 99.880815 330.261219 
L 100.112341 329.646353 
L 100.343867 330.093203 
L 100.575392 328.68473 
L 100.806918 328.548887 
L 101.269969 327.022445 
L 101.501495 326.643516 
L 101.733021 325.170695 
L 102.427598 327.76958 
L 102.659123 327.054618 
L 102.890649 327.236933 
L 103.122175 327.934021 
L 103.3537 327.176162 
L 103.585226 327.676635 
L 103.816752 328.809848 
L 104.048277 328.155659 
M 105.205905 327.540792 
L 105.437431 327.097516 
L 105.668957 327.837501 
L 106.132008 325.36731 
L 106.363534 324.591577 
L 107.058111 325.149247 
L 107.289636 323.712175 
L 107.752688 323.651403 
L 107.984213 323.236725 
L 108.215739 323.386867 
L 108.447265 325.942854 
L 108.67879 325.052727 
L 108.910316 326.032224 
L 109.141842 325.692617 
L 109.373367 325.102774 
M 109.836419 325.363735 
L 110.067944 325.013404 
L 110.29947 325.370885 
L 110.530996 324.831089 
L 110.762521 324.698821 
L 110.994047 324.037482 
L 111.457098 325.685468 
L 111.688624 325.424507 
L 111.92015 324.176899 
L 112.151675 323.994584 
L 112.383201 324.062506 
L 112.614727 323.494111 
L 112.846252 323.326095 
M 116.319137 319.004155 
L 116.550663 319.043478 
L 116.782189 318.307068 
L 117.013714 318.056831 
L 117.24524 317.531335 
M 117.708291 317.277524 
L 117.939817 316.644783 
L 118.171343 317.241775 
L 118.402868 317.188153 
L 118.634394 317.663603 
L 118.86592 317.063035 
L 119.097445 316.809224 
L 119.328971 316.920043 
L 119.560497 317.198878 
L 119.792022 317.99606 
L 120.023548 316.655507 
L 120.255074 316.258704 
L 120.486599 316.97009 
L 120.718125 313.248717 
L 120.949651 313.338087 
L 121.181176 312.959158 
L 121.644228 317.15598 
L 121.875753 318.954108 
L 122.107279 317.259649 
L 122.338805 318.632375 
L 122.57033 317.288248 
L 122.801856 319.236517 
M 123.959484 316.966515 
L 124.19101 317.406217 
L 124.654061 316.112137 
L 124.885587 316.155034 
L 125.117112 315.457947 
L 125.348638 315.436498 
L 125.580164 316.215806 
L 126.043215 316.401696 
L 126.274741 315.390026 
L 126.506266 315.061144 
L 126.737792 315.418624 
L 126.969318 315.357853 
L 127.200843 315.479396 
L 127.432369 317.088059 
L 127.663895 315.636688 
L 127.89542 316.59831 
L 128.126946 316.222956 
L 128.358472 315.615239 
M 128.821523 315.03612 
L 129.053049 315.422199 
L 129.284574 317.323996 
L 129.5161 317.327571 
M 131.13678 318.1748 
L 131.368305 319.147147 
L 131.599831 319.114974 
L 131.831357 320.430503 
L 132.062882 319.082801 
L 132.294408 319.497478 
L 132.525934 319.511777 
L 132.757459 319.386659 
L 133.220511 323.533434 
L 133.452036 323.826568 
L 133.683562 322.057039 
L 134.146613 325.957153 
L 134.84119 321.406425 
L 135.072716 321.910472 
L 135.535767 321.188361 
L 135.767293 321.599464 
L 135.998819 321.392125 
L 136.230344 325.134947 
L 136.46187 324.244821 
L 136.693396 323.79797 
L 136.924921 323.819419 
L 137.156447 322.575386 
L 137.387973 323.172379 
L 137.619498 322.203606 
L 137.851024 322.836347 
L 138.314075 320.855904 
L 138.545601 320.888078 
L 138.777127 320.56992 
L 139.008652 320.441227 
L 139.471704 322.089213 
L 139.703229 321.245558 
L 139.934755 321.048944 
L 140.166281 321.921197 
L 140.397806 321.141889 
L 140.629332 321.40285 
L 141.092383 319.568974 
L 141.323909 319.819211 
L 141.555435 319.508203 
L 141.78696 319.451006 
L 142.018486 319.919305 
L 142.250012 320.705763 
L 142.481537 320.66644 
L 142.944589 320.105195 
L 143.176114 320.255337 
L 143.40764 319.658344 
L 143.870691 320.544896 
L 144.102217 320.716487 
M 144.565268 320.888078 
L 144.796794 320.730786 
L 145.028319 321.063243 
M 146.648999 320.923826 
L 146.880525 319.658344 
L 147.11205 319.447431 
L 147.343576 318.850438 
L 147.575102 318.768218 
L 147.806627 319.297289 
L 148.038153 318.975556 
L 148.269679 319.197194 
L 148.501204 318.675273 
L 148.73273 317.234626 
L 148.964256 316.966515 
M 150.816461 319.472454 
L 151.279512 319.926455 
L 151.511038 319.726266 
L 151.742564 320.816582 
L 152.205615 320.405479 
L 152.437141 320.984597 
L 152.668666 320.930975 
M 153.131718 321.013196 
L 153.363243 320.970298 
L 153.594769 321.070393 
L 154.05782 320.276786 
L 154.289346 321.109716 
L 154.520872 319.633321 
L 154.752397 319.390234 
L 154.983923 318.961257 
L 155.215449 319.122123 
L 155.446974 319.00058 
L 155.6785 319.025604 
L 156.141551 318.6288 
L 156.604603 320.276786 
L 156.836128 319.486754 
L 157.067654 319.425982 
L 157.29918 319.65477 
L 157.530705 319.672644 
L 157.762231 319.114974 
L 157.993757 319.64762 
L 158.225282 318.71817 
L 158.456808 319.408108 
L 158.688334 319.733415 
L 158.919859 319.518927 
L 159.151385 318.568029 
L 159.382911 319.200769 
L 159.614436 318.875462 
L 159.845962 318.943383 
L 160.309013 320.298235 
L 160.540539 319.601148 
L 160.772065 320.923826 
L 161.00359 320.484125 
L 161.235116 320.84518 
L 161.466642 319.972927 
L 161.698167 321.174062 
L 161.929693 321.277732 
L 162.161219 320.466251 
L 162.392744 320.537747 
L 162.62427 321.874724 
L 162.855796 320.333983 
L 163.087321 321.996268 
M 167.486309 307.046428 
L 167.717834 306.846239 
L 167.94936 306.009735 
M 170.264617 305.369844 
L 170.496142 305.226852 
L 170.727668 304.283103 
L 170.959194 304.283103 
L 171.190719 303.950646 
L 171.422245 303.964946 
L 171.885296 302.731637 
L 172.116822 302.896078 
L 172.348348 302.106046 
L 172.579873 302.195416 
L 172.811399 301.823637 
L 173.042925 302.68874 
L 173.27445 302.188267 
L 173.505976 304.454694 
L 173.737502 304.483292 
L 173.969027 305.659404 
L 174.432079 301.816487 
L 174.663604 302.706614 
L 174.89513 301.798613 
L 175.126656 301.423258 
M 175.589707 300.937085 
L 176.052758 301.67707 
L 176.284284 302.517149 
L 176.51581 301.509054 
L 176.747335 303.600315 
L 176.978861 304.197308 
M 177.673438 303.114142 
L 177.904964 303.296457 
L 178.136489 303.024771 
L 178.368015 304.89082 
M 178.831066 305.108883 
L 179.062592 304.433245 
L 179.757169 303.914898 
L 179.988695 304.544064 
M 181.377849 303.378677 
L 181.8409 299.085335 
L 182.072426 300.6511 
M 182.535477 301.67707 
L 182.767003 301.162297 
L 182.998528 299.403493 
L 183.230054 299.861068 
L 183.46158 299.417792 
L 183.693105 300.043383 
L 183.924631 300.050533 
L 184.156157 298.656358 
L 184.387682 298.652784 
L 184.619208 298.845823 
L 185.082259 298.388248 
L 185.313785 299.260501 
L 185.54531 296.765286 
L 186.008362 298.388248 
L 186.239887 298.252405 
L 186.471413 299.964737 
L 186.702939 299.221178 
L 186.934464 301.444707 
L 187.16599 301.605573 
L 187.397516 299.878942 
L 187.629041 301.505479 
L 187.860567 300.079131 
L 188.092093 301.694944 
L 188.323618 300.56173 
L 188.555144 300.715447 
L 188.78667 299.857493 
L 189.018195 300.329368 
L 189.249721 300.300769 
L 189.481247 302.259763 
L 189.944298 302.531448 
L 190.175824 302.359858 
L 190.638875 303.04622 
L 190.870401 302.888929 
L 191.101926 303.017622 
L 191.564978 301.158723 
L 192.028029 301.38751 
L 192.259555 302.431354 
L 192.49108 302.545747 
L 192.722606 302.331259 
L 192.954132 302.374157 
L 193.185657 303.989969 
M 193.648709 302.803134 
L 193.880234 298.99954 
L 194.806337 300.772644 
L 195.037863 299.957588 
M 195.963965 301.930881 
L 196.195491 302.345558 
L 196.427017 301.044329 
L 196.658542 296.911853 
L 197.121594 298.027193 
L 197.353119 298.084389 
L 197.584645 296.153994 
L 197.816171 296.768861 
L 198.047696 296.153994 
L 198.279222 295.925207 
L 198.742273 297.054845 
L 198.973799 296.697365 
L 199.205325 298.241681 
L 199.43685 296.883255 
L 199.668376 296.78316 
L 199.899902 298.041492 
L 200.131427 297.426625 
L 200.594479 297.655413 
L 200.826004 298.713555 
L 201.05753 298.484768 
L 201.289056 299.471414 
L 201.520581 299.085335 
L 201.752107 296.683065 
L 201.983633 296.668766 
L 202.215158 297.112042 
L 202.446684 298.198783 
L 202.67821 297.569617 
L 202.909735 297.941397 
L 203.141261 296.868955 
L 203.372787 298.027193 
L 203.835838 296.983349 
L 204.067364 297.784106 
L 204.298889 298.127287 
L 204.530415 297.941397 
M 207.540248 295.338938 
L 207.771774 294.895662 
L 208.0033 292.293203 
L 208.234825 293.265551 
L 208.466351 293.337047 
L 208.697877 293.65163 
L 208.929402 289.290366 
L 209.160928 290.634493 
L 209.855505 287.031089 
L 210.087031 288.518208 
M 211.013133 291.034872 
L 211.244659 290.134021 
L 211.476185 289.890934 
L 211.70771 291.349455 
L 211.939236 291.092069 
L 212.402287 290.119721 
L 212.633813 289.848036 
L 212.865339 289.762241 
L 213.096864 289.862335 
L 213.32839 290.5058 
L 214.022967 300.486659 
L 214.254493 295.167348 
L 214.486018 292.72218 
L 214.717544 292.636385 
L 214.94907 294.295095 
L 215.180595 297.641113 
L 215.643647 295.582025 
L 215.875172 297.355129 
L 216.106698 295.396135 
L 216.338224 296.725963 
L 216.801275 295.067253 
L 217.032801 296.139695 
L 217.495852 294.738371 
L 217.727378 294.781269 
L 217.958903 296.454278 
L 218.190429 295.038655 
L 218.421955 295.796514 
L 218.65348 294.795568 
L 218.885006 295.810813 
L 219.116532 295.167348 
M 221.663314 289.018681 
L 221.89484 289.004382 
L 222.126365 290.14832 
L 222.589417 287.574459 
L 222.820942 286.158836 
L 223.283994 288.346618 
L 223.978571 284.457228 
L 224.210096 285.400977 
L 224.441622 283.470582 
L 224.673148 283.985354 
L 224.904673 285.315182 
M 225.367724 284.857607 
L 225.59925 284.214142 
L 225.830776 282.912912 
L 226.293827 284.657418 
L 226.525353 282.598329 
L 226.756878 283.027306 
L 226.988404 284.271339 
L 227.21993 284.557323 
L 227.451455 283.427684 
L 227.682981 283.527779 
L 227.914507 281.197005 
L 228.146032 281.640281 
L 228.377558 281.583084 
L 228.609084 281.697478 
L 229.072135 282.483935 
L 229.303661 282.083557 
L 229.535186 283.270393 
L 229.766712 281.983463 
L 230.229763 284.299937 
L 230.461289 281.282801 
L 231.155866 284.886205 
L 231.387392 284.543024 
L 231.618917 287.417168 
L 231.850443 286.330427 
L 232.081969 283.828063 
M 232.776546 287.116884 
L 233.008071 285.90145 
L 233.239597 285.601166 
L 233.471123 283.913858 
M 234.628751 285.35808 
L 234.860277 288.003436 
L 235.091802 287.18838 
L 235.786379 292.035817 
L 236.249431 289.347563 
L 236.480956 291.721235 
L 236.712482 290.720289 
L 236.944008 293.537236 
L 237.175533 294.166402 
L 237.407059 295.181647 
L 237.87011 292.293203 
L 238.101636 293.665929 
L 238.333162 293.46574 
L 238.564687 294.852765 
L 238.796213 297.112042 
L 239.027739 289.733642 
L 239.259264 289.890934 
L 239.49079 291.292258 
L 239.722316 289.890934 
L 239.953841 290.891879 
L 240.185367 293.951914 
L 240.416893 299.342721 
M 241.342995 295.553427 
L 241.806047 293.251252 
L 242.037572 294.38089 
L 242.269098 293.966213 
L 242.500624 291.778431 
L 242.732149 293.079661 
L 242.963675 293.508638 
L 243.195201 291.478148 
L 243.658252 292.736479 
L 243.889778 289.519154 
L 244.352829 290.562997 
L 244.584355 290.577297 
L 244.81588 293.379945 
M 248.983342 285.300883 
L 249.214868 284.957701 
L 249.446393 286.187435 
L 249.677919 284.414331 
L 249.909445 285.315182 
L 250.14097 284.671717 
L 250.372496 284.972001 
L 250.604022 283.971055 
L 251.067073 281.382895 
L 251.298599 281.740376 
L 251.530124 279.781382 
L 251.76165 280.782328 
L 251.993176 280.210359 
L 252.224701 280.725131 
L 252.687753 284.514425 
L 253.150804 283.627873 
L 253.38233 285.17219 
L 253.613855 285.801356 
L 253.845381 284.05685 
L 254.076907 285.872852 
L 254.308432 286.044442 
L 254.771484 285.114993 
L 255.003009 284.400032 
L 255.234535 282.998708 
L 255.466061 285.71556 
L 255.697586 284.871906 
L 255.929112 286.387624 
L 256.160638 285.000599 
M 257.08674 285.186489 
L 257.318266 285.844253 
L 257.549792 282.741322 
L 257.781317 283.198897 
L 258.012843 283.284692 
L 258.244369 282.340943 
L 258.475894 283.370487 
L 258.70742 282.970109 
M 260.096574 280.053067 
L 260.3281 281.597384 
L 260.559625 284.142646 
L 260.791151 283.899559 
L 261.022677 284.471528 
L 261.254202 284.214142 
L 261.485728 286.158836 
L 261.717254 285.658363 
L 261.948779 285.672663 
L 262.180305 286.816601 
L 262.411831 284.385732 
L 262.643356 288.932886 
M 263.106408 288.775594 
L 263.337933 286.516317 
M 264.958613 286.8309 
L 265.190139 285.458174 
L 265.421664 285.486773 
L 265.65319 284.514425 
L 265.884715 284.285638 
L 266.116241 284.271339 
L 266.347767 283.68507 
L 266.579292 282.76992 
L 266.810818 283.584976 
L 267.042344 281.983463 
L 267.273869 283.370487 
M 267.736921 283.956756 
L 267.968446 283.013007 
M 268.894549 283.69937 
L 269.3576 281.65458 
L 269.589126 281.926266 
L 269.820652 281.768974 
L 270.052177 282.312345 
L 270.283703 281.683179 
L 270.515229 281.826171 
L 270.746754 280.55354 
L 270.97828 280.696532 
M 271.672857 281.182706 
L 271.904383 280.339052 
L 272.135908 280.710832 
L 272.367434 281.440092 
L 272.59896 281.397194 
L 273.293537 280.18176 
L 273.525062 280.567839 
L 273.756588 279.99587 
L 274.451165 277.221821 
L 274.682691 277.6079 
L 274.914216 279.952973 
L 275.145742 277.6079 
L 275.377268 279.152216 
L 275.608793 279.724185 
L 275.840319 278.980625 
L 276.071845 278.89483 
L 276.30337 278.265664 
L 276.534896 278.308562 
L 276.766422 277.250419 
L 276.997947 277.05023 
L 277.460999 279.26661 
L 277.692524 278.766137 
L 277.92405 277.6079 
L 278.155576 279.109318 
L 278.387101 277.993979 
L 278.618627 277.765191 
L 278.850153 277.951081 
L 279.081678 277.064529 
L 279.313204 277.05023 
L 279.54473 277.736593 
L 279.776255 277.393412 
L 280.007781 278.937728 
L 280.239307 278.637444 
L 280.470832 279.180815 
L 280.702358 278.35146 
L 280.933884 278.780436 
L 281.165409 279.595492 
L 281.396935 277.836688 
L 281.859986 278.494452 
L 282.091512 277.321915 
L 282.323038 278.952027 
L 282.554563 279.352405 
L 282.786089 279.109318 
L 283.24914 278.265664 
L 283.712192 281.025415 
L 283.943717 280.92532 
L 284.175243 281.339998 
L 284.406769 278.265664 
L 284.638294 277.736593 
M 285.564397 284.171244 
L 285.795922 283.899559 
L 286.258974 280.324753 
L 286.490499 280.682233 
L 286.722025 279.438201 
L 286.953551 281.954864 
L 287.185076 282.469636 
L 287.416602 281.66888 
L 287.648128 283.170298 
L 287.879653 283.070204 
L 288.342705 288.389515 
L 288.57423 287.974838 
L 288.805756 285.701261 
L 289.037282 285.987245 
L 289.268807 282.841416 
L 289.500333 282.884314 
L 289.731859 283.084503 
L 289.963384 283.999653 
L 290.19491 282.998708 
L 290.426436 283.098802 
L 290.657961 282.569731 
M 293.667795 280.296154 
L 293.899321 278.694641 
L 294.362372 279.981571 
L 294.593898 279.280909 
L 294.825423 279.895776 
M 295.751526 279.381004 
L 295.983052 279.223712 
L 296.214577 278.780436 
L 296.677629 276.278072 
M 301.076616 270.701374 
L 301.539668 269.800523 
M 302.002719 270.501185 
L 302.234245 268.999767 
L 302.46577 269.657531 
L 302.928822 269.071263 
L 303.160347 268.899672 
L 303.391873 269.042664 
L 303.623399 268.828176 
L 304.08645 267.398254 
L 304.317976 268.19901 
L 304.549501 267.669939 
L 305.012553 267.212364 
L 305.475604 270.329595 
L 305.938655 269.185657 
L 306.170181 268.713782 
L 306.401706 269.056964 
L 306.864758 268.728081 
M 309.874591 267.941624 
L 310.106117 267.913026 
L 310.337643 265.911134 
L 310.569168 265.911134 
L 310.800694 264.910189 
L 311.03222 264.538409 
L 311.726797 265.81104 
L 311.958322 265.753843 
L 312.189848 263.923542 
L 312.421374 264.066534 
L 312.652899 263.809148 
M 315.199682 264.009337 
L 315.894259 260.677618 
L 316.125784 260.348736 
L 316.35731 260.877807 
L 316.588836 260.806311 
L 316.820361 260.077051 
L 317.051887 259.833964 
L 317.514938 258.189553 
L 317.746464 259.276294 
L 317.97799 258.847317 
L 318.209515 258.847317 
L 318.672567 262.550817 
L 318.904092 260.291539 
L 319.135618 259.948358 
L 319.367144 261.592768 
L 319.598669 261.592768 
L 319.830195 260.706217 
L 320.061721 261.292485 
L 320.293246 261.063697 
L 320.524772 261.907351 
L 320.756298 259.576578 
L 321.219349 260.548925 
L 321.450875 258.647128 
M 324.692234 255.758685 
L 324.92376 255.958874 
L 325.155285 253.82829 
L 325.386811 252.727249 
L 325.618337 253.27062 
L 325.849862 252.040886 
L 326.081388 253.871187 
L 326.312913 254.471755 
L 326.544439 253.885486 
L 326.775965 252.012288 
L 327.00749 251.42602 
L 327.239016 252.412666 
L 327.470542 251.98369 
L 327.702067 251.125736 
L 328.165119 251.869296 
M 328.859696 250.582366 
L 329.322747 248.508978 
L 329.554273 250.167688 
L 329.785798 249.667215 
M 330.943427 248.46608 
L 331.174952 247.851214 
L 331.638004 247.92271 
L 331.869529 248.222994 
L 332.101055 247.679623 
L 332.332581 248.952254 
L 332.564106 248.709167 
L 332.795632 246.735874 
L 333.027158 246.921764 
L 333.258683 244.462297 
L 333.490209 244.376502 
L 333.721735 244.919873 
L 333.95326 244.562392 
L 334.416312 246.349795 
L 334.647837 245.52044 
L 334.879363 246.149606 
L 335.342414 245.305952 
M 336.500043 245.763527 
L 336.963094 245.263054 
M 337.889197 243.232564 
L 338.120722 242.803587 
L 338.352248 241.187775 
M 340.89903 239.243081 
L 341.130556 239.371774 
L 341.362082 238.899899 
L 341.593607 238.985695 
L 341.825133 237.427079 
L 342.056659 237.555772 
L 342.982761 235.425188 
L 343.677338 236.955205 
L 343.908864 236.12585 
L 344.14039 238.599615 
L 344.371915 237.498575 
L 344.603441 239.214482 
L 344.834967 239.028592 
L 345.066492 236.883709 
L 345.298018 237.78456 
L 345.529544 236.140149 
L 345.761069 235.553881 
L 345.992595 234.152557 
L 346.22412 239.157285 
L 346.455646 235.253597 
L 346.687172 237.913253 
M 347.613274 236.955205 
L 347.8448 235.239298 
L 348.076326 235.56818 
L 348.307851 234.009564 
L 348.539377 234.224053 
M 353.16989 224.529179 
L 353.401416 224.100202 
L 353.864467 220.210813 
L 354.095993 220.797081 
L 354.327519 218.466307 
L 354.559044 218.008732 
L 354.79057 218.151724 
L 355.022096 217.193676 
L 355.253621 215.620762 
L 355.716673 219.581647 
L 355.948198 218.6093 
L 356.179724 216.478715 
L 356.642775 229.991482 
L 356.874301 224.700769 
L 357.105827 225.158344 
L 357.337352 233.437595 
L 357.800404 226.845653 
L 358.031929 227.017244 
L 358.494981 221.397648 
L 358.726506 222.012515 
L 358.958032 221.783727 
L 359.189558 224.043005 
L 359.421083 224.114501 
L 359.884135 218.094527 
L 360.11566 219.839033 
L 360.347186 220.4539 
L 360.578712 224.085903 
L 360.810237 223.556831 
L 361.041763 221.969617 
L 361.273289 223.142154 
L 361.504814 222.012515 
L 361.73634 221.483444 
L 361.967866 218.208921 
L 362.199391 218.595 
L 362.662443 220.968672 
L 363.125494 218.180323 
L 363.35702 220.06782 
L 363.588545 217.636952 
L 363.820071 220.053521 
L 364.283122 228.947639 
L 364.514648 223.742721 
L 364.746174 228.37567 
L 364.977699 228.961938 
L 365.209225 225.201242 
L 365.440751 226.960047 
L 366.135328 222.956264 
M 366.598379 226.388078 
L 366.829904 223.628327 
M 367.292956 223.127855 
L 367.524481 223.58543 
L 367.756007 221.969617 
L 367.987533 219.224166 
L 368.219058 218.251819 
L 368.450584 218.995379 
L 368.68211 218.652197 
M 369.608212 214.534021 
L 369.839738 216.064038 
L 370.302789 213.919154 
M 371.228892 211.41679 
L 372.154995 207.756188 
L 372.38652 208.628441 
L 372.618046 208.785732 
M 373.081097 210.458742 
L 373.312623 210.458742 
L 373.544149 209.414898 
L 373.775674 209.343402 
L 374.0072 207.670393 
L 374.238726 207.656094 
L 374.470251 208.528346 
M 374.933303 209.443497 
L 375.396354 209.143213 
L 375.62788 205.968785 
L 375.859405 205.268123 
L 376.090931 201.378734 
L 376.322457 204.867745 
L 376.553982 203.580815 
L 376.785508 204.76765 
L 377.017034 203.409224 
L 377.248559 204.066988 
L 377.480085 203.209035 
L 377.711611 203.066043 
L 377.943136 201.493128 
L 378.174662 203.051743 
L 378.406188 202.494074 
L 378.637713 203.881098 
L 378.869239 202.73716 
M 381.184496 202.465475 
L 381.647547 198.704779 
L 381.879073 196.202415 
L 382.110598 196.888778 
L 382.342124 198.261503 
L 382.805175 194.772492 
L 383.036701 195.873533 
L 383.268227 194.643799 
L 383.499752 196.016525 
L 383.731278 196.016525 
L 383.962804 192.284427 
L 384.194329 192.484616 
L 384.425855 195.044178 
M 385.120432 198.561787 
L 385.583483 196.316809 
M 387.435688 196.173816 
L 387.89874 194.157626 
L 388.130265 194.715295 
L 388.361791 196.002226 
L 388.824842 193.056585 
L 389.287894 188.337841 
L 389.519419 188.623826 
L 389.750945 186.007068 
L 389.982471 186.421745 
L 390.213996 186.207257 
L 390.445522 184.906027 
M 391.834676 186.664832 
L 392.066202 185.149114 
L 392.297727 184.848831 
L 392.529253 187.222502 
L 392.760779 185.149114 
L 392.992304 185.449398 
M 394.149933 182.804041 
L 394.381458 181.7316 
L 394.612984 181.631505 
L 394.84451 180.630559 
L 395.076035 182.232072 
L 395.307561 182.661049 
L 396.002138 193.356869 
L 396.233664 192.756302 
L 396.465189 202.465475 
L 396.696715 205.025036 
L 396.928241 195.973627 
L 397.159766 200.020308 
L 397.391292 193.571357 
L 397.622818 192.556113 
L 397.854343 197.074667 
L 398.317395 195.144272 
L 398.54892 197.317754 
L 398.780446 204.267177 
L 399.011972 195.315863 
L 399.706549 206.412061 
L 400.1696 194.872587 
L 400.401126 196.374005 
L 400.632651 196.345407 
L 400.864177 194.929784 
L 401.095703 189.224393 
L 401.327228 188.580928 
L 401.558754 190.439827 
L 401.79028 196.459801 
L 402.021805 196.459801 
L 402.253331 196.788683 
L 402.484857 193.428365 
L 402.716382 195.802036 
L 402.947908 203.552216 
L 403.179434 205.539808 
L 403.410959 204.03839 
L 403.642485 206.25477 
L 403.874011 201.864908 
L 404.105536 201.907805 
L 404.337062 194.08613 
L 404.568588 197.346353 
M 405.263165 198.004117 
L 405.49469 194.558004 
L 405.726216 200.191898 
L 405.957742 199.090858 
L 406.189267 200.620875 
L 406.420793 199.205252 
L 406.652318 199.577032 
L 406.883844 203.080342 
L 407.11537 208.356756 
L 407.346895 206.555053 
L 407.578421 208.556945 
L 407.809947 212.131751 
L 408.041472 218.566402 
M 408.504524 210.029765 
L 408.736049 207.484503 
L 408.967575 209.01452 
L 409.430626 206.183273 
M 410.125203 201.693317 
L 410.356729 200.635174 
L 410.588255 198.332999 
L 410.81978 197.961219 
L 411.051306 198.833472 
L 411.282832 200.206198 
L 411.514357 199.863016 
L 411.977409 199.948812 
L 412.208934 198.204306 
L 412.44046 198.847771 
L 412.671986 200.334891 
L 413.135037 197.961219 
M 414.524191 193.914539 
L 414.755717 192.441719 
M 416.376396 191.540868 
L 416.607922 189.038503 
M 418.923179 184.67724 
L 419.154704 184.691539 
M 419.617756 186.293052 
L 419.849281 185.549493 
L 420.080807 180.80215 
L 420.775384 175.754524 
L 421.00691 173.952821 
L 421.701487 176.397989 
L 421.933012 173.466648 
M 425.174372 169.520062 
L 425.405897 170.521008 
L 425.637423 167.975746 
L 425.868949 166.831808 
L 426.100474 167.132091 
L 426.332 166.831808 
L 426.563526 167.232186 
L 426.795051 166.889005 
L 427.026577 165.087302 
L 427.258102 165.330389 
L 427.489628 166.002453 
L 427.952679 161.526795 
L 428.184205 161.126417 
L 428.647256 165.85946 
L 428.878782 164.543932 
L 429.110308 164.20075 
L 429.341833 167.16069 
L 429.573359 166.374232 
L 429.804885 167.732659 
L 430.03641 166.445729 
L 430.267936 171.278866 
L 430.962513 160.497251 
L 431.425564 162.499143 
L 431.888616 161.398102 
L 432.120141 165.301791 
L 432.583193 162.155961 
L 432.814718 163.557285 
L 433.046244 163.514388 
M 433.972347 159.753691 
L 434.203872 157.56591 
L 434.435398 153.090253 
L 434.666924 151.989213 
L 434.898449 152.718473 
L 435.129975 150.888172 
M 439.297437 142.108448 
L 439.760488 137.804382 
L 439.992014 138.39065 
L 440.22354 138.047469 
L 440.455065 139.849171 
L 440.686591 140.077959 
L 440.918117 138.104666 
L 441.149642 139.949266 
L 441.381168 138.047469 
L 441.612694 137.575594 
L 441.844219 134.100883 
L 442.075745 136.588948 
L 442.307271 133.586111 
L 442.538796 134.272473 
L 442.770322 136.674743 
L 443.001848 141.722369 
L 443.233373 140.04936 
L 443.464899 142.551724 
L 443.696425 154.791861 
L 444.391002 139.005517 
L 444.622527 140.220951 
L 444.854053 144.096041 
L 445.085579 140.850117 
L 445.317104 148.142721 
L 445.780156 141.393487 
L 446.011681 139.234304 
L 446.243207 139.949266 
L 446.474733 137.518397 
L 446.706258 138.733831 
L 446.937784 145.683255 
L 447.169309 142.308638 
L 447.400835 141.178999 
L 447.632361 140.764321 
L 447.863886 137.189515 
L 448.095412 137.689988 
L 448.326938 140.006462 
L 448.558463 136.331562 
M 449.25304 136.646145 
L 449.484566 144.081741 
L 449.716092 146.040735 
M 450.179143 142.766213 
L 450.410669 144.424923 
L 450.642194 143.938749 
L 450.87372 145.597459 
L 451.105246 144.639411 
L 451.336771 147.356264 
L 451.568297 146.14083 
L 451.799823 146.755696 
L 452.031348 145.611758 
L 452.262874 145.082687 
L 452.725925 150.287605 
L 452.957451 147.027382 
L 453.188977 153.404836 
L 453.652028 144.610813 
L 453.883554 146.155129 
L 454.115079 149.701337 
L 454.346605 146.183727 
L 454.578131 146.183727 
L 454.809656 143.066496 
L 455.041182 142.63752 
L 455.272708 140.649928 
L 455.504233 141.908259 
L 455.735759 141.808165 
L 455.967285 144.996892 
L 456.19881 143.967348 
L 456.430336 151.932016 
L 456.661862 151.274251 
L 456.893387 144.353427 
L 457.356439 139.091312 
L 457.587964 142.251441 
L 457.81949 139.934966 
L 458.051016 140.492636 
L 458.282541 137.532697 
L 458.745593 144.053143 
M 459.671695 139.520289 
L 459.903221 139.234304 
L 460.134747 139.706179 
L 460.366272 139.220005 
L 460.597798 139.191407 
L 460.829324 139.348698 
L 461.060849 134.901639 
L 461.292375 136.488853 
L 461.523901 139.019816 
L 461.755426 139.620383 
L 462.450003 132.613763 
L 462.681529 132.413574 
M 464.76526 135.087529 
L 464.996786 131.512723 
L 465.228311 129.939808 
L 465.459837 130.969353 
M 469.164247 119.172492 
L 469.395773 116.941813 
L 469.627299 115.912269 
L 469.858824 110.55006 
L 470.09035 108.905649 
L 470.553401 99.839941 
L 470.784927 98.967688 
L 471.247978 103.114463 
L 471.479504 107.847507 
L 471.71103 106.188796 
L 471.942555 103.314652 
L 472.174081 98.524412 
L 472.405607 111.736896 
L 472.637132 109.105838 
L 472.868658 105.173552 
L 473.100184 106.245993 
M 473.794761 101.69884 
L 474.026286 104.630181 
L 474.257812 99.625452 
L 474.489338 99.682649 
L 474.720863 95.550173 
M 475.183915 91.231808 
L 475.41544 93.891463 
M 475.878492 111.994282 
L 476.110017 126.851176 
L 476.341543 128.552784 
L 476.573069 138.848225 
L 476.804594 136.345861 
L 477.03612 121.231581 
L 477.267646 130.669069 
L 477.499171 118.428933 
L 477.730697 128.910264 
L 477.962223 132.628063 
L 478.193748 151.545937 
L 478.425274 135.144726 
L 478.888325 167.34658 
L 479.119851 144.825301 
L 479.351377 178.886054 
L 479.582902 170.47811 
L 479.814428 183.93368 
L 480.045954 178.542872 
L 480.277479 186.293052 
L 480.509005 202.150892 
L 480.740531 175.282649 
L 481.203582 154.763262 
L 481.435108 165.230294 
L 481.666633 159.496305 
L 481.898159 165.85946 
L 482.129685 177.313139 
L 482.36121 171.193071 
L 482.592736 179.114841 
L 482.824262 153.962506 
L 483.055787 155.17794 
L 483.287313 146.097932 
L 483.518839 147.885335 
L 483.750364 154.605971 
L 483.98189 146.555507 
L 484.213416 158.938636 
L 484.444941 164.000561 
L 484.676467 153.819513 
M 485.371044 158.037785 
L 485.60257 158.338068 
L 485.834095 156.993941 
L 486.065621 150.645085 
M 486.528672 136.302963 
L 486.991724 145.197081 
L 487.223249 144.367726 
L 487.454775 141.093203 
L 487.6863 140.60703 
L 488.149352 131.584219 
L 488.380877 133.772001 
M 489.538506 122.590007 
L 489.770031 125.47845 
L 490.001557 119.043799 
L 490.233083 123.676748 
L 490.464608 123.333567 
L 490.696134 119.95895 
L 490.92766 120.530919 
L 491.390711 117.070506 
L 491.622237 118.343137 
L 491.853762 115.468993 
L 492.085288 114.739733 
L 492.316814 119.358382 
L 492.548339 110.821745 
L 492.779865 110.836044 
L 493.011391 111.579604 
L 493.242916 109.577713 
L 493.474442 126.164813 
L 493.705968 121.331675 
L 493.937493 122.046636 
L 494.400545 119.472776 
L 494.63207 118.972303 
L 494.863596 121.417471 
L 495.326647 113.166818 
L 495.558173 122.547109 
L 495.789699 118.872209 
L 496.021224 125.607143 
L 496.484276 120.030446 
L 496.715801 119.158193 
L 497.178853 113.467102 
L 497.410378 118.557626 
L 497.641904 117.313593 
L 497.87343 121.403171 
L 498.104955 120.916998 
L 498.336481 125.964624 
L 498.799532 115.197308 
L 499.031058 119.558571 
L 499.262584 117.284995 
L 499.494109 112.451857 
L 499.725635 115.297402 
L 499.957161 111.894187 
L 500.188686 113.938976 
L 500.420212 117.199199 
L 500.651738 114.682536 
L 500.883263 114.925623 
L 501.114789 112.294565 
L 501.346315 118.757815 
M 503.893097 115.068615 
L 504.124623 111.079131 
L 504.356148 111.679699 
L 504.587674 108.848452 
L 504.8192 104.329897 
L 505.050725 104.358496 
L 505.745302 95.593071 
L 505.976828 94.492031 
L 506.208354 87.799994 
L 506.439879 93.119305 
L 506.671405 91.174611 
M 507.134456 97.45197 
L 507.597507 110.092485 
L 507.829033 104.45859 
L 508.060559 108.061995 
L 508.292084 109.291728 
L 508.52361 103.143062 
L 508.755136 102.556793 
L 508.986661 102.928573 
L 509.218187 102.728384 
L 509.449713 106.531978 
L 509.681238 113.910378 
L 509.912764 109.463319 
L 510.14429 116.884616 
L 510.375815 116.670128 
L 510.607341 114.196362 
L 510.838867 109.8065 
L 511.070392 111.064832 
L 511.301918 110.306973 
L 511.533444 105.473835 
L 511.764969 108.176389 
L 511.996495 105.20215 
L 512.228021 109.62061 
M 513.617175 107.118246 
L 513.8487 110.907541 
L 514.080226 109.892296 
L 514.311752 114.59674 
L 514.774803 112.509054 
L 515.006329 113.13822 
L 515.237854 113.109621 
L 515.700906 124.477505 
M 517.09006 118.886508 
L 517.321585 113.638692 
L 517.553111 112.451857 
L 517.784637 92.132659 
L 518.016162 91.231808 
L 518.247688 92.10406 
L 518.479214 98.452916 
L 518.942265 92.10406 
L 519.868368 104.715976 
L 520.099893 98.595908 
L 520.562945 94.69222 
L 520.79447 94.534928 
L 521.025996 95.464378 
L 521.257522 94.248944 
L 521.489047 95.707465 
L 521.720573 98.7532 
L 521.952099 92.132659 
L 522.183624 92.175556 
L 522.41515 92.003966 
L 522.646676 96.565418 
M 523.341253 99.897138 
L 523.572778 98.309924 
L 523.804304 98.438617 
L 524.03583 94.277542 
L 524.267355 94.091653 
L 524.961932 102.685486 
L 525.656509 89.71609 
M 527.508714 91.832375 
L 527.74024 97.594963 
L 527.971766 96.894301 
L 528.203291 107.60442 
L 528.434817 107.990499 
L 528.666343 107.890404 
L 528.897868 101.670242 
L 529.129394 102.914274 
L 529.36092 107.375632 
L 529.592445 108.862751 
L 529.823971 107.389931 
L 530.055497 117.456585 
L 530.287022 112.809337 
L 530.518548 119.916052 
L 530.981599 106.531978 
M 531.444651 97.037293 
L 531.676176 97.723656 
L 531.907702 100.41191 
L 532.139228 100.940981 
L 532.370753 101.055375 
L 532.602279 95.021102 
L 532.833805 96.022048 
L 533.06533 98.967688 
L 533.296856 99.525358 
L 533.528382 96.894301 
M 533.991433 98.367121 
L 534.222959 92.947715 
L 534.454484 82.480682 
L 534.68601 90.602642 
L 534.917536 92.547336 
L 535.149061 86.484465 
L 535.612113 89.029727 
L 535.843638 93.819967 
L 536.30669 81.279547 
L 536.538215 81.150854 
L 536.769741 77.132772 
M 537.232792 75.431165 
L 537.464318 76.98978 
L 537.695844 74.944991 
L 538.158895 80.721878 
M 542.326357 78.83438 
L 542.557883 72.685713 
L 542.789408 72.499824 
L 543.020934 73.386375 
L 543.25246 76.975481 
L 543.483985 71.012704 
L 543.715511 70.841113 
L 543.947037 67.366402 
L 544.178562 66.880228 
L 544.410088 67.495095 
L 544.873139 57.557134 
L 545.104665 62.275878 
L 545.567716 64.463659 
L 545.799242 68.496041 
L 546.030768 65.478904 
L 546.262293 64.334966 
L 546.493819 73.128989 
L 546.725345 73.829651 
M 547.188396 76.317716 
L 547.419922 71.741965 
L 547.651447 72.456926 
L 547.882973 73.700958 
M 548.809075 68.338749 
L 549.040601 68.767726 
L 549.272127 71.556075 
L 549.503652 71.856358 
L 549.735178 71.227193 
L 549.966704 72.185241 
L 550.198229 67.852576 
L 550.429755 70.068955 
L 550.892806 65.478904 
L 551.124332 64.435061 
L 551.355858 64.063281 
L 551.818909 60.273987 
L 552.28196 63.105233 
L 552.513486 67.938371 
L 552.745012 64.292069 
L 552.976537 66.780134 
L 553.208063 61.189137 
L 553.439589 58.886962 
L 553.671114 60.674365 
L 554.134166 56.89937 
L 554.365691 61.518019 
L 554.597217 58.858363 
L 554.828743 61.904098 
L 555.060268 60.002301 
L 555.291794 55.026171 
L 555.52332 53.639146 
L 555.754845 53.067177 
L 555.986371 57.914615 
L 556.217897 55.254959 
L 556.449422 56.112912 
L 556.912474 44.501942 
L 557.143999 40.84134 
L 557.375525 41.456207 
L 557.607051 52.480909 
L 557.838576 49.206387 
L 558.070102 47.833661 
L 558.301628 47.147298 
M 559.922307 53.38176 
L 560.153833 57.228252 
L 560.385359 57.828819 
L 560.616884 52.766894 
M 561.079936 53.067177 
L 561.311461 55.826928 
L 561.774513 64.806841 
L 562.006038 63.577107 
M 562.46909 60.888853 
L 562.700615 65.035628 
L 562.932141 65.121424 
L 563.163667 65.421707 
L 563.395192 61.446523 
M 563.858244 63.662903 
L 564.089769 66.622842 
M 564.784346 68.653332 
L 565.015872 67.194811 
L 565.247398 75.688551 
L 565.710449 72.700013 
L 565.941975 68.667631 
L 566.1735 70.955507 
L 566.405026 74.644707 
L 566.636552 75.045085 
L 566.868077 77.332961 
L 567.331129 75.474062 
L 567.79418 81.59413 
L 568.025705 81.42254 
L 568.257231 77.73334 
L 568.720282 65.092825 
L 568.951808 67.938371 
L 569.183334 73.715258 
L 569.414859 72.113744 
L 569.646385 77.73334 
L 569.877911 66.708638 
L 570.109436 74.902093 
L 570.340962 75.545558 
L 570.572488 72.356831 
L 570.804013 66.579945 
M 571.267065 74.358723 
L 571.49859 75.87444 
L 571.730116 78.148017 
L 571.961642 74.258628 
M 572.424693 66.436952 
L 572.656219 62.333075 
L 573.11927 67.023221 
L 573.350796 65.607597 
L 573.582321 61.818303 
L 573.813847 64.763943 
L 574.045373 87.699899 
L 574.276898 96.193639 
L 574.508424 93.433888 
L 574.73995 92.447242 
L 574.971475 97.194584 
L 575.203001 98.681704 
L 575.434527 97.709356 
L 575.666052 86.427268 
M 576.592155 95.364284 
L 576.823681 92.976313 
L 577.055206 92.676029 
L 577.286732 88.557853 
L 577.518258 103.028668 
L 577.981309 109.034342 
L 578.212835 116.584333 
L 578.44436 112.423258 
L 578.675886 105.616827 
L 578.907412 113.624393 
L 579.138937 115.569088 
L 579.370463 119.172492 
L 579.370463 119.172492 
" clip-path="url(#p5131f2d23e)" style="fill: none; stroke: #1e90ff; stroke-linecap: square"/>
   </g>
   <g id="patch_3">
    <path d="M 46.965625 354.958125 
L 46.965625 22.318125 
" style="fill: none; stroke: #000000; stroke-width: 0.8; stroke-linejoin: miter; stroke-linecap: square"/>
   </g>
   <g id="patch_4">
    <path d="M 604.965625 354.958125 
L 604.965625 22.318125 
" style="fill: none; stroke: #000000; stroke-width: 0.8; stroke-linejoin: miter; stroke-linecap: square"/>
   </g>
   <g id="patch_5">
    <path d="M 46.965625 354.958125 
L 604.965625 354.958125 
" style="fill: none; stroke: #000000; stroke-width: 0.8; stroke-linejoin: miter; stroke-linecap: square"/>
   </g>
   <g id="patch_6">
    <path d="M 46.965625 22.318125 
L 604.965625 22.318125 
" style="fill: none; stroke: #000000; stroke-width: 0.8; stroke-linejoin: miter; stroke-linecap: square"/>
   </g>
   <g id="text_13">
    <!-- V, Relative Strength Index (RSI), V -->
    <g transform="translate(223.31125 16.318125)scale(0.12 -0.12)">
     <defs>
      <path id="DejaVuSans-56" d="M 1831 0 
L 50 4666 
L 709 4666 
L 2188 738 
L 3669 4666 
L 4325 4666 
L 2547 0 
L 1831 0 
z
" transform="scale(0.015625)"/>
      <path id="DejaVuSans-2c" d="M 750 794 
L 1409 794 
L 1409 256 
L 897 -744 
L 494 -744 
L 750 256 
L 750 794 
z
" transform="scale(0.015625)"/>
      <path id="DejaVuSans-52" d="M 2841 2188 
Q 3044 2119 3236 1894 
Q 3428 1669 3622 1275 
L 4263 0 
L 3584 0 
L 2988 1197 
Q 2756 1666 2539 1819 
Q 2322 1972 1947 1972 
L 1259 1972 
L 1259 0 
L 628 0 
L 628 4666 
L 2053 4666 
Q 2853 4666 3247 4331 
Q 3641 3997 3641 3322 
Q 3641 2881 3436 2590 
Q 3231 2300 2841 2188 
z
M 1259 4147 
L 1259 2491 
L 2053 2491 
Q 2509 2491 2742 2702 
Q 2975 2913 2975 3322 
Q 2975 3731 2742 3939 
Q 2509 4147 2053 4147 
L 1259 4147 
z
" transform="scale(0.015625)"/>
      <path id="DejaVuSans-6c" d="M 603 4863 
L 1178 4863 
L 1178 0 
L 603 0 
L 603 4863 
z
" transform="scale(0.015625)"/>
      <path id="DejaVuSans-76" d="M 191 3500 
L 800 3500 
L 1894 563 
L 2988 3500 
L 3597 3500 
L 2284 0 
L 1503 0 
L 191 3500 
z
" transform="scale(0.015625)"/>
      <path id="DejaVuSans-6e" d="M 3513 2113 
L 3513 0 
L 2938 0 
L 2938 2094 
Q 2938 2591 2744 2837 
Q 2550 3084 2163 3084 
Q 1697 3084 1428 2787 
Q 1159 2491 1159 1978 
L 1159 0 
L 581 0 
L 581 3500 
L 1159 3500 
L 1159 2956 
Q 1366 3272 1645 3428 
Q 1925 3584 2291 3584 
Q 2894 3584 3203 3211 
Q 3513 2838 3513 2113 
z
" transform="scale(0.015625)"/>
      <path id="DejaVuSans-67" d="M 2906 1791 
Q 2906 2416 2648 2759 
Q 2391 3103 1925 3103 
Q 1463 3103 1205 2759 
Q 947 2416 947 1791 
Q 947 1169 1205 825 
Q 1463 481 1925 481 
Q 2391 481 2648 825 
Q 2906 1169 2906 1791 
z
M 3481 434 
Q 3481 -459 3084 -895 
Q 2688 -1331 1869 -1331 
Q 1566 -1331 1297 -1286 
Q 1028 -1241 775 -1147 
L 775 -588 
Q 1028 -725 1275 -790 
Q 1522 -856 1778 -856 
Q 2344 -856 2625 -561 
Q 2906 -266 2906 331 
L 2906 616 
Q 2728 306 2450 153 
Q 2172 0 1784 0 
Q 1141 0 747 490 
Q 353 981 353 1791 
Q 353 2603 747 3093 
Q 1141 3584 1784 3584 
Q 2172 3584 2450 3431 
Q 2728 3278 2906 2969 
L 2906 3500 
L 3481 3500 
L 3481 434 
z
" transform="scale(0.015625)"/>
      <path id="DejaVuSans-68" d="M 3513 2113 
L 3513 0 
L 2938 0 
L 2938 2094 
Q 2938 2591 2744 2837 
Q 2550 3084 2163 3084 
Q 1697 3084 1428 2787 
Q 1159 2491 1159 1978 
L 1159 0 
L 581 0 
L 581 4863 
L 1159 4863 
L 1159 2956 
Q 1366 3272 1645 3428 
Q 1925 3584 2291 3584 
Q 2894 3584 3203 3211 
Q 3513 2838 3513 2113 
z
" transform="scale(0.015625)"/>
      <path id="DejaVuSans-49" d="M 628 4666 
L 1259 4666 
L 1259 0 
L 628 0 
L 628 4666 
z
" transform="scale(0.015625)"/>
      <path id="DejaVuSans-64" d="M 2906 2969 
L 2906 4863 
L 3481 4863 
L 3481 0 
L 2906 0 
L 2906 525 
Q 2725 213 2448 61 
Q 2172 -91 1784 -91 
Q 1150 -91 751 415 
Q 353 922 353 1747 
Q 353 2572 751 3078 
Q 1150 3584 1784 3584 
Q 2172 3584 2448 3432 
Q 2725 3281 2906 2969 
z
M 947 1747 
Q 947 1113 1208 752 
Q 1469 391 1925 391 
Q 2381 391 2643 752 
Q 2906 1113 2906 1747 
Q 2906 2381 2643 2742 
Q 2381 3103 1925 3103 
Q 1469 3103 1208 2742 
Q 947 2381 947 1747 
z
" transform="scale(0.015625)"/>
      <path id="DejaVuSans-78" d="M 3513 3500 
L 2247 1797 
L 3578 0 
L 2900 0 
L 1881 1375 
L 863 0 
L 184 0 
L 1544 1831 
L 300 3500 
L 978 3500 
L 1906 2253 
L 2834 3500 
L 3513 3500 
z
" transform="scale(0.015625)"/>
     </defs>
     <use xlink:href="#DejaVuSans-56"/>
     <use xlink:href="#DejaVuSans-2c" x="68.408203"/>
     <use xlink:href="#DejaVuSans-20" x="100.195312"/>
     <use xlink:href="#DejaVuSans-52" x="131.982422"/>
     <use xlink:href="#DejaVuSans-65" x="196.964844"/>
     <use xlink:href="#DejaVuSans-6c" x="258.488281"/>
     <use xlink:href="#DejaVuSans-61" x="286.271484"/>
     <use xlink:href="#DejaVuSans-74" x="347.550781"/>
     <use xlink:href="#DejaVuSans-69" x="386.759766"/>
     <use xlink:href="#DejaVuSans-76" x="414.542969"/>
     <use xlink:href="#DejaVuSans-65" x="473.722656"/>
     <use xlink:href="#DejaVuSans-20" x="535.246094"/>
     <use xlink:href="#DejaVuSans-53" x="567.033203"/>
     <use xlink:href="#DejaVuSans-74" x="630.509766"/>
     <use xlink:href="#DejaVuSans-72" x="669.71875"/>
     <use xlink:href="#DejaVuSans-65" x="708.582031"/>
     <use xlink:href="#DejaVuSans-6e" x="770.105469"/>
     <use xlink:href="#DejaVuSans-67" x="833.484375"/>
     <use xlink:href="#DejaVuSans-74" x="896.960938"/>
     <use xlink:href="#DejaVuSans-68" x="936.169922"/>
     <use xlink:href="#DejaVuSans-20" x="999.548828"/>
     <use xlink:href="#DejaVuSans-49" x="1031.335938"/>
     <use xlink:href="#DejaVuSans-6e" x="1060.828125"/>
     <use xlink:href="#DejaVuSans-64" x="1124.207031"/>
     <use xlink:href="#DejaVuSans-65" x="1187.683594"/>
     <use xlink:href="#DejaVuSans-78" x="1247.457031"/>
     <use xlink:href="#DejaVuSans-20" x="1306.636719"/>
     <use xlink:href="#DejaVuSans-28" x="1338.423828"/>
     <use xlink:href="#DejaVuSans-52" x="1377.4375"/>
     <use xlink:href="#DejaVuSans-53" x="1446.919922"/>
     <use xlink:href="#DejaVuSans-49" x="1510.396484"/>
     <use xlink:href="#DejaVuSans-29" x="1539.888672"/>
     <use xlink:href="#DejaVuSans-2c" x="1578.902344"/>
     <use xlink:href="#DejaVuSans-20" x="1610.689453"/>
     <use xlink:href="#DejaVuSans-56" x="1642.476562"/>
    </g>
   </g>
   <g id="legend_1">
    <g id="patch_7">
     <path d="M 53.965625 74.3525 
L 203.875 74.3525 
Q 205.875 74.3525 205.875 72.3525 
L 205.875 29.318125 
Q 205.875 27.318125 203.875 27.318125 
L 53.965625 27.318125 
Q 51.965625 27.318125 51.965625 29.318125 
L 51.965625 72.3525 
Q 51.965625 74.3525 53.965625 74.3525 
z
" style="fill: #ffffff; opacity: 0.8; stroke: #cccccc; stroke-linejoin: miter"/>
    </g>
    <g id="line2d_19">
     <path d="M 55.965625 35.416562 
L 65.965625 35.416562 
L 75.965625 35.416562 
" style="fill: none; stroke: #00ff7f; stroke-linecap: square"/>
    </g>
    <g id="text_14">
     <!-- Oversold, RSI &lt;= 30 -->
     <g transform="translate(83.965625 38.916562)scale(0.1 -0.1)">
      <defs>
       <path id="DejaVuSans-4f" d="M 2522 4238 
Q 1834 4238 1429 3725 
Q 1025 3213 1025 2328 
Q 1025 1447 1429 934 
Q 1834 422 2522 422 
Q 3209 422 3611 934 
Q 4013 1447 4013 2328 
Q 4013 3213 3611 3725 
Q 3209 4238 2522 4238 
z
M 2522 4750 
Q 3503 4750 4090 4092 
Q 4678 3434 4678 2328 
Q 4678 1225 4090 567 
Q 3503 -91 2522 -91 
Q 1538 -91 948 565 
Q 359 1222 359 2328 
Q 359 3434 948 4092 
Q 1538 4750 2522 4750 
z
" transform="scale(0.015625)"/>
       <path id="DejaVuSans-73" d="M 2834 3397 
L 2834 2853 
Q 2591 2978 2328 3040 
Q 2066 3103 1784 3103 
Q 1356 3103 1142 2972 
Q 928 2841 928 2578 
Q 928 2378 1081 2264 
Q 1234 2150 1697 2047 
L 1894 2003 
Q 2506 1872 2764 1633 
Q 3022 1394 3022 966 
Q 3022 478 2636 193 
Q 2250 -91 1575 -91 
Q 1294 -91 989 -36 
Q 684 19 347 128 
L 347 722 
Q 666 556 975 473 
Q 1284 391 1588 391 
Q 1994 391 2212 530 
Q 2431 669 2431 922 
Q 2431 1156 2273 1281 
Q 2116 1406 1581 1522 
L 1381 1569 
Q 847 1681 609 1914 
Q 372 2147 372 2553 
Q 372 3047 722 3315 
Q 1072 3584 1716 3584 
Q 2034 3584 2315 3537 
Q 2597 3491 2834 3397 
z
" transform="scale(0.015625)"/>
       <path id="DejaVuSans-6f" d="M 1959 3097 
Q 1497 3097 1228 2736 
Q 959 2375 959 1747 
Q 959 1119 1226 758 
Q 1494 397 1959 397 
Q 2419 397 2687 759 
Q 2956 1122 2956 1747 
Q 2956 2369 2687 2733 
Q 2419 3097 1959 3097 
z
M 1959 3584 
Q 2709 3584 3137 3096 
Q 3566 2609 3566 1747 
Q 3566 888 3137 398 
Q 2709 -91 1959 -91 
Q 1206 -91 779 398 
Q 353 888 353 1747 
Q 353 2609 779 3096 
Q 1206 3584 1959 3584 
z
" transform="scale(0.015625)"/>
       <path id="DejaVuSans-3c" d="M 4684 3150 
L 1459 2003 
L 4684 863 
L 4684 294 
L 678 1747 
L 678 2266 
L 4684 3719 
L 4684 3150 
z
" transform="scale(0.015625)"/>
       <path id="DejaVuSans-3d" d="M 678 2906 
L 4684 2906 
L 4684 2381 
L 678 2381 
L 678 2906 
z
M 678 1631 
L 4684 1631 
L 4684 1100 
L 678 1100 
L 678 1631 
z
" transform="scale(0.015625)"/>
       <path id="DejaVuSans-33" d="M 2597 2516 
Q 3050 2419 3304 2112 
Q 3559 1806 3559 1356 
Q 3559 666 3084 287 
Q 2609 -91 1734 -91 
Q 1441 -91 1130 -33 
Q 819 25 488 141 
L 488 750 
Q 750 597 1062 519 
Q 1375 441 1716 441 
Q 2309 441 2620 675 
Q 2931 909 2931 1356 
Q 2931 1769 2642 2001 
Q 2353 2234 1838 2234 
L 1294 2234 
L 1294 2753 
L 1863 2753 
Q 2328 2753 2575 2939 
Q 2822 3125 2822 3475 
Q 2822 3834 2567 4026 
Q 2313 4219 1838 4219 
Q 1578 4219 1281 4162 
Q 984 4106 628 3988 
L 628 4550 
Q 988 4650 1302 4700 
Q 1616 4750 1894 4750 
Q 2613 4750 3031 4423 
Q 3450 4097 3450 3541 
Q 3450 3153 3228 2886 
Q 3006 2619 2597 2516 
z
" transform="scale(0.015625)"/>
      </defs>
      <use xlink:href="#DejaVuSans-4f"/>
      <use xlink:href="#DejaVuSans-76" x="78.710938"/>
      <use xlink:href="#DejaVuSans-65" x="137.890625"/>
      <use xlink:href="#DejaVuSans-72" x="199.414062"/>
      <use xlink:href="#DejaVuSans-73" x="240.527344"/>
      <use xlink:href="#DejaVuSans-6f" x="292.626953"/>
      <use xlink:href="#DejaVuSans-6c" x="353.808594"/>
      <use xlink:href="#DejaVuSans-64" x="381.591797"/>
      <use xlink:href="#DejaVuSans-2c" x="445.068359"/>
      <use xlink:href="#DejaVuSans-20" x="476.855469"/>
      <use xlink:href="#DejaVuSans-52" x="508.642578"/>
      <use xlink:href="#DejaVuSans-53" x="578.125"/>
      <use xlink:href="#DejaVuSans-49" x="641.601562"/>
      <use xlink:href="#DejaVuSans-20" x="671.09375"/>
      <use xlink:href="#DejaVuSans-3c" x="702.880859"/>
      <use xlink:href="#DejaVuSans-3d" x="786.669922"/>
      <use xlink:href="#DejaVuSans-20" x="870.458984"/>
      <use xlink:href="#DejaVuSans-33" x="902.246094"/>
      <use xlink:href="#DejaVuSans-30" x="965.869141"/>
     </g>
    </g>
    <g id="line2d_20">
     <path d="M 55.965625 50.094687 
L 65.965625 50.094687 
L 75.965625 50.094687 
" style="fill: none; stroke: #ff4500; stroke-linecap: square"/>
    </g>
    <g id="text_15">
     <!-- Overbought, RSI &gt;= 70 -->
     <g transform="translate(83.965625 53.594687)scale(0.1 -0.1)">
      <defs>
       <path id="DejaVuSans-62" d="M 3116 1747 
Q 3116 2381 2855 2742 
Q 2594 3103 2138 3103 
Q 1681 3103 1420 2742 
Q 1159 2381 1159 1747 
Q 1159 1113 1420 752 
Q 1681 391 2138 391 
Q 2594 391 2855 752 
Q 3116 1113 3116 1747 
z
M 1159 2969 
Q 1341 3281 1617 3432 
Q 1894 3584 2278 3584 
Q 2916 3584 3314 3078 
Q 3713 2572 3713 1747 
Q 3713 922 3314 415 
Q 2916 -91 2278 -91 
Q 1894 -91 1617 61 
Q 1341 213 1159 525 
L 1159 0 
L 581 0 
L 581 4863 
L 1159 4863 
L 1159 2969 
z
" transform="scale(0.015625)"/>
       <path id="DejaVuSans-75" d="M 544 1381 
L 544 3500 
L 1119 3500 
L 1119 1403 
Q 1119 906 1312 657 
Q 1506 409 1894 409 
Q 2359 409 2629 706 
Q 2900 1003 2900 1516 
L 2900 3500 
L 3475 3500 
L 3475 0 
L 2900 0 
L 2900 538 
Q 2691 219 2414 64 
Q 2138 -91 1772 -91 
Q 1169 -91 856 284 
Q 544 659 544 1381 
z
M 1991 3584 
L 1991 3584 
z
" transform="scale(0.015625)"/>
       <path id="DejaVuSans-3e" d="M 678 3150 
L 678 3719 
L 4684 2266 
L 4684 1747 
L 678 294 
L 678 863 
L 3897 2003 
L 678 3150 
z
" transform="scale(0.015625)"/>
       <path id="DejaVuSans-37" d="M 525 4666 
L 3525 4666 
L 3525 4397 
L 1831 0 
L 1172 0 
L 2766 4134 
L 525 4134 
L 525 4666 
z
" transform="scale(0.015625)"/>
      </defs>
      <use xlink:href="#DejaVuSans-4f"/>
      <use xlink:href="#DejaVuSans-76" x="78.710938"/>
      <use xlink:href="#DejaVuSans-65" x="137.890625"/>
      <use xlink:href="#DejaVuSans-72" x="199.414062"/>
      <use xlink:href="#DejaVuSans-62" x="240.527344"/>
      <use xlink:href="#DejaVuSans-6f" x="304.003906"/>
      <use xlink:href="#DejaVuSans-75" x="365.185547"/>
      <use xlink:href="#DejaVuSans-67" x="428.564453"/>
      <use xlink:href="#DejaVuSans-68" x="492.041016"/>
      <use xlink:href="#DejaVuSans-74" x="555.419922"/>
      <use xlink:href="#DejaVuSans-2c" x="594.628906"/>
      <use xlink:href="#DejaVuSans-20" x="626.416016"/>
      <use xlink:href="#DejaVuSans-52" x="658.203125"/>
      <use xlink:href="#DejaVuSans-53" x="727.685547"/>
      <use xlink:href="#DejaVuSans-49" x="791.162109"/>
      <use xlink:href="#DejaVuSans-20" x="820.654297"/>
      <use xlink:href="#DejaVuSans-3e" x="852.441406"/>
      <use xlink:href="#DejaVuSans-3d" x="936.230469"/>
      <use xlink:href="#DejaVuSans-20" x="1020.019531"/>
      <use xlink:href="#DejaVuSans-37" x="1051.806641"/>
      <use xlink:href="#DejaVuSans-30" x="1115.429688"/>
     </g>
    </g>
    <g id="line2d_21">
     <path d="M 55.965625 64.772812 
L 65.965625 64.772812 
L 75.965625 64.772812 
" style="fill: none; stroke: #1e90ff; stroke-linecap: square"/>
    </g>
    <g id="text_16">
     <!-- Neutral -->
     <g transform="translate(83.965625 68.272812)scale(0.1 -0.1)">
      <defs>
       <path id="DejaVuSans-4e" d="M 628 4666 
L 1478 4666 
L 3547 763 
L 3547 4666 
L 4159 4666 
L 4159 0 
L 3309 0 
L 1241 3903 
L 1241 0 
L 628 0 
L 628 4666 
z
" transform="scale(0.015625)"/>
      </defs>
      <use xlink:href="#DejaVuSans-4e"/>
      <use xlink:href="#DejaVuSans-65" x="74.804688"/>
      <use xlink:href="#DejaVuSans-75" x="136.328125"/>
      <use xlink:href="#DejaVuSans-74" x="199.707031"/>
      <use xlink:href="#DejaVuSans-72" x="238.916016"/>
      <use xlink:href="#DejaVuSans-61" x="280.029297"/>
      <use xlink:href="#DejaVuSans-6c" x="341.308594"/>
     </g>
    </g>
   </g>
  </g>
 </g>
 <defs>
  <clipPath id="p5131f2d23e">
   <rect x="46.965625" y="22.318125" width="558" height="332.64"/>
  </clipPath>
 </defs>
</svg>
