<?xml version="1.0" encoding="utf-8" standalone="no"?>
<!DOCTYPE svg PUBLIC "-//W3C//DTD SVG 1.1//EN"
  "http://www.w3.org/Graphics/SVG/1.1/DTD/svg11.dtd">
<svg xmlns:xlink="http://www.w3.org/1999/xlink" width="612.165625pt" height="378.83625pt" viewBox="0 0 612.165625 378.83625" xmlns="http://www.w3.org/2000/svg" version="1.1">
 <metadata>
  <rdf:RDF xmlns:dc="http://purl.org/dc/elements/1.1/" xmlns:cc="http://creativecommons.org/ns#" xmlns:rdf="http://www.w3.org/1999/02/22-rdf-syntax-ns#">
   <cc:Work>
    <dc:type rdf:resource="http://purl.org/dc/dcmitype/StillImage"/>
    <dc:date>2023-03-19T14:15:26.104952</dc:date>
    <dc:format>image/svg+xml</dc:format>
    <dc:creator>
     <cc:Agent>
      <dc:title>Matplotlib v3.5.1, https://matplotlib.org/</dc:title>
     </cc:Agent>
    </dc:creator>
   </cc:Work>
  </rdf:RDF>
 </metadata>
 <defs>
  <style type="text/css">*{stroke-linejoin: round; stroke-linecap: butt}</style>
 </defs>
 <g id="figure_1">
  <g id="patch_1">
   <path d="M 0 378.83625 
L 612.165625 378.83625 
L 612.165625 0 
L 0 0 
z
" style="fill: #ffffff"/>
  </g>
  <g id="axes_1">
   <g id="patch_2">
    <path d="M 46.965625 354.958125 
L 604.965625 354.958125 
L 604.965625 22.318125 
L 46.965625 22.318125 
z
" style="fill: #ffffff"/>
   </g>
   <g id="matplotlib.axis_1">
    <g id="xtick_1">
     <g id="line2d_1">
      <defs>
       <path id="m12b40e03bb" d="M 0 0 
L 0 3.5 
" style="stroke: #000000; stroke-width: 0.8"/>
      </defs>
      <g>
       <use xlink:href="#m12b40e03bb" x="61.627892" y="354.958125" style="stroke: #000000; stroke-width: 0.8"/>
      </g>
     </g>
     <g id="text_1">
      <!-- 2013 -->
      <g transform="translate(48.902892 369.556562)scale(0.1 -0.1)">
       <defs>
        <path id="DejaVuSans-32" d="M 1228 531 
L 3431 531 
L 3431 0 
L 469 0 
L 469 531 
Q 828 903 1448 1529 
Q 2069 2156 2228 2338 
Q 2531 2678 2651 2914 
Q 2772 3150 2772 3378 
Q 2772 3750 2511 3984 
Q 2250 4219 1831 4219 
Q 1534 4219 1204 4116 
Q 875 4013 500 3803 
L 500 4441 
Q 881 4594 1212 4672 
Q 1544 4750 1819 4750 
Q 2544 4750 2975 4387 
Q 3406 4025 3406 3419 
Q 3406 3131 3298 2873 
Q 3191 2616 2906 2266 
Q 2828 2175 2409 1742 
Q 1991 1309 1228 531 
z
" transform="scale(0.015625)"/>
        <path id="DejaVuSans-30" d="M 2034 4250 
Q 1547 4250 1301 3770 
Q 1056 3291 1056 2328 
Q 1056 1369 1301 889 
Q 1547 409 2034 409 
Q 2525 409 2770 889 
Q 3016 1369 3016 2328 
Q 3016 3291 2770 3770 
Q 2525 4250 2034 4250 
z
M 2034 4750 
Q 2819 4750 3233 4129 
Q 3647 3509 3647 2328 
Q 3647 1150 3233 529 
Q 2819 -91 2034 -91 
Q 1250 -91 836 529 
Q 422 1150 422 2328 
Q 422 3509 836 4129 
Q 1250 4750 2034 4750 
z
" transform="scale(0.015625)"/>
        <path id="DejaVuSans-31" d="M 794 531 
L 1825 531 
L 1825 4091 
L 703 3866 
L 703 4441 
L 1819 4666 
L 2450 4666 
L 2450 531 
L 3481 531 
L 3481 0 
L 794 0 
L 794 531 
z
" transform="scale(0.015625)"/>
        <path id="DejaVuSans-33" d="M 2597 2516 
Q 3050 2419 3304 2112 
Q 3559 1806 3559 1356 
Q 3559 666 3084 287 
Q 2609 -91 1734 -91 
Q 1441 -91 1130 -33 
Q 819 25 488 141 
L 488 750 
Q 750 597 1062 519 
Q 1375 441 1716 441 
Q 2309 441 2620 675 
Q 2931 909 2931 1356 
Q 2931 1769 2642 2001 
Q 2353 2234 1838 2234 
L 1294 2234 
L 1294 2753 
L 1863 2753 
Q 2328 2753 2575 2939 
Q 2822 3125 2822 3475 
Q 2822 3834 2567 4026 
Q 2313 4219 1838 4219 
Q 1578 4219 1281 4162 
Q 984 4106 628 3988 
L 628 4550 
Q 988 4650 1302 4700 
Q 1616 4750 1894 4750 
Q 2613 4750 3031 4423 
Q 3450 4097 3450 3541 
Q 3450 3153 3228 2886 
Q 3006 2619 2597 2516 
z
" transform="scale(0.015625)"/>
       </defs>
       <use xlink:href="#DejaVuSans-32"/>
       <use xlink:href="#DejaVuSans-30" x="63.623047"/>
       <use xlink:href="#DejaVuSans-31" x="127.246094"/>
       <use xlink:href="#DejaVuSans-33" x="190.869141"/>
      </g>
     </g>
    </g>
    <g id="xtick_2">
     <g id="line2d_2">
      <g>
       <use xlink:href="#m12b40e03bb" x="112.355164" y="354.958125" style="stroke: #000000; stroke-width: 0.8"/>
      </g>
     </g>
     <g id="text_2">
      <!-- 2014 -->
      <g transform="translate(99.630164 369.556562)scale(0.1 -0.1)">
       <defs>
        <path id="DejaVuSans-34" d="M 2419 4116 
L 825 1625 
L 2419 1625 
L 2419 4116 
z
M 2253 4666 
L 3047 4666 
L 3047 1625 
L 3713 1625 
L 3713 1100 
L 3047 1100 
L 3047 0 
L 2419 0 
L 2419 1100 
L 313 1100 
L 313 1709 
L 2253 4666 
z
" transform="scale(0.015625)"/>
       </defs>
       <use xlink:href="#DejaVuSans-32"/>
       <use xlink:href="#DejaVuSans-30" x="63.623047"/>
       <use xlink:href="#DejaVuSans-31" x="127.246094"/>
       <use xlink:href="#DejaVuSans-34" x="190.869141"/>
      </g>
     </g>
    </g>
    <g id="xtick_3">
     <g id="line2d_3">
      <g>
       <use xlink:href="#m12b40e03bb" x="163.082437" y="354.958125" style="stroke: #000000; stroke-width: 0.8"/>
      </g>
     </g>
     <g id="text_3">
      <!-- 2015 -->
      <g transform="translate(150.357437 369.556562)scale(0.1 -0.1)">
       <defs>
        <path id="DejaVuSans-35" d="M 691 4666 
L 3169 4666 
L 3169 4134 
L 1269 4134 
L 1269 2991 
Q 1406 3038 1543 3061 
Q 1681 3084 1819 3084 
Q 2600 3084 3056 2656 
Q 3513 2228 3513 1497 
Q 3513 744 3044 326 
Q 2575 -91 1722 -91 
Q 1428 -91 1123 -41 
Q 819 9 494 109 
L 494 744 
Q 775 591 1075 516 
Q 1375 441 1709 441 
Q 2250 441 2565 725 
Q 2881 1009 2881 1497 
Q 2881 1984 2565 2268 
Q 2250 2553 1709 2553 
Q 1456 2553 1204 2497 
Q 953 2441 691 2322 
L 691 4666 
z
" transform="scale(0.015625)"/>
       </defs>
       <use xlink:href="#DejaVuSans-32"/>
       <use xlink:href="#DejaVuSans-30" x="63.623047"/>
       <use xlink:href="#DejaVuSans-31" x="127.246094"/>
       <use xlink:href="#DejaVuSans-35" x="190.869141"/>
      </g>
     </g>
    </g>
    <g id="xtick_4">
     <g id="line2d_4">
      <g>
       <use xlink:href="#m12b40e03bb" x="213.80971" y="354.958125" style="stroke: #000000; stroke-width: 0.8"/>
      </g>
     </g>
     <g id="text_4">
      <!-- 2016 -->
      <g transform="translate(201.08471 369.556562)scale(0.1 -0.1)">
       <defs>
        <path id="DejaVuSans-36" d="M 2113 2584 
Q 1688 2584 1439 2293 
Q 1191 2003 1191 1497 
Q 1191 994 1439 701 
Q 1688 409 2113 409 
Q 2538 409 2786 701 
Q 3034 994 3034 1497 
Q 3034 2003 2786 2293 
Q 2538 2584 2113 2584 
z
M 3366 4563 
L 3366 3988 
Q 3128 4100 2886 4159 
Q 2644 4219 2406 4219 
Q 1781 4219 1451 3797 
Q 1122 3375 1075 2522 
Q 1259 2794 1537 2939 
Q 1816 3084 2150 3084 
Q 2853 3084 3261 2657 
Q 3669 2231 3669 1497 
Q 3669 778 3244 343 
Q 2819 -91 2113 -91 
Q 1303 -91 875 529 
Q 447 1150 447 2328 
Q 447 3434 972 4092 
Q 1497 4750 2381 4750 
Q 2619 4750 2861 4703 
Q 3103 4656 3366 4563 
z
" transform="scale(0.015625)"/>
       </defs>
       <use xlink:href="#DejaVuSans-32"/>
       <use xlink:href="#DejaVuSans-30" x="63.623047"/>
       <use xlink:href="#DejaVuSans-31" x="127.246094"/>
       <use xlink:href="#DejaVuSans-36" x="190.869141"/>
      </g>
     </g>
    </g>
    <g id="xtick_5">
     <g id="line2d_5">
      <g>
       <use xlink:href="#m12b40e03bb" x="264.675961" y="354.958125" style="stroke: #000000; stroke-width: 0.8"/>
      </g>
     </g>
     <g id="text_5">
      <!-- 2017 -->
      <g transform="translate(251.950961 369.556562)scale(0.1 -0.1)">
       <defs>
        <path id="DejaVuSans-37" d="M 525 4666 
L 3525 4666 
L 3525 4397 
L 1831 0 
L 1172 0 
L 2766 4134 
L 525 4134 
L 525 4666 
z
" transform="scale(0.015625)"/>
       </defs>
       <use xlink:href="#DejaVuSans-32"/>
       <use xlink:href="#DejaVuSans-30" x="63.623047"/>
       <use xlink:href="#DejaVuSans-31" x="127.246094"/>
       <use xlink:href="#DejaVuSans-37" x="190.869141"/>
      </g>
     </g>
    </g>
    <g id="xtick_6">
     <g id="line2d_6">
      <g>
       <use xlink:href="#m12b40e03bb" x="315.403234" y="354.958125" style="stroke: #000000; stroke-width: 0.8"/>
      </g>
     </g>
     <g id="text_6">
      <!-- 2018 -->
      <g transform="translate(302.678234 369.556562)scale(0.1 -0.1)">
       <defs>
        <path id="DejaVuSans-38" d="M 2034 2216 
Q 1584 2216 1326 1975 
Q 1069 1734 1069 1313 
Q 1069 891 1326 650 
Q 1584 409 2034 409 
Q 2484 409 2743 651 
Q 3003 894 3003 1313 
Q 3003 1734 2745 1975 
Q 2488 2216 2034 2216 
z
M 1403 2484 
Q 997 2584 770 2862 
Q 544 3141 544 3541 
Q 544 4100 942 4425 
Q 1341 4750 2034 4750 
Q 2731 4750 3128 4425 
Q 3525 4100 3525 3541 
Q 3525 3141 3298 2862 
Q 3072 2584 2669 2484 
Q 3125 2378 3379 2068 
Q 3634 1759 3634 1313 
Q 3634 634 3220 271 
Q 2806 -91 2034 -91 
Q 1263 -91 848 271 
Q 434 634 434 1313 
Q 434 1759 690 2068 
Q 947 2378 1403 2484 
z
M 1172 3481 
Q 1172 3119 1398 2916 
Q 1625 2713 2034 2713 
Q 2441 2713 2670 2916 
Q 2900 3119 2900 3481 
Q 2900 3844 2670 4047 
Q 2441 4250 2034 4250 
Q 1625 4250 1398 4047 
Q 1172 3844 1172 3481 
z
" transform="scale(0.015625)"/>
       </defs>
       <use xlink:href="#DejaVuSans-32"/>
       <use xlink:href="#DejaVuSans-30" x="63.623047"/>
       <use xlink:href="#DejaVuSans-31" x="127.246094"/>
       <use xlink:href="#DejaVuSans-38" x="190.869141"/>
      </g>
     </g>
    </g>
    <g id="xtick_7">
     <g id="line2d_7">
      <g>
       <use xlink:href="#m12b40e03bb" x="366.130507" y="354.958125" style="stroke: #000000; stroke-width: 0.8"/>
      </g>
     </g>
     <g id="text_7">
      <!-- 2019 -->
      <g transform="translate(353.405507 369.556562)scale(0.1 -0.1)">
       <defs>
        <path id="DejaVuSans-39" d="M 703 97 
L 703 672 
Q 941 559 1184 500 
Q 1428 441 1663 441 
Q 2288 441 2617 861 
Q 2947 1281 2994 2138 
Q 2813 1869 2534 1725 
Q 2256 1581 1919 1581 
Q 1219 1581 811 2004 
Q 403 2428 403 3163 
Q 403 3881 828 4315 
Q 1253 4750 1959 4750 
Q 2769 4750 3195 4129 
Q 3622 3509 3622 2328 
Q 3622 1225 3098 567 
Q 2575 -91 1691 -91 
Q 1453 -91 1209 -44 
Q 966 3 703 97 
z
M 1959 2075 
Q 2384 2075 2632 2365 
Q 2881 2656 2881 3163 
Q 2881 3666 2632 3958 
Q 2384 4250 1959 4250 
Q 1534 4250 1286 3958 
Q 1038 3666 1038 3163 
Q 1038 2656 1286 2365 
Q 1534 2075 1959 2075 
z
" transform="scale(0.015625)"/>
       </defs>
       <use xlink:href="#DejaVuSans-32"/>
       <use xlink:href="#DejaVuSans-30" x="63.623047"/>
       <use xlink:href="#DejaVuSans-31" x="127.246094"/>
       <use xlink:href="#DejaVuSans-39" x="190.869141"/>
      </g>
     </g>
    </g>
    <g id="xtick_8">
     <g id="line2d_8">
      <g>
       <use xlink:href="#m12b40e03bb" x="416.857779" y="354.958125" style="stroke: #000000; stroke-width: 0.8"/>
      </g>
     </g>
     <g id="text_8">
      <!-- 2020 -->
      <g transform="translate(404.132779 369.556562)scale(0.1 -0.1)">
       <use xlink:href="#DejaVuSans-32"/>
       <use xlink:href="#DejaVuSans-30" x="63.623047"/>
       <use xlink:href="#DejaVuSans-32" x="127.246094"/>
       <use xlink:href="#DejaVuSans-30" x="190.869141"/>
      </g>
     </g>
    </g>
    <g id="xtick_9">
     <g id="line2d_9">
      <g>
       <use xlink:href="#m12b40e03bb" x="467.724031" y="354.958125" style="stroke: #000000; stroke-width: 0.8"/>
      </g>
     </g>
     <g id="text_9">
      <!-- 2021 -->
      <g transform="translate(454.999031 369.556562)scale(0.1 -0.1)">
       <use xlink:href="#DejaVuSans-32"/>
       <use xlink:href="#DejaVuSans-30" x="63.623047"/>
       <use xlink:href="#DejaVuSans-32" x="127.246094"/>
       <use xlink:href="#DejaVuSans-31" x="190.869141"/>
      </g>
     </g>
    </g>
    <g id="xtick_10">
     <g id="line2d_10">
      <g>
       <use xlink:href="#m12b40e03bb" x="518.451304" y="354.958125" style="stroke: #000000; stroke-width: 0.8"/>
      </g>
     </g>
     <g id="text_10">
      <!-- 2022 -->
      <g transform="translate(505.726304 369.556562)scale(0.1 -0.1)">
       <use xlink:href="#DejaVuSans-32"/>
       <use xlink:href="#DejaVuSans-30" x="63.623047"/>
       <use xlink:href="#DejaVuSans-32" x="127.246094"/>
       <use xlink:href="#DejaVuSans-32" x="190.869141"/>
      </g>
     </g>
    </g>
    <g id="xtick_11">
     <g id="line2d_11">
      <g>
       <use xlink:href="#m12b40e03bb" x="569.178576" y="354.958125" style="stroke: #000000; stroke-width: 0.8"/>
      </g>
     </g>
     <g id="text_11">
      <!-- 2023 -->
      <g transform="translate(556.453576 369.556562)scale(0.1 -0.1)">
       <use xlink:href="#DejaVuSans-32"/>
       <use xlink:href="#DejaVuSans-30" x="63.623047"/>
       <use xlink:href="#DejaVuSans-32" x="127.246094"/>
       <use xlink:href="#DejaVuSans-33" x="190.869141"/>
      </g>
     </g>
    </g>
   </g>
   <g id="matplotlib.axis_2">
    <g id="ytick_1">
     <g id="line2d_12">
      <defs>
       <path id="m40a356e98d" d="M 0 0 
L -3.5 0 
" style="stroke: #000000; stroke-width: 0.8"/>
      </defs>
      <g>
       <use xlink:href="#m40a356e98d" x="46.965625" y="337.19523" style="stroke: #000000; stroke-width: 0.8"/>
      </g>
     </g>
     <g id="text_12">
      <!-- 60 -->
      <g transform="translate(27.240625 340.994449)scale(0.1 -0.1)">
       <use xlink:href="#DejaVuSans-36"/>
       <use xlink:href="#DejaVuSans-30" x="63.623047"/>
      </g>
     </g>
    </g>
    <g id="ytick_2">
     <g id="line2d_13">
      <g>
       <use xlink:href="#m40a356e98d" x="46.965625" y="284.337338" style="stroke: #000000; stroke-width: 0.8"/>
      </g>
     </g>
     <g id="text_13">
      <!-- 70 -->
      <g transform="translate(27.240625 288.136557)scale(0.1 -0.1)">
       <use xlink:href="#DejaVuSans-37"/>
       <use xlink:href="#DejaVuSans-30" x="63.623047"/>
      </g>
     </g>
    </g>
    <g id="ytick_3">
     <g id="line2d_14">
      <g>
       <use xlink:href="#m40a356e98d" x="46.965625" y="231.479446" style="stroke: #000000; stroke-width: 0.8"/>
      </g>
     </g>
     <g id="text_14">
      <!-- 80 -->
      <g transform="translate(27.240625 235.278665)scale(0.1 -0.1)">
       <use xlink:href="#DejaVuSans-38"/>
       <use xlink:href="#DejaVuSans-30" x="63.623047"/>
      </g>
     </g>
    </g>
    <g id="ytick_4">
     <g id="line2d_15">
      <g>
       <use xlink:href="#m40a356e98d" x="46.965625" y="178.621554" style="stroke: #000000; stroke-width: 0.8"/>
      </g>
     </g>
     <g id="text_15">
      <!-- 90 -->
      <g transform="translate(27.240625 182.420773)scale(0.1 -0.1)">
       <use xlink:href="#DejaVuSans-39"/>
       <use xlink:href="#DejaVuSans-30" x="63.623047"/>
      </g>
     </g>
    </g>
    <g id="ytick_5">
     <g id="line2d_16">
      <g>
       <use xlink:href="#m40a356e98d" x="46.965625" y="125.763662" style="stroke: #000000; stroke-width: 0.8"/>
      </g>
     </g>
     <g id="text_16">
      <!-- 100 -->
      <g transform="translate(20.878125 129.562881)scale(0.1 -0.1)">
       <use xlink:href="#DejaVuSans-31"/>
       <use xlink:href="#DejaVuSans-30" x="63.623047"/>
       <use xlink:href="#DejaVuSans-30" x="127.246094"/>
      </g>
     </g>
    </g>
    <g id="ytick_6">
     <g id="line2d_17">
      <g>
       <use xlink:href="#m40a356e98d" x="46.965625" y="72.905771" style="stroke: #000000; stroke-width: 0.8"/>
      </g>
     </g>
     <g id="text_17">
      <!-- 110 -->
      <g transform="translate(20.878125 76.704989)scale(0.1 -0.1)">
       <use xlink:href="#DejaVuSans-31"/>
       <use xlink:href="#DejaVuSans-31" x="63.623047"/>
       <use xlink:href="#DejaVuSans-30" x="127.246094"/>
      </g>
     </g>
    </g>
    <g id="text_18">
     <!-- Price (US Dollars) -->
     <g transform="translate(14.798438 232.160781)rotate(-90)scale(0.1 -0.1)">
      <defs>
       <path id="DejaVuSans-50" d="M 1259 4147 
L 1259 2394 
L 2053 2394 
Q 2494 2394 2734 2622 
Q 2975 2850 2975 3272 
Q 2975 3691 2734 3919 
Q 2494 4147 2053 4147 
L 1259 4147 
z
M 628 4666 
L 2053 4666 
Q 2838 4666 3239 4311 
Q 3641 3956 3641 3272 
Q 3641 2581 3239 2228 
Q 2838 1875 2053 1875 
L 1259 1875 
L 1259 0 
L 628 0 
L 628 4666 
z
" transform="scale(0.015625)"/>
       <path id="DejaVuSans-72" d="M 2631 2963 
Q 2534 3019 2420 3045 
Q 2306 3072 2169 3072 
Q 1681 3072 1420 2755 
Q 1159 2438 1159 1844 
L 1159 0 
L 581 0 
L 581 3500 
L 1159 3500 
L 1159 2956 
Q 1341 3275 1631 3429 
Q 1922 3584 2338 3584 
Q 2397 3584 2469 3576 
Q 2541 3569 2628 3553 
L 2631 2963 
z
" transform="scale(0.015625)"/>
       <path id="DejaVuSans-69" d="M 603 3500 
L 1178 3500 
L 1178 0 
L 603 0 
L 603 3500 
z
M 603 4863 
L 1178 4863 
L 1178 4134 
L 603 4134 
L 603 4863 
z
" transform="scale(0.015625)"/>
       <path id="DejaVuSans-63" d="M 3122 3366 
L 3122 2828 
Q 2878 2963 2633 3030 
Q 2388 3097 2138 3097 
Q 1578 3097 1268 2742 
Q 959 2388 959 1747 
Q 959 1106 1268 751 
Q 1578 397 2138 397 
Q 2388 397 2633 464 
Q 2878 531 3122 666 
L 3122 134 
Q 2881 22 2623 -34 
Q 2366 -91 2075 -91 
Q 1284 -91 818 406 
Q 353 903 353 1747 
Q 353 2603 823 3093 
Q 1294 3584 2113 3584 
Q 2378 3584 2631 3529 
Q 2884 3475 3122 3366 
z
" transform="scale(0.015625)"/>
       <path id="DejaVuSans-65" d="M 3597 1894 
L 3597 1613 
L 953 1613 
Q 991 1019 1311 708 
Q 1631 397 2203 397 
Q 2534 397 2845 478 
Q 3156 559 3463 722 
L 3463 178 
Q 3153 47 2828 -22 
Q 2503 -91 2169 -91 
Q 1331 -91 842 396 
Q 353 884 353 1716 
Q 353 2575 817 3079 
Q 1281 3584 2069 3584 
Q 2775 3584 3186 3129 
Q 3597 2675 3597 1894 
z
M 3022 2063 
Q 3016 2534 2758 2815 
Q 2500 3097 2075 3097 
Q 1594 3097 1305 2825 
Q 1016 2553 972 2059 
L 3022 2063 
z
" transform="scale(0.015625)"/>
       <path id="DejaVuSans-20" transform="scale(0.015625)"/>
       <path id="DejaVuSans-28" d="M 1984 4856 
Q 1566 4138 1362 3434 
Q 1159 2731 1159 2009 
Q 1159 1288 1364 580 
Q 1569 -128 1984 -844 
L 1484 -844 
Q 1016 -109 783 600 
Q 550 1309 550 2009 
Q 550 2706 781 3412 
Q 1013 4119 1484 4856 
L 1984 4856 
z
" transform="scale(0.015625)"/>
       <path id="DejaVuSans-55" d="M 556 4666 
L 1191 4666 
L 1191 1831 
Q 1191 1081 1462 751 
Q 1734 422 2344 422 
Q 2950 422 3222 751 
Q 3494 1081 3494 1831 
L 3494 4666 
L 4128 4666 
L 4128 1753 
Q 4128 841 3676 375 
Q 3225 -91 2344 -91 
Q 1459 -91 1007 375 
Q 556 841 556 1753 
L 556 4666 
z
" transform="scale(0.015625)"/>
       <path id="DejaVuSans-53" d="M 3425 4513 
L 3425 3897 
Q 3066 4069 2747 4153 
Q 2428 4238 2131 4238 
Q 1616 4238 1336 4038 
Q 1056 3838 1056 3469 
Q 1056 3159 1242 3001 
Q 1428 2844 1947 2747 
L 2328 2669 
Q 3034 2534 3370 2195 
Q 3706 1856 3706 1288 
Q 3706 609 3251 259 
Q 2797 -91 1919 -91 
Q 1588 -91 1214 -16 
Q 841 59 441 206 
L 441 856 
Q 825 641 1194 531 
Q 1563 422 1919 422 
Q 2459 422 2753 634 
Q 3047 847 3047 1241 
Q 3047 1584 2836 1778 
Q 2625 1972 2144 2069 
L 1759 2144 
Q 1053 2284 737 2584 
Q 422 2884 422 3419 
Q 422 4038 858 4394 
Q 1294 4750 2059 4750 
Q 2388 4750 2728 4690 
Q 3069 4631 3425 4513 
z
" transform="scale(0.015625)"/>
       <path id="DejaVuSans-44" d="M 1259 4147 
L 1259 519 
L 2022 519 
Q 2988 519 3436 956 
Q 3884 1394 3884 2338 
Q 3884 3275 3436 3711 
Q 2988 4147 2022 4147 
L 1259 4147 
z
M 628 4666 
L 1925 4666 
Q 3281 4666 3915 4102 
Q 4550 3538 4550 2338 
Q 4550 1131 3912 565 
Q 3275 0 1925 0 
L 628 0 
L 628 4666 
z
" transform="scale(0.015625)"/>
       <path id="DejaVuSans-6f" d="M 1959 3097 
Q 1497 3097 1228 2736 
Q 959 2375 959 1747 
Q 959 1119 1226 758 
Q 1494 397 1959 397 
Q 2419 397 2687 759 
Q 2956 1122 2956 1747 
Q 2956 2369 2687 2733 
Q 2419 3097 1959 3097 
z
M 1959 3584 
Q 2709 3584 3137 3096 
Q 3566 2609 3566 1747 
Q 3566 888 3137 398 
Q 2709 -91 1959 -91 
Q 1206 -91 779 398 
Q 353 888 353 1747 
Q 353 2609 779 3096 
Q 1206 3584 1959 3584 
z
" transform="scale(0.015625)"/>
       <path id="DejaVuSans-6c" d="M 603 4863 
L 1178 4863 
L 1178 0 
L 603 0 
L 603 4863 
z
" transform="scale(0.015625)"/>
       <path id="DejaVuSans-61" d="M 2194 1759 
Q 1497 1759 1228 1600 
Q 959 1441 959 1056 
Q 959 750 1161 570 
Q 1363 391 1709 391 
Q 2188 391 2477 730 
Q 2766 1069 2766 1631 
L 2766 1759 
L 2194 1759 
z
M 3341 1997 
L 3341 0 
L 2766 0 
L 2766 531 
Q 2569 213 2275 61 
Q 1981 -91 1556 -91 
Q 1019 -91 701 211 
Q 384 513 384 1019 
Q 384 1609 779 1909 
Q 1175 2209 1959 2209 
L 2766 2209 
L 2766 2266 
Q 2766 2663 2505 2880 
Q 2244 3097 1772 3097 
Q 1472 3097 1187 3025 
Q 903 2953 641 2809 
L 641 3341 
Q 956 3463 1253 3523 
Q 1550 3584 1831 3584 
Q 2591 3584 2966 3190 
Q 3341 2797 3341 1997 
z
" transform="scale(0.015625)"/>
       <path id="DejaVuSans-73" d="M 2834 3397 
L 2834 2853 
Q 2591 2978 2328 3040 
Q 2066 3103 1784 3103 
Q 1356 3103 1142 2972 
Q 928 2841 928 2578 
Q 928 2378 1081 2264 
Q 1234 2150 1697 2047 
L 1894 2003 
Q 2506 1872 2764 1633 
Q 3022 1394 3022 966 
Q 3022 478 2636 193 
Q 2250 -91 1575 -91 
Q 1294 -91 989 -36 
Q 684 19 347 128 
L 347 722 
Q 666 556 975 473 
Q 1284 391 1588 391 
Q 1994 391 2212 530 
Q 2431 669 2431 922 
Q 2431 1156 2273 1281 
Q 2116 1406 1581 1522 
L 1381 1569 
Q 847 1681 609 1914 
Q 372 2147 372 2553 
Q 372 3047 722 3315 
Q 1072 3584 1716 3584 
Q 2034 3584 2315 3537 
Q 2597 3491 2834 3397 
z
" transform="scale(0.015625)"/>
       <path id="DejaVuSans-29" d="M 513 4856 
L 1013 4856 
Q 1481 4119 1714 3412 
Q 1947 2706 1947 2009 
Q 1947 1309 1714 600 
Q 1481 -109 1013 -844 
L 513 -844 
Q 928 -128 1133 580 
Q 1338 1288 1338 2009 
Q 1338 2731 1133 3434 
Q 928 4138 513 4856 
z
" transform="scale(0.015625)"/>
      </defs>
      <use xlink:href="#DejaVuSans-50"/>
      <use xlink:href="#DejaVuSans-72" x="58.552734"/>
      <use xlink:href="#DejaVuSans-69" x="99.666016"/>
      <use xlink:href="#DejaVuSans-63" x="127.449219"/>
      <use xlink:href="#DejaVuSans-65" x="182.429688"/>
      <use xlink:href="#DejaVuSans-20" x="243.953125"/>
      <use xlink:href="#DejaVuSans-28" x="275.740234"/>
      <use xlink:href="#DejaVuSans-55" x="314.753906"/>
      <use xlink:href="#DejaVuSans-53" x="387.947266"/>
      <use xlink:href="#DejaVuSans-20" x="451.423828"/>
      <use xlink:href="#DejaVuSans-44" x="483.210938"/>
      <use xlink:href="#DejaVuSans-6f" x="560.212891"/>
      <use xlink:href="#DejaVuSans-6c" x="621.394531"/>
      <use xlink:href="#DejaVuSans-6c" x="649.177734"/>
      <use xlink:href="#DejaVuSans-61" x="676.960938"/>
      <use xlink:href="#DejaVuSans-72" x="738.240234"/>
      <use xlink:href="#DejaVuSans-73" x="779.353516"/>
      <use xlink:href="#DejaVuSans-29" x="831.453125"/>
     </g>
    </g>
   </g>
   <g id="line2d_18">
    <path d="M 579.601989 220.062142 
L 579.46301 216.520663 
L 579.324031 216.414947 
L 579.185052 212.34489 
L 579.046073 215.859939 
L 578.629137 212.292032 
L 578.490158 201.033301 
L 578.351179 199.55328 
L 578.073222 192.311748 
L 577.656285 193.818198 
L 577.378327 203.094758 
L 577.10037 193.686054 
L 576.683433 198.020401 
L 576.405476 190.408864 
L 576.266497 185.915944 
L 575.710581 181.475881 
L 575.571603 176.98296 
L 575.432624 176.401523 
L 575.293645 172.490039 
L 574.73773 177.934402 
L 574.598751 170.534297 
L 574.459772 172.542897 
L 574.320793 170.745729 
L 574.181814 171.327165 
L 573.764878 165.724229 
L 573.625899 154.703358 
L 573.347941 172.437181 
L 573.208962 175.555797 
L 572.792026 175.027218 
L 572.514068 186.603096 
L 572.37509 185.598796 
L 572.236111 186.100946 
L 571.680195 191.148875 
L 571.541217 184.013059 
L 570.846322 186.391665 
L 570.707344 184.647883 
L 570.568365 191.043159 
L 570.429386 207.217674 
L 570.290407 203.332619 
L 569.873471 206.847669 
L 569.734492 211.604879 
L 569.595513 204.104344 
L 569.456534 211.0763 
L 568.900619 216.414947 
L 568.76164 214.247774 
L 568.622661 214.194916 
L 568.483682 215.780653 
L 567.927767 216.864239 
L 567.788788 220.590721 
L 567.649809 208.116258 
L 567.51083 214.0892 
L 567.371852 210.33629 
L 566.954915 202.830469 
L 566.537979 181.423023 
L 566.399 197.121817 
L 565.982063 196.27609 
L 565.843085 195.694654 
L 565.704106 198.231832 
L 565.565127 198.443264 
L 565.426148 192.52318 
L 565.009212 188.823128 
L 564.870233 181.898744 
L 564.592275 198.610823 
L 564.453296 194.690354 
L 564.03636 194.161775 
L 563.758402 194.954643 
L 563.480444 199.606138 
L 563.063508 200.610438 
L 562.924529 207.111958 
L 562.646571 197.729682 
L 562.507593 196.487522 
L 562.090656 189.77457 
L 561.951677 193.580338 
L 561.812698 217.657108 
L 561.67372 216.784952 
L 561.534741 218.000684 
L 561.117804 219.797852 
L 560.978825 225.295073 
L 560.700868 209.649137 
L 560.561889 213.349189 
L 560.144953 214.136772 
L 559.866995 221.383589 
L 559.728016 224.290773 
L 559.589037 236.183799 
L 559.172101 241.046725 
L 558.894143 234.915209 
L 558.755164 226.246515 
L 558.616185 235.126641 
L 558.199249 235.285215 
L 557.921291 244.693919 
L 557.643334 240.941009 
L 557.226397 236.553804 
L 557.087418 222.387889 
L 556.948439 219.586421 
L 556.809461 211.023442 
L 556.670482 220.326431 
L 556.253545 227.567962 
L 556.114566 226.925739 
L 555.836609 219.057842 
L 555.69763 215.357789 
L 555.280693 209.675566 
L 554.863757 181.793028 
L 554.724778 177.590826 
L 554.307842 176.560097 
L 553.751926 142.043893 
L 553.33499 146.193238 
L 552.918053 162.235608 
L 552.362138 156.579814 
L 552.223159 161.707029 
L 551.945202 151.558314 
L 551.806223 148.281124 
L 551.389286 135.330941 
L 551.250307 135.700946 
L 551.111329 140.352441 
L 550.97235 140.035293 
L 550.833371 132.000894 
L 550.416434 123.755063 
L 550.138477 115.984952 
L 549.999498 113.236342 
L 549.860519 113.712063 
L 549.443583 116.3021 
L 549.165625 123.702205 
L 549.026646 132.370899 
L 548.887667 131.578031 
L 548.470731 139.61243 
L 548.331752 139.030993 
L 548.053794 134.168067 
L 547.914816 132.635188 
L 547.497879 129.382314 
L 547.3589 133.586631 
L 547.219921 149.206138 
L 546.941964 151.082593 
L 546.525027 151.611172 
L 546.386048 157.319824 
L 546.24707 155.258366 
L 545.969112 165.248508 
L 545.552175 166.834245 
L 545.413197 175.132934 
L 545.135239 165.671371 
L 544.99626 166.728529 
L 544.579324 163.979918 
L 544.301366 159.857003 
L 544.162387 165.301366 
L 543.606472 162.711329 
L 543.328514 170.904302 
L 543.189535 156.209808 
L 542.63362 161.495597 
L 542.494641 171.010018 
L 542.355662 172.278079 
L 542.216684 179.255849 
L 541.660768 184.700212 
L 541.521789 189.193133 
L 541.382811 175.397223 
L 541.243832 186.76167 
L 541.104853 175.397223 
L 540.687916 158.905561 
L 540.409959 131.472315 
L 540.27098 129.146568 
L 540.132001 129.516573 
L 539.715065 129.199425 
L 539.576086 127.613689 
L 539.437107 128.353699 
L 539.298128 127.190826 
L 538.742213 124.07221 
L 538.464255 137.286683 
L 538.186297 145.849661 
L 537.769361 150.448298 
L 537.630382 150.289724 
L 537.491403 139.87672 
L 537.352425 138.925278 
L 537.213446 141.673888 
L 536.796509 142.62533 
L 536.65753 155.364082 
L 536.240594 131.049452 
L 535.823657 122.06361 
L 535.684679 104.726221 
L 535.5457 104.197643 
L 535.406721 108.2677 
L 534.711827 76.68511 
L 534.572848 80.279446 
L 534.433869 73.804355 
L 534.29489 73.275776 
L 533.877954 64.712797 
L 533.738975 54.881229 
L 533.599996 57.735556 
L 533.322038 77.504407 
L 532.766123 72.271476 
L 532.627144 76.235818 
L 532.488165 75.945099 
L 532.349187 72.430049 
L 531.93225 71.531465 
L 531.793271 72.112902 
L 531.515314 67.699268 
L 531.376335 68.915 
L 530.82042 70.315734 
L 530.681441 71.531465 
L 530.542462 69.258576 
L 530.403483 86.860254 
L 529.986547 92.833196 
L 529.847568 99.599006 
L 529.708589 96.691822 
L 529.430631 88.921712 
L 529.013695 90.031728 
L 528.874716 91.934612 
L 528.596758 102.876195 
L 528.457779 102.294758 
L 528.040843 95.158943 
L 527.901864 100.656164 
L 527.762885 97.854696 
L 527.623906 101.977611 
L 527.484928 97.960411 
L 527.067991 97.537548 
L 526.929012 98.779709 
L 526.651055 107.686263 
L 526.095139 103.351916 
L 525.95616 115.408273 
L 525.817182 110.223442 
L 525.678203 113.236342 
L 524.84433 104.673364 
L 524.705351 105.360516 
L 524.566372 104.356216 
L 524.149436 98.541848 
L 524.010457 90.137443 
L 523.871478 89.71458 
L 523.732499 98.330417 
L 523.59352 96.216101 
L 523.176584 92.621764 
L 522.898626 86.014528 
L 522.620669 91.72318 
L 522.203732 99.546148 
L 522.064753 100.021869 
L 521.925774 89.503149 
L 521.786796 95.053227 
L 521.647817 95.634664 
L 521.23088 90.877454 
L 520.952923 76.288676 
L 520.813944 78.720139 
L 520.258028 72.958628 
L 520.11905 65.029945 
L 519.980071 65.664239 
L 519.702113 70.262876 
L 519.146198 61.197747 
L 518.86824 40.768172 
L 518.312325 37.438125 
L 518.034367 44.151077 
L 517.75641 51.656898 
L 517.200494 53.374779 
L 517.061515 55.039803 
L 516.922537 58.951287 
L 516.783558 66.64211 
L 516.366621 57.206977 
L 516.227642 57.471266 
L 515.949685 63.877643 
L 515.810706 60.801313 
L 515.393769 67.619981 
L 515.115812 60.695597 
L 514.420918 79.460149 
L 514.281939 79.450635 
L 514.14296 77.874412 
L 514.003981 81.20446 
L 513.865002 74.385791 
L 513.448066 75.548665 
L 513.170108 66.087102 
L 512.892151 73.804355 
L 512.336235 71.531465 
L 512.197256 71.84967 
L 512.058278 69.787155 
L 511.502362 72.482907 
L 511.363383 74.121502 
L 511.224405 70.527165 
L 511.085426 71.214318 
L 510.52951 66.192818 
L 510.251553 68.835713 
L 510.112574 70.15716 
L 509.973595 73.989357 
L 509.41768 71.320034 
L 509.000743 74.67651 
L 508.583807 76.024386 
L 508.16687 87.071686 
L 508.027892 88.763138 
L 507.610955 86.648822 
L 507.05504 107.157685 
L 506.638103 105.122656 
L 506.499124 99.229001 
L 506.360146 106.52339 
L 506.221167 107.791979 
L 506.082188 106.2591 
L 505.526273 104.884795 
L 505.387294 104.673364 
L 505.248315 108.373416 
L 505.109336 96.268959 
L 504.6924 93.546777 
L 504.553421 86.067386 
L 504.414442 86.225959 
L 504.136484 92.146043 
L 503.580569 84.164502 
L 503.44159 84.851654 
L 503.302611 84.904512 
L 503.163632 83.424491 
L 502.746696 82.155902 
L 502.468738 69.998586 
L 502.329759 68.994287 
L 501.773844 67.302834 
L 501.634865 68.095702 
L 501.495887 70.791455 
L 501.217929 83.054486 
L 500.800992 87.018828 
L 500.662014 92.833196 
L 500.245077 88.657422 
L 499.828141 88.630993 
L 499.689162 93.256059 
L 499.411204 91.088885 
L 499.272225 87.600264 
L 498.855289 89.397433 
L 498.577331 93.573206 
L 498.299373 90.031728 
L 497.882437 85.327375 
L 497.4655 91.828896 
L 497.326522 85.274517 
L 496.909585 84.974284 
L 496.631627 89.820296 
L 496.492649 90.507449 
L 496.35367 93.156686 
L 495.936733 94.207501 
L 495.797755 97.537548 
L 495.658776 91.300317 
L 495.519797 92.780338 
L 495.380818 102.876195 
L 494.963882 92.997055 
L 494.824903 96.691822 
L 494.685924 96.586106 
L 494.407966 93.784638 
L 493.99103 98.964711 
L 493.852051 105.862666 
L 493.713072 104.673364 
L 493.574093 107.432546 
L 492.74022 110.434874 
L 492.601241 108.849137 
L 492.045326 109.853437 
L 491.906347 110.857737 
L 491.62839 104.567648 
L 491.489411 103.51049 
L 491.072474 107.448403 
L 490.933495 106.190385 
L 490.655538 96.74468 
L 490.516559 96.74468 
L 490.099623 96.004669 
L 489.960644 95.264659 
L 489.543707 103.563348 
L 488.987792 111.227742 
L 488.848813 110.012011 
L 488.709834 116.830679 
L 488.01494 126.662247 
L 487.875961 125.393657 
L 487.736982 128.406557 
L 487.598004 128.565131 
L 487.042088 134.802362 
L 486.903109 142.202467 
L 486.764131 137.233825 
L 486.625152 139.559572 
L 486.208215 139.400999 
L 486.069236 143.62963 
L 485.791279 138.60813 
L 485.6523 128.03708 
L 485.235363 133.692346 
L 485.096385 140.352441 
L 484.679448 128.08941 
L 484.262512 129.463715 
L 484.123533 130.362299 
L 483.984554 134.009494 
L 483.845575 134.247354 
L 483.706596 132.925907 
L 483.28966 136.440957 
L 483.150681 135.674517 
L 483.011702 136.837391 
L 482.733745 145.268225 
L 482.316808 144.792504 
L 481.760893 155.945519 
L 481.343956 156.844103 
L 481.204977 154.439069 
L 481.065999 154.856646 
L 480.92702 156.738387 
L 480.788041 156.632671 
L 480.232126 159.698429 
L 479.954168 164.455639 
L 479.815189 163.081334 
L 479.398253 163.345624 
L 479.259274 172.860044 
L 479.120295 169.239279 
L 478.981316 169.582855 
L 478.842337 171.485739 
L 478.147443 164.244208 
L 478.008464 161.707029 
L 477.869486 161.707029 
L 477.452549 169.873573 
L 477.035613 184.594496 
L 476.896634 186.391665 
L 476.479697 193.633196 
L 476.062761 187.660254 
L 475.923782 180.365865 
L 475.506845 181.158733 
L 475.367867 170.95716 
L 475.228888 172.357894 
L 474.95093 178.357265 
L 474.533994 181.528739 
L 474.395015 185.017359 
L 474.256036 184.277349 
L 474.117057 178.780128 
L 473.561142 180.313007 
L 473.422163 178.145833 
L 473.283184 178.108833 
L 473.005226 186.060774 
L 472.58829 187.713112 
L 472.449311 187.660254 
L 472.310332 191.941743 
L 472.171354 190.567438 
L 472.032375 194.716783 
L 471.615438 198.030972 
L 471.337481 193.553909 
L 471.198502 192.866756 
L 471.059523 194.056059 
L 470.503608 201.133731 
L 470.364629 197.808969 
L 470.22565 204.099058 
L 469.669735 205.723381 
L 469.391777 213.877768 
L 469.252798 219.692137 
L 469.113819 215.516363 
L 468.696883 213.719195 
L 468.557904 218.053542 
L 468.418925 215.780653 
L 468.279946 216.309231 
L 468.140967 203.570479 
L 467.585052 204.81264 
L 467.446073 206.213374 
L 467.307094 204.31049 
L 467.168116 207.640537 
L 466.6122 210.864869 
L 466.473222 200.134717 
L 466.195264 207.640537 
L 465.778327 195.694654 
L 465.639349 195.826798 
L 465.50037 197.333248 
L 465.361391 201.033301 
L 465.222412 201.456164 
L 464.805476 207.32339 
L 464.24956 197.174675 
L 463.832624 197.438964 
L 463.693645 202.157588 
L 463.554666 203.015472 
L 463.415687 202.777611 
L 463.276708 205.843369 
L 462.859772 202.143316 
L 462.581814 202.883327 
L 462.442835 197.597538 
L 462.303857 200.980443 
L 461.88692 204.257632 
L 461.747941 204.151916 
L 461.608962 194.056059 
L 461.469984 195.77394 
L 461.331005 192.172204 
L 460.914068 202.037601 
L 460.77509 209.146987 
L 460.636111 206.900527 
L 460.497132 210.230574 
L 460.358153 187.660254 
L 459.941217 225.61222 
L 459.663259 224.660778 
L 459.52428 229.365131 
L 459.385301 239.619562 
L 458.968365 246.17394 
L 458.829386 243.742477 
L 458.690407 245.063925 
L 458.551428 232.90661 
L 458.412449 232.219457 
L 457.995513 227.937968 
L 457.856534 230.316573 
L 457.717555 230.052283 
L 457.439598 225.136499 
L 457.022661 223.920768 
L 456.883682 220.590721 
L 456.744703 220.379289 
L 456.466746 212.239174 
L 456.049809 210.997013 
L 455.91083 212.556321 
L 455.771852 218.793552 
L 455.632873 215.231988 
L 455.493894 217.419247 
L 455.076958 219.903568 
L 454.799 232.113741 
L 454.660021 235.020925 
L 454.521042 233.223757 
L 454.104106 243.346043 
L 453.965127 243.055325 
L 453.687169 235.073783 
L 453.54819 235.861366 
L 452.853296 207.746253 
L 452.714317 210.442005 
L 452.575339 218.485919 
L 452.158402 226.299373 
L 451.880444 216.996384 
L 451.741466 223.075042 
L 451.18555 215.0935 
L 451.046571 210.124858 
L 450.907593 213.190616 
L 450.768614 221.542163 
L 450.629635 218.264973 
L 450.212698 217.789252 
L 450.07372 219.295702 
L 449.934741 223.920768 
L 449.795762 221.965026 
L 449.656783 223.920768 
L 449.239847 224.977926 
L 449.100868 224.766494 
L 448.82291 221.383589 
L 448.683931 221.700736 
L 448.266995 221.383589 
L 448.128016 217.894968 
L 447.989037 219.427847 
L 447.850058 213.137758 
L 447.71108 215.516363 
L 447.294143 218.634979 
L 447.155164 223.788623 
L 447.016185 220.273573 
L 446.738228 223.973626 
L 446.321291 223.550763 
L 446.182312 222.969326 
L 446.043334 220.537863 
L 445.765376 236.606662 
L 445.348439 236.765236 
L 445.209461 234.598062 
L 445.070482 235.760936 
L 444.931503 238.139541 
L 444.792524 236.765236 
L 444.375588 236.765236 
L 444.236609 239.67242 
L 444.09763 234.703778 
L 443.958651 241.68102 
L 443.819672 237.558104 
L 443.402736 239.355272 
L 443.263757 240.465288 
L 442.985799 234.175199 
L 442.846821 222.387889 
L 442.290905 221.436447 
L 441.873969 243.795335 
L 441.457032 243.901051 
L 441.318053 243.583904 
L 441.040096 226.563662 
L 440.901117 230.263715 
L 440.48418 218.529263 
L 440.345202 222.387889 
L 440.067244 205.896227 
L 439.928265 219.880839 
L 439.37235 228.149399 
L 439.233371 204.468535 
L 438.955413 195.53608 
L 438.538477 199.394706 
L 438.399498 220.273573 
L 438.260519 216.847325 
L 438.12154 230.950868 
L 437.982561 232.589462 
L 437.565625 241.311014 
L 437.426646 237.716678 
L 437.287667 240.623862 
L 437.148689 248.816835 
L 436.453794 268.00425 
L 436.314816 269.325697 
L 436.175837 268.74426 
L 436.036858 266.207081 
L 435.619921 290.468854 
L 435.480943 289.253122 
L 435.341964 282.434454 
L 435.064006 257.485529 
L 434.64707 256.639803 
L 434.508091 261.608445 
L 434.369112 262.401313 
L 434.230133 259.705561 
L 434.091154 267.211381 
L 433.674218 261.23844 
L 433.39626 241.786735 
L 433.257281 243.108183 
L 433.118302 255.21264 
L 432.701366 267.845676 
L 432.562387 263.775618 
L 432.423408 264.99135 
L 432.284429 270.858576 
L 432.145451 258.119824 
L 431.728514 249.926851 
L 431.589535 256.798377 
L 431.450557 251.724019 
L 431.311578 239.249557 
L 431.172599 238.826693 
L 430.616684 231.558733 
L 430.338726 266.629945 
L 430.199747 286.028791 
L 429.782811 306.11479 
L 429.643832 301.040432 
L 429.504853 301.251864 
L 429.365874 277.888676 
L 429.226895 274.664344 
L 428.809959 274.664344 
L 428.532001 290.838859 
L 428.254043 339.838125 
L 427.837107 309.709127 
L 427.698128 314.730626 
L 427.281192 261.344155 
L 426.864255 233.771893 
L 426.725276 239.275986 
L 426.447319 196.487522 
L 426.30834 196.989672 
L 425.613446 155.364082 
L 425.474467 161.125592 
L 425.335488 172.96576 
L 424.918552 188.135975 
L 424.640594 144.475356 
L 424.362636 130.383442 
L 423.9457 127.243683 
L 423.806721 129.305141 
L 423.528763 127.402257 
L 422.972848 127.983694 
L 422.69489 135.040223 
L 422.555911 136.56993 
L 422.416933 143.418198 
L 421.999996 147.805403 
L 421.861017 147.593972 
L 421.722038 148.862561 
L 421.58306 149.021135 
L 421.444081 152.456898 
L 421.027144 151.66403 
L 420.888165 150.686159 
L 420.749187 148.069693 
L 420.610208 148.65113 
L 420.471229 150.554014 
L 420.054292 146.695388 
L 419.915314 147.858261 
L 419.776335 146.113951 
L 419.637356 148.545414 
L 419.081441 152.034035 
L 418.803483 157.055535 
L 418.664504 160.914161 
L 418.525525 160.649871 
L 417.830631 169.054276 
L 417.552674 164.297066 
L 417.135737 165.618513 
L 416.996758 161.496126 
L 416.718801 163.662771 
L 416.579822 166.93996 
L 416.162885 167.098534 
L 416.023906 169.265708 
L 415.745949 170.640013 
L 415.60697 167.785687 
L 415.190033 168.20855 
L 414.912076 175.872944 
L 414.773097 171.644313 
L 414.217182 174.392923 
L 413.800245 161.284166 
L 413.661266 161.601313 
L 413.24433 160.834874 
L 413.105351 164.244208 
L 412.966372 162.902675 
L 412.827393 166.094234 
L 412.688415 162.658471 
L 412.271478 158.271266 
L 411.99352 159.857003 
L 411.715563 166.094234 
L 411.298626 167.362823 
L 411.020669 160.227008 
L 410.88169 160.015576 
L 410.742711 160.121292 
L 410.325774 164.508497 
L 410.047817 170.21715 
L 409.908838 168.684271 
L 409.769859 170.270008 
L 409.352923 169.662142 
L 409.074965 164.508497 
L 408.797007 155.998377 
L 408.380071 153.329053 
L 408.241092 153.461198 
L 407.824156 156.791245 
L 407.26824 150.236866 
L 407.129261 150.765445 
L 406.990283 149.602572 
L 406.434367 153.963348 
L 406.15641 161.601313 
L 406.017431 161.231308 
L 405.878452 161.231308 
L 405.461515 158.641271 
L 405.322537 161.44274 
L 405.183558 159.222708 
L 405.044579 160.121292 
L 404.9056 159.116992 
L 404.488664 160.279866 
L 404.349685 162.129892 
L 404.210706 165.654985 
L 403.932748 158.958419 
L 403.515812 157.954119 
L 403.376833 158.376982 
L 403.237854 162.499897 
L 403.098875 161.038377 
L 402.959896 157.478398 
L 402.54296 157.821974 
L 402.403981 158.297695 
L 402.265002 157.636971 
L 402.126024 160.227008 
L 401.987045 164.93136 
L 401.431129 161.865603 
L 401.292151 166.517097 
L 401.153172 164.455639 
L 401.014193 160.332724 
L 400.597256 158.588413 
L 400.319299 157.108392 
L 400.18032 161.495597 
L 399.485426 166.754958 
L 399.346447 170.270008 
L 399.207468 167.362823 
L 399.068489 170.798586 
L 398.651553 165.152835 
L 398.373595 169.344994 
L 398.234616 166.93996 
L 398.095637 167.785687 
L 397.678701 171.512168 
L 397.539722 176.295807 
L 397.400743 176.084376 
L 397.261764 173.230049 
L 397.122786 173.441481 
L 396.705849 172.542897 
L 396.56687 173.547197 
L 396.288913 183.801628 
L 396.149934 183.114475 
L 395.732997 179.73157 
L 395.594019 180.101575 
L 395.45504 178.72727 
L 395.177082 183.167333 
L 394.760146 186.867386 
L 394.621167 186.867386 
L 394.482188 186.550238 
L 394.343209 187.395965 
L 394.20423 190.831728 
L 393.509336 180.281292 
L 393.370357 180.894444 
L 393.231378 178.72727 
L 392.814442 179.855786 
L 392.536484 173.362194 
L 392.258527 178.145833 
L 391.84159 179.097275 
L 391.563632 178.568697 
L 391.285675 189.298849 
L 390.868738 189.404564 
L 390.729759 193.633196 
L 390.312823 173.811486 
L 389.895887 171.908602 
L 389.756908 168.842844 
L 389.617929 171.432881 
L 389.47895 170.21715 
L 389.339971 174.498639 
L 388.923035 177.98726 
L 388.784056 180.471581 
L 388.645077 180.920873 
L 388.506098 182.903044 
L 387.950183 180.89973 
L 387.533246 193.157475 
L 387.394268 192.417464 
L 386.977331 192.52318 
L 386.838352 195.641796 
L 386.699373 193.368906 
L 386.560395 186.074517 
L 386.004479 186.708812 
L 385.726522 191.043159 
L 385.587543 191.571738 
L 385.031627 188.823128 
L 384.892649 186.973101 
L 384.475712 195.007501 
L 384.058776 194.056059 
L 383.919797 199.183274 
L 383.50286 190.937443 
L 383.085924 190.303149 
L 382.946945 190.356006 
L 382.807966 190.091717 
L 382.668987 194.743212 
L 382.530009 194.637496 
L 382.113072 195.166075 
L 381.974093 197.892485 
L 381.835114 196.804669 
L 381.696136 200.874727 
L 381.557157 201.403306 
L 381.001241 201.535451 
L 380.862263 199.606138 
L 380.584305 188.453122 
L 380.167368 188.77027 
L 380.02839 188.717412 
L 379.750432 191.941743 
L 379.611453 190.091717 
L 379.194517 189.77457 
L 379.055538 191.836027 
L 378.916559 190.593867 
L 378.77758 191.577024 
L 378.638601 194.320348 
L 378.221665 193.607824 
L 378.082686 194.320348 
L 377.943707 192.946043 
L 377.804728 194.161775 
L 377.66575 196.566809 
L 377.248813 192.258891 
L 377.109834 195.060359 
L 376.831877 202.354748 
L 376.692898 199.606138 
L 376.275961 198.760411 
L 376.136982 199.500422 
L 375.998004 199.077559 
L 375.303109 209.490563 
L 375.164131 207.429106 
L 375.025152 207.164816 
L 374.886173 206.583379 
L 374.747194 209.279132 
L 374.330258 209.0677 
L 374.191279 205.473364 
L 374.0523 209.649137 
L 373.774342 203.147616 
L 373.357406 202.698324 
L 373.218427 206.636237 
L 372.940469 203.634966 
L 372.384554 204.521922 
L 372.245575 205.896227 
L 372.106596 208.618408 
L 371.967618 207.429106 
L 371.828639 207.640537 
L 371.411702 207.957685 
L 371.133745 210.917726 
L 370.994766 210.177716 
L 370.855787 212.979184 
L 370.43885 211.657737 
L 370.299872 213.137758 
L 369.882935 224.449347 
L 369.465999 228.730836 
L 369.188041 234.65092 
L 369.049062 233.910909 
L 368.493147 234.122341 
L 368.07621 239.830993 
L 367.937231 242.368172 
L 367.520295 242.949609 
L 367.381316 243.372472 
L 367.242337 248.023967 
L 367.103358 248.44683 
L 366.96438 254.704147 
L 366.547443 257.802677 
L 366.408464 260.181282 
L 366.269486 264.779918 
L 365.991528 259.388413 
L 365.574591 256.95695 
L 365.435613 262.084166 
L 365.296634 262.454171 
L 365.018676 261.449871 
L 364.60174 247.231098 
L 364.462761 248.816835 
L 364.323782 242.051025 
L 364.184803 242.262456 
L 364.045824 231.532304 
L 363.628888 231.426589 
L 363.489909 228.836552 
L 363.35093 219.586421 
L 363.211951 218.84641 
L 363.072972 219.639279 
L 362.517057 213.983484 
L 362.100121 217.947826 
L 361.683184 220.643579 
L 361.127269 228.942268 
L 360.710332 229.647392 
L 360.293396 225.453647 
L 360.154417 223.603621 
L 359.737481 226.670435 
L 359.598502 229.999425 
L 359.459523 226.193657 
L 359.320544 225.506505 
L 359.181565 223.920768 
L 358.486671 228.413689 
L 358.347692 233.435188 
L 357.652798 237.558104 
L 357.37484 232.272315 
L 357.235862 238.245257 
L 356.818925 235.813794 
L 356.679946 233.963767 
L 356.401989 242.791035 
L 356.26301 238.985267 
L 355.846073 240.095283 
L 355.568116 242.051025 
L 355.429137 241.786735 
L 355.290158 247.125382 
L 354.873222 246.966809 
L 354.595264 233.118041 
L 354.456285 232.589462 
L 354.317306 233.456332 
L 353.90037 238.40383 
L 353.761391 238.615262 
L 353.622412 231.373731 
L 353.483433 230.475146 
L 353.344454 227.145099 
L 352.927518 227.88511 
L 352.788539 231.63802 
L 352.510581 228.202257 
L 352.371603 222.969326 
L 351.954666 214.538492 
L 351.815687 216.362089 
L 351.676708 215.199216 
L 351.53773 212.820611 
L 351.398751 212.556321 
L 350.981814 212.34489 
L 350.842835 210.706295 
L 350.703857 213.137758 
L 350.564878 212.979184 
L 350.425899 211.922026 
L 350.008962 212.714895 
L 349.869984 210.33629 
L 349.731005 211.287732 
L 349.592026 209.970513 
L 349.036111 209.103115 
L 348.758153 208.010542 
L 348.619174 209.014842 
L 348.480195 212.662037 
L 348.063259 213.349189 
L 347.92428 214.062771 
L 347.507344 207.429106 
L 347.090407 209.966284 
L 346.673471 219.85071 
L 346.534492 221.700736 
L 345.839598 216.679237 
L 345.700619 215.939226 
L 345.56164 213.613479 
L 345.144703 214.987256 
L 344.866746 218.1064 
L 344.727767 219.269273 
L 344.588788 227.356531 
L 344.032873 221.85931 
L 343.754915 226.035084 
L 343.615936 225.242215 
L 343.060021 220.115 
L 342.921042 223.815052 
L 342.643085 219.877139 
L 342.226148 216.150658 
L 342.087169 217.472105 
L 341.809212 217.049242 
L 341.670233 214.934926 
L 341.253296 214.802782 
L 341.114317 217.630679 
L 340.83636 219.956426 
L 340.697381 223.339331 
L 340.280444 221.965026 
L 340.002487 224.819352 
L 339.863508 225.295073 
L 339.724529 226.722236 
L 339.307593 227.039384 
L 338.890656 235.311644 
L 338.751677 236.527375 
L 338.334741 230.105141 
L 338.195762 231.453018 
L 338.056783 227.779394 
L 337.917804 227.409389 
L 337.778825 230.052283 
L 337.361889 230.052283 
L 337.083931 231.955167 
L 336.944953 229.89371 
L 336.805974 231.743736 
L 336.250058 235.734507 
L 336.11108 234.677349 
L 335.972101 240.835293 
L 335.277207 242.368172 
L 335.138228 242.791035 
L 334.999249 247.601104 
L 334.86027 248.023967 
L 334.443334 251.988309 
L 334.165376 248.658261 
L 334.026397 246.17394 
L 333.887418 239.989567 
L 333.470482 237.452388 
L 333.331503 238.350972 
L 333.053545 243.108183 
L 332.914566 242.579604 
L 332.49763 244.773206 
L 332.358651 248.552546 
L 332.080693 247.706819 
L 331.941715 248.869693 
L 331.524778 249.239698 
L 331.246821 261.027008 
L 331.107842 260.128424 
L 330.968863 261.212011 
L 330.551926 258.119824 
L 330.273969 251.142582 
L 330.13499 250.402572 
L 329.996011 255.95265 
L 329.579075 259.388413 
L 329.301117 254.306127 
L 329.162138 255.29827 
L 329.023159 254.604774 
L 328.606223 251.301156 
L 328.467244 252.675461 
L 328.328265 252.146882 
L 328.189286 255.688361 
L 328.050307 254.366914 
L 327.494392 252.886893 
L 327.355413 254.20834 
L 327.077456 265.519929 
L 326.660519 258.701261 
L 326.52154 252.781177 
L 326.382561 253.415472 
L 326.243583 250.614003 
L 326.104604 250.085424 
L 325.687667 249.133982 
L 325.548689 250.984009 
L 325.40971 250.772577 
L 325.270731 249.926851 
L 325.131752 252.146882 
L 324.575837 256.057838 
L 324.1589 260.207711 
L 323.741964 265.99565 
L 323.602985 261.634874 
L 323.464006 261.344155 
L 323.325027 256.058366 
L 323.186048 256.005508 
L 322.769112 258.120353 
L 322.630133 261.555587 
L 322.491154 260.392713 
L 322.352175 254.314056 
L 321.79626 254.366914 
L 321.518302 261.872734 
L 321.379324 258.384113 
L 321.240345 259.864134 
L 320.823408 259.282698 
L 320.684429 258.278398 
L 320.545451 253.045466 
L 320.406472 256.851235 
L 320.267493 244.482488 
L 319.850557 244.165341 
L 319.711578 232.880181 
L 319.572599 234.228057 
L 319.43362 238.932409 
L 319.294641 234.175199 
L 318.877705 231.03544 
L 318.738726 230.89801 
L 318.599747 228.255115 
L 318.460768 228.572262 
L 318.321789 234.280915 
L 317.904853 238.245257 
L 317.487916 231.320873 
L 316.932001 235.496646 
L 316.515065 222.335031 
L 316.376086 222.98254 
L 315.959149 224.977926 
L 315.681192 216.011113 
L 315.542213 214.723495 
L 314.986297 214.142058 
L 314.569361 218.502834 
L 314.013446 221.193301 
L 313.874467 221.172158 
L 313.596509 201.403306 
L 313.45753 199.024701 
L 312.901615 205.711224 
L 312.762636 205.209074 
L 312.484679 209.543421 
L 312.067742 209.411277 
L 311.928763 212.027214 
L 311.789784 211.504449 
L 311.511827 204.521922 
L 311.09489 205.526221 
L 310.816933 207.957685 
L 310.677954 207.0591 
L 310.538975 204.786211 
L 309.844081 204.363348 
L 309.705102 204.627637 
L 309.566123 206.160516 
L 308.593271 202.513322 
L 308.176335 203.940485 
L 308.037356 203.200474 
L 307.62042 210.970584 
L 307.203483 213.455434 
L 307.064504 212.239174 
L 306.786547 219.057842 
L 306.647568 218.053542 
L 306.230631 218.317831 
L 306.091652 215.622079 
L 305.952674 216.309231 
L 305.674716 211.234874 
L 305.257779 209.807711 
L 304.979822 206.689095 
L 304.840843 207.587679 
L 304.701864 205.579079 
L 304.284928 205.0505 
L 304.00697 208.803411 
L 303.867991 208.644837 
L 303.729012 211.869169 
L 303.312076 213.666337 
L 303.173097 210.415576 
L 302.895139 215.412233 
L 302.75616 214.247774 
L 302.339224 214.670637 
L 302.200245 215.622079 
L 302.061266 215.092443 
L 301.922288 213.613479 
L 301.783309 213.983484 
L 301.366372 213.0849 
L 301.227393 207.006242 
L 301.088415 206.847669 
L 300.810457 202.56618 
L 300.39352 203.041901 
L 300.254542 203.887627 
L 300.115563 206.324376 
L 299.976584 200.821869 
L 299.837605 200.821869 
L 299.003732 206.741953 
L 298.447817 206.741953 
L 298.03088 213.243474 
L 297.891901 210.653437 
L 297.474965 209.649137 
L 297.335986 208.591979 
L 297.058028 213.877768 
L 296.91905 214.512063 
L 296.502113 215.886368 
L 296.363134 211.657737 
L 296.224156 211.341118 
L 296.085177 213.983484 
L 295.946198 212.292032 
L 295.529261 217.260674 
L 295.112325 210.759153 
L 294.973346 209.773353 
L 294.55641 209.596279 
L 294.417431 209.404934 
L 294.278452 207.904827 
L 294.139473 205.0505 
L 294.000494 208.32769 
L 293.444579 206.477664 
L 293.3056 207.32339 
L 293.166621 211.499163 
L 292.610706 210.494863 
L 292.471727 208.274832 
L 292.332748 209.120558 
L 292.193769 210.706295 
L 292.054791 210.970584 
L 291.637854 214.406347 
L 291.498875 218.317831 
L 291.359896 217.577821 
L 291.220918 224.132199 
L 291.081939 219.533563 
L 290.665002 219.692137 
L 290.526024 215.780653 
L 290.387045 208.010542 
L 290.109087 207.904827 
L 289.692151 210.970584 
L 289.553172 210.759153 
L 289.275214 205.949085 
L 289.136235 204.733882 
L 288.719299 207.006242 
L 288.302362 203.781911 
L 288.163383 205.103358 
L 287.607468 202.989043 
L 287.468489 203.464764 
L 287.190532 208.010542 
L 286.773595 210.627008 
L 286.634616 213.930626 
L 286.495637 213.296332 
L 286.356659 214.670637 
L 286.21768 213.613479 
L 285.800743 212.186316 
L 285.522786 218.1064 
L 285.383807 216.573521 
L 284.827892 213.904197 
L 284.688913 212.186316 
L 284.271976 216.679237 
L 283.85504 217.31406 
L 283.577082 222.969326 
L 283.438103 222.546463 
L 283.299124 219.767195 
L 282.882188 222.070742 
L 282.743209 221.700736 
L 282.60423 219.322131 
L 282.465251 221.330731 
L 282.326273 217.84211 
L 281.909336 218.793552 
L 281.770357 222.176457 
L 281.4924 212.503463 
L 281.353421 212.820611 
L 280.936484 212.609179 
L 280.658527 207.0591 
L 280.519548 206.953385 
L 280.380569 202.143316 
L 279.963632 202.619037 
L 279.824654 202.56618 
L 279.685675 201.244732 
L 279.546696 201.879027 
L 279.407717 203.411906 
L 278.851802 206.900527 
L 278.712823 205.579079 
L 278.573844 206.266232 
L 278.434865 209.490563 
L 278.017929 210.970584 
L 277.739971 213.454905 
L 277.600992 213.666337 
L 277.462014 215.701366 
L 277.045077 216.222545 
L 276.767119 221.1193 
L 276.628141 222.969326 
L 276.489162 220.273573 
L 275.933246 217.577821 
L 275.794268 223.233615 
L 275.655289 217.1021 
L 275.51631 216.996384 
L 275.099373 217.207816 
L 274.960395 217.630679 
L 274.821416 217.551392 
L 274.682437 227.303673 
L 274.543458 225.61222 
L 274.126522 222.440747 
L 273.848564 215.410647 
L 273.570606 209.807711 
L 273.15367 207.429106 
L 272.597755 198.918985 
L 272.041839 204.680495 
L 271.90286 203.729053 
L 271.207966 210.864869 
L 271.068987 209.437705 
L 270.930009 214.300632 
L 270.652051 209.279132 
L 270.235114 211.0763 
L 269.957157 214.564921 
L 269.818178 215.463505 
L 269.679199 215.304932 
L 269.262263 214.406347 
L 269.123284 218.634979 
L 268.984305 216.203516 
L 268.845326 215.886368 
L 268.706347 219.480705 
L 268.011453 209.490563 
L 267.872474 209.226274 
L 267.316559 214.632051 
L 267.17758 214.300632 
L 267.038601 212.107029 
L 266.899623 213.930626 
L 266.343707 215.516363 
L 266.204728 216.83781 
L 266.06575 215.83351 
L 265.787792 207.534821 
L 265.370855 206.636237 
L 265.092898 209.33199 
L 264.953919 215.622079 
L 264.398004 217.207816 
L 264.120046 225.242215 
L 263.981067 224.60792 
L 263.425152 219.410933 
L 263.286173 226.827952 
L 263.147194 208.961984 
L 262.869236 210.970584 
L 262.4523 214.723495 
L 262.313321 218.423547 
L 262.035363 209.33199 
L 261.896385 211.34059 
L 261.479448 210.389148 
L 261.201491 216.362089 
L 260.923533 227.832252 
L 260.506596 227.092241 
L 260.367618 230.369431 
L 260.08966 222.335031 
L 259.950681 225.770794 
L 259.533745 228.149399 
L 259.255787 232.536604 
L 259.116808 230.950868 
L 258.977829 232.800894 
L 258.560893 236.078083 
L 258.421914 231.162299 
L 258.282935 231.479446 
L 258.143956 224.396489 
L 258.004977 228.228686 
L 257.449062 234.968067 
L 257.171104 226.775094 
L 257.032126 230.263715 
L 256.47621 236.738807 
L 256.059274 221.383589 
L 255.642337 225.453647 
L 255.36438 213.983484 
L 255.225401 212.36709 
L 255.086422 207.640537 
L 254.669486 212.001313 
L 254.530507 208.610479 
L 254.391528 209.886998 
L 254.252549 208.856269 
L 254.11357 211.552021 
L 253.696634 210.389148 
L 253.279697 216.996384 
L 252.723782 212.292032 
L 252.584803 216.226773 
L 252.306845 204.839069 
L 252.167867 198.231832 
L 251.75093 188.188833 
L 251.611951 187.701483 
L 251.333994 183.74877 
L 251.195015 184.198062 
L 250.778078 184.805928 
L 250.639099 187.395965 
L 250.361142 198.443264 
L 250.222163 200.610438 
L 249.805226 204.81264 
L 249.527269 204.624466 
L 249.249311 191.78317 
L 248.832375 184.594496 
L 248.693396 175.97866 
L 248.554417 174.411423 
L 248.415438 177.458681 
L 247.859523 175.397223 
L 247.720544 183.378765 
L 247.442586 182.057317 
L 247.303608 182.163033 
L 246.886671 179.837286 
L 246.747692 180.722656 
L 246.608713 182.374465 
L 246.469735 181.211591 
L 246.330756 183.537338 
L 245.913819 183.537338 
L 245.77484 180.260149 
L 245.635862 181.317307 
L 245.357904 175.027218 
L 244.940967 173.000646 
L 244.801989 173.930417 
L 244.66301 171.22145 
L 244.524031 173.441481 
L 244.385052 173.811486 
L 243.968116 175.450081 
L 243.690158 172.120034 
L 243.551179 165.19565 
L 243.4122 164.085634 
L 242.995264 163.213479 
L 242.717306 172.595755 
L 242.439349 167.309966 
L 242.022412 167.785687 
L 241.883433 173.441481 
L 241.744454 173.129619 
L 241.466497 176.612955 
L 241.04956 177.670112 
L 240.910581 174.181492 
L 240.771603 173.917202 
L 240.632624 175.767228 
L 240.493645 175.502939 
L 240.076708 179.467281 
L 239.93773 182.533038 
L 239.798751 180.471581 
L 239.659772 180.313007 
L 239.103857 181.793028 
L 238.68692 195.958943 
L 238.547941 204.786211 
L 237.992026 200.081859 
L 237.853047 202.354748 
L 237.714068 202.037601 
L 237.57509 195.588938 
L 237.158153 200.663295 
L 237.019174 200.769011 
L 236.880195 201.927128 
L 236.741217 204.944785 
L 236.602238 203.147616 
L 236.185301 204.944785 
L 236.046322 203.676195 
L 235.768365 207.034257 
L 235.212449 203.781911 
L 234.934492 210.600579 
L 234.795513 210.759153 
L 234.239598 210.157101 
L 233.96164 214.0892 
L 233.822661 214.512063 
L 233.683682 219.031413 
L 233.266746 219.903568 
L 233.127767 221.013584 
L 232.71083 202.698324 
L 232.293894 205.420506 
L 232.154915 202.745896 
L 231.876958 195.430364 
L 231.737979 196.223232 
L 231.321042 201.56188 
L 230.904106 214.0892 
L 230.765127 213.983484 
L 230.34819 218.952126 
L 230.209212 215.146358 
L 230.070233 216.044942 
L 229.931254 214.142058 
L 229.792275 218.264973 
L 229.375339 221.172686 
L 229.23636 218.1064 
L 229.097381 210.33629 
L 228.958402 210.283432 
L 228.819423 211.446305 
L 228.402487 212.556321 
L 228.263508 214.406347 
L 228.124529 211.023442 
L 227.98555 211.446305 
L 227.846571 212.662037 
L 227.429635 212.979184 
L 227.290656 214.459205 
L 227.151677 214.247774 
L 227.012698 213.402047 
L 226.87372 210.653437 
L 226.456783 211.234874 
L 226.317804 210.812011 
L 226.178825 211.182016 
L 226.039847 213.032042 
L 225.900868 221.674307 
L 225.344953 226.11437 
L 224.51108 211.657737 
L 224.372101 212.662037 
L 224.094143 224.027012 
L 223.955164 224.713636 
L 223.538228 224.766494 
L 223.26027 230.845152 
L 223.121291 231.268015 
L 222.982312 230.105141 
L 222.426397 232.219457 
L 222.148439 237.39953 
L 222.009461 243.213898 
L 221.592524 243.742477 
L 221.453545 244.958209 
L 221.314566 252.516887 
L 221.175588 248.129682 
L 221.036609 248.869693 
L 220.341715 257.432671 
L 220.202736 264.779918 
L 219.507842 274.030049 
L 219.368863 265.942792 
L 219.229884 269.537129 
L 219.090905 257.274098 
L 218.53499 245.275356 
L 218.257032 247.336814 
L 218.118053 243.266756 
L 217.562138 248.711119 
L 217.423159 245.116783 
L 217.28418 244.42963 
L 217.145202 246.966809 
L 216.728265 248.941051 
L 216.589286 255.846935 
L 216.450307 256.322656 
L 216.311329 249.662561 
L 215.755413 253.891193 
L 215.338477 239.883851 
L 215.199498 240.148141 
L 214.643583 234.492346 
L 214.365625 228.62512 
L 214.226646 236.236657 
L 213.531752 226.669378 
L 213.392773 227.271958 
L 213.253794 232.166599 
L 212.697879 233.118041 
L 212.5589 234.439488 
L 212.419921 230.369431 
L 212.280943 232.166599 
L 211.864006 231.222029 
L 211.725027 228.360831 
L 211.586048 228.492976 
L 211.308091 241.733877 
L 210.891154 241.998167 
L 210.613197 235.901009 
L 210.474218 236.289515 
L 210.335239 235.760936 
L 209.918302 235.232357 
L 209.779324 237.558104 
L 209.640345 229.523704 
L 209.501366 228.730836 
L 208.945451 230.263715 
L 208.528514 236.078083 
L 208.389535 233.118041 
L 207.972599 235.126641 
L 207.694641 241.786735 
L 207.555662 242.156741 
L 207.416684 245.645361 
L 206.999747 243.372472 
L 206.721789 241.099583 
L 206.443832 242.658891 
L 205.609959 223.603621 
L 205.47098 223.022184 
L 204.915065 227.567962 
L 204.776086 224.819352 
L 204.637107 226.854381 
L 204.498128 226.510805 
L 203.942213 222.1236 
L 203.10834 230.686578 
L 202.830382 235.813794 
L 202.552425 232.272315 
L 202.135488 235.816436 
L 201.996509 235.734507 
L 201.718552 240.941009 
L 201.579573 242.68532 
L 200.7457 256.692661 
L 200.606721 257.10231 
L 200.189784 253.045466 
L 200.050806 253.098324 
L 199.911827 252.19974 
L 199.633869 245.539646 
L 199.216933 246.226798 
L 199.077954 243.42533 
L 198.799996 258.278398 
L 198.661017 261.872734 
L 198.244081 263.088466 
L 198.105102 266.498328 
L 197.966123 262.454171 
L 197.827144 265.889934 
L 197.271229 267.845676 
L 197.13225 262.612745 
L 196.993271 265.176353 
L 196.854292 264.99135 
L 196.715314 253.944051 
L 196.298377 252.736248 
L 196.159398 250.164711 
L 196.02042 259.864134 
L 195.742462 246.966809 
L 195.047568 228.202257 
L 194.908589 227.092241 
L 194.074716 235.020925 
L 193.935737 234.703778 
L 193.796758 235.866651 
L 193.379822 237.293815 
L 193.240843 239.143841 
L 192.962885 232.219457 
L 192.823906 233.752336 
L 192.40697 233.435717 
L 192.267991 237.928109 
L 192.129012 237.293815 
L 191.990033 239.355272 
L 191.851055 238.562404 
L 191.434118 240.306714 
L 191.15616 236.765236 
L 191.017182 236.818094 
L 190.878203 238.139541 
L 190.322288 237.346672 
L 190.04433 240.465288 
L 189.905351 238.139541 
L 189.488415 240.571004 
L 189.210457 243.319614 
L 189.071478 242.447459 
L 188.932499 248.975409 
L 188.376584 246.596804 
L 188.098626 255.846935 
L 187.959647 250.614003 
L 187.542711 252.146882 
L 187.264753 243.848193 
L 187.125774 243.002995 
L 186.986796 236.078083 
L 186.43088 232.959467 
L 186.152923 243.285257 
L 186.013944 245.328214 
L 185.458028 243.055325 
L 185.31905 243.478188 
L 185.180071 246.226798 
L 185.041092 245.16964 
L 184.624156 243.108183 
L 184.06824 230.105141 
L 183.651304 230.422289 
L 183.512325 229.402131 
L 183.373346 229.655849 
L 183.234367 231.215157 
L 182.539473 227.726536 
L 182.400494 225.797223 
L 182.261515 225.770794 
L 182.122537 225.861181 
L 181.7056 224.466261 
L 181.566621 229.840852 
L 181.427642 229.62942 
L 181.288664 232.748036 
L 181.149685 227.726536 
L 180.732748 223.180757 
L 180.454791 239.196699 
L 180.176833 227.250815 
L 179.620918 228.995126 
L 179.34296 217.630679 
L 179.203981 213.983484 
L 178.787045 215.0935 
L 178.648066 217.583107 
L 178.509087 217.419247 
L 178.370108 217.84211 
L 178.231129 218.84641 
L 177.814193 219.427847 
L 177.397256 215.63265 
L 177.258278 216.573521 
L 176.841341 213.032042 
L 176.285426 199.764711 
L 175.72951 204.31049 
L 175.590532 206.900527 
L 175.451553 203.570479 
L 175.312574 204.31049 
L 174.756659 209.543421 
L 174.478701 195.060359 
L 174.339722 191.254591 
L 173.922786 193.897485 
L 173.783807 202.883855 
L 173.644828 204.099058 
L 173.505849 212.556321 
L 173.36687 211.816311 
L 172.949934 217.683537 
L 172.810955 218.053542 
L 172.671976 224.660778 
L 172.532997 224.449347 
L 172.394019 225.189357 
L 171.977082 220.432147 
L 171.838103 210.600579 
L 171.699124 211.393447 
L 171.560146 210.732724 
L 171.421167 206.266232 
L 171.00423 212.556321 
L 170.865251 212.133458 
L 170.587294 204.257632 
L 170.448315 203.30619 
L 170.031378 206.424806 
L 169.8924 201.403306 
L 169.753421 201.112588 
L 169.614442 200.504722 
L 169.058527 200.081859 
L 168.780569 203.359048 
L 168.64159 204.759782 
L 167.946696 190.303149 
L 167.807717 194.003201 
L 167.668738 193.950343 
L 167.529759 196.117517 
L 166.834865 182.480181 
L 166.556908 185.545938 
L 166.000992 188.04876 
L 165.862014 196.117517 
L 165.723035 189.986001 
L 165.167119 192.100317 
L 164.889162 197.491822 
L 164.750183 198.020401 
L 164.611204 200.451864 
L 164.055289 203.148145 
L 163.91631 205.658366 
L 163.638352 216.256374 
L 163.221416 219.379746 
L 162.943458 215.146886 
L 162.6655 216.83781 
L 162.248564 219.586421 
L 161.970606 218.767123 
L 161.831627 217.577821 
L 161.692649 219.1107 
L 161.275712 218.596921 
L 161.136733 220.062142 
L 160.997755 223.339331 
L 160.858776 229.444418 
L 160.719797 224.660778 
L 160.163882 221.595021 
L 160.024903 222.705036 
L 159.885924 222.810752 
L 159.746945 218.896097 
L 159.330009 227.145099 
L 159.19103 225.61222 
L 159.052051 226.299373 
L 158.913072 226.405089 
L 158.357157 223.86791 
L 157.801241 232.959467 
L 157.384305 234.756636 
L 157.245326 237.875251 
L 156.967368 235.443788 
L 156.82839 237.135241 
L 156.272474 235.232357 
L 156.133495 234.915209 
L 155.994517 233.382331 
L 155.855538 233.488046 
L 155.438601 235.126641 
L 155.160644 230.528004 
L 154.882686 233.170899 
L 154.46575 236.506232 
L 154.326771 241.998167 
L 154.187792 242.68532 
L 154.048813 242.262456 
L 153.909834 243.901051 
L 153.492898 244.958209 
L 153.21494 247.231098 
L 152.936982 253.521187 
L 152.520046 256.546773 
L 152.381067 259.018408 
L 152.103109 256.534087 
L 151.964131 261.555587 
L 151.547194 261.079866 
L 151.408215 261.661303 
L 151.130258 270.366998 
L 150.991279 269.325697 
L 150.435363 272.338597 
L 150.157406 271.598586 
L 150.018427 272.391455 
L 149.601491 271.75716 
L 149.462512 274.77006 
L 149.045575 265.308497 
L 148.628639 263.405613 
L 148.350681 258.701261 
L 148.072723 262.137024 
L 147.099872 241.628162 
L 146.682935 242.315314 
L 146.404977 244.746777 
L 146.265999 245.592504 
L 145.710083 246.385372 
L 145.571104 247.725848 
L 145.432126 247.336814 
L 145.293147 247.653961 
L 145.154168 246.279656 
L 144.737231 245.381072 
L 144.598253 242.896751 
L 144.181316 247.389672 
L 143.625401 249.239698 
L 143.486422 250.561145 
L 143.347443 254.684061 
L 143.208464 254.684061 
L 142.652549 258.542687 
L 142.51357 259.018408 
L 142.235613 255.741219 
L 141.818676 255.793548 
L 141.40174 248.711119 
L 141.262761 248.605403 
L 140.845824 249.133982 
L 140.706845 247.971109 
L 140.428888 248.658261 
L 140.289909 250.402572 
L 139.872972 249.583274 
L 139.733994 251.671161 
L 139.595015 251.19544 
L 139.317057 252.728319 
L 138.900121 254.578345 
L 138.761142 254.186668 
L 138.622163 256.269798 
L 138.483184 256.21694 
L 138.344205 258.066966 
L 137.78829 258.542687 
L 137.510332 255.582645 
L 137.371354 257.485529 
L 136.954417 257.749819 
L 136.815438 260.075566 
L 136.537481 258.373542 
L 136.398502 253.098324 
L 135.981565 254.419772 
L 135.703608 258.410542 
L 135.564629 261.608445 
L 135.42565 259.694989 
L 134.869735 260.762719 
L 134.591777 256.904092 
L 134.452798 250.825435 
L 134.035862 248.552546 
L 133.896883 250.296856 
L 133.757904 256.930521 
L 133.618925 258.066966 
L 133.479946 257.326956 
L 133.06301 259.071266 
L 132.924031 261.079866 
L 132.785052 260.921292 
L 132.646073 259.441271 
L 132.090158 262.295597 
L 131.951179 263.722761 
L 131.673222 260.035923 
L 131.117306 259.758419 
L 130.978327 262.771318 
L 130.839349 261.608445 
L 130.70037 257.802677 
L 130.561391 260.022708 
L 130.144454 260.815576 
L 130.005476 260.498429 
L 129.727518 266.418513 
L 129.588539 266.154224 
L 129.171603 265.599216 
L 128.615687 270.118565 
L 128.198751 271.492871 
L 128.059772 271.175723 
L 127.781814 271.492871 
L 127.642835 272.391455 
L 127.08692 272.972892 
L 126.947941 272.285739 
L 126.669984 279.104407 
L 126.253047 278.258681 
L 126.114068 273.871476 
L 125.97509 273.76576 
L 125.836111 274.822918 
L 125.697132 274.822918 
L 125.280195 276.250081 
L 125.141217 278.364397 
L 125.002238 278.681544 
L 124.72428 279.976562 
L 124.307344 282.80446 
L 124.168365 286.107549 
L 124.029386 282.328739 
L 123.890407 283.861617 
L 123.751428 281.747302 
L 123.334492 281.853018 
L 123.195513 286.345938 
L 123.056534 278.047249 
L 122.917555 279.580128 
L 122.778576 278.681544 
L 122.36164 280.214423 
L 122.222661 279.761431 
L 122.083682 280.690144 
L 121.944703 280.79586 
L 121.805725 282.011591 
L 121.388788 279.210123 
L 121.11083 273.712902 
L 120.971852 274.400055 
L 120.832873 279.897275 
L 120.415936 279.104407 
L 120.276958 281.536399 
L 120.137979 281.53587 
L 119.999 282.037492 
L 119.860021 281.350868 
L 119.443085 284.337338 
L 119.165127 282.043306 
L 119.026148 285.764502 
L 118.331254 287.29738 
L 118.192275 289.464554 
L 118.053296 288.777401 
L 117.914317 290.944575 
L 117.497381 294.856059 
L 117.219423 300.141848 
L 117.080444 299.718985 
L 116.941466 298.503253 
L 116.524529 296.917517 
L 116.38555 299.08469 
L 116.246571 303.947616 
L 115.412698 298.820401 
L 115.27372 297.710385 
L 115.134741 298.873259 
L 114.578825 300.35328 
L 114.439847 301.199006 
L 114.300868 301.35758 
L 114.02291 304.264764 
L 113.605974 304.634769 
L 113.466995 308.070532 
L 113.328016 307.489095 
L 113.189037 306.418723 
L 113.050058 307.806242 
L 112.633122 309.814842 
L 112.494143 312.087732 
L 112.216185 309.973416 
L 112.077207 309.920558 
L 111.66027 310.792713 
L 111.521291 309.497695 
L 111.243334 311.508409 
L 111.104355 305.216206 
L 110.687418 307.700527 
L 110.409461 305.004774 
L 110.131503 312.087732 
L 109.714566 310.13199 
L 109.575588 312.8806 
L 109.436609 304.433909 
L 109.29763 302.784743 
L 109.158651 303.841901 
L 108.741715 304.951916 
L 108.602736 307.885001 
L 108.463757 307.140233 
L 108.324778 309.656269 
L 108.185799 307.489624 
L 107.768863 304.476195 
L 107.490905 304.634769 
L 107.351926 305.797643 
L 107.212948 304.370479 
L 106.796011 302.573311 
L 106.657032 302.784743 
L 106.518053 298.767543 
L 106.379075 299.454696 
L 106.240096 295.966075 
L 105.823159 296.759472 
L 105.68418 296.07179 
L 105.545202 301.146148 
L 105.406223 302.044732 
L 105.267244 299.666127 
L 104.850307 299.031832 
L 104.57235 289.623656 
L 104.294392 284.601628 
L 103.877456 285.923075 
L 103.738477 285.500212 
L 103.32154 278.52297 
L 102.904604 278.364397 
L 102.626646 283.015891 
L 102.487667 282.434454 
L 102.348689 284.971633 
L 101.931752 282.645886 
L 101.792773 284.020191 
L 101.514816 293.904617 
L 101.375837 295.226064 
L 100.9589 295.437496 
L 100.680943 304.516896 
L 100.402985 302.996174 
L 99.986048 303.281607 
L 99.708091 298.926117 
L 99.569112 295.966075 
L 99.430133 300.194706 
L 99.013197 299.08469 
L 98.874218 299.375409 
L 98.735239 299.401838 
L 98.59626 299.296122 
L 97.901366 283.967333 
L 97.762387 287.720244 
L 97.623408 297.234664 
L 97.484429 295.278922 
L 97.067493 302.745628 
L 96.928514 300.194706 
L 96.511578 304.687627 
L 96.094641 308.757685 
L 95.955662 313.14489 
L 95.121789 308.281963 
L 94.982811 310.449137 
L 94.565874 305.480495 
L 94.148938 306.11479 
L 94.009959 309.656269 
L 93.87098 306.431937 
L 93.593022 314.043474 
L 93.037107 301.148791 
L 92.62017 290.627428 
L 92.203234 288.143107 
L 92.064255 291.526012 
L 91.925276 291.208864 
L 91.786297 289.781701 
L 91.647319 289.720915 
L 91.230382 287.773101 
L 91.091403 285.341638 
L 90.813446 277.307239 
L 90.674467 276.937234 
L 90.25753 277.201523 
L 90.118552 277.571528 
L 89.979573 270.065708 
L 89.840594 269.219981 
L 89.701615 270.118565 
L 89.1457 271.598586 
L 88.867742 274.822918 
L 88.728763 275.404355 
L 88.311827 274.294339 
L 88.172848 275.51007 
L 88.033869 283.914475 
L 87.89489 283.597328 
L 87.755911 286.663086 
L 87.338975 288.248822 
L 87.061017 287.56167 
L 86.922038 286.028791 
L 86.78306 286.821659 
L 86.366123 287.773101 
L 86.227144 288.671686 
L 85.949187 299.243264 
L 85.810208 299.666127 
L 85.393271 299.296122 
L 85.254292 295.384638 
L 85.115314 279.421554 
L 84.976335 277.994391 
L 84.837356 278.628686 
L 84.42042 278.840118 
L 84.142462 286.346467 
L 84.003483 284.601628 
L 83.864504 279.262981 
L 83.447568 278.364397 
L 83.16961 281.853018 
L 83.030631 276.51437 
L 82.891652 276.408655 
L 82.474716 272.920034 
L 82.196758 265.99565 
L 82.057779 254.736919 
L 81.501864 259.071266 
L 81.362885 254.578345 
L 81.223906 237.505246 
L 80.945949 243.266756 
L 80.529012 244.324443 
L 80.390033 243.583904 
L 80.251055 244.693919 
L 79.973097 249.926851 
L 79.55616 251.724019 
L 79.278203 250.085424 
L 79.139224 250.931151 
L 79.000245 253.071895 
L 78.583309 253.309756 
L 78.44433 255.424072 
L 78.305351 255.635503 
L 78.166372 256.375514 
L 78.027393 260.709861 
L 77.610457 261.719446 
L 77.471478 261.027008 
L 77.332499 261.079866 
L 77.054542 262.771318 
L 76.637605 263.98705 
L 76.498626 268.374255 
L 76.08169 264.145624 
L 75.664753 263.511329 
L 75.525774 262.771318 
L 75.247817 267.687102 
L 74.552923 274.082907 
L 74.413944 277.624386 
L 74.274965 277.465812 
L 74.135986 280.267281 
L 73.580071 281.271581 
L 73.302113 283.227323 
L 73.163134 284.337338 
L 72.746198 286.250794 
L 72.607219 283.309252 
L 72.46824 283.967862 
L 72.329261 283.121607 
L 72.329261 283.121607 
" clip-path="url(#p57ed2c743e)" style="fill: none; stroke: #000000; stroke-width: 0.4; stroke-linecap: square"/>
   </g>
   <g id="patch_3">
    <path d="M 46.965625 354.958125 
L 46.965625 22.318125 
" style="fill: none; stroke: #000000; stroke-width: 0.8; stroke-linejoin: miter; stroke-linecap: square"/>
   </g>
   <g id="patch_4">
    <path d="M 604.965625 354.958125 
L 604.965625 22.318125 
" style="fill: none; stroke: #000000; stroke-width: 0.8; stroke-linejoin: miter; stroke-linecap: square"/>
   </g>
   <g id="patch_5">
    <path d="M 46.965625 354.958125 
L 604.965625 354.958125 
" style="fill: none; stroke: #000000; stroke-width: 0.8; stroke-linejoin: miter; stroke-linecap: square"/>
   </g>
   <g id="patch_6">
    <path d="M 46.965625 22.318125 
L 604.965625 22.318125 
" style="fill: none; stroke: #000000; stroke-width: 0.8; stroke-linejoin: miter; stroke-linecap: square"/>
   </g>
   <g id="text_19">
    <!-- VNQ, High Price (2013-2023) -->
    <g transform="translate(239.2075 16.318125)scale(0.12 -0.12)">
     <defs>
      <path id="DejaVuSans-56" d="M 1831 0 
L 50 4666 
L 709 4666 
L 2188 738 
L 3669 4666 
L 4325 4666 
L 2547 0 
L 1831 0 
z
" transform="scale(0.015625)"/>
      <path id="DejaVuSans-4e" d="M 628 4666 
L 1478 4666 
L 3547 763 
L 3547 4666 
L 4159 4666 
L 4159 0 
L 3309 0 
L 1241 3903 
L 1241 0 
L 628 0 
L 628 4666 
z
" transform="scale(0.015625)"/>
      <path id="DejaVuSans-51" d="M 2522 4238 
Q 1834 4238 1429 3725 
Q 1025 3213 1025 2328 
Q 1025 1447 1429 934 
Q 1834 422 2522 422 
Q 3209 422 3611 934 
Q 4013 1447 4013 2328 
Q 4013 3213 3611 3725 
Q 3209 4238 2522 4238 
z
M 3406 84 
L 4238 -825 
L 3475 -825 
L 2784 -78 
Q 2681 -84 2626 -87 
Q 2572 -91 2522 -91 
Q 1538 -91 948 567 
Q 359 1225 359 2328 
Q 359 3434 948 4092 
Q 1538 4750 2522 4750 
Q 3503 4750 4090 4092 
Q 4678 3434 4678 2328 
Q 4678 1516 4351 937 
Q 4025 359 3406 84 
z
" transform="scale(0.015625)"/>
      <path id="DejaVuSans-2c" d="M 750 794 
L 1409 794 
L 1409 256 
L 897 -744 
L 494 -744 
L 750 256 
L 750 794 
z
" transform="scale(0.015625)"/>
      <path id="DejaVuSans-48" d="M 628 4666 
L 1259 4666 
L 1259 2753 
L 3553 2753 
L 3553 4666 
L 4184 4666 
L 4184 0 
L 3553 0 
L 3553 2222 
L 1259 2222 
L 1259 0 
L 628 0 
L 628 4666 
z
" transform="scale(0.015625)"/>
      <path id="DejaVuSans-67" d="M 2906 1791 
Q 2906 2416 2648 2759 
Q 2391 3103 1925 3103 
Q 1463 3103 1205 2759 
Q 947 2416 947 1791 
Q 947 1169 1205 825 
Q 1463 481 1925 481 
Q 2391 481 2648 825 
Q 2906 1169 2906 1791 
z
M 3481 434 
Q 3481 -459 3084 -895 
Q 2688 -1331 1869 -1331 
Q 1566 -1331 1297 -1286 
Q 1028 -1241 775 -1147 
L 775 -588 
Q 1028 -725 1275 -790 
Q 1522 -856 1778 -856 
Q 2344 -856 2625 -561 
Q 2906 -266 2906 331 
L 2906 616 
Q 2728 306 2450 153 
Q 2172 0 1784 0 
Q 1141 0 747 490 
Q 353 981 353 1791 
Q 353 2603 747 3093 
Q 1141 3584 1784 3584 
Q 2172 3584 2450 3431 
Q 2728 3278 2906 2969 
L 2906 3500 
L 3481 3500 
L 3481 434 
z
" transform="scale(0.015625)"/>
      <path id="DejaVuSans-68" d="M 3513 2113 
L 3513 0 
L 2938 0 
L 2938 2094 
Q 2938 2591 2744 2837 
Q 2550 3084 2163 3084 
Q 1697 3084 1428 2787 
Q 1159 2491 1159 1978 
L 1159 0 
L 581 0 
L 581 4863 
L 1159 4863 
L 1159 2956 
Q 1366 3272 1645 3428 
Q 1925 3584 2291 3584 
Q 2894 3584 3203 3211 
Q 3513 2838 3513 2113 
z
" transform="scale(0.015625)"/>
      <path id="DejaVuSans-2d" d="M 313 2009 
L 1997 2009 
L 1997 1497 
L 313 1497 
L 313 2009 
z
" transform="scale(0.015625)"/>
     </defs>
     <use xlink:href="#DejaVuSans-56"/>
     <use xlink:href="#DejaVuSans-4e" x="68.408203"/>
     <use xlink:href="#DejaVuSans-51" x="143.212891"/>
     <use xlink:href="#DejaVuSans-2c" x="221.923828"/>
     <use xlink:href="#DejaVuSans-20" x="253.710938"/>
     <use xlink:href="#DejaVuSans-48" x="285.498047"/>
     <use xlink:href="#DejaVuSans-69" x="360.693359"/>
     <use xlink:href="#DejaVuSans-67" x="388.476562"/>
     <use xlink:href="#DejaVuSans-68" x="451.953125"/>
     <use xlink:href="#DejaVuSans-20" x="515.332031"/>
     <use xlink:href="#DejaVuSans-50" x="547.119141"/>
     <use xlink:href="#DejaVuSans-72" x="605.671875"/>
     <use xlink:href="#DejaVuSans-69" x="646.785156"/>
     <use xlink:href="#DejaVuSans-63" x="674.568359"/>
     <use xlink:href="#DejaVuSans-65" x="729.548828"/>
     <use xlink:href="#DejaVuSans-20" x="791.072266"/>
     <use xlink:href="#DejaVuSans-28" x="822.859375"/>
     <use xlink:href="#DejaVuSans-32" x="861.873047"/>
     <use xlink:href="#DejaVuSans-30" x="925.496094"/>
     <use xlink:href="#DejaVuSans-31" x="989.119141"/>
     <use xlink:href="#DejaVuSans-33" x="1052.742188"/>
     <use xlink:href="#DejaVuSans-2d" x="1116.365234"/>
     <use xlink:href="#DejaVuSans-32" x="1152.449219"/>
     <use xlink:href="#DejaVuSans-30" x="1216.072266"/>
     <use xlink:href="#DejaVuSans-32" x="1279.695312"/>
     <use xlink:href="#DejaVuSans-33" x="1343.318359"/>
     <use xlink:href="#DejaVuSans-29" x="1406.941406"/>
    </g>
   </g>
  </g>
 </g>
 <defs>
  <clipPath id="p57ed2c743e">
   <rect x="46.965625" y="22.318125" width="558" height="332.64"/>
  </clipPath>
 </defs>
</svg>
