<?xml version="1.0" encoding="utf-8" standalone="no"?>
<!DOCTYPE svg PUBLIC "-//W3C//DTD SVG 1.1//EN"
  "http://www.w3.org/Graphics/SVG/1.1/DTD/svg11.dtd">
<svg xmlns:xlink="http://www.w3.org/1999/xlink" width="612.165625pt" height="392.514375pt" viewBox="0 0 612.165625 392.514375" xmlns="http://www.w3.org/2000/svg" version="1.1">
 <metadata>
  <rdf:RDF xmlns:dc="http://purl.org/dc/elements/1.1/" xmlns:cc="http://creativecommons.org/ns#" xmlns:rdf="http://www.w3.org/1999/02/22-rdf-syntax-ns#">
   <cc:Work>
    <dc:type rdf:resource="http://purl.org/dc/dcmitype/StillImage"/>
    <dc:date>2023-04-24T21:55:15.274962</dc:date>
    <dc:format>image/svg+xml</dc:format>
    <dc:creator>
     <cc:Agent>
      <dc:title>Matplotlib v3.5.1, https://matplotlib.org/</dc:title>
     </cc:Agent>
    </dc:creator>
   </cc:Work>
  </rdf:RDF>
 </metadata>
 <defs>
  <style type="text/css">*{stroke-linejoin: round; stroke-linecap: butt}</style>
 </defs>
 <g id="figure_1">
  <g id="patch_1">
   <path d="M 0 392.514375 
L 612.165625 392.514375 
L 612.165625 0 
L 0 0 
z
" style="fill: #ffffff"/>
  </g>
  <g id="axes_1">
   <g id="patch_2">
    <path d="M 46.965625 354.958125 
L 604.965625 354.958125 
L 604.965625 22.318125 
L 46.965625 22.318125 
z
" style="fill: #ffffff"/>
   </g>
   <g id="matplotlib.axis_1">
    <g id="xtick_1">
     <g id="line2d_1">
      <defs>
       <path id="m46dd710ae4" d="M 0 0 
L 0 3.5 
" style="stroke: #000000; stroke-width: 0.8"/>
      </defs>
      <g>
       <use xlink:href="#m46dd710ae4" x="72.329261" y="354.958125" style="stroke: #000000; stroke-width: 0.8"/>
      </g>
     </g>
     <g id="text_1">
      <!-- 0 -->
      <g transform="translate(69.148011 369.556562)scale(0.1 -0.1)">
       <defs>
        <path id="DejaVuSans-30" d="M 2034 4250 
Q 1547 4250 1301 3770 
Q 1056 3291 1056 2328 
Q 1056 1369 1301 889 
Q 1547 409 2034 409 
Q 2525 409 2770 889 
Q 3016 1369 3016 2328 
Q 3016 3291 2770 3770 
Q 2525 4250 2034 4250 
z
M 2034 4750 
Q 2819 4750 3233 4129 
Q 3647 3509 3647 2328 
Q 3647 1150 3233 529 
Q 2819 -91 2034 -91 
Q 1250 -91 836 529 
Q 422 1150 422 2328 
Q 422 3509 836 4129 
Q 1250 4750 2034 4750 
z
" transform="scale(0.015625)"/>
       </defs>
       <use xlink:href="#DejaVuSans-30"/>
      </g>
     </g>
    </g>
    <g id="xtick_2">
     <g id="line2d_2">
      <g>
       <use xlink:href="#m46dd710ae4" x="189.15854" y="354.958125" style="stroke: #000000; stroke-width: 0.8"/>
      </g>
     </g>
     <g id="text_2">
      <!-- 500 -->
      <g transform="translate(179.61479 369.556562)scale(0.1 -0.1)">
       <defs>
        <path id="DejaVuSans-35" d="M 691 4666 
L 3169 4666 
L 3169 4134 
L 1269 4134 
L 1269 2991 
Q 1406 3038 1543 3061 
Q 1681 3084 1819 3084 
Q 2600 3084 3056 2656 
Q 3513 2228 3513 1497 
Q 3513 744 3044 326 
Q 2575 -91 1722 -91 
Q 1428 -91 1123 -41 
Q 819 9 494 109 
L 494 744 
Q 775 591 1075 516 
Q 1375 441 1709 441 
Q 2250 441 2565 725 
Q 2881 1009 2881 1497 
Q 2881 1984 2565 2268 
Q 2250 2553 1709 2553 
Q 1456 2553 1204 2497 
Q 953 2441 691 2322 
L 691 4666 
z
" transform="scale(0.015625)"/>
       </defs>
       <use xlink:href="#DejaVuSans-35"/>
       <use xlink:href="#DejaVuSans-30" x="63.623047"/>
       <use xlink:href="#DejaVuSans-30" x="127.246094"/>
      </g>
     </g>
    </g>
    <g id="xtick_3">
     <g id="line2d_3">
      <g>
       <use xlink:href="#m46dd710ae4" x="305.987818" y="354.958125" style="stroke: #000000; stroke-width: 0.8"/>
      </g>
     </g>
     <g id="text_3">
      <!-- 1000 -->
      <g transform="translate(293.262818 369.556562)scale(0.1 -0.1)">
       <defs>
        <path id="DejaVuSans-31" d="M 794 531 
L 1825 531 
L 1825 4091 
L 703 3866 
L 703 4441 
L 1819 4666 
L 2450 4666 
L 2450 531 
L 3481 531 
L 3481 0 
L 794 0 
L 794 531 
z
" transform="scale(0.015625)"/>
       </defs>
       <use xlink:href="#DejaVuSans-31"/>
       <use xlink:href="#DejaVuSans-30" x="63.623047"/>
       <use xlink:href="#DejaVuSans-30" x="127.246094"/>
       <use xlink:href="#DejaVuSans-30" x="190.869141"/>
      </g>
     </g>
    </g>
    <g id="xtick_4">
     <g id="line2d_4">
      <g>
       <use xlink:href="#m46dd710ae4" x="422.817097" y="354.958125" style="stroke: #000000; stroke-width: 0.8"/>
      </g>
     </g>
     <g id="text_4">
      <!-- 1500 -->
      <g transform="translate(410.092097 369.556562)scale(0.1 -0.1)">
       <use xlink:href="#DejaVuSans-31"/>
       <use xlink:href="#DejaVuSans-35" x="63.623047"/>
       <use xlink:href="#DejaVuSans-30" x="127.246094"/>
       <use xlink:href="#DejaVuSans-30" x="190.869141"/>
      </g>
     </g>
    </g>
    <g id="xtick_5">
     <g id="line2d_5">
      <g>
       <use xlink:href="#m46dd710ae4" x="539.646375" y="354.958125" style="stroke: #000000; stroke-width: 0.8"/>
      </g>
     </g>
     <g id="text_5">
      <!-- 2000 -->
      <g transform="translate(526.921375 369.556562)scale(0.1 -0.1)">
       <defs>
        <path id="DejaVuSans-32" d="M 1228 531 
L 3431 531 
L 3431 0 
L 469 0 
L 469 531 
Q 828 903 1448 1529 
Q 2069 2156 2228 2338 
Q 2531 2678 2651 2914 
Q 2772 3150 2772 3378 
Q 2772 3750 2511 3984 
Q 2250 4219 1831 4219 
Q 1534 4219 1204 4116 
Q 875 4013 500 3803 
L 500 4441 
Q 881 4594 1212 4672 
Q 1544 4750 1819 4750 
Q 2544 4750 2975 4387 
Q 3406 4025 3406 3419 
Q 3406 3131 3298 2873 
Q 3191 2616 2906 2266 
Q 2828 2175 2409 1742 
Q 1991 1309 1228 531 
z
" transform="scale(0.015625)"/>
       </defs>
       <use xlink:href="#DejaVuSans-32"/>
       <use xlink:href="#DejaVuSans-30" x="63.623047"/>
       <use xlink:href="#DejaVuSans-30" x="127.246094"/>
       <use xlink:href="#DejaVuSans-30" x="190.869141"/>
      </g>
     </g>
    </g>
    <g id="text_6">
     <!-- Date -->
     <g transform="translate(314.014844 383.234687)scale(0.1 -0.1)">
      <defs>
       <path id="DejaVuSans-44" d="M 1259 4147 
L 1259 519 
L 2022 519 
Q 2988 519 3436 956 
Q 3884 1394 3884 2338 
Q 3884 3275 3436 3711 
Q 2988 4147 2022 4147 
L 1259 4147 
z
M 628 4666 
L 1925 4666 
Q 3281 4666 3915 4102 
Q 4550 3538 4550 2338 
Q 4550 1131 3912 565 
Q 3275 0 1925 0 
L 628 0 
L 628 4666 
z
" transform="scale(0.015625)"/>
       <path id="DejaVuSans-61" d="M 2194 1759 
Q 1497 1759 1228 1600 
Q 959 1441 959 1056 
Q 959 750 1161 570 
Q 1363 391 1709 391 
Q 2188 391 2477 730 
Q 2766 1069 2766 1631 
L 2766 1759 
L 2194 1759 
z
M 3341 1997 
L 3341 0 
L 2766 0 
L 2766 531 
Q 2569 213 2275 61 
Q 1981 -91 1556 -91 
Q 1019 -91 701 211 
Q 384 513 384 1019 
Q 384 1609 779 1909 
Q 1175 2209 1959 2209 
L 2766 2209 
L 2766 2266 
Q 2766 2663 2505 2880 
Q 2244 3097 1772 3097 
Q 1472 3097 1187 3025 
Q 903 2953 641 2809 
L 641 3341 
Q 956 3463 1253 3523 
Q 1550 3584 1831 3584 
Q 2591 3584 2966 3190 
Q 3341 2797 3341 1997 
z
" transform="scale(0.015625)"/>
       <path id="DejaVuSans-74" d="M 1172 4494 
L 1172 3500 
L 2356 3500 
L 2356 3053 
L 1172 3053 
L 1172 1153 
Q 1172 725 1289 603 
Q 1406 481 1766 481 
L 2356 481 
L 2356 0 
L 1766 0 
Q 1100 0 847 248 
Q 594 497 594 1153 
L 594 3053 
L 172 3053 
L 172 3500 
L 594 3500 
L 594 4494 
L 1172 4494 
z
" transform="scale(0.015625)"/>
       <path id="DejaVuSans-65" d="M 3597 1894 
L 3597 1613 
L 953 1613 
Q 991 1019 1311 708 
Q 1631 397 2203 397 
Q 2534 397 2845 478 
Q 3156 559 3463 722 
L 3463 178 
Q 3153 47 2828 -22 
Q 2503 -91 2169 -91 
Q 1331 -91 842 396 
Q 353 884 353 1716 
Q 353 2575 817 3079 
Q 1281 3584 2069 3584 
Q 2775 3584 3186 3129 
Q 3597 2675 3597 1894 
z
M 3022 2063 
Q 3016 2534 2758 2815 
Q 2500 3097 2075 3097 
Q 1594 3097 1305 2825 
Q 1016 2553 972 2059 
L 3022 2063 
z
" transform="scale(0.015625)"/>
      </defs>
      <use xlink:href="#DejaVuSans-44"/>
      <use xlink:href="#DejaVuSans-61" x="77.001953"/>
      <use xlink:href="#DejaVuSans-74" x="138.28125"/>
      <use xlink:href="#DejaVuSans-65" x="177.490234"/>
     </g>
    </g>
   </g>
   <g id="matplotlib.axis_2">
    <g id="ytick_1">
     <g id="line2d_6">
      <path d="M 46.965625 322.537329 
L 604.965625 322.537329 
" clip-path="url(#p85c3140d79)" style="fill: none; stroke: #dcdcdc; stroke-width: 0.5; stroke-linecap: square"/>
     </g>
     <g id="line2d_7">
      <defs>
       <path id="m050192ab1a" d="M 0 0 
L -3.5 0 
" style="stroke: #000000; stroke-width: 0.8"/>
      </defs>
      <g>
       <use xlink:href="#m050192ab1a" x="46.965625" y="322.537329" style="stroke: #000000; stroke-width: 0.8"/>
      </g>
     </g>
     <g id="text_7">
      <!-- 60 -->
      <g transform="translate(27.240625 326.336548)scale(0.1 -0.1)">
       <defs>
        <path id="DejaVuSans-36" d="M 2113 2584 
Q 1688 2584 1439 2293 
Q 1191 2003 1191 1497 
Q 1191 994 1439 701 
Q 1688 409 2113 409 
Q 2538 409 2786 701 
Q 3034 994 3034 1497 
Q 3034 2003 2786 2293 
Q 2538 2584 2113 2584 
z
M 3366 4563 
L 3366 3988 
Q 3128 4100 2886 4159 
Q 2644 4219 2406 4219 
Q 1781 4219 1451 3797 
Q 1122 3375 1075 2522 
Q 1259 2794 1537 2939 
Q 1816 3084 2150 3084 
Q 2853 3084 3261 2657 
Q 3669 2231 3669 1497 
Q 3669 778 3244 343 
Q 2819 -91 2113 -91 
Q 1303 -91 875 529 
Q 447 1150 447 2328 
Q 447 3434 972 4092 
Q 1497 4750 2381 4750 
Q 2619 4750 2861 4703 
Q 3103 4656 3366 4563 
z
" transform="scale(0.015625)"/>
       </defs>
       <use xlink:href="#DejaVuSans-36"/>
       <use xlink:href="#DejaVuSans-30" x="63.623047"/>
      </g>
     </g>
    </g>
    <g id="ytick_2">
     <g id="line2d_8">
      <path d="M 46.965625 266.547697 
L 604.965625 266.547697 
" clip-path="url(#p85c3140d79)" style="fill: none; stroke: #dcdcdc; stroke-width: 0.5; stroke-linecap: square"/>
     </g>
     <g id="line2d_9">
      <g>
       <use xlink:href="#m050192ab1a" x="46.965625" y="266.547697" style="stroke: #000000; stroke-width: 0.8"/>
      </g>
     </g>
     <g id="text_8">
      <!-- 70 -->
      <g transform="translate(27.240625 270.346916)scale(0.1 -0.1)">
       <defs>
        <path id="DejaVuSans-37" d="M 525 4666 
L 3525 4666 
L 3525 4397 
L 1831 0 
L 1172 0 
L 2766 4134 
L 525 4134 
L 525 4666 
z
" transform="scale(0.015625)"/>
       </defs>
       <use xlink:href="#DejaVuSans-37"/>
       <use xlink:href="#DejaVuSans-30" x="63.623047"/>
      </g>
     </g>
    </g>
    <g id="ytick_3">
     <g id="line2d_10">
      <path d="M 46.965625 210.558066 
L 604.965625 210.558066 
" clip-path="url(#p85c3140d79)" style="fill: none; stroke: #dcdcdc; stroke-width: 0.5; stroke-linecap: square"/>
     </g>
     <g id="line2d_11">
      <g>
       <use xlink:href="#m050192ab1a" x="46.965625" y="210.558066" style="stroke: #000000; stroke-width: 0.8"/>
      </g>
     </g>
     <g id="text_9">
      <!-- 80 -->
      <g transform="translate(27.240625 214.357285)scale(0.1 -0.1)">
       <defs>
        <path id="DejaVuSans-38" d="M 2034 2216 
Q 1584 2216 1326 1975 
Q 1069 1734 1069 1313 
Q 1069 891 1326 650 
Q 1584 409 2034 409 
Q 2484 409 2743 651 
Q 3003 894 3003 1313 
Q 3003 1734 2745 1975 
Q 2488 2216 2034 2216 
z
M 1403 2484 
Q 997 2584 770 2862 
Q 544 3141 544 3541 
Q 544 4100 942 4425 
Q 1341 4750 2034 4750 
Q 2731 4750 3128 4425 
Q 3525 4100 3525 3541 
Q 3525 3141 3298 2862 
Q 3072 2584 2669 2484 
Q 3125 2378 3379 2068 
Q 3634 1759 3634 1313 
Q 3634 634 3220 271 
Q 2806 -91 2034 -91 
Q 1263 -91 848 271 
Q 434 634 434 1313 
Q 434 1759 690 2068 
Q 947 2378 1403 2484 
z
M 1172 3481 
Q 1172 3119 1398 2916 
Q 1625 2713 2034 2713 
Q 2441 2713 2670 2916 
Q 2900 3119 2900 3481 
Q 2900 3844 2670 4047 
Q 2441 4250 2034 4250 
Q 1625 4250 1398 4047 
Q 1172 3844 1172 3481 
z
" transform="scale(0.015625)"/>
       </defs>
       <use xlink:href="#DejaVuSans-38"/>
       <use xlink:href="#DejaVuSans-30" x="63.623047"/>
      </g>
     </g>
    </g>
    <g id="ytick_4">
     <g id="line2d_12">
      <path d="M 46.965625 154.568434 
L 604.965625 154.568434 
" clip-path="url(#p85c3140d79)" style="fill: none; stroke: #dcdcdc; stroke-width: 0.5; stroke-linecap: square"/>
     </g>
     <g id="line2d_13">
      <g>
       <use xlink:href="#m050192ab1a" x="46.965625" y="154.568434" style="stroke: #000000; stroke-width: 0.8"/>
      </g>
     </g>
     <g id="text_10">
      <!-- 90 -->
      <g transform="translate(27.240625 158.367653)scale(0.1 -0.1)">
       <defs>
        <path id="DejaVuSans-39" d="M 703 97 
L 703 672 
Q 941 559 1184 500 
Q 1428 441 1663 441 
Q 2288 441 2617 861 
Q 2947 1281 2994 2138 
Q 2813 1869 2534 1725 
Q 2256 1581 1919 1581 
Q 1219 1581 811 2004 
Q 403 2428 403 3163 
Q 403 3881 828 4315 
Q 1253 4750 1959 4750 
Q 2769 4750 3195 4129 
Q 3622 3509 3622 2328 
Q 3622 1225 3098 567 
Q 2575 -91 1691 -91 
Q 1453 -91 1209 -44 
Q 966 3 703 97 
z
M 1959 2075 
Q 2384 2075 2632 2365 
Q 2881 2656 2881 3163 
Q 2881 3666 2632 3958 
Q 2384 4250 1959 4250 
Q 1534 4250 1286 3958 
Q 1038 3666 1038 3163 
Q 1038 2656 1286 2365 
Q 1534 2075 1959 2075 
z
" transform="scale(0.015625)"/>
       </defs>
       <use xlink:href="#DejaVuSans-39"/>
       <use xlink:href="#DejaVuSans-30" x="63.623047"/>
      </g>
     </g>
    </g>
    <g id="ytick_5">
     <g id="line2d_14">
      <path d="M 46.965625 98.578803 
L 604.965625 98.578803 
" clip-path="url(#p85c3140d79)" style="fill: none; stroke: #dcdcdc; stroke-width: 0.5; stroke-linecap: square"/>
     </g>
     <g id="line2d_15">
      <g>
       <use xlink:href="#m050192ab1a" x="46.965625" y="98.578803" style="stroke: #000000; stroke-width: 0.8"/>
      </g>
     </g>
     <g id="text_11">
      <!-- 100 -->
      <g transform="translate(20.878125 102.378021)scale(0.1 -0.1)">
       <use xlink:href="#DejaVuSans-31"/>
       <use xlink:href="#DejaVuSans-30" x="63.623047"/>
       <use xlink:href="#DejaVuSans-30" x="127.246094"/>
      </g>
     </g>
    </g>
    <g id="ytick_6">
     <g id="line2d_16">
      <path d="M 46.965625 42.589171 
L 604.965625 42.589171 
" clip-path="url(#p85c3140d79)" style="fill: none; stroke: #dcdcdc; stroke-width: 0.5; stroke-linecap: square"/>
     </g>
     <g id="line2d_17">
      <g>
       <use xlink:href="#m050192ab1a" x="46.965625" y="42.589171" style="stroke: #000000; stroke-width: 0.8"/>
      </g>
     </g>
     <g id="text_12">
      <!-- 110 -->
      <g transform="translate(20.878125 46.38839)scale(0.1 -0.1)">
       <use xlink:href="#DejaVuSans-31"/>
       <use xlink:href="#DejaVuSans-31" x="63.623047"/>
       <use xlink:href="#DejaVuSans-30" x="127.246094"/>
      </g>
     </g>
    </g>
    <g id="text_13">
     <!-- Price (USD) -->
     <g transform="translate(14.798437 217.01)rotate(-90)scale(0.1 -0.1)">
      <defs>
       <path id="DejaVuSans-50" d="M 1259 4147 
L 1259 2394 
L 2053 2394 
Q 2494 2394 2734 2622 
Q 2975 2850 2975 3272 
Q 2975 3691 2734 3919 
Q 2494 4147 2053 4147 
L 1259 4147 
z
M 628 4666 
L 2053 4666 
Q 2838 4666 3239 4311 
Q 3641 3956 3641 3272 
Q 3641 2581 3239 2228 
Q 2838 1875 2053 1875 
L 1259 1875 
L 1259 0 
L 628 0 
L 628 4666 
z
" transform="scale(0.015625)"/>
       <path id="DejaVuSans-72" d="M 2631 2963 
Q 2534 3019 2420 3045 
Q 2306 3072 2169 3072 
Q 1681 3072 1420 2755 
Q 1159 2438 1159 1844 
L 1159 0 
L 581 0 
L 581 3500 
L 1159 3500 
L 1159 2956 
Q 1341 3275 1631 3429 
Q 1922 3584 2338 3584 
Q 2397 3584 2469 3576 
Q 2541 3569 2628 3553 
L 2631 2963 
z
" transform="scale(0.015625)"/>
       <path id="DejaVuSans-69" d="M 603 3500 
L 1178 3500 
L 1178 0 
L 603 0 
L 603 3500 
z
M 603 4863 
L 1178 4863 
L 1178 4134 
L 603 4134 
L 603 4863 
z
" transform="scale(0.015625)"/>
       <path id="DejaVuSans-63" d="M 3122 3366 
L 3122 2828 
Q 2878 2963 2633 3030 
Q 2388 3097 2138 3097 
Q 1578 3097 1268 2742 
Q 959 2388 959 1747 
Q 959 1106 1268 751 
Q 1578 397 2138 397 
Q 2388 397 2633 464 
Q 2878 531 3122 666 
L 3122 134 
Q 2881 22 2623 -34 
Q 2366 -91 2075 -91 
Q 1284 -91 818 406 
Q 353 903 353 1747 
Q 353 2603 823 3093 
Q 1294 3584 2113 3584 
Q 2378 3584 2631 3529 
Q 2884 3475 3122 3366 
z
" transform="scale(0.015625)"/>
       <path id="DejaVuSans-20" transform="scale(0.015625)"/>
       <path id="DejaVuSans-28" d="M 1984 4856 
Q 1566 4138 1362 3434 
Q 1159 2731 1159 2009 
Q 1159 1288 1364 580 
Q 1569 -128 1984 -844 
L 1484 -844 
Q 1016 -109 783 600 
Q 550 1309 550 2009 
Q 550 2706 781 3412 
Q 1013 4119 1484 4856 
L 1984 4856 
z
" transform="scale(0.015625)"/>
       <path id="DejaVuSans-55" d="M 556 4666 
L 1191 4666 
L 1191 1831 
Q 1191 1081 1462 751 
Q 1734 422 2344 422 
Q 2950 422 3222 751 
Q 3494 1081 3494 1831 
L 3494 4666 
L 4128 4666 
L 4128 1753 
Q 4128 841 3676 375 
Q 3225 -91 2344 -91 
Q 1459 -91 1007 375 
Q 556 841 556 1753 
L 556 4666 
z
" transform="scale(0.015625)"/>
       <path id="DejaVuSans-53" d="M 3425 4513 
L 3425 3897 
Q 3066 4069 2747 4153 
Q 2428 4238 2131 4238 
Q 1616 4238 1336 4038 
Q 1056 3838 1056 3469 
Q 1056 3159 1242 3001 
Q 1428 2844 1947 2747 
L 2328 2669 
Q 3034 2534 3370 2195 
Q 3706 1856 3706 1288 
Q 3706 609 3251 259 
Q 2797 -91 1919 -91 
Q 1588 -91 1214 -16 
Q 841 59 441 206 
L 441 856 
Q 825 641 1194 531 
Q 1563 422 1919 422 
Q 2459 422 2753 634 
Q 3047 847 3047 1241 
Q 3047 1584 2836 1778 
Q 2625 1972 2144 2069 
L 1759 2144 
Q 1053 2284 737 2584 
Q 422 2884 422 3419 
Q 422 4038 858 4394 
Q 1294 4750 2059 4750 
Q 2388 4750 2728 4690 
Q 3069 4631 3425 4513 
z
" transform="scale(0.015625)"/>
       <path id="DejaVuSans-29" d="M 513 4856 
L 1013 4856 
Q 1481 4119 1714 3412 
Q 1947 2706 1947 2009 
Q 1947 1309 1714 600 
Q 1481 -109 1013 -844 
L 513 -844 
Q 928 -128 1133 580 
Q 1338 1288 1338 2009 
Q 1338 2731 1133 3434 
Q 928 4138 513 4856 
z
" transform="scale(0.015625)"/>
      </defs>
      <use xlink:href="#DejaVuSans-50"/>
      <use xlink:href="#DejaVuSans-72" x="58.552734"/>
      <use xlink:href="#DejaVuSans-69" x="99.666016"/>
      <use xlink:href="#DejaVuSans-63" x="127.449219"/>
      <use xlink:href="#DejaVuSans-65" x="182.429688"/>
      <use xlink:href="#DejaVuSans-20" x="243.953125"/>
      <use xlink:href="#DejaVuSans-28" x="275.740234"/>
      <use xlink:href="#DejaVuSans-55" x="314.753906"/>
      <use xlink:href="#DejaVuSans-53" x="387.947266"/>
      <use xlink:href="#DejaVuSans-44" x="451.423828"/>
      <use xlink:href="#DejaVuSans-29" x="528.425781"/>
     </g>
    </g>
   </g>
   <g id="line2d_18">
    <path d="M 72.329261 269.067231 
L 72.56292 269.011241 
L 72.796578 265.651863 
M 76.301457 250.92659 
L 76.535115 251.542476 
M 77.002433 245.831534 
L 77.236091 243.535959 
L 77.46975 242.66252 
L 77.937067 245.383617 
L 78.404384 236.985172 
L 78.638042 240.34455 
M 86.816092 290.51126 
L 87.04975 285.528182 
L 87.283409 290.735218 
L 87.984385 271.306816 
L 88.218043 273.71437 
L 88.451702 274.554215 
L 88.68536 268.675303 
M 98.031703 294.822461 
L 98.265361 294.262565 
M 103.873167 288.775581 
L 104.106825 289.503446 
L 104.340484 287.823757 
L 104.574142 291.855011 
L 104.807801 291.799021 
M 117.191704 296.222202 
L 117.425363 295.942254 
M 117.89268 295.04642 
L 118.126339 297.006057 
L 118.359997 296.950067 
M 121.864875 287.37584 
L 122.098534 290.231311 
L 122.332193 287.151882 
L 122.565851 289.167508 
L 122.79951 283.568545 
L 123.033168 281.552919 
L 123.266827 287.543809 
L 123.500485 283.064639 
L 123.734144 283.848493 
L 124.668778 273.154474 
L 124.902437 272.930515 
L 125.136095 271.474785 
M 131.678535 271.194837 
L 131.912193 268.731293 
M 134.248779 261.50863 
L 134.482438 263.916185 
L 134.716096 261.56462 
M 135.183413 254.285968 
L 135.417072 256.637533 
L 135.65073 254.341958 
L 135.884389 253.446124 
L 136.118047 255.069823 
L 136.351706 253.390134 
L 136.585365 254.957844 
L 136.819023 251.822424 
L 137.052682 251.542476 
M 147.567317 238.216944 
L 147.800975 240.624498 
M 152.240488 239.112778 
L 152.474146 240.120591 
M 152.941464 241.520332 
L 153.175122 241.688301 
L 153.408781 241.464342 
L 153.876098 236.369286 
L 154.109756 237.041161 
M 161.119513 257.197429 
L 161.353172 258.989097 
L 161.58683 253.614092 
L 161.820489 254.173989 
L 162.054147 256.189615 
L 162.287806 255.853678 
L 162.521464 256.525553 
L 162.755123 254.00602 
L 162.988781 252.942217 
L 163.22244 256.133626 
L 163.456099 247.399243 
L 163.689757 247.399243 
L 164.157074 246.615388 
L 164.390733 239.952622 
L 164.624391 241.576322 
L 165.091708 240.400539 
L 165.559026 230.154437 
L 165.792684 230.042458 
M 169.76488 219.236459 
L 170.232197 215.373174 
L 170.465855 219.348438 
L 170.699514 217.892707 
M 174.438051 211.789838 
L 174.671709 212.405724 
L 174.905368 202.159621 
L 175.139026 198.968212 
L 175.372685 199.192171 
L 175.606344 197.79243 
L 176.073661 200.983839 
L 176.307319 199.360139 
L 176.540978 196.840606 
L 176.774636 197.176544 
L 177.008295 204.959103 
L 177.241953 198.128368 
L 177.475612 195.608834 
L 177.709271 191.017684 
L 177.942929 183.851012 
L 178.176588 182.059343 
M 205.748297 240.120591 
L 205.981956 240.28856 
L 206.215615 233.401835 
M 220.235128 236.929182 
L 220.468787 243.479969 
L 220.936104 235.529441 
L 221.169762 233.457825 
L 221.403421 230.378395 
M 241.965374 255.349771 
L 242.199032 252.550289 
L 242.432691 258.317221 
L 242.666349 253.726072 
L 242.900008 246.279451 
L 243.834642 232.114074 
L 244.068301 233.233867 
L 244.301959 233.737773 
L 244.535618 225.05938 
L 245.002935 228.978655 
M 258.087814 197.624461 
L 258.321473 202.775507 
L 258.555131 199.136181 
L 258.78879 199.080191 
M 259.256107 193.369249 
L 259.489766 192.473415 
L 259.723424 189.953881 
L 259.957083 190.009871 
M 261.826351 184.242939 
L 262.06001 184.13096 
L 262.293668 185.362732 
L 262.527327 180.883561 
M 262.994644 178.979914 
L 263.228302 178.308038 
L 263.461961 180.771582 
L 263.69562 181.499447 
L 263.929278 179.091893 
L 264.162937 183.291115 
L 264.396595 183.011167 
L 264.863912 167.110112 
M 287.996109 217.892707 
L 288.229768 216.604946 
L 288.463427 217.948697 
L 288.697085 210.222128 
M 299.679037 202.831497 
L 299.912696 197.400502 
L 300.146354 194.880969 
L 300.380013 195.664824 
L 300.613672 197.288523 
M 307.38977 199.30415 
L 307.623428 202.887486 
L 307.857087 199.528108 
L 308.090745 200.032015 
L 308.324404 204.175248 
L 309.259038 196.056751 
M 318.371722 195.664824 
L 318.60538 198.576285 
L 318.839039 198.296336 
M 324.680503 201.935662 
L 324.914161 199.360139 
L 325.14782 203.559362 
L 325.381479 204.063268 
L 325.615137 198.464305 
M 331.923918 198.296336 
L 332.157577 193.369249 
M 337.531724 196.616647 
L 337.765382 193.929145 
M 338.232699 197.344513 
L 338.466358 194.209093 
M 342.672212 194.713 
L 342.90587 196.056751 
L 343.139529 199.864046 
L 343.373187 197.79243 
L 343.606846 198.184357 
M 362.533189 247.511223 
L 362.766848 247.791171 
M 370.944897 240.008612 
L 371.178556 243.871897 
L 371.412214 244.207834 
L 371.645873 242.640125 
M 375.150751 230.994281 
L 375.38441 232.282043 
L 375.618068 234.409649 
L 375.851727 233.849752 
L 376.085385 228.810686 
L 376.319044 228.1948 
M 379.823922 216.213019 
L 380.057581 212.013796 
L 380.29124 212.293744 
L 380.524898 216.269008 
L 380.758557 216.716925 
M 387.067338 207.534626 
L 387.300996 207.254677 
M 411.134169 256.805501 
L 411.367828 243.36799 
L 411.601486 243.423979 
L 412.068803 240.960436 
L 412.302462 250.030756 
L 412.53612 247.175285 
L 413.003437 238.272933 
L 413.237096 229.59454 
L 413.470755 230.210426 
L 413.704413 224.387505 
L 413.938072 223.155733 
L 414.17173 224.611463 
L 414.639047 217.388801 
L 415.106365 213.749475 
L 415.340023 215.093226 
L 415.573682 215.037236 
L 415.80734 213.525516 
L 416.274657 203.559362 
L 416.508316 199.976025 
M 422.34978 188.442161 
L 422.583438 189.449975 
L 422.817097 188.946068 
M 435.668318 170.301521 
L 435.901976 176.796318 
L 436.602952 170.805427 
L 436.83661 172.989023 
M 456.230271 141.298892 
L 456.463929 143.482487 
L 456.697588 138.49941 
M 471.885394 147.009834 
L 472.119052 145.442124 
L 472.352711 145.722072 
M 474.689297 124.054085 
L 474.922955 126.629608 
L 475.156614 124.502002 
M 475.623931 126.069712 
L 475.857589 132.564509 
L 476.091248 130.82883 
M 483.80198 324.328997 
L 484.035639 339.838125 
L 484.269297 311.171434 
M 492.213688 263.524257 
L 492.447347 273.098484 
L 492.681005 271.754733 
L 492.914664 273.266453 
L 493.148323 250.478673 
L 493.381981 255.965657 
L 493.61564 252.382321 
M 503.19564 223.267712 
L 503.429299 222.203909 
M 519.551739 222.09193 
L 519.785398 232.506001 
L 520.019057 226.795059 
L 520.252715 229.65053 
L 520.486374 219.404428 
M 530.300033 198.408316 
L 530.533692 197.73644 
M 531.468326 199.528108 
L 531.701984 198.464305 
M 533.103936 179.371841 
L 533.337594 178.252048 
M 534.505887 182.787209 
L 534.739546 171.92522 
L 534.973204 169.013759 
L 535.206863 170.245531 
M 542.450278 151.824942 
L 542.683937 148.241606 
L 542.917595 148.969471 
L 543.151254 151.824942 
L 543.384912 149.641347 
L 543.618571 138.667379 
L 543.852229 141.690819 
L 544.085888 141.018943 
L 544.319547 144.154363 
L 544.553205 134.804094 
L 545.020522 131.444716 
L 545.254181 131.052789 
L 545.487839 133.012426 
L 545.721498 133.628312 
L 546.188815 127.91737 
L 546.422474 130.716851 
M 550.861986 114.423868 
L 551.095645 128.197318 
L 551.562962 114.927775 
L 551.79662 114.367879 
L 552.030279 114.255899 
L 552.263937 115.991578 
L 552.497596 109.888708 
L 552.731255 110.448605 
L 552.964913 103.617869 
L 553.198572 103.785838 
L 553.43223 101.322295 
L 553.665889 102.610056 
M 565.582475 68.736329 
L 565.816134 65.264972 
L 566.049792 63.97721 
L 566.283451 60.729812 
L 566.517109 61.457677 
M 573.994183 88.612648 
L 574.227842 80.550141 
L 574.4615 80.438162 
L 574.695159 84.413426 
L 574.928817 78.926442 
L 575.162476 77.358732 
L 575.396135 82.845716 
L 575.629793 81.389986 
L 576.09711 69.576174 
L 576.330769 62.409501 
L 576.330769 62.409501 
" clip-path="url(#p85c3140d79)" style="fill: none; stroke: #00ff7f; stroke-linecap: square"/>
   </g>
   <g id="line2d_19">
    <path d="M 79.806335 231.16225 
L 80.039994 233.961732 
L 80.740969 228.810686 
L 80.974628 224.555474 
L 81.208287 226.795059 
L 81.441945 224.387505 
L 81.675604 223.379691 
L 81.909262 220.916148 
L 82.376579 239.560695 
M 90.554629 258.373211 
L 90.788287 258.093263 
L 91.021946 256.637533 
L 91.255604 253.222165 
L 91.489263 253.502113 
L 91.722922 252.270341 
L 91.95658 252.718258 
L 92.190239 260.612796 
L 92.657556 259.660973 
L 92.891214 262.628423 
L 93.124873 263.804205 
L 93.358531 270.243013 
L 93.825849 273.658381 
M 94.994141 272.762546 
L 95.2278 275.506038 
L 95.461459 280.769064 
M 101.302922 270.578951 
L 101.536581 270.914889 
M 106.910728 266.09978 
L 107.144386 265.371915 
L 107.378045 265.483894 
L 107.611703 260.668786 
L 108.546338 271.418795 
L 108.779996 269.403169 
L 109.013655 268.675303 
L 109.247313 275.058121 
L 109.480972 275.618018 
M 155.979025 228.754696 
L 156.212683 229.70652 
M 156.913659 228.642717 
L 157.147318 226.347142 
L 157.380976 226.291152 
L 157.614635 225.17136 
L 157.848293 226.795059 
L 158.081952 222.203909 
L 158.31561 222.651826 
L 158.549269 225.339328 
L 158.782927 232.170064 
L 159.016586 231.834126 
M 189.625857 171.197355 
L 189.859516 171.813241 
M 192.42976 186.314555 
L 192.663418 196.112741 
L 192.897077 196.448679 
M 193.364394 196.056751 
L 193.598052 199.528108 
L 193.831711 198.352326 
M 198.738541 204.455196 
L 199.439516 207.590615 
M 211.589761 216.660936 
L 211.82342 219.572396 
M 213.692688 207.702595 
L 213.926347 206.470823 
L 214.160005 209.158325 
M 235.422934 206.582802 
L 235.656593 208.150512 
M 269.770742 140.850974 
L 270.004401 139.731182 
M 278.416109 172.989023 
L 278.649767 164.31063 
L 279.117084 161.623128 
L 279.350743 166.886153 
L 279.584401 162.8549 
M 282.154646 191.241643 
L 282.388304 193.313259 
L 282.621963 192.305446 
M 302.48294 189.449975 
L 302.716599 183.459084 
L 302.950257 185.026794 
M 303.417574 180.323665 
L 303.651233 177.804131 
L 303.884891 181.10752 
L 304.11855 182.56325 
L 304.352208 185.138773 
M 311.595624 180.939551 
L 311.829282 179.651789 
L 312.062941 180.323665 
L 312.296599 180.267675 
L 312.530258 182.003354 
M 312.997575 185.306742 
L 313.231234 188.834089 
M 321.8766 182.843198 
L 322.110259 183.962991 
M 340.569285 187.994244 
L 340.802943 184.970804 
M 351.551237 178.979914 
L 352.018554 194.601021 
M 352.485871 200.311963 
L 353.186847 194.041124 
L 353.420505 193.873156 
M 356.925384 207.590615 
L 357.159042 209.94218 
L 357.392701 210.726035 
M 393.376119 190.793726 
L 393.609777 189.449975 
L 393.843436 194.545031 
M 394.77807 190.009871 
L 395.011729 192.977321 
L 395.245387 191.465601 
M 395.946363 194.824979 
L 396.180021 194.992948 
L 396.41368 209.606242 
M 407.395632 203.78332 
L 407.862949 197.008575 
L 408.096608 203.83931 
L 408.330266 192.585394 
L 408.563925 198.688264 
L 408.797583 201.655714 
L 409.031242 201.431756 
L 409.264901 208.486449 
M 459.267832 129.205131 
L 459.50149 125.173878 
L 459.735149 126.741587 
L 459.968807 125.565805 
L 460.202466 126.909556 
M 478.895151 102.610056 
L 479.128809 100.986357 
M 480.53076 148.633533 
L 480.764419 149.809316 
L 480.998078 130.604872 
M 516.514178 191.801539 
L 516.747837 193.649197 
L 516.981495 191.465601 
M 569.554671 37.550104 
L 569.788329 37.438125 
L 570.021988 44.436829 
L 570.255646 41.357399 
L 570.722963 62.745438 
M 571.423939 57.874341 
" clip-path="url(#p85c3140d79)" style="fill: none; stroke: #ff4500; stroke-linecap: square"/>
   </g>
   <g id="line2d_20">
    <path d="M 73.030237 264.923998 
L 73.731213 261.172693 
M 74.19853 256.133626 
L 74.432188 253.95003 
L 74.665847 250.702632 
L 74.899505 250.646642 
L 75.366823 245.719554 
L 75.600481 244.711741 
M 78.871701 237.601058 
L 79.339018 233.737773 
L 79.572677 231.386209 
M 82.610238 240.624498 
L 82.843896 244.207834 
L 83.077555 252.998206 
L 83.544872 262.180506 
L 83.778531 259.940921 
L 84.245848 268.731293 
L 84.479506 262.460454 
L 84.713165 262.404465 
L 84.946823 265.819832 
L 85.414141 276.905779 
L 85.647799 266.995614 
L 86.348775 262.404465 
L 86.582433 274.554215 
M 88.919019 271.250826 
L 89.152677 273.098484 
L 89.386336 272.706557 
L 89.619995 267.219573 
L 89.853653 267.051604 
M 94.059507 273.938329 
L 94.526824 276.289893 
L 94.760483 276.121924 
M 95.695117 282.224794 
L 96.396093 302.940958 
L 96.629751 294.878451 
L 96.86341 295.718295 
L 97.097068 293.5347 
L 97.330727 289.727405 
L 97.564386 290.791208 
L 97.798044 292.582876 
M 98.49902 297.341995 
L 98.732678 300.477414 
L 98.966337 297.397984 
L 99.199995 301.205279 
L 99.667313 288.103705 
L 99.900971 288.383654 
L 100.13463 285.416203 
L 100.368288 287.823757 
L 100.601947 286.759954 
L 100.835605 283.064639 
L 101.069264 283.288597 
M 101.77024 277.241717 
L 102.003898 283.288597 
L 102.237557 286.144068 
L 102.471215 284.912296 
L 102.704874 282.616722 
L 102.938532 284.184431 
M 103.405849 282.78469 
L 103.639508 282.224794 
M 105.041459 282.448753 
L 105.275118 278.697447 
L 105.508776 278.473489 
L 105.742435 279.87323 
L 106.209752 266.939625 
L 106.443411 267.331552 
L 106.677069 269.683117 
M 109.71463 280.377136 
L 109.948289 285.472193 
L 110.181948 285.080265 
L 110.415606 286.759954 
L 111.116582 280.321147 
L 111.583899 285.304224 
L 111.817557 289.839384 
L 112.051216 286.983913 
L 112.752192 291.463083 
L 112.98585 288.327664 
L 113.453167 293.870637 
L 113.686826 294.598503 
L 114.154143 291.96699 
L 114.62146 287.543809 
L 114.855119 288.495633 
L 115.088777 297.006057 
L 115.322436 299.021684 
L 115.789753 296.894078 
L 116.023412 295.214389 
L 116.25707 288.775581 
L 116.490729 293.870637 
L 116.724387 291.631052 
L 116.958046 290.903187 
M 118.593656 294.93444 
L 119.060973 291.463083 
L 119.294631 293.254752 
L 119.52829 293.254752 
L 119.761948 288.271674 
L 119.995607 290.735218 
L 120.462924 285.248234 
L 120.696583 284.576359 
L 120.930241 286.759954 
L 121.1639 283.400576 
L 121.397558 281.776877 
L 121.631217 282.672711 
M 125.369754 269.963065 
L 125.603412 268.059417 
L 125.837071 268.283376 
L 126.070729 269.12322 
L 127.005364 265.035977 
L 127.239022 266.09978 
L 127.472681 262.460454 
L 127.706339 262.236496 
L 127.939998 256.525553 
L 128.173656 257.02946 
L 128.874632 266.771656 
L 129.108291 264.308112 
L 129.341949 263.13233 
L 129.575608 264.979988 
L 130.276584 261.956548 
M 130.743901 268.787283 
L 130.977559 265.203946 
L 131.211218 267.779469 
L 131.444876 266.771656 
M 132.145852 266.379728 
L 132.613169 261.284672 
L 132.846828 260.948734 
L 133.080486 261.788579 
L 133.547803 259.157066 
L 133.781462 256.693522 
L 134.01512 257.701336 
M 137.28634 250.086746 
L 137.519999 248.351067 
L 137.753657 248.463046 
L 137.987316 247.623202 
L 138.220974 249.078932 
L 138.454633 244.151845 
L 138.688292 243.200021 
L 138.92195 242.920073 
L 139.155609 241.632311 
L 139.389267 244.319814 
L 139.622926 244.151845 
M 140.090243 240.568508 
L 141.024877 247.007316 
L 141.492194 240.400539 
L 141.725853 243.032052 
L 141.959511 242.192208 
L 142.426828 239.000799 
L 142.660487 239.224757 
L 142.894146 238.384913 
L 143.127804 230.658343 
L 143.361463 232.450012 
L 143.82878 240.736477 
L 144.296097 242.920073 
L 144.529755 241.85627 
L 144.763414 243.983876 
L 144.997073 242.920073 
L 145.698048 235.081524 
L 145.931707 236.817203 
L 146.165365 240.400539 
M 146.632682 241.632311 
L 146.866341 238.440902 
L 147.1 239.448716 
L 147.333658 237.20913 
M 148.034634 239.392726 
L 148.73561 235.585431 
L 148.969268 235.529441 
L 149.202927 233.457825 
L 149.436585 233.177877 
L 149.670244 231.834126 
L 149.903902 234.017721 
M 150.371219 231.386209 
L 150.838537 229.258603 
L 151.072195 229.818499 
L 151.305854 232.785949 
L 151.539512 229.818499 
L 151.773171 231.890115 
L 152.006829 232.785949 
M 154.343415 230.938292 
L 154.577073 231.21824 
M 155.044391 227.466934 
L 155.278049 226.5711 
L 155.511708 224.611463 
L 155.745366 225.283339 
M 156.446342 228.866675 
L 156.68 228.586727 
M 159.250245 244.9357 
L 159.483903 246.951326 
L 159.717562 242.920073 
M 160.184879 246.671378 
L 160.418537 246.167471 
L 160.885854 252.382321 
M 166.026343 226.739069 
L 166.260001 227.075007 
L 166.727318 221.979951 
L 166.960977 224.443494 
L 167.194636 221.700002 
L 167.661953 212.349734 
L 167.895611 211.621869 
L 168.12927 212.573692 
L 168.362928 215.98906 
L 168.596587 216.548956 
L 168.830245 212.90963 
L 169.063904 214.645309 
L 169.297563 218.004687 
L 169.531221 215.597133 
M 170.933172 215.149216 
L 171.166831 213.581506 
L 171.40049 212.797651 
L 171.634148 208.486449 
L 171.867807 207.366657 
L 172.101465 208.486449 
L 172.335124 205.686968 
L 172.568782 206.134885 
L 172.802441 204.959103 
L 173.036099 207.254677 
L 173.503417 202.32759 
L 173.737075 202.775507 
L 173.970734 201.935662 
L 174.204392 205.910926 
M 178.410246 181.835385 
L 178.643905 178.196059 
L 178.877563 178.923924 
L 179.111222 174.780691 
L 179.34488 173.660899 
L 179.578539 169.461676 
L 179.812198 173.324961 
L 180.045856 173.660899 
L 180.279515 165.038495 
L 180.513173 166.438236 
L 180.746832 162.295003 
L 180.98049 162.127034 
L 181.214149 165.430423 
L 181.447807 163.694744 
L 181.681466 173.884857 
L 181.915125 175.172619 
L 182.148783 170.973396 
L 182.382442 172.989023 
M 182.849759 181.443457 
L 183.083417 184.802835 
L 183.317076 183.291115 
L 183.550735 184.690856 
L 183.784393 179.035903 
L 184.018052 182.227312 
L 184.25171 183.403094 
L 184.485369 178.979914 
L 184.719027 189.282006 
L 185.186344 180.939551 
L 185.420003 190.345809 
L 185.653662 190.233829 
L 185.88732 195.328886 
L 186.354637 189.002058 
L 186.588296 189.897892 
L 186.821954 194.377062 
L 187.055613 193.033311 
L 187.289271 208.486449 
L 187.52293 204.903113 
L 187.756589 205.239051 
L 187.990247 204.847123 
L 188.223906 196.952585 
L 188.457564 197.232533 
L 188.691223 192.473415 
L 188.924881 192.641384 
L 189.15854 182.899188 
L 189.392198 183.123146 
M 190.093174 175.956473 
L 190.326833 187.09841 
L 190.560491 189.561954 
L 190.79415 188.946068 
M 191.261467 186.426535 
L 191.495125 187.09841 
L 191.728784 183.515074 
M 194.06537 200.479932 
L 194.532687 199.024202 
L 195.233662 195.888782 
L 195.700979 197.400502 
L 196.168297 214.029423 
L 196.401955 210.670045 
L 196.635614 210.222128 
L 196.869272 219.964324 
L 197.102931 220.804168 
L 197.570248 207.870563 
L 197.803906 214.645309 
L 198.037565 213.301558 
L 198.271224 217.55677 
L 198.504882 209.046346 
M 199.673175 209.718221 
L 199.906833 210.278118 
L 200.140492 213.693485 
L 200.374151 209.326294 
L 200.607809 210.222128 
L 200.841468 215.373174 
L 201.075126 209.94218 
L 201.308785 214.085413 
L 201.542443 220.468231 
L 201.776102 221.308075 
L 202.009761 226.179173 
L 202.243419 226.963028 
L 202.477078 230.098447 
L 202.944395 224.443494 
L 203.178053 224.835422 
L 203.411712 227.186986 
L 203.879029 220.020313 
L 204.112688 213.973433 
L 205.514639 233.513815 
M 206.449273 232.338032 
L 206.682932 229.65053 
L 206.91659 222.931774 
L 207.383907 226.68308 
L 207.617566 223.099743 
L 208.084883 221.588023 
L 208.318542 220.860158 
L 208.5522 217.332811 
L 208.785859 218.900521 
L 209.019517 218.396614 
L 209.253176 219.628386 
L 209.486834 217.724739 
L 209.720493 223.211722 
L 209.954151 221.364065 
L 210.18781 220.58021 
L 210.421469 220.300262 
L 210.655127 217.44479 
L 210.888786 219.628386 
L 211.356103 213.413537 
M 212.057078 218.95651 
L 212.290737 217.332811 
L 212.524396 218.732552 
L 212.758054 215.821091 
M 213.225371 213.917444 
L 213.45903 211.509889 
M 214.393664 212.461713 
L 214.627323 220.748179 
L 215.09464 252.718258 
L 215.561957 233.681784 
L 215.795615 234.29767 
L 216.262932 251.878414 
L 216.496591 247.679191 
L 216.73025 246.559399 
L 216.963908 254.229978 
L 217.197567 248.127109 
L 217.431225 252.830238 
L 217.664884 251.934403 
L 217.898542 244.151845 
L 218.132201 243.927886 
L 218.833177 230.546364 
L 219.066835 231.274229 
L 219.300494 227.634903 
M 219.767811 234.633607 
L 220.001469 238.608871 
M 221.637079 223.155733 
L 221.870738 224.163546 
L 222.338055 215.485153 
L 222.571714 216.213019 
L 222.805372 213.077599 
L 223.272689 219.852345 
L 223.973665 204.231237 
M 224.440982 206.078895 
L 224.674641 202.103631 
L 224.908299 206.526812 
M 225.375616 206.80676 
L 225.609275 206.414833 
L 225.842933 207.030719 
L 226.076592 211.173952 
L 226.31025 201.655714 
L 226.543909 206.246864 
L 226.777568 208.262491 
L 227.011226 206.470823 
L 227.478543 228.026831 
L 227.712202 223.099743 
L 227.94586 222.595837 
L 228.179519 225.563287 
L 228.413177 230.490375 
L 228.646836 225.563287 
L 228.880495 225.563287 
L 229.114153 221.755992 
L 229.347812 220.412241 
L 229.58147 214.925257 
L 229.815129 213.973433 
L 230.048787 216.324998 
L 230.282446 214.53333 
L 230.516104 210.670045 
L 230.749763 213.973433 
L 230.983422 207.814574 
L 231.450739 223.939588 
L 231.684397 215.653122 
L 231.918056 216.884894 
L 232.151714 217.276822 
L 232.85269 223.65964 
L 233.086349 221.644013 
L 233.320007 216.884894 
L 233.553666 208.262491 
L 233.787324 210.502076 
L 234.020983 215.709112 
L 234.4883 212.181765 
L 234.721958 213.805464 
L 234.955617 213.805464 
L 235.189276 211.341921 
M 235.890251 212.069786 
L 236.12391 217.44479 
L 236.357568 208.934366 
L 236.591227 210.166138 
L 237.058544 224.779432 
L 237.292203 222.315888 
L 237.525861 225.227349 
L 237.75952 231.442198 
L 237.993178 232.450012 
L 238.226837 235.361473 
L 238.460495 233.121887 
L 238.694154 244.543772 
L 238.927813 242.248197 
L 239.161471 230.658343 
L 239.39513 233.345846 
L 239.628788 224.443494 
L 239.862447 232.841939 
L 240.096105 236.089338 
L 240.329764 227.410945 
L 240.563422 226.68308 
L 240.797081 230.602354 
L 241.03074 227.746883 
L 241.264398 227.522924 
L 241.498057 235.69741 
L 241.731715 247.791171 
M 245.236594 216.884894 
L 245.703911 211.341921 
L 245.937569 211.285931 
L 246.171228 210.110149 
M 247.105862 203.8953 
L 247.339521 203.83931 
L 247.573179 203.615351 
L 248.040496 191.63357 
L 248.274155 193.649197 
L 248.507813 202.943476 
L 248.741472 202.943476 
L 248.97513 205.40702 
L 249.208789 205.239051 
L 249.442448 201.151808 
L 249.676106 191.241643 
L 249.909765 192.137477 
L 250.143423 189.282006 
L 250.61074 190.569767 
L 250.844399 193.649197 
L 251.078057 192.529404 
L 251.311716 195.440865 
L 251.545375 192.865342 
L 251.779033 193.817166 
L 252.012692 190.457788 
L 252.480009 195.104927 
L 252.947326 189.393985 
L 253.180984 189.170026 
M 253.648302 205.35103 
L 254.115619 196.616647 
L 254.349277 194.824979 
L 254.582936 195.104927 
L 254.816594 196.056751 
L 255.050253 200.311963 
L 255.283912 193.20128 
L 255.51757 192.473415 
L 255.751229 185.810649 
L 255.984887 184.466897 
L 256.452204 173.996836 
L 256.685863 174.052826 
L 256.919521 184.410908 
L 257.15318 181.667416 
L 257.386839 185.922628 
L 257.620497 181.443457 
L 257.854156 190.289819 
M 260.190741 189.617944 
L 260.658058 185.306742 
L 260.891717 188.946068 
L 261.359034 183.067157 
L 261.592693 182.003354 
M 265.564888 156.360102 
L 265.798547 158.543698 
L 266.032205 163.694744 
L 266.265864 155.688227 
L 266.499522 152.328849 
L 266.733181 152.384839 
L 266.966839 149.585357 
L 267.200498 154.120517 
L 267.434156 153.952548 
L 267.667815 152.608797 
L 267.901474 150.145253 
L 268.135132 150.089264 
L 268.368791 149.08145 
L 268.602449 144.60228 
L 268.836108 145.554104 
L 269.069766 148.073637 
L 269.303425 152.048901 
L 269.537083 147.345772 
M 270.238059 148.017647 
L 270.705376 153.056714 
L 270.939035 152.720776 
L 271.172693 151.824942 
L 271.406352 149.08145 
L 271.64001 149.641347 
L 271.873669 155.408279 
L 272.107328 153.280673 
L 272.340986 153.784579 
L 272.574645 159.83146 
L 272.808303 157.815833 
L 273.041962 159.663491 
L 273.27562 162.8549 
L 273.509279 160.167397 
L 273.742938 159.887449 
L 273.976596 162.071045 
L 274.210255 159.83146 
L 274.443913 164.758547 
L 274.677572 159.887449 
L 274.91123 160.839273 
L 275.144889 160.335366 
L 275.378547 161.567138 
L 276.079523 150.369212 
L 276.313182 156.584061 
L 276.54684 176.46038 
L 276.780499 170.749438 
L 277.014157 186.258566 
L 277.481474 182.955177 
L 277.715133 182.731219 
L 277.948792 178.420017 
L 278.18245 179.147882 
M 279.81806 169.461676 
L 280.051719 172.821054 
L 280.752694 197.904409 
L 280.986353 197.73644 
L 281.220011 198.520295 
L 281.45367 195.664824 
L 281.687328 200.143994 
L 281.920987 194.880969 
M 282.855621 189.337995 
L 283.08928 188.330182 
L 283.322938 189.393985 
L 283.556597 191.129664 
L 283.790255 190.065861 
L 284.023914 190.905705 
L 284.257573 197.008575 
L 284.491231 209.102335 
L 284.72489 208.038532 
L 284.958548 200.703891 
L 285.425865 217.220832 
L 285.659524 220.636199 
L 285.893182 217.164842 
L 286.126841 209.438273 
L 286.3605 207.086709 
L 286.827817 221.364065 
L 287.061475 218.732552 
L 287.295134 208.31848 
L 287.528792 212.069786 
L 287.762451 213.357547 
M 288.930744 212.125775 
L 289.398061 207.478636 
L 289.631719 203.167434 
L 290.099036 214.981247 
L 290.566354 207.254677 
L 290.800012 204.343217 
L 291.033671 195.272896 
L 291.267329 192.081487 
L 291.500988 192.585394 
L 291.734646 189.505964 
L 291.968305 189.729923 
L 292.201964 199.976025 
L 292.435622 202.663528 
L 292.902939 190.849715 
L 293.136598 189.785912 
L 293.603915 207.142698 
L 294.071232 205.015092 
L 294.304891 207.758584 
L 294.772208 196.392689 
L 295.005866 194.880969 
L 295.239525 188.106224 
L 295.473183 186.594503 
L 295.706842 186.538514 
L 296.407818 197.624461 
L 296.641476 195.272896 
L 296.875135 195.944772 
L 297.108793 192.361435 
L 297.342452 191.577581 
L 297.57611 196.336699 
L 298.043427 189.058047 
L 298.277086 188.946068 
L 298.510745 192.025498 
L 298.744403 192.921332 
L 299.21172 200.591911 
L 299.445379 197.288523 
M 300.84733 193.649197 
L 301.080989 192.529404 
L 301.314647 189.226016 
L 301.548306 189.058047 
L 302.015623 193.089301 
L 302.249281 190.345809 
M 304.585867 186.986431 
L 305.053184 191.353622 
L 305.520501 206.86275 
L 305.75416 208.262491 
L 305.987818 207.142698 
L 306.221477 207.254677 
L 306.455135 198.128368 
L 306.688794 199.024202 
L 306.922453 196.896596 
L 307.156111 197.68549 
M 309.492697 194.713 
L 309.726355 194.713 
L 309.960014 194.041124 
L 310.193672 191.577581 
L 310.427331 190.905705 
L 310.894648 184.746846 
L 311.361965 186.650493 
M 313.464892 190.065861 
L 313.698551 194.936959 
L 313.932209 192.193467 
L 314.165868 192.977321 
L 314.399526 199.192171 
L 314.633185 201.431756 
L 314.866844 197.120554 
L 315.334161 202.831497 
L 315.567819 199.24816 
L 316.035136 203.391393 
L 316.268795 202.047642 
L 316.502453 205.127071 
L 316.969771 200.75988 
L 317.437088 196.504668 
L 317.670746 196.112741 
L 317.904405 192.361435 
L 318.138063 192.305446 
M 319.072698 195.888782 
L 319.306356 191.129664 
L 319.540015 193.14529 
M 320.007332 192.137477 
L 320.24099 193.25727 
L 320.941966 184.746846 
L 321.175625 184.07497 
M 322.343917 184.914815 
L 322.577576 184.466897 
L 322.811234 187.322369 
L 323.044893 183.962991 
L 323.278552 188.218203 
L 323.51221 187.09841 
L 323.745869 192.473415 
L 323.979527 192.473415 
L 324.213186 186.538514 
L 324.446844 193.20128 
M 325.848796 197.73644 
L 326.316113 189.561954 
L 326.549771 190.569767 
L 326.78343 187.042421 
L 327.017089 189.226016 
L 327.250747 189.561954 
L 327.484406 190.457788 
L 327.718064 189.841902 
L 327.951723 186.594503 
L 328.185381 186.034607 
L 328.41904 187.322369 
L 328.652698 186.706483 
L 328.886357 184.578877 
L 329.120016 188.890078 
L 329.353674 189.841902 
L 329.587333 188.274192 
L 329.820991 188.778099 
L 330.755625 198.800243 
L 330.989284 191.129664 
L 331.222943 192.529404 
L 331.456601 190.681747 
L 331.69026 193.593207 
M 332.391235 194.713 
L 332.624894 189.953881 
L 332.858552 191.409612 
L 333.092211 189.170026 
L 333.32587 192.753363 
L 333.559528 193.25727 
L 334.260504 186.314555 
L 334.494162 187.602317 
L 334.727821 186.370545 
L 334.961479 183.347105 
L 335.195138 182.955177 
L 335.428797 178.587986 
L 335.662455 184.242939 
L 335.896114 185.474711 
L 336.129772 181.555437 
L 336.363431 180.659603 
L 337.064406 187.658306 
L 337.298065 188.554141 
M 338.700016 193.25727 
L 339.167333 194.601021 
L 339.634651 190.569767 
L 339.868309 192.081487 
L 340.335626 189.561954 
M 341.036602 183.739032 
L 341.27026 186.090597 
L 341.503919 185.5307 
L 341.737578 186.034607 
L 341.971236 187.434348 
L 342.438553 191.913518 
M 343.840505 198.240347 
L 344.074163 196.000762 
L 344.307822 192.081487 
L 344.54148 193.25727 
L 345.242456 183.962991 
L 345.709773 182.955177 
L 345.943432 180.547623 
L 346.17709 181.555437 
L 346.410749 186.370545 
L 346.644407 182.451271 
L 347.111724 185.922628 
L 347.345383 182.395281 
L 347.579042 183.459084 
L 347.8127 182.843198 
L 348.280017 186.874452 
L 348.513676 186.706483 
L 348.747334 185.978618 
M 349.214651 187.210389 
L 349.44831 191.129664 
L 349.681969 191.577581 
L 349.915627 190.401798 
L 350.149286 187.994244 
L 350.382944 188.050234 
L 350.616603 185.754659 
L 350.850261 184.970804 
L 351.08392 185.082783 
L 351.317578 182.115333 
M 353.654164 195.608834 
L 353.887823 196.952585 
L 354.121481 204.903113 
L 354.35514 204.679154 
L 354.588798 202.32759 
L 355.056115 213.245568 
L 355.289774 214.757288 
L 355.523432 218.340625 
L 355.757091 217.50078 
L 355.99075 214.42135 
L 356.224408 220.132293 
M 357.626359 212.293744 
L 358.093677 221.476044 
M 358.560994 223.211722 
L 358.794652 226.907038 
L 359.028311 239.728664 
L 359.261969 239.672674 
L 359.495628 241.464342 
L 359.729286 253.446124 
L 359.962945 243.312 
L 360.196604 243.144031 
L 360.430262 240.23257 
L 360.663921 243.256011 
L 361.131238 236.929182 
L 361.364896 241.912259 
M 361.832214 245.495596 
L 362.065872 238.888819 
L 362.299531 237.713037 
M 363.000506 247.399243 
L 363.234165 247.567212 
L 363.467823 242.920073 
L 364.636116 233.457825 
L 365.103433 232.67397 
L 365.337092 232.785949 
L 365.57075 229.818499 
L 365.804409 233.513815 
L 366.038068 234.969545 
L 366.505385 240.568508 
L 366.739043 248.015129 
L 366.972702 247.343254 
L 367.20636 245.775544 
L 367.440019 235.417462 
L 367.673677 235.921369 
L 367.907336 241.632311 
L 368.374653 233.681784 
L 368.608312 233.849752 
L 368.84197 237.041161 
L 369.075629 238.384913 
L 369.309287 238.83283 
L 369.542946 237.936996 
L 369.776604 242.640125 
L 370.243922 237.881006 
L 370.47758 232.953918 
L 370.711239 233.849752 
M 371.879531 243.423979 
L 372.346849 230.770323 
L 372.580507 232.450012 
L 372.814166 228.586727 
L 373.047824 230.154437 
L 373.281483 230.434385 
L 373.7488 222.819795 
L 373.982458 225.003391 
L 374.449776 218.676562 
L 374.683434 220.188282 
L 374.917093 223.939588 
M 376.552703 223.883598 
L 376.786361 224.779432 
L 377.253678 221.196096 
L 377.487337 215.261195 
L 377.720995 216.772915 
L 377.954654 214.813278 
L 378.188312 210.949993 
L 378.421971 212.125775 
L 378.65563 211.061972 
L 378.889288 211.061972 
L 379.122947 209.438273 
L 379.356605 210.110149 
L 379.590264 207.422646 
M 380.992215 211.789838 
L 381.225874 209.662232 
L 381.459532 206.134885 
L 381.693191 207.310667 
L 381.926849 205.854937 
L 382.160508 207.590615 
L 382.394167 203.559362 
L 382.627825 202.439569 
L 382.861484 204.959103 
L 383.095142 201.543735 
L 383.328801 196.112741 
L 383.562459 193.649197 
L 383.796118 197.344513 
L 384.029776 196.392689 
L 384.263435 197.904409 
L 384.497094 196.504668 
L 384.730752 197.904409 
L 385.431728 205.40702 
L 385.665386 200.088005 
L 385.899045 204.511186 
L 386.132703 205.463009 
L 386.366362 207.758584 
L 386.600021 204.175248 
L 386.833679 202.663528 
M 387.534655 199.696077 
L 387.768313 196.448679 
L 388.001972 198.296336 
L 388.23563 193.313259 
L 388.702948 194.76899 
L 388.936606 197.456492 
L 389.170265 197.232533 
L 389.403923 200.75988 
L 389.637582 201.655714 
L 389.87124 199.416129 
L 390.572216 187.826275 
L 390.805875 187.490338 
L 391.273192 192.977321 
L 391.50685 194.153104 
L 391.740509 191.409612 
L 391.974167 193.089301 
L 392.207826 186.818462 
L 392.441484 186.706483 
L 392.675143 189.729923 
L 392.908802 187.882265 
L 393.14246 193.481228 
M 394.077094 192.473415 
L 394.310753 192.529404 
L 394.544411 192.305446 
M 395.479046 193.705187 
L 395.712704 199.136181 
M 396.647338 209.550252 
L 396.880997 214.925257 
L 397.114656 212.797651 
L 397.348314 206.750771 
L 397.581973 210.949993 
L 397.815631 211.957807 
L 398.282948 220.412241 
L 398.516607 220.636199 
L 398.750266 214.309371 
L 398.983924 213.693485 
L 399.217583 220.300262 
L 399.451241 232.841939 
L 399.6849 233.961732 
L 399.918558 231.106261 
L 400.152217 222.315888 
L 400.385875 223.995577 
L 400.619534 224.835422 
L 400.853193 221.084116 
L 401.086851 227.186986 
L 401.32051 225.283339 
L 401.787827 215.597133 
L 402.021485 226.235163 
L 402.488802 214.757288 
L 402.722461 219.964324 
L 402.95612 217.892707 
L 403.189778 221.532034 
L 403.423437 215.037236 
L 403.657095 212.797651 
L 403.890754 207.478636 
L 404.124412 207.142698 
L 404.358071 207.198688 
L 404.591729 206.302854 
L 404.825388 206.750771 
L 405.059047 207.870563 
L 405.292705 210.949993 
L 405.526364 206.134885 
L 405.760022 205.518999 
L 405.993681 210.166138 
L 406.227339 209.774211 
L 406.460998 210.670045 
L 406.694656 209.830201 
L 406.928315 207.926553 
L 407.161974 203.8953 
M 409.498559 211.229941 
L 409.732218 212.517703 
L 409.965876 229.314592 
L 410.199535 224.891411 
L 410.666852 236.089338 
L 410.90051 241.968249 
M 416.741974 196.28071 
L 416.975633 191.465601 
M 417.44295 190.961695 
L 417.676609 188.274192 
L 417.910267 191.353622 
L 418.143926 187.490338 
L 418.377584 187.490338 
L 418.611243 186.202576 
L 418.844901 189.170026 
L 419.545877 182.059343 
L 419.779536 182.171323 
L 420.013194 185.138773 
L 420.246853 184.690856 
L 420.480511 181.891374 
L 420.71417 185.64268 
L 420.947828 187.09841 
L 421.181487 189.449975 
L 421.415146 188.218203 
M 421.882463 187.546327 
L 422.116121 186.258566 
M 423.050755 182.059343 
L 423.518073 177.524183 
L 423.751731 176.796318 
L 423.98539 178.308038 
M 424.452707 182.171323 
L 424.686365 180.715592 
L 424.920024 172.205168 
L 425.153682 175.732515 
L 425.387341 175.116629 
L 425.621 171.253344 
L 425.854658 172.653085 
L 426.088317 171.421313 
L 426.555634 172.149179 
L 426.789292 168.733811 
L 427.256609 170.077562 
L 427.490268 166.662195 
L 427.957585 171.98121 
L 428.191244 167.502039 
L 428.424902 167.837977 
L 428.658561 165.486412 
L 428.892219 168.005946 
L 429.125878 179.091893 
L 429.359536 183.459084 
L 429.593195 179.819758 
L 429.826854 185.082783 
L 430.294171 175.284598 
L 430.527829 176.292411 
L 430.761488 172.485116 
L 430.995146 177.244235 
L 431.228805 172.653085 
L 431.696122 171.757251 
L 431.929781 167.614018 
L 432.163439 169.181728 
L 432.397098 178.02809 
L 432.630756 178.531997 
L 432.864415 177.300225 
L 433.098073 172.149179 
L 433.331732 172.653085 
L 433.565391 170.861417 
L 434.032708 165.598392 
L 434.266366 166.550215 
L 434.500025 173.660899 
L 434.733683 169.517666 
L 435.434659 165.430423 
M 437.070269 162.8549 
L 437.303927 161.903076 
L 437.537586 160.055418 
L 437.771245 161.679117 
L 438.238562 158.655677 
L 438.47222 156.528071 
L 438.705879 156.248123 
L 438.939537 150.873119 
L 439.173196 151.377025 
L 439.640513 146.05801 
L 439.874172 153.280673 
L 440.10783 155.016351 
L 440.575147 172.373137 
L 441.042464 169.125738 
L 441.276123 169.349697 
L 441.74344 154.904372 
L 441.977099 156.69604 
L 442.444416 153.224683 
L 442.678074 150.313222 
L 442.911733 156.919999 
L 443.612708 159.159584 
L 443.846367 160.839273 
L 444.080026 160.839273 
L 444.313684 168.95777 
L 444.547343 169.405687 
L 444.781001 163.862713 
L 445.01466 163.470786 
L 445.248318 166.382246 
L 445.949294 158.823646 
L 446.182953 160.783283 
L 446.416611 160.783283 
L 446.65027 158.375729 
L 446.883928 168.229904 
L 447.351245 157.983802 
L 447.584904 149.19343 
L 447.818562 149.809316 
L 448.052221 151.153067 
L 448.28588 150.425201 
M 448.753197 153.168693 
L 449.220514 144.266342 
L 449.454172 147.905668 
L 449.921489 143.426498 
L 450.155148 150.64916 
L 450.388807 146.729886 
L 450.622465 148.185616 
L 450.856124 146.505927 
L 451.089782 142.530663 
L 451.323441 142.138736 
L 451.790758 132.620499 
L 452.024417 136.427794 
L 452.258075 135.252011 
L 452.491734 137.771545 
L 452.725392 143.146549 
L 452.959051 142.586653 
L 453.192709 139.843161 
L 453.426368 145.386135 
L 453.893685 135.308001 
L 454.127344 137.099669 
L 454.361002 135.252011 
L 454.594661 135.252011 
L 454.828319 134.412167 
L 455.061978 139.731182 
L 455.295636 138.723368 
L 455.529295 134.356177 
L 455.762953 137.267638 
L 455.996612 136.371804 
M 456.931246 135.363991 
L 457.164905 136.483783 
L 457.398563 139.227275 
L 457.86588 137.379617 
L 458.099539 137.603576 
L 458.333198 137.379617 
L 458.566856 136.707742 
L 458.800515 136.651752 
L 459.034173 133.236385 
M 460.436125 131.444716 
L 460.669783 134.636125 
L 461.1371 129.541069 
L 461.370759 130.492893 
L 461.604417 130.604872 
L 461.838076 134.300188 
L 462.071734 143.202539 
L 462.305393 142.082746 
L 462.539052 147.233792 
L 462.77271 148.465564 
L 463.006369 147.345772 
L 463.240027 151.209056 
L 463.707344 142.586653 
L 464.174661 137.267638 
L 464.40832 136.371804 
L 464.641979 136.651752 
L 464.875637 143.986394 
L 465.109296 145.890041 
L 465.342954 144.266342 
L 465.576613 137.435607 
M 466.04393 137.379617 
L 466.277588 145.274155 
L 466.744906 139.843161 
L 466.978564 139.563213 
L 467.445881 137.491597 
L 467.67954 140.515037 
L 468.146857 152.720776 
L 468.380515 152.608797 
L 468.614174 148.969471 
L 468.847833 153.784579 
L 469.081491 153.056714 
L 469.548808 145.778062 
L 469.782467 148.353585 
L 470.016125 147.009834 
L 470.483443 143.146549 
M 471.418077 141.858788 
L 471.651735 141.242902 
M 472.58637 141.802798 
L 472.820028 135.587949 
L 473.053687 137.547586 
L 473.521004 128.645235 
L 473.754662 128.141328 
L 473.988321 123.102261 
L 474.221979 126.685598 
L 474.455638 122.206427 
M 476.324906 125.397836 
L 476.558565 125.061898 
L 476.792224 123.27023 
M 477.259541 117.391319 
L 478.194175 101.042346 
M 479.829785 129.261121 
L 480.063443 157.423905 
L 480.297102 169.517666 
M 481.231736 141.914777 
L 481.465395 150.817129 
L 481.699053 189.953881 
L 481.932712 173.940847 
L 482.16637 203.055455 
L 482.400029 249.190912 
L 482.633687 213.469527 
L 482.867346 292.358917 
L 483.101005 271.194837 
L 483.334663 308.036014 
L 483.568322 306.804242 
M 484.502956 292.470897 
L 484.736614 266.659677 
L 484.970273 266.267749 
L 485.203932 257.701336 
L 485.43759 267.387542 
L 485.671249 293.086783 
L 485.904907 291.855011 
L 486.138566 297.174026 
L 486.372224 270.410982 
L 486.605883 266.827645 
L 487.0732 216.660936 
L 487.306859 235.249493 
L 487.540517 223.379691 
L 487.774176 240.624498 
L 488.007834 245.383617 
L 488.241493 232.338032 
L 488.475151 248.183098 
L 488.70881 255.629719 
L 488.942469 249.47086 
L 489.176127 252.886227 
L 489.409786 251.150549 
L 489.643444 237.20913 
L 489.877103 233.737773 
L 490.110761 227.354955 
L 490.34442 232.338032 
L 490.578078 246.727368 
L 490.811737 248.742994 
L 491.045396 246.727368 
L 491.279054 254.117999 
L 491.512713 248.351067 
L 491.746371 238.608871 
L 491.98003 244.711741 
M 493.849298 252.046383 
L 494.082957 246.559399 
L 494.550274 222.651826 
L 494.783932 220.58021 
L 495.017591 224.947401 
L 495.25125 214.925257 
L 495.484908 211.341921 
L 495.718567 197.008575 
L 495.952225 201.599725 
L 496.185884 184.298929 
M 496.653201 180.603613 
L 496.886859 192.753363 
L 497.120518 222.651826 
L 497.354177 207.030719 
L 497.821494 191.63357 
L 498.522469 210.054159 
L 498.756128 210.502076 
L 498.989786 212.349734 
L 499.223445 225.05938 
L 499.457104 223.827608 
L 499.690762 232.170064 
L 500.391738 208.654418 
L 500.625396 209.94218 
L 500.859055 210.166138 
L 501.092713 219.06849 
L 501.326372 219.684376 
L 501.560031 222.427868 
L 501.793689 221.084116 
L 502.027348 226.291152 
L 502.494665 218.396614 
L 502.728323 223.65964 
L 502.961982 218.004687 
M 503.662958 215.541143 
L 503.896616 217.388801 
L 504.130275 220.636199 
L 504.363933 216.492967 
L 504.83125 198.968212 
L 505.064909 201.935662 
L 505.298568 202.775507 
L 505.532226 208.822387 
L 505.765885 202.103631 
L 505.999543 204.399206 
L 506.233202 203.671341 
L 506.46686 197.176544 
L 506.700519 196.448679 
L 506.934177 203.111445 
L 507.167836 198.520295 
L 507.401495 204.175248 
L 507.635153 204.119258 
L 507.868812 200.423942 
L 508.10247 202.607538 
L 508.336129 210.614055 
L 508.569787 206.358843 
L 508.803446 205.630978 
L 509.037104 202.719517 
L 509.270763 201.543735 
L 509.504422 205.742957 
L 509.73808 199.080191 
L 509.971739 196.056751 
L 510.205397 200.75988 
L 510.439056 200.423942 
M 510.906373 197.512482 
L 511.140031 199.920036 
L 511.37369 205.518999 
L 511.607349 201.039828 
L 511.841007 206.638792 
L 512.074666 209.158325 
L 512.308324 198.184357 
L 512.541983 192.641384 
L 512.775641 190.17784 
L 513.242958 209.662232 
M 514.177593 228.922665 
L 514.411251 223.435681 
L 514.64491 214.53333 
L 514.878568 217.724739 
L 515.112227 216.380987 
L 515.579544 199.752067 
L 515.813203 197.120554 
L 516.046861 200.143994 
L 516.28052 199.472119 
M 517.215154 199.472119 
L 517.448812 205.071082 
L 517.682471 202.719517 
L 517.91613 205.966916 
L 518.149788 213.02161 
L 518.383447 209.830201 
L 518.617105 211.173952 
L 518.850764 211.229941 
L 519.084422 208.542439 
L 519.318081 214.981247 
M 521.654666 195.272896 
L 521.888325 188.498151 
L 522.121984 186.706483 
L 522.355642 192.865342 
L 522.589301 180.435644 
L 522.822959 175.060639 
L 523.056618 174.612722 
L 523.290276 184.01898 
L 523.523935 182.171323 
L 523.757594 184.746846 
L 523.991252 183.851012 
L 524.224911 181.331478 
L 524.458569 181.05153 
L 524.692228 183.179136 
L 524.925886 188.162213 
L 525.159545 182.115333 
L 525.393203 185.866638 
L 525.626862 181.891374 
L 525.860521 174.612722 
L 526.094179 178.811945 
L 526.327838 180.491634 
L 526.795155 185.5307 
L 527.028813 185.978618 
L 527.262472 188.050234 
L 527.49613 178.420017 
L 527.729789 177.860121 
L 527.963448 173.212982 
L 528.197106 182.955177 
L 528.430765 185.64268 
L 528.664423 182.339291 
L 529.13174 188.834089 
L 529.365399 186.034607 
L 529.599057 190.065861 
L 529.832716 187.490338 
L 530.066375 182.955177 
M 530.76735 196.952585 
L 531.001009 197.848419 
L 531.234667 193.369249 
M 531.935643 192.865342 
L 532.169302 190.12185 
L 532.40296 184.746846 
M 533.571253 174.612722 
L 533.804911 171.197355 
M 535.440521 166.886153 
L 535.67418 165.150475 
L 536.375156 158.039791 
L 536.608814 156.975988 
L 536.842473 156.864009 
L 537.076131 160.727294 
L 537.30979 161.34318 
L 537.543448 163.470786 
L 538.010765 156.472082 
L 538.478083 149.473378 
L 538.9454 166.494226 
L 539.179058 164.31063 
L 539.646375 171.86923 
M 540.58101 164.702558 
L 541.048327 153.952548 
L 541.515644 137.883524 
L 541.749302 140.01113 
L 541.982961 139.563213 
L 542.21662 144.826238 
M 546.656132 121.478562 
L 547.123449 119.238977 
L 547.590766 111.232459 
L 547.824425 114.19991 
L 548.058083 111.008501 
L 548.291742 109.384802 
L 548.525401 109.440791 
L 548.759059 110.616573 
L 548.992718 105.913444 
L 549.226376 103.729849 
L 549.460035 104.793652 
L 549.693693 108.376988 
L 549.927352 117.503298 
L 550.16101 114.479858 
L 550.394669 107.313185 
L 550.628328 107.481154 
M 553.899547 99.250678 
L 554.366864 82.509778 
L 554.600523 84.637384 
L 554.834182 84.357436 
L 555.301499 72.767583 
L 555.535157 71.983728 
L 555.768816 67.784505 
L 556.002474 70.13607 
L 556.236133 67.840495 
L 556.70345 77.974618 
L 556.937109 78.702483 
L 557.170767 88.556659 
L 557.404426 76.798836 
L 557.638084 79.822276 
L 557.871743 80.830089 
L 558.105401 86.149104 
L 558.33906 82.28582 
L 558.806377 85.533219 
L 559.040036 88.556659 
L 559.97467 78.142587 
L 560.208328 79.766286 
L 560.675646 65.208982 
L 560.909304 73.495448 
L 561.142963 69.408205 
L 561.376621 68.456381 
L 561.61028 68.848308 
M 562.077597 65.936847 
L 562.311255 65.992837 
L 562.544914 70.695966 
L 562.778573 65.824868 
L 563.012231 65.54492 
L 563.24589 62.185542 
L 563.479548 64.257159 
L 563.713207 64.145179 
L 563.946865 63.361324 
L 564.180524 64.649086 
L 564.414182 63.921221 
L 564.647841 65.768879 
L 564.8815 58.826164 
L 565.115158 59.889967 
L 565.348817 63.081376 
M 567.218085 64.649086 
L 567.451744 61.681635 
L 567.685402 62.801428 
L 567.919061 65.432941 
L 568.152719 65.824868 
L 568.386378 65.60091 
L 568.853695 53.39517 
L 569.087354 50.539699 
L 569.321012 40.797503 
M 570.956622 58.714185 
L 571.190281 59.777988 
M 571.657598 57.370434 
L 572.124915 66.384765 
L 572.358573 66.104816 
L 572.592232 60.337884 
L 572.82589 61.513667 
L 573.293208 79.430349 
L 573.526866 83.349623 
L 573.760525 79.038421 
M 576.564427 62.857418 
L 576.798086 61.345698 
L 577.031745 61.06575 
L 577.265403 51.659491 
L 577.499062 50.819647 
L 577.966379 46.004539 
L 578.200037 44.32485 
L 578.433696 49.531885 
L 578.667354 41.021461 
L 578.901013 47.964176 
L 579.601989 39.957658 
L 579.601989 39.957658 
" clip-path="url(#p85c3140d79)" style="fill: none; stroke: #1e90ff; stroke-linecap: square"/>
   </g>
   <g id="patch_3">
    <path d="M 46.965625 354.958125 
L 46.965625 22.318125 
" style="fill: none; stroke: #000000; stroke-width: 0.8; stroke-linejoin: miter; stroke-linecap: square"/>
   </g>
   <g id="patch_4">
    <path d="M 604.965625 354.958125 
L 604.965625 22.318125 
" style="fill: none; stroke: #000000; stroke-width: 0.8; stroke-linejoin: miter; stroke-linecap: square"/>
   </g>
   <g id="patch_5">
    <path d="M 46.965625 354.958125 
L 604.965625 354.958125 
" style="fill: none; stroke: #000000; stroke-width: 0.8; stroke-linejoin: miter; stroke-linecap: square"/>
   </g>
   <g id="patch_6">
    <path d="M 46.965625 22.318125 
L 604.965625 22.318125 
" style="fill: none; stroke: #000000; stroke-width: 0.8; stroke-linejoin: miter; stroke-linecap: square"/>
   </g>
   <g id="text_14">
    <!-- VNQ, Relative Strength Index (RSI), VNQ -->
    <g transform="translate(204.8875 16.318125)scale(0.12 -0.12)">
     <defs>
      <path id="DejaVuSans-56" d="M 1831 0 
L 50 4666 
L 709 4666 
L 2188 738 
L 3669 4666 
L 4325 4666 
L 2547 0 
L 1831 0 
z
" transform="scale(0.015625)"/>
      <path id="DejaVuSans-4e" d="M 628 4666 
L 1478 4666 
L 3547 763 
L 3547 4666 
L 4159 4666 
L 4159 0 
L 3309 0 
L 1241 3903 
L 1241 0 
L 628 0 
L 628 4666 
z
" transform="scale(0.015625)"/>
      <path id="DejaVuSans-51" d="M 2522 4238 
Q 1834 4238 1429 3725 
Q 1025 3213 1025 2328 
Q 1025 1447 1429 934 
Q 1834 422 2522 422 
Q 3209 422 3611 934 
Q 4013 1447 4013 2328 
Q 4013 3213 3611 3725 
Q 3209 4238 2522 4238 
z
M 3406 84 
L 4238 -825 
L 3475 -825 
L 2784 -78 
Q 2681 -84 2626 -87 
Q 2572 -91 2522 -91 
Q 1538 -91 948 567 
Q 359 1225 359 2328 
Q 359 3434 948 4092 
Q 1538 4750 2522 4750 
Q 3503 4750 4090 4092 
Q 4678 3434 4678 2328 
Q 4678 1516 4351 937 
Q 4025 359 3406 84 
z
" transform="scale(0.015625)"/>
      <path id="DejaVuSans-2c" d="M 750 794 
L 1409 794 
L 1409 256 
L 897 -744 
L 494 -744 
L 750 256 
L 750 794 
z
" transform="scale(0.015625)"/>
      <path id="DejaVuSans-52" d="M 2841 2188 
Q 3044 2119 3236 1894 
Q 3428 1669 3622 1275 
L 4263 0 
L 3584 0 
L 2988 1197 
Q 2756 1666 2539 1819 
Q 2322 1972 1947 1972 
L 1259 1972 
L 1259 0 
L 628 0 
L 628 4666 
L 2053 4666 
Q 2853 4666 3247 4331 
Q 3641 3997 3641 3322 
Q 3641 2881 3436 2590 
Q 3231 2300 2841 2188 
z
M 1259 4147 
L 1259 2491 
L 2053 2491 
Q 2509 2491 2742 2702 
Q 2975 2913 2975 3322 
Q 2975 3731 2742 3939 
Q 2509 4147 2053 4147 
L 1259 4147 
z
" transform="scale(0.015625)"/>
      <path id="DejaVuSans-6c" d="M 603 4863 
L 1178 4863 
L 1178 0 
L 603 0 
L 603 4863 
z
" transform="scale(0.015625)"/>
      <path id="DejaVuSans-76" d="M 191 3500 
L 800 3500 
L 1894 563 
L 2988 3500 
L 3597 3500 
L 2284 0 
L 1503 0 
L 191 3500 
z
" transform="scale(0.015625)"/>
      <path id="DejaVuSans-6e" d="M 3513 2113 
L 3513 0 
L 2938 0 
L 2938 2094 
Q 2938 2591 2744 2837 
Q 2550 3084 2163 3084 
Q 1697 3084 1428 2787 
Q 1159 2491 1159 1978 
L 1159 0 
L 581 0 
L 581 3500 
L 1159 3500 
L 1159 2956 
Q 1366 3272 1645 3428 
Q 1925 3584 2291 3584 
Q 2894 3584 3203 3211 
Q 3513 2838 3513 2113 
z
" transform="scale(0.015625)"/>
      <path id="DejaVuSans-67" d="M 2906 1791 
Q 2906 2416 2648 2759 
Q 2391 3103 1925 3103 
Q 1463 3103 1205 2759 
Q 947 2416 947 1791 
Q 947 1169 1205 825 
Q 1463 481 1925 481 
Q 2391 481 2648 825 
Q 2906 1169 2906 1791 
z
M 3481 434 
Q 3481 -459 3084 -895 
Q 2688 -1331 1869 -1331 
Q 1566 -1331 1297 -1286 
Q 1028 -1241 775 -1147 
L 775 -588 
Q 1028 -725 1275 -790 
Q 1522 -856 1778 -856 
Q 2344 -856 2625 -561 
Q 2906 -266 2906 331 
L 2906 616 
Q 2728 306 2450 153 
Q 2172 0 1784 0 
Q 1141 0 747 490 
Q 353 981 353 1791 
Q 353 2603 747 3093 
Q 1141 3584 1784 3584 
Q 2172 3584 2450 3431 
Q 2728 3278 2906 2969 
L 2906 3500 
L 3481 3500 
L 3481 434 
z
" transform="scale(0.015625)"/>
      <path id="DejaVuSans-68" d="M 3513 2113 
L 3513 0 
L 2938 0 
L 2938 2094 
Q 2938 2591 2744 2837 
Q 2550 3084 2163 3084 
Q 1697 3084 1428 2787 
Q 1159 2491 1159 1978 
L 1159 0 
L 581 0 
L 581 4863 
L 1159 4863 
L 1159 2956 
Q 1366 3272 1645 3428 
Q 1925 3584 2291 3584 
Q 2894 3584 3203 3211 
Q 3513 2838 3513 2113 
z
" transform="scale(0.015625)"/>
      <path id="DejaVuSans-49" d="M 628 4666 
L 1259 4666 
L 1259 0 
L 628 0 
L 628 4666 
z
" transform="scale(0.015625)"/>
      <path id="DejaVuSans-64" d="M 2906 2969 
L 2906 4863 
L 3481 4863 
L 3481 0 
L 2906 0 
L 2906 525 
Q 2725 213 2448 61 
Q 2172 -91 1784 -91 
Q 1150 -91 751 415 
Q 353 922 353 1747 
Q 353 2572 751 3078 
Q 1150 3584 1784 3584 
Q 2172 3584 2448 3432 
Q 2725 3281 2906 2969 
z
M 947 1747 
Q 947 1113 1208 752 
Q 1469 391 1925 391 
Q 2381 391 2643 752 
Q 2906 1113 2906 1747 
Q 2906 2381 2643 2742 
Q 2381 3103 1925 3103 
Q 1469 3103 1208 2742 
Q 947 2381 947 1747 
z
" transform="scale(0.015625)"/>
      <path id="DejaVuSans-78" d="M 3513 3500 
L 2247 1797 
L 3578 0 
L 2900 0 
L 1881 1375 
L 863 0 
L 184 0 
L 1544 1831 
L 300 3500 
L 978 3500 
L 1906 2253 
L 2834 3500 
L 3513 3500 
z
" transform="scale(0.015625)"/>
     </defs>
     <use xlink:href="#DejaVuSans-56"/>
     <use xlink:href="#DejaVuSans-4e" x="68.408203"/>
     <use xlink:href="#DejaVuSans-51" x="143.212891"/>
     <use xlink:href="#DejaVuSans-2c" x="221.923828"/>
     <use xlink:href="#DejaVuSans-20" x="253.710938"/>
     <use xlink:href="#DejaVuSans-52" x="285.498047"/>
     <use xlink:href="#DejaVuSans-65" x="350.480469"/>
     <use xlink:href="#DejaVuSans-6c" x="412.003906"/>
     <use xlink:href="#DejaVuSans-61" x="439.787109"/>
     <use xlink:href="#DejaVuSans-74" x="501.066406"/>
     <use xlink:href="#DejaVuSans-69" x="540.275391"/>
     <use xlink:href="#DejaVuSans-76" x="568.058594"/>
     <use xlink:href="#DejaVuSans-65" x="627.238281"/>
     <use xlink:href="#DejaVuSans-20" x="688.761719"/>
     <use xlink:href="#DejaVuSans-53" x="720.548828"/>
     <use xlink:href="#DejaVuSans-74" x="784.025391"/>
     <use xlink:href="#DejaVuSans-72" x="823.234375"/>
     <use xlink:href="#DejaVuSans-65" x="862.097656"/>
     <use xlink:href="#DejaVuSans-6e" x="923.621094"/>
     <use xlink:href="#DejaVuSans-67" x="987"/>
     <use xlink:href="#DejaVuSans-74" x="1050.476562"/>
     <use xlink:href="#DejaVuSans-68" x="1089.685547"/>
     <use xlink:href="#DejaVuSans-20" x="1153.064453"/>
     <use xlink:href="#DejaVuSans-49" x="1184.851562"/>
     <use xlink:href="#DejaVuSans-6e" x="1214.34375"/>
     <use xlink:href="#DejaVuSans-64" x="1277.722656"/>
     <use xlink:href="#DejaVuSans-65" x="1341.199219"/>
     <use xlink:href="#DejaVuSans-78" x="1400.972656"/>
     <use xlink:href="#DejaVuSans-20" x="1460.152344"/>
     <use xlink:href="#DejaVuSans-28" x="1491.939453"/>
     <use xlink:href="#DejaVuSans-52" x="1530.953125"/>
     <use xlink:href="#DejaVuSans-53" x="1600.435547"/>
     <use xlink:href="#DejaVuSans-49" x="1663.912109"/>
     <use xlink:href="#DejaVuSans-29" x="1693.404297"/>
     <use xlink:href="#DejaVuSans-2c" x="1732.417969"/>
     <use xlink:href="#DejaVuSans-20" x="1764.205078"/>
     <use xlink:href="#DejaVuSans-56" x="1795.992188"/>
     <use xlink:href="#DejaVuSans-4e" x="1864.400391"/>
     <use xlink:href="#DejaVuSans-51" x="1939.205078"/>
    </g>
   </g>
   <g id="legend_1">
    <g id="patch_7">
     <path d="M 53.965625 74.3525 
L 203.875 74.3525 
Q 205.875 74.3525 205.875 72.3525 
L 205.875 29.318125 
Q 205.875 27.318125 203.875 27.318125 
L 53.965625 27.318125 
Q 51.965625 27.318125 51.965625 29.318125 
L 51.965625 72.3525 
Q 51.965625 74.3525 53.965625 74.3525 
z
" style="fill: #ffffff; opacity: 0.8; stroke: #cccccc; stroke-linejoin: miter"/>
    </g>
    <g id="line2d_21">
     <path d="M 55.965625 35.416562 
L 65.965625 35.416562 
L 75.965625 35.416562 
" style="fill: none; stroke: #00ff7f; stroke-linecap: square"/>
    </g>
    <g id="text_15">
     <!-- Oversold, RSI &lt;= 30 -->
     <g transform="translate(83.965625 38.916562)scale(0.1 -0.1)">
      <defs>
       <path id="DejaVuSans-4f" d="M 2522 4238 
Q 1834 4238 1429 3725 
Q 1025 3213 1025 2328 
Q 1025 1447 1429 934 
Q 1834 422 2522 422 
Q 3209 422 3611 934 
Q 4013 1447 4013 2328 
Q 4013 3213 3611 3725 
Q 3209 4238 2522 4238 
z
M 2522 4750 
Q 3503 4750 4090 4092 
Q 4678 3434 4678 2328 
Q 4678 1225 4090 567 
Q 3503 -91 2522 -91 
Q 1538 -91 948 565 
Q 359 1222 359 2328 
Q 359 3434 948 4092 
Q 1538 4750 2522 4750 
z
" transform="scale(0.015625)"/>
       <path id="DejaVuSans-73" d="M 2834 3397 
L 2834 2853 
Q 2591 2978 2328 3040 
Q 2066 3103 1784 3103 
Q 1356 3103 1142 2972 
Q 928 2841 928 2578 
Q 928 2378 1081 2264 
Q 1234 2150 1697 2047 
L 1894 2003 
Q 2506 1872 2764 1633 
Q 3022 1394 3022 966 
Q 3022 478 2636 193 
Q 2250 -91 1575 -91 
Q 1294 -91 989 -36 
Q 684 19 347 128 
L 347 722 
Q 666 556 975 473 
Q 1284 391 1588 391 
Q 1994 391 2212 530 
Q 2431 669 2431 922 
Q 2431 1156 2273 1281 
Q 2116 1406 1581 1522 
L 1381 1569 
Q 847 1681 609 1914 
Q 372 2147 372 2553 
Q 372 3047 722 3315 
Q 1072 3584 1716 3584 
Q 2034 3584 2315 3537 
Q 2597 3491 2834 3397 
z
" transform="scale(0.015625)"/>
       <path id="DejaVuSans-6f" d="M 1959 3097 
Q 1497 3097 1228 2736 
Q 959 2375 959 1747 
Q 959 1119 1226 758 
Q 1494 397 1959 397 
Q 2419 397 2687 759 
Q 2956 1122 2956 1747 
Q 2956 2369 2687 2733 
Q 2419 3097 1959 3097 
z
M 1959 3584 
Q 2709 3584 3137 3096 
Q 3566 2609 3566 1747 
Q 3566 888 3137 398 
Q 2709 -91 1959 -91 
Q 1206 -91 779 398 
Q 353 888 353 1747 
Q 353 2609 779 3096 
Q 1206 3584 1959 3584 
z
" transform="scale(0.015625)"/>
       <path id="DejaVuSans-3c" d="M 4684 3150 
L 1459 2003 
L 4684 863 
L 4684 294 
L 678 1747 
L 678 2266 
L 4684 3719 
L 4684 3150 
z
" transform="scale(0.015625)"/>
       <path id="DejaVuSans-3d" d="M 678 2906 
L 4684 2906 
L 4684 2381 
L 678 2381 
L 678 2906 
z
M 678 1631 
L 4684 1631 
L 4684 1100 
L 678 1100 
L 678 1631 
z
" transform="scale(0.015625)"/>
       <path id="DejaVuSans-33" d="M 2597 2516 
Q 3050 2419 3304 2112 
Q 3559 1806 3559 1356 
Q 3559 666 3084 287 
Q 2609 -91 1734 -91 
Q 1441 -91 1130 -33 
Q 819 25 488 141 
L 488 750 
Q 750 597 1062 519 
Q 1375 441 1716 441 
Q 2309 441 2620 675 
Q 2931 909 2931 1356 
Q 2931 1769 2642 2001 
Q 2353 2234 1838 2234 
L 1294 2234 
L 1294 2753 
L 1863 2753 
Q 2328 2753 2575 2939 
Q 2822 3125 2822 3475 
Q 2822 3834 2567 4026 
Q 2313 4219 1838 4219 
Q 1578 4219 1281 4162 
Q 984 4106 628 3988 
L 628 4550 
Q 988 4650 1302 4700 
Q 1616 4750 1894 4750 
Q 2613 4750 3031 4423 
Q 3450 4097 3450 3541 
Q 3450 3153 3228 2886 
Q 3006 2619 2597 2516 
z
" transform="scale(0.015625)"/>
      </defs>
      <use xlink:href="#DejaVuSans-4f"/>
      <use xlink:href="#DejaVuSans-76" x="78.710938"/>
      <use xlink:href="#DejaVuSans-65" x="137.890625"/>
      <use xlink:href="#DejaVuSans-72" x="199.414062"/>
      <use xlink:href="#DejaVuSans-73" x="240.527344"/>
      <use xlink:href="#DejaVuSans-6f" x="292.626953"/>
      <use xlink:href="#DejaVuSans-6c" x="353.808594"/>
      <use xlink:href="#DejaVuSans-64" x="381.591797"/>
      <use xlink:href="#DejaVuSans-2c" x="445.068359"/>
      <use xlink:href="#DejaVuSans-20" x="476.855469"/>
      <use xlink:href="#DejaVuSans-52" x="508.642578"/>
      <use xlink:href="#DejaVuSans-53" x="578.125"/>
      <use xlink:href="#DejaVuSans-49" x="641.601562"/>
      <use xlink:href="#DejaVuSans-20" x="671.09375"/>
      <use xlink:href="#DejaVuSans-3c" x="702.880859"/>
      <use xlink:href="#DejaVuSans-3d" x="786.669922"/>
      <use xlink:href="#DejaVuSans-20" x="870.458984"/>
      <use xlink:href="#DejaVuSans-33" x="902.246094"/>
      <use xlink:href="#DejaVuSans-30" x="965.869141"/>
     </g>
    </g>
    <g id="line2d_22">
     <path d="M 55.965625 50.094687 
L 65.965625 50.094687 
L 75.965625 50.094687 
" style="fill: none; stroke: #ff4500; stroke-linecap: square"/>
    </g>
    <g id="text_16">
     <!-- Overbought, RSI &gt;= 70 -->
     <g transform="translate(83.965625 53.594687)scale(0.1 -0.1)">
      <defs>
       <path id="DejaVuSans-62" d="M 3116 1747 
Q 3116 2381 2855 2742 
Q 2594 3103 2138 3103 
Q 1681 3103 1420 2742 
Q 1159 2381 1159 1747 
Q 1159 1113 1420 752 
Q 1681 391 2138 391 
Q 2594 391 2855 752 
Q 3116 1113 3116 1747 
z
M 1159 2969 
Q 1341 3281 1617 3432 
Q 1894 3584 2278 3584 
Q 2916 3584 3314 3078 
Q 3713 2572 3713 1747 
Q 3713 922 3314 415 
Q 2916 -91 2278 -91 
Q 1894 -91 1617 61 
Q 1341 213 1159 525 
L 1159 0 
L 581 0 
L 581 4863 
L 1159 4863 
L 1159 2969 
z
" transform="scale(0.015625)"/>
       <path id="DejaVuSans-75" d="M 544 1381 
L 544 3500 
L 1119 3500 
L 1119 1403 
Q 1119 906 1312 657 
Q 1506 409 1894 409 
Q 2359 409 2629 706 
Q 2900 1003 2900 1516 
L 2900 3500 
L 3475 3500 
L 3475 0 
L 2900 0 
L 2900 538 
Q 2691 219 2414 64 
Q 2138 -91 1772 -91 
Q 1169 -91 856 284 
Q 544 659 544 1381 
z
M 1991 3584 
L 1991 3584 
z
" transform="scale(0.015625)"/>
       <path id="DejaVuSans-3e" d="M 678 3150 
L 678 3719 
L 4684 2266 
L 4684 1747 
L 678 294 
L 678 863 
L 3897 2003 
L 678 3150 
z
" transform="scale(0.015625)"/>
      </defs>
      <use xlink:href="#DejaVuSans-4f"/>
      <use xlink:href="#DejaVuSans-76" x="78.710938"/>
      <use xlink:href="#DejaVuSans-65" x="137.890625"/>
      <use xlink:href="#DejaVuSans-72" x="199.414062"/>
      <use xlink:href="#DejaVuSans-62" x="240.527344"/>
      <use xlink:href="#DejaVuSans-6f" x="304.003906"/>
      <use xlink:href="#DejaVuSans-75" x="365.185547"/>
      <use xlink:href="#DejaVuSans-67" x="428.564453"/>
      <use xlink:href="#DejaVuSans-68" x="492.041016"/>
      <use xlink:href="#DejaVuSans-74" x="555.419922"/>
      <use xlink:href="#DejaVuSans-2c" x="594.628906"/>
      <use xlink:href="#DejaVuSans-20" x="626.416016"/>
      <use xlink:href="#DejaVuSans-52" x="658.203125"/>
      <use xlink:href="#DejaVuSans-53" x="727.685547"/>
      <use xlink:href="#DejaVuSans-49" x="791.162109"/>
      <use xlink:href="#DejaVuSans-20" x="820.654297"/>
      <use xlink:href="#DejaVuSans-3e" x="852.441406"/>
      <use xlink:href="#DejaVuSans-3d" x="936.230469"/>
      <use xlink:href="#DejaVuSans-20" x="1020.019531"/>
      <use xlink:href="#DejaVuSans-37" x="1051.806641"/>
      <use xlink:href="#DejaVuSans-30" x="1115.429688"/>
     </g>
    </g>
    <g id="line2d_23">
     <path d="M 55.965625 64.772812 
L 65.965625 64.772812 
L 75.965625 64.772812 
" style="fill: none; stroke: #1e90ff; stroke-linecap: square"/>
    </g>
    <g id="text_17">
     <!-- Neutral -->
     <g transform="translate(83.965625 68.272812)scale(0.1 -0.1)">
      <use xlink:href="#DejaVuSans-4e"/>
      <use xlink:href="#DejaVuSans-65" x="74.804688"/>
      <use xlink:href="#DejaVuSans-75" x="136.328125"/>
      <use xlink:href="#DejaVuSans-74" x="199.707031"/>
      <use xlink:href="#DejaVuSans-72" x="238.916016"/>
      <use xlink:href="#DejaVuSans-61" x="280.029297"/>
      <use xlink:href="#DejaVuSans-6c" x="341.308594"/>
     </g>
    </g>
   </g>
  </g>
 </g>
 <defs>
  <clipPath id="p85c3140d79">
   <rect x="46.965625" y="22.318125" width="558" height="332.64"/>
  </clipPath>
 </defs>
</svg>
