<?xml version="1.0" encoding="utf-8" standalone="no"?>
<!DOCTYPE svg PUBLIC "-//W3C//DTD SVG 1.1//EN"
  "http://www.w3.org/Graphics/SVG/1.1/DTD/svg11.dtd">
<svg xmlns:xlink="http://www.w3.org/1999/xlink" width="612.165625pt" height="392.514375pt" viewBox="0 0 612.165625 392.514375" xmlns="http://www.w3.org/2000/svg" version="1.1">
 <metadata>
  <rdf:RDF xmlns:dc="http://purl.org/dc/elements/1.1/" xmlns:cc="http://creativecommons.org/ns#" xmlns:rdf="http://www.w3.org/1999/02/22-rdf-syntax-ns#">
   <cc:Work>
    <dc:type rdf:resource="http://purl.org/dc/dcmitype/StillImage"/>
    <dc:date>2023-04-24T17:59:48.018376</dc:date>
    <dc:format>image/svg+xml</dc:format>
    <dc:creator>
     <cc:Agent>
      <dc:title>Matplotlib v3.5.1, https://matplotlib.org/</dc:title>
     </cc:Agent>
    </dc:creator>
   </cc:Work>
  </rdf:RDF>
 </metadata>
 <defs>
  <style type="text/css">*{stroke-linejoin: round; stroke-linecap: butt}</style>
 </defs>
 <g id="figure_1">
  <g id="patch_1">
   <path d="M 0 392.514375 
L 612.165625 392.514375 
L 612.165625 0 
L 0 0 
z
" style="fill: #ffffff"/>
  </g>
  <g id="axes_1">
   <g id="patch_2">
    <path d="M 46.965625 354.958125 
L 604.965625 354.958125 
L 604.965625 22.318125 
L 46.965625 22.318125 
z
" style="fill: #ffffff"/>
   </g>
   <g id="matplotlib.axis_1">
    <g id="xtick_1">
     <g id="line2d_1">
      <defs>
       <path id="md735bc8090" d="M 0 0 
L 0 3.5 
" style="stroke: #000000; stroke-width: 0.8"/>
      </defs>
      <g>
       <use xlink:href="#md735bc8090" x="72.329261" y="354.958125" style="stroke: #000000; stroke-width: 0.8"/>
      </g>
     </g>
     <g id="text_1">
      <!-- 0 -->
      <g transform="translate(69.148011 369.556562)scale(0.1 -0.1)">
       <defs>
        <path id="DejaVuSans-30" d="M 2034 4250 
Q 1547 4250 1301 3770 
Q 1056 3291 1056 2328 
Q 1056 1369 1301 889 
Q 1547 409 2034 409 
Q 2525 409 2770 889 
Q 3016 1369 3016 2328 
Q 3016 3291 2770 3770 
Q 2525 4250 2034 4250 
z
M 2034 4750 
Q 2819 4750 3233 4129 
Q 3647 3509 3647 2328 
Q 3647 1150 3233 529 
Q 2819 -91 2034 -91 
Q 1250 -91 836 529 
Q 422 1150 422 2328 
Q 422 3509 836 4129 
Q 1250 4750 2034 4750 
z
" transform="scale(0.015625)"/>
       </defs>
       <use xlink:href="#DejaVuSans-30"/>
      </g>
     </g>
    </g>
    <g id="xtick_2">
     <g id="line2d_2">
      <g>
       <use xlink:href="#md735bc8090" x="188.092093" y="354.958125" style="stroke: #000000; stroke-width: 0.8"/>
      </g>
     </g>
     <g id="text_2">
      <!-- 500 -->
      <g transform="translate(178.548343 369.556562)scale(0.1 -0.1)">
       <defs>
        <path id="DejaVuSans-35" d="M 691 4666 
L 3169 4666 
L 3169 4134 
L 1269 4134 
L 1269 2991 
Q 1406 3038 1543 3061 
Q 1681 3084 1819 3084 
Q 2600 3084 3056 2656 
Q 3513 2228 3513 1497 
Q 3513 744 3044 326 
Q 2575 -91 1722 -91 
Q 1428 -91 1123 -41 
Q 819 9 494 109 
L 494 744 
Q 775 591 1075 516 
Q 1375 441 1709 441 
Q 2250 441 2565 725 
Q 2881 1009 2881 1497 
Q 2881 1984 2565 2268 
Q 2250 2553 1709 2553 
Q 1456 2553 1204 2497 
Q 953 2441 691 2322 
L 691 4666 
z
" transform="scale(0.015625)"/>
       </defs>
       <use xlink:href="#DejaVuSans-35"/>
       <use xlink:href="#DejaVuSans-30" x="63.623047"/>
       <use xlink:href="#DejaVuSans-30" x="127.246094"/>
      </g>
     </g>
    </g>
    <g id="xtick_3">
     <g id="line2d_3">
      <g>
       <use xlink:href="#md735bc8090" x="303.854924" y="354.958125" style="stroke: #000000; stroke-width: 0.8"/>
      </g>
     </g>
     <g id="text_3">
      <!-- 1000 -->
      <g transform="translate(291.129924 369.556562)scale(0.1 -0.1)">
       <defs>
        <path id="DejaVuSans-31" d="M 794 531 
L 1825 531 
L 1825 4091 
L 703 3866 
L 703 4441 
L 1819 4666 
L 2450 4666 
L 2450 531 
L 3481 531 
L 3481 0 
L 794 0 
L 794 531 
z
" transform="scale(0.015625)"/>
       </defs>
       <use xlink:href="#DejaVuSans-31"/>
       <use xlink:href="#DejaVuSans-30" x="63.623047"/>
       <use xlink:href="#DejaVuSans-30" x="127.246094"/>
       <use xlink:href="#DejaVuSans-30" x="190.869141"/>
      </g>
     </g>
    </g>
    <g id="xtick_4">
     <g id="line2d_4">
      <g>
       <use xlink:href="#md735bc8090" x="419.617756" y="354.958125" style="stroke: #000000; stroke-width: 0.8"/>
      </g>
     </g>
     <g id="text_4">
      <!-- 1500 -->
      <g transform="translate(406.892756 369.556562)scale(0.1 -0.1)">
       <use xlink:href="#DejaVuSans-31"/>
       <use xlink:href="#DejaVuSans-35" x="63.623047"/>
       <use xlink:href="#DejaVuSans-30" x="127.246094"/>
       <use xlink:href="#DejaVuSans-30" x="190.869141"/>
      </g>
     </g>
    </g>
    <g id="xtick_5">
     <g id="line2d_5">
      <g>
       <use xlink:href="#md735bc8090" x="535.380587" y="354.958125" style="stroke: #000000; stroke-width: 0.8"/>
      </g>
     </g>
     <g id="text_5">
      <!-- 2000 -->
      <g transform="translate(522.655587 369.556562)scale(0.1 -0.1)">
       <defs>
        <path id="DejaVuSans-32" d="M 1228 531 
L 3431 531 
L 3431 0 
L 469 0 
L 469 531 
Q 828 903 1448 1529 
Q 2069 2156 2228 2338 
Q 2531 2678 2651 2914 
Q 2772 3150 2772 3378 
Q 2772 3750 2511 3984 
Q 2250 4219 1831 4219 
Q 1534 4219 1204 4116 
Q 875 4013 500 3803 
L 500 4441 
Q 881 4594 1212 4672 
Q 1544 4750 1819 4750 
Q 2544 4750 2975 4387 
Q 3406 4025 3406 3419 
Q 3406 3131 3298 2873 
Q 3191 2616 2906 2266 
Q 2828 2175 2409 1742 
Q 1991 1309 1228 531 
z
" transform="scale(0.015625)"/>
       </defs>
       <use xlink:href="#DejaVuSans-32"/>
       <use xlink:href="#DejaVuSans-30" x="63.623047"/>
       <use xlink:href="#DejaVuSans-30" x="127.246094"/>
       <use xlink:href="#DejaVuSans-30" x="190.869141"/>
      </g>
     </g>
    </g>
    <g id="text_6">
     <!-- Date -->
     <g transform="translate(314.014844 383.234687)scale(0.1 -0.1)">
      <defs>
       <path id="DejaVuSans-44" d="M 1259 4147 
L 1259 519 
L 2022 519 
Q 2988 519 3436 956 
Q 3884 1394 3884 2338 
Q 3884 3275 3436 3711 
Q 2988 4147 2022 4147 
L 1259 4147 
z
M 628 4666 
L 1925 4666 
Q 3281 4666 3915 4102 
Q 4550 3538 4550 2338 
Q 4550 1131 3912 565 
Q 3275 0 1925 0 
L 628 0 
L 628 4666 
z
" transform="scale(0.015625)"/>
       <path id="DejaVuSans-61" d="M 2194 1759 
Q 1497 1759 1228 1600 
Q 959 1441 959 1056 
Q 959 750 1161 570 
Q 1363 391 1709 391 
Q 2188 391 2477 730 
Q 2766 1069 2766 1631 
L 2766 1759 
L 2194 1759 
z
M 3341 1997 
L 3341 0 
L 2766 0 
L 2766 531 
Q 2569 213 2275 61 
Q 1981 -91 1556 -91 
Q 1019 -91 701 211 
Q 384 513 384 1019 
Q 384 1609 779 1909 
Q 1175 2209 1959 2209 
L 2766 2209 
L 2766 2266 
Q 2766 2663 2505 2880 
Q 2244 3097 1772 3097 
Q 1472 3097 1187 3025 
Q 903 2953 641 2809 
L 641 3341 
Q 956 3463 1253 3523 
Q 1550 3584 1831 3584 
Q 2591 3584 2966 3190 
Q 3341 2797 3341 1997 
z
" transform="scale(0.015625)"/>
       <path id="DejaVuSans-74" d="M 1172 4494 
L 1172 3500 
L 2356 3500 
L 2356 3053 
L 1172 3053 
L 1172 1153 
Q 1172 725 1289 603 
Q 1406 481 1766 481 
L 2356 481 
L 2356 0 
L 1766 0 
Q 1100 0 847 248 
Q 594 497 594 1153 
L 594 3053 
L 172 3053 
L 172 3500 
L 594 3500 
L 594 4494 
L 1172 4494 
z
" transform="scale(0.015625)"/>
       <path id="DejaVuSans-65" d="M 3597 1894 
L 3597 1613 
L 953 1613 
Q 991 1019 1311 708 
Q 1631 397 2203 397 
Q 2534 397 2845 478 
Q 3156 559 3463 722 
L 3463 178 
Q 3153 47 2828 -22 
Q 2503 -91 2169 -91 
Q 1331 -91 842 396 
Q 353 884 353 1716 
Q 353 2575 817 3079 
Q 1281 3584 2069 3584 
Q 2775 3584 3186 3129 
Q 3597 2675 3597 1894 
z
M 3022 2063 
Q 3016 2534 2758 2815 
Q 2500 3097 2075 3097 
Q 1594 3097 1305 2825 
Q 1016 2553 972 2059 
L 3022 2063 
z
" transform="scale(0.015625)"/>
      </defs>
      <use xlink:href="#DejaVuSans-44"/>
      <use xlink:href="#DejaVuSans-61" x="77.001953"/>
      <use xlink:href="#DejaVuSans-74" x="138.28125"/>
      <use xlink:href="#DejaVuSans-65" x="177.490234"/>
     </g>
    </g>
   </g>
   <g id="matplotlib.axis_2">
    <g id="ytick_1">
     <g id="line2d_6">
      <path d="M 46.965625 322.591613 
L 604.965625 322.591613 
" clip-path="url(#p4090d1fe83)" style="fill: none; stroke: #dcdcdc; stroke-width: 0.5; stroke-linecap: square"/>
     </g>
     <g id="line2d_7">
      <defs>
       <path id="mec0ca8d6f1" d="M 0 0 
L -3.5 0 
" style="stroke: #000000; stroke-width: 0.8"/>
      </defs>
      <g>
       <use xlink:href="#mec0ca8d6f1" x="46.965625" y="322.591613" style="stroke: #000000; stroke-width: 0.8"/>
      </g>
     </g>
     <g id="text_7">
      <!-- 60 -->
      <g transform="translate(27.240625 326.390832)scale(0.1 -0.1)">
       <defs>
        <path id="DejaVuSans-36" d="M 2113 2584 
Q 1688 2584 1439 2293 
Q 1191 2003 1191 1497 
Q 1191 994 1439 701 
Q 1688 409 2113 409 
Q 2538 409 2786 701 
Q 3034 994 3034 1497 
Q 3034 2003 2786 2293 
Q 2538 2584 2113 2584 
z
M 3366 4563 
L 3366 3988 
Q 3128 4100 2886 4159 
Q 2644 4219 2406 4219 
Q 1781 4219 1451 3797 
Q 1122 3375 1075 2522 
Q 1259 2794 1537 2939 
Q 1816 3084 2150 3084 
Q 2853 3084 3261 2657 
Q 3669 2231 3669 1497 
Q 3669 778 3244 343 
Q 2819 -91 2113 -91 
Q 1303 -91 875 529 
Q 447 1150 447 2328 
Q 447 3434 972 4092 
Q 1497 4750 2381 4750 
Q 2619 4750 2861 4703 
Q 3103 4656 3366 4563 
z
" transform="scale(0.015625)"/>
       </defs>
       <use xlink:href="#DejaVuSans-36"/>
       <use xlink:href="#DejaVuSans-30" x="63.623047"/>
      </g>
     </g>
    </g>
    <g id="ytick_2">
     <g id="line2d_8">
      <path d="M 46.965625 266.77766 
L 604.965625 266.77766 
" clip-path="url(#p4090d1fe83)" style="fill: none; stroke: #dcdcdc; stroke-width: 0.5; stroke-linecap: square"/>
     </g>
     <g id="line2d_9">
      <g>
       <use xlink:href="#mec0ca8d6f1" x="46.965625" y="266.77766" style="stroke: #000000; stroke-width: 0.8"/>
      </g>
     </g>
     <g id="text_8">
      <!-- 70 -->
      <g transform="translate(27.240625 270.576879)scale(0.1 -0.1)">
       <defs>
        <path id="DejaVuSans-37" d="M 525 4666 
L 3525 4666 
L 3525 4397 
L 1831 0 
L 1172 0 
L 2766 4134 
L 525 4134 
L 525 4666 
z
" transform="scale(0.015625)"/>
       </defs>
       <use xlink:href="#DejaVuSans-37"/>
       <use xlink:href="#DejaVuSans-30" x="63.623047"/>
      </g>
     </g>
    </g>
    <g id="ytick_3">
     <g id="line2d_10">
      <path d="M 46.965625 210.963706 
L 604.965625 210.963706 
" clip-path="url(#p4090d1fe83)" style="fill: none; stroke: #dcdcdc; stroke-width: 0.5; stroke-linecap: square"/>
     </g>
     <g id="line2d_11">
      <g>
       <use xlink:href="#mec0ca8d6f1" x="46.965625" y="210.963706" style="stroke: #000000; stroke-width: 0.8"/>
      </g>
     </g>
     <g id="text_9">
      <!-- 80 -->
      <g transform="translate(27.240625 214.762925)scale(0.1 -0.1)">
       <defs>
        <path id="DejaVuSans-38" d="M 2034 2216 
Q 1584 2216 1326 1975 
Q 1069 1734 1069 1313 
Q 1069 891 1326 650 
Q 1584 409 2034 409 
Q 2484 409 2743 651 
Q 3003 894 3003 1313 
Q 3003 1734 2745 1975 
Q 2488 2216 2034 2216 
z
M 1403 2484 
Q 997 2584 770 2862 
Q 544 3141 544 3541 
Q 544 4100 942 4425 
Q 1341 4750 2034 4750 
Q 2731 4750 3128 4425 
Q 3525 4100 3525 3541 
Q 3525 3141 3298 2862 
Q 3072 2584 2669 2484 
Q 3125 2378 3379 2068 
Q 3634 1759 3634 1313 
Q 3634 634 3220 271 
Q 2806 -91 2034 -91 
Q 1263 -91 848 271 
Q 434 634 434 1313 
Q 434 1759 690 2068 
Q 947 2378 1403 2484 
z
M 1172 3481 
Q 1172 3119 1398 2916 
Q 1625 2713 2034 2713 
Q 2441 2713 2670 2916 
Q 2900 3119 2900 3481 
Q 2900 3844 2670 4047 
Q 2441 4250 2034 4250 
Q 1625 4250 1398 4047 
Q 1172 3844 1172 3481 
z
" transform="scale(0.015625)"/>
       </defs>
       <use xlink:href="#DejaVuSans-38"/>
       <use xlink:href="#DejaVuSans-30" x="63.623047"/>
      </g>
     </g>
    </g>
    <g id="ytick_4">
     <g id="line2d_12">
      <path d="M 46.965625 155.149753 
L 604.965625 155.149753 
" clip-path="url(#p4090d1fe83)" style="fill: none; stroke: #dcdcdc; stroke-width: 0.5; stroke-linecap: square"/>
     </g>
     <g id="line2d_13">
      <g>
       <use xlink:href="#mec0ca8d6f1" x="46.965625" y="155.149753" style="stroke: #000000; stroke-width: 0.8"/>
      </g>
     </g>
     <g id="text_10">
      <!-- 90 -->
      <g transform="translate(27.240625 158.948972)scale(0.1 -0.1)">
       <defs>
        <path id="DejaVuSans-39" d="M 703 97 
L 703 672 
Q 941 559 1184 500 
Q 1428 441 1663 441 
Q 2288 441 2617 861 
Q 2947 1281 2994 2138 
Q 2813 1869 2534 1725 
Q 2256 1581 1919 1581 
Q 1219 1581 811 2004 
Q 403 2428 403 3163 
Q 403 3881 828 4315 
Q 1253 4750 1959 4750 
Q 2769 4750 3195 4129 
Q 3622 3509 3622 2328 
Q 3622 1225 3098 567 
Q 2575 -91 1691 -91 
Q 1453 -91 1209 -44 
Q 966 3 703 97 
z
M 1959 2075 
Q 2384 2075 2632 2365 
Q 2881 2656 2881 3163 
Q 2881 3666 2632 3958 
Q 2384 4250 1959 4250 
Q 1534 4250 1286 3958 
Q 1038 3666 1038 3163 
Q 1038 2656 1286 2365 
Q 1534 2075 1959 2075 
z
" transform="scale(0.015625)"/>
       </defs>
       <use xlink:href="#DejaVuSans-39"/>
       <use xlink:href="#DejaVuSans-30" x="63.623047"/>
      </g>
     </g>
    </g>
    <g id="ytick_5">
     <g id="line2d_14">
      <path d="M 46.965625 99.335799 
L 604.965625 99.335799 
" clip-path="url(#p4090d1fe83)" style="fill: none; stroke: #dcdcdc; stroke-width: 0.5; stroke-linecap: square"/>
     </g>
     <g id="line2d_15">
      <g>
       <use xlink:href="#mec0ca8d6f1" x="46.965625" y="99.335799" style="stroke: #000000; stroke-width: 0.8"/>
      </g>
     </g>
     <g id="text_11">
      <!-- 100 -->
      <g transform="translate(20.878125 103.135018)scale(0.1 -0.1)">
       <use xlink:href="#DejaVuSans-31"/>
       <use xlink:href="#DejaVuSans-30" x="63.623047"/>
       <use xlink:href="#DejaVuSans-30" x="127.246094"/>
      </g>
     </g>
    </g>
    <g id="ytick_6">
     <g id="line2d_16">
      <path d="M 46.965625 43.521846 
L 604.965625 43.521846 
" clip-path="url(#p4090d1fe83)" style="fill: none; stroke: #dcdcdc; stroke-width: 0.5; stroke-linecap: square"/>
     </g>
     <g id="line2d_17">
      <g>
       <use xlink:href="#mec0ca8d6f1" x="46.965625" y="43.521846" style="stroke: #000000; stroke-width: 0.8"/>
      </g>
     </g>
     <g id="text_12">
      <!-- 110 -->
      <g transform="translate(20.878125 47.321065)scale(0.1 -0.1)">
       <use xlink:href="#DejaVuSans-31"/>
       <use xlink:href="#DejaVuSans-31" x="63.623047"/>
       <use xlink:href="#DejaVuSans-30" x="127.246094"/>
      </g>
     </g>
    </g>
    <g id="text_13">
     <!-- Price (USD) -->
     <g transform="translate(14.798437 217.01)rotate(-90)scale(0.1 -0.1)">
      <defs>
       <path id="DejaVuSans-50" d="M 1259 4147 
L 1259 2394 
L 2053 2394 
Q 2494 2394 2734 2622 
Q 2975 2850 2975 3272 
Q 2975 3691 2734 3919 
Q 2494 4147 2053 4147 
L 1259 4147 
z
M 628 4666 
L 2053 4666 
Q 2838 4666 3239 4311 
Q 3641 3956 3641 3272 
Q 3641 2581 3239 2228 
Q 2838 1875 2053 1875 
L 1259 1875 
L 1259 0 
L 628 0 
L 628 4666 
z
" transform="scale(0.015625)"/>
       <path id="DejaVuSans-72" d="M 2631 2963 
Q 2534 3019 2420 3045 
Q 2306 3072 2169 3072 
Q 1681 3072 1420 2755 
Q 1159 2438 1159 1844 
L 1159 0 
L 581 0 
L 581 3500 
L 1159 3500 
L 1159 2956 
Q 1341 3275 1631 3429 
Q 1922 3584 2338 3584 
Q 2397 3584 2469 3576 
Q 2541 3569 2628 3553 
L 2631 2963 
z
" transform="scale(0.015625)"/>
       <path id="DejaVuSans-69" d="M 603 3500 
L 1178 3500 
L 1178 0 
L 603 0 
L 603 3500 
z
M 603 4863 
L 1178 4863 
L 1178 4134 
L 603 4134 
L 603 4863 
z
" transform="scale(0.015625)"/>
       <path id="DejaVuSans-63" d="M 3122 3366 
L 3122 2828 
Q 2878 2963 2633 3030 
Q 2388 3097 2138 3097 
Q 1578 3097 1268 2742 
Q 959 2388 959 1747 
Q 959 1106 1268 751 
Q 1578 397 2138 397 
Q 2388 397 2633 464 
Q 2878 531 3122 666 
L 3122 134 
Q 2881 22 2623 -34 
Q 2366 -91 2075 -91 
Q 1284 -91 818 406 
Q 353 903 353 1747 
Q 353 2603 823 3093 
Q 1294 3584 2113 3584 
Q 2378 3584 2631 3529 
Q 2884 3475 3122 3366 
z
" transform="scale(0.015625)"/>
       <path id="DejaVuSans-20" transform="scale(0.015625)"/>
       <path id="DejaVuSans-28" d="M 1984 4856 
Q 1566 4138 1362 3434 
Q 1159 2731 1159 2009 
Q 1159 1288 1364 580 
Q 1569 -128 1984 -844 
L 1484 -844 
Q 1016 -109 783 600 
Q 550 1309 550 2009 
Q 550 2706 781 3412 
Q 1013 4119 1484 4856 
L 1984 4856 
z
" transform="scale(0.015625)"/>
       <path id="DejaVuSans-55" d="M 556 4666 
L 1191 4666 
L 1191 1831 
Q 1191 1081 1462 751 
Q 1734 422 2344 422 
Q 2950 422 3222 751 
Q 3494 1081 3494 1831 
L 3494 4666 
L 4128 4666 
L 4128 1753 
Q 4128 841 3676 375 
Q 3225 -91 2344 -91 
Q 1459 -91 1007 375 
Q 556 841 556 1753 
L 556 4666 
z
" transform="scale(0.015625)"/>
       <path id="DejaVuSans-53" d="M 3425 4513 
L 3425 3897 
Q 3066 4069 2747 4153 
Q 2428 4238 2131 4238 
Q 1616 4238 1336 4038 
Q 1056 3838 1056 3469 
Q 1056 3159 1242 3001 
Q 1428 2844 1947 2747 
L 2328 2669 
Q 3034 2534 3370 2195 
Q 3706 1856 3706 1288 
Q 3706 609 3251 259 
Q 2797 -91 1919 -91 
Q 1588 -91 1214 -16 
Q 841 59 441 206 
L 441 856 
Q 825 641 1194 531 
Q 1563 422 1919 422 
Q 2459 422 2753 634 
Q 3047 847 3047 1241 
Q 3047 1584 2836 1778 
Q 2625 1972 2144 2069 
L 1759 2144 
Q 1053 2284 737 2584 
Q 422 2884 422 3419 
Q 422 4038 858 4394 
Q 1294 4750 2059 4750 
Q 2388 4750 2728 4690 
Q 3069 4631 3425 4513 
z
" transform="scale(0.015625)"/>
       <path id="DejaVuSans-29" d="M 513 4856 
L 1013 4856 
Q 1481 4119 1714 3412 
Q 1947 2706 1947 2009 
Q 1947 1309 1714 600 
Q 1481 -109 1013 -844 
L 513 -844 
Q 928 -128 1133 580 
Q 1338 1288 1338 2009 
Q 1338 2731 1133 3434 
Q 928 4138 513 4856 
z
" transform="scale(0.015625)"/>
      </defs>
      <use xlink:href="#DejaVuSans-50"/>
      <use xlink:href="#DejaVuSans-72" x="58.552734"/>
      <use xlink:href="#DejaVuSans-69" x="99.666016"/>
      <use xlink:href="#DejaVuSans-63" x="127.449219"/>
      <use xlink:href="#DejaVuSans-65" x="182.429688"/>
      <use xlink:href="#DejaVuSans-20" x="243.953125"/>
      <use xlink:href="#DejaVuSans-28" x="275.740234"/>
      <use xlink:href="#DejaVuSans-55" x="314.753906"/>
      <use xlink:href="#DejaVuSans-53" x="387.947266"/>
      <use xlink:href="#DejaVuSans-44" x="451.423828"/>
      <use xlink:href="#DejaVuSans-29" x="528.425781"/>
     </g>
    </g>
   </g>
   <g id="line2d_18">
    <path d="M 72.329261 268.340451 
L 72.560787 269.289288 
L 72.792313 269.233474 
L 73.023838 265.884637 
M 76.496723 251.205567 
L 76.728249 251.81952 
M 77.1913 246.126497 
L 77.422826 243.838125 
L 77.654352 242.967427 
L 78.117403 245.679985 
L 78.580454 237.307892 
L 78.81198 240.65673 
M 86.915378 290.666032 
L 87.146904 285.69859 
L 87.378429 290.889288 
L 88.073006 271.521846 
L 88.304532 273.921846 
L 88.536058 274.759055 
L 88.767583 268.89859 
M 98.02861 294.963706 
L 98.260136 294.405567 
M 103.816752 288.935799 
L 104.048277 289.661381 
L 104.279803 287.986962 
L 104.511328 292.005567 
L 104.742854 291.949753 
M 117.013714 296.359055 
L 117.24524 296.079985 
M 117.708291 295.186962 
L 117.939817 297.140451 
L 118.171343 297.084637 
M 121.644228 287.540451 
L 121.875753 290.386962 
L 122.107279 287.317195 
L 122.338805 289.326497 
L 122.57033 283.745102 
L 122.801856 281.735799 
L 123.033382 287.707892 
L 123.264907 283.242776 
L 123.496433 284.024172 
L 124.422536 273.363706 
L 124.654061 273.140451 
L 124.885587 271.689288 
M 131.368305 271.410218 
L 131.599831 268.954404 
M 133.915088 261.754404 
L 134.146613 264.154404 
L 134.378139 261.810218 
M 134.84119 254.554404 
L 135.072716 256.89859 
L 135.304242 254.610218 
L 135.535767 253.717195 
L 135.767293 255.335799 
L 135.998819 253.661381 
L 136.230344 255.224172 
L 136.46187 252.09859 
L 136.693396 251.81952 
M 147.11205 238.535799 
L 147.343576 240.935799 
M 151.742564 239.428823 
L 151.974089 240.433474 
M 152.437141 241.828823 
L 152.668666 241.996265 
L 152.900192 241.773009 
L 153.363243 236.693939 
L 153.594769 237.363706 
M 160.540539 257.45673 
L 160.772065 259.242776 
L 161.00359 253.884637 
L 161.235116 254.442776 
L 161.466642 256.452078 
L 161.698167 256.117195 
L 161.929693 256.786962 
L 162.161219 254.275334 
L 162.392744 253.214869 
L 162.62427 256.396265 
L 162.855796 247.689288 
L 163.087321 247.689288 
L 163.550373 246.907892 
L 163.781898 240.266032 
L 164.013424 241.884637 
L 164.476475 240.712544 
L 164.939526 230.49859 
L 165.171052 230.386962 
M 169.106988 219.614869 
L 169.57004 215.763706 
L 169.801565 219.726497 
L 170.033091 218.275334 
M 173.737502 212.191613 
L 173.969027 212.805567 
L 174.200553 202.591613 
L 174.432079 199.410218 
L 174.663604 199.633474 
L 174.89513 198.238125 
L 175.358181 201.41952 
L 175.589707 199.800916 
L 175.821233 197.289288 
L 176.052758 197.624172 
L 176.284284 205.382311 
L 176.51581 198.573009 
L 176.747335 196.061381 
L 176.978861 191.484637 
L 177.210387 184.340451 
L 177.441912 182.554404 
M 204.761941 240.433474 
L 204.993466 240.600916 
L 205.224992 233.735799 
M 219.116532 237.252078 
L 219.348057 243.782311 
L 219.811109 235.85673 
L 220.042634 233.791613 
L 220.27416 230.721846 
M 240.648418 255.614869 
L 240.879944 252.824172 
L 241.11147 258.573009 
L 241.342995 253.996265 
L 241.574521 246.573009 
L 242.500624 232.452078 
L 242.732149 233.568358 
L 242.963675 234.070683 
L 243.195201 225.41952 
L 243.658252 229.326497 
M 256.623689 198.070683 
L 256.855215 203.205567 
L 257.08674 199.57766 
L 257.318266 199.521846 
M 257.781317 193.828823 
L 258.012843 192.935799 
L 258.244369 190.424172 
L 258.475894 190.479985 
M 260.3281 184.731148 
L 260.559625 184.61952 
L 260.791151 185.847427 
L 261.022677 181.382311 
M 261.485728 179.484637 
L 261.717254 178.814869 
L 261.948779 181.270683 
L 262.180305 181.996265 
L 262.411831 179.596265 
L 262.643356 183.782311 
L 262.874882 183.503241 
L 263.337933 167.652078 
M 286.258974 218.275334 
L 286.490499 216.991613 
L 286.722025 218.331148 
L 286.953551 210.628823 
M 297.835257 203.261381 
L 298.066783 197.847427 
L 298.298308 195.335799 
L 298.529834 196.117195 
L 298.76136 197.735799 
M 305.475604 199.745102 
L 305.70713 203.317195 
L 305.938655 199.968358 
L 306.170181 200.470683 
L 306.401706 204.600916 
L 307.327809 196.507892 
M 316.35731 196.117195 
L 316.588836 199.01952 
L 316.820361 198.740451 
M 322.608503 202.368358 
L 322.840029 199.800916 
L 323.071554 203.986962 
L 323.30308 204.489288 
L 323.534606 198.907892 
M 329.785798 198.740451 
L 330.017324 193.828823 
M 335.342414 197.066032 
L 335.57394 194.386962 
M 336.036991 197.791613 
L 336.268517 194.666032 
M 340.435979 195.168358 
L 340.667505 196.507892 
L 340.89903 200.303241 
L 341.130556 198.238125 
L 341.362082 198.628823 
M 360.11566 247.800916 
L 360.347186 248.079985 
M 368.450584 240.321846 
L 368.68211 244.173009 
L 368.913635 244.507892 
L 369.145161 242.945102 
M 372.618046 231.335799 
L 372.849572 232.61952 
L 373.081097 234.740451 
L 373.312623 234.182311 
L 373.544149 229.159055 
L 373.775674 228.545102 
M 377.248559 216.600916 
L 377.480085 212.414869 
L 377.711611 212.693939 
L 377.943136 216.65673 
L 378.174662 217.103241 
M 384.425855 207.949753 
L 384.657381 207.670683 
M 408.272998 257.066032 
L 408.504524 243.670683 
L 408.736049 243.726497 
L 409.199101 241.270683 
L 409.430626 250.312544 
L 409.662152 247.466032 
L 410.125203 238.591613 
L 410.356729 229.940451 
L 410.588255 230.554404 
L 410.81978 224.749753 
L 411.051306 223.521846 
L 411.282832 224.973009 
L 411.745883 217.773009 
L 412.208934 214.145102 
L 412.44046 215.484637 
L 412.671986 215.428823 
L 412.903511 213.921846 
L 413.366563 203.986962 
L 413.598088 200.414869 
M 419.38623 188.917195 
L 419.617756 189.921846 
L 419.849281 189.41952 
M 432.583193 170.833474 
L 432.814718 177.307892 
L 433.509295 171.335799 
L 433.740821 173.512544 
M 452.957451 141.921846 
L 453.188977 144.09859 
L 453.420502 139.131148 
M 468.46967 147.614869 
L 468.701196 146.052078 
L 468.932722 146.331148 
M 471.247978 124.731148 
L 471.479504 127.29859 
L 471.71103 125.17766 
M 472.174081 126.740451 
L 472.405607 133.214869 
L 472.637132 131.484637 
M 480.277479 324.37766 
L 480.509005 339.838125 
L 480.740531 311.261381 
M 488.612403 263.763706 
L 488.843929 273.307892 
L 489.075454 271.968358 
L 489.30698 273.475334 
L 489.538506 250.759055 
L 489.770031 256.228823 
L 490.001557 252.65673 
M 499.494109 223.633474 
L 499.725635 222.573009 
M 515.700906 222.461381 
L 515.932431 232.842776 
L 516.163957 227.149753 
L 516.395483 229.996265 
L 516.627008 219.782311 
M 526.351086 198.852078 
L 526.582612 198.182311 
M 527.508714 199.968358 
L 527.74024 198.907892 
M 529.129394 179.875334 
L 529.36092 178.759055 
M 530.518548 183.279985 
L 530.750074 172.452078 
L 530.981599 169.549753 
L 531.213125 170.77766 
M 538.390421 152.414869 
L 538.621946 148.842776 
L 538.853472 149.568358 
L 539.084998 152.414869 
L 539.316523 150.238125 
L 539.548049 139.29859 
L 539.779575 142.312544 
L 540.0111 141.642776 
L 540.242626 144.768358 
L 540.474152 135.447427 
L 540.937203 132.09859 
L 541.168729 131.707892 
L 541.400254 133.661381 
L 541.63178 134.275334 
L 542.094831 128.582311 
L 542.326357 131.373009 
M 546.725345 115.131148 
L 546.95687 128.861381 
L 547.419922 115.633474 
L 547.651447 115.075334 
L 547.882973 114.963706 
L 548.114498 116.693939 
L 548.346024 110.610218 
L 548.57755 111.168358 
L 548.809075 104.359055 
L 549.040601 104.526497 
L 549.272127 102.070683 
L 549.503652 103.354404 
M 561.311461 69.586962 
L 561.542987 66.126497 
L 561.774513 64.842776 
L 562.006038 61.605567 
L 562.237564 62.331148 
M 569.646385 89.400916 
L 569.877911 81.363706 
L 570.109436 81.252078 
L 570.340962 85.214869 
L 570.572488 79.745102 
L 570.804013 78.182311 
L 571.035539 83.652078 
L 571.267065 82.200916 
L 571.730116 70.424172 
L 571.961642 63.279985 
M 579.601989 71.540451 
" clip-path="url(#p4090d1fe83)" style="fill: none; stroke: #00ff7f; stroke-linecap: square"/>
   </g>
   <g id="line2d_19">
    <path d="M 79.969608 231.503241 
L 80.201134 234.293939 
L 80.895711 229.159055 
L 81.127237 224.917195 
L 81.358762 227.149753 
L 81.590288 224.749753 
L 81.821814 223.745102 
L 82.053339 221.289288 
L 82.516391 239.875334 
M 90.619789 258.628823 
L 90.851314 258.349753 
L 91.08284 256.89859 
L 91.314366 253.493939 
L 91.545891 253.773009 
L 91.777417 252.545102 
L 92.008943 252.991613 
L 92.240468 260.861381 
L 92.70352 259.912544 
L 92.935045 262.870683 
L 93.166571 264.042776 
L 93.398097 270.461381 
L 93.861148 273.866032 
M 95.018776 272.973009 
L 95.250302 275.707892 
L 95.481828 280.954404 
M 101.269969 270.796265 
L 101.501495 271.131148 
M 106.826585 266.331148 
L 107.058111 265.605567 
L 107.289636 265.717195 
L 107.521162 260.917195 
L 108.447265 271.633474 
L 108.67879 269.624172 
L 108.910316 268.89859 
L 109.141842 275.261381 
L 109.373367 275.81952 
M 155.446974 229.103241 
L 155.6785 230.052078 
M 156.373077 228.991613 
L 156.604603 226.703241 
L 156.836128 226.647427 
L 157.067654 225.531148 
L 157.29918 227.149753 
L 157.530705 222.573009 
L 157.762231 223.01952 
L 157.993757 225.69859 
L 158.225282 232.507892 
L 158.456808 232.173009 
M 188.78667 171.726497 
L 189.018195 172.340451 
M 191.564978 186.796265 
L 191.796503 196.563706 
L 192.028029 196.89859 
M 192.49108 196.507892 
L 192.722606 199.968358 
L 192.954132 198.796265 
M 197.816171 204.879985 
L 198.510748 208.005567 
M 210.550082 217.047427 
L 210.781608 219.949753 
M 212.633813 208.117195 
L 212.865339 206.889288 
L 213.096864 209.568358 
M 234.1657 207.000916 
L 234.397225 208.563706 
M 268.199972 141.475334 
L 268.431498 140.359055 
M 276.766422 173.512544 
L 276.997947 164.861381 
L 277.460999 162.182311 
L 277.692524 167.428823 
L 277.92405 163.410218 
M 280.470832 191.707892 
L 280.702358 193.773009 
L 280.933884 192.768358 
M 300.613565 189.921846 
L 300.845091 183.949753 
L 301.076616 185.512544 
M 301.539668 180.824172 
L 301.771193 178.312544 
L 302.002719 181.605567 
L 302.234245 183.05673 
L 302.46577 185.624172 
M 309.643066 181.438125 
L 309.874591 180.154404 
L 310.106117 180.824172 
L 310.337643 180.768358 
L 310.569168 182.49859 
M 311.03222 185.791613 
L 311.263745 189.307892 
M 319.830195 183.335799 
L 320.061721 184.452078 
M 338.352248 188.470683 
L 338.583774 185.45673 
M 349.233954 179.484637 
L 349.697005 195.05673 
M 350.160057 200.749753 
L 350.854634 194.49859 
L 351.086159 194.331148 
M 354.559044 208.005567 
L 354.79057 210.349753 
L 355.022096 211.131148 
M 390.677048 191.261381 
L 390.908573 189.921846 
L 391.140099 195.000916 
M 392.066202 190.479985 
L 392.297727 193.438125 
L 392.529253 191.931148 
M 393.22383 195.279985 
L 393.455356 195.447427 
L 393.686881 210.014869 
M 404.568588 204.210218 
L 405.031639 197.45673 
L 405.263165 204.266032 
L 405.49469 193.047427 
L 405.726216 199.131148 
L 405.957742 202.089288 
L 406.189267 201.866032 
L 406.420793 208.89859 
M 455.967285 129.866032 
L 456.19881 125.847427 
L 456.430336 127.410218 
L 456.661862 126.238125 
L 456.893387 127.57766 
M 475.41544 103.354404 
L 475.646966 101.735799 
M 477.03612 149.233474 
L 477.267646 150.405567 
L 477.499171 131.261381 
M 512.691072 192.266032 
L 512.922598 194.107892 
L 513.154123 191.931148 
M 565.247398 38.49859 
L 565.478923 38.386962 
L 565.710449 45.363706 
L 565.941975 42.293939 
L 566.405026 63.614869 
M 567.099603 58.759055 
" clip-path="url(#p4090d1fe83)" style="fill: none; stroke: #ff4500; stroke-linecap: square"/>
   </g>
   <g id="line2d_20">
    <path d="M 73.255364 265.159055 
L 73.949941 261.41952 
M 74.412992 256.396265 
L 74.644518 254.21952 
L 74.876044 250.982311 
L 75.107569 250.926497 
L 75.570621 246.014869 
L 75.802146 245.010218 
M 79.043506 237.921846 
L 79.506557 234.070683 
L 79.738083 231.726497 
M 82.747916 240.935799 
L 82.979442 244.507892 
L 83.210968 253.270683 
L 83.674019 262.424172 
L 83.905545 260.191613 
L 84.368596 268.954404 
L 84.600121 262.703241 
L 84.831647 262.647427 
L 85.063173 266.052078 
L 85.526224 277.103241 
L 85.75775 267.224172 
L 86.452327 262.647427 
L 86.683852 274.759055 
M 88.999109 271.466032 
L 89.230635 273.307892 
L 89.46216 272.917195 
L 89.693686 267.447427 
L 89.925212 267.279985 
M 94.092674 274.145102 
L 94.555725 276.489288 
L 94.787251 276.321846 
M 95.713353 282.405567 
L 96.40793 303.05673 
L 96.639456 295.01952 
L 96.870982 295.85673 
L 97.102507 293.679985 
L 97.334033 289.884637 
L 97.565559 290.945102 
L 97.797084 292.731148 
M 98.491661 297.475334 
L 98.723187 300.600916 
L 98.954713 297.531148 
L 99.186238 301.326497 
L 99.64929 288.266032 
L 99.880815 288.545102 
L 100.112341 285.586962 
L 100.343867 287.986962 
L 100.575392 286.926497 
L 100.806918 283.242776 
L 101.038444 283.466032 
M 101.733021 277.438125 
L 101.964546 283.466032 
L 102.196072 286.312544 
L 102.427598 285.084637 
L 102.659123 282.796265 
L 102.890649 284.359055 
M 103.3537 282.963706 
L 103.585226 282.405567 
M 104.97438 282.628823 
L 105.205905 278.889288 
L 105.437431 278.666032 
L 105.668957 280.061381 
L 106.132008 267.168358 
L 106.363534 267.559055 
L 106.595059 269.903241 
M 109.604893 280.563706 
L 109.836419 285.642776 
L 110.067944 285.252078 
L 110.29947 286.926497 
L 110.994047 280.507892 
L 111.457098 285.475334 
L 111.688624 289.996265 
L 111.92015 287.149753 
L 112.614727 291.614869 
L 112.846252 288.489288 
L 113.309304 294.014869 
L 113.540829 294.740451 
L 114.003881 292.117195 
L 114.466932 287.707892 
L 114.698458 288.65673 
L 114.929983 297.140451 
L 115.161509 299.149753 
L 115.62456 297.028823 
L 115.856086 295.354404 
L 116.087612 288.935799 
L 116.319137 294.014869 
L 116.550663 291.782311 
L 116.782189 291.05673 
M 118.402868 295.075334 
L 118.86592 291.614869 
L 119.097445 293.400916 
L 119.328971 293.400916 
L 119.560497 288.433474 
L 119.792022 290.889288 
L 120.255074 285.41952 
L 120.486599 284.749753 
L 120.718125 286.926497 
L 120.949651 283.57766 
L 121.181176 281.959055 
L 121.412702 282.852078 
M 125.117112 270.182311 
L 125.348638 268.284637 
L 125.580164 268.507892 
L 125.811689 269.345102 
L 126.737792 265.270683 
L 126.969318 266.331148 
L 127.200843 262.703241 
L 127.432369 262.479985 
L 127.663895 256.786962 
L 127.89542 257.289288 
L 128.589997 267.000916 
L 128.821523 264.545102 
L 129.053049 263.373009 
L 129.284574 265.214869 
L 129.979151 262.200916 
M 130.442203 269.010218 
L 130.673728 265.438125 
L 130.905254 268.005567 
L 131.13678 267.000916 
M 131.831357 266.610218 
L 132.294408 261.531148 
L 132.525934 261.196265 
L 132.757459 262.033474 
L 133.220511 259.410218 
L 133.452036 256.954404 
L 133.683562 257.959055 
M 136.924921 250.368358 
L 137.156447 248.638125 
L 137.387973 248.749753 
L 137.619498 247.912544 
L 137.851024 249.363706 
L 138.08255 244.452078 
L 138.314075 243.503241 
L 138.545601 243.224172 
L 138.777127 241.940451 
L 139.008652 244.61952 
L 139.240178 244.452078 
M 139.703229 240.879985 
L 140.629332 247.29859 
L 141.092383 240.712544 
L 141.323909 243.335799 
L 141.555435 242.49859 
L 142.018486 239.317195 
L 142.250012 239.540451 
L 142.481537 238.703241 
L 142.713063 231.000916 
L 142.944589 232.786962 
L 143.40764 241.047427 
L 143.870691 243.224172 
L 144.102217 242.163706 
L 144.333743 244.284637 
L 144.565268 243.224172 
L 145.259845 235.410218 
L 145.491371 237.140451 
L 145.722896 240.712544 
M 146.185948 241.940451 
L 146.417473 238.759055 
L 146.648999 239.763706 
L 146.880525 237.531148 
M 147.575102 239.707892 
L 148.269679 235.912544 
L 148.501204 235.85673 
L 148.73273 233.791613 
L 148.964256 233.512544 
L 149.195781 232.173009 
L 149.427307 234.349753 
M 149.890358 231.726497 
L 150.35341 229.605567 
L 150.584935 230.163706 
L 150.816461 233.121846 
L 151.047987 230.163706 
L 151.279512 232.228823 
L 151.511038 233.121846 
M 153.826295 231.279985 
L 154.05782 231.559055 
M 154.520872 227.81952 
L 154.752397 226.926497 
L 154.983923 224.973009 
L 155.215449 225.642776 
M 155.910026 229.214869 
L 156.141551 228.935799 
M 158.688334 245.233474 
L 158.919859 247.242776 
L 159.151385 243.224172 
M 159.614436 246.963706 
L 159.845962 246.461381 
L 160.309013 252.65673 
M 165.402578 227.093939 
L 165.634103 227.428823 
L 166.097155 222.349753 
L 166.32868 224.805567 
L 166.560206 222.070683 
L 167.023257 212.749753 
L 167.254783 212.024172 
L 167.486309 212.973009 
L 167.717834 216.37766 
L 167.94936 216.935799 
L 168.180886 213.307892 
L 168.412411 215.038125 
L 168.643937 218.386962 
L 168.875463 215.986962 
M 170.264617 215.540451 
L 170.496142 213.97766 
L 170.727668 213.196265 
L 170.959194 208.89859 
L 171.190719 207.782311 
L 171.422245 208.89859 
L 171.653771 206.107892 
L 171.885296 206.554404 
L 172.116822 205.382311 
L 172.348348 207.670683 
L 172.811399 202.759055 
L 173.042925 203.205567 
L 173.27445 202.368358 
L 173.505976 206.331148 
M 177.673438 182.331148 
L 177.904964 178.703241 
L 178.136489 179.428823 
L 178.368015 175.29859 
L 178.599541 174.182311 
L 178.831066 169.996265 
L 179.062592 173.847427 
L 179.294118 174.182311 
L 179.525643 165.586962 
L 179.757169 166.982311 
L 179.988695 162.852078 
L 180.22022 162.684637 
L 180.451746 165.97766 
L 180.683272 164.247427 
L 180.914797 174.405567 
L 181.146323 175.689288 
L 181.377849 171.503241 
L 181.609374 173.512544 
M 182.072426 181.940451 
L 182.303951 185.289288 
L 182.535477 183.782311 
L 182.767003 185.17766 
L 182.998528 179.540451 
L 183.230054 182.721846 
L 183.46158 183.893939 
L 183.693105 179.484637 
L 183.924631 189.754404 
L 184.387682 181.438125 
L 184.619208 190.814869 
L 184.850734 190.703241 
L 185.082259 195.782311 
L 185.54531 189.475334 
L 185.776836 190.368358 
L 186.008362 194.833474 
L 186.239887 193.493939 
L 186.471413 208.89859 
L 186.702939 205.326497 
L 186.934464 205.661381 
L 187.16599 205.270683 
L 187.397516 197.400916 
L 187.629041 197.679985 
L 187.860567 192.935799 
L 188.092093 193.103241 
L 188.323618 183.391613 
L 188.555144 183.614869 
M 189.249721 176.470683 
L 189.481247 187.57766 
L 189.712772 190.033474 
L 189.944298 189.41952 
M 190.407349 186.907892 
L 190.638875 187.57766 
L 190.870401 184.005567 
M 193.185657 200.917195 
L 193.648709 199.466032 
L 194.343286 196.340451 
L 194.806337 197.847427 
L 195.269388 214.424172 
L 195.500914 211.075334 
L 195.73244 210.628823 
L 195.963965 220.340451 
L 196.195491 221.17766 
L 196.658542 208.284637 
L 196.890068 215.038125 
L 197.121594 213.69859 
L 197.353119 217.940451 
L 197.584645 209.45673 
M 198.742273 210.126497 
L 198.973799 210.684637 
L 199.205325 214.089288 
L 199.43685 209.735799 
L 199.668376 210.628823 
L 199.899902 215.763706 
L 200.131427 210.349753 
L 200.362953 214.479985 
L 200.594479 220.842776 
L 200.826004 221.679985 
L 201.05753 226.535799 
L 201.289056 227.317195 
L 201.520581 230.442776 
L 201.983633 224.805567 
L 202.215158 225.196265 
L 202.446684 227.540451 
L 202.909735 220.396265 
L 203.141261 214.368358 
L 204.530415 233.847427 
M 205.456517 232.675334 
L 205.688043 229.996265 
L 205.919569 223.29859 
L 206.38262 227.038125 
L 206.614146 223.466032 
L 207.077197 221.959055 
L 207.308723 221.233474 
L 207.540248 217.717195 
L 207.771774 219.279985 
L 208.0033 218.77766 
L 208.234825 220.005567 
L 208.466351 218.107892 
L 208.697877 223.57766 
L 208.929402 221.735799 
L 209.160928 220.954404 
L 209.392454 220.675334 
L 209.623979 217.828823 
L 209.855505 220.005567 
L 210.318556 213.810218 
M 211.013133 219.335799 
L 211.244659 217.717195 
L 211.476185 219.112544 
L 211.70771 216.210218 
M 212.170762 214.312544 
L 212.402287 211.912544 
M 213.32839 212.861381 
L 213.559916 221.121846 
L 214.022967 252.991613 
L 214.486018 234.014869 
L 214.717544 234.628823 
L 215.180595 252.154404 
L 215.412121 247.968358 
L 215.643647 246.852078 
L 215.875172 254.49859 
L 216.106698 248.414869 
L 216.338224 253.103241 
L 216.569749 252.210218 
L 216.801275 244.452078 
L 217.032801 244.228823 
L 217.727378 230.889288 
L 217.958903 231.614869 
L 218.190429 227.986962 
M 218.65348 234.963706 
L 218.885006 238.926497 
M 220.505686 223.521846 
L 220.737211 224.526497 
L 221.200263 215.875334 
L 221.431788 216.600916 
L 221.663314 213.475334 
L 222.126365 220.228823 
L 222.820942 204.65673 
M 223.283994 206.49859 
L 223.515519 202.535799 
L 223.747045 206.945102 
M 224.210096 207.224172 
L 224.441622 206.833474 
L 224.673148 207.447427 
L 224.904673 211.57766 
L 225.136199 202.089288 
L 225.367724 206.666032 
L 225.59925 208.675334 
L 225.830776 206.889288 
L 226.293827 228.37766 
L 226.525353 223.466032 
L 226.756878 222.963706 
L 226.988404 225.921846 
L 227.21993 230.833474 
L 227.451455 225.921846 
L 227.682981 225.921846 
L 227.914507 222.126497 
L 228.146032 220.786962 
L 228.377558 215.317195 
L 228.609084 214.368358 
L 228.840609 216.712544 
L 229.072135 214.926497 
L 229.303661 211.075334 
L 229.535186 214.368358 
L 229.766712 208.228823 
L 230.229763 224.303241 
L 230.461289 216.042776 
L 230.692815 217.270683 
L 230.92434 217.661381 
L 231.618917 224.024172 
L 231.850443 222.014869 
L 232.081969 217.270683 
L 232.313494 208.675334 
L 232.54502 210.907892 
L 232.776546 216.09859 
L 233.239597 212.582311 
L 233.471123 214.200916 
L 233.702648 214.200916 
L 233.934174 211.745102 
M 234.628751 212.470683 
L 234.860277 217.828823 
L 235.091802 209.345102 
L 235.323328 210.573009 
L 235.786379 225.140451 
L 236.017905 222.684637 
L 236.249431 225.586962 
L 236.480956 231.782311 
L 236.712482 232.786962 
L 236.944008 235.689288 
L 237.175533 233.45673 
L 237.407059 244.842776 
L 237.638585 242.554404 
L 237.87011 231.000916 
L 238.101636 233.679985 
L 238.333162 224.805567 
L 238.564687 233.17766 
L 238.796213 236.414869 
L 239.027739 227.763706 
L 239.259264 227.038125 
L 239.49079 230.945102 
L 239.722316 228.09859 
L 239.953841 227.875334 
L 240.416893 248.079985 
M 243.889778 217.270683 
L 244.352829 211.745102 
L 244.584355 211.689288 
L 244.81588 210.517195 
M 245.741983 204.321846 
L 245.973508 204.266032 
L 246.205034 204.042776 
L 246.668085 192.09859 
L 246.899611 194.107892 
L 247.131137 203.373009 
L 247.362662 203.373009 
L 247.594188 205.828823 
L 247.825714 205.661381 
L 248.057239 201.586962 
L 248.288765 191.707892 
L 248.520291 192.600916 
L 248.751816 189.754404 
L 249.214868 191.038125 
L 249.446393 194.107892 
L 249.677919 192.991613 
L 249.909445 195.893939 
L 250.14097 193.326497 
L 250.372496 194.275334 
L 250.604022 190.926497 
L 251.067073 195.559055 
L 251.530124 189.866032 
L 251.76165 189.642776 
M 252.224701 205.773009 
L 252.687753 197.066032 
L 252.919278 195.279985 
L 253.150804 195.559055 
L 253.38233 196.507892 
L 253.613855 200.749753 
L 253.845381 193.661381 
L 254.076907 192.935799 
L 254.308432 186.293939 
L 254.539958 184.954404 
L 255.003009 174.517195 
L 255.234535 174.573009 
L 255.466061 184.89859 
L 255.697586 182.163706 
L 255.929112 186.405567 
L 256.160638 181.940451 
L 256.392163 190.759055 
M 258.70742 190.089288 
L 259.170471 185.791613 
L 259.401997 189.41952 
L 259.865048 183.559055 
L 260.096574 182.49859 
M 264.03251 156.935799 
L 264.264036 159.112544 
L 264.495562 164.247427 
L 264.727087 156.266032 
L 264.958613 152.917195 
L 265.190139 152.973009 
L 265.421664 150.182311 
L 265.65319 154.703241 
L 265.884715 154.535799 
L 266.116241 153.196265 
L 266.347767 150.740451 
L 266.579292 150.684637 
L 266.810818 149.679985 
L 267.042344 145.214869 
L 267.273869 146.163706 
L 267.505395 148.675334 
L 267.736921 152.638125 
L 267.968446 147.949753 
M 268.663023 148.61952 
L 269.126075 153.642776 
L 269.3576 153.307892 
L 269.589126 152.414869 
L 269.820652 149.679985 
L 270.052177 150.238125 
L 270.283703 155.986962 
L 270.515229 153.866032 
L 270.746754 154.368358 
L 270.97828 160.396265 
L 271.209806 158.386962 
L 271.441331 160.228823 
L 271.672857 163.410218 
L 271.904383 160.731148 
L 272.135908 160.452078 
L 272.367434 162.628823 
L 272.59896 160.396265 
L 272.830485 165.307892 
L 273.062011 160.452078 
L 273.293537 161.400916 
L 273.525062 160.89859 
L 273.756588 162.126497 
L 274.451165 150.963706 
L 274.682691 157.159055 
L 274.914216 176.973009 
L 275.145742 171.279985 
L 275.377268 186.740451 
L 275.840319 183.447427 
L 276.071845 183.224172 
L 276.30337 178.926497 
L 276.534896 179.652078 
M 278.155576 169.996265 
L 278.387101 173.345102 
L 279.081678 198.349753 
L 279.313204 198.182311 
L 279.54473 198.963706 
L 279.776255 196.117195 
L 280.007781 200.582311 
L 280.239307 195.335799 
M 281.165409 189.810218 
L 281.396935 188.805567 
L 281.628461 189.866032 
L 281.859986 191.596265 
L 282.091512 190.535799 
L 282.323038 191.373009 
L 282.554563 197.45673 
L 282.786089 209.512544 
L 283.017615 208.452078 
L 283.24914 201.140451 
L 283.712192 217.605567 
L 283.943717 221.010218 
L 284.175243 217.549753 
L 284.406769 209.847427 
L 284.638294 207.503241 
L 285.101346 221.735799 
L 285.332871 219.112544 
L 285.564397 208.731148 
L 285.795922 212.470683 
L 286.027448 213.754404 
M 287.185076 212.526497 
L 287.879653 203.596265 
L 288.342705 215.373009 
L 288.805756 207.670683 
L 289.037282 204.768358 
L 289.268807 195.726497 
L 289.500333 192.545102 
L 289.731859 193.047427 
L 289.963384 189.97766 
L 290.19491 190.200916 
L 290.426436 200.414869 
L 290.657961 203.093939 
L 291.121013 191.317195 
L 291.352538 190.25673 
L 291.81559 207.559055 
L 292.278641 205.438125 
L 292.510167 208.173009 
L 292.973218 196.842776 
L 293.204744 195.335799 
L 293.436269 188.582311 
L 293.667795 187.075334 
L 293.899321 187.01952 
L 294.593898 198.070683 
L 294.825423 195.726497 
L 295.056949 196.396265 
L 295.288475 192.824172 
L 295.52 192.042776 
L 295.751526 196.786962 
L 296.214577 189.531148 
L 296.446103 189.41952 
L 296.677629 192.489288 
L 296.909154 193.382311 
L 297.372206 201.028823 
L 297.603731 197.735799 
M 298.992885 194.107892 
L 299.224411 192.991613 
L 299.455937 189.69859 
L 299.687462 189.531148 
L 300.150514 193.549753 
L 300.382039 190.814869 
M 302.697296 187.466032 
L 303.160347 191.81952 
L 303.623399 207.279985 
L 303.854924 208.675334 
L 304.08645 207.559055 
L 304.317976 207.670683 
L 304.549501 198.573009 
L 304.781027 199.466032 
L 305.012553 197.345102 
L 305.244078 198.13152 
M 307.559335 195.168358 
L 307.79086 195.168358 
L 308.022386 194.49859 
L 308.253912 192.042776 
L 308.485437 191.373009 
L 308.948489 185.233474 
L 309.41154 187.131148 
M 311.495271 190.535799 
L 311.726797 195.391613 
L 311.958322 192.65673 
L 312.189848 193.438125 
L 312.421374 199.633474 
L 312.652899 201.866032 
L 312.884425 197.568358 
L 313.347476 203.261381 
L 313.579002 199.689288 
L 314.042053 203.81952 
L 314.273579 202.479985 
L 314.505105 205.549753 
L 314.968156 201.196265 
L 315.431207 196.954404 
L 315.662733 196.563706 
L 315.894259 192.824172 
L 316.125784 192.768358 
M 317.051887 196.340451 
L 317.283413 191.596265 
L 317.514938 193.605567 
M 317.97799 192.600916 
L 318.209515 193.717195 
L 318.904092 185.233474 
L 319.135618 184.563706 
M 320.293246 185.400916 
L 320.524772 184.954404 
L 320.756298 187.800916 
L 320.987823 184.452078 
L 321.219349 188.693939 
L 321.450875 187.57766 
L 321.6824 192.935799 
L 321.913926 192.935799 
L 322.145452 187.01952 
L 322.376977 193.661381 
M 323.766131 198.182311 
L 324.229183 190.033474 
L 324.460708 191.038125 
L 324.692234 187.521846 
L 324.92376 189.69859 
L 325.155285 190.033474 
L 325.386811 190.926497 
L 325.618337 190.312544 
L 325.849862 187.075334 
L 326.081388 186.517195 
L 326.312913 187.800916 
L 326.544439 187.186962 
L 326.775965 185.066032 
L 327.00749 189.363706 
L 327.239016 190.312544 
L 327.470542 188.749753 
L 327.702067 189.252078 
L 328.62817 199.242776 
L 328.859696 191.596265 
L 329.091221 192.991613 
L 329.322747 191.149753 
L 329.554273 194.052078 
M 330.24885 195.168358 
L 330.480375 190.424172 
L 330.711901 191.875334 
L 330.943427 189.642776 
L 331.174952 193.214869 
L 331.406478 193.717195 
L 332.101055 186.796265 
L 332.332581 188.079985 
L 332.564106 186.852078 
L 332.795632 183.838125 
L 333.027158 183.447427 
L 333.258683 179.093939 
L 333.490209 184.731148 
L 333.721735 185.959055 
L 333.95326 182.052078 
L 334.184786 181.159055 
L 334.879363 188.135799 
L 335.110889 189.028823 
M 336.500043 193.717195 
L 336.963094 195.05673 
L 337.426145 191.038125 
L 337.657671 192.545102 
L 338.120722 190.033474 
M 338.815299 184.228823 
L 339.046825 186.573009 
L 339.278351 186.014869 
L 339.509876 186.517195 
L 339.741402 187.912544 
L 340.204453 192.37766 
M 341.593607 198.684637 
L 341.825133 196.452078 
L 342.056659 192.545102 
L 342.288184 193.717195 
L 342.982761 184.452078 
L 343.445813 183.447427 
L 343.677338 181.047427 
L 343.908864 182.052078 
L 344.14039 186.852078 
L 344.371915 182.945102 
L 344.834967 186.405567 
L 345.066492 182.889288 
L 345.298018 183.949753 
L 345.529544 183.335799 
L 345.992595 187.354404 
L 346.22412 187.186962 
L 346.455646 186.461381 
M 346.918697 187.689288 
L 347.150223 191.596265 
L 347.381749 192.042776 
L 347.613274 190.870683 
L 347.8448 188.470683 
L 348.076326 188.526497 
L 348.307851 186.238125 
L 348.539377 185.45673 
L 348.770903 185.568358 
L 349.002428 182.610218 
M 351.317685 196.061381 
L 351.549211 197.400916 
L 351.780736 205.326497 
L 352.012262 205.103241 
L 352.243788 202.759055 
L 352.706839 213.642776 
L 352.938365 215.149753 
L 353.16989 218.721846 
L 353.401416 217.884637 
L 353.632942 214.814869 
L 353.864467 220.507892 
M 355.253621 212.693939 
L 355.716673 221.847427 
M 356.179724 223.57766 
L 356.41125 227.261381 
L 356.642775 240.042776 
L 356.874301 239.986962 
L 357.105827 241.773009 
L 357.337352 253.717195 
L 357.568878 243.614869 
L 357.800404 243.447427 
L 358.031929 240.545102 
L 358.263455 243.559055 
L 358.726506 237.252078 
L 358.958032 242.21952 
M 359.421083 245.791613 
L 359.652609 239.205567 
L 359.884135 238.033474 
M 360.578712 247.689288 
L 360.810237 247.85673 
L 361.041763 243.224172 
L 362.199391 233.791613 
L 362.662443 233.010218 
L 362.893968 233.121846 
L 363.125494 230.163706 
L 363.35702 233.847427 
L 363.588545 235.29859 
L 364.051597 240.879985 
L 364.283122 248.303241 
L 364.514648 247.633474 
L 364.746174 246.070683 
L 364.977699 235.745102 
L 365.209225 236.247427 
L 365.440751 241.940451 
L 365.903802 234.014869 
L 366.135328 234.182311 
L 366.366853 237.363706 
L 366.598379 238.703241 
L 366.829904 239.149753 
L 367.06143 238.25673 
L 367.292956 242.945102 
L 367.756007 238.200916 
L 367.987533 233.289288 
L 368.219058 234.182311 
M 369.376687 243.726497 
L 369.839738 231.112544 
L 370.071264 232.786962 
L 370.302789 228.935799 
L 370.534315 230.49859 
L 370.765841 230.77766 
L 371.228892 223.186962 
L 371.460418 225.363706 
L 371.923469 219.05673 
L 372.154995 220.563706 
L 372.38652 224.303241 
M 374.0072 224.247427 
L 374.238726 225.140451 
L 374.701777 221.568358 
L 374.933303 215.652078 
L 375.164828 217.159055 
L 375.396354 215.205567 
L 375.62788 211.354404 
L 375.859405 212.526497 
L 376.090931 211.466032 
L 376.322457 211.466032 
L 376.553982 209.847427 
L 376.785508 210.517195 
L 377.017034 207.838125 
M 378.406188 212.191613 
L 378.637713 210.070683 
L 378.869239 206.554404 
L 379.100765 207.726497 
L 379.33229 206.275334 
L 379.563816 208.005567 
L 379.795342 203.986962 
L 380.026867 202.870683 
L 380.258393 205.382311 
L 380.489919 201.97766 
L 380.721444 196.563706 
L 380.95297 194.107892 
L 381.184496 197.791613 
L 381.416021 196.842776 
L 381.647547 198.349753 
L 381.879073 196.954404 
L 382.110598 198.349753 
L 382.805175 205.828823 
L 383.036701 200.526497 
L 383.268227 204.935799 
L 383.499752 205.884637 
L 383.731278 208.173009 
L 383.962804 204.600916 
L 384.194329 203.093939 
M 384.888906 200.135799 
L 385.120432 196.89859 
L 385.351958 198.740451 
L 385.583483 193.773009 
L 386.046535 195.224172 
L 386.27806 197.903241 
L 386.509586 197.679985 
L 386.741111 201.196265 
L 386.972637 202.089288 
L 387.204163 199.85673 
L 387.89874 188.303241 
L 388.130265 187.968358 
L 388.593317 193.438125 
L 388.824842 194.610218 
L 389.056368 191.875334 
L 389.287894 193.549753 
L 389.519419 187.29859 
L 389.750945 187.186962 
L 389.982471 190.200916 
L 390.213996 188.359055 
L 390.445522 193.940451 
M 391.371625 192.935799 
L 391.60315 192.991613 
L 391.834676 192.768358 
M 392.760779 194.163706 
L 392.992304 199.57766 
M 393.918407 209.959055 
L 394.149933 215.317195 
L 394.381458 213.196265 
L 394.612984 207.168358 
L 394.84451 211.354404 
L 395.076035 212.359055 
L 395.539087 220.786962 
L 395.770612 221.010218 
L 396.002138 214.703241 
L 396.233664 214.089288 
L 396.465189 220.675334 
L 396.696715 233.17766 
L 396.928241 234.293939 
L 397.159766 231.447427 
L 397.391292 222.684637 
L 397.622818 224.359055 
L 397.854343 225.196265 
L 398.085869 221.45673 
L 398.317395 227.540451 
L 398.54892 225.642776 
L 399.011972 215.986962 
L 399.243497 226.591613 
L 399.706549 215.149753 
L 399.938074 220.340451 
L 400.1696 218.275334 
L 400.401126 221.903241 
L 400.632651 215.428823 
L 400.864177 213.196265 
L 401.095703 207.893939 
L 401.327228 207.559055 
L 401.558754 207.614869 
L 401.79028 206.721846 
L 402.021805 207.168358 
L 402.253331 208.284637 
L 402.484857 211.354404 
L 402.716382 206.554404 
L 402.947908 205.940451 
L 403.179434 210.573009 
L 403.410959 210.182311 
L 403.642485 211.075334 
L 403.874011 210.238125 
L 404.105536 208.340451 
L 404.337062 204.321846 
M 406.652318 211.633474 
L 406.883844 212.917195 
L 407.11537 229.661381 
L 407.346895 225.252078 
L 407.809947 236.414869 
L 408.041472 242.275334 
M 413.829614 196.731148 
L 414.06114 191.931148 
M 414.524191 191.428823 
L 414.755717 188.749753 
L 414.987242 191.81952 
L 415.218768 187.968358 
L 415.450294 187.968358 
L 415.681819 186.684637 
L 415.913345 189.642776 
L 416.607922 182.554404 
L 416.839448 182.666032 
L 417.070973 185.624172 
L 417.302499 185.17766 
L 417.534025 182.386962 
L 417.76555 186.126497 
L 417.997076 187.57766 
L 418.228602 189.921846 
L 418.460127 188.693939 
M 418.923179 188.024172 
L 419.154704 186.740451 
M 420.080807 182.554404 
L 420.543858 178.033474 
L 420.775384 177.307892 
L 421.00691 178.814869 
M 421.469961 182.666032 
L 421.701487 181.214869 
L 421.933012 172.731148 
L 422.164538 176.247427 
L 422.396064 175.633474 
L 422.627589 171.782311 
L 422.859115 173.17766 
L 423.090641 171.949753 
L 423.553692 172.675334 
L 423.785218 169.270683 
L 424.248269 170.610218 
L 424.479795 167.205567 
L 424.942846 172.507892 
L 425.174372 168.042776 
L 425.405897 168.37766 
L 425.637423 166.033474 
L 425.868949 168.545102 
L 426.100474 179.596265 
L 426.332 183.949753 
L 426.563526 180.321846 
L 426.795051 185.568358 
L 427.258102 175.800916 
L 427.489628 176.805567 
L 427.721154 173.010218 
L 427.952679 177.754404 
L 428.184205 173.17766 
L 428.647256 172.284637 
L 428.878782 168.154404 
L 429.110308 169.717195 
L 429.341833 178.535799 
L 429.573359 179.038125 
L 429.804885 177.810218 
L 430.03641 172.675334 
L 430.267936 173.17766 
L 430.499462 171.391613 
L 430.962513 166.145102 
L 431.194039 167.093939 
L 431.425564 174.182311 
L 431.65709 170.052078 
L 432.351667 165.97766 
M 433.972347 163.410218 
L 434.203872 162.461381 
L 434.435398 160.61952 
L 434.666924 162.238125 
L 435.129975 159.224172 
L 435.361501 157.103241 
L 435.593026 156.824172 
L 435.824552 151.466032 
L 436.056078 151.968358 
L 436.519129 146.666032 
L 436.750655 153.866032 
L 436.98218 155.596265 
L 437.445232 172.89859 
L 437.908283 169.661381 
L 438.139809 169.884637 
L 438.60286 155.484637 
L 438.834386 157.270683 
L 439.297437 153.810218 
L 439.528963 150.907892 
L 439.760488 157.493939 
L 440.455065 159.726497 
L 440.686591 161.400916 
L 440.918117 161.400916 
L 441.149642 169.493939 
L 441.381168 169.940451 
L 441.612694 164.414869 
L 441.844219 164.024172 
L 442.075745 166.926497 
L 442.770322 159.391613 
L 443.001848 161.345102 
L 443.233373 161.345102 
L 443.464899 158.945102 
L 443.696425 168.768358 
L 444.159476 158.554404 
L 444.391002 149.791613 
L 444.622527 150.405567 
L 444.854053 151.745102 
L 445.085579 151.01952 
M 445.54863 153.754404 
L 446.011681 144.879985 
L 446.243207 148.507892 
L 446.706258 144.042776 
L 446.937784 151.242776 
L 447.169309 147.335799 
L 447.400835 148.786962 
L 447.632361 147.112544 
L 447.863886 143.149753 
L 448.095412 142.759055 
L 448.558463 133.270683 
L 448.789989 137.066032 
L 449.021515 135.893939 
L 449.25304 138.405567 
L 449.484566 143.763706 
L 449.716092 143.205567 
L 449.947617 140.470683 
L 450.179143 145.996265 
L 450.642194 135.949753 
L 450.87372 137.735799 
L 451.105246 135.893939 
L 451.336771 135.893939 
L 451.568297 135.05673 
L 451.799823 140.359055 
L 452.031348 139.354404 
L 452.262874 135.000916 
L 452.4944 137.903241 
L 452.725925 137.010218 
M 453.652028 136.005567 
L 453.883554 137.121846 
L 454.115079 139.85673 
L 454.578131 138.014869 
L 454.809656 138.238125 
L 455.041182 138.014869 
L 455.272708 137.345102 
L 455.504233 137.289288 
L 455.735759 133.884637 
M 457.124913 132.09859 
L 457.356439 135.279985 
L 457.81949 130.200916 
L 458.051016 131.149753 
L 458.282541 131.261381 
L 458.514067 134.945102 
L 458.745593 143.81952 
L 458.977118 142.703241 
L 459.208644 147.838125 
L 459.44017 149.066032 
L 459.671695 147.949753 
L 459.903221 151.800916 
L 460.366272 143.205567 
L 460.829324 137.903241 
L 461.060849 137.010218 
L 461.292375 137.289288 
L 461.523901 144.600916 
L 461.755426 146.49859 
L 461.986952 144.879985 
L 462.218478 138.070683 
M 462.681529 138.014869 
L 462.913055 145.884637 
L 463.376106 140.470683 
L 463.607632 140.191613 
L 464.070683 138.126497 
L 464.302209 141.140451 
L 464.76526 153.307892 
L 464.996786 153.196265 
L 465.228311 149.568358 
L 465.459837 154.368358 
L 465.691363 153.642776 
L 466.154414 146.386962 
L 466.38594 148.954404 
L 466.617465 147.614869 
L 467.080516 143.763706 
M 468.006619 142.479985 
L 468.238145 141.866032 
M 469.164247 142.424172 
L 469.395773 136.228823 
L 469.627299 138.182311 
L 470.09035 129.307892 
L 470.321876 128.805567 
L 470.553401 123.782311 
L 470.784927 127.354404 
L 471.016453 122.889288 
M 472.868658 126.070683 
L 473.100184 125.735799 
L 473.331709 123.949753 
M 473.794761 118.089288 
L 474.720863 101.791613 
M 476.341543 129.921846 
L 476.573069 157.996265 
L 476.804594 170.052078 
M 477.730697 142.535799 
L 477.962223 151.410218 
L 478.193748 190.424172 
L 478.425274 174.461381 
L 478.6568 203.484637 
L 478.888325 249.475334 
L 479.119851 213.866032 
L 479.351377 292.507892 
L 479.582902 271.410218 
L 479.814428 308.135799 
L 480.045954 306.907892 
M 480.972056 292.61952 
L 481.203582 266.889288 
L 481.435108 266.49859 
L 481.666633 257.959055 
L 481.898159 267.614869 
L 482.129685 293.233474 
L 482.36121 292.005567 
L 482.592736 297.307892 
L 482.824262 270.628823 
L 483.055787 267.05673 
L 483.518839 217.047427 
L 483.750364 235.57766 
L 483.98189 223.745102 
L 484.213416 240.935799 
L 484.444941 245.679985 
L 484.676467 232.675334 
L 484.907993 248.470683 
L 485.139518 255.893939 
L 485.371044 249.754404 
L 485.60257 253.159055 
L 485.834095 251.428823 
L 486.065621 237.531148 
L 486.297147 234.070683 
L 486.528672 227.707892 
L 486.760198 232.675334 
L 486.991724 247.01952 
L 487.223249 249.028823 
L 487.454775 247.01952 
L 487.6863 254.386962 
L 487.917826 248.638125 
L 488.149352 238.926497 
L 488.380877 245.010218 
M 490.233083 252.321846 
L 490.464608 246.852078 
L 490.92766 223.01952 
L 491.159185 220.954404 
L 491.390711 225.307892 
L 491.622237 215.317195 
L 491.853762 211.745102 
L 492.085288 197.45673 
L 492.316814 202.033474 
L 492.548339 184.786962 
M 493.011391 181.103241 
L 493.242916 193.214869 
L 493.474442 223.01952 
L 493.705968 207.447427 
L 494.169019 192.09859 
L 494.863596 210.461381 
L 495.095122 210.907892 
L 495.326647 212.749753 
L 495.558173 225.41952 
L 495.789699 224.191613 
L 496.021224 232.507892 
L 496.715801 209.066032 
L 496.947327 210.349753 
L 497.178853 210.573009 
L 497.410378 219.447427 
L 497.641904 220.061381 
L 497.87343 222.796265 
L 498.104955 221.45673 
L 498.336481 226.647427 
L 498.799532 218.77766 
L 499.031058 224.024172 
L 499.262584 218.386962 
M 499.957161 215.931148 
L 500.188686 217.773009 
L 500.420212 221.010218 
L 500.651738 216.879985 
L 501.114789 199.410218 
L 501.346315 202.368358 
L 501.57784 203.205567 
L 501.809366 209.233474 
L 502.040892 202.535799 
L 502.272417 204.824172 
L 502.503943 204.09859 
L 502.735469 197.624172 
L 502.966994 196.89859 
L 503.19852 203.540451 
L 503.430046 198.963706 
L 503.661571 204.600916 
L 503.893097 204.545102 
L 504.124623 200.861381 
L 504.356148 203.038125 
L 504.587674 211.01952 
L 504.8192 206.77766 
L 505.050725 206.052078 
L 505.282251 203.149753 
L 505.513777 201.97766 
L 505.745302 206.163706 
L 505.976828 199.521846 
L 506.208354 196.507892 
L 506.439879 201.196265 
L 506.671405 200.861381 
M 507.134456 197.959055 
L 507.365982 200.359055 
L 507.597507 205.940451 
L 507.829033 201.475334 
L 508.060559 207.05673 
L 508.292084 209.568358 
L 508.52361 198.628823 
L 508.755136 193.103241 
L 508.986661 190.647427 
L 509.449713 210.070683 
M 510.375815 229.270683 
L 510.607341 223.800916 
L 510.838867 214.926497 
L 511.070392 218.107892 
L 511.301918 216.768358 
L 511.764969 200.191613 
L 511.996495 197.568358 
L 512.228021 200.582311 
L 512.459546 199.912544 
M 513.385649 199.912544 
L 513.617175 205.493939 
L 513.8487 203.149753 
L 514.080226 206.386962 
L 514.311752 213.41952 
L 514.543277 210.238125 
L 514.774803 211.57766 
L 515.006329 211.633474 
L 515.237854 208.954404 
L 515.46938 215.373009 
M 517.784637 195.726497 
L 518.016162 188.973009 
L 518.247688 187.186962 
L 518.479214 193.326497 
L 518.710739 180.935799 
L 518.942265 175.57766 
L 519.173791 175.131148 
L 519.405316 184.507892 
L 519.636842 182.666032 
L 519.868368 185.233474 
L 520.099893 184.340451 
L 520.331419 181.828823 
L 520.562945 181.549753 
L 520.79447 183.670683 
L 521.025996 188.638125 
L 521.257522 182.610218 
L 521.489047 186.349753 
L 521.720573 182.386962 
L 521.952099 175.131148 
L 522.183624 179.317195 
L 522.41515 180.991613 
L 522.878201 186.014869 
L 523.109727 186.461381 
L 523.341253 188.526497 
L 523.572778 178.926497 
L 523.804304 178.368358 
L 524.03583 173.735799 
L 524.267355 183.447427 
L 524.498881 186.126497 
L 524.730407 182.833474 
L 525.193458 189.307892 
L 525.424984 186.517195 
L 525.656509 190.535799 
L 525.888035 187.968358 
L 526.119561 183.447427 
M 526.814138 197.400916 
L 527.045663 198.293939 
L 527.277189 193.828823 
M 527.971766 193.326497 
L 528.203291 190.591613 
L 528.434817 185.233474 
M 529.592445 175.131148 
L 529.823971 171.726497 
M 531.444651 167.428823 
L 531.676176 165.69859 
L 532.370753 158.610218 
L 532.602279 157.549753 
L 532.833805 157.438125 
L 533.06533 161.289288 
L 533.296856 161.903241 
L 533.528382 164.024172 
L 533.991433 157.047427 
L 534.454484 150.070683 
L 534.917536 167.038125 
L 535.149061 164.861381 
L 535.612113 172.396265 
M 536.538215 165.252078 
L 537.001267 154.535799 
L 537.464318 138.517195 
L 537.695844 140.638125 
L 537.927369 140.191613 
L 538.158895 145.438125 
M 542.557883 122.163706 
L 543.020934 119.931148 
L 543.483985 111.949753 
L 543.715511 114.907892 
L 543.947037 111.726497 
L 544.178562 110.107892 
L 544.410088 110.163706 
L 544.641614 111.335799 
L 544.873139 106.647427 
L 545.104665 104.470683 
L 545.336191 105.531148 
L 545.567716 109.103241 
L 545.799242 118.200916 
L 546.030768 115.186962 
L 546.262293 108.042776 
L 546.493819 108.210218 
M 549.735178 100.005567 
L 550.198229 83.317195 
L 550.429755 85.438125 
L 550.661281 85.159055 
L 551.124332 73.605567 
L 551.355858 72.824172 
L 551.587383 68.638125 
L 551.818909 70.982311 
L 552.050435 68.693939 
L 552.513486 78.796265 
L 552.745012 79.521846 
L 552.976537 89.345102 
L 553.208063 77.624172 
L 553.439589 80.638125 
L 553.671114 81.642776 
L 553.90264 86.945102 
L 554.134166 83.093939 
L 554.597217 86.331148 
L 554.828743 89.345102 
L 555.754845 78.963706 
L 555.986371 80.582311 
L 556.449422 66.070683 
L 556.680948 74.331148 
L 556.912474 70.25673 
L 557.143999 69.307892 
L 557.375525 69.69859 
M 557.838576 66.796265 
L 558.070102 66.852078 
L 558.301628 71.540451 
L 558.533153 66.684637 
L 558.764679 66.405567 
L 558.996205 63.05673 
L 559.22773 65.121846 
L 559.459256 65.010218 
L 559.690782 64.228823 
L 559.922307 65.512544 
L 560.153833 64.786962 
L 560.385359 66.628823 
L 560.616884 59.707892 
L 560.84841 60.768358 
L 561.079936 63.949753 
M 562.932141 65.512544 
L 563.163667 62.554404 
L 563.395192 63.670683 
L 563.626718 66.293939 
L 563.858244 66.684637 
L 564.089769 66.461381 
L 564.552821 54.293939 
L 564.784346 51.447427 
L 565.015872 41.735799 
M 566.636552 59.596265 
L 566.868077 60.65673 
M 567.331129 58.25673 
L 567.79418 67.242776 
L 568.025705 66.963706 
L 568.257231 61.214869 
L 568.488757 62.386962 
L 568.951808 80.247427 
L 569.183334 84.154404 
L 569.414859 79.85673 
M 572.193167 63.726497 
L 572.424693 62.21952 
L 572.656219 61.940451 
L 572.887744 52.563706 
L 573.11927 51.726497 
L 573.582321 46.926497 
L 573.813847 45.252078 
L 574.045373 50.442776 
L 574.276898 41.959055 
L 574.508424 48.879985 
L 575.203001 40.89859 
L 575.434527 46.759055 
L 575.666052 43.633474 
L 575.897578 44.135799 
L 576.129104 43.075334 
L 576.360629 45.921846 
L 576.592155 44.917195 
L 576.823681 45.363706 
L 577.055206 41.066032 
L 577.286732 45.140451 
L 577.518258 43.242776 
L 577.749783 43.131148 
L 578.212835 49.773009 
L 578.44436 44.861381 
L 578.675886 37.438125 
L 578.907412 54.684637 
L 579.138937 50.21952 
L 579.370463 61.717195 
L 579.370463 61.717195 
" clip-path="url(#p4090d1fe83)" style="fill: none; stroke: #1e90ff; stroke-linecap: square"/>
   </g>
   <g id="patch_3">
    <path d="M 46.965625 354.958125 
L 46.965625 22.318125 
" style="fill: none; stroke: #000000; stroke-width: 0.8; stroke-linejoin: miter; stroke-linecap: square"/>
   </g>
   <g id="patch_4">
    <path d="M 604.965625 354.958125 
L 604.965625 22.318125 
" style="fill: none; stroke: #000000; stroke-width: 0.8; stroke-linejoin: miter; stroke-linecap: square"/>
   </g>
   <g id="patch_5">
    <path d="M 46.965625 354.958125 
L 604.965625 354.958125 
" style="fill: none; stroke: #000000; stroke-width: 0.8; stroke-linejoin: miter; stroke-linecap: square"/>
   </g>
   <g id="patch_6">
    <path d="M 46.965625 22.318125 
L 604.965625 22.318125 
" style="fill: none; stroke: #000000; stroke-width: 0.8; stroke-linejoin: miter; stroke-linecap: square"/>
   </g>
   <g id="text_14">
    <!-- VNQ, Relative Strength Index (RSI), VNQ -->
    <g transform="translate(204.8875 16.318125)scale(0.12 -0.12)">
     <defs>
      <path id="DejaVuSans-56" d="M 1831 0 
L 50 4666 
L 709 4666 
L 2188 738 
L 3669 4666 
L 4325 4666 
L 2547 0 
L 1831 0 
z
" transform="scale(0.015625)"/>
      <path id="DejaVuSans-4e" d="M 628 4666 
L 1478 4666 
L 3547 763 
L 3547 4666 
L 4159 4666 
L 4159 0 
L 3309 0 
L 1241 3903 
L 1241 0 
L 628 0 
L 628 4666 
z
" transform="scale(0.015625)"/>
      <path id="DejaVuSans-51" d="M 2522 4238 
Q 1834 4238 1429 3725 
Q 1025 3213 1025 2328 
Q 1025 1447 1429 934 
Q 1834 422 2522 422 
Q 3209 422 3611 934 
Q 4013 1447 4013 2328 
Q 4013 3213 3611 3725 
Q 3209 4238 2522 4238 
z
M 3406 84 
L 4238 -825 
L 3475 -825 
L 2784 -78 
Q 2681 -84 2626 -87 
Q 2572 -91 2522 -91 
Q 1538 -91 948 567 
Q 359 1225 359 2328 
Q 359 3434 948 4092 
Q 1538 4750 2522 4750 
Q 3503 4750 4090 4092 
Q 4678 3434 4678 2328 
Q 4678 1516 4351 937 
Q 4025 359 3406 84 
z
" transform="scale(0.015625)"/>
      <path id="DejaVuSans-2c" d="M 750 794 
L 1409 794 
L 1409 256 
L 897 -744 
L 494 -744 
L 750 256 
L 750 794 
z
" transform="scale(0.015625)"/>
      <path id="DejaVuSans-52" d="M 2841 2188 
Q 3044 2119 3236 1894 
Q 3428 1669 3622 1275 
L 4263 0 
L 3584 0 
L 2988 1197 
Q 2756 1666 2539 1819 
Q 2322 1972 1947 1972 
L 1259 1972 
L 1259 0 
L 628 0 
L 628 4666 
L 2053 4666 
Q 2853 4666 3247 4331 
Q 3641 3997 3641 3322 
Q 3641 2881 3436 2590 
Q 3231 2300 2841 2188 
z
M 1259 4147 
L 1259 2491 
L 2053 2491 
Q 2509 2491 2742 2702 
Q 2975 2913 2975 3322 
Q 2975 3731 2742 3939 
Q 2509 4147 2053 4147 
L 1259 4147 
z
" transform="scale(0.015625)"/>
      <path id="DejaVuSans-6c" d="M 603 4863 
L 1178 4863 
L 1178 0 
L 603 0 
L 603 4863 
z
" transform="scale(0.015625)"/>
      <path id="DejaVuSans-76" d="M 191 3500 
L 800 3500 
L 1894 563 
L 2988 3500 
L 3597 3500 
L 2284 0 
L 1503 0 
L 191 3500 
z
" transform="scale(0.015625)"/>
      <path id="DejaVuSans-6e" d="M 3513 2113 
L 3513 0 
L 2938 0 
L 2938 2094 
Q 2938 2591 2744 2837 
Q 2550 3084 2163 3084 
Q 1697 3084 1428 2787 
Q 1159 2491 1159 1978 
L 1159 0 
L 581 0 
L 581 3500 
L 1159 3500 
L 1159 2956 
Q 1366 3272 1645 3428 
Q 1925 3584 2291 3584 
Q 2894 3584 3203 3211 
Q 3513 2838 3513 2113 
z
" transform="scale(0.015625)"/>
      <path id="DejaVuSans-67" d="M 2906 1791 
Q 2906 2416 2648 2759 
Q 2391 3103 1925 3103 
Q 1463 3103 1205 2759 
Q 947 2416 947 1791 
Q 947 1169 1205 825 
Q 1463 481 1925 481 
Q 2391 481 2648 825 
Q 2906 1169 2906 1791 
z
M 3481 434 
Q 3481 -459 3084 -895 
Q 2688 -1331 1869 -1331 
Q 1566 -1331 1297 -1286 
Q 1028 -1241 775 -1147 
L 775 -588 
Q 1028 -725 1275 -790 
Q 1522 -856 1778 -856 
Q 2344 -856 2625 -561 
Q 2906 -266 2906 331 
L 2906 616 
Q 2728 306 2450 153 
Q 2172 0 1784 0 
Q 1141 0 747 490 
Q 353 981 353 1791 
Q 353 2603 747 3093 
Q 1141 3584 1784 3584 
Q 2172 3584 2450 3431 
Q 2728 3278 2906 2969 
L 2906 3500 
L 3481 3500 
L 3481 434 
z
" transform="scale(0.015625)"/>
      <path id="DejaVuSans-68" d="M 3513 2113 
L 3513 0 
L 2938 0 
L 2938 2094 
Q 2938 2591 2744 2837 
Q 2550 3084 2163 3084 
Q 1697 3084 1428 2787 
Q 1159 2491 1159 1978 
L 1159 0 
L 581 0 
L 581 4863 
L 1159 4863 
L 1159 2956 
Q 1366 3272 1645 3428 
Q 1925 3584 2291 3584 
Q 2894 3584 3203 3211 
Q 3513 2838 3513 2113 
z
" transform="scale(0.015625)"/>
      <path id="DejaVuSans-49" d="M 628 4666 
L 1259 4666 
L 1259 0 
L 628 0 
L 628 4666 
z
" transform="scale(0.015625)"/>
      <path id="DejaVuSans-64" d="M 2906 2969 
L 2906 4863 
L 3481 4863 
L 3481 0 
L 2906 0 
L 2906 525 
Q 2725 213 2448 61 
Q 2172 -91 1784 -91 
Q 1150 -91 751 415 
Q 353 922 353 1747 
Q 353 2572 751 3078 
Q 1150 3584 1784 3584 
Q 2172 3584 2448 3432 
Q 2725 3281 2906 2969 
z
M 947 1747 
Q 947 1113 1208 752 
Q 1469 391 1925 391 
Q 2381 391 2643 752 
Q 2906 1113 2906 1747 
Q 2906 2381 2643 2742 
Q 2381 3103 1925 3103 
Q 1469 3103 1208 2742 
Q 947 2381 947 1747 
z
" transform="scale(0.015625)"/>
      <path id="DejaVuSans-78" d="M 3513 3500 
L 2247 1797 
L 3578 0 
L 2900 0 
L 1881 1375 
L 863 0 
L 184 0 
L 1544 1831 
L 300 3500 
L 978 3500 
L 1906 2253 
L 2834 3500 
L 3513 3500 
z
" transform="scale(0.015625)"/>
     </defs>
     <use xlink:href="#DejaVuSans-56"/>
     <use xlink:href="#DejaVuSans-4e" x="68.408203"/>
     <use xlink:href="#DejaVuSans-51" x="143.212891"/>
     <use xlink:href="#DejaVuSans-2c" x="221.923828"/>
     <use xlink:href="#DejaVuSans-20" x="253.710938"/>
     <use xlink:href="#DejaVuSans-52" x="285.498047"/>
     <use xlink:href="#DejaVuSans-65" x="350.480469"/>
     <use xlink:href="#DejaVuSans-6c" x="412.003906"/>
     <use xlink:href="#DejaVuSans-61" x="439.787109"/>
     <use xlink:href="#DejaVuSans-74" x="501.066406"/>
     <use xlink:href="#DejaVuSans-69" x="540.275391"/>
     <use xlink:href="#DejaVuSans-76" x="568.058594"/>
     <use xlink:href="#DejaVuSans-65" x="627.238281"/>
     <use xlink:href="#DejaVuSans-20" x="688.761719"/>
     <use xlink:href="#DejaVuSans-53" x="720.548828"/>
     <use xlink:href="#DejaVuSans-74" x="784.025391"/>
     <use xlink:href="#DejaVuSans-72" x="823.234375"/>
     <use xlink:href="#DejaVuSans-65" x="862.097656"/>
     <use xlink:href="#DejaVuSans-6e" x="923.621094"/>
     <use xlink:href="#DejaVuSans-67" x="987"/>
     <use xlink:href="#DejaVuSans-74" x="1050.476562"/>
     <use xlink:href="#DejaVuSans-68" x="1089.685547"/>
     <use xlink:href="#DejaVuSans-20" x="1153.064453"/>
     <use xlink:href="#DejaVuSans-49" x="1184.851562"/>
     <use xlink:href="#DejaVuSans-6e" x="1214.34375"/>
     <use xlink:href="#DejaVuSans-64" x="1277.722656"/>
     <use xlink:href="#DejaVuSans-65" x="1341.199219"/>
     <use xlink:href="#DejaVuSans-78" x="1400.972656"/>
     <use xlink:href="#DejaVuSans-20" x="1460.152344"/>
     <use xlink:href="#DejaVuSans-28" x="1491.939453"/>
     <use xlink:href="#DejaVuSans-52" x="1530.953125"/>
     <use xlink:href="#DejaVuSans-53" x="1600.435547"/>
     <use xlink:href="#DejaVuSans-49" x="1663.912109"/>
     <use xlink:href="#DejaVuSans-29" x="1693.404297"/>
     <use xlink:href="#DejaVuSans-2c" x="1732.417969"/>
     <use xlink:href="#DejaVuSans-20" x="1764.205078"/>
     <use xlink:href="#DejaVuSans-56" x="1795.992188"/>
     <use xlink:href="#DejaVuSans-4e" x="1864.400391"/>
     <use xlink:href="#DejaVuSans-51" x="1939.205078"/>
    </g>
   </g>
   <g id="legend_1">
    <g id="patch_7">
     <path d="M 53.965625 74.3525 
L 203.875 74.3525 
Q 205.875 74.3525 205.875 72.3525 
L 205.875 29.318125 
Q 205.875 27.318125 203.875 27.318125 
L 53.965625 27.318125 
Q 51.965625 27.318125 51.965625 29.318125 
L 51.965625 72.3525 
Q 51.965625 74.3525 53.965625 74.3525 
z
" style="fill: #ffffff; opacity: 0.8; stroke: #cccccc; stroke-linejoin: miter"/>
    </g>
    <g id="line2d_21">
     <path d="M 55.965625 35.416562 
L 65.965625 35.416562 
L 75.965625 35.416562 
" style="fill: none; stroke: #00ff7f; stroke-linecap: square"/>
    </g>
    <g id="text_15">
     <!-- Oversold, RSI &lt;= 30 -->
     <g transform="translate(83.965625 38.916562)scale(0.1 -0.1)">
      <defs>
       <path id="DejaVuSans-4f" d="M 2522 4238 
Q 1834 4238 1429 3725 
Q 1025 3213 1025 2328 
Q 1025 1447 1429 934 
Q 1834 422 2522 422 
Q 3209 422 3611 934 
Q 4013 1447 4013 2328 
Q 4013 3213 3611 3725 
Q 3209 4238 2522 4238 
z
M 2522 4750 
Q 3503 4750 4090 4092 
Q 4678 3434 4678 2328 
Q 4678 1225 4090 567 
Q 3503 -91 2522 -91 
Q 1538 -91 948 565 
Q 359 1222 359 2328 
Q 359 3434 948 4092 
Q 1538 4750 2522 4750 
z
" transform="scale(0.015625)"/>
       <path id="DejaVuSans-73" d="M 2834 3397 
L 2834 2853 
Q 2591 2978 2328 3040 
Q 2066 3103 1784 3103 
Q 1356 3103 1142 2972 
Q 928 2841 928 2578 
Q 928 2378 1081 2264 
Q 1234 2150 1697 2047 
L 1894 2003 
Q 2506 1872 2764 1633 
Q 3022 1394 3022 966 
Q 3022 478 2636 193 
Q 2250 -91 1575 -91 
Q 1294 -91 989 -36 
Q 684 19 347 128 
L 347 722 
Q 666 556 975 473 
Q 1284 391 1588 391 
Q 1994 391 2212 530 
Q 2431 669 2431 922 
Q 2431 1156 2273 1281 
Q 2116 1406 1581 1522 
L 1381 1569 
Q 847 1681 609 1914 
Q 372 2147 372 2553 
Q 372 3047 722 3315 
Q 1072 3584 1716 3584 
Q 2034 3584 2315 3537 
Q 2597 3491 2834 3397 
z
" transform="scale(0.015625)"/>
       <path id="DejaVuSans-6f" d="M 1959 3097 
Q 1497 3097 1228 2736 
Q 959 2375 959 1747 
Q 959 1119 1226 758 
Q 1494 397 1959 397 
Q 2419 397 2687 759 
Q 2956 1122 2956 1747 
Q 2956 2369 2687 2733 
Q 2419 3097 1959 3097 
z
M 1959 3584 
Q 2709 3584 3137 3096 
Q 3566 2609 3566 1747 
Q 3566 888 3137 398 
Q 2709 -91 1959 -91 
Q 1206 -91 779 398 
Q 353 888 353 1747 
Q 353 2609 779 3096 
Q 1206 3584 1959 3584 
z
" transform="scale(0.015625)"/>
       <path id="DejaVuSans-3c" d="M 4684 3150 
L 1459 2003 
L 4684 863 
L 4684 294 
L 678 1747 
L 678 2266 
L 4684 3719 
L 4684 3150 
z
" transform="scale(0.015625)"/>
       <path id="DejaVuSans-3d" d="M 678 2906 
L 4684 2906 
L 4684 2381 
L 678 2381 
L 678 2906 
z
M 678 1631 
L 4684 1631 
L 4684 1100 
L 678 1100 
L 678 1631 
z
" transform="scale(0.015625)"/>
       <path id="DejaVuSans-33" d="M 2597 2516 
Q 3050 2419 3304 2112 
Q 3559 1806 3559 1356 
Q 3559 666 3084 287 
Q 2609 -91 1734 -91 
Q 1441 -91 1130 -33 
Q 819 25 488 141 
L 488 750 
Q 750 597 1062 519 
Q 1375 441 1716 441 
Q 2309 441 2620 675 
Q 2931 909 2931 1356 
Q 2931 1769 2642 2001 
Q 2353 2234 1838 2234 
L 1294 2234 
L 1294 2753 
L 1863 2753 
Q 2328 2753 2575 2939 
Q 2822 3125 2822 3475 
Q 2822 3834 2567 4026 
Q 2313 4219 1838 4219 
Q 1578 4219 1281 4162 
Q 984 4106 628 3988 
L 628 4550 
Q 988 4650 1302 4700 
Q 1616 4750 1894 4750 
Q 2613 4750 3031 4423 
Q 3450 4097 3450 3541 
Q 3450 3153 3228 2886 
Q 3006 2619 2597 2516 
z
" transform="scale(0.015625)"/>
      </defs>
      <use xlink:href="#DejaVuSans-4f"/>
      <use xlink:href="#DejaVuSans-76" x="78.710938"/>
      <use xlink:href="#DejaVuSans-65" x="137.890625"/>
      <use xlink:href="#DejaVuSans-72" x="199.414062"/>
      <use xlink:href="#DejaVuSans-73" x="240.527344"/>
      <use xlink:href="#DejaVuSans-6f" x="292.626953"/>
      <use xlink:href="#DejaVuSans-6c" x="353.808594"/>
      <use xlink:href="#DejaVuSans-64" x="381.591797"/>
      <use xlink:href="#DejaVuSans-2c" x="445.068359"/>
      <use xlink:href="#DejaVuSans-20" x="476.855469"/>
      <use xlink:href="#DejaVuSans-52" x="508.642578"/>
      <use xlink:href="#DejaVuSans-53" x="578.125"/>
      <use xlink:href="#DejaVuSans-49" x="641.601562"/>
      <use xlink:href="#DejaVuSans-20" x="671.09375"/>
      <use xlink:href="#DejaVuSans-3c" x="702.880859"/>
      <use xlink:href="#DejaVuSans-3d" x="786.669922"/>
      <use xlink:href="#DejaVuSans-20" x="870.458984"/>
      <use xlink:href="#DejaVuSans-33" x="902.246094"/>
      <use xlink:href="#DejaVuSans-30" x="965.869141"/>
     </g>
    </g>
    <g id="line2d_22">
     <path d="M 55.965625 50.094687 
L 65.965625 50.094687 
L 75.965625 50.094687 
" style="fill: none; stroke: #ff4500; stroke-linecap: square"/>
    </g>
    <g id="text_16">
     <!-- Overbought, RSI &gt;= 70 -->
     <g transform="translate(83.965625 53.594687)scale(0.1 -0.1)">
      <defs>
       <path id="DejaVuSans-62" d="M 3116 1747 
Q 3116 2381 2855 2742 
Q 2594 3103 2138 3103 
Q 1681 3103 1420 2742 
Q 1159 2381 1159 1747 
Q 1159 1113 1420 752 
Q 1681 391 2138 391 
Q 2594 391 2855 752 
Q 3116 1113 3116 1747 
z
M 1159 2969 
Q 1341 3281 1617 3432 
Q 1894 3584 2278 3584 
Q 2916 3584 3314 3078 
Q 3713 2572 3713 1747 
Q 3713 922 3314 415 
Q 2916 -91 2278 -91 
Q 1894 -91 1617 61 
Q 1341 213 1159 525 
L 1159 0 
L 581 0 
L 581 4863 
L 1159 4863 
L 1159 2969 
z
" transform="scale(0.015625)"/>
       <path id="DejaVuSans-75" d="M 544 1381 
L 544 3500 
L 1119 3500 
L 1119 1403 
Q 1119 906 1312 657 
Q 1506 409 1894 409 
Q 2359 409 2629 706 
Q 2900 1003 2900 1516 
L 2900 3500 
L 3475 3500 
L 3475 0 
L 2900 0 
L 2900 538 
Q 2691 219 2414 64 
Q 2138 -91 1772 -91 
Q 1169 -91 856 284 
Q 544 659 544 1381 
z
M 1991 3584 
L 1991 3584 
z
" transform="scale(0.015625)"/>
       <path id="DejaVuSans-3e" d="M 678 3150 
L 678 3719 
L 4684 2266 
L 4684 1747 
L 678 294 
L 678 863 
L 3897 2003 
L 678 3150 
z
" transform="scale(0.015625)"/>
      </defs>
      <use xlink:href="#DejaVuSans-4f"/>
      <use xlink:href="#DejaVuSans-76" x="78.710938"/>
      <use xlink:href="#DejaVuSans-65" x="137.890625"/>
      <use xlink:href="#DejaVuSans-72" x="199.414062"/>
      <use xlink:href="#DejaVuSans-62" x="240.527344"/>
      <use xlink:href="#DejaVuSans-6f" x="304.003906"/>
      <use xlink:href="#DejaVuSans-75" x="365.185547"/>
      <use xlink:href="#DejaVuSans-67" x="428.564453"/>
      <use xlink:href="#DejaVuSans-68" x="492.041016"/>
      <use xlink:href="#DejaVuSans-74" x="555.419922"/>
      <use xlink:href="#DejaVuSans-2c" x="594.628906"/>
      <use xlink:href="#DejaVuSans-20" x="626.416016"/>
      <use xlink:href="#DejaVuSans-52" x="658.203125"/>
      <use xlink:href="#DejaVuSans-53" x="727.685547"/>
      <use xlink:href="#DejaVuSans-49" x="791.162109"/>
      <use xlink:href="#DejaVuSans-20" x="820.654297"/>
      <use xlink:href="#DejaVuSans-3e" x="852.441406"/>
      <use xlink:href="#DejaVuSans-3d" x="936.230469"/>
      <use xlink:href="#DejaVuSans-20" x="1020.019531"/>
      <use xlink:href="#DejaVuSans-37" x="1051.806641"/>
      <use xlink:href="#DejaVuSans-30" x="1115.429688"/>
     </g>
    </g>
    <g id="line2d_23">
     <path d="M 55.965625 64.772812 
L 65.965625 64.772812 
L 75.965625 64.772812 
" style="fill: none; stroke: #1e90ff; stroke-linecap: square"/>
    </g>
    <g id="text_17">
     <!-- Neutral -->
     <g transform="translate(83.965625 68.272812)scale(0.1 -0.1)">
      <use xlink:href="#DejaVuSans-4e"/>
      <use xlink:href="#DejaVuSans-65" x="74.804688"/>
      <use xlink:href="#DejaVuSans-75" x="136.328125"/>
      <use xlink:href="#DejaVuSans-74" x="199.707031"/>
      <use xlink:href="#DejaVuSans-72" x="238.916016"/>
      <use xlink:href="#DejaVuSans-61" x="280.029297"/>
      <use xlink:href="#DejaVuSans-6c" x="341.308594"/>
     </g>
    </g>
   </g>
  </g>
 </g>
 <defs>
  <clipPath id="p4090d1fe83">
   <rect x="46.965625" y="22.318125" width="558" height="332.64"/>
  </clipPath>
 </defs>
</svg>
