<?xml version="1.0" encoding="utf-8" standalone="no"?>
<!DOCTYPE svg PUBLIC "-//W3C//DTD SVG 1.1//EN"
  "http://www.w3.org/Graphics/SVG/1.1/DTD/svg11.dtd">
<svg xmlns:xlink="http://www.w3.org/1999/xlink" width="612.165625pt" height="392.514375pt" viewBox="0 0 612.165625 392.514375" xmlns="http://www.w3.org/2000/svg" version="1.1">
 <metadata>
  <rdf:RDF xmlns:dc="http://purl.org/dc/elements/1.1/" xmlns:cc="http://creativecommons.org/ns#" xmlns:rdf="http://www.w3.org/1999/02/22-rdf-syntax-ns#">
   <cc:Work>
    <dc:type rdf:resource="http://purl.org/dc/dcmitype/StillImage"/>
    <dc:date>2023-04-24T15:33:47.675614</dc:date>
    <dc:format>image/svg+xml</dc:format>
    <dc:creator>
     <cc:Agent>
      <dc:title>Matplotlib v3.5.1, https://matplotlib.org/</dc:title>
     </cc:Agent>
    </dc:creator>
   </cc:Work>
  </rdf:RDF>
 </metadata>
 <defs>
  <style type="text/css">*{stroke-linejoin: round; stroke-linecap: butt}</style>
 </defs>
 <g id="figure_1">
  <g id="patch_1">
   <path d="M 0 392.514375 
L 612.165625 392.514375 
L 612.165625 0 
L 0 0 
z
" style="fill: #ffffff"/>
  </g>
  <g id="axes_1">
   <g id="patch_2">
    <path d="M 46.965625 354.958125 
L 604.965625 354.958125 
L 604.965625 22.318125 
L 46.965625 22.318125 
z
" style="fill: #ffffff"/>
   </g>
   <g id="matplotlib.axis_1">
    <g id="xtick_1">
     <g id="line2d_1">
      <defs>
       <path id="m374d5dc2c9" d="M 0 0 
L 0 3.5 
" style="stroke: #000000; stroke-width: 0.8"/>
      </defs>
      <g>
       <use xlink:href="#m374d5dc2c9" x="72.329261" y="354.958125" style="stroke: #000000; stroke-width: 0.8"/>
      </g>
     </g>
     <g id="text_1">
      <!-- 0 -->
      <g transform="translate(69.148011 369.556562)scale(0.1 -0.1)">
       <defs>
        <path id="DejaVuSans-30" d="M 2034 4250 
Q 1547 4250 1301 3770 
Q 1056 3291 1056 2328 
Q 1056 1369 1301 889 
Q 1547 409 2034 409 
Q 2525 409 2770 889 
Q 3016 1369 3016 2328 
Q 3016 3291 2770 3770 
Q 2525 4250 2034 4250 
z
M 2034 4750 
Q 2819 4750 3233 4129 
Q 3647 3509 3647 2328 
Q 3647 1150 3233 529 
Q 2819 -91 2034 -91 
Q 1250 -91 836 529 
Q 422 1150 422 2328 
Q 422 3509 836 4129 
Q 1250 4750 2034 4750 
z
" transform="scale(0.015625)"/>
       </defs>
       <use xlink:href="#DejaVuSans-30"/>
      </g>
     </g>
    </g>
    <g id="xtick_2">
     <g id="line2d_2">
      <g>
       <use xlink:href="#m374d5dc2c9" x="186.01656" y="354.958125" style="stroke: #000000; stroke-width: 0.8"/>
      </g>
     </g>
     <g id="text_2">
      <!-- 500 -->
      <g transform="translate(176.47281 369.556562)scale(0.1 -0.1)">
       <defs>
        <path id="DejaVuSans-35" d="M 691 4666 
L 3169 4666 
L 3169 4134 
L 1269 4134 
L 1269 2991 
Q 1406 3038 1543 3061 
Q 1681 3084 1819 3084 
Q 2600 3084 3056 2656 
Q 3513 2228 3513 1497 
Q 3513 744 3044 326 
Q 2575 -91 1722 -91 
Q 1428 -91 1123 -41 
Q 819 9 494 109 
L 494 744 
Q 775 591 1075 516 
Q 1375 441 1709 441 
Q 2250 441 2565 725 
Q 2881 1009 2881 1497 
Q 2881 1984 2565 2268 
Q 2250 2553 1709 2553 
Q 1456 2553 1204 2497 
Q 953 2441 691 2322 
L 691 4666 
z
" transform="scale(0.015625)"/>
       </defs>
       <use xlink:href="#DejaVuSans-35"/>
       <use xlink:href="#DejaVuSans-30" x="63.623047"/>
       <use xlink:href="#DejaVuSans-30" x="127.246094"/>
      </g>
     </g>
    </g>
    <g id="xtick_3">
     <g id="line2d_3">
      <g>
       <use xlink:href="#m374d5dc2c9" x="299.703859" y="354.958125" style="stroke: #000000; stroke-width: 0.8"/>
      </g>
     </g>
     <g id="text_3">
      <!-- 1000 -->
      <g transform="translate(286.978859 369.556562)scale(0.1 -0.1)">
       <defs>
        <path id="DejaVuSans-31" d="M 794 531 
L 1825 531 
L 1825 4091 
L 703 3866 
L 703 4441 
L 1819 4666 
L 2450 4666 
L 2450 531 
L 3481 531 
L 3481 0 
L 794 0 
L 794 531 
z
" transform="scale(0.015625)"/>
       </defs>
       <use xlink:href="#DejaVuSans-31"/>
       <use xlink:href="#DejaVuSans-30" x="63.623047"/>
       <use xlink:href="#DejaVuSans-30" x="127.246094"/>
       <use xlink:href="#DejaVuSans-30" x="190.869141"/>
      </g>
     </g>
    </g>
    <g id="xtick_4">
     <g id="line2d_4">
      <g>
       <use xlink:href="#m374d5dc2c9" x="413.391158" y="354.958125" style="stroke: #000000; stroke-width: 0.8"/>
      </g>
     </g>
     <g id="text_4">
      <!-- 1500 -->
      <g transform="translate(400.666158 369.556562)scale(0.1 -0.1)">
       <use xlink:href="#DejaVuSans-31"/>
       <use xlink:href="#DejaVuSans-35" x="63.623047"/>
       <use xlink:href="#DejaVuSans-30" x="127.246094"/>
       <use xlink:href="#DejaVuSans-30" x="190.869141"/>
      </g>
     </g>
    </g>
    <g id="xtick_5">
     <g id="line2d_5">
      <g>
       <use xlink:href="#m374d5dc2c9" x="527.078457" y="354.958125" style="stroke: #000000; stroke-width: 0.8"/>
      </g>
     </g>
     <g id="text_5">
      <!-- 2000 -->
      <g transform="translate(514.353457 369.556562)scale(0.1 -0.1)">
       <defs>
        <path id="DejaVuSans-32" d="M 1228 531 
L 3431 531 
L 3431 0 
L 469 0 
L 469 531 
Q 828 903 1448 1529 
Q 2069 2156 2228 2338 
Q 2531 2678 2651 2914 
Q 2772 3150 2772 3378 
Q 2772 3750 2511 3984 
Q 2250 4219 1831 4219 
Q 1534 4219 1204 4116 
Q 875 4013 500 3803 
L 500 4441 
Q 881 4594 1212 4672 
Q 1544 4750 1819 4750 
Q 2544 4750 2975 4387 
Q 3406 4025 3406 3419 
Q 3406 3131 3298 2873 
Q 3191 2616 2906 2266 
Q 2828 2175 2409 1742 
Q 1991 1309 1228 531 
z
" transform="scale(0.015625)"/>
       </defs>
       <use xlink:href="#DejaVuSans-32"/>
       <use xlink:href="#DejaVuSans-30" x="63.623047"/>
       <use xlink:href="#DejaVuSans-30" x="127.246094"/>
       <use xlink:href="#DejaVuSans-30" x="190.869141"/>
      </g>
     </g>
    </g>
    <g id="text_6">
     <!-- Date -->
     <g transform="translate(314.014844 383.234687)scale(0.1 -0.1)">
      <defs>
       <path id="DejaVuSans-44" d="M 1259 4147 
L 1259 519 
L 2022 519 
Q 2988 519 3436 956 
Q 3884 1394 3884 2338 
Q 3884 3275 3436 3711 
Q 2988 4147 2022 4147 
L 1259 4147 
z
M 628 4666 
L 1925 4666 
Q 3281 4666 3915 4102 
Q 4550 3538 4550 2338 
Q 4550 1131 3912 565 
Q 3275 0 1925 0 
L 628 0 
L 628 4666 
z
" transform="scale(0.015625)"/>
       <path id="DejaVuSans-61" d="M 2194 1759 
Q 1497 1759 1228 1600 
Q 959 1441 959 1056 
Q 959 750 1161 570 
Q 1363 391 1709 391 
Q 2188 391 2477 730 
Q 2766 1069 2766 1631 
L 2766 1759 
L 2194 1759 
z
M 3341 1997 
L 3341 0 
L 2766 0 
L 2766 531 
Q 2569 213 2275 61 
Q 1981 -91 1556 -91 
Q 1019 -91 701 211 
Q 384 513 384 1019 
Q 384 1609 779 1909 
Q 1175 2209 1959 2209 
L 2766 2209 
L 2766 2266 
Q 2766 2663 2505 2880 
Q 2244 3097 1772 3097 
Q 1472 3097 1187 3025 
Q 903 2953 641 2809 
L 641 3341 
Q 956 3463 1253 3523 
Q 1550 3584 1831 3584 
Q 2591 3584 2966 3190 
Q 3341 2797 3341 1997 
z
" transform="scale(0.015625)"/>
       <path id="DejaVuSans-74" d="M 1172 4494 
L 1172 3500 
L 2356 3500 
L 2356 3053 
L 1172 3053 
L 1172 1153 
Q 1172 725 1289 603 
Q 1406 481 1766 481 
L 2356 481 
L 2356 0 
L 1766 0 
Q 1100 0 847 248 
Q 594 497 594 1153 
L 594 3053 
L 172 3053 
L 172 3500 
L 594 3500 
L 594 4494 
L 1172 4494 
z
" transform="scale(0.015625)"/>
       <path id="DejaVuSans-65" d="M 3597 1894 
L 3597 1613 
L 953 1613 
Q 991 1019 1311 708 
Q 1631 397 2203 397 
Q 2534 397 2845 478 
Q 3156 559 3463 722 
L 3463 178 
Q 3153 47 2828 -22 
Q 2503 -91 2169 -91 
Q 1331 -91 842 396 
Q 353 884 353 1716 
Q 353 2575 817 3079 
Q 1281 3584 2069 3584 
Q 2775 3584 3186 3129 
Q 3597 2675 3597 1894 
z
M 3022 2063 
Q 3016 2534 2758 2815 
Q 2500 3097 2075 3097 
Q 1594 3097 1305 2825 
Q 1016 2553 972 2059 
L 3022 2063 
z
" transform="scale(0.015625)"/>
      </defs>
      <use xlink:href="#DejaVuSans-44"/>
      <use xlink:href="#DejaVuSans-61" x="77.001953"/>
      <use xlink:href="#DejaVuSans-74" x="138.28125"/>
      <use xlink:href="#DejaVuSans-65" x="177.490234"/>
     </g>
    </g>
   </g>
   <g id="matplotlib.axis_2">
    <g id="ytick_1">
     <g id="line2d_6">
      <path d="M 46.965625 324.027364 
L 604.965625 324.027364 
" clip-path="url(#p3f3999a0a6)" style="fill: none; stroke: #dcdcdc; stroke-width: 0.5; stroke-linecap: square"/>
     </g>
     <g id="line2d_7">
      <defs>
       <path id="m881a70b826" d="M 0 0 
L -3.5 0 
" style="stroke: #000000; stroke-width: 0.8"/>
      </defs>
      <g>
       <use xlink:href="#m881a70b826" x="46.965625" y="324.027364" style="stroke: #000000; stroke-width: 0.8"/>
      </g>
     </g>
     <g id="text_7">
      <!-- 60 -->
      <g transform="translate(27.240625 327.826582)scale(0.1 -0.1)">
       <defs>
        <path id="DejaVuSans-36" d="M 2113 2584 
Q 1688 2584 1439 2293 
Q 1191 2003 1191 1497 
Q 1191 994 1439 701 
Q 1688 409 2113 409 
Q 2538 409 2786 701 
Q 3034 994 3034 1497 
Q 3034 2003 2786 2293 
Q 2538 2584 2113 2584 
z
M 3366 4563 
L 3366 3988 
Q 3128 4100 2886 4159 
Q 2644 4219 2406 4219 
Q 1781 4219 1451 3797 
Q 1122 3375 1075 2522 
Q 1259 2794 1537 2939 
Q 1816 3084 2150 3084 
Q 2853 3084 3261 2657 
Q 3669 2231 3669 1497 
Q 3669 778 3244 343 
Q 2819 -91 2113 -91 
Q 1303 -91 875 529 
Q 447 1150 447 2328 
Q 447 3434 972 4092 
Q 1497 4750 2381 4750 
Q 2619 4750 2861 4703 
Q 3103 4656 3366 4563 
z
" transform="scale(0.015625)"/>
       </defs>
       <use xlink:href="#DejaVuSans-36"/>
       <use xlink:href="#DejaVuSans-30" x="63.623047"/>
      </g>
     </g>
    </g>
    <g id="ytick_2">
     <g id="line2d_8">
      <path d="M 46.965625 272.859851 
L 604.965625 272.859851 
" clip-path="url(#p3f3999a0a6)" style="fill: none; stroke: #dcdcdc; stroke-width: 0.5; stroke-linecap: square"/>
     </g>
     <g id="line2d_9">
      <g>
       <use xlink:href="#m881a70b826" x="46.965625" y="272.859851" style="stroke: #000000; stroke-width: 0.8"/>
      </g>
     </g>
     <g id="text_8">
      <!-- 70 -->
      <g transform="translate(27.240625 276.65907)scale(0.1 -0.1)">
       <defs>
        <path id="DejaVuSans-37" d="M 525 4666 
L 3525 4666 
L 3525 4397 
L 1831 0 
L 1172 0 
L 2766 4134 
L 525 4134 
L 525 4666 
z
" transform="scale(0.015625)"/>
       </defs>
       <use xlink:href="#DejaVuSans-37"/>
       <use xlink:href="#DejaVuSans-30" x="63.623047"/>
      </g>
     </g>
    </g>
    <g id="ytick_3">
     <g id="line2d_10">
      <path d="M 46.965625 221.692338 
L 604.965625 221.692338 
" clip-path="url(#p3f3999a0a6)" style="fill: none; stroke: #dcdcdc; stroke-width: 0.5; stroke-linecap: square"/>
     </g>
     <g id="line2d_11">
      <g>
       <use xlink:href="#m881a70b826" x="46.965625" y="221.692338" style="stroke: #000000; stroke-width: 0.8"/>
      </g>
     </g>
     <g id="text_9">
      <!-- 80 -->
      <g transform="translate(27.240625 225.491557)scale(0.1 -0.1)">
       <defs>
        <path id="DejaVuSans-38" d="M 2034 2216 
Q 1584 2216 1326 1975 
Q 1069 1734 1069 1313 
Q 1069 891 1326 650 
Q 1584 409 2034 409 
Q 2484 409 2743 651 
Q 3003 894 3003 1313 
Q 3003 1734 2745 1975 
Q 2488 2216 2034 2216 
z
M 1403 2484 
Q 997 2584 770 2862 
Q 544 3141 544 3541 
Q 544 4100 942 4425 
Q 1341 4750 2034 4750 
Q 2731 4750 3128 4425 
Q 3525 4100 3525 3541 
Q 3525 3141 3298 2862 
Q 3072 2584 2669 2484 
Q 3125 2378 3379 2068 
Q 3634 1759 3634 1313 
Q 3634 634 3220 271 
Q 2806 -91 2034 -91 
Q 1263 -91 848 271 
Q 434 634 434 1313 
Q 434 1759 690 2068 
Q 947 2378 1403 2484 
z
M 1172 3481 
Q 1172 3119 1398 2916 
Q 1625 2713 2034 2713 
Q 2441 2713 2670 2916 
Q 2900 3119 2900 3481 
Q 2900 3844 2670 4047 
Q 2441 4250 2034 4250 
Q 1625 4250 1398 4047 
Q 1172 3844 1172 3481 
z
" transform="scale(0.015625)"/>
       </defs>
       <use xlink:href="#DejaVuSans-38"/>
       <use xlink:href="#DejaVuSans-30" x="63.623047"/>
      </g>
     </g>
    </g>
    <g id="ytick_4">
     <g id="line2d_12">
      <path d="M 46.965625 170.524826 
L 604.965625 170.524826 
" clip-path="url(#p3f3999a0a6)" style="fill: none; stroke: #dcdcdc; stroke-width: 0.5; stroke-linecap: square"/>
     </g>
     <g id="line2d_13">
      <g>
       <use xlink:href="#m881a70b826" x="46.965625" y="170.524826" style="stroke: #000000; stroke-width: 0.8"/>
      </g>
     </g>
     <g id="text_10">
      <!-- 90 -->
      <g transform="translate(27.240625 174.324044)scale(0.1 -0.1)">
       <defs>
        <path id="DejaVuSans-39" d="M 703 97 
L 703 672 
Q 941 559 1184 500 
Q 1428 441 1663 441 
Q 2288 441 2617 861 
Q 2947 1281 2994 2138 
Q 2813 1869 2534 1725 
Q 2256 1581 1919 1581 
Q 1219 1581 811 2004 
Q 403 2428 403 3163 
Q 403 3881 828 4315 
Q 1253 4750 1959 4750 
Q 2769 4750 3195 4129 
Q 3622 3509 3622 2328 
Q 3622 1225 3098 567 
Q 2575 -91 1691 -91 
Q 1453 -91 1209 -44 
Q 966 3 703 97 
z
M 1959 2075 
Q 2384 2075 2632 2365 
Q 2881 2656 2881 3163 
Q 2881 3666 2632 3958 
Q 2384 4250 1959 4250 
Q 1534 4250 1286 3958 
Q 1038 3666 1038 3163 
Q 1038 2656 1286 2365 
Q 1534 2075 1959 2075 
z
" transform="scale(0.015625)"/>
       </defs>
       <use xlink:href="#DejaVuSans-39"/>
       <use xlink:href="#DejaVuSans-30" x="63.623047"/>
      </g>
     </g>
    </g>
    <g id="ytick_5">
     <g id="line2d_14">
      <path d="M 46.965625 119.357313 
L 604.965625 119.357313 
" clip-path="url(#p3f3999a0a6)" style="fill: none; stroke: #dcdcdc; stroke-width: 0.5; stroke-linecap: square"/>
     </g>
     <g id="line2d_15">
      <g>
       <use xlink:href="#m881a70b826" x="46.965625" y="119.357313" style="stroke: #000000; stroke-width: 0.8"/>
      </g>
     </g>
     <g id="text_11">
      <!-- 100 -->
      <g transform="translate(20.878125 123.156532)scale(0.1 -0.1)">
       <use xlink:href="#DejaVuSans-31"/>
       <use xlink:href="#DejaVuSans-30" x="63.623047"/>
       <use xlink:href="#DejaVuSans-30" x="127.246094"/>
      </g>
     </g>
    </g>
    <g id="ytick_6">
     <g id="line2d_16">
      <path d="M 46.965625 68.1898 
L 604.965625 68.1898 
" clip-path="url(#p3f3999a0a6)" style="fill: none; stroke: #dcdcdc; stroke-width: 0.5; stroke-linecap: square"/>
     </g>
     <g id="line2d_17">
      <g>
       <use xlink:href="#m881a70b826" x="46.965625" y="68.1898" style="stroke: #000000; stroke-width: 0.8"/>
      </g>
     </g>
     <g id="text_12">
      <!-- 110 -->
      <g transform="translate(20.878125 71.989019)scale(0.1 -0.1)">
       <use xlink:href="#DejaVuSans-31"/>
       <use xlink:href="#DejaVuSans-31" x="63.623047"/>
       <use xlink:href="#DejaVuSans-30" x="127.246094"/>
      </g>
     </g>
    </g>
    <g id="text_13">
     <!-- Price (USD) -->
     <g transform="translate(14.798437 217.01)rotate(-90)scale(0.1 -0.1)">
      <defs>
       <path id="DejaVuSans-50" d="M 1259 4147 
L 1259 2394 
L 2053 2394 
Q 2494 2394 2734 2622 
Q 2975 2850 2975 3272 
Q 2975 3691 2734 3919 
Q 2494 4147 2053 4147 
L 1259 4147 
z
M 628 4666 
L 2053 4666 
Q 2838 4666 3239 4311 
Q 3641 3956 3641 3272 
Q 3641 2581 3239 2228 
Q 2838 1875 2053 1875 
L 1259 1875 
L 1259 0 
L 628 0 
L 628 4666 
z
" transform="scale(0.015625)"/>
       <path id="DejaVuSans-72" d="M 2631 2963 
Q 2534 3019 2420 3045 
Q 2306 3072 2169 3072 
Q 1681 3072 1420 2755 
Q 1159 2438 1159 1844 
L 1159 0 
L 581 0 
L 581 3500 
L 1159 3500 
L 1159 2956 
Q 1341 3275 1631 3429 
Q 1922 3584 2338 3584 
Q 2397 3584 2469 3576 
Q 2541 3569 2628 3553 
L 2631 2963 
z
" transform="scale(0.015625)"/>
       <path id="DejaVuSans-69" d="M 603 3500 
L 1178 3500 
L 1178 0 
L 603 0 
L 603 3500 
z
M 603 4863 
L 1178 4863 
L 1178 4134 
L 603 4134 
L 603 4863 
z
" transform="scale(0.015625)"/>
       <path id="DejaVuSans-63" d="M 3122 3366 
L 3122 2828 
Q 2878 2963 2633 3030 
Q 2388 3097 2138 3097 
Q 1578 3097 1268 2742 
Q 959 2388 959 1747 
Q 959 1106 1268 751 
Q 1578 397 2138 397 
Q 2388 397 2633 464 
Q 2878 531 3122 666 
L 3122 134 
Q 2881 22 2623 -34 
Q 2366 -91 2075 -91 
Q 1284 -91 818 406 
Q 353 903 353 1747 
Q 353 2603 823 3093 
Q 1294 3584 2113 3584 
Q 2378 3584 2631 3529 
Q 2884 3475 3122 3366 
z
" transform="scale(0.015625)"/>
       <path id="DejaVuSans-20" transform="scale(0.015625)"/>
       <path id="DejaVuSans-28" d="M 1984 4856 
Q 1566 4138 1362 3434 
Q 1159 2731 1159 2009 
Q 1159 1288 1364 580 
Q 1569 -128 1984 -844 
L 1484 -844 
Q 1016 -109 783 600 
Q 550 1309 550 2009 
Q 550 2706 781 3412 
Q 1013 4119 1484 4856 
L 1984 4856 
z
" transform="scale(0.015625)"/>
       <path id="DejaVuSans-55" d="M 556 4666 
L 1191 4666 
L 1191 1831 
Q 1191 1081 1462 751 
Q 1734 422 2344 422 
Q 2950 422 3222 751 
Q 3494 1081 3494 1831 
L 3494 4666 
L 4128 4666 
L 4128 1753 
Q 4128 841 3676 375 
Q 3225 -91 2344 -91 
Q 1459 -91 1007 375 
Q 556 841 556 1753 
L 556 4666 
z
" transform="scale(0.015625)"/>
       <path id="DejaVuSans-53" d="M 3425 4513 
L 3425 3897 
Q 3066 4069 2747 4153 
Q 2428 4238 2131 4238 
Q 1616 4238 1336 4038 
Q 1056 3838 1056 3469 
Q 1056 3159 1242 3001 
Q 1428 2844 1947 2747 
L 2328 2669 
Q 3034 2534 3370 2195 
Q 3706 1856 3706 1288 
Q 3706 609 3251 259 
Q 2797 -91 1919 -91 
Q 1588 -91 1214 -16 
Q 841 59 441 206 
L 441 856 
Q 825 641 1194 531 
Q 1563 422 1919 422 
Q 2459 422 2753 634 
Q 3047 847 3047 1241 
Q 3047 1584 2836 1778 
Q 2625 1972 2144 2069 
L 1759 2144 
Q 1053 2284 737 2584 
Q 422 2884 422 3419 
Q 422 4038 858 4394 
Q 1294 4750 2059 4750 
Q 2388 4750 2728 4690 
Q 3069 4631 3425 4513 
z
" transform="scale(0.015625)"/>
       <path id="DejaVuSans-29" d="M 513 4856 
L 1013 4856 
Q 1481 4119 1714 3412 
Q 1947 2706 1947 2009 
Q 1947 1309 1714 600 
Q 1481 -109 1013 -844 
L 513 -844 
Q 928 -128 1133 580 
Q 1338 1288 1338 2009 
Q 1338 2731 1133 3434 
Q 928 4138 513 4856 
z
" transform="scale(0.015625)"/>
      </defs>
      <use xlink:href="#DejaVuSans-50"/>
      <use xlink:href="#DejaVuSans-72" x="58.552734"/>
      <use xlink:href="#DejaVuSans-69" x="99.666016"/>
      <use xlink:href="#DejaVuSans-63" x="127.449219"/>
      <use xlink:href="#DejaVuSans-65" x="182.429688"/>
      <use xlink:href="#DejaVuSans-20" x="243.953125"/>
      <use xlink:href="#DejaVuSans-28" x="275.740234"/>
      <use xlink:href="#DejaVuSans-55" x="314.753906"/>
      <use xlink:href="#DejaVuSans-53" x="387.947266"/>
      <use xlink:href="#DejaVuSans-44" x="451.423828"/>
      <use xlink:href="#DejaVuSans-29" x="528.425781"/>
     </g>
    </g>
   </g>
   <g id="line2d_18">
    <path d="M 72.329261 274.343709 
L 72.556636 273.218023 
L 73.011385 275.162389 
L 73.23876 275.111221 
L 73.466134 272.041171 
M 76.876753 258.584115 
L 77.104128 259.146957 
M 77.558877 253.927871 
L 77.786252 251.830003 
L 78.013626 251.03179 
L 78.468375 253.518531 
L 78.923125 245.843404 
L 79.150499 248.913455 
M 87.10861 294.759546 
L 87.335985 290.205638 
L 87.563359 294.964216 
L 88.245483 277.209089 
L 88.472858 279.409293 
L 88.700232 280.176805 
L 88.927607 274.804216 
M 98.022591 298.699445 
L 98.249965 298.18777 
M 103.706956 293.173353 
L 103.93433 293.838531 
L 104.161705 292.303506 
L 104.38908 295.987567 
L 104.616454 295.936399 
M 116.667308 299.978633 
L 116.894682 299.722795 
M 117.349432 298.904115 
L 117.576806 300.694978 
L 117.804181 300.64381 
M 121.2148 291.894166 
L 121.442174 294.503709 
L 121.669549 291.689496 
L 121.896924 293.531526 
L 122.124298 288.414775 
L 122.351673 286.572744 
L 122.579047 292.047668 
L 122.806422 287.954267 
L 123.033797 288.670612 
L 123.943295 278.897617 
L 124.17067 278.692947 
L 124.398044 277.362592 
M 130.764533 277.106754 
L 130.991908 274.855384 
M 133.265654 268.254775 
L 133.493028 270.454978 
L 133.720403 268.305942 
M 134.175152 261.654166 
L 134.402527 263.803201 
L 134.629901 261.705333 
L 134.857276 260.886653 
L 135.08465 262.370511 
L 135.312025 260.835485 
L 135.539399 262.268176 
L 135.766774 259.402795 
L 135.994149 259.146957 
M 146.226006 246.969089 
L 146.45338 249.169293 
M 150.773498 247.78777 
L 151.000872 248.708785 
M 151.455621 249.987973 
L 151.682996 250.141475 
L 151.910371 249.936805 
L 152.36512 245.280562 
L 152.592494 245.894572 
M 159.413732 264.314876 
L 159.641107 265.952237 
L 159.868481 261.040155 
L 160.095856 261.551831 
L 160.323231 263.393861 
L 160.550605 263.086856 
L 160.77798 263.700866 
L 161.005354 261.398328 
L 161.232729 260.426145 
L 161.460104 263.342694 
L 161.687478 255.360562 
L 161.914853 255.360562 
L 162.369602 254.644216 
L 162.596977 248.555282 
L 162.824351 250.03914 
L 163.2791 248.964622 
L 163.73385 239.600968 
L 163.961224 239.498633 
M 167.826592 229.623303 
L 168.281342 226.092744 
L 168.508716 229.725638 
L 168.736091 228.395282 
M 172.374084 222.818023 
L 172.601459 223.380866 
L 172.828834 214.017211 
L 173.056208 211.100663 
L 173.283583 211.305333 
L 173.510957 210.026145 
L 173.965706 212.942694 
L 174.193081 211.458836 
L 174.420456 209.156298 
L 174.64783 209.463303 
L 174.875205 216.575587 
L 175.102579 210.33315 
L 175.329954 208.030612 
L 175.557329 203.834876 
L 175.784703 197.285435 
L 176.012078 195.648074 
M 202.84228 248.708785 
L 203.069655 248.862287 
L 203.29703 242.568683 
M 216.939505 245.792237 
L 217.16688 251.778836 
L 217.621629 244.513049 
L 218.076378 239.805638 
M 238.085343 262.626348 
L 238.312718 260.067973 
L 238.540092 265.338227 
L 238.767467 261.14249 
L 238.994841 254.337211 
L 239.90434 241.391831 
L 240.131714 242.415181 
L 240.359089 242.875688 
L 240.586464 234.944724 
L 241.041213 238.52645 
M 253.77419 209.872643 
L 254.001565 214.580054 
L 254.228939 211.254166 
L 254.456314 211.202998 
M 254.911063 205.983912 
L 255.138438 205.165232 
L 255.365812 202.862694 
L 255.593187 202.913861 
M 257.412184 197.643607 
L 257.639558 197.541272 
L 257.866933 198.666957 
L 258.094308 194.573556 
M 258.549057 192.833861 
L 258.776431 192.219851 
L 259.003806 194.471221 
L 259.231181 195.136399 
L 259.458555 192.936196 
L 259.68593 196.77376 
L 259.913304 196.517922 
L 260.368054 181.986348 
M 282.878139 228.395282 
L 283.105513 227.21843 
L 283.332888 228.44645 
L 283.560263 221.385333 
M 294.246869 214.631221 
L 294.474243 209.667973 
L 294.701618 207.365435 
L 294.928992 208.08178 
L 295.156367 209.565638 
M 301.75023 211.407668 
L 301.977605 214.682389 
L 302.20498 211.612338 
L 302.432354 212.072846 
L 302.659729 215.859242 
L 303.569227 208.439952 
M 312.436836 208.08178 
L 312.664211 210.74249 
L 312.891586 210.486653 
M 318.575951 213.812541 
L 318.803325 211.458836 
L 319.0307 215.296399 
L 319.258074 215.756907 
L 319.485449 210.640155 
M 325.624563 210.486653 
L 325.851938 205.983912 
M 331.081553 208.951628 
L 331.308928 206.495587 
M 331.763677 209.616805 
L 331.991052 206.751424 
M 336.083795 207.211932 
L 336.311169 208.439952 
L 336.538544 211.919343 
L 336.765918 210.026145 
L 336.993293 210.384318 
M 355.410635 255.462897 
L 355.63801 255.718734 
M 363.596121 248.60645 
L 363.823496 252.137008 
L 364.05087 252.444013 
L 364.278245 251.011323 
M 367.688864 240.36848 
L 367.916238 241.545333 
L 368.143613 243.489699 
L 368.370987 242.978023 
L 368.598362 238.372947 
L 368.825737 237.810105 
M 372.236356 226.860257 
L 372.46373 223.022694 
L 372.691105 223.278531 
L 372.918479 226.911424 
L 373.145854 227.320765 
M 379.284968 218.929293 
L 379.512343 218.673455 
M 402.704552 263.956704 
L 402.931926 251.676501 
L 403.159301 251.727668 
L 403.61405 249.476298 
L 403.841425 257.765435 
L 404.068799 255.155891 
L 404.523548 247.020257 
L 404.750923 239.089293 
L 404.978298 239.652135 
L 405.205672 234.330714 
L 405.433047 233.205029 
L 405.660421 234.535384 
L 406.115171 227.934775 
L 406.56992 224.608886 
L 406.797294 225.836907 
L 407.024669 225.785739 
L 407.252044 224.404216 
L 407.706793 215.296399 
L 407.934167 212.021678 
M 413.618532 201.481171 
L 413.845907 202.402186 
L 414.073282 201.941678 
M 426.578884 184.902897 
L 426.806259 190.838328 
L 427.488383 185.363404 
L 427.715757 187.358937 
M 446.587849 158.398125 
L 446.815224 160.393658 
L 447.042598 155.839749 
M 461.821947 163.617211 
L 462.049322 162.184521 
L 462.276696 162.440359 
M 464.550442 142.638531 
L 464.777817 144.992237 
L 465.005191 143.047871 
M 465.459941 144.480562 
L 465.687315 150.415993 
L 465.91469 148.8298 
M 473.418052 325.664724 
L 473.645426 339.838125 
L 473.872801 313.640359 
M 481.603537 270.096805 
L 481.830912 278.84645 
L 482.058286 277.61843 
L 482.285661 278.999952 
L 482.513035 258.174775 
L 482.74041 263.189191 
L 482.967785 259.91447 
M 492.290143 233.307364 
L 492.517518 232.335181 
M 508.206365 232.232846 
L 508.43374 241.750003 
L 508.661114 236.530917 
L 508.888489 239.14046 
L 509.115863 229.776805 
M 518.665596 210.588988 
L 518.892971 209.974978 
M 519.802469 211.612338 
L 520.029844 210.640155 
M 521.394092 193.192034 
L 521.621466 192.168683 
M 522.758339 196.313252 
L 522.985714 186.386754 
L 523.213088 183.726044 
L 523.440463 184.851729 
M 530.489076 168.017617 
L 530.71645 164.742897 
L 530.943825 165.408074 
L 531.171199 168.017617 
L 531.398574 166.022084 
L 531.625949 155.993252 
L 531.853323 158.756298 
L 532.080698 158.142287 
L 532.308072 161.007668 
L 532.535447 152.462694 
L 532.990196 149.392643 
L 533.217571 149.03447 
L 533.444945 150.825333 
L 533.67232 151.388176 
L 534.127069 146.169089 
L 534.354444 148.727465 
M 538.674561 133.837719 
L 538.901936 146.424927 
L 539.356685 134.298227 
L 539.584059 133.786551 
L 539.811434 133.684216 
L 540.038809 135.270409 
L 540.266183 129.69315 
L 540.493558 130.204826 
L 540.720932 123.962389 
L 540.948307 124.115891 
L 541.175682 121.864521 
L 541.403056 123.041374 
M 552.999161 92.085029 
L 553.226535 88.912643 
L 553.45391 87.73579 
L 553.681285 84.768074 
L 553.908659 85.433252 
M 561.184646 110.249496 
L 561.412021 102.881374 
L 561.639395 102.779039 
L 561.86677 106.411932 
L 562.094145 101.397516 
L 562.321519 99.964826 
L 562.548894 104.979242 
L 562.776268 103.648886 
L 563.458392 86.3031 
M 572.326002 66.040765 
L 572.553376 64.301069 
M 573.008125 66.296602 
" clip-path="url(#p3f3999a0a6)" style="fill: none; stroke: #00ff7f; stroke-linecap: square"/>
   </g>
   <g id="line2d_19">
    <path d="M 80.287372 240.521983 
L 80.514747 243.080359 
L 81.196871 238.372947 
L 81.424245 234.484216 
L 81.65162 236.530917 
L 81.878994 234.330714 
L 82.106369 233.409699 
L 82.333744 231.158328 
L 82.788493 248.19711 
M 90.746604 265.389394 
L 90.973978 265.133556 
L 91.201353 263.803201 
L 91.428728 260.681983 
L 91.656102 260.93782 
L 91.883477 259.812135 
L 92.110851 260.221475 
L 92.338226 267.436095 
L 92.792975 266.566247 
L 93.02035 269.278125 
L 93.247724 270.352643 
L 93.475099 276.236907 
L 93.929848 279.358125 
M 95.066721 278.539445 
L 95.294096 281.046653 
L 95.52147 285.856399 
M 101.205835 276.543912 
L 101.43321 276.850917 
M 106.662826 272.450511 
L 106.8902 271.785333 
L 107.117575 271.887668 
L 107.344949 267.487262 
L 108.254448 277.311424 
L 108.481822 275.469394 
L 108.709197 274.804216 
L 108.936572 280.637313 
L 109.163946 281.148988 
M 154.411491 238.32178 
L 154.638866 239.191628 
M 155.320989 238.219445 
L 155.548364 236.121577 
L 155.775739 236.070409 
L 156.003113 235.047059 
L 156.230488 236.530917 
L 156.457862 232.335181 
L 156.685237 232.744521 
L 156.912612 235.200562 
L 157.139986 241.442998 
L 157.367361 241.135993 
M 187.153433 185.721577 
L 187.380808 186.284419 
M 189.881928 199.536805 
L 190.109303 208.49112 
L 190.336678 208.798125 
M 190.791427 208.439952 
L 191.018801 211.612338 
L 191.246176 210.53782 
M 196.021042 216.115079 
L 196.703166 218.98046 
M 208.526645 227.269597 
L 208.75402 229.930308 
M 210.573017 219.082795 
L 210.800391 217.95711 
L 211.027766 220.41315 
M 231.718854 218.059445 
L 231.946229 219.492135 
M 265.14292 157.988785 
L 265.370295 156.965435 
M 273.55578 187.358937 
L 273.783155 179.427973 
L 274.237904 176.971932 
L 274.465279 181.781678 
L 274.692653 178.097617 
M 277.193774 204.039546 
L 277.421148 205.932744 
L 277.648523 205.011729 
M 296.975364 202.402186 
L 297.202738 196.927262 
L 297.430113 198.359952 
M 297.884862 194.061881 
L 298.112237 191.759343 
L 298.339611 194.778227 
L 298.566986 196.108582 
L 298.794361 198.462287 
M 305.842973 194.624724 
L 306.070348 193.447871 
L 306.297722 194.061881 
L 306.525097 194.010714 
L 306.752472 195.596907 
M 307.207221 198.61579 
L 307.434595 201.839343 
M 315.847455 196.364419 
L 316.07483 197.38777 
M 334.037423 201.071831 
L 334.264798 198.308785 
M 344.724029 192.833861 
L 345.178778 207.109597 
M 345.633528 212.328683 
L 346.315651 206.597922 
L 346.543026 206.444419 
M 349.953645 218.98046 
L 350.18102 221.129496 
L 350.408394 221.845841 
M 385.424082 203.630206 
L 385.651457 202.402186 
L 385.878831 207.05843 
M 386.78833 202.913861 
L 387.015704 205.625739 
L 387.243079 204.244216 
M 387.925203 207.314267 
L 388.152577 207.46777 
L 388.379952 220.82249 
M 399.066558 215.501069 
L 399.521307 209.3098 
L 399.748682 215.552237 
L 399.976057 205.267567 
L 400.203431 210.844826 
L 400.430806 213.556704 
L 400.65818 213.352034 
L 400.885555 219.79914 
M 449.543719 147.345942 
L 449.771093 143.661881 
L 449.998468 145.094572 
L 450.225843 144.020054 
L 450.453217 145.248074 
M 468.643185 123.041374 
L 468.87056 121.557516 
M 470.234807 165.101069 
L 470.462182 166.175587 
L 470.689556 148.62513 
M 505.250495 204.551221 
L 505.47787 206.239749 
L 505.705244 204.244216 
M 556.864529 63.584724 
L 557.091903 63.482389 
L 557.319278 69.878328 
L 557.546653 67.064115 
L 558.001402 86.610105 
M 574.827122 47.722795 
L 575.054497 45.57376 
L 575.509246 39.075485 
L 575.73662 37.438125 
L 575.963995 42.094369 
L 576.19137 42.810714 
L 576.418744 59.644826 
L 576.646119 59.13315 
L 576.873493 62.919546 
L 576.873493 62.919546 
" clip-path="url(#p3f3999a0a6)" style="fill: none; stroke: #ff4500; stroke-linecap: square"/>
   </g>
   <g id="line2d_20">
    <path d="M 73.693509 271.375993 
L 74.375633 267.94777 
M 74.830382 263.342694 
L 75.967255 253.825536 
L 76.19463 252.904521 
M 79.377874 246.406247 
L 79.832623 242.875688 
L 80.059998 240.726653 
M 83.015867 249.169293 
L 83.243242 252.444013 
L 83.470617 260.477313 
L 83.925366 268.868785 
L 84.15274 266.822084 
L 84.60749 274.855384 
L 84.834864 269.124622 
L 85.062239 269.073455 
L 85.289613 272.194673 
L 85.744363 282.325841 
L 85.971737 273.269191 
L 86.653861 269.073455 
L 86.881236 280.176805 
M 89.154982 277.157922 
L 89.382356 278.84645 
L 89.609731 278.488277 
L 89.837105 273.473861 
L 90.06448 273.320359 
M 94.157223 279.613963 
L 94.611972 281.762998 
L 94.839347 281.609496 
M 95.748845 287.186754 
L 96.430969 306.118734 
L 96.658343 298.750612 
L 96.885718 299.518125 
L 97.113093 297.522592 
L 97.340467 294.043201 
L 97.567842 295.015384 
L 97.795216 296.652744 
M 98.47734 301.001983 
L 98.704715 303.867364 
L 98.932089 301.05315 
L 99.159464 304.532541 
L 99.614213 292.559343 
L 99.841588 292.815181 
L 100.068962 290.103303 
L 100.296337 292.303506 
L 100.523711 291.331323 
L 100.751086 287.954267 
L 100.978461 288.158937 
M 101.660584 282.632846 
L 101.887959 288.158937 
L 102.115334 290.76848 
L 102.342708 289.642795 
L 102.570083 287.544927 
L 102.797457 288.977617 
M 103.252207 287.69843 
L 103.479581 287.186754 
M 104.843829 287.391424 
L 105.071203 283.963201 
L 105.298578 283.758531 
L 105.525953 285.037719 
L 105.980702 273.218023 
L 106.208076 273.576196 
L 106.435451 275.725232 
M 109.391321 285.498227 
L 109.618695 290.15447 
L 109.84607 289.796298 
L 110.073445 291.331323 
L 110.755568 285.447059 
L 111.210318 290.000968 
L 111.437692 294.145536 
L 111.665067 291.535993 
L 112.347191 295.629394 
L 112.574565 292.764013 
L 113.029314 297.829597 
L 113.256689 298.494775 
L 113.711438 296.089902 
L 114.166187 292.047668 
L 114.393562 292.917516 
L 114.620937 300.694978 
L 114.848311 302.537008 
L 115.30306 300.592643 
L 115.530435 299.057617 
L 115.75781 293.173353 
L 115.985184 297.829597 
L 116.212559 295.782897 
L 116.439933 295.117719 
M 118.031555 298.80178 
L 118.486305 295.629394 
L 118.713679 297.266754 
L 118.941054 297.266754 
L 119.168428 292.712846 
L 119.395803 294.964216 
L 119.850552 289.9498 
L 120.077927 289.33579 
L 120.305301 291.331323 
L 120.532676 288.261272 
L 120.760051 286.777414 
L 120.987425 287.596095 
M 124.625419 275.981069 
L 124.852793 274.241374 
L 125.080168 274.446044 
L 125.307543 275.213556 
L 126.217041 271.478328 
L 126.444416 272.450511 
L 126.67179 269.124622 
L 126.899165 268.919952 
L 127.126539 263.700866 
L 127.353914 264.161374 
L 128.036038 273.064521 
L 128.263412 270.81315 
L 128.490787 269.738633 
L 128.718162 271.427161 
L 129.400285 268.664115 
M 129.855035 274.906551 
L 130.082409 271.631831 
L 130.309784 273.985536 
L 130.537158 273.064521 
M 131.219282 272.706348 
L 131.674031 268.050105 
L 131.901406 267.7431 
L 132.128781 268.510612 
L 132.58353 266.105739 
L 132.810904 263.854369 
L 133.038279 264.775384 
M 136.221523 257.816602 
L 136.448898 256.230409 
L 136.676272 256.332744 
L 136.903647 255.565232 
L 137.131022 256.895587 
L 137.358396 252.392846 
L 137.585771 251.522998 
L 137.813145 251.267161 
L 138.04052 250.090308 
L 138.267895 252.546348 
L 138.495269 252.392846 
M 138.950018 249.118125 
L 139.859517 255.002389 
L 140.314266 248.964622 
L 140.541641 251.369496 
L 140.769015 250.601983 
L 141.223764 247.685435 
L 141.451139 247.890105 
L 141.678514 247.122592 
L 141.905888 240.061475 
L 142.133263 241.698836 
L 142.588012 249.271628 
L 143.042761 251.267161 
L 143.270136 250.294978 
L 143.49751 252.239343 
L 143.724885 251.267161 
L 144.407009 244.103709 
L 144.634383 245.689902 
L 144.861758 248.964622 
M 145.316507 250.090308 
L 145.543882 247.17376 
L 145.771256 248.094775 
L 145.998631 246.048074 
M 146.680755 248.043607 
L 147.362879 244.564216 
L 147.590253 244.513049 
L 147.817628 242.619851 
L 148.045002 242.364013 
L 148.272377 241.135993 
L 148.499752 243.131526 
M 148.954501 240.726653 
L 149.40925 238.782287 
L 149.636625 239.293963 
L 149.863999 242.005841 
L 150.091374 239.293963 
L 150.318748 241.187161 
L 150.546123 242.005841 
M 152.819869 240.317313 
L 153.047244 240.57315 
M 153.501993 237.144927 
L 153.729367 236.326247 
L 153.956742 234.535384 
L 154.184117 235.149394 
M 154.86624 238.424115 
L 155.093615 238.168277 
M 157.594735 253.109191 
L 157.82211 254.951221 
L 158.049485 251.267161 
M 158.504234 254.695384 
L 158.731608 254.234876 
L 159.186358 259.91447 
M 164.188599 236.479749 
L 164.415973 236.786754 
L 164.870723 232.130511 
L 165.098097 234.381881 
L 165.325472 231.874673 
L 165.780221 223.329699 
L 166.007596 222.664521 
L 166.23497 223.534369 
L 166.462345 226.655587 
L 166.689719 227.167262 
L 166.917094 223.841374 
L 167.144469 225.427567 
L 167.371843 228.497617 
L 167.599218 226.297414 
M 168.963465 225.888074 
L 169.19084 224.455384 
L 169.418215 223.739039 
L 169.645589 219.79914 
L 169.872964 218.77579 
L 170.100338 219.79914 
L 170.327713 217.240765 
L 170.555088 217.650105 
L 170.782462 216.575587 
L 171.009837 218.673455 
L 171.464586 214.170714 
L 171.691961 214.580054 
L 171.919335 213.812541 
L 172.14671 217.445435 
M 176.239452 195.443404 
L 176.466827 192.117516 
L 176.694202 192.782694 
L 176.921576 188.996298 
L 177.148951 187.972947 
L 177.376325 184.135384 
L 177.6037 187.665942 
L 177.831075 187.972947 
L 178.058449 180.09315 
L 178.285824 181.372338 
L 178.513198 177.585942 
L 178.740573 177.43244 
L 178.967948 180.451323 
L 179.195322 178.86513 
L 179.422697 188.177617 
L 179.650071 189.35447 
L 179.877446 185.516907 
L 180.104821 187.358937 
M 180.55957 195.085232 
L 180.786944 198.155282 
L 181.014319 196.77376 
L 181.241694 198.052947 
L 181.469068 192.885029 
L 181.696443 195.801577 
L 181.923817 196.876095 
L 182.151192 192.833861 
L 182.378567 202.248683 
L 182.833316 194.624724 
L 183.06069 203.220866 
L 183.288065 203.118531 
L 183.51544 207.774775 
L 183.970189 201.992846 
L 184.197563 202.811526 
L 184.424938 206.904927 
L 184.652313 205.676907 
L 184.879687 219.79914 
L 185.107062 216.524419 
L 185.334436 216.831424 
L 185.561811 216.473252 
L 185.789186 209.258633 
L 186.01656 209.51447 
L 186.243935 205.165232 
L 186.471309 205.318734 
L 186.698684 196.415587 
L 186.926059 196.620257 
M 187.608182 190.070815 
L 187.835557 200.25315 
L 188.062932 202.504521 
L 188.290306 201.941678 
M 188.745055 199.63914 
L 188.97243 200.25315 
L 189.199805 196.97843 
M 191.473551 212.482186 
L 191.9283 211.151831 
L 192.610424 208.28645 
L 193.065173 209.667973 
L 193.519922 224.864724 
L 193.747296 221.794673 
L 193.974671 221.385333 
L 194.202046 230.28848 
L 194.42942 231.055993 
L 194.884169 219.236298 
L 195.111544 225.427567 
L 195.338919 224.199546 
L 195.566293 228.088277 
L 195.793668 220.310815 
M 196.930541 220.924826 
L 197.157915 221.436501 
L 197.38529 224.557719 
L 197.612665 220.566653 
L 197.840039 221.385333 
L 198.067414 226.092744 
L 198.294788 221.129496 
L 198.522163 224.915891 
L 198.749538 230.748988 
L 198.976912 231.516501 
L 199.204287 235.968074 
L 199.431661 236.684419 
L 199.659036 239.5498 
L 200.113785 234.381881 
L 200.34116 234.740054 
L 200.568534 236.889089 
L 201.023284 230.339648 
L 201.250658 224.813556 
L 202.614906 242.671018 
M 203.524404 241.596501 
L 203.751779 239.14046 
L 203.979153 233.000359 
L 204.433903 236.428582 
L 204.661277 233.153861 
L 205.116026 231.772338 
L 205.343401 231.107161 
L 205.570776 227.883607 
L 205.79815 229.316298 
L 206.025525 228.85579 
L 206.252899 229.981475 
L 206.480274 228.24178 
L 206.707649 233.256196 
L 206.935023 231.567668 
L 207.162398 230.851323 
L 207.389772 230.595485 
L 207.617147 227.985942 
L 207.844522 229.981475 
L 208.299271 224.301881 
M 208.981395 229.367465 
L 209.208769 227.883607 
L 209.436144 229.162795 
L 209.663518 226.502084 
M 210.118268 224.762389 
L 210.345642 222.562186 
M 211.255141 223.432034 
L 211.482515 231.004826 
L 211.937264 260.221475 
L 212.392013 242.824521 
L 212.619388 243.387364 
L 213.074137 259.453963 
L 213.301512 255.616399 
L 213.528886 254.593049 
L 213.756261 261.602998 
L 213.983636 256.025739 
L 214.21101 260.32381 
L 214.438385 259.50513 
L 214.665759 252.392846 
L 214.893134 252.188176 
L 215.575258 239.95914 
L 215.802632 240.624318 
L 216.030007 237.29843 
M 216.484756 243.694369 
L 216.712131 247.327262 
M 218.303753 233.205029 
L 218.531128 234.126044 
L 218.985877 226.195079 
L 219.213251 226.860257 
L 219.440626 223.994876 
L 219.895375 230.186145 
L 220.577499 215.910409 
M 221.032248 217.598937 
L 221.259623 213.966044 
L 221.486997 218.008277 
M 221.941747 218.264115 
L 222.169121 217.905942 
L 222.396496 218.468785 
L 222.62387 222.255181 
L 222.851245 213.556704 
L 223.07862 217.75244 
L 223.305994 219.59447 
L 223.533369 217.95711 
L 223.988118 237.656602 
L 224.215493 233.153861 
L 224.442867 232.693353 
L 224.670242 235.405232 
L 224.897616 239.907973 
L 225.124991 235.405232 
L 225.352366 235.405232 
L 225.57974 231.925841 
L 225.807115 230.69782 
L 226.034489 225.683404 
L 226.261864 224.813556 
L 226.489239 226.962592 
L 226.716613 225.325232 
L 226.943988 221.794673 
L 227.171362 224.813556 
L 227.398737 219.18513 
L 227.853486 233.921374 
L 228.080861 226.348582 
L 228.308235 227.474267 
L 228.53561 227.83244 
L 229.217734 233.665536 
L 229.445108 231.823506 
L 229.672483 227.474267 
L 229.899858 219.59447 
L 230.127232 221.641171 
L 230.354607 226.399749 
L 230.809356 223.176196 
L 231.03673 224.660054 
L 231.264105 224.660054 
L 231.49148 222.408683 
M 232.173603 223.073861 
L 232.400978 227.985942 
L 232.628353 220.20848 
L 232.855727 221.334166 
L 233.310476 234.688886 
L 233.537851 232.437516 
L 233.765226 235.098227 
L 233.9926 240.77782 
L 234.219975 241.698836 
L 234.447349 244.359546 
L 234.674724 242.312846 
L 234.902099 252.751018 
L 235.129473 250.65315 
L 235.356848 240.061475 
L 235.584222 242.517516 
L 235.811597 234.381881 
L 236.038972 242.057008 
L 236.266346 245.024724 
L 236.493721 237.09376 
L 236.721095 236.428582 
L 236.94847 240.010308 
L 237.175845 237.400765 
L 237.403219 237.196095 
L 237.857968 255.718734 
M 241.268587 227.474267 
L 241.723337 222.408683 
L 241.950711 222.357516 
L 242.178086 221.282998 
M 243.087584 215.603404 
L 243.314959 215.552237 
L 243.542333 215.347567 
L 243.997083 204.397719 
L 244.224457 206.239749 
L 244.451832 214.733556 
L 244.679206 214.733556 
L 244.906581 216.984927 
L 245.133956 216.831424 
L 245.36133 213.096196 
L 245.588705 204.039546 
L 245.816079 204.858227 
L 246.043454 202.248683 
L 246.498203 203.425536 
L 246.725578 206.239749 
L 246.952952 205.216399 
L 247.180327 207.87711 
L 247.407702 205.523404 
L 247.635076 206.393252 
L 247.862451 203.323201 
L 248.3172 207.570105 
L 248.771949 202.351018 
L 248.999324 202.146348 
M 249.454073 216.93376 
L 249.908822 208.951628 
L 250.136197 207.314267 
L 250.363571 207.570105 
L 250.590946 208.439952 
L 250.81832 212.328683 
L 251.045695 205.830409 
L 251.27307 205.165232 
L 251.500444 199.076298 
L 251.727819 197.848277 
L 252.182568 188.279952 
L 252.409943 188.33112 
L 252.637317 197.79711 
L 252.864692 195.289902 
L 253.092066 199.178633 
L 253.319441 195.085232 
L 253.546816 203.169699 
M 255.820562 202.555688 
L 256.275311 198.61579 
L 256.502685 201.941678 
L 256.957435 196.569089 
L 257.184809 195.596907 
M 261.050177 172.162186 
L 261.277552 174.157719 
L 261.504927 178.86513 
L 261.732301 171.548176 
L 261.959676 168.478125 
L 262.18705 168.529293 
L 262.414425 165.970917 
L 262.6418 170.115485 
L 262.869174 169.961983 
L 263.096549 168.733963 
L 263.323923 166.482592 
L 263.551298 166.431424 
L 263.778673 165.510409 
L 264.006047 161.417008 
L 264.233422 162.286856 
L 264.460796 164.589394 
L 264.688171 168.222287 
L 264.915546 163.924216 
M 265.597669 164.538227 
L 266.052419 169.143303 
L 266.279793 168.836298 
L 266.507168 168.017617 
L 266.734542 165.510409 
L 266.961917 166.022084 
L 267.189292 171.292338 
L 267.416666 169.347973 
L 267.644041 169.80848 
L 267.871415 175.334572 
L 268.09879 173.492541 
L 268.326165 175.181069 
L 268.553539 178.097617 
L 268.780914 175.641577 
L 269.008288 175.385739 
L 269.235663 177.381272 
L 269.463037 175.334572 
L 269.690412 179.837313 
L 269.917787 175.385739 
L 270.145161 176.255587 
L 270.372536 175.795079 
L 270.59991 176.920765 
L 271.282034 166.687262 
L 271.509409 172.366856 
L 271.736783 190.531323 
L 271.964158 185.312237 
L 272.191533 199.485638 
L 272.646282 196.466754 
L 272.873656 196.262084 
L 273.101031 192.322186 
L 273.328406 192.987364 
M 274.920028 184.135384 
L 275.147402 187.205435 
L 275.829526 210.12848 
L 276.056901 209.974978 
L 276.284275 210.691323 
L 276.51165 208.08178 
L 276.739025 212.175181 
L 276.966399 207.365435 
M 277.875898 202.299851 
L 278.103272 201.378836 
L 278.330647 202.351018 
L 278.558021 203.937211 
L 278.785396 202.965029 
L 279.012771 203.732541 
L 279.240145 209.3098 
L 279.46752 220.361983 
L 279.694894 219.3898 
L 279.922269 212.686856 
L 280.377018 227.781272 
L 280.604393 230.90249 
L 280.831767 227.730105 
L 281.059142 220.668988 
L 281.286517 218.519952 
L 281.741266 231.567668 
L 281.96864 229.162795 
L 282.196015 219.645638 
L 282.42339 223.073861 
L 282.650764 224.250714 
M 283.787637 223.125029 
L 284.469761 214.938227 
L 284.92451 225.734572 
L 285.379259 218.673455 
L 285.606634 216.012744 
L 285.834009 207.723607 
L 286.061383 204.807059 
L 286.288758 205.267567 
L 286.516132 202.453353 
L 286.743507 202.658023 
L 286.970882 212.021678 
L 287.198256 214.477719 
L 287.653005 203.681374 
L 287.88038 202.709191 
L 288.335129 218.57112 
L 288.789878 216.626754 
L 289.017253 219.133963 
L 289.472002 208.746957 
L 289.699377 207.365435 
L 289.926751 201.174166 
L 290.154126 199.792643 
L 290.3815 199.741475 
L 291.063624 209.872643 
L 291.290999 207.723607 
L 291.518373 208.337617 
L 291.745748 205.062897 
L 291.973123 204.346551 
L 292.200497 208.69579 
L 292.655246 202.044013 
L 292.882621 201.941678 
L 293.109996 204.755891 
L 293.33737 205.574572 
L 293.792119 212.584521 
L 294.019494 209.565638 
M 295.383742 206.239749 
L 295.611116 205.216399 
L 295.838491 202.197516 
L 296.065865 202.044013 
L 296.520615 205.728074 
L 296.747989 203.220866 
M 299.021735 200.150815 
L 299.476484 204.141881 
L 299.931234 218.315282 
L 300.158608 219.59447 
L 300.385983 218.57112 
L 300.613357 218.673455 
L 300.840732 210.33315 
L 301.068107 211.151831 
L 301.295481 209.207465 
L 301.522856 209.928415 
M 303.796602 207.211932 
L 304.023976 207.211932 
L 304.251351 206.597922 
L 304.478726 204.346551 
L 304.7061 203.732541 
L 305.160849 198.104115 
L 305.615599 199.84381 
M 307.66197 202.965029 
L 307.889344 207.416602 
L 308.116719 204.909394 
L 308.344094 205.625739 
L 308.571468 211.305333 
L 308.798843 213.352034 
L 309.026217 209.412135 
L 309.480967 214.631221 
L 309.708341 211.356501 
L 310.16309 215.142897 
L 310.390465 213.914876 
L 310.61784 216.729089 
L 311.072589 212.738023 
L 311.527338 208.849293 
L 311.754713 208.49112 
L 311.982087 205.062897 
L 312.209462 205.011729 
M 313.11896 208.28645 
L 313.346335 203.937211 
L 313.573709 205.779242 
M 314.028459 204.858227 
L 314.255833 205.881577 
L 314.937957 198.104115 
L 315.165332 197.490105 
M 316.302205 198.257617 
L 316.529579 197.848277 
L 316.756954 200.45782 
L 316.984328 197.38777 
L 317.211703 201.276501 
L 317.439078 200.25315 
L 317.666452 205.165232 
L 317.893827 205.165232 
L 318.121201 199.741475 
L 318.348576 205.830409 
M 319.712824 209.974978 
L 320.167573 202.504521 
L 320.394947 203.425536 
L 320.622322 200.201983 
L 320.849697 202.197516 
L 321.077071 202.504521 
L 321.304446 203.323201 
L 321.53182 202.760359 
L 321.759195 199.792643 
L 321.98657 199.280968 
L 322.213944 200.45782 
L 322.441319 199.894978 
L 322.668693 197.950612 
L 322.896068 201.890511 
L 323.123443 202.760359 
L 323.350817 201.327668 
L 323.578192 201.788176 
L 324.48769 210.947161 
L 324.715065 203.937211 
L 324.942439 205.216399 
L 325.169814 203.527871 
L 325.397189 206.188582 
M 326.079312 207.211932 
L 326.306687 202.862694 
L 326.534061 204.193049 
L 326.761436 202.146348 
L 326.988811 205.421069 
L 327.216185 205.881577 
L 327.898309 199.536805 
L 328.125684 200.713658 
L 328.353058 199.587973 
L 328.580433 196.824927 
L 328.807807 196.466754 
L 329.035182 192.475688 
L 329.262557 197.643607 
L 329.489931 198.769293 
L 329.717306 195.187567 
L 329.94468 194.368886 
L 330.626804 200.764826 
L 330.854179 201.583506 
M 332.218426 205.881577 
L 332.673176 207.109597 
L 333.127925 203.425536 
L 333.355299 204.807059 
L 333.810049 202.504521 
M 334.492172 197.1831 
L 334.719547 199.332135 
L 334.946922 198.82046 
L 335.174296 199.280968 
L 335.401671 200.560155 
L 335.85642 204.653556 
M 337.220668 210.435485 
L 337.448042 208.388785 
L 337.675417 204.807059 
L 337.902791 205.881577 
L 338.584915 197.38777 
L 339.039664 196.466754 
L 339.267039 194.266551 
L 339.494414 195.187567 
L 339.721788 199.587973 
L 339.949163 196.006247 
L 340.403912 199.178633 
L 340.631287 195.955079 
L 340.858661 196.927262 
L 341.086036 196.364419 
L 341.540785 200.04848 
L 341.76816 199.894978 
L 341.995534 199.2298 
M 342.450283 200.355485 
L 342.677658 203.937211 
L 342.905033 204.346551 
L 343.132407 203.272034 
L 343.359782 201.071831 
L 343.587156 201.122998 
L 343.814531 199.02513 
L 344.041906 198.308785 
L 344.26928 198.41112 
L 344.496655 195.699242 
M 346.770401 208.030612 
L 346.997775 209.258633 
L 347.22515 216.524419 
L 347.452524 216.319749 
L 347.679899 214.170714 
L 348.134648 224.148379 
L 348.362023 225.529902 
L 348.589397 228.804622 
L 348.816772 228.03711 
L 349.044147 225.222897 
L 349.271521 230.441983 
M 350.635769 223.278531 
L 351.090518 231.670003 
M 351.545267 233.256196 
L 351.772642 236.633252 
L 352.000016 248.350612 
L 352.227391 248.299445 
L 352.454766 249.936805 
L 352.68214 260.886653 
L 352.909515 251.625333 
L 353.136889 251.471831 
L 353.364264 248.81112 
L 353.591639 251.574166 
L 354.046388 245.792237 
L 354.273762 250.346145 
M 354.728512 253.620866 
L 354.955886 247.5831 
L 355.183261 246.508582 
M 355.865385 255.360562 
L 356.092759 255.514064 
L 356.320134 251.267161 
L 357.457007 242.619851 
L 357.911756 241.903506 
L 358.139131 242.005841 
L 358.366505 239.293963 
L 358.59388 242.671018 
L 358.821254 244.001374 
L 359.276004 249.118125 
L 359.503378 255.923404 
L 359.730753 255.309394 
L 359.958127 253.876704 
L 360.185502 244.410714 
L 360.412877 244.871221 
L 360.640251 250.090308 
L 361.095 242.824521 
L 361.322375 242.978023 
L 361.54975 245.894572 
L 361.777124 247.122592 
L 362.004499 247.531932 
L 362.231873 246.713252 
L 362.459248 251.011323 
L 362.913997 246.662084 
L 363.141372 242.159343 
L 363.368746 242.978023 
M 364.505619 251.727668 
L 364.960368 240.16381 
L 365.187743 241.698836 
L 365.415118 238.168277 
L 365.642492 239.600968 
L 365.869867 239.856805 
L 366.324616 232.898023 
L 366.551991 234.893556 
L 367.00674 229.111628 
L 367.234114 230.49315 
L 367.461489 233.921374 
M 369.053111 233.870206 
L 369.280486 234.688886 
L 369.735235 231.414166 
L 369.96261 225.990409 
L 370.189984 227.371932 
L 370.417359 225.581069 
L 370.644733 222.050511 
L 370.872108 223.125029 
L 371.099483 222.152846 
L 371.326857 222.152846 
L 371.554232 220.668988 
L 371.781606 221.282998 
L 372.008981 218.826957 
M 373.373229 222.818023 
L 373.600603 220.873658 
L 373.827978 217.650105 
L 374.055352 218.724622 
L 374.282727 217.394267 
L 374.510102 218.98046 
L 374.737476 215.296399 
L 374.964851 214.273049 
L 375.192225 216.575587 
L 375.4196 213.454369 
L 375.646975 208.49112 
L 375.874349 206.239749 
L 376.101724 209.616805 
L 376.329098 208.746957 
L 376.556473 210.12848 
L 376.783848 208.849293 
L 377.011222 210.12848 
L 377.693346 216.984927 
L 377.920721 212.124013 
L 378.148095 216.166247 
L 378.37547 217.036095 
L 378.602844 219.133963 
L 378.830219 215.859242 
L 379.057594 214.477719 
M 379.739717 211.765841 
L 379.967092 208.798125 
L 380.194467 210.486653 
L 380.421841 205.932744 
L 380.87659 207.2631 
L 381.103965 209.71914 
L 381.33134 209.51447 
L 381.558714 212.738023 
L 381.786089 213.556704 
L 382.013463 211.510003 
L 382.695587 200.918328 
L 382.922962 200.611323 
L 383.377711 205.625739 
L 383.605085 206.700257 
L 383.83246 204.193049 
L 384.059835 205.728074 
L 384.287209 199.997313 
L 384.514584 199.894978 
L 384.741958 202.658023 
L 384.969333 200.969496 
L 385.196708 206.086247 
M 386.106206 205.165232 
L 386.333581 205.216399 
L 386.560955 205.011729 
M 387.470454 206.290917 
L 387.697828 211.254166 
M 388.607327 220.771323 
L 388.834701 225.683404 
L 389.062076 223.739039 
L 389.28945 218.212947 
L 389.516825 222.050511 
L 389.7442 222.971526 
L 390.198949 230.69782 
L 390.426323 230.90249 
L 390.653698 225.120562 
L 390.881073 224.557719 
L 391.108447 230.595485 
L 391.335822 242.057008 
L 391.563196 243.080359 
L 391.790571 240.470815 
L 392.017946 232.437516 
L 392.24532 233.972541 
L 392.472695 234.740054 
L 392.700069 231.311831 
L 392.927444 236.889089 
L 393.154819 235.149394 
L 393.609568 226.297414 
L 393.836942 236.019242 
L 394.291692 225.529902 
L 394.519066 230.28848 
L 394.746441 228.395282 
L 394.973815 231.721171 
L 395.20119 225.785739 
L 395.428565 223.739039 
L 395.655939 218.878125 
L 395.883314 218.57112 
L 396.110688 218.622287 
L 396.338063 217.803607 
L 396.565438 218.212947 
L 396.792812 219.236298 
L 397.020187 222.050511 
L 397.247561 217.650105 
L 397.474936 217.087262 
L 397.702311 221.334166 
L 397.929685 220.975993 
L 398.15706 221.794673 
L 398.384434 221.027161 
L 398.611809 219.287465 
L 398.839184 215.603404 
M 401.11293 222.306348 
L 401.340304 223.483201 
L 401.567679 238.833455 
L 401.795053 234.791221 
L 402.249802 245.024724 
L 402.477177 250.397313 
M 408.161542 208.644622 
L 408.388917 204.244216 
M 408.843666 203.783709 
L 409.07104 201.327668 
L 409.298415 204.141881 
L 409.52579 200.611323 
L 409.753164 200.611323 
L 409.980539 199.43447 
L 410.207913 202.146348 
L 410.890037 195.648074 
L 411.117412 195.750409 
L 411.344786 198.462287 
L 411.572161 198.052947 
L 411.799536 195.494572 
L 412.02691 198.922795 
L 412.254285 200.25315 
L 412.481659 202.402186 
L 412.709034 201.276501 
M 413.163783 200.66249 
L 413.391158 199.485638 
M 414.300656 195.648074 
L 414.755405 191.503506 
L 414.98278 190.838328 
L 415.210155 192.219851 
M 415.664904 195.750409 
L 415.892278 194.420054 
L 416.119653 186.642592 
L 416.347028 189.866145 
L 416.574402 189.303303 
L 416.801777 185.772744 
L 417.029151 187.051932 
L 417.256526 185.926247 
L 417.711275 186.591424 
L 417.93865 183.470206 
L 418.393399 184.698227 
L 418.620774 181.577008 
L 419.075523 186.437922 
L 419.302897 182.344521 
L 419.530272 182.651526 
L 419.757647 180.50249 
L 419.985021 182.805029 
L 420.212396 192.936196 
L 420.43977 196.927262 
L 420.667145 193.601374 
L 420.89452 198.41112 
L 421.349269 189.456805 
L 421.576643 190.37782 
L 421.804018 186.89843 
L 422.031392 191.247668 
L 422.258767 187.051932 
L 422.713516 186.233252 
L 422.940891 182.446856 
L 423.168265 183.879546 
L 423.39564 191.964013 
L 423.623015 192.424521 
L 423.850389 191.298836 
L 424.077764 186.591424 
L 424.305138 187.051932 
L 424.532513 185.414572 
L 424.987262 180.604826 
L 425.214637 181.474673 
L 425.442011 187.972947 
L 425.669386 184.186551 
L 426.35151 180.451323 
M 427.943132 178.097617 
L 428.170507 177.22777 
L 428.397881 175.539242 
L 428.625256 177.0231 
L 429.080005 174.260054 
L 429.30738 172.315688 
L 429.534754 172.059851 
L 429.762129 167.14777 
L 429.989503 167.608277 
L 430.444253 162.747364 
L 430.671627 169.347973 
L 430.899002 170.934166 
L 431.353751 186.796095 
L 431.8085 183.828379 
L 432.035875 184.033049 
L 432.490624 170.831831 
L 432.717999 172.469191 
L 433.172748 169.296805 
L 433.400122 166.636095 
L 433.627497 172.673861 
L 434.309621 174.720562 
L 434.536995 176.255587 
L 434.76437 176.255587 
L 434.991745 183.674876 
L 435.219119 184.084216 
L 435.446494 179.018633 
L 435.673868 178.66046 
L 435.901243 181.321171 
L 436.583367 174.413556 
L 436.810741 176.204419 
L 437.038116 176.204419 
L 437.265491 174.004216 
L 437.492865 183.009699 
L 437.947614 173.646044 
L 438.174989 165.612744 
L 438.402364 166.175587 
L 438.629738 167.403607 
L 438.857113 166.73843 
M 439.311862 169.245638 
L 439.766611 161.110003 
L 439.993986 164.435891 
L 440.448735 160.34249 
L 440.676109 166.9431 
L 440.903484 163.361374 
L 441.130859 164.691729 
L 441.358233 163.156704 
L 441.585608 159.52381 
L 441.812982 159.165638 
L 442.267732 150.467161 
L 442.495106 153.946551 
L 442.722481 152.872034 
L 442.949855 155.174572 
L 443.17723 160.086653 
L 443.404605 159.574978 
L 443.631979 157.06777 
L 443.859354 162.133353 
L 444.314103 152.923201 
L 444.541478 154.560562 
L 444.768852 152.872034 
L 444.996227 152.872034 
L 445.223601 152.104521 
L 445.450976 156.965435 
L 445.678351 156.044419 
L 445.905725 152.053353 
L 446.1331 154.714064 
L 446.360474 153.895384 
M 447.269973 152.974369 
L 447.497347 153.997719 
L 447.724722 156.504927 
L 448.179471 154.816399 
L 448.406846 155.021069 
L 448.63422 154.816399 
L 448.861595 154.202389 
L 449.08897 154.151221 
L 449.316344 151.030003 
M 450.680592 149.392643 
L 450.907966 152.309191 
L 451.362716 147.652947 
L 451.59009 148.522795 
L 451.817465 148.62513 
L 452.044839 152.002186 
L 452.272214 160.13782 
L 452.499589 159.11447 
L 452.726963 163.821881 
L 452.954338 164.947567 
L 453.181712 163.924216 
L 453.409087 167.454775 
L 453.863836 159.574978 
L 454.318585 154.714064 
L 454.54596 153.895384 
L 454.773335 154.151221 
L 455.000709 160.854166 
L 455.228084 162.593861 
L 455.455458 161.110003 
L 455.682833 154.867567 
M 456.137582 154.816399 
L 456.364957 162.031018 
L 456.819706 157.06777 
L 457.047081 156.811932 
L 457.50183 154.918734 
L 457.729204 157.68178 
L 458.183954 168.836298 
L 458.411328 168.733963 
L 458.638703 165.408074 
L 458.866077 169.80848 
L 459.093452 169.143303 
L 459.548201 162.491526 
L 459.775576 164.845232 
L 460.00295 163.617211 
L 460.457699 160.086653 
M 461.367198 158.9098 
L 461.594572 158.346957 
M 462.504071 158.858633 
L 462.731445 153.179039 
L 462.95882 154.969902 
L 463.413569 146.834267 
L 463.640944 146.37376 
L 463.868318 141.768683 
L 464.095693 145.043404 
L 464.323068 140.950003 
M 466.142064 143.866551 
L 466.369439 143.559546 
L 466.596814 141.922186 
M 467.051563 136.549597 
L 467.961061 121.608683 
M 469.552683 147.39711 
L 469.780058 173.134369 
L 470.007433 184.186551 
M 470.916931 158.960968 
L 471.144306 167.096602 
L 471.37168 202.862694 
L 471.599055 188.228785 
L 471.826429 214.835891 
L 472.053804 256.997922 
L 472.281179 224.353049 
L 472.508553 296.448074 
L 472.735928 277.106754 
L 472.963302 310.774978 
L 473.190677 309.649293 
M 474.100175 296.550409 
L 474.32755 272.962186 
L 474.554925 272.604013 
L 474.782299 264.775384 
L 475.009674 273.627364 
L 475.237048 297.113252 
L 475.464423 295.987567 
L 475.691798 300.84848 
L 475.919172 276.390409 
L 476.146547 273.115688 
L 476.601296 227.269597 
L 476.828671 244.257211 
L 477.056045 233.409699 
L 477.28342 249.169293 
L 477.510794 253.518531 
L 477.738169 241.596501 
L 477.965544 256.076907 
L 478.192918 262.882186 
L 478.420293 257.25376 
L 478.647667 260.374978 
L 478.875042 258.788785 
L 479.102416 246.048074 
L 479.329791 242.875688 
L 479.557166 237.042592 
L 479.78454 241.596501 
L 480.011915 254.746551 
L 480.239289 256.588582 
L 480.466664 254.746551 
L 480.694039 261.500663 
L 480.921413 256.230409 
L 481.148788 247.327262 
L 481.376162 252.904521 
M 483.195159 259.607465 
L 483.422534 254.593049 
L 483.877283 232.744521 
L 484.104658 230.851323 
L 484.332032 234.842389 
L 484.559407 225.683404 
L 484.786781 222.408683 
L 485.014156 209.3098 
L 485.241531 213.505536 
L 485.468905 197.694775 
M 485.923654 194.317719 
L 486.151029 205.421069 
L 486.378404 232.744521 
L 486.605778 218.468785 
L 487.060527 204.397719 
L 487.742651 221.231831 
L 487.970026 221.641171 
L 488.1974 223.329699 
L 488.424775 234.944724 
L 488.65215 233.819039 
L 488.879524 241.442998 
L 489.561648 219.952643 
L 489.789023 221.129496 
L 490.016397 221.334166 
L 490.243772 229.4698 
L 490.471146 230.032643 
L 490.698521 232.539851 
L 490.925896 231.311831 
L 491.15327 236.070409 
L 491.608019 228.85579 
L 491.835394 233.665536 
L 492.062769 228.497617 
M 492.744892 226.246247 
L 492.972267 227.934775 
L 493.199642 230.90249 
L 493.427016 227.116095 
L 493.881765 211.100663 
L 494.10914 213.812541 
L 494.336515 214.580054 
L 494.563889 220.106145 
L 494.791264 213.966044 
L 495.018638 216.063912 
L 495.246013 215.398734 
L 495.473388 209.463303 
L 495.700762 208.798125 
L 495.928137 214.887059 
L 496.155511 210.691323 
L 496.382886 215.859242 
L 496.610261 215.808074 
L 496.837635 212.431018 
L 497.06501 214.426551 
L 497.292384 221.743506 
L 497.519759 217.854775 
L 497.747133 217.189597 
L 497.974508 214.528886 
L 498.201883 213.454369 
L 498.429257 217.291932 
L 498.656632 211.202998 
L 498.884006 208.439952 
L 499.111381 212.738023 
L 499.338756 212.431018 
M 499.793505 209.770308 
L 500.020879 211.970511 
L 500.248254 217.087262 
L 500.475629 212.993861 
L 500.703003 218.110612 
L 500.930378 220.41315 
L 501.157752 210.384318 
L 501.385127 205.318734 
L 501.612502 203.067364 
L 502.067251 220.873658 
M 502.976749 238.475282 
L 503.204124 233.460866 
L 503.431498 225.325232 
L 503.658873 228.24178 
L 503.886248 227.01376 
L 504.340997 211.817008 
L 504.568371 209.412135 
L 504.795746 212.175181 
L 505.023121 211.561171 
M 505.932619 211.561171 
L 506.159994 216.677922 
L 506.387368 214.528886 
L 506.614743 217.496602 
L 506.842117 223.943709 
L 507.069492 221.027161 
L 507.296867 222.255181 
L 507.524241 222.306348 
L 507.751616 219.850308 
L 507.97899 225.734572 
M 510.252736 207.723607 
L 510.480111 201.532338 
L 510.707486 199.894978 
L 510.93486 205.523404 
L 511.162235 194.164216 
L 511.389609 189.252135 
L 511.616984 188.842795 
L 511.844359 197.438937 
L 512.071733 195.750409 
L 512.299108 198.104115 
L 512.526482 197.285435 
L 512.753857 194.982897 
L 512.981232 194.727059 
L 513.208606 196.671424 
L 513.435981 201.225333 
L 513.663355 195.699242 
L 513.89073 199.127465 
L 514.118105 195.494572 
L 514.345479 188.842795 
L 514.572854 192.680359 
L 514.800228 194.215384 
L 515.254978 198.82046 
L 515.482352 199.2298 
L 515.709727 201.122998 
L 515.937101 192.322186 
L 516.164476 191.810511 
L 516.391851 187.563607 
L 516.619225 196.466754 
L 516.8466 198.922795 
L 517.073974 195.903912 
L 517.528723 201.839343 
L 517.756098 199.280968 
L 517.983473 202.965029 
L 518.210847 200.611323 
L 518.438222 196.466754 
M 519.120346 209.258633 
L 519.34772 210.077313 
L 519.575095 205.983912 
M 520.257219 205.523404 
L 520.484593 203.016196 
L 520.711968 198.104115 
M 521.848841 188.842795 
L 522.076215 185.721577 
M 523.667838 181.781678 
L 523.895212 180.195485 
L 524.577336 173.697211 
L 524.804711 172.725029 
L 525.032085 172.622694 
L 525.25946 176.153252 
L 525.486834 176.716095 
L 525.714209 178.66046 
L 526.168958 172.264521 
L 526.623707 165.868582 
L 527.078457 181.423506 
L 527.305831 179.427973 
L 527.76058 186.335587 
M 528.670079 179.786145 
L 529.124828 169.961983 
L 529.579577 155.276907 
L 529.806952 157.221272 
L 530.034326 156.811932 
L 530.261701 161.621678 
M 534.581818 140.284826 
L 535.036568 138.238125 
L 535.491317 130.921171 
L 535.718691 133.633049 
L 535.946066 130.716501 
L 536.17344 129.232643 
L 536.400815 129.28381 
L 536.62819 130.358328 
L 536.855564 126.060257 
L 537.082939 124.064724 
L 537.310313 125.036907 
L 537.537688 128.311628 
L 537.765063 136.651932 
L 537.992437 133.888886 
L 538.219812 127.339445 
L 538.447186 127.492947 
M 541.630431 119.971323 
L 542.08518 104.672237 
L 542.312555 106.616602 
L 542.539929 106.360765 
L 542.994678 95.769089 
L 543.222053 95.052744 
L 543.449428 91.215181 
L 543.676802 93.364216 
L 543.904177 91.266348 
L 544.358926 100.527668 
L 544.586301 101.192846 
L 544.813675 110.198328 
L 545.04105 99.45315 
L 545.268424 102.216196 
L 545.495799 103.137211 
L 545.723174 107.998125 
L 545.950548 104.467567 
L 546.405297 107.435282 
L 546.632672 110.198328 
L 547.54217 100.681171 
L 547.769545 102.165029 
L 548.224294 88.861475 
L 548.451669 96.434267 
L 548.679043 92.699039 
L 548.906418 91.829191 
L 549.133793 92.187364 
M 549.588542 89.526653 
L 549.815916 89.57782 
L 550.043291 93.875891 
L 550.270666 89.424318 
L 550.49804 89.16848 
L 550.725415 86.09843 
L 550.952789 87.991628 
L 551.180164 87.889293 
L 551.407539 87.172947 
L 551.634913 88.3498 
L 551.862288 87.684622 
L 552.089662 89.37315 
L 552.317037 83.028379 
L 552.544412 84.000562 
L 552.771786 86.91711 
M 554.590783 88.3498 
L 554.818157 85.637922 
L 555.045532 86.661272 
L 555.272907 89.066145 
L 555.500281 89.424318 
L 555.727656 89.219648 
L 556.182405 78.06513 
L 556.40978 75.455587 
L 556.637154 66.55244 
M 558.228776 82.926044 
L 558.456151 83.898227 
M 558.9109 81.698023 
L 559.365649 89.935993 
L 559.593024 89.680155 
L 559.820399 84.409902 
L 560.047773 85.484419 
L 560.502522 101.858023 
L 560.729897 105.439749 
L 560.957272 101.499851 
M 563.685767 86.71244 
L 563.913141 85.330917 
L 564.140516 85.075079 
L 564.367891 76.478937 
L 564.595265 75.711424 
L 565.050014 71.311018 
L 565.277389 69.775993 
L 565.504764 74.534572 
L 565.732138 66.75711 
L 565.959513 73.101881 
L 566.641637 65.784927 
L 566.869011 71.157516 
L 567.096386 68.292135 
L 567.32376 68.752643 
L 567.551135 67.78046 
L 567.77851 70.390003 
L 568.005884 69.468988 
L 568.233259 69.878328 
L 568.460633 65.93843 
L 568.688008 69.673658 
L 568.915383 67.933963 
L 569.142757 67.831628 
L 569.597506 73.920562 
L 569.824881 69.41782 
L 570.052256 62.612541 
L 570.27963 78.423303 
L 570.507005 74.329902 
L 570.734379 84.870409 
M 571.189129 77.758125 
L 571.416503 79.600155 
L 571.871252 61.845029 
L 572.098627 57.751628 
M 573.2355 58.365638 
L 573.462875 58.570308 
L 573.690249 59.286653 
L 573.917624 63.738227 
L 574.372373 51.458023 
L 574.599747 52.072034 
M 577.100868 66.194267 
L 577.555617 64.659242 
L 577.782992 65.784927 
L 578.237741 76.785942 
L 578.69249 91.266348 
L 578.919865 92.596704 
L 579.147239 91.573353 
L 579.374614 93.722389 
L 579.601989 102.113861 
L 579.601989 102.113861 
" clip-path="url(#p3f3999a0a6)" style="fill: none; stroke: #1e90ff; stroke-linecap: square"/>
   </g>
   <g id="patch_3">
    <path d="M 46.965625 354.958125 
L 46.965625 22.318125 
" style="fill: none; stroke: #000000; stroke-width: 0.8; stroke-linejoin: miter; stroke-linecap: square"/>
   </g>
   <g id="patch_4">
    <path d="M 604.965625 354.958125 
L 604.965625 22.318125 
" style="fill: none; stroke: #000000; stroke-width: 0.8; stroke-linejoin: miter; stroke-linecap: square"/>
   </g>
   <g id="patch_5">
    <path d="M 46.965625 354.958125 
L 604.965625 354.958125 
" style="fill: none; stroke: #000000; stroke-width: 0.8; stroke-linejoin: miter; stroke-linecap: square"/>
   </g>
   <g id="patch_6">
    <path d="M 46.965625 22.318125 
L 604.965625 22.318125 
" style="fill: none; stroke: #000000; stroke-width: 0.8; stroke-linejoin: miter; stroke-linecap: square"/>
   </g>
   <g id="text_14">
    <!-- VNQ, Relative Strength Index (RSI), VNQ -->
    <g transform="translate(204.8875 16.318125)scale(0.12 -0.12)">
     <defs>
      <path id="DejaVuSans-56" d="M 1831 0 
L 50 4666 
L 709 4666 
L 2188 738 
L 3669 4666 
L 4325 4666 
L 2547 0 
L 1831 0 
z
" transform="scale(0.015625)"/>
      <path id="DejaVuSans-4e" d="M 628 4666 
L 1478 4666 
L 3547 763 
L 3547 4666 
L 4159 4666 
L 4159 0 
L 3309 0 
L 1241 3903 
L 1241 0 
L 628 0 
L 628 4666 
z
" transform="scale(0.015625)"/>
      <path id="DejaVuSans-51" d="M 2522 4238 
Q 1834 4238 1429 3725 
Q 1025 3213 1025 2328 
Q 1025 1447 1429 934 
Q 1834 422 2522 422 
Q 3209 422 3611 934 
Q 4013 1447 4013 2328 
Q 4013 3213 3611 3725 
Q 3209 4238 2522 4238 
z
M 3406 84 
L 4238 -825 
L 3475 -825 
L 2784 -78 
Q 2681 -84 2626 -87 
Q 2572 -91 2522 -91 
Q 1538 -91 948 567 
Q 359 1225 359 2328 
Q 359 3434 948 4092 
Q 1538 4750 2522 4750 
Q 3503 4750 4090 4092 
Q 4678 3434 4678 2328 
Q 4678 1516 4351 937 
Q 4025 359 3406 84 
z
" transform="scale(0.015625)"/>
      <path id="DejaVuSans-2c" d="M 750 794 
L 1409 794 
L 1409 256 
L 897 -744 
L 494 -744 
L 750 256 
L 750 794 
z
" transform="scale(0.015625)"/>
      <path id="DejaVuSans-52" d="M 2841 2188 
Q 3044 2119 3236 1894 
Q 3428 1669 3622 1275 
L 4263 0 
L 3584 0 
L 2988 1197 
Q 2756 1666 2539 1819 
Q 2322 1972 1947 1972 
L 1259 1972 
L 1259 0 
L 628 0 
L 628 4666 
L 2053 4666 
Q 2853 4666 3247 4331 
Q 3641 3997 3641 3322 
Q 3641 2881 3436 2590 
Q 3231 2300 2841 2188 
z
M 1259 4147 
L 1259 2491 
L 2053 2491 
Q 2509 2491 2742 2702 
Q 2975 2913 2975 3322 
Q 2975 3731 2742 3939 
Q 2509 4147 2053 4147 
L 1259 4147 
z
" transform="scale(0.015625)"/>
      <path id="DejaVuSans-6c" d="M 603 4863 
L 1178 4863 
L 1178 0 
L 603 0 
L 603 4863 
z
" transform="scale(0.015625)"/>
      <path id="DejaVuSans-76" d="M 191 3500 
L 800 3500 
L 1894 563 
L 2988 3500 
L 3597 3500 
L 2284 0 
L 1503 0 
L 191 3500 
z
" transform="scale(0.015625)"/>
      <path id="DejaVuSans-6e" d="M 3513 2113 
L 3513 0 
L 2938 0 
L 2938 2094 
Q 2938 2591 2744 2837 
Q 2550 3084 2163 3084 
Q 1697 3084 1428 2787 
Q 1159 2491 1159 1978 
L 1159 0 
L 581 0 
L 581 3500 
L 1159 3500 
L 1159 2956 
Q 1366 3272 1645 3428 
Q 1925 3584 2291 3584 
Q 2894 3584 3203 3211 
Q 3513 2838 3513 2113 
z
" transform="scale(0.015625)"/>
      <path id="DejaVuSans-67" d="M 2906 1791 
Q 2906 2416 2648 2759 
Q 2391 3103 1925 3103 
Q 1463 3103 1205 2759 
Q 947 2416 947 1791 
Q 947 1169 1205 825 
Q 1463 481 1925 481 
Q 2391 481 2648 825 
Q 2906 1169 2906 1791 
z
M 3481 434 
Q 3481 -459 3084 -895 
Q 2688 -1331 1869 -1331 
Q 1566 -1331 1297 -1286 
Q 1028 -1241 775 -1147 
L 775 -588 
Q 1028 -725 1275 -790 
Q 1522 -856 1778 -856 
Q 2344 -856 2625 -561 
Q 2906 -266 2906 331 
L 2906 616 
Q 2728 306 2450 153 
Q 2172 0 1784 0 
Q 1141 0 747 490 
Q 353 981 353 1791 
Q 353 2603 747 3093 
Q 1141 3584 1784 3584 
Q 2172 3584 2450 3431 
Q 2728 3278 2906 2969 
L 2906 3500 
L 3481 3500 
L 3481 434 
z
" transform="scale(0.015625)"/>
      <path id="DejaVuSans-68" d="M 3513 2113 
L 3513 0 
L 2938 0 
L 2938 2094 
Q 2938 2591 2744 2837 
Q 2550 3084 2163 3084 
Q 1697 3084 1428 2787 
Q 1159 2491 1159 1978 
L 1159 0 
L 581 0 
L 581 4863 
L 1159 4863 
L 1159 2956 
Q 1366 3272 1645 3428 
Q 1925 3584 2291 3584 
Q 2894 3584 3203 3211 
Q 3513 2838 3513 2113 
z
" transform="scale(0.015625)"/>
      <path id="DejaVuSans-49" d="M 628 4666 
L 1259 4666 
L 1259 0 
L 628 0 
L 628 4666 
z
" transform="scale(0.015625)"/>
      <path id="DejaVuSans-64" d="M 2906 2969 
L 2906 4863 
L 3481 4863 
L 3481 0 
L 2906 0 
L 2906 525 
Q 2725 213 2448 61 
Q 2172 -91 1784 -91 
Q 1150 -91 751 415 
Q 353 922 353 1747 
Q 353 2572 751 3078 
Q 1150 3584 1784 3584 
Q 2172 3584 2448 3432 
Q 2725 3281 2906 2969 
z
M 947 1747 
Q 947 1113 1208 752 
Q 1469 391 1925 391 
Q 2381 391 2643 752 
Q 2906 1113 2906 1747 
Q 2906 2381 2643 2742 
Q 2381 3103 1925 3103 
Q 1469 3103 1208 2742 
Q 947 2381 947 1747 
z
" transform="scale(0.015625)"/>
      <path id="DejaVuSans-78" d="M 3513 3500 
L 2247 1797 
L 3578 0 
L 2900 0 
L 1881 1375 
L 863 0 
L 184 0 
L 1544 1831 
L 300 3500 
L 978 3500 
L 1906 2253 
L 2834 3500 
L 3513 3500 
z
" transform="scale(0.015625)"/>
     </defs>
     <use xlink:href="#DejaVuSans-56"/>
     <use xlink:href="#DejaVuSans-4e" x="68.408203"/>
     <use xlink:href="#DejaVuSans-51" x="143.212891"/>
     <use xlink:href="#DejaVuSans-2c" x="221.923828"/>
     <use xlink:href="#DejaVuSans-20" x="253.710938"/>
     <use xlink:href="#DejaVuSans-52" x="285.498047"/>
     <use xlink:href="#DejaVuSans-65" x="350.480469"/>
     <use xlink:href="#DejaVuSans-6c" x="412.003906"/>
     <use xlink:href="#DejaVuSans-61" x="439.787109"/>
     <use xlink:href="#DejaVuSans-74" x="501.066406"/>
     <use xlink:href="#DejaVuSans-69" x="540.275391"/>
     <use xlink:href="#DejaVuSans-76" x="568.058594"/>
     <use xlink:href="#DejaVuSans-65" x="627.238281"/>
     <use xlink:href="#DejaVuSans-20" x="688.761719"/>
     <use xlink:href="#DejaVuSans-53" x="720.548828"/>
     <use xlink:href="#DejaVuSans-74" x="784.025391"/>
     <use xlink:href="#DejaVuSans-72" x="823.234375"/>
     <use xlink:href="#DejaVuSans-65" x="862.097656"/>
     <use xlink:href="#DejaVuSans-6e" x="923.621094"/>
     <use xlink:href="#DejaVuSans-67" x="987"/>
     <use xlink:href="#DejaVuSans-74" x="1050.476562"/>
     <use xlink:href="#DejaVuSans-68" x="1089.685547"/>
     <use xlink:href="#DejaVuSans-20" x="1153.064453"/>
     <use xlink:href="#DejaVuSans-49" x="1184.851562"/>
     <use xlink:href="#DejaVuSans-6e" x="1214.34375"/>
     <use xlink:href="#DejaVuSans-64" x="1277.722656"/>
     <use xlink:href="#DejaVuSans-65" x="1341.199219"/>
     <use xlink:href="#DejaVuSans-78" x="1400.972656"/>
     <use xlink:href="#DejaVuSans-20" x="1460.152344"/>
     <use xlink:href="#DejaVuSans-28" x="1491.939453"/>
     <use xlink:href="#DejaVuSans-52" x="1530.953125"/>
     <use xlink:href="#DejaVuSans-53" x="1600.435547"/>
     <use xlink:href="#DejaVuSans-49" x="1663.912109"/>
     <use xlink:href="#DejaVuSans-29" x="1693.404297"/>
     <use xlink:href="#DejaVuSans-2c" x="1732.417969"/>
     <use xlink:href="#DejaVuSans-20" x="1764.205078"/>
     <use xlink:href="#DejaVuSans-56" x="1795.992188"/>
     <use xlink:href="#DejaVuSans-4e" x="1864.400391"/>
     <use xlink:href="#DejaVuSans-51" x="1939.205078"/>
    </g>
   </g>
   <g id="legend_1">
    <g id="patch_7">
     <path d="M 53.965625 74.3525 
L 203.875 74.3525 
Q 205.875 74.3525 205.875 72.3525 
L 205.875 29.318125 
Q 205.875 27.318125 203.875 27.318125 
L 53.965625 27.318125 
Q 51.965625 27.318125 51.965625 29.318125 
L 51.965625 72.3525 
Q 51.965625 74.3525 53.965625 74.3525 
z
" style="fill: #ffffff; opacity: 0.8; stroke: #cccccc; stroke-linejoin: miter"/>
    </g>
    <g id="line2d_21">
     <path d="M 55.965625 35.416562 
L 65.965625 35.416562 
L 75.965625 35.416562 
" style="fill: none; stroke: #00ff7f; stroke-linecap: square"/>
    </g>
    <g id="text_15">
     <!-- Oversold, RSI &lt;= 30 -->
     <g transform="translate(83.965625 38.916562)scale(0.1 -0.1)">
      <defs>
       <path id="DejaVuSans-4f" d="M 2522 4238 
Q 1834 4238 1429 3725 
Q 1025 3213 1025 2328 
Q 1025 1447 1429 934 
Q 1834 422 2522 422 
Q 3209 422 3611 934 
Q 4013 1447 4013 2328 
Q 4013 3213 3611 3725 
Q 3209 4238 2522 4238 
z
M 2522 4750 
Q 3503 4750 4090 4092 
Q 4678 3434 4678 2328 
Q 4678 1225 4090 567 
Q 3503 -91 2522 -91 
Q 1538 -91 948 565 
Q 359 1222 359 2328 
Q 359 3434 948 4092 
Q 1538 4750 2522 4750 
z
" transform="scale(0.015625)"/>
       <path id="DejaVuSans-73" d="M 2834 3397 
L 2834 2853 
Q 2591 2978 2328 3040 
Q 2066 3103 1784 3103 
Q 1356 3103 1142 2972 
Q 928 2841 928 2578 
Q 928 2378 1081 2264 
Q 1234 2150 1697 2047 
L 1894 2003 
Q 2506 1872 2764 1633 
Q 3022 1394 3022 966 
Q 3022 478 2636 193 
Q 2250 -91 1575 -91 
Q 1294 -91 989 -36 
Q 684 19 347 128 
L 347 722 
Q 666 556 975 473 
Q 1284 391 1588 391 
Q 1994 391 2212 530 
Q 2431 669 2431 922 
Q 2431 1156 2273 1281 
Q 2116 1406 1581 1522 
L 1381 1569 
Q 847 1681 609 1914 
Q 372 2147 372 2553 
Q 372 3047 722 3315 
Q 1072 3584 1716 3584 
Q 2034 3584 2315 3537 
Q 2597 3491 2834 3397 
z
" transform="scale(0.015625)"/>
       <path id="DejaVuSans-6f" d="M 1959 3097 
Q 1497 3097 1228 2736 
Q 959 2375 959 1747 
Q 959 1119 1226 758 
Q 1494 397 1959 397 
Q 2419 397 2687 759 
Q 2956 1122 2956 1747 
Q 2956 2369 2687 2733 
Q 2419 3097 1959 3097 
z
M 1959 3584 
Q 2709 3584 3137 3096 
Q 3566 2609 3566 1747 
Q 3566 888 3137 398 
Q 2709 -91 1959 -91 
Q 1206 -91 779 398 
Q 353 888 353 1747 
Q 353 2609 779 3096 
Q 1206 3584 1959 3584 
z
" transform="scale(0.015625)"/>
       <path id="DejaVuSans-3c" d="M 4684 3150 
L 1459 2003 
L 4684 863 
L 4684 294 
L 678 1747 
L 678 2266 
L 4684 3719 
L 4684 3150 
z
" transform="scale(0.015625)"/>
       <path id="DejaVuSans-3d" d="M 678 2906 
L 4684 2906 
L 4684 2381 
L 678 2381 
L 678 2906 
z
M 678 1631 
L 4684 1631 
L 4684 1100 
L 678 1100 
L 678 1631 
z
" transform="scale(0.015625)"/>
       <path id="DejaVuSans-33" d="M 2597 2516 
Q 3050 2419 3304 2112 
Q 3559 1806 3559 1356 
Q 3559 666 3084 287 
Q 2609 -91 1734 -91 
Q 1441 -91 1130 -33 
Q 819 25 488 141 
L 488 750 
Q 750 597 1062 519 
Q 1375 441 1716 441 
Q 2309 441 2620 675 
Q 2931 909 2931 1356 
Q 2931 1769 2642 2001 
Q 2353 2234 1838 2234 
L 1294 2234 
L 1294 2753 
L 1863 2753 
Q 2328 2753 2575 2939 
Q 2822 3125 2822 3475 
Q 2822 3834 2567 4026 
Q 2313 4219 1838 4219 
Q 1578 4219 1281 4162 
Q 984 4106 628 3988 
L 628 4550 
Q 988 4650 1302 4700 
Q 1616 4750 1894 4750 
Q 2613 4750 3031 4423 
Q 3450 4097 3450 3541 
Q 3450 3153 3228 2886 
Q 3006 2619 2597 2516 
z
" transform="scale(0.015625)"/>
      </defs>
      <use xlink:href="#DejaVuSans-4f"/>
      <use xlink:href="#DejaVuSans-76" x="78.710938"/>
      <use xlink:href="#DejaVuSans-65" x="137.890625"/>
      <use xlink:href="#DejaVuSans-72" x="199.414062"/>
      <use xlink:href="#DejaVuSans-73" x="240.527344"/>
      <use xlink:href="#DejaVuSans-6f" x="292.626953"/>
      <use xlink:href="#DejaVuSans-6c" x="353.808594"/>
      <use xlink:href="#DejaVuSans-64" x="381.591797"/>
      <use xlink:href="#DejaVuSans-2c" x="445.068359"/>
      <use xlink:href="#DejaVuSans-20" x="476.855469"/>
      <use xlink:href="#DejaVuSans-52" x="508.642578"/>
      <use xlink:href="#DejaVuSans-53" x="578.125"/>
      <use xlink:href="#DejaVuSans-49" x="641.601562"/>
      <use xlink:href="#DejaVuSans-20" x="671.09375"/>
      <use xlink:href="#DejaVuSans-3c" x="702.880859"/>
      <use xlink:href="#DejaVuSans-3d" x="786.669922"/>
      <use xlink:href="#DejaVuSans-20" x="870.458984"/>
      <use xlink:href="#DejaVuSans-33" x="902.246094"/>
      <use xlink:href="#DejaVuSans-30" x="965.869141"/>
     </g>
    </g>
    <g id="line2d_22">
     <path d="M 55.965625 50.094687 
L 65.965625 50.094687 
L 75.965625 50.094687 
" style="fill: none; stroke: #ff4500; stroke-linecap: square"/>
    </g>
    <g id="text_16">
     <!-- Overbought, RSI &gt;= 70 -->
     <g transform="translate(83.965625 53.594687)scale(0.1 -0.1)">
      <defs>
       <path id="DejaVuSans-62" d="M 3116 1747 
Q 3116 2381 2855 2742 
Q 2594 3103 2138 3103 
Q 1681 3103 1420 2742 
Q 1159 2381 1159 1747 
Q 1159 1113 1420 752 
Q 1681 391 2138 391 
Q 2594 391 2855 752 
Q 3116 1113 3116 1747 
z
M 1159 2969 
Q 1341 3281 1617 3432 
Q 1894 3584 2278 3584 
Q 2916 3584 3314 3078 
Q 3713 2572 3713 1747 
Q 3713 922 3314 415 
Q 2916 -91 2278 -91 
Q 1894 -91 1617 61 
Q 1341 213 1159 525 
L 1159 0 
L 581 0 
L 581 4863 
L 1159 4863 
L 1159 2969 
z
" transform="scale(0.015625)"/>
       <path id="DejaVuSans-75" d="M 544 1381 
L 544 3500 
L 1119 3500 
L 1119 1403 
Q 1119 906 1312 657 
Q 1506 409 1894 409 
Q 2359 409 2629 706 
Q 2900 1003 2900 1516 
L 2900 3500 
L 3475 3500 
L 3475 0 
L 2900 0 
L 2900 538 
Q 2691 219 2414 64 
Q 2138 -91 1772 -91 
Q 1169 -91 856 284 
Q 544 659 544 1381 
z
M 1991 3584 
L 1991 3584 
z
" transform="scale(0.015625)"/>
       <path id="DejaVuSans-3e" d="M 678 3150 
L 678 3719 
L 4684 2266 
L 4684 1747 
L 678 294 
L 678 863 
L 3897 2003 
L 678 3150 
z
" transform="scale(0.015625)"/>
      </defs>
      <use xlink:href="#DejaVuSans-4f"/>
      <use xlink:href="#DejaVuSans-76" x="78.710938"/>
      <use xlink:href="#DejaVuSans-65" x="137.890625"/>
      <use xlink:href="#DejaVuSans-72" x="199.414062"/>
      <use xlink:href="#DejaVuSans-62" x="240.527344"/>
      <use xlink:href="#DejaVuSans-6f" x="304.003906"/>
      <use xlink:href="#DejaVuSans-75" x="365.185547"/>
      <use xlink:href="#DejaVuSans-67" x="428.564453"/>
      <use xlink:href="#DejaVuSans-68" x="492.041016"/>
      <use xlink:href="#DejaVuSans-74" x="555.419922"/>
      <use xlink:href="#DejaVuSans-2c" x="594.628906"/>
      <use xlink:href="#DejaVuSans-20" x="626.416016"/>
      <use xlink:href="#DejaVuSans-52" x="658.203125"/>
      <use xlink:href="#DejaVuSans-53" x="727.685547"/>
      <use xlink:href="#DejaVuSans-49" x="791.162109"/>
      <use xlink:href="#DejaVuSans-20" x="820.654297"/>
      <use xlink:href="#DejaVuSans-3e" x="852.441406"/>
      <use xlink:href="#DejaVuSans-3d" x="936.230469"/>
      <use xlink:href="#DejaVuSans-20" x="1020.019531"/>
      <use xlink:href="#DejaVuSans-37" x="1051.806641"/>
      <use xlink:href="#DejaVuSans-30" x="1115.429688"/>
     </g>
    </g>
    <g id="line2d_23">
     <path d="M 55.965625 64.772812 
L 65.965625 64.772812 
L 75.965625 64.772812 
" style="fill: none; stroke: #1e90ff; stroke-linecap: square"/>
    </g>
    <g id="text_17">
     <!-- Neutral -->
     <g transform="translate(83.965625 68.272812)scale(0.1 -0.1)">
      <use xlink:href="#DejaVuSans-4e"/>
      <use xlink:href="#DejaVuSans-65" x="74.804688"/>
      <use xlink:href="#DejaVuSans-75" x="136.328125"/>
      <use xlink:href="#DejaVuSans-74" x="199.707031"/>
      <use xlink:href="#DejaVuSans-72" x="238.916016"/>
      <use xlink:href="#DejaVuSans-61" x="280.029297"/>
      <use xlink:href="#DejaVuSans-6c" x="341.308594"/>
     </g>
    </g>
   </g>
  </g>
 </g>
 <defs>
  <clipPath id="p3f3999a0a6">
   <rect x="46.965625" y="22.318125" width="558" height="332.64"/>
  </clipPath>
 </defs>
</svg>
